%FSLAX45Y45*%
G04 Gerber Fmt 4.5, Leading zero omitted, Abs format (unit mm)*
G04 Created by KiCad (PCBNEW (5.1.12-1-10_14)) date 2021-12-06 09:49:11*
%MOMM*%
%LPD*%
G01*
G04 APERTURE LIST*
%TA.AperFunction,Profile*%
%ADD10C,0.120000*%
%TD*%
%ADD11C,0.200000*%
%ADD12C,0.300000*%
G04 APERTURE END LIST*
D10*
X16065500Y-4445000D02*
G75*
G02*
X16192500Y-4572000I0J-127000D01*
G01*
X11747500Y-4572000D02*
G75*
G02*
X11874500Y-4445000I127000J0D01*
G01*
X11874500Y-8001000D02*
G75*
G02*
X11747500Y-7874000I0J127000D01*
G01*
X16192500Y-7874000D02*
G75*
G02*
X16065500Y-8001000I-127000J0D01*
G01*
X11747500Y-7874000D02*
X11747500Y-4572000D01*
X16065500Y-8001000D02*
X11874500Y-8001000D01*
X16192500Y-4572000D02*
X16192500Y-7874000D01*
X11874500Y-4445000D02*
X16065500Y-4445000D01*
D11*
D12*
X12027928Y-8472714D02*
X12027928Y-8172714D01*
X12099357Y-8172714D01*
X12142214Y-8187000D01*
X12170786Y-8215571D01*
X12185071Y-8244143D01*
X12199357Y-8301286D01*
X12199357Y-8344143D01*
X12185071Y-8401286D01*
X12170786Y-8429857D01*
X12142214Y-8458429D01*
X12099357Y-8472714D01*
X12027928Y-8472714D01*
X12327928Y-8472714D02*
X12327928Y-8272714D01*
X12327928Y-8329857D02*
X12342214Y-8301286D01*
X12356500Y-8287000D01*
X12385071Y-8272714D01*
X12413643Y-8272714D01*
X12513643Y-8472714D02*
X12513643Y-8272714D01*
X12513643Y-8172714D02*
X12499357Y-8187000D01*
X12513643Y-8201286D01*
X12527928Y-8187000D01*
X12513643Y-8172714D01*
X12513643Y-8201286D01*
X12699357Y-8472714D02*
X12670786Y-8458429D01*
X12656500Y-8429857D01*
X12656500Y-8172714D01*
X12856500Y-8472714D02*
X12827928Y-8458429D01*
X12813643Y-8429857D01*
X12813643Y-8172714D01*
X13199357Y-8472714D02*
X13199357Y-8172714D01*
X13299357Y-8387000D01*
X13399357Y-8172714D01*
X13399357Y-8472714D01*
X13670786Y-8472714D02*
X13670786Y-8315571D01*
X13656500Y-8287000D01*
X13627928Y-8272714D01*
X13570786Y-8272714D01*
X13542214Y-8287000D01*
X13670786Y-8458429D02*
X13642214Y-8472714D01*
X13570786Y-8472714D01*
X13542214Y-8458429D01*
X13527928Y-8429857D01*
X13527928Y-8401286D01*
X13542214Y-8372714D01*
X13570786Y-8358429D01*
X13642214Y-8358429D01*
X13670786Y-8344143D01*
X13813643Y-8272714D02*
X13813643Y-8572714D01*
X13813643Y-8287000D02*
X13842214Y-8272714D01*
X13899357Y-8272714D01*
X13927928Y-8287000D01*
X13942214Y-8301286D01*
X13956500Y-8329857D01*
X13956500Y-8415572D01*
X13942214Y-8444143D01*
X13927928Y-8458429D01*
X13899357Y-8472714D01*
X13842214Y-8472714D01*
X13813643Y-8458429D01*
X14085071Y-8444143D02*
X14099357Y-8458429D01*
X14085071Y-8472714D01*
X14070786Y-8458429D01*
X14085071Y-8444143D01*
X14085071Y-8472714D01*
X14085071Y-8287000D02*
X14099357Y-8301286D01*
X14085071Y-8315571D01*
X14070786Y-8301286D01*
X14085071Y-8287000D01*
X14085071Y-8315571D01*
M02*
