%TF.GenerationSoftware,KiCad,Pcbnew,(6.0.1-0)*%
%TF.CreationDate,2022-02-06T14:25:27+08:00*%
%TF.ProjectId,Pragmatic,50726167-6d61-4746-9963-2e6b69636164,V2*%
%TF.SameCoordinates,Original*%
%TF.FileFunction,Copper,L1,Top*%
%TF.FilePolarity,Positive*%
%FSLAX46Y46*%
G04 Gerber Fmt 4.6, Leading zero omitted, Abs format (unit mm)*
G04 Created by KiCad (PCBNEW (6.0.1-0)) date 2022-02-06 14:25:27*
%MOMM*%
%LPD*%
G01*
G04 APERTURE LIST*
G04 Aperture macros list*
%AMRoundRect*
0 Rectangle with rounded corners*
0 $1 Rounding radius*
0 $2 $3 $4 $5 $6 $7 $8 $9 X,Y pos of 4 corners*
0 Add a 4 corners polygon primitive as box body*
4,1,4,$2,$3,$4,$5,$6,$7,$8,$9,$2,$3,0*
0 Add four circle primitives for the rounded corners*
1,1,$1+$1,$2,$3*
1,1,$1+$1,$4,$5*
1,1,$1+$1,$6,$7*
1,1,$1+$1,$8,$9*
0 Add four rect primitives between the rounded corners*
20,1,$1+$1,$2,$3,$4,$5,0*
20,1,$1+$1,$4,$5,$6,$7,0*
20,1,$1+$1,$6,$7,$8,$9,0*
20,1,$1+$1,$8,$9,$2,$3,0*%
G04 Aperture macros list end*
%ADD10C,0.177800*%
%TA.AperFunction,NonConductor*%
%ADD11C,0.177800*%
%TD*%
%TA.AperFunction,ComponentPad*%
%ADD12RoundRect,0.250000X-0.600000X-0.600000X0.600000X-0.600000X0.600000X0.600000X-0.600000X0.600000X0*%
%TD*%
%TA.AperFunction,ComponentPad*%
%ADD13C,1.700000*%
%TD*%
%TA.AperFunction,ComponentPad*%
%ADD14RoundRect,0.250000X0.600000X0.600000X-0.600000X0.600000X-0.600000X-0.600000X0.600000X-0.600000X0*%
%TD*%
%TA.AperFunction,ComponentPad*%
%ADD15C,2.000000*%
%TD*%
%TA.AperFunction,ComponentPad*%
%ADD16R,1.752600X1.752600*%
%TD*%
%TA.AperFunction,ComponentPad*%
%ADD17C,1.752600*%
%TD*%
%TA.AperFunction,ViaPad*%
%ADD18C,0.800000*%
%TD*%
%TA.AperFunction,Conductor*%
%ADD19C,0.250000*%
%TD*%
%TA.AperFunction,Conductor*%
%ADD20C,0.381000*%
%TD*%
G04 APERTURE END LIST*
D10*
D11*
X120124431Y-48719619D02*
X120251431Y-47703619D01*
X120638479Y-47703619D01*
X120729193Y-47752000D01*
X120771526Y-47800380D01*
X120807812Y-47897142D01*
X120789669Y-48042285D01*
X120729193Y-48139047D01*
X120674765Y-48187428D01*
X120571955Y-48235809D01*
X120184907Y-48235809D01*
X121140431Y-48719619D02*
X121225098Y-48042285D01*
X121200907Y-48235809D02*
X121261384Y-48139047D01*
X121315812Y-48090666D01*
X121418622Y-48042285D01*
X121515384Y-48042285D01*
X122204812Y-48719619D02*
X122271336Y-48187428D01*
X122235050Y-48090666D01*
X122144336Y-48042285D01*
X121950812Y-48042285D01*
X121848003Y-48090666D01*
X122210860Y-48671238D02*
X122108050Y-48719619D01*
X121866145Y-48719619D01*
X121775431Y-48671238D01*
X121739145Y-48574476D01*
X121751241Y-48477714D01*
X121811717Y-48380952D01*
X121914526Y-48332571D01*
X122156431Y-48332571D01*
X122259241Y-48284190D01*
X123208717Y-48042285D02*
X123105907Y-48864761D01*
X123045431Y-48961523D01*
X122991003Y-49009904D01*
X122888193Y-49058285D01*
X122743050Y-49058285D01*
X122652336Y-49009904D01*
X123130098Y-48671238D02*
X123027288Y-48719619D01*
X122833765Y-48719619D01*
X122743050Y-48671238D01*
X122700717Y-48622857D01*
X122664431Y-48526095D01*
X122700717Y-48235809D01*
X122761193Y-48139047D01*
X122815622Y-48090666D01*
X122918431Y-48042285D01*
X123111955Y-48042285D01*
X123202669Y-48090666D01*
X123607860Y-48719619D02*
X123692526Y-48042285D01*
X123680431Y-48139047D02*
X123734860Y-48090666D01*
X123837669Y-48042285D01*
X123982812Y-48042285D01*
X124073526Y-48090666D01*
X124109812Y-48187428D01*
X124043288Y-48719619D01*
X124109812Y-48187428D02*
X124170288Y-48090666D01*
X124273098Y-48042285D01*
X124418241Y-48042285D01*
X124508955Y-48090666D01*
X124545241Y-48187428D01*
X124478717Y-48719619D01*
X125397955Y-48719619D02*
X125464479Y-48187428D01*
X125428193Y-48090666D01*
X125337479Y-48042285D01*
X125143955Y-48042285D01*
X125041145Y-48090666D01*
X125404003Y-48671238D02*
X125301193Y-48719619D01*
X125059288Y-48719619D01*
X124968574Y-48671238D01*
X124932288Y-48574476D01*
X124944384Y-48477714D01*
X125004860Y-48380952D01*
X125107669Y-48332571D01*
X125349574Y-48332571D01*
X125452384Y-48284190D01*
X125821288Y-48042285D02*
X126208336Y-48042285D01*
X126008765Y-47703619D02*
X125899907Y-48574476D01*
X125936193Y-48671238D01*
X126026907Y-48719619D01*
X126123669Y-48719619D01*
X126462336Y-48719619D02*
X126547003Y-48042285D01*
X126589336Y-47703619D02*
X126534907Y-47752000D01*
X126577241Y-47800380D01*
X126631669Y-47752000D01*
X126589336Y-47703619D01*
X126577241Y-47800380D01*
X127387622Y-48671238D02*
X127284812Y-48719619D01*
X127091288Y-48719619D01*
X127000574Y-48671238D01*
X126958241Y-48622857D01*
X126921955Y-48526095D01*
X126958241Y-48235809D01*
X127018717Y-48139047D01*
X127073145Y-48090666D01*
X127175955Y-48042285D01*
X127369479Y-48042285D01*
X127460193Y-48090666D01*
D12*
%TO.P,J1,1,Pin_1*%
%TO.N,VCC*%
X121920000Y-58420000D03*
D13*
%TO.P,J1,2,Pin_2*%
%TO.N,GND*%
X124460000Y-58420000D03*
%TO.P,J1,3,Pin_3*%
%TO.N,Row1*%
X121920000Y-60960000D03*
%TO.P,J1,4,Pin_4*%
%TO.N,Col1*%
X124460000Y-60960000D03*
%TO.P,J1,5,Pin_5*%
%TO.N,Row2*%
X121920000Y-63500000D03*
%TO.P,J1,6,Pin_6*%
%TO.N,Col2*%
X124460000Y-63500000D03*
%TO.P,J1,7,Pin_7*%
%TO.N,Row3*%
X121920000Y-66040000D03*
%TO.P,J1,8,Pin_8*%
%TO.N,Col3*%
X124460000Y-66040000D03*
%TO.P,J1,9,Pin_9*%
%TO.N,Row4*%
X121920000Y-68580000D03*
%TO.P,J1,10,Pin_10*%
%TO.N,Col4*%
X124460000Y-68580000D03*
%TO.P,J1,11,Pin_11*%
%TO.N,Row5*%
X121920000Y-71120000D03*
%TO.P,J1,12,Pin_12*%
%TO.N,Col5*%
X124460000Y-71120000D03*
%TO.P,J1,13,Pin_13*%
%TO.N,Row6*%
X121920000Y-73660000D03*
%TO.P,J1,14,Pin_14*%
%TO.N,Col6*%
X124460000Y-73660000D03*
%TD*%
D14*
%TO.P,J2,1,Pin_1*%
%TO.N,VCC*%
X157480000Y-73660000D03*
D13*
%TO.P,J2,2,Pin_2*%
%TO.N,GND*%
X154940000Y-73660000D03*
%TO.P,J2,3,Pin_3*%
%TO.N,Row1*%
X157480000Y-71120000D03*
%TO.P,J2,4,Pin_4*%
%TO.N,Col7*%
X154940000Y-71120000D03*
%TO.P,J2,5,Pin_5*%
%TO.N,Row2*%
X157480000Y-68580000D03*
%TO.P,J2,6,Pin_6*%
%TO.N,Col8*%
X154940000Y-68580000D03*
%TO.P,J2,7,Pin_7*%
%TO.N,Row3*%
X157480000Y-66040000D03*
%TO.P,J2,8,Pin_8*%
%TO.N,Col9*%
X154940000Y-66040000D03*
%TO.P,J2,9,Pin_9*%
%TO.N,Row4*%
X157480000Y-63500000D03*
%TO.P,J2,10,Pin_10*%
%TO.N,Col10*%
X154940000Y-63500000D03*
%TO.P,J2,11,Pin_11*%
%TO.N,Row5*%
X157480000Y-60960000D03*
%TO.P,J2,12,Pin_12*%
%TO.N,Col11*%
X154940000Y-60960000D03*
%TO.P,J2,13,Pin_13*%
%TO.N,Row6*%
X157480000Y-58420000D03*
%TO.P,J2,14,Pin_14*%
%TO.N,Col12*%
X154940000Y-58420000D03*
%TD*%
D15*
%TO.P,SW1,*%
%TO.N,*%
X159460000Y-50510000D03*
X159460000Y-46010000D03*
%TO.P,SW1,1,1*%
%TO.N,Reset*%
X152960000Y-50510000D03*
%TO.P,SW1,2,2*%
%TO.N,GND*%
X152960000Y-46010000D03*
%TD*%
D16*
%TO.P,U1,1,TX*%
%TO.N,Col1*%
X132080000Y-49530000D03*
D17*
%TO.P,U1,2,RX*%
%TO.N,Col2*%
X132080000Y-52070000D03*
%TO.P,U1,3,GND*%
%TO.N,GND*%
X132080000Y-54610000D03*
%TO.P,U1,4,GND*%
X132080000Y-57150000D03*
%TO.P,U1,5,SDA*%
%TO.N,Row1*%
X132080000Y-59690000D03*
%TO.P,U1,6,SCL*%
%TO.N,Row2*%
X132080000Y-62230000D03*
%TO.P,U1,7,D4*%
%TO.N,Col3*%
X132080000Y-64770000D03*
%TO.P,U1,8,C6*%
%TO.N,Row4*%
X132080000Y-67310000D03*
%TO.P,U1,9,D7*%
%TO.N,Col4*%
X132080000Y-69850000D03*
%TO.P,U1,10,E6*%
%TO.N,Row5*%
X132080000Y-72390000D03*
%TO.P,U1,11,B4*%
%TO.N,Col5*%
X132080000Y-74930000D03*
%TO.P,U1,12,B5*%
%TO.N,Col6*%
X132080000Y-77470000D03*
%TO.P,U1,13,B6*%
%TO.N,Col7*%
X147320000Y-77470000D03*
%TO.P,U1,14,B2*%
%TO.N,Row6*%
X147320000Y-74930000D03*
%TO.P,U1,15,B3*%
%TO.N,Col8*%
X147320000Y-72390000D03*
%TO.P,U1,16,B1*%
%TO.N,Col9*%
X147320000Y-69850000D03*
%TO.P,U1,17,F7*%
%TO.N,Col10*%
X147320000Y-67310000D03*
%TO.P,U1,18,F6*%
%TO.N,Row3*%
X147320000Y-64770000D03*
%TO.P,U1,19,F5*%
%TO.N,Col11*%
X147320000Y-62230000D03*
%TO.P,U1,20,F4*%
%TO.N,Col12*%
X147320000Y-59690000D03*
%TO.P,U1,21,VCC*%
%TO.N,VCC*%
X147320000Y-57150000D03*
%TO.P,U1,22,RST*%
%TO.N,Reset*%
X147320000Y-54610000D03*
%TO.P,U1,23,GND*%
%TO.N,GND*%
X147320000Y-52070000D03*
%TO.P,U1,24,RAW*%
%TO.N,unconnected-(U1-Pad24)*%
X147320000Y-49530000D03*
%TD*%
D18*
%TO.N,Row1*%
X137795000Y-68580000D03*
%TO.N,Row2*%
X143510000Y-66040000D03*
X138430000Y-62229999D03*
%TD*%
D19*
%TO.N,Row1*%
X157480000Y-71120000D02*
X156114511Y-69754511D01*
X129540000Y-59690000D02*
X127000000Y-62230000D01*
X156114511Y-69754511D02*
X152304511Y-69754511D01*
X123190000Y-62230000D02*
X121920000Y-60960000D01*
X151130000Y-68580000D02*
X137795000Y-68580000D01*
X152304511Y-69754511D02*
X151130000Y-68580000D01*
X127000000Y-62230000D02*
X123190000Y-62230000D01*
X132080000Y-59690000D02*
X129540000Y-59690000D01*
D20*
%TO.N,VCC*%
X133985000Y-57150000D02*
X132715000Y-58420000D01*
X132715000Y-58420000D02*
X126289320Y-58420000D01*
X125019320Y-59690000D02*
X123190000Y-59690000D01*
X123190000Y-59690000D02*
X121920000Y-58420000D01*
X147320000Y-57150000D02*
X133985000Y-57150000D01*
X126289320Y-58420000D02*
X125019320Y-59690000D01*
D19*
%TO.N,Row3*%
X147320000Y-64770000D02*
X156210000Y-64770000D01*
X156210000Y-64770000D02*
X157480000Y-66040000D01*
%TO.N,Row5*%
X132080000Y-72390000D02*
X129540000Y-69850000D01*
X123190000Y-69850000D02*
X121920000Y-71120000D01*
X129540000Y-69850000D02*
X123190000Y-69850000D01*
%TO.N,Row6*%
X149860000Y-74930000D02*
X147320000Y-74930000D01*
X146119189Y-76130811D02*
X130618816Y-76130811D01*
X157480000Y-58420000D02*
X158750000Y-59690000D01*
X158115000Y-72390000D02*
X152400000Y-72390000D01*
X152400000Y-72390000D02*
X149860000Y-74930000D01*
X130618816Y-76130811D02*
X126878005Y-72390000D01*
X158750000Y-71755000D02*
X158115000Y-72390000D01*
X123190000Y-72390000D02*
X121920000Y-73660000D01*
X147320000Y-74930000D02*
X146119189Y-76130811D01*
X158750000Y-59690000D02*
X158750000Y-71755000D01*
X126878005Y-72390000D02*
X123190000Y-72390000D01*
%TO.N,Row4*%
X152330811Y-63569189D02*
X140020411Y-63569189D01*
X123190000Y-67310000D02*
X121920000Y-68580000D01*
X156210000Y-62230000D02*
X153670000Y-62230000D01*
X132080000Y-67310000D02*
X123190000Y-67310000D01*
X153670000Y-62230000D02*
X152330811Y-63569189D01*
X136279600Y-67310000D02*
X132080000Y-67310000D01*
X157480000Y-63500000D02*
X156210000Y-62230000D01*
X140020411Y-63569189D02*
X136279600Y-67310000D01*
%TO.N,Col6*%
X125730000Y-73660000D02*
X124460000Y-73660000D01*
X132080000Y-77470000D02*
X129540000Y-77470000D01*
X129540000Y-77470000D02*
X125730000Y-73660000D01*
%TO.N,Col5*%
X132080000Y-74930000D02*
X128270000Y-71120000D01*
X128270000Y-71120000D02*
X124460000Y-71120000D01*
%TO.N,Col4*%
X132080000Y-69850000D02*
X130810000Y-68580000D01*
X130810000Y-68580000D02*
X124460000Y-68580000D01*
%TO.N,Col3*%
X130810000Y-66040000D02*
X124460000Y-66040000D01*
X132080000Y-64770000D02*
X130810000Y-66040000D01*
%TO.N,Row2*%
X151026602Y-66040000D02*
X143510000Y-66040000D01*
X157480000Y-68580000D02*
X156114511Y-67214511D01*
X132080000Y-62230000D02*
X138430000Y-62229999D01*
X129540000Y-64770000D02*
X123190000Y-64770000D01*
X123190000Y-64770000D02*
X121920000Y-63500000D01*
X156114511Y-67214511D02*
X152201113Y-67214511D01*
X132080000Y-62230000D02*
X129540000Y-64770000D01*
X152201113Y-67214511D02*
X151026602Y-66040000D01*
%TO.N,Reset*%
X151420000Y-50510000D02*
X147320000Y-54610000D01*
X152960000Y-50510000D02*
X151420000Y-50510000D01*
D20*
%TO.N,GND*%
X152960000Y-46010000D02*
X156210000Y-49260000D01*
X147320000Y-52070000D02*
X152960000Y-46430000D01*
X156210000Y-74930000D02*
X154940000Y-73660000D01*
X132080000Y-54610000D02*
X144780000Y-54610000D01*
X132080000Y-57150000D02*
X125730000Y-57150000D01*
X158750000Y-74930000D02*
X156210000Y-74930000D01*
X160020000Y-73660000D02*
X158750000Y-74930000D01*
X132080000Y-57150000D02*
X132080000Y-54610000D01*
X152960000Y-46430000D02*
X152960000Y-46010000D01*
X152885000Y-46505000D02*
X152885000Y-46300000D01*
X125730000Y-57150000D02*
X124460000Y-58420000D01*
X156210000Y-49260000D02*
X156210000Y-51435000D01*
X160020000Y-55245000D02*
X160020000Y-73660000D01*
X156210000Y-51435000D02*
X160020000Y-55245000D01*
X144780000Y-54610000D02*
X147320000Y-52070000D01*
%TD*%
M02*
