%TF.GenerationSoftware,KiCad,Pcbnew,(5.1.12-1-10_14)*%
%TF.CreationDate,2021-11-30T09:14:07+08:00*%
%TF.ProjectId,Pragmatic,50726167-6d61-4746-9963-2e6b69636164,V0.3*%
%TF.SameCoordinates,Original*%
%TF.FileFunction,Copper,L1,Top*%
%TF.FilePolarity,Positive*%
%FSLAX46Y46*%
G04 Gerber Fmt 4.6, Leading zero omitted, Abs format (unit mm)*
G04 Created by KiCad (PCBNEW (5.1.12-1-10_14)) date 2021-11-30 09:14:07*
%MOMM*%
%LPD*%
G01*
G04 APERTURE LIST*
%TA.AperFunction,NonConductor*%
%ADD10C,0.177800*%
%TD*%
%TA.AperFunction,ComponentPad*%
%ADD11C,1.752600*%
%TD*%
%TA.AperFunction,ComponentPad*%
%ADD12R,1.752600X1.752600*%
%TD*%
%TA.AperFunction,ComponentPad*%
%ADD13O,1.700000X1.700000*%
%TD*%
%TA.AperFunction,ComponentPad*%
%ADD14R,1.700000X1.700000*%
%TD*%
%TA.AperFunction,ComponentPad*%
%ADD15C,2.000000*%
%TD*%
%TA.AperFunction,ComponentPad*%
%ADD16C,1.700000*%
%TD*%
%TA.AperFunction,Conductor*%
%ADD17C,0.250000*%
%TD*%
%TA.AperFunction,Conductor*%
%ADD18C,0.381000*%
%TD*%
%TA.AperFunction,Conductor*%
%ADD19C,0.025400*%
%TD*%
%TA.AperFunction,Conductor*%
%ADD20C,0.100000*%
%TD*%
G04 APERTURE END LIST*
D10*
X120116970Y-46814619D02*
X120243970Y-45798619D01*
X120631018Y-45798619D01*
X120721732Y-45847000D01*
X120764065Y-45895380D01*
X120800351Y-45992142D01*
X120782208Y-46137285D01*
X120721732Y-46234047D01*
X120667303Y-46282428D01*
X120564494Y-46330809D01*
X120177446Y-46330809D01*
X121132970Y-46814619D02*
X121217637Y-46137285D01*
X121193446Y-46330809D02*
X121253922Y-46234047D01*
X121308351Y-46185666D01*
X121411160Y-46137285D01*
X121507922Y-46137285D01*
X122197351Y-46814619D02*
X122263875Y-46282428D01*
X122227589Y-46185666D01*
X122136875Y-46137285D01*
X121943351Y-46137285D01*
X121840541Y-46185666D01*
X122203398Y-46766238D02*
X122100589Y-46814619D01*
X121858684Y-46814619D01*
X121767970Y-46766238D01*
X121731684Y-46669476D01*
X121743779Y-46572714D01*
X121804256Y-46475952D01*
X121907065Y-46427571D01*
X122148970Y-46427571D01*
X122251779Y-46379190D01*
X123201256Y-46137285D02*
X123098446Y-46959761D01*
X123037970Y-47056523D01*
X122983541Y-47104904D01*
X122880732Y-47153285D01*
X122735589Y-47153285D01*
X122644875Y-47104904D01*
X123122637Y-46766238D02*
X123019827Y-46814619D01*
X122826303Y-46814619D01*
X122735589Y-46766238D01*
X122693256Y-46717857D01*
X122656970Y-46621095D01*
X122693256Y-46330809D01*
X122753732Y-46234047D01*
X122808160Y-46185666D01*
X122910970Y-46137285D01*
X123104494Y-46137285D01*
X123195208Y-46185666D01*
X123600398Y-46814619D02*
X123685065Y-46137285D01*
X123672970Y-46234047D02*
X123727398Y-46185666D01*
X123830208Y-46137285D01*
X123975351Y-46137285D01*
X124066065Y-46185666D01*
X124102351Y-46282428D01*
X124035827Y-46814619D01*
X124102351Y-46282428D02*
X124162827Y-46185666D01*
X124265637Y-46137285D01*
X124410779Y-46137285D01*
X124501494Y-46185666D01*
X124537779Y-46282428D01*
X124471256Y-46814619D01*
X125390494Y-46814619D02*
X125457018Y-46282428D01*
X125420732Y-46185666D01*
X125330018Y-46137285D01*
X125136494Y-46137285D01*
X125033684Y-46185666D01*
X125396541Y-46766238D02*
X125293732Y-46814619D01*
X125051827Y-46814619D01*
X124961113Y-46766238D01*
X124924827Y-46669476D01*
X124936922Y-46572714D01*
X124997398Y-46475952D01*
X125100208Y-46427571D01*
X125342113Y-46427571D01*
X125444922Y-46379190D01*
X125813827Y-46137285D02*
X126200875Y-46137285D01*
X126001303Y-45798619D02*
X125892446Y-46669476D01*
X125928732Y-46766238D01*
X126019446Y-46814619D01*
X126116208Y-46814619D01*
X126454875Y-46814619D02*
X126539541Y-46137285D01*
X126581875Y-45798619D02*
X126527446Y-45847000D01*
X126569779Y-45895380D01*
X126624208Y-45847000D01*
X126581875Y-45798619D01*
X126569779Y-45895380D01*
X127380160Y-46766238D02*
X127277351Y-46814619D01*
X127083827Y-46814619D01*
X126993113Y-46766238D01*
X126950779Y-46717857D01*
X126914494Y-46621095D01*
X126950779Y-46330809D01*
X127011256Y-46234047D01*
X127065684Y-46185666D01*
X127168494Y-46137285D01*
X127362018Y-46137285D01*
X127452732Y-46185666D01*
D11*
%TO.P,U1,24*%
%TO.N,N/C*%
X147320000Y-49530000D03*
%TO.P,U1,12*%
%TO.N,Col6*%
X132080000Y-77470000D03*
%TO.P,U1,23*%
%TO.N,GND*%
X147320000Y-52070000D03*
%TO.P,U1,22*%
%TO.N,Reset*%
X147320000Y-54610000D03*
%TO.P,U1,21*%
%TO.N,VCC*%
X147320000Y-57150000D03*
%TO.P,U1,20*%
%TO.N,Col12*%
X147320000Y-59690000D03*
%TO.P,U1,19*%
%TO.N,Col11*%
X147320000Y-62230000D03*
%TO.P,U1,18*%
%TO.N,Row3*%
X147320000Y-64770000D03*
%TO.P,U1,17*%
%TO.N,Col10*%
X147320000Y-67310000D03*
%TO.P,U1,16*%
%TO.N,Col9*%
X147320000Y-69850000D03*
%TO.P,U1,15*%
%TO.N,Col8*%
X147320000Y-72390000D03*
%TO.P,U1,14*%
%TO.N,Row6*%
X147320000Y-74930000D03*
%TO.P,U1,13*%
%TO.N,Col7*%
X147320000Y-77470000D03*
%TO.P,U1,11*%
%TO.N,Col5*%
X132080000Y-74930000D03*
%TO.P,U1,10*%
%TO.N,Row5*%
X132080000Y-72390000D03*
%TO.P,U1,9*%
%TO.N,Col4*%
X132080000Y-69850000D03*
%TO.P,U1,8*%
%TO.N,Row4*%
X132080000Y-67310000D03*
%TO.P,U1,7*%
%TO.N,Col3*%
X132080000Y-64770000D03*
%TO.P,U1,6*%
%TO.N,Row2*%
X132080000Y-62230000D03*
%TO.P,U1,5*%
%TO.N,Row1*%
X132080000Y-59690000D03*
%TO.P,U1,4*%
%TO.N,GND*%
X132080000Y-57150000D03*
%TO.P,U1,3*%
X132080000Y-54610000D03*
%TO.P,U1,2*%
%TO.N,Col2*%
X132080000Y-52070000D03*
D12*
%TO.P,U1,1*%
%TO.N,Col1*%
X132080000Y-49530000D03*
%TD*%
D13*
%TO.P,J3,4*%
%TO.N,GND*%
X127000000Y-49530000D03*
%TO.P,J3,3*%
%TO.N,VCC*%
X124460000Y-49530000D03*
%TO.P,J3,2*%
%TO.N,Row2*%
X121920000Y-49530000D03*
D14*
%TO.P,J3,1*%
%TO.N,Row1*%
X119380000Y-49530000D03*
%TD*%
D15*
%TO.P,SW1,1*%
%TO.N,Reset*%
X152885000Y-50800000D03*
%TO.P,SW1,2*%
%TO.N,GND*%
X152885000Y-46300000D03*
%TO.P,SW1,1*%
%TO.N,Reset*%
X159385000Y-50800000D03*
%TO.P,SW1,2*%
%TO.N,GND*%
X159385000Y-46300000D03*
%TD*%
D16*
%TO.P,J2,14*%
%TO.N,Col7*%
X157480000Y-73660000D03*
%TO.P,J2,12*%
%TO.N,Col8*%
X157480000Y-71120000D03*
%TO.P,J2,10*%
%TO.N,Col9*%
X157480000Y-68580000D03*
%TO.P,J2,8*%
%TO.N,Col10*%
X157480000Y-66040000D03*
%TO.P,J2,6*%
%TO.N,Col11*%
X157480000Y-63500000D03*
%TO.P,J2,4*%
%TO.N,Col12*%
X157480000Y-60960000D03*
%TO.P,J2,2*%
%TO.N,GND*%
X157480000Y-58420000D03*
%TO.P,J2,13*%
%TO.N,Row6*%
X154940000Y-73660000D03*
%TO.P,J2,11*%
%TO.N,Row5*%
X154940000Y-71120000D03*
%TO.P,J2,9*%
%TO.N,Row4*%
X154940000Y-68580000D03*
%TO.P,J2,7*%
%TO.N,Row3*%
X154940000Y-66040000D03*
%TO.P,J2,5*%
%TO.N,Row2*%
X154940000Y-63500000D03*
%TO.P,J2,3*%
%TO.N,Row1*%
X154940000Y-60960000D03*
%TO.P,J2,1*%
%TO.N,VCC*%
%TA.AperFunction,ComponentPad*%
G36*
G01*
X154090000Y-59020000D02*
X154090000Y-57820000D01*
G75*
G02*
X154340000Y-57570000I250000J0D01*
G01*
X155540000Y-57570000D01*
G75*
G02*
X155790000Y-57820000I0J-250000D01*
G01*
X155790000Y-59020000D01*
G75*
G02*
X155540000Y-59270000I-250000J0D01*
G01*
X154340000Y-59270000D01*
G75*
G02*
X154090000Y-59020000I0J250000D01*
G01*
G37*
%TD.AperFunction*%
%TD*%
%TO.P,J1,14*%
%TO.N,Row6*%
X124460000Y-73660000D03*
%TO.P,J1,12*%
%TO.N,Row5*%
X124460000Y-71120000D03*
%TO.P,J1,10*%
%TO.N,Row4*%
X124460000Y-68580000D03*
%TO.P,J1,8*%
%TO.N,Row3*%
X124460000Y-66040000D03*
%TO.P,J1,6*%
%TO.N,Row2*%
X124460000Y-63500000D03*
%TO.P,J1,4*%
%TO.N,Row1*%
X124460000Y-60960000D03*
%TO.P,J1,2*%
%TO.N,VCC*%
X124460000Y-58420000D03*
%TO.P,J1,13*%
%TO.N,Col6*%
X121920000Y-73660000D03*
%TO.P,J1,11*%
%TO.N,Col5*%
X121920000Y-71120000D03*
%TO.P,J1,9*%
%TO.N,Col4*%
X121920000Y-68580000D03*
%TO.P,J1,7*%
%TO.N,Col3*%
X121920000Y-66040000D03*
%TO.P,J1,5*%
%TO.N,Col2*%
X121920000Y-63500000D03*
%TO.P,J1,3*%
%TO.N,Col1*%
X121920000Y-60960000D03*
%TO.P,J1,1*%
%TO.N,GND*%
%TA.AperFunction,ComponentPad*%
G36*
G01*
X121070000Y-59020000D02*
X121070000Y-57820000D01*
G75*
G02*
X121320000Y-57570000I250000J0D01*
G01*
X122520000Y-57570000D01*
G75*
G02*
X122770000Y-57820000I0J-250000D01*
G01*
X122770000Y-59020000D01*
G75*
G02*
X122520000Y-59270000I-250000J0D01*
G01*
X121320000Y-59270000D01*
G75*
G02*
X121070000Y-59020000I0J250000D01*
G01*
G37*
%TD.AperFunction*%
%TD*%
D17*
%TO.N,Row1*%
X132080000Y-59690000D02*
X131445000Y-59690000D01*
X140335000Y-60960000D02*
X154940000Y-60960000D01*
X139065000Y-59690000D02*
X140335000Y-60960000D01*
X132080000Y-59690000D02*
X139065000Y-59690000D01*
X125730000Y-59690000D02*
X132080000Y-59690000D01*
X124460000Y-60960000D02*
X125730000Y-59690000D01*
D18*
%TO.N,VCC*%
X153670000Y-57150000D02*
X147320000Y-57150000D01*
X154940000Y-58420000D02*
X153670000Y-57150000D01*
X124463199Y-58416801D02*
X124460000Y-58420000D01*
X146053199Y-58416801D02*
X124463199Y-58416801D01*
X147320000Y-57150000D02*
X146053199Y-58416801D01*
D17*
%TO.N,Row3*%
X153670000Y-64770000D02*
X154940000Y-66040000D01*
X147320000Y-64770000D02*
X153670000Y-64770000D01*
X124528699Y-65971301D02*
X124460000Y-66040000D01*
X146118699Y-65971301D02*
X124528699Y-65971301D01*
X147320000Y-64770000D02*
X146118699Y-65971301D01*
%TO.N,Row5*%
X140335000Y-71120000D02*
X154940000Y-71120000D01*
X139065000Y-72390000D02*
X140335000Y-71120000D01*
X132080000Y-72390000D02*
X139065000Y-72390000D01*
X127000000Y-72390000D02*
X132080000Y-72390000D01*
X125730000Y-71120000D02*
X127000000Y-72390000D01*
X124460000Y-71120000D02*
X125730000Y-71120000D01*
%TO.N,Row6*%
X153670000Y-74930000D02*
X147320000Y-74930000D01*
X154940000Y-73660000D02*
X153670000Y-74930000D01*
X124528699Y-73728699D02*
X124460000Y-73660000D01*
X146118699Y-73728699D02*
X124528699Y-73728699D01*
X147320000Y-74930000D02*
X146118699Y-73728699D01*
%TO.N,Row4*%
X139065000Y-67310000D02*
X140335000Y-68580000D01*
X140335000Y-68580000D02*
X154940000Y-68580000D01*
X132080000Y-67310000D02*
X139065000Y-67310000D01*
X132080000Y-67310000D02*
X130810000Y-68580000D01*
X130810000Y-68580000D02*
X124460000Y-68580000D01*
%TO.N,Row2*%
X132080000Y-62230000D02*
X131445000Y-62230000D01*
X139065000Y-62230000D02*
X140335000Y-63500000D01*
X140335000Y-63500000D02*
X154940000Y-63500000D01*
X132080000Y-62230000D02*
X139065000Y-62230000D01*
X125730000Y-62230000D02*
X124460000Y-63500000D01*
X132080000Y-62230000D02*
X125730000Y-62230000D01*
X120650000Y-50800000D02*
X121920000Y-49530000D01*
X120650000Y-61595000D02*
X120650000Y-50800000D01*
X121285000Y-62230000D02*
X120650000Y-61595000D01*
X122555000Y-62230000D02*
X121285000Y-62230000D01*
X123825000Y-63500000D02*
X122555000Y-62230000D01*
X124460000Y-63500000D02*
X123825000Y-63500000D01*
D18*
%TO.N,GND*%
X132080000Y-57150000D02*
X132080000Y-54610000D01*
X132080000Y-54610000D02*
X127000000Y-49530000D01*
X152885000Y-46505000D02*
X152885000Y-46300000D01*
X147320000Y-52070000D02*
X152885000Y-46505000D01*
X152885000Y-46300000D02*
X159385000Y-46300000D01*
X140970000Y-52070000D02*
X147320000Y-52070000D01*
X138430000Y-54610000D02*
X140970000Y-52070000D01*
X150495000Y-55245000D02*
X147320000Y-52070000D01*
X154305000Y-55245000D02*
X150495000Y-55245000D01*
X157480000Y-58420000D02*
X154305000Y-55245000D01*
X123825000Y-56515000D02*
X121920000Y-58420000D01*
X130175000Y-56515000D02*
X123825000Y-56515000D01*
X132080000Y-54610000D02*
X130175000Y-56515000D01*
X132080000Y-54610000D02*
X138430000Y-54610000D01*
%TD*%
D19*
%TO.N,Row1*%
X155346678Y-60960000D02*
X154567399Y-61709395D01*
X154417366Y-61627642D01*
X154286404Y-61539799D01*
X154174125Y-61452440D01*
X154072664Y-61368067D01*
X154072478Y-61367915D01*
X153974192Y-61289278D01*
X153973418Y-61288706D01*
X153870611Y-61218532D01*
X153869249Y-61217722D01*
X153754071Y-61158615D01*
X153752314Y-61157874D01*
X153616913Y-61112433D01*
X153615103Y-61111970D01*
X153451629Y-61082799D01*
X153450053Y-61082619D01*
X153262700Y-61072939D01*
X153262700Y-60847061D01*
X153450053Y-60837380D01*
X153451629Y-60837200D01*
X153615103Y-60808029D01*
X153616913Y-60807566D01*
X153752314Y-60762125D01*
X153754071Y-60761384D01*
X153869249Y-60702277D01*
X153870611Y-60701467D01*
X153973418Y-60631293D01*
X153974192Y-60630721D01*
X154072478Y-60552084D01*
X154072664Y-60551932D01*
X154174125Y-60467559D01*
X154286404Y-60380200D01*
X154417366Y-60292357D01*
X154567399Y-60210605D01*
X155346678Y-60960000D01*
%TA.AperFunction,Conductor*%
D20*
G36*
X155346678Y-60960000D02*
G01*
X154567399Y-61709395D01*
X154417366Y-61627642D01*
X154286404Y-61539799D01*
X154174125Y-61452440D01*
X154072664Y-61368067D01*
X154072478Y-61367915D01*
X153974192Y-61289278D01*
X153973418Y-61288706D01*
X153870611Y-61218532D01*
X153869249Y-61217722D01*
X153754071Y-61158615D01*
X153752314Y-61157874D01*
X153616913Y-61112433D01*
X153615103Y-61111970D01*
X153451629Y-61082799D01*
X153450053Y-61082619D01*
X153262700Y-61072939D01*
X153262700Y-60847061D01*
X153450053Y-60837380D01*
X153451629Y-60837200D01*
X153615103Y-60808029D01*
X153616913Y-60807566D01*
X153752314Y-60762125D01*
X153754071Y-60761384D01*
X153869249Y-60702277D01*
X153870611Y-60701467D01*
X153973418Y-60631293D01*
X153974192Y-60630721D01*
X154072478Y-60552084D01*
X154072664Y-60551932D01*
X154174125Y-60467559D01*
X154286404Y-60380200D01*
X154417366Y-60292357D01*
X154567399Y-60210605D01*
X155346678Y-60960000D01*
G37*
%TD.AperFunction*%
%TD*%
D19*
%TO.N,Row1*%
X132619643Y-59001758D02*
X132755168Y-59092806D01*
X132871281Y-59183381D01*
X132976142Y-59270877D01*
X132976325Y-59271027D01*
X133077871Y-59352601D01*
X133078644Y-59353175D01*
X133184855Y-59425986D01*
X133186218Y-59426800D01*
X133305233Y-59488142D01*
X133306995Y-59488888D01*
X133446951Y-59536054D01*
X133448767Y-59536520D01*
X133617804Y-59566804D01*
X133619386Y-59566986D01*
X133813600Y-59577058D01*
X133813600Y-59802941D01*
X133619386Y-59813013D01*
X133617804Y-59813195D01*
X133448767Y-59843479D01*
X133446951Y-59843945D01*
X133306995Y-59891111D01*
X133305233Y-59891857D01*
X133186218Y-59953199D01*
X133184855Y-59954013D01*
X133078644Y-60026824D01*
X133077871Y-60027398D01*
X132976325Y-60108972D01*
X132976142Y-60109122D01*
X132871281Y-60196618D01*
X132755168Y-60287193D01*
X132619643Y-60378241D01*
X132464064Y-60463064D01*
X131660172Y-59690000D01*
X132464064Y-58916936D01*
X132619643Y-59001758D01*
%TA.AperFunction,Conductor*%
D20*
G36*
X132619643Y-59001758D02*
G01*
X132755168Y-59092806D01*
X132871281Y-59183381D01*
X132976142Y-59270877D01*
X132976325Y-59271027D01*
X133077871Y-59352601D01*
X133078644Y-59353175D01*
X133184855Y-59425986D01*
X133186218Y-59426800D01*
X133305233Y-59488142D01*
X133306995Y-59488888D01*
X133446951Y-59536054D01*
X133448767Y-59536520D01*
X133617804Y-59566804D01*
X133619386Y-59566986D01*
X133813600Y-59577058D01*
X133813600Y-59802941D01*
X133619386Y-59813013D01*
X133617804Y-59813195D01*
X133448767Y-59843479D01*
X133446951Y-59843945D01*
X133306995Y-59891111D01*
X133305233Y-59891857D01*
X133186218Y-59953199D01*
X133184855Y-59954013D01*
X133078644Y-60026824D01*
X133077871Y-60027398D01*
X132976325Y-60108972D01*
X132976142Y-60109122D01*
X132871281Y-60196618D01*
X132755168Y-60287193D01*
X132619643Y-60378241D01*
X132464064Y-60463064D01*
X131660172Y-59690000D01*
X132464064Y-58916936D01*
X132619643Y-59001758D01*
G37*
%TD.AperFunction*%
%TD*%
D19*
%TO.N,Row1*%
X132499828Y-59690000D02*
X131695936Y-60463064D01*
X131540356Y-60378241D01*
X131404831Y-60287193D01*
X131288718Y-60196618D01*
X131183857Y-60109122D01*
X131183674Y-60108972D01*
X131082128Y-60027398D01*
X131081355Y-60026824D01*
X130975144Y-59954013D01*
X130973781Y-59953199D01*
X130854766Y-59891857D01*
X130853004Y-59891111D01*
X130713048Y-59843945D01*
X130711232Y-59843479D01*
X130542195Y-59813195D01*
X130540613Y-59813013D01*
X130346400Y-59802941D01*
X130346400Y-59577058D01*
X130540613Y-59566986D01*
X130542195Y-59566804D01*
X130711232Y-59536520D01*
X130713048Y-59536054D01*
X130853004Y-59488888D01*
X130854766Y-59488142D01*
X130973781Y-59426800D01*
X130975144Y-59425986D01*
X131081355Y-59353175D01*
X131082128Y-59352601D01*
X131183674Y-59271027D01*
X131183857Y-59270877D01*
X131288718Y-59183381D01*
X131404831Y-59092806D01*
X131540356Y-59001758D01*
X131695936Y-58916936D01*
X132499828Y-59690000D01*
%TA.AperFunction,Conductor*%
D20*
G36*
X132499828Y-59690000D02*
G01*
X131695936Y-60463064D01*
X131540356Y-60378241D01*
X131404831Y-60287193D01*
X131288718Y-60196618D01*
X131183857Y-60109122D01*
X131183674Y-60108972D01*
X131082128Y-60027398D01*
X131081355Y-60026824D01*
X130975144Y-59954013D01*
X130973781Y-59953199D01*
X130854766Y-59891857D01*
X130853004Y-59891111D01*
X130713048Y-59843945D01*
X130711232Y-59843479D01*
X130542195Y-59813195D01*
X130540613Y-59813013D01*
X130346400Y-59802941D01*
X130346400Y-59577058D01*
X130540613Y-59566986D01*
X130542195Y-59566804D01*
X130711232Y-59536520D01*
X130713048Y-59536054D01*
X130853004Y-59488888D01*
X130854766Y-59488142D01*
X130973781Y-59426800D01*
X130975144Y-59425986D01*
X131081355Y-59353175D01*
X131082128Y-59352601D01*
X131183674Y-59271027D01*
X131183857Y-59270877D01*
X131288718Y-59183381D01*
X131404831Y-59092806D01*
X131540356Y-59001758D01*
X131695936Y-58916936D01*
X132499828Y-59690000D01*
G37*
%TD.AperFunction*%
%TD*%
D19*
%TO.N,Row1*%
X125725889Y-59853830D02*
X125600254Y-59993154D01*
X125599268Y-59994396D01*
X125504303Y-60130617D01*
X125503350Y-60132224D01*
X125439738Y-60260098D01*
X125439019Y-60261865D01*
X125399371Y-60385104D01*
X125398981Y-60386639D01*
X125375906Y-60508954D01*
X125375764Y-60509906D01*
X125361870Y-60635009D01*
X125361845Y-60635248D01*
X125349760Y-60766664D01*
X125332142Y-60907816D01*
X125301650Y-61062544D01*
X125253372Y-61226433D01*
X124172436Y-61247564D01*
X124193567Y-60166628D01*
X124357455Y-60118349D01*
X124512183Y-60087857D01*
X124653335Y-60070239D01*
X124784751Y-60058154D01*
X124784990Y-60058129D01*
X124910093Y-60044235D01*
X124911045Y-60044093D01*
X125033360Y-60021018D01*
X125034895Y-60020628D01*
X125158134Y-59980980D01*
X125159901Y-59980261D01*
X125287775Y-59916649D01*
X125289382Y-59915696D01*
X125425603Y-59820731D01*
X125426845Y-59819745D01*
X125566169Y-59694110D01*
X125725889Y-59853830D01*
%TA.AperFunction,Conductor*%
D20*
G36*
X125725889Y-59853830D02*
G01*
X125600254Y-59993154D01*
X125599268Y-59994396D01*
X125504303Y-60130617D01*
X125503350Y-60132224D01*
X125439738Y-60260098D01*
X125439019Y-60261865D01*
X125399371Y-60385104D01*
X125398981Y-60386639D01*
X125375906Y-60508954D01*
X125375764Y-60509906D01*
X125361870Y-60635009D01*
X125361845Y-60635248D01*
X125349760Y-60766664D01*
X125332142Y-60907816D01*
X125301650Y-61062544D01*
X125253372Y-61226433D01*
X124172436Y-61247564D01*
X124193567Y-60166628D01*
X124357455Y-60118349D01*
X124512183Y-60087857D01*
X124653335Y-60070239D01*
X124784751Y-60058154D01*
X124784990Y-60058129D01*
X124910093Y-60044235D01*
X124911045Y-60044093D01*
X125033360Y-60021018D01*
X125034895Y-60020628D01*
X125158134Y-59980980D01*
X125159901Y-59980261D01*
X125287775Y-59916649D01*
X125289382Y-59915696D01*
X125425603Y-59820731D01*
X125426845Y-59819745D01*
X125566169Y-59694110D01*
X125725889Y-59853830D01*
G37*
%TD.AperFunction*%
%TD*%
D19*
%TO.N,VCC*%
X147855749Y-56457876D02*
X147989785Y-56542820D01*
X148106292Y-56625704D01*
X148212738Y-56704433D01*
X148213025Y-56704639D01*
X148316816Y-56777026D01*
X148317641Y-56777555D01*
X148426236Y-56841447D01*
X148427554Y-56842122D01*
X148548513Y-56895438D01*
X148550114Y-56896019D01*
X148690998Y-56936678D01*
X148692587Y-56937028D01*
X148860955Y-56962949D01*
X148862319Y-56963084D01*
X149053600Y-56971644D01*
X149053600Y-57328356D01*
X148862319Y-57336915D01*
X148860955Y-57337050D01*
X148692587Y-57362971D01*
X148690998Y-57363321D01*
X148550114Y-57403980D01*
X148548513Y-57404561D01*
X148427554Y-57457877D01*
X148426236Y-57458552D01*
X148317641Y-57522444D01*
X148316816Y-57522973D01*
X148213025Y-57595360D01*
X148212738Y-57595566D01*
X148106292Y-57674295D01*
X147989785Y-57757179D01*
X147855749Y-57842123D01*
X147704123Y-57923121D01*
X146900172Y-57150000D01*
X147704123Y-56376879D01*
X147855749Y-56457876D01*
%TA.AperFunction,Conductor*%
D20*
G36*
X147855749Y-56457876D02*
G01*
X147989785Y-56542820D01*
X148106292Y-56625704D01*
X148212738Y-56704433D01*
X148213025Y-56704639D01*
X148316816Y-56777026D01*
X148317641Y-56777555D01*
X148426236Y-56841447D01*
X148427554Y-56842122D01*
X148548513Y-56895438D01*
X148550114Y-56896019D01*
X148690998Y-56936678D01*
X148692587Y-56937028D01*
X148860955Y-56962949D01*
X148862319Y-56963084D01*
X149053600Y-56971644D01*
X149053600Y-57328356D01*
X148862319Y-57336915D01*
X148860955Y-57337050D01*
X148692587Y-57362971D01*
X148690998Y-57363321D01*
X148550114Y-57403980D01*
X148548513Y-57404561D01*
X148427554Y-57457877D01*
X148426236Y-57458552D01*
X148317641Y-57522444D01*
X148316816Y-57522973D01*
X148213025Y-57595360D01*
X148212738Y-57595566D01*
X148106292Y-57674295D01*
X147989785Y-57757179D01*
X147855749Y-57842123D01*
X147704123Y-57923121D01*
X146900172Y-57150000D01*
X147704123Y-56376879D01*
X147855749Y-56457876D01*
G37*
%TD.AperFunction*%
%TD*%
D19*
%TO.N,VCC*%
X154016274Y-57232492D02*
X154017323Y-57233354D01*
X154149993Y-57330939D01*
X154151349Y-57331809D01*
X154275281Y-57400681D01*
X154276809Y-57401402D01*
X154395750Y-57448100D01*
X154397150Y-57448557D01*
X154514843Y-57479623D01*
X154515800Y-57479837D01*
X154635993Y-57501810D01*
X154636349Y-57501870D01*
X154762699Y-57521277D01*
X154898658Y-57544602D01*
X155048060Y-57578363D01*
X155206431Y-57626542D01*
X155227564Y-58707564D01*
X154146542Y-58686431D01*
X154098363Y-58528060D01*
X154064602Y-58378658D01*
X154041277Y-58242699D01*
X154021870Y-58116349D01*
X154021810Y-58115993D01*
X153999837Y-57995800D01*
X153999623Y-57994843D01*
X153968557Y-57877150D01*
X153968100Y-57875750D01*
X153921402Y-57756809D01*
X153920681Y-57755281D01*
X153851809Y-57631349D01*
X153850939Y-57629993D01*
X153753354Y-57497323D01*
X153752492Y-57496274D01*
X153627858Y-57360084D01*
X153880084Y-57107858D01*
X154016274Y-57232492D01*
%TA.AperFunction,Conductor*%
D20*
G36*
X154016274Y-57232492D02*
G01*
X154017323Y-57233354D01*
X154149993Y-57330939D01*
X154151349Y-57331809D01*
X154275281Y-57400681D01*
X154276809Y-57401402D01*
X154395750Y-57448100D01*
X154397150Y-57448557D01*
X154514843Y-57479623D01*
X154515800Y-57479837D01*
X154635993Y-57501810D01*
X154636349Y-57501870D01*
X154762699Y-57521277D01*
X154898658Y-57544602D01*
X155048060Y-57578363D01*
X155206431Y-57626542D01*
X155227564Y-58707564D01*
X154146542Y-58686431D01*
X154098363Y-58528060D01*
X154064602Y-58378658D01*
X154041277Y-58242699D01*
X154021870Y-58116349D01*
X154021810Y-58115993D01*
X153999837Y-57995800D01*
X153999623Y-57994843D01*
X153968557Y-57877150D01*
X153968100Y-57875750D01*
X153921402Y-57756809D01*
X153920681Y-57755281D01*
X153851809Y-57631349D01*
X153850939Y-57629993D01*
X153753354Y-57497323D01*
X153752492Y-57496274D01*
X153627858Y-57360084D01*
X153880084Y-57107858D01*
X154016274Y-57232492D01*
G37*
%TD.AperFunction*%
%TD*%
D19*
%TO.N,VCC*%
X124976691Y-57746748D02*
X125106896Y-57828200D01*
X125220179Y-57907594D01*
X125323786Y-57982966D01*
X125324077Y-57983172D01*
X125425126Y-58052428D01*
X125425950Y-58052947D01*
X125531647Y-58114042D01*
X125532955Y-58114701D01*
X125650596Y-58165660D01*
X125652177Y-58166224D01*
X125789058Y-58205070D01*
X125790623Y-58205409D01*
X125954043Y-58230166D01*
X125955386Y-58230297D01*
X126140499Y-58238454D01*
X126140499Y-58595150D01*
X125955922Y-58603309D01*
X125954573Y-58603441D01*
X125791621Y-58628225D01*
X125790048Y-58628568D01*
X125653592Y-58667486D01*
X125652001Y-58668057D01*
X125534775Y-58719152D01*
X125533457Y-58719820D01*
X125428195Y-58781137D01*
X125427361Y-58781667D01*
X125326796Y-58851251D01*
X125326495Y-58851466D01*
X125223471Y-58927280D01*
X125110821Y-59007304D01*
X124981423Y-59089526D01*
X124835506Y-59168037D01*
X124053326Y-58421543D01*
X124829818Y-57669136D01*
X124976691Y-57746748D01*
%TA.AperFunction,Conductor*%
D20*
G36*
X124976691Y-57746748D02*
G01*
X125106896Y-57828200D01*
X125220179Y-57907594D01*
X125323786Y-57982966D01*
X125324077Y-57983172D01*
X125425126Y-58052428D01*
X125425950Y-58052947D01*
X125531647Y-58114042D01*
X125532955Y-58114701D01*
X125650596Y-58165660D01*
X125652177Y-58166224D01*
X125789058Y-58205070D01*
X125790623Y-58205409D01*
X125954043Y-58230166D01*
X125955386Y-58230297D01*
X126140499Y-58238454D01*
X126140499Y-58595150D01*
X125955922Y-58603309D01*
X125954573Y-58603441D01*
X125791621Y-58628225D01*
X125790048Y-58628568D01*
X125653592Y-58667486D01*
X125652001Y-58668057D01*
X125534775Y-58719152D01*
X125533457Y-58719820D01*
X125428195Y-58781137D01*
X125427361Y-58781667D01*
X125326796Y-58851251D01*
X125326495Y-58851466D01*
X125223471Y-58927280D01*
X125110821Y-59007304D01*
X124981423Y-59089526D01*
X124835506Y-59168037D01*
X124053326Y-58421543D01*
X124829818Y-57669136D01*
X124976691Y-57746748D01*
G37*
%TD.AperFunction*%
%TD*%
D19*
%TO.N,VCC*%
X147595062Y-57968295D02*
X147430574Y-58018236D01*
X147275723Y-58052952D01*
X147134751Y-58076723D01*
X147003802Y-58096324D01*
X147003453Y-58096381D01*
X146878876Y-58118586D01*
X146877919Y-58118795D01*
X146755953Y-58150405D01*
X146754544Y-58150860D01*
X146631313Y-58198691D01*
X146629770Y-58199412D01*
X146501400Y-58270282D01*
X146500029Y-58271158D01*
X146362646Y-58371883D01*
X146361585Y-58372752D01*
X146220277Y-58501955D01*
X145968045Y-58249723D01*
X146097247Y-58108414D01*
X146098116Y-58107353D01*
X146198841Y-57969970D01*
X146199717Y-57968599D01*
X146270587Y-57840229D01*
X146271308Y-57838686D01*
X146319139Y-57715455D01*
X146319594Y-57714046D01*
X146351204Y-57592080D01*
X146351413Y-57591123D01*
X146373618Y-57466546D01*
X146373675Y-57466197D01*
X146393276Y-57335248D01*
X146417047Y-57194276D01*
X146451763Y-57039425D01*
X146501705Y-56874938D01*
X147616862Y-56853138D01*
X147595062Y-57968295D01*
%TA.AperFunction,Conductor*%
D20*
G36*
X147595062Y-57968295D02*
G01*
X147430574Y-58018236D01*
X147275723Y-58052952D01*
X147134751Y-58076723D01*
X147003802Y-58096324D01*
X147003453Y-58096381D01*
X146878876Y-58118586D01*
X146877919Y-58118795D01*
X146755953Y-58150405D01*
X146754544Y-58150860D01*
X146631313Y-58198691D01*
X146629770Y-58199412D01*
X146501400Y-58270282D01*
X146500029Y-58271158D01*
X146362646Y-58371883D01*
X146361585Y-58372752D01*
X146220277Y-58501955D01*
X145968045Y-58249723D01*
X146097247Y-58108414D01*
X146098116Y-58107353D01*
X146198841Y-57969970D01*
X146199717Y-57968599D01*
X146270587Y-57840229D01*
X146271308Y-57838686D01*
X146319139Y-57715455D01*
X146319594Y-57714046D01*
X146351204Y-57592080D01*
X146351413Y-57591123D01*
X146373618Y-57466546D01*
X146373675Y-57466197D01*
X146393276Y-57335248D01*
X146417047Y-57194276D01*
X146451763Y-57039425D01*
X146501705Y-56874938D01*
X147616862Y-56853138D01*
X147595062Y-57968295D01*
G37*
%TD.AperFunction*%
%TD*%
D19*
%TO.N,Row3*%
X153973154Y-64899745D02*
X153974396Y-64900731D01*
X154110617Y-64995696D01*
X154112224Y-64996649D01*
X154240098Y-65060261D01*
X154241865Y-65060980D01*
X154365104Y-65100628D01*
X154366639Y-65101018D01*
X154488954Y-65124093D01*
X154489906Y-65124235D01*
X154615009Y-65138129D01*
X154615248Y-65138154D01*
X154746664Y-65150239D01*
X154887816Y-65167857D01*
X155042544Y-65198349D01*
X155206433Y-65246628D01*
X155227564Y-66327564D01*
X154146628Y-66306433D01*
X154098349Y-66142544D01*
X154067857Y-65987816D01*
X154050239Y-65846664D01*
X154038154Y-65715248D01*
X154038129Y-65715009D01*
X154024235Y-65589906D01*
X154024093Y-65588954D01*
X154001018Y-65466639D01*
X154000628Y-65465104D01*
X153960980Y-65341865D01*
X153960261Y-65340098D01*
X153896649Y-65212224D01*
X153895696Y-65210617D01*
X153800731Y-65074396D01*
X153799745Y-65073154D01*
X153674110Y-64933831D01*
X153833831Y-64774110D01*
X153973154Y-64899745D01*
%TA.AperFunction,Conductor*%
D20*
G36*
X153973154Y-64899745D02*
G01*
X153974396Y-64900731D01*
X154110617Y-64995696D01*
X154112224Y-64996649D01*
X154240098Y-65060261D01*
X154241865Y-65060980D01*
X154365104Y-65100628D01*
X154366639Y-65101018D01*
X154488954Y-65124093D01*
X154489906Y-65124235D01*
X154615009Y-65138129D01*
X154615248Y-65138154D01*
X154746664Y-65150239D01*
X154887816Y-65167857D01*
X155042544Y-65198349D01*
X155206433Y-65246628D01*
X155227564Y-66327564D01*
X154146628Y-66306433D01*
X154098349Y-66142544D01*
X154067857Y-65987816D01*
X154050239Y-65846664D01*
X154038154Y-65715248D01*
X154038129Y-65715009D01*
X154024235Y-65589906D01*
X154024093Y-65588954D01*
X154001018Y-65466639D01*
X154000628Y-65465104D01*
X153960980Y-65341865D01*
X153960261Y-65340098D01*
X153896649Y-65212224D01*
X153895696Y-65210617D01*
X153800731Y-65074396D01*
X153799745Y-65073154D01*
X153674110Y-64933831D01*
X153833831Y-64774110D01*
X153973154Y-64899745D01*
G37*
%TD.AperFunction*%
%TD*%
D19*
%TO.N,Row3*%
X147859643Y-64081758D02*
X147995168Y-64172806D01*
X148111281Y-64263381D01*
X148216142Y-64350877D01*
X148216325Y-64351027D01*
X148317871Y-64432601D01*
X148318644Y-64433175D01*
X148424855Y-64505986D01*
X148426218Y-64506800D01*
X148545233Y-64568142D01*
X148546995Y-64568888D01*
X148686951Y-64616054D01*
X148688767Y-64616520D01*
X148857804Y-64646804D01*
X148859386Y-64646986D01*
X149053600Y-64657058D01*
X149053600Y-64882941D01*
X148859386Y-64893013D01*
X148857804Y-64893195D01*
X148688767Y-64923479D01*
X148686951Y-64923945D01*
X148546995Y-64971111D01*
X148545233Y-64971857D01*
X148426218Y-65033199D01*
X148424855Y-65034013D01*
X148318644Y-65106824D01*
X148317871Y-65107398D01*
X148216325Y-65188972D01*
X148216142Y-65189122D01*
X148111281Y-65276618D01*
X147995168Y-65367193D01*
X147859643Y-65458241D01*
X147704064Y-65543064D01*
X146900172Y-64770000D01*
X147704064Y-63996936D01*
X147859643Y-64081758D01*
%TA.AperFunction,Conductor*%
D20*
G36*
X147859643Y-64081758D02*
G01*
X147995168Y-64172806D01*
X148111281Y-64263381D01*
X148216142Y-64350877D01*
X148216325Y-64351027D01*
X148317871Y-64432601D01*
X148318644Y-64433175D01*
X148424855Y-64505986D01*
X148426218Y-64506800D01*
X148545233Y-64568142D01*
X148546995Y-64568888D01*
X148686951Y-64616054D01*
X148688767Y-64616520D01*
X148857804Y-64646804D01*
X148859386Y-64646986D01*
X149053600Y-64657058D01*
X149053600Y-64882941D01*
X148859386Y-64893013D01*
X148857804Y-64893195D01*
X148688767Y-64923479D01*
X148686951Y-64923945D01*
X148546995Y-64971111D01*
X148545233Y-64971857D01*
X148426218Y-65033199D01*
X148424855Y-65034013D01*
X148318644Y-65106824D01*
X148317871Y-65107398D01*
X148216325Y-65188972D01*
X148216142Y-65189122D01*
X148111281Y-65276618D01*
X147995168Y-65367193D01*
X147859643Y-65458241D01*
X147704064Y-65543064D01*
X146900172Y-64770000D01*
X147704064Y-63996936D01*
X147859643Y-64081758D01*
G37*
%TD.AperFunction*%
%TD*%
D19*
%TO.N,Row3*%
X124931801Y-65334502D02*
X125072203Y-65413580D01*
X125192468Y-65493996D01*
X125300887Y-65573098D01*
X125300978Y-65573164D01*
X125405463Y-65647984D01*
X125406144Y-65648439D01*
X125514653Y-65716002D01*
X125515905Y-65716687D01*
X125636589Y-65774164D01*
X125638223Y-65774808D01*
X125779237Y-65819367D01*
X125780936Y-65819777D01*
X125950435Y-65848588D01*
X125951933Y-65848752D01*
X126145999Y-65858386D01*
X126145999Y-66084250D01*
X125962724Y-66093872D01*
X125961108Y-66094062D01*
X125801184Y-66123272D01*
X125799302Y-66123767D01*
X125667207Y-66169607D01*
X125665356Y-66170420D01*
X125553530Y-66230562D01*
X125552073Y-66231478D01*
X125452959Y-66303595D01*
X125452094Y-66304284D01*
X125358134Y-66386048D01*
X125357850Y-66386302D01*
X125261578Y-66475302D01*
X125155656Y-66569023D01*
X125032555Y-66665184D01*
X124891864Y-66756901D01*
X124054648Y-66072811D01*
X124770922Y-65262987D01*
X124931801Y-65334502D01*
%TA.AperFunction,Conductor*%
D20*
G36*
X124931801Y-65334502D02*
G01*
X125072203Y-65413580D01*
X125192468Y-65493996D01*
X125300887Y-65573098D01*
X125300978Y-65573164D01*
X125405463Y-65647984D01*
X125406144Y-65648439D01*
X125514653Y-65716002D01*
X125515905Y-65716687D01*
X125636589Y-65774164D01*
X125638223Y-65774808D01*
X125779237Y-65819367D01*
X125780936Y-65819777D01*
X125950435Y-65848588D01*
X125951933Y-65848752D01*
X126145999Y-65858386D01*
X126145999Y-66084250D01*
X125962724Y-66093872D01*
X125961108Y-66094062D01*
X125801184Y-66123272D01*
X125799302Y-66123767D01*
X125667207Y-66169607D01*
X125665356Y-66170420D01*
X125553530Y-66230562D01*
X125552073Y-66231478D01*
X125452959Y-66303595D01*
X125452094Y-66304284D01*
X125358134Y-66386048D01*
X125357850Y-66386302D01*
X125261578Y-66475302D01*
X125155656Y-66569023D01*
X125032555Y-66665184D01*
X124891864Y-66756901D01*
X124054648Y-66072811D01*
X124770922Y-65262987D01*
X124931801Y-65334502D01*
G37*
%TD.AperFunction*%
%TD*%
D19*
%TO.N,Row3*%
X147309996Y-65634345D02*
X147158340Y-65646238D01*
X147156166Y-65646600D01*
X147023374Y-65680800D01*
X147021347Y-65681509D01*
X146908877Y-65731909D01*
X146907427Y-65732675D01*
X146807725Y-65793875D01*
X146807052Y-65794319D01*
X146712650Y-65860860D01*
X146616286Y-65927142D01*
X146510768Y-65987654D01*
X146388338Y-66037350D01*
X146241143Y-66071099D01*
X146073996Y-66082689D01*
X146073996Y-65857541D01*
X146243094Y-65836831D01*
X146245523Y-65836287D01*
X146247443Y-65835475D01*
X146366728Y-65772996D01*
X146368809Y-65771630D01*
X146371155Y-65769147D01*
X146440904Y-65671892D01*
X146442150Y-65669737D01*
X146442904Y-65667575D01*
X146474549Y-65541167D01*
X146474922Y-65538504D01*
X146479899Y-65388568D01*
X146479882Y-65387372D01*
X146469623Y-65219533D01*
X146469608Y-65219320D01*
X146455569Y-65039480D01*
X146449172Y-64853631D01*
X146461697Y-64667519D01*
X146502336Y-64494925D01*
X147613289Y-64473208D01*
X147309996Y-65634345D01*
%TA.AperFunction,Conductor*%
D20*
G36*
X147309996Y-65634345D02*
G01*
X147158340Y-65646238D01*
X147156166Y-65646600D01*
X147023374Y-65680800D01*
X147021347Y-65681509D01*
X146908877Y-65731909D01*
X146907427Y-65732675D01*
X146807725Y-65793875D01*
X146807052Y-65794319D01*
X146712650Y-65860860D01*
X146616286Y-65927142D01*
X146510768Y-65987654D01*
X146388338Y-66037350D01*
X146241143Y-66071099D01*
X146073996Y-66082689D01*
X146073996Y-65857541D01*
X146243094Y-65836831D01*
X146245523Y-65836287D01*
X146247443Y-65835475D01*
X146366728Y-65772996D01*
X146368809Y-65771630D01*
X146371155Y-65769147D01*
X146440904Y-65671892D01*
X146442150Y-65669737D01*
X146442904Y-65667575D01*
X146474549Y-65541167D01*
X146474922Y-65538504D01*
X146479899Y-65388568D01*
X146479882Y-65387372D01*
X146469623Y-65219533D01*
X146469608Y-65219320D01*
X146455569Y-65039480D01*
X146449172Y-64853631D01*
X146461697Y-64667519D01*
X146502336Y-64494925D01*
X147613289Y-64473208D01*
X147309996Y-65634345D01*
G37*
%TD.AperFunction*%
%TD*%
D19*
%TO.N,Row5*%
X155346678Y-71120000D02*
X154567399Y-71869395D01*
X154417366Y-71787642D01*
X154286404Y-71699799D01*
X154174125Y-71612440D01*
X154072664Y-71528067D01*
X154072478Y-71527915D01*
X153974192Y-71449278D01*
X153973418Y-71448706D01*
X153870611Y-71378532D01*
X153869249Y-71377722D01*
X153754071Y-71318615D01*
X153752314Y-71317874D01*
X153616913Y-71272433D01*
X153615103Y-71271970D01*
X153451629Y-71242799D01*
X153450053Y-71242619D01*
X153262700Y-71232939D01*
X153262700Y-71007061D01*
X153450053Y-70997380D01*
X153451629Y-70997200D01*
X153615103Y-70968029D01*
X153616913Y-70967566D01*
X153752314Y-70922125D01*
X153754071Y-70921384D01*
X153869249Y-70862277D01*
X153870611Y-70861467D01*
X153973418Y-70791293D01*
X153974192Y-70790721D01*
X154072478Y-70712084D01*
X154072664Y-70711932D01*
X154174125Y-70627559D01*
X154286404Y-70540200D01*
X154417366Y-70452357D01*
X154567399Y-70370605D01*
X155346678Y-71120000D01*
%TA.AperFunction,Conductor*%
D20*
G36*
X155346678Y-71120000D02*
G01*
X154567399Y-71869395D01*
X154417366Y-71787642D01*
X154286404Y-71699799D01*
X154174125Y-71612440D01*
X154072664Y-71528067D01*
X154072478Y-71527915D01*
X153974192Y-71449278D01*
X153973418Y-71448706D01*
X153870611Y-71378532D01*
X153869249Y-71377722D01*
X153754071Y-71318615D01*
X153752314Y-71317874D01*
X153616913Y-71272433D01*
X153615103Y-71271970D01*
X153451629Y-71242799D01*
X153450053Y-71242619D01*
X153262700Y-71232939D01*
X153262700Y-71007061D01*
X153450053Y-70997380D01*
X153451629Y-70997200D01*
X153615103Y-70968029D01*
X153616913Y-70967566D01*
X153752314Y-70922125D01*
X153754071Y-70921384D01*
X153869249Y-70862277D01*
X153870611Y-70861467D01*
X153973418Y-70791293D01*
X153974192Y-70790721D01*
X154072478Y-70712084D01*
X154072664Y-70711932D01*
X154174125Y-70627559D01*
X154286404Y-70540200D01*
X154417366Y-70452357D01*
X154567399Y-70370605D01*
X155346678Y-71120000D01*
G37*
%TD.AperFunction*%
%TD*%
D19*
%TO.N,Row5*%
X132619643Y-71701758D02*
X132755168Y-71792806D01*
X132871281Y-71883381D01*
X132976142Y-71970877D01*
X132976325Y-71971027D01*
X133077871Y-72052601D01*
X133078644Y-72053175D01*
X133184855Y-72125986D01*
X133186218Y-72126800D01*
X133305233Y-72188142D01*
X133306995Y-72188888D01*
X133446951Y-72236054D01*
X133448767Y-72236520D01*
X133617804Y-72266804D01*
X133619386Y-72266986D01*
X133813600Y-72277058D01*
X133813600Y-72502941D01*
X133619386Y-72513013D01*
X133617804Y-72513195D01*
X133448767Y-72543479D01*
X133446951Y-72543945D01*
X133306995Y-72591111D01*
X133305233Y-72591857D01*
X133186218Y-72653199D01*
X133184855Y-72654013D01*
X133078644Y-72726824D01*
X133077871Y-72727398D01*
X132976325Y-72808972D01*
X132976142Y-72809122D01*
X132871281Y-72896618D01*
X132755168Y-72987193D01*
X132619643Y-73078241D01*
X132464064Y-73163064D01*
X131660172Y-72390000D01*
X132464064Y-71616936D01*
X132619643Y-71701758D01*
%TA.AperFunction,Conductor*%
D20*
G36*
X132619643Y-71701758D02*
G01*
X132755168Y-71792806D01*
X132871281Y-71883381D01*
X132976142Y-71970877D01*
X132976325Y-71971027D01*
X133077871Y-72052601D01*
X133078644Y-72053175D01*
X133184855Y-72125986D01*
X133186218Y-72126800D01*
X133305233Y-72188142D01*
X133306995Y-72188888D01*
X133446951Y-72236054D01*
X133448767Y-72236520D01*
X133617804Y-72266804D01*
X133619386Y-72266986D01*
X133813600Y-72277058D01*
X133813600Y-72502941D01*
X133619386Y-72513013D01*
X133617804Y-72513195D01*
X133448767Y-72543479D01*
X133446951Y-72543945D01*
X133306995Y-72591111D01*
X133305233Y-72591857D01*
X133186218Y-72653199D01*
X133184855Y-72654013D01*
X133078644Y-72726824D01*
X133077871Y-72727398D01*
X132976325Y-72808972D01*
X132976142Y-72809122D01*
X132871281Y-72896618D01*
X132755168Y-72987193D01*
X132619643Y-73078241D01*
X132464064Y-73163064D01*
X131660172Y-72390000D01*
X132464064Y-71616936D01*
X132619643Y-71701758D01*
G37*
%TD.AperFunction*%
%TD*%
D19*
%TO.N,Row5*%
X132499828Y-72390000D02*
X131695936Y-73163064D01*
X131540356Y-73078241D01*
X131404831Y-72987193D01*
X131288718Y-72896618D01*
X131183857Y-72809122D01*
X131183674Y-72808972D01*
X131082128Y-72727398D01*
X131081355Y-72726824D01*
X130975144Y-72654013D01*
X130973781Y-72653199D01*
X130854766Y-72591857D01*
X130853004Y-72591111D01*
X130713048Y-72543945D01*
X130711232Y-72543479D01*
X130542195Y-72513195D01*
X130540613Y-72513013D01*
X130346400Y-72502941D01*
X130346400Y-72277058D01*
X130540613Y-72266986D01*
X130542195Y-72266804D01*
X130711232Y-72236520D01*
X130713048Y-72236054D01*
X130853004Y-72188888D01*
X130854766Y-72188142D01*
X130973781Y-72126800D01*
X130975144Y-72125986D01*
X131081355Y-72053175D01*
X131082128Y-72052601D01*
X131183674Y-71971027D01*
X131183857Y-71970877D01*
X131288718Y-71883381D01*
X131404831Y-71792806D01*
X131540356Y-71701758D01*
X131695936Y-71616936D01*
X132499828Y-72390000D01*
%TA.AperFunction,Conductor*%
D20*
G36*
X132499828Y-72390000D02*
G01*
X131695936Y-73163064D01*
X131540356Y-73078241D01*
X131404831Y-72987193D01*
X131288718Y-72896618D01*
X131183857Y-72809122D01*
X131183674Y-72808972D01*
X131082128Y-72727398D01*
X131081355Y-72726824D01*
X130975144Y-72654013D01*
X130973781Y-72653199D01*
X130854766Y-72591857D01*
X130853004Y-72591111D01*
X130713048Y-72543945D01*
X130711232Y-72543479D01*
X130542195Y-72513195D01*
X130540613Y-72513013D01*
X130346400Y-72502941D01*
X130346400Y-72277058D01*
X130540613Y-72266986D01*
X130542195Y-72266804D01*
X130711232Y-72236520D01*
X130713048Y-72236054D01*
X130853004Y-72188888D01*
X130854766Y-72188142D01*
X130973781Y-72126800D01*
X130975144Y-72125986D01*
X131081355Y-72053175D01*
X131082128Y-72052601D01*
X131183674Y-71971027D01*
X131183857Y-71970877D01*
X131288718Y-71883381D01*
X131404831Y-71792806D01*
X131540356Y-71701758D01*
X131695936Y-71616936D01*
X132499828Y-72390000D01*
G37*
%TD.AperFunction*%
%TD*%
D19*
%TO.N,Row5*%
X125170835Y-70639856D02*
X125171456Y-70640404D01*
X125278387Y-70728738D01*
X125279039Y-70729243D01*
X125377706Y-70800504D01*
X125378259Y-70800881D01*
X125471972Y-70861315D01*
X125472268Y-70861500D01*
X125564337Y-70917353D01*
X125657801Y-70974706D01*
X125756069Y-71039844D01*
X125862471Y-71118992D01*
X125980473Y-71218490D01*
X126104244Y-71335907D01*
X125944765Y-71495386D01*
X125834023Y-71405878D01*
X125830888Y-71404017D01*
X125719750Y-71358111D01*
X125717367Y-71357391D01*
X125715265Y-71357154D01*
X125610109Y-71354149D01*
X125607625Y-71354322D01*
X125605932Y-71354730D01*
X125504250Y-71386744D01*
X125501632Y-71387907D01*
X125400916Y-71447060D01*
X125399620Y-71447933D01*
X125297364Y-71526343D01*
X125296897Y-71526719D01*
X125190649Y-71616455D01*
X125078132Y-71709450D01*
X124957081Y-71797704D01*
X124832444Y-71869244D01*
X124055897Y-71122477D01*
X125059253Y-70534725D01*
X125170835Y-70639856D01*
%TA.AperFunction,Conductor*%
D20*
G36*
X125170835Y-70639856D02*
G01*
X125171456Y-70640404D01*
X125278387Y-70728738D01*
X125279039Y-70729243D01*
X125377706Y-70800504D01*
X125378259Y-70800881D01*
X125471972Y-70861315D01*
X125472268Y-70861500D01*
X125564337Y-70917353D01*
X125657801Y-70974706D01*
X125756069Y-71039844D01*
X125862471Y-71118992D01*
X125980473Y-71218490D01*
X126104244Y-71335907D01*
X125944765Y-71495386D01*
X125834023Y-71405878D01*
X125830888Y-71404017D01*
X125719750Y-71358111D01*
X125717367Y-71357391D01*
X125715265Y-71357154D01*
X125610109Y-71354149D01*
X125607625Y-71354322D01*
X125605932Y-71354730D01*
X125504250Y-71386744D01*
X125501632Y-71387907D01*
X125400916Y-71447060D01*
X125399620Y-71447933D01*
X125297364Y-71526343D01*
X125296897Y-71526719D01*
X125190649Y-71616455D01*
X125078132Y-71709450D01*
X124957081Y-71797704D01*
X124832444Y-71869244D01*
X124055897Y-71122477D01*
X125059253Y-70534725D01*
X125170835Y-70639856D01*
G37*
%TD.AperFunction*%
%TD*%
D19*
%TO.N,Row6*%
X147859643Y-74241758D02*
X147995168Y-74332806D01*
X148111281Y-74423381D01*
X148216142Y-74510877D01*
X148216325Y-74511027D01*
X148317871Y-74592601D01*
X148318644Y-74593175D01*
X148424855Y-74665986D01*
X148426218Y-74666800D01*
X148545233Y-74728142D01*
X148546995Y-74728888D01*
X148686951Y-74776054D01*
X148688767Y-74776520D01*
X148857804Y-74806804D01*
X148859386Y-74806986D01*
X149053600Y-74817058D01*
X149053600Y-75042941D01*
X148859386Y-75053013D01*
X148857804Y-75053195D01*
X148688767Y-75083479D01*
X148686951Y-75083945D01*
X148546995Y-75131111D01*
X148545233Y-75131857D01*
X148426218Y-75193199D01*
X148424855Y-75194013D01*
X148318644Y-75266824D01*
X148317871Y-75267398D01*
X148216325Y-75348972D01*
X148216142Y-75349122D01*
X148111281Y-75436618D01*
X147995168Y-75527193D01*
X147859643Y-75618241D01*
X147704064Y-75703064D01*
X146900172Y-74930000D01*
X147704064Y-74156936D01*
X147859643Y-74241758D01*
%TA.AperFunction,Conductor*%
D20*
G36*
X147859643Y-74241758D02*
G01*
X147995168Y-74332806D01*
X148111281Y-74423381D01*
X148216142Y-74510877D01*
X148216325Y-74511027D01*
X148317871Y-74592601D01*
X148318644Y-74593175D01*
X148424855Y-74665986D01*
X148426218Y-74666800D01*
X148545233Y-74728142D01*
X148546995Y-74728888D01*
X148686951Y-74776054D01*
X148688767Y-74776520D01*
X148857804Y-74806804D01*
X148859386Y-74806986D01*
X149053600Y-74817058D01*
X149053600Y-75042941D01*
X148859386Y-75053013D01*
X148857804Y-75053195D01*
X148688767Y-75083479D01*
X148686951Y-75083945D01*
X148546995Y-75131111D01*
X148545233Y-75131857D01*
X148426218Y-75193199D01*
X148424855Y-75194013D01*
X148318644Y-75266824D01*
X148317871Y-75267398D01*
X148216325Y-75348972D01*
X148216142Y-75349122D01*
X148111281Y-75436618D01*
X147995168Y-75527193D01*
X147859643Y-75618241D01*
X147704064Y-75703064D01*
X146900172Y-74930000D01*
X147704064Y-74156936D01*
X147859643Y-74241758D01*
G37*
%TD.AperFunction*%
%TD*%
D19*
%TO.N,Row6*%
X155206433Y-74453372D02*
X155042544Y-74501650D01*
X154887816Y-74532142D01*
X154746664Y-74549760D01*
X154615248Y-74561845D01*
X154615009Y-74561870D01*
X154489906Y-74575764D01*
X154488954Y-74575906D01*
X154366639Y-74598981D01*
X154365104Y-74599371D01*
X154241865Y-74639019D01*
X154240098Y-74639738D01*
X154112224Y-74703350D01*
X154110617Y-74704303D01*
X153974396Y-74799268D01*
X153973154Y-74800254D01*
X153833830Y-74925889D01*
X153674110Y-74766169D01*
X153799745Y-74626845D01*
X153800731Y-74625603D01*
X153895696Y-74489382D01*
X153896649Y-74487775D01*
X153960261Y-74359901D01*
X153960980Y-74358134D01*
X154000628Y-74234895D01*
X154001018Y-74233360D01*
X154024093Y-74111045D01*
X154024235Y-74110093D01*
X154038129Y-73984990D01*
X154038154Y-73984751D01*
X154050239Y-73853335D01*
X154067857Y-73712183D01*
X154098349Y-73557455D01*
X154146628Y-73393567D01*
X155227564Y-73372436D01*
X155206433Y-74453372D01*
%TA.AperFunction,Conductor*%
D20*
G36*
X155206433Y-74453372D02*
G01*
X155042544Y-74501650D01*
X154887816Y-74532142D01*
X154746664Y-74549760D01*
X154615248Y-74561845D01*
X154615009Y-74561870D01*
X154489906Y-74575764D01*
X154488954Y-74575906D01*
X154366639Y-74598981D01*
X154365104Y-74599371D01*
X154241865Y-74639019D01*
X154240098Y-74639738D01*
X154112224Y-74703350D01*
X154110617Y-74704303D01*
X153974396Y-74799268D01*
X153973154Y-74800254D01*
X153833830Y-74925889D01*
X153674110Y-74766169D01*
X153799745Y-74626845D01*
X153800731Y-74625603D01*
X153895696Y-74489382D01*
X153896649Y-74487775D01*
X153960261Y-74359901D01*
X153960980Y-74358134D01*
X154000628Y-74234895D01*
X154001018Y-74233360D01*
X154024093Y-74111045D01*
X154024235Y-74110093D01*
X154038129Y-73984990D01*
X154038154Y-73984751D01*
X154050239Y-73853335D01*
X154067857Y-73712183D01*
X154098349Y-73557455D01*
X154146628Y-73393567D01*
X155227564Y-73372436D01*
X155206433Y-74453372D01*
G37*
%TD.AperFunction*%
%TD*%
D19*
%TO.N,Row6*%
X125032555Y-73034815D02*
X125155656Y-73130976D01*
X125261578Y-73224697D01*
X125357850Y-73313697D01*
X125358134Y-73313951D01*
X125452094Y-73395715D01*
X125452959Y-73396404D01*
X125552073Y-73468521D01*
X125553530Y-73469437D01*
X125665356Y-73529579D01*
X125667207Y-73530392D01*
X125799302Y-73576232D01*
X125801184Y-73576727D01*
X125961108Y-73605937D01*
X125962724Y-73606127D01*
X126145999Y-73615750D01*
X126145999Y-73841614D01*
X125951933Y-73851247D01*
X125950435Y-73851411D01*
X125780936Y-73880222D01*
X125779237Y-73880632D01*
X125638223Y-73925191D01*
X125636589Y-73925835D01*
X125515905Y-73983312D01*
X125514653Y-73983997D01*
X125406144Y-74051560D01*
X125405463Y-74052015D01*
X125300978Y-74126835D01*
X125300887Y-74126901D01*
X125192468Y-74206003D01*
X125072203Y-74286419D01*
X124931800Y-74365497D01*
X124770922Y-74437013D01*
X124054648Y-73627189D01*
X124891864Y-72943099D01*
X125032555Y-73034815D01*
%TA.AperFunction,Conductor*%
D20*
G36*
X125032555Y-73034815D02*
G01*
X125155656Y-73130976D01*
X125261578Y-73224697D01*
X125357850Y-73313697D01*
X125358134Y-73313951D01*
X125452094Y-73395715D01*
X125452959Y-73396404D01*
X125552073Y-73468521D01*
X125553530Y-73469437D01*
X125665356Y-73529579D01*
X125667207Y-73530392D01*
X125799302Y-73576232D01*
X125801184Y-73576727D01*
X125961108Y-73605937D01*
X125962724Y-73606127D01*
X126145999Y-73615750D01*
X126145999Y-73841614D01*
X125951933Y-73851247D01*
X125950435Y-73851411D01*
X125780936Y-73880222D01*
X125779237Y-73880632D01*
X125638223Y-73925191D01*
X125636589Y-73925835D01*
X125515905Y-73983312D01*
X125514653Y-73983997D01*
X125406144Y-74051560D01*
X125405463Y-74052015D01*
X125300978Y-74126835D01*
X125300887Y-74126901D01*
X125192468Y-74206003D01*
X125072203Y-74286419D01*
X124931800Y-74365497D01*
X124770922Y-74437013D01*
X124054648Y-73627189D01*
X124891864Y-72943099D01*
X125032555Y-73034815D01*
G37*
%TD.AperFunction*%
%TD*%
D19*
%TO.N,Row6*%
X146241143Y-73628900D02*
X146388338Y-73662649D01*
X146510768Y-73712345D01*
X146616286Y-73772857D01*
X146712591Y-73839100D01*
X146807052Y-73905681D01*
X146807725Y-73906124D01*
X146907427Y-73967324D01*
X146908877Y-73968090D01*
X147021347Y-74018490D01*
X147023374Y-74019199D01*
X147156166Y-74053399D01*
X147158340Y-74053761D01*
X147309996Y-74065655D01*
X147613289Y-75226792D01*
X146502336Y-75205075D01*
X146461697Y-75032480D01*
X146449172Y-74846368D01*
X146455569Y-74660519D01*
X146469608Y-74480679D01*
X146469623Y-74480466D01*
X146479882Y-74312627D01*
X146479899Y-74311431D01*
X146474922Y-74161495D01*
X146474549Y-74158832D01*
X146442904Y-74032424D01*
X146442065Y-74030080D01*
X146440904Y-74028107D01*
X146371155Y-73930852D01*
X146369513Y-73928980D01*
X146366728Y-73927003D01*
X146247443Y-73864524D01*
X146245135Y-73863590D01*
X146243094Y-73863168D01*
X146073996Y-73842459D01*
X146073996Y-73617311D01*
X146241143Y-73628900D01*
%TA.AperFunction,Conductor*%
D20*
G36*
X146241143Y-73628900D02*
G01*
X146388338Y-73662649D01*
X146510768Y-73712345D01*
X146616286Y-73772857D01*
X146712591Y-73839100D01*
X146807052Y-73905681D01*
X146807725Y-73906124D01*
X146907427Y-73967324D01*
X146908877Y-73968090D01*
X147021347Y-74018490D01*
X147023374Y-74019199D01*
X147156166Y-74053399D01*
X147158340Y-74053761D01*
X147309996Y-74065655D01*
X147613289Y-75226792D01*
X146502336Y-75205075D01*
X146461697Y-75032480D01*
X146449172Y-74846368D01*
X146455569Y-74660519D01*
X146469608Y-74480679D01*
X146469623Y-74480466D01*
X146479882Y-74312627D01*
X146479899Y-74311431D01*
X146474922Y-74161495D01*
X146474549Y-74158832D01*
X146442904Y-74032424D01*
X146442065Y-74030080D01*
X146440904Y-74028107D01*
X146371155Y-73930852D01*
X146369513Y-73928980D01*
X146366728Y-73927003D01*
X146247443Y-73864524D01*
X146245135Y-73863590D01*
X146243094Y-73863168D01*
X146073996Y-73842459D01*
X146073996Y-73617311D01*
X146241143Y-73628900D01*
G37*
%TD.AperFunction*%
%TD*%
D19*
%TO.N,Row4*%
X155346678Y-68580000D02*
X154567399Y-69329395D01*
X154417366Y-69247642D01*
X154286404Y-69159799D01*
X154174125Y-69072440D01*
X154072664Y-68988067D01*
X154072478Y-68987915D01*
X153974192Y-68909278D01*
X153973418Y-68908706D01*
X153870611Y-68838532D01*
X153869249Y-68837722D01*
X153754071Y-68778615D01*
X153752314Y-68777874D01*
X153616913Y-68732433D01*
X153615103Y-68731970D01*
X153451629Y-68702799D01*
X153450053Y-68702619D01*
X153262700Y-68692939D01*
X153262700Y-68467061D01*
X153450053Y-68457380D01*
X153451629Y-68457200D01*
X153615103Y-68428029D01*
X153616913Y-68427566D01*
X153752314Y-68382125D01*
X153754071Y-68381384D01*
X153869249Y-68322277D01*
X153870611Y-68321467D01*
X153973418Y-68251293D01*
X153974192Y-68250721D01*
X154072478Y-68172084D01*
X154072664Y-68171932D01*
X154174125Y-68087559D01*
X154286404Y-68000200D01*
X154417366Y-67912357D01*
X154567399Y-67830605D01*
X155346678Y-68580000D01*
%TA.AperFunction,Conductor*%
D20*
G36*
X155346678Y-68580000D02*
G01*
X154567399Y-69329395D01*
X154417366Y-69247642D01*
X154286404Y-69159799D01*
X154174125Y-69072440D01*
X154072664Y-68988067D01*
X154072478Y-68987915D01*
X153974192Y-68909278D01*
X153973418Y-68908706D01*
X153870611Y-68838532D01*
X153869249Y-68837722D01*
X153754071Y-68778615D01*
X153752314Y-68777874D01*
X153616913Y-68732433D01*
X153615103Y-68731970D01*
X153451629Y-68702799D01*
X153450053Y-68702619D01*
X153262700Y-68692939D01*
X153262700Y-68467061D01*
X153450053Y-68457380D01*
X153451629Y-68457200D01*
X153615103Y-68428029D01*
X153616913Y-68427566D01*
X153752314Y-68382125D01*
X153754071Y-68381384D01*
X153869249Y-68322277D01*
X153870611Y-68321467D01*
X153973418Y-68251293D01*
X153974192Y-68250721D01*
X154072478Y-68172084D01*
X154072664Y-68171932D01*
X154174125Y-68087559D01*
X154286404Y-68000200D01*
X154417366Y-67912357D01*
X154567399Y-67830605D01*
X155346678Y-68580000D01*
G37*
%TD.AperFunction*%
%TD*%
D19*
%TO.N,Row4*%
X132619643Y-66621758D02*
X132755168Y-66712806D01*
X132871281Y-66803381D01*
X132976142Y-66890877D01*
X132976325Y-66891027D01*
X133077871Y-66972601D01*
X133078644Y-66973175D01*
X133184855Y-67045986D01*
X133186218Y-67046800D01*
X133305233Y-67108142D01*
X133306995Y-67108888D01*
X133446951Y-67156054D01*
X133448767Y-67156520D01*
X133617804Y-67186804D01*
X133619386Y-67186986D01*
X133813600Y-67197058D01*
X133813600Y-67422941D01*
X133619386Y-67433013D01*
X133617804Y-67433195D01*
X133448767Y-67463479D01*
X133446951Y-67463945D01*
X133306995Y-67511111D01*
X133305233Y-67511857D01*
X133186218Y-67573199D01*
X133184855Y-67574013D01*
X133078644Y-67646824D01*
X133077871Y-67647398D01*
X132976325Y-67728972D01*
X132976142Y-67729122D01*
X132871281Y-67816618D01*
X132755168Y-67907193D01*
X132619643Y-67998241D01*
X132464064Y-68083064D01*
X131660172Y-67310000D01*
X132464064Y-66536936D01*
X132619643Y-66621758D01*
%TA.AperFunction,Conductor*%
D20*
G36*
X132619643Y-66621758D02*
G01*
X132755168Y-66712806D01*
X132871281Y-66803381D01*
X132976142Y-66890877D01*
X132976325Y-66891027D01*
X133077871Y-66972601D01*
X133078644Y-66973175D01*
X133184855Y-67045986D01*
X133186218Y-67046800D01*
X133305233Y-67108142D01*
X133306995Y-67108888D01*
X133446951Y-67156054D01*
X133448767Y-67156520D01*
X133617804Y-67186804D01*
X133619386Y-67186986D01*
X133813600Y-67197058D01*
X133813600Y-67422941D01*
X133619386Y-67433013D01*
X133617804Y-67433195D01*
X133448767Y-67463479D01*
X133446951Y-67463945D01*
X133306995Y-67511111D01*
X133305233Y-67511857D01*
X133186218Y-67573199D01*
X133184855Y-67574013D01*
X133078644Y-67646824D01*
X133077871Y-67647398D01*
X132976325Y-67728972D01*
X132976142Y-67729122D01*
X132871281Y-67816618D01*
X132755168Y-67907193D01*
X132619643Y-67998241D01*
X132464064Y-68083064D01*
X131660172Y-67310000D01*
X132464064Y-66536936D01*
X132619643Y-66621758D01*
G37*
%TD.AperFunction*%
%TD*%
D19*
%TO.N,Row4*%
X132355064Y-68128212D02*
X132185069Y-68178246D01*
X132024862Y-68209695D01*
X131878731Y-68227751D01*
X131742695Y-68240031D01*
X131742460Y-68240055D01*
X131612975Y-68254178D01*
X131612023Y-68254318D01*
X131485435Y-68277935D01*
X131483896Y-68278323D01*
X131356365Y-68319104D01*
X131354591Y-68319823D01*
X131222276Y-68385436D01*
X131220662Y-68386391D01*
X131079720Y-68484503D01*
X131078473Y-68485493D01*
X130934023Y-68615702D01*
X130774298Y-68455977D01*
X130904506Y-68311526D01*
X130905496Y-68310279D01*
X131003608Y-68169337D01*
X131004563Y-68167723D01*
X131070176Y-68035408D01*
X131070895Y-68033634D01*
X131111676Y-67906103D01*
X131112064Y-67904564D01*
X131135681Y-67777976D01*
X131135821Y-67777024D01*
X131149944Y-67647539D01*
X131149968Y-67647304D01*
X131162248Y-67511268D01*
X131180304Y-67365137D01*
X131211753Y-67204930D01*
X131261788Y-67034936D01*
X132376862Y-67013138D01*
X132355064Y-68128212D01*
%TA.AperFunction,Conductor*%
D20*
G36*
X132355064Y-68128212D02*
G01*
X132185069Y-68178246D01*
X132024862Y-68209695D01*
X131878731Y-68227751D01*
X131742695Y-68240031D01*
X131742460Y-68240055D01*
X131612975Y-68254178D01*
X131612023Y-68254318D01*
X131485435Y-68277935D01*
X131483896Y-68278323D01*
X131356365Y-68319104D01*
X131354591Y-68319823D01*
X131222276Y-68385436D01*
X131220662Y-68386391D01*
X131079720Y-68484503D01*
X131078473Y-68485493D01*
X130934023Y-68615702D01*
X130774298Y-68455977D01*
X130904506Y-68311526D01*
X130905496Y-68310279D01*
X131003608Y-68169337D01*
X131004563Y-68167723D01*
X131070176Y-68035408D01*
X131070895Y-68033634D01*
X131111676Y-67906103D01*
X131112064Y-67904564D01*
X131135681Y-67777976D01*
X131135821Y-67777024D01*
X131149944Y-67647539D01*
X131149968Y-67647304D01*
X131162248Y-67511268D01*
X131180304Y-67365137D01*
X131211753Y-67204930D01*
X131261788Y-67034936D01*
X132376862Y-67013138D01*
X132355064Y-68128212D01*
G37*
%TD.AperFunction*%
%TD*%
D19*
%TO.N,Row4*%
X124982633Y-67912357D02*
X125113595Y-68000200D01*
X125225874Y-68087559D01*
X125327335Y-68171932D01*
X125327521Y-68172084D01*
X125425807Y-68250721D01*
X125426581Y-68251293D01*
X125529388Y-68321467D01*
X125530750Y-68322277D01*
X125645928Y-68381384D01*
X125647685Y-68382125D01*
X125783086Y-68427566D01*
X125784896Y-68428029D01*
X125948370Y-68457200D01*
X125949946Y-68457380D01*
X126137300Y-68467061D01*
X126137300Y-68692939D01*
X125949946Y-68702619D01*
X125948370Y-68702799D01*
X125784896Y-68731970D01*
X125783086Y-68732433D01*
X125647685Y-68777874D01*
X125645928Y-68778615D01*
X125530750Y-68837722D01*
X125529388Y-68838532D01*
X125426581Y-68908706D01*
X125425807Y-68909278D01*
X125327521Y-68987915D01*
X125327335Y-68988067D01*
X125225874Y-69072440D01*
X125113595Y-69159799D01*
X124982633Y-69247642D01*
X124832601Y-69329395D01*
X124053322Y-68580000D01*
X124832601Y-67830605D01*
X124982633Y-67912357D01*
%TA.AperFunction,Conductor*%
D20*
G36*
X124982633Y-67912357D02*
G01*
X125113595Y-68000200D01*
X125225874Y-68087559D01*
X125327335Y-68171932D01*
X125327521Y-68172084D01*
X125425807Y-68250721D01*
X125426581Y-68251293D01*
X125529388Y-68321467D01*
X125530750Y-68322277D01*
X125645928Y-68381384D01*
X125647685Y-68382125D01*
X125783086Y-68427566D01*
X125784896Y-68428029D01*
X125948370Y-68457200D01*
X125949946Y-68457380D01*
X126137300Y-68467061D01*
X126137300Y-68692939D01*
X125949946Y-68702619D01*
X125948370Y-68702799D01*
X125784896Y-68731970D01*
X125783086Y-68732433D01*
X125647685Y-68777874D01*
X125645928Y-68778615D01*
X125530750Y-68837722D01*
X125529388Y-68838532D01*
X125426581Y-68908706D01*
X125425807Y-68909278D01*
X125327521Y-68987915D01*
X125327335Y-68988067D01*
X125225874Y-69072440D01*
X125113595Y-69159799D01*
X124982633Y-69247642D01*
X124832601Y-69329395D01*
X124053322Y-68580000D01*
X124832601Y-67830605D01*
X124982633Y-67912357D01*
G37*
%TD.AperFunction*%
%TD*%
D19*
%TO.N,Row2*%
X155346678Y-63500000D02*
X154567399Y-64249395D01*
X154417366Y-64167642D01*
X154286404Y-64079799D01*
X154174125Y-63992440D01*
X154072664Y-63908067D01*
X154072478Y-63907915D01*
X153974192Y-63829278D01*
X153973418Y-63828706D01*
X153870611Y-63758532D01*
X153869249Y-63757722D01*
X153754071Y-63698615D01*
X153752314Y-63697874D01*
X153616913Y-63652433D01*
X153615103Y-63651970D01*
X153451629Y-63622799D01*
X153450053Y-63622619D01*
X153262700Y-63612939D01*
X153262700Y-63387061D01*
X153450053Y-63377380D01*
X153451629Y-63377200D01*
X153615103Y-63348029D01*
X153616913Y-63347566D01*
X153752314Y-63302125D01*
X153754071Y-63301384D01*
X153869249Y-63242277D01*
X153870611Y-63241467D01*
X153973418Y-63171293D01*
X153974192Y-63170721D01*
X154072478Y-63092084D01*
X154072664Y-63091932D01*
X154174125Y-63007559D01*
X154286404Y-62920200D01*
X154417366Y-62832357D01*
X154567399Y-62750605D01*
X155346678Y-63500000D01*
%TA.AperFunction,Conductor*%
D20*
G36*
X155346678Y-63500000D02*
G01*
X154567399Y-64249395D01*
X154417366Y-64167642D01*
X154286404Y-64079799D01*
X154174125Y-63992440D01*
X154072664Y-63908067D01*
X154072478Y-63907915D01*
X153974192Y-63829278D01*
X153973418Y-63828706D01*
X153870611Y-63758532D01*
X153869249Y-63757722D01*
X153754071Y-63698615D01*
X153752314Y-63697874D01*
X153616913Y-63652433D01*
X153615103Y-63651970D01*
X153451629Y-63622799D01*
X153450053Y-63622619D01*
X153262700Y-63612939D01*
X153262700Y-63387061D01*
X153450053Y-63377380D01*
X153451629Y-63377200D01*
X153615103Y-63348029D01*
X153616913Y-63347566D01*
X153752314Y-63302125D01*
X153754071Y-63301384D01*
X153869249Y-63242277D01*
X153870611Y-63241467D01*
X153973418Y-63171293D01*
X153974192Y-63170721D01*
X154072478Y-63092084D01*
X154072664Y-63091932D01*
X154174125Y-63007559D01*
X154286404Y-62920200D01*
X154417366Y-62832357D01*
X154567399Y-62750605D01*
X155346678Y-63500000D01*
G37*
%TD.AperFunction*%
%TD*%
D19*
%TO.N,Row2*%
X132619643Y-61541758D02*
X132755168Y-61632806D01*
X132871281Y-61723381D01*
X132976142Y-61810877D01*
X132976325Y-61811027D01*
X133077871Y-61892601D01*
X133078644Y-61893175D01*
X133184855Y-61965986D01*
X133186218Y-61966800D01*
X133305233Y-62028142D01*
X133306995Y-62028888D01*
X133446951Y-62076054D01*
X133448767Y-62076520D01*
X133617804Y-62106804D01*
X133619386Y-62106986D01*
X133813600Y-62117058D01*
X133813600Y-62342941D01*
X133619386Y-62353013D01*
X133617804Y-62353195D01*
X133448767Y-62383479D01*
X133446951Y-62383945D01*
X133306995Y-62431111D01*
X133305233Y-62431857D01*
X133186218Y-62493199D01*
X133184855Y-62494013D01*
X133078644Y-62566824D01*
X133077871Y-62567398D01*
X132976325Y-62648972D01*
X132976142Y-62649122D01*
X132871281Y-62736618D01*
X132755168Y-62827193D01*
X132619643Y-62918241D01*
X132464064Y-63003064D01*
X131660172Y-62230000D01*
X132464064Y-61456936D01*
X132619643Y-61541758D01*
%TA.AperFunction,Conductor*%
D20*
G36*
X132619643Y-61541758D02*
G01*
X132755168Y-61632806D01*
X132871281Y-61723381D01*
X132976142Y-61810877D01*
X132976325Y-61811027D01*
X133077871Y-61892601D01*
X133078644Y-61893175D01*
X133184855Y-61965986D01*
X133186218Y-61966800D01*
X133305233Y-62028142D01*
X133306995Y-62028888D01*
X133446951Y-62076054D01*
X133448767Y-62076520D01*
X133617804Y-62106804D01*
X133619386Y-62106986D01*
X133813600Y-62117058D01*
X133813600Y-62342941D01*
X133619386Y-62353013D01*
X133617804Y-62353195D01*
X133448767Y-62383479D01*
X133446951Y-62383945D01*
X133306995Y-62431111D01*
X133305233Y-62431857D01*
X133186218Y-62493199D01*
X133184855Y-62494013D01*
X133078644Y-62566824D01*
X133077871Y-62567398D01*
X132976325Y-62648972D01*
X132976142Y-62649122D01*
X132871281Y-62736618D01*
X132755168Y-62827193D01*
X132619643Y-62918241D01*
X132464064Y-63003064D01*
X131660172Y-62230000D01*
X132464064Y-61456936D01*
X132619643Y-61541758D01*
G37*
%TD.AperFunction*%
%TD*%
D19*
%TO.N,Row2*%
X125725889Y-62393830D02*
X125600254Y-62533154D01*
X125599268Y-62534396D01*
X125504303Y-62670617D01*
X125503350Y-62672224D01*
X125439738Y-62800098D01*
X125439019Y-62801865D01*
X125399371Y-62925104D01*
X125398981Y-62926639D01*
X125375906Y-63048954D01*
X125375764Y-63049906D01*
X125361870Y-63175009D01*
X125361845Y-63175248D01*
X125349760Y-63306664D01*
X125332142Y-63447816D01*
X125301650Y-63602544D01*
X125253372Y-63766433D01*
X124172436Y-63787564D01*
X124193567Y-62706628D01*
X124357455Y-62658349D01*
X124512183Y-62627857D01*
X124653335Y-62610239D01*
X124784751Y-62598154D01*
X124784990Y-62598129D01*
X124910093Y-62584235D01*
X124911045Y-62584093D01*
X125033360Y-62561018D01*
X125034895Y-62560628D01*
X125158134Y-62520980D01*
X125159901Y-62520261D01*
X125287775Y-62456649D01*
X125289382Y-62455696D01*
X125425603Y-62360731D01*
X125426845Y-62359745D01*
X125566169Y-62234110D01*
X125725889Y-62393830D01*
%TA.AperFunction,Conductor*%
D20*
G36*
X125725889Y-62393830D02*
G01*
X125600254Y-62533154D01*
X125599268Y-62534396D01*
X125504303Y-62670617D01*
X125503350Y-62672224D01*
X125439738Y-62800098D01*
X125439019Y-62801865D01*
X125399371Y-62925104D01*
X125398981Y-62926639D01*
X125375906Y-63048954D01*
X125375764Y-63049906D01*
X125361870Y-63175009D01*
X125361845Y-63175248D01*
X125349760Y-63306664D01*
X125332142Y-63447816D01*
X125301650Y-63602544D01*
X125253372Y-63766433D01*
X124172436Y-63787564D01*
X124193567Y-62706628D01*
X124357455Y-62658349D01*
X124512183Y-62627857D01*
X124653335Y-62610239D01*
X124784751Y-62598154D01*
X124784990Y-62598129D01*
X124910093Y-62584235D01*
X124911045Y-62584093D01*
X125033360Y-62561018D01*
X125034895Y-62560628D01*
X125158134Y-62520980D01*
X125159901Y-62520261D01*
X125287775Y-62456649D01*
X125289382Y-62455696D01*
X125425603Y-62360731D01*
X125426845Y-62359745D01*
X125566169Y-62234110D01*
X125725889Y-62393830D01*
G37*
%TD.AperFunction*%
%TD*%
D19*
%TO.N,Row2*%
X132499828Y-62230000D02*
X131695936Y-63003064D01*
X131540356Y-62918241D01*
X131404831Y-62827193D01*
X131288718Y-62736618D01*
X131183857Y-62649122D01*
X131183674Y-62648972D01*
X131082128Y-62567398D01*
X131081355Y-62566824D01*
X130975144Y-62494013D01*
X130973781Y-62493199D01*
X130854766Y-62431857D01*
X130853004Y-62431111D01*
X130713048Y-62383945D01*
X130711232Y-62383479D01*
X130542195Y-62353195D01*
X130540613Y-62353013D01*
X130346400Y-62342941D01*
X130346400Y-62117058D01*
X130540613Y-62106986D01*
X130542195Y-62106804D01*
X130711232Y-62076520D01*
X130713048Y-62076054D01*
X130853004Y-62028888D01*
X130854766Y-62028142D01*
X130973781Y-61966800D01*
X130975144Y-61965986D01*
X131081355Y-61893175D01*
X131082128Y-61892601D01*
X131183674Y-61811027D01*
X131183857Y-61810877D01*
X131288718Y-61723381D01*
X131404831Y-61632806D01*
X131540356Y-61541758D01*
X131695936Y-61456936D01*
X132499828Y-62230000D01*
%TA.AperFunction,Conductor*%
D20*
G36*
X132499828Y-62230000D02*
G01*
X131695936Y-63003064D01*
X131540356Y-62918241D01*
X131404831Y-62827193D01*
X131288718Y-62736618D01*
X131183857Y-62649122D01*
X131183674Y-62648972D01*
X131082128Y-62567398D01*
X131081355Y-62566824D01*
X130975144Y-62494013D01*
X130973781Y-62493199D01*
X130854766Y-62431857D01*
X130853004Y-62431111D01*
X130713048Y-62383945D01*
X130711232Y-62383479D01*
X130542195Y-62353195D01*
X130540613Y-62353013D01*
X130346400Y-62342941D01*
X130346400Y-62117058D01*
X130540613Y-62106986D01*
X130542195Y-62106804D01*
X130711232Y-62076520D01*
X130713048Y-62076054D01*
X130853004Y-62028888D01*
X130854766Y-62028142D01*
X130973781Y-61966800D01*
X130975144Y-61965986D01*
X131081355Y-61893175D01*
X131082128Y-61892601D01*
X131183674Y-61811027D01*
X131183857Y-61810877D01*
X131288718Y-61723381D01*
X131404831Y-61632806D01*
X131540356Y-61541758D01*
X131695936Y-61456936D01*
X132499828Y-62230000D01*
G37*
%TD.AperFunction*%
%TD*%
D19*
%TO.N,Row2*%
X122186433Y-50323372D02*
X122022544Y-50371650D01*
X121867816Y-50402142D01*
X121726664Y-50419760D01*
X121595248Y-50431845D01*
X121595009Y-50431870D01*
X121469906Y-50445764D01*
X121468954Y-50445906D01*
X121346639Y-50468981D01*
X121345104Y-50469371D01*
X121221865Y-50509019D01*
X121220098Y-50509738D01*
X121092224Y-50573350D01*
X121090617Y-50574303D01*
X120954396Y-50669268D01*
X120953154Y-50670254D01*
X120813830Y-50795889D01*
X120654110Y-50636169D01*
X120779745Y-50496845D01*
X120780731Y-50495603D01*
X120875696Y-50359382D01*
X120876649Y-50357775D01*
X120940261Y-50229901D01*
X120940980Y-50228134D01*
X120980628Y-50104895D01*
X120981018Y-50103360D01*
X121004093Y-49981045D01*
X121004235Y-49980093D01*
X121018129Y-49854990D01*
X121018154Y-49854751D01*
X121030239Y-49723335D01*
X121047857Y-49582183D01*
X121078349Y-49427455D01*
X121126628Y-49263567D01*
X122207564Y-49242436D01*
X122186433Y-50323372D01*
%TA.AperFunction,Conductor*%
D20*
G36*
X122186433Y-50323372D02*
G01*
X122022544Y-50371650D01*
X121867816Y-50402142D01*
X121726664Y-50419760D01*
X121595248Y-50431845D01*
X121595009Y-50431870D01*
X121469906Y-50445764D01*
X121468954Y-50445906D01*
X121346639Y-50468981D01*
X121345104Y-50469371D01*
X121221865Y-50509019D01*
X121220098Y-50509738D01*
X121092224Y-50573350D01*
X121090617Y-50574303D01*
X120954396Y-50669268D01*
X120953154Y-50670254D01*
X120813830Y-50795889D01*
X120654110Y-50636169D01*
X120779745Y-50496845D01*
X120780731Y-50495603D01*
X120875696Y-50359382D01*
X120876649Y-50357775D01*
X120940261Y-50229901D01*
X120940980Y-50228134D01*
X120980628Y-50104895D01*
X120981018Y-50103360D01*
X121004093Y-49981045D01*
X121004235Y-49980093D01*
X121018129Y-49854990D01*
X121018154Y-49854751D01*
X121030239Y-49723335D01*
X121047857Y-49582183D01*
X121078349Y-49427455D01*
X121126628Y-49263567D01*
X122207564Y-49242436D01*
X122186433Y-50323372D01*
G37*
%TD.AperFunction*%
%TD*%
D19*
%TO.N,Row2*%
X123224933Y-62726684D02*
X123226573Y-62727906D01*
X123338295Y-62797929D01*
X123340572Y-62799056D01*
X123447539Y-62839254D01*
X123450195Y-62839936D01*
X123554894Y-62855030D01*
X123557346Y-62855144D01*
X123662262Y-62849852D01*
X123664050Y-62849634D01*
X123771668Y-62828673D01*
X123772697Y-62828428D01*
X123885503Y-62796519D01*
X123885879Y-62796406D01*
X124006334Y-62758272D01*
X124136562Y-62718743D01*
X124270704Y-62684621D01*
X124855117Y-63593205D01*
X123861840Y-64085439D01*
X123736595Y-63949830D01*
X123635813Y-63819585D01*
X123557344Y-63697698D01*
X123492976Y-63580519D01*
X123434531Y-63464406D01*
X123434493Y-63464331D01*
X123373957Y-63346030D01*
X123373679Y-63345517D01*
X123303001Y-63221757D01*
X123302521Y-63220982D01*
X123213549Y-63088297D01*
X123212940Y-63087463D01*
X123097526Y-62942386D01*
X123096877Y-62941634D01*
X122955232Y-62789669D01*
X123114918Y-62629983D01*
X123224933Y-62726684D01*
%TA.AperFunction,Conductor*%
D20*
G36*
X123224933Y-62726684D02*
G01*
X123226573Y-62727906D01*
X123338295Y-62797929D01*
X123340572Y-62799056D01*
X123447539Y-62839254D01*
X123450195Y-62839936D01*
X123554894Y-62855030D01*
X123557346Y-62855144D01*
X123662262Y-62849852D01*
X123664050Y-62849634D01*
X123771668Y-62828673D01*
X123772697Y-62828428D01*
X123885503Y-62796519D01*
X123885879Y-62796406D01*
X124006334Y-62758272D01*
X124136562Y-62718743D01*
X124270704Y-62684621D01*
X124855117Y-63593205D01*
X123861840Y-64085439D01*
X123736595Y-63949830D01*
X123635813Y-63819585D01*
X123557344Y-63697698D01*
X123492976Y-63580519D01*
X123434531Y-63464406D01*
X123434493Y-63464331D01*
X123373957Y-63346030D01*
X123373679Y-63345517D01*
X123303001Y-63221757D01*
X123302521Y-63220982D01*
X123213549Y-63088297D01*
X123212940Y-63087463D01*
X123097526Y-62942386D01*
X123096877Y-62941634D01*
X122955232Y-62789669D01*
X123114918Y-62629983D01*
X123224933Y-62726684D01*
G37*
%TD.AperFunction*%
%TD*%
D19*
%TO.N,GND*%
X132266915Y-55607680D02*
X132267050Y-55609044D01*
X132292971Y-55777412D01*
X132293321Y-55779001D01*
X132333980Y-55919885D01*
X132334561Y-55921486D01*
X132387877Y-56042445D01*
X132388552Y-56043763D01*
X132452444Y-56152358D01*
X132452973Y-56153183D01*
X132525360Y-56256974D01*
X132525566Y-56257261D01*
X132604295Y-56363707D01*
X132687179Y-56480214D01*
X132772123Y-56614250D01*
X132853121Y-56765877D01*
X132080000Y-57569828D01*
X131306879Y-56765877D01*
X131387876Y-56614250D01*
X131472820Y-56480214D01*
X131555704Y-56363707D01*
X131634433Y-56257261D01*
X131634639Y-56256974D01*
X131707026Y-56153183D01*
X131707555Y-56152358D01*
X131771447Y-56043763D01*
X131772122Y-56042445D01*
X131825438Y-55921486D01*
X131826019Y-55919885D01*
X131866678Y-55779001D01*
X131867028Y-55777412D01*
X131892949Y-55609044D01*
X131893084Y-55607680D01*
X131901644Y-55416400D01*
X132258356Y-55416400D01*
X132266915Y-55607680D01*
%TA.AperFunction,Conductor*%
D20*
G36*
X132266915Y-55607680D02*
G01*
X132267050Y-55609044D01*
X132292971Y-55777412D01*
X132293321Y-55779001D01*
X132333980Y-55919885D01*
X132334561Y-55921486D01*
X132387877Y-56042445D01*
X132388552Y-56043763D01*
X132452444Y-56152358D01*
X132452973Y-56153183D01*
X132525360Y-56256974D01*
X132525566Y-56257261D01*
X132604295Y-56363707D01*
X132687179Y-56480214D01*
X132772123Y-56614250D01*
X132853121Y-56765877D01*
X132080000Y-57569828D01*
X131306879Y-56765877D01*
X131387876Y-56614250D01*
X131472820Y-56480214D01*
X131555704Y-56363707D01*
X131634433Y-56257261D01*
X131634639Y-56256974D01*
X131707026Y-56153183D01*
X131707555Y-56152358D01*
X131771447Y-56043763D01*
X131772122Y-56042445D01*
X131825438Y-55921486D01*
X131826019Y-55919885D01*
X131866678Y-55779001D01*
X131867028Y-55777412D01*
X131892949Y-55609044D01*
X131893084Y-55607680D01*
X131901644Y-55416400D01*
X132258356Y-55416400D01*
X132266915Y-55607680D01*
G37*
%TD.AperFunction*%
%TD*%
D19*
%TO.N,GND*%
X132853121Y-54994123D02*
X132772123Y-55145749D01*
X132687179Y-55279785D01*
X132604295Y-55396292D01*
X132525566Y-55502738D01*
X132525360Y-55503025D01*
X132452973Y-55606816D01*
X132452444Y-55607641D01*
X132388552Y-55716236D01*
X132387877Y-55717554D01*
X132334561Y-55838513D01*
X132333980Y-55840114D01*
X132293321Y-55980998D01*
X132292971Y-55982587D01*
X132267050Y-56150955D01*
X132266915Y-56152319D01*
X132258356Y-56343600D01*
X131901644Y-56343600D01*
X131893084Y-56152319D01*
X131892949Y-56150955D01*
X131867028Y-55982587D01*
X131866678Y-55980998D01*
X131826019Y-55840114D01*
X131825438Y-55838513D01*
X131772122Y-55717554D01*
X131771447Y-55716236D01*
X131707555Y-55607641D01*
X131707026Y-55606816D01*
X131634639Y-55503025D01*
X131634433Y-55502738D01*
X131555704Y-55396292D01*
X131472820Y-55279785D01*
X131387876Y-55145749D01*
X131306879Y-54994123D01*
X132080000Y-54190172D01*
X132853121Y-54994123D01*
%TA.AperFunction,Conductor*%
D20*
G36*
X132853121Y-54994123D02*
G01*
X132772123Y-55145749D01*
X132687179Y-55279785D01*
X132604295Y-55396292D01*
X132525566Y-55502738D01*
X132525360Y-55503025D01*
X132452973Y-55606816D01*
X132452444Y-55607641D01*
X132388552Y-55716236D01*
X132387877Y-55717554D01*
X132334561Y-55838513D01*
X132333980Y-55840114D01*
X132293321Y-55980998D01*
X132292971Y-55982587D01*
X132267050Y-56150955D01*
X132266915Y-56152319D01*
X132258356Y-56343600D01*
X131901644Y-56343600D01*
X131893084Y-56152319D01*
X131892949Y-56150955D01*
X131867028Y-55982587D01*
X131866678Y-55980998D01*
X131826019Y-55840114D01*
X131825438Y-55838513D01*
X131772122Y-55717554D01*
X131771447Y-55716236D01*
X131707555Y-55607641D01*
X131707026Y-55606816D01*
X131634639Y-55503025D01*
X131634433Y-55502738D01*
X131555704Y-55396292D01*
X131472820Y-55279785D01*
X131387876Y-55145749D01*
X131306879Y-54994123D01*
X132080000Y-54190172D01*
X132853121Y-54994123D01*
G37*
%TD.AperFunction*%
%TD*%
D19*
%TO.N,GND*%
X131121585Y-53387247D02*
X131122646Y-53388116D01*
X131260029Y-53488841D01*
X131261400Y-53489717D01*
X131389770Y-53560587D01*
X131391313Y-53561308D01*
X131514544Y-53609139D01*
X131515953Y-53609594D01*
X131637919Y-53641204D01*
X131638876Y-53641413D01*
X131763453Y-53663618D01*
X131763802Y-53663675D01*
X131894751Y-53683276D01*
X132035723Y-53707047D01*
X132190574Y-53741763D01*
X132355062Y-53791705D01*
X132376862Y-54906862D01*
X131261705Y-54885062D01*
X131211763Y-54720574D01*
X131177047Y-54565723D01*
X131153276Y-54424751D01*
X131133675Y-54293802D01*
X131133618Y-54293453D01*
X131111413Y-54168876D01*
X131111204Y-54167919D01*
X131079594Y-54045953D01*
X131079139Y-54044544D01*
X131031308Y-53921313D01*
X131030587Y-53919770D01*
X130959717Y-53791400D01*
X130958841Y-53790029D01*
X130858116Y-53652646D01*
X130857247Y-53651585D01*
X130728045Y-53510277D01*
X130980277Y-53258045D01*
X131121585Y-53387247D01*
%TA.AperFunction,Conductor*%
D20*
G36*
X131121585Y-53387247D02*
G01*
X131122646Y-53388116D01*
X131260029Y-53488841D01*
X131261400Y-53489717D01*
X131389770Y-53560587D01*
X131391313Y-53561308D01*
X131514544Y-53609139D01*
X131515953Y-53609594D01*
X131637919Y-53641204D01*
X131638876Y-53641413D01*
X131763453Y-53663618D01*
X131763802Y-53663675D01*
X131894751Y-53683276D01*
X132035723Y-53707047D01*
X132190574Y-53741763D01*
X132355062Y-53791705D01*
X132376862Y-54906862D01*
X131261705Y-54885062D01*
X131211763Y-54720574D01*
X131177047Y-54565723D01*
X131153276Y-54424751D01*
X131133675Y-54293802D01*
X131133618Y-54293453D01*
X131111413Y-54168876D01*
X131111204Y-54167919D01*
X131079594Y-54045953D01*
X131079139Y-54044544D01*
X131031308Y-53921313D01*
X131030587Y-53919770D01*
X130959717Y-53791400D01*
X130958841Y-53790029D01*
X130858116Y-53652646D01*
X130857247Y-53651585D01*
X130728045Y-53510277D01*
X130980277Y-53258045D01*
X131121585Y-53387247D01*
G37*
%TD.AperFunction*%
%TD*%
D19*
%TO.N,GND*%
X127793458Y-49263569D02*
X127841636Y-49421939D01*
X127875397Y-49571341D01*
X127898722Y-49707300D01*
X127918129Y-49833650D01*
X127918189Y-49834006D01*
X127940162Y-49954199D01*
X127940376Y-49955156D01*
X127971442Y-50072849D01*
X127971899Y-50074249D01*
X128018597Y-50193190D01*
X128019318Y-50194718D01*
X128088190Y-50318650D01*
X128089060Y-50320006D01*
X128186645Y-50452676D01*
X128187507Y-50453725D01*
X128312142Y-50589916D01*
X128059916Y-50842142D01*
X127923725Y-50717507D01*
X127922676Y-50716645D01*
X127790006Y-50619060D01*
X127788650Y-50618190D01*
X127664718Y-50549318D01*
X127663190Y-50548597D01*
X127544249Y-50501899D01*
X127542849Y-50501442D01*
X127425156Y-50470376D01*
X127424199Y-50470162D01*
X127304006Y-50448189D01*
X127303650Y-50448129D01*
X127177300Y-50428722D01*
X127041341Y-50405397D01*
X126891939Y-50371636D01*
X126733569Y-50323458D01*
X126712436Y-49242436D01*
X127793458Y-49263569D01*
%TA.AperFunction,Conductor*%
D20*
G36*
X127793458Y-49263569D02*
G01*
X127841636Y-49421939D01*
X127875397Y-49571341D01*
X127898722Y-49707300D01*
X127918129Y-49833650D01*
X127918189Y-49834006D01*
X127940162Y-49954199D01*
X127940376Y-49955156D01*
X127971442Y-50072849D01*
X127971899Y-50074249D01*
X128018597Y-50193190D01*
X128019318Y-50194718D01*
X128088190Y-50318650D01*
X128089060Y-50320006D01*
X128186645Y-50452676D01*
X128187507Y-50453725D01*
X128312142Y-50589916D01*
X128059916Y-50842142D01*
X127923725Y-50717507D01*
X127922676Y-50716645D01*
X127790006Y-50619060D01*
X127788650Y-50618190D01*
X127664718Y-50549318D01*
X127663190Y-50548597D01*
X127544249Y-50501899D01*
X127542849Y-50501442D01*
X127425156Y-50470376D01*
X127424199Y-50470162D01*
X127304006Y-50448189D01*
X127303650Y-50448129D01*
X127177300Y-50428722D01*
X127041341Y-50405397D01*
X126891939Y-50371636D01*
X126733569Y-50323458D01*
X126712436Y-49242436D01*
X127793458Y-49263569D01*
G37*
%TD.AperFunction*%
%TD*%
D19*
%TO.N,GND*%
X148671955Y-50970277D02*
X148542752Y-51111585D01*
X148541883Y-51112646D01*
X148441158Y-51250029D01*
X148440282Y-51251400D01*
X148369412Y-51379770D01*
X148368691Y-51381313D01*
X148320860Y-51504544D01*
X148320405Y-51505953D01*
X148288795Y-51627919D01*
X148288586Y-51628876D01*
X148266381Y-51753453D01*
X148266324Y-51753802D01*
X148246723Y-51884751D01*
X148222952Y-52025723D01*
X148188236Y-52180574D01*
X148138295Y-52345062D01*
X147023138Y-52366862D01*
X147044938Y-51251705D01*
X147209425Y-51201763D01*
X147364276Y-51167047D01*
X147505248Y-51143276D01*
X147636197Y-51123675D01*
X147636546Y-51123618D01*
X147761123Y-51101413D01*
X147762080Y-51101204D01*
X147884046Y-51069594D01*
X147885455Y-51069139D01*
X148008686Y-51021308D01*
X148010229Y-51020587D01*
X148138599Y-50949717D01*
X148139970Y-50948841D01*
X148277353Y-50848116D01*
X148278414Y-50847247D01*
X148419723Y-50718045D01*
X148671955Y-50970277D01*
%TA.AperFunction,Conductor*%
D20*
G36*
X148671955Y-50970277D02*
G01*
X148542752Y-51111585D01*
X148541883Y-51112646D01*
X148441158Y-51250029D01*
X148440282Y-51251400D01*
X148369412Y-51379770D01*
X148368691Y-51381313D01*
X148320860Y-51504544D01*
X148320405Y-51505953D01*
X148288795Y-51627919D01*
X148288586Y-51628876D01*
X148266381Y-51753453D01*
X148266324Y-51753802D01*
X148246723Y-51884751D01*
X148222952Y-52025723D01*
X148188236Y-52180574D01*
X148138295Y-52345062D01*
X147023138Y-52366862D01*
X147044938Y-51251705D01*
X147209425Y-51201763D01*
X147364276Y-51167047D01*
X147505248Y-51143276D01*
X147636197Y-51123675D01*
X147636546Y-51123618D01*
X147761123Y-51101413D01*
X147762080Y-51101204D01*
X147884046Y-51069594D01*
X147885455Y-51069139D01*
X148008686Y-51021308D01*
X148010229Y-51020587D01*
X148138599Y-50949717D01*
X148139970Y-50948841D01*
X148277353Y-50848116D01*
X148278414Y-50847247D01*
X148419723Y-50718045D01*
X148671955Y-50970277D01*
G37*
%TD.AperFunction*%
%TD*%
D19*
%TO.N,GND*%
X153332175Y-47179830D02*
X153142171Y-47268251D01*
X152964020Y-47333068D01*
X152800967Y-47379524D01*
X152648339Y-47416509D01*
X152648272Y-47416526D01*
X152501790Y-47452866D01*
X152501109Y-47453055D01*
X152356540Y-47497591D01*
X152355372Y-47498014D01*
X152208236Y-47559647D01*
X152206868Y-47560320D01*
X152052688Y-47647950D01*
X152051412Y-47648780D01*
X151885709Y-47771309D01*
X151884685Y-47772152D01*
X151711946Y-47930278D01*
X151459675Y-47678007D01*
X151601149Y-47521742D01*
X151602115Y-47520534D01*
X151709246Y-47368521D01*
X151710210Y-47366913D01*
X151782182Y-47223867D01*
X151782937Y-47222017D01*
X151827045Y-47083694D01*
X151827464Y-47081974D01*
X151851003Y-46944130D01*
X151851151Y-46942910D01*
X151861414Y-46801302D01*
X151861442Y-46800747D01*
X151865724Y-46651131D01*
X151871308Y-46489635D01*
X151885456Y-46311990D01*
X151914117Y-46122460D01*
X153172935Y-45913857D01*
X153332175Y-47179830D01*
%TA.AperFunction,Conductor*%
D20*
G36*
X153332175Y-47179830D02*
G01*
X153142171Y-47268251D01*
X152964020Y-47333068D01*
X152800967Y-47379524D01*
X152648339Y-47416509D01*
X152648272Y-47416526D01*
X152501790Y-47452866D01*
X152501109Y-47453055D01*
X152356540Y-47497591D01*
X152355372Y-47498014D01*
X152208236Y-47559647D01*
X152206868Y-47560320D01*
X152052688Y-47647950D01*
X152051412Y-47648780D01*
X151885709Y-47771309D01*
X151884685Y-47772152D01*
X151711946Y-47930278D01*
X151459675Y-47678007D01*
X151601149Y-47521742D01*
X151602115Y-47520534D01*
X151709246Y-47368521D01*
X151710210Y-47366913D01*
X151782182Y-47223867D01*
X151782937Y-47222017D01*
X151827045Y-47083694D01*
X151827464Y-47081974D01*
X151851003Y-46944130D01*
X151851151Y-46942910D01*
X151861414Y-46801302D01*
X151861442Y-46800747D01*
X151865724Y-46651131D01*
X151871308Y-46489635D01*
X151885456Y-46311990D01*
X151914117Y-46122460D01*
X153172935Y-45913857D01*
X153332175Y-47179830D01*
G37*
%TD.AperFunction*%
%TD*%
D19*
%TO.N,GND*%
X153498601Y-45510104D02*
X153652024Y-45609549D01*
X153784633Y-45707307D01*
X153905233Y-45800762D01*
X153905479Y-45800948D01*
X154022765Y-45887353D01*
X154023572Y-45887900D01*
X154146269Y-45964514D01*
X154147606Y-45965242D01*
X154284570Y-46029426D01*
X154286234Y-46030067D01*
X154446319Y-46079181D01*
X154447995Y-46079574D01*
X154640057Y-46110979D01*
X154641504Y-46111131D01*
X154862300Y-46121612D01*
X154862300Y-46478388D01*
X154641504Y-46488868D01*
X154640057Y-46489020D01*
X154447995Y-46520425D01*
X154446319Y-46520818D01*
X154286234Y-46569932D01*
X154284570Y-46570573D01*
X154147606Y-46634757D01*
X154146269Y-46635485D01*
X154023572Y-46712099D01*
X154022765Y-46712646D01*
X153905479Y-46799051D01*
X153905233Y-46799237D01*
X153784633Y-46892692D01*
X153652024Y-46990450D01*
X153498601Y-47089895D01*
X153323019Y-47184429D01*
X152403322Y-46300000D01*
X153323019Y-45415571D01*
X153498601Y-45510104D01*
%TA.AperFunction,Conductor*%
D20*
G36*
X153498601Y-45510104D02*
G01*
X153652024Y-45609549D01*
X153784633Y-45707307D01*
X153905233Y-45800762D01*
X153905479Y-45800948D01*
X154022765Y-45887353D01*
X154023572Y-45887900D01*
X154146269Y-45964514D01*
X154147606Y-45965242D01*
X154284570Y-46029426D01*
X154286234Y-46030067D01*
X154446319Y-46079181D01*
X154447995Y-46079574D01*
X154640057Y-46110979D01*
X154641504Y-46111131D01*
X154862300Y-46121612D01*
X154862300Y-46478388D01*
X154641504Y-46488868D01*
X154640057Y-46489020D01*
X154447995Y-46520425D01*
X154446319Y-46520818D01*
X154286234Y-46569932D01*
X154284570Y-46570573D01*
X154147606Y-46634757D01*
X154146269Y-46635485D01*
X154023572Y-46712099D01*
X154022765Y-46712646D01*
X153905479Y-46799051D01*
X153905233Y-46799237D01*
X153784633Y-46892692D01*
X153652024Y-46990450D01*
X153498601Y-47089895D01*
X153323019Y-47184429D01*
X152403322Y-46300000D01*
X153323019Y-45415571D01*
X153498601Y-45510104D01*
G37*
%TD.AperFunction*%
%TD*%
D19*
%TO.N,GND*%
X159866678Y-46300000D02*
X158946981Y-47184429D01*
X158771398Y-47089895D01*
X158617975Y-46990450D01*
X158485366Y-46892692D01*
X158364766Y-46799237D01*
X158364520Y-46799051D01*
X158247234Y-46712646D01*
X158246427Y-46712099D01*
X158123730Y-46635485D01*
X158122393Y-46634757D01*
X157985429Y-46570573D01*
X157983765Y-46569932D01*
X157823680Y-46520818D01*
X157822004Y-46520425D01*
X157629942Y-46489020D01*
X157628495Y-46488868D01*
X157407700Y-46478388D01*
X157407700Y-46121612D01*
X157628495Y-46111131D01*
X157629942Y-46110979D01*
X157822004Y-46079574D01*
X157823680Y-46079181D01*
X157983765Y-46030067D01*
X157985429Y-46029426D01*
X158122393Y-45965242D01*
X158123730Y-45964514D01*
X158246427Y-45887900D01*
X158247234Y-45887353D01*
X158364520Y-45800948D01*
X158364766Y-45800762D01*
X158485366Y-45707307D01*
X158617975Y-45609549D01*
X158771398Y-45510104D01*
X158946981Y-45415571D01*
X159866678Y-46300000D01*
%TA.AperFunction,Conductor*%
D20*
G36*
X159866678Y-46300000D02*
G01*
X158946981Y-47184429D01*
X158771398Y-47089895D01*
X158617975Y-46990450D01*
X158485366Y-46892692D01*
X158364766Y-46799237D01*
X158364520Y-46799051D01*
X158247234Y-46712646D01*
X158246427Y-46712099D01*
X158123730Y-46635485D01*
X158122393Y-46634757D01*
X157985429Y-46570573D01*
X157983765Y-46569932D01*
X157823680Y-46520818D01*
X157822004Y-46520425D01*
X157629942Y-46489020D01*
X157628495Y-46488868D01*
X157407700Y-46478388D01*
X157407700Y-46121612D01*
X157628495Y-46111131D01*
X157629942Y-46110979D01*
X157822004Y-46079574D01*
X157823680Y-46079181D01*
X157983765Y-46030067D01*
X157985429Y-46029426D01*
X158122393Y-45965242D01*
X158123730Y-45964514D01*
X158246427Y-45887900D01*
X158247234Y-45887353D01*
X158364520Y-45800948D01*
X158364766Y-45800762D01*
X158485366Y-45707307D01*
X158617975Y-45609549D01*
X158771398Y-45510104D01*
X158946981Y-45415571D01*
X159866678Y-46300000D01*
G37*
%TD.AperFunction*%
%TD*%
D19*
%TO.N,GND*%
X147739828Y-52070000D02*
X146935877Y-52843121D01*
X146784250Y-52762123D01*
X146650214Y-52677179D01*
X146533707Y-52594295D01*
X146427261Y-52515566D01*
X146426974Y-52515360D01*
X146323183Y-52442973D01*
X146322358Y-52442444D01*
X146213763Y-52378552D01*
X146212445Y-52377877D01*
X146091486Y-52324561D01*
X146089885Y-52323980D01*
X145949001Y-52283321D01*
X145947412Y-52282971D01*
X145779044Y-52257050D01*
X145777680Y-52256915D01*
X145586400Y-52248356D01*
X145586400Y-51891644D01*
X145777680Y-51883084D01*
X145779044Y-51882949D01*
X145947412Y-51857028D01*
X145949001Y-51856678D01*
X146089885Y-51816019D01*
X146091486Y-51815438D01*
X146212445Y-51762122D01*
X146213763Y-51761447D01*
X146322358Y-51697555D01*
X146323183Y-51697026D01*
X146426974Y-51624639D01*
X146427261Y-51624433D01*
X146533707Y-51545704D01*
X146650214Y-51462820D01*
X146784250Y-51377876D01*
X146935877Y-51296879D01*
X147739828Y-52070000D01*
%TA.AperFunction,Conductor*%
D20*
G36*
X147739828Y-52070000D02*
G01*
X146935877Y-52843121D01*
X146784250Y-52762123D01*
X146650214Y-52677179D01*
X146533707Y-52594295D01*
X146427261Y-52515566D01*
X146426974Y-52515360D01*
X146323183Y-52442973D01*
X146322358Y-52442444D01*
X146213763Y-52378552D01*
X146212445Y-52377877D01*
X146091486Y-52324561D01*
X146089885Y-52323980D01*
X145949001Y-52283321D01*
X145947412Y-52282971D01*
X145779044Y-52257050D01*
X145777680Y-52256915D01*
X145586400Y-52248356D01*
X145586400Y-51891644D01*
X145777680Y-51883084D01*
X145779044Y-51882949D01*
X145947412Y-51857028D01*
X145949001Y-51856678D01*
X146089885Y-51816019D01*
X146091486Y-51815438D01*
X146212445Y-51762122D01*
X146213763Y-51761447D01*
X146322358Y-51697555D01*
X146323183Y-51697026D01*
X146426974Y-51624639D01*
X146427261Y-51624433D01*
X146533707Y-51545704D01*
X146650214Y-51462820D01*
X146784250Y-51377876D01*
X146935877Y-51296879D01*
X147739828Y-52070000D01*
G37*
%TD.AperFunction*%
%TD*%
D19*
%TO.N,GND*%
X132615749Y-53917876D02*
X132749785Y-54002820D01*
X132866292Y-54085704D01*
X132972738Y-54164433D01*
X132973025Y-54164639D01*
X133076816Y-54237026D01*
X133077641Y-54237555D01*
X133186236Y-54301447D01*
X133187554Y-54302122D01*
X133308513Y-54355438D01*
X133310114Y-54356019D01*
X133450998Y-54396678D01*
X133452587Y-54397028D01*
X133620955Y-54422949D01*
X133622319Y-54423084D01*
X133813600Y-54431644D01*
X133813600Y-54788356D01*
X133622319Y-54796915D01*
X133620955Y-54797050D01*
X133452587Y-54822971D01*
X133450998Y-54823321D01*
X133310114Y-54863980D01*
X133308513Y-54864561D01*
X133187554Y-54917877D01*
X133186236Y-54918552D01*
X133077641Y-54982444D01*
X133076816Y-54982973D01*
X132973025Y-55055360D01*
X132972738Y-55055566D01*
X132866292Y-55134295D01*
X132749785Y-55217179D01*
X132615749Y-55302123D01*
X132464123Y-55383121D01*
X131660172Y-54610000D01*
X132464123Y-53836879D01*
X132615749Y-53917876D01*
%TA.AperFunction,Conductor*%
D20*
G36*
X132615749Y-53917876D02*
G01*
X132749785Y-54002820D01*
X132866292Y-54085704D01*
X132972738Y-54164433D01*
X132973025Y-54164639D01*
X133076816Y-54237026D01*
X133077641Y-54237555D01*
X133186236Y-54301447D01*
X133187554Y-54302122D01*
X133308513Y-54355438D01*
X133310114Y-54356019D01*
X133450998Y-54396678D01*
X133452587Y-54397028D01*
X133620955Y-54422949D01*
X133622319Y-54423084D01*
X133813600Y-54431644D01*
X133813600Y-54788356D01*
X133622319Y-54796915D01*
X133620955Y-54797050D01*
X133452587Y-54822971D01*
X133450998Y-54823321D01*
X133310114Y-54863980D01*
X133308513Y-54864561D01*
X133187554Y-54917877D01*
X133186236Y-54918552D01*
X133077641Y-54982444D01*
X133076816Y-54982973D01*
X132973025Y-55055360D01*
X132972738Y-55055566D01*
X132866292Y-55134295D01*
X132749785Y-55217179D01*
X132615749Y-55302123D01*
X132464123Y-55383121D01*
X131660172Y-54610000D01*
X132464123Y-53836879D01*
X132615749Y-53917876D01*
G37*
%TD.AperFunction*%
%TD*%
D19*
%TO.N,GND*%
X148138295Y-51794938D02*
X148188236Y-51959425D01*
X148222952Y-52114276D01*
X148246723Y-52255248D01*
X148266324Y-52386197D01*
X148266381Y-52386546D01*
X148288586Y-52511123D01*
X148288795Y-52512080D01*
X148320405Y-52634046D01*
X148320860Y-52635455D01*
X148368691Y-52758686D01*
X148369412Y-52760229D01*
X148440282Y-52888599D01*
X148441158Y-52889970D01*
X148541883Y-53027353D01*
X148542752Y-53028414D01*
X148671955Y-53169723D01*
X148419723Y-53421955D01*
X148278414Y-53292752D01*
X148277353Y-53291883D01*
X148139970Y-53191158D01*
X148138599Y-53190282D01*
X148010229Y-53119412D01*
X148008686Y-53118691D01*
X147885455Y-53070860D01*
X147884046Y-53070405D01*
X147762080Y-53038795D01*
X147761123Y-53038586D01*
X147636546Y-53016381D01*
X147636197Y-53016324D01*
X147505248Y-52996723D01*
X147364276Y-52972952D01*
X147209425Y-52938236D01*
X147044938Y-52888295D01*
X147023138Y-51773138D01*
X148138295Y-51794938D01*
%TA.AperFunction,Conductor*%
D20*
G36*
X148138295Y-51794938D02*
G01*
X148188236Y-51959425D01*
X148222952Y-52114276D01*
X148246723Y-52255248D01*
X148266324Y-52386197D01*
X148266381Y-52386546D01*
X148288586Y-52511123D01*
X148288795Y-52512080D01*
X148320405Y-52634046D01*
X148320860Y-52635455D01*
X148368691Y-52758686D01*
X148369412Y-52760229D01*
X148440282Y-52888599D01*
X148441158Y-52889970D01*
X148541883Y-53027353D01*
X148542752Y-53028414D01*
X148671955Y-53169723D01*
X148419723Y-53421955D01*
X148278414Y-53292752D01*
X148277353Y-53291883D01*
X148139970Y-53191158D01*
X148138599Y-53190282D01*
X148010229Y-53119412D01*
X148008686Y-53118691D01*
X147885455Y-53070860D01*
X147884046Y-53070405D01*
X147762080Y-53038795D01*
X147761123Y-53038586D01*
X147636546Y-53016381D01*
X147636197Y-53016324D01*
X147505248Y-52996723D01*
X147364276Y-52972952D01*
X147209425Y-52938236D01*
X147044938Y-52888295D01*
X147023138Y-51773138D01*
X148138295Y-51794938D01*
G37*
%TD.AperFunction*%
%TD*%
D19*
%TO.N,GND*%
X156556274Y-57232492D02*
X156557323Y-57233354D01*
X156689993Y-57330939D01*
X156691349Y-57331809D01*
X156815281Y-57400681D01*
X156816809Y-57401402D01*
X156935750Y-57448100D01*
X156937150Y-57448557D01*
X157054843Y-57479623D01*
X157055800Y-57479837D01*
X157175993Y-57501810D01*
X157176349Y-57501870D01*
X157302699Y-57521277D01*
X157438658Y-57544602D01*
X157588060Y-57578363D01*
X157746431Y-57626542D01*
X157767564Y-58707564D01*
X156686542Y-58686431D01*
X156638363Y-58528060D01*
X156604602Y-58378658D01*
X156581277Y-58242699D01*
X156561870Y-58116349D01*
X156561810Y-58115993D01*
X156539837Y-57995800D01*
X156539623Y-57994843D01*
X156508557Y-57877150D01*
X156508100Y-57875750D01*
X156461402Y-57756809D01*
X156460681Y-57755281D01*
X156391809Y-57631349D01*
X156390939Y-57629993D01*
X156293354Y-57497323D01*
X156292492Y-57496274D01*
X156167858Y-57360084D01*
X156420084Y-57107858D01*
X156556274Y-57232492D01*
%TA.AperFunction,Conductor*%
D20*
G36*
X156556274Y-57232492D02*
G01*
X156557323Y-57233354D01*
X156689993Y-57330939D01*
X156691349Y-57331809D01*
X156815281Y-57400681D01*
X156816809Y-57401402D01*
X156935750Y-57448100D01*
X156937150Y-57448557D01*
X157054843Y-57479623D01*
X157055800Y-57479837D01*
X157175993Y-57501810D01*
X157176349Y-57501870D01*
X157302699Y-57521277D01*
X157438658Y-57544602D01*
X157588060Y-57578363D01*
X157746431Y-57626542D01*
X157767564Y-58707564D01*
X156686542Y-58686431D01*
X156638363Y-58528060D01*
X156604602Y-58378658D01*
X156581277Y-58242699D01*
X156561870Y-58116349D01*
X156561810Y-58115993D01*
X156539837Y-57995800D01*
X156539623Y-57994843D01*
X156508557Y-57877150D01*
X156508100Y-57875750D01*
X156461402Y-57756809D01*
X156460681Y-57755281D01*
X156391809Y-57631349D01*
X156390939Y-57629993D01*
X156293354Y-57497323D01*
X156292492Y-57496274D01*
X156167858Y-57360084D01*
X156420084Y-57107858D01*
X156556274Y-57232492D01*
G37*
%TD.AperFunction*%
%TD*%
D19*
%TO.N,GND*%
X123232142Y-57360084D02*
X123107507Y-57496274D01*
X123106645Y-57497323D01*
X123009060Y-57629993D01*
X123008190Y-57631349D01*
X122939318Y-57755281D01*
X122938597Y-57756809D01*
X122891899Y-57875750D01*
X122891442Y-57877150D01*
X122860376Y-57994843D01*
X122860162Y-57995800D01*
X122838189Y-58115993D01*
X122838129Y-58116349D01*
X122818722Y-58242699D01*
X122795397Y-58378658D01*
X122761636Y-58528060D01*
X122713458Y-58686431D01*
X121632436Y-58707564D01*
X121653569Y-57626542D01*
X121811939Y-57578363D01*
X121961341Y-57544602D01*
X122097300Y-57521277D01*
X122223650Y-57501870D01*
X122224006Y-57501810D01*
X122344199Y-57479837D01*
X122345156Y-57479623D01*
X122462849Y-57448557D01*
X122464249Y-57448100D01*
X122583190Y-57401402D01*
X122584718Y-57400681D01*
X122708650Y-57331809D01*
X122710006Y-57330939D01*
X122842676Y-57233354D01*
X122843725Y-57232492D01*
X122979916Y-57107858D01*
X123232142Y-57360084D01*
%TA.AperFunction,Conductor*%
D20*
G36*
X123232142Y-57360084D02*
G01*
X123107507Y-57496274D01*
X123106645Y-57497323D01*
X123009060Y-57629993D01*
X123008190Y-57631349D01*
X122939318Y-57755281D01*
X122938597Y-57756809D01*
X122891899Y-57875750D01*
X122891442Y-57877150D01*
X122860376Y-57994843D01*
X122860162Y-57995800D01*
X122838189Y-58115993D01*
X122838129Y-58116349D01*
X122818722Y-58242699D01*
X122795397Y-58378658D01*
X122761636Y-58528060D01*
X122713458Y-58686431D01*
X121632436Y-58707564D01*
X121653569Y-57626542D01*
X121811939Y-57578363D01*
X121961341Y-57544602D01*
X122097300Y-57521277D01*
X122223650Y-57501870D01*
X122224006Y-57501810D01*
X122344199Y-57479837D01*
X122345156Y-57479623D01*
X122462849Y-57448557D01*
X122464249Y-57448100D01*
X122583190Y-57401402D01*
X122584718Y-57400681D01*
X122708650Y-57331809D01*
X122710006Y-57330939D01*
X122842676Y-57233354D01*
X122843725Y-57232492D01*
X122979916Y-57107858D01*
X123232142Y-57360084D01*
G37*
%TD.AperFunction*%
%TD*%
D19*
%TO.N,GND*%
X132355062Y-55428295D02*
X132190574Y-55478236D01*
X132035723Y-55512952D01*
X131894751Y-55536723D01*
X131763802Y-55556324D01*
X131763453Y-55556381D01*
X131638876Y-55578586D01*
X131637919Y-55578795D01*
X131515953Y-55610405D01*
X131514544Y-55610860D01*
X131391313Y-55658691D01*
X131389770Y-55659412D01*
X131261400Y-55730282D01*
X131260029Y-55731158D01*
X131122646Y-55831883D01*
X131121585Y-55832752D01*
X130980277Y-55961955D01*
X130728045Y-55709723D01*
X130857247Y-55568414D01*
X130858116Y-55567353D01*
X130958841Y-55429970D01*
X130959717Y-55428599D01*
X131030587Y-55300229D01*
X131031308Y-55298686D01*
X131079139Y-55175455D01*
X131079594Y-55174046D01*
X131111204Y-55052080D01*
X131111413Y-55051123D01*
X131133618Y-54926546D01*
X131133675Y-54926197D01*
X131153276Y-54795248D01*
X131177047Y-54654276D01*
X131211763Y-54499425D01*
X131261705Y-54334938D01*
X132376862Y-54313138D01*
X132355062Y-55428295D01*
%TA.AperFunction,Conductor*%
D20*
G36*
X132355062Y-55428295D02*
G01*
X132190574Y-55478236D01*
X132035723Y-55512952D01*
X131894751Y-55536723D01*
X131763802Y-55556324D01*
X131763453Y-55556381D01*
X131638876Y-55578586D01*
X131637919Y-55578795D01*
X131515953Y-55610405D01*
X131514544Y-55610860D01*
X131391313Y-55658691D01*
X131389770Y-55659412D01*
X131261400Y-55730282D01*
X131260029Y-55731158D01*
X131122646Y-55831883D01*
X131121585Y-55832752D01*
X130980277Y-55961955D01*
X130728045Y-55709723D01*
X130857247Y-55568414D01*
X130858116Y-55567353D01*
X130958841Y-55429970D01*
X130959717Y-55428599D01*
X131030587Y-55300229D01*
X131031308Y-55298686D01*
X131079139Y-55175455D01*
X131079594Y-55174046D01*
X131111204Y-55052080D01*
X131111413Y-55051123D01*
X131133618Y-54926546D01*
X131133675Y-54926197D01*
X131153276Y-54795248D01*
X131177047Y-54654276D01*
X131211763Y-54499425D01*
X131261705Y-54334938D01*
X132376862Y-54313138D01*
X132355062Y-55428295D01*
G37*
%TD.AperFunction*%
%TD*%
M02*
