%TF.GenerationSoftware,KiCad,Pcbnew,(6.0.1-0)*%
%TF.CreationDate,2022-02-07T11:31:33+08:00*%
%TF.ProjectId,Pragmatic,50726167-6d61-4746-9963-2e6b69636164,V2*%
%TF.SameCoordinates,Original*%
%TF.FileFunction,Soldermask,Top*%
%TF.FilePolarity,Negative*%
%FSLAX46Y46*%
G04 Gerber Fmt 4.6, Leading zero omitted, Abs format (unit mm)*
G04 Created by KiCad (PCBNEW (6.0.1-0)) date 2022-02-07 11:31:33*
%MOMM*%
%LPD*%
G01*
G04 APERTURE LIST*
G04 Aperture macros list*
%AMRoundRect*
0 Rectangle with rounded corners*
0 $1 Rounding radius*
0 $2 $3 $4 $5 $6 $7 $8 $9 X,Y pos of 4 corners*
0 Add a 4 corners polygon primitive as box body*
4,1,4,$2,$3,$4,$5,$6,$7,$8,$9,$2,$3,0*
0 Add four circle primitives for the rounded corners*
1,1,$1+$1,$2,$3*
1,1,$1+$1,$4,$5*
1,1,$1+$1,$6,$7*
1,1,$1+$1,$8,$9*
0 Add four rect primitives between the rounded corners*
20,1,$1+$1,$2,$3,$4,$5,0*
20,1,$1+$1,$4,$5,$6,$7,0*
20,1,$1+$1,$6,$7,$8,$9,0*
20,1,$1+$1,$8,$9,$2,$3,0*%
G04 Aperture macros list end*
%ADD10C,0.203200*%
%ADD11RoundRect,0.250000X-0.600000X-0.600000X0.600000X-0.600000X0.600000X0.600000X-0.600000X0.600000X0*%
%ADD12C,1.700000*%
%ADD13RoundRect,0.250000X0.600000X0.600000X-0.600000X0.600000X-0.600000X-0.600000X0.600000X-0.600000X0*%
%ADD14C,2.000000*%
%ADD15R,1.752600X1.752600*%
%ADD16C,1.752600*%
%ADD17C,6.400000*%
%ADD18RoundRect,0.250000X0.600000X-0.600000X0.600000X0.600000X-0.600000X0.600000X-0.600000X-0.600000X0*%
G04 APERTURE END LIST*
D10*
X120759431Y-48719619D02*
X120886431Y-47703619D01*
X121273479Y-47703619D01*
X121364193Y-47752000D01*
X121406526Y-47800380D01*
X121442812Y-47897142D01*
X121424669Y-48042285D01*
X121364193Y-48139047D01*
X121309765Y-48187428D01*
X121206955Y-48235809D01*
X120819907Y-48235809D01*
X121775431Y-48719619D02*
X121860098Y-48042285D01*
X121835907Y-48235809D02*
X121896384Y-48139047D01*
X121950812Y-48090666D01*
X122053622Y-48042285D01*
X122150384Y-48042285D01*
X122839812Y-48719619D02*
X122906336Y-48187428D01*
X122870050Y-48090666D01*
X122779336Y-48042285D01*
X122585812Y-48042285D01*
X122483003Y-48090666D01*
X122845860Y-48671238D02*
X122743050Y-48719619D01*
X122501145Y-48719619D01*
X122410431Y-48671238D01*
X122374145Y-48574476D01*
X122386241Y-48477714D01*
X122446717Y-48380952D01*
X122549526Y-48332571D01*
X122791431Y-48332571D01*
X122894241Y-48284190D01*
X123843717Y-48042285D02*
X123740907Y-48864761D01*
X123680431Y-48961523D01*
X123626003Y-49009904D01*
X123523193Y-49058285D01*
X123378050Y-49058285D01*
X123287336Y-49009904D01*
X123765098Y-48671238D02*
X123662288Y-48719619D01*
X123468765Y-48719619D01*
X123378050Y-48671238D01*
X123335717Y-48622857D01*
X123299431Y-48526095D01*
X123335717Y-48235809D01*
X123396193Y-48139047D01*
X123450622Y-48090666D01*
X123553431Y-48042285D01*
X123746955Y-48042285D01*
X123837669Y-48090666D01*
X124242860Y-48719619D02*
X124327526Y-48042285D01*
X124315431Y-48139047D02*
X124369860Y-48090666D01*
X124472669Y-48042285D01*
X124617812Y-48042285D01*
X124708526Y-48090666D01*
X124744812Y-48187428D01*
X124678288Y-48719619D01*
X124744812Y-48187428D02*
X124805288Y-48090666D01*
X124908098Y-48042285D01*
X125053241Y-48042285D01*
X125143955Y-48090666D01*
X125180241Y-48187428D01*
X125113717Y-48719619D01*
X126032955Y-48719619D02*
X126099479Y-48187428D01*
X126063193Y-48090666D01*
X125972479Y-48042285D01*
X125778955Y-48042285D01*
X125676145Y-48090666D01*
X126039003Y-48671238D02*
X125936193Y-48719619D01*
X125694288Y-48719619D01*
X125603574Y-48671238D01*
X125567288Y-48574476D01*
X125579384Y-48477714D01*
X125639860Y-48380952D01*
X125742669Y-48332571D01*
X125984574Y-48332571D01*
X126087384Y-48284190D01*
X126456288Y-48042285D02*
X126843336Y-48042285D01*
X126643765Y-47703619D02*
X126534907Y-48574476D01*
X126571193Y-48671238D01*
X126661907Y-48719619D01*
X126758669Y-48719619D01*
X127097336Y-48719619D02*
X127182003Y-48042285D01*
X127224336Y-47703619D02*
X127169907Y-47752000D01*
X127212241Y-47800380D01*
X127266669Y-47752000D01*
X127224336Y-47703619D01*
X127212241Y-47800380D01*
X128022622Y-48671238D02*
X127919812Y-48719619D01*
X127726288Y-48719619D01*
X127635574Y-48671238D01*
X127593241Y-48622857D01*
X127556955Y-48526095D01*
X127593241Y-48235809D01*
X127653717Y-48139047D01*
X127708145Y-48090666D01*
X127810955Y-48042285D01*
X128004479Y-48042285D01*
X128095193Y-48090666D01*
D11*
%TO.C,J1*%
X121920000Y-58420000D03*
D12*
X124460000Y-58420000D03*
X121920000Y-60960000D03*
X124460000Y-60960000D03*
X121920000Y-63500000D03*
X124460000Y-63500000D03*
X121920000Y-66040000D03*
X124460000Y-66040000D03*
X121920000Y-68580000D03*
X124460000Y-68580000D03*
X121920000Y-71120000D03*
X124460000Y-71120000D03*
X121920000Y-73660000D03*
X124460000Y-73660000D03*
%TD*%
D13*
%TO.C,J2*%
X157480000Y-73660000D03*
D12*
X154940000Y-73660000D03*
X157480000Y-71120000D03*
X154940000Y-71120000D03*
X157480000Y-68580000D03*
X154940000Y-68580000D03*
X157480000Y-66040000D03*
X154940000Y-66040000D03*
X157480000Y-63500000D03*
X154940000Y-63500000D03*
X157480000Y-60960000D03*
X154940000Y-60960000D03*
X157480000Y-58420000D03*
X154940000Y-58420000D03*
%TD*%
D14*
%TO.C,SW1*%
X157480000Y-52070000D03*
X157480000Y-47570000D03*
X150980000Y-52070000D03*
X150980000Y-47570000D03*
%TD*%
D15*
%TO.C,U1*%
X132080000Y-49530000D03*
D16*
X132080000Y-52070000D03*
X132080000Y-54610000D03*
X132080000Y-57150000D03*
X132080000Y-59690000D03*
X132080000Y-62230000D03*
X132080000Y-64770000D03*
X132080000Y-67310000D03*
X132080000Y-69850000D03*
X132080000Y-72390000D03*
X132080000Y-74930000D03*
X132080000Y-77470000D03*
X147320000Y-77470000D03*
X147320000Y-74930000D03*
X147320000Y-72390000D03*
X147320000Y-69850000D03*
X147320000Y-67310000D03*
X147320000Y-64770000D03*
X147320000Y-62230000D03*
X147320000Y-59690000D03*
X147320000Y-57150000D03*
X147320000Y-54610000D03*
X147320000Y-52070000D03*
X147320000Y-49530000D03*
X134620000Y-77470000D03*
X137160000Y-77470000D03*
X139700000Y-77470000D03*
X142240000Y-77470000D03*
X144780000Y-77470000D03*
%TD*%
D17*
%TO.C,M2*%
X156210000Y-86360000D03*
%TD*%
D18*
%TO.C,J3*%
X132080000Y-87630000D03*
D12*
X132080000Y-85090000D03*
X134620000Y-87630000D03*
X134620000Y-85090000D03*
X137160000Y-87630000D03*
X137160000Y-85090000D03*
X139700000Y-87630000D03*
X139700000Y-85090000D03*
X142240000Y-87630000D03*
X142240000Y-85090000D03*
X144780000Y-87630000D03*
X144780000Y-85090000D03*
X147320000Y-87630000D03*
X147320000Y-85090000D03*
%TD*%
D17*
%TO.C,M1*%
X123190000Y-86360000D03*
%TD*%
M02*
