%FSLAX45Y45*%
G04 Gerber Fmt 4.5, Leading zero omitted, Abs format (unit mm)*
G04 Created by KiCad (PCBNEW (6.0.1-0)) date 2022-02-06 14:25:32*
%MOMM*%
%LPD*%
G01*
G04 APERTURE LIST*
%TA.AperFunction,Profile*%
%ADD10C,0.120000*%
%TD*%
%ADD11C,0.200000*%
%ADD12C,0.040000*%
%ADD13C,0.100000*%
G04 APERTURE END LIST*
D10*
X16065500Y-8001000D02*
X11874500Y-8001000D01*
X11747500Y-7874000D02*
X11747500Y-4572000D01*
X16065500Y-8001000D02*
G75*
G03*
X16192500Y-7874000I0J127000D01*
G01*
X11874500Y-4445000D02*
G75*
G03*
X11747500Y-4572000I0J-127000D01*
G01*
X11874500Y-4445000D02*
X16065500Y-4445000D01*
X16192500Y-4572000D02*
G75*
G03*
X16065500Y-4445000I-127000J0D01*
G01*
X11747500Y-7874000D02*
G75*
G03*
X11874500Y-8001000I127000J0D01*
G01*
X16192500Y-4572000D02*
X16192500Y-7874000D01*
D11*
D12*
X13759500Y-6838000D02*
X13799500Y-6878000D01*
X13799500Y-6838000D02*
X13759500Y-6878000D01*
X13823000Y-6203000D02*
X13863000Y-6243000D01*
X13863000Y-6203000D02*
X13823000Y-6243000D01*
X14331000Y-6584000D02*
X14371000Y-6624000D01*
X14371000Y-6584000D02*
X14331000Y-6624000D01*
D13*
X12242000Y-5842000D02*
G75*
G03*
X12242000Y-5842000I-50000J0D01*
G01*
X12242000Y-6096000D02*
G75*
G03*
X12242000Y-6096000I-50000J0D01*
G01*
X12242000Y-6350000D02*
G75*
G03*
X12242000Y-6350000I-50000J0D01*
G01*
X12242000Y-6604000D02*
G75*
G03*
X12242000Y-6604000I-50000J0D01*
G01*
X12242000Y-6858000D02*
G75*
G03*
X12242000Y-6858000I-50000J0D01*
G01*
X12242000Y-7112000D02*
G75*
G03*
X12242000Y-7112000I-50000J0D01*
G01*
X12242000Y-7366000D02*
G75*
G03*
X12242000Y-7366000I-50000J0D01*
G01*
X12496000Y-5842000D02*
G75*
G03*
X12496000Y-5842000I-50000J0D01*
G01*
X12496000Y-6096000D02*
G75*
G03*
X12496000Y-6096000I-50000J0D01*
G01*
X12496000Y-6350000D02*
G75*
G03*
X12496000Y-6350000I-50000J0D01*
G01*
X12496000Y-6604000D02*
G75*
G03*
X12496000Y-6604000I-50000J0D01*
G01*
X12496000Y-6858000D02*
G75*
G03*
X12496000Y-6858000I-50000J0D01*
G01*
X12496000Y-7112000D02*
G75*
G03*
X12496000Y-7112000I-50000J0D01*
G01*
X12496000Y-7366000D02*
G75*
G03*
X12496000Y-7366000I-50000J0D01*
G01*
X13258000Y-4953000D02*
G75*
G03*
X13258000Y-4953000I-50000J0D01*
G01*
X13258000Y-5207000D02*
G75*
G03*
X13258000Y-5207000I-50000J0D01*
G01*
X13258000Y-5461000D02*
G75*
G03*
X13258000Y-5461000I-50000J0D01*
G01*
X13258000Y-5715000D02*
G75*
G03*
X13258000Y-5715000I-50000J0D01*
G01*
X13258000Y-5969000D02*
G75*
G03*
X13258000Y-5969000I-50000J0D01*
G01*
X13258000Y-6223000D02*
G75*
G03*
X13258000Y-6223000I-50000J0D01*
G01*
X13258000Y-6477000D02*
G75*
G03*
X13258000Y-6477000I-50000J0D01*
G01*
X13258000Y-6731000D02*
G75*
G03*
X13258000Y-6731000I-50000J0D01*
G01*
X13258000Y-6985000D02*
G75*
G03*
X13258000Y-6985000I-50000J0D01*
G01*
X13258000Y-7239000D02*
G75*
G03*
X13258000Y-7239000I-50000J0D01*
G01*
X13258000Y-7493000D02*
G75*
G03*
X13258000Y-7493000I-50000J0D01*
G01*
X13258000Y-7747000D02*
G75*
G03*
X13258000Y-7747000I-50000J0D01*
G01*
X14782000Y-4953000D02*
G75*
G03*
X14782000Y-4953000I-50000J0D01*
G01*
X14782000Y-5207000D02*
G75*
G03*
X14782000Y-5207000I-50000J0D01*
G01*
X14782000Y-5461000D02*
G75*
G03*
X14782000Y-5461000I-50000J0D01*
G01*
X14782000Y-5715000D02*
G75*
G03*
X14782000Y-5715000I-50000J0D01*
G01*
X14782000Y-5969000D02*
G75*
G03*
X14782000Y-5969000I-50000J0D01*
G01*
X14782000Y-6223000D02*
G75*
G03*
X14782000Y-6223000I-50000J0D01*
G01*
X14782000Y-6477000D02*
G75*
G03*
X14782000Y-6477000I-50000J0D01*
G01*
X14782000Y-6731000D02*
G75*
G03*
X14782000Y-6731000I-50000J0D01*
G01*
X14782000Y-6985000D02*
G75*
G03*
X14782000Y-6985000I-50000J0D01*
G01*
X14782000Y-7239000D02*
G75*
G03*
X14782000Y-7239000I-50000J0D01*
G01*
X14782000Y-7493000D02*
G75*
G03*
X14782000Y-7493000I-50000J0D01*
G01*
X14782000Y-7747000D02*
G75*
G03*
X14782000Y-7747000I-50000J0D01*
G01*
X15346000Y-4601000D02*
G75*
G03*
X15346000Y-4601000I-50000J0D01*
G01*
X15346000Y-5051000D02*
G75*
G03*
X15346000Y-5051000I-50000J0D01*
G01*
X15544000Y-5842000D02*
G75*
G03*
X15544000Y-5842000I-50000J0D01*
G01*
X15544000Y-6096000D02*
G75*
G03*
X15544000Y-6096000I-50000J0D01*
G01*
X15544000Y-6350000D02*
G75*
G03*
X15544000Y-6350000I-50000J0D01*
G01*
X15544000Y-6604000D02*
G75*
G03*
X15544000Y-6604000I-50000J0D01*
G01*
X15544000Y-6858000D02*
G75*
G03*
X15544000Y-6858000I-50000J0D01*
G01*
X15544000Y-7112000D02*
G75*
G03*
X15544000Y-7112000I-50000J0D01*
G01*
X15544000Y-7366000D02*
G75*
G03*
X15544000Y-7366000I-50000J0D01*
G01*
X15798000Y-5842000D02*
G75*
G03*
X15798000Y-5842000I-50000J0D01*
G01*
X15798000Y-6096000D02*
G75*
G03*
X15798000Y-6096000I-50000J0D01*
G01*
X15798000Y-6350000D02*
G75*
G03*
X15798000Y-6350000I-50000J0D01*
G01*
X15798000Y-6604000D02*
G75*
G03*
X15798000Y-6604000I-50000J0D01*
G01*
X15798000Y-6858000D02*
G75*
G03*
X15798000Y-6858000I-50000J0D01*
G01*
X15798000Y-7112000D02*
G75*
G03*
X15798000Y-7112000I-50000J0D01*
G01*
X15798000Y-7366000D02*
G75*
G03*
X15798000Y-7366000I-50000J0D01*
G01*
X15996000Y-4601000D02*
G75*
G03*
X15996000Y-4601000I-50000J0D01*
G01*
X15996000Y-5051000D02*
G75*
G03*
X15996000Y-5051000I-50000J0D01*
G01*
D11*
X11999119Y-8317476D02*
X11999119Y-8117476D01*
X12046738Y-8117476D01*
X12075309Y-8127000D01*
X12094357Y-8146048D01*
X12103881Y-8165095D01*
X12113405Y-8203190D01*
X12113405Y-8231762D01*
X12103881Y-8269857D01*
X12094357Y-8288905D01*
X12075309Y-8307952D01*
X12046738Y-8317476D01*
X11999119Y-8317476D01*
X12199119Y-8317476D02*
X12199119Y-8184143D01*
X12199119Y-8222238D02*
X12208643Y-8203190D01*
X12218167Y-8193667D01*
X12237214Y-8184143D01*
X12256262Y-8184143D01*
X12322928Y-8317476D02*
X12322928Y-8184143D01*
X12322928Y-8117476D02*
X12313405Y-8127000D01*
X12322928Y-8136524D01*
X12332452Y-8127000D01*
X12322928Y-8117476D01*
X12322928Y-8136524D01*
X12446738Y-8317476D02*
X12427690Y-8307952D01*
X12418167Y-8288905D01*
X12418167Y-8117476D01*
X12551500Y-8317476D02*
X12532452Y-8307952D01*
X12522928Y-8288905D01*
X12522928Y-8117476D01*
X12780071Y-8317476D02*
X12780071Y-8117476D01*
X12846738Y-8260333D01*
X12913405Y-8117476D01*
X12913405Y-8317476D01*
X13094357Y-8317476D02*
X13094357Y-8212714D01*
X13084833Y-8193667D01*
X13065786Y-8184143D01*
X13027690Y-8184143D01*
X13008643Y-8193667D01*
X13094357Y-8307952D02*
X13075309Y-8317476D01*
X13027690Y-8317476D01*
X13008643Y-8307952D01*
X12999119Y-8288905D01*
X12999119Y-8269857D01*
X13008643Y-8250809D01*
X13027690Y-8241286D01*
X13075309Y-8241286D01*
X13094357Y-8231762D01*
X13189595Y-8184143D02*
X13189595Y-8384143D01*
X13189595Y-8193667D02*
X13208643Y-8184143D01*
X13246738Y-8184143D01*
X13265786Y-8193667D01*
X13275309Y-8203190D01*
X13284833Y-8222238D01*
X13284833Y-8279381D01*
X13275309Y-8298428D01*
X13265786Y-8307952D01*
X13246738Y-8317476D01*
X13208643Y-8317476D01*
X13189595Y-8307952D01*
X13370548Y-8298428D02*
X13380071Y-8307952D01*
X13370548Y-8317476D01*
X13361024Y-8307952D01*
X13370548Y-8298428D01*
X13370548Y-8317476D01*
X13370548Y-8193667D02*
X13380071Y-8203190D01*
X13370548Y-8212714D01*
X13361024Y-8203190D01*
X13370548Y-8193667D01*
X13370548Y-8212714D01*
D12*
X11701500Y-8627000D02*
X11741500Y-8667000D01*
X11741500Y-8627000D02*
X11701500Y-8667000D01*
D11*
X12037214Y-8537476D02*
X12056262Y-8537476D01*
X12075309Y-8547000D01*
X12084833Y-8556524D01*
X12094357Y-8575571D01*
X12103881Y-8613667D01*
X12103881Y-8661286D01*
X12094357Y-8699381D01*
X12084833Y-8718429D01*
X12075309Y-8727952D01*
X12056262Y-8737476D01*
X12037214Y-8737476D01*
X12018167Y-8727952D01*
X12008643Y-8718429D01*
X11999119Y-8699381D01*
X11989595Y-8661286D01*
X11989595Y-8613667D01*
X11999119Y-8575571D01*
X12008643Y-8556524D01*
X12018167Y-8547000D01*
X12037214Y-8537476D01*
X12189595Y-8718429D02*
X12199119Y-8727952D01*
X12189595Y-8737476D01*
X12180071Y-8727952D01*
X12189595Y-8718429D01*
X12189595Y-8737476D01*
X12370548Y-8604143D02*
X12370548Y-8737476D01*
X12322928Y-8527952D02*
X12275309Y-8670810D01*
X12399119Y-8670810D01*
X12513405Y-8537476D02*
X12532452Y-8537476D01*
X12551500Y-8547000D01*
X12561024Y-8556524D01*
X12570548Y-8575571D01*
X12580071Y-8613667D01*
X12580071Y-8661286D01*
X12570548Y-8699381D01*
X12561024Y-8718429D01*
X12551500Y-8727952D01*
X12532452Y-8737476D01*
X12513405Y-8737476D01*
X12494357Y-8727952D01*
X12484833Y-8718429D01*
X12475309Y-8699381D01*
X12465786Y-8661286D01*
X12465786Y-8613667D01*
X12475309Y-8575571D01*
X12484833Y-8556524D01*
X12494357Y-8547000D01*
X12513405Y-8537476D01*
X12703881Y-8537476D02*
X12722928Y-8537476D01*
X12741976Y-8547000D01*
X12751500Y-8556524D01*
X12761024Y-8575571D01*
X12770548Y-8613667D01*
X12770548Y-8661286D01*
X12761024Y-8699381D01*
X12751500Y-8718429D01*
X12741976Y-8727952D01*
X12722928Y-8737476D01*
X12703881Y-8737476D01*
X12684833Y-8727952D01*
X12675309Y-8718429D01*
X12665786Y-8699381D01*
X12656262Y-8661286D01*
X12656262Y-8613667D01*
X12665786Y-8575571D01*
X12675309Y-8556524D01*
X12684833Y-8547000D01*
X12703881Y-8537476D01*
X12856262Y-8737476D02*
X12856262Y-8604143D01*
X12856262Y-8623190D02*
X12865786Y-8613667D01*
X12884833Y-8604143D01*
X12913405Y-8604143D01*
X12932452Y-8613667D01*
X12941976Y-8632714D01*
X12941976Y-8737476D01*
X12941976Y-8632714D02*
X12951500Y-8613667D01*
X12970548Y-8604143D01*
X12999119Y-8604143D01*
X13018167Y-8613667D01*
X13027690Y-8632714D01*
X13027690Y-8737476D01*
X13122928Y-8737476D02*
X13122928Y-8604143D01*
X13122928Y-8623190D02*
X13132452Y-8613667D01*
X13151500Y-8604143D01*
X13180071Y-8604143D01*
X13199119Y-8613667D01*
X13208643Y-8632714D01*
X13208643Y-8737476D01*
X13208643Y-8632714D02*
X13218167Y-8613667D01*
X13237214Y-8604143D01*
X13265786Y-8604143D01*
X13284833Y-8613667D01*
X13294357Y-8632714D01*
X13294357Y-8737476D01*
X13684833Y-8527952D02*
X13513405Y-8785095D01*
X13941976Y-8537476D02*
X13961024Y-8537476D01*
X13980071Y-8547000D01*
X13989595Y-8556524D01*
X13999119Y-8575571D01*
X14008643Y-8613667D01*
X14008643Y-8661286D01*
X13999119Y-8699381D01*
X13989595Y-8718429D01*
X13980071Y-8727952D01*
X13961024Y-8737476D01*
X13941976Y-8737476D01*
X13922928Y-8727952D01*
X13913405Y-8718429D01*
X13903881Y-8699381D01*
X13894357Y-8661286D01*
X13894357Y-8613667D01*
X13903881Y-8575571D01*
X13913405Y-8556524D01*
X13922928Y-8547000D01*
X13941976Y-8537476D01*
X14094357Y-8718429D02*
X14103881Y-8727952D01*
X14094357Y-8737476D01*
X14084833Y-8727952D01*
X14094357Y-8718429D01*
X14094357Y-8737476D01*
X14227690Y-8537476D02*
X14246738Y-8537476D01*
X14265786Y-8547000D01*
X14275309Y-8556524D01*
X14284833Y-8575571D01*
X14294357Y-8613667D01*
X14294357Y-8661286D01*
X14284833Y-8699381D01*
X14275309Y-8718429D01*
X14265786Y-8727952D01*
X14246738Y-8737476D01*
X14227690Y-8737476D01*
X14208643Y-8727952D01*
X14199119Y-8718429D01*
X14189595Y-8699381D01*
X14180071Y-8661286D01*
X14180071Y-8613667D01*
X14189595Y-8575571D01*
X14199119Y-8556524D01*
X14208643Y-8547000D01*
X14227690Y-8537476D01*
X14484833Y-8737476D02*
X14370548Y-8737476D01*
X14427690Y-8737476D02*
X14427690Y-8537476D01*
X14408643Y-8566048D01*
X14389595Y-8585095D01*
X14370548Y-8594619D01*
X14665786Y-8537476D02*
X14570548Y-8537476D01*
X14561024Y-8632714D01*
X14570548Y-8623190D01*
X14589595Y-8613667D01*
X14637214Y-8613667D01*
X14656262Y-8623190D01*
X14665786Y-8632714D01*
X14675309Y-8651762D01*
X14675309Y-8699381D01*
X14665786Y-8718429D01*
X14656262Y-8727952D01*
X14637214Y-8737476D01*
X14589595Y-8737476D01*
X14570548Y-8727952D01*
X14561024Y-8718429D01*
X14741976Y-8537476D02*
X14875309Y-8537476D01*
X14789595Y-8737476D01*
X14941976Y-8537476D02*
X14941976Y-8575571D01*
X15018167Y-8537476D02*
X15018167Y-8575571D01*
X15313405Y-8813667D02*
X15303881Y-8804143D01*
X15284833Y-8775571D01*
X15275309Y-8756524D01*
X15265786Y-8727952D01*
X15256262Y-8680333D01*
X15256262Y-8642238D01*
X15265786Y-8594619D01*
X15275309Y-8566048D01*
X15284833Y-8547000D01*
X15303881Y-8518429D01*
X15313405Y-8508905D01*
X15370548Y-8537476D02*
X15494357Y-8537476D01*
X15427690Y-8613667D01*
X15456262Y-8613667D01*
X15475309Y-8623190D01*
X15484833Y-8632714D01*
X15494357Y-8651762D01*
X15494357Y-8699381D01*
X15484833Y-8718429D01*
X15475309Y-8727952D01*
X15456262Y-8737476D01*
X15399119Y-8737476D01*
X15380071Y-8727952D01*
X15370548Y-8718429D01*
X15732452Y-8737476D02*
X15732452Y-8537476D01*
X15818167Y-8737476D02*
X15818167Y-8632714D01*
X15808643Y-8613667D01*
X15789595Y-8604143D01*
X15761024Y-8604143D01*
X15741976Y-8613667D01*
X15732452Y-8623190D01*
X15941976Y-8737476D02*
X15922928Y-8727952D01*
X15913405Y-8718429D01*
X15903881Y-8699381D01*
X15903881Y-8642238D01*
X15913405Y-8623190D01*
X15922928Y-8613667D01*
X15941976Y-8604143D01*
X15970548Y-8604143D01*
X15989595Y-8613667D01*
X15999119Y-8623190D01*
X16008643Y-8642238D01*
X16008643Y-8699381D01*
X15999119Y-8718429D01*
X15989595Y-8727952D01*
X15970548Y-8737476D01*
X15941976Y-8737476D01*
X16122928Y-8737476D02*
X16103881Y-8727952D01*
X16094357Y-8708905D01*
X16094357Y-8537476D01*
X16275309Y-8727952D02*
X16256262Y-8737476D01*
X16218167Y-8737476D01*
X16199119Y-8727952D01*
X16189595Y-8708905D01*
X16189595Y-8632714D01*
X16199119Y-8613667D01*
X16218167Y-8604143D01*
X16256262Y-8604143D01*
X16275309Y-8613667D01*
X16284833Y-8632714D01*
X16284833Y-8651762D01*
X16189595Y-8670810D01*
X16361024Y-8727952D02*
X16380071Y-8737476D01*
X16418167Y-8737476D01*
X16437214Y-8727952D01*
X16446738Y-8708905D01*
X16446738Y-8699381D01*
X16437214Y-8680333D01*
X16418167Y-8670810D01*
X16389595Y-8670810D01*
X16370548Y-8661286D01*
X16361024Y-8642238D01*
X16361024Y-8632714D01*
X16370548Y-8613667D01*
X16389595Y-8604143D01*
X16418167Y-8604143D01*
X16437214Y-8613667D01*
X16513405Y-8813667D02*
X16522928Y-8804143D01*
X16541976Y-8775571D01*
X16551500Y-8756524D01*
X16561024Y-8727952D01*
X16570548Y-8680333D01*
X16570548Y-8642238D01*
X16561024Y-8594619D01*
X16551500Y-8566048D01*
X16541976Y-8547000D01*
X16522928Y-8518429D01*
X16513405Y-8508905D01*
D13*
X11741500Y-8911000D02*
G75*
G03*
X11741500Y-8911000I-50000J0D01*
G01*
D11*
X12103881Y-9001476D02*
X11989595Y-9001476D01*
X12046738Y-9001476D02*
X12046738Y-8801476D01*
X12027690Y-8830048D01*
X12008643Y-8849095D01*
X11989595Y-8858619D01*
X12189595Y-8982429D02*
X12199119Y-8991952D01*
X12189595Y-9001476D01*
X12180071Y-8991952D01*
X12189595Y-8982429D01*
X12189595Y-9001476D01*
X12322928Y-8801476D02*
X12341976Y-8801476D01*
X12361024Y-8811000D01*
X12370548Y-8820524D01*
X12380071Y-8839571D01*
X12389595Y-8877667D01*
X12389595Y-8925286D01*
X12380071Y-8963381D01*
X12370548Y-8982429D01*
X12361024Y-8991952D01*
X12341976Y-9001476D01*
X12322928Y-9001476D01*
X12303881Y-8991952D01*
X12294357Y-8982429D01*
X12284833Y-8963381D01*
X12275309Y-8925286D01*
X12275309Y-8877667D01*
X12284833Y-8839571D01*
X12294357Y-8820524D01*
X12303881Y-8811000D01*
X12322928Y-8801476D01*
X12513405Y-8801476D02*
X12532452Y-8801476D01*
X12551500Y-8811000D01*
X12561024Y-8820524D01*
X12570548Y-8839571D01*
X12580071Y-8877667D01*
X12580071Y-8925286D01*
X12570548Y-8963381D01*
X12561024Y-8982429D01*
X12551500Y-8991952D01*
X12532452Y-9001476D01*
X12513405Y-9001476D01*
X12494357Y-8991952D01*
X12484833Y-8982429D01*
X12475309Y-8963381D01*
X12465786Y-8925286D01*
X12465786Y-8877667D01*
X12475309Y-8839571D01*
X12484833Y-8820524D01*
X12494357Y-8811000D01*
X12513405Y-8801476D01*
X12703881Y-8801476D02*
X12722928Y-8801476D01*
X12741976Y-8811000D01*
X12751500Y-8820524D01*
X12761024Y-8839571D01*
X12770548Y-8877667D01*
X12770548Y-8925286D01*
X12761024Y-8963381D01*
X12751500Y-8982429D01*
X12741976Y-8991952D01*
X12722928Y-9001476D01*
X12703881Y-9001476D01*
X12684833Y-8991952D01*
X12675309Y-8982429D01*
X12665786Y-8963381D01*
X12656262Y-8925286D01*
X12656262Y-8877667D01*
X12665786Y-8839571D01*
X12675309Y-8820524D01*
X12684833Y-8811000D01*
X12703881Y-8801476D01*
X12856262Y-9001476D02*
X12856262Y-8868143D01*
X12856262Y-8887190D02*
X12865786Y-8877667D01*
X12884833Y-8868143D01*
X12913405Y-8868143D01*
X12932452Y-8877667D01*
X12941976Y-8896714D01*
X12941976Y-9001476D01*
X12941976Y-8896714D02*
X12951500Y-8877667D01*
X12970548Y-8868143D01*
X12999119Y-8868143D01*
X13018167Y-8877667D01*
X13027690Y-8896714D01*
X13027690Y-9001476D01*
X13122928Y-9001476D02*
X13122928Y-8868143D01*
X13122928Y-8887190D02*
X13132452Y-8877667D01*
X13151500Y-8868143D01*
X13180071Y-8868143D01*
X13199119Y-8877667D01*
X13208643Y-8896714D01*
X13208643Y-9001476D01*
X13208643Y-8896714D02*
X13218167Y-8877667D01*
X13237214Y-8868143D01*
X13265786Y-8868143D01*
X13284833Y-8877667D01*
X13294357Y-8896714D01*
X13294357Y-9001476D01*
X13684833Y-8791952D02*
X13513405Y-9049095D01*
X13941976Y-8801476D02*
X13961024Y-8801476D01*
X13980071Y-8811000D01*
X13989595Y-8820524D01*
X13999119Y-8839571D01*
X14008643Y-8877667D01*
X14008643Y-8925286D01*
X13999119Y-8963381D01*
X13989595Y-8982429D01*
X13980071Y-8991952D01*
X13961024Y-9001476D01*
X13941976Y-9001476D01*
X13922928Y-8991952D01*
X13913405Y-8982429D01*
X13903881Y-8963381D01*
X13894357Y-8925286D01*
X13894357Y-8877667D01*
X13903881Y-8839571D01*
X13913405Y-8820524D01*
X13922928Y-8811000D01*
X13941976Y-8801476D01*
X14094357Y-8982429D02*
X14103881Y-8991952D01*
X14094357Y-9001476D01*
X14084833Y-8991952D01*
X14094357Y-8982429D01*
X14094357Y-9001476D01*
X14227690Y-8801476D02*
X14246738Y-8801476D01*
X14265786Y-8811000D01*
X14275309Y-8820524D01*
X14284833Y-8839571D01*
X14294357Y-8877667D01*
X14294357Y-8925286D01*
X14284833Y-8963381D01*
X14275309Y-8982429D01*
X14265786Y-8991952D01*
X14246738Y-9001476D01*
X14227690Y-9001476D01*
X14208643Y-8991952D01*
X14199119Y-8982429D01*
X14189595Y-8963381D01*
X14180071Y-8925286D01*
X14180071Y-8877667D01*
X14189595Y-8839571D01*
X14199119Y-8820524D01*
X14208643Y-8811000D01*
X14227690Y-8801476D01*
X14361024Y-8801476D02*
X14484833Y-8801476D01*
X14418167Y-8877667D01*
X14446738Y-8877667D01*
X14465786Y-8887190D01*
X14475309Y-8896714D01*
X14484833Y-8915762D01*
X14484833Y-8963381D01*
X14475309Y-8982429D01*
X14465786Y-8991952D01*
X14446738Y-9001476D01*
X14389595Y-9001476D01*
X14370548Y-8991952D01*
X14361024Y-8982429D01*
X14580071Y-9001476D02*
X14618167Y-9001476D01*
X14637214Y-8991952D01*
X14646738Y-8982429D01*
X14665786Y-8953857D01*
X14675309Y-8915762D01*
X14675309Y-8839571D01*
X14665786Y-8820524D01*
X14656262Y-8811000D01*
X14637214Y-8801476D01*
X14599119Y-8801476D01*
X14580071Y-8811000D01*
X14570548Y-8820524D01*
X14561024Y-8839571D01*
X14561024Y-8887190D01*
X14570548Y-8906238D01*
X14580071Y-8915762D01*
X14599119Y-8925286D01*
X14637214Y-8925286D01*
X14656262Y-8915762D01*
X14665786Y-8906238D01*
X14675309Y-8887190D01*
X14846738Y-8868143D02*
X14846738Y-9001476D01*
X14799119Y-8791952D02*
X14751500Y-8934810D01*
X14875309Y-8934810D01*
X14941976Y-8801476D02*
X14941976Y-8839571D01*
X15018167Y-8801476D02*
X15018167Y-8839571D01*
X15313405Y-9077667D02*
X15303881Y-9068143D01*
X15284833Y-9039571D01*
X15275309Y-9020524D01*
X15265786Y-8991952D01*
X15256262Y-8944333D01*
X15256262Y-8906238D01*
X15265786Y-8858619D01*
X15275309Y-8830048D01*
X15284833Y-8811000D01*
X15303881Y-8782429D01*
X15313405Y-8772905D01*
X15484833Y-8801476D02*
X15389595Y-8801476D01*
X15380071Y-8896714D01*
X15389595Y-8887190D01*
X15408643Y-8877667D01*
X15456262Y-8877667D01*
X15475309Y-8887190D01*
X15484833Y-8896714D01*
X15494357Y-8915762D01*
X15494357Y-8963381D01*
X15484833Y-8982429D01*
X15475309Y-8991952D01*
X15456262Y-9001476D01*
X15408643Y-9001476D01*
X15389595Y-8991952D01*
X15380071Y-8982429D01*
X15665786Y-8801476D02*
X15627690Y-8801476D01*
X15608643Y-8811000D01*
X15599119Y-8820524D01*
X15580071Y-8849095D01*
X15570548Y-8887190D01*
X15570548Y-8963381D01*
X15580071Y-8982429D01*
X15589595Y-8991952D01*
X15608643Y-9001476D01*
X15646738Y-9001476D01*
X15665786Y-8991952D01*
X15675309Y-8982429D01*
X15684833Y-8963381D01*
X15684833Y-8915762D01*
X15675309Y-8896714D01*
X15665786Y-8887190D01*
X15646738Y-8877667D01*
X15608643Y-8877667D01*
X15589595Y-8887190D01*
X15580071Y-8896714D01*
X15570548Y-8915762D01*
X15922928Y-9001476D02*
X15922928Y-8801476D01*
X16008643Y-9001476D02*
X16008643Y-8896714D01*
X15999119Y-8877667D01*
X15980071Y-8868143D01*
X15951500Y-8868143D01*
X15932452Y-8877667D01*
X15922928Y-8887190D01*
X16132452Y-9001476D02*
X16113405Y-8991952D01*
X16103881Y-8982429D01*
X16094357Y-8963381D01*
X16094357Y-8906238D01*
X16103881Y-8887190D01*
X16113405Y-8877667D01*
X16132452Y-8868143D01*
X16161024Y-8868143D01*
X16180071Y-8877667D01*
X16189595Y-8887190D01*
X16199119Y-8906238D01*
X16199119Y-8963381D01*
X16189595Y-8982429D01*
X16180071Y-8991952D01*
X16161024Y-9001476D01*
X16132452Y-9001476D01*
X16313405Y-9001476D02*
X16294357Y-8991952D01*
X16284833Y-8972905D01*
X16284833Y-8801476D01*
X16465786Y-8991952D02*
X16446738Y-9001476D01*
X16408643Y-9001476D01*
X16389595Y-8991952D01*
X16380071Y-8972905D01*
X16380071Y-8896714D01*
X16389595Y-8877667D01*
X16408643Y-8868143D01*
X16446738Y-8868143D01*
X16465786Y-8877667D01*
X16475309Y-8896714D01*
X16475309Y-8915762D01*
X16380071Y-8934810D01*
X16551500Y-8991952D02*
X16570548Y-9001476D01*
X16608643Y-9001476D01*
X16627690Y-8991952D01*
X16637214Y-8972905D01*
X16637214Y-8963381D01*
X16627690Y-8944333D01*
X16608643Y-8934810D01*
X16580071Y-8934810D01*
X16561024Y-8925286D01*
X16551500Y-8906238D01*
X16551500Y-8896714D01*
X16561024Y-8877667D01*
X16580071Y-8868143D01*
X16608643Y-8868143D01*
X16627690Y-8877667D01*
X16703881Y-9077667D02*
X16713405Y-9068143D01*
X16732452Y-9039571D01*
X16741976Y-9020524D01*
X16751500Y-8991952D01*
X16761024Y-8944333D01*
X16761024Y-8906238D01*
X16751500Y-8858619D01*
X16741976Y-8830048D01*
X16732452Y-8811000D01*
X16713405Y-8782429D01*
X16703881Y-8772905D01*
M02*
