%TF.GenerationSoftware,KiCad,Pcbnew,(5.1.12-1-10_14)*%
%TF.CreationDate,2021-12-06T09:51:28+08:00*%
%TF.ProjectId,Pragmatic,50726167-6d61-4746-9963-2e6b69636164,V0.3*%
%TF.SameCoordinates,Original*%
%TF.FileFunction,Soldermask,Bot*%
%TF.FilePolarity,Negative*%
%FSLAX46Y46*%
G04 Gerber Fmt 4.6, Leading zero omitted, Abs format (unit mm)*
G04 Created by KiCad (PCBNEW (5.1.12-1-10_14)) date 2021-12-06 09:51:28*
%MOMM*%
%LPD*%
G01*
G04 APERTURE LIST*
%ADD10C,0.010000*%
%ADD11C,1.752600*%
%ADD12R,1.752600X1.752600*%
%ADD13O,1.700000X1.700000*%
%ADD14R,1.700000X1.700000*%
%ADD15C,2.000000*%
%ADD16C,1.700000*%
G04 APERTURE END LIST*
D10*
%TO.C,Logo1*%
G36*
X142285968Y-72429744D02*
G01*
X142307087Y-72486616D01*
X142307493Y-72487267D01*
X142333380Y-72522440D01*
X142363633Y-72548407D01*
X142403058Y-72566670D01*
X142456462Y-72578732D01*
X142528651Y-72586096D01*
X142624432Y-72590264D01*
X142638078Y-72590629D01*
X142843842Y-72595876D01*
X142866678Y-72551716D01*
X142882110Y-72519763D01*
X142889423Y-72500470D01*
X142889514Y-72499578D01*
X142876022Y-72496239D01*
X142839626Y-72493587D01*
X142786452Y-72491956D01*
X142743393Y-72491600D01*
X142673641Y-72491592D01*
X142629837Y-72488403D01*
X142608944Y-72477288D01*
X142607925Y-72453501D01*
X142623741Y-72412296D01*
X142652815Y-72350086D01*
X142676963Y-72304341D01*
X142697913Y-72280813D01*
X142720747Y-72273896D01*
X142721877Y-72273886D01*
X142761212Y-72285299D01*
X142782462Y-72319092D01*
X142785539Y-72370809D01*
X142785006Y-72408061D01*
X142795735Y-72427703D01*
X142821505Y-72439952D01*
X142854337Y-72447002D01*
X142872966Y-72436842D01*
X142875632Y-72433017D01*
X142886340Y-72397001D01*
X142887856Y-72346566D01*
X142880759Y-72294626D01*
X142867788Y-72257822D01*
X142824585Y-72206938D01*
X142764446Y-72178014D01*
X142717462Y-72172286D01*
X142675082Y-72176657D01*
X142640488Y-72192475D01*
X142609763Y-72223797D01*
X142578990Y-72274678D01*
X142544252Y-72349176D01*
X142542288Y-72353714D01*
X142511287Y-72420821D01*
X142485862Y-72462232D01*
X142463014Y-72479981D01*
X142439745Y-72476107D01*
X142413056Y-72452643D01*
X142406914Y-72445627D01*
X142383100Y-72398630D01*
X142384103Y-72349933D01*
X142407451Y-72307522D01*
X142450675Y-72279384D01*
X142459160Y-72276769D01*
X142500308Y-72251308D01*
X142520128Y-72219001D01*
X142539770Y-72172286D01*
X142488950Y-72172286D01*
X142415082Y-72186496D01*
X142347327Y-72228675D01*
X142324661Y-72250624D01*
X142295569Y-72300517D01*
X142282400Y-72363967D01*
X142285968Y-72429744D01*
G37*
X142285968Y-72429744D02*
X142307087Y-72486616D01*
X142307493Y-72487267D01*
X142333380Y-72522440D01*
X142363633Y-72548407D01*
X142403058Y-72566670D01*
X142456462Y-72578732D01*
X142528651Y-72586096D01*
X142624432Y-72590264D01*
X142638078Y-72590629D01*
X142843842Y-72595876D01*
X142866678Y-72551716D01*
X142882110Y-72519763D01*
X142889423Y-72500470D01*
X142889514Y-72499578D01*
X142876022Y-72496239D01*
X142839626Y-72493587D01*
X142786452Y-72491956D01*
X142743393Y-72491600D01*
X142673641Y-72491592D01*
X142629837Y-72488403D01*
X142608944Y-72477288D01*
X142607925Y-72453501D01*
X142623741Y-72412296D01*
X142652815Y-72350086D01*
X142676963Y-72304341D01*
X142697913Y-72280813D01*
X142720747Y-72273896D01*
X142721877Y-72273886D01*
X142761212Y-72285299D01*
X142782462Y-72319092D01*
X142785539Y-72370809D01*
X142785006Y-72408061D01*
X142795735Y-72427703D01*
X142821505Y-72439952D01*
X142854337Y-72447002D01*
X142872966Y-72436842D01*
X142875632Y-72433017D01*
X142886340Y-72397001D01*
X142887856Y-72346566D01*
X142880759Y-72294626D01*
X142867788Y-72257822D01*
X142824585Y-72206938D01*
X142764446Y-72178014D01*
X142717462Y-72172286D01*
X142675082Y-72176657D01*
X142640488Y-72192475D01*
X142609763Y-72223797D01*
X142578990Y-72274678D01*
X142544252Y-72349176D01*
X142542288Y-72353714D01*
X142511287Y-72420821D01*
X142485862Y-72462232D01*
X142463014Y-72479981D01*
X142439745Y-72476107D01*
X142413056Y-72452643D01*
X142406914Y-72445627D01*
X142383100Y-72398630D01*
X142384103Y-72349933D01*
X142407451Y-72307522D01*
X142450675Y-72279384D01*
X142459160Y-72276769D01*
X142500308Y-72251308D01*
X142520128Y-72219001D01*
X142539770Y-72172286D01*
X142488950Y-72172286D01*
X142415082Y-72186496D01*
X142347327Y-72228675D01*
X142324661Y-72250624D01*
X142295569Y-72300517D01*
X142282400Y-72363967D01*
X142285968Y-72429744D01*
G36*
X142284755Y-72919926D02*
G01*
X142309084Y-72985858D01*
X142352117Y-73039273D01*
X142382409Y-73060164D01*
X142437994Y-73082939D01*
X142478186Y-73082466D01*
X142505217Y-73058562D01*
X142509813Y-73049717D01*
X142524144Y-73011530D01*
X142520472Y-72992028D01*
X142496407Y-72985422D01*
X142483114Y-72985086D01*
X142434210Y-72972992D01*
X142399999Y-72941471D01*
X142383476Y-72897659D01*
X142387634Y-72848695D01*
X142409227Y-72808894D01*
X142421544Y-72795450D01*
X142436487Y-72785921D01*
X142459075Y-72779485D01*
X142494328Y-72775317D01*
X142547266Y-72772597D01*
X142622907Y-72770502D01*
X142646857Y-72769960D01*
X142728790Y-72767981D01*
X142786455Y-72765731D01*
X142824608Y-72762357D01*
X142848004Y-72757006D01*
X142861398Y-72748824D01*
X142869545Y-72736959D01*
X142873144Y-72729362D01*
X142885452Y-72697102D01*
X142889514Y-72678111D01*
X142875948Y-72671836D01*
X142834934Y-72668006D01*
X142765999Y-72666600D01*
X142668669Y-72667598D01*
X142653657Y-72667908D01*
X142564859Y-72670101D01*
X142500019Y-72672693D01*
X142454067Y-72676382D01*
X142421935Y-72681864D01*
X142398553Y-72689835D01*
X142378852Y-72700993D01*
X142370410Y-72706830D01*
X142333057Y-72740296D01*
X142304003Y-72777727D01*
X142301467Y-72782309D01*
X142281443Y-72849426D01*
X142284755Y-72919926D01*
G37*
X142284755Y-72919926D02*
X142309084Y-72985858D01*
X142352117Y-73039273D01*
X142382409Y-73060164D01*
X142437994Y-73082939D01*
X142478186Y-73082466D01*
X142505217Y-73058562D01*
X142509813Y-73049717D01*
X142524144Y-73011530D01*
X142520472Y-72992028D01*
X142496407Y-72985422D01*
X142483114Y-72985086D01*
X142434210Y-72972992D01*
X142399999Y-72941471D01*
X142383476Y-72897659D01*
X142387634Y-72848695D01*
X142409227Y-72808894D01*
X142421544Y-72795450D01*
X142436487Y-72785921D01*
X142459075Y-72779485D01*
X142494328Y-72775317D01*
X142547266Y-72772597D01*
X142622907Y-72770502D01*
X142646857Y-72769960D01*
X142728790Y-72767981D01*
X142786455Y-72765731D01*
X142824608Y-72762357D01*
X142848004Y-72757006D01*
X142861398Y-72748824D01*
X142869545Y-72736959D01*
X142873144Y-72729362D01*
X142885452Y-72697102D01*
X142889514Y-72678111D01*
X142875948Y-72671836D01*
X142834934Y-72668006D01*
X142765999Y-72666600D01*
X142668669Y-72667598D01*
X142653657Y-72667908D01*
X142564859Y-72670101D01*
X142500019Y-72672693D01*
X142454067Y-72676382D01*
X142421935Y-72681864D01*
X142398553Y-72689835D01*
X142378852Y-72700993D01*
X142370410Y-72706830D01*
X142333057Y-72740296D01*
X142304003Y-72777727D01*
X142301467Y-72782309D01*
X142281443Y-72849426D01*
X142284755Y-72919926D01*
G36*
X142301966Y-75543595D02*
G01*
X142339497Y-75601021D01*
X142373096Y-75628719D01*
X142434064Y-75650662D01*
X142482308Y-75652405D01*
X142546816Y-75648457D01*
X142611934Y-75499686D01*
X142645202Y-75427349D01*
X142671964Y-75380084D01*
X142695144Y-75355507D01*
X142717667Y-75351237D01*
X142742455Y-75364889D01*
X142758886Y-75379943D01*
X142785235Y-75423746D01*
X142787081Y-75471389D01*
X142766546Y-75515145D01*
X142725752Y-75547289D01*
X142711347Y-75553038D01*
X142666356Y-75580576D01*
X142647182Y-75612258D01*
X142630779Y-75655714D01*
X142692966Y-75655714D01*
X142735283Y-75651872D01*
X142770969Y-75636823D01*
X142811943Y-75605280D01*
X142817267Y-75600592D01*
X142853720Y-75565506D01*
X142873283Y-75535347D01*
X142882283Y-75497615D01*
X142885230Y-75466335D01*
X142885965Y-75410385D01*
X142876660Y-75370555D01*
X142862846Y-75345708D01*
X142832467Y-75306656D01*
X142799613Y-75279625D01*
X142758294Y-75262517D01*
X142702521Y-75253238D01*
X142626305Y-75249693D01*
X142587622Y-75249410D01*
X142541247Y-75250372D01*
X142541247Y-75338007D01*
X142566126Y-75339023D01*
X142570200Y-75341556D01*
X142564665Y-75358274D01*
X142550017Y-75394249D01*
X142529190Y-75442331D01*
X142524714Y-75452386D01*
X142493814Y-75513152D01*
X142466657Y-75546632D01*
X142441220Y-75553990D01*
X142415481Y-75536391D01*
X142404109Y-75521856D01*
X142381364Y-75469410D01*
X142385122Y-75420322D01*
X142412884Y-75379227D01*
X142462152Y-75350758D01*
X142501257Y-75341631D01*
X142541247Y-75338007D01*
X142541247Y-75250372D01*
X142497249Y-75251285D01*
X142430384Y-75258196D01*
X142381695Y-75271884D01*
X142345849Y-75294096D01*
X142317513Y-75326574D01*
X142308355Y-75340733D01*
X142284507Y-75405053D01*
X142283006Y-75475473D01*
X142301966Y-75543595D01*
G37*
X142301966Y-75543595D02*
X142339497Y-75601021D01*
X142373096Y-75628719D01*
X142434064Y-75650662D01*
X142482308Y-75652405D01*
X142546816Y-75648457D01*
X142611934Y-75499686D01*
X142645202Y-75427349D01*
X142671964Y-75380084D01*
X142695144Y-75355507D01*
X142717667Y-75351237D01*
X142742455Y-75364889D01*
X142758886Y-75379943D01*
X142785235Y-75423746D01*
X142787081Y-75471389D01*
X142766546Y-75515145D01*
X142725752Y-75547289D01*
X142711347Y-75553038D01*
X142666356Y-75580576D01*
X142647182Y-75612258D01*
X142630779Y-75655714D01*
X142692966Y-75655714D01*
X142735283Y-75651872D01*
X142770969Y-75636823D01*
X142811943Y-75605280D01*
X142817267Y-75600592D01*
X142853720Y-75565506D01*
X142873283Y-75535347D01*
X142882283Y-75497615D01*
X142885230Y-75466335D01*
X142885965Y-75410385D01*
X142876660Y-75370555D01*
X142862846Y-75345708D01*
X142832467Y-75306656D01*
X142799613Y-75279625D01*
X142758294Y-75262517D01*
X142702521Y-75253238D01*
X142626305Y-75249693D01*
X142587622Y-75249410D01*
X142541247Y-75250372D01*
X142541247Y-75338007D01*
X142566126Y-75339023D01*
X142570200Y-75341556D01*
X142564665Y-75358274D01*
X142550017Y-75394249D01*
X142529190Y-75442331D01*
X142524714Y-75452386D01*
X142493814Y-75513152D01*
X142466657Y-75546632D01*
X142441220Y-75553990D01*
X142415481Y-75536391D01*
X142404109Y-75521856D01*
X142381364Y-75469410D01*
X142385122Y-75420322D01*
X142412884Y-75379227D01*
X142462152Y-75350758D01*
X142501257Y-75341631D01*
X142541247Y-75338007D01*
X142541247Y-75250372D01*
X142497249Y-75251285D01*
X142430384Y-75258196D01*
X142381695Y-75271884D01*
X142345849Y-75294096D01*
X142317513Y-75326574D01*
X142308355Y-75340733D01*
X142284507Y-75405053D01*
X142283006Y-75475473D01*
X142301966Y-75543595D01*
G36*
X142254918Y-69989744D02*
G01*
X142282568Y-70045201D01*
X142333480Y-70094148D01*
X142352338Y-70107629D01*
X142377015Y-70122314D01*
X142403816Y-70131842D01*
X142439587Y-70137293D01*
X142491169Y-70139747D01*
X142559267Y-70140286D01*
X142652588Y-70137852D01*
X142722657Y-70129394D01*
X142774931Y-70113174D01*
X142814869Y-70087454D01*
X142847929Y-70050497D01*
X142849886Y-70047782D01*
X142869908Y-70011360D01*
X142879815Y-69967502D01*
X142882257Y-69911724D01*
X142882257Y-69821048D01*
X142970283Y-69821010D01*
X143019308Y-69820166D01*
X143048065Y-69815024D01*
X143065311Y-69801587D01*
X143079808Y-69775858D01*
X143082769Y-69769679D01*
X143096648Y-69740764D01*
X143105414Y-69718376D01*
X143106171Y-69701729D01*
X143096023Y-69690036D01*
X143072073Y-69682510D01*
X143031426Y-69678366D01*
X142971186Y-69676815D01*
X142888455Y-69677071D01*
X142780339Y-69678349D01*
X142748000Y-69678748D01*
X142636524Y-69680185D01*
X142563603Y-69681472D01*
X142563603Y-69820971D01*
X142625499Y-69821755D01*
X142665997Y-69825240D01*
X142692708Y-69833124D01*
X142713244Y-69847105D01*
X142723260Y-69856597D01*
X142752567Y-69895404D01*
X142754952Y-69929763D01*
X142730750Y-69965216D01*
X142729857Y-69966114D01*
X142711153Y-69980539D01*
X142685732Y-69989313D01*
X142646584Y-69993739D01*
X142586697Y-69995118D01*
X142573430Y-69995143D01*
X142490901Y-69991812D01*
X142433691Y-69980969D01*
X142398766Y-69961340D01*
X142383094Y-69931650D01*
X142381514Y-69914491D01*
X142388926Y-69873766D01*
X142413330Y-69845832D01*
X142457980Y-69829017D01*
X142526130Y-69821650D01*
X142563603Y-69820971D01*
X142563603Y-69681472D01*
X142550245Y-69681708D01*
X142485333Y-69683677D01*
X142437958Y-69686450D01*
X142404290Y-69690388D01*
X142380498Y-69695849D01*
X142362753Y-69703192D01*
X142347224Y-69712777D01*
X142341381Y-69716887D01*
X142286185Y-69771405D01*
X142254890Y-69840336D01*
X142246165Y-69920072D01*
X142254918Y-69989744D01*
G37*
X142254918Y-69989744D02*
X142282568Y-70045201D01*
X142333480Y-70094148D01*
X142352338Y-70107629D01*
X142377015Y-70122314D01*
X142403816Y-70131842D01*
X142439587Y-70137293D01*
X142491169Y-70139747D01*
X142559267Y-70140286D01*
X142652588Y-70137852D01*
X142722657Y-70129394D01*
X142774931Y-70113174D01*
X142814869Y-70087454D01*
X142847929Y-70050497D01*
X142849886Y-70047782D01*
X142869908Y-70011360D01*
X142879815Y-69967502D01*
X142882257Y-69911724D01*
X142882257Y-69821048D01*
X142970283Y-69821010D01*
X143019308Y-69820166D01*
X143048065Y-69815024D01*
X143065311Y-69801587D01*
X143079808Y-69775858D01*
X143082769Y-69769679D01*
X143096648Y-69740764D01*
X143105414Y-69718376D01*
X143106171Y-69701729D01*
X143096023Y-69690036D01*
X143072073Y-69682510D01*
X143031426Y-69678366D01*
X142971186Y-69676815D01*
X142888455Y-69677071D01*
X142780339Y-69678349D01*
X142748000Y-69678748D01*
X142636524Y-69680185D01*
X142563603Y-69681472D01*
X142563603Y-69820971D01*
X142625499Y-69821755D01*
X142665997Y-69825240D01*
X142692708Y-69833124D01*
X142713244Y-69847105D01*
X142723260Y-69856597D01*
X142752567Y-69895404D01*
X142754952Y-69929763D01*
X142730750Y-69965216D01*
X142729857Y-69966114D01*
X142711153Y-69980539D01*
X142685732Y-69989313D01*
X142646584Y-69993739D01*
X142586697Y-69995118D01*
X142573430Y-69995143D01*
X142490901Y-69991812D01*
X142433691Y-69980969D01*
X142398766Y-69961340D01*
X142383094Y-69931650D01*
X142381514Y-69914491D01*
X142388926Y-69873766D01*
X142413330Y-69845832D01*
X142457980Y-69829017D01*
X142526130Y-69821650D01*
X142563603Y-69820971D01*
X142563603Y-69681472D01*
X142550245Y-69681708D01*
X142485333Y-69683677D01*
X142437958Y-69686450D01*
X142404290Y-69690388D01*
X142380498Y-69695849D01*
X142362753Y-69703192D01*
X142347224Y-69712777D01*
X142341381Y-69716887D01*
X142286185Y-69771405D01*
X142254890Y-69840336D01*
X142246165Y-69920072D01*
X142254918Y-69989744D01*
G36*
X142293752Y-75042600D02*
G01*
X142301334Y-75059948D01*
X142334128Y-75101356D01*
X142381547Y-75136765D01*
X142432151Y-75158664D01*
X142457098Y-75162229D01*
X142491927Y-75150279D01*
X142510357Y-75124067D01*
X142521516Y-75095964D01*
X142523572Y-75083095D01*
X142508649Y-75076829D01*
X142476175Y-75064456D01*
X142461502Y-75059028D01*
X142410744Y-75028590D01*
X142385427Y-74984520D01*
X142386206Y-74928010D01*
X142387203Y-74923825D01*
X142401507Y-74893655D01*
X142429393Y-74871476D01*
X142474287Y-74856327D01*
X142539615Y-74847250D01*
X142628804Y-74843286D01*
X142676261Y-74842914D01*
X142751071Y-74842730D01*
X142802069Y-74841522D01*
X142834471Y-74838309D01*
X142853495Y-74832109D01*
X142864356Y-74821940D01*
X142872272Y-74806819D01*
X142872670Y-74805946D01*
X142884981Y-74776828D01*
X142889514Y-74762403D01*
X142875809Y-74760186D01*
X142837925Y-74758289D01*
X142780715Y-74756847D01*
X142709027Y-74755998D01*
X142656565Y-74755829D01*
X142555047Y-74756692D01*
X142478032Y-74760070D01*
X142421023Y-74767142D01*
X142379526Y-74779088D01*
X142349043Y-74797090D01*
X142325080Y-74822327D01*
X142308355Y-74847247D01*
X142286097Y-74907171D01*
X142281076Y-74976911D01*
X142293752Y-75042600D01*
G37*
X142293752Y-75042600D02*
X142301334Y-75059948D01*
X142334128Y-75101356D01*
X142381547Y-75136765D01*
X142432151Y-75158664D01*
X142457098Y-75162229D01*
X142491927Y-75150279D01*
X142510357Y-75124067D01*
X142521516Y-75095964D01*
X142523572Y-75083095D01*
X142508649Y-75076829D01*
X142476175Y-75064456D01*
X142461502Y-75059028D01*
X142410744Y-75028590D01*
X142385427Y-74984520D01*
X142386206Y-74928010D01*
X142387203Y-74923825D01*
X142401507Y-74893655D01*
X142429393Y-74871476D01*
X142474287Y-74856327D01*
X142539615Y-74847250D01*
X142628804Y-74843286D01*
X142676261Y-74842914D01*
X142751071Y-74842730D01*
X142802069Y-74841522D01*
X142834471Y-74838309D01*
X142853495Y-74832109D01*
X142864356Y-74821940D01*
X142872272Y-74806819D01*
X142872670Y-74805946D01*
X142884981Y-74776828D01*
X142889514Y-74762403D01*
X142875809Y-74760186D01*
X142837925Y-74758289D01*
X142780715Y-74756847D01*
X142709027Y-74755998D01*
X142656565Y-74755829D01*
X142555047Y-74756692D01*
X142478032Y-74760070D01*
X142421023Y-74767142D01*
X142379526Y-74779088D01*
X142349043Y-74797090D01*
X142325080Y-74822327D01*
X142308355Y-74847247D01*
X142286097Y-74907171D01*
X142281076Y-74976911D01*
X142293752Y-75042600D01*
G36*
X142256962Y-69431115D02*
G01*
X142292733Y-69499145D01*
X142350301Y-69549351D01*
X142387312Y-69567185D01*
X142442882Y-69581063D01*
X142513096Y-69588167D01*
X142589727Y-69588840D01*
X142664552Y-69583427D01*
X142729342Y-69572270D01*
X142775873Y-69555714D01*
X142783887Y-69550626D01*
X142843707Y-69490355D01*
X142879535Y-69418769D01*
X142890020Y-69341092D01*
X142873810Y-69262548D01*
X142864092Y-69240689D01*
X142834143Y-69198122D01*
X142794433Y-69160763D01*
X142789397Y-69157232D01*
X142765124Y-69142881D01*
X142739178Y-69133394D01*
X142705022Y-69127790D01*
X142656119Y-69125086D01*
X142585935Y-69124299D01*
X142570200Y-69124286D01*
X142565192Y-69124322D01*
X142565192Y-69269429D01*
X142631430Y-69270273D01*
X142675386Y-69273596D01*
X142703779Y-69280583D01*
X142723325Y-69292416D01*
X142729857Y-69298457D01*
X142754680Y-69333186D01*
X142753548Y-69366903D01*
X142732016Y-69400995D01*
X142709029Y-69421329D01*
X142675478Y-69433371D01*
X142622569Y-69440134D01*
X142616399Y-69440598D01*
X142520513Y-69441752D01*
X142449299Y-69429688D01*
X142403194Y-69404570D01*
X142382635Y-69366560D01*
X142381514Y-69352992D01*
X142387152Y-69317364D01*
X142406686Y-69292994D01*
X142444042Y-69278093D01*
X142503150Y-69270875D01*
X142565192Y-69269429D01*
X142565192Y-69124322D01*
X142495413Y-69124826D01*
X142443159Y-69127096D01*
X142406949Y-69132068D01*
X142380299Y-69140713D01*
X142356722Y-69154005D01*
X142352338Y-69156943D01*
X142293249Y-69206313D01*
X142258947Y-69260109D01*
X142245331Y-69325602D01*
X142244665Y-69347842D01*
X142256962Y-69431115D01*
G37*
X142256962Y-69431115D02*
X142292733Y-69499145D01*
X142350301Y-69549351D01*
X142387312Y-69567185D01*
X142442882Y-69581063D01*
X142513096Y-69588167D01*
X142589727Y-69588840D01*
X142664552Y-69583427D01*
X142729342Y-69572270D01*
X142775873Y-69555714D01*
X142783887Y-69550626D01*
X142843707Y-69490355D01*
X142879535Y-69418769D01*
X142890020Y-69341092D01*
X142873810Y-69262548D01*
X142864092Y-69240689D01*
X142834143Y-69198122D01*
X142794433Y-69160763D01*
X142789397Y-69157232D01*
X142765124Y-69142881D01*
X142739178Y-69133394D01*
X142705022Y-69127790D01*
X142656119Y-69125086D01*
X142585935Y-69124299D01*
X142570200Y-69124286D01*
X142565192Y-69124322D01*
X142565192Y-69269429D01*
X142631430Y-69270273D01*
X142675386Y-69273596D01*
X142703779Y-69280583D01*
X142723325Y-69292416D01*
X142729857Y-69298457D01*
X142754680Y-69333186D01*
X142753548Y-69366903D01*
X142732016Y-69400995D01*
X142709029Y-69421329D01*
X142675478Y-69433371D01*
X142622569Y-69440134D01*
X142616399Y-69440598D01*
X142520513Y-69441752D01*
X142449299Y-69429688D01*
X142403194Y-69404570D01*
X142382635Y-69366560D01*
X142381514Y-69352992D01*
X142387152Y-69317364D01*
X142406686Y-69292994D01*
X142444042Y-69278093D01*
X142503150Y-69270875D01*
X142565192Y-69269429D01*
X142565192Y-69124322D01*
X142495413Y-69124826D01*
X142443159Y-69127096D01*
X142406949Y-69132068D01*
X142380299Y-69140713D01*
X142356722Y-69154005D01*
X142352338Y-69156943D01*
X142293249Y-69206313D01*
X142258947Y-69260109D01*
X142245331Y-69325602D01*
X142244665Y-69347842D01*
X142256962Y-69431115D01*
G36*
X142262780Y-71106093D02*
G01*
X142289723Y-71152672D01*
X142316466Y-71185057D01*
X142344484Y-71208742D01*
X142378748Y-71225059D01*
X142424227Y-71235339D01*
X142485892Y-71240914D01*
X142568711Y-71243116D01*
X142628246Y-71243371D01*
X142847391Y-71243371D01*
X142875044Y-71181686D01*
X142902697Y-71120000D01*
X142662670Y-71112743D01*
X142573028Y-71109744D01*
X142507962Y-71106598D01*
X142463026Y-71102701D01*
X142433770Y-71097447D01*
X142415748Y-71090231D01*
X142404511Y-71080450D01*
X142402079Y-71077312D01*
X142383083Y-71029761D01*
X142390600Y-70981697D01*
X142410543Y-70953086D01*
X142424675Y-70941447D01*
X142443220Y-70933391D01*
X142471334Y-70928271D01*
X142514173Y-70925441D01*
X142576895Y-70924256D01*
X142642261Y-70924057D01*
X142724268Y-70924018D01*
X142782316Y-70922614D01*
X142821465Y-70917914D01*
X142846780Y-70907987D01*
X142863323Y-70890903D01*
X142876156Y-70864732D01*
X142889491Y-70829775D01*
X142904007Y-70791596D01*
X142646389Y-70796141D01*
X142553519Y-70797971D01*
X142484889Y-70800112D01*
X142435711Y-70803181D01*
X142401198Y-70807794D01*
X142376562Y-70814568D01*
X142357016Y-70824119D01*
X142339770Y-70835634D01*
X142284680Y-70891190D01*
X142252822Y-70958980D01*
X142245191Y-71032713D01*
X142262780Y-71106093D01*
G37*
X142262780Y-71106093D02*
X142289723Y-71152672D01*
X142316466Y-71185057D01*
X142344484Y-71208742D01*
X142378748Y-71225059D01*
X142424227Y-71235339D01*
X142485892Y-71240914D01*
X142568711Y-71243116D01*
X142628246Y-71243371D01*
X142847391Y-71243371D01*
X142875044Y-71181686D01*
X142902697Y-71120000D01*
X142662670Y-71112743D01*
X142573028Y-71109744D01*
X142507962Y-71106598D01*
X142463026Y-71102701D01*
X142433770Y-71097447D01*
X142415748Y-71090231D01*
X142404511Y-71080450D01*
X142402079Y-71077312D01*
X142383083Y-71029761D01*
X142390600Y-70981697D01*
X142410543Y-70953086D01*
X142424675Y-70941447D01*
X142443220Y-70933391D01*
X142471334Y-70928271D01*
X142514173Y-70925441D01*
X142576895Y-70924256D01*
X142642261Y-70924057D01*
X142724268Y-70924018D01*
X142782316Y-70922614D01*
X142821465Y-70917914D01*
X142846780Y-70907987D01*
X142863323Y-70890903D01*
X142876156Y-70864732D01*
X142889491Y-70829775D01*
X142904007Y-70791596D01*
X142646389Y-70796141D01*
X142553519Y-70797971D01*
X142484889Y-70800112D01*
X142435711Y-70803181D01*
X142401198Y-70807794D01*
X142376562Y-70814568D01*
X142357016Y-70824119D01*
X142339770Y-70835634D01*
X142284680Y-70891190D01*
X142252822Y-70958980D01*
X142245191Y-71032713D01*
X142262780Y-71106093D01*
G36*
X142266239Y-70558303D02*
G01*
X142304735Y-70615527D01*
X142360335Y-70659749D01*
X142431086Y-70686167D01*
X142483162Y-70691510D01*
X142504893Y-70690903D01*
X142521531Y-70685822D01*
X142536437Y-70671855D01*
X142552973Y-70644589D01*
X142574498Y-70599612D01*
X142604374Y-70532511D01*
X142604524Y-70532171D01*
X142632813Y-70470407D01*
X142657933Y-70419759D01*
X142677179Y-70385404D01*
X142687848Y-70372518D01*
X142687934Y-70372514D01*
X142711166Y-70383872D01*
X142736774Y-70410431D01*
X142755221Y-70440923D01*
X142758886Y-70456370D01*
X142746212Y-70498515D01*
X142714471Y-70534808D01*
X142679572Y-70552517D01*
X142653845Y-70569552D01*
X142624546Y-70602922D01*
X142599235Y-70642149D01*
X142585471Y-70676756D01*
X142584714Y-70683993D01*
X142597160Y-70692139D01*
X142628972Y-70692630D01*
X142671866Y-70686643D01*
X142717558Y-70675357D01*
X142757761Y-70659950D01*
X142759322Y-70659171D01*
X142824062Y-70612804D01*
X142868097Y-70552711D01*
X142889711Y-70484465D01*
X142887185Y-70413638D01*
X142858804Y-70345804D01*
X142856808Y-70342788D01*
X142808448Y-70289427D01*
X142745352Y-70254340D01*
X142662387Y-70234922D01*
X142639078Y-70232316D01*
X142529055Y-70227701D01*
X142477748Y-70233233D01*
X142477748Y-70372514D01*
X142509753Y-70374324D01*
X142519093Y-70384222D01*
X142512105Y-70408898D01*
X142495587Y-70447795D01*
X142474881Y-70491275D01*
X142474333Y-70492356D01*
X142454949Y-70529209D01*
X142442013Y-70544000D01*
X142428451Y-70540353D01*
X142410632Y-70524995D01*
X142384845Y-70485923D01*
X142382950Y-70443846D01*
X142401717Y-70406103D01*
X142437915Y-70380034D01*
X142477748Y-70372514D01*
X142477748Y-70233233D01*
X142441027Y-70237194D01*
X142371212Y-70261550D01*
X142322302Y-70295456D01*
X142272878Y-70356653D01*
X142248359Y-70424063D01*
X142246797Y-70492880D01*
X142266239Y-70558303D01*
G37*
X142266239Y-70558303D02*
X142304735Y-70615527D01*
X142360335Y-70659749D01*
X142431086Y-70686167D01*
X142483162Y-70691510D01*
X142504893Y-70690903D01*
X142521531Y-70685822D01*
X142536437Y-70671855D01*
X142552973Y-70644589D01*
X142574498Y-70599612D01*
X142604374Y-70532511D01*
X142604524Y-70532171D01*
X142632813Y-70470407D01*
X142657933Y-70419759D01*
X142677179Y-70385404D01*
X142687848Y-70372518D01*
X142687934Y-70372514D01*
X142711166Y-70383872D01*
X142736774Y-70410431D01*
X142755221Y-70440923D01*
X142758886Y-70456370D01*
X142746212Y-70498515D01*
X142714471Y-70534808D01*
X142679572Y-70552517D01*
X142653845Y-70569552D01*
X142624546Y-70602922D01*
X142599235Y-70642149D01*
X142585471Y-70676756D01*
X142584714Y-70683993D01*
X142597160Y-70692139D01*
X142628972Y-70692630D01*
X142671866Y-70686643D01*
X142717558Y-70675357D01*
X142757761Y-70659950D01*
X142759322Y-70659171D01*
X142824062Y-70612804D01*
X142868097Y-70552711D01*
X142889711Y-70484465D01*
X142887185Y-70413638D01*
X142858804Y-70345804D01*
X142856808Y-70342788D01*
X142808448Y-70289427D01*
X142745352Y-70254340D01*
X142662387Y-70234922D01*
X142639078Y-70232316D01*
X142529055Y-70227701D01*
X142477748Y-70233233D01*
X142477748Y-70372514D01*
X142509753Y-70374324D01*
X142519093Y-70384222D01*
X142512105Y-70408898D01*
X142495587Y-70447795D01*
X142474881Y-70491275D01*
X142474333Y-70492356D01*
X142454949Y-70529209D01*
X142442013Y-70544000D01*
X142428451Y-70540353D01*
X142410632Y-70524995D01*
X142384845Y-70485923D01*
X142382950Y-70443846D01*
X142401717Y-70406103D01*
X142437915Y-70380034D01*
X142477748Y-70372514D01*
X142477748Y-70233233D01*
X142441027Y-70237194D01*
X142371212Y-70261550D01*
X142322302Y-70295456D01*
X142272878Y-70356653D01*
X142248359Y-70424063D01*
X142246797Y-70492880D01*
X142266239Y-70558303D01*
G36*
X142186289Y-71765886D02*
G01*
X142245613Y-71770139D01*
X142280572Y-71775025D01*
X142295820Y-71781795D01*
X142296015Y-71791702D01*
X142294195Y-71794914D01*
X142281015Y-71837644D01*
X142281785Y-71893227D01*
X142295333Y-71949737D01*
X142312861Y-71985082D01*
X142340861Y-72021321D01*
X142372549Y-72047813D01*
X142412813Y-72065999D01*
X142466543Y-72077322D01*
X142538626Y-72083222D01*
X142633951Y-72085143D01*
X142652237Y-72085177D01*
X142857646Y-72085200D01*
X142873580Y-72039491D01*
X142884420Y-72007027D01*
X142889468Y-71989215D01*
X142889514Y-71988691D01*
X142875828Y-71986937D01*
X142838076Y-71985444D01*
X142781224Y-71984326D01*
X142710234Y-71983697D01*
X142667073Y-71983600D01*
X142581973Y-71983398D01*
X142520981Y-71982358D01*
X142479177Y-71979831D01*
X142451642Y-71975164D01*
X142433456Y-71967707D01*
X142419698Y-71956811D01*
X142413073Y-71950007D01*
X142386375Y-71903272D01*
X142384375Y-71852272D01*
X142406955Y-71806001D01*
X142415107Y-71797444D01*
X142430436Y-71784893D01*
X142448618Y-71776188D01*
X142474909Y-71770631D01*
X142514562Y-71767526D01*
X142572832Y-71766176D01*
X142653173Y-71765886D01*
X142857646Y-71765886D01*
X142873580Y-71720177D01*
X142884420Y-71687713D01*
X142889468Y-71669901D01*
X142889514Y-71669377D01*
X142875623Y-71668037D01*
X142836439Y-71666828D01*
X142775700Y-71665801D01*
X142697141Y-71665002D01*
X142604498Y-71664481D01*
X142501509Y-71664286D01*
X142104342Y-71664286D01*
X142084444Y-71711457D01*
X142064547Y-71758629D01*
X142186289Y-71765886D01*
G37*
X142186289Y-71765886D02*
X142245613Y-71770139D01*
X142280572Y-71775025D01*
X142295820Y-71781795D01*
X142296015Y-71791702D01*
X142294195Y-71794914D01*
X142281015Y-71837644D01*
X142281785Y-71893227D01*
X142295333Y-71949737D01*
X142312861Y-71985082D01*
X142340861Y-72021321D01*
X142372549Y-72047813D01*
X142412813Y-72065999D01*
X142466543Y-72077322D01*
X142538626Y-72083222D01*
X142633951Y-72085143D01*
X142652237Y-72085177D01*
X142857646Y-72085200D01*
X142873580Y-72039491D01*
X142884420Y-72007027D01*
X142889468Y-71989215D01*
X142889514Y-71988691D01*
X142875828Y-71986937D01*
X142838076Y-71985444D01*
X142781224Y-71984326D01*
X142710234Y-71983697D01*
X142667073Y-71983600D01*
X142581973Y-71983398D01*
X142520981Y-71982358D01*
X142479177Y-71979831D01*
X142451642Y-71975164D01*
X142433456Y-71967707D01*
X142419698Y-71956811D01*
X142413073Y-71950007D01*
X142386375Y-71903272D01*
X142384375Y-71852272D01*
X142406955Y-71806001D01*
X142415107Y-71797444D01*
X142430436Y-71784893D01*
X142448618Y-71776188D01*
X142474909Y-71770631D01*
X142514562Y-71767526D01*
X142572832Y-71766176D01*
X142653173Y-71765886D01*
X142857646Y-71765886D01*
X142873580Y-71720177D01*
X142884420Y-71687713D01*
X142889468Y-71669901D01*
X142889514Y-71669377D01*
X142875623Y-71668037D01*
X142836439Y-71666828D01*
X142775700Y-71665801D01*
X142697141Y-71665002D01*
X142604498Y-71664481D01*
X142501509Y-71664286D01*
X142104342Y-71664286D01*
X142084444Y-71711457D01*
X142064547Y-71758629D01*
X142186289Y-71765886D01*
G36*
X142400358Y-73580117D02*
G01*
X142508837Y-73579933D01*
X142592287Y-73579219D01*
X142654704Y-73577675D01*
X142700085Y-73575001D01*
X142732429Y-73570894D01*
X142755733Y-73565055D01*
X142773995Y-73557182D01*
X142784418Y-73551221D01*
X142840945Y-73501855D01*
X142876377Y-73439264D01*
X142889090Y-73370013D01*
X142877463Y-73300668D01*
X142856568Y-73259375D01*
X142820422Y-73216025D01*
X142776276Y-73186481D01*
X142718462Y-73168655D01*
X142641313Y-73160463D01*
X142584714Y-73159302D01*
X142580647Y-73159458D01*
X142580647Y-73260857D01*
X142645550Y-73261476D01*
X142688514Y-73264314D01*
X142716622Y-73270840D01*
X142736953Y-73282523D01*
X142752288Y-73296483D01*
X142781890Y-73343365D01*
X142784419Y-73393701D01*
X142759705Y-73441276D01*
X142756356Y-73444979D01*
X142738935Y-73460783D01*
X142718209Y-73470693D01*
X142687362Y-73476058D01*
X142639577Y-73478228D01*
X142586748Y-73478571D01*
X142520381Y-73477827D01*
X142476106Y-73474748D01*
X142447009Y-73468061D01*
X142426173Y-73456496D01*
X142415107Y-73447013D01*
X142387198Y-73402960D01*
X142383843Y-73352224D01*
X142405159Y-73303796D01*
X142413073Y-73294450D01*
X142430647Y-73278540D01*
X142451587Y-73268610D01*
X142482782Y-73263278D01*
X142531122Y-73261163D01*
X142580647Y-73260857D01*
X142580647Y-73159458D01*
X142493568Y-73162810D01*
X142425086Y-73174726D01*
X142373600Y-73197135D01*
X142333443Y-73232124D01*
X142312861Y-73259375D01*
X142290625Y-73308907D01*
X142280304Y-73366316D01*
X142283067Y-73419682D01*
X142294212Y-73449543D01*
X142297383Y-73461261D01*
X142285557Y-73469037D01*
X142253866Y-73474465D01*
X142205593Y-73478571D01*
X142151829Y-73483067D01*
X142119482Y-73489313D01*
X142100985Y-73500676D01*
X142088770Y-73520528D01*
X142083362Y-73533000D01*
X142063601Y-73580171D01*
X142400358Y-73580117D01*
G37*
X142400358Y-73580117D02*
X142508837Y-73579933D01*
X142592287Y-73579219D01*
X142654704Y-73577675D01*
X142700085Y-73575001D01*
X142732429Y-73570894D01*
X142755733Y-73565055D01*
X142773995Y-73557182D01*
X142784418Y-73551221D01*
X142840945Y-73501855D01*
X142876377Y-73439264D01*
X142889090Y-73370013D01*
X142877463Y-73300668D01*
X142856568Y-73259375D01*
X142820422Y-73216025D01*
X142776276Y-73186481D01*
X142718462Y-73168655D01*
X142641313Y-73160463D01*
X142584714Y-73159302D01*
X142580647Y-73159458D01*
X142580647Y-73260857D01*
X142645550Y-73261476D01*
X142688514Y-73264314D01*
X142716622Y-73270840D01*
X142736953Y-73282523D01*
X142752288Y-73296483D01*
X142781890Y-73343365D01*
X142784419Y-73393701D01*
X142759705Y-73441276D01*
X142756356Y-73444979D01*
X142738935Y-73460783D01*
X142718209Y-73470693D01*
X142687362Y-73476058D01*
X142639577Y-73478228D01*
X142586748Y-73478571D01*
X142520381Y-73477827D01*
X142476106Y-73474748D01*
X142447009Y-73468061D01*
X142426173Y-73456496D01*
X142415107Y-73447013D01*
X142387198Y-73402960D01*
X142383843Y-73352224D01*
X142405159Y-73303796D01*
X142413073Y-73294450D01*
X142430647Y-73278540D01*
X142451587Y-73268610D01*
X142482782Y-73263278D01*
X142531122Y-73261163D01*
X142580647Y-73260857D01*
X142580647Y-73159458D01*
X142493568Y-73162810D01*
X142425086Y-73174726D01*
X142373600Y-73197135D01*
X142333443Y-73232124D01*
X142312861Y-73259375D01*
X142290625Y-73308907D01*
X142280304Y-73366316D01*
X142283067Y-73419682D01*
X142294212Y-73449543D01*
X142297383Y-73461261D01*
X142285557Y-73469037D01*
X142253866Y-73474465D01*
X142205593Y-73478571D01*
X142151829Y-73483067D01*
X142119482Y-73489313D01*
X142100985Y-73500676D01*
X142088770Y-73520528D01*
X142083362Y-73533000D01*
X142063601Y-73580171D01*
X142400358Y-73580117D01*
G36*
X142293663Y-74169833D02*
G01*
X142331850Y-74172048D01*
X142389886Y-74173784D01*
X142463180Y-74174899D01*
X142540055Y-74175257D01*
X142800196Y-74175257D01*
X142846127Y-74129326D01*
X142874429Y-74097675D01*
X142885893Y-74069890D01*
X142885168Y-74031915D01*
X142883321Y-74016840D01*
X142877948Y-73969726D01*
X142874869Y-73930756D01*
X142874585Y-73921257D01*
X142876445Y-73889233D01*
X142881114Y-73843432D01*
X142883321Y-73825674D01*
X142886735Y-73782057D01*
X142879320Y-73752745D01*
X142856427Y-73723680D01*
X142846127Y-73713188D01*
X142800196Y-73667257D01*
X142313602Y-73667257D01*
X142296758Y-73704226D01*
X142284282Y-73736059D01*
X142279914Y-73754683D01*
X142293718Y-73759458D01*
X142332286Y-73763921D01*
X142391356Y-73767775D01*
X142466663Y-73770722D01*
X142530286Y-73772143D01*
X142780657Y-73776114D01*
X142785556Y-73810759D01*
X142782131Y-73842268D01*
X142771041Y-73857708D01*
X142750308Y-73862023D01*
X142706145Y-73865708D01*
X142644146Y-73868469D01*
X142569909Y-73870012D01*
X142531706Y-73870235D01*
X142311783Y-73870457D01*
X142295849Y-73916166D01*
X142285015Y-73948518D01*
X142279962Y-73966115D01*
X142279914Y-73966623D01*
X142293648Y-73968388D01*
X142331730Y-73970329D01*
X142389482Y-73972282D01*
X142462227Y-73974084D01*
X142530286Y-73975343D01*
X142780657Y-73979314D01*
X142780657Y-74066400D01*
X142552240Y-74070396D01*
X142323822Y-74074392D01*
X142301868Y-74116847D01*
X142286793Y-74148192D01*
X142279951Y-74166744D01*
X142279914Y-74167279D01*
X142293663Y-74169833D01*
G37*
X142293663Y-74169833D02*
X142331850Y-74172048D01*
X142389886Y-74173784D01*
X142463180Y-74174899D01*
X142540055Y-74175257D01*
X142800196Y-74175257D01*
X142846127Y-74129326D01*
X142874429Y-74097675D01*
X142885893Y-74069890D01*
X142885168Y-74031915D01*
X142883321Y-74016840D01*
X142877948Y-73969726D01*
X142874869Y-73930756D01*
X142874585Y-73921257D01*
X142876445Y-73889233D01*
X142881114Y-73843432D01*
X142883321Y-73825674D01*
X142886735Y-73782057D01*
X142879320Y-73752745D01*
X142856427Y-73723680D01*
X142846127Y-73713188D01*
X142800196Y-73667257D01*
X142313602Y-73667257D01*
X142296758Y-73704226D01*
X142284282Y-73736059D01*
X142279914Y-73754683D01*
X142293718Y-73759458D01*
X142332286Y-73763921D01*
X142391356Y-73767775D01*
X142466663Y-73770722D01*
X142530286Y-73772143D01*
X142780657Y-73776114D01*
X142785556Y-73810759D01*
X142782131Y-73842268D01*
X142771041Y-73857708D01*
X142750308Y-73862023D01*
X142706145Y-73865708D01*
X142644146Y-73868469D01*
X142569909Y-73870012D01*
X142531706Y-73870235D01*
X142311783Y-73870457D01*
X142295849Y-73916166D01*
X142285015Y-73948518D01*
X142279962Y-73966115D01*
X142279914Y-73966623D01*
X142293648Y-73968388D01*
X142331730Y-73970329D01*
X142389482Y-73972282D01*
X142462227Y-73974084D01*
X142530286Y-73975343D01*
X142780657Y-73979314D01*
X142780657Y-74066400D01*
X142552240Y-74070396D01*
X142323822Y-74074392D01*
X142301868Y-74116847D01*
X142286793Y-74148192D01*
X142279951Y-74166744D01*
X142279914Y-74167279D01*
X142293663Y-74169833D01*
G36*
X142291335Y-74534876D02*
G01*
X142310344Y-74576667D01*
X142333378Y-74609469D01*
X142359133Y-74633503D01*
X142392358Y-74650097D01*
X142437800Y-74660577D01*
X142500207Y-74666271D01*
X142584327Y-74668507D01*
X142639721Y-74668743D01*
X142855826Y-74668743D01*
X142872670Y-74631774D01*
X142884981Y-74602656D01*
X142889514Y-74588231D01*
X142876025Y-74585472D01*
X142839653Y-74583282D01*
X142786542Y-74581942D01*
X142744372Y-74581657D01*
X142683447Y-74580434D01*
X142635115Y-74577136D01*
X142605518Y-74572321D01*
X142599229Y-74568496D01*
X142605652Y-74542783D01*
X142622125Y-74502418D01*
X142644458Y-74455679D01*
X142668457Y-74410845D01*
X142689930Y-74376193D01*
X142704685Y-74360002D01*
X142704845Y-74359938D01*
X142732152Y-74361330D01*
X142758219Y-74373818D01*
X142779392Y-74395743D01*
X142786474Y-74427743D01*
X142785649Y-74455092D01*
X142785042Y-74493826D01*
X142794116Y-74514158D01*
X142818092Y-74526369D01*
X142822613Y-74527909D01*
X142856806Y-74533203D01*
X142877568Y-74519047D01*
X142887462Y-74482148D01*
X142889292Y-74442289D01*
X142875727Y-74370562D01*
X142856355Y-74333432D01*
X142810845Y-74287576D01*
X142754983Y-74263256D01*
X142695957Y-74261073D01*
X142640953Y-74281629D01*
X142606486Y-74312549D01*
X142587189Y-74343420D01*
X142562759Y-74391942D01*
X142537985Y-74448485D01*
X142534199Y-74457910D01*
X142506791Y-74520019D01*
X142482634Y-74555822D01*
X142458619Y-74567337D01*
X142431635Y-74556580D01*
X142410543Y-74538114D01*
X142384572Y-74494469D01*
X142382624Y-74446446D01*
X142402637Y-74402406D01*
X142442551Y-74370709D01*
X142452848Y-74366549D01*
X142490724Y-74342327D01*
X142518842Y-74306965D01*
X142541917Y-74262343D01*
X142476485Y-74262343D01*
X142436506Y-74264969D01*
X142404997Y-74276230D01*
X142371378Y-74301199D01*
X142345484Y-74325169D01*
X142308817Y-74362441D01*
X142289121Y-74391401D01*
X142281220Y-74422505D01*
X142279914Y-74457713D01*
X142291335Y-74534876D01*
G37*
X142291335Y-74534876D02*
X142310344Y-74576667D01*
X142333378Y-74609469D01*
X142359133Y-74633503D01*
X142392358Y-74650097D01*
X142437800Y-74660577D01*
X142500207Y-74666271D01*
X142584327Y-74668507D01*
X142639721Y-74668743D01*
X142855826Y-74668743D01*
X142872670Y-74631774D01*
X142884981Y-74602656D01*
X142889514Y-74588231D01*
X142876025Y-74585472D01*
X142839653Y-74583282D01*
X142786542Y-74581942D01*
X142744372Y-74581657D01*
X142683447Y-74580434D01*
X142635115Y-74577136D01*
X142605518Y-74572321D01*
X142599229Y-74568496D01*
X142605652Y-74542783D01*
X142622125Y-74502418D01*
X142644458Y-74455679D01*
X142668457Y-74410845D01*
X142689930Y-74376193D01*
X142704685Y-74360002D01*
X142704845Y-74359938D01*
X142732152Y-74361330D01*
X142758219Y-74373818D01*
X142779392Y-74395743D01*
X142786474Y-74427743D01*
X142785649Y-74455092D01*
X142785042Y-74493826D01*
X142794116Y-74514158D01*
X142818092Y-74526369D01*
X142822613Y-74527909D01*
X142856806Y-74533203D01*
X142877568Y-74519047D01*
X142887462Y-74482148D01*
X142889292Y-74442289D01*
X142875727Y-74370562D01*
X142856355Y-74333432D01*
X142810845Y-74287576D01*
X142754983Y-74263256D01*
X142695957Y-74261073D01*
X142640953Y-74281629D01*
X142606486Y-74312549D01*
X142587189Y-74343420D01*
X142562759Y-74391942D01*
X142537985Y-74448485D01*
X142534199Y-74457910D01*
X142506791Y-74520019D01*
X142482634Y-74555822D01*
X142458619Y-74567337D01*
X142431635Y-74556580D01*
X142410543Y-74538114D01*
X142384572Y-74494469D01*
X142382624Y-74446446D01*
X142402637Y-74402406D01*
X142442551Y-74370709D01*
X142452848Y-74366549D01*
X142490724Y-74342327D01*
X142518842Y-74306965D01*
X142541917Y-74262343D01*
X142476485Y-74262343D01*
X142436506Y-74264969D01*
X142404997Y-74276230D01*
X142371378Y-74301199D01*
X142345484Y-74325169D01*
X142308817Y-74362441D01*
X142289121Y-74391401D01*
X142281220Y-74422505D01*
X142279914Y-74457713D01*
X142291335Y-74534876D01*
G36*
X137577348Y-72493910D02*
G01*
X137577778Y-72572454D01*
X137578942Y-72629298D01*
X137581207Y-72668105D01*
X137584940Y-72692538D01*
X137590506Y-72706262D01*
X137598273Y-72712940D01*
X137608605Y-72716236D01*
X137609943Y-72716556D01*
X137634079Y-72721562D01*
X137681701Y-72730829D01*
X137747741Y-72743392D01*
X137827128Y-72758287D01*
X137914796Y-72774551D01*
X137917875Y-72775119D01*
X138003789Y-72791410D01*
X138079696Y-72806652D01*
X138141045Y-72819861D01*
X138183282Y-72830054D01*
X138201855Y-72836248D01*
X138202184Y-72836543D01*
X138211253Y-72854788D01*
X138226367Y-72892405D01*
X138244262Y-72941271D01*
X138244358Y-72941543D01*
X138267493Y-73003093D01*
X138296965Y-73075657D01*
X138326597Y-73144057D01*
X138328062Y-73147294D01*
X138378626Y-73258702D01*
X138210160Y-73505399D01*
X138158803Y-73581077D01*
X138112889Y-73649631D01*
X138075030Y-73707088D01*
X138047837Y-73749476D01*
X138033921Y-73772825D01*
X138032889Y-73775042D01*
X138037484Y-73792010D01*
X138059655Y-73823701D01*
X138100447Y-73871352D01*
X138160905Y-73936198D01*
X138225227Y-74002397D01*
X138288612Y-74066214D01*
X138346451Y-74123329D01*
X138395175Y-74170305D01*
X138431210Y-74203703D01*
X138450984Y-74220085D01*
X138452002Y-74220694D01*
X138465572Y-74222505D01*
X138487733Y-74215683D01*
X138521478Y-74198540D01*
X138569800Y-74169393D01*
X138635692Y-74126555D01*
X138720517Y-74069448D01*
X138795177Y-74018766D01*
X138862140Y-73973461D01*
X138917516Y-73936150D01*
X138957420Y-73909452D01*
X138977962Y-73895985D01*
X138979356Y-73895137D01*
X138999038Y-73896781D01*
X139037293Y-73909245D01*
X139086889Y-73930048D01*
X139102728Y-73937462D01*
X139173290Y-73969814D01*
X139253353Y-74004328D01*
X139322629Y-74032365D01*
X139374045Y-74052568D01*
X139413119Y-74068615D01*
X139433541Y-74077888D01*
X139435114Y-74079041D01*
X139437721Y-74096096D01*
X139444863Y-74136298D01*
X139455523Y-74194302D01*
X139468685Y-74264763D01*
X139483333Y-74342335D01*
X139498449Y-74421672D01*
X139513018Y-74497431D01*
X139526022Y-74564264D01*
X139536445Y-74616828D01*
X139543270Y-74649776D01*
X139545199Y-74657857D01*
X139549962Y-74666205D01*
X139560718Y-74672506D01*
X139581098Y-74677045D01*
X139614734Y-74680104D01*
X139665255Y-74681967D01*
X139736292Y-74682918D01*
X139831476Y-74683240D01*
X139870492Y-74683257D01*
X140187799Y-74683257D01*
X140202839Y-74607057D01*
X140210995Y-74564663D01*
X140222899Y-74501400D01*
X140237116Y-74424962D01*
X140252210Y-74343043D01*
X140256355Y-74320400D01*
X140271053Y-74244806D01*
X140285505Y-74178953D01*
X140298375Y-74128366D01*
X140308322Y-74098574D01*
X140311287Y-74093612D01*
X140332283Y-74081426D01*
X140372967Y-74063953D01*
X140425322Y-74044577D01*
X140436600Y-74040734D01*
X140506523Y-74015339D01*
X140585418Y-73983817D01*
X140656266Y-73952969D01*
X140656595Y-73952817D01*
X140767733Y-73901447D01*
X141016253Y-74070399D01*
X141264772Y-74239352D01*
X141482058Y-74022429D01*
X141546726Y-73956819D01*
X141603733Y-73896979D01*
X141650033Y-73846267D01*
X141682584Y-73808046D01*
X141698343Y-73785675D01*
X141699343Y-73782466D01*
X141691469Y-73763626D01*
X141669578Y-73725180D01*
X141636267Y-73671330D01*
X141594131Y-73606276D01*
X141546943Y-73535940D01*
X141498810Y-73464555D01*
X141456928Y-73400908D01*
X141423871Y-73349041D01*
X141402218Y-73312995D01*
X141394543Y-73296867D01*
X141401037Y-73277189D01*
X141418150Y-73239875D01*
X141442326Y-73192621D01*
X141445013Y-73187612D01*
X141476927Y-73123977D01*
X141492579Y-73080341D01*
X141492745Y-73053202D01*
X141478204Y-73039057D01*
X141478000Y-73038975D01*
X141460779Y-73031905D01*
X141419899Y-73015042D01*
X141358525Y-72989695D01*
X141279819Y-72957171D01*
X141186947Y-72918778D01*
X141083072Y-72875822D01*
X140982502Y-72834222D01*
X140871516Y-72788504D01*
X140768703Y-72746526D01*
X140677215Y-72709548D01*
X140600201Y-72678827D01*
X140540815Y-72655622D01*
X140502209Y-72641190D01*
X140487800Y-72636743D01*
X140471272Y-72647896D01*
X140444930Y-72677069D01*
X140415887Y-72715971D01*
X140324039Y-72826757D01*
X140218759Y-72913351D01*
X140102266Y-72974716D01*
X139976776Y-73009815D01*
X139844507Y-73017608D01*
X139783457Y-73011943D01*
X139656795Y-72981078D01*
X139544941Y-72927920D01*
X139449001Y-72855767D01*
X139370076Y-72767917D01*
X139309270Y-72667665D01*
X139267687Y-72558310D01*
X139246428Y-72443147D01*
X139246599Y-72325475D01*
X139269301Y-72208590D01*
X139315638Y-72095789D01*
X139386713Y-71990369D01*
X139426911Y-71946368D01*
X139530129Y-71861979D01*
X139642925Y-71803222D01*
X139762010Y-71769704D01*
X139884095Y-71761035D01*
X140005893Y-71776823D01*
X140124116Y-71816678D01*
X140235475Y-71880207D01*
X140336684Y-71967021D01*
X140415887Y-72064029D01*
X140446162Y-72104437D01*
X140472219Y-72132982D01*
X140487825Y-72143257D01*
X140504843Y-72137877D01*
X140545500Y-72122575D01*
X140606642Y-72098612D01*
X140685119Y-72067244D01*
X140777780Y-72029732D01*
X140881472Y-71987333D01*
X140982526Y-71945663D01*
X141093607Y-71899690D01*
X141196541Y-71857107D01*
X141288165Y-71819221D01*
X141365316Y-71787340D01*
X141424831Y-71762771D01*
X141463544Y-71746820D01*
X141478000Y-71740910D01*
X141492685Y-71726948D01*
X141492642Y-71699940D01*
X141477099Y-71656413D01*
X141445284Y-71592890D01*
X141445013Y-71592388D01*
X141420323Y-71544560D01*
X141402338Y-71505897D01*
X141394614Y-71484095D01*
X141394543Y-71483133D01*
X141402378Y-71466721D01*
X141424165Y-71430487D01*
X141457328Y-71378474D01*
X141499291Y-71314725D01*
X141546943Y-71244060D01*
X141595191Y-71172116D01*
X141637151Y-71107274D01*
X141670227Y-71053735D01*
X141691821Y-71015697D01*
X141699343Y-70997533D01*
X141689457Y-70980808D01*
X141661826Y-70947180D01*
X141619495Y-70900010D01*
X141565505Y-70842658D01*
X141502899Y-70778484D01*
X141481983Y-70757497D01*
X141264623Y-70540499D01*
X141022220Y-70705668D01*
X140947781Y-70755864D01*
X140880972Y-70799919D01*
X140825665Y-70835362D01*
X140785729Y-70859719D01*
X140765036Y-70870522D01*
X140763563Y-70870838D01*
X140744058Y-70865143D01*
X140704822Y-70849826D01*
X140652430Y-70827537D01*
X140617355Y-70811893D01*
X140550201Y-70782641D01*
X140482358Y-70755094D01*
X140425034Y-70733737D01*
X140407572Y-70727935D01*
X140360938Y-70711452D01*
X140324905Y-70695340D01*
X140311287Y-70686490D01*
X140302952Y-70666960D01*
X140291137Y-70624334D01*
X140277181Y-70564145D01*
X140262422Y-70491922D01*
X140256355Y-70459600D01*
X140241273Y-70377522D01*
X140226669Y-70298795D01*
X140213980Y-70231109D01*
X140204642Y-70182160D01*
X140202839Y-70172943D01*
X140187799Y-70096743D01*
X139870492Y-70096743D01*
X139766154Y-70096914D01*
X139687213Y-70097616D01*
X139630038Y-70099134D01*
X139590999Y-70101749D01*
X139566465Y-70105746D01*
X139552805Y-70111409D01*
X139546389Y-70119020D01*
X139545199Y-70122143D01*
X139540980Y-70140978D01*
X139532562Y-70182588D01*
X139520961Y-70241630D01*
X139507195Y-70312757D01*
X139492280Y-70390625D01*
X139477232Y-70469887D01*
X139463069Y-70545198D01*
X139450806Y-70611213D01*
X139441461Y-70662587D01*
X139436050Y-70693975D01*
X139435114Y-70700959D01*
X139422596Y-70707285D01*
X139389246Y-70721290D01*
X139341377Y-70740355D01*
X139322629Y-70747634D01*
X139250195Y-70776996D01*
X139170170Y-70811571D01*
X139102728Y-70842537D01*
X139051159Y-70865323D01*
X139008785Y-70880482D01*
X138982834Y-70885542D01*
X138979356Y-70884736D01*
X138962936Y-70874041D01*
X138926417Y-70849620D01*
X138873687Y-70814095D01*
X138808635Y-70770087D01*
X138735151Y-70720217D01*
X138720645Y-70710356D01*
X138634704Y-70652492D01*
X138569261Y-70609956D01*
X138521304Y-70581054D01*
X138487820Y-70564090D01*
X138465795Y-70557367D01*
X138452217Y-70559190D01*
X138452131Y-70559236D01*
X138434297Y-70573586D01*
X138399817Y-70605323D01*
X138352268Y-70651010D01*
X138295222Y-70707204D01*
X138232255Y-70770468D01*
X138225227Y-70777602D01*
X138148020Y-70857330D01*
X138091330Y-70918857D01*
X138054110Y-70963421D01*
X138035315Y-70992257D01*
X138032889Y-71004958D01*
X138043471Y-71023494D01*
X138067916Y-71061961D01*
X138103612Y-71116386D01*
X138147947Y-71182798D01*
X138198311Y-71257225D01*
X138210160Y-71274601D01*
X138378626Y-71521297D01*
X138328062Y-71632706D01*
X138298595Y-71700457D01*
X138268959Y-71773183D01*
X138245330Y-71835703D01*
X138244358Y-71838457D01*
X138226457Y-71887360D01*
X138211320Y-71925057D01*
X138202210Y-71943425D01*
X138202184Y-71943456D01*
X138185717Y-71949285D01*
X138145219Y-71959192D01*
X138085242Y-71972195D01*
X138010340Y-71987309D01*
X137925064Y-72003552D01*
X137917875Y-72004881D01*
X137830014Y-72021175D01*
X137750260Y-72036133D01*
X137683681Y-72048791D01*
X137635347Y-72058186D01*
X137610325Y-72063354D01*
X137609943Y-72063444D01*
X137599299Y-72066589D01*
X137591262Y-72072704D01*
X137585467Y-72085453D01*
X137581547Y-72108500D01*
X137579135Y-72145509D01*
X137577865Y-72200144D01*
X137577371Y-72276067D01*
X137577286Y-72376944D01*
X137577286Y-72390000D01*
X137577348Y-72493910D01*
G37*
X137577348Y-72493910D02*
X137577778Y-72572454D01*
X137578942Y-72629298D01*
X137581207Y-72668105D01*
X137584940Y-72692538D01*
X137590506Y-72706262D01*
X137598273Y-72712940D01*
X137608605Y-72716236D01*
X137609943Y-72716556D01*
X137634079Y-72721562D01*
X137681701Y-72730829D01*
X137747741Y-72743392D01*
X137827128Y-72758287D01*
X137914796Y-72774551D01*
X137917875Y-72775119D01*
X138003789Y-72791410D01*
X138079696Y-72806652D01*
X138141045Y-72819861D01*
X138183282Y-72830054D01*
X138201855Y-72836248D01*
X138202184Y-72836543D01*
X138211253Y-72854788D01*
X138226367Y-72892405D01*
X138244262Y-72941271D01*
X138244358Y-72941543D01*
X138267493Y-73003093D01*
X138296965Y-73075657D01*
X138326597Y-73144057D01*
X138328062Y-73147294D01*
X138378626Y-73258702D01*
X138210160Y-73505399D01*
X138158803Y-73581077D01*
X138112889Y-73649631D01*
X138075030Y-73707088D01*
X138047837Y-73749476D01*
X138033921Y-73772825D01*
X138032889Y-73775042D01*
X138037484Y-73792010D01*
X138059655Y-73823701D01*
X138100447Y-73871352D01*
X138160905Y-73936198D01*
X138225227Y-74002397D01*
X138288612Y-74066214D01*
X138346451Y-74123329D01*
X138395175Y-74170305D01*
X138431210Y-74203703D01*
X138450984Y-74220085D01*
X138452002Y-74220694D01*
X138465572Y-74222505D01*
X138487733Y-74215683D01*
X138521478Y-74198540D01*
X138569800Y-74169393D01*
X138635692Y-74126555D01*
X138720517Y-74069448D01*
X138795177Y-74018766D01*
X138862140Y-73973461D01*
X138917516Y-73936150D01*
X138957420Y-73909452D01*
X138977962Y-73895985D01*
X138979356Y-73895137D01*
X138999038Y-73896781D01*
X139037293Y-73909245D01*
X139086889Y-73930048D01*
X139102728Y-73937462D01*
X139173290Y-73969814D01*
X139253353Y-74004328D01*
X139322629Y-74032365D01*
X139374045Y-74052568D01*
X139413119Y-74068615D01*
X139433541Y-74077888D01*
X139435114Y-74079041D01*
X139437721Y-74096096D01*
X139444863Y-74136298D01*
X139455523Y-74194302D01*
X139468685Y-74264763D01*
X139483333Y-74342335D01*
X139498449Y-74421672D01*
X139513018Y-74497431D01*
X139526022Y-74564264D01*
X139536445Y-74616828D01*
X139543270Y-74649776D01*
X139545199Y-74657857D01*
X139549962Y-74666205D01*
X139560718Y-74672506D01*
X139581098Y-74677045D01*
X139614734Y-74680104D01*
X139665255Y-74681967D01*
X139736292Y-74682918D01*
X139831476Y-74683240D01*
X139870492Y-74683257D01*
X140187799Y-74683257D01*
X140202839Y-74607057D01*
X140210995Y-74564663D01*
X140222899Y-74501400D01*
X140237116Y-74424962D01*
X140252210Y-74343043D01*
X140256355Y-74320400D01*
X140271053Y-74244806D01*
X140285505Y-74178953D01*
X140298375Y-74128366D01*
X140308322Y-74098574D01*
X140311287Y-74093612D01*
X140332283Y-74081426D01*
X140372967Y-74063953D01*
X140425322Y-74044577D01*
X140436600Y-74040734D01*
X140506523Y-74015339D01*
X140585418Y-73983817D01*
X140656266Y-73952969D01*
X140656595Y-73952817D01*
X140767733Y-73901447D01*
X141016253Y-74070399D01*
X141264772Y-74239352D01*
X141482058Y-74022429D01*
X141546726Y-73956819D01*
X141603733Y-73896979D01*
X141650033Y-73846267D01*
X141682584Y-73808046D01*
X141698343Y-73785675D01*
X141699343Y-73782466D01*
X141691469Y-73763626D01*
X141669578Y-73725180D01*
X141636267Y-73671330D01*
X141594131Y-73606276D01*
X141546943Y-73535940D01*
X141498810Y-73464555D01*
X141456928Y-73400908D01*
X141423871Y-73349041D01*
X141402218Y-73312995D01*
X141394543Y-73296867D01*
X141401037Y-73277189D01*
X141418150Y-73239875D01*
X141442326Y-73192621D01*
X141445013Y-73187612D01*
X141476927Y-73123977D01*
X141492579Y-73080341D01*
X141492745Y-73053202D01*
X141478204Y-73039057D01*
X141478000Y-73038975D01*
X141460779Y-73031905D01*
X141419899Y-73015042D01*
X141358525Y-72989695D01*
X141279819Y-72957171D01*
X141186947Y-72918778D01*
X141083072Y-72875822D01*
X140982502Y-72834222D01*
X140871516Y-72788504D01*
X140768703Y-72746526D01*
X140677215Y-72709548D01*
X140600201Y-72678827D01*
X140540815Y-72655622D01*
X140502209Y-72641190D01*
X140487800Y-72636743D01*
X140471272Y-72647896D01*
X140444930Y-72677069D01*
X140415887Y-72715971D01*
X140324039Y-72826757D01*
X140218759Y-72913351D01*
X140102266Y-72974716D01*
X139976776Y-73009815D01*
X139844507Y-73017608D01*
X139783457Y-73011943D01*
X139656795Y-72981078D01*
X139544941Y-72927920D01*
X139449001Y-72855767D01*
X139370076Y-72767917D01*
X139309270Y-72667665D01*
X139267687Y-72558310D01*
X139246428Y-72443147D01*
X139246599Y-72325475D01*
X139269301Y-72208590D01*
X139315638Y-72095789D01*
X139386713Y-71990369D01*
X139426911Y-71946368D01*
X139530129Y-71861979D01*
X139642925Y-71803222D01*
X139762010Y-71769704D01*
X139884095Y-71761035D01*
X140005893Y-71776823D01*
X140124116Y-71816678D01*
X140235475Y-71880207D01*
X140336684Y-71967021D01*
X140415887Y-72064029D01*
X140446162Y-72104437D01*
X140472219Y-72132982D01*
X140487825Y-72143257D01*
X140504843Y-72137877D01*
X140545500Y-72122575D01*
X140606642Y-72098612D01*
X140685119Y-72067244D01*
X140777780Y-72029732D01*
X140881472Y-71987333D01*
X140982526Y-71945663D01*
X141093607Y-71899690D01*
X141196541Y-71857107D01*
X141288165Y-71819221D01*
X141365316Y-71787340D01*
X141424831Y-71762771D01*
X141463544Y-71746820D01*
X141478000Y-71740910D01*
X141492685Y-71726948D01*
X141492642Y-71699940D01*
X141477099Y-71656413D01*
X141445284Y-71592890D01*
X141445013Y-71592388D01*
X141420323Y-71544560D01*
X141402338Y-71505897D01*
X141394614Y-71484095D01*
X141394543Y-71483133D01*
X141402378Y-71466721D01*
X141424165Y-71430487D01*
X141457328Y-71378474D01*
X141499291Y-71314725D01*
X141546943Y-71244060D01*
X141595191Y-71172116D01*
X141637151Y-71107274D01*
X141670227Y-71053735D01*
X141691821Y-71015697D01*
X141699343Y-70997533D01*
X141689457Y-70980808D01*
X141661826Y-70947180D01*
X141619495Y-70900010D01*
X141565505Y-70842658D01*
X141502899Y-70778484D01*
X141481983Y-70757497D01*
X141264623Y-70540499D01*
X141022220Y-70705668D01*
X140947781Y-70755864D01*
X140880972Y-70799919D01*
X140825665Y-70835362D01*
X140785729Y-70859719D01*
X140765036Y-70870522D01*
X140763563Y-70870838D01*
X140744058Y-70865143D01*
X140704822Y-70849826D01*
X140652430Y-70827537D01*
X140617355Y-70811893D01*
X140550201Y-70782641D01*
X140482358Y-70755094D01*
X140425034Y-70733737D01*
X140407572Y-70727935D01*
X140360938Y-70711452D01*
X140324905Y-70695340D01*
X140311287Y-70686490D01*
X140302952Y-70666960D01*
X140291137Y-70624334D01*
X140277181Y-70564145D01*
X140262422Y-70491922D01*
X140256355Y-70459600D01*
X140241273Y-70377522D01*
X140226669Y-70298795D01*
X140213980Y-70231109D01*
X140204642Y-70182160D01*
X140202839Y-70172943D01*
X140187799Y-70096743D01*
X139870492Y-70096743D01*
X139766154Y-70096914D01*
X139687213Y-70097616D01*
X139630038Y-70099134D01*
X139590999Y-70101749D01*
X139566465Y-70105746D01*
X139552805Y-70111409D01*
X139546389Y-70119020D01*
X139545199Y-70122143D01*
X139540980Y-70140978D01*
X139532562Y-70182588D01*
X139520961Y-70241630D01*
X139507195Y-70312757D01*
X139492280Y-70390625D01*
X139477232Y-70469887D01*
X139463069Y-70545198D01*
X139450806Y-70611213D01*
X139441461Y-70662587D01*
X139436050Y-70693975D01*
X139435114Y-70700959D01*
X139422596Y-70707285D01*
X139389246Y-70721290D01*
X139341377Y-70740355D01*
X139322629Y-70747634D01*
X139250195Y-70776996D01*
X139170170Y-70811571D01*
X139102728Y-70842537D01*
X139051159Y-70865323D01*
X139008785Y-70880482D01*
X138982834Y-70885542D01*
X138979356Y-70884736D01*
X138962936Y-70874041D01*
X138926417Y-70849620D01*
X138873687Y-70814095D01*
X138808635Y-70770087D01*
X138735151Y-70720217D01*
X138720645Y-70710356D01*
X138634704Y-70652492D01*
X138569261Y-70609956D01*
X138521304Y-70581054D01*
X138487820Y-70564090D01*
X138465795Y-70557367D01*
X138452217Y-70559190D01*
X138452131Y-70559236D01*
X138434297Y-70573586D01*
X138399817Y-70605323D01*
X138352268Y-70651010D01*
X138295222Y-70707204D01*
X138232255Y-70770468D01*
X138225227Y-70777602D01*
X138148020Y-70857330D01*
X138091330Y-70918857D01*
X138054110Y-70963421D01*
X138035315Y-70992257D01*
X138032889Y-71004958D01*
X138043471Y-71023494D01*
X138067916Y-71061961D01*
X138103612Y-71116386D01*
X138147947Y-71182798D01*
X138198311Y-71257225D01*
X138210160Y-71274601D01*
X138378626Y-71521297D01*
X138328062Y-71632706D01*
X138298595Y-71700457D01*
X138268959Y-71773183D01*
X138245330Y-71835703D01*
X138244358Y-71838457D01*
X138226457Y-71887360D01*
X138211320Y-71925057D01*
X138202210Y-71943425D01*
X138202184Y-71943456D01*
X138185717Y-71949285D01*
X138145219Y-71959192D01*
X138085242Y-71972195D01*
X138010340Y-71987309D01*
X137925064Y-72003552D01*
X137917875Y-72004881D01*
X137830014Y-72021175D01*
X137750260Y-72036133D01*
X137683681Y-72048791D01*
X137635347Y-72058186D01*
X137610325Y-72063354D01*
X137609943Y-72063444D01*
X137599299Y-72066589D01*
X137591262Y-72072704D01*
X137585467Y-72085453D01*
X137581547Y-72108500D01*
X137579135Y-72145509D01*
X137577865Y-72200144D01*
X137577371Y-72276067D01*
X137577286Y-72376944D01*
X137577286Y-72390000D01*
X137577348Y-72493910D01*
%TD*%
D11*
%TO.C,U1*%
X147320000Y-49530000D03*
X132080000Y-77470000D03*
X147320000Y-52070000D03*
X147320000Y-54610000D03*
X147320000Y-57150000D03*
X147320000Y-59690000D03*
X147320000Y-62230000D03*
X147320000Y-64770000D03*
X147320000Y-67310000D03*
X147320000Y-69850000D03*
X147320000Y-72390000D03*
X147320000Y-74930000D03*
X147320000Y-77470000D03*
X132080000Y-74930000D03*
X132080000Y-72390000D03*
X132080000Y-69850000D03*
X132080000Y-67310000D03*
X132080000Y-64770000D03*
X132080000Y-62230000D03*
X132080000Y-59690000D03*
X132080000Y-57150000D03*
X132080000Y-54610000D03*
X132080000Y-52070000D03*
D12*
X132080000Y-49530000D03*
%TD*%
D13*
%TO.C,J3*%
X127000000Y-49530000D03*
X124460000Y-49530000D03*
X121920000Y-49530000D03*
D14*
X119380000Y-49530000D03*
%TD*%
D15*
%TO.C,SW1*%
X152885000Y-50800000D03*
X152885000Y-46300000D03*
X159385000Y-50800000D03*
X159385000Y-46300000D03*
%TD*%
D16*
%TO.C,J2*%
X157480000Y-73660000D03*
X157480000Y-71120000D03*
X157480000Y-68580000D03*
X157480000Y-66040000D03*
X157480000Y-63500000D03*
X157480000Y-60960000D03*
X157480000Y-58420000D03*
X154940000Y-73660000D03*
X154940000Y-71120000D03*
X154940000Y-68580000D03*
X154940000Y-66040000D03*
X154940000Y-63500000D03*
X154940000Y-60960000D03*
G36*
G01*
X154090000Y-59020000D02*
X154090000Y-57820000D01*
G75*
G02*
X154340000Y-57570000I250000J0D01*
G01*
X155540000Y-57570000D01*
G75*
G02*
X155790000Y-57820000I0J-250000D01*
G01*
X155790000Y-59020000D01*
G75*
G02*
X155540000Y-59270000I-250000J0D01*
G01*
X154340000Y-59270000D01*
G75*
G02*
X154090000Y-59020000I0J250000D01*
G01*
G37*
%TD*%
%TO.C,J1*%
X124460000Y-73660000D03*
X124460000Y-71120000D03*
X124460000Y-68580000D03*
X124460000Y-66040000D03*
X124460000Y-63500000D03*
X124460000Y-60960000D03*
X124460000Y-58420000D03*
X121920000Y-73660000D03*
X121920000Y-71120000D03*
X121920000Y-68580000D03*
X121920000Y-66040000D03*
X121920000Y-63500000D03*
X121920000Y-60960000D03*
G36*
G01*
X121070000Y-59020000D02*
X121070000Y-57820000D01*
G75*
G02*
X121320000Y-57570000I250000J0D01*
G01*
X122520000Y-57570000D01*
G75*
G02*
X122770000Y-57820000I0J-250000D01*
G01*
X122770000Y-59020000D01*
G75*
G02*
X122520000Y-59270000I-250000J0D01*
G01*
X121320000Y-59270000D01*
G75*
G02*
X121070000Y-59020000I0J250000D01*
G01*
G37*
%TD*%
M02*
