%FSLAX45Y45*%
G04 Gerber Fmt 4.5, Leading zero omitted, Abs format (unit mm)*
G04 Created by KiCad (PCBNEW (6.0.1-0)) date 2022-02-06 14:25:32*
%MOMM*%
%LPD*%
G01*
G04 APERTURE LIST*
%TA.AperFunction,Profile*%
%ADD10C,0.120000*%
%TD*%
%ADD11C,0.200000*%
G04 APERTURE END LIST*
D10*
X16065500Y-8001000D02*
X11874500Y-8001000D01*
X11747500Y-7874000D02*
X11747500Y-4572000D01*
X16065500Y-8001000D02*
G75*
G03*
X16192500Y-7874000I0J127000D01*
G01*
X11874500Y-4445000D02*
G75*
G03*
X11747500Y-4572000I0J-127000D01*
G01*
X11874500Y-4445000D02*
X16065500Y-4445000D01*
X16192500Y-4572000D02*
G75*
G03*
X16065500Y-4445000I-127000J0D01*
G01*
X11747500Y-7874000D02*
G75*
G03*
X11874500Y-8001000I127000J0D01*
G01*
X16192500Y-4572000D02*
X16192500Y-7874000D01*
D11*
X11999119Y-8317476D02*
X11999119Y-8117476D01*
X12046738Y-8117476D01*
X12075309Y-8127000D01*
X12094357Y-8146048D01*
X12103881Y-8165095D01*
X12113405Y-8203190D01*
X12113405Y-8231762D01*
X12103881Y-8269857D01*
X12094357Y-8288905D01*
X12075309Y-8307952D01*
X12046738Y-8317476D01*
X11999119Y-8317476D01*
X12199119Y-8317476D02*
X12199119Y-8184143D01*
X12199119Y-8222238D02*
X12208643Y-8203190D01*
X12218167Y-8193667D01*
X12237214Y-8184143D01*
X12256262Y-8184143D01*
X12322928Y-8317476D02*
X12322928Y-8184143D01*
X12322928Y-8117476D02*
X12313405Y-8127000D01*
X12322928Y-8136524D01*
X12332452Y-8127000D01*
X12322928Y-8117476D01*
X12322928Y-8136524D01*
X12446738Y-8317476D02*
X12427690Y-8307952D01*
X12418167Y-8288905D01*
X12418167Y-8117476D01*
X12551500Y-8317476D02*
X12532452Y-8307952D01*
X12522928Y-8288905D01*
X12522928Y-8117476D01*
X12780071Y-8317476D02*
X12780071Y-8117476D01*
X12846738Y-8260333D01*
X12913405Y-8117476D01*
X12913405Y-8317476D01*
X13094357Y-8317476D02*
X13094357Y-8212714D01*
X13084833Y-8193667D01*
X13065786Y-8184143D01*
X13027690Y-8184143D01*
X13008643Y-8193667D01*
X13094357Y-8307952D02*
X13075309Y-8317476D01*
X13027690Y-8317476D01*
X13008643Y-8307952D01*
X12999119Y-8288905D01*
X12999119Y-8269857D01*
X13008643Y-8250809D01*
X13027690Y-8241286D01*
X13075309Y-8241286D01*
X13094357Y-8231762D01*
X13189595Y-8184143D02*
X13189595Y-8384143D01*
X13189595Y-8193667D02*
X13208643Y-8184143D01*
X13246738Y-8184143D01*
X13265786Y-8193667D01*
X13275309Y-8203190D01*
X13284833Y-8222238D01*
X13284833Y-8279381D01*
X13275309Y-8298428D01*
X13265786Y-8307952D01*
X13246738Y-8317476D01*
X13208643Y-8317476D01*
X13189595Y-8307952D01*
X13370548Y-8298428D02*
X13380071Y-8307952D01*
X13370548Y-8317476D01*
X13361024Y-8307952D01*
X13370548Y-8298428D01*
X13370548Y-8317476D01*
X13370548Y-8193667D02*
X13380071Y-8203190D01*
X13370548Y-8212714D01*
X13361024Y-8203190D01*
X13370548Y-8193667D01*
X13370548Y-8212714D01*
M02*
