%TF.GenerationSoftware,KiCad,Pcbnew,(6.0.4-0)*%
%TF.CreationDate,2022-03-28T14:39:52+08:00*%
%TF.ProjectId,Pragmatic,50726167-6d61-4746-9963-2e6b69636164,3*%
%TF.SameCoordinates,PX6486dd0PY3680a30*%
%TF.FileFunction,Profile,NP*%
%FSLAX46Y46*%
G04 Gerber Fmt 4.6, Leading zero omitted, Abs format (unit mm)*
G04 Created by KiCad (PCBNEW (6.0.4-0)) date 2022-03-28 14:39:52*
%MOMM*%
%LPD*%
G01*
G04 APERTURE LIST*
%TA.AperFunction,Profile*%
%ADD10C,0.120000*%
%TD*%
G04 APERTURE END LIST*
D10*
X26035000Y-62230000D02*
G75*
G03*
X23495000Y-59690000I-2540000J0D01*
G01*
X14605000Y2540000D02*
X28575000Y2540000D01*
X26035000Y-66675000D02*
G75*
G03*
X28575000Y-69215000I2540000J0D01*
G01*
X-12065000Y9525000D02*
X-12065000Y5080000D01*
X50165000Y-66675000D02*
X50165000Y-9525000D01*
X-52705000Y-54610000D02*
G75*
G03*
X-50165000Y-52070000I0J2540000D01*
G01*
X-14605000Y2540000D02*
G75*
G03*
X-12065000Y5080000I0J2540000D01*
G01*
X-57150000Y-54610000D02*
G75*
G03*
X-59690000Y-57150000I0J-2540000D01*
G01*
X-16510000Y-76200000D02*
X-16510000Y-62230000D01*
X28575000Y-69215000D02*
X47625000Y-69215000D01*
X-52705000Y-54610000D02*
X-57150000Y-54610000D01*
X12065000Y9525000D02*
X12065000Y5080000D01*
X31115000Y-4445000D02*
X31115000Y0D01*
X26035000Y-62230000D02*
X26035000Y-66675000D01*
X-57150000Y-78740000D02*
X-54610000Y-78740000D01*
X23495000Y-59690000D02*
X-13970000Y-59690000D01*
X50165000Y-9525000D02*
G75*
G03*
X47625000Y-6985000I-2540000J0D01*
G01*
X-9525000Y12065000D02*
G75*
G03*
X-12065000Y9525000I0J-2540000D01*
G01*
X47625000Y-69215000D02*
G75*
G03*
X50165000Y-66675000I0J2540000D01*
G01*
X-13970000Y-59690000D02*
G75*
G03*
X-16510000Y-62230000I0J-2540000D01*
G01*
X-47625000Y2540000D02*
G75*
G03*
X-50165000Y0I0J-2540000D01*
G01*
X31115000Y-4445000D02*
G75*
G03*
X33655000Y-6985000I2540000J0D01*
G01*
X-47625000Y2540000D02*
X-14605000Y2540000D01*
X-59690000Y-57150000D02*
X-59690000Y-59690000D01*
X-59690000Y-76200000D02*
G75*
G03*
X-57150000Y-78740000I2540000J0D01*
G01*
X-59690000Y-76200000D02*
X-59690000Y-59690000D01*
X9525000Y12065000D02*
X-9525000Y12065000D01*
X-19050000Y-78740000D02*
X-54610000Y-78740000D01*
X31115000Y0D02*
G75*
G03*
X28575000Y2540000I-2540000J0D01*
G01*
X12065000Y9525000D02*
G75*
G03*
X9525000Y12065000I-2540000J0D01*
G01*
X47625000Y-6985000D02*
X33655000Y-6985000D01*
X-19050000Y-78740000D02*
G75*
G03*
X-16510000Y-76200000I0J2540000D01*
G01*
X-50165000Y0D02*
X-50165000Y-52070000D01*
X12065000Y5080000D02*
G75*
G03*
X14605000Y2540000I2540000J0D01*
G01*
X31100000Y-25050000D02*
X31100000Y-13050000D01*
X45100000Y-25050000D02*
X45100000Y-13050000D01*
X44100000Y-12050000D02*
X32100000Y-12050000D01*
X44100000Y-26050000D02*
X32100000Y-26050000D01*
X45100000Y-13050000D02*
G75*
G03*
X44100000Y-12050000I-999999J1D01*
G01*
X44100000Y-26050000D02*
G75*
G03*
X45100000Y-25050000I1J999999D01*
G01*
X31100000Y-25050000D02*
G75*
G03*
X32100000Y-26050000I1000000J0D01*
G01*
X32100000Y-12050000D02*
G75*
G03*
X31100000Y-13050000I0J-1000000D01*
G01*
X44100000Y-31100000D02*
X32100000Y-31100000D01*
X44100000Y-45100000D02*
X32100000Y-45100000D01*
X45100000Y-44100000D02*
X45100000Y-32100000D01*
X31100000Y-44100000D02*
X31100000Y-32100000D01*
X32100000Y-31100000D02*
G75*
G03*
X31100000Y-32100000I0J-1000000D01*
G01*
X44100000Y-45100000D02*
G75*
G03*
X45100000Y-44100000I1J999999D01*
G01*
X45100000Y-32100000D02*
G75*
G03*
X44100000Y-31100000I-999999J1D01*
G01*
X31100000Y-44100000D02*
G75*
G03*
X32100000Y-45100000I1000000J0D01*
G01*
X26050000Y-34575000D02*
X26050000Y-22575000D01*
X25050000Y-21575000D02*
X13050000Y-21575000D01*
X12050000Y-34575000D02*
X12050000Y-22575000D01*
X25050000Y-35575000D02*
X13050000Y-35575000D01*
X12050000Y-34575000D02*
G75*
G03*
X13050000Y-35575000I1000000J0D01*
G01*
X13050000Y-21575000D02*
G75*
G03*
X12050000Y-22575000I0J-1000000D01*
G01*
X26050000Y-22575000D02*
G75*
G03*
X25050000Y-21575000I-999999J1D01*
G01*
X25050000Y-35575000D02*
G75*
G03*
X26050000Y-34575000I1J999999D01*
G01*
X26050000Y-15525000D02*
X26050000Y-3525000D01*
X25050000Y-2525000D02*
X13050000Y-2525000D01*
X25050000Y-16525000D02*
X13050000Y-16525000D01*
X12050000Y-15525000D02*
X12050000Y-3525000D01*
X26050000Y-3525000D02*
G75*
G03*
X25050000Y-2525000I-999999J1D01*
G01*
X12050000Y-15525000D02*
G75*
G03*
X13050000Y-16525000I1000000J0D01*
G01*
X25050000Y-16525000D02*
G75*
G03*
X26050000Y-15525000I1J999999D01*
G01*
X13050000Y-2525000D02*
G75*
G03*
X12050000Y-3525000I0J-1000000D01*
G01*
X6000000Y7000000D02*
X-6000000Y7000000D01*
X6000000Y-7000000D02*
X-6000000Y-7000000D01*
X7000000Y-6000000D02*
X7000000Y6000000D01*
X-7000000Y-6000000D02*
X-7000000Y6000000D01*
X-6000000Y7000000D02*
G75*
G03*
X-7000000Y6000000I0J-1000000D01*
G01*
X7000000Y6000000D02*
G75*
G03*
X6000000Y7000000I-999999J1D01*
G01*
X-7000000Y-6000000D02*
G75*
G03*
X-6000000Y-7000000I1000000J0D01*
G01*
X6000000Y-7000000D02*
G75*
G03*
X7000000Y-6000000I1J999999D01*
G01*
X-13050000Y-2525000D02*
X-25050000Y-2525000D01*
X-13050000Y-16525000D02*
X-25050000Y-16525000D01*
X-12050000Y-15525000D02*
X-12050000Y-3525000D01*
X-26050000Y-15525000D02*
X-26050000Y-3525000D01*
X-12050000Y-3525000D02*
G75*
G03*
X-13050000Y-2525000I-999999J1D01*
G01*
X-25050000Y-2525000D02*
G75*
G03*
X-26050000Y-3525000I0J-1000000D01*
G01*
X-13050000Y-16525000D02*
G75*
G03*
X-12050000Y-15525000I1J999999D01*
G01*
X-26050000Y-15525000D02*
G75*
G03*
X-25050000Y-16525000I1000000J0D01*
G01*
X-31100000Y-15525000D02*
X-31100000Y-3525000D01*
X-32100000Y-16525000D02*
X-44100000Y-16525000D01*
X-32100000Y-2525000D02*
X-44100000Y-2525000D01*
X-45100000Y-15525000D02*
X-45100000Y-3525000D01*
X-45100000Y-15525000D02*
G75*
G03*
X-44100000Y-16525000I1000000J0D01*
G01*
X-31100000Y-3525000D02*
G75*
G03*
X-32100000Y-2525000I-999999J1D01*
G01*
X-44100000Y-2525000D02*
G75*
G03*
X-45100000Y-3525000I0J-1000000D01*
G01*
X-32100000Y-16525000D02*
G75*
G03*
X-31100000Y-15525000I1J999999D01*
G01*
X-7000000Y-25050000D02*
X-7000000Y-13050000D01*
X6000000Y-26050000D02*
X-6000000Y-26050000D01*
X7000000Y-25050000D02*
X7000000Y-13050000D01*
X6000000Y-12050000D02*
X-6000000Y-12050000D01*
X6000000Y-26050000D02*
G75*
G03*
X7000000Y-25050000I1J999999D01*
G01*
X7000000Y-13050000D02*
G75*
G03*
X6000000Y-12050000I-999999J1D01*
G01*
X-6000000Y-12050000D02*
G75*
G03*
X-7000000Y-13050000I0J-1000000D01*
G01*
X-7000000Y-25050000D02*
G75*
G03*
X-6000000Y-26050000I1000000J0D01*
G01*
X-13050000Y-35575000D02*
X-25050000Y-35575000D01*
X-26050000Y-34575000D02*
X-26050000Y-22575000D01*
X-12050000Y-34575000D02*
X-12050000Y-22575000D01*
X-13050000Y-21575000D02*
X-25050000Y-21575000D01*
X-25050000Y-21575000D02*
G75*
G03*
X-26050000Y-22575000I0J-1000000D01*
G01*
X-13050000Y-35575000D02*
G75*
G03*
X-12050000Y-34575000I1J999999D01*
G01*
X-26050000Y-34575000D02*
G75*
G03*
X-25050000Y-35575000I1000000J0D01*
G01*
X-12050000Y-22575000D02*
G75*
G03*
X-13050000Y-21575000I-999999J1D01*
G01*
X-45100000Y-34575000D02*
X-45100000Y-22575000D01*
X-32100000Y-21575000D02*
X-44100000Y-21575000D01*
X-31100000Y-34575000D02*
X-31100000Y-22575000D01*
X-32100000Y-35575000D02*
X-44100000Y-35575000D01*
X-44100000Y-21575000D02*
G75*
G03*
X-45100000Y-22575000I0J-1000000D01*
G01*
X-31100000Y-22575000D02*
G75*
G03*
X-32100000Y-21575000I-999999J1D01*
G01*
X-32100000Y-35575000D02*
G75*
G03*
X-31100000Y-34575000I1J999999D01*
G01*
X-45100000Y-34575000D02*
G75*
G03*
X-44100000Y-35575000I1000000J0D01*
G01*
X44100000Y-64150000D02*
X32100000Y-64150000D01*
X45100000Y-63150000D02*
X45100000Y-51150000D01*
X31100000Y-63150000D02*
X31100000Y-51150000D01*
X44100000Y-50150000D02*
X32100000Y-50150000D01*
X32100000Y-50150000D02*
G75*
G03*
X31100000Y-51150000I0J-1000000D01*
G01*
X45100000Y-51150000D02*
G75*
G03*
X44100000Y-50150000I-999999J1D01*
G01*
X44100000Y-64150000D02*
G75*
G03*
X45100000Y-63150000I1J999999D01*
G01*
X31100000Y-63150000D02*
G75*
G03*
X32100000Y-64150000I1000000J0D01*
G01*
X26050000Y-53625000D02*
X26050000Y-41625000D01*
X25050000Y-54625000D02*
X13050000Y-54625000D01*
X25050000Y-40625000D02*
X13050000Y-40625000D01*
X12050000Y-53625000D02*
X12050000Y-41625000D01*
X25050000Y-54625000D02*
G75*
G03*
X26050000Y-53625000I1J999999D01*
G01*
X26050000Y-41625000D02*
G75*
G03*
X25050000Y-40625000I-999999J1D01*
G01*
X13050000Y-40625000D02*
G75*
G03*
X12050000Y-41625000I0J-1000000D01*
G01*
X12050000Y-53625000D02*
G75*
G03*
X13050000Y-54625000I1000000J0D01*
G01*
X6000000Y-45100000D02*
X-6000000Y-45100000D01*
X-7000000Y-44100000D02*
X-7000000Y-32100000D01*
X7000000Y-44100000D02*
X7000000Y-32100000D01*
X6000000Y-31100000D02*
X-6000000Y-31100000D01*
X-7000000Y-44100000D02*
G75*
G03*
X-6000000Y-45100000I1000000J0D01*
G01*
X6000000Y-45100000D02*
G75*
G03*
X7000000Y-44100000I1J999999D01*
G01*
X7000000Y-32100000D02*
G75*
G03*
X6000000Y-31100000I-999999J1D01*
G01*
X-6000000Y-31100000D02*
G75*
G03*
X-7000000Y-32100000I0J-1000000D01*
G01*
X-13050000Y-40625000D02*
X-25050000Y-40625000D01*
X-12050000Y-53625000D02*
X-12050000Y-41625000D01*
X-13050000Y-54625000D02*
X-25050000Y-54625000D01*
X-26050000Y-53625000D02*
X-26050000Y-41625000D01*
X-26050000Y-53625000D02*
G75*
G03*
X-25050000Y-54625000I1000000J0D01*
G01*
X-13050000Y-54625000D02*
G75*
G03*
X-12050000Y-53625000I1J999999D01*
G01*
X-12050000Y-41625000D02*
G75*
G03*
X-13050000Y-40625000I-999999J1D01*
G01*
X-25050000Y-40625000D02*
G75*
G03*
X-26050000Y-41625000I0J-1000000D01*
G01*
X-32100000Y-40625000D02*
X-44100000Y-40625000D01*
X-45100000Y-53625000D02*
X-45100000Y-41625000D01*
X-32100000Y-54625000D02*
X-44100000Y-54625000D01*
X-31100000Y-53625000D02*
X-31100000Y-41625000D01*
X-45100000Y-53625000D02*
G75*
G03*
X-44100000Y-54625000I1000000J0D01*
G01*
X-32100000Y-54625000D02*
G75*
G03*
X-31100000Y-53625000I1J999999D01*
G01*
X-44100000Y-40625000D02*
G75*
G03*
X-45100000Y-41625000I0J-1000000D01*
G01*
X-31100000Y-41625000D02*
G75*
G03*
X-32100000Y-40625000I-999999J1D01*
G01*
X-22575000Y-59675000D02*
X-34575000Y-59675000D01*
X-21575000Y-72675000D02*
X-21575000Y-60675000D01*
X-22575000Y-73675000D02*
X-34575000Y-73675000D01*
X-35575000Y-72675000D02*
X-35575000Y-60675000D01*
X-21575000Y-60675000D02*
G75*
G03*
X-22575000Y-59675000I-999999J1D01*
G01*
X-34575000Y-59675000D02*
G75*
G03*
X-35575000Y-60675000I0J-1000000D01*
G01*
X-22575000Y-73675000D02*
G75*
G03*
X-21575000Y-72675000I1J999999D01*
G01*
X-35575000Y-72675000D02*
G75*
G03*
X-34575000Y-73675000I1000000J0D01*
G01*
X-41625000Y-73675000D02*
X-53625000Y-73675000D01*
X-41625000Y-59675000D02*
X-53625000Y-59675000D01*
X-54625000Y-72675000D02*
X-54625000Y-60675000D01*
X-40625000Y-72675000D02*
X-40625000Y-60675000D01*
X-41625000Y-73675000D02*
G75*
G03*
X-40625000Y-72675000I1J999999D01*
G01*
X-54625000Y-72675000D02*
G75*
G03*
X-53625000Y-73675000I1000000J0D01*
G01*
X-53625000Y-59675000D02*
G75*
G03*
X-54625000Y-60675000I0J-1000000D01*
G01*
X-40625000Y-60675000D02*
G75*
G03*
X-41625000Y-59675000I-999999J1D01*
G01*
M02*
