%TF.GenerationSoftware,KiCad,Pcbnew,(6.0.4-0)*%
%TF.CreationDate,2022-03-28T14:39:52+08:00*%
%TF.ProjectId,Pragmatic,50726167-6d61-4746-9963-2e6b69636164,3*%
%TF.SameCoordinates,PX6486dd0PY3680a30*%
%TF.FileFunction,Soldermask,Top*%
%TF.FilePolarity,Negative*%
%FSLAX46Y46*%
G04 Gerber Fmt 4.6, Leading zero omitted, Abs format (unit mm)*
G04 Created by KiCad (PCBNEW (6.0.4-0)) date 2022-03-28 14:39:52*
%MOMM*%
%LPD*%
G01*
G04 APERTURE LIST*
%ADD10C,0.300000*%
%ADD11C,0.254000*%
%ADD12C,2.500000*%
G04 APERTURE END LIST*
D10*
X-7750000Y-52748571D02*
X-7750000Y-51248571D01*
X-6892858Y-51248571D01*
X-6892858Y-52748571D01*
X-6178572Y-51748571D02*
X-6178572Y-53248571D01*
X-6178572Y-51820000D02*
X-6035715Y-51748571D01*
X-5750000Y-51748571D01*
X-5607143Y-51820000D01*
X-5535715Y-51891428D01*
X-5464286Y-52034285D01*
X-5464286Y-52462857D01*
X-5535715Y-52605714D01*
X-5607143Y-52677142D01*
X-5750000Y-52748571D01*
X-6035715Y-52748571D01*
X-6178572Y-52677142D01*
X-4178572Y-52748571D02*
X-4178572Y-51962857D01*
X-4250000Y-51820000D01*
X-4392858Y-51748571D01*
X-4678572Y-51748571D01*
X-4821429Y-51820000D01*
X-4178572Y-52677142D02*
X-4321429Y-52748571D01*
X-4678572Y-52748571D01*
X-4821429Y-52677142D01*
X-4892858Y-52534285D01*
X-4892858Y-52391428D01*
X-4821429Y-52248571D01*
X-4678572Y-52177142D01*
X-4321429Y-52177142D01*
X-4178572Y-52105714D01*
X-3464286Y-52748571D02*
X-3464286Y-51748571D01*
X-2892858Y-51748571D01*
X-2392858Y-52748571D02*
X-2392858Y-51748571D01*
X-1964286Y-52534285D01*
X-1535715Y-51748571D01*
X-1535715Y-52748571D01*
X-178572Y-52748571D02*
X-178572Y-51962857D01*
X-250000Y-51820000D01*
X-392858Y-51748571D01*
X-678572Y-51748571D01*
X-821429Y-51820000D01*
X-178572Y-52677142D02*
X-321429Y-52748571D01*
X-678572Y-52748571D01*
X-821429Y-52677142D01*
X-892858Y-52534285D01*
X-892858Y-52391428D01*
X-821429Y-52248571D01*
X-678572Y-52177142D01*
X-321429Y-52177142D01*
X-178572Y-52105714D01*
X321428Y-51748571D02*
X1035714Y-51748571D01*
X678571Y-51748571D02*
X678571Y-52748571D01*
X1535714Y-51748571D02*
X1535714Y-52748571D01*
X2250000Y-51748571D01*
X2250000Y-52748571D01*
X3464285Y-51748571D02*
X3464285Y-52748571D01*
X2892857Y-51748571D02*
X2892857Y-52105714D01*
X2964285Y-52248571D01*
X3107142Y-52320000D01*
X3464285Y-52320000D01*
X4250000Y-52248571D02*
X4892857Y-52248571D01*
X4250000Y-51748571D02*
X4250000Y-52748571D01*
X4892857Y-51748571D02*
X4892857Y-52748571D01*
X5607142Y-51748571D02*
X5607142Y-52748571D01*
X6321428Y-51748571D01*
X6321428Y-52748571D01*
X7035714Y-51748571D02*
X7035714Y-52748571D01*
X7750000Y-51748571D01*
X7750000Y-52748571D01*
X7107142Y-51177142D02*
X7178571Y-51320000D01*
X7321428Y-51391428D01*
X7464285Y-51391428D01*
X7607142Y-51320000D01*
X7678571Y-51177142D01*
D11*
X30500000Y-13050000D02*
X30500000Y-25050000D01*
X32100000Y-26650000D02*
X44100000Y-26650000D01*
X45700000Y-13050000D02*
X45700000Y-25050000D01*
X44100000Y-11450000D02*
X32100000Y-11450000D01*
X32100001Y-11450001D02*
G75*
G03*
X30500001Y-13049999I-1J-1599999D01*
G01*
X30500001Y-25049999D02*
G75*
G03*
X32099999Y-26649999I1599999J-1D01*
G01*
X45700001Y-13050001D02*
G75*
G03*
X44100001Y-11450001I-1599993J7D01*
G01*
X44100000Y-26650000D02*
G75*
G03*
X45700000Y-25050000I1J1599999D01*
G01*
X30500000Y-32100000D02*
X30500000Y-44100000D01*
X45700000Y-32100000D02*
X45700000Y-44100000D01*
X44100000Y-30500000D02*
X32100000Y-30500000D01*
X32100000Y-45700000D02*
X44100000Y-45700000D01*
X32100001Y-30500001D02*
G75*
G03*
X30500001Y-32099999I-1J-1599999D01*
G01*
X45700001Y-32100001D02*
G75*
G03*
X44100001Y-30500001I-1599993J7D01*
G01*
X30500001Y-44099999D02*
G75*
G03*
X32099999Y-45699999I1599999J-1D01*
G01*
X44100000Y-45700000D02*
G75*
G03*
X45700000Y-44100000I1J1599999D01*
G01*
X11450000Y-22575000D02*
X11450000Y-34575000D01*
X25050000Y-20975000D02*
X13050000Y-20975000D01*
X13050000Y-36175000D02*
X25050000Y-36175000D01*
X26650000Y-22575000D02*
X26650000Y-34575000D01*
X25050000Y-36175000D02*
G75*
G03*
X26650000Y-34575000I1J1599999D01*
G01*
X13050001Y-20975001D02*
G75*
G03*
X11450001Y-22574999I-1J-1599999D01*
G01*
X26650001Y-22575001D02*
G75*
G03*
X25050001Y-20975001I-1599993J7D01*
G01*
X11450001Y-34574999D02*
G75*
G03*
X13049999Y-36174999I1599999J-1D01*
G01*
X13050000Y-17125000D02*
X25050000Y-17125000D01*
X11450000Y-3525000D02*
X11450000Y-15525000D01*
X25050000Y-1925000D02*
X13050000Y-1925000D01*
X26650000Y-3525000D02*
X26650000Y-15525000D01*
X26650001Y-3525001D02*
G75*
G03*
X25050001Y-1925001I-1599993J7D01*
G01*
X25050000Y-17125000D02*
G75*
G03*
X26650000Y-15525000I1J1599999D01*
G01*
X11450001Y-15524999D02*
G75*
G03*
X13049999Y-17124999I1599999J-1D01*
G01*
X13050001Y-1925001D02*
G75*
G03*
X11450001Y-3524999I-1J-1599999D01*
G01*
X7600000Y6000000D02*
X7600000Y-6000000D01*
X-7600000Y6000000D02*
X-7600000Y-6000000D01*
X-6000000Y-7600000D02*
X6000000Y-7600000D01*
X6000000Y7600000D02*
X-6000000Y7600000D01*
X7600001Y5999999D02*
G75*
G03*
X6000001Y7599999I-1599993J7D01*
G01*
X6000000Y-7600000D02*
G75*
G03*
X7600000Y-6000000I1J1599999D01*
G01*
X-5999999Y7599999D02*
G75*
G03*
X-7599999Y6000001I-1J-1599999D01*
G01*
X-7599999Y-5999999D02*
G75*
G03*
X-6000001Y-7599999I1599999J-1D01*
G01*
X-11450000Y-3525000D02*
X-11450000Y-15525000D01*
X-26650000Y-3525000D02*
X-26650000Y-15525000D01*
X-25050000Y-17125000D02*
X-13050000Y-17125000D01*
X-13050000Y-1925000D02*
X-25050000Y-1925000D01*
X-11449999Y-3525001D02*
G75*
G03*
X-13049999Y-1925001I-1599993J7D01*
G01*
X-26649999Y-15524999D02*
G75*
G03*
X-25050001Y-17124999I1599999J-1D01*
G01*
X-13050000Y-17125000D02*
G75*
G03*
X-11450000Y-15525000I1J1599999D01*
G01*
X-25049999Y-1925001D02*
G75*
G03*
X-26649999Y-3524999I-1J-1599999D01*
G01*
X-45700000Y-3525000D02*
X-45700000Y-15525000D01*
X-32100000Y-1925000D02*
X-44100000Y-1925000D01*
X-30500000Y-3525000D02*
X-30500000Y-15525000D01*
X-44100000Y-17125000D02*
X-32100000Y-17125000D01*
X-44099999Y-1925001D02*
G75*
G03*
X-45699999Y-3524999I-1J-1599999D01*
G01*
X-45699999Y-15524999D02*
G75*
G03*
X-44100001Y-17124999I1599999J-1D01*
G01*
X-32100000Y-17125000D02*
G75*
G03*
X-30500000Y-15525000I1J1599999D01*
G01*
X-30499999Y-3525001D02*
G75*
G03*
X-32099999Y-1925001I-1599993J7D01*
G01*
X7600000Y-13050000D02*
X7600000Y-25050000D01*
X-7600000Y-13050000D02*
X-7600000Y-25050000D01*
X-6000000Y-26650000D02*
X6000000Y-26650000D01*
X6000000Y-11450000D02*
X-6000000Y-11450000D01*
X7600001Y-13050001D02*
G75*
G03*
X6000001Y-11450001I-1599993J7D01*
G01*
X6000000Y-26650000D02*
G75*
G03*
X7600000Y-25050000I1J1599999D01*
G01*
X-7599999Y-25049999D02*
G75*
G03*
X-6000001Y-26649999I1599999J-1D01*
G01*
X-5999999Y-11450001D02*
G75*
G03*
X-7599999Y-13049999I-1J-1599999D01*
G01*
X-11450000Y-22575000D02*
X-11450000Y-34575000D01*
X-25050000Y-36175000D02*
X-13050000Y-36175000D01*
X-13050000Y-20975000D02*
X-25050000Y-20975000D01*
X-26650000Y-22575000D02*
X-26650000Y-34575000D01*
X-11449999Y-22575001D02*
G75*
G03*
X-13049999Y-20975001I-1599993J7D01*
G01*
X-25049999Y-20975001D02*
G75*
G03*
X-26649999Y-22574999I-1J-1599999D01*
G01*
X-26649999Y-34574999D02*
G75*
G03*
X-25050001Y-36174999I1599999J-1D01*
G01*
X-13050000Y-36175000D02*
G75*
G03*
X-11450000Y-34575000I1J1599999D01*
G01*
X-32100000Y-20975000D02*
X-44100000Y-20975000D01*
X-45700000Y-22575000D02*
X-45700000Y-34575000D01*
X-44100000Y-36175000D02*
X-32100000Y-36175000D01*
X-30500000Y-22575000D02*
X-30500000Y-34575000D01*
X-44099999Y-20975001D02*
G75*
G03*
X-45699999Y-22574999I-1J-1599999D01*
G01*
X-45699999Y-34574999D02*
G75*
G03*
X-44100001Y-36174999I1599999J-1D01*
G01*
X-30499999Y-22575001D02*
G75*
G03*
X-32099999Y-20975001I-1599993J7D01*
G01*
X-32100000Y-36175000D02*
G75*
G03*
X-30500000Y-34575000I1J1599999D01*
G01*
X45700000Y-51150000D02*
X45700000Y-63150000D01*
X44100000Y-49550000D02*
X32100000Y-49550000D01*
X30500000Y-51150000D02*
X30500000Y-63150000D01*
X32100000Y-64750000D02*
X44100000Y-64750000D01*
X45700001Y-51150001D02*
G75*
G03*
X44100001Y-49550001I-1599993J7D01*
G01*
X30500001Y-63149999D02*
G75*
G03*
X32099999Y-64749999I1599999J-1D01*
G01*
X32100001Y-49550001D02*
G75*
G03*
X30500001Y-51149999I-1J-1599999D01*
G01*
X44100000Y-64750000D02*
G75*
G03*
X45700000Y-63150000I1J1599999D01*
G01*
X11450000Y-41625000D02*
X11450000Y-53625000D01*
X25050000Y-40025000D02*
X13050000Y-40025000D01*
X13050000Y-55225000D02*
X25050000Y-55225000D01*
X26650000Y-41625000D02*
X26650000Y-53625000D01*
X25050000Y-55225000D02*
G75*
G03*
X26650000Y-53625000I1J1599999D01*
G01*
X11450001Y-53624999D02*
G75*
G03*
X13049999Y-55224999I1599999J-1D01*
G01*
X13050001Y-40025001D02*
G75*
G03*
X11450001Y-41624999I-1J-1599999D01*
G01*
X26650001Y-41625001D02*
G75*
G03*
X25050001Y-40025001I-1599993J7D01*
G01*
X-7600000Y-32100000D02*
X-7600000Y-44100000D01*
X7600000Y-32100000D02*
X7600000Y-44100000D01*
X6000000Y-30500000D02*
X-6000000Y-30500000D01*
X-6000000Y-45700000D02*
X6000000Y-45700000D01*
X-7599999Y-44099999D02*
G75*
G03*
X-6000001Y-45699999I1599999J-1D01*
G01*
X7600001Y-32100001D02*
G75*
G03*
X6000001Y-30500001I-1599993J7D01*
G01*
X6000000Y-45700000D02*
G75*
G03*
X7600000Y-44100000I1J1599999D01*
G01*
X-5999999Y-30500001D02*
G75*
G03*
X-7599999Y-32099999I-1J-1599999D01*
G01*
X-13050000Y-40025000D02*
X-25050000Y-40025000D01*
X-26650000Y-41625000D02*
X-26650000Y-53625000D01*
X-25050000Y-55225000D02*
X-13050000Y-55225000D01*
X-11450000Y-41625000D02*
X-11450000Y-53625000D01*
X-11449999Y-41625001D02*
G75*
G03*
X-13049999Y-40025001I-1599993J7D01*
G01*
X-25049999Y-40025001D02*
G75*
G03*
X-26649999Y-41624999I-1J-1599999D01*
G01*
X-26649999Y-53624999D02*
G75*
G03*
X-25050001Y-55224999I1599999J-1D01*
G01*
X-13050000Y-55225000D02*
G75*
G03*
X-11450000Y-53625000I1J1599999D01*
G01*
X-30500000Y-41625000D02*
X-30500000Y-53625000D01*
X-44100000Y-55225000D02*
X-32100000Y-55225000D01*
X-32100000Y-40025000D02*
X-44100000Y-40025000D01*
X-45700000Y-41625000D02*
X-45700000Y-53625000D01*
X-30499999Y-41625001D02*
G75*
G03*
X-32099999Y-40025001I-1599993J7D01*
G01*
X-45699999Y-53624999D02*
G75*
G03*
X-44100001Y-55224999I1599999J-1D01*
G01*
X-44099999Y-40025001D02*
G75*
G03*
X-45699999Y-41624999I-1J-1599999D01*
G01*
X-32100000Y-55225000D02*
G75*
G03*
X-30500000Y-53625000I1J1599999D01*
G01*
X-22575000Y-59075000D02*
X-34575000Y-59075000D01*
X-20975000Y-60675000D02*
X-20975000Y-72675000D01*
X-34575000Y-74275000D02*
X-22575000Y-74275000D01*
X-36175000Y-60675000D02*
X-36175000Y-72675000D01*
X-36174999Y-72674999D02*
G75*
G03*
X-34575001Y-74274999I1599999J-1D01*
G01*
X-34574999Y-59075001D02*
G75*
G03*
X-36174999Y-60674999I-1J-1599999D01*
G01*
X-22575000Y-74275000D02*
G75*
G03*
X-20975000Y-72675000I1J1599999D01*
G01*
X-20974999Y-60675001D02*
G75*
G03*
X-22574999Y-59075001I-1599993J7D01*
G01*
X-40025000Y-60675000D02*
X-40025000Y-72675000D01*
X-41625000Y-59075000D02*
X-53625000Y-59075000D01*
X-53625000Y-74275000D02*
X-41625000Y-74275000D01*
X-55225000Y-60675000D02*
X-55225000Y-72675000D01*
X-40024999Y-60675001D02*
G75*
G03*
X-41624999Y-59075001I-1599993J7D01*
G01*
X-41625000Y-74275000D02*
G75*
G03*
X-40025000Y-72675000I1J1599999D01*
G01*
X-53624999Y-59075001D02*
G75*
G03*
X-55224999Y-60674999I-1J-1599999D01*
G01*
X-55224999Y-72674999D02*
G75*
G03*
X-53625001Y-74274999I1599999J-1D01*
G01*
D12*
X28575000Y-19050000D03*
X28575000Y-47625000D03*
X-28575000Y-19050000D03*
X-38100000Y-57150000D03*
M02*
