%FSLAX45Y45*%
G04 Gerber Fmt 4.5, Leading zero omitted, Abs format (unit mm)*
G04 Created by KiCad (PCBNEW (6.0.5-0)) date 2022-06-17 02:26:09*
%MOMM*%
%LPD*%
G01*
G04 APERTURE LIST*
%TA.AperFunction,Profile*%
%ADD10C,0.120000*%
%TD*%
%ADD11C,0.200000*%
G04 APERTURE END LIST*
D10*
X5461000Y-4318000D02*
G75*
G03*
X5207000Y-4064000I-254000J0D01*
G01*
X4318000Y2159000D02*
X5715000Y2159000D01*
X5461000Y-4762500D02*
G75*
G03*
X5715000Y-5016500I254000J0D01*
G01*
X1651000Y2857500D02*
X1651000Y2413000D01*
X7874000Y-4762500D02*
X7874000Y952500D01*
X-2413000Y-3556000D02*
G75*
G03*
X-2159000Y-3302000I0J254000D01*
G01*
X1397000Y2159000D02*
G75*
G03*
X1651000Y2413000I0J254000D01*
G01*
X-2857500Y-3556000D02*
G75*
G03*
X-3111500Y-3810000I0J-254000D01*
G01*
X1206500Y-5715000D02*
X1206500Y-4318000D01*
X5715000Y-5016500D02*
X7620000Y-5016500D01*
X-2413000Y-3556000D02*
X-2857500Y-3556000D01*
X4064000Y2857500D02*
X4064000Y2413000D01*
X5969000Y1460500D02*
X5969000Y1905000D01*
X5461000Y-4318000D02*
X5461000Y-4762500D01*
X-2857500Y-5969000D02*
X-2603500Y-5969000D01*
X5207000Y-4064000D02*
X1460500Y-4064000D01*
X7874000Y952500D02*
G75*
G03*
X7620000Y1206500I-254000J0D01*
G01*
X1905000Y3111500D02*
G75*
G03*
X1651000Y2857500I0J-254000D01*
G01*
X7620000Y-5016500D02*
G75*
G03*
X7874000Y-4762500I0J254000D01*
G01*
X1460500Y-4064000D02*
G75*
G03*
X1206500Y-4318000I0J-254000D01*
G01*
X-1905000Y2159000D02*
G75*
G03*
X-2159000Y1905000I0J-254000D01*
G01*
X5969000Y1460500D02*
G75*
G03*
X6223000Y1206500I254000J0D01*
G01*
X-1905000Y2159000D02*
X1397000Y2159000D01*
X-3111500Y-3810000D02*
X-3111500Y-4064000D01*
X-3111500Y-5715000D02*
G75*
G03*
X-2857500Y-5969000I254000J0D01*
G01*
X-3111500Y-5715000D02*
X-3111500Y-4064000D01*
X3810000Y3111500D02*
X1905000Y3111500D01*
X952500Y-5969000D02*
X-2603500Y-5969000D01*
X5969000Y1905000D02*
G75*
G03*
X5715000Y2159000I-254000J0D01*
G01*
X4064000Y2857500D02*
G75*
G03*
X3810000Y3111500I-254000J0D01*
G01*
X7620000Y1206500D02*
X6223000Y1206500D01*
X952500Y-5969000D02*
G75*
G03*
X1206500Y-5715000I0J254000D01*
G01*
X-2159000Y1905000D02*
X-2159000Y-3302000D01*
X4064000Y2413000D02*
G75*
G03*
X4318000Y2159000I254000J0D01*
G01*
D11*
X-2859881Y-6285476D02*
X-2859881Y-6085476D01*
X-2812262Y-6085476D01*
X-2783691Y-6095000D01*
X-2764643Y-6114048D01*
X-2755119Y-6133095D01*
X-2745595Y-6171190D01*
X-2745595Y-6199762D01*
X-2755119Y-6237857D01*
X-2764643Y-6256905D01*
X-2783691Y-6275952D01*
X-2812262Y-6285476D01*
X-2859881Y-6285476D01*
X-2659881Y-6285476D02*
X-2659881Y-6152143D01*
X-2659881Y-6190238D02*
X-2650357Y-6171190D01*
X-2640833Y-6161667D01*
X-2621786Y-6152143D01*
X-2602738Y-6152143D01*
X-2536072Y-6285476D02*
X-2536072Y-6152143D01*
X-2536072Y-6085476D02*
X-2545595Y-6095000D01*
X-2536072Y-6104524D01*
X-2526548Y-6095000D01*
X-2536072Y-6085476D01*
X-2536072Y-6104524D01*
X-2412262Y-6285476D02*
X-2431310Y-6275952D01*
X-2440833Y-6256905D01*
X-2440833Y-6085476D01*
X-2307500Y-6285476D02*
X-2326548Y-6275952D01*
X-2336072Y-6256905D01*
X-2336072Y-6085476D01*
X-2078929Y-6285476D02*
X-2078929Y-6085476D01*
X-2012262Y-6228333D01*
X-1945595Y-6085476D01*
X-1945595Y-6285476D01*
X-1764643Y-6285476D02*
X-1764643Y-6180714D01*
X-1774167Y-6161667D01*
X-1793214Y-6152143D01*
X-1831310Y-6152143D01*
X-1850357Y-6161667D01*
X-1764643Y-6275952D02*
X-1783690Y-6285476D01*
X-1831310Y-6285476D01*
X-1850357Y-6275952D01*
X-1859881Y-6256905D01*
X-1859881Y-6237857D01*
X-1850357Y-6218809D01*
X-1831310Y-6209286D01*
X-1783690Y-6209286D01*
X-1764643Y-6199762D01*
X-1669405Y-6152143D02*
X-1669405Y-6352143D01*
X-1669405Y-6161667D02*
X-1650357Y-6152143D01*
X-1612262Y-6152143D01*
X-1593214Y-6161667D01*
X-1583690Y-6171190D01*
X-1574167Y-6190238D01*
X-1574167Y-6247381D01*
X-1583690Y-6266428D01*
X-1593214Y-6275952D01*
X-1612262Y-6285476D01*
X-1650357Y-6285476D01*
X-1669405Y-6275952D01*
X-1488452Y-6266428D02*
X-1478929Y-6275952D01*
X-1488452Y-6285476D01*
X-1497976Y-6275952D01*
X-1488452Y-6266428D01*
X-1488452Y-6285476D01*
X-1488452Y-6161667D02*
X-1478929Y-6171190D01*
X-1488452Y-6180714D01*
X-1497976Y-6171190D01*
X-1488452Y-6161667D01*
X-1488452Y-6180714D01*
M02*
