%FSLAX45Y45*%
G04 Gerber Fmt 4.5, Leading zero omitted, Abs format (unit mm)*
G04 Created by KiCad (PCBNEW (6.0.5-0)) date 2022-06-17 10:00:41*
%MOMM*%
%LPD*%
G01*
G04 APERTURE LIST*
%TA.AperFunction,Profile*%
%ADD10C,0.120000*%
%TD*%
%ADD11C,0.200000*%
%ADD12C,0.040000*%
%ADD13C,0.100000*%
G04 APERTURE END LIST*
D10*
X-10477500Y2159000D02*
G75*
G03*
X-10731500Y1905000I0J-254000D01*
G01*
X952500Y-10731500D02*
G75*
G03*
X1206500Y-10477500I0J254000D01*
G01*
X1206500Y1905000D02*
G75*
G03*
X952500Y2159000I-254000J0D01*
G01*
X952500Y2159000D02*
X-10477500Y2159000D01*
X-10731500Y1905000D02*
X-10731500Y-10477500D01*
X1206500Y1905000D02*
X1206500Y-10477500D01*
X-10477500Y-10731500D02*
X952500Y-10731500D01*
X-10731500Y-10477500D02*
G75*
G03*
X-10477500Y-10731500I254000J0D01*
G01*
D11*
D12*
X-6751000Y-869000D02*
X-6711000Y-909000D01*
X-6711000Y-869000D02*
X-6751000Y-909000D01*
X-4782500Y-2774000D02*
X-4742500Y-2814000D01*
X-4742500Y-2774000D02*
X-4782500Y-2814000D01*
X-4528500Y-4488500D02*
X-4488500Y-4528500D01*
X-4488500Y-4488500D02*
X-4528500Y-4528500D01*
X-3004500Y-6584000D02*
X-2964500Y-6624000D01*
X-2964500Y-6584000D02*
X-3004500Y-6624000D01*
X-2877500Y-8489000D02*
X-2837500Y-8529000D01*
X-2837500Y-8489000D02*
X-2877500Y-8529000D01*
D13*
X-9975000Y-380000D02*
G75*
G03*
X-9975000Y-380000I-50000J0D01*
G01*
X-9975000Y-2285000D02*
G75*
G03*
X-9975000Y-2285000I-50000J0D01*
G01*
X-9975000Y-4190000D02*
G75*
G03*
X-9975000Y-4190000I-50000J0D01*
G01*
X-9975000Y-6095000D02*
G75*
G03*
X-9975000Y-6095000I-50000J0D01*
G01*
X-9975000Y-8000000D02*
G75*
G03*
X-9975000Y-8000000I-50000J0D01*
G01*
X-9975000Y-9905000D02*
G75*
G03*
X-9975000Y-9905000I-50000J0D01*
G01*
X-9729000Y-508000D02*
G75*
G03*
X-9729000Y-508000I-50000J0D01*
G01*
X-9729000Y-2413000D02*
G75*
G03*
X-9729000Y-2413000I-50000J0D01*
G01*
X-9729000Y-4318000D02*
G75*
G03*
X-9729000Y-4318000I-50000J0D01*
G01*
X-9729000Y-6223000D02*
G75*
G03*
X-9729000Y-6223000I-50000J0D01*
G01*
X-9729000Y-8128000D02*
G75*
G03*
X-9729000Y-8128000I-50000J0D01*
G01*
X-9729000Y-10033000D02*
G75*
G03*
X-9729000Y-10033000I-50000J0D01*
G01*
X-9475000Y-590000D02*
G75*
G03*
X-9475000Y-590000I-50000J0D01*
G01*
X-9475000Y-2495000D02*
G75*
G03*
X-9475000Y-2495000I-50000J0D01*
G01*
X-9475000Y-4400000D02*
G75*
G03*
X-9475000Y-4400000I-50000J0D01*
G01*
X-9475000Y-6305000D02*
G75*
G03*
X-9475000Y-6305000I-50000J0D01*
G01*
X-9475000Y-8210000D02*
G75*
G03*
X-9475000Y-8210000I-50000J0D01*
G01*
X-9475000Y-10115000D02*
G75*
G03*
X-9475000Y-10115000I-50000J0D01*
G01*
X-9094000Y-254000D02*
G75*
G03*
X-9094000Y-254000I-50000J0D01*
G01*
X-9094000Y-2159000D02*
G75*
G03*
X-9094000Y-2159000I-50000J0D01*
G01*
X-9094000Y-4064000D02*
G75*
G03*
X-9094000Y-4064000I-50000J0D01*
G01*
X-9094000Y-5969000D02*
G75*
G03*
X-9094000Y-5969000I-50000J0D01*
G01*
X-9094000Y-7874000D02*
G75*
G03*
X-9094000Y-7874000I-50000J0D01*
G01*
X-9094000Y-9779000D02*
G75*
G03*
X-9094000Y-9779000I-50000J0D01*
G01*
X-8070000Y-380000D02*
G75*
G03*
X-8070000Y-380000I-50000J0D01*
G01*
X-8070000Y-2285000D02*
G75*
G03*
X-8070000Y-2285000I-50000J0D01*
G01*
X-8070000Y-4190000D02*
G75*
G03*
X-8070000Y-4190000I-50000J0D01*
G01*
X-8070000Y-6095000D02*
G75*
G03*
X-8070000Y-6095000I-50000J0D01*
G01*
X-8070000Y-8000000D02*
G75*
G03*
X-8070000Y-8000000I-50000J0D01*
G01*
X-8070000Y-9905000D02*
G75*
G03*
X-8070000Y-9905000I-50000J0D01*
G01*
X-7824000Y-508000D02*
G75*
G03*
X-7824000Y-508000I-50000J0D01*
G01*
X-7824000Y-2413000D02*
G75*
G03*
X-7824000Y-2413000I-50000J0D01*
G01*
X-7824000Y-4318000D02*
G75*
G03*
X-7824000Y-4318000I-50000J0D01*
G01*
X-7824000Y-6223000D02*
G75*
G03*
X-7824000Y-6223000I-50000J0D01*
G01*
X-7824000Y-8128000D02*
G75*
G03*
X-7824000Y-8128000I-50000J0D01*
G01*
X-7824000Y-10033000D02*
G75*
G03*
X-7824000Y-10033000I-50000J0D01*
G01*
X-7570000Y-590000D02*
G75*
G03*
X-7570000Y-590000I-50000J0D01*
G01*
X-7570000Y-2495000D02*
G75*
G03*
X-7570000Y-2495000I-50000J0D01*
G01*
X-7570000Y-4400000D02*
G75*
G03*
X-7570000Y-4400000I-50000J0D01*
G01*
X-7570000Y-6305000D02*
G75*
G03*
X-7570000Y-6305000I-50000J0D01*
G01*
X-7570000Y-8210000D02*
G75*
G03*
X-7570000Y-8210000I-50000J0D01*
G01*
X-7570000Y-10115000D02*
G75*
G03*
X-7570000Y-10115000I-50000J0D01*
G01*
X-7189000Y-254000D02*
G75*
G03*
X-7189000Y-254000I-50000J0D01*
G01*
X-7189000Y-2159000D02*
G75*
G03*
X-7189000Y-2159000I-50000J0D01*
G01*
X-7189000Y-4064000D02*
G75*
G03*
X-7189000Y-4064000I-50000J0D01*
G01*
X-7189000Y-5969000D02*
G75*
G03*
X-7189000Y-5969000I-50000J0D01*
G01*
X-7189000Y-7874000D02*
G75*
G03*
X-7189000Y-7874000I-50000J0D01*
G01*
X-7189000Y-9779000D02*
G75*
G03*
X-7189000Y-9779000I-50000J0D01*
G01*
X-6165000Y-380000D02*
G75*
G03*
X-6165000Y-380000I-50000J0D01*
G01*
X-6165000Y-2285000D02*
G75*
G03*
X-6165000Y-2285000I-50000J0D01*
G01*
X-6165000Y-4190000D02*
G75*
G03*
X-6165000Y-4190000I-50000J0D01*
G01*
X-6165000Y-6095000D02*
G75*
G03*
X-6165000Y-6095000I-50000J0D01*
G01*
X-6165000Y-8000000D02*
G75*
G03*
X-6165000Y-8000000I-50000J0D01*
G01*
X-6165000Y-9905000D02*
G75*
G03*
X-6165000Y-9905000I-50000J0D01*
G01*
X-5919000Y-508000D02*
G75*
G03*
X-5919000Y-508000I-50000J0D01*
G01*
X-5919000Y-2413000D02*
G75*
G03*
X-5919000Y-2413000I-50000J0D01*
G01*
X-5919000Y-4318000D02*
G75*
G03*
X-5919000Y-4318000I-50000J0D01*
G01*
X-5919000Y-6223000D02*
G75*
G03*
X-5919000Y-6223000I-50000J0D01*
G01*
X-5919000Y-8128000D02*
G75*
G03*
X-5919000Y-8128000I-50000J0D01*
G01*
X-5919000Y-10033000D02*
G75*
G03*
X-5919000Y-10033000I-50000J0D01*
G01*
X-5665000Y-590000D02*
G75*
G03*
X-5665000Y-590000I-50000J0D01*
G01*
X-5665000Y-2495000D02*
G75*
G03*
X-5665000Y-2495000I-50000J0D01*
G01*
X-5665000Y-4400000D02*
G75*
G03*
X-5665000Y-4400000I-50000J0D01*
G01*
X-5665000Y-6305000D02*
G75*
G03*
X-5665000Y-6305000I-50000J0D01*
G01*
X-5665000Y-8210000D02*
G75*
G03*
X-5665000Y-8210000I-50000J0D01*
G01*
X-5665000Y-10115000D02*
G75*
G03*
X-5665000Y-10115000I-50000J0D01*
G01*
X-5474500Y1841500D02*
G75*
G03*
X-5474500Y1841500I-50000J0D01*
G01*
X-5474500Y1587500D02*
G75*
G03*
X-5474500Y1587500I-50000J0D01*
G01*
X-5284000Y-254000D02*
G75*
G03*
X-5284000Y-254000I-50000J0D01*
G01*
X-5284000Y-2159000D02*
G75*
G03*
X-5284000Y-2159000I-50000J0D01*
G01*
X-5284000Y-4064000D02*
G75*
G03*
X-5284000Y-4064000I-50000J0D01*
G01*
X-5284000Y-5969000D02*
G75*
G03*
X-5284000Y-5969000I-50000J0D01*
G01*
X-5284000Y-7874000D02*
G75*
G03*
X-5284000Y-7874000I-50000J0D01*
G01*
X-5284000Y-9779000D02*
G75*
G03*
X-5284000Y-9779000I-50000J0D01*
G01*
X-5220500Y1841500D02*
G75*
G03*
X-5220500Y1841500I-50000J0D01*
G01*
X-5220500Y1587500D02*
G75*
G03*
X-5220500Y1587500I-50000J0D01*
G01*
X-4966500Y1841500D02*
G75*
G03*
X-4966500Y1841500I-50000J0D01*
G01*
X-4966500Y1587500D02*
G75*
G03*
X-4966500Y1587500I-50000J0D01*
G01*
X-4712500Y1841500D02*
G75*
G03*
X-4712500Y1841500I-50000J0D01*
G01*
X-4712500Y1587500D02*
G75*
G03*
X-4712500Y1587500I-50000J0D01*
G01*
X-4458500Y1841500D02*
G75*
G03*
X-4458500Y1841500I-50000J0D01*
G01*
X-4458500Y1587500D02*
G75*
G03*
X-4458500Y1587500I-50000J0D01*
G01*
X-4260000Y-380000D02*
G75*
G03*
X-4260000Y-380000I-50000J0D01*
G01*
X-4260000Y-2285000D02*
G75*
G03*
X-4260000Y-2285000I-50000J0D01*
G01*
X-4260000Y-4190000D02*
G75*
G03*
X-4260000Y-4190000I-50000J0D01*
G01*
X-4260000Y-6095000D02*
G75*
G03*
X-4260000Y-6095000I-50000J0D01*
G01*
X-4260000Y-8000000D02*
G75*
G03*
X-4260000Y-8000000I-50000J0D01*
G01*
X-4260000Y-9905000D02*
G75*
G03*
X-4260000Y-9905000I-50000J0D01*
G01*
X-4204500Y1841500D02*
G75*
G03*
X-4204500Y1841500I-50000J0D01*
G01*
X-4204500Y1587500D02*
G75*
G03*
X-4204500Y1587500I-50000J0D01*
G01*
X-4014000Y-508000D02*
G75*
G03*
X-4014000Y-508000I-50000J0D01*
G01*
X-4014000Y-2413000D02*
G75*
G03*
X-4014000Y-2413000I-50000J0D01*
G01*
X-4014000Y-4318000D02*
G75*
G03*
X-4014000Y-4318000I-50000J0D01*
G01*
X-4014000Y-6223000D02*
G75*
G03*
X-4014000Y-6223000I-50000J0D01*
G01*
X-4014000Y-8128000D02*
G75*
G03*
X-4014000Y-8128000I-50000J0D01*
G01*
X-4014000Y-10033000D02*
G75*
G03*
X-4014000Y-10033000I-50000J0D01*
G01*
X-3950500Y1841500D02*
G75*
G03*
X-3950500Y1841500I-50000J0D01*
G01*
X-3950500Y1587500D02*
G75*
G03*
X-3950500Y1587500I-50000J0D01*
G01*
X-3760000Y-590000D02*
G75*
G03*
X-3760000Y-590000I-50000J0D01*
G01*
X-3760000Y-2495000D02*
G75*
G03*
X-3760000Y-2495000I-50000J0D01*
G01*
X-3760000Y-4400000D02*
G75*
G03*
X-3760000Y-4400000I-50000J0D01*
G01*
X-3760000Y-6305000D02*
G75*
G03*
X-3760000Y-6305000I-50000J0D01*
G01*
X-3760000Y-8210000D02*
G75*
G03*
X-3760000Y-8210000I-50000J0D01*
G01*
X-3760000Y-10115000D02*
G75*
G03*
X-3760000Y-10115000I-50000J0D01*
G01*
X-3379000Y-254000D02*
G75*
G03*
X-3379000Y-254000I-50000J0D01*
G01*
X-3379000Y-2159000D02*
G75*
G03*
X-3379000Y-2159000I-50000J0D01*
G01*
X-3379000Y-4064000D02*
G75*
G03*
X-3379000Y-4064000I-50000J0D01*
G01*
X-3379000Y-5969000D02*
G75*
G03*
X-3379000Y-5969000I-50000J0D01*
G01*
X-3379000Y-7874000D02*
G75*
G03*
X-3379000Y-7874000I-50000J0D01*
G01*
X-3379000Y-9779000D02*
G75*
G03*
X-3379000Y-9779000I-50000J0D01*
G01*
X-2355000Y-380000D02*
G75*
G03*
X-2355000Y-380000I-50000J0D01*
G01*
X-2355000Y-2285000D02*
G75*
G03*
X-2355000Y-2285000I-50000J0D01*
G01*
X-2355000Y-4190000D02*
G75*
G03*
X-2355000Y-4190000I-50000J0D01*
G01*
X-2355000Y-6095000D02*
G75*
G03*
X-2355000Y-6095000I-50000J0D01*
G01*
X-2355000Y-8000000D02*
G75*
G03*
X-2355000Y-8000000I-50000J0D01*
G01*
X-2355000Y-9905000D02*
G75*
G03*
X-2355000Y-9905000I-50000J0D01*
G01*
X-2109000Y-508000D02*
G75*
G03*
X-2109000Y-508000I-50000J0D01*
G01*
X-2109000Y-2413000D02*
G75*
G03*
X-2109000Y-2413000I-50000J0D01*
G01*
X-2109000Y-4318000D02*
G75*
G03*
X-2109000Y-4318000I-50000J0D01*
G01*
X-2109000Y-6223000D02*
G75*
G03*
X-2109000Y-6223000I-50000J0D01*
G01*
X-2109000Y-8128000D02*
G75*
G03*
X-2109000Y-8128000I-50000J0D01*
G01*
X-2109000Y-10033000D02*
G75*
G03*
X-2109000Y-10033000I-50000J0D01*
G01*
X-1855000Y-590000D02*
G75*
G03*
X-1855000Y-590000I-50000J0D01*
G01*
X-1855000Y-2495000D02*
G75*
G03*
X-1855000Y-2495000I-50000J0D01*
G01*
X-1855000Y-4400000D02*
G75*
G03*
X-1855000Y-4400000I-50000J0D01*
G01*
X-1855000Y-6305000D02*
G75*
G03*
X-1855000Y-6305000I-50000J0D01*
G01*
X-1855000Y-8210000D02*
G75*
G03*
X-1855000Y-8210000I-50000J0D01*
G01*
X-1855000Y-10115000D02*
G75*
G03*
X-1855000Y-10115000I-50000J0D01*
G01*
X-1474000Y-254000D02*
G75*
G03*
X-1474000Y-254000I-50000J0D01*
G01*
X-1474000Y-2159000D02*
G75*
G03*
X-1474000Y-2159000I-50000J0D01*
G01*
X-1474000Y-4064000D02*
G75*
G03*
X-1474000Y-4064000I-50000J0D01*
G01*
X-1474000Y-5969000D02*
G75*
G03*
X-1474000Y-5969000I-50000J0D01*
G01*
X-1474000Y-7874000D02*
G75*
G03*
X-1474000Y-7874000I-50000J0D01*
G01*
X-1474000Y-9779000D02*
G75*
G03*
X-1474000Y-9779000I-50000J0D01*
G01*
X-450000Y-380000D02*
G75*
G03*
X-450000Y-380000I-50000J0D01*
G01*
X-450000Y-2285000D02*
G75*
G03*
X-450000Y-2285000I-50000J0D01*
G01*
X-450000Y-4190000D02*
G75*
G03*
X-450000Y-4190000I-50000J0D01*
G01*
X-450000Y-6095000D02*
G75*
G03*
X-450000Y-6095000I-50000J0D01*
G01*
X-450000Y-8000000D02*
G75*
G03*
X-450000Y-8000000I-50000J0D01*
G01*
X-450000Y-9905000D02*
G75*
G03*
X-450000Y-9905000I-50000J0D01*
G01*
X-204000Y-508000D02*
G75*
G03*
X-204000Y-508000I-50000J0D01*
G01*
X-204000Y-2413000D02*
G75*
G03*
X-204000Y-2413000I-50000J0D01*
G01*
X-204000Y-4318000D02*
G75*
G03*
X-204000Y-4318000I-50000J0D01*
G01*
X-204000Y-6223000D02*
G75*
G03*
X-204000Y-6223000I-50000J0D01*
G01*
X-204000Y-8128000D02*
G75*
G03*
X-204000Y-8128000I-50000J0D01*
G01*
X-204000Y-10033000D02*
G75*
G03*
X-204000Y-10033000I-50000J0D01*
G01*
X50000Y-590000D02*
G75*
G03*
X50000Y-590000I-50000J0D01*
G01*
X50000Y-2495000D02*
G75*
G03*
X50000Y-2495000I-50000J0D01*
G01*
X50000Y-4400000D02*
G75*
G03*
X50000Y-4400000I-50000J0D01*
G01*
X50000Y-6305000D02*
G75*
G03*
X50000Y-6305000I-50000J0D01*
G01*
X50000Y-8210000D02*
G75*
G03*
X50000Y-8210000I-50000J0D01*
G01*
X50000Y-10115000D02*
G75*
G03*
X50000Y-10115000I-50000J0D01*
G01*
X431000Y-254000D02*
G75*
G03*
X431000Y-254000I-50000J0D01*
G01*
X431000Y-2159000D02*
G75*
G03*
X431000Y-2159000I-50000J0D01*
G01*
X431000Y-4064000D02*
G75*
G03*
X431000Y-4064000I-50000J0D01*
G01*
X431000Y-5969000D02*
G75*
G03*
X431000Y-5969000I-50000J0D01*
G01*
X431000Y-7874000D02*
G75*
G03*
X431000Y-7874000I-50000J0D01*
G01*
X431000Y-9779000D02*
G75*
G03*
X431000Y-9779000I-50000J0D01*
G01*
D11*
X-10479881Y-11047976D02*
X-10479881Y-10847976D01*
X-10432262Y-10847976D01*
X-10403691Y-10857500D01*
X-10384643Y-10876548D01*
X-10375119Y-10895595D01*
X-10365595Y-10933690D01*
X-10365595Y-10962262D01*
X-10375119Y-11000357D01*
X-10384643Y-11019405D01*
X-10403691Y-11038452D01*
X-10432262Y-11047976D01*
X-10479881Y-11047976D01*
X-10279881Y-11047976D02*
X-10279881Y-10914643D01*
X-10279881Y-10952738D02*
X-10270357Y-10933690D01*
X-10260833Y-10924167D01*
X-10241786Y-10914643D01*
X-10222738Y-10914643D01*
X-10156072Y-11047976D02*
X-10156072Y-10914643D01*
X-10156072Y-10847976D02*
X-10165595Y-10857500D01*
X-10156072Y-10867024D01*
X-10146548Y-10857500D01*
X-10156072Y-10847976D01*
X-10156072Y-10867024D01*
X-10032262Y-11047976D02*
X-10051310Y-11038452D01*
X-10060833Y-11019405D01*
X-10060833Y-10847976D01*
X-9927500Y-11047976D02*
X-9946548Y-11038452D01*
X-9956072Y-11019405D01*
X-9956072Y-10847976D01*
X-9698929Y-11047976D02*
X-9698929Y-10847976D01*
X-9632262Y-10990833D01*
X-9565595Y-10847976D01*
X-9565595Y-11047976D01*
X-9384643Y-11047976D02*
X-9384643Y-10943214D01*
X-9394167Y-10924167D01*
X-9413214Y-10914643D01*
X-9451310Y-10914643D01*
X-9470357Y-10924167D01*
X-9384643Y-11038452D02*
X-9403691Y-11047976D01*
X-9451310Y-11047976D01*
X-9470357Y-11038452D01*
X-9479881Y-11019405D01*
X-9479881Y-11000357D01*
X-9470357Y-10981310D01*
X-9451310Y-10971786D01*
X-9403691Y-10971786D01*
X-9384643Y-10962262D01*
X-9289405Y-10914643D02*
X-9289405Y-11114643D01*
X-9289405Y-10924167D02*
X-9270357Y-10914643D01*
X-9232262Y-10914643D01*
X-9213214Y-10924167D01*
X-9203691Y-10933690D01*
X-9194167Y-10952738D01*
X-9194167Y-11009881D01*
X-9203691Y-11028929D01*
X-9213214Y-11038452D01*
X-9232262Y-11047976D01*
X-9270357Y-11047976D01*
X-9289405Y-11038452D01*
X-9108452Y-11028929D02*
X-9098929Y-11038452D01*
X-9108452Y-11047976D01*
X-9117976Y-11038452D01*
X-9108452Y-11028929D01*
X-9108452Y-11047976D01*
X-9108452Y-10924167D02*
X-9098929Y-10933690D01*
X-9108452Y-10943214D01*
X-9117976Y-10933690D01*
X-9108452Y-10924167D01*
X-9108452Y-10943214D01*
D12*
X-10777500Y-11357500D02*
X-10737500Y-11397500D01*
X-10737500Y-11357500D02*
X-10777500Y-11397500D01*
D11*
X-10441786Y-11267976D02*
X-10422738Y-11267976D01*
X-10403691Y-11277500D01*
X-10394167Y-11287024D01*
X-10384643Y-11306071D01*
X-10375119Y-11344167D01*
X-10375119Y-11391786D01*
X-10384643Y-11429881D01*
X-10394167Y-11448928D01*
X-10403691Y-11458452D01*
X-10422738Y-11467976D01*
X-10441786Y-11467976D01*
X-10460833Y-11458452D01*
X-10470357Y-11448928D01*
X-10479881Y-11429881D01*
X-10489405Y-11391786D01*
X-10489405Y-11344167D01*
X-10479881Y-11306071D01*
X-10470357Y-11287024D01*
X-10460833Y-11277500D01*
X-10441786Y-11267976D01*
X-10289405Y-11448928D02*
X-10279881Y-11458452D01*
X-10289405Y-11467976D01*
X-10298929Y-11458452D01*
X-10289405Y-11448928D01*
X-10289405Y-11467976D01*
X-10108452Y-11334643D02*
X-10108452Y-11467976D01*
X-10156072Y-11258452D02*
X-10203691Y-11401309D01*
X-10079881Y-11401309D01*
X-9965595Y-11267976D02*
X-9946548Y-11267976D01*
X-9927500Y-11277500D01*
X-9917976Y-11287024D01*
X-9908452Y-11306071D01*
X-9898929Y-11344167D01*
X-9898929Y-11391786D01*
X-9908452Y-11429881D01*
X-9917976Y-11448928D01*
X-9927500Y-11458452D01*
X-9946548Y-11467976D01*
X-9965595Y-11467976D01*
X-9984643Y-11458452D01*
X-9994167Y-11448928D01*
X-10003691Y-11429881D01*
X-10013214Y-11391786D01*
X-10013214Y-11344167D01*
X-10003691Y-11306071D01*
X-9994167Y-11287024D01*
X-9984643Y-11277500D01*
X-9965595Y-11267976D01*
X-9775119Y-11267976D02*
X-9756072Y-11267976D01*
X-9737024Y-11277500D01*
X-9727500Y-11287024D01*
X-9717976Y-11306071D01*
X-9708452Y-11344167D01*
X-9708452Y-11391786D01*
X-9717976Y-11429881D01*
X-9727500Y-11448928D01*
X-9737024Y-11458452D01*
X-9756072Y-11467976D01*
X-9775119Y-11467976D01*
X-9794167Y-11458452D01*
X-9803691Y-11448928D01*
X-9813214Y-11429881D01*
X-9822738Y-11391786D01*
X-9822738Y-11344167D01*
X-9813214Y-11306071D01*
X-9803691Y-11287024D01*
X-9794167Y-11277500D01*
X-9775119Y-11267976D01*
X-9622738Y-11467976D02*
X-9622738Y-11334643D01*
X-9622738Y-11353690D02*
X-9613214Y-11344167D01*
X-9594167Y-11334643D01*
X-9565595Y-11334643D01*
X-9546548Y-11344167D01*
X-9537024Y-11363214D01*
X-9537024Y-11467976D01*
X-9537024Y-11363214D02*
X-9527500Y-11344167D01*
X-9508452Y-11334643D01*
X-9479881Y-11334643D01*
X-9460833Y-11344167D01*
X-9451310Y-11363214D01*
X-9451310Y-11467976D01*
X-9356072Y-11467976D02*
X-9356072Y-11334643D01*
X-9356072Y-11353690D02*
X-9346548Y-11344167D01*
X-9327500Y-11334643D01*
X-9298929Y-11334643D01*
X-9279881Y-11344167D01*
X-9270357Y-11363214D01*
X-9270357Y-11467976D01*
X-9270357Y-11363214D02*
X-9260833Y-11344167D01*
X-9241786Y-11334643D01*
X-9213214Y-11334643D01*
X-9194167Y-11344167D01*
X-9184643Y-11363214D01*
X-9184643Y-11467976D01*
X-8794167Y-11258452D02*
X-8965595Y-11515595D01*
X-8537024Y-11267976D02*
X-8517976Y-11267976D01*
X-8498929Y-11277500D01*
X-8489405Y-11287024D01*
X-8479881Y-11306071D01*
X-8470357Y-11344167D01*
X-8470357Y-11391786D01*
X-8479881Y-11429881D01*
X-8489405Y-11448928D01*
X-8498929Y-11458452D01*
X-8517976Y-11467976D01*
X-8537024Y-11467976D01*
X-8556072Y-11458452D01*
X-8565595Y-11448928D01*
X-8575119Y-11429881D01*
X-8584643Y-11391786D01*
X-8584643Y-11344167D01*
X-8575119Y-11306071D01*
X-8565595Y-11287024D01*
X-8556072Y-11277500D01*
X-8537024Y-11267976D01*
X-8384643Y-11448928D02*
X-8375119Y-11458452D01*
X-8384643Y-11467976D01*
X-8394167Y-11458452D01*
X-8384643Y-11448928D01*
X-8384643Y-11467976D01*
X-8251310Y-11267976D02*
X-8232262Y-11267976D01*
X-8213214Y-11277500D01*
X-8203690Y-11287024D01*
X-8194167Y-11306071D01*
X-8184643Y-11344167D01*
X-8184643Y-11391786D01*
X-8194167Y-11429881D01*
X-8203690Y-11448928D01*
X-8213214Y-11458452D01*
X-8232262Y-11467976D01*
X-8251310Y-11467976D01*
X-8270357Y-11458452D01*
X-8279881Y-11448928D01*
X-8289405Y-11429881D01*
X-8298929Y-11391786D01*
X-8298929Y-11344167D01*
X-8289405Y-11306071D01*
X-8279881Y-11287024D01*
X-8270357Y-11277500D01*
X-8251310Y-11267976D01*
X-7994167Y-11467976D02*
X-8108452Y-11467976D01*
X-8051310Y-11467976D02*
X-8051310Y-11267976D01*
X-8070357Y-11296548D01*
X-8089405Y-11315595D01*
X-8108452Y-11325119D01*
X-7813214Y-11267976D02*
X-7908452Y-11267976D01*
X-7917976Y-11363214D01*
X-7908452Y-11353690D01*
X-7889405Y-11344167D01*
X-7841786Y-11344167D01*
X-7822738Y-11353690D01*
X-7813214Y-11363214D01*
X-7803690Y-11382262D01*
X-7803690Y-11429881D01*
X-7813214Y-11448928D01*
X-7822738Y-11458452D01*
X-7841786Y-11467976D01*
X-7889405Y-11467976D01*
X-7908452Y-11458452D01*
X-7917976Y-11448928D01*
X-7737024Y-11267976D02*
X-7603690Y-11267976D01*
X-7689405Y-11467976D01*
X-7537024Y-11267976D02*
X-7537024Y-11306071D01*
X-7460833Y-11267976D02*
X-7460833Y-11306071D01*
X-7165595Y-11544167D02*
X-7175119Y-11534643D01*
X-7194167Y-11506071D01*
X-7203690Y-11487024D01*
X-7213214Y-11458452D01*
X-7222738Y-11410833D01*
X-7222738Y-11372738D01*
X-7213214Y-11325119D01*
X-7203690Y-11296548D01*
X-7194167Y-11277500D01*
X-7175119Y-11248928D01*
X-7165595Y-11239405D01*
X-6994167Y-11267976D02*
X-7089405Y-11267976D01*
X-7098929Y-11363214D01*
X-7089405Y-11353690D01*
X-7070357Y-11344167D01*
X-7022738Y-11344167D01*
X-7003690Y-11353690D01*
X-6994167Y-11363214D01*
X-6984643Y-11382262D01*
X-6984643Y-11429881D01*
X-6994167Y-11448928D01*
X-7003690Y-11458452D01*
X-7022738Y-11467976D01*
X-7070357Y-11467976D01*
X-7089405Y-11458452D01*
X-7098929Y-11448928D01*
X-6746548Y-11467976D02*
X-6746548Y-11267976D01*
X-6660833Y-11467976D02*
X-6660833Y-11363214D01*
X-6670357Y-11344167D01*
X-6689405Y-11334643D01*
X-6717976Y-11334643D01*
X-6737024Y-11344167D01*
X-6746548Y-11353690D01*
X-6537024Y-11467976D02*
X-6556071Y-11458452D01*
X-6565595Y-11448928D01*
X-6575119Y-11429881D01*
X-6575119Y-11372738D01*
X-6565595Y-11353690D01*
X-6556071Y-11344167D01*
X-6537024Y-11334643D01*
X-6508452Y-11334643D01*
X-6489405Y-11344167D01*
X-6479881Y-11353690D01*
X-6470357Y-11372738D01*
X-6470357Y-11429881D01*
X-6479881Y-11448928D01*
X-6489405Y-11458452D01*
X-6508452Y-11467976D01*
X-6537024Y-11467976D01*
X-6356071Y-11467976D02*
X-6375119Y-11458452D01*
X-6384643Y-11439405D01*
X-6384643Y-11267976D01*
X-6203690Y-11458452D02*
X-6222738Y-11467976D01*
X-6260833Y-11467976D01*
X-6279881Y-11458452D01*
X-6289405Y-11439405D01*
X-6289405Y-11363214D01*
X-6279881Y-11344167D01*
X-6260833Y-11334643D01*
X-6222738Y-11334643D01*
X-6203690Y-11344167D01*
X-6194167Y-11363214D01*
X-6194167Y-11382262D01*
X-6289405Y-11401309D01*
X-6117976Y-11458452D02*
X-6098929Y-11467976D01*
X-6060833Y-11467976D01*
X-6041786Y-11458452D01*
X-6032262Y-11439405D01*
X-6032262Y-11429881D01*
X-6041786Y-11410833D01*
X-6060833Y-11401309D01*
X-6089405Y-11401309D01*
X-6108452Y-11391786D01*
X-6117976Y-11372738D01*
X-6117976Y-11363214D01*
X-6108452Y-11344167D01*
X-6089405Y-11334643D01*
X-6060833Y-11334643D01*
X-6041786Y-11344167D01*
X-5965595Y-11544167D02*
X-5956071Y-11534643D01*
X-5937024Y-11506071D01*
X-5927500Y-11487024D01*
X-5917976Y-11458452D01*
X-5908452Y-11410833D01*
X-5908452Y-11372738D01*
X-5917976Y-11325119D01*
X-5927500Y-11296548D01*
X-5937024Y-11277500D01*
X-5956071Y-11248928D01*
X-5965595Y-11239405D01*
D13*
X-10737500Y-11641500D02*
G75*
G03*
X-10737500Y-11641500I-50000J0D01*
G01*
D11*
X-10375119Y-11731976D02*
X-10489405Y-11731976D01*
X-10432262Y-11731976D02*
X-10432262Y-11531976D01*
X-10451310Y-11560548D01*
X-10470357Y-11579595D01*
X-10489405Y-11589119D01*
X-10289405Y-11712928D02*
X-10279881Y-11722452D01*
X-10289405Y-11731976D01*
X-10298929Y-11722452D01*
X-10289405Y-11712928D01*
X-10289405Y-11731976D01*
X-10156072Y-11531976D02*
X-10137024Y-11531976D01*
X-10117976Y-11541500D01*
X-10108452Y-11551024D01*
X-10098929Y-11570071D01*
X-10089405Y-11608167D01*
X-10089405Y-11655786D01*
X-10098929Y-11693881D01*
X-10108452Y-11712928D01*
X-10117976Y-11722452D01*
X-10137024Y-11731976D01*
X-10156072Y-11731976D01*
X-10175119Y-11722452D01*
X-10184643Y-11712928D01*
X-10194167Y-11693881D01*
X-10203691Y-11655786D01*
X-10203691Y-11608167D01*
X-10194167Y-11570071D01*
X-10184643Y-11551024D01*
X-10175119Y-11541500D01*
X-10156072Y-11531976D01*
X-9965595Y-11531976D02*
X-9946548Y-11531976D01*
X-9927500Y-11541500D01*
X-9917976Y-11551024D01*
X-9908452Y-11570071D01*
X-9898929Y-11608167D01*
X-9898929Y-11655786D01*
X-9908452Y-11693881D01*
X-9917976Y-11712928D01*
X-9927500Y-11722452D01*
X-9946548Y-11731976D01*
X-9965595Y-11731976D01*
X-9984643Y-11722452D01*
X-9994167Y-11712928D01*
X-10003691Y-11693881D01*
X-10013214Y-11655786D01*
X-10013214Y-11608167D01*
X-10003691Y-11570071D01*
X-9994167Y-11551024D01*
X-9984643Y-11541500D01*
X-9965595Y-11531976D01*
X-9775119Y-11531976D02*
X-9756072Y-11531976D01*
X-9737024Y-11541500D01*
X-9727500Y-11551024D01*
X-9717976Y-11570071D01*
X-9708452Y-11608167D01*
X-9708452Y-11655786D01*
X-9717976Y-11693881D01*
X-9727500Y-11712928D01*
X-9737024Y-11722452D01*
X-9756072Y-11731976D01*
X-9775119Y-11731976D01*
X-9794167Y-11722452D01*
X-9803691Y-11712928D01*
X-9813214Y-11693881D01*
X-9822738Y-11655786D01*
X-9822738Y-11608167D01*
X-9813214Y-11570071D01*
X-9803691Y-11551024D01*
X-9794167Y-11541500D01*
X-9775119Y-11531976D01*
X-9622738Y-11731976D02*
X-9622738Y-11598643D01*
X-9622738Y-11617690D02*
X-9613214Y-11608167D01*
X-9594167Y-11598643D01*
X-9565595Y-11598643D01*
X-9546548Y-11608167D01*
X-9537024Y-11627214D01*
X-9537024Y-11731976D01*
X-9537024Y-11627214D02*
X-9527500Y-11608167D01*
X-9508452Y-11598643D01*
X-9479881Y-11598643D01*
X-9460833Y-11608167D01*
X-9451310Y-11627214D01*
X-9451310Y-11731976D01*
X-9356072Y-11731976D02*
X-9356072Y-11598643D01*
X-9356072Y-11617690D02*
X-9346548Y-11608167D01*
X-9327500Y-11598643D01*
X-9298929Y-11598643D01*
X-9279881Y-11608167D01*
X-9270357Y-11627214D01*
X-9270357Y-11731976D01*
X-9270357Y-11627214D02*
X-9260833Y-11608167D01*
X-9241786Y-11598643D01*
X-9213214Y-11598643D01*
X-9194167Y-11608167D01*
X-9184643Y-11627214D01*
X-9184643Y-11731976D01*
X-8794167Y-11522452D02*
X-8965595Y-11779595D01*
X-8537024Y-11531976D02*
X-8517976Y-11531976D01*
X-8498929Y-11541500D01*
X-8489405Y-11551024D01*
X-8479881Y-11570071D01*
X-8470357Y-11608167D01*
X-8470357Y-11655786D01*
X-8479881Y-11693881D01*
X-8489405Y-11712928D01*
X-8498929Y-11722452D01*
X-8517976Y-11731976D01*
X-8537024Y-11731976D01*
X-8556072Y-11722452D01*
X-8565595Y-11712928D01*
X-8575119Y-11693881D01*
X-8584643Y-11655786D01*
X-8584643Y-11608167D01*
X-8575119Y-11570071D01*
X-8565595Y-11551024D01*
X-8556072Y-11541500D01*
X-8537024Y-11531976D01*
X-8384643Y-11712928D02*
X-8375119Y-11722452D01*
X-8384643Y-11731976D01*
X-8394167Y-11722452D01*
X-8384643Y-11712928D01*
X-8384643Y-11731976D01*
X-8251310Y-11531976D02*
X-8232262Y-11531976D01*
X-8213214Y-11541500D01*
X-8203690Y-11551024D01*
X-8194167Y-11570071D01*
X-8184643Y-11608167D01*
X-8184643Y-11655786D01*
X-8194167Y-11693881D01*
X-8203690Y-11712928D01*
X-8213214Y-11722452D01*
X-8232262Y-11731976D01*
X-8251310Y-11731976D01*
X-8270357Y-11722452D01*
X-8279881Y-11712928D01*
X-8289405Y-11693881D01*
X-8298929Y-11655786D01*
X-8298929Y-11608167D01*
X-8289405Y-11570071D01*
X-8279881Y-11551024D01*
X-8270357Y-11541500D01*
X-8251310Y-11531976D01*
X-8117976Y-11531976D02*
X-7994167Y-11531976D01*
X-8060833Y-11608167D01*
X-8032262Y-11608167D01*
X-8013214Y-11617690D01*
X-8003690Y-11627214D01*
X-7994167Y-11646262D01*
X-7994167Y-11693881D01*
X-8003690Y-11712928D01*
X-8013214Y-11722452D01*
X-8032262Y-11731976D01*
X-8089405Y-11731976D01*
X-8108452Y-11722452D01*
X-8117976Y-11712928D01*
X-7898929Y-11731976D02*
X-7860833Y-11731976D01*
X-7841786Y-11722452D01*
X-7832262Y-11712928D01*
X-7813214Y-11684357D01*
X-7803690Y-11646262D01*
X-7803690Y-11570071D01*
X-7813214Y-11551024D01*
X-7822738Y-11541500D01*
X-7841786Y-11531976D01*
X-7879881Y-11531976D01*
X-7898929Y-11541500D01*
X-7908452Y-11551024D01*
X-7917976Y-11570071D01*
X-7917976Y-11617690D01*
X-7908452Y-11636738D01*
X-7898929Y-11646262D01*
X-7879881Y-11655786D01*
X-7841786Y-11655786D01*
X-7822738Y-11646262D01*
X-7813214Y-11636738D01*
X-7803690Y-11617690D01*
X-7632262Y-11598643D02*
X-7632262Y-11731976D01*
X-7679881Y-11522452D02*
X-7727500Y-11665309D01*
X-7603690Y-11665309D01*
X-7537024Y-11531976D02*
X-7537024Y-11570071D01*
X-7460833Y-11531976D02*
X-7460833Y-11570071D01*
X-7165595Y-11808167D02*
X-7175119Y-11798643D01*
X-7194167Y-11770071D01*
X-7203690Y-11751024D01*
X-7213214Y-11722452D01*
X-7222738Y-11674833D01*
X-7222738Y-11636738D01*
X-7213214Y-11589119D01*
X-7203690Y-11560548D01*
X-7194167Y-11541500D01*
X-7175119Y-11512928D01*
X-7165595Y-11503405D01*
X-6984643Y-11731976D02*
X-7098929Y-11731976D01*
X-7041786Y-11731976D02*
X-7041786Y-11531976D01*
X-7060833Y-11560548D01*
X-7079881Y-11579595D01*
X-7098929Y-11589119D01*
X-6803690Y-11531976D02*
X-6898929Y-11531976D01*
X-6908452Y-11627214D01*
X-6898929Y-11617690D01*
X-6879881Y-11608167D01*
X-6832262Y-11608167D01*
X-6813214Y-11617690D01*
X-6803690Y-11627214D01*
X-6794167Y-11646262D01*
X-6794167Y-11693881D01*
X-6803690Y-11712928D01*
X-6813214Y-11722452D01*
X-6832262Y-11731976D01*
X-6879881Y-11731976D01*
X-6898929Y-11722452D01*
X-6908452Y-11712928D01*
X-6679881Y-11617690D02*
X-6698929Y-11608167D01*
X-6708452Y-11598643D01*
X-6717976Y-11579595D01*
X-6717976Y-11570071D01*
X-6708452Y-11551024D01*
X-6698929Y-11541500D01*
X-6679881Y-11531976D01*
X-6641786Y-11531976D01*
X-6622738Y-11541500D01*
X-6613214Y-11551024D01*
X-6603690Y-11570071D01*
X-6603690Y-11579595D01*
X-6613214Y-11598643D01*
X-6622738Y-11608167D01*
X-6641786Y-11617690D01*
X-6679881Y-11617690D01*
X-6698929Y-11627214D01*
X-6708452Y-11636738D01*
X-6717976Y-11655786D01*
X-6717976Y-11693881D01*
X-6708452Y-11712928D01*
X-6698929Y-11722452D01*
X-6679881Y-11731976D01*
X-6641786Y-11731976D01*
X-6622738Y-11722452D01*
X-6613214Y-11712928D01*
X-6603690Y-11693881D01*
X-6603690Y-11655786D01*
X-6613214Y-11636738D01*
X-6622738Y-11627214D01*
X-6641786Y-11617690D01*
X-6365595Y-11731976D02*
X-6365595Y-11531976D01*
X-6279881Y-11731976D02*
X-6279881Y-11627214D01*
X-6289405Y-11608167D01*
X-6308452Y-11598643D01*
X-6337024Y-11598643D01*
X-6356071Y-11608167D01*
X-6365595Y-11617690D01*
X-6156071Y-11731976D02*
X-6175119Y-11722452D01*
X-6184643Y-11712928D01*
X-6194167Y-11693881D01*
X-6194167Y-11636738D01*
X-6184643Y-11617690D01*
X-6175119Y-11608167D01*
X-6156071Y-11598643D01*
X-6127500Y-11598643D01*
X-6108452Y-11608167D01*
X-6098929Y-11617690D01*
X-6089405Y-11636738D01*
X-6089405Y-11693881D01*
X-6098929Y-11712928D01*
X-6108452Y-11722452D01*
X-6127500Y-11731976D01*
X-6156071Y-11731976D01*
X-5975119Y-11731976D02*
X-5994167Y-11722452D01*
X-6003690Y-11703405D01*
X-6003690Y-11531976D01*
X-5822738Y-11722452D02*
X-5841786Y-11731976D01*
X-5879881Y-11731976D01*
X-5898929Y-11722452D01*
X-5908452Y-11703405D01*
X-5908452Y-11627214D01*
X-5898929Y-11608167D01*
X-5879881Y-11598643D01*
X-5841786Y-11598643D01*
X-5822738Y-11608167D01*
X-5813214Y-11627214D01*
X-5813214Y-11646262D01*
X-5908452Y-11665309D01*
X-5737024Y-11722452D02*
X-5717976Y-11731976D01*
X-5679881Y-11731976D01*
X-5660833Y-11722452D01*
X-5651310Y-11703405D01*
X-5651310Y-11693881D01*
X-5660833Y-11674833D01*
X-5679881Y-11665309D01*
X-5708452Y-11665309D01*
X-5727500Y-11655786D01*
X-5737024Y-11636738D01*
X-5737024Y-11627214D01*
X-5727500Y-11608167D01*
X-5708452Y-11598643D01*
X-5679881Y-11598643D01*
X-5660833Y-11608167D01*
X-5584643Y-11808167D02*
X-5575119Y-11798643D01*
X-5556072Y-11770071D01*
X-5546548Y-11751024D01*
X-5537024Y-11722452D01*
X-5527500Y-11674833D01*
X-5527500Y-11636738D01*
X-5537024Y-11589119D01*
X-5546548Y-11560548D01*
X-5556072Y-11541500D01*
X-5575119Y-11512928D01*
X-5584643Y-11503405D01*
M02*
