%TF.GenerationSoftware,KiCad,Pcbnew,(6.0.10-0)*%
%TF.CreationDate,2023-01-25T23:07:09+08:00*%
%TF.ProjectId,V4,56342e6b-6963-4616-945f-706362585858,rev?*%
%TF.SameCoordinates,Original*%
%TF.FileFunction,Legend,Bot*%
%TF.FilePolarity,Positive*%
%FSLAX46Y46*%
G04 Gerber Fmt 4.6, Leading zero omitted, Abs format (unit mm)*
G04 Created by KiCad (PCBNEW (6.0.10-0)) date 2023-01-25 23:07:09*
%MOMM*%
%LPD*%
G01*
G04 APERTURE LIST*
%ADD10C,0.150000*%
%ADD11C,0.120000*%
G04 APERTURE END LIST*
D10*
%TO.C,J1*%
X145322380Y-52661666D02*
X146036666Y-52661666D01*
X146179523Y-52614047D01*
X146274761Y-52518809D01*
X146322380Y-52375952D01*
X146322380Y-52280714D01*
X146322380Y-53661666D02*
X146322380Y-53090238D01*
X146322380Y-53375952D02*
X145322380Y-53375952D01*
X145465238Y-53280714D01*
X145560476Y-53185476D01*
X145608095Y-53090238D01*
D11*
X149470000Y-52995000D02*
X146870000Y-52995000D01*
X148200000Y-50395000D02*
X146870000Y-50395000D01*
X146870000Y-55595000D02*
X157150000Y-55595000D01*
X157150000Y-50395000D02*
X157150000Y-55595000D01*
X149470000Y-50395000D02*
X157150000Y-50395000D01*
X149470000Y-50395000D02*
X149470000Y-52995000D01*
X146870000Y-50395000D02*
X146870000Y-51725000D01*
X146870000Y-52995000D02*
X146870000Y-55595000D01*
D10*
%TO.C,SW20*%
X163725000Y-80375000D02*
X163725000Y-81032000D01*
X173275000Y-87225000D02*
X168725000Y-87225000D01*
X168720000Y-86500000D02*
X168720000Y-87200000D01*
X168425000Y-80375000D02*
X163725000Y-80375000D01*
X173300000Y-82600000D02*
X173300000Y-83318000D01*
X167500000Y-85025000D02*
X163725000Y-85025000D01*
X173275000Y-82575000D02*
X170725000Y-82575000D01*
X163725000Y-84334000D02*
X163725000Y-85025000D01*
X173300000Y-83318000D02*
X173300000Y-83318000D01*
X173300000Y-86620000D02*
X173300000Y-87200000D01*
X168720000Y-86450000D02*
G75*
G03*
X167500000Y-85030000I-1320000J100000D01*
G01*
X168430000Y-80400000D02*
G75*
G03*
X170800000Y-82570000I2270000J100000D01*
G01*
D11*
%TO.C,D11*%
X230250000Y-64500000D02*
X226350000Y-64500000D01*
X230250000Y-64500000D02*
X230250000Y-66500000D01*
X230250000Y-66500000D02*
X226350000Y-66500000D01*
%TO.C,D47*%
X230250000Y-118500000D02*
X226350000Y-118500000D01*
X230250000Y-118500000D02*
X230250000Y-120500000D01*
X230250000Y-120500000D02*
X226350000Y-120500000D01*
D10*
%TO.C,SW8*%
X163725000Y-66333998D02*
X163725000Y-67024998D01*
X173300000Y-64599998D02*
X173300000Y-65317998D01*
X173300000Y-68619998D02*
X173300000Y-69199998D01*
X173275000Y-69224998D02*
X168725000Y-69224998D01*
X168425000Y-62374998D02*
X163725000Y-62374998D01*
X173300000Y-65317998D02*
X173300000Y-65317998D01*
X163725000Y-62374998D02*
X163725000Y-63031998D01*
X167500000Y-67024998D02*
X163725000Y-67024998D01*
X168720000Y-68499998D02*
X168720000Y-69199998D01*
X173275000Y-64574998D02*
X170725000Y-64574998D01*
X168720000Y-68449998D02*
G75*
G03*
X167500000Y-67029998I-1320000J100000D01*
G01*
X168430000Y-62399998D02*
G75*
G03*
X170800000Y-64569998I2270000J100000D01*
G01*
D11*
%TO.C,D32*%
X173250000Y-93475000D02*
X169350000Y-93475000D01*
X173250000Y-91475000D02*
X173250000Y-93475000D01*
X173250000Y-91475000D02*
X169350000Y-91475000D01*
D10*
%TO.C,SW11*%
X230275000Y-78225000D02*
X225725000Y-78225000D01*
X230300000Y-73600000D02*
X230300000Y-74318000D01*
X230300000Y-77620000D02*
X230300000Y-78200000D01*
X225720000Y-77500000D02*
X225720000Y-78200000D01*
X225425000Y-71375000D02*
X220725000Y-71375000D01*
X230275000Y-73575000D02*
X227725000Y-73575000D01*
X220725000Y-75334000D02*
X220725000Y-76025000D01*
X230300000Y-74318000D02*
X230300000Y-74318000D01*
X220725000Y-71375000D02*
X220725000Y-72032000D01*
X224500000Y-76025000D02*
X220725000Y-76025000D01*
X225430000Y-71400000D02*
G75*
G03*
X227800000Y-73570000I2270000J100000D01*
G01*
X225720000Y-77450000D02*
G75*
G03*
X224500000Y-76030000I-1320000J100000D01*
G01*
%TO.C,SW12*%
X249275000Y-78075000D02*
X246725000Y-78075000D01*
X249300000Y-78100000D02*
X249300000Y-78818000D01*
X244425000Y-75875000D02*
X239725000Y-75875000D01*
X239725000Y-79834000D02*
X239725000Y-80525000D01*
X244720000Y-82000000D02*
X244720000Y-82700000D01*
X249275000Y-82725000D02*
X244725000Y-82725000D01*
X249300000Y-78818000D02*
X249300000Y-78818000D01*
X239725000Y-75875000D02*
X239725000Y-76532000D01*
X249300000Y-82120000D02*
X249300000Y-82700000D01*
X243500000Y-80525000D02*
X239725000Y-80525000D01*
X244430000Y-75900000D02*
G75*
G03*
X246800000Y-78070000I2270000J100000D01*
G01*
X244720000Y-81950000D02*
G75*
G03*
X243500000Y-80530000I-1320000J100000D01*
G01*
%TO.C,SW7*%
X154300000Y-66600000D02*
X154300000Y-67318000D01*
X144725000Y-68334000D02*
X144725000Y-69025000D01*
X149425000Y-64375000D02*
X144725000Y-64375000D01*
X148500000Y-69025000D02*
X144725000Y-69025000D01*
X154275000Y-66575000D02*
X151725000Y-66575000D01*
X154275000Y-71225000D02*
X149725000Y-71225000D01*
X154300000Y-67318000D02*
X154300000Y-67318000D01*
X154300000Y-70620000D02*
X154300000Y-71200000D01*
X149720000Y-70500000D02*
X149720000Y-71200000D01*
X144725000Y-64375000D02*
X144725000Y-65032000D01*
X149430000Y-64400000D02*
G75*
G03*
X151800000Y-66570000I2270000J100000D01*
G01*
X149720000Y-70450000D02*
G75*
G03*
X148500000Y-69030000I-1320000J100000D01*
G01*
%TO.C,SW22*%
X201725000Y-80375000D02*
X201725000Y-81032000D01*
X211275000Y-87225000D02*
X206725000Y-87225000D01*
X206720000Y-86500000D02*
X206720000Y-87200000D01*
X206425000Y-80375000D02*
X201725000Y-80375000D01*
X211300000Y-86620000D02*
X211300000Y-87200000D01*
X211275000Y-82575000D02*
X208725000Y-82575000D01*
X211300000Y-82600000D02*
X211300000Y-83318000D01*
X205500000Y-85025000D02*
X201725000Y-85025000D01*
X201725000Y-84334000D02*
X201725000Y-85025000D01*
X211300000Y-83318000D02*
X211300000Y-83318000D01*
X206430000Y-80400000D02*
G75*
G03*
X208800000Y-82570000I2270000J100000D01*
G01*
X206720000Y-86450000D02*
G75*
G03*
X205500000Y-85030000I-1320000J100000D01*
G01*
D11*
%TO.C,D21*%
X192250000Y-70500000D02*
X192250000Y-72500000D01*
X192250000Y-70500000D02*
X188350000Y-70500000D01*
X192250000Y-72500000D02*
X188350000Y-72500000D01*
D10*
%TO.C,SW58*%
X192225000Y-136375000D02*
X192225000Y-137032000D01*
X201775000Y-138575000D02*
X199225000Y-138575000D01*
X192225000Y-140334000D02*
X192225000Y-141025000D01*
X201800000Y-138600000D02*
X201800000Y-139318000D01*
X201775000Y-143225000D02*
X197225000Y-143225000D01*
X201800000Y-142620000D02*
X201800000Y-143200000D01*
X196000000Y-141025000D02*
X192225000Y-141025000D01*
X201800000Y-139318000D02*
X201800000Y-139318000D01*
X196925000Y-136375000D02*
X192225000Y-136375000D01*
X197220000Y-142500000D02*
X197220000Y-143200000D01*
X196930000Y-136400000D02*
G75*
G03*
X199300000Y-138570000I2270000J100000D01*
G01*
X197220000Y-142450000D02*
G75*
G03*
X196000000Y-141030000I-1320000J100000D01*
G01*
D11*
%TO.C,D56*%
X163750000Y-129500000D02*
X159850000Y-129500000D01*
X163750000Y-131500000D02*
X159850000Y-131500000D01*
X163750000Y-129500000D02*
X163750000Y-131500000D01*
%TO.C,D57*%
X182749984Y-131500000D02*
X178849984Y-131500000D01*
X182749984Y-129500000D02*
X178849984Y-129500000D01*
X182749984Y-129500000D02*
X182749984Y-131500000D01*
D10*
%TO.C,SW44*%
X167500000Y-121025000D02*
X163725000Y-121025000D01*
X173300000Y-122620000D02*
X173300000Y-123200000D01*
X173300000Y-118600000D02*
X173300000Y-119318000D01*
X173300000Y-119318000D02*
X173300000Y-119318000D01*
X168720000Y-122500000D02*
X168720000Y-123200000D01*
X173275000Y-123225000D02*
X168725000Y-123225000D01*
X173275000Y-118575000D02*
X170725000Y-118575000D01*
X163725000Y-120334000D02*
X163725000Y-121025000D01*
X163725000Y-116375000D02*
X163725000Y-117032000D01*
X168425000Y-116375000D02*
X163725000Y-116375000D01*
X168430000Y-116400000D02*
G75*
G03*
X170800000Y-118570000I2270000J100000D01*
G01*
X168720000Y-122450000D02*
G75*
G03*
X167500000Y-121030000I-1320000J100000D01*
G01*
%TO.C,SW36*%
X243500000Y-116525000D02*
X239725000Y-116525000D01*
X249300000Y-114100000D02*
X249300000Y-114818000D01*
X239725000Y-115834000D02*
X239725000Y-116525000D01*
X244720000Y-118000000D02*
X244720000Y-118700000D01*
X249300000Y-114818000D02*
X249300000Y-114818000D01*
X249275000Y-114075000D02*
X246725000Y-114075000D01*
X249300000Y-118120000D02*
X249300000Y-118700000D01*
X249275000Y-118725000D02*
X244725000Y-118725000D01*
X244425000Y-111875000D02*
X239725000Y-111875000D01*
X239725000Y-111875000D02*
X239725000Y-112532000D01*
X244720000Y-117950000D02*
G75*
G03*
X243500000Y-116530000I-1320000J100000D01*
G01*
X244430000Y-111900000D02*
G75*
G03*
X246800000Y-114070000I2270000J100000D01*
G01*
D11*
%TO.C,D23*%
X230300000Y-82500000D02*
X230300000Y-84500000D01*
X230300000Y-82500000D02*
X226400000Y-82500000D01*
X230300000Y-84500000D02*
X226400000Y-84500000D01*
D10*
%TO.C,SW34*%
X211275000Y-105225000D02*
X206725000Y-105225000D01*
X211300000Y-100600000D02*
X211300000Y-101318000D01*
X201725000Y-98375000D02*
X201725000Y-99032000D01*
X211300000Y-104620000D02*
X211300000Y-105200000D01*
X211275000Y-100575000D02*
X208725000Y-100575000D01*
X206720000Y-104500000D02*
X206720000Y-105200000D01*
X205500000Y-103025000D02*
X201725000Y-103025000D01*
X206425000Y-98375000D02*
X201725000Y-98375000D01*
X201725000Y-102334000D02*
X201725000Y-103025000D01*
X211300000Y-101318000D02*
X211300000Y-101318000D01*
X206720000Y-104450000D02*
G75*
G03*
X205500000Y-103030000I-1320000J100000D01*
G01*
X206430000Y-98400000D02*
G75*
G03*
X208800000Y-100570000I2270000J100000D01*
G01*
D11*
%TO.C,D31*%
X154249998Y-93500003D02*
X150349998Y-93500003D01*
X154249998Y-95500003D02*
X150349998Y-95500003D01*
X154249998Y-93500003D02*
X154249998Y-95500003D01*
D10*
%TO.C,SW55*%
X138593817Y-140158561D02*
G75*
G03*
X141563073Y-141387107I2098901J870355D01*
G01*
X140935551Y-145744516D02*
G75*
G03*
X139303457Y-144827417I-1274596J-357497D01*
G01*
X143890523Y-140545305D02*
X141494307Y-141417457D01*
X138580569Y-140136779D02*
X134164014Y-141744274D01*
X144168136Y-141234946D02*
X144168136Y-141234946D01*
X139301747Y-144822719D02*
X135754408Y-146113845D01*
X145297487Y-144337811D02*
X145495858Y-144882833D01*
X145480916Y-144914876D02*
X141205315Y-146471068D01*
X143922566Y-140560247D02*
X144168136Y-141234946D01*
X140952652Y-145791501D02*
X141192066Y-146449285D01*
X135518072Y-145464517D02*
X135754408Y-146113845D01*
X134164014Y-141744274D02*
X134388721Y-142361652D01*
D11*
%TO.C,D46*%
X211250000Y-109500000D02*
X207350000Y-109500000D01*
X211250000Y-109500000D02*
X211250000Y-111500000D01*
X211250000Y-111500000D02*
X207350000Y-111500000D01*
%TO.C,D8*%
X173250000Y-55500000D02*
X173250000Y-57500000D01*
X173250000Y-57500000D02*
X169350000Y-57500000D01*
X173250000Y-55500000D02*
X169350000Y-55500000D01*
D10*
%TO.C,SW9*%
X192275000Y-61575003D02*
X189725000Y-61575003D01*
X186500000Y-64025003D02*
X182725000Y-64025003D01*
X192275000Y-66225003D02*
X187725000Y-66225003D01*
X187720000Y-65500003D02*
X187720000Y-66200003D01*
X192300000Y-65620003D02*
X192300000Y-66200003D01*
X182725000Y-59375003D02*
X182725000Y-60032003D01*
X187425000Y-59375003D02*
X182725000Y-59375003D01*
X182725000Y-63334003D02*
X182725000Y-64025003D01*
X192300000Y-62318003D02*
X192300000Y-62318003D01*
X192300000Y-61600003D02*
X192300000Y-62318003D01*
X187430000Y-59400003D02*
G75*
G03*
X189800000Y-61570003I2270000J100000D01*
G01*
X187720000Y-65450003D02*
G75*
G03*
X186500000Y-64030003I-1320000J100000D01*
G01*
%TO.C,SW21*%
X186500000Y-82025000D02*
X182725000Y-82025000D01*
X187720000Y-83500000D02*
X187720000Y-84200000D01*
X192300000Y-83620000D02*
X192300000Y-84200000D01*
X192300000Y-79600000D02*
X192300000Y-80318000D01*
X187425000Y-77375000D02*
X182725000Y-77375000D01*
X182725000Y-77375000D02*
X182725000Y-78032000D01*
X192300000Y-80318000D02*
X192300000Y-80318000D01*
X182725000Y-81334000D02*
X182725000Y-82025000D01*
X192275000Y-79575000D02*
X189725000Y-79575000D01*
X192275000Y-84225000D02*
X187725000Y-84225000D01*
X187720000Y-83450000D02*
G75*
G03*
X186500000Y-82030000I-1320000J100000D01*
G01*
X187430000Y-77400000D02*
G75*
G03*
X189800000Y-79570000I2270000J100000D01*
G01*
%TO.C,SW19*%
X154275000Y-84575000D02*
X151725000Y-84575000D01*
X149720000Y-88500000D02*
X149720000Y-89200000D01*
X144725000Y-86334000D02*
X144725000Y-87025000D01*
X144725000Y-82375000D02*
X144725000Y-83032000D01*
X154275000Y-89225000D02*
X149725000Y-89225000D01*
X154300000Y-84600000D02*
X154300000Y-85318000D01*
X149425000Y-82375000D02*
X144725000Y-82375000D01*
X154300000Y-85318000D02*
X154300000Y-85318000D01*
X148500000Y-87025000D02*
X144725000Y-87025000D01*
X154300000Y-88620000D02*
X154300000Y-89200000D01*
X149430000Y-82400000D02*
G75*
G03*
X151800000Y-84570000I2270000J100000D01*
G01*
X149720000Y-88450000D02*
G75*
G03*
X148500000Y-87030000I-1320000J100000D01*
G01*
D11*
%TO.C,D44*%
X173250000Y-109500000D02*
X173250000Y-111500000D01*
X173250000Y-111500000D02*
X169350000Y-111500000D01*
X173250000Y-109500000D02*
X169350000Y-109500000D01*
%TO.C,D24*%
X249250000Y-89000000D02*
X245350000Y-89000000D01*
X249250000Y-87000000D02*
X249250000Y-89000000D01*
X249250000Y-87000000D02*
X245350000Y-87000000D01*
D10*
%TO.C,SW45*%
X192300000Y-115600000D02*
X192300000Y-116318000D01*
X192275000Y-120225000D02*
X187725000Y-120225000D01*
X192275000Y-115575000D02*
X189725000Y-115575000D01*
X182725000Y-117334000D02*
X182725000Y-118025000D01*
X186500000Y-118025000D02*
X182725000Y-118025000D01*
X192300000Y-119620000D02*
X192300000Y-120200000D01*
X187425000Y-113375000D02*
X182725000Y-113375000D01*
X187720000Y-119500000D02*
X187720000Y-120200000D01*
X182725000Y-113375000D02*
X182725000Y-114032000D01*
X192300000Y-116318000D02*
X192300000Y-116318000D01*
X187720000Y-119450000D02*
G75*
G03*
X186500000Y-118030000I-1320000J100000D01*
G01*
X187430000Y-113400000D02*
G75*
G03*
X189800000Y-115570000I2270000J100000D01*
G01*
D11*
%TO.C,D35*%
X230250000Y-100500000D02*
X226350000Y-100500000D01*
X230250000Y-102500000D02*
X226350000Y-102500000D01*
X230250000Y-100500000D02*
X230250000Y-102500000D01*
%TO.C,D43*%
X154249998Y-111500003D02*
X154249998Y-113500003D01*
X154249998Y-113500003D02*
X150349998Y-113500003D01*
X154249998Y-111500003D02*
X150349998Y-111500003D01*
%TO.C,D9*%
X192250000Y-52500000D02*
X192250000Y-54500000D01*
X192250000Y-54500000D02*
X188350000Y-54500000D01*
X192250000Y-52500000D02*
X188350000Y-52500000D01*
D10*
%TO.C,SW33*%
X182725000Y-99334000D02*
X182725000Y-100025000D01*
X187425000Y-95375000D02*
X182725000Y-95375000D01*
X186500000Y-100025000D02*
X182725000Y-100025000D01*
X187720000Y-101500000D02*
X187720000Y-102200000D01*
X192300000Y-97600000D02*
X192300000Y-98318000D01*
X192275000Y-97575000D02*
X189725000Y-97575000D01*
X182725000Y-95375000D02*
X182725000Y-96032000D01*
X192300000Y-98318000D02*
X192300000Y-98318000D01*
X192275000Y-102225000D02*
X187725000Y-102225000D01*
X192300000Y-101620000D02*
X192300000Y-102200000D01*
X187430000Y-95400000D02*
G75*
G03*
X189800000Y-97570000I2270000J100000D01*
G01*
X187720000Y-101450000D02*
G75*
G03*
X186500000Y-100030000I-1320000J100000D01*
G01*
%TO.C,SW24*%
X239725000Y-97834000D02*
X239725000Y-98525000D01*
X243500000Y-98525000D02*
X239725000Y-98525000D01*
X239725000Y-93875000D02*
X239725000Y-94532000D01*
X244425000Y-93875000D02*
X239725000Y-93875000D01*
X249300000Y-96100000D02*
X249300000Y-96818000D01*
X249275000Y-96075000D02*
X246725000Y-96075000D01*
X249300000Y-100120000D02*
X249300000Y-100700000D01*
X249275000Y-100725000D02*
X244725000Y-100725000D01*
X249300000Y-96818000D02*
X249300000Y-96818000D01*
X244720000Y-100000000D02*
X244720000Y-100700000D01*
X244430000Y-93900000D02*
G75*
G03*
X246800000Y-96070000I2270000J100000D01*
G01*
X244720000Y-99950000D02*
G75*
G03*
X243500000Y-98530000I-1320000J100000D01*
G01*
%TO.C,SW47*%
X230300000Y-127600000D02*
X230300000Y-128318000D01*
X220725000Y-129334000D02*
X220725000Y-130025000D01*
X225720000Y-131500000D02*
X225720000Y-132200000D01*
X230275000Y-132225000D02*
X225725000Y-132225000D01*
X230300000Y-128318000D02*
X230300000Y-128318000D01*
X230275000Y-127575000D02*
X227725000Y-127575000D01*
X224500000Y-130025000D02*
X220725000Y-130025000D01*
X220725000Y-125375000D02*
X220725000Y-126032000D01*
X230300000Y-131620000D02*
X230300000Y-132200000D01*
X225425000Y-125375000D02*
X220725000Y-125375000D01*
X225430000Y-125400000D02*
G75*
G03*
X227800000Y-127570000I2270000J100000D01*
G01*
X225720000Y-131450000D02*
G75*
G03*
X224500000Y-130030000I-1320000J100000D01*
G01*
D11*
%TO.C,D7*%
X154250000Y-57500000D02*
X154250000Y-59500000D01*
X154250000Y-57500000D02*
X150350000Y-57500000D01*
X154250000Y-59500000D02*
X150350000Y-59500000D01*
%TO.C,D19*%
X154250000Y-75500000D02*
X150350000Y-75500000D01*
X154250000Y-77500000D02*
X150350000Y-77500000D01*
X154250000Y-75500000D02*
X154250000Y-77500000D01*
D10*
%TO.C,SW32*%
X168720000Y-104500000D02*
X168720000Y-105200000D01*
X168425000Y-98375000D02*
X163725000Y-98375000D01*
X173300000Y-100600000D02*
X173300000Y-101318000D01*
X173300000Y-104620000D02*
X173300000Y-105200000D01*
X173275000Y-105225000D02*
X168725000Y-105225000D01*
X163725000Y-98375000D02*
X163725000Y-99032000D01*
X163725000Y-102334000D02*
X163725000Y-103025000D01*
X173275000Y-100575000D02*
X170725000Y-100575000D01*
X167500000Y-103025000D02*
X163725000Y-103025000D01*
X173300000Y-101318000D02*
X173300000Y-101318000D01*
X168430000Y-98400000D02*
G75*
G03*
X170800000Y-100570000I2270000J100000D01*
G01*
X168720000Y-104450000D02*
G75*
G03*
X167500000Y-103030000I-1320000J100000D01*
G01*
%TO.C,SW10*%
X206425000Y-62375000D02*
X201725000Y-62375000D01*
X211275000Y-69225000D02*
X206725000Y-69225000D01*
X211275000Y-64575000D02*
X208725000Y-64575000D01*
X211300000Y-64600000D02*
X211300000Y-65318000D01*
X206720000Y-68500000D02*
X206720000Y-69200000D01*
X211300000Y-65318000D02*
X211300000Y-65318000D01*
X201725000Y-62375000D02*
X201725000Y-63032000D01*
X211300000Y-68620000D02*
X211300000Y-69200000D01*
X205500000Y-67025000D02*
X201725000Y-67025000D01*
X201725000Y-66334000D02*
X201725000Y-67025000D01*
X206430000Y-62400000D02*
G75*
G03*
X208800000Y-64570000I2270000J100000D01*
G01*
X206720000Y-68450000D02*
G75*
G03*
X205500000Y-67030000I-1320000J100000D01*
G01*
%TO.C,SW35*%
X230275000Y-114225000D02*
X225725000Y-114225000D01*
X230300000Y-110318000D02*
X230300000Y-110318000D01*
X224500000Y-112025000D02*
X220725000Y-112025000D01*
X230300000Y-109600000D02*
X230300000Y-110318000D01*
X230300000Y-113620000D02*
X230300000Y-114200000D01*
X225425000Y-107375000D02*
X220725000Y-107375000D01*
X225720000Y-113500000D02*
X225720000Y-114200000D01*
X220725000Y-111334000D02*
X220725000Y-112025000D01*
X220725000Y-107375000D02*
X220725000Y-108032000D01*
X230275000Y-109575000D02*
X227725000Y-109575000D01*
X225720000Y-113450000D02*
G75*
G03*
X224500000Y-112030000I-1320000J100000D01*
G01*
X225430000Y-107400000D02*
G75*
G03*
X227800000Y-109570000I2270000J100000D01*
G01*
%TO.C,SW43*%
X154275000Y-125225000D02*
X149725000Y-125225000D01*
X154300000Y-121318000D02*
X154300000Y-121318000D01*
X144725000Y-118375000D02*
X144725000Y-119032000D01*
X144725000Y-122334000D02*
X144725000Y-123025000D01*
X154300000Y-120600000D02*
X154300000Y-121318000D01*
X154300000Y-124620000D02*
X154300000Y-125200000D01*
X149425000Y-118375000D02*
X144725000Y-118375000D01*
X148500000Y-123025000D02*
X144725000Y-123025000D01*
X149720000Y-124500000D02*
X149720000Y-125200000D01*
X154275000Y-120575000D02*
X151725000Y-120575000D01*
X149720000Y-124450000D02*
G75*
G03*
X148500000Y-123030000I-1320000J100000D01*
G01*
X149430000Y-118400000D02*
G75*
G03*
X151800000Y-120570000I2270000J100000D01*
G01*
%TO.C,SW31*%
X148500000Y-105025000D02*
X144725000Y-105025000D01*
X154275000Y-102575000D02*
X151725000Y-102575000D01*
X149720000Y-106500000D02*
X149720000Y-107200000D01*
X154300000Y-103318000D02*
X154300000Y-103318000D01*
X144725000Y-104334000D02*
X144725000Y-105025000D01*
X154300000Y-102600000D02*
X154300000Y-103318000D01*
X149425000Y-100375000D02*
X144725000Y-100375000D01*
X154300000Y-106620000D02*
X154300000Y-107200000D01*
X144725000Y-100375000D02*
X144725000Y-101032000D01*
X154275000Y-107225000D02*
X149725000Y-107225000D01*
X149720000Y-106450000D02*
G75*
G03*
X148500000Y-105030000I-1320000J100000D01*
G01*
X149430000Y-100400000D02*
G75*
G03*
X151800000Y-102570000I2270000J100000D01*
G01*
D11*
%TO.C,D12*%
X249250000Y-69000000D02*
X245350000Y-69000000D01*
X249250000Y-69000000D02*
X249250000Y-71000000D01*
X249250000Y-71000000D02*
X245350000Y-71000000D01*
%TO.C,D20*%
X173250000Y-75500000D02*
X169350000Y-75500000D01*
X173250000Y-73500000D02*
X169350000Y-73500000D01*
X173250000Y-73500000D02*
X173250000Y-75500000D01*
%TO.C,D33*%
X192250000Y-90500000D02*
X188350000Y-90500000D01*
X192250000Y-88500000D02*
X192250000Y-90500000D01*
X192250000Y-88500000D02*
X188350000Y-88500000D01*
%TO.C,D10*%
X211250000Y-57500000D02*
X207350000Y-57500000D01*
X211250000Y-55500000D02*
X211250000Y-57500000D01*
X211250000Y-55500000D02*
X207350000Y-55500000D01*
%TO.C,D22*%
X211250000Y-75500000D02*
X207350000Y-75500000D01*
X211250000Y-73500000D02*
X211250000Y-75500000D01*
X211250000Y-73500000D02*
X207350000Y-73500000D01*
%TO.C,D45*%
X192250000Y-108500000D02*
X188350000Y-108500000D01*
X192250000Y-106500000D02*
X192250000Y-108500000D01*
X192250000Y-106500000D02*
X188350000Y-106500000D01*
D10*
%TO.C,SW23*%
X225720000Y-95500000D02*
X225720000Y-96200000D01*
X220725000Y-89375000D02*
X220725000Y-90032000D01*
X225425000Y-89375000D02*
X220725000Y-89375000D01*
X230300000Y-95620000D02*
X230300000Y-96200000D01*
X224500000Y-94025000D02*
X220725000Y-94025000D01*
X230275000Y-91575000D02*
X227725000Y-91575000D01*
X230275000Y-96225000D02*
X225725000Y-96225000D01*
X230300000Y-92318000D02*
X230300000Y-92318000D01*
X220725000Y-93334000D02*
X220725000Y-94025000D01*
X230300000Y-91600000D02*
X230300000Y-92318000D01*
X225720000Y-95450000D02*
G75*
G03*
X224500000Y-94030000I-1320000J100000D01*
G01*
X225430000Y-89400000D02*
G75*
G03*
X227800000Y-91570000I2270000J100000D01*
G01*
%TO.C,SW48*%
X243500000Y-134525000D02*
X239725000Y-134525000D01*
X249300000Y-132818000D02*
X249300000Y-132818000D01*
X239725000Y-129875000D02*
X239725000Y-130532000D01*
X249275000Y-136725000D02*
X244725000Y-136725000D01*
X249275000Y-132075000D02*
X246725000Y-132075000D01*
X244720000Y-136000000D02*
X244720000Y-136700000D01*
X249300000Y-132100000D02*
X249300000Y-132818000D01*
X239725000Y-133834000D02*
X239725000Y-134525000D01*
X244425000Y-129875000D02*
X239725000Y-129875000D01*
X249300000Y-136120000D02*
X249300000Y-136700000D01*
X244720000Y-135950000D02*
G75*
G03*
X243500000Y-134530000I-1320000J100000D01*
G01*
X244430000Y-129900000D02*
G75*
G03*
X246800000Y-132070000I2270000J100000D01*
G01*
%TO.C,SW46*%
X201725000Y-116375000D02*
X201725000Y-117032000D01*
X211275000Y-123225000D02*
X206725000Y-123225000D01*
X205500000Y-121025000D02*
X201725000Y-121025000D01*
X211300000Y-118600000D02*
X211300000Y-119318000D01*
X206425000Y-116375000D02*
X201725000Y-116375000D01*
X211300000Y-122620000D02*
X211300000Y-123200000D01*
X211300000Y-119318000D02*
X211300000Y-119318000D01*
X206720000Y-122500000D02*
X206720000Y-123200000D01*
X201725000Y-120334000D02*
X201725000Y-121025000D01*
X211275000Y-118575000D02*
X208725000Y-118575000D01*
X206720000Y-122450000D02*
G75*
G03*
X205500000Y-121030000I-1320000J100000D01*
G01*
X206430000Y-116400000D02*
G75*
G03*
X208800000Y-118570000I2270000J100000D01*
G01*
D11*
%TO.C,D58*%
X201750000Y-129500000D02*
X197850000Y-129500000D01*
X201750000Y-131500000D02*
X197850000Y-131500000D01*
X201750000Y-129500000D02*
X201750000Y-131500000D01*
%TO.C,D34*%
X211250000Y-93500000D02*
X207350000Y-93500000D01*
X211250000Y-91500000D02*
X207350000Y-91500000D01*
X211250000Y-91500000D02*
X211250000Y-93500000D01*
D10*
%TO.C,SW56*%
X163799996Y-139318000D02*
X163799996Y-139318000D01*
X163774996Y-143225000D02*
X159224996Y-143225000D01*
X163774996Y-138575000D02*
X161224996Y-138575000D01*
X154224996Y-136375000D02*
X154224996Y-137032000D01*
X163799996Y-138600000D02*
X163799996Y-139318000D01*
X154224996Y-140334000D02*
X154224996Y-141025000D01*
X159219996Y-142500000D02*
X159219996Y-143200000D01*
X158924996Y-136375000D02*
X154224996Y-136375000D01*
X157999996Y-141025000D02*
X154224996Y-141025000D01*
X163799996Y-142620000D02*
X163799996Y-143200000D01*
X159219996Y-142450000D02*
G75*
G03*
X157999996Y-141030000I-1320000J100000D01*
G01*
X158929996Y-136400000D02*
G75*
G03*
X161299996Y-138570000I2270000J100000D01*
G01*
D11*
%TO.C,D55*%
X140895953Y-132034401D02*
X137231152Y-133368280D01*
X141579994Y-133913786D02*
X137915192Y-135247665D01*
X140895953Y-132034401D02*
X141579994Y-133913786D01*
D10*
%TO.C,SW57*%
X182775000Y-143225000D02*
X178225000Y-143225000D01*
X182800000Y-138600000D02*
X182800000Y-139318000D01*
X173225000Y-140334000D02*
X173225000Y-141025000D01*
X178220000Y-142500000D02*
X178220000Y-143200000D01*
X182800000Y-142620000D02*
X182800000Y-143200000D01*
X173225000Y-136375000D02*
X173225000Y-137032000D01*
X177925000Y-136375000D02*
X173225000Y-136375000D01*
X177000000Y-141025000D02*
X173225000Y-141025000D01*
X182775000Y-138575000D02*
X180225000Y-138575000D01*
X182800000Y-139318000D02*
X182800000Y-139318000D01*
X178220000Y-142450000D02*
G75*
G03*
X177000000Y-141030000I-1320000J100000D01*
G01*
X177930000Y-136400000D02*
G75*
G03*
X180300000Y-138570000I2270000J100000D01*
G01*
D11*
%TO.C,D36*%
X249250000Y-105000000D02*
X245350000Y-105000000D01*
X249250000Y-107000000D02*
X245350000Y-107000000D01*
X249250000Y-105000000D02*
X249250000Y-107000000D01*
%TO.C,D48*%
X249300000Y-123000000D02*
X245400000Y-123000000D01*
X249300000Y-123000000D02*
X249300000Y-125000000D01*
X249300000Y-125000000D02*
X245400000Y-125000000D01*
%TD*%
M02*
