%TF.GenerationSoftware,KiCad,Pcbnew,(6.0.10-0)*%
%TF.CreationDate,2023-01-25T23:07:09+08:00*%
%TF.ProjectId,V4,56342e6b-6963-4616-945f-706362585858,rev?*%
%TF.SameCoordinates,Original*%
%TF.FileFunction,Copper,L2,Bot*%
%TF.FilePolarity,Positive*%
%FSLAX46Y46*%
G04 Gerber Fmt 4.6, Leading zero omitted, Abs format (unit mm)*
G04 Created by KiCad (PCBNEW (6.0.10-0)) date 2023-01-25 23:07:09*
%MOMM*%
%LPD*%
G01*
G04 APERTURE LIST*
G04 Aperture macros list*
%AMRotRect*
0 Rectangle, with rotation*
0 The origin of the aperture is its center*
0 $1 length*
0 $2 width*
0 $3 Rotation angle, in degrees counterclockwise*
0 Add horizontal line*
21,1,$1,$2,0,0,$3*%
G04 Aperture macros list end*
%TA.AperFunction,ComponentPad*%
%ADD10R,1.700000X1.700000*%
%TD*%
%TA.AperFunction,ComponentPad*%
%ADD11O,1.700000X1.700000*%
%TD*%
%TA.AperFunction,SMDPad,CuDef*%
%ADD12R,2.000000X2.600000*%
%TD*%
%TA.AperFunction,SMDPad,CuDef*%
%ADD13R,0.900000X1.200000*%
%TD*%
%TA.AperFunction,SMDPad,CuDef*%
%ADD14RotRect,2.000000X2.600000X20.000000*%
%TD*%
%TA.AperFunction,SMDPad,CuDef*%
%ADD15RotRect,0.900000X1.200000X200.000000*%
%TD*%
%TA.AperFunction,ViaPad*%
%ADD16C,0.800000*%
%TD*%
%TA.AperFunction,Conductor*%
%ADD17C,0.250000*%
%TD*%
G04 APERTURE END LIST*
D10*
%TO.P,J1,1,Pin_1*%
%TO.N,Row 1*%
X148200000Y-51725000D03*
D11*
%TO.P,J1,2,Pin_2*%
%TO.N,C12*%
X148200000Y-54265000D03*
%TO.P,J1,3,Pin_3*%
%TO.N,Row 2*%
X150740000Y-51725000D03*
%TO.P,J1,4,Pin_4*%
%TO.N,C34*%
X150740000Y-54265000D03*
%TO.P,J1,5,Pin_5*%
%TO.N,Row 3*%
X153280000Y-51725000D03*
%TO.P,J1,6,Pin_6*%
%TO.N,C56*%
X153280000Y-54265000D03*
%TO.P,J1,7,Pin_7*%
%TO.N,Row 4*%
X155820000Y-51725000D03*
%TO.P,J1,8,Pin_8*%
%TO.N,Row 5*%
X155820000Y-54265000D03*
%TD*%
D12*
%TO.P,SW20,1,1*%
%TO.N,C12*%
X162745000Y-82700000D03*
%TO.P,SW20,2,2*%
%TO.N,Net-(D20-Pad1)*%
X174302000Y-84900000D03*
%TD*%
D13*
%TO.P,D11,1,K*%
%TO.N,Row 1*%
X229650000Y-65500000D03*
%TO.P,D11,2,A*%
%TO.N,Net-(D11-Pad2)*%
X226350000Y-65500000D03*
%TD*%
%TO.P,D47,1,K*%
%TO.N,Row 4*%
X229650000Y-119500000D03*
%TO.P,D47,2,A*%
%TO.N,Net-(D47-Pad2)*%
X226350000Y-119500000D03*
%TD*%
D12*
%TO.P,SW8,1,1*%
%TO.N,C12*%
X162745000Y-64699998D03*
%TO.P,SW8,2,2*%
%TO.N,Net-(D8-Pad1)*%
X174302000Y-66899998D03*
%TD*%
D13*
%TO.P,D32,1,K*%
%TO.N,Net-(D32-Pad1)*%
X172650000Y-92475000D03*
%TO.P,D32,2,A*%
%TO.N,Row 3*%
X169350000Y-92475000D03*
%TD*%
D12*
%TO.P,SW11,1,1*%
%TO.N,C56*%
X219745000Y-73700000D03*
%TO.P,SW11,2,2*%
%TO.N,Net-(D11-Pad2)*%
X231302000Y-75900000D03*
%TD*%
%TO.P,SW12,1,1*%
%TO.N,C56*%
X238745000Y-78200000D03*
%TO.P,SW12,2,2*%
%TO.N,Net-(D12-Pad1)*%
X250302000Y-80400000D03*
%TD*%
%TO.P,SW7,1,1*%
%TO.N,C12*%
X143745000Y-66700000D03*
%TO.P,SW7,2,2*%
%TO.N,Net-(D7-Pad2)*%
X155302000Y-68900000D03*
%TD*%
%TO.P,SW22,1,1*%
%TO.N,C34*%
X200745000Y-82700000D03*
%TO.P,SW22,2,2*%
%TO.N,Net-(D22-Pad1)*%
X212302000Y-84900000D03*
%TD*%
D13*
%TO.P,D21,1,K*%
%TO.N,Net-(D21-Pad1)*%
X191650000Y-71500000D03*
%TO.P,D21,2,A*%
%TO.N,Row 2*%
X188350000Y-71500000D03*
%TD*%
D12*
%TO.P,SW58,1,1*%
%TO.N,C34*%
X191245000Y-138700000D03*
%TO.P,SW58,2,2*%
%TO.N,Net-(D58-Pad1)*%
X202802000Y-140900000D03*
%TD*%
D13*
%TO.P,D56,1,K*%
%TO.N,Net-(D56-Pad1)*%
X163150000Y-130500000D03*
%TO.P,D56,2,A*%
%TO.N,Row 5*%
X159850000Y-130500000D03*
%TD*%
%TO.P,D57,1,K*%
%TO.N,Row 5*%
X182149984Y-130500000D03*
%TO.P,D57,2,A*%
%TO.N,Net-(D57-Pad2)*%
X178849984Y-130500000D03*
%TD*%
D12*
%TO.P,SW44,1,1*%
%TO.N,C12*%
X162745000Y-118700000D03*
%TO.P,SW44,2,2*%
%TO.N,Net-(D44-Pad1)*%
X174302000Y-120900000D03*
%TD*%
%TO.P,SW36,1,1*%
%TO.N,C56*%
X238745000Y-114200000D03*
%TO.P,SW36,2,2*%
%TO.N,Net-(D36-Pad1)*%
X250302000Y-116400000D03*
%TD*%
D13*
%TO.P,D23,1,K*%
%TO.N,Row 2*%
X229700000Y-83500000D03*
%TO.P,D23,2,A*%
%TO.N,Net-(D23-Pad2)*%
X226400000Y-83500000D03*
%TD*%
D12*
%TO.P,SW34,1,1*%
%TO.N,C34*%
X200745000Y-100700000D03*
%TO.P,SW34,2,2*%
%TO.N,Net-(D34-Pad1)*%
X212302000Y-102900000D03*
%TD*%
D13*
%TO.P,D31,2,A*%
%TO.N,Net-(D31-Pad2)*%
X150349998Y-94500003D03*
%TO.P,D31,1,K*%
%TO.N,Row 3*%
X153649998Y-94500003D03*
%TD*%
D14*
%TO.P,SW55,2,2*%
%TO.N,Net-(D55-Pad2)*%
X145650784Y-142378836D03*
%TO.P,SW55,1,1*%
%TO.N,C12*%
X134038312Y-144264239D03*
%TD*%
D13*
%TO.P,D46,1,K*%
%TO.N,Net-(D46-Pad1)*%
X210650000Y-110500000D03*
%TO.P,D46,2,A*%
%TO.N,Row 4*%
X207350000Y-110500000D03*
%TD*%
%TO.P,D8,1,K*%
%TO.N,Net-(D8-Pad1)*%
X172650000Y-56500000D03*
%TO.P,D8,2,A*%
%TO.N,Row 1*%
X169350000Y-56500000D03*
%TD*%
D12*
%TO.P,SW9,1,1*%
%TO.N,C34*%
X181745000Y-61700003D03*
%TO.P,SW9,2,2*%
%TO.N,Net-(D9-Pad1)*%
X193302000Y-63900003D03*
%TD*%
%TO.P,SW21,1,1*%
%TO.N,C34*%
X181745000Y-79700000D03*
%TO.P,SW21,2,2*%
%TO.N,Net-(D21-Pad1)*%
X193302000Y-81900000D03*
%TD*%
%TO.P,SW19,1,1*%
%TO.N,C12*%
X143745000Y-84700000D03*
%TO.P,SW19,2,2*%
%TO.N,Net-(D19-Pad2)*%
X155302000Y-86900000D03*
%TD*%
D13*
%TO.P,D44,1,K*%
%TO.N,Net-(D44-Pad1)*%
X172650000Y-110500000D03*
%TO.P,D44,2,A*%
%TO.N,Row 4*%
X169350000Y-110500000D03*
%TD*%
%TO.P,D24,1,K*%
%TO.N,Net-(D24-Pad1)*%
X248650000Y-88000000D03*
%TO.P,D24,2,A*%
%TO.N,Row 2*%
X245350000Y-88000000D03*
%TD*%
D12*
%TO.P,SW45,1,1*%
%TO.N,C34*%
X181745000Y-115700000D03*
%TO.P,SW45,2,2*%
%TO.N,Net-(D45-Pad2)*%
X193302000Y-117900000D03*
%TD*%
D13*
%TO.P,D35,1,K*%
%TO.N,Row 3*%
X229650000Y-101500000D03*
%TO.P,D35,2,A*%
%TO.N,Net-(D35-Pad2)*%
X226350000Y-101500000D03*
%TD*%
%TO.P,D43,1,K*%
%TO.N,Row 4*%
X153649998Y-112500003D03*
%TO.P,D43,2,A*%
%TO.N,Net-(D43-Pad2)*%
X150349998Y-112500003D03*
%TD*%
%TO.P,D9,2,A*%
%TO.N,Row 1*%
X188350000Y-53500000D03*
%TO.P,D9,1,K*%
%TO.N,Net-(D9-Pad1)*%
X191650000Y-53500000D03*
%TD*%
D12*
%TO.P,SW33,1,1*%
%TO.N,C34*%
X181745000Y-97700000D03*
%TO.P,SW33,2,2*%
%TO.N,Net-(D33-Pad2)*%
X193302000Y-99900000D03*
%TD*%
%TO.P,SW24,1,1*%
%TO.N,C56*%
X238745000Y-96200000D03*
%TO.P,SW24,2,2*%
%TO.N,Net-(D24-Pad1)*%
X250302000Y-98400000D03*
%TD*%
%TO.P,SW47,1,1*%
%TO.N,C56*%
X219745000Y-127700000D03*
%TO.P,SW47,2,2*%
%TO.N,Net-(D47-Pad2)*%
X231302000Y-129900000D03*
%TD*%
D13*
%TO.P,D7,1,K*%
%TO.N,Row 1*%
X153650000Y-58500000D03*
%TO.P,D7,2,A*%
%TO.N,Net-(D7-Pad2)*%
X150350000Y-58500000D03*
%TD*%
%TO.P,D19,1,K*%
%TO.N,Row 2*%
X153650000Y-76500000D03*
%TO.P,D19,2,A*%
%TO.N,Net-(D19-Pad2)*%
X150350000Y-76500000D03*
%TD*%
D12*
%TO.P,SW32,1,1*%
%TO.N,C12*%
X162745000Y-100700000D03*
%TO.P,SW32,2,2*%
%TO.N,Net-(D32-Pad1)*%
X174302000Y-102900000D03*
%TD*%
%TO.P,SW10,1,1*%
%TO.N,C34*%
X200745000Y-64700000D03*
%TO.P,SW10,2,2*%
%TO.N,Net-(D10-Pad1)*%
X212302000Y-66900000D03*
%TD*%
%TO.P,SW35,1,1*%
%TO.N,C56*%
X219745000Y-109700000D03*
%TO.P,SW35,2,2*%
%TO.N,Net-(D35-Pad2)*%
X231302000Y-111900000D03*
%TD*%
%TO.P,SW43,1,1*%
%TO.N,C12*%
X143745000Y-120700000D03*
%TO.P,SW43,2,2*%
%TO.N,Net-(D43-Pad2)*%
X155302000Y-122900000D03*
%TD*%
%TO.P,SW31,1,1*%
%TO.N,C12*%
X143745000Y-102700000D03*
%TO.P,SW31,2,2*%
%TO.N,Net-(D31-Pad2)*%
X155302000Y-104900000D03*
%TD*%
D13*
%TO.P,D12,1,K*%
%TO.N,Net-(D12-Pad1)*%
X248650000Y-70000000D03*
%TO.P,D12,2,A*%
%TO.N,Row 1*%
X245350000Y-70000000D03*
%TD*%
%TO.P,D20,2,A*%
%TO.N,Row 2*%
X169350000Y-74500000D03*
%TO.P,D20,1,K*%
%TO.N,Net-(D20-Pad1)*%
X172650000Y-74500000D03*
%TD*%
%TO.P,D33,1,K*%
%TO.N,Row 3*%
X191650000Y-89500000D03*
%TO.P,D33,2,A*%
%TO.N,Net-(D33-Pad2)*%
X188350000Y-89500000D03*
%TD*%
%TO.P,D10,1,K*%
%TO.N,Net-(D10-Pad1)*%
X210650000Y-56500000D03*
%TO.P,D10,2,A*%
%TO.N,Row 1*%
X207350000Y-56500000D03*
%TD*%
%TO.P,D22,1,K*%
%TO.N,Net-(D22-Pad1)*%
X210650000Y-74500000D03*
%TO.P,D22,2,A*%
%TO.N,Row 2*%
X207350000Y-74500000D03*
%TD*%
%TO.P,D45,1,K*%
%TO.N,Row 4*%
X191650000Y-107500000D03*
%TO.P,D45,2,A*%
%TO.N,Net-(D45-Pad2)*%
X188350000Y-107500000D03*
%TD*%
D12*
%TO.P,SW23,1,1*%
%TO.N,C56*%
X219745000Y-91700000D03*
%TO.P,SW23,2,2*%
%TO.N,Net-(D23-Pad2)*%
X231302000Y-93900000D03*
%TD*%
%TO.P,SW48,1,1*%
%TO.N,C56*%
X238745000Y-132200000D03*
%TO.P,SW48,2,2*%
%TO.N,Net-(D48-Pad1)*%
X250302000Y-134400000D03*
%TD*%
%TO.P,SW46,1,1*%
%TO.N,C34*%
X200745000Y-118700000D03*
%TO.P,SW46,2,2*%
%TO.N,Net-(D46-Pad1)*%
X212302000Y-120900000D03*
%TD*%
D13*
%TO.P,D58,1,K*%
%TO.N,Net-(D58-Pad1)*%
X201150000Y-130500000D03*
%TO.P,D58,2,A*%
%TO.N,Row 5*%
X197850000Y-130500000D03*
%TD*%
%TO.P,D34,1,K*%
%TO.N,Net-(D34-Pad1)*%
X210650000Y-92500000D03*
%TO.P,D34,2,A*%
%TO.N,Row 3*%
X207350000Y-92500000D03*
%TD*%
D12*
%TO.P,SW56,1,1*%
%TO.N,C12*%
X153244996Y-138700000D03*
%TO.P,SW56,2,2*%
%TO.N,Net-(D56-Pad1)*%
X164801996Y-140900000D03*
%TD*%
D15*
%TO.P,D55,2,A*%
%TO.N,Net-(D55-Pad2)*%
X137573172Y-134307972D03*
%TO.P,D55,1,K*%
%TO.N,Row 5*%
X140674158Y-133179306D03*
%TD*%
D12*
%TO.P,SW57,1,1*%
%TO.N,C34*%
X172245000Y-138700000D03*
%TO.P,SW57,2,2*%
%TO.N,Net-(D57-Pad2)*%
X183802000Y-140900000D03*
%TD*%
D13*
%TO.P,D36,1,K*%
%TO.N,Net-(D36-Pad1)*%
X248650000Y-106000000D03*
%TO.P,D36,2,A*%
%TO.N,Row 3*%
X245350000Y-106000000D03*
%TD*%
%TO.P,D48,1,K*%
%TO.N,Net-(D48-Pad1)*%
X248700000Y-124000000D03*
%TO.P,D48,2,A*%
%TO.N,Row 4*%
X245400000Y-124000000D03*
%TD*%
D16*
%TO.N,C56*%
X249000000Y-113500000D03*
%TO.N,Row 3*%
X244175000Y-104825000D03*
X231000000Y-101500000D03*
%TO.N,C56*%
X230000000Y-109000000D03*
X248000000Y-131500000D03*
X236500000Y-114000000D03*
X237000000Y-130000000D03*
X229500000Y-127000000D03*
%TO.N,Row 4*%
X228725000Y-118575000D03*
X208500000Y-109500000D03*
%TO.N,C34*%
X211000000Y-100000000D03*
%TO.N,Row 3*%
X208850000Y-91000000D03*
%TO.N,C56*%
X248500000Y-95500000D03*
%TO.N,Row 2*%
X244175000Y-86825000D03*
%TO.N,C56*%
X236500000Y-96500000D03*
X229500000Y-91000000D03*
%TO.N,Row 2*%
X206425000Y-73575000D03*
%TO.N,C34*%
X210500000Y-82000000D03*
X198255000Y-82745000D03*
X191500000Y-79000000D03*
%TO.N,Row 2*%
X191500000Y-70000000D03*
%TO.N,C34*%
X210500000Y-118000000D03*
X198500000Y-118500000D03*
X191500000Y-115000000D03*
X198500000Y-100000000D03*
X192000000Y-97000000D03*
%TO.N,Row 3*%
X205925000Y-91075000D03*
X193000000Y-89500000D03*
%TO.N,Row 4*%
X206000000Y-109000000D03*
X193000000Y-107500000D03*
%TO.N,C34*%
X201000000Y-138000000D03*
%TO.N,Row 5*%
X196500000Y-130500000D03*
X183500000Y-130500000D03*
%TO.N,C34*%
X190000000Y-137000000D03*
X182000000Y-138000000D03*
%TO.N,Row 5*%
X158500000Y-130500000D03*
X141926732Y-131926732D03*
%TO.N,C12*%
X172500000Y-100000000D03*
%TO.N,Row 4*%
X167925000Y-111925000D03*
X154999997Y-112500003D03*
%TO.N,C12*%
X160500000Y-100500000D03*
%TO.N,Row 3*%
X168162500Y-93662500D03*
X154999997Y-94500003D03*
%TO.N,C12*%
X163000000Y-138000000D03*
X151500000Y-138500000D03*
X142000000Y-140500000D03*
X173000000Y-118000000D03*
X161000000Y-118500000D03*
X154000000Y-120000000D03*
X153500000Y-102000000D03*
%TO.N,C56*%
X248500000Y-77500000D03*
X236255000Y-78245000D03*
X229500000Y-73000000D03*
%TO.N,Row 1*%
X244175000Y-68825000D03*
X231000000Y-65500000D03*
%TO.N,C34*%
X210500000Y-64000000D03*
X198255000Y-64755000D03*
X191500000Y-61000000D03*
%TO.N,Row 1*%
X228075000Y-63925000D03*
X206175000Y-55325000D03*
X193000000Y-52500000D03*
X170174999Y-55674999D03*
%TO.N,C12*%
X172500000Y-81500000D03*
X173000000Y-63500000D03*
%TO.N,Row 2*%
X168425000Y-75425000D03*
X155000000Y-76500000D03*
%TO.N,C12*%
X160500000Y-82500000D03*
X154000000Y-83500000D03*
X154000000Y-65500000D03*
X160500000Y-65000000D03*
%TO.N,Row 1*%
X168425000Y-57425000D03*
X154500000Y-58500000D03*
%TD*%
D17*
%TO.N,C56*%
X238745000Y-114200000D02*
X240945000Y-112000000D01*
X245500000Y-113500000D02*
X249000000Y-113500000D01*
X240945000Y-112000000D02*
X244000000Y-112000000D01*
X244000000Y-112000000D02*
X245500000Y-113500000D01*
%TO.N,Net-(D36-Pad1)*%
X248650000Y-106000000D02*
X248650000Y-107150000D01*
X248650000Y-107150000D02*
X250000000Y-108500000D01*
X250000000Y-108500000D02*
X250000000Y-116098000D01*
X250000000Y-116098000D02*
X250302000Y-116400000D01*
%TO.N,Row 3*%
X229650000Y-101500000D02*
X240850000Y-101500000D01*
X240850000Y-101500000D02*
X245350000Y-106000000D01*
%TO.N,C56*%
X219745000Y-109700000D02*
X221945000Y-107500000D01*
X226000000Y-107500000D02*
X227000000Y-108500000D01*
X222500000Y-107500000D02*
X226000000Y-107500000D01*
X221945000Y-107500000D02*
X222500000Y-107500000D01*
X227000000Y-108500000D02*
X227500000Y-109000000D01*
X227500000Y-109000000D02*
X230000000Y-109000000D01*
%TO.N,Net-(D35-Pad2)*%
X226350000Y-101500000D02*
X227500000Y-101500000D01*
X227500000Y-101500000D02*
X231000000Y-105000000D01*
X231000000Y-105000000D02*
X231000000Y-111598000D01*
X231000000Y-111598000D02*
X231302000Y-111900000D01*
%TO.N,C56*%
X238745000Y-132200000D02*
X240620001Y-130324999D01*
X240620001Y-130324999D02*
X244324999Y-130324999D01*
X244324999Y-130324999D02*
X245500000Y-131500000D01*
X245500000Y-131500000D02*
X248000000Y-131500000D01*
%TO.N,Net-(D48-Pad1)*%
X248700000Y-124000000D02*
X249500000Y-124800000D01*
X249500000Y-124800000D02*
X249500000Y-133598000D01*
X249500000Y-133598000D02*
X250302000Y-134400000D01*
%TO.N,Row 4*%
X229650000Y-119500000D02*
X240900000Y-119500000D01*
X240900000Y-119500000D02*
X245400000Y-124000000D01*
%TO.N,C56*%
X238745000Y-114200000D02*
X238545000Y-114000000D01*
X238545000Y-114000000D02*
X236500000Y-114000000D01*
X237000000Y-130000000D02*
X238745000Y-131745000D01*
X238745000Y-131745000D02*
X238745000Y-132200000D01*
X221945000Y-125500000D02*
X222500000Y-125500000D01*
X219745000Y-127700000D02*
X221945000Y-125500000D01*
X225500000Y-125500000D02*
X227000000Y-127000000D01*
X222500000Y-125500000D02*
X225500000Y-125500000D01*
X227000000Y-127000000D02*
X229500000Y-127000000D01*
%TO.N,Net-(D47-Pad2)*%
X226350000Y-119500000D02*
X227500000Y-119500000D01*
X227500000Y-119500000D02*
X231000000Y-123000000D01*
X231000000Y-123000000D02*
X231000000Y-129598000D01*
X231000000Y-129598000D02*
X231302000Y-129900000D01*
%TO.N,Row 4*%
X208350000Y-109500000D02*
X208500000Y-109500000D01*
X208500000Y-109500000D02*
X215500000Y-109500000D01*
X207350000Y-110500000D02*
X208350000Y-109500000D01*
X215500000Y-109500000D02*
X224575000Y-118575000D01*
X228725000Y-118575000D02*
X229650000Y-119500000D01*
X224575000Y-118575000D02*
X228725000Y-118575000D01*
%TO.N,C34*%
X200745000Y-100700000D02*
X202620001Y-98824999D01*
X202620001Y-98824999D02*
X208031925Y-98824999D01*
X208031925Y-98824999D02*
X209206926Y-100000000D01*
X209206926Y-100000000D02*
X211000000Y-100000000D01*
%TO.N,Row 3*%
X207350000Y-92500000D02*
X208850000Y-91000000D01*
X208850000Y-91000000D02*
X211500000Y-91000000D01*
X211500000Y-91000000D02*
X217500000Y-97000000D01*
X217500000Y-97000000D02*
X225150000Y-97000000D01*
X225150000Y-97000000D02*
X229650000Y-101500000D01*
%TO.N,Net-(D34-Pad1)*%
X210650000Y-92500000D02*
X212000000Y-93850000D01*
X212000000Y-93850000D02*
X212000000Y-102598000D01*
X212000000Y-102598000D02*
X212302000Y-102900000D01*
%TO.N,C56*%
X240945000Y-94000000D02*
X241500000Y-94000000D01*
X244500000Y-94000000D02*
X246000000Y-95500000D01*
X246000000Y-95500000D02*
X248500000Y-95500000D01*
X238745000Y-96200000D02*
X240945000Y-94000000D01*
X241500000Y-94000000D02*
X244500000Y-94000000D01*
%TO.N,Net-(D24-Pad1)*%
X248650000Y-88000000D02*
X248650000Y-88650000D01*
X248650000Y-88650000D02*
X249500000Y-89500000D01*
X249500000Y-97598000D02*
X250302000Y-98400000D01*
X249500000Y-89500000D02*
X249500000Y-97598000D01*
%TO.N,C56*%
X238745000Y-96200000D02*
X236800000Y-96200000D01*
X236800000Y-96200000D02*
X236500000Y-96500000D01*
X219745000Y-91700000D02*
X221945000Y-89500000D01*
X225000000Y-89500000D02*
X226500000Y-91000000D01*
X221945000Y-89500000D02*
X222000000Y-89500000D01*
X222000000Y-89500000D02*
X225000000Y-89500000D01*
X226500000Y-91000000D02*
X229500000Y-91000000D01*
%TO.N,Net-(D23-Pad2)*%
X226400000Y-83500000D02*
X227500000Y-83500000D01*
X227500000Y-83500000D02*
X230500000Y-86500000D01*
X230500000Y-86500000D02*
X230500000Y-93098000D01*
X230500000Y-93098000D02*
X231302000Y-93900000D01*
%TO.N,C34*%
X200745000Y-82700000D02*
X202945000Y-80500000D01*
X202945000Y-80500000D02*
X206500000Y-80500000D01*
X208000000Y-82000000D02*
X210500000Y-82000000D01*
X206500000Y-80500000D02*
X208000000Y-82000000D01*
%TO.N,Net-(D22-Pad1)*%
X210650000Y-74500000D02*
X212000000Y-75850000D01*
X212000000Y-75850000D02*
X212000000Y-84598000D01*
X212000000Y-84598000D02*
X212302000Y-84900000D01*
%TO.N,Row 2*%
X191500000Y-70000000D02*
X202850000Y-70000000D01*
X202850000Y-70000000D02*
X207350000Y-74500000D01*
X207350000Y-74500000D02*
X208275000Y-73575000D01*
X208275000Y-73575000D02*
X216670000Y-73575000D01*
X216670000Y-73575000D02*
X225670000Y-82575000D01*
X225670000Y-82575000D02*
X228775000Y-82575000D01*
X228775000Y-82575000D02*
X229700000Y-83500000D01*
%TO.N,C34*%
X200745000Y-82700000D02*
X198300000Y-82700000D01*
X198300000Y-82700000D02*
X198255000Y-82745000D01*
X181745000Y-79700000D02*
X183620001Y-77824999D01*
X188500000Y-79000000D02*
X191500000Y-79000000D01*
X183620001Y-77824999D02*
X187324999Y-77824999D01*
X187324999Y-77824999D02*
X188500000Y-79000000D01*
%TO.N,Row 2*%
X189850000Y-70000000D02*
X191500000Y-70000000D01*
%TO.N,Net-(D21-Pad1)*%
X191650000Y-71500000D02*
X192500000Y-72350000D01*
X192500000Y-72350000D02*
X192500000Y-81098000D01*
%TO.N,Row 2*%
X188350000Y-71500000D02*
X189850000Y-70000000D01*
X229700000Y-83500000D02*
X240850000Y-83500000D01*
X240850000Y-83500000D02*
X245350000Y-88000000D01*
X169350000Y-74500000D02*
X172350000Y-71500000D01*
X172350000Y-71500000D02*
X188350000Y-71500000D01*
%TO.N,C34*%
X204675001Y-116824999D02*
X205000000Y-116500000D01*
X200745000Y-118700000D02*
X202620001Y-116824999D01*
X202620001Y-116824999D02*
X204675001Y-116824999D01*
X205000000Y-116500000D02*
X206500000Y-118000000D01*
X206500000Y-118000000D02*
X210500000Y-118000000D01*
%TO.N,Net-(D46-Pad1)*%
X210650000Y-110500000D02*
X211500000Y-111350000D01*
X211500000Y-111350000D02*
X211500000Y-120098000D01*
%TO.N,C34*%
X198500000Y-118500000D02*
X200545000Y-118500000D01*
X181745000Y-115700000D02*
X183945000Y-113500000D01*
X187500000Y-113500000D02*
X189000000Y-115000000D01*
X183945000Y-113500000D02*
X187500000Y-113500000D01*
X189000000Y-115000000D02*
X191500000Y-115000000D01*
X198500000Y-100000000D02*
X199200000Y-100700000D01*
X199200000Y-100700000D02*
X200745000Y-100700000D01*
X181745000Y-97700000D02*
X183620001Y-95824999D01*
X183620001Y-95824999D02*
X187824999Y-95824999D01*
X189000000Y-97000000D02*
X192000000Y-97000000D01*
X187824999Y-95824999D02*
X189000000Y-97000000D01*
%TO.N,Net-(D33-Pad2)*%
X188350000Y-89500000D02*
X190000000Y-89500000D01*
X190000000Y-89500000D02*
X193000000Y-92500000D01*
X193000000Y-92500000D02*
X193000000Y-99598000D01*
%TO.N,Row 3*%
X191650000Y-89500000D02*
X204350000Y-89500000D01*
X204350000Y-89500000D02*
X207350000Y-92500000D01*
X169350000Y-92475000D02*
X172325000Y-89500000D01*
X172325000Y-89500000D02*
X176000000Y-89500000D01*
X176000000Y-89500000D02*
X179000000Y-86500000D01*
X179000000Y-86500000D02*
X188650000Y-86500000D01*
X188650000Y-86500000D02*
X191650000Y-89500000D01*
%TO.N,Net-(D45-Pad2)*%
X188350000Y-107500000D02*
X189500000Y-107500000D01*
X189500000Y-107500000D02*
X193000000Y-111000000D01*
X193000000Y-111000000D02*
X193000000Y-117598000D01*
%TO.N,Row 4*%
X191650000Y-107500000D02*
X204350000Y-107500000D01*
X204350000Y-107500000D02*
X207350000Y-110500000D01*
X169350000Y-110500000D02*
X170000000Y-110500000D01*
X170000000Y-110500000D02*
X175000000Y-105500000D01*
X175000000Y-105500000D02*
X189650000Y-105500000D01*
X189650000Y-105500000D02*
X191650000Y-107500000D01*
%TO.N,C34*%
X191245000Y-138700000D02*
X193120001Y-136824999D01*
X193120001Y-136824999D02*
X196824999Y-136824999D01*
X198000000Y-138000000D02*
X201000000Y-138000000D01*
X196824999Y-136824999D02*
X198000000Y-138000000D01*
%TO.N,Net-(D58-Pad1)*%
X201150000Y-130500000D02*
X201150000Y-131650000D01*
X202000000Y-132500000D02*
X202000000Y-140098000D01*
X201150000Y-131650000D02*
X202000000Y-132500000D01*
%TO.N,Row 5*%
X182149984Y-130500000D02*
X183500000Y-130500000D01*
X183500000Y-130500000D02*
X197850000Y-130500000D01*
%TO.N,C34*%
X191245000Y-138700000D02*
X190000000Y-137455000D01*
X190000000Y-137455000D02*
X190000000Y-137000000D01*
X174500000Y-136500000D02*
X178500000Y-136500000D01*
X180000000Y-138000000D02*
X182000000Y-138000000D01*
X172300000Y-138700000D02*
X174500000Y-136500000D01*
X178500000Y-136500000D02*
X180000000Y-138000000D01*
%TO.N,Net-(D57-Pad2)*%
X178849984Y-130500000D02*
X180000000Y-130500000D01*
X180000000Y-130500000D02*
X183000000Y-133500000D01*
X183000000Y-133500000D02*
X183000000Y-140098000D01*
%TO.N,Row 5*%
X159850000Y-130500000D02*
X161850000Y-128500000D01*
X161850000Y-128500000D02*
X180149984Y-128500000D01*
X180149984Y-128500000D02*
X182149984Y-130500000D01*
X140674158Y-133179306D02*
X141926732Y-131926732D01*
X141926732Y-131926732D02*
X143353464Y-130500000D01*
X143353464Y-130500000D02*
X159850000Y-130500000D01*
%TO.N,C12*%
X162745000Y-100700000D02*
X164945000Y-98500000D01*
X164945000Y-98500000D02*
X168000000Y-98500000D01*
X168000000Y-98500000D02*
X169500000Y-100000000D01*
X169500000Y-100000000D02*
X172500000Y-100000000D01*
%TO.N,Row 4*%
X153649998Y-112500003D02*
X154999997Y-112500003D01*
X154999997Y-112500003D02*
X167349997Y-112500003D01*
X167349997Y-112500003D02*
X169350000Y-110500000D01*
%TO.N,Net-(D32-Pad1)*%
X172650000Y-92475000D02*
X174000000Y-93825000D01*
X174000000Y-93825000D02*
X174000000Y-102598000D01*
%TO.N,C12*%
X162545000Y-100500000D02*
X160500000Y-100500000D01*
%TO.N,Row 3*%
X167324997Y-94500003D02*
X168162500Y-93662500D01*
X168162500Y-93662500D02*
X169350000Y-92475000D01*
X153649998Y-94500003D02*
X154999997Y-94500003D01*
X154999997Y-94500003D02*
X167324997Y-94500003D01*
%TO.N,C12*%
X159000000Y-136500000D02*
X160500000Y-138000000D01*
X153300000Y-138700000D02*
X155500000Y-136500000D01*
X155500000Y-136500000D02*
X159000000Y-136500000D01*
X160500000Y-138000000D02*
X163000000Y-138000000D01*
%TO.N,Net-(D56-Pad1)*%
X163150000Y-130500000D02*
X164500000Y-131850000D01*
X164500000Y-131850000D02*
X164500000Y-140598004D01*
%TO.N,C12*%
X151500000Y-138500000D02*
X153044996Y-138500000D01*
X134038312Y-142961688D02*
X136000000Y-141000000D01*
X134038312Y-144264239D02*
X134038312Y-142961688D01*
X136000000Y-141000000D02*
X141500000Y-141000000D01*
X141500000Y-141000000D02*
X142000000Y-140500000D01*
%TO.N,Net-(D55-Pad2)*%
X137573172Y-134307972D02*
X138265200Y-135000000D01*
X141000000Y-135000000D02*
X143000000Y-137000000D01*
X143000000Y-139728052D02*
X145650784Y-142378836D01*
X138265200Y-135000000D02*
X141000000Y-135000000D01*
X143000000Y-137000000D02*
X143000000Y-139728052D01*
%TO.N,C12*%
X162745000Y-118700000D02*
X164945000Y-116500000D01*
X164945000Y-116500000D02*
X165000000Y-116500000D01*
X165000000Y-116500000D02*
X168500000Y-116500000D01*
X168500000Y-116500000D02*
X170000000Y-118000000D01*
X170000000Y-118000000D02*
X173000000Y-118000000D01*
X161000000Y-118500000D02*
X162545000Y-118500000D01*
X143800000Y-120700000D02*
X146000000Y-118500000D01*
X146000000Y-118500000D02*
X149500000Y-118500000D01*
X149500000Y-118500000D02*
X151000000Y-120000000D01*
X151000000Y-120000000D02*
X154000000Y-120000000D01*
%TO.N,Net-(D43-Pad2)*%
X150349998Y-112500003D02*
X151000003Y-112500003D01*
X151000003Y-112500003D02*
X155000000Y-116500000D01*
X155000000Y-116500000D02*
X155000000Y-122598000D01*
%TO.N,Net-(D44-Pad1)*%
X172650000Y-110650000D02*
X174000000Y-112000000D01*
X174000000Y-112000000D02*
X174000000Y-120598000D01*
%TO.N,C12*%
X143745000Y-102700000D02*
X145620001Y-100824999D01*
X145620001Y-100824999D02*
X149824999Y-100824999D01*
X151000000Y-102000000D02*
X153500000Y-102000000D01*
X149824999Y-100824999D02*
X151000000Y-102000000D01*
%TO.N,Net-(D31-Pad2)*%
X150349998Y-94500003D02*
X151500003Y-94500003D01*
X151500003Y-94500003D02*
X154500000Y-97500000D01*
X154500000Y-97500000D02*
X154500000Y-104098000D01*
%TO.N,C56*%
X238745000Y-78200000D02*
X241219999Y-75725001D01*
X241219999Y-75725001D02*
X243725001Y-75725001D01*
X243725001Y-75725001D02*
X245500000Y-77500000D01*
X245500000Y-77500000D02*
X248500000Y-77500000D01*
X238745000Y-78200000D02*
X236300000Y-78200000D01*
X236300000Y-78200000D02*
X236255000Y-78245000D01*
X225000000Y-71500000D02*
X226500000Y-73000000D01*
X221945000Y-71500000D02*
X225000000Y-71500000D01*
X219745000Y-73700000D02*
X221945000Y-71500000D01*
X226500000Y-73000000D02*
X229500000Y-73000000D01*
%TO.N,Net-(D12-Pad1)*%
X248650000Y-70000000D02*
X249500000Y-70850000D01*
X249500000Y-70850000D02*
X249500000Y-79598000D01*
%TO.N,Row 1*%
X229650000Y-65500000D02*
X240850000Y-65500000D01*
X240850000Y-65500000D02*
X245350000Y-70000000D01*
%TO.N,Net-(D11-Pad2)*%
X226350000Y-65500000D02*
X227500000Y-65500000D01*
X227500000Y-65500000D02*
X230500000Y-68500000D01*
X230500000Y-68500000D02*
X230500000Y-75098000D01*
%TO.N,C34*%
X206824999Y-62824999D02*
X208000000Y-64000000D01*
X202620001Y-62824999D02*
X206824999Y-62824999D01*
X208000000Y-64000000D02*
X210500000Y-64000000D01*
X200745000Y-64700000D02*
X202620001Y-62824999D01*
X200745000Y-64700000D02*
X198310000Y-64700000D01*
X198310000Y-64700000D02*
X198255000Y-64755000D01*
X181745000Y-61255000D02*
X183500000Y-59500000D01*
X187000000Y-59500000D02*
X188500000Y-61000000D01*
X188500000Y-61000000D02*
X191500000Y-61000000D01*
X183500000Y-59500000D02*
X187000000Y-59500000D01*
%TO.N,Row 1*%
X207350000Y-56500000D02*
X208275000Y-55575000D01*
X208275000Y-55575000D02*
X219725000Y-55575000D01*
X219725000Y-55575000D02*
X229650000Y-65500000D01*
%TO.N,Net-(D10-Pad1)*%
X210650000Y-56500000D02*
X212000000Y-57850000D01*
X212000000Y-57850000D02*
X212000000Y-66598000D01*
%TO.N,Net-(D9-Pad1)*%
X191650000Y-53500000D02*
X192500000Y-54350000D01*
X192500000Y-54350000D02*
X192500000Y-63098003D01*
%TO.N,Row 1*%
X172349998Y-53500000D02*
X188350000Y-53500000D01*
X170174999Y-55674999D02*
X172349998Y-53500000D01*
X188350000Y-53500000D02*
X189275000Y-52575000D01*
X189275000Y-52575000D02*
X203425000Y-52575000D01*
X203425000Y-52575000D02*
X207350000Y-56500000D01*
X169350000Y-56500000D02*
X170174999Y-55674999D01*
%TO.N,C12*%
X162745000Y-82700000D02*
X164620001Y-80824999D01*
X164620001Y-80824999D02*
X168824999Y-80824999D01*
X168824999Y-80824999D02*
X169500000Y-81500000D01*
X169500000Y-81500000D02*
X172500000Y-81500000D01*
%TO.N,Net-(D20-Pad1)*%
X172650000Y-74500000D02*
X173500000Y-75350000D01*
X173500000Y-75350000D02*
X173500000Y-84098000D01*
%TO.N,C12*%
X162745000Y-64699998D02*
X164620001Y-62824997D01*
X164620001Y-62824997D02*
X168824997Y-62824997D01*
X168824997Y-62824997D02*
X169500000Y-63500000D01*
X169500000Y-63500000D02*
X173000000Y-63500000D01*
%TO.N,Net-(D8-Pad1)*%
X174124999Y-66722997D02*
X174124999Y-57974999D01*
X174124999Y-57974999D02*
X172650000Y-56500000D01*
%TO.N,C12*%
X162745000Y-82700000D02*
X160700000Y-82700000D01*
X160700000Y-82700000D02*
X160500000Y-82500000D01*
X143745000Y-84700000D02*
X145620001Y-82824999D01*
X145620001Y-82824999D02*
X149824999Y-82824999D01*
X149824999Y-82824999D02*
X150500000Y-83500000D01*
X150500000Y-83500000D02*
X154000000Y-83500000D01*
%TO.N,Net-(D19-Pad2)*%
X150350000Y-76500000D02*
X155124999Y-81274999D01*
X155124999Y-81274999D02*
X155124999Y-86722999D01*
%TO.N,Row 2*%
X153650000Y-76500000D02*
X167350000Y-76500000D01*
X167350000Y-76500000D02*
X169350000Y-74500000D01*
%TO.N,Net-(D7-Pad2)*%
X155000000Y-68598000D02*
X155000000Y-63100000D01*
X155000000Y-63100000D02*
X150400000Y-58500000D01*
%TO.N,C12*%
X149500000Y-64500000D02*
X150500000Y-65500000D01*
X143800000Y-66700000D02*
X146000000Y-64500000D01*
X146000000Y-64500000D02*
X149500000Y-64500000D01*
X150500000Y-65500000D02*
X154000000Y-65500000D01*
X162745000Y-64699998D02*
X160800002Y-64699998D01*
X160800002Y-64699998D02*
X160500000Y-65000000D01*
%TO.N,Row 1*%
X167350000Y-58500000D02*
X168425000Y-57425000D01*
X168425000Y-57425000D02*
X169350000Y-56500000D01*
X153700000Y-58500000D02*
X154500000Y-58500000D01*
X154500000Y-58500000D02*
X167350000Y-58500000D01*
%TD*%
M02*
