%TF.GenerationSoftware,KiCad,Pcbnew,(6.0.11-0)*%
%TF.CreationDate,2023-02-11T14:18:37+08:00*%
%TF.ProjectId,V4,56342e6b-6963-4616-945f-706362585858,rev?*%
%TF.SameCoordinates,PX7bfa480PY6052340*%
%TF.FileFunction,Legend,Bot*%
%TF.FilePolarity,Positive*%
%FSLAX46Y46*%
G04 Gerber Fmt 4.6, Leading zero omitted, Abs format (unit mm)*
G04 Created by KiCad (PCBNEW (6.0.11-0)) date 2023-02-11 14:18:37*
%MOMM*%
%LPD*%
G01*
G04 APERTURE LIST*
G04 Aperture macros list*
%AMRoundRect*
0 Rectangle with rounded corners*
0 $1 Rounding radius*
0 $2 $3 $4 $5 $6 $7 $8 $9 X,Y pos of 4 corners*
0 Add a 4 corners polygon primitive as box body*
4,1,4,$2,$3,$4,$5,$6,$7,$8,$9,$2,$3,0*
0 Add four circle primitives for the rounded corners*
1,1,$1+$1,$2,$3*
1,1,$1+$1,$4,$5*
1,1,$1+$1,$6,$7*
1,1,$1+$1,$8,$9*
0 Add four rect primitives between the rounded corners*
20,1,$1+$1,$2,$3,$4,$5,0*
20,1,$1+$1,$4,$5,$6,$7,0*
20,1,$1+$1,$6,$7,$8,$9,0*
20,1,$1+$1,$8,$9,$2,$3,0*%
%AMRotRect*
0 Rectangle, with rotation*
0 The origin of the aperture is its center*
0 $1 length*
0 $2 width*
0 $3 Rotation angle, in degrees counterclockwise*
0 Add horizontal line*
21,1,$1,$2,0,0,$3*%
G04 Aperture macros list end*
%ADD10C,0.200000*%
%ADD11C,0.150000*%
%ADD12R,1.400000X1.000000*%
%ADD13RotRect,1.400000X1.000000X200.000000*%
%ADD14C,3.000000*%
%ADD15C,3.200000*%
%ADD16RoundRect,0.317500X0.317500X1.397000X-0.317500X1.397000X-0.317500X-1.397000X0.317500X-1.397000X0*%
%ADD17C,1.700000*%
%ADD18R,2.000000X2.600000*%
%ADD19RotRect,2.000000X2.600000X20.000000*%
G04 APERTURE END LIST*
D10*
X11203571Y39821429D02*
X11703571Y40535715D01*
X12060714Y39821429D02*
X12060714Y41321429D01*
X11489285Y41321429D01*
X11346428Y41250000D01*
X11275000Y41178572D01*
X11203571Y41035715D01*
X11203571Y40821429D01*
X11275000Y40678572D01*
X11346428Y40607143D01*
X11489285Y40535715D01*
X12060714Y40535715D01*
X10560714Y39821429D02*
X10560714Y40821429D01*
X10560714Y41321429D02*
X10632142Y41250000D01*
X10560714Y41178572D01*
X10489285Y41250000D01*
X10560714Y41321429D01*
X10560714Y41178572D01*
X9203571Y40821429D02*
X9203571Y39607143D01*
X9275000Y39464286D01*
X9346428Y39392858D01*
X9489285Y39321429D01*
X9703571Y39321429D01*
X9846428Y39392858D01*
X9203571Y39892858D02*
X9346428Y39821429D01*
X9632142Y39821429D01*
X9775000Y39892858D01*
X9846428Y39964286D01*
X9917857Y40107143D01*
X9917857Y40535715D01*
X9846428Y40678572D01*
X9775000Y40750000D01*
X9632142Y40821429D01*
X9346428Y40821429D01*
X9203571Y40750000D01*
X8489285Y39821429D02*
X8489285Y41321429D01*
X7846428Y39821429D02*
X7846428Y40607143D01*
X7917857Y40750000D01*
X8060714Y40821429D01*
X8275000Y40821429D01*
X8417857Y40750000D01*
X8489285Y40678572D01*
X7346428Y40821429D02*
X6775000Y40821429D01*
X7132142Y41321429D02*
X7132142Y40035715D01*
X7060714Y39892858D01*
X6917857Y39821429D01*
X6775000Y39821429D01*
D11*
%TO.C,D58*%
X48000000Y-31000000D02*
X48000000Y-32000000D01*
X47900000Y-31500000D02*
X47000000Y-31000000D01*
X47000000Y-32000000D02*
X47900000Y-31500000D01*
X47000000Y-31000000D02*
X47000000Y-32000000D01*
X44800000Y-30750000D02*
X44800000Y-32250000D01*
X50200000Y-30750000D02*
X50200000Y-32250000D01*
X44800000Y-30750000D02*
X50200000Y-30750000D01*
X50200000Y-32250000D02*
X44800000Y-32250000D01*
%TO.C,D57*%
X28999984Y-31000000D02*
X28999984Y-32000000D01*
X28899984Y-31500000D02*
X27999984Y-31000000D01*
X27999984Y-32000000D02*
X28899984Y-31500000D01*
X27999984Y-31000000D02*
X27999984Y-32000000D01*
X25799984Y-30750000D02*
X25799984Y-32250000D01*
X31199984Y-30750000D02*
X31199984Y-32250000D01*
X25799984Y-30750000D02*
X31199984Y-30750000D01*
X31199984Y-32250000D02*
X25799984Y-32250000D01*
%TO.C,D56*%
X10000000Y-31000000D02*
X10000000Y-32000000D01*
X9900000Y-31500000D02*
X9000000Y-31000000D01*
X9000000Y-32000000D02*
X9900000Y-31500000D01*
X9000000Y-31000000D02*
X9000000Y-32000000D01*
X6800000Y-30750000D02*
X6800000Y-32250000D01*
X12200000Y-30750000D02*
X12200000Y-32250000D01*
X6800000Y-30750000D02*
X12200000Y-30750000D01*
X12200000Y-32250000D02*
X6800000Y-32250000D01*
%TO.C,D55*%
X-12577499Y-34102783D02*
X-12235479Y-35042475D01*
X-12500458Y-34606831D02*
X-13517191Y-34444803D01*
X-13175171Y-35384495D02*
X-12500458Y-34606831D01*
X-13517191Y-34444803D02*
X-13175171Y-35384495D01*
X-15670020Y-34962324D02*
X-15156990Y-36371863D01*
X-10595680Y-33115415D02*
X-10082650Y-34524954D01*
X-15670020Y-34962324D02*
X-10595680Y-33115415D01*
X-10082650Y-34524954D02*
X-15156990Y-36371863D01*
%TO.C,D48*%
X95500000Y-24500000D02*
X95500000Y-25500000D01*
X95400000Y-25000000D02*
X94500000Y-24500000D01*
X94500000Y-25500000D02*
X95400000Y-25000000D01*
X94500000Y-24500000D02*
X94500000Y-25500000D01*
X92300000Y-24250000D02*
X92300000Y-25750000D01*
X97700000Y-24250000D02*
X97700000Y-25750000D01*
X92300000Y-24250000D02*
X97700000Y-24250000D01*
X97700000Y-25750000D02*
X92300000Y-25750000D01*
%TO.C,D47*%
X76500000Y-20000000D02*
X76500000Y-21000000D01*
X76400000Y-20500000D02*
X75500000Y-20000000D01*
X75500000Y-21000000D02*
X76400000Y-20500000D01*
X75500000Y-20000000D02*
X75500000Y-21000000D01*
X73300000Y-19750000D02*
X73300000Y-21250000D01*
X78700000Y-19750000D02*
X78700000Y-21250000D01*
X73300000Y-19750000D02*
X78700000Y-19750000D01*
X78700000Y-21250000D02*
X73300000Y-21250000D01*
%TO.C,D46*%
X57500000Y-11000000D02*
X57500000Y-12000000D01*
X57400000Y-11500000D02*
X56500000Y-11000000D01*
X56500000Y-12000000D02*
X57400000Y-11500000D01*
X56500000Y-11000000D02*
X56500000Y-12000000D01*
X54300000Y-10750000D02*
X54300000Y-12250000D01*
X59700000Y-10750000D02*
X59700000Y-12250000D01*
X54300000Y-10750000D02*
X59700000Y-10750000D01*
X59700000Y-12250000D02*
X54300000Y-12250000D01*
%TO.C,D45*%
X38500000Y-8000000D02*
X38500000Y-9000000D01*
X38400000Y-8500000D02*
X37500000Y-8000000D01*
X37500000Y-9000000D02*
X38400000Y-8500000D01*
X37500000Y-8000000D02*
X37500000Y-9000000D01*
X35300000Y-7750000D02*
X35300000Y-9250000D01*
X40700000Y-7750000D02*
X40700000Y-9250000D01*
X35300000Y-7750000D02*
X40700000Y-7750000D01*
X40700000Y-9250000D02*
X35300000Y-9250000D01*
%TO.C,D44*%
X19500000Y-11000000D02*
X19500000Y-12000000D01*
X19400000Y-11500000D02*
X18500000Y-11000000D01*
X18500000Y-12000000D02*
X19400000Y-11500000D01*
X18500000Y-11000000D02*
X18500000Y-12000000D01*
X16300000Y-10750000D02*
X16300000Y-12250000D01*
X21700000Y-10750000D02*
X21700000Y-12250000D01*
X16300000Y-10750000D02*
X21700000Y-10750000D01*
X21700000Y-12250000D02*
X16300000Y-12250000D01*
%TO.C,D43*%
X499998Y-13000003D02*
X499998Y-14000003D01*
X399998Y-13500003D02*
X-500002Y-13000003D01*
X-500002Y-14000003D02*
X399998Y-13500003D01*
X-500002Y-13000003D02*
X-500002Y-14000003D01*
X-2700002Y-12750003D02*
X-2700002Y-14250003D01*
X2699998Y-12750003D02*
X2699998Y-14250003D01*
X-2700002Y-12750003D02*
X2699998Y-12750003D01*
X2699998Y-14250003D02*
X-2700002Y-14250003D01*
%TO.C,D36*%
X95500000Y-6500000D02*
X95500000Y-7500000D01*
X95400000Y-7000000D02*
X94500000Y-6500000D01*
X94500000Y-7500000D02*
X95400000Y-7000000D01*
X94500000Y-6500000D02*
X94500000Y-7500000D01*
X92300000Y-6250000D02*
X92300000Y-7750000D01*
X97700000Y-6250000D02*
X97700000Y-7750000D01*
X92300000Y-6250000D02*
X97700000Y-6250000D01*
X97700000Y-7750000D02*
X92300000Y-7750000D01*
%TO.C,D35*%
X76500000Y-2000000D02*
X76500000Y-3000000D01*
X76400000Y-2500000D02*
X75500000Y-2000000D01*
X75500000Y-3000000D02*
X76400000Y-2500000D01*
X75500000Y-2000000D02*
X75500000Y-3000000D01*
X73300000Y-1750000D02*
X73300000Y-3250000D01*
X78700000Y-1750000D02*
X78700000Y-3250000D01*
X73300000Y-1750000D02*
X78700000Y-1750000D01*
X78700000Y-3250000D02*
X73300000Y-3250000D01*
%TO.C,D34*%
X57500000Y7000000D02*
X57500000Y6000000D01*
X57400000Y6500000D02*
X56500000Y7000000D01*
X56500000Y6000000D02*
X57400000Y6500000D01*
X56500000Y7000000D02*
X56500000Y6000000D01*
X54300000Y7250000D02*
X54300000Y5750000D01*
X59700000Y7250000D02*
X59700000Y5750000D01*
X54300000Y7250000D02*
X59700000Y7250000D01*
X59700000Y5750000D02*
X54300000Y5750000D01*
%TO.C,D33*%
X38500000Y10000000D02*
X38500000Y9000000D01*
X38400000Y9500000D02*
X37500000Y10000000D01*
X37500000Y9000000D02*
X38400000Y9500000D01*
X37500000Y10000000D02*
X37500000Y9000000D01*
X35300000Y10250000D02*
X35300000Y8750000D01*
X40700000Y10250000D02*
X40700000Y8750000D01*
X35300000Y10250000D02*
X40700000Y10250000D01*
X40700000Y8750000D02*
X35300000Y8750000D01*
%TO.C,D32*%
X19500000Y7025000D02*
X19500000Y6025000D01*
X19400000Y6525000D02*
X18500000Y7025000D01*
X18500000Y6025000D02*
X19400000Y6525000D01*
X18500000Y7025000D02*
X18500000Y6025000D01*
X16300000Y7275000D02*
X16300000Y5775000D01*
X21700000Y7275000D02*
X21700000Y5775000D01*
X16300000Y7275000D02*
X21700000Y7275000D01*
X21700000Y5775000D02*
X16300000Y5775000D01*
%TO.C,D31*%
X499998Y4999997D02*
X499998Y3999997D01*
X399998Y4499997D02*
X-500002Y4999997D01*
X-500002Y3999997D02*
X399998Y4499997D01*
X-500002Y4999997D02*
X-500002Y3999997D01*
X-2700002Y5249997D02*
X-2700002Y3749997D01*
X2699998Y5249997D02*
X2699998Y3749997D01*
X-2700002Y5249997D02*
X2699998Y5249997D01*
X2699998Y3749997D02*
X-2700002Y3749997D01*
%TO.C,D24*%
X95500000Y11500000D02*
X95500000Y10500000D01*
X95400000Y11000000D02*
X94500000Y11500000D01*
X94500000Y10500000D02*
X95400000Y11000000D01*
X94500000Y11500000D02*
X94500000Y10500000D01*
X92300000Y11750000D02*
X92300000Y10250000D01*
X97700000Y11750000D02*
X97700000Y10250000D01*
X92300000Y11750000D02*
X97700000Y11750000D01*
X97700000Y10250000D02*
X92300000Y10250000D01*
%TO.C,D23*%
X76550000Y16000000D02*
X76550000Y15000000D01*
X76450000Y15500000D02*
X75550000Y16000000D01*
X75550000Y15000000D02*
X76450000Y15500000D01*
X75550000Y16000000D02*
X75550000Y15000000D01*
X73350000Y16250000D02*
X73350000Y14750000D01*
X78750000Y16250000D02*
X78750000Y14750000D01*
X73350000Y16250000D02*
X78750000Y16250000D01*
X78750000Y14750000D02*
X73350000Y14750000D01*
%TO.C,D22*%
X57500000Y25000000D02*
X57500000Y24000000D01*
X57400000Y24500000D02*
X56500000Y25000000D01*
X56500000Y24000000D02*
X57400000Y24500000D01*
X56500000Y25000000D02*
X56500000Y24000000D01*
X54300000Y25250000D02*
X54300000Y23750000D01*
X59700000Y25250000D02*
X59700000Y23750000D01*
X54300000Y25250000D02*
X59700000Y25250000D01*
X59700000Y23750000D02*
X54300000Y23750000D01*
%TO.C,D21*%
X37500000Y27000000D02*
X37500000Y28000000D01*
X37600000Y27500000D02*
X38500000Y27000000D01*
X38500000Y28000000D02*
X37600000Y27500000D01*
X38500000Y27000000D02*
X38500000Y28000000D01*
X40700000Y26750000D02*
X40700000Y28250000D01*
X35300000Y26750000D02*
X35300000Y28250000D01*
X40700000Y26750000D02*
X35300000Y26750000D01*
X35300000Y28250000D02*
X40700000Y28250000D01*
%TO.C,D20*%
X19500000Y25000000D02*
X19500000Y24000000D01*
X19400000Y24500000D02*
X18500000Y25000000D01*
X18500000Y24000000D02*
X19400000Y24500000D01*
X18500000Y25000000D02*
X18500000Y24000000D01*
X16300000Y25250000D02*
X16300000Y23750000D01*
X21700000Y25250000D02*
X21700000Y23750000D01*
X16300000Y25250000D02*
X21700000Y25250000D01*
X21700000Y23750000D02*
X16300000Y23750000D01*
%TO.C,D19*%
X500000Y23000000D02*
X500000Y22000000D01*
X400000Y22500000D02*
X-500000Y23000000D01*
X-500000Y22000000D02*
X400000Y22500000D01*
X-500000Y23000000D02*
X-500000Y22000000D01*
X-2700000Y23250000D02*
X-2700000Y21750000D01*
X2700000Y23250000D02*
X2700000Y21750000D01*
X-2700000Y23250000D02*
X2700000Y23250000D01*
X2700000Y21750000D02*
X-2700000Y21750000D01*
%TO.C,D12*%
X95500000Y29500000D02*
X95500000Y28500000D01*
X95400000Y29000000D02*
X94500000Y29500000D01*
X94500000Y28500000D02*
X95400000Y29000000D01*
X94500000Y29500000D02*
X94500000Y28500000D01*
X92300000Y29750000D02*
X92300000Y28250000D01*
X97700000Y29750000D02*
X97700000Y28250000D01*
X92300000Y29750000D02*
X97700000Y29750000D01*
X97700000Y28250000D02*
X92300000Y28250000D01*
%TO.C,D11*%
X76500000Y34000000D02*
X76500000Y33000000D01*
X76400000Y33500000D02*
X75500000Y34000000D01*
X75500000Y33000000D02*
X76400000Y33500000D01*
X75500000Y34000000D02*
X75500000Y33000000D01*
X73300000Y34250000D02*
X73300000Y32750000D01*
X78700000Y34250000D02*
X78700000Y32750000D01*
X73300000Y34250000D02*
X78700000Y34250000D01*
X78700000Y32750000D02*
X73300000Y32750000D01*
%TO.C,D10*%
X57500000Y43000000D02*
X57500000Y42000000D01*
X57400000Y42500000D02*
X56500000Y43000000D01*
X56500000Y42000000D02*
X57400000Y42500000D01*
X56500000Y43000000D02*
X56500000Y42000000D01*
X54300000Y43250000D02*
X54300000Y41750000D01*
X59700000Y43250000D02*
X59700000Y41750000D01*
X54300000Y43250000D02*
X59700000Y43250000D01*
X59700000Y41750000D02*
X54300000Y41750000D01*
%TO.C,D9*%
X37500000Y45000000D02*
X37500000Y46000000D01*
X37600000Y45500000D02*
X38500000Y45000000D01*
X38500000Y46000000D02*
X37600000Y45500000D01*
X38500000Y45000000D02*
X38500000Y46000000D01*
X40700000Y44750000D02*
X40700000Y46250000D01*
X35300000Y44750000D02*
X35300000Y46250000D01*
X40700000Y44750000D02*
X35300000Y44750000D01*
X35300000Y46250000D02*
X40700000Y46250000D01*
%TO.C,D8*%
X19500000Y43000000D02*
X19500000Y42000000D01*
X19400000Y42500000D02*
X18500000Y43000000D01*
X18500000Y42000000D02*
X19400000Y42500000D01*
X18500000Y43000000D02*
X18500000Y42000000D01*
X16300000Y43250000D02*
X16300000Y41750000D01*
X21700000Y43250000D02*
X21700000Y41750000D01*
X16300000Y43250000D02*
X21700000Y43250000D01*
X21700000Y41750000D02*
X16300000Y41750000D01*
%TO.C,D7*%
X500000Y41000000D02*
X500000Y40000000D01*
X400000Y40500000D02*
X-500000Y41000000D01*
X-500000Y40000000D02*
X400000Y40500000D01*
X-500000Y41000000D02*
X-500000Y40000000D01*
X-2700000Y41250000D02*
X-2700000Y39750000D01*
X2700000Y41250000D02*
X2700000Y39750000D01*
X-2700000Y41250000D02*
X2700000Y41250000D01*
X2700000Y39750000D02*
X-2700000Y39750000D01*
%TO.C,SW20*%
X11725000Y18625000D02*
X11725000Y17968000D01*
X21275000Y11775000D02*
X16725000Y11775000D01*
X21275000Y16425000D02*
X18725000Y16425000D01*
X15500000Y13975000D02*
X11725000Y13975000D01*
X16425000Y18625000D02*
X11725000Y18625000D01*
X21300000Y16400000D02*
X21300000Y15682000D01*
X21300000Y15682000D02*
X21300000Y15682000D01*
X21300000Y12380000D02*
X21300000Y11800000D01*
X16720000Y12500000D02*
X16720000Y11800000D01*
X11725000Y14666000D02*
X11725000Y13975000D01*
X16720000Y12550000D02*
G75*
G03*
X15500000Y13970000I-1320000J100000D01*
G01*
X16430000Y18600000D02*
G75*
G03*
X18800000Y16430000I2270000J100000D01*
G01*
%TO.C,SW8*%
X16720000Y30500002D02*
X16720000Y29800002D01*
X15500000Y31975002D02*
X11725000Y31975002D01*
X21300000Y33682002D02*
X21300000Y33682002D01*
X21275000Y34425002D02*
X18725000Y34425002D01*
X11725000Y36625002D02*
X11725000Y35968002D01*
X21275000Y29775002D02*
X16725000Y29775002D01*
X11725000Y32666002D02*
X11725000Y31975002D01*
X21300000Y34400002D02*
X21300000Y33682002D01*
X16425000Y36625002D02*
X11725000Y36625002D01*
X21300000Y30380002D02*
X21300000Y29800002D01*
X16720000Y30550002D02*
G75*
G03*
X15500000Y31970002I-1320000J100000D01*
G01*
X16430000Y36600002D02*
G75*
G03*
X18800000Y34430002I2270000J100000D01*
G01*
%TO.C,SW11*%
X72500000Y22975000D02*
X68725000Y22975000D01*
X78300000Y21380000D02*
X78300000Y20800000D01*
X73720000Y21500000D02*
X73720000Y20800000D01*
X78300000Y24682000D02*
X78300000Y24682000D01*
X73425000Y27625000D02*
X68725000Y27625000D01*
X68725000Y27625000D02*
X68725000Y26968000D01*
X78275000Y20775000D02*
X73725000Y20775000D01*
X78275000Y25425000D02*
X75725000Y25425000D01*
X68725000Y23666000D02*
X68725000Y22975000D01*
X78300000Y25400000D02*
X78300000Y24682000D01*
X73720000Y21550000D02*
G75*
G03*
X72500000Y22970000I-1320000J100000D01*
G01*
X73430000Y27600000D02*
G75*
G03*
X75800000Y25430000I2270000J100000D01*
G01*
%TO.C,SW12*%
X97300000Y20900000D02*
X97300000Y20182000D01*
X97300000Y20182000D02*
X97300000Y20182000D01*
X92425000Y23125000D02*
X87725000Y23125000D01*
X92720000Y17000000D02*
X92720000Y16300000D01*
X87725000Y23125000D02*
X87725000Y22468000D01*
X91500000Y18475000D02*
X87725000Y18475000D01*
X97300000Y16880000D02*
X97300000Y16300000D01*
X87725000Y19166000D02*
X87725000Y18475000D01*
X97275000Y20925000D02*
X94725000Y20925000D01*
X97275000Y16275000D02*
X92725000Y16275000D01*
X92720000Y17050000D02*
G75*
G03*
X91500000Y18470000I-1320000J100000D01*
G01*
X92430000Y23100000D02*
G75*
G03*
X94800000Y20930000I2270000J100000D01*
G01*
%TO.C,SW7*%
X2275000Y27775000D02*
X-2275000Y27775000D01*
X2300000Y28380000D02*
X2300000Y27800000D01*
X-2280000Y28500000D02*
X-2280000Y27800000D01*
X2300000Y31682000D02*
X2300000Y31682000D01*
X-7275000Y30666000D02*
X-7275000Y29975000D01*
X-3500000Y29975000D02*
X-7275000Y29975000D01*
X2275000Y32425000D02*
X-275000Y32425000D01*
X2300000Y32400000D02*
X2300000Y31682000D01*
X-2575000Y34625000D02*
X-7275000Y34625000D01*
X-7275000Y34625000D02*
X-7275000Y33968000D01*
X-2570000Y34600000D02*
G75*
G03*
X-200000Y32430000I2270000J100000D01*
G01*
X-2280000Y28550000D02*
G75*
G03*
X-3500000Y29970000I-1320000J100000D01*
G01*
%TO.C,SW22*%
X49725000Y18625000D02*
X49725000Y17968000D01*
X59300000Y15682000D02*
X59300000Y15682000D01*
X53500000Y13975000D02*
X49725000Y13975000D01*
X54720000Y12500000D02*
X54720000Y11800000D01*
X59275000Y11775000D02*
X54725000Y11775000D01*
X59300000Y12380000D02*
X59300000Y11800000D01*
X49725000Y14666000D02*
X49725000Y13975000D01*
X59300000Y16400000D02*
X59300000Y15682000D01*
X54425000Y18625000D02*
X49725000Y18625000D01*
X59275000Y16425000D02*
X56725000Y16425000D01*
X54720000Y12550000D02*
G75*
G03*
X53500000Y13970000I-1320000J100000D01*
G01*
X54430000Y18600000D02*
G75*
G03*
X56800000Y16430000I2270000J100000D01*
G01*
%TO.C,SW58*%
X49800000Y-39600000D02*
X49800000Y-40318000D01*
X44925000Y-37375000D02*
X40225000Y-37375000D01*
X49800000Y-43620000D02*
X49800000Y-44200000D01*
X45220000Y-43500000D02*
X45220000Y-44200000D01*
X44000000Y-42025000D02*
X40225000Y-42025000D01*
X40225000Y-37375000D02*
X40225000Y-38032000D01*
X49775000Y-39575000D02*
X47225000Y-39575000D01*
X49775000Y-44225000D02*
X45225000Y-44225000D01*
X40225000Y-41334000D02*
X40225000Y-42025000D01*
X49800000Y-40318000D02*
X49800000Y-40318000D01*
X45220000Y-43450000D02*
G75*
G03*
X44000000Y-42030000I-1320000J100000D01*
G01*
X44930000Y-37400000D02*
G75*
G03*
X47300000Y-39570000I2270000J100000D01*
G01*
%TO.C,SW44*%
X21300000Y-23620000D02*
X21300000Y-24200000D01*
X11725000Y-17375000D02*
X11725000Y-18032000D01*
X21300000Y-19600000D02*
X21300000Y-20318000D01*
X16425000Y-17375000D02*
X11725000Y-17375000D01*
X16720000Y-23500000D02*
X16720000Y-24200000D01*
X11725000Y-21334000D02*
X11725000Y-22025000D01*
X21275000Y-19575000D02*
X18725000Y-19575000D01*
X21300000Y-20318000D02*
X21300000Y-20318000D01*
X21275000Y-24225000D02*
X16725000Y-24225000D01*
X15500000Y-22025000D02*
X11725000Y-22025000D01*
X16720000Y-23450000D02*
G75*
G03*
X15500000Y-22030000I-1320000J100000D01*
G01*
X16430000Y-17400000D02*
G75*
G03*
X18800000Y-19570000I2270000J100000D01*
G01*
%TO.C,SW36*%
X92425000Y-12875000D02*
X87725000Y-12875000D01*
X92720000Y-19000000D02*
X92720000Y-19700000D01*
X97275000Y-19725000D02*
X92725000Y-19725000D01*
X97300000Y-19120000D02*
X97300000Y-19700000D01*
X91500000Y-17525000D02*
X87725000Y-17525000D01*
X97275000Y-15075000D02*
X94725000Y-15075000D01*
X97300000Y-15818000D02*
X97300000Y-15818000D01*
X97300000Y-15100000D02*
X97300000Y-15818000D01*
X87725000Y-12875000D02*
X87725000Y-13532000D01*
X87725000Y-16834000D02*
X87725000Y-17525000D01*
X92430000Y-12900000D02*
G75*
G03*
X94800000Y-15070000I2270000J100000D01*
G01*
X92720000Y-18950000D02*
G75*
G03*
X91500000Y-17530000I-1320000J100000D01*
G01*
%TO.C,SW34*%
X59275000Y-6225000D02*
X54725000Y-6225000D01*
X59275000Y-1575000D02*
X56725000Y-1575000D01*
X49725000Y625000D02*
X49725000Y-32000D01*
X53500000Y-4025000D02*
X49725000Y-4025000D01*
X59300000Y-5620000D02*
X59300000Y-6200000D01*
X49725000Y-3334000D02*
X49725000Y-4025000D01*
X54720000Y-5500000D02*
X54720000Y-6200000D01*
X54425000Y625000D02*
X49725000Y625000D01*
X59300000Y-1600000D02*
X59300000Y-2318000D01*
X59300000Y-2318000D02*
X59300000Y-2318000D01*
X54430000Y600000D02*
G75*
G03*
X56800000Y-1570000I2270000J100000D01*
G01*
X54720000Y-5450000D02*
G75*
G03*
X53500000Y-4030000I-1320000J100000D01*
G01*
%TO.C,SW55*%
X-6702513Y-45337811D02*
X-6504142Y-45882833D01*
X-12698253Y-45822719D02*
X-16245592Y-47113845D01*
X-11047348Y-46791501D02*
X-10807934Y-47449285D01*
X-7831864Y-42234946D02*
X-7831864Y-42234946D01*
X-16481928Y-46464517D02*
X-16245592Y-47113845D01*
X-8109477Y-41545305D02*
X-10505693Y-42417457D01*
X-6519084Y-45914876D02*
X-10794685Y-47471068D01*
X-8077434Y-41560247D02*
X-7831864Y-42234946D01*
X-17835986Y-42744274D02*
X-17611279Y-43361652D01*
X-13419431Y-41136779D02*
X-17835986Y-42744274D01*
X-13406183Y-41158561D02*
G75*
G03*
X-10436927Y-42387107I2098901J870355D01*
G01*
X-11064449Y-46744516D02*
G75*
G03*
X-12696543Y-45827417I-1274596J-357497D01*
G01*
%TO.C,SW9*%
X30725000Y39624997D02*
X30725000Y38967997D01*
X35720000Y33499997D02*
X35720000Y32799997D01*
X30725000Y35665997D02*
X30725000Y34974997D01*
X34500000Y34974997D02*
X30725000Y34974997D01*
X40275000Y32774997D02*
X35725000Y32774997D01*
X40300000Y33379997D02*
X40300000Y32799997D01*
X40275000Y37424997D02*
X37725000Y37424997D01*
X40300000Y37399997D02*
X40300000Y36681997D01*
X35425000Y39624997D02*
X30725000Y39624997D01*
X40300000Y36681997D02*
X40300000Y36681997D01*
X35720000Y33549997D02*
G75*
G03*
X34500000Y34969997I-1320000J100000D01*
G01*
X35430000Y39599997D02*
G75*
G03*
X37800000Y37429997I2270000J100000D01*
G01*
%TO.C,SW21*%
X35720000Y15500000D02*
X35720000Y14800000D01*
X40300000Y18682000D02*
X40300000Y18682000D01*
X40275000Y14775000D02*
X35725000Y14775000D01*
X40300000Y15380000D02*
X40300000Y14800000D01*
X35425000Y21625000D02*
X30725000Y21625000D01*
X30725000Y21625000D02*
X30725000Y20968000D01*
X34500000Y16975000D02*
X30725000Y16975000D01*
X30725000Y17666000D02*
X30725000Y16975000D01*
X40300000Y19400000D02*
X40300000Y18682000D01*
X40275000Y19425000D02*
X37725000Y19425000D01*
X35720000Y15550000D02*
G75*
G03*
X34500000Y16970000I-1320000J100000D01*
G01*
X35430000Y21600000D02*
G75*
G03*
X37800000Y19430000I2270000J100000D01*
G01*
%TO.C,SW19*%
X-2575000Y16625000D02*
X-7275000Y16625000D01*
X2300000Y13682000D02*
X2300000Y13682000D01*
X2275000Y9775000D02*
X-2275000Y9775000D01*
X-7275000Y12666000D02*
X-7275000Y11975000D01*
X2275000Y14425000D02*
X-275000Y14425000D01*
X-2280000Y10500000D02*
X-2280000Y9800000D01*
X2300000Y14400000D02*
X2300000Y13682000D01*
X2300000Y10380000D02*
X2300000Y9800000D01*
X-3500000Y11975000D02*
X-7275000Y11975000D01*
X-7275000Y16625000D02*
X-7275000Y15968000D01*
X-2570000Y16600000D02*
G75*
G03*
X-200000Y14430000I2270000J100000D01*
G01*
X-2280000Y10550000D02*
G75*
G03*
X-3500000Y11970000I-1320000J100000D01*
G01*
%TO.C,SW45*%
X40275000Y-16575000D02*
X37725000Y-16575000D01*
X30725000Y-18334000D02*
X30725000Y-19025000D01*
X40300000Y-17318000D02*
X40300000Y-17318000D01*
X34500000Y-19025000D02*
X30725000Y-19025000D01*
X35425000Y-14375000D02*
X30725000Y-14375000D01*
X40300000Y-16600000D02*
X40300000Y-17318000D01*
X35720000Y-20500000D02*
X35720000Y-21200000D01*
X30725000Y-14375000D02*
X30725000Y-15032000D01*
X40300000Y-20620000D02*
X40300000Y-21200000D01*
X40275000Y-21225000D02*
X35725000Y-21225000D01*
X35430000Y-14400000D02*
G75*
G03*
X37800000Y-16570000I2270000J100000D01*
G01*
X35720000Y-20450000D02*
G75*
G03*
X34500000Y-19030000I-1320000J100000D01*
G01*
%TO.C,SW33*%
X35425000Y3625000D02*
X30725000Y3625000D01*
X40300000Y1400000D02*
X40300000Y682000D01*
X40300000Y-2620000D02*
X40300000Y-3200000D01*
X40275000Y-3225000D02*
X35725000Y-3225000D01*
X35720000Y-2500000D02*
X35720000Y-3200000D01*
X40300000Y682000D02*
X40300000Y682000D01*
X40275000Y1425000D02*
X37725000Y1425000D01*
X30725000Y3625000D02*
X30725000Y2968000D01*
X30725000Y-334000D02*
X30725000Y-1025000D01*
X34500000Y-1025000D02*
X30725000Y-1025000D01*
X35720000Y-2450000D02*
G75*
G03*
X34500000Y-1030000I-1320000J100000D01*
G01*
X35430000Y3600000D02*
G75*
G03*
X37800000Y1430000I2270000J100000D01*
G01*
%TO.C,SW24*%
X97275000Y2925000D02*
X94725000Y2925000D01*
X87725000Y5125000D02*
X87725000Y4468000D01*
X97300000Y2182000D02*
X97300000Y2182000D01*
X97300000Y2900000D02*
X97300000Y2182000D01*
X92425000Y5125000D02*
X87725000Y5125000D01*
X92720000Y-1000000D02*
X92720000Y-1700000D01*
X91500000Y475000D02*
X87725000Y475000D01*
X87725000Y1166000D02*
X87725000Y475000D01*
X97275000Y-1725000D02*
X92725000Y-1725000D01*
X97300000Y-1120000D02*
X97300000Y-1700000D01*
X92430000Y5100000D02*
G75*
G03*
X94800000Y2930000I2270000J100000D01*
G01*
X92720000Y-950000D02*
G75*
G03*
X91500000Y470000I-1320000J100000D01*
G01*
%TO.C,SW47*%
X78300000Y-32620000D02*
X78300000Y-33200000D01*
X68725000Y-26375000D02*
X68725000Y-27032000D01*
X78300000Y-29318000D02*
X78300000Y-29318000D01*
X73425000Y-26375000D02*
X68725000Y-26375000D01*
X68725000Y-30334000D02*
X68725000Y-31025000D01*
X73720000Y-32500000D02*
X73720000Y-33200000D01*
X72500000Y-31025000D02*
X68725000Y-31025000D01*
X78300000Y-28600000D02*
X78300000Y-29318000D01*
X78275000Y-28575000D02*
X75725000Y-28575000D01*
X78275000Y-33225000D02*
X73725000Y-33225000D01*
X73430000Y-26400000D02*
G75*
G03*
X75800000Y-28570000I2270000J100000D01*
G01*
X73720000Y-32450000D02*
G75*
G03*
X72500000Y-31030000I-1320000J100000D01*
G01*
%TO.C,SW32*%
X16720000Y-5500000D02*
X16720000Y-6200000D01*
X11725000Y-3334000D02*
X11725000Y-4025000D01*
X16425000Y625000D02*
X11725000Y625000D01*
X21300000Y-2318000D02*
X21300000Y-2318000D01*
X11725000Y625000D02*
X11725000Y-32000D01*
X21275000Y-6225000D02*
X16725000Y-6225000D01*
X15500000Y-4025000D02*
X11725000Y-4025000D01*
X21300000Y-5620000D02*
X21300000Y-6200000D01*
X21275000Y-1575000D02*
X18725000Y-1575000D01*
X21300000Y-1600000D02*
X21300000Y-2318000D01*
X16430000Y600000D02*
G75*
G03*
X18800000Y-1570000I2270000J100000D01*
G01*
X16720000Y-5450000D02*
G75*
G03*
X15500000Y-4030000I-1320000J100000D01*
G01*
%TO.C,SW10*%
X54425000Y36625000D02*
X49725000Y36625000D01*
X59300000Y30380000D02*
X59300000Y29800000D01*
X49725000Y36625000D02*
X49725000Y35968000D01*
X59300000Y34400000D02*
X59300000Y33682000D01*
X59275000Y34425000D02*
X56725000Y34425000D01*
X59275000Y29775000D02*
X54725000Y29775000D01*
X54720000Y30500000D02*
X54720000Y29800000D01*
X49725000Y32666000D02*
X49725000Y31975000D01*
X59300000Y33682000D02*
X59300000Y33682000D01*
X53500000Y31975000D02*
X49725000Y31975000D01*
X54430000Y36600000D02*
G75*
G03*
X56800000Y34430000I2270000J100000D01*
G01*
X54720000Y30550000D02*
G75*
G03*
X53500000Y31970000I-1320000J100000D01*
G01*
%TO.C,SW35*%
X78275000Y-15225000D02*
X73725000Y-15225000D01*
X78300000Y-14620000D02*
X78300000Y-15200000D01*
X73720000Y-14500000D02*
X73720000Y-15200000D01*
X78300000Y-11318000D02*
X78300000Y-11318000D01*
X78300000Y-10600000D02*
X78300000Y-11318000D01*
X72500000Y-13025000D02*
X68725000Y-13025000D01*
X78275000Y-10575000D02*
X75725000Y-10575000D01*
X68725000Y-12334000D02*
X68725000Y-13025000D01*
X68725000Y-8375000D02*
X68725000Y-9032000D01*
X73425000Y-8375000D02*
X68725000Y-8375000D01*
X73720000Y-14450000D02*
G75*
G03*
X72500000Y-13030000I-1320000J100000D01*
G01*
X73430000Y-8400000D02*
G75*
G03*
X75800000Y-10570000I2270000J100000D01*
G01*
%TO.C,SW43*%
X2300000Y-22318000D02*
X2300000Y-22318000D01*
X-7275000Y-23334000D02*
X-7275000Y-24025000D01*
X-2280000Y-25500000D02*
X-2280000Y-26200000D01*
X-3500000Y-24025000D02*
X-7275000Y-24025000D01*
X2300000Y-25620000D02*
X2300000Y-26200000D01*
X2275000Y-21575000D02*
X-275000Y-21575000D01*
X-2575000Y-19375000D02*
X-7275000Y-19375000D01*
X2275000Y-26225000D02*
X-2275000Y-26225000D01*
X-7275000Y-19375000D02*
X-7275000Y-20032000D01*
X2300000Y-21600000D02*
X2300000Y-22318000D01*
X-2280000Y-25450000D02*
G75*
G03*
X-3500000Y-24030000I-1320000J100000D01*
G01*
X-2570000Y-19400000D02*
G75*
G03*
X-200000Y-21570000I2270000J100000D01*
G01*
%TO.C,SW31*%
X-7275000Y-1375000D02*
X-7275000Y-2032000D01*
X-2280000Y-7500000D02*
X-2280000Y-8200000D01*
X2275000Y-8225000D02*
X-2275000Y-8225000D01*
X-7275000Y-5334000D02*
X-7275000Y-6025000D01*
X2300000Y-4318000D02*
X2300000Y-4318000D01*
X-3500000Y-6025000D02*
X-7275000Y-6025000D01*
X-2575000Y-1375000D02*
X-7275000Y-1375000D01*
X2300000Y-3600000D02*
X2300000Y-4318000D01*
X2275000Y-3575000D02*
X-275000Y-3575000D01*
X2300000Y-7620000D02*
X2300000Y-8200000D01*
X-2570000Y-1400000D02*
G75*
G03*
X-200000Y-3570000I2270000J100000D01*
G01*
X-2280000Y-7450000D02*
G75*
G03*
X-3500000Y-6030000I-1320000J100000D01*
G01*
%TO.C,SW23*%
X68725000Y9625000D02*
X68725000Y8968000D01*
X72500000Y4975000D02*
X68725000Y4975000D01*
X78300000Y3380000D02*
X78300000Y2800000D01*
X78275000Y2775000D02*
X73725000Y2775000D01*
X78300000Y7400000D02*
X78300000Y6682000D01*
X78275000Y7425000D02*
X75725000Y7425000D01*
X68725000Y5666000D02*
X68725000Y4975000D01*
X73720000Y3500000D02*
X73720000Y2800000D01*
X78300000Y6682000D02*
X78300000Y6682000D01*
X73425000Y9625000D02*
X68725000Y9625000D01*
X73720000Y3550000D02*
G75*
G03*
X72500000Y4970000I-1320000J100000D01*
G01*
X73430000Y9600000D02*
G75*
G03*
X75800000Y7430000I2270000J100000D01*
G01*
%TO.C,SW48*%
X97275000Y-33075000D02*
X94725000Y-33075000D01*
X91500000Y-35525000D02*
X87725000Y-35525000D01*
X92720000Y-37000000D02*
X92720000Y-37700000D01*
X87725000Y-30875000D02*
X87725000Y-31532000D01*
X97300000Y-33100000D02*
X97300000Y-33818000D01*
X97300000Y-33818000D02*
X97300000Y-33818000D01*
X92425000Y-30875000D02*
X87725000Y-30875000D01*
X97300000Y-37120000D02*
X97300000Y-37700000D01*
X87725000Y-34834000D02*
X87725000Y-35525000D01*
X97275000Y-37725000D02*
X92725000Y-37725000D01*
X92430000Y-30900000D02*
G75*
G03*
X94800000Y-33070000I2270000J100000D01*
G01*
X92720000Y-36950000D02*
G75*
G03*
X91500000Y-35530000I-1320000J100000D01*
G01*
%TO.C,SW46*%
X59300000Y-19600000D02*
X59300000Y-20318000D01*
X59275000Y-19575000D02*
X56725000Y-19575000D01*
X59300000Y-20318000D02*
X59300000Y-20318000D01*
X59300000Y-23620000D02*
X59300000Y-24200000D01*
X54425000Y-17375000D02*
X49725000Y-17375000D01*
X49725000Y-17375000D02*
X49725000Y-18032000D01*
X59275000Y-24225000D02*
X54725000Y-24225000D01*
X54720000Y-23500000D02*
X54720000Y-24200000D01*
X53500000Y-22025000D02*
X49725000Y-22025000D01*
X49725000Y-21334000D02*
X49725000Y-22025000D01*
X54430000Y-17400000D02*
G75*
G03*
X56800000Y-19570000I2270000J100000D01*
G01*
X54720000Y-23450000D02*
G75*
G03*
X53500000Y-22030000I-1320000J100000D01*
G01*
%TO.C,SW56*%
X2224996Y-37375000D02*
X2224996Y-38032000D01*
X11799996Y-39600000D02*
X11799996Y-40318000D01*
X2224996Y-41334000D02*
X2224996Y-42025000D01*
X11774996Y-39575000D02*
X9224996Y-39575000D01*
X11774996Y-44225000D02*
X7224996Y-44225000D01*
X5999996Y-42025000D02*
X2224996Y-42025000D01*
X7219996Y-43500000D02*
X7219996Y-44200000D01*
X6924996Y-37375000D02*
X2224996Y-37375000D01*
X11799996Y-40318000D02*
X11799996Y-40318000D01*
X11799996Y-43620000D02*
X11799996Y-44200000D01*
X7219996Y-43450000D02*
G75*
G03*
X5999996Y-42030000I-1320000J100000D01*
G01*
X6929996Y-37400000D02*
G75*
G03*
X9299996Y-39570000I2270000J100000D01*
G01*
%TO.C,SW57*%
X25925000Y-37375000D02*
X21225000Y-37375000D01*
X30775000Y-44225000D02*
X26225000Y-44225000D01*
X30775000Y-39575000D02*
X28225000Y-39575000D01*
X30800000Y-39600000D02*
X30800000Y-40318000D01*
X26220000Y-43500000D02*
X26220000Y-44200000D01*
X21225000Y-37375000D02*
X21225000Y-38032000D01*
X30800000Y-43620000D02*
X30800000Y-44200000D01*
X30800000Y-40318000D02*
X30800000Y-40318000D01*
X21225000Y-41334000D02*
X21225000Y-42025000D01*
X25000000Y-42025000D02*
X21225000Y-42025000D01*
X25930000Y-37400000D02*
G75*
G03*
X28300000Y-39570000I2270000J100000D01*
G01*
X26220000Y-43450000D02*
G75*
G03*
X25000000Y-42030000I-1320000J100000D01*
G01*
%TD*%
%LPC*%
D12*
%TO.C,D58*%
X49275000Y-31500000D03*
X45725000Y-31500000D03*
%TD*%
%TO.C,D57*%
X30274984Y-31500000D03*
X26724984Y-31500000D03*
%TD*%
%TO.C,D56*%
X11275000Y-31500000D03*
X7725000Y-31500000D03*
%TD*%
D13*
%TO.C,D55*%
X-11208381Y-34136553D03*
X-14544289Y-35350725D03*
%TD*%
D12*
%TO.C,D48*%
X96775000Y-25000000D03*
X93225000Y-25000000D03*
%TD*%
%TO.C,D47*%
X77775000Y-20500000D03*
X74225000Y-20500000D03*
%TD*%
%TO.C,D46*%
X58775000Y-11500000D03*
X55225000Y-11500000D03*
%TD*%
%TO.C,D45*%
X39775000Y-8500000D03*
X36225000Y-8500000D03*
%TD*%
%TO.C,D44*%
X20775000Y-11500000D03*
X17225000Y-11500000D03*
%TD*%
%TO.C,D43*%
X1774998Y-13500003D03*
X-1775002Y-13500003D03*
%TD*%
%TO.C,D36*%
X96775000Y-7000000D03*
X93225000Y-7000000D03*
%TD*%
%TO.C,D35*%
X77775000Y-2500000D03*
X74225000Y-2500000D03*
%TD*%
%TO.C,D34*%
X58775000Y6500000D03*
X55225000Y6500000D03*
%TD*%
%TO.C,D33*%
X39775000Y9500000D03*
X36225000Y9500000D03*
%TD*%
%TO.C,D32*%
X20775000Y6525000D03*
X17225000Y6525000D03*
%TD*%
%TO.C,D31*%
X1774998Y4499997D03*
X-1775002Y4499997D03*
%TD*%
%TO.C,D24*%
X96775000Y11000000D03*
X93225000Y11000000D03*
%TD*%
%TO.C,D23*%
X77825000Y15500000D03*
X74275000Y15500000D03*
%TD*%
%TO.C,D22*%
X58775000Y24500000D03*
X55225000Y24500000D03*
%TD*%
%TO.C,D21*%
X36225000Y27500000D03*
X39775000Y27500000D03*
%TD*%
%TO.C,D20*%
X20775000Y24500000D03*
X17225000Y24500000D03*
%TD*%
%TO.C,D19*%
X1775000Y22500000D03*
X-1775000Y22500000D03*
%TD*%
%TO.C,D12*%
X96775000Y29000000D03*
X93225000Y29000000D03*
%TD*%
%TO.C,D11*%
X77775000Y33500000D03*
X74225000Y33500000D03*
%TD*%
%TO.C,D10*%
X58775000Y42500000D03*
X55225000Y42500000D03*
%TD*%
%TO.C,D9*%
X36225000Y45500000D03*
X39775000Y45500000D03*
%TD*%
%TO.C,D8*%
X20775000Y42500000D03*
X17225000Y42500000D03*
%TD*%
%TO.C,D7*%
X1775000Y40500000D03*
X-1775000Y40500000D03*
%TD*%
D14*
%TO.C,SW17*%
X24000000Y16300000D03*
%TD*%
D15*
%TO.C,H1*%
X38000000Y-25000000D03*
%TD*%
D14*
%TO.C,SW29*%
X24000000Y-1700000D03*
%TD*%
%TO.C,SW51*%
X52500000Y-39700000D03*
%TD*%
%TO.C,SW15*%
X62000000Y16300000D03*
%TD*%
%TO.C,SW3*%
X62000000Y34300000D03*
%TD*%
%TO.C,SW4*%
X43000000Y37299997D03*
%TD*%
%TO.C,SW26*%
X81000000Y-10700000D03*
%TD*%
%TO.C,SW38*%
X81000000Y-28700000D03*
%TD*%
%TO.C,SW27*%
X62000000Y-1700000D03*
%TD*%
%TO.C,SW52*%
X33500000Y-39700000D03*
%TD*%
%TO.C,SW13*%
X100000000Y2800000D03*
%TD*%
%TO.C,SW5*%
X24000000Y34300002D03*
%TD*%
%TO.C,SW28*%
X43000000Y1300000D03*
%TD*%
%TO.C,SW1*%
X100000000Y20800000D03*
%TD*%
D15*
%TO.C,H2*%
X82000000Y-38000000D03*
%TD*%
D14*
%TO.C,SW42*%
X5000000Y-21700000D03*
%TD*%
%TO.C,SW14*%
X81000000Y7300000D03*
%TD*%
D15*
%TO.C,H3*%
X71000000Y41000000D03*
%TD*%
D14*
%TO.C,SW30*%
X5000000Y-3700000D03*
%TD*%
D16*
%TO.C,J1*%
X-3810000Y45349000D03*
X-1270000Y45349000D03*
X1270000Y45349000D03*
X3810000Y45349000D03*
%TD*%
D14*
%TO.C,SW53*%
X14499996Y-39700000D03*
%TD*%
D15*
%TO.C,H4*%
X-9000000Y5000000D03*
%TD*%
D14*
%TO.C,SW18*%
X5000000Y14300000D03*
%TD*%
%TO.C,SW40*%
X43000000Y-16700000D03*
%TD*%
%TO.C,SW41*%
X24000000Y-19700000D03*
%TD*%
%TO.C,SW39*%
X62000000Y-19700000D03*
%TD*%
%TO.C,SW6*%
X5000000Y32300000D03*
%TD*%
%TO.C,SW2*%
X81000000Y25300000D03*
%TD*%
%TO.C,SW25*%
X100000000Y-15200000D03*
%TD*%
%TO.C,SW16*%
X43000000Y19300000D03*
%TD*%
%TO.C,SW54*%
X-5506062Y-40730762D03*
%TD*%
%TO.C,SW37*%
X100000000Y-33200000D03*
%TD*%
%TO.C,SW20*%
X14000000Y16300000D03*
D17*
X24500000Y20000000D03*
D14*
X19000000Y14100000D03*
D17*
X13500000Y20000000D03*
D15*
X19000000Y20000000D03*
D18*
X10745000Y16300000D03*
X22302000Y14100000D03*
%TD*%
D14*
%TO.C,SW8*%
X19000000Y32100002D03*
D17*
X13500000Y38000002D03*
X24500000Y38000002D03*
D15*
X19000000Y38000002D03*
D14*
X14000000Y34300002D03*
D18*
X10745000Y34300002D03*
X22302000Y32100002D03*
%TD*%
D14*
%TO.C,SW11*%
X76000000Y23100000D03*
D15*
X76000000Y29000000D03*
D17*
X81500000Y29000000D03*
D14*
X71000000Y25300000D03*
D17*
X70500000Y29000000D03*
D18*
X67745000Y25300000D03*
X79302000Y23100000D03*
%TD*%
D14*
%TO.C,SW12*%
X95000000Y18600000D03*
D15*
X95000000Y24500000D03*
D17*
X89500000Y24500000D03*
X100500000Y24500000D03*
D14*
X90000000Y20800000D03*
D18*
X86745000Y20800000D03*
X98302000Y18600000D03*
%TD*%
D17*
%TO.C,SW7*%
X-5500000Y36000000D03*
D14*
X0Y30100000D03*
D17*
X5500000Y36000000D03*
D15*
X0Y36000000D03*
D14*
X-5000000Y32300000D03*
D18*
X-8255000Y32300000D03*
X3302000Y30100000D03*
%TD*%
D14*
%TO.C,SW22*%
X57000000Y14100000D03*
D17*
X62500000Y20000000D03*
D14*
X52000000Y16300000D03*
D15*
X57000000Y20000000D03*
D17*
X51500000Y20000000D03*
D18*
X48745000Y16300000D03*
X60302000Y14100000D03*
%TD*%
D15*
%TO.C,SW58*%
X47500000Y-36000000D03*
D17*
X53000000Y-36000000D03*
X42000000Y-36000000D03*
D14*
X47500000Y-41900000D03*
X42500000Y-39700000D03*
D18*
X39245000Y-39700000D03*
X50802000Y-41900000D03*
%TD*%
D17*
%TO.C,SW44*%
X24500000Y-16000000D03*
X13500000Y-16000000D03*
D15*
X19000000Y-16000000D03*
D14*
X14000000Y-19700000D03*
X19000000Y-21900000D03*
D18*
X10745000Y-19700000D03*
X22302000Y-21900000D03*
%TD*%
D14*
%TO.C,SW36*%
X95000000Y-17400000D03*
X90000000Y-15200000D03*
D17*
X89500000Y-11500000D03*
X100500000Y-11500000D03*
D15*
X95000000Y-11500000D03*
D18*
X86745000Y-15200000D03*
X98302000Y-17400000D03*
%TD*%
D17*
%TO.C,SW34*%
X51500000Y2000000D03*
D14*
X57000000Y-3900000D03*
D15*
X57000000Y2000000D03*
D14*
X52000000Y-1700000D03*
D17*
X62500000Y2000000D03*
D18*
X48745000Y-1700000D03*
X60302000Y-3900000D03*
%TD*%
D17*
%TO.C,SW55*%
X-6301691Y-37082889D03*
D14*
X-9452081Y-44508186D03*
D15*
X-11470000Y-38964000D03*
D14*
X-14902989Y-44150963D03*
D17*
X-16638309Y-40845111D03*
D19*
X-17961688Y-45264239D03*
X-6349216Y-43378836D03*
%TD*%
D14*
%TO.C,SW9*%
X38000000Y35099997D03*
D17*
X43500000Y40999997D03*
D15*
X38000000Y40999997D03*
D14*
X33000000Y37299997D03*
D17*
X32500000Y40999997D03*
D18*
X29745000Y37299997D03*
X41302000Y35099997D03*
%TD*%
D17*
%TO.C,SW21*%
X32500000Y23000000D03*
D14*
X33000000Y19300000D03*
D15*
X38000000Y23000000D03*
D14*
X38000000Y17100000D03*
D17*
X43500000Y23000000D03*
D18*
X29745000Y19300000D03*
X41302000Y17100000D03*
%TD*%
D17*
%TO.C,SW19*%
X-5500000Y18000000D03*
D14*
X-5000000Y14300000D03*
X0Y12100000D03*
D17*
X5500000Y18000000D03*
D15*
X0Y18000000D03*
D18*
X-8255000Y14300000D03*
X3302000Y12100000D03*
%TD*%
D17*
%TO.C,SW45*%
X32500000Y-13000000D03*
X43500000Y-13000000D03*
D14*
X33000000Y-16700000D03*
X38000000Y-18900000D03*
D15*
X38000000Y-13000000D03*
D18*
X29745000Y-16700000D03*
X41302000Y-18900000D03*
%TD*%
D15*
%TO.C,SW33*%
X38000000Y5000000D03*
D17*
X32500000Y5000000D03*
D14*
X38000000Y-900000D03*
X33000000Y1300000D03*
D17*
X43500000Y5000000D03*
D18*
X29745000Y1300000D03*
X41302000Y-900000D03*
%TD*%
D14*
%TO.C,SW24*%
X95000000Y600000D03*
D17*
X100500000Y6500000D03*
X89500000Y6500000D03*
D15*
X95000000Y6500000D03*
D14*
X90000000Y2800000D03*
D18*
X86745000Y2800000D03*
X98302000Y600000D03*
%TD*%
D15*
%TO.C,SW47*%
X76000000Y-25000000D03*
D14*
X71000000Y-28700000D03*
D17*
X81500000Y-25000000D03*
X70500000Y-25000000D03*
D14*
X76000000Y-30900000D03*
D18*
X67745000Y-28700000D03*
X79302000Y-30900000D03*
%TD*%
D17*
%TO.C,SW32*%
X13500000Y2000000D03*
D15*
X19000000Y2000000D03*
D17*
X24500000Y2000000D03*
D14*
X19000000Y-3900000D03*
X14000000Y-1700000D03*
D18*
X10745000Y-1700000D03*
X22302000Y-3900000D03*
%TD*%
D17*
%TO.C,SW10*%
X51500000Y38000000D03*
D15*
X57000000Y38000000D03*
D14*
X52000000Y34300000D03*
D17*
X62500000Y38000000D03*
D14*
X57000000Y32100000D03*
D18*
X48745000Y34300000D03*
X60302000Y32100000D03*
%TD*%
D17*
%TO.C,SW35*%
X81500000Y-7000000D03*
X70500000Y-7000000D03*
D14*
X76000000Y-12900000D03*
X71000000Y-10700000D03*
D15*
X76000000Y-7000000D03*
D18*
X67745000Y-10700000D03*
X79302000Y-12900000D03*
%TD*%
D17*
%TO.C,SW43*%
X-5500000Y-18000000D03*
X5500000Y-18000000D03*
D15*
X0Y-18000000D03*
D14*
X-5000000Y-21700000D03*
X0Y-23900000D03*
D18*
X-8255000Y-21700000D03*
X3302000Y-23900000D03*
%TD*%
D17*
%TO.C,SW31*%
X5500000Y0D03*
D14*
X0Y-5900000D03*
D15*
X0Y0D03*
D17*
X-5500000Y0D03*
D14*
X-5000000Y-3700000D03*
D18*
X-8255000Y-3700000D03*
X3302000Y-5900000D03*
%TD*%
D17*
%TO.C,SW23*%
X70500000Y11000000D03*
D14*
X71000000Y7300000D03*
D15*
X76000000Y11000000D03*
D17*
X81500000Y11000000D03*
D14*
X76000000Y5100000D03*
D18*
X67745000Y7300000D03*
X79302000Y5100000D03*
%TD*%
D15*
%TO.C,SW48*%
X95000000Y-29500000D03*
D14*
X95000000Y-35400000D03*
D17*
X89500000Y-29500000D03*
X100500000Y-29500000D03*
D14*
X90000000Y-33200000D03*
D18*
X86745000Y-33200000D03*
X98302000Y-35400000D03*
%TD*%
D14*
%TO.C,SW46*%
X52000000Y-19700000D03*
D15*
X57000000Y-16000000D03*
D17*
X62500000Y-16000000D03*
D14*
X57000000Y-21900000D03*
D17*
X51500000Y-16000000D03*
D18*
X48745000Y-19700000D03*
X60302000Y-21900000D03*
%TD*%
D15*
%TO.C,SW56*%
X9499996Y-36000000D03*
D17*
X3999996Y-36000000D03*
D14*
X4499996Y-39700000D03*
X9499996Y-41900000D03*
D17*
X14999996Y-36000000D03*
D18*
X1244996Y-39700000D03*
X12801996Y-41900000D03*
%TD*%
D17*
%TO.C,SW57*%
X23000000Y-36000000D03*
X34000000Y-36000000D03*
D14*
X28500000Y-41900000D03*
X23500000Y-39700000D03*
D15*
X28500000Y-36000000D03*
D18*
X20245000Y-39700000D03*
X31802000Y-41900000D03*
%TD*%
M02*
