%TF.GenerationSoftware,KiCad,Pcbnew,(6.0.11-0)*%
%TF.CreationDate,2023-01-30T19:33:05+08:00*%
%TF.ProjectId,V4,56342e6b-6963-4616-945f-706362585858,rev?*%
%TF.SameCoordinates,PX90f5600PY5e69ec0*%
%TF.FileFunction,Legend,Top*%
%TF.FilePolarity,Positive*%
%FSLAX46Y46*%
G04 Gerber Fmt 4.6, Leading zero omitted, Abs format (unit mm)*
G04 Created by KiCad (PCBNEW (6.0.11-0)) date 2023-01-30 19:33:05*
%MOMM*%
%LPD*%
G01*
G04 APERTURE LIST*
G04 Aperture macros list*
%AMRoundRect*
0 Rectangle with rounded corners*
0 $1 Rounding radius*
0 $2 $3 $4 $5 $6 $7 $8 $9 X,Y pos of 4 corners*
0 Add a 4 corners polygon primitive as box body*
4,1,4,$2,$3,$4,$5,$6,$7,$8,$9,$2,$3,0*
0 Add four circle primitives for the rounded corners*
1,1,$1+$1,$2,$3*
1,1,$1+$1,$4,$5*
1,1,$1+$1,$6,$7*
1,1,$1+$1,$8,$9*
0 Add four rect primitives between the rounded corners*
20,1,$1+$1,$2,$3,$4,$5,0*
20,1,$1+$1,$4,$5,$6,$7,0*
20,1,$1+$1,$6,$7,$8,$9,0*
20,1,$1+$1,$8,$9,$2,$3,0*%
%AMRotRect*
0 Rectangle, with rotation*
0 The origin of the aperture is its center*
0 $1 length*
0 $2 width*
0 $3 Rotation angle, in degrees counterclockwise*
0 Add horizontal line*
21,1,$1,$2,0,0,$3*%
G04 Aperture macros list end*
%ADD10C,0.150000*%
%ADD11C,0.120000*%
%ADD12C,3.000000*%
%ADD13R,2.000000X2.600000*%
%ADD14C,3.200000*%
%ADD15R,0.900000X1.200000*%
%ADD16RotRect,0.900000X1.200000X20.000000*%
%ADD17R,1.270000X3.429000*%
%ADD18RoundRect,0.317500X-0.317500X-1.397000X0.317500X-1.397000X0.317500X1.397000X-0.317500X1.397000X0*%
%ADD19RotRect,2.000000X2.600000X200.000000*%
%ADD20C,1.700000*%
G04 APERTURE END LIST*
D10*
%TO.C,SW17*%
X16725000Y16425000D02*
X19275000Y16425000D01*
X16700000Y15682000D02*
X16700000Y15682000D01*
X16725000Y11775000D02*
X21275000Y11775000D01*
X22500000Y13975000D02*
X26275000Y13975000D01*
X16700000Y12380000D02*
X16700000Y11800000D01*
X16700000Y16400000D02*
X16700000Y15682000D01*
X26275000Y14666000D02*
X26275000Y13975000D01*
X21280000Y12500000D02*
X21280000Y11800000D01*
X26275000Y18625000D02*
X26275000Y17968000D01*
X21575000Y18625000D02*
X26275000Y18625000D01*
X22500000Y13970000D02*
G75*
G03*
X21280000Y12550000I100000J-1320000D01*
G01*
X19200000Y16430000D02*
G75*
G03*
X21570000Y18600000I100000J2270000D01*
G01*
%TO.C,SW29*%
X21575000Y625000D02*
X26275000Y625000D01*
X16700000Y-2318000D02*
X16700000Y-2318000D01*
X21280000Y-5500000D02*
X21280000Y-6200000D01*
X22500000Y-4025000D02*
X26275000Y-4025000D01*
X16700000Y-5620000D02*
X16700000Y-6200000D01*
X16700000Y-1600000D02*
X16700000Y-2318000D01*
X26275000Y-3334000D02*
X26275000Y-4025000D01*
X16725000Y-1575000D02*
X19275000Y-1575000D01*
X16725000Y-6225000D02*
X21275000Y-6225000D01*
X26275000Y625000D02*
X26275000Y-32000D01*
X19200000Y-1570000D02*
G75*
G03*
X21570000Y600000I100000J2270000D01*
G01*
X22500000Y-4030000D02*
G75*
G03*
X21280000Y-5450000I100000J-1320000D01*
G01*
%TO.C,SW51*%
X54775000Y-37375000D02*
X54775000Y-38032000D01*
X45225000Y-39575000D02*
X47775000Y-39575000D01*
X45225000Y-44225000D02*
X49775000Y-44225000D01*
X49780000Y-43500000D02*
X49780000Y-44200000D01*
X45200000Y-40318000D02*
X45200000Y-40318000D01*
X45200000Y-39600000D02*
X45200000Y-40318000D01*
X51000000Y-42025000D02*
X54775000Y-42025000D01*
X50075000Y-37375000D02*
X54775000Y-37375000D01*
X54775000Y-41334000D02*
X54775000Y-42025000D01*
X45200000Y-43620000D02*
X45200000Y-44200000D01*
X47700000Y-39570000D02*
G75*
G03*
X50070000Y-37400000I100000J2270000D01*
G01*
X51000000Y-42030000D02*
G75*
G03*
X49780000Y-43450000I100000J-1320000D01*
G01*
D11*
%TO.C,D27*%
X54750000Y7500000D02*
X54750000Y5500000D01*
X54750000Y5500000D02*
X58650000Y5500000D01*
X54750000Y7500000D02*
X58650000Y7500000D01*
%TO.C,D18*%
X-2250000Y23500000D02*
X-2250000Y21500000D01*
X-2250000Y21500000D02*
X1650000Y21500000D01*
X-2250000Y23500000D02*
X1650000Y23500000D01*
D10*
%TO.C,SW15*%
X54700000Y16400000D02*
X54700000Y15682000D01*
X60500000Y13975000D02*
X64275000Y13975000D01*
X54725000Y16425000D02*
X57275000Y16425000D01*
X64275000Y18625000D02*
X64275000Y17968000D01*
X54700000Y15682000D02*
X54700000Y15682000D01*
X59280000Y12500000D02*
X59280000Y11800000D01*
X54725000Y11775000D02*
X59275000Y11775000D01*
X64275000Y14666000D02*
X64275000Y13975000D01*
X59575000Y18625000D02*
X64275000Y18625000D01*
X54700000Y12380000D02*
X54700000Y11800000D01*
X57200000Y16430000D02*
G75*
G03*
X59570000Y18600000I100000J2270000D01*
G01*
X60500000Y13970000D02*
G75*
G03*
X59280000Y12550000I100000J-1320000D01*
G01*
D11*
%TO.C,D15*%
X54750000Y23500000D02*
X58650000Y23500000D01*
X54750000Y25500000D02*
X54750000Y23500000D01*
X54750000Y25500000D02*
X58650000Y25500000D01*
%TO.C,D1*%
X92750000Y30000000D02*
X92750000Y28000000D01*
X92750000Y28000000D02*
X96650000Y28000000D01*
X92750000Y30000000D02*
X96650000Y30000000D01*
%TO.C,D37*%
X92750000Y-24000000D02*
X92750000Y-26000000D01*
X92750000Y-26000000D02*
X96650000Y-26000000D01*
X92750000Y-24000000D02*
X96650000Y-24000000D01*
%TO.C,D52*%
X26250000Y-30500000D02*
X30150000Y-30500000D01*
X26250000Y-30500000D02*
X26250000Y-32500000D01*
X26250000Y-32500000D02*
X30150000Y-32500000D01*
%TO.C,D2*%
X73750000Y34500000D02*
X73750000Y32500000D01*
X73750000Y32500000D02*
X77650000Y32500000D01*
X73750000Y34500000D02*
X77650000Y34500000D01*
D10*
%TO.C,SW3*%
X59280000Y30500000D02*
X59280000Y29800000D01*
X59575000Y36625000D02*
X64275000Y36625000D01*
X54725000Y34425000D02*
X57275000Y34425000D01*
X54700000Y30380000D02*
X54700000Y29800000D01*
X60500000Y31975000D02*
X64275000Y31975000D01*
X54725000Y29775000D02*
X59275000Y29775000D01*
X64275000Y32666000D02*
X64275000Y31975000D01*
X54700000Y34400000D02*
X54700000Y33682000D01*
X54700000Y33682000D02*
X54700000Y33682000D01*
X64275000Y36625000D02*
X64275000Y35968000D01*
X57200000Y34430000D02*
G75*
G03*
X59570000Y36600000I100000J2270000D01*
G01*
X60500000Y31970000D02*
G75*
G03*
X59280000Y30550000I100000J-1320000D01*
G01*
D11*
%TO.C,D16*%
X35750000Y28500000D02*
X35750000Y26500000D01*
X35750000Y26500000D02*
X39650000Y26500000D01*
X35750000Y28500000D02*
X39650000Y28500000D01*
D10*
%TO.C,SW4*%
X35700000Y37399997D02*
X35700000Y36681997D01*
X35700000Y36681997D02*
X35700000Y36681997D01*
X41500000Y34974997D02*
X45275000Y34974997D01*
X40280000Y33499997D02*
X40280000Y32799997D01*
X35725000Y37424997D02*
X38275000Y37424997D01*
X40575000Y39624997D02*
X45275000Y39624997D01*
X45275000Y35665997D02*
X45275000Y34974997D01*
X35725000Y32774997D02*
X40275000Y32774997D01*
X35700000Y33379997D02*
X35700000Y32799997D01*
X45275000Y39624997D02*
X45275000Y38967997D01*
X38200000Y37429997D02*
G75*
G03*
X40570000Y39599997I100000J2270000D01*
G01*
X41500000Y34969997D02*
G75*
G03*
X40280000Y33549997I100000J-1320000D01*
G01*
%TO.C,SW26*%
X78280000Y-14500000D02*
X78280000Y-15200000D01*
X73700000Y-11318000D02*
X73700000Y-11318000D01*
X73725000Y-15225000D02*
X78275000Y-15225000D01*
X73700000Y-14620000D02*
X73700000Y-15200000D01*
X78575000Y-8375000D02*
X83275000Y-8375000D01*
X79500000Y-13025000D02*
X83275000Y-13025000D01*
X73700000Y-10600000D02*
X73700000Y-11318000D01*
X73725000Y-10575000D02*
X76275000Y-10575000D01*
X83275000Y-8375000D02*
X83275000Y-9032000D01*
X83275000Y-12334000D02*
X83275000Y-13025000D01*
X76200000Y-10570000D02*
G75*
G03*
X78570000Y-8400000I100000J2270000D01*
G01*
X79500000Y-13030000D02*
G75*
G03*
X78280000Y-14450000I100000J-1320000D01*
G01*
D11*
%TO.C,D4*%
X35750000Y46500000D02*
X35750000Y44500000D01*
X35750000Y46500000D02*
X39650000Y46500000D01*
X35750000Y44500000D02*
X39650000Y44500000D01*
%TO.C,D3*%
X54750000Y43500000D02*
X54750000Y41500000D01*
X54750000Y41500000D02*
X58650000Y41500000D01*
X54750000Y43500000D02*
X58650000Y43500000D01*
D10*
%TO.C,SW38*%
X73700000Y-28600000D02*
X73700000Y-29318000D01*
X73700000Y-32620000D02*
X73700000Y-33200000D01*
X73725000Y-28575000D02*
X76275000Y-28575000D01*
X79500000Y-31025000D02*
X83275000Y-31025000D01*
X78575000Y-26375000D02*
X83275000Y-26375000D01*
X73700000Y-29318000D02*
X73700000Y-29318000D01*
X78280000Y-32500000D02*
X78280000Y-33200000D01*
X73725000Y-33225000D02*
X78275000Y-33225000D01*
X83275000Y-26375000D02*
X83275000Y-27032000D01*
X83275000Y-30334000D02*
X83275000Y-31025000D01*
X79500000Y-31030000D02*
G75*
G03*
X78280000Y-32450000I100000J-1320000D01*
G01*
X76200000Y-28570000D02*
G75*
G03*
X78570000Y-26400000I100000J2270000D01*
G01*
D11*
%TO.C,D54*%
X-15256329Y-34529853D02*
X-14572288Y-36409238D01*
X-14572288Y-36409238D02*
X-10907487Y-35075359D01*
X-15256329Y-34529853D02*
X-11591527Y-33195974D01*
D10*
%TO.C,SW27*%
X64275000Y-3334000D02*
X64275000Y-4025000D01*
X54700000Y-1600000D02*
X54700000Y-2318000D01*
X54725000Y-6225000D02*
X59275000Y-6225000D01*
X59280000Y-5500000D02*
X59280000Y-6200000D01*
X60500000Y-4025000D02*
X64275000Y-4025000D01*
X54700000Y-2318000D02*
X54700000Y-2318000D01*
X59575000Y625000D02*
X64275000Y625000D01*
X54700000Y-5620000D02*
X54700000Y-6200000D01*
X64275000Y625000D02*
X64275000Y-32000D01*
X54725000Y-1575000D02*
X57275000Y-1575000D01*
X57200000Y-1570000D02*
G75*
G03*
X59570000Y600000I100000J2270000D01*
G01*
X60500000Y-4030000D02*
G75*
G03*
X59280000Y-5450000I100000J-1320000D01*
G01*
D11*
%TO.C,D53*%
X7250000Y-30500000D02*
X11150000Y-30500000D01*
X7250000Y-32500000D02*
X11150000Y-32500000D01*
X7250000Y-30500000D02*
X7250000Y-32500000D01*
%TO.C,D39*%
X54750000Y-10500000D02*
X54750000Y-12500000D01*
X54750000Y-12500000D02*
X58650000Y-12500000D01*
X54750000Y-10500000D02*
X58650000Y-10500000D01*
D10*
%TO.C,SW52*%
X26200000Y-43620000D02*
X26200000Y-44200000D01*
X26225000Y-44225000D02*
X30775000Y-44225000D01*
X30780000Y-43500000D02*
X30780000Y-44200000D01*
X26200000Y-40318000D02*
X26200000Y-40318000D01*
X26200000Y-39600000D02*
X26200000Y-40318000D01*
X31075000Y-37375000D02*
X35775000Y-37375000D01*
X35775000Y-41334000D02*
X35775000Y-42025000D01*
X35775000Y-37375000D02*
X35775000Y-38032000D01*
X32000000Y-42025000D02*
X35775000Y-42025000D01*
X26225000Y-39575000D02*
X28775000Y-39575000D01*
X28700000Y-39570000D02*
G75*
G03*
X31070000Y-37400000I100000J2270000D01*
G01*
X32000000Y-42030000D02*
G75*
G03*
X30780000Y-43450000I100000J-1320000D01*
G01*
D11*
%TO.C,D42*%
X-2250000Y-12500000D02*
X1650000Y-12500000D01*
X-2250000Y-12500000D02*
X-2250000Y-14500000D01*
X-2250000Y-14500000D02*
X1650000Y-14500000D01*
%TO.C,D30*%
X-2250000Y5500000D02*
X-2250000Y3500000D01*
X-2250000Y3500000D02*
X1650000Y3500000D01*
X-2250000Y5500000D02*
X1650000Y5500000D01*
D10*
%TO.C,SW13*%
X98500000Y475000D02*
X102275000Y475000D01*
X92725000Y2925000D02*
X95275000Y2925000D01*
X92700000Y-1120000D02*
X92700000Y-1700000D01*
X97575000Y5125000D02*
X102275000Y5125000D01*
X92700000Y2182000D02*
X92700000Y2182000D01*
X92725000Y-1725000D02*
X97275000Y-1725000D01*
X92700000Y2900000D02*
X92700000Y2182000D01*
X102275000Y1166000D02*
X102275000Y475000D01*
X102275000Y5125000D02*
X102275000Y4468000D01*
X97280000Y-1000000D02*
X97280000Y-1700000D01*
X98500000Y470000D02*
G75*
G03*
X97280000Y-950000I100000J-1320000D01*
G01*
X95200000Y2930000D02*
G75*
G03*
X97570000Y5100000I100000J2270000D01*
G01*
D11*
%TO.C,D28*%
X35750000Y10500000D02*
X35750000Y8500000D01*
X35750000Y10500000D02*
X39650000Y10500000D01*
X35750000Y8500000D02*
X39650000Y8500000D01*
%TO.C,D6*%
X-2250000Y41500000D02*
X-2250000Y39500000D01*
X-2250000Y39500000D02*
X1650000Y39500000D01*
X-2250000Y41500000D02*
X1650000Y41500000D01*
D10*
%TO.C,SW5*%
X16700000Y30380002D02*
X16700000Y29800002D01*
X26275000Y36625002D02*
X26275000Y35968002D01*
X26275000Y32666002D02*
X26275000Y31975002D01*
X22500000Y31975002D02*
X26275000Y31975002D01*
X16725000Y29775002D02*
X21275000Y29775002D01*
X21280000Y30500002D02*
X21280000Y29800002D01*
X21575000Y36625002D02*
X26275000Y36625002D01*
X16700000Y33682002D02*
X16700000Y33682002D01*
X16725000Y34425002D02*
X19275000Y34425002D01*
X16700000Y34400002D02*
X16700000Y33682002D01*
X19200000Y34430002D02*
G75*
G03*
X21570000Y36600002I100000J2270000D01*
G01*
X22500000Y31970002D02*
G75*
G03*
X21280000Y30550002I100000J-1320000D01*
G01*
%TO.C,SW28*%
X35700000Y-2620000D02*
X35700000Y-3200000D01*
X40280000Y-2500000D02*
X40280000Y-3200000D01*
X35725000Y-3225000D02*
X40275000Y-3225000D01*
X45275000Y3625000D02*
X45275000Y2968000D01*
X35700000Y1400000D02*
X35700000Y682000D01*
X35725000Y1425000D02*
X38275000Y1425000D01*
X40575000Y3625000D02*
X45275000Y3625000D01*
X35700000Y682000D02*
X35700000Y682000D01*
X45275000Y-334000D02*
X45275000Y-1025000D01*
X41500000Y-1025000D02*
X45275000Y-1025000D01*
X38200000Y1430000D02*
G75*
G03*
X40570000Y3600000I100000J2270000D01*
G01*
X41500000Y-1030000D02*
G75*
G03*
X40280000Y-2450000I100000J-1320000D01*
G01*
%TO.C,SW1*%
X92725000Y16275000D02*
X97275000Y16275000D01*
X92700000Y20182000D02*
X92700000Y20182000D01*
X102275000Y19166000D02*
X102275000Y18475000D01*
X97280000Y17000000D02*
X97280000Y16300000D01*
X102275000Y23125000D02*
X102275000Y22468000D01*
X98500000Y18475000D02*
X102275000Y18475000D01*
X92700000Y20900000D02*
X92700000Y20182000D01*
X92700000Y16880000D02*
X92700000Y16300000D01*
X97575000Y23125000D02*
X102275000Y23125000D01*
X92725000Y20925000D02*
X95275000Y20925000D01*
X98500000Y18470000D02*
G75*
G03*
X97280000Y17050000I100000J-1320000D01*
G01*
X95200000Y20930000D02*
G75*
G03*
X97570000Y23100000I100000J2270000D01*
G01*
D11*
%TO.C,D13*%
X92750000Y10000000D02*
X96650000Y10000000D01*
X92750000Y12000000D02*
X92750000Y10000000D01*
X92750000Y12000000D02*
X96650000Y12000000D01*
D10*
%TO.C,SW42*%
X-2300000Y-21600000D02*
X-2300000Y-22318000D01*
X-2275000Y-26225000D02*
X2275000Y-26225000D01*
X7275000Y-23334000D02*
X7275000Y-24025000D01*
X-2300000Y-22318000D02*
X-2300000Y-22318000D01*
X3500000Y-24025000D02*
X7275000Y-24025000D01*
X7275000Y-19375000D02*
X7275000Y-20032000D01*
X-2275000Y-21575000D02*
X275000Y-21575000D01*
X-2300000Y-25620000D02*
X-2300000Y-26200000D01*
X2280000Y-25500000D02*
X2280000Y-26200000D01*
X2575000Y-19375000D02*
X7275000Y-19375000D01*
X200000Y-21570000D02*
G75*
G03*
X2570000Y-19400000I100000J2270000D01*
G01*
X3500000Y-24030000D02*
G75*
G03*
X2280000Y-25450000I100000J-1320000D01*
G01*
%TO.C,SW14*%
X78575000Y9625000D02*
X83275000Y9625000D01*
X79500000Y4975000D02*
X83275000Y4975000D01*
X73700000Y6682000D02*
X73700000Y6682000D01*
X73700000Y7400000D02*
X73700000Y6682000D01*
X73725000Y7425000D02*
X76275000Y7425000D01*
X73700000Y3380000D02*
X73700000Y2800000D01*
X83275000Y9625000D02*
X83275000Y8968000D01*
X78280000Y3500000D02*
X78280000Y2800000D01*
X83275000Y5666000D02*
X83275000Y4975000D01*
X73725000Y2775000D02*
X78275000Y2775000D01*
X79500000Y4970000D02*
G75*
G03*
X78280000Y3550000I100000J-1320000D01*
G01*
X76200000Y7430000D02*
G75*
G03*
X78570000Y9600000I100000J2270000D01*
G01*
%TO.C,SW30*%
X7275000Y-5334000D02*
X7275000Y-6025000D01*
X7275000Y-1375000D02*
X7275000Y-2032000D01*
X2280000Y-7500000D02*
X2280000Y-8200000D01*
X-2300000Y-3600000D02*
X-2300000Y-4318000D01*
X-2300000Y-7620000D02*
X-2300000Y-8200000D01*
X3500000Y-6025000D02*
X7275000Y-6025000D01*
X-2275000Y-3575000D02*
X275000Y-3575000D01*
X-2275000Y-8225000D02*
X2275000Y-8225000D01*
X-2300000Y-4318000D02*
X-2300000Y-4318000D01*
X2575000Y-1375000D02*
X7275000Y-1375000D01*
X200000Y-3570000D02*
G75*
G03*
X2570000Y-1400000I100000J2270000D01*
G01*
X3500000Y-6030000D02*
G75*
G03*
X2280000Y-7450000I100000J-1320000D01*
G01*
D11*
%TO.C,J1*%
X5080000Y45365000D02*
X5080000Y46000000D01*
X-5080000Y42000000D02*
X-5080000Y46000000D01*
X-3810000Y42000000D02*
X-5080000Y42000000D01*
%TO.C,D26*%
X73750000Y-3500000D02*
X77650000Y-3500000D01*
X73750000Y-1500000D02*
X77650000Y-1500000D01*
X73750000Y-1500000D02*
X73750000Y-3500000D01*
D10*
%TO.C,SW53*%
X7199996Y-43620000D02*
X7199996Y-44200000D01*
X11779996Y-43500000D02*
X11779996Y-44200000D01*
X7224996Y-44225000D02*
X11774996Y-44225000D01*
X12074996Y-37375000D02*
X16774996Y-37375000D01*
X7199996Y-40318000D02*
X7199996Y-40318000D01*
X16774996Y-41334000D02*
X16774996Y-42025000D01*
X12999996Y-42025000D02*
X16774996Y-42025000D01*
X7199996Y-39600000D02*
X7199996Y-40318000D01*
X16774996Y-37375000D02*
X16774996Y-38032000D01*
X7224996Y-39575000D02*
X9774996Y-39575000D01*
X12999996Y-42030000D02*
G75*
G03*
X11779996Y-43450000I100000J-1320000D01*
G01*
X9699996Y-39570000D02*
G75*
G03*
X12069996Y-37400000I100000J2270000D01*
G01*
%TO.C,SW18*%
X-2300000Y13682000D02*
X-2300000Y13682000D01*
X-2300000Y10380000D02*
X-2300000Y9800000D01*
X7275000Y12666000D02*
X7275000Y11975000D01*
X-2275000Y9775000D02*
X2275000Y9775000D01*
X3500000Y11975000D02*
X7275000Y11975000D01*
X2280000Y10500000D02*
X2280000Y9800000D01*
X-2300000Y14400000D02*
X-2300000Y13682000D01*
X2575000Y16625000D02*
X7275000Y16625000D01*
X7275000Y16625000D02*
X7275000Y15968000D01*
X-2275000Y14425000D02*
X275000Y14425000D01*
X200000Y14430000D02*
G75*
G03*
X2570000Y16600000I100000J2270000D01*
G01*
X3500000Y11970000D02*
G75*
G03*
X2280000Y10550000I100000J-1320000D01*
G01*
%TO.C,SW40*%
X41500000Y-19025000D02*
X45275000Y-19025000D01*
X40575000Y-14375000D02*
X45275000Y-14375000D01*
X45275000Y-14375000D02*
X45275000Y-15032000D01*
X40280000Y-20500000D02*
X40280000Y-21200000D01*
X35700000Y-16600000D02*
X35700000Y-17318000D01*
X35725000Y-16575000D02*
X38275000Y-16575000D01*
X35725000Y-21225000D02*
X40275000Y-21225000D01*
X35700000Y-17318000D02*
X35700000Y-17318000D01*
X35700000Y-20620000D02*
X35700000Y-21200000D01*
X45275000Y-18334000D02*
X45275000Y-19025000D01*
X41500000Y-19030000D02*
G75*
G03*
X40280000Y-20450000I100000J-1320000D01*
G01*
X38200000Y-16570000D02*
G75*
G03*
X40570000Y-14400000I100000J2270000D01*
G01*
%TO.C,SW41*%
X21280000Y-23500000D02*
X21280000Y-24200000D01*
X16725000Y-24225000D02*
X21275000Y-24225000D01*
X22500000Y-22025000D02*
X26275000Y-22025000D01*
X16700000Y-23620000D02*
X16700000Y-24200000D01*
X26275000Y-21334000D02*
X26275000Y-22025000D01*
X16700000Y-20318000D02*
X16700000Y-20318000D01*
X16700000Y-19600000D02*
X16700000Y-20318000D01*
X21575000Y-17375000D02*
X26275000Y-17375000D01*
X16725000Y-19575000D02*
X19275000Y-19575000D01*
X26275000Y-17375000D02*
X26275000Y-18032000D01*
X19200000Y-19570000D02*
G75*
G03*
X21570000Y-17400000I100000J2270000D01*
G01*
X22500000Y-22030000D02*
G75*
G03*
X21280000Y-23450000I100000J-1320000D01*
G01*
D11*
%TO.C,D14*%
X73750000Y16500000D02*
X73750000Y14500000D01*
X73750000Y14500000D02*
X77650000Y14500000D01*
X73750000Y16500000D02*
X77650000Y16500000D01*
%TO.C,D17*%
X16750000Y23500000D02*
X20650000Y23500000D01*
X16750000Y25500000D02*
X16750000Y23500000D01*
X16750000Y25500000D02*
X20650000Y25500000D01*
D10*
%TO.C,SW39*%
X54700000Y-23620000D02*
X54700000Y-24200000D01*
X54725000Y-19575000D02*
X57275000Y-19575000D01*
X60500000Y-22025000D02*
X64275000Y-22025000D01*
X59280000Y-23500000D02*
X59280000Y-24200000D01*
X54725000Y-24225000D02*
X59275000Y-24225000D01*
X54700000Y-19600000D02*
X54700000Y-20318000D01*
X59575000Y-17375000D02*
X64275000Y-17375000D01*
X64275000Y-21334000D02*
X64275000Y-22025000D01*
X64275000Y-17375000D02*
X64275000Y-18032000D01*
X54700000Y-20318000D02*
X54700000Y-20318000D01*
X60500000Y-22030000D02*
G75*
G03*
X59280000Y-23450000I100000J-1320000D01*
G01*
X57200000Y-19570000D02*
G75*
G03*
X59570000Y-17400000I100000J2270000D01*
G01*
D11*
%TO.C,D40*%
X35750000Y-7500000D02*
X39650000Y-7500000D01*
X35750000Y-7500000D02*
X35750000Y-9500000D01*
X35750000Y-9500000D02*
X39650000Y-9500000D01*
%TO.C,D51*%
X45250000Y-30500000D02*
X49150000Y-30500000D01*
X45250000Y-32500000D02*
X49150000Y-32500000D01*
X45250000Y-30500000D02*
X45250000Y-32500000D01*
D10*
%TO.C,SW6*%
X2575000Y34625000D02*
X7275000Y34625000D01*
X-2300000Y28380000D02*
X-2300000Y27800000D01*
X3500000Y29975000D02*
X7275000Y29975000D01*
X7275000Y30666000D02*
X7275000Y29975000D01*
X-2275000Y27775000D02*
X2275000Y27775000D01*
X7275000Y34625000D02*
X7275000Y33968000D01*
X2280000Y28500000D02*
X2280000Y27800000D01*
X-2300000Y32400000D02*
X-2300000Y31682000D01*
X-2300000Y31682000D02*
X-2300000Y31682000D01*
X-2275000Y32425000D02*
X275000Y32425000D01*
X3500000Y29970000D02*
G75*
G03*
X2280000Y28550000I100000J-1320000D01*
G01*
X200000Y32430000D02*
G75*
G03*
X2570000Y34600000I100000J2270000D01*
G01*
%TO.C,SW2*%
X73700000Y24682000D02*
X73700000Y24682000D01*
X78280000Y21500000D02*
X78280000Y20800000D01*
X73725000Y20775000D02*
X78275000Y20775000D01*
X79500000Y22975000D02*
X83275000Y22975000D01*
X73700000Y21380000D02*
X73700000Y20800000D01*
X83275000Y27625000D02*
X83275000Y26968000D01*
X83275000Y23666000D02*
X83275000Y22975000D01*
X78575000Y27625000D02*
X83275000Y27625000D01*
X73700000Y25400000D02*
X73700000Y24682000D01*
X73725000Y25425000D02*
X76275000Y25425000D01*
X79500000Y22970000D02*
G75*
G03*
X78280000Y21550000I100000J-1320000D01*
G01*
X76200000Y25430000D02*
G75*
G03*
X78570000Y27600000I100000J2270000D01*
G01*
%TO.C,SW25*%
X92700000Y-19120000D02*
X92700000Y-19700000D01*
X92700000Y-15818000D02*
X92700000Y-15818000D01*
X92725000Y-19725000D02*
X97275000Y-19725000D01*
X97575000Y-12875000D02*
X102275000Y-12875000D01*
X102275000Y-16834000D02*
X102275000Y-17525000D01*
X98500000Y-17525000D02*
X102275000Y-17525000D01*
X92700000Y-15100000D02*
X92700000Y-15818000D01*
X92725000Y-15075000D02*
X95275000Y-15075000D01*
X102275000Y-12875000D02*
X102275000Y-13532000D01*
X97280000Y-19000000D02*
X97280000Y-19700000D01*
X95200000Y-15070000D02*
G75*
G03*
X97570000Y-12900000I100000J2270000D01*
G01*
X98500000Y-17530000D02*
G75*
G03*
X97280000Y-18950000I100000J-1320000D01*
G01*
D11*
%TO.C,D29*%
X16750000Y5500000D02*
X20650000Y5500000D01*
X16750000Y7500000D02*
X16750000Y5500000D01*
X16750000Y7500000D02*
X20650000Y7500000D01*
%TO.C,D5*%
X16750000Y43500002D02*
X16750000Y41500002D01*
X16750000Y41500002D02*
X20650000Y41500002D01*
X16750000Y43500002D02*
X20650000Y43500002D01*
%TO.C,D25*%
X92750000Y-8000000D02*
X96650000Y-8000000D01*
X92750000Y-6000000D02*
X96650000Y-6000000D01*
X92750000Y-6000000D02*
X92750000Y-8000000D01*
D10*
%TO.C,SW16*%
X40575000Y21625000D02*
X45275000Y21625000D01*
X40280000Y15500000D02*
X40280000Y14800000D01*
X45275000Y21625000D02*
X45275000Y20968000D01*
X35700000Y19400000D02*
X35700000Y18682000D01*
X45275000Y17666000D02*
X45275000Y16975000D01*
X41500000Y16975000D02*
X45275000Y16975000D01*
X35725000Y19425000D02*
X38275000Y19425000D01*
X35725000Y14775000D02*
X40275000Y14775000D01*
X35700000Y15380000D02*
X35700000Y14800000D01*
X35700000Y18682000D02*
X35700000Y18682000D01*
X38200000Y19430000D02*
G75*
G03*
X40570000Y21600000I100000J2270000D01*
G01*
X41500000Y16970000D02*
G75*
G03*
X40280000Y15550000I100000J-1320000D01*
G01*
%TO.C,SW54*%
X-10794685Y-47471068D02*
X-6519084Y-45914876D01*
X-11025100Y-46911104D02*
X-10826728Y-47456126D01*
X-6120404Y-43428578D02*
X-2573065Y-42137451D01*
X-2809401Y-41488124D02*
X-2573065Y-42137451D01*
X-4163458Y-37767881D02*
X-3938751Y-38385259D01*
X-12154450Y-43808239D02*
X-12154450Y-43808239D01*
X-8580014Y-39375375D02*
X-4163458Y-37767881D01*
X-12400021Y-43133540D02*
X-12154450Y-43808239D01*
X-12385079Y-43101497D02*
X-9988863Y-42229346D01*
X-6762350Y-45231889D02*
X-6522936Y-45889674D01*
X-10061050Y-42250298D02*
G75*
G03*
X-8576162Y-39400578I-682416J2167304D01*
G01*
X-6118694Y-43433276D02*
G75*
G03*
X-6779451Y-45184904I545435J-1206192D01*
G01*
%TO.C,SW37*%
X97280000Y-37000000D02*
X97280000Y-37700000D01*
X102275000Y-30875000D02*
X102275000Y-31532000D01*
X92725000Y-33075000D02*
X95275000Y-33075000D01*
X92725000Y-37725000D02*
X97275000Y-37725000D01*
X92700000Y-33100000D02*
X92700000Y-33818000D01*
X98500000Y-35525000D02*
X102275000Y-35525000D01*
X97575000Y-30875000D02*
X102275000Y-30875000D01*
X92700000Y-37120000D02*
X92700000Y-37700000D01*
X102275000Y-34834000D02*
X102275000Y-35525000D01*
X92700000Y-33818000D02*
X92700000Y-33818000D01*
X98500000Y-35530000D02*
G75*
G03*
X97280000Y-36950000I100000J-1320000D01*
G01*
X95200000Y-33070000D02*
G75*
G03*
X97570000Y-30900000I100000J2270000D01*
G01*
D11*
%TO.C,D38*%
X73750000Y-21500000D02*
X77650000Y-21500000D01*
X73750000Y-19500000D02*
X73750000Y-21500000D01*
X73750000Y-19500000D02*
X77650000Y-19500000D01*
%TO.C,D41*%
X16750000Y-10500000D02*
X20650000Y-10500000D01*
X16750000Y-10500000D02*
X16750000Y-12500000D01*
X16750000Y-12500000D02*
X20650000Y-12500000D01*
%TD*%
%LPC*%
D12*
%TO.C,SW17*%
X24000000Y16300000D03*
D13*
X27255000Y16300000D03*
X15698000Y14100000D03*
%TD*%
D14*
%TO.C,H1*%
X38000000Y-25000000D03*
%TD*%
D12*
%TO.C,SW29*%
X24000000Y-1700000D03*
D13*
X27255000Y-1700000D03*
X15698000Y-3900000D03*
%TD*%
D12*
%TO.C,SW51*%
X52500000Y-39700000D03*
D13*
X55755000Y-39700000D03*
X44198000Y-41900000D03*
%TD*%
D15*
%TO.C,D27*%
X55350000Y6500000D03*
X58650000Y6500000D03*
%TD*%
%TO.C,D18*%
X-1650000Y22500000D03*
X1650000Y22500000D03*
%TD*%
D12*
%TO.C,SW15*%
X62000000Y16300000D03*
D13*
X65255000Y16300000D03*
X53698000Y14100000D03*
%TD*%
D15*
%TO.C,D15*%
X55350000Y24500000D03*
X58650000Y24500000D03*
%TD*%
%TO.C,D1*%
X93350000Y29000000D03*
X96650000Y29000000D03*
%TD*%
%TO.C,D37*%
X93350000Y-25000000D03*
X96650000Y-25000000D03*
%TD*%
%TO.C,D52*%
X26850000Y-31500000D03*
X30150000Y-31500000D03*
%TD*%
%TO.C,D2*%
X74350000Y33500000D03*
X77650000Y33500000D03*
%TD*%
D12*
%TO.C,SW3*%
X62000000Y34300000D03*
D13*
X65255000Y34300000D03*
X53698000Y32100000D03*
%TD*%
D15*
%TO.C,D16*%
X36350000Y27500000D03*
X39650000Y27500000D03*
%TD*%
D12*
%TO.C,SW4*%
X43000000Y37299997D03*
D13*
X46255000Y37299997D03*
X34698000Y35099997D03*
%TD*%
D12*
%TO.C,SW26*%
X81000000Y-10700000D03*
D13*
X84255000Y-10700000D03*
X72698000Y-12900000D03*
%TD*%
D15*
%TO.C,D4*%
X36350000Y45500000D03*
X39650000Y45500000D03*
%TD*%
%TO.C,D3*%
X55350000Y42500000D03*
X58650000Y42500000D03*
%TD*%
D12*
%TO.C,SW38*%
X81000000Y-28700000D03*
D13*
X84255000Y-28700000D03*
X72698000Y-30900000D03*
%TD*%
D16*
%TO.C,D54*%
X-14350493Y-35264333D03*
X-11249507Y-34135667D03*
%TD*%
D12*
%TO.C,SW27*%
X62000000Y-1700000D03*
D13*
X65255000Y-1700000D03*
X53698000Y-3900000D03*
%TD*%
D15*
%TO.C,D53*%
X7850000Y-31500000D03*
X11150000Y-31500000D03*
%TD*%
%TO.C,D39*%
X55350000Y-11500000D03*
X58650000Y-11500000D03*
%TD*%
D12*
%TO.C,SW52*%
X33500000Y-39700000D03*
D13*
X36755000Y-39700000D03*
X25198000Y-41900000D03*
%TD*%
D15*
%TO.C,D42*%
X-1650000Y-13500000D03*
X1650000Y-13500000D03*
%TD*%
%TO.C,D30*%
X-1650000Y4500000D03*
X1650000Y4500000D03*
%TD*%
D12*
%TO.C,SW13*%
X100000000Y2800000D03*
D13*
X103255000Y2800000D03*
X91698000Y600000D03*
%TD*%
D15*
%TO.C,D28*%
X36350000Y9500000D03*
X39650000Y9500000D03*
%TD*%
%TO.C,D6*%
X-1650000Y40500000D03*
X1650000Y40500000D03*
%TD*%
D12*
%TO.C,SW5*%
X24000000Y34300002D03*
D13*
X27255000Y34300002D03*
X15698000Y32100002D03*
%TD*%
D12*
%TO.C,SW28*%
X43000000Y1300000D03*
D13*
X46255000Y1300000D03*
X34698000Y-900000D03*
%TD*%
D12*
%TO.C,SW1*%
X100000000Y20800000D03*
D13*
X103255000Y20800000D03*
X91698000Y18600000D03*
%TD*%
D14*
%TO.C,H2*%
X82000000Y-38000000D03*
%TD*%
D15*
%TO.C,D13*%
X93350000Y11000000D03*
X96650000Y11000000D03*
%TD*%
D12*
%TO.C,SW42*%
X5000000Y-21700000D03*
D13*
X8255000Y-21700000D03*
X-3302000Y-23900000D03*
%TD*%
D12*
%TO.C,SW14*%
X81000000Y7300000D03*
D13*
X84255000Y7300000D03*
X72698000Y5100000D03*
%TD*%
D14*
%TO.C,H3*%
X71000000Y41000000D03*
%TD*%
D12*
%TO.C,SW30*%
X5000000Y-3700000D03*
D13*
X8255000Y-3700000D03*
X-3302000Y-5900000D03*
%TD*%
D17*
%TO.C,J1*%
X-3810000Y44222000D03*
D18*
X-1270000Y44349000D03*
X1270000Y44349000D03*
X3810000Y44349000D03*
%TD*%
D15*
%TO.C,D26*%
X74350000Y-2500000D03*
X77650000Y-2500000D03*
%TD*%
D12*
%TO.C,SW53*%
X14499996Y-39700000D03*
D13*
X17754996Y-39700000D03*
X6197996Y-41900000D03*
%TD*%
D14*
%TO.C,H4*%
X-9000000Y5000000D03*
%TD*%
D12*
%TO.C,SW18*%
X5000000Y14300000D03*
D13*
X8255000Y14300000D03*
X-3302000Y12100000D03*
%TD*%
D12*
%TO.C,SW40*%
X43000000Y-16700000D03*
D13*
X46255000Y-16700000D03*
X34698000Y-18900000D03*
%TD*%
D12*
%TO.C,SW41*%
X24000000Y-19700000D03*
D13*
X27255000Y-19700000D03*
X15698000Y-21900000D03*
%TD*%
D15*
%TO.C,D14*%
X74350000Y15500000D03*
X77650000Y15500000D03*
%TD*%
%TO.C,D17*%
X17350000Y24500000D03*
X20650000Y24500000D03*
%TD*%
D12*
%TO.C,SW39*%
X62000000Y-19700000D03*
D13*
X65255000Y-19700000D03*
X53698000Y-21900000D03*
%TD*%
D15*
%TO.C,D40*%
X36350000Y-8500000D03*
X39650000Y-8500000D03*
%TD*%
%TO.C,D51*%
X45850000Y-31500000D03*
X49150000Y-31500000D03*
%TD*%
D12*
%TO.C,SW6*%
X5000000Y32300000D03*
D13*
X8255000Y32300000D03*
X-3302000Y30100000D03*
%TD*%
D12*
%TO.C,SW2*%
X81000000Y25300000D03*
D13*
X84255000Y25300000D03*
X72698000Y23100000D03*
%TD*%
D12*
%TO.C,SW25*%
X100000000Y-15200000D03*
D13*
X103255000Y-15200000D03*
X91698000Y-17400000D03*
%TD*%
D15*
%TO.C,D29*%
X17350000Y6500000D03*
X20650000Y6500000D03*
%TD*%
%TO.C,D5*%
X17350000Y42500002D03*
X20650000Y42500002D03*
%TD*%
%TO.C,D25*%
X93350000Y-7000000D03*
X96650000Y-7000000D03*
%TD*%
D12*
%TO.C,SW16*%
X43000000Y19300000D03*
D13*
X46255000Y19300000D03*
X34698000Y17100000D03*
%TD*%
D12*
%TO.C,SW54*%
X-5506062Y-40730762D03*
D19*
X-2447363Y-39617486D03*
X-12554946Y-45637537D03*
%TD*%
D12*
%TO.C,SW37*%
X100000000Y-33200000D03*
D13*
X103255000Y-33200000D03*
X91698000Y-35400000D03*
%TD*%
D15*
%TO.C,D38*%
X74350000Y-20500000D03*
X77650000Y-20500000D03*
%TD*%
%TO.C,D41*%
X17350000Y-11500000D03*
X20650000Y-11500000D03*
%TD*%
D12*
%TO.C,SW20*%
X14000000Y16300000D03*
D20*
X24500000Y20000000D03*
D12*
X19000000Y14100000D03*
D20*
X13500000Y20000000D03*
D14*
X19000000Y20000000D03*
%TD*%
D12*
%TO.C,SW8*%
X19000000Y32100002D03*
D20*
X13500000Y38000002D03*
X24500000Y38000002D03*
D14*
X19000000Y38000002D03*
D12*
X14000000Y34300002D03*
%TD*%
%TO.C,SW11*%
X76000000Y23100000D03*
D14*
X76000000Y29000000D03*
D20*
X81500000Y29000000D03*
D12*
X71000000Y25300000D03*
D20*
X70500000Y29000000D03*
%TD*%
D12*
%TO.C,SW12*%
X95000000Y18600000D03*
D14*
X95000000Y24500000D03*
D20*
X89500000Y24500000D03*
X100500000Y24500000D03*
D12*
X90000000Y20800000D03*
%TD*%
D20*
%TO.C,SW7*%
X-5500000Y36000000D03*
D12*
X0Y30100000D03*
D20*
X5500000Y36000000D03*
D14*
X0Y36000000D03*
D12*
X-5000000Y32300000D03*
%TD*%
%TO.C,SW22*%
X57000000Y14100000D03*
D20*
X62500000Y20000000D03*
D12*
X52000000Y16300000D03*
D14*
X57000000Y20000000D03*
D20*
X51500000Y20000000D03*
%TD*%
D14*
%TO.C,SW58*%
X47500000Y-36000000D03*
D20*
X53000000Y-36000000D03*
X42000000Y-36000000D03*
D12*
X47500000Y-41900000D03*
X42500000Y-39700000D03*
%TD*%
D20*
%TO.C,SW44*%
X24500000Y-16000000D03*
X13500000Y-16000000D03*
D14*
X19000000Y-16000000D03*
D12*
X14000000Y-19700000D03*
X19000000Y-21900000D03*
%TD*%
%TO.C,SW36*%
X95000000Y-17400000D03*
X90000000Y-15200000D03*
D20*
X89500000Y-11500000D03*
X100500000Y-11500000D03*
D14*
X95000000Y-11500000D03*
%TD*%
D20*
%TO.C,SW34*%
X51500000Y2000000D03*
D12*
X57000000Y-3900000D03*
D14*
X57000000Y2000000D03*
D12*
X52000000Y-1700000D03*
D20*
X62500000Y2000000D03*
%TD*%
%TO.C,SW55*%
X-6301691Y-37082889D03*
D12*
X-9452081Y-44508186D03*
D14*
X-11470000Y-38964000D03*
D12*
X-14902989Y-44150963D03*
D20*
X-16638309Y-40845111D03*
%TD*%
D12*
%TO.C,SW9*%
X38000000Y35099997D03*
D20*
X43500000Y40999997D03*
D14*
X38000000Y40999997D03*
D12*
X33000000Y37299997D03*
D20*
X32500000Y40999997D03*
%TD*%
%TO.C,SW21*%
X32500000Y23000000D03*
D12*
X33000000Y19300000D03*
D14*
X38000000Y23000000D03*
D12*
X38000000Y17100000D03*
D20*
X43500000Y23000000D03*
%TD*%
%TO.C,SW19*%
X-5500000Y18000000D03*
D12*
X-5000000Y14300000D03*
X0Y12100000D03*
D20*
X5500000Y18000000D03*
D14*
X0Y18000000D03*
%TD*%
D20*
%TO.C,SW45*%
X32500000Y-13000000D03*
X43500000Y-13000000D03*
D12*
X33000000Y-16700000D03*
X38000000Y-18900000D03*
D14*
X38000000Y-13000000D03*
%TD*%
%TO.C,SW33*%
X38000000Y5000000D03*
D20*
X32500000Y5000000D03*
D12*
X38000000Y-900000D03*
X33000000Y1300000D03*
D20*
X43500000Y5000000D03*
%TD*%
D12*
%TO.C,SW24*%
X95000000Y600000D03*
D20*
X100500000Y6500000D03*
X89500000Y6500000D03*
D14*
X95000000Y6500000D03*
D12*
X90000000Y2800000D03*
%TD*%
D14*
%TO.C,SW47*%
X76000000Y-25000000D03*
D12*
X71000000Y-28700000D03*
D20*
X81500000Y-25000000D03*
X70500000Y-25000000D03*
D12*
X76000000Y-30900000D03*
%TD*%
D20*
%TO.C,SW32*%
X13500000Y2000000D03*
D14*
X19000000Y2000000D03*
D20*
X24500000Y2000000D03*
D12*
X19000000Y-3900000D03*
X14000000Y-1700000D03*
%TD*%
D20*
%TO.C,SW10*%
X51500000Y38000000D03*
D14*
X57000000Y38000000D03*
D12*
X52000000Y34300000D03*
D20*
X62500000Y38000000D03*
D12*
X57000000Y32100000D03*
%TD*%
D20*
%TO.C,SW35*%
X81500000Y-7000000D03*
X70500000Y-7000000D03*
D12*
X76000000Y-12900000D03*
X71000000Y-10700000D03*
D14*
X76000000Y-7000000D03*
%TD*%
D20*
%TO.C,SW43*%
X-5500000Y-18000000D03*
X5500000Y-18000000D03*
D14*
X0Y-18000000D03*
D12*
X-5000000Y-21700000D03*
X0Y-23900000D03*
%TD*%
D20*
%TO.C,SW31*%
X5500000Y0D03*
D12*
X0Y-5900000D03*
D14*
X0Y0D03*
D20*
X-5500000Y0D03*
D12*
X-5000000Y-3700000D03*
%TD*%
D20*
%TO.C,SW23*%
X70500000Y11000000D03*
D12*
X71000000Y7300000D03*
D14*
X76000000Y11000000D03*
D20*
X81500000Y11000000D03*
D12*
X76000000Y5100000D03*
%TD*%
D14*
%TO.C,SW48*%
X95000000Y-29500000D03*
D12*
X95000000Y-35400000D03*
D20*
X89500000Y-29500000D03*
X100500000Y-29500000D03*
D12*
X90000000Y-33200000D03*
%TD*%
%TO.C,SW46*%
X52000000Y-19700000D03*
D14*
X57000000Y-16000000D03*
D20*
X62500000Y-16000000D03*
D12*
X57000000Y-21900000D03*
D20*
X51500000Y-16000000D03*
%TD*%
D14*
%TO.C,SW56*%
X9499996Y-36000000D03*
D20*
X3999996Y-36000000D03*
D12*
X4499996Y-39700000D03*
X9499996Y-41900000D03*
D20*
X14999996Y-36000000D03*
%TD*%
%TO.C,SW57*%
X23000000Y-36000000D03*
X34000000Y-36000000D03*
D12*
X28500000Y-41900000D03*
X23500000Y-39700000D03*
D14*
X28500000Y-36000000D03*
%TD*%
M02*
