%TF.GenerationSoftware,KiCad,Pcbnew,(6.0.10-0)*%
%TF.CreationDate,2023-01-25T23:07:09+08:00*%
%TF.ProjectId,V4,56342e6b-6963-4616-945f-706362585858,rev?*%
%TF.SameCoordinates,Original*%
%TF.FileFunction,Paste,Top*%
%TF.FilePolarity,Positive*%
%FSLAX46Y46*%
G04 Gerber Fmt 4.6, Leading zero omitted, Abs format (unit mm)*
G04 Created by KiCad (PCBNEW (6.0.10-0)) date 2023-01-25 23:07:09*
%MOMM*%
%LPD*%
G01*
G04 APERTURE LIST*
G04 Aperture macros list*
%AMRotRect*
0 Rectangle, with rotation*
0 The origin of the aperture is its center*
0 $1 length*
0 $2 width*
0 $3 Rotation angle, in degrees counterclockwise*
0 Add horizontal line*
21,1,$1,$2,0,0,$3*%
G04 Aperture macros list end*
%ADD10R,2.000000X2.600000*%
%ADD11R,0.900000X1.200000*%
%ADD12RotRect,0.900000X1.200000X20.000000*%
%ADD13RotRect,2.000000X2.600000X200.000000*%
G04 APERTURE END LIST*
D10*
%TO.C,SW51*%
X207755000Y-138700000D03*
X196198000Y-140900000D03*
%TD*%
D11*
%TO.C,D27*%
X207350000Y-92500000D03*
X210650000Y-92500000D03*
%TD*%
D10*
%TO.C,SW15*%
X205698000Y-84900000D03*
X217255000Y-82700000D03*
%TD*%
D11*
%TO.C,D15*%
X207350000Y-74500000D03*
X210650000Y-74500000D03*
%TD*%
%TO.C,D37*%
X245350000Y-124000000D03*
X248650000Y-124000000D03*
%TD*%
%TO.C,D52*%
X178850000Y-130500000D03*
X182150000Y-130500000D03*
%TD*%
D10*
%TO.C,SW26*%
X236255000Y-109700000D03*
X224698000Y-111900000D03*
%TD*%
%TO.C,SW38*%
X236255000Y-127700000D03*
X224698000Y-129900000D03*
%TD*%
D12*
%TO.C,D54*%
X137649507Y-134264333D03*
X140750493Y-133135667D03*
%TD*%
D10*
%TO.C,SW27*%
X217255000Y-100700000D03*
X205698000Y-102900000D03*
%TD*%
D11*
%TO.C,D53*%
X159850000Y-130500000D03*
X163150000Y-130500000D03*
%TD*%
%TO.C,D39*%
X207350000Y-110500000D03*
X210650000Y-110500000D03*
%TD*%
D10*
%TO.C,SW52*%
X188755000Y-138700000D03*
X177198000Y-140900000D03*
%TD*%
D11*
%TO.C,D42*%
X150350000Y-112500000D03*
X153650000Y-112500000D03*
%TD*%
D10*
%TO.C,SW13*%
X255255000Y-96200000D03*
X243698000Y-98400000D03*
%TD*%
D11*
%TO.C,D13*%
X245350000Y-88000000D03*
X248650000Y-88000000D03*
%TD*%
D10*
%TO.C,SW42*%
X160255000Y-120700000D03*
X148698000Y-122900000D03*
%TD*%
%TO.C,SW14*%
X224698000Y-93900000D03*
X236255000Y-91700000D03*
%TD*%
D11*
%TO.C,D26*%
X226350000Y-101500000D03*
X229650000Y-101500000D03*
%TD*%
D10*
%TO.C,SW53*%
X169754996Y-138700000D03*
X158197996Y-140900000D03*
%TD*%
%TO.C,SW40*%
X198255000Y-115700000D03*
X186698000Y-117900000D03*
%TD*%
%TO.C,SW41*%
X179255000Y-118700000D03*
X167698000Y-120900000D03*
%TD*%
D11*
%TO.C,D14*%
X229650000Y-83500000D03*
X226350000Y-83500000D03*
%TD*%
D10*
%TO.C,SW39*%
X217255000Y-118700000D03*
X205698000Y-120900000D03*
%TD*%
D11*
%TO.C,D40*%
X188350000Y-107500000D03*
X191650000Y-107500000D03*
%TD*%
%TO.C,D51*%
X197850000Y-130500000D03*
X201150000Y-130500000D03*
%TD*%
D10*
%TO.C,SW25*%
X255255000Y-114200000D03*
X243698000Y-116400000D03*
%TD*%
D11*
%TO.C,D25*%
X245350000Y-106000000D03*
X248650000Y-106000000D03*
%TD*%
D13*
%TO.C,SW54*%
X149552637Y-138617486D03*
X139445054Y-144637537D03*
%TD*%
D10*
%TO.C,SW37*%
X255255000Y-132200000D03*
X243698000Y-134400000D03*
%TD*%
D11*
%TO.C,D38*%
X226350000Y-119500000D03*
X229650000Y-119500000D03*
%TD*%
%TO.C,D41*%
X169350000Y-110500000D03*
X172650000Y-110500000D03*
%TD*%
D10*
%TO.C,SW17*%
X179255000Y-82700000D03*
X167698000Y-84900000D03*
%TD*%
%TO.C,SW29*%
X179255000Y-100700000D03*
X167698000Y-102900000D03*
%TD*%
D11*
%TO.C,D18*%
X150350000Y-76500000D03*
X153650000Y-76500000D03*
%TD*%
%TO.C,D1*%
X245350000Y-70000000D03*
X248650000Y-70000000D03*
%TD*%
%TO.C,D2*%
X226350000Y-65500000D03*
X229650000Y-65500000D03*
%TD*%
D10*
%TO.C,SW3*%
X217255000Y-64700000D03*
X205698000Y-66900000D03*
%TD*%
D11*
%TO.C,D16*%
X188350000Y-71500000D03*
X191650000Y-71500000D03*
%TD*%
D10*
%TO.C,SW4*%
X198255000Y-61700003D03*
X186698000Y-63900003D03*
%TD*%
D11*
%TO.C,D4*%
X188350000Y-53500000D03*
X191650000Y-53500000D03*
%TD*%
%TO.C,D3*%
X207350000Y-56500000D03*
X210650000Y-56500000D03*
%TD*%
%TO.C,D30*%
X150350000Y-94500000D03*
X153650000Y-94500000D03*
%TD*%
%TO.C,D28*%
X188350000Y-89500000D03*
X191650000Y-89500000D03*
%TD*%
%TO.C,D6*%
X150350000Y-58500000D03*
X153650000Y-58500000D03*
%TD*%
D10*
%TO.C,SW5*%
X179255000Y-64699998D03*
X167698000Y-66899998D03*
%TD*%
%TO.C,SW28*%
X198255000Y-97700000D03*
X186698000Y-99900000D03*
%TD*%
%TO.C,SW1*%
X243698000Y-80400000D03*
X255255000Y-78200000D03*
%TD*%
%TO.C,SW30*%
X160255000Y-102700000D03*
X148698000Y-104900000D03*
%TD*%
%TO.C,SW18*%
X160255000Y-84700000D03*
X148698000Y-86900000D03*
%TD*%
D11*
%TO.C,D17*%
X169350000Y-74500000D03*
X172650000Y-74500000D03*
%TD*%
D10*
%TO.C,SW6*%
X160255000Y-66700000D03*
X148698000Y-68900000D03*
%TD*%
%TO.C,SW2*%
X236255000Y-73700000D03*
X224698000Y-75900000D03*
%TD*%
D11*
%TO.C,D29*%
X169350000Y-92500000D03*
X172650000Y-92500000D03*
%TD*%
%TO.C,D5*%
X169350000Y-56499998D03*
X172650000Y-56499998D03*
%TD*%
D10*
%TO.C,SW16*%
X198255000Y-79700000D03*
X186698000Y-81900000D03*
%TD*%
M02*
