%TF.GenerationSoftware,KiCad,Pcbnew,(6.0.11-0)*%
%TF.CreationDate,2023-02-07T09:45:08+08:00*%
%TF.ProjectId,V4,56342e6b-6963-4616-945f-706362585858,rev?*%
%TF.SameCoordinates,PX7f2c270PY60e4b00*%
%TF.FileFunction,Drillmap*%
%TF.FilePolarity,Positive*%
%FSLAX45Y45*%
G04 Gerber Fmt 4.5, Leading zero omitted, Abs format (unit mm)*
G04 Created by KiCad (PCBNEW (6.0.11-0)) date 2023-02-07 09:45:08*
%MOMM*%
%LPD*%
G01*
G04 APERTURE LIST*
%ADD10C,0.100000*%
%ADD11C,0.200000*%
%ADD12C,0.040000*%
G04 APERTURE END LIST*
D10*
X6600000Y4700000D02*
X4700000Y5000000D01*
X-900000Y4599000D02*
X-900000Y-2850000D01*
X950000Y4900000D02*
X950000Y4799000D01*
X10325000Y-3860000D02*
G75*
G03*
X10400000Y-3764289I-23570J95711D01*
G01*
X-800000Y4699000D02*
G75*
G03*
X-900000Y4599000I0J-100000D01*
G01*
X1050000Y5000000D02*
G75*
G03*
X950000Y4900000I0J-100000D01*
G01*
X5650000Y-4500000D02*
X10325000Y-3860000D01*
X-175000Y-4500000D02*
X5650000Y-4500000D01*
X-1719107Y-4955972D02*
X-2266339Y-3452464D01*
X-1719104Y-4955971D02*
G75*
G03*
X-1590936Y-5015740I93964J34191D01*
G01*
X10330000Y3375000D02*
X6600000Y4700000D01*
X10400001Y3279289D02*
G75*
G03*
X10330000Y3375000I-100431J1D01*
G01*
X850000Y4699000D02*
X750000Y4699000D01*
X-2206573Y-3324290D02*
G75*
G03*
X-2266339Y-3452464I34203J-93970D01*
G01*
X4700000Y5000000D02*
X1050000Y5000000D01*
X-2206572Y-3324293D02*
X-900000Y-2850000D01*
X-175000Y-4500000D02*
X-1590936Y-5015740D01*
X850000Y4699000D02*
G75*
G03*
X950000Y4799000I0J100000D01*
G01*
X10400000Y-3764289D02*
X10400000Y3279289D01*
X-750000Y4699000D02*
X-800000Y4699000D01*
D11*
D12*
X-1027327Y-3272673D02*
X-987327Y-3312673D01*
X-987327Y-3272673D02*
X-1027327Y-3312673D01*
X-1020000Y-4130000D02*
X-980000Y-4170000D01*
X-980000Y-4130000D02*
X-1020000Y-4170000D01*
X-70000Y-3930000D02*
X-30000Y-3970000D01*
X-30000Y-3930000D02*
X-70000Y-3970000D01*
X130000Y-280000D02*
X170000Y-320000D01*
X170000Y-280000D02*
X130000Y-320000D01*
X180000Y3370000D02*
X220000Y3330000D01*
X220000Y3370000D02*
X180000Y3330000D01*
X180000Y1570000D02*
X220000Y1530000D01*
X220000Y1570000D02*
X180000Y1530000D01*
X180000Y-2080000D02*
X220000Y-2120000D01*
X220000Y-2080000D02*
X180000Y-2120000D01*
X216986Y4056986D02*
X256986Y4016986D01*
X256986Y4056986D02*
X216986Y4016986D01*
X280000Y470000D02*
X320000Y430000D01*
X320000Y470000D02*
X280000Y430000D01*
X280000Y-1330000D02*
X320000Y-1370000D01*
X320000Y-1330000D02*
X280000Y-1370000D01*
X280000Y2270000D02*
X320000Y2230000D01*
X320000Y2270000D02*
X280000Y2230000D01*
X630000Y4323300D02*
X670000Y4283300D01*
X670000Y4323300D02*
X630000Y4283300D01*
X630000Y-3130000D02*
X670000Y-3170000D01*
X670000Y-3130000D02*
X630000Y-3170000D01*
X830000Y3420000D02*
X870000Y3380000D01*
X870000Y3420000D02*
X830000Y3380000D01*
X830000Y1670000D02*
X870000Y1630000D01*
X870000Y1670000D02*
X830000Y1630000D01*
X830000Y-130000D02*
X870000Y-170000D01*
X870000Y-130000D02*
X830000Y-170000D01*
X880000Y-1930000D02*
X920000Y-1970000D01*
X920000Y-1930000D02*
X880000Y-1970000D01*
X1080000Y-3880000D02*
X1120000Y-3920000D01*
X1120000Y-3880000D02*
X1080000Y-3920000D01*
X1572500Y-1272500D02*
X1612500Y-1312500D01*
X1612500Y-1272500D02*
X1572500Y-1312500D01*
X1596250Y553750D02*
X1636250Y513750D01*
X1636250Y553750D02*
X1596250Y513750D01*
X1622500Y4177500D02*
X1662500Y4137500D01*
X1662500Y4177500D02*
X1622500Y4137500D01*
X1622500Y2377500D02*
X1662500Y2337500D01*
X1662500Y2377500D02*
X1622500Y2337500D01*
X1780000Y4470000D02*
X1820000Y4430000D01*
X1820000Y4470000D02*
X1780000Y4430000D01*
X1797500Y4352500D02*
X1837500Y4312500D01*
X1837500Y4352500D02*
X1797500Y4312500D01*
X2030000Y4470000D02*
X2070000Y4430000D01*
X2070000Y4470000D02*
X2030000Y4430000D01*
X2030000Y1770000D02*
X2070000Y1730000D01*
X2070000Y1770000D02*
X2030000Y1730000D01*
X2030000Y-80000D02*
X2070000Y-120000D01*
X2070000Y-80000D02*
X2030000Y-120000D01*
X2080000Y3570000D02*
X2120000Y3530000D01*
X2120000Y3570000D02*
X2080000Y3530000D01*
X2080000Y-1880000D02*
X2120000Y-1920000D01*
X2120000Y-1880000D02*
X2080000Y-1920000D01*
X2880000Y4670000D02*
X2920000Y4630000D01*
X2920000Y4670000D02*
X2880000Y4630000D01*
X2980000Y3170000D02*
X3020000Y3130000D01*
X3020000Y3170000D02*
X2980000Y3130000D01*
X2980000Y-3880000D02*
X3020000Y-3920000D01*
X3020000Y-3880000D02*
X2980000Y-3920000D01*
X3130000Y-3130000D02*
X3170000Y-3170000D01*
X3170000Y-3130000D02*
X3130000Y-3170000D01*
X3780000Y-3780000D02*
X3820000Y-3820000D01*
X3820000Y-3780000D02*
X3780000Y-3820000D01*
X3930000Y3820000D02*
X3970000Y3780000D01*
X3970000Y3820000D02*
X3930000Y3780000D01*
X3930000Y2897550D02*
X3970000Y2857550D01*
X3970000Y2897550D02*
X3930000Y2857550D01*
X3930000Y2020000D02*
X3970000Y1980000D01*
X3970000Y2020000D02*
X3930000Y1980000D01*
X3930000Y-1580000D02*
X3970000Y-1620000D01*
X3970000Y-1580000D02*
X3930000Y-1620000D01*
X3980000Y220000D02*
X4020000Y180000D01*
X4020000Y220000D02*
X3980000Y180000D01*
X4080000Y4670000D02*
X4120000Y4630000D01*
X4120000Y4670000D02*
X4080000Y4630000D01*
X4080000Y970000D02*
X4120000Y930000D01*
X4120000Y970000D02*
X4080000Y930000D01*
X4080000Y-830000D02*
X4120000Y-870000D01*
X4120000Y-830000D02*
X4080000Y-870000D01*
X4430000Y-3130000D02*
X4470000Y-3170000D01*
X4470000Y-3130000D02*
X4430000Y-3170000D01*
X4605500Y3444500D02*
X4645500Y3404500D01*
X4645500Y3444500D02*
X4605500Y3404500D01*
X4605500Y1645500D02*
X4645500Y1605500D01*
X4645500Y1645500D02*
X4605500Y1605500D01*
X4630000Y-80000D02*
X4670000Y-120000D01*
X4670000Y-80000D02*
X4630000Y-120000D01*
X4630000Y-1930000D02*
X4670000Y-1970000D01*
X4670000Y-1930000D02*
X4630000Y-1970000D01*
X4880000Y-3880000D02*
X4920000Y-3920000D01*
X4920000Y-3880000D02*
X4880000Y-3920000D01*
X5372500Y812500D02*
X5412500Y772500D01*
X5412500Y812500D02*
X5372500Y772500D01*
X5380000Y-980000D02*
X5420000Y-1020000D01*
X5420000Y-980000D02*
X5380000Y-1020000D01*
X5397500Y4387500D02*
X5437500Y4347500D01*
X5437500Y4387500D02*
X5397500Y4347500D01*
X5422500Y2562500D02*
X5462500Y2522500D01*
X5462500Y2562500D02*
X5422500Y2522500D01*
X5630000Y-1030000D02*
X5670000Y-1070000D01*
X5670000Y-1030000D02*
X5630000Y-1070000D01*
X5665000Y820000D02*
X5705000Y780000D01*
X5705000Y820000D02*
X5665000Y780000D01*
X5830000Y3520000D02*
X5870000Y3480000D01*
X5870000Y3520000D02*
X5830000Y3480000D01*
X5830000Y1720000D02*
X5870000Y1680000D01*
X5870000Y1720000D02*
X5830000Y1680000D01*
X5830000Y-1880000D02*
X5870000Y-1920000D01*
X5870000Y-1880000D02*
X5830000Y-1920000D01*
X5880000Y-80000D02*
X5920000Y-120000D01*
X5920000Y-80000D02*
X5880000Y-120000D01*
X7587500Y3527500D02*
X7627500Y3487500D01*
X7627500Y3527500D02*
X7587500Y3487500D01*
X7652500Y-1937500D02*
X7692500Y-1977500D01*
X7692500Y-1937500D02*
X7652500Y-1977500D01*
X7730000Y2620000D02*
X7770000Y2580000D01*
X7770000Y2620000D02*
X7730000Y2580000D01*
X7730000Y820000D02*
X7770000Y780000D01*
X7770000Y820000D02*
X7730000Y780000D01*
X7730000Y-2780000D02*
X7770000Y-2820000D01*
X7770000Y-2780000D02*
X7730000Y-2820000D01*
X7780000Y-980000D02*
X7820000Y-1020000D01*
X7820000Y-980000D02*
X7780000Y-1020000D01*
X7880000Y3370000D02*
X7920000Y3330000D01*
X7920000Y3370000D02*
X7880000Y3330000D01*
X7880000Y1570000D02*
X7920000Y1530000D01*
X7920000Y1570000D02*
X7880000Y1530000D01*
X7880000Y-230000D02*
X7920000Y-270000D01*
X7920000Y-230000D02*
X7880000Y-270000D01*
X8405500Y2095500D02*
X8445500Y2055500D01*
X8445500Y2095500D02*
X8405500Y2055500D01*
X8430000Y270000D02*
X8470000Y230000D01*
X8470000Y270000D02*
X8430000Y230000D01*
X8430000Y-1480000D02*
X8470000Y-1520000D01*
X8470000Y-1480000D02*
X8430000Y-1520000D01*
X8480000Y-3080000D02*
X8520000Y-3120000D01*
X8520000Y-3080000D02*
X8480000Y-3120000D01*
X9180000Y-2330000D02*
X9220000Y-2370000D01*
X9220000Y-2330000D02*
X9180000Y-2370000D01*
X9197500Y3037500D02*
X9237500Y2997500D01*
X9237500Y3037500D02*
X9197500Y2997500D01*
X9197500Y1237500D02*
X9237500Y1197500D01*
X9237500Y1237500D02*
X9197500Y1197500D01*
X9197500Y-562500D02*
X9237500Y-602500D01*
X9237500Y-562500D02*
X9197500Y-602500D01*
X9580000Y-3230000D02*
X9620000Y-3270000D01*
X9620000Y-3230000D02*
X9580000Y-3270000D01*
X9630000Y2170000D02*
X9670000Y2130000D01*
X9670000Y2170000D02*
X9630000Y2130000D01*
X9630000Y370000D02*
X9670000Y330000D01*
X9670000Y370000D02*
X9630000Y330000D01*
X9680000Y-1430000D02*
X9720000Y-1470000D01*
X9720000Y-1430000D02*
X9680000Y-1470000D01*
D11*
X-2019752Y-5337248D02*
X-2019752Y-5137248D01*
X-1972133Y-5137248D01*
X-1943561Y-5146772D01*
X-1924514Y-5165819D01*
X-1914990Y-5184867D01*
X-1905466Y-5222962D01*
X-1905466Y-5251533D01*
X-1914990Y-5289629D01*
X-1924514Y-5308676D01*
X-1943561Y-5327724D01*
X-1972133Y-5337248D01*
X-2019752Y-5337248D01*
X-1819752Y-5337248D02*
X-1819752Y-5203914D01*
X-1819752Y-5242010D02*
X-1810228Y-5222962D01*
X-1800704Y-5213438D01*
X-1781657Y-5203914D01*
X-1762609Y-5203914D01*
X-1695942Y-5337248D02*
X-1695942Y-5203914D01*
X-1695942Y-5137248D02*
X-1705466Y-5146772D01*
X-1695942Y-5156295D01*
X-1686418Y-5146772D01*
X-1695942Y-5137248D01*
X-1695942Y-5156295D01*
X-1572133Y-5337248D02*
X-1591180Y-5327724D01*
X-1600704Y-5308676D01*
X-1600704Y-5137248D01*
X-1467371Y-5337248D02*
X-1486418Y-5327724D01*
X-1495942Y-5308676D01*
X-1495942Y-5137248D01*
X-1238799Y-5337248D02*
X-1238799Y-5137248D01*
X-1172133Y-5280105D01*
X-1105466Y-5137248D01*
X-1105466Y-5337248D01*
X-924514Y-5337248D02*
X-924514Y-5232486D01*
X-934037Y-5213438D01*
X-953085Y-5203914D01*
X-991180Y-5203914D01*
X-1010228Y-5213438D01*
X-924514Y-5327724D02*
X-943561Y-5337248D01*
X-991180Y-5337248D01*
X-1010228Y-5327724D01*
X-1019752Y-5308676D01*
X-1019752Y-5289629D01*
X-1010228Y-5270581D01*
X-991180Y-5261057D01*
X-943561Y-5261057D01*
X-924514Y-5251533D01*
X-829276Y-5203914D02*
X-829276Y-5403914D01*
X-829276Y-5213438D02*
X-810228Y-5203914D01*
X-772133Y-5203914D01*
X-753085Y-5213438D01*
X-743561Y-5222962D01*
X-734037Y-5242010D01*
X-734037Y-5299152D01*
X-743561Y-5318200D01*
X-753085Y-5327724D01*
X-772133Y-5337248D01*
X-810228Y-5337248D01*
X-829276Y-5327724D01*
X-648323Y-5318200D02*
X-638799Y-5327724D01*
X-648323Y-5337248D01*
X-657847Y-5327724D01*
X-648323Y-5318200D01*
X-648323Y-5337248D01*
X-648323Y-5213438D02*
X-638799Y-5222962D01*
X-648323Y-5232486D01*
X-657847Y-5222962D01*
X-648323Y-5213438D01*
X-648323Y-5232486D01*
D12*
X-2317371Y-5646771D02*
X-2277371Y-5686771D01*
X-2277371Y-5646771D02*
X-2317371Y-5686771D01*
D11*
X-1981657Y-5557248D02*
X-1962609Y-5557248D01*
X-1943561Y-5566772D01*
X-1934037Y-5576295D01*
X-1924514Y-5595343D01*
X-1914990Y-5633438D01*
X-1914990Y-5681057D01*
X-1924514Y-5719152D01*
X-1934037Y-5738200D01*
X-1943561Y-5747724D01*
X-1962609Y-5757248D01*
X-1981657Y-5757248D01*
X-2000704Y-5747724D01*
X-2010228Y-5738200D01*
X-2019752Y-5719152D01*
X-2029276Y-5681057D01*
X-2029276Y-5633438D01*
X-2019752Y-5595343D01*
X-2010228Y-5576295D01*
X-2000704Y-5566772D01*
X-1981657Y-5557248D01*
X-1829276Y-5738200D02*
X-1819752Y-5747724D01*
X-1829276Y-5757248D01*
X-1838799Y-5747724D01*
X-1829276Y-5738200D01*
X-1829276Y-5757248D01*
X-1648323Y-5623914D02*
X-1648323Y-5757248D01*
X-1695942Y-5547724D02*
X-1743561Y-5690581D01*
X-1619752Y-5690581D01*
X-1505466Y-5557248D02*
X-1486418Y-5557248D01*
X-1467371Y-5566772D01*
X-1457847Y-5576295D01*
X-1448323Y-5595343D01*
X-1438799Y-5633438D01*
X-1438799Y-5681057D01*
X-1448323Y-5719152D01*
X-1457847Y-5738200D01*
X-1467371Y-5747724D01*
X-1486418Y-5757248D01*
X-1505466Y-5757248D01*
X-1524514Y-5747724D01*
X-1534037Y-5738200D01*
X-1543561Y-5719152D01*
X-1553085Y-5681057D01*
X-1553085Y-5633438D01*
X-1543561Y-5595343D01*
X-1534037Y-5576295D01*
X-1524514Y-5566772D01*
X-1505466Y-5557248D01*
X-1314990Y-5557248D02*
X-1295942Y-5557248D01*
X-1276895Y-5566772D01*
X-1267371Y-5576295D01*
X-1257847Y-5595343D01*
X-1248323Y-5633438D01*
X-1248323Y-5681057D01*
X-1257847Y-5719152D01*
X-1267371Y-5738200D01*
X-1276895Y-5747724D01*
X-1295942Y-5757248D01*
X-1314990Y-5757248D01*
X-1334038Y-5747724D01*
X-1343561Y-5738200D01*
X-1353085Y-5719152D01*
X-1362609Y-5681057D01*
X-1362609Y-5633438D01*
X-1353085Y-5595343D01*
X-1343561Y-5576295D01*
X-1334038Y-5566772D01*
X-1314990Y-5557248D01*
X-1162609Y-5757248D02*
X-1162609Y-5623914D01*
X-1162609Y-5642962D02*
X-1153085Y-5633438D01*
X-1134038Y-5623914D01*
X-1105466Y-5623914D01*
X-1086419Y-5633438D01*
X-1076895Y-5652486D01*
X-1076895Y-5757248D01*
X-1076895Y-5652486D02*
X-1067371Y-5633438D01*
X-1048323Y-5623914D01*
X-1019752Y-5623914D01*
X-1000704Y-5633438D01*
X-991180Y-5652486D01*
X-991180Y-5757248D01*
X-895942Y-5757248D02*
X-895942Y-5623914D01*
X-895942Y-5642962D02*
X-886418Y-5633438D01*
X-867371Y-5623914D01*
X-838799Y-5623914D01*
X-819752Y-5633438D01*
X-810228Y-5652486D01*
X-810228Y-5757248D01*
X-810228Y-5652486D02*
X-800704Y-5633438D01*
X-781657Y-5623914D01*
X-753085Y-5623914D01*
X-734037Y-5633438D01*
X-724514Y-5652486D01*
X-724514Y-5757248D01*
X-334038Y-5547724D02*
X-505466Y-5804867D01*
X-76895Y-5557248D02*
X-57847Y-5557248D01*
X-38799Y-5566772D01*
X-29276Y-5576295D01*
X-19752Y-5595343D01*
X-10228Y-5633438D01*
X-10228Y-5681057D01*
X-19752Y-5719152D01*
X-29276Y-5738200D01*
X-38799Y-5747724D01*
X-57847Y-5757248D01*
X-76895Y-5757248D01*
X-95942Y-5747724D01*
X-105466Y-5738200D01*
X-114990Y-5719152D01*
X-124514Y-5681057D01*
X-124514Y-5633438D01*
X-114990Y-5595343D01*
X-105466Y-5576295D01*
X-95942Y-5566772D01*
X-76895Y-5557248D01*
X75486Y-5738200D02*
X85010Y-5747724D01*
X75486Y-5757248D01*
X65963Y-5747724D01*
X75486Y-5738200D01*
X75486Y-5757248D01*
X208820Y-5557248D02*
X227867Y-5557248D01*
X246915Y-5566772D01*
X256439Y-5576295D01*
X265963Y-5595343D01*
X275486Y-5633438D01*
X275486Y-5681057D01*
X265963Y-5719152D01*
X256439Y-5738200D01*
X246915Y-5747724D01*
X227867Y-5757248D01*
X208820Y-5757248D01*
X189772Y-5747724D01*
X180248Y-5738200D01*
X170724Y-5719152D01*
X161201Y-5681057D01*
X161201Y-5633438D01*
X170724Y-5595343D01*
X180248Y-5576295D01*
X189772Y-5566772D01*
X208820Y-5557248D01*
X465962Y-5757248D02*
X351677Y-5757248D01*
X408820Y-5757248D02*
X408820Y-5557248D01*
X389772Y-5585819D01*
X370724Y-5604867D01*
X351677Y-5614390D01*
X646915Y-5557248D02*
X551677Y-5557248D01*
X542153Y-5652486D01*
X551677Y-5642962D01*
X570724Y-5633438D01*
X618343Y-5633438D01*
X637391Y-5642962D01*
X646915Y-5652486D01*
X656439Y-5671533D01*
X656439Y-5719152D01*
X646915Y-5738200D01*
X637391Y-5747724D01*
X618343Y-5757248D01*
X570724Y-5757248D01*
X551677Y-5747724D01*
X542153Y-5738200D01*
X723105Y-5557248D02*
X856439Y-5557248D01*
X770724Y-5757248D01*
X923105Y-5557248D02*
X923105Y-5595343D01*
X999296Y-5557248D02*
X999296Y-5595343D01*
X1294534Y-5833438D02*
X1285010Y-5823914D01*
X1265963Y-5795343D01*
X1256439Y-5776295D01*
X1246915Y-5747724D01*
X1237391Y-5700105D01*
X1237391Y-5662009D01*
X1246915Y-5614390D01*
X1256439Y-5585819D01*
X1265963Y-5566772D01*
X1285010Y-5538200D01*
X1294534Y-5528676D01*
X1351677Y-5557248D02*
X1485010Y-5557248D01*
X1399296Y-5757248D01*
X1570724Y-5757248D02*
X1608820Y-5757248D01*
X1627867Y-5747724D01*
X1637391Y-5738200D01*
X1656439Y-5709629D01*
X1665962Y-5671533D01*
X1665962Y-5595343D01*
X1656439Y-5576295D01*
X1646915Y-5566772D01*
X1627867Y-5557248D01*
X1589772Y-5557248D01*
X1570724Y-5566772D01*
X1561201Y-5576295D01*
X1551677Y-5595343D01*
X1551677Y-5642962D01*
X1561201Y-5662009D01*
X1570724Y-5671533D01*
X1589772Y-5681057D01*
X1627867Y-5681057D01*
X1646915Y-5671533D01*
X1656439Y-5662009D01*
X1665962Y-5642962D01*
X1904058Y-5757248D02*
X1904058Y-5557248D01*
X1989772Y-5757248D02*
X1989772Y-5652486D01*
X1980248Y-5633438D01*
X1961201Y-5623914D01*
X1932629Y-5623914D01*
X1913581Y-5633438D01*
X1904058Y-5642962D01*
X2113582Y-5757248D02*
X2094534Y-5747724D01*
X2085010Y-5738200D01*
X2075486Y-5719152D01*
X2075486Y-5662009D01*
X2085010Y-5642962D01*
X2094534Y-5633438D01*
X2113582Y-5623914D01*
X2142153Y-5623914D01*
X2161201Y-5633438D01*
X2170724Y-5642962D01*
X2180248Y-5662009D01*
X2180248Y-5719152D01*
X2170724Y-5738200D01*
X2161201Y-5747724D01*
X2142153Y-5757248D01*
X2113582Y-5757248D01*
X2294534Y-5757248D02*
X2275486Y-5747724D01*
X2265963Y-5728676D01*
X2265963Y-5557248D01*
X2446915Y-5747724D02*
X2427867Y-5757248D01*
X2389772Y-5757248D01*
X2370724Y-5747724D01*
X2361201Y-5728676D01*
X2361201Y-5652486D01*
X2370724Y-5633438D01*
X2389772Y-5623914D01*
X2427867Y-5623914D01*
X2446915Y-5633438D01*
X2456439Y-5652486D01*
X2456439Y-5671533D01*
X2361201Y-5690581D01*
X2532629Y-5747724D02*
X2551677Y-5757248D01*
X2589772Y-5757248D01*
X2608820Y-5747724D01*
X2618343Y-5728676D01*
X2618343Y-5719152D01*
X2608820Y-5700105D01*
X2589772Y-5690581D01*
X2561201Y-5690581D01*
X2542153Y-5681057D01*
X2532629Y-5662009D01*
X2532629Y-5652486D01*
X2542153Y-5633438D01*
X2561201Y-5623914D01*
X2589772Y-5623914D01*
X2608820Y-5633438D01*
X2685010Y-5833438D02*
X2694534Y-5823914D01*
X2713582Y-5795343D01*
X2723105Y-5776295D01*
X2732629Y-5747724D01*
X2742153Y-5700105D01*
X2742153Y-5662009D01*
X2732629Y-5614390D01*
X2723105Y-5585819D01*
X2713582Y-5566772D01*
X2694534Y-5538200D01*
X2685010Y-5528676D01*
M02*
