%TF.GenerationSoftware,KiCad,Pcbnew,(6.0.4-0)*%
%TF.CreationDate,2022-03-28T14:08:22+08:00*%
%TF.ProjectId,Pragmatic,50726167-6d61-4746-9963-2e6b69636164,3*%
%TF.SameCoordinates,PX5ad6650PY48ab840*%
%TF.FileFunction,Soldermask,Bot*%
%TF.FilePolarity,Negative*%
%FSLAX46Y46*%
G04 Gerber Fmt 4.6, Leading zero omitted, Abs format (unit mm)*
G04 Created by KiCad (PCBNEW (6.0.4-0)) date 2022-03-28 14:08:22*
%MOMM*%
%LPD*%
G01*
G04 APERTURE LIST*
G04 Aperture macros list*
%AMRoundRect*
0 Rectangle with rounded corners*
0 $1 Rounding radius*
0 $2 $3 $4 $5 $6 $7 $8 $9 X,Y pos of 4 corners*
0 Add a 4 corners polygon primitive as box body*
4,1,4,$2,$3,$4,$5,$6,$7,$8,$9,$2,$3,0*
0 Add four circle primitives for the rounded corners*
1,1,$1+$1,$2,$3*
1,1,$1+$1,$4,$5*
1,1,$1+$1,$6,$7*
1,1,$1+$1,$8,$9*
0 Add four rect primitives between the rounded corners*
20,1,$1+$1,$2,$3,$4,$5,0*
20,1,$1+$1,$4,$5,$6,$7,0*
20,1,$1+$1,$6,$7,$8,$9,0*
20,1,$1+$1,$8,$9,$2,$3,0*%
G04 Aperture macros list end*
%ADD10C,1.701800*%
%ADD11C,1.900000*%
%ADD12C,3.000000*%
%ADD13C,4.000000*%
%ADD14C,2.032000*%
%ADD15R,2.550000X2.500000*%
%ADD16C,2.500000*%
%ADD17RoundRect,0.250000X0.600000X-0.600000X0.600000X0.600000X-0.600000X0.600000X-0.600000X-0.600000X0*%
%ADD18C,1.700000*%
%ADD19R,1.400000X1.000000*%
%ADD20RoundRect,0.250000X0.325000X0.450000X-0.325000X0.450000X-0.325000X-0.450000X0.325000X-0.450000X0*%
%ADD21RoundRect,0.250000X0.350000X0.450000X-0.350000X0.450000X-0.350000X-0.450000X0.350000X-0.450000X0*%
G04 APERTURE END LIST*
D10*
X-43575000Y-25000D03*
D11*
X-33020000Y0D03*
D12*
X-35560000Y5080000D03*
D13*
X-38100000Y0D03*
D10*
X-32575000Y-25000D03*
D12*
X-41910000Y2540000D03*
D11*
X-43180000Y0D03*
D14*
X-43075000Y-3810000D03*
D15*
X-45185000Y2540000D03*
X-32258000Y5080000D03*
D14*
X-38075000Y-5925000D03*
D10*
X-43575000Y-19075000D03*
D13*
X-38100000Y-19050000D03*
D11*
X-43180000Y-19050000D03*
D12*
X-41910000Y-16510000D03*
D10*
X-32575000Y-19075000D03*
D12*
X-35560000Y-13970000D03*
D11*
X-33020000Y-19050000D03*
D14*
X-43075000Y-22860000D03*
D15*
X-45185000Y-16510000D03*
X-32258000Y-13970000D03*
D14*
X-38075000Y-24975000D03*
D10*
X-13525000Y-9550000D03*
X-24525000Y-9550000D03*
D11*
X-24130000Y-9525000D03*
D13*
X-19050000Y-9525000D03*
D12*
X-16510000Y-4445000D03*
D11*
X-13970000Y-9525000D03*
D12*
X-22860000Y-6985000D03*
D15*
X-26135000Y-6985000D03*
D14*
X-24025000Y-13335000D03*
D15*
X-13208000Y-4445000D03*
D14*
X-19025000Y-15450000D03*
D12*
X-22860000Y12065000D03*
D11*
X-13970000Y9525000D03*
X-24130000Y9525000D03*
D13*
X-19050000Y9525000D03*
D10*
X-24525000Y9500000D03*
D12*
X-16510000Y14605000D03*
D10*
X-13525000Y9500000D03*
D14*
X-24025000Y5715000D03*
D15*
X-26135000Y12065000D03*
X-13208000Y14605000D03*
D14*
X-19025000Y3600000D03*
D12*
X2540000Y24130000D03*
D11*
X-5080000Y19050000D03*
D10*
X5525000Y19025000D03*
D11*
X5080000Y19050000D03*
D10*
X-5475000Y19025000D03*
D13*
X0Y19050000D03*
D12*
X-3810000Y21590000D03*
D14*
X-4975000Y15240000D03*
D15*
X-7085000Y21590000D03*
X5842000Y24130000D03*
D14*
X25000Y13125000D03*
D11*
X13970000Y9525000D03*
D13*
X19050000Y9525000D03*
D10*
X13575000Y9500000D03*
X24575000Y9500000D03*
D12*
X21590000Y14605000D03*
X15240000Y12065000D03*
D11*
X24130000Y9525000D03*
D14*
X14075000Y5715000D03*
D15*
X11965000Y12065000D03*
X24892000Y14605000D03*
D14*
X19075000Y3600000D03*
D11*
X43180000Y9525000D03*
D12*
X40640000Y14605000D03*
D10*
X32625000Y9500000D03*
D13*
X38100000Y9525000D03*
D12*
X34290000Y12065000D03*
D11*
X33020000Y9525000D03*
D10*
X43625000Y9500000D03*
D15*
X31015000Y12065000D03*
D14*
X33125000Y5715000D03*
D15*
X43942000Y14605000D03*
D14*
X38125000Y3600000D03*
D12*
X-3810000Y2540000D03*
D10*
X5525000Y-25000D03*
D11*
X5080000Y0D03*
D10*
X-5475000Y-25000D03*
D13*
X0Y0D03*
D11*
X-5080000Y0D03*
D12*
X2540000Y5080000D03*
D15*
X-7085000Y2540000D03*
D14*
X-4975000Y-3810000D03*
X25000Y-5925000D03*
D15*
X5842000Y5080000D03*
D13*
X19050000Y-9525000D03*
D11*
X13970000Y-9525000D03*
D12*
X21590000Y-4445000D03*
D11*
X24130000Y-9525000D03*
D12*
X15240000Y-6985000D03*
D10*
X24575000Y-9550000D03*
X13575000Y-9550000D03*
D14*
X14075000Y-13335000D03*
D15*
X11965000Y-6985000D03*
X24892000Y-4445000D03*
D14*
X19075000Y-15450000D03*
D11*
X33020000Y-9525000D03*
D10*
X32625000Y-9550000D03*
D11*
X43180000Y-9525000D03*
D12*
X34290000Y-6985000D03*
X40640000Y-4445000D03*
D13*
X38100000Y-9525000D03*
D10*
X43625000Y-9550000D03*
D15*
X31015000Y-6985000D03*
D14*
X33125000Y-13335000D03*
X38125000Y-15450000D03*
D15*
X43942000Y-4445000D03*
D13*
X-38100000Y-38100000D03*
D12*
X-35560000Y-33020000D03*
D11*
X-33020000Y-38100000D03*
D10*
X-32575000Y-38125000D03*
X-43575000Y-38125000D03*
D12*
X-41910000Y-35560000D03*
D11*
X-43180000Y-38100000D03*
D14*
X-43075000Y-41910000D03*
D15*
X-45185000Y-35560000D03*
D14*
X-38075000Y-44025000D03*
D15*
X-32258000Y-33020000D03*
D12*
X-16510000Y-23495000D03*
D10*
X-13525000Y-28600000D03*
D11*
X-13970000Y-28575000D03*
D10*
X-24525000Y-28600000D03*
D12*
X-22860000Y-26035000D03*
D11*
X-24130000Y-28575000D03*
D13*
X-19050000Y-28575000D03*
D14*
X-24025000Y-32385000D03*
D15*
X-26135000Y-26035000D03*
X-13208000Y-23495000D03*
D14*
X-19025000Y-34500000D03*
D13*
X0Y-19050000D03*
D12*
X2540000Y-13970000D03*
D11*
X5080000Y-19050000D03*
D10*
X-5475000Y-19075000D03*
D11*
X-5080000Y-19050000D03*
D10*
X5525000Y-19075000D03*
D12*
X-3810000Y-16510000D03*
D14*
X-4975000Y-22860000D03*
D15*
X-7085000Y-16510000D03*
X5842000Y-13970000D03*
D14*
X25000Y-24975000D03*
D11*
X24130000Y-28575000D03*
D12*
X21590000Y-23495000D03*
X15240000Y-26035000D03*
D13*
X19050000Y-28575000D03*
D10*
X24575000Y-28600000D03*
D11*
X13970000Y-28575000D03*
D10*
X13575000Y-28600000D03*
D15*
X11965000Y-26035000D03*
D14*
X14075000Y-32385000D03*
D15*
X24892000Y-23495000D03*
D14*
X19075000Y-34500000D03*
D12*
X40640000Y-23495000D03*
D10*
X32625000Y-28600000D03*
X43625000Y-28600000D03*
D13*
X38100000Y-28575000D03*
D11*
X33020000Y-28575000D03*
X43180000Y-28575000D03*
D12*
X34290000Y-26035000D03*
D14*
X33125000Y-32385000D03*
D15*
X31015000Y-26035000D03*
X43942000Y-23495000D03*
D14*
X38125000Y-34500000D03*
D11*
X23495000Y-47625000D03*
D12*
X31115000Y-42545000D03*
D13*
X28575000Y-47625000D03*
D12*
X24765000Y-45085000D03*
D11*
X33655000Y-47625000D03*
D10*
X23100000Y-47650000D03*
X34100000Y-47650000D03*
D14*
X23600000Y-51435000D03*
D15*
X21490000Y-45085000D03*
X34417000Y-42545000D03*
D14*
X28600000Y-53550000D03*
D10*
X53150000Y-47650000D03*
X42150000Y-47650000D03*
D13*
X47625000Y-47625000D03*
D12*
X50165000Y-42545000D03*
D11*
X42545000Y-47625000D03*
X52705000Y-47625000D03*
D12*
X43815000Y-45085000D03*
D14*
X42650000Y-51435000D03*
D15*
X40540000Y-45085000D03*
X53467000Y-42545000D03*
D14*
X47650000Y-53550000D03*
D16*
X-28575000Y0D03*
X-28575000Y-28575000D03*
X28575000Y0D03*
X38100000Y-38100000D03*
D17*
X20955000Y25400000D03*
D18*
X20955000Y27940000D03*
X23495000Y25400000D03*
X23495000Y27940000D03*
X26035000Y25400000D03*
X26035000Y27940000D03*
X28575000Y25400000D03*
X28575000Y27940000D03*
X31115000Y25400000D03*
X31115000Y27940000D03*
X33655000Y25400000D03*
X33655000Y27940000D03*
X36195000Y25400000D03*
X36195000Y27940000D03*
D19*
X-41405000Y-9525000D03*
X-44955000Y-9525000D03*
X-31245000Y-9525000D03*
X-34795000Y-9525000D03*
X-12195000Y0D03*
X-15745000Y0D03*
X-21085000Y0D03*
X-24635000Y0D03*
X-3305000Y9525000D03*
X-6855000Y9525000D03*
X20825000Y19050000D03*
X17275000Y19050000D03*
X39875000Y19050000D03*
X36325000Y19050000D03*
X6855000Y9525000D03*
X3305000Y9525000D03*
X21460000Y0D03*
X17910000Y0D03*
X39875000Y0D03*
X36325000Y0D03*
X-36325000Y-28575000D03*
X-39875000Y-28575000D03*
X-17275000Y-19050000D03*
X-20825000Y-19050000D03*
X1775000Y-9525000D03*
X-1775000Y-9525000D03*
X20825000Y-19050000D03*
X17275000Y-19050000D03*
X39875000Y-19050000D03*
X36325000Y-19050000D03*
X30350000Y-38100000D03*
X26800000Y-38100000D03*
X45590000Y-38100000D03*
X42040000Y-38100000D03*
D20*
X15970000Y28625000D03*
X13920000Y28625000D03*
D21*
X15970000Y24815000D03*
X13970000Y24815000D03*
M02*
