M48
; DRILL file {KiCad (6.0.5-0)} date 2022 June 17, Friday 02:05:40
; FORMAT={-:-/ absolute / metric / decimal}
; #@! TF.CreationDate,2022-06-17T02:05:40+08:00
; #@! TF.GenerationSoftware,Kicad,Pcbnew,(6.0.5-0)
; #@! TF.FileFunction,NonPlated,1,2,NPTH
FMAT,2
METRIC
; #@! TA.AperFunction,NonPlated,NPTH,ComponentDrill
T1C1.900
; #@! TA.AperFunction,NonPlated,NPTH,ComponentDrill
T2C2.500
; #@! TA.AperFunction,NonPlated,NPTH,ComponentDrill
T3C3.000
; #@! TA.AperFunction,NonPlated,NPTH,ComponentDrill
T4C4.000
%
G90
G05
T1
X-71.755Y0.0
X-71.755Y-19.05
X-71.755Y-38.1
X-61.595Y0.0
X-61.595Y-19.05
X-61.595Y-38.1
X-52.705Y9.525
X-52.705Y-9.525
X-52.705Y-28.575
X-42.545Y9.525
X-42.545Y-9.525
X-42.545Y-28.575
X-33.655Y19.05
X-33.655Y0.0
X-33.655Y-19.05
X-23.495Y19.05
X-23.495Y0.0
X-23.495Y-19.05
X-14.605Y9.525
X-14.605Y-9.525
X-14.605Y-28.575
X-5.08Y-47.625
X-4.445Y9.525
X-4.445Y-9.525
X-4.445Y-28.575
X4.445Y9.525
X4.445Y-9.525
X4.445Y-28.575
X5.08Y-47.625
X13.97Y-47.625
X14.605Y9.525
X14.605Y-9.525
X14.605Y-28.575
X24.13Y-47.625
T2
X-58.039Y-28.575
X-56.261Y0.0
X0.0Y0.0
X5.08Y-38.1
T3
X-70.485Y2.54
X-70.485Y-16.51
X-70.485Y-35.56
X-64.135Y5.08
X-64.135Y-13.97
X-64.135Y-33.02
X-51.435Y12.065
X-51.435Y-6.985
X-51.435Y-26.035
X-45.085Y14.605
X-45.085Y-4.445
X-45.085Y-23.495
X-32.385Y21.59
X-32.385Y2.54
X-32.385Y-16.51
X-26.035Y24.13
X-26.035Y5.08
X-26.035Y-13.97
X-13.335Y12.065
X-13.335Y-6.985
X-13.335Y-26.035
X-6.985Y14.605
X-6.985Y-4.445
X-6.985Y-23.495
X-3.81Y-45.085
X2.54Y-42.545
X5.715Y12.065
X5.715Y-6.985
X5.715Y-26.035
X12.065Y14.605
X12.065Y-4.445
X12.065Y-23.495
X15.24Y-45.085
X21.59Y-42.545
T4
X-66.675Y0.0
X-66.675Y0.0
X-66.675Y-19.05
X-66.675Y-19.05
X-66.675Y-38.1
X-66.675Y-38.1
X-47.625Y9.525
X-47.625Y9.525
X-47.625Y-9.525
X-47.625Y-9.525
X-47.625Y-28.575
X-47.625Y-28.575
X-28.575Y19.05
X-28.575Y19.05
X-28.575Y0.0
X-28.575Y0.0
X-28.575Y-19.05
X-28.575Y-19.05
X-9.525Y9.525
X-9.525Y9.525
X-9.525Y-9.525
X-9.525Y-9.525
X-9.525Y-28.575
X-9.525Y-28.575
X0.0Y-47.625
X0.0Y-47.625
X9.525Y9.525
X9.525Y9.525
X9.525Y-9.525
X9.525Y-9.525
X9.525Y-28.575
X9.525Y-28.575
X19.05Y-47.625
X19.05Y-47.625
T0
M30
