%TF.GenerationSoftware,KiCad,Pcbnew,(6.0.4-0)*%
%TF.CreationDate,2022-03-28T14:08:22+08:00*%
%TF.ProjectId,Pragmatic,50726167-6d61-4746-9963-2e6b69636164,3*%
%TF.SameCoordinates,PX5ad6650PY48ab840*%
%TF.FileFunction,Soldermask,Top*%
%TF.FilePolarity,Negative*%
%FSLAX46Y46*%
G04 Gerber Fmt 4.6, Leading zero omitted, Abs format (unit mm)*
G04 Created by KiCad (PCBNEW (6.0.4-0)) date 2022-03-28 14:08:22*
%MOMM*%
%LPD*%
G01*
G04 APERTURE LIST*
G04 Aperture macros list*
%AMRoundRect*
0 Rectangle with rounded corners*
0 $1 Rounding radius*
0 $2 $3 $4 $5 $6 $7 $8 $9 X,Y pos of 4 corners*
0 Add a 4 corners polygon primitive as box body*
4,1,4,$2,$3,$4,$5,$6,$7,$8,$9,$2,$3,0*
0 Add four circle primitives for the rounded corners*
1,1,$1+$1,$2,$3*
1,1,$1+$1,$4,$5*
1,1,$1+$1,$6,$7*
1,1,$1+$1,$8,$9*
0 Add four rect primitives between the rounded corners*
20,1,$1+$1,$2,$3,$4,$5,0*
20,1,$1+$1,$4,$5,$6,$7,0*
20,1,$1+$1,$6,$7,$8,$9,0*
20,1,$1+$1,$8,$9,$2,$3,0*%
G04 Aperture macros list end*
%ADD10C,0.010000*%
%ADD11C,1.701800*%
%ADD12C,1.900000*%
%ADD13C,3.000000*%
%ADD14C,4.000000*%
%ADD15C,2.500000*%
%ADD16RoundRect,0.250000X0.600000X-0.600000X0.600000X0.600000X-0.600000X0.600000X-0.600000X-0.600000X0*%
%ADD17C,1.700000*%
G04 APERTURE END LIST*
G36*
X990237Y-34043305D02*
G01*
X991425Y-34135526D01*
X995767Y-34205573D01*
X1004428Y-34256344D01*
X1018574Y-34290735D01*
X1039370Y-34311642D01*
X1067980Y-34321963D01*
X1103405Y-34324599D01*
X1140506Y-34321645D01*
X1168688Y-34310852D01*
X1189113Y-34289323D01*
X1202949Y-34254162D01*
X1211361Y-34202473D01*
X1215513Y-34131357D01*
X1216573Y-34043305D01*
X1216573Y-33847577D01*
X1354890Y-33847577D01*
X1354890Y-34451142D01*
X1285732Y-34451142D01*
X1244040Y-34449452D01*
X1222571Y-34443519D01*
X1216573Y-34432256D01*
X1212961Y-34422224D01*
X1198584Y-34424346D01*
X1169606Y-34438543D01*
X1103189Y-34460443D01*
X1032745Y-34458891D01*
X965247Y-34435110D01*
X933103Y-34416325D01*
X908585Y-34395985D01*
X890674Y-34370536D01*
X878349Y-34336421D01*
X870593Y-34290084D01*
X866386Y-34227970D01*
X864710Y-34146524D01*
X864494Y-34083541D01*
X864494Y-33847577D01*
X990237Y-33847577D01*
X990237Y-34043305D01*
G37*
D10*
X990237Y-34043305D02*
X991425Y-34135526D01*
X995767Y-34205573D01*
X1004428Y-34256344D01*
X1018574Y-34290735D01*
X1039370Y-34311642D01*
X1067980Y-34321963D01*
X1103405Y-34324599D01*
X1140506Y-34321645D01*
X1168688Y-34310852D01*
X1189113Y-34289323D01*
X1202949Y-34254162D01*
X1211361Y-34202473D01*
X1215513Y-34131357D01*
X1216573Y-34043305D01*
X1216573Y-33847577D01*
X1354890Y-33847577D01*
X1354890Y-34451142D01*
X1285732Y-34451142D01*
X1244040Y-34449452D01*
X1222571Y-34443519D01*
X1216573Y-34432256D01*
X1212961Y-34422224D01*
X1198584Y-34424346D01*
X1169606Y-34438543D01*
X1103189Y-34460443D01*
X1032745Y-34458891D01*
X965247Y-34435110D01*
X933103Y-34416325D01*
X908585Y-34395985D01*
X890674Y-34370536D01*
X878349Y-34336421D01*
X870593Y-34290084D01*
X866386Y-34227970D01*
X864710Y-34146524D01*
X864494Y-34083541D01*
X864494Y-33847577D01*
X990237Y-33847577D01*
X990237Y-34043305D01*
G36*
X-689664Y-35047563D02*
G01*
X-683514Y-34965981D01*
X-670733Y-34904730D01*
X-649471Y-34859449D01*
X-617878Y-34825779D01*
X-587207Y-34806014D01*
X-544354Y-34792120D01*
X-491056Y-34787354D01*
X-436480Y-34791236D01*
X-389792Y-34803282D01*
X-365124Y-34817693D01*
X-339505Y-34840878D01*
X-339505Y-34547773D01*
X-201188Y-34547773D01*
X-201188Y-35402822D01*
X-270346Y-35402822D01*
X-310488Y-35401645D01*
X-331394Y-35396772D01*
X-338922Y-35386186D01*
X-339505Y-35379029D01*
X-340774Y-35364676D01*
X-348779Y-35361923D01*
X-369815Y-35370771D01*
X-386173Y-35379029D01*
X-448977Y-35398597D01*
X-517248Y-35399729D01*
X-572752Y-35385135D01*
X-624438Y-35349877D01*
X-663838Y-35297835D01*
X-685413Y-35236450D01*
X-685962Y-35233018D01*
X-689167Y-35195571D01*
X-690761Y-35141813D01*
X-690633Y-35101155D01*
X-553279Y-35101155D01*
X-550097Y-35155194D01*
X-542859Y-35199735D01*
X-533060Y-35224888D01*
X-495989Y-35259260D01*
X-451974Y-35271582D01*
X-406584Y-35261618D01*
X-367797Y-35231895D01*
X-353108Y-35211905D01*
X-344519Y-35188050D01*
X-340496Y-35153230D01*
X-339505Y-35100930D01*
X-341278Y-35049139D01*
X-345963Y-35003634D01*
X-352603Y-34973181D01*
X-353710Y-34970452D01*
X-380491Y-34938000D01*
X-419579Y-34920183D01*
X-463315Y-34917306D01*
X-504038Y-34929674D01*
X-534087Y-34957593D01*
X-537204Y-34963148D01*
X-546961Y-34997022D01*
X-552277Y-35045728D01*
X-553279Y-35101155D01*
X-690633Y-35101155D01*
X-690568Y-35080540D01*
X-689664Y-35047563D01*
G37*
X-689664Y-35047563D02*
X-683514Y-34965981D01*
X-670733Y-34904730D01*
X-649471Y-34859449D01*
X-617878Y-34825779D01*
X-587207Y-34806014D01*
X-544354Y-34792120D01*
X-491056Y-34787354D01*
X-436480Y-34791236D01*
X-389792Y-34803282D01*
X-365124Y-34817693D01*
X-339505Y-34840878D01*
X-339505Y-34547773D01*
X-201188Y-34547773D01*
X-201188Y-35402822D01*
X-270346Y-35402822D01*
X-310488Y-35401645D01*
X-331394Y-35396772D01*
X-338922Y-35386186D01*
X-339505Y-35379029D01*
X-340774Y-35364676D01*
X-348779Y-35361923D01*
X-369815Y-35370771D01*
X-386173Y-35379029D01*
X-448977Y-35398597D01*
X-517248Y-35399729D01*
X-572752Y-35385135D01*
X-624438Y-35349877D01*
X-663838Y-35297835D01*
X-685413Y-35236450D01*
X-685962Y-35233018D01*
X-689167Y-35195571D01*
X-690761Y-35141813D01*
X-690633Y-35101155D01*
X-553279Y-35101155D01*
X-550097Y-35155194D01*
X-542859Y-35199735D01*
X-533060Y-35224888D01*
X-495989Y-35259260D01*
X-451974Y-35271582D01*
X-406584Y-35261618D01*
X-367797Y-35231895D01*
X-353108Y-35211905D01*
X-344519Y-35188050D01*
X-340496Y-35153230D01*
X-339505Y-35100930D01*
X-341278Y-35049139D01*
X-345963Y-35003634D01*
X-352603Y-34973181D01*
X-353710Y-34970452D01*
X-380491Y-34938000D01*
X-419579Y-34920183D01*
X-463315Y-34917306D01*
X-504038Y-34929674D01*
X-534087Y-34957593D01*
X-537204Y-34963148D01*
X-546961Y-34997022D01*
X-552277Y-35045728D01*
X-553279Y-35101155D01*
X-690633Y-35101155D01*
X-690568Y-35080540D01*
X-689664Y-35047563D01*
G36*
X10887Y-33845415D02*
G01*
X58504Y-33854445D01*
X107904Y-33873333D01*
X113182Y-33875740D01*
X150644Y-33895439D01*
X176587Y-33913744D01*
X184973Y-33925471D01*
X176987Y-33944595D01*
X157590Y-33972813D01*
X148980Y-33983347D01*
X113498Y-34024810D01*
X67755Y-33997821D01*
X24220Y-33979841D01*
X-26080Y-33970230D01*
X-74318Y-33969623D01*
X-111663Y-33978654D01*
X-120625Y-33984290D01*
X-137693Y-34010134D01*
X-139767Y-34039904D01*
X-126996Y-34063160D01*
X-119442Y-34067671D01*
X-96805Y-34073272D01*
X-57015Y-34079855D01*
X-7964Y-34086146D01*
X1085Y-34087133D01*
X79866Y-34100761D01*
X137006Y-34123909D01*
X174900Y-34158715D01*
X195949Y-34207317D01*
X202505Y-34266681D01*
X193447Y-34334161D01*
X164034Y-34387151D01*
X114148Y-34425746D01*
X43670Y-34450044D01*
X-34565Y-34459630D01*
X-98364Y-34459515D01*
X-150114Y-34450808D01*
X-185457Y-34438788D01*
X-230113Y-34417843D01*
X-271383Y-34393537D01*
X-286051Y-34382839D01*
X-323773Y-34352047D01*
X-278278Y-34306012D01*
X-232783Y-34259976D01*
X-181058Y-34294206D01*
X-129178Y-34319915D01*
X-73779Y-34333362D01*
X-20525Y-34334781D01*
X24919Y-34324406D01*
X56886Y-34302470D01*
X67208Y-34283961D01*
X65659Y-34254277D01*
X40010Y-34231578D01*
X-9670Y-34215903D01*
X-64099Y-34208658D01*
X-147866Y-34194836D01*
X-210097Y-34168759D01*
X-251623Y-34129662D01*
X-273277Y-34076783D01*
X-276277Y-34014089D01*
X-261459Y-33948605D01*
X-227676Y-33899107D01*
X-174625Y-33865371D01*
X-102004Y-33847170D01*
X-48202Y-33843602D01*
X10887Y-33845415D01*
G37*
X10887Y-33845415D02*
X58504Y-33854445D01*
X107904Y-33873333D01*
X113182Y-33875740D01*
X150644Y-33895439D01*
X176587Y-33913744D01*
X184973Y-33925471D01*
X176987Y-33944595D01*
X157590Y-33972813D01*
X148980Y-33983347D01*
X113498Y-34024810D01*
X67755Y-33997821D01*
X24220Y-33979841D01*
X-26080Y-33970230D01*
X-74318Y-33969623D01*
X-111663Y-33978654D01*
X-120625Y-33984290D01*
X-137693Y-34010134D01*
X-139767Y-34039904D01*
X-126996Y-34063160D01*
X-119442Y-34067671D01*
X-96805Y-34073272D01*
X-57015Y-34079855D01*
X-7964Y-34086146D01*
X1085Y-34087133D01*
X79866Y-34100761D01*
X137006Y-34123909D01*
X174900Y-34158715D01*
X195949Y-34207317D01*
X202505Y-34266681D01*
X193447Y-34334161D01*
X164034Y-34387151D01*
X114148Y-34425746D01*
X43670Y-34450044D01*
X-34565Y-34459630D01*
X-98364Y-34459515D01*
X-150114Y-34450808D01*
X-185457Y-34438788D01*
X-230113Y-34417843D01*
X-271383Y-34393537D01*
X-286051Y-34382839D01*
X-323773Y-34352047D01*
X-278278Y-34306012D01*
X-232783Y-34259976D01*
X-181058Y-34294206D01*
X-129178Y-34319915D01*
X-73779Y-34333362D01*
X-20525Y-34334781D01*
X24919Y-34324406D01*
X56886Y-34302470D01*
X67208Y-34283961D01*
X65659Y-34254277D01*
X40010Y-34231578D01*
X-9670Y-34215903D01*
X-64099Y-34208658D01*
X-147866Y-34194836D01*
X-210097Y-34168759D01*
X-251623Y-34129662D01*
X-273277Y-34076783D01*
X-276277Y-34014089D01*
X-261459Y-33948605D01*
X-227676Y-33899107D01*
X-174625Y-33865371D01*
X-102004Y-33847170D01*
X-48202Y-33843602D01*
X10887Y-33845415D01*
G36*
X733533Y-35124207D02*
G01*
X764494Y-35085543D01*
X783246Y-35068827D01*
X801603Y-35057841D01*
X825489Y-35051143D01*
X860827Y-35047289D01*
X913539Y-35044836D01*
X934447Y-35044131D01*
X1065682Y-35039842D01*
X1065490Y-35000121D01*
X1060407Y-34958368D01*
X1042032Y-34933121D01*
X1004909Y-34916993D01*
X1003913Y-34916705D01*
X951280Y-34910363D01*
X899776Y-34918647D01*
X861500Y-34938790D01*
X846142Y-34948736D01*
X829600Y-34947360D01*
X804145Y-34932950D01*
X789198Y-34922780D01*
X759961Y-34901051D01*
X741850Y-34884763D01*
X738944Y-34880100D01*
X750910Y-34855968D01*
X786266Y-34827148D01*
X801623Y-34817424D01*
X845771Y-34800677D01*
X905268Y-34791190D01*
X971357Y-34789058D01*
X1035281Y-34794380D01*
X1088281Y-34807253D01*
X1103601Y-34814073D01*
X1133298Y-34831937D01*
X1156090Y-34852056D01*
X1172953Y-34877925D01*
X1184868Y-34913036D01*
X1192812Y-34960883D01*
X1197764Y-35024959D01*
X1200701Y-35108757D01*
X1201817Y-35164731D01*
X1205922Y-35406785D01*
X1135802Y-35406785D01*
X1093263Y-35405001D01*
X1071346Y-35398905D01*
X1065682Y-35388669D01*
X1062691Y-35377600D01*
X1049321Y-35379717D01*
X1031103Y-35388592D01*
X985494Y-35402196D01*
X926877Y-35405862D01*
X865224Y-35399866D01*
X810508Y-35384484D01*
X805600Y-35382349D01*
X755593Y-35347218D01*
X722626Y-35298382D01*
X707457Y-35241296D01*
X708616Y-35220787D01*
X832378Y-35220787D01*
X843283Y-35248388D01*
X875615Y-35268167D01*
X927780Y-35278782D01*
X955657Y-35280191D01*
X1002117Y-35276583D01*
X1032999Y-35262560D01*
X1040534Y-35255894D01*
X1060946Y-35219629D01*
X1065682Y-35186736D01*
X1065682Y-35142726D01*
X1004383Y-35142726D01*
X933126Y-35146358D01*
X883146Y-35157781D01*
X851566Y-35177787D01*
X844496Y-35186706D01*
X832378Y-35220787D01*
X708616Y-35220787D01*
X710841Y-35181419D01*
X733533Y-35124207D01*
G37*
X733533Y-35124207D02*
X764494Y-35085543D01*
X783246Y-35068827D01*
X801603Y-35057841D01*
X825489Y-35051143D01*
X860827Y-35047289D01*
X913539Y-35044836D01*
X934447Y-35044131D01*
X1065682Y-35039842D01*
X1065490Y-35000121D01*
X1060407Y-34958368D01*
X1042032Y-34933121D01*
X1004909Y-34916993D01*
X1003913Y-34916705D01*
X951280Y-34910363D01*
X899776Y-34918647D01*
X861500Y-34938790D01*
X846142Y-34948736D01*
X829600Y-34947360D01*
X804145Y-34932950D01*
X789198Y-34922780D01*
X759961Y-34901051D01*
X741850Y-34884763D01*
X738944Y-34880100D01*
X750910Y-34855968D01*
X786266Y-34827148D01*
X801623Y-34817424D01*
X845771Y-34800677D01*
X905268Y-34791190D01*
X971357Y-34789058D01*
X1035281Y-34794380D01*
X1088281Y-34807253D01*
X1103601Y-34814073D01*
X1133298Y-34831937D01*
X1156090Y-34852056D01*
X1172953Y-34877925D01*
X1184868Y-34913036D01*
X1192812Y-34960883D01*
X1197764Y-35024959D01*
X1200701Y-35108757D01*
X1201817Y-35164731D01*
X1205922Y-35406785D01*
X1135802Y-35406785D01*
X1093263Y-35405001D01*
X1071346Y-35398905D01*
X1065682Y-35388669D01*
X1062691Y-35377600D01*
X1049321Y-35379717D01*
X1031103Y-35388592D01*
X985494Y-35402196D01*
X926877Y-35405862D01*
X865224Y-35399866D01*
X810508Y-35384484D01*
X805600Y-35382349D01*
X755593Y-35347218D01*
X722626Y-35298382D01*
X707457Y-35241296D01*
X708616Y-35220787D01*
X832378Y-35220787D01*
X843283Y-35248388D01*
X875615Y-35268167D01*
X927780Y-35278782D01*
X955657Y-35280191D01*
X1002117Y-35276583D01*
X1032999Y-35262560D01*
X1040534Y-35255894D01*
X1060946Y-35219629D01*
X1065682Y-35186736D01*
X1065682Y-35142726D01*
X1004383Y-35142726D01*
X933126Y-35146358D01*
X883146Y-35157781D01*
X851566Y-35177787D01*
X844496Y-35186706D01*
X832378Y-35220787D01*
X708616Y-35220787D01*
X710841Y-35181419D01*
X733533Y-35124207D01*
G36*
X282258Y-33999464D02*
G01*
X315899Y-33931493D01*
X365888Y-33882627D01*
X432226Y-33852862D01*
X446471Y-33849411D01*
X532080Y-33841308D01*
X607632Y-33855018D01*
X671233Y-33889655D01*
X720993Y-33944335D01*
X744438Y-33988805D01*
X754504Y-34028084D01*
X761026Y-34084079D01*
X763821Y-34148584D01*
X762706Y-34213392D01*
X757496Y-34270297D01*
X751411Y-34300690D01*
X730884Y-34342269D01*
X695333Y-34386431D01*
X652489Y-34425050D01*
X610081Y-34449997D01*
X609047Y-34450393D01*
X556423Y-34461294D01*
X494058Y-34461564D01*
X434794Y-34451639D01*
X411910Y-34443685D01*
X352972Y-34410263D01*
X310760Y-34366474D01*
X283026Y-34308501D01*
X267521Y-34232528D01*
X264013Y-34192734D01*
X264460Y-34142729D01*
X399246Y-34142729D01*
X403787Y-34215695D01*
X416856Y-34271297D01*
X437626Y-34306824D01*
X452422Y-34316983D01*
X490334Y-34324067D01*
X535397Y-34321970D01*
X574357Y-34311775D01*
X584574Y-34306167D01*
X611529Y-34273501D01*
X629321Y-34223508D01*
X636894Y-34162668D01*
X633195Y-34097460D01*
X624927Y-34058216D01*
X601190Y-34012768D01*
X563719Y-33984359D01*
X518590Y-33974536D01*
X471881Y-33984850D01*
X436002Y-34010075D01*
X417147Y-34030888D01*
X406142Y-34051402D01*
X400896Y-34079166D01*
X399319Y-34121725D01*
X399246Y-34142729D01*
X264460Y-34142729D01*
X264964Y-34086543D01*
X282258Y-33999464D01*
G37*
X282258Y-33999464D02*
X315899Y-33931493D01*
X365888Y-33882627D01*
X432226Y-33852862D01*
X446471Y-33849411D01*
X532080Y-33841308D01*
X607632Y-33855018D01*
X671233Y-33889655D01*
X720993Y-33944335D01*
X744438Y-33988805D01*
X754504Y-34028084D01*
X761026Y-34084079D01*
X763821Y-34148584D01*
X762706Y-34213392D01*
X757496Y-34270297D01*
X751411Y-34300690D01*
X730884Y-34342269D01*
X695333Y-34386431D01*
X652489Y-34425050D01*
X610081Y-34449997D01*
X609047Y-34450393D01*
X556423Y-34461294D01*
X494058Y-34461564D01*
X434794Y-34451639D01*
X411910Y-34443685D01*
X352972Y-34410263D01*
X310760Y-34366474D01*
X283026Y-34308501D01*
X267521Y-34232528D01*
X264013Y-34192734D01*
X264460Y-34142729D01*
X399246Y-34142729D01*
X403787Y-34215695D01*
X416856Y-34271297D01*
X437626Y-34306824D01*
X452422Y-34316983D01*
X490334Y-34324067D01*
X535397Y-34321970D01*
X574357Y-34311775D01*
X584574Y-34306167D01*
X611529Y-34273501D01*
X629321Y-34223508D01*
X636894Y-34162668D01*
X633195Y-34097460D01*
X624927Y-34058216D01*
X601190Y-34012768D01*
X563719Y-33984359D01*
X518590Y-33974536D01*
X471881Y-33984850D01*
X436002Y-34010075D01*
X417147Y-34030888D01*
X406142Y-34051402D01*
X400896Y-34079166D01*
X399319Y-34121725D01*
X399246Y-34142729D01*
X264460Y-34142729D01*
X264964Y-34086543D01*
X282258Y-33999464D01*
G36*
X-996486Y-34791983D02*
G01*
X-977669Y-34797623D01*
X-971603Y-34810016D01*
X-971348Y-34815610D01*
X-970259Y-34831193D01*
X-962762Y-34833639D01*
X-942511Y-34822956D01*
X-930481Y-34815657D01*
X-892530Y-34800026D01*
X-847202Y-34792297D01*
X-799674Y-34791703D01*
X-755125Y-34797476D01*
X-718732Y-34808847D01*
X-695673Y-34825051D01*
X-691126Y-34845318D01*
X-693421Y-34850806D01*
X-710150Y-34873589D01*
X-736093Y-34901610D01*
X-740785Y-34906140D01*
X-765513Y-34926968D01*
X-786848Y-34933698D01*
X-816685Y-34929001D01*
X-828638Y-34925880D01*
X-865835Y-34918384D01*
X-891989Y-34921755D01*
X-914076Y-34933644D01*
X-934308Y-34949598D01*
X-949209Y-34969663D01*
X-959564Y-34997665D01*
X-966159Y-35037430D01*
X-969779Y-35092786D01*
X-971208Y-35167557D01*
X-971348Y-35212703D01*
X-971348Y-35406785D01*
X-1097090Y-35406785D01*
X-1097090Y-34790646D01*
X-1034219Y-34790646D01*
X-996486Y-34791983D01*
G37*
X-996486Y-34791983D02*
X-977669Y-34797623D01*
X-971603Y-34810016D01*
X-971348Y-34815610D01*
X-970259Y-34831193D01*
X-962762Y-34833639D01*
X-942511Y-34822956D01*
X-930481Y-34815657D01*
X-892530Y-34800026D01*
X-847202Y-34792297D01*
X-799674Y-34791703D01*
X-755125Y-34797476D01*
X-718732Y-34808847D01*
X-695673Y-34825051D01*
X-691126Y-34845318D01*
X-693421Y-34850806D01*
X-710150Y-34873589D01*
X-736093Y-34901610D01*
X-740785Y-34906140D01*
X-765513Y-34926968D01*
X-786848Y-34933698D01*
X-816685Y-34929001D01*
X-828638Y-34925880D01*
X-865835Y-34918384D01*
X-891989Y-34921755D01*
X-914076Y-34933644D01*
X-934308Y-34949598D01*
X-949209Y-34969663D01*
X-959564Y-34997665D01*
X-966159Y-35037430D01*
X-969779Y-35092786D01*
X-971208Y-35167557D01*
X-971348Y-35212703D01*
X-971348Y-35406785D01*
X-1097090Y-35406785D01*
X-1097090Y-34790646D01*
X-1034219Y-34790646D01*
X-996486Y-34791983D01*
G36*
X-1683840Y-35112808D02*
G01*
X-1640078Y-35070610D01*
X-1634029Y-35066771D01*
X-1608037Y-35054272D01*
X-1575865Y-35046703D01*
X-1530890Y-35043024D01*
X-1477461Y-35042179D01*
X-1361150Y-35042132D01*
X-1361150Y-34993374D01*
X-1366083Y-34955544D01*
X-1378673Y-34930199D01*
X-1380147Y-34928850D01*
X-1408164Y-34917763D01*
X-1450456Y-34913466D01*
X-1497194Y-34915578D01*
X-1538548Y-34923719D01*
X-1563087Y-34935928D01*
X-1576383Y-34945709D01*
X-1590424Y-34947576D01*
X-1609801Y-34939563D01*
X-1639106Y-34919702D01*
X-1682933Y-34886026D01*
X-1686955Y-34882872D01*
X-1684894Y-34871199D01*
X-1667698Y-34851785D01*
X-1641563Y-34830211D01*
X-1612682Y-34812059D01*
X-1603608Y-34807772D01*
X-1570510Y-34799219D01*
X-1522010Y-34793118D01*
X-1467825Y-34790671D01*
X-1465291Y-34790666D01*
X-1387340Y-34795518D01*
X-1328185Y-34811302D01*
X-1283153Y-34839911D01*
X-1251376Y-34877382D01*
X-1241496Y-34893374D01*
X-1234203Y-34910126D01*
X-1229104Y-34931555D01*
X-1225809Y-34961579D01*
X-1223927Y-35004117D01*
X-1223067Y-35063085D01*
X-1222837Y-35142403D01*
X-1222833Y-35163447D01*
X-1222833Y-35406785D01*
X-1283189Y-35406785D01*
X-1321687Y-35404089D01*
X-1350153Y-35397258D01*
X-1357285Y-35393046D01*
X-1376782Y-35385776D01*
X-1396696Y-35393046D01*
X-1429483Y-35402123D01*
X-1477108Y-35405776D01*
X-1529894Y-35404191D01*
X-1578166Y-35397552D01*
X-1606348Y-35389035D01*
X-1660883Y-35354026D01*
X-1694965Y-35305442D01*
X-1710287Y-35240845D01*
X-1710429Y-35239186D01*
X-1709085Y-35210529D01*
X-1587486Y-35210529D01*
X-1576856Y-35243124D01*
X-1559540Y-35261468D01*
X-1524782Y-35275342D01*
X-1478903Y-35280880D01*
X-1432118Y-35278154D01*
X-1394644Y-35267237D01*
X-1384145Y-35260232D01*
X-1365798Y-35227867D01*
X-1361150Y-35191074D01*
X-1361150Y-35142726D01*
X-1430712Y-35142726D01*
X-1496797Y-35147813D01*
X-1546894Y-35162226D01*
X-1578059Y-35184692D01*
X-1587486Y-35210529D01*
X-1709085Y-35210529D01*
X-1707117Y-35168610D01*
X-1683840Y-35112808D01*
G37*
X-1683840Y-35112808D02*
X-1640078Y-35070610D01*
X-1634029Y-35066771D01*
X-1608037Y-35054272D01*
X-1575865Y-35046703D01*
X-1530890Y-35043024D01*
X-1477461Y-35042179D01*
X-1361150Y-35042132D01*
X-1361150Y-34993374D01*
X-1366083Y-34955544D01*
X-1378673Y-34930199D01*
X-1380147Y-34928850D01*
X-1408164Y-34917763D01*
X-1450456Y-34913466D01*
X-1497194Y-34915578D01*
X-1538548Y-34923719D01*
X-1563087Y-34935928D01*
X-1576383Y-34945709D01*
X-1590424Y-34947576D01*
X-1609801Y-34939563D01*
X-1639106Y-34919702D01*
X-1682933Y-34886026D01*
X-1686955Y-34882872D01*
X-1684894Y-34871199D01*
X-1667698Y-34851785D01*
X-1641563Y-34830211D01*
X-1612682Y-34812059D01*
X-1603608Y-34807772D01*
X-1570510Y-34799219D01*
X-1522010Y-34793118D01*
X-1467825Y-34790671D01*
X-1465291Y-34790666D01*
X-1387340Y-34795518D01*
X-1328185Y-34811302D01*
X-1283153Y-34839911D01*
X-1251376Y-34877382D01*
X-1241496Y-34893374D01*
X-1234203Y-34910126D01*
X-1229104Y-34931555D01*
X-1225809Y-34961579D01*
X-1223927Y-35004117D01*
X-1223067Y-35063085D01*
X-1222837Y-35142403D01*
X-1222833Y-35163447D01*
X-1222833Y-35406785D01*
X-1283189Y-35406785D01*
X-1321687Y-35404089D01*
X-1350153Y-35397258D01*
X-1357285Y-35393046D01*
X-1376782Y-35385776D01*
X-1396696Y-35393046D01*
X-1429483Y-35402123D01*
X-1477108Y-35405776D01*
X-1529894Y-35404191D01*
X-1578166Y-35397552D01*
X-1606348Y-35389035D01*
X-1660883Y-35354026D01*
X-1694965Y-35305442D01*
X-1710287Y-35240845D01*
X-1710429Y-35239186D01*
X-1709085Y-35210529D01*
X-1587486Y-35210529D01*
X-1576856Y-35243124D01*
X-1559540Y-35261468D01*
X-1524782Y-35275342D01*
X-1478903Y-35280880D01*
X-1432118Y-35278154D01*
X-1394644Y-35267237D01*
X-1384145Y-35260232D01*
X-1365798Y-35227867D01*
X-1361150Y-35191074D01*
X-1361150Y-35142726D01*
X-1430712Y-35142726D01*
X-1496797Y-35147813D01*
X-1546894Y-35162226D01*
X-1578059Y-35184692D01*
X-1587486Y-35210529D01*
X-1709085Y-35210529D01*
X-1707117Y-35168610D01*
X-1683840Y-35112808D01*
G36*
X-1669168Y-33948988D02*
G01*
X-1636937Y-33909602D01*
X-1577347Y-33866894D01*
X-1507298Y-33844072D01*
X-1432791Y-33842009D01*
X-1359829Y-33861577D01*
X-1347298Y-33867477D01*
X-1303929Y-33899246D01*
X-1262920Y-33945609D01*
X-1232298Y-33996659D01*
X-1223589Y-34020129D01*
X-1215642Y-34062054D01*
X-1210904Y-34112720D01*
X-1210329Y-34133642D01*
X-1210259Y-34199656D01*
X-1590213Y-34199656D01*
X-1582113Y-34234236D01*
X-1562234Y-34275133D01*
X-1527477Y-34310477D01*
X-1486128Y-34333245D01*
X-1459779Y-34337973D01*
X-1424046Y-34332236D01*
X-1381412Y-34317845D01*
X-1366929Y-34311225D01*
X-1313370Y-34284476D01*
X-1267663Y-34319339D01*
X-1241288Y-34342918D01*
X-1227254Y-34362380D01*
X-1226544Y-34368092D01*
X-1239081Y-34381936D01*
X-1266558Y-34402975D01*
X-1291496Y-34419388D01*
X-1358794Y-34448893D01*
X-1434240Y-34462247D01*
X-1509018Y-34458775D01*
X-1568625Y-34440626D01*
X-1630071Y-34401747D01*
X-1673738Y-34350558D01*
X-1701056Y-34284330D01*
X-1713452Y-34200334D01*
X-1714551Y-34161899D01*
X-1710152Y-34073824D01*
X-1709612Y-34071262D01*
X-1583712Y-34071262D01*
X-1580245Y-34079521D01*
X-1565993Y-34084076D01*
X-1536600Y-34086028D01*
X-1487705Y-34086480D01*
X-1468878Y-34086488D01*
X-1411597Y-34085806D01*
X-1375271Y-34083327D01*
X-1355734Y-34078406D01*
X-1348820Y-34070397D01*
X-1348575Y-34067825D01*
X-1356466Y-34047386D01*
X-1376215Y-34018752D01*
X-1384705Y-34008726D01*
X-1416224Y-33980371D01*
X-1449079Y-33969222D01*
X-1466781Y-33968290D01*
X-1514669Y-33979944D01*
X-1554829Y-34011248D01*
X-1580303Y-34056715D01*
X-1580755Y-34058196D01*
X-1583712Y-34071262D01*
X-1709612Y-34071262D01*
X-1695522Y-34004473D01*
X-1669168Y-33948988D01*
G37*
X-1669168Y-33948988D02*
X-1636937Y-33909602D01*
X-1577347Y-33866894D01*
X-1507298Y-33844072D01*
X-1432791Y-33842009D01*
X-1359829Y-33861577D01*
X-1347298Y-33867477D01*
X-1303929Y-33899246D01*
X-1262920Y-33945609D01*
X-1232298Y-33996659D01*
X-1223589Y-34020129D01*
X-1215642Y-34062054D01*
X-1210904Y-34112720D01*
X-1210329Y-34133642D01*
X-1210259Y-34199656D01*
X-1590213Y-34199656D01*
X-1582113Y-34234236D01*
X-1562234Y-34275133D01*
X-1527477Y-34310477D01*
X-1486128Y-34333245D01*
X-1459779Y-34337973D01*
X-1424046Y-34332236D01*
X-1381412Y-34317845D01*
X-1366929Y-34311225D01*
X-1313370Y-34284476D01*
X-1267663Y-34319339D01*
X-1241288Y-34342918D01*
X-1227254Y-34362380D01*
X-1226544Y-34368092D01*
X-1239081Y-34381936D01*
X-1266558Y-34402975D01*
X-1291496Y-34419388D01*
X-1358794Y-34448893D01*
X-1434240Y-34462247D01*
X-1509018Y-34458775D01*
X-1568625Y-34440626D01*
X-1630071Y-34401747D01*
X-1673738Y-34350558D01*
X-1701056Y-34284330D01*
X-1713452Y-34200334D01*
X-1714551Y-34161899D01*
X-1710152Y-34073824D01*
X-1709612Y-34071262D01*
X-1583712Y-34071262D01*
X-1580245Y-34079521D01*
X-1565993Y-34084076D01*
X-1536600Y-34086028D01*
X-1487705Y-34086480D01*
X-1468878Y-34086488D01*
X-1411597Y-34085806D01*
X-1375271Y-34083327D01*
X-1355734Y-34078406D01*
X-1348820Y-34070397D01*
X-1348575Y-34067825D01*
X-1356466Y-34047386D01*
X-1376215Y-34018752D01*
X-1384705Y-34008726D01*
X-1416224Y-33980371D01*
X-1449079Y-33969222D01*
X-1466781Y-33968290D01*
X-1514669Y-33979944D01*
X-1554829Y-34011248D01*
X-1580303Y-34056715D01*
X-1580755Y-34058196D01*
X-1583712Y-34071262D01*
X-1709612Y-34071262D01*
X-1695522Y-34004473D01*
X-1669168Y-33948988D01*
G36*
X1796330Y-33846993D02*
G01*
X1839581Y-33860208D01*
X1867428Y-33876904D01*
X1876499Y-33890108D01*
X1874002Y-33905760D01*
X1857801Y-33930348D01*
X1844102Y-33947763D01*
X1815862Y-33979246D01*
X1794645Y-33992492D01*
X1776558Y-33991627D01*
X1722905Y-33977973D01*
X1683500Y-33978593D01*
X1651502Y-33994067D01*
X1640760Y-34003124D01*
X1606375Y-34034990D01*
X1606375Y-34451142D01*
X1468058Y-34451142D01*
X1468058Y-33847577D01*
X1537217Y-33847577D01*
X1578739Y-33849219D01*
X1600161Y-33855050D01*
X1606372Y-33866424D01*
X1606375Y-33866761D01*
X1609309Y-33878676D01*
X1622574Y-33877122D01*
X1640954Y-33868526D01*
X1678916Y-33852531D01*
X1709742Y-33842908D01*
X1749406Y-33840441D01*
X1796330Y-33846993D01*
G37*
X1796330Y-33846993D02*
X1839581Y-33860208D01*
X1867428Y-33876904D01*
X1876499Y-33890108D01*
X1874002Y-33905760D01*
X1857801Y-33930348D01*
X1844102Y-33947763D01*
X1815862Y-33979246D01*
X1794645Y-33992492D01*
X1776558Y-33991627D01*
X1722905Y-33977973D01*
X1683500Y-33978593D01*
X1651502Y-33994067D01*
X1640760Y-34003124D01*
X1606375Y-34034990D01*
X1606375Y-34451142D01*
X1468058Y-34451142D01*
X1468058Y-33847577D01*
X1537217Y-33847577D01*
X1578739Y-33849219D01*
X1600161Y-33855050D01*
X1606372Y-33866424D01*
X1606375Y-33866761D01*
X1609309Y-33878676D01*
X1622574Y-33877122D01*
X1640954Y-33868526D01*
X1678916Y-33852531D01*
X1709742Y-33842908D01*
X1749406Y-33840441D01*
X1796330Y-33846993D01*
G36*
X2425568Y-33953154D02*
G01*
X2471571Y-33897742D01*
X2529691Y-33859972D01*
X2598050Y-33841859D01*
X2674768Y-33845420D01*
X2706966Y-33853242D01*
X2768695Y-33881884D01*
X2821480Y-33925630D01*
X2858011Y-33978080D01*
X2863030Y-33989856D01*
X2869915Y-34020703D01*
X2874734Y-34066334D01*
X2876375Y-34112455D01*
X2876375Y-34199656D01*
X2694048Y-34199656D01*
X2618849Y-34199941D01*
X2565873Y-34201667D01*
X2532195Y-34206144D01*
X2514890Y-34214683D01*
X2511033Y-34228593D01*
X2517699Y-34249185D01*
X2529640Y-34273278D01*
X2562950Y-34313488D01*
X2609238Y-34333521D01*
X2665814Y-34332868D01*
X2729901Y-34311064D01*
X2785287Y-34284156D01*
X2831245Y-34320495D01*
X2877203Y-34356835D01*
X2833966Y-34396782D01*
X2776244Y-34434526D01*
X2705256Y-34457283D01*
X2628899Y-34463651D01*
X2555069Y-34452231D01*
X2543157Y-34448356D01*
X2478269Y-34414469D01*
X2430000Y-34363949D01*
X2397335Y-34295288D01*
X2379255Y-34206977D01*
X2379045Y-34205084D01*
X2377426Y-34108841D01*
X2383970Y-34074505D01*
X2511722Y-34074505D01*
X2523454Y-34079785D01*
X2555308Y-34083830D01*
X2602267Y-34086139D01*
X2632024Y-34086488D01*
X2687518Y-34086269D01*
X2722216Y-34084879D01*
X2740471Y-34081214D01*
X2746636Y-34074173D01*
X2745065Y-34062653D01*
X2743748Y-34058196D01*
X2721252Y-34016318D01*
X2685873Y-33982567D01*
X2654650Y-33967736D01*
X2613171Y-33968631D01*
X2571139Y-33987127D01*
X2535882Y-34017749D01*
X2514724Y-34055025D01*
X2511722Y-34074505D01*
X2383970Y-34074505D01*
X2393560Y-34024192D01*
X2425568Y-33953154D01*
G37*
X2425568Y-33953154D02*
X2471571Y-33897742D01*
X2529691Y-33859972D01*
X2598050Y-33841859D01*
X2674768Y-33845420D01*
X2706966Y-33853242D01*
X2768695Y-33881884D01*
X2821480Y-33925630D01*
X2858011Y-33978080D01*
X2863030Y-33989856D01*
X2869915Y-34020703D01*
X2874734Y-34066334D01*
X2876375Y-34112455D01*
X2876375Y-34199656D01*
X2694048Y-34199656D01*
X2618849Y-34199941D01*
X2565873Y-34201667D01*
X2532195Y-34206144D01*
X2514890Y-34214683D01*
X2511033Y-34228593D01*
X2517699Y-34249185D01*
X2529640Y-34273278D01*
X2562950Y-34313488D01*
X2609238Y-34333521D01*
X2665814Y-34332868D01*
X2729901Y-34311064D01*
X2785287Y-34284156D01*
X2831245Y-34320495D01*
X2877203Y-34356835D01*
X2833966Y-34396782D01*
X2776244Y-34434526D01*
X2705256Y-34457283D01*
X2628899Y-34463651D01*
X2555069Y-34452231D01*
X2543157Y-34448356D01*
X2478269Y-34414469D01*
X2430000Y-34363949D01*
X2397335Y-34295288D01*
X2379255Y-34206977D01*
X2379045Y-34205084D01*
X2377426Y-34108841D01*
X2383970Y-34074505D01*
X2511722Y-34074505D01*
X2523454Y-34079785D01*
X2555308Y-34083830D01*
X2602267Y-34086139D01*
X2632024Y-34086488D01*
X2687518Y-34086269D01*
X2722216Y-34084879D01*
X2740471Y-34081214D01*
X2746636Y-34074173D01*
X2745065Y-34062653D01*
X2743748Y-34058196D01*
X2721252Y-34016318D01*
X2685873Y-33982567D01*
X2654650Y-33967736D01*
X2613171Y-33968631D01*
X2571139Y-33987127D01*
X2535882Y-34017749D01*
X2514724Y-34055025D01*
X2511722Y-34074505D01*
X2383970Y-34074505D01*
X2393560Y-34024192D01*
X2425568Y-33953154D01*
G36*
X1760925Y-34919912D02*
G01*
X1797340Y-34860226D01*
X1849167Y-34819512D01*
X1916860Y-34797142D01*
X1953532Y-34792834D01*
X2029451Y-34793933D01*
X2089555Y-34809560D01*
X2139891Y-34841811D01*
X2164263Y-34865903D01*
X2204215Y-34922858D01*
X2227112Y-34988928D01*
X2234978Y-35070145D01*
X2235018Y-35076711D01*
X2235088Y-35142726D01*
X1855134Y-35142726D01*
X1863233Y-35177305D01*
X1877857Y-35208622D01*
X1903451Y-35241254D01*
X1908805Y-35246463D01*
X1954813Y-35274657D01*
X2007280Y-35279438D01*
X2067673Y-35260889D01*
X2077910Y-35255894D01*
X2109309Y-35240708D01*
X2130340Y-35232057D01*
X2134009Y-35231256D01*
X2146818Y-35239026D01*
X2171248Y-35258035D01*
X2183649Y-35268423D01*
X2209346Y-35292284D01*
X2217785Y-35308040D01*
X2211928Y-35322534D01*
X2208798Y-35326497D01*
X2187595Y-35343842D01*
X2152608Y-35364922D01*
X2128207Y-35377228D01*
X2058942Y-35398909D01*
X1982258Y-35405934D01*
X1909635Y-35397610D01*
X1889296Y-35391649D01*
X1826346Y-35357915D01*
X1779685Y-35306008D01*
X1749043Y-35235422D01*
X1734152Y-35145655D01*
X1732517Y-35098716D01*
X1737291Y-35030376D01*
X1857860Y-35030376D01*
X1869522Y-35035428D01*
X1900868Y-35039392D01*
X1946441Y-35041731D01*
X1977316Y-35042132D01*
X2032851Y-35041746D01*
X2067903Y-35039938D01*
X2087132Y-35035736D01*
X2095200Y-35028166D01*
X2096771Y-35017181D01*
X2085991Y-34983344D01*
X2058850Y-34949903D01*
X2023147Y-34924235D01*
X1987430Y-34913735D01*
X1938918Y-34923049D01*
X1896923Y-34949976D01*
X1867806Y-34988790D01*
X1857860Y-35030376D01*
X1737291Y-35030376D01*
X1739469Y-34999199D01*
X1760925Y-34919912D01*
G37*
X1760925Y-34919912D02*
X1797340Y-34860226D01*
X1849167Y-34819512D01*
X1916860Y-34797142D01*
X1953532Y-34792834D01*
X2029451Y-34793933D01*
X2089555Y-34809560D01*
X2139891Y-34841811D01*
X2164263Y-34865903D01*
X2204215Y-34922858D01*
X2227112Y-34988928D01*
X2234978Y-35070145D01*
X2235018Y-35076711D01*
X2235088Y-35142726D01*
X1855134Y-35142726D01*
X1863233Y-35177305D01*
X1877857Y-35208622D01*
X1903451Y-35241254D01*
X1908805Y-35246463D01*
X1954813Y-35274657D01*
X2007280Y-35279438D01*
X2067673Y-35260889D01*
X2077910Y-35255894D01*
X2109309Y-35240708D01*
X2130340Y-35232057D01*
X2134009Y-35231256D01*
X2146818Y-35239026D01*
X2171248Y-35258035D01*
X2183649Y-35268423D01*
X2209346Y-35292284D01*
X2217785Y-35308040D01*
X2211928Y-35322534D01*
X2208798Y-35326497D01*
X2187595Y-35343842D01*
X2152608Y-35364922D01*
X2128207Y-35377228D01*
X2058942Y-35398909D01*
X1982258Y-35405934D01*
X1909635Y-35397610D01*
X1889296Y-35391649D01*
X1826346Y-35357915D01*
X1779685Y-35306008D01*
X1749043Y-35235422D01*
X1734152Y-35145655D01*
X1732517Y-35098716D01*
X1737291Y-35030376D01*
X1857860Y-35030376D01*
X1869522Y-35035428D01*
X1900868Y-35039392D01*
X1946441Y-35041731D01*
X1977316Y-35042132D01*
X2032851Y-35041746D01*
X2067903Y-35039938D01*
X2087132Y-35035736D01*
X2095200Y-35028166D01*
X2096771Y-35017181D01*
X2085991Y-34983344D01*
X2058850Y-34949903D01*
X2023147Y-34924235D01*
X1987430Y-34913735D01*
X1938918Y-34923049D01*
X1896923Y-34949976D01*
X1867806Y-34988790D01*
X1857860Y-35030376D01*
X1737291Y-35030376D01*
X1739469Y-34999199D01*
X1760925Y-34919912D01*
G36*
X-757142Y-33857965D02*
G01*
X-725847Y-33872913D01*
X-695539Y-33894504D01*
X-672448Y-33919354D01*
X-655630Y-33951050D01*
X-644136Y-33993177D01*
X-637021Y-34049321D01*
X-633337Y-34123069D01*
X-632138Y-34218007D01*
X-632119Y-34227948D01*
X-631843Y-34451142D01*
X-770160Y-34451142D01*
X-770160Y-34245381D01*
X-770258Y-34169152D01*
X-770939Y-34113902D01*
X-772781Y-34075464D01*
X-776363Y-34049669D01*
X-782262Y-34032347D01*
X-791057Y-34019331D01*
X-803310Y-34006470D01*
X-846177Y-33978836D01*
X-892973Y-33973708D01*
X-937554Y-33991180D01*
X-953058Y-34004184D01*
X-964440Y-34016410D01*
X-972611Y-34029503D01*
X-978104Y-34047578D01*
X-981450Y-34074750D01*
X-983181Y-34115133D01*
X-983827Y-34172842D01*
X-983922Y-34243095D01*
X-983922Y-34451142D01*
X-1122239Y-34451142D01*
X-1122239Y-33847577D01*
X-1053080Y-33847577D01*
X-1011558Y-33849219D01*
X-990136Y-33855050D01*
X-983925Y-33866424D01*
X-983922Y-33866761D01*
X-981040Y-33877901D01*
X-968329Y-33876637D01*
X-943056Y-33864397D01*
X-885735Y-33846387D01*
X-820167Y-33844384D01*
X-757142Y-33857965D01*
G37*
X-757142Y-33857965D02*
X-725847Y-33872913D01*
X-695539Y-33894504D01*
X-672448Y-33919354D01*
X-655630Y-33951050D01*
X-644136Y-33993177D01*
X-637021Y-34049321D01*
X-633337Y-34123069D01*
X-632138Y-34218007D01*
X-632119Y-34227948D01*
X-631843Y-34451142D01*
X-770160Y-34451142D01*
X-770160Y-34245381D01*
X-770258Y-34169152D01*
X-770939Y-34113902D01*
X-772781Y-34075464D01*
X-776363Y-34049669D01*
X-782262Y-34032347D01*
X-791057Y-34019331D01*
X-803310Y-34006470D01*
X-846177Y-33978836D01*
X-892973Y-33973708D01*
X-937554Y-33991180D01*
X-953058Y-34004184D01*
X-964440Y-34016410D01*
X-972611Y-34029503D01*
X-978104Y-34047578D01*
X-981450Y-34074750D01*
X-983181Y-34115133D01*
X-983827Y-34172842D01*
X-983922Y-34243095D01*
X-983922Y-34451142D01*
X-1122239Y-34451142D01*
X-1122239Y-33847577D01*
X-1053080Y-33847577D01*
X-1011558Y-33849219D01*
X-990136Y-33855050D01*
X-983925Y-33866424D01*
X-983922Y-33866761D01*
X-981040Y-33877901D01*
X-968329Y-33876637D01*
X-943056Y-33864397D01*
X-885735Y-33846387D01*
X-820167Y-33844384D01*
X-757142Y-33857965D01*
G36*
X2214096Y-33852843D02*
G01*
X2286950Y-33883793D01*
X2309897Y-33898858D01*
X2339224Y-33922011D01*
X2357634Y-33940216D01*
X2360831Y-33946146D01*
X2351805Y-33959303D01*
X2328707Y-33981630D01*
X2310214Y-33997213D01*
X2259598Y-34037889D01*
X2219630Y-34004258D01*
X2188744Y-33982547D01*
X2158629Y-33975053D01*
X2124162Y-33976883D01*
X2069431Y-33990491D01*
X2031756Y-34018735D01*
X2008861Y-34064396D01*
X1998467Y-34130252D01*
X1998465Y-34130294D01*
X1999364Y-34203902D01*
X2013333Y-34257909D01*
X2041198Y-34294679D01*
X2060195Y-34307131D01*
X2110646Y-34322636D01*
X2164533Y-34322646D01*
X2211416Y-34307601D01*
X2222514Y-34300250D01*
X2250346Y-34281474D01*
X2272106Y-34278397D01*
X2295574Y-34292372D01*
X2321519Y-34317473D01*
X2362586Y-34359843D01*
X2316991Y-34397427D01*
X2246544Y-34439845D01*
X2167103Y-34460748D01*
X2084085Y-34459235D01*
X2029564Y-34445374D01*
X1965840Y-34411098D01*
X1914875Y-34357175D01*
X1891721Y-34319112D01*
X1872969Y-34264499D01*
X1863585Y-34195332D01*
X1863513Y-34120370D01*
X1872694Y-34048372D01*
X1891069Y-33988100D01*
X1893963Y-33981921D01*
X1936822Y-33921314D01*
X1994849Y-33877187D01*
X2063461Y-33850456D01*
X2138071Y-33842036D01*
X2214096Y-33852843D01*
G37*
X2214096Y-33852843D02*
X2286950Y-33883793D01*
X2309897Y-33898858D01*
X2339224Y-33922011D01*
X2357634Y-33940216D01*
X2360831Y-33946146D01*
X2351805Y-33959303D01*
X2328707Y-33981630D01*
X2310214Y-33997213D01*
X2259598Y-34037889D01*
X2219630Y-34004258D01*
X2188744Y-33982547D01*
X2158629Y-33975053D01*
X2124162Y-33976883D01*
X2069431Y-33990491D01*
X2031756Y-34018735D01*
X2008861Y-34064396D01*
X1998467Y-34130252D01*
X1998465Y-34130294D01*
X1999364Y-34203902D01*
X2013333Y-34257909D01*
X2041198Y-34294679D01*
X2060195Y-34307131D01*
X2110646Y-34322636D01*
X2164533Y-34322646D01*
X2211416Y-34307601D01*
X2222514Y-34300250D01*
X2250346Y-34281474D01*
X2272106Y-34278397D01*
X2295574Y-34292372D01*
X2321519Y-34317473D01*
X2362586Y-34359843D01*
X2316991Y-34397427D01*
X2246544Y-34439845D01*
X2167103Y-34460748D01*
X2084085Y-34459235D01*
X2029564Y-34445374D01*
X1965840Y-34411098D01*
X1914875Y-34357175D01*
X1891721Y-34319112D01*
X1872969Y-34264499D01*
X1863585Y-34195332D01*
X1863513Y-34120370D01*
X1872694Y-34048372D01*
X1891069Y-33988100D01*
X1893963Y-33981921D01*
X1936822Y-33921314D01*
X1994849Y-33877187D01*
X2063461Y-33850456D01*
X2138071Y-33842036D01*
X2214096Y-33852843D01*
G36*
X1632125Y-34790449D02*
G01*
X1680465Y-34799978D01*
X1707984Y-34814088D01*
X1736934Y-34837531D01*
X1695746Y-34889534D01*
X1670352Y-34921027D01*
X1653108Y-34936391D01*
X1635972Y-34938739D01*
X1610897Y-34931180D01*
X1599127Y-34926904D01*
X1551140Y-34920594D01*
X1507194Y-34934119D01*
X1474930Y-34964673D01*
X1469689Y-34974415D01*
X1463982Y-35000221D01*
X1459576Y-35047780D01*
X1456681Y-35113721D01*
X1455501Y-35194673D01*
X1455484Y-35206189D01*
X1455484Y-35406785D01*
X1317167Y-35406785D01*
X1317167Y-34790646D01*
X1386326Y-34790646D01*
X1426203Y-34791688D01*
X1446977Y-34796321D01*
X1454659Y-34806812D01*
X1455484Y-34816708D01*
X1455484Y-34842769D01*
X1488615Y-34816708D01*
X1526605Y-34798928D01*
X1577640Y-34790137D01*
X1632125Y-34790449D01*
G37*
X1632125Y-34790449D02*
X1680465Y-34799978D01*
X1707984Y-34814088D01*
X1736934Y-34837531D01*
X1695746Y-34889534D01*
X1670352Y-34921027D01*
X1653108Y-34936391D01*
X1635972Y-34938739D01*
X1610897Y-34931180D01*
X1599127Y-34926904D01*
X1551140Y-34920594D01*
X1507194Y-34934119D01*
X1474930Y-34964673D01*
X1469689Y-34974415D01*
X1463982Y-35000221D01*
X1459576Y-35047780D01*
X1456681Y-35113721D01*
X1455501Y-35194673D01*
X1455484Y-35206189D01*
X1455484Y-35406785D01*
X1317167Y-35406785D01*
X1317167Y-34790646D01*
X1386326Y-34790646D01*
X1426203Y-34791688D01*
X1446977Y-34796321D01*
X1454659Y-34806812D01*
X1455484Y-34816708D01*
X1455484Y-34842769D01*
X1488615Y-34816708D01*
X1526605Y-34798928D01*
X1577640Y-34790137D01*
X1632125Y-34790449D01*
G36*
X-2867078Y-34047019D02*
G01*
X-2859492Y-34002970D01*
X-2845811Y-33968211D01*
X-2824995Y-33937514D01*
X-2817277Y-33928399D01*
X-2769019Y-33882984D01*
X-2717258Y-33856456D01*
X-2653958Y-33845342D01*
X-2623091Y-33844434D01*
X-2541391Y-33854111D01*
X-2475609Y-33883194D01*
X-2425670Y-33931756D01*
X-2391504Y-33999871D01*
X-2373037Y-34087614D01*
X-2371713Y-34101314D01*
X-2370676Y-34197902D01*
X-2384123Y-34282565D01*
X-2411238Y-34351184D01*
X-2425757Y-34373257D01*
X-2476331Y-34419974D01*
X-2540739Y-34450231D01*
X-2612796Y-34462787D01*
X-2686315Y-34456402D01*
X-2742202Y-34436735D01*
X-2790262Y-34403592D01*
X-2829542Y-34360138D01*
X-2830222Y-34359121D01*
X-2846174Y-34332301D01*
X-2856540Y-34305331D01*
X-2862818Y-34271295D01*
X-2866503Y-34223273D01*
X-2868127Y-34183894D01*
X-2868802Y-34148182D01*
X-2743085Y-34148182D01*
X-2741856Y-34183733D01*
X-2737396Y-34231057D01*
X-2729527Y-34261428D01*
X-2715337Y-34283035D01*
X-2702047Y-34295657D01*
X-2654932Y-34322085D01*
X-2605635Y-34325616D01*
X-2559723Y-34306602D01*
X-2536768Y-34285294D01*
X-2520226Y-34263822D01*
X-2510551Y-34243276D01*
X-2506304Y-34216537D01*
X-2506050Y-34176486D01*
X-2507358Y-34139601D01*
X-2510173Y-34086910D01*
X-2514635Y-34052735D01*
X-2522678Y-34030443D01*
X-2536233Y-34013405D01*
X-2546975Y-34003666D01*
X-2591907Y-33978086D01*
X-2640379Y-33976810D01*
X-2681024Y-33991962D01*
X-2715697Y-34023605D01*
X-2736354Y-34075583D01*
X-2743085Y-34148182D01*
X-2868802Y-34148182D01*
X-2869609Y-34105584D01*
X-2867078Y-34047019D01*
G37*
X-2867078Y-34047019D02*
X-2859492Y-34002970D01*
X-2845811Y-33968211D01*
X-2824995Y-33937514D01*
X-2817277Y-33928399D01*
X-2769019Y-33882984D01*
X-2717258Y-33856456D01*
X-2653958Y-33845342D01*
X-2623091Y-33844434D01*
X-2541391Y-33854111D01*
X-2475609Y-33883194D01*
X-2425670Y-33931756D01*
X-2391504Y-33999871D01*
X-2373037Y-34087614D01*
X-2371713Y-34101314D01*
X-2370676Y-34197902D01*
X-2384123Y-34282565D01*
X-2411238Y-34351184D01*
X-2425757Y-34373257D01*
X-2476331Y-34419974D01*
X-2540739Y-34450231D01*
X-2612796Y-34462787D01*
X-2686315Y-34456402D01*
X-2742202Y-34436735D01*
X-2790262Y-34403592D01*
X-2829542Y-34360138D01*
X-2830222Y-34359121D01*
X-2846174Y-34332301D01*
X-2856540Y-34305331D01*
X-2862818Y-34271295D01*
X-2866503Y-34223273D01*
X-2868127Y-34183894D01*
X-2868802Y-34148182D01*
X-2743085Y-34148182D01*
X-2741856Y-34183733D01*
X-2737396Y-34231057D01*
X-2729527Y-34261428D01*
X-2715337Y-34283035D01*
X-2702047Y-34295657D01*
X-2654932Y-34322085D01*
X-2605635Y-34325616D01*
X-2559723Y-34306602D01*
X-2536768Y-34285294D01*
X-2520226Y-34263822D01*
X-2510551Y-34243276D01*
X-2506304Y-34216537D01*
X-2506050Y-34176486D01*
X-2507358Y-34139601D01*
X-2510173Y-34086910D01*
X-2514635Y-34052735D01*
X-2522678Y-34030443D01*
X-2536233Y-34013405D01*
X-2546975Y-34003666D01*
X-2591907Y-33978086D01*
X-2640379Y-33976810D01*
X-2681024Y-33991962D01*
X-2715697Y-34023605D01*
X-2736354Y-34075583D01*
X-2743085Y-34148182D01*
X-2868802Y-34148182D01*
X-2869609Y-34105584D01*
X-2867078Y-34047019D01*
G36*
X-2209912Y-33847577D02*
G01*
X-2168390Y-33849219D01*
X-2146968Y-33855050D01*
X-2140756Y-33866424D01*
X-2140754Y-33866761D01*
X-2137872Y-33877901D01*
X-2125160Y-33876636D01*
X-2099887Y-33864396D01*
X-2040999Y-33845670D01*
X-1974745Y-33843702D01*
X-1911889Y-33858147D01*
X-1885377Y-33871245D01*
X-1852683Y-33894069D01*
X-1828855Y-33918959D01*
X-1812536Y-33950212D01*
X-1802370Y-33992129D01*
X-1797002Y-34049007D01*
X-1795074Y-34125147D01*
X-1794961Y-34157880D01*
X-1795291Y-34229619D01*
X-1796657Y-34280890D01*
X-1799630Y-34316367D01*
X-1804779Y-34340726D01*
X-1812673Y-34358643D01*
X-1820887Y-34370865D01*
X-1873317Y-34422868D01*
X-1935060Y-34454147D01*
X-2001666Y-34463555D01*
X-2068688Y-34449943D01*
X-2089922Y-34440317D01*
X-2140754Y-34413822D01*
X-2140754Y-34829015D01*
X-2103655Y-34809831D01*
X-2054773Y-34794988D01*
X-1994691Y-34791185D01*
X-1934694Y-34798206D01*
X-1889386Y-34813976D01*
X-1851805Y-34844010D01*
X-1819694Y-34886987D01*
X-1817280Y-34891399D01*
X-1807097Y-34912184D01*
X-1799660Y-34933133D01*
X-1794541Y-34958511D01*
X-1791311Y-34992581D01*
X-1789543Y-35039604D01*
X-1788807Y-35103845D01*
X-1788674Y-35176139D01*
X-1788674Y-35406785D01*
X-1926991Y-35406785D01*
X-1926991Y-34981496D01*
X-1965679Y-34948942D01*
X-2005868Y-34922903D01*
X-2043927Y-34918168D01*
X-2082196Y-34930352D01*
X-2102592Y-34942283D01*
X-2117772Y-34959276D01*
X-2128568Y-34984958D01*
X-2135813Y-35022954D01*
X-2140338Y-35076889D01*
X-2142974Y-35150388D01*
X-2143902Y-35199310D01*
X-2147041Y-35400498D01*
X-2213056Y-35404299D01*
X-2279070Y-35408099D01*
X-2279070Y-34159613D01*
X-2140754Y-34159613D01*
X-2137227Y-34229217D01*
X-2125345Y-34277532D01*
X-2103150Y-34307594D01*
X-2068689Y-34322434D01*
X-2033872Y-34325399D01*
X-1994459Y-34321991D01*
X-1968301Y-34308580D01*
X-1951944Y-34290859D01*
X-1939067Y-34271798D01*
X-1931402Y-34250564D01*
X-1927991Y-34220812D01*
X-1927879Y-34176199D01*
X-1929027Y-34138843D01*
X-1931662Y-34082567D01*
X-1935586Y-34045621D01*
X-1942193Y-34022186D01*
X-1952879Y-34006443D01*
X-1962963Y-33997343D01*
X-2005100Y-33977500D01*
X-2054970Y-33974295D01*
X-2083606Y-33981131D01*
X-2111958Y-34005427D01*
X-2130739Y-34052691D01*
X-2139842Y-34122587D01*
X-2140754Y-34159613D01*
X-2279070Y-34159613D01*
X-2279070Y-33847577D01*
X-2209912Y-33847577D01*
G37*
X-2209912Y-33847577D02*
X-2168390Y-33849219D01*
X-2146968Y-33855050D01*
X-2140756Y-33866424D01*
X-2140754Y-33866761D01*
X-2137872Y-33877901D01*
X-2125160Y-33876636D01*
X-2099887Y-33864396D01*
X-2040999Y-33845670D01*
X-1974745Y-33843702D01*
X-1911889Y-33858147D01*
X-1885377Y-33871245D01*
X-1852683Y-33894069D01*
X-1828855Y-33918959D01*
X-1812536Y-33950212D01*
X-1802370Y-33992129D01*
X-1797002Y-34049007D01*
X-1795074Y-34125147D01*
X-1794961Y-34157880D01*
X-1795291Y-34229619D01*
X-1796657Y-34280890D01*
X-1799630Y-34316367D01*
X-1804779Y-34340726D01*
X-1812673Y-34358643D01*
X-1820887Y-34370865D01*
X-1873317Y-34422868D01*
X-1935060Y-34454147D01*
X-2001666Y-34463555D01*
X-2068688Y-34449943D01*
X-2089922Y-34440317D01*
X-2140754Y-34413822D01*
X-2140754Y-34829015D01*
X-2103655Y-34809831D01*
X-2054773Y-34794988D01*
X-1994691Y-34791185D01*
X-1934694Y-34798206D01*
X-1889386Y-34813976D01*
X-1851805Y-34844010D01*
X-1819694Y-34886987D01*
X-1817280Y-34891399D01*
X-1807097Y-34912184D01*
X-1799660Y-34933133D01*
X-1794541Y-34958511D01*
X-1791311Y-34992581D01*
X-1789543Y-35039604D01*
X-1788807Y-35103845D01*
X-1788674Y-35176139D01*
X-1788674Y-35406785D01*
X-1926991Y-35406785D01*
X-1926991Y-34981496D01*
X-1965679Y-34948942D01*
X-2005868Y-34922903D01*
X-2043927Y-34918168D01*
X-2082196Y-34930352D01*
X-2102592Y-34942283D01*
X-2117772Y-34959276D01*
X-2128568Y-34984958D01*
X-2135813Y-35022954D01*
X-2140338Y-35076889D01*
X-2142974Y-35150388D01*
X-2143902Y-35199310D01*
X-2147041Y-35400498D01*
X-2213056Y-35404299D01*
X-2279070Y-35408099D01*
X-2279070Y-34159613D01*
X-2140754Y-34159613D01*
X-2137227Y-34229217D01*
X-2125345Y-34277532D01*
X-2103150Y-34307594D01*
X-2068689Y-34322434D01*
X-2033872Y-34325399D01*
X-1994459Y-34321991D01*
X-1968301Y-34308580D01*
X-1951944Y-34290859D01*
X-1939067Y-34271798D01*
X-1931402Y-34250564D01*
X-1927991Y-34220812D01*
X-1927879Y-34176199D01*
X-1929027Y-34138843D01*
X-1931662Y-34082567D01*
X-1935586Y-34045621D01*
X-1942193Y-34022186D01*
X-1952879Y-34006443D01*
X-1962963Y-33997343D01*
X-2005100Y-33977500D01*
X-2054970Y-33974295D01*
X-2083606Y-33981131D01*
X-2111958Y-34005427D01*
X-2130739Y-34052691D01*
X-2139842Y-34122587D01*
X-2140754Y-34159613D01*
X-2279070Y-34159613D01*
X-2279070Y-33847577D01*
X-2209912Y-33847577D01*
G36*
X373834Y-29678981D02*
G01*
X430682Y-29980533D01*
X850208Y-30153475D01*
X1101854Y-29982358D01*
X1172328Y-29934713D01*
X1236033Y-29892173D01*
X1289996Y-29856678D01*
X1331243Y-29830173D01*
X1356804Y-29814599D01*
X1363765Y-29811241D01*
X1376305Y-29819877D01*
X1403101Y-29843755D01*
X1441150Y-29879822D01*
X1487449Y-29925030D01*
X1538993Y-29976327D01*
X1592779Y-30030664D01*
X1645805Y-30084991D01*
X1695065Y-30136258D01*
X1737557Y-30181414D01*
X1770277Y-30217409D01*
X1790221Y-30241193D01*
X1794989Y-30249153D01*
X1788127Y-30263828D01*
X1768890Y-30295977D01*
X1739300Y-30342455D01*
X1701380Y-30400119D01*
X1657152Y-30465823D01*
X1631524Y-30503299D01*
X1584811Y-30571731D01*
X1543302Y-30633483D01*
X1509010Y-30685482D01*
X1483950Y-30724655D01*
X1470134Y-30747928D01*
X1468058Y-30752818D01*
X1472765Y-30766718D01*
X1485593Y-30799113D01*
X1504608Y-30845448D01*
X1527873Y-30901169D01*
X1553454Y-30961721D01*
X1579415Y-31022549D01*
X1603820Y-31079099D01*
X1624733Y-31126815D01*
X1640219Y-31161144D01*
X1648342Y-31177531D01*
X1648822Y-31178175D01*
X1661577Y-31181304D01*
X1695547Y-31188284D01*
X1747210Y-31198430D01*
X1813046Y-31211055D01*
X1889534Y-31225472D01*
X1934160Y-31233786D01*
X2015891Y-31249347D01*
X2089713Y-31264155D01*
X2151891Y-31277399D01*
X2198692Y-31288268D01*
X2226379Y-31295952D01*
X2231944Y-31298390D01*
X2237396Y-31314893D01*
X2241794Y-31352163D01*
X2245142Y-31405843D01*
X2247444Y-31471575D01*
X2248702Y-31545000D01*
X2248918Y-31621759D01*
X2248097Y-31697495D01*
X2246241Y-31767849D01*
X2243352Y-31828463D01*
X2239435Y-31874979D01*
X2234492Y-31903038D01*
X2231527Y-31908879D01*
X2213804Y-31915880D01*
X2176251Y-31925890D01*
X2123834Y-31937732D01*
X2061522Y-31950230D01*
X2039770Y-31954273D01*
X1934894Y-31973483D01*
X1852050Y-31988954D01*
X1788500Y-32001300D01*
X1741507Y-32011136D01*
X1708333Y-32019077D01*
X1686241Y-32025739D01*
X1672494Y-32031736D01*
X1664354Y-32037682D01*
X1663215Y-32038857D01*
X1651847Y-32057789D01*
X1634505Y-32094632D01*
X1612920Y-32144876D01*
X1588824Y-32204009D01*
X1563949Y-32267519D01*
X1540027Y-32330895D01*
X1518789Y-32389625D01*
X1501967Y-32439198D01*
X1491292Y-32475102D01*
X1488497Y-32492825D01*
X1488730Y-32493446D01*
X1498201Y-32507933D01*
X1519688Y-32539807D01*
X1550933Y-32585752D01*
X1589677Y-32642448D01*
X1633663Y-32706580D01*
X1646189Y-32724805D01*
X1690854Y-32790877D01*
X1730158Y-32851163D01*
X1761958Y-32902198D01*
X1784115Y-32940523D01*
X1794487Y-32962674D01*
X1794989Y-32965395D01*
X1786275Y-32979699D01*
X1762195Y-33008035D01*
X1725846Y-33047359D01*
X1680323Y-33094624D01*
X1628722Y-33146786D01*
X1574137Y-33200798D01*
X1519664Y-33253616D01*
X1468399Y-33302194D01*
X1423437Y-33343486D01*
X1387874Y-33374448D01*
X1364805Y-33392033D01*
X1358424Y-33394904D01*
X1343569Y-33388141D01*
X1313156Y-33369902D01*
X1272138Y-33343260D01*
X1240579Y-33321815D01*
X1183395Y-33282466D01*
X1115676Y-33236134D01*
X1047750Y-33189876D01*
X1011231Y-33165118D01*
X887622Y-33081510D01*
X783861Y-33137613D01*
X736590Y-33162191D01*
X696393Y-33181294D01*
X669196Y-33192190D01*
X662272Y-33193706D01*
X653947Y-33182512D01*
X637524Y-33150880D01*
X614227Y-33101728D01*
X585284Y-33037973D01*
X551920Y-32962534D01*
X515361Y-32878327D01*
X476834Y-32788271D01*
X437564Y-32695284D01*
X398778Y-32602283D01*
X361700Y-32512186D01*
X327559Y-32427911D01*
X297578Y-32352376D01*
X272986Y-32288497D01*
X255006Y-32239194D01*
X244867Y-32207384D01*
X243236Y-32196459D01*
X256161Y-32182524D01*
X284459Y-32159903D01*
X322216Y-32133296D01*
X325385Y-32131191D01*
X422970Y-32053077D01*
X501656Y-31961945D01*
X560761Y-31860708D01*
X599602Y-31752281D01*
X617498Y-31639577D01*
X613767Y-31525511D01*
X587727Y-31412997D01*
X538695Y-31304948D01*
X524270Y-31281308D01*
X449239Y-31185850D01*
X360600Y-31109195D01*
X261419Y-31051743D01*
X154765Y-31013892D01*
X43706Y-30996041D01*
X-68691Y-30998588D01*
X-179357Y-31021933D01*
X-285224Y-31066473D01*
X-383225Y-31132608D01*
X-413540Y-31159450D01*
X-490692Y-31243475D01*
X-546912Y-31331929D01*
X-585477Y-31431078D01*
X-606956Y-31529266D01*
X-612258Y-31639660D01*
X-594578Y-31750603D01*
X-555711Y-31858344D01*
X-497453Y-31959132D01*
X-421599Y-32049219D01*
X-329947Y-32124855D01*
X-317902Y-32132827D01*
X-279741Y-32158937D01*
X-250731Y-32181558D01*
X-236862Y-32196002D01*
X-236661Y-32196459D01*
X-239638Y-32212084D01*
X-251441Y-32247545D01*
X-270844Y-32299925D01*
X-296618Y-32366308D01*
X-327539Y-32443777D01*
X-362379Y-32529413D01*
X-399913Y-32620300D01*
X-438913Y-32713522D01*
X-478153Y-32806160D01*
X-516406Y-32895298D01*
X-552447Y-32978018D01*
X-585047Y-33051404D01*
X-612982Y-33112538D01*
X-635025Y-33158504D01*
X-649948Y-33186384D01*
X-655958Y-33193706D01*
X-674321Y-33188004D01*
X-708682Y-33172712D01*
X-753114Y-33150562D01*
X-777547Y-33137613D01*
X-881308Y-33081510D01*
X-1004917Y-33165118D01*
X-1068016Y-33207950D01*
X-1137100Y-33255085D01*
X-1201837Y-33299466D01*
X-1234264Y-33321815D01*
X-1279871Y-33352440D01*
X-1318490Y-33376710D01*
X-1345082Y-33391550D01*
X-1353720Y-33394687D01*
X-1366291Y-33386224D01*
X-1394114Y-33362599D01*
X-1434491Y-33326265D01*
X-1484725Y-33279674D01*
X-1542118Y-33225280D01*
X-1578416Y-33190355D01*
X-1641920Y-33127959D01*
X-1696803Y-33072151D01*
X-1740844Y-33025317D01*
X-1771825Y-32989845D01*
X-1787528Y-32968124D01*
X-1789035Y-32963715D01*
X-1782044Y-32946948D01*
X-1762724Y-32913045D01*
X-1733221Y-32865439D01*
X-1695675Y-32807562D01*
X-1652230Y-32742847D01*
X-1639875Y-32724805D01*
X-1594857Y-32659230D01*
X-1554470Y-32600191D01*
X-1520970Y-32551005D01*
X-1496616Y-32514991D01*
X-1483666Y-32495465D01*
X-1482415Y-32493446D01*
X-1484286Y-32477885D01*
X-1494217Y-32443672D01*
X-1510477Y-32395318D01*
X-1531335Y-32337334D01*
X-1555057Y-32274233D01*
X-1579914Y-32210526D01*
X-1604172Y-32150724D01*
X-1626101Y-32099339D01*
X-1643968Y-32060882D01*
X-1656043Y-32039865D01*
X-1656901Y-32038857D01*
X-1664284Y-32032851D01*
X-1676755Y-32026911D01*
X-1697050Y-32020423D01*
X-1727908Y-32012772D01*
X-1772064Y-32003343D01*
X-1832256Y-31991522D01*
X-1911223Y-31976692D01*
X-2011700Y-31958240D01*
X-2033455Y-31954273D01*
X-2097932Y-31941816D01*
X-2154141Y-31929629D01*
X-2197117Y-31918889D01*
X-2221890Y-31910772D01*
X-2225212Y-31908879D01*
X-2230686Y-31892101D01*
X-2235136Y-31854608D01*
X-2238558Y-31800757D01*
X-2240949Y-31734907D01*
X-2242307Y-31661416D01*
X-2242629Y-31584643D01*
X-2241911Y-31508946D01*
X-2240151Y-31438683D01*
X-2237346Y-31378213D01*
X-2233492Y-31331893D01*
X-2228587Y-31304082D01*
X-2225630Y-31298390D01*
X-2209167Y-31292649D01*
X-2171681Y-31283308D01*
X-2116905Y-31271178D01*
X-2048575Y-31257070D01*
X-1970424Y-31241793D01*
X-1927846Y-31233786D01*
X-1847059Y-31218684D01*
X-1775017Y-31205003D01*
X-1715241Y-31193430D01*
X-1671251Y-31184650D01*
X-1646569Y-31179350D01*
X-1642507Y-31178175D01*
X-1635641Y-31164928D01*
X-1621128Y-31133020D01*
X-1600901Y-31087010D01*
X-1576896Y-31031455D01*
X-1551048Y-30970916D01*
X-1525290Y-30909949D01*
X-1501557Y-30853114D01*
X-1481784Y-30804969D01*
X-1467906Y-30770073D01*
X-1461856Y-30752984D01*
X-1461744Y-30752237D01*
X-1468602Y-30738756D01*
X-1487828Y-30707733D01*
X-1517402Y-30662252D01*
X-1555303Y-30605395D01*
X-1599510Y-30540246D01*
X-1625209Y-30502825D01*
X-1672037Y-30434210D01*
X-1713629Y-30371915D01*
X-1747955Y-30319092D01*
X-1772987Y-30278890D01*
X-1786695Y-30254463D01*
X-1788674Y-30248987D01*
X-1780164Y-30236241D01*
X-1756637Y-30209026D01*
X-1721098Y-30170391D01*
X-1676553Y-30123386D01*
X-1626007Y-30071058D01*
X-1572466Y-30016458D01*
X-1518935Y-29962633D01*
X-1468419Y-29912633D01*
X-1423924Y-29869506D01*
X-1388455Y-29836302D01*
X-1365017Y-29816069D01*
X-1357176Y-29811241D01*
X-1344410Y-29818030D01*
X-1313874Y-29837105D01*
X-1268540Y-29866524D01*
X-1211374Y-29904344D01*
X-1145346Y-29948624D01*
X-1095540Y-29982358D01*
X-843894Y-30153475D01*
X-634131Y-30067004D01*
X-424367Y-29980533D01*
X-367519Y-29678981D01*
X-310670Y-29377429D01*
X316985Y-29377429D01*
X373834Y-29678981D01*
G37*
X373834Y-29678981D02*
X430682Y-29980533D01*
X850208Y-30153475D01*
X1101854Y-29982358D01*
X1172328Y-29934713D01*
X1236033Y-29892173D01*
X1289996Y-29856678D01*
X1331243Y-29830173D01*
X1356804Y-29814599D01*
X1363765Y-29811241D01*
X1376305Y-29819877D01*
X1403101Y-29843755D01*
X1441150Y-29879822D01*
X1487449Y-29925030D01*
X1538993Y-29976327D01*
X1592779Y-30030664D01*
X1645805Y-30084991D01*
X1695065Y-30136258D01*
X1737557Y-30181414D01*
X1770277Y-30217409D01*
X1790221Y-30241193D01*
X1794989Y-30249153D01*
X1788127Y-30263828D01*
X1768890Y-30295977D01*
X1739300Y-30342455D01*
X1701380Y-30400119D01*
X1657152Y-30465823D01*
X1631524Y-30503299D01*
X1584811Y-30571731D01*
X1543302Y-30633483D01*
X1509010Y-30685482D01*
X1483950Y-30724655D01*
X1470134Y-30747928D01*
X1468058Y-30752818D01*
X1472765Y-30766718D01*
X1485593Y-30799113D01*
X1504608Y-30845448D01*
X1527873Y-30901169D01*
X1553454Y-30961721D01*
X1579415Y-31022549D01*
X1603820Y-31079099D01*
X1624733Y-31126815D01*
X1640219Y-31161144D01*
X1648342Y-31177531D01*
X1648822Y-31178175D01*
X1661577Y-31181304D01*
X1695547Y-31188284D01*
X1747210Y-31198430D01*
X1813046Y-31211055D01*
X1889534Y-31225472D01*
X1934160Y-31233786D01*
X2015891Y-31249347D01*
X2089713Y-31264155D01*
X2151891Y-31277399D01*
X2198692Y-31288268D01*
X2226379Y-31295952D01*
X2231944Y-31298390D01*
X2237396Y-31314893D01*
X2241794Y-31352163D01*
X2245142Y-31405843D01*
X2247444Y-31471575D01*
X2248702Y-31545000D01*
X2248918Y-31621759D01*
X2248097Y-31697495D01*
X2246241Y-31767849D01*
X2243352Y-31828463D01*
X2239435Y-31874979D01*
X2234492Y-31903038D01*
X2231527Y-31908879D01*
X2213804Y-31915880D01*
X2176251Y-31925890D01*
X2123834Y-31937732D01*
X2061522Y-31950230D01*
X2039770Y-31954273D01*
X1934894Y-31973483D01*
X1852050Y-31988954D01*
X1788500Y-32001300D01*
X1741507Y-32011136D01*
X1708333Y-32019077D01*
X1686241Y-32025739D01*
X1672494Y-32031736D01*
X1664354Y-32037682D01*
X1663215Y-32038857D01*
X1651847Y-32057789D01*
X1634505Y-32094632D01*
X1612920Y-32144876D01*
X1588824Y-32204009D01*
X1563949Y-32267519D01*
X1540027Y-32330895D01*
X1518789Y-32389625D01*
X1501967Y-32439198D01*
X1491292Y-32475102D01*
X1488497Y-32492825D01*
X1488730Y-32493446D01*
X1498201Y-32507933D01*
X1519688Y-32539807D01*
X1550933Y-32585752D01*
X1589677Y-32642448D01*
X1633663Y-32706580D01*
X1646189Y-32724805D01*
X1690854Y-32790877D01*
X1730158Y-32851163D01*
X1761958Y-32902198D01*
X1784115Y-32940523D01*
X1794487Y-32962674D01*
X1794989Y-32965395D01*
X1786275Y-32979699D01*
X1762195Y-33008035D01*
X1725846Y-33047359D01*
X1680323Y-33094624D01*
X1628722Y-33146786D01*
X1574137Y-33200798D01*
X1519664Y-33253616D01*
X1468399Y-33302194D01*
X1423437Y-33343486D01*
X1387874Y-33374448D01*
X1364805Y-33392033D01*
X1358424Y-33394904D01*
X1343569Y-33388141D01*
X1313156Y-33369902D01*
X1272138Y-33343260D01*
X1240579Y-33321815D01*
X1183395Y-33282466D01*
X1115676Y-33236134D01*
X1047750Y-33189876D01*
X1011231Y-33165118D01*
X887622Y-33081510D01*
X783861Y-33137613D01*
X736590Y-33162191D01*
X696393Y-33181294D01*
X669196Y-33192190D01*
X662272Y-33193706D01*
X653947Y-33182512D01*
X637524Y-33150880D01*
X614227Y-33101728D01*
X585284Y-33037973D01*
X551920Y-32962534D01*
X515361Y-32878327D01*
X476834Y-32788271D01*
X437564Y-32695284D01*
X398778Y-32602283D01*
X361700Y-32512186D01*
X327559Y-32427911D01*
X297578Y-32352376D01*
X272986Y-32288497D01*
X255006Y-32239194D01*
X244867Y-32207384D01*
X243236Y-32196459D01*
X256161Y-32182524D01*
X284459Y-32159903D01*
X322216Y-32133296D01*
X325385Y-32131191D01*
X422970Y-32053077D01*
X501656Y-31961945D01*
X560761Y-31860708D01*
X599602Y-31752281D01*
X617498Y-31639577D01*
X613767Y-31525511D01*
X587727Y-31412997D01*
X538695Y-31304948D01*
X524270Y-31281308D01*
X449239Y-31185850D01*
X360600Y-31109195D01*
X261419Y-31051743D01*
X154765Y-31013892D01*
X43706Y-30996041D01*
X-68691Y-30998588D01*
X-179357Y-31021933D01*
X-285224Y-31066473D01*
X-383225Y-31132608D01*
X-413540Y-31159450D01*
X-490692Y-31243475D01*
X-546912Y-31331929D01*
X-585477Y-31431078D01*
X-606956Y-31529266D01*
X-612258Y-31639660D01*
X-594578Y-31750603D01*
X-555711Y-31858344D01*
X-497453Y-31959132D01*
X-421599Y-32049219D01*
X-329947Y-32124855D01*
X-317902Y-32132827D01*
X-279741Y-32158937D01*
X-250731Y-32181558D01*
X-236862Y-32196002D01*
X-236661Y-32196459D01*
X-239638Y-32212084D01*
X-251441Y-32247545D01*
X-270844Y-32299925D01*
X-296618Y-32366308D01*
X-327539Y-32443777D01*
X-362379Y-32529413D01*
X-399913Y-32620300D01*
X-438913Y-32713522D01*
X-478153Y-32806160D01*
X-516406Y-32895298D01*
X-552447Y-32978018D01*
X-585047Y-33051404D01*
X-612982Y-33112538D01*
X-635025Y-33158504D01*
X-649948Y-33186384D01*
X-655958Y-33193706D01*
X-674321Y-33188004D01*
X-708682Y-33172712D01*
X-753114Y-33150562D01*
X-777547Y-33137613D01*
X-881308Y-33081510D01*
X-1004917Y-33165118D01*
X-1068016Y-33207950D01*
X-1137100Y-33255085D01*
X-1201837Y-33299466D01*
X-1234264Y-33321815D01*
X-1279871Y-33352440D01*
X-1318490Y-33376710D01*
X-1345082Y-33391550D01*
X-1353720Y-33394687D01*
X-1366291Y-33386224D01*
X-1394114Y-33362599D01*
X-1434491Y-33326265D01*
X-1484725Y-33279674D01*
X-1542118Y-33225280D01*
X-1578416Y-33190355D01*
X-1641920Y-33127959D01*
X-1696803Y-33072151D01*
X-1740844Y-33025317D01*
X-1771825Y-32989845D01*
X-1787528Y-32968124D01*
X-1789035Y-32963715D01*
X-1782044Y-32946948D01*
X-1762724Y-32913045D01*
X-1733221Y-32865439D01*
X-1695675Y-32807562D01*
X-1652230Y-32742847D01*
X-1639875Y-32724805D01*
X-1594857Y-32659230D01*
X-1554470Y-32600191D01*
X-1520970Y-32551005D01*
X-1496616Y-32514991D01*
X-1483666Y-32495465D01*
X-1482415Y-32493446D01*
X-1484286Y-32477885D01*
X-1494217Y-32443672D01*
X-1510477Y-32395318D01*
X-1531335Y-32337334D01*
X-1555057Y-32274233D01*
X-1579914Y-32210526D01*
X-1604172Y-32150724D01*
X-1626101Y-32099339D01*
X-1643968Y-32060882D01*
X-1656043Y-32039865D01*
X-1656901Y-32038857D01*
X-1664284Y-32032851D01*
X-1676755Y-32026911D01*
X-1697050Y-32020423D01*
X-1727908Y-32012772D01*
X-1772064Y-32003343D01*
X-1832256Y-31991522D01*
X-1911223Y-31976692D01*
X-2011700Y-31958240D01*
X-2033455Y-31954273D01*
X-2097932Y-31941816D01*
X-2154141Y-31929629D01*
X-2197117Y-31918889D01*
X-2221890Y-31910772D01*
X-2225212Y-31908879D01*
X-2230686Y-31892101D01*
X-2235136Y-31854608D01*
X-2238558Y-31800757D01*
X-2240949Y-31734907D01*
X-2242307Y-31661416D01*
X-2242629Y-31584643D01*
X-2241911Y-31508946D01*
X-2240151Y-31438683D01*
X-2237346Y-31378213D01*
X-2233492Y-31331893D01*
X-2228587Y-31304082D01*
X-2225630Y-31298390D01*
X-2209167Y-31292649D01*
X-2171681Y-31283308D01*
X-2116905Y-31271178D01*
X-2048575Y-31257070D01*
X-1970424Y-31241793D01*
X-1927846Y-31233786D01*
X-1847059Y-31218684D01*
X-1775017Y-31205003D01*
X-1715241Y-31193430D01*
X-1671251Y-31184650D01*
X-1646569Y-31179350D01*
X-1642507Y-31178175D01*
X-1635641Y-31164928D01*
X-1621128Y-31133020D01*
X-1600901Y-31087010D01*
X-1576896Y-31031455D01*
X-1551048Y-30970916D01*
X-1525290Y-30909949D01*
X-1501557Y-30853114D01*
X-1481784Y-30804969D01*
X-1467906Y-30770073D01*
X-1461856Y-30752984D01*
X-1461744Y-30752237D01*
X-1468602Y-30738756D01*
X-1487828Y-30707733D01*
X-1517402Y-30662252D01*
X-1555303Y-30605395D01*
X-1599510Y-30540246D01*
X-1625209Y-30502825D01*
X-1672037Y-30434210D01*
X-1713629Y-30371915D01*
X-1747955Y-30319092D01*
X-1772987Y-30278890D01*
X-1786695Y-30254463D01*
X-1788674Y-30248987D01*
X-1780164Y-30236241D01*
X-1756637Y-30209026D01*
X-1721098Y-30170391D01*
X-1676553Y-30123386D01*
X-1626007Y-30071058D01*
X-1572466Y-30016458D01*
X-1518935Y-29962633D01*
X-1468419Y-29912633D01*
X-1423924Y-29869506D01*
X-1388455Y-29836302D01*
X-1365017Y-29816069D01*
X-1357176Y-29811241D01*
X-1344410Y-29818030D01*
X-1313874Y-29837105D01*
X-1268540Y-29866524D01*
X-1211374Y-29904344D01*
X-1145346Y-29948624D01*
X-1095540Y-29982358D01*
X-843894Y-30153475D01*
X-634131Y-30067004D01*
X-424367Y-29980533D01*
X-367519Y-29678981D01*
X-310670Y-29377429D01*
X316985Y-29377429D01*
X373834Y-29678981D01*
G36*
X278394Y-34793200D02*
G01*
X328125Y-34796934D01*
X458161Y-35186736D01*
X478548Y-35117577D01*
X490816Y-35074837D01*
X506955Y-35017078D01*
X524382Y-34953588D01*
X533596Y-34919533D01*
X568258Y-34790646D01*
X711261Y-34790646D01*
X668516Y-34925820D01*
X647466Y-34992305D01*
X622037Y-35072502D01*
X595480Y-35156156D01*
X571772Y-35230745D01*
X517772Y-35400498D01*
X459468Y-35404291D01*
X401165Y-35408085D01*
X369549Y-35303697D01*
X350052Y-35238852D01*
X328774Y-35167363D01*
X310178Y-35104226D01*
X309444Y-35101713D01*
X295554Y-35058932D01*
X283299Y-35029742D01*
X274716Y-35018704D01*
X272952Y-35019981D01*
X266761Y-35037093D01*
X254998Y-35073750D01*
X239095Y-35125341D01*
X220484Y-35187257D01*
X210413Y-35221315D01*
X155877Y-35406785D01*
X40134Y-35406785D01*
X-52393Y-35114434D01*
X-78386Y-35032425D01*
X-102064Y-34957950D01*
X-122310Y-34894507D01*
X-138004Y-34845595D01*
X-148028Y-34814712D01*
X-151075Y-34805689D01*
X-148663Y-34796450D01*
X-129722Y-34792404D01*
X-90307Y-34792809D01*
X-84137Y-34793115D01*
X-11044Y-34796934D01*
X36827Y-34972973D01*
X54423Y-35037174D01*
X70147Y-35093612D01*
X82616Y-35137385D01*
X90444Y-35163593D01*
X91890Y-35167866D01*
X97884Y-35162953D01*
X109971Y-35137495D01*
X126763Y-35094960D01*
X146873Y-35038813D01*
X163873Y-34988093D01*
X228664Y-34789467D01*
X278394Y-34793200D01*
G37*
X278394Y-34793200D02*
X328125Y-34796934D01*
X458161Y-35186736D01*
X478548Y-35117577D01*
X490816Y-35074837D01*
X506955Y-35017078D01*
X524382Y-34953588D01*
X533596Y-34919533D01*
X568258Y-34790646D01*
X711261Y-34790646D01*
X668516Y-34925820D01*
X647466Y-34992305D01*
X622037Y-35072502D01*
X595480Y-35156156D01*
X571772Y-35230745D01*
X517772Y-35400498D01*
X459468Y-35404291D01*
X401165Y-35408085D01*
X369549Y-35303697D01*
X350052Y-35238852D01*
X328774Y-35167363D01*
X310178Y-35104226D01*
X309444Y-35101713D01*
X295554Y-35058932D01*
X283299Y-35029742D01*
X274716Y-35018704D01*
X272952Y-35019981D01*
X266761Y-35037093D01*
X254998Y-35073750D01*
X239095Y-35125341D01*
X220484Y-35187257D01*
X210413Y-35221315D01*
X155877Y-35406785D01*
X40134Y-35406785D01*
X-52393Y-35114434D01*
X-78386Y-35032425D01*
X-102064Y-34957950D01*
X-122310Y-34894507D01*
X-138004Y-34845595D01*
X-148028Y-34814712D01*
X-151075Y-34805689D01*
X-148663Y-34796450D01*
X-129722Y-34792404D01*
X-90307Y-34792809D01*
X-84137Y-34793115D01*
X-11044Y-34796934D01*
X36827Y-34972973D01*
X54423Y-35037174D01*
X70147Y-35093612D01*
X82616Y-35137385D01*
X90444Y-35163593D01*
X91890Y-35167866D01*
X97884Y-35162953D01*
X109971Y-35137495D01*
X126763Y-35094960D01*
X146873Y-35038813D01*
X163873Y-34988093D01*
X228664Y-34789467D01*
X278394Y-34793200D01*
D11*
X-43575000Y-25000D03*
D12*
X-33020000Y0D03*
D13*
X-35560000Y5080000D03*
D14*
X-38100000Y0D03*
D11*
X-32575000Y-25000D03*
D13*
X-41910000Y2540000D03*
D12*
X-43180000Y0D03*
D11*
X-43575000Y-19075000D03*
D14*
X-38100000Y-19050000D03*
D12*
X-43180000Y-19050000D03*
D13*
X-41910000Y-16510000D03*
D11*
X-32575000Y-19075000D03*
D13*
X-35560000Y-13970000D03*
D12*
X-33020000Y-19050000D03*
D11*
X-13525000Y-9550000D03*
X-24525000Y-9550000D03*
D12*
X-24130000Y-9525000D03*
D14*
X-19050000Y-9525000D03*
D13*
X-16510000Y-4445000D03*
D12*
X-13970000Y-9525000D03*
D13*
X-22860000Y-6985000D03*
X-22860000Y12065000D03*
D12*
X-13970000Y9525000D03*
X-24130000Y9525000D03*
D14*
X-19050000Y9525000D03*
D11*
X-24525000Y9500000D03*
D13*
X-16510000Y14605000D03*
D11*
X-13525000Y9500000D03*
D13*
X2540000Y24130000D03*
D12*
X-5080000Y19050000D03*
D11*
X5525000Y19025000D03*
D12*
X5080000Y19050000D03*
D11*
X-5475000Y19025000D03*
D14*
X0Y19050000D03*
D13*
X-3810000Y21590000D03*
D12*
X13970000Y9525000D03*
D14*
X19050000Y9525000D03*
D11*
X13575000Y9500000D03*
X24575000Y9500000D03*
D13*
X21590000Y14605000D03*
X15240000Y12065000D03*
D12*
X24130000Y9525000D03*
X43180000Y9525000D03*
D13*
X40640000Y14605000D03*
D11*
X32625000Y9500000D03*
D14*
X38100000Y9525000D03*
D13*
X34290000Y12065000D03*
D12*
X33020000Y9525000D03*
D11*
X43625000Y9500000D03*
D13*
X-3810000Y2540000D03*
D11*
X5525000Y-25000D03*
D12*
X5080000Y0D03*
D11*
X-5475000Y-25000D03*
D14*
X0Y0D03*
D12*
X-5080000Y0D03*
D13*
X2540000Y5080000D03*
D14*
X19050000Y-9525000D03*
D12*
X13970000Y-9525000D03*
D13*
X21590000Y-4445000D03*
D12*
X24130000Y-9525000D03*
D13*
X15240000Y-6985000D03*
D11*
X24575000Y-9550000D03*
X13575000Y-9550000D03*
D12*
X33020000Y-9525000D03*
D11*
X32625000Y-9550000D03*
D12*
X43180000Y-9525000D03*
D13*
X34290000Y-6985000D03*
X40640000Y-4445000D03*
D14*
X38100000Y-9525000D03*
D11*
X43625000Y-9550000D03*
D14*
X-38100000Y-38100000D03*
D13*
X-35560000Y-33020000D03*
D12*
X-33020000Y-38100000D03*
D11*
X-32575000Y-38125000D03*
X-43575000Y-38125000D03*
D13*
X-41910000Y-35560000D03*
D12*
X-43180000Y-38100000D03*
D13*
X-16510000Y-23495000D03*
D11*
X-13525000Y-28600000D03*
D12*
X-13970000Y-28575000D03*
D11*
X-24525000Y-28600000D03*
D13*
X-22860000Y-26035000D03*
D12*
X-24130000Y-28575000D03*
D14*
X-19050000Y-28575000D03*
X0Y-19050000D03*
D13*
X2540000Y-13970000D03*
D12*
X5080000Y-19050000D03*
D11*
X-5475000Y-19075000D03*
D12*
X-5080000Y-19050000D03*
D11*
X5525000Y-19075000D03*
D13*
X-3810000Y-16510000D03*
D12*
X24130000Y-28575000D03*
D13*
X21590000Y-23495000D03*
X15240000Y-26035000D03*
D14*
X19050000Y-28575000D03*
D11*
X24575000Y-28600000D03*
D12*
X13970000Y-28575000D03*
D11*
X13575000Y-28600000D03*
D13*
X40640000Y-23495000D03*
D11*
X32625000Y-28600000D03*
X43625000Y-28600000D03*
D14*
X38100000Y-28575000D03*
D12*
X33020000Y-28575000D03*
X43180000Y-28575000D03*
D13*
X34290000Y-26035000D03*
D12*
X23495000Y-47625000D03*
D13*
X31115000Y-42545000D03*
D14*
X28575000Y-47625000D03*
D13*
X24765000Y-45085000D03*
D12*
X33655000Y-47625000D03*
D11*
X23100000Y-47650000D03*
X34100000Y-47650000D03*
X53150000Y-47650000D03*
X42150000Y-47650000D03*
D14*
X47625000Y-47625000D03*
D13*
X50165000Y-42545000D03*
D12*
X42545000Y-47625000D03*
X52705000Y-47625000D03*
D13*
X43815000Y-45085000D03*
D15*
X-28575000Y0D03*
X-28575000Y-28575000D03*
X28575000Y0D03*
X38100000Y-38100000D03*
D16*
X20955000Y25400000D03*
D17*
X20955000Y27940000D03*
X23495000Y25400000D03*
X23495000Y27940000D03*
X26035000Y25400000D03*
X26035000Y27940000D03*
X28575000Y25400000D03*
X28575000Y27940000D03*
X31115000Y25400000D03*
X31115000Y27940000D03*
X33655000Y25400000D03*
X33655000Y27940000D03*
X36195000Y25400000D03*
X36195000Y27940000D03*
M02*
