%TF.GenerationSoftware,KiCad,Pcbnew,(6.0.5-0)*%
%TF.CreationDate,2022-06-17T11:14:34+08:00*%
%TF.ProjectId,Pragmatic,50726167-6d61-4746-9963-2e6b69636164,3.1*%
%TF.SameCoordinates,PX7616b68PY48ab840*%
%TF.FileFunction,Soldermask,Bot*%
%TF.FilePolarity,Negative*%
%FSLAX46Y46*%
G04 Gerber Fmt 4.6, Leading zero omitted, Abs format (unit mm)*
G04 Created by KiCad (PCBNEW (6.0.5-0)) date 2022-06-17 11:14:34*
%MOMM*%
%LPD*%
G01*
G04 APERTURE LIST*
G04 Aperture macros list*
%AMRoundRect*
0 Rectangle with rounded corners*
0 $1 Rounding radius*
0 $2 $3 $4 $5 $6 $7 $8 $9 X,Y pos of 4 corners*
0 Add a 4 corners polygon primitive as box body*
4,1,4,$2,$3,$4,$5,$6,$7,$8,$9,$2,$3,0*
0 Add four circle primitives for the rounded corners*
1,1,$1+$1,$2,$3*
1,1,$1+$1,$4,$5*
1,1,$1+$1,$6,$7*
1,1,$1+$1,$8,$9*
0 Add four rect primitives between the rounded corners*
20,1,$1+$1,$2,$3,$4,$5,0*
20,1,$1+$1,$4,$5,$6,$7,0*
20,1,$1+$1,$6,$7,$8,$9,0*
20,1,$1+$1,$8,$9,$2,$3,0*%
G04 Aperture macros list end*
%ADD10C,1.900000*%
%ADD11C,3.000000*%
%ADD12C,4.000000*%
%ADD13C,1.600000*%
%ADD14RoundRect,0.625000X0.650000X0.625000X-0.650000X0.625000X-0.650000X-0.625000X0.650000X-0.625000X0*%
%ADD15O,1.800000X1.600000*%
%ADD16C,2.500000*%
%ADD17RoundRect,0.250000X0.600000X-0.600000X0.600000X0.600000X-0.600000X0.600000X-0.600000X-0.600000X0*%
%ADD18C,1.700000*%
%ADD19R,1.400000X1.000000*%
%ADD20RoundRect,0.250000X0.325000X0.450000X-0.325000X0.450000X-0.325000X-0.450000X0.325000X-0.450000X0*%
%ADD21RoundRect,0.250000X0.350000X0.450000X-0.350000X0.450000X-0.350000X-0.450000X0.350000X-0.450000X0*%
G04 APERTURE END LIST*
D10*
%TO.C,SW3*%
X-23075000Y19050000D03*
D11*
X-26035000Y24130000D03*
D10*
X-34075000Y19050000D03*
X-33655000Y19050000D03*
D12*
X-28575000Y19050000D03*
D11*
X-32385000Y21590000D03*
D10*
X-23495000Y19050000D03*
D13*
X-33575000Y15250000D03*
D14*
X-35660000Y21590000D03*
D15*
X-31115000Y13970000D03*
X-24765000Y16510000D03*
D14*
X-22733000Y24130000D03*
D13*
X-28575000Y13150000D03*
%TD*%
D10*
%TO.C,SW1*%
X-61175000Y0D03*
D11*
X-64135000Y5080000D03*
D10*
X-72175000Y0D03*
X-71755000Y0D03*
D12*
X-66675000Y0D03*
D11*
X-70485000Y2540000D03*
D10*
X-61595000Y0D03*
D13*
X-71675000Y-3800000D03*
D14*
X-73760000Y2540000D03*
D15*
X-69215000Y-5080000D03*
X-62865000Y-2540000D03*
D14*
X-60833000Y5080000D03*
D13*
X-66675000Y-5900000D03*
%TD*%
D10*
%TO.C,SW7*%
X-61175000Y-19050000D03*
D11*
X-64135000Y-13970000D03*
D10*
X-72175000Y-19050000D03*
X-71755000Y-19050000D03*
D12*
X-66675000Y-19050000D03*
D11*
X-70485000Y-16510000D03*
D10*
X-61595000Y-19050000D03*
D13*
X-71675000Y-22850000D03*
D14*
X-73760000Y-16510000D03*
D15*
X-69215000Y-24130000D03*
X-62865000Y-21590000D03*
D14*
X-60833000Y-13970000D03*
D13*
X-66675000Y-24950000D03*
%TD*%
D10*
%TO.C,SW8*%
X-42125000Y-9525000D03*
D11*
X-45085000Y-4445000D03*
D10*
X-53125000Y-9525000D03*
X-52705000Y-9525000D03*
D12*
X-47625000Y-9525000D03*
D11*
X-51435000Y-6985000D03*
D10*
X-42545000Y-9525000D03*
D13*
X-52625000Y-13325000D03*
D14*
X-54710000Y-6985000D03*
D15*
X-50165000Y-14605000D03*
X-43815000Y-12065000D03*
D14*
X-41783000Y-4445000D03*
D13*
X-47625000Y-15425000D03*
%TD*%
D10*
%TO.C,SW2*%
X-42125000Y9525000D03*
D11*
X-45085000Y14605000D03*
D10*
X-53125000Y9525000D03*
X-52705000Y9525000D03*
D12*
X-47625000Y9525000D03*
D11*
X-51435000Y12065000D03*
D10*
X-42545000Y9525000D03*
D13*
X-52625000Y5725000D03*
D14*
X-54710000Y12065000D03*
D15*
X-50165000Y4445000D03*
X-43815000Y6985000D03*
D14*
X-41783000Y14605000D03*
D13*
X-47625000Y3625000D03*
%TD*%
D10*
%TO.C,SW4*%
X-4025000Y9525000D03*
D11*
X-6985000Y14605000D03*
D10*
X-15025000Y9525000D03*
X-14605000Y9525000D03*
D12*
X-9525000Y9525000D03*
D11*
X-13335000Y12065000D03*
D10*
X-4445000Y9525000D03*
D13*
X-14525000Y5725000D03*
D14*
X-16610000Y12065000D03*
D15*
X-12065000Y4445000D03*
X-5715000Y6985000D03*
D14*
X-3683000Y14605000D03*
D13*
X-9525000Y3625000D03*
%TD*%
D10*
%TO.C,SW5*%
X15025000Y9525000D03*
D11*
X12065000Y14605000D03*
D10*
X4025000Y9525000D03*
X4445000Y9525000D03*
D12*
X9525000Y9525000D03*
D11*
X5715000Y12065000D03*
D10*
X14605000Y9525000D03*
D13*
X4525000Y5725000D03*
D14*
X2440000Y12065000D03*
D15*
X6985000Y4445000D03*
X13335000Y6985000D03*
D14*
X15367000Y14605000D03*
D13*
X9525000Y3625000D03*
%TD*%
D10*
%TO.C,SW9*%
X-23075000Y0D03*
D11*
X-26035000Y5080000D03*
D10*
X-34075000Y0D03*
X-33655000Y0D03*
D12*
X-28575000Y0D03*
D11*
X-32385000Y2540000D03*
D10*
X-23495000Y0D03*
D13*
X-33575000Y-3800000D03*
D14*
X-35660000Y2540000D03*
D15*
X-31115000Y-5080000D03*
X-24765000Y-2540000D03*
D14*
X-22733000Y5080000D03*
D13*
X-28575000Y-5900000D03*
%TD*%
D10*
%TO.C,SW10*%
X-4025000Y-9525000D03*
D11*
X-6985000Y-4445000D03*
D10*
X-15025000Y-9525000D03*
X-14605000Y-9525000D03*
D12*
X-9525000Y-9525000D03*
D11*
X-13335000Y-6985000D03*
D10*
X-4445000Y-9525000D03*
D13*
X-14525000Y-13325000D03*
D14*
X-16610000Y-6985000D03*
D15*
X-12065000Y-14605000D03*
X-5715000Y-12065000D03*
D14*
X-3683000Y-4445000D03*
D13*
X-9525000Y-15425000D03*
%TD*%
D10*
%TO.C,SW11*%
X15025000Y-9525000D03*
D11*
X12065000Y-4445000D03*
D10*
X4025000Y-9525000D03*
X4445000Y-9525000D03*
D12*
X9525000Y-9525000D03*
D11*
X5715000Y-6985000D03*
D10*
X14605000Y-9525000D03*
D13*
X4525000Y-13325000D03*
D14*
X2440000Y-6985000D03*
D15*
X6985000Y-14605000D03*
X13335000Y-12065000D03*
D14*
X15367000Y-4445000D03*
D13*
X9525000Y-15425000D03*
%TD*%
D10*
%TO.C,SW13*%
X-61175000Y-38100000D03*
D11*
X-64135000Y-33020000D03*
D10*
X-72175000Y-38100000D03*
X-71755000Y-38100000D03*
D12*
X-66675000Y-38100000D03*
D11*
X-70485000Y-35560000D03*
D10*
X-61595000Y-38100000D03*
D13*
X-71675000Y-41900000D03*
D14*
X-73760000Y-35560000D03*
D15*
X-69215000Y-43180000D03*
X-62865000Y-40640000D03*
D14*
X-60833000Y-33020000D03*
D13*
X-66675000Y-44000000D03*
%TD*%
D10*
%TO.C,SW14*%
X-42125000Y-28575000D03*
D11*
X-45085000Y-23495000D03*
D10*
X-53125000Y-28575000D03*
X-52705000Y-28575000D03*
D12*
X-47625000Y-28575000D03*
D11*
X-51435000Y-26035000D03*
D10*
X-42545000Y-28575000D03*
D13*
X-52625000Y-32375000D03*
D14*
X-54710000Y-26035000D03*
D15*
X-50165000Y-33655000D03*
X-43815000Y-31115000D03*
D14*
X-41783000Y-23495000D03*
D13*
X-47625000Y-34475000D03*
%TD*%
D10*
%TO.C,SW15*%
X-23075000Y-19050000D03*
D11*
X-26035000Y-13970000D03*
D10*
X-34075000Y-19050000D03*
X-33655000Y-19050000D03*
D12*
X-28575000Y-19050000D03*
D11*
X-32385000Y-16510000D03*
D10*
X-23495000Y-19050000D03*
D13*
X-33575000Y-22850000D03*
D14*
X-35660000Y-16510000D03*
D15*
X-31115000Y-24130000D03*
X-24765000Y-21590000D03*
D14*
X-22733000Y-13970000D03*
D13*
X-28575000Y-24950000D03*
%TD*%
D10*
%TO.C,SW16*%
X-4025000Y-28575000D03*
D11*
X-6985000Y-23495000D03*
D10*
X-15025000Y-28575000D03*
X-14605000Y-28575000D03*
D12*
X-9525000Y-28575000D03*
D11*
X-13335000Y-26035000D03*
D10*
X-4445000Y-28575000D03*
D13*
X-14525000Y-32375000D03*
D14*
X-16610000Y-26035000D03*
D15*
X-12065000Y-33655000D03*
X-5715000Y-31115000D03*
D14*
X-3683000Y-23495000D03*
D13*
X-9525000Y-34475000D03*
%TD*%
D10*
%TO.C,SW17*%
X15025000Y-28575000D03*
D11*
X12065000Y-23495000D03*
D10*
X4025000Y-28575000D03*
X4445000Y-28575000D03*
D12*
X9525000Y-28575000D03*
D11*
X5715000Y-26035000D03*
D10*
X14605000Y-28575000D03*
D13*
X4525000Y-32375000D03*
D14*
X2440000Y-26035000D03*
D15*
X6985000Y-33655000D03*
X13335000Y-31115000D03*
D14*
X15367000Y-23495000D03*
D13*
X9525000Y-34475000D03*
%TD*%
D10*
%TO.C,SW22*%
X5500000Y-47625000D03*
D11*
X2540000Y-42545000D03*
D10*
X-5500000Y-47625000D03*
X-5080000Y-47625000D03*
D12*
X0Y-47625000D03*
D11*
X-3810000Y-45085000D03*
D10*
X5080000Y-47625000D03*
D13*
X-5000000Y-51425000D03*
D14*
X-7085000Y-45085000D03*
D15*
X-2540000Y-52705000D03*
X3810000Y-50165000D03*
D14*
X5842000Y-42545000D03*
D13*
X0Y-53525000D03*
%TD*%
D10*
%TO.C,SW23*%
X24550000Y-47625000D03*
D11*
X21590000Y-42545000D03*
D10*
X13550000Y-47625000D03*
X13970000Y-47625000D03*
D12*
X19050000Y-47625000D03*
D11*
X15240000Y-45085000D03*
D10*
X24130000Y-47625000D03*
D13*
X14050000Y-51425000D03*
D14*
X11965000Y-45085000D03*
D15*
X16510000Y-52705000D03*
X22860000Y-50165000D03*
D14*
X24892000Y-42545000D03*
D13*
X19050000Y-53525000D03*
%TD*%
D16*
%TO.C,H1*%
X-56261000Y0D03*
%TD*%
%TO.C,H2*%
X-58039000Y-28575000D03*
%TD*%
%TO.C,H3*%
X0Y0D03*
%TD*%
%TO.C,H4*%
X5080000Y-38100000D03*
%TD*%
D17*
%TO.C,J1*%
X-7620000Y25400000D03*
D18*
X-7620000Y27940000D03*
X-5080000Y25400000D03*
X-5080000Y27940000D03*
X-2540000Y25400000D03*
X-2540000Y27940000D03*
X0Y25400000D03*
X0Y27940000D03*
X2540000Y25400000D03*
X2540000Y27940000D03*
X5080000Y25400000D03*
X5080000Y27940000D03*
X7620000Y25400000D03*
X7620000Y27940000D03*
%TD*%
D19*
%TO.C,D1*%
X-69980000Y-9525000D03*
X-73530000Y-9525000D03*
%TD*%
%TO.C,D7*%
X-59820000Y-9525000D03*
X-63370000Y-9525000D03*
%TD*%
%TO.C,D8*%
X-40770000Y0D03*
X-44320000Y0D03*
%TD*%
%TO.C,D2*%
X-49660000Y0D03*
X-53210000Y0D03*
%TD*%
%TO.C,D3*%
X-31880000Y9525000D03*
X-35430000Y9525000D03*
%TD*%
%TO.C,D4*%
X-7750000Y19050000D03*
X-11300000Y19050000D03*
%TD*%
%TO.C,D5*%
X11300000Y19050000D03*
X7750000Y19050000D03*
%TD*%
%TO.C,D9*%
X-21720000Y9525000D03*
X-25270000Y9525000D03*
%TD*%
%TO.C,D10*%
X-7115000Y0D03*
X-10665000Y0D03*
%TD*%
%TO.C,D11*%
X11300000Y0D03*
X7750000Y0D03*
%TD*%
%TO.C,D13*%
X-64900000Y-28575000D03*
X-68450000Y-28575000D03*
%TD*%
%TO.C,D14*%
X-45850000Y-19050000D03*
X-49400000Y-19050000D03*
%TD*%
%TO.C,D15*%
X-26800000Y-9525000D03*
X-30350000Y-9525000D03*
%TD*%
%TO.C,D16*%
X-7750000Y-19050000D03*
X-11300000Y-19050000D03*
%TD*%
%TO.C,D17*%
X11300000Y-19050000D03*
X7750000Y-19050000D03*
%TD*%
%TO.C,D22*%
X-3305000Y-38100000D03*
X-6855000Y-38100000D03*
%TD*%
%TO.C,D23*%
X17015000Y-38100000D03*
X13465000Y-38100000D03*
%TD*%
D20*
%TO.C,D37*%
X-12605000Y28625000D03*
X-14655000Y28625000D03*
%TD*%
D21*
%TO.C,R1*%
X-12605000Y24815000D03*
X-14605000Y24815000D03*
%TD*%
M02*
