%TF.GenerationSoftware,KiCad,Pcbnew,(5.1.12-1-10_14)*%
%TF.CreationDate,2021-11-20T17:22:18+08:00*%
%TF.ProjectId,Pragmatic,50726167-6d61-4746-9963-2e6b69636164,0.2*%
%TF.SameCoordinates,Original*%
%TF.FileFunction,Copper,L2,Bot*%
%TF.FilePolarity,Positive*%
%FSLAX46Y46*%
G04 Gerber Fmt 4.6, Leading zero omitted, Abs format (unit mm)*
G04 Created by KiCad (PCBNEW (5.1.12-1-10_14)) date 2021-11-20 17:22:18*
%MOMM*%
%LPD*%
G01*
G04 APERTURE LIST*
%TA.AperFunction,NonConductor*%
%ADD10C,0.254000*%
%TD*%
%ADD11C,0.254000*%
%TA.AperFunction,ComponentPad*%
%ADD12C,2.400000*%
%TD*%
%TA.AperFunction,ComponentPad*%
%ADD13O,2.200000X1.600000*%
%TD*%
%TA.AperFunction,ComponentPad*%
%ADD14O,2.200000X1.500000*%
%TD*%
%TA.AperFunction,ComponentPad*%
%ADD15C,1.700000*%
%TD*%
%TA.AperFunction,ComponentPad*%
%ADD16O,1.700000X1.700000*%
%TD*%
%TA.AperFunction,ComponentPad*%
%ADD17R,1.700000X1.700000*%
%TD*%
%TA.AperFunction,SMDPad,CuDef*%
%ADD18R,1.400000X1.000000*%
%TD*%
%TA.AperFunction,ViaPad*%
%ADD19C,0.800000*%
%TD*%
%TA.AperFunction,Conductor*%
%ADD20C,0.250000*%
%TD*%
%TA.AperFunction,Conductor*%
%ADD21C,0.400000*%
%TD*%
G04 APERTURE END LIST*
D10*
X49378809Y-42424047D02*
X50225476Y-41214523D01*
X50830238Y-42424047D02*
X50830238Y-39884047D01*
X49862619Y-39884047D01*
X49620714Y-40005000D01*
X49499761Y-40125952D01*
X49378809Y-40367857D01*
X49378809Y-40730714D01*
X49499761Y-40972619D01*
X49620714Y-41093571D01*
X49862619Y-41214523D01*
X50830238Y-41214523D01*
D11*
X142477595Y-42424047D02*
X142160095Y-39884047D01*
X141192476Y-39884047D01*
X140965691Y-40005000D01*
X140859857Y-40125952D01*
X140769143Y-40367857D01*
X140814500Y-40730714D01*
X140965691Y-40972619D01*
X141101762Y-41093571D01*
X141358786Y-41214523D01*
X142326405Y-41214523D01*
X139937595Y-42424047D02*
X139725929Y-40730714D01*
X139786405Y-41214523D02*
X139635214Y-40972619D01*
X139499143Y-40851666D01*
X139242119Y-40730714D01*
X139000214Y-40730714D01*
X137276643Y-42424047D02*
X137110333Y-41093571D01*
X137201048Y-40851666D01*
X137427833Y-40730714D01*
X137911643Y-40730714D01*
X138168667Y-40851666D01*
X137261524Y-42303095D02*
X137518548Y-42424047D01*
X138123310Y-42424047D01*
X138350095Y-42303095D01*
X138440810Y-42061190D01*
X138410572Y-41819285D01*
X138259381Y-41577380D01*
X138002357Y-41456428D01*
X137397595Y-41456428D01*
X137140572Y-41335476D01*
X134766881Y-40730714D02*
X135023905Y-42786904D01*
X135175095Y-43028809D01*
X135311167Y-43149761D01*
X135568191Y-43270714D01*
X135931048Y-43270714D01*
X136157833Y-43149761D01*
X134963429Y-42303095D02*
X135220452Y-42424047D01*
X135704262Y-42424047D01*
X135931048Y-42303095D01*
X136036881Y-42182142D01*
X136127595Y-41940238D01*
X136036881Y-41214523D01*
X135885691Y-40972619D01*
X135749619Y-40851666D01*
X135492595Y-40730714D01*
X135008786Y-40730714D01*
X134782000Y-40851666D01*
X133769024Y-42424047D02*
X133557357Y-40730714D01*
X133587595Y-40972619D02*
X133451524Y-40851666D01*
X133194500Y-40730714D01*
X132831643Y-40730714D01*
X132604857Y-40851666D01*
X132514143Y-41093571D01*
X132680452Y-42424047D01*
X132514143Y-41093571D02*
X132362952Y-40851666D01*
X132105929Y-40730714D01*
X131743072Y-40730714D01*
X131516286Y-40851666D01*
X131425572Y-41093571D01*
X131591881Y-42424047D01*
X129293786Y-42424047D02*
X129127476Y-41093571D01*
X129218191Y-40851666D01*
X129444976Y-40730714D01*
X129928786Y-40730714D01*
X130185810Y-40851666D01*
X129278667Y-42303095D02*
X129535691Y-42424047D01*
X130140452Y-42424047D01*
X130367238Y-42303095D01*
X130457952Y-42061190D01*
X130427714Y-41819285D01*
X130276524Y-41577380D01*
X130019500Y-41456428D01*
X129414738Y-41456428D01*
X129157714Y-41335476D01*
X128235452Y-40730714D02*
X127267833Y-40730714D01*
X127766762Y-39884047D02*
X128038905Y-42061190D01*
X127948191Y-42303095D01*
X127721405Y-42424047D01*
X127479500Y-42424047D01*
X126632833Y-42424047D02*
X126421167Y-40730714D01*
X126315333Y-39884047D02*
X126451405Y-40005000D01*
X126345572Y-40125952D01*
X126209500Y-40005000D01*
X126315333Y-39884047D01*
X126345572Y-40125952D01*
X124319619Y-42303095D02*
X124576643Y-42424047D01*
X125060452Y-42424047D01*
X125287238Y-42303095D01*
X125393072Y-42182142D01*
X125483786Y-41940238D01*
X125393072Y-41214523D01*
X125241881Y-40972619D01*
X125105810Y-40851666D01*
X124848786Y-40730714D01*
X124364976Y-40730714D01*
X124138191Y-40851666D01*
D12*
X60960000Y-54610000D03*
D13*
X62250000Y-61050000D03*
D12*
X54610000Y-52070000D03*
X53340000Y-54610000D03*
D13*
X52050000Y-61050000D03*
D12*
X59690000Y-52070000D03*
X59690000Y-52070000D03*
D13*
X52050000Y-61050000D03*
D14*
X57150000Y-63050000D03*
D12*
X53340000Y-54610000D03*
D15*
X75565000Y-40005000D03*
X73025000Y-40005000D03*
X70485000Y-40005000D03*
X67945000Y-40005000D03*
X65405000Y-40005000D03*
X62865000Y-40005000D03*
X60325000Y-40005000D03*
X57785000Y-40005000D03*
X75565000Y-42545000D03*
X73025000Y-42545000D03*
X70485000Y-42545000D03*
X67945000Y-42545000D03*
X65405000Y-42545000D03*
X62865000Y-42545000D03*
X60325000Y-42545000D03*
%TA.AperFunction,ComponentPad*%
G36*
G01*
X58385000Y-43395000D02*
X57185000Y-43395000D01*
G75*
G02*
X56935000Y-43145000I0J250000D01*
G01*
X56935000Y-41945000D01*
G75*
G02*
X57185000Y-41695000I250000J0D01*
G01*
X58385000Y-41695000D01*
G75*
G02*
X58635000Y-41945000I0J-250000D01*
G01*
X58635000Y-43145000D01*
G75*
G02*
X58385000Y-43395000I-250000J0D01*
G01*
G37*
%TD.AperFunction*%
D16*
X101600000Y-41275000D03*
X99060000Y-41275000D03*
X96520000Y-41275000D03*
D17*
X93980000Y-41275000D03*
%TA.AperFunction,SMDPad,CuDef*%
G36*
G01*
X86030000Y-42995400D02*
X86030000Y-42094600D01*
G75*
G02*
X86279600Y-41845000I249600J0D01*
G01*
X86980400Y-41845000D01*
G75*
G02*
X87230000Y-42094600I0J-249600D01*
G01*
X87230000Y-42995400D01*
G75*
G02*
X86980400Y-43245000I-249600J0D01*
G01*
X86279600Y-43245000D01*
G75*
G02*
X86030000Y-42995400I0J249600D01*
G01*
G37*
%TD.AperFunction*%
%TA.AperFunction,SMDPad,CuDef*%
G36*
G01*
X88030000Y-42995400D02*
X88030000Y-42094600D01*
G75*
G02*
X88279600Y-41845000I249600J0D01*
G01*
X88980400Y-41845000D01*
G75*
G02*
X89230000Y-42094600I0J-249600D01*
G01*
X89230000Y-42995400D01*
G75*
G02*
X88980400Y-43245000I-249600J0D01*
G01*
X88279600Y-43245000D01*
G75*
G02*
X88030000Y-42995400I0J249600D01*
G01*
G37*
%TD.AperFunction*%
%TA.AperFunction,SMDPad,CuDef*%
G36*
G01*
X88080000Y-40455450D02*
X88080000Y-39554550D01*
G75*
G02*
X88329550Y-39305000I249550J0D01*
G01*
X88980450Y-39305000D01*
G75*
G02*
X89230000Y-39554550I0J-249550D01*
G01*
X89230000Y-40455450D01*
G75*
G02*
X88980450Y-40705000I-249550J0D01*
G01*
X88329550Y-40705000D01*
G75*
G02*
X88080000Y-40455450I0J249550D01*
G01*
G37*
%TD.AperFunction*%
%TA.AperFunction,SMDPad,CuDef*%
G36*
G01*
X86030000Y-40455450D02*
X86030000Y-39554550D01*
G75*
G02*
X86279550Y-39305000I249550J0D01*
G01*
X86930450Y-39305000D01*
G75*
G02*
X87180000Y-39554550I0J-249550D01*
G01*
X87180000Y-40455450D01*
G75*
G02*
X86930450Y-40705000I-249550J0D01*
G01*
X86279550Y-40705000D01*
G75*
G02*
X86030000Y-40455450I0J249550D01*
G01*
G37*
%TD.AperFunction*%
D12*
X156210000Y-149860000D03*
D13*
X157500000Y-156300000D03*
D12*
X149860000Y-147320000D03*
X148590000Y-149860000D03*
D13*
X147300000Y-156300000D03*
D12*
X154940000Y-147320000D03*
X154940000Y-147320000D03*
D13*
X147300000Y-156300000D03*
D14*
X152400000Y-158300000D03*
D12*
X148590000Y-149860000D03*
X137160000Y-149860000D03*
D13*
X138450000Y-156300000D03*
D12*
X130810000Y-147320000D03*
X129540000Y-149860000D03*
D13*
X128250000Y-156300000D03*
D12*
X135890000Y-147320000D03*
X135890000Y-147320000D03*
D13*
X128250000Y-156300000D03*
D14*
X133350000Y-158300000D03*
D12*
X129540000Y-149860000D03*
X118110000Y-149860000D03*
D13*
X119400000Y-156300000D03*
D12*
X111760000Y-147320000D03*
X110490000Y-149860000D03*
D13*
X109200000Y-156300000D03*
D12*
X116840000Y-147320000D03*
X116840000Y-147320000D03*
D13*
X109200000Y-156300000D03*
D14*
X114300000Y-158300000D03*
D12*
X110490000Y-149860000D03*
X99060000Y-149860000D03*
D13*
X100350000Y-156300000D03*
D12*
X92710000Y-147320000D03*
X91440000Y-149860000D03*
D13*
X90150000Y-156300000D03*
D12*
X97790000Y-147320000D03*
X97790000Y-147320000D03*
D13*
X90150000Y-156300000D03*
D14*
X95250000Y-158300000D03*
D12*
X91440000Y-149860000D03*
X80010000Y-149860000D03*
D13*
X81300000Y-156300000D03*
D12*
X73660000Y-147320000D03*
X72390000Y-149860000D03*
D13*
X71100000Y-156300000D03*
D12*
X78740000Y-147320000D03*
X78740000Y-147320000D03*
D13*
X71100000Y-156300000D03*
D14*
X76200000Y-158300000D03*
D12*
X72390000Y-149860000D03*
X60960000Y-149860000D03*
D13*
X62250000Y-156300000D03*
D12*
X54610000Y-147320000D03*
X53340000Y-149860000D03*
D13*
X52050000Y-156300000D03*
D12*
X59690000Y-147320000D03*
X59690000Y-147320000D03*
D13*
X52050000Y-156300000D03*
D14*
X57150000Y-158300000D03*
D12*
X53340000Y-149860000D03*
X156210000Y-130810000D03*
D13*
X157500000Y-137250000D03*
D12*
X149860000Y-128270000D03*
X148590000Y-130810000D03*
D13*
X147300000Y-137250000D03*
D12*
X154940000Y-128270000D03*
X154940000Y-128270000D03*
D13*
X147300000Y-137250000D03*
D14*
X152400000Y-139250000D03*
D12*
X148590000Y-130810000D03*
X137160000Y-130810000D03*
D13*
X138450000Y-137250000D03*
D12*
X130810000Y-128270000D03*
X129540000Y-130810000D03*
D13*
X128250000Y-137250000D03*
D12*
X135890000Y-128270000D03*
X135890000Y-128270000D03*
D13*
X128250000Y-137250000D03*
D14*
X133350000Y-139250000D03*
D12*
X129540000Y-130810000D03*
X118110000Y-130810000D03*
D13*
X119400000Y-137250000D03*
D12*
X111760000Y-128270000D03*
X110490000Y-130810000D03*
D13*
X109200000Y-137250000D03*
D12*
X116840000Y-128270000D03*
X116840000Y-128270000D03*
D13*
X109200000Y-137250000D03*
D14*
X114300000Y-139250000D03*
D12*
X110490000Y-130810000D03*
X99060000Y-130810000D03*
D13*
X100350000Y-137250000D03*
D12*
X92710000Y-128270000D03*
X91440000Y-130810000D03*
D13*
X90150000Y-137250000D03*
D12*
X97790000Y-128270000D03*
X97790000Y-128270000D03*
D13*
X90150000Y-137250000D03*
D14*
X95250000Y-139250000D03*
D12*
X91440000Y-130810000D03*
X80010000Y-130810000D03*
D13*
X81300000Y-137250000D03*
D12*
X73660000Y-128270000D03*
X72390000Y-130810000D03*
D13*
X71100000Y-137250000D03*
D12*
X78740000Y-128270000D03*
X78740000Y-128270000D03*
D13*
X71100000Y-137250000D03*
D14*
X76200000Y-139250000D03*
D12*
X72390000Y-130810000D03*
X60960000Y-130810000D03*
D13*
X62250000Y-137250000D03*
D12*
X54610000Y-128270000D03*
X53340000Y-130810000D03*
D13*
X52050000Y-137250000D03*
D12*
X59690000Y-128270000D03*
X59690000Y-128270000D03*
D13*
X52050000Y-137250000D03*
D14*
X57150000Y-139250000D03*
D12*
X53340000Y-130810000D03*
X156210000Y-111760000D03*
D13*
X157500000Y-118200000D03*
D12*
X149860000Y-109220000D03*
X148590000Y-111760000D03*
D13*
X147300000Y-118200000D03*
D12*
X154940000Y-109220000D03*
X154940000Y-109220000D03*
D13*
X147300000Y-118200000D03*
D14*
X152400000Y-120200000D03*
D12*
X148590000Y-111760000D03*
X137160000Y-111760000D03*
D13*
X138450000Y-118200000D03*
D12*
X130810000Y-109220000D03*
X129540000Y-111760000D03*
D13*
X128250000Y-118200000D03*
D12*
X135890000Y-109220000D03*
X135890000Y-109220000D03*
D13*
X128250000Y-118200000D03*
D14*
X133350000Y-120200000D03*
D12*
X129540000Y-111760000D03*
X118110000Y-111760000D03*
D13*
X119400000Y-118200000D03*
D12*
X111760000Y-109220000D03*
X110490000Y-111760000D03*
D13*
X109200000Y-118200000D03*
D12*
X116840000Y-109220000D03*
X116840000Y-109220000D03*
D13*
X109200000Y-118200000D03*
D14*
X114300000Y-120200000D03*
D12*
X110490000Y-111760000D03*
X99060000Y-111760000D03*
D13*
X100350000Y-118200000D03*
D12*
X92710000Y-109220000D03*
X91440000Y-111760000D03*
D13*
X90150000Y-118200000D03*
D12*
X97790000Y-109220000D03*
X97790000Y-109220000D03*
D13*
X90150000Y-118200000D03*
D14*
X95250000Y-120200000D03*
D12*
X91440000Y-111760000D03*
X80010000Y-111760000D03*
D13*
X81300000Y-118200000D03*
D12*
X73660000Y-109220000D03*
X72390000Y-111760000D03*
D13*
X71100000Y-118200000D03*
D12*
X78740000Y-109220000D03*
X78740000Y-109220000D03*
D13*
X71100000Y-118200000D03*
D14*
X76200000Y-120200000D03*
D12*
X72390000Y-111760000D03*
X60960000Y-111760000D03*
D13*
X62250000Y-118200000D03*
D12*
X54610000Y-109220000D03*
X53340000Y-111760000D03*
D13*
X52050000Y-118200000D03*
D12*
X59690000Y-109220000D03*
X59690000Y-109220000D03*
D13*
X52050000Y-118200000D03*
D14*
X57150000Y-120200000D03*
D12*
X53340000Y-111760000D03*
X156210000Y-92710000D03*
D13*
X157500000Y-99150000D03*
D12*
X149860000Y-90170000D03*
X148590000Y-92710000D03*
D13*
X147300000Y-99150000D03*
D12*
X154940000Y-90170000D03*
X154940000Y-90170000D03*
D13*
X147300000Y-99150000D03*
D14*
X152400000Y-101150000D03*
D12*
X148590000Y-92710000D03*
X137160000Y-92710000D03*
D13*
X138450000Y-99150000D03*
D12*
X130810000Y-90170000D03*
X129540000Y-92710000D03*
D13*
X128250000Y-99150000D03*
D12*
X135890000Y-90170000D03*
X135890000Y-90170000D03*
D13*
X128250000Y-99150000D03*
D14*
X133350000Y-101150000D03*
D12*
X129540000Y-92710000D03*
X118110000Y-92710000D03*
D13*
X119400000Y-99150000D03*
D12*
X111760000Y-90170000D03*
X110490000Y-92710000D03*
D13*
X109200000Y-99150000D03*
D12*
X116840000Y-90170000D03*
X116840000Y-90170000D03*
D13*
X109200000Y-99150000D03*
D14*
X114300000Y-101150000D03*
D12*
X110490000Y-92710000D03*
X99060000Y-92710000D03*
D13*
X100350000Y-99150000D03*
D12*
X92710000Y-90170000D03*
X91440000Y-92710000D03*
D13*
X90150000Y-99150000D03*
D12*
X97790000Y-90170000D03*
X97790000Y-90170000D03*
D13*
X90150000Y-99150000D03*
D14*
X95250000Y-101150000D03*
D12*
X91440000Y-92710000D03*
X80010000Y-92710000D03*
D13*
X81300000Y-99150000D03*
D12*
X73660000Y-90170000D03*
X72390000Y-92710000D03*
D13*
X71100000Y-99150000D03*
D12*
X78740000Y-90170000D03*
X78740000Y-90170000D03*
D13*
X71100000Y-99150000D03*
D14*
X76200000Y-101150000D03*
D12*
X72390000Y-92710000D03*
X60960000Y-92710000D03*
D13*
X62250000Y-99150000D03*
D12*
X54610000Y-90170000D03*
X53340000Y-92710000D03*
D13*
X52050000Y-99150000D03*
D12*
X59690000Y-90170000D03*
X59690000Y-90170000D03*
D13*
X52050000Y-99150000D03*
D14*
X57150000Y-101150000D03*
D12*
X53340000Y-92710000D03*
X156210000Y-73660000D03*
D13*
X157500000Y-80100000D03*
D12*
X149860000Y-71120000D03*
X148590000Y-73660000D03*
D13*
X147300000Y-80100000D03*
D12*
X154940000Y-71120000D03*
X154940000Y-71120000D03*
D13*
X147300000Y-80100000D03*
D14*
X152400000Y-82100000D03*
D12*
X148590000Y-73660000D03*
X137160000Y-73660000D03*
D13*
X138450000Y-80100000D03*
D12*
X130810000Y-71120000D03*
X129540000Y-73660000D03*
D13*
X128250000Y-80100000D03*
D12*
X135890000Y-71120000D03*
X135890000Y-71120000D03*
D13*
X128250000Y-80100000D03*
D14*
X133350000Y-82100000D03*
D12*
X129540000Y-73660000D03*
X118110000Y-73660000D03*
D13*
X119400000Y-80100000D03*
D12*
X111760000Y-71120000D03*
X110490000Y-73660000D03*
D13*
X109200000Y-80100000D03*
D12*
X116840000Y-71120000D03*
X116840000Y-71120000D03*
D13*
X109200000Y-80100000D03*
D14*
X114300000Y-82100000D03*
D12*
X110490000Y-73660000D03*
X99060000Y-73660000D03*
D13*
X100350000Y-80100000D03*
D12*
X92710000Y-71120000D03*
X91440000Y-73660000D03*
D13*
X90150000Y-80100000D03*
D12*
X97790000Y-71120000D03*
X97790000Y-71120000D03*
D13*
X90150000Y-80100000D03*
D14*
X95250000Y-82100000D03*
D12*
X91440000Y-73660000D03*
X156210000Y-54610000D03*
D13*
X157500000Y-61050000D03*
D12*
X149860000Y-52070000D03*
X148590000Y-54610000D03*
D13*
X147300000Y-61050000D03*
D12*
X154940000Y-52070000D03*
X154940000Y-52070000D03*
D13*
X147300000Y-61050000D03*
D14*
X152400000Y-63050000D03*
D12*
X148590000Y-54610000D03*
X137160000Y-54610000D03*
D13*
X138450000Y-61050000D03*
D12*
X130810000Y-52070000D03*
X129540000Y-54610000D03*
D13*
X128250000Y-61050000D03*
D12*
X135890000Y-52070000D03*
X135890000Y-52070000D03*
D13*
X128250000Y-61050000D03*
D14*
X133350000Y-63050000D03*
D12*
X129540000Y-54610000D03*
X118110000Y-54610000D03*
D13*
X119400000Y-61050000D03*
D12*
X111760000Y-52070000D03*
X110490000Y-54610000D03*
D13*
X109200000Y-61050000D03*
D12*
X116840000Y-52070000D03*
X116840000Y-52070000D03*
D13*
X109200000Y-61050000D03*
D14*
X114300000Y-63050000D03*
D12*
X110490000Y-54610000D03*
X99060000Y-54610000D03*
D13*
X100350000Y-61050000D03*
D12*
X92710000Y-52070000D03*
X91440000Y-54610000D03*
D13*
X90150000Y-61050000D03*
D12*
X97790000Y-52070000D03*
X97790000Y-52070000D03*
D13*
X90150000Y-61050000D03*
D14*
X95250000Y-63050000D03*
D12*
X91440000Y-54610000D03*
D18*
X150625000Y-144145000D03*
X154175000Y-144145000D03*
X131575000Y-144145000D03*
X135125000Y-144145000D03*
X112525000Y-144145000D03*
X116075000Y-144145000D03*
X93475000Y-144145000D03*
X97025000Y-144145000D03*
X74425000Y-144145000D03*
X77975000Y-144145000D03*
X55375000Y-144145000D03*
X58925000Y-144145000D03*
X150625000Y-125095000D03*
X154175000Y-125095000D03*
X131575000Y-125095000D03*
X135125000Y-125095000D03*
X112525000Y-125095000D03*
X116075000Y-125095000D03*
X93475000Y-125095000D03*
X97025000Y-125095000D03*
X74425000Y-125095000D03*
X77975000Y-125095000D03*
X55375000Y-125095000D03*
X58925000Y-125095000D03*
X150625000Y-106045000D03*
X154175000Y-106045000D03*
X131575000Y-106045000D03*
X135125000Y-106045000D03*
X112525000Y-106045000D03*
X116075000Y-106045000D03*
X93475000Y-106045000D03*
X97025000Y-106045000D03*
X74425000Y-106045000D03*
X77975000Y-106045000D03*
X55375000Y-106045000D03*
X58925000Y-106045000D03*
X150625000Y-86995000D03*
X154175000Y-86995000D03*
X131575000Y-86995000D03*
X135125000Y-86995000D03*
X112525000Y-86995000D03*
X116075000Y-86995000D03*
X93475000Y-86995000D03*
X97025000Y-86995000D03*
X74425000Y-86995000D03*
X77975000Y-86995000D03*
X55375000Y-86995000D03*
X58925000Y-86995000D03*
X150625000Y-67945000D03*
X154175000Y-67945000D03*
X131575000Y-67945000D03*
X135125000Y-67945000D03*
X112525000Y-67945000D03*
X116075000Y-67945000D03*
X93475000Y-67945000D03*
X97025000Y-67945000D03*
X150625000Y-48895000D03*
X154175000Y-48895000D03*
X131575000Y-48895000D03*
X135125000Y-48895000D03*
X112525000Y-48895000D03*
X116075000Y-48895000D03*
X93475000Y-48895000D03*
X97025000Y-48895000D03*
D12*
X80010000Y-73660000D03*
D13*
X81300000Y-80100000D03*
D12*
X73660000Y-71120000D03*
X72390000Y-73660000D03*
D13*
X71100000Y-80100000D03*
D12*
X78740000Y-71120000D03*
X78740000Y-71120000D03*
D13*
X71100000Y-80100000D03*
D14*
X76200000Y-82100000D03*
D12*
X72390000Y-73660000D03*
X60960000Y-73660000D03*
D13*
X62250000Y-80100000D03*
D12*
X54610000Y-71120000D03*
X53340000Y-73660000D03*
D13*
X52050000Y-80100000D03*
D12*
X59690000Y-71120000D03*
X59690000Y-71120000D03*
D13*
X52050000Y-80100000D03*
D14*
X57150000Y-82100000D03*
D12*
X53340000Y-73660000D03*
X80010000Y-54610000D03*
D13*
X81300000Y-61050000D03*
D12*
X73660000Y-52070000D03*
X72390000Y-54610000D03*
D13*
X71100000Y-61050000D03*
D12*
X78740000Y-52070000D03*
X78740000Y-52070000D03*
D13*
X71100000Y-61050000D03*
D14*
X76200000Y-63050000D03*
D12*
X72390000Y-54610000D03*
D18*
X74425000Y-67945000D03*
X77975000Y-67945000D03*
X55375000Y-67945000D03*
X58925000Y-67945000D03*
X74425000Y-48895000D03*
X77975000Y-48895000D03*
X55375000Y-48895000D03*
X58925000Y-48895000D03*
D19*
X154174988Y-48895000D03*
X135124980Y-48895000D03*
X116074980Y-48895000D03*
X97024996Y-48895000D03*
X77975008Y-48895000D03*
X58925016Y-48895000D03*
X137795000Y-67945006D03*
X62230000Y-67945000D03*
X81914998Y-67945000D03*
X119380000Y-67945000D03*
X100330000Y-67945000D03*
X154175010Y-67945000D03*
X86629978Y-42545000D03*
X83820000Y-86995000D03*
X62230022Y-86995000D03*
X119824999Y-86169999D03*
X100329992Y-86995000D03*
X138620001Y-86995000D03*
X154175006Y-86995000D03*
X86604988Y-40005000D03*
X102235000Y-106045000D03*
X81280000Y-106045000D03*
X119570001Y-106045000D03*
X138430000Y-106045000D03*
X62420015Y-106045000D03*
X154174986Y-106045000D03*
X101409999Y-124269999D03*
X137795000Y-125095000D03*
X119380018Y-125095000D03*
X157480000Y-125095000D03*
X81280020Y-125095000D03*
X62230000Y-125095000D03*
X139065000Y-144145004D03*
X81280000Y-144145000D03*
X62230009Y-144145009D03*
X100330000Y-144145014D03*
X119379996Y-144145000D03*
X154174992Y-144145000D03*
X88654982Y-40005000D03*
D20*
X55375000Y-51305000D02*
X54610000Y-52070000D01*
X55375000Y-48895000D02*
X55375000Y-51305000D01*
X154175000Y-48895000D02*
X154174988Y-48895000D01*
X135239980Y-49010000D02*
X135124980Y-48895000D01*
X135255000Y-49010000D02*
X135239980Y-49010000D01*
X116205000Y-48895000D02*
X116074980Y-48895000D01*
X97025000Y-48895000D02*
X97024996Y-48895000D01*
X77975000Y-48895000D02*
X77975008Y-48895000D01*
X73660000Y-53340000D02*
X72390000Y-54610000D01*
X73660000Y-52070000D02*
X73660000Y-53340000D01*
X74425000Y-51305000D02*
X73660000Y-52070000D01*
X74425000Y-49149000D02*
X74425000Y-51305000D01*
X74552000Y-49022000D02*
X74425000Y-49149000D01*
X57150000Y-68580000D02*
X59690000Y-71120000D01*
X57150000Y-63050000D02*
X57150000Y-68580000D01*
X60960000Y-73152000D02*
X60960000Y-73660000D01*
X59690000Y-71882000D02*
X60960000Y-73152000D01*
X59690000Y-71120000D02*
X59690000Y-71882000D01*
X60452000Y-78798000D02*
X57150000Y-82100000D01*
X60452000Y-74168000D02*
X60452000Y-78798000D01*
X60960000Y-73660000D02*
X60452000Y-74168000D01*
X60452000Y-59748000D02*
X57150000Y-63050000D01*
X60452000Y-55118000D02*
X60452000Y-59748000D01*
X60960000Y-54610000D02*
X60452000Y-55118000D01*
X57150000Y-87630000D02*
X59690000Y-90170000D01*
X57150000Y-82100000D02*
X57150000Y-87630000D01*
X60960000Y-91440000D02*
X60960000Y-92710000D01*
X59690000Y-90170000D02*
X60960000Y-91440000D01*
X60579000Y-97721000D02*
X57150000Y-101150000D01*
X60579000Y-93091000D02*
X60579000Y-97721000D01*
X60960000Y-92710000D02*
X60579000Y-93091000D01*
X57150000Y-106680000D02*
X59690000Y-109220000D01*
X57150000Y-101150000D02*
X57150000Y-106680000D01*
X60960000Y-110490000D02*
X60960000Y-111760000D01*
X59690000Y-109220000D02*
X60960000Y-110490000D01*
X57150000Y-125730000D02*
X59690000Y-128270000D01*
X57150000Y-120200000D02*
X57150000Y-125730000D01*
X60960000Y-129540000D02*
X60960000Y-130810000D01*
X59690000Y-128270000D02*
X60960000Y-129540000D01*
X57150000Y-144780000D02*
X59690000Y-147320000D01*
X57150000Y-139250000D02*
X57150000Y-144780000D01*
X60960000Y-148590000D02*
X60960000Y-149860000D01*
X59690000Y-147320000D02*
X60960000Y-148590000D01*
X57150000Y-158242000D02*
X57150000Y-158300000D01*
X60452000Y-154940000D02*
X57150000Y-158242000D01*
X60452000Y-150368000D02*
X60452000Y-154940000D01*
X60960000Y-149860000D02*
X60452000Y-150368000D01*
X59775000Y-52155000D02*
X59690000Y-52070000D01*
X60960000Y-53340000D02*
X60960000Y-54610000D01*
X59690000Y-52070000D02*
X60960000Y-53340000D01*
X57150000Y-49530000D02*
X59690000Y-52070000D01*
X57150000Y-48254999D02*
X57150000Y-49530000D01*
X60319999Y-45085000D02*
X57150000Y-48254999D01*
X60579000Y-116771000D02*
X57150000Y-120200000D01*
X60579000Y-112141000D02*
X60579000Y-116771000D01*
X60960000Y-111760000D02*
X60579000Y-112141000D01*
X60579000Y-135821000D02*
X57150000Y-139250000D01*
X60579000Y-131191000D02*
X60579000Y-135821000D01*
X60960000Y-130810000D02*
X60579000Y-131191000D01*
X60325000Y-45085000D02*
X60319999Y-45085000D01*
X62865000Y-42545000D02*
X60325000Y-45085000D01*
X55375000Y-70355000D02*
X54610000Y-71120000D01*
X55375000Y-67945000D02*
X55375000Y-70355000D01*
X135125000Y-67945000D02*
X137794994Y-67945000D01*
X137794994Y-67945000D02*
X137795000Y-67945006D01*
X59179000Y-67945000D02*
X62230000Y-67945000D01*
X59052000Y-68072000D02*
X59179000Y-67945000D01*
X78229000Y-67945000D02*
X81914998Y-67945000D01*
X78102000Y-68072000D02*
X78229000Y-67945000D01*
X62230000Y-64229999D02*
X62230000Y-67945000D01*
X64135000Y-62324999D02*
X62230000Y-64229999D01*
X64135000Y-41275000D02*
X64135000Y-62324999D01*
X65405000Y-40005000D02*
X64135000Y-41275000D01*
X116075000Y-67945000D02*
X119380000Y-67945000D01*
X97025000Y-67945000D02*
X100330000Y-67945000D01*
X154175000Y-67945000D02*
X154175010Y-67945000D01*
X72517000Y-73660000D02*
X72390000Y-73660000D01*
X74552000Y-71625000D02*
X72517000Y-73660000D01*
X74552000Y-68072000D02*
X74552000Y-71625000D01*
X99060000Y-53340000D02*
X99060000Y-54610000D01*
X97790000Y-52070000D02*
X99060000Y-53340000D01*
X95250000Y-68580000D02*
X97790000Y-71120000D01*
X95250000Y-63050000D02*
X95250000Y-68580000D01*
X99060000Y-72390000D02*
X99060000Y-73660000D01*
X97790000Y-71120000D02*
X99060000Y-72390000D01*
X95250000Y-87630000D02*
X97790000Y-90170000D01*
X95250000Y-82100000D02*
X95250000Y-87630000D01*
X99060000Y-91440000D02*
X99060000Y-92710000D01*
X97790000Y-90170000D02*
X99060000Y-91440000D01*
X98806000Y-97594000D02*
X95250000Y-101150000D01*
X98806000Y-92964000D02*
X98806000Y-97594000D01*
X99060000Y-92710000D02*
X98806000Y-92964000D01*
X99060000Y-110490000D02*
X99060000Y-111760000D01*
X95250000Y-106680000D02*
X99060000Y-110490000D01*
X95250000Y-101150000D02*
X95250000Y-106680000D01*
X95250000Y-125730000D02*
X97790000Y-128270000D01*
X95250000Y-120200000D02*
X95250000Y-125730000D01*
X99060000Y-129540000D02*
X99060000Y-130810000D01*
X97790000Y-128270000D02*
X99060000Y-129540000D01*
X95250000Y-144780000D02*
X97790000Y-147320000D01*
X95250000Y-139250000D02*
X95250000Y-144780000D01*
X99060000Y-148590000D02*
X99060000Y-149860000D01*
X97790000Y-147320000D02*
X99060000Y-148590000D01*
X98679000Y-154940000D02*
X95319000Y-158300000D01*
X98679000Y-150241000D02*
X98679000Y-154940000D01*
X95319000Y-158300000D02*
X95250000Y-158300000D01*
X99060000Y-149860000D02*
X98679000Y-150241000D01*
X98679000Y-54991000D02*
X98679000Y-59621000D01*
X98679000Y-59621000D02*
X95250000Y-63050000D01*
X99060000Y-54610000D02*
X98679000Y-54991000D01*
X98679000Y-74041000D02*
X98679000Y-78671000D01*
X98679000Y-78671000D02*
X95250000Y-82100000D01*
X99060000Y-73660000D02*
X98679000Y-74041000D01*
X98679000Y-116771000D02*
X95250000Y-120200000D01*
X98679000Y-112141000D02*
X98679000Y-116771000D01*
X99060000Y-111760000D02*
X98679000Y-112141000D01*
X98679000Y-135821000D02*
X95250000Y-139250000D01*
X98679000Y-131191000D02*
X98679000Y-135821000D01*
X99060000Y-130810000D02*
X98679000Y-131191000D01*
X95250000Y-49530000D02*
X97790000Y-52070000D01*
X95250000Y-47625000D02*
X95250000Y-49530000D01*
X94794977Y-47169977D02*
X95250000Y-47625000D01*
X67945000Y-42545000D02*
X67945000Y-43815000D01*
X71299977Y-47169977D02*
X94794977Y-47169977D01*
X67945000Y-43815000D02*
X71299977Y-47169977D01*
X78740000Y-52070000D02*
X79502000Y-52832000D01*
X76200000Y-68580000D02*
X78740000Y-71120000D01*
X76200000Y-63050000D02*
X76200000Y-68580000D01*
X78740000Y-148590000D02*
X78740000Y-147320000D01*
X80010000Y-149860000D02*
X78740000Y-148590000D01*
X76200000Y-144134998D02*
X76200000Y-139250000D01*
X78740000Y-146674998D02*
X76200000Y-144134998D01*
X78740000Y-147320000D02*
X78740000Y-146674998D01*
X78740000Y-129540000D02*
X78740000Y-128270000D01*
X80010000Y-130810000D02*
X78740000Y-129540000D01*
X78740000Y-110490000D02*
X78740000Y-109220000D01*
X80010000Y-111760000D02*
X78740000Y-110490000D01*
X78740000Y-91440000D02*
X78740000Y-90170000D01*
X80010000Y-92710000D02*
X78740000Y-91440000D01*
X76200000Y-87630000D02*
X76200000Y-82100000D01*
X78740000Y-90170000D02*
X76200000Y-87630000D01*
X80010000Y-53340000D02*
X80010000Y-54610000D01*
X78740000Y-52070000D02*
X80010000Y-53340000D01*
X79629000Y-59621000D02*
X76200000Y-63050000D01*
X79629000Y-54991000D02*
X79629000Y-59621000D01*
X80010000Y-54610000D02*
X79629000Y-54991000D01*
X79502000Y-93218000D02*
X80010000Y-92710000D01*
X79502000Y-97848000D02*
X79502000Y-93218000D01*
X76200000Y-101150000D02*
X79502000Y-97848000D01*
X79629000Y-112141000D02*
X80010000Y-111760000D01*
X79629000Y-116771000D02*
X79629000Y-112141000D01*
X76200000Y-120200000D02*
X79629000Y-116771000D01*
X79502000Y-131318000D02*
X80010000Y-130810000D01*
X79502000Y-135948000D02*
X79502000Y-131318000D01*
X76200000Y-139250000D02*
X79502000Y-135948000D01*
X79629000Y-150241000D02*
X80010000Y-149860000D01*
X79629000Y-154871000D02*
X79629000Y-150241000D01*
X76200000Y-158300000D02*
X79629000Y-154871000D01*
X80010000Y-72390000D02*
X80010000Y-73660000D01*
X78740000Y-71120000D02*
X80010000Y-72390000D01*
X79874990Y-78425010D02*
X76200000Y-82100000D01*
X79874990Y-73795010D02*
X79874990Y-78425010D01*
X80010000Y-73660000D02*
X79874990Y-73795010D01*
X76200000Y-125730000D02*
X76200000Y-120200000D01*
X78740000Y-128270000D02*
X76200000Y-125730000D01*
X76200000Y-106680000D02*
X76200000Y-101150000D01*
X78740000Y-109220000D02*
X76200000Y-106680000D01*
X76200000Y-49530000D02*
X78740000Y-52070000D01*
X65405000Y-43815000D02*
X69659999Y-48069999D01*
X76200000Y-48254999D02*
X76200000Y-49530000D01*
X76015000Y-48069999D02*
X76200000Y-48254999D01*
X69659999Y-48069999D02*
X76015000Y-48069999D01*
X65405000Y-42545000D02*
X65405000Y-43815000D01*
X83185000Y-87630000D02*
X83820000Y-86995000D01*
X78610000Y-87630000D02*
X83185000Y-87630000D01*
X77975000Y-86995000D02*
X78610000Y-87630000D01*
X58925000Y-86995000D02*
X62230022Y-86995000D01*
X118999998Y-86995000D02*
X119824999Y-86169999D01*
X116075000Y-86995000D02*
X118999998Y-86995000D01*
X97025000Y-86995000D02*
X100329992Y-86995000D01*
X135125000Y-86995000D02*
X138620001Y-86995000D01*
X85090000Y-48260000D02*
X85090000Y-85725000D01*
X84449988Y-47619988D02*
X85090000Y-48260000D01*
X85090000Y-85725000D02*
X83820000Y-86995000D01*
X70479988Y-47619988D02*
X84449988Y-47619988D01*
X66675000Y-41275000D02*
X66675000Y-43815000D01*
X66675000Y-43815000D02*
X70479988Y-47619988D01*
X67945000Y-40005000D02*
X66675000Y-41275000D01*
X154175000Y-86995000D02*
X154175006Y-86995000D01*
X90170000Y-37465000D02*
X93980000Y-41275000D01*
X62865000Y-37465000D02*
X90170000Y-37465000D01*
X60325000Y-40005000D02*
X62865000Y-37465000D01*
X60325000Y-42545000D02*
X59055000Y-41275000D01*
X92259989Y-37014989D02*
X96520000Y-41275000D01*
X59055000Y-41275000D02*
X59055000Y-38829999D01*
X59055000Y-38829999D02*
X60870010Y-37014989D01*
X60870010Y-37014989D02*
X92259989Y-37014989D01*
X97025000Y-106045000D02*
X102235000Y-106045000D01*
X77975000Y-106045000D02*
X81280000Y-106045000D01*
X116075000Y-106045000D02*
X119570001Y-106045000D01*
X135125000Y-106045000D02*
X138430000Y-106045000D01*
X72119966Y-46719966D02*
X103234966Y-46719966D01*
X104140000Y-47625000D02*
X104140000Y-104140000D01*
X69215000Y-43815000D02*
X72119966Y-46719966D01*
X69215000Y-41275000D02*
X69215000Y-43815000D01*
X103234966Y-46719966D02*
X104140000Y-47625000D01*
X104140000Y-104140000D02*
X102235000Y-106045000D01*
X70485000Y-40005000D02*
X69215000Y-41275000D01*
X58925000Y-106045000D02*
X62420015Y-106045000D01*
X154175000Y-106045000D02*
X154174986Y-106045000D01*
X100584998Y-125095000D02*
X101409999Y-124269999D01*
X97025000Y-125095000D02*
X100584998Y-125095000D01*
X135125000Y-125095000D02*
X137795000Y-125095000D01*
X116075000Y-125095000D02*
X119380018Y-125095000D01*
X154175000Y-125095000D02*
X157480000Y-125095000D01*
X77975000Y-125095000D02*
X81280020Y-125095000D01*
X58925000Y-125095000D02*
X62230000Y-125095000D01*
X123190000Y-121285018D02*
X119380018Y-125095000D01*
X123190000Y-46990000D02*
X123190000Y-121285018D01*
X122019944Y-45819944D02*
X123190000Y-46990000D01*
X73759944Y-45819944D02*
X122019944Y-45819944D01*
X71755000Y-43815000D02*
X73759944Y-45819944D01*
X71755000Y-41275000D02*
X71755000Y-43815000D01*
X73025000Y-40005000D02*
X71755000Y-41275000D01*
X77975000Y-144145000D02*
X81280000Y-144145000D01*
X62230000Y-144145000D02*
X62230009Y-144145009D01*
X58925000Y-144145000D02*
X62230000Y-144145000D01*
X97025000Y-144145000D02*
X100329986Y-144145000D01*
X100329986Y-144145000D02*
X100330000Y-144145014D01*
X116075000Y-144145000D02*
X119379996Y-144145000D01*
X139064996Y-144145000D02*
X139065000Y-144145004D01*
X135255008Y-144145000D02*
X139064996Y-144145000D01*
X135255004Y-144145004D02*
X135255008Y-144145000D01*
X142240000Y-71755000D02*
X142240000Y-138022499D01*
X139065000Y-68580000D02*
X142240000Y-71755000D01*
X142240000Y-138022499D02*
X139065000Y-141197499D01*
X139065000Y-64770000D02*
X139065000Y-68580000D01*
X142240000Y-46355000D02*
X142240000Y-61595000D01*
X139065000Y-141197499D02*
X139065000Y-144145004D01*
X74295000Y-43815000D02*
X75380011Y-44900011D01*
X142240000Y-61595000D02*
X139065000Y-64770000D01*
X140785011Y-44900011D02*
X142240000Y-46355000D01*
X75380011Y-44900011D02*
X140785011Y-44900011D01*
X75565000Y-40005000D02*
X74295000Y-41275000D01*
X74295000Y-41275000D02*
X74295000Y-43815000D01*
X154175000Y-144145000D02*
X154174992Y-144145000D01*
X154940000Y-148590000D02*
X154940000Y-147320000D01*
X156210000Y-149860000D02*
X154940000Y-148590000D01*
X154940000Y-129540000D02*
X154940000Y-128270000D01*
X156210000Y-130810000D02*
X154940000Y-129540000D01*
X152400000Y-125730000D02*
X152400000Y-120200000D01*
X154940000Y-128270000D02*
X152400000Y-125730000D01*
X154940000Y-110490000D02*
X154940000Y-109220000D01*
X156210000Y-111760000D02*
X154940000Y-110490000D01*
X154940000Y-91440000D02*
X154940000Y-90170000D01*
X156210000Y-92710000D02*
X154940000Y-91440000D01*
X152400000Y-87630000D02*
X152400000Y-82100000D01*
X154940000Y-90170000D02*
X152400000Y-87630000D01*
X154940000Y-72390000D02*
X154940000Y-71120000D01*
X156210000Y-73660000D02*
X154940000Y-72390000D01*
X154940000Y-53340000D02*
X154940000Y-52070000D01*
X156210000Y-54610000D02*
X154940000Y-53340000D01*
X155829000Y-54991000D02*
X156210000Y-54610000D01*
X155829000Y-58928000D02*
X155829000Y-54991000D01*
X152400000Y-62357000D02*
X155829000Y-58928000D01*
X152400000Y-63050000D02*
X152400000Y-62357000D01*
X155702000Y-74168000D02*
X156210000Y-73660000D01*
X155702000Y-78798000D02*
X155702000Y-74168000D01*
X152400000Y-82100000D02*
X155702000Y-78798000D01*
X155829000Y-93091000D02*
X156210000Y-92710000D01*
X155829000Y-97721000D02*
X155829000Y-93091000D01*
X152400000Y-101150000D02*
X155829000Y-97721000D01*
X155829000Y-112141000D02*
X156210000Y-111760000D01*
X155829000Y-116771000D02*
X155829000Y-112141000D01*
X152400000Y-120200000D02*
X155829000Y-116771000D01*
X155829000Y-131191000D02*
X156210000Y-130810000D01*
X155829000Y-135821000D02*
X155829000Y-131191000D01*
X152400000Y-139250000D02*
X155829000Y-135821000D01*
X155829000Y-154871000D02*
X155829000Y-150241000D01*
X155829000Y-150241000D02*
X156210000Y-149860000D01*
X152400000Y-158300000D02*
X155829000Y-154871000D01*
X152400000Y-144780000D02*
X152400000Y-139250000D01*
X154940000Y-147320000D02*
X152400000Y-144780000D01*
X152400000Y-68580000D02*
X152400000Y-63050000D01*
X154940000Y-71120000D02*
X152400000Y-68580000D01*
X154940000Y-52064999D02*
X154940000Y-52070000D01*
X152400000Y-49524999D02*
X154940000Y-52064999D01*
X150496250Y-44450000D02*
X152400000Y-46353750D01*
X152400000Y-46353750D02*
X152400000Y-49524999D01*
X76200000Y-44450000D02*
X150496250Y-44450000D01*
X75565000Y-43815000D02*
X76200000Y-44450000D01*
X75565000Y-42545000D02*
X75565000Y-43815000D01*
X152309999Y-102240001D02*
X152400000Y-102150000D01*
X152309999Y-108287055D02*
X152309999Y-102240001D01*
X152400000Y-102150000D02*
X152400000Y-101150000D01*
X153242944Y-109220000D02*
X152309999Y-108287055D01*
X154940000Y-109220000D02*
X153242944Y-109220000D01*
X137160000Y-53340000D02*
X137160000Y-54610000D01*
X135890000Y-52070000D02*
X137160000Y-53340000D01*
X133350000Y-63050000D02*
X133350000Y-69215000D01*
X135255000Y-71120000D02*
X135890000Y-71120000D01*
X133350000Y-69215000D02*
X135255000Y-71120000D01*
X137160000Y-72390000D02*
X137160000Y-73660000D01*
X135890000Y-71120000D02*
X137160000Y-72390000D01*
X136779000Y-78671000D02*
X133350000Y-82100000D01*
X136779000Y-74041000D02*
X136779000Y-78671000D01*
X137160000Y-73660000D02*
X136779000Y-74041000D01*
X133350000Y-87630000D02*
X135890000Y-90170000D01*
X133350000Y-82100000D02*
X133350000Y-87630000D01*
X137160000Y-91440000D02*
X137160000Y-92710000D01*
X135890000Y-90170000D02*
X137160000Y-91440000D01*
X133350000Y-106680000D02*
X135890000Y-109220000D01*
X133350000Y-101150000D02*
X133350000Y-106680000D01*
X137089999Y-110419999D02*
X137089999Y-111689999D01*
X137089999Y-111689999D02*
X137160000Y-111760000D01*
X135890000Y-109220000D02*
X137089999Y-110419999D01*
X133350000Y-125730000D02*
X135890000Y-128270000D01*
X133350000Y-120200000D02*
X133350000Y-125730000D01*
X137089999Y-130739999D02*
X137160000Y-130810000D01*
X137089999Y-129469999D02*
X137089999Y-130739999D01*
X135890000Y-128270000D02*
X137089999Y-129469999D01*
X137160000Y-148590000D02*
X137160000Y-149860000D01*
X135890000Y-147320000D02*
X137160000Y-148590000D01*
X136779000Y-54991000D02*
X136779000Y-59621000D01*
X136779000Y-59621000D02*
X133350000Y-63050000D01*
X137160000Y-54610000D02*
X136779000Y-54991000D01*
X136652000Y-97848000D02*
X133350000Y-101150000D01*
X136652000Y-93218000D02*
X136652000Y-97848000D01*
X137160000Y-92710000D02*
X136652000Y-93218000D01*
X136779000Y-112141000D02*
X136779000Y-116771000D01*
X136779000Y-116771000D02*
X133350000Y-120200000D01*
X137160000Y-111760000D02*
X136779000Y-112141000D01*
X136779000Y-135821000D02*
X133350000Y-139250000D01*
X136779000Y-131191000D02*
X136779000Y-135821000D01*
X137160000Y-130810000D02*
X136779000Y-131191000D01*
X136779000Y-154871000D02*
X133350000Y-158300000D01*
X136779000Y-150241000D02*
X136779000Y-154871000D01*
X137160000Y-149860000D02*
X136779000Y-150241000D01*
X133350000Y-144780000D02*
X135890000Y-147320000D01*
X133350000Y-139250000D02*
X133350000Y-144780000D01*
X133350000Y-49530000D02*
X135890000Y-52070000D01*
X74647852Y-45369933D02*
X131729933Y-45369933D01*
X73025000Y-42545000D02*
X73025000Y-43747081D01*
X131729933Y-45369933D02*
X133350000Y-46990000D01*
X73025000Y-43747081D02*
X74647852Y-45369933D01*
X133350000Y-46990000D02*
X133350000Y-49530000D01*
X114300000Y-158300000D02*
X114300000Y-158115000D01*
X114300000Y-158115000D02*
X117729000Y-154686000D01*
X117729000Y-150241000D02*
X118110000Y-149860000D01*
X117729000Y-154686000D02*
X117729000Y-150241000D01*
X116840000Y-148590000D02*
X116840000Y-147320000D01*
X118110000Y-149860000D02*
X116840000Y-148590000D01*
X116840000Y-129540000D02*
X116840000Y-128270000D01*
X118110000Y-130810000D02*
X116840000Y-129540000D01*
X116840000Y-110490000D02*
X116840000Y-109220000D01*
X118110000Y-111760000D02*
X116840000Y-110490000D01*
X114300000Y-106680000D02*
X114300000Y-101150000D01*
X116840000Y-109220000D02*
X114300000Y-106680000D01*
X117075001Y-98374999D02*
X117075001Y-97935999D01*
X114300000Y-101150000D02*
X117075001Y-98374999D01*
X118110000Y-96901000D02*
X118110000Y-92710000D01*
X117075001Y-97935999D02*
X118110000Y-96901000D01*
X116840000Y-91440000D02*
X116840000Y-90170000D01*
X118110000Y-92710000D02*
X116840000Y-91440000D01*
X114300000Y-87630000D02*
X114300000Y-82100000D01*
X116840000Y-90170000D02*
X114300000Y-87630000D01*
X116840000Y-72390000D02*
X116840000Y-71120000D01*
X118110000Y-73660000D02*
X116840000Y-72390000D01*
X116840000Y-53340000D02*
X116840000Y-52070000D01*
X118110000Y-54610000D02*
X116840000Y-53340000D01*
X117729000Y-54991000D02*
X118110000Y-54610000D01*
X117729000Y-59621000D02*
X117729000Y-54991000D01*
X114300000Y-63050000D02*
X117729000Y-59621000D01*
X117729000Y-74041000D02*
X118110000Y-73660000D01*
X117729000Y-78671000D02*
X117729000Y-74041000D01*
X114300000Y-82100000D02*
X117729000Y-78671000D01*
X117729000Y-112141000D02*
X118110000Y-111760000D01*
X117729000Y-116771000D02*
X117729000Y-112141000D01*
X114300000Y-120200000D02*
X117729000Y-116771000D01*
X114300000Y-138557000D02*
X117602000Y-135255000D01*
X117602000Y-131318000D02*
X118110000Y-130810000D01*
X117602000Y-135255000D02*
X117602000Y-131318000D01*
X114300000Y-139250000D02*
X114300000Y-138557000D01*
X114300000Y-144780000D02*
X114300000Y-139250000D01*
X116840000Y-147320000D02*
X114300000Y-144780000D01*
X114300000Y-125730000D02*
X114300000Y-120200000D01*
X116840000Y-128270000D02*
X114300000Y-125730000D01*
X114300000Y-68580000D02*
X114300000Y-63050000D01*
X116840000Y-71120000D02*
X114300000Y-68580000D01*
X114300000Y-46990000D02*
X114300000Y-49530000D01*
X113579955Y-46269955D02*
X114300000Y-46990000D01*
X114300000Y-49530000D02*
X116840000Y-52070000D01*
X70485000Y-42545000D02*
X70485000Y-43815000D01*
X72939955Y-46269955D02*
X113579955Y-46269955D01*
X70485000Y-43815000D02*
X72939955Y-46269955D01*
D21*
X88630000Y-42545000D02*
X88630000Y-40029982D01*
D20*
X93475000Y-51305000D02*
X92710000Y-52070000D01*
X93475000Y-48895000D02*
X93475000Y-51305000D01*
X111760000Y-50165000D02*
X111760000Y-52070000D01*
X112655000Y-49270000D02*
X111760000Y-50165000D01*
X112655000Y-48895000D02*
X112655000Y-49270000D01*
X131705000Y-51175000D02*
X130810000Y-52070000D01*
X131705000Y-48895000D02*
X131705000Y-51175000D01*
X150625000Y-51305000D02*
X149860000Y-52070000D01*
X150625000Y-48895000D02*
X150625000Y-51305000D01*
X93475000Y-70355000D02*
X92710000Y-71120000D01*
X93475000Y-67945000D02*
X93475000Y-70355000D01*
X112525000Y-70355000D02*
X111760000Y-71120000D01*
X112525000Y-67945000D02*
X112525000Y-70355000D01*
X131575000Y-70355000D02*
X130810000Y-71120000D01*
X131575000Y-67945000D02*
X131575000Y-70355000D01*
X150625000Y-70355000D02*
X149860000Y-71120000D01*
X150625000Y-67945000D02*
X150625000Y-70355000D01*
X55375000Y-89405000D02*
X54610000Y-90170000D01*
X55375000Y-86995000D02*
X55375000Y-89405000D01*
X73660000Y-87760000D02*
X73660000Y-90170000D01*
X74425000Y-86995000D02*
X73660000Y-87760000D01*
X93475000Y-89405000D02*
X92710000Y-90170000D01*
X93475000Y-86995000D02*
X93475000Y-89405000D01*
X112525000Y-89405000D02*
X111760000Y-90170000D01*
X112525000Y-86995000D02*
X112525000Y-89405000D01*
X131575000Y-89405000D02*
X130810000Y-90170000D01*
X131575000Y-86995000D02*
X131575000Y-89405000D01*
X150625000Y-89405000D02*
X149860000Y-90170000D01*
X150625000Y-86995000D02*
X150625000Y-89405000D01*
X55375000Y-108455000D02*
X54610000Y-109220000D01*
X55375000Y-106045000D02*
X55375000Y-108455000D01*
X74425000Y-108455000D02*
X73660000Y-109220000D01*
X74425000Y-106045000D02*
X74425000Y-108455000D01*
X93475000Y-108455000D02*
X92710000Y-109220000D01*
X93475000Y-106045000D02*
X93475000Y-108455000D01*
X112525000Y-108455000D02*
X111760000Y-109220000D01*
X112525000Y-106045000D02*
X112525000Y-108455000D01*
X131575000Y-108455000D02*
X130810000Y-109220000D01*
X131575000Y-106045000D02*
X131575000Y-108455000D01*
X150625000Y-108455000D02*
X149860000Y-109220000D01*
X150625000Y-106045000D02*
X150625000Y-108455000D01*
X55375000Y-127505000D02*
X54610000Y-128270000D01*
X55375000Y-125095000D02*
X55375000Y-127505000D01*
X74425000Y-127505000D02*
X73660000Y-128270000D01*
X74425000Y-125095000D02*
X74425000Y-127505000D01*
X93475000Y-127505000D02*
X92710000Y-128270000D01*
X93475000Y-125095000D02*
X93475000Y-127505000D01*
X112525000Y-127505000D02*
X111760000Y-128270000D01*
X112525000Y-125095000D02*
X112525000Y-127505000D01*
X131575000Y-127505000D02*
X130810000Y-128270000D01*
X131575000Y-125095000D02*
X131575000Y-127505000D01*
X150625000Y-127505000D02*
X149860000Y-128270000D01*
X150625000Y-125095000D02*
X150625000Y-127505000D01*
X55375000Y-146555000D02*
X54610000Y-147320000D01*
X55375000Y-144145000D02*
X55375000Y-146555000D01*
X74425000Y-146555000D02*
X73660000Y-147320000D01*
X74425000Y-144145000D02*
X74425000Y-146555000D01*
X93475000Y-146555000D02*
X92710000Y-147320000D01*
X93475000Y-144145000D02*
X93475000Y-146555000D01*
X112525000Y-146555000D02*
X111760000Y-147320000D01*
X112525000Y-144145000D02*
X112525000Y-146555000D01*
X131445000Y-146685000D02*
X130810000Y-147320000D01*
X131445000Y-144145000D02*
X131445000Y-146685000D01*
X150625000Y-146555000D02*
X149860000Y-147320000D01*
X150625000Y-144145000D02*
X150625000Y-146555000D01*
M02*
