%TF.GenerationSoftware,KiCad,Pcbnew,(5.1.12-1-10_14)*%
%TF.CreationDate,2021-11-30T15:25:44+08:00*%
%TF.ProjectId,Pragmatic,50726167-6d61-4746-9963-2e6b69636164,0.2.1*%
%TF.SameCoordinates,Original*%
%TF.FileFunction,Paste,Top*%
%TF.FilePolarity,Positive*%
%FSLAX46Y46*%
G04 Gerber Fmt 4.6, Leading zero omitted, Abs format (unit mm)*
G04 Created by KiCad (PCBNEW (5.1.12-1-10_14)) date 2021-11-30 15:25:44*
%MOMM*%
%LPD*%
G01*
G04 APERTURE LIST*
%ADD10R,1.400000X1.000000*%
G04 APERTURE END LIST*
G36*
G01*
X94799999Y-41675000D02*
X95700001Y-41675000D01*
G75*
G02*
X95950000Y-41924999I0J-249999D01*
G01*
X95950000Y-42625001D01*
G75*
G02*
X95700001Y-42875000I-249999J0D01*
G01*
X94799999Y-42875000D01*
G75*
G02*
X94550000Y-42625001I0J249999D01*
G01*
X94550000Y-41924999D01*
G75*
G02*
X94799999Y-41675000I249999J0D01*
G01*
G37*
G36*
G01*
X94799999Y-39675000D02*
X95700001Y-39675000D01*
G75*
G02*
X95950000Y-39924999I0J-249999D01*
G01*
X95950000Y-40625001D01*
G75*
G02*
X95700001Y-40875000I-249999J0D01*
G01*
X94799999Y-40875000D01*
G75*
G02*
X94550000Y-40625001I0J249999D01*
G01*
X94550000Y-39924999D01*
G75*
G02*
X94799999Y-39675000I249999J0D01*
G01*
G37*
G36*
G01*
X101149999Y-41725000D02*
X102050001Y-41725000D01*
G75*
G02*
X102300000Y-41974999I0J-249999D01*
G01*
X102300000Y-42625001D01*
G75*
G02*
X102050001Y-42875000I-249999J0D01*
G01*
X101149999Y-42875000D01*
G75*
G02*
X100900000Y-42625001I0J249999D01*
G01*
X100900000Y-41974999D01*
G75*
G02*
X101149999Y-41725000I249999J0D01*
G01*
G37*
G36*
G01*
X101149999Y-39675000D02*
X102050001Y-39675000D01*
G75*
G02*
X102300000Y-39924999I0J-249999D01*
G01*
X102300000Y-40575001D01*
G75*
G02*
X102050001Y-40825000I-249999J0D01*
G01*
X101149999Y-40825000D01*
G75*
G02*
X100900000Y-40575001I0J249999D01*
G01*
X100900000Y-39924999D01*
G75*
G02*
X101149999Y-39675000I249999J0D01*
G01*
G37*
D10*
X150625000Y-144145000D03*
X154175000Y-144145000D03*
X131575000Y-144145000D03*
X135125000Y-144145000D03*
X112525000Y-144145000D03*
X116075000Y-144145000D03*
X93475000Y-144145000D03*
X97025000Y-144145000D03*
X74425000Y-144145000D03*
X77975000Y-144145000D03*
X55375000Y-144145000D03*
X58925000Y-144145000D03*
X150625000Y-125095000D03*
X154175000Y-125095000D03*
X131575000Y-125095000D03*
X135125000Y-125095000D03*
X112525000Y-125095000D03*
X116075000Y-125095000D03*
X93475000Y-125095000D03*
X97025000Y-125095000D03*
X74425000Y-125095000D03*
X77975000Y-125095000D03*
X55375000Y-125095000D03*
X58925000Y-125095000D03*
X150625000Y-106045000D03*
X154175000Y-106045000D03*
X131575000Y-106045000D03*
X135125000Y-106045000D03*
X112525000Y-106045000D03*
X116075000Y-106045000D03*
X93475000Y-106045000D03*
X97025000Y-106045000D03*
X74425000Y-106045000D03*
X77975000Y-106045000D03*
X55375000Y-106045000D03*
X58925000Y-106045000D03*
X150625000Y-86995000D03*
X154175000Y-86995000D03*
X131575000Y-86995000D03*
X135125000Y-86995000D03*
X112525000Y-86995000D03*
X116075000Y-86995000D03*
X93475000Y-86995000D03*
X97025000Y-86995000D03*
X74425000Y-86995000D03*
X77975000Y-86995000D03*
X55375000Y-86995000D03*
X58925000Y-86995000D03*
X150625000Y-67945000D03*
X154175000Y-67945000D03*
X131575000Y-67945000D03*
X135125000Y-67945000D03*
X112525000Y-67945000D03*
X116075000Y-67945000D03*
X93475000Y-67945000D03*
X97025000Y-67945000D03*
X150625000Y-48895000D03*
X154175000Y-48895000D03*
X131575000Y-48895000D03*
X135125000Y-48895000D03*
X112525000Y-48895000D03*
X116075000Y-48895000D03*
X93475000Y-48895000D03*
X97025000Y-48895000D03*
X74425000Y-67945000D03*
X77975000Y-67945000D03*
X55375000Y-67945000D03*
X58925000Y-67945000D03*
X74425000Y-48895000D03*
X77975000Y-48895000D03*
X55375000Y-48895000D03*
X58925000Y-48895000D03*
M02*
