%TF.GenerationSoftware,KiCad,Pcbnew,(5.1.12-1-10_14)*%
%TF.CreationDate,2021-12-06T08:53:21+08:00*%
%TF.ProjectId,Pragmatic,50726167-6d61-4746-9963-2e6b69636164,0.3*%
%TF.SameCoordinates,Original*%
%TF.FileFunction,Copper,L1,Top*%
%TF.FilePolarity,Positive*%
%FSLAX46Y46*%
G04 Gerber Fmt 4.6, Leading zero omitted, Abs format (unit mm)*
G04 Created by KiCad (PCBNEW (5.1.12-1-10_14)) date 2021-12-06 08:53:21*
%MOMM*%
%LPD*%
G01*
G04 APERTURE LIST*
%TA.AperFunction,NonConductor*%
%ADD10C,0.152400*%
%TD*%
%TA.AperFunction,NonConductor*%
%ADD11C,0.330200*%
%TD*%
%ADD12C,0.406400*%
%TA.AperFunction,ComponentPad*%
%ADD13C,2.400000*%
%TD*%
%TA.AperFunction,ComponentPad*%
%ADD14O,2.200000X1.600000*%
%TD*%
%TA.AperFunction,ComponentPad*%
%ADD15O,2.200000X1.500000*%
%TD*%
%TA.AperFunction,ComponentPad*%
%ADD16C,1.700000*%
%TD*%
%TA.AperFunction,SMDPad,CuDef*%
%ADD17R,1.400000X1.000000*%
%TD*%
%TA.AperFunction,ViaPad*%
%ADD18C,0.800000*%
%TD*%
%TA.AperFunction,Conductor*%
%ADD19C,0.250000*%
%TD*%
%TA.AperFunction,Conductor*%
%ADD20C,0.355600*%
%TD*%
G04 APERTURE END LIST*
D10*
X70129415Y-84914619D02*
X70256415Y-83898619D01*
X70643462Y-83898619D01*
X70734177Y-83947000D01*
X70776510Y-83995380D01*
X70812796Y-84092142D01*
X70794653Y-84237285D01*
X70734177Y-84334047D01*
X70679748Y-84382428D01*
X70576938Y-84430809D01*
X70189891Y-84430809D01*
X71538510Y-84866238D02*
X71435700Y-84914619D01*
X71242177Y-84914619D01*
X71151462Y-84866238D01*
X71115177Y-84769476D01*
X71163557Y-84382428D01*
X71224034Y-84285666D01*
X71326843Y-84237285D01*
X71520367Y-84237285D01*
X71611081Y-84285666D01*
X71647367Y-84382428D01*
X71635272Y-84479190D01*
X71139367Y-84575952D01*
X72161415Y-84914619D02*
X72070700Y-84866238D01*
X72028367Y-84817857D01*
X71992081Y-84721095D01*
X72028367Y-84430809D01*
X72088843Y-84334047D01*
X72143272Y-84285666D01*
X72246081Y-84237285D01*
X72391224Y-84237285D01*
X72481938Y-84285666D01*
X72524272Y-84334047D01*
X72560557Y-84430809D01*
X72524272Y-84721095D01*
X72463796Y-84817857D01*
X72409367Y-84866238D01*
X72306557Y-84914619D01*
X72161415Y-84914619D01*
X73020177Y-84237285D02*
X72893177Y-85253285D01*
X73014129Y-84285666D02*
X73116938Y-84237285D01*
X73310462Y-84237285D01*
X73401177Y-84285666D01*
X73443510Y-84334047D01*
X73479796Y-84430809D01*
X73443510Y-84721095D01*
X73383034Y-84817857D01*
X73328605Y-84866238D01*
X73225796Y-84914619D01*
X73032272Y-84914619D01*
X72941557Y-84866238D01*
X73999891Y-84914619D02*
X73909177Y-84866238D01*
X73872891Y-84769476D01*
X73981748Y-83898619D01*
X74780034Y-84866238D02*
X74677224Y-84914619D01*
X74483700Y-84914619D01*
X74392986Y-84866238D01*
X74356700Y-84769476D01*
X74405081Y-84382428D01*
X74465557Y-84285666D01*
X74568367Y-84237285D01*
X74761891Y-84237285D01*
X74852605Y-84285666D01*
X74888891Y-84382428D01*
X74876796Y-84479190D01*
X74380891Y-84575952D01*
X76019796Y-84237285D02*
X76128653Y-84914619D01*
X76382653Y-84430809D01*
X76515700Y-84914619D01*
X76793891Y-84237285D01*
X77096272Y-84914619D02*
X77223272Y-83898619D01*
X77531700Y-84914619D02*
X77598224Y-84382428D01*
X77561938Y-84285666D01*
X77471224Y-84237285D01*
X77326081Y-84237285D01*
X77223272Y-84285666D01*
X77168843Y-84334047D01*
X78160653Y-84914619D02*
X78069938Y-84866238D01*
X78027605Y-84817857D01*
X77991319Y-84721095D01*
X78027605Y-84430809D01*
X78088081Y-84334047D01*
X78142510Y-84285666D01*
X78245319Y-84237285D01*
X78390462Y-84237285D01*
X78481177Y-84285666D01*
X78523510Y-84334047D01*
X78559796Y-84430809D01*
X78523510Y-84721095D01*
X78463034Y-84817857D01*
X78408605Y-84866238D01*
X78305796Y-84914619D01*
X78160653Y-84914619D01*
X80144272Y-84914619D02*
X80210796Y-84382428D01*
X80174510Y-84285666D01*
X80083796Y-84237285D01*
X79890272Y-84237285D01*
X79787462Y-84285666D01*
X80150319Y-84866238D02*
X80047510Y-84914619D01*
X79805605Y-84914619D01*
X79714891Y-84866238D01*
X79678605Y-84769476D01*
X79690700Y-84672714D01*
X79751177Y-84575952D01*
X79853986Y-84527571D01*
X80095891Y-84527571D01*
X80198700Y-84479190D01*
X80628081Y-84914619D02*
X80712748Y-84237285D01*
X80688557Y-84430809D02*
X80749034Y-84334047D01*
X80803462Y-84285666D01*
X80906272Y-84237285D01*
X81003034Y-84237285D01*
X81650129Y-84866238D02*
X81547319Y-84914619D01*
X81353796Y-84914619D01*
X81263081Y-84866238D01*
X81226796Y-84769476D01*
X81275177Y-84382428D01*
X81335653Y-84285666D01*
X81438462Y-84237285D01*
X81631986Y-84237285D01*
X81722700Y-84285666D01*
X81758986Y-84382428D01*
X81746891Y-84479190D01*
X81250986Y-84575952D01*
X82901986Y-84914619D02*
X82986653Y-84237285D01*
X82962462Y-84430809D02*
X83022938Y-84334047D01*
X83077367Y-84285666D01*
X83180177Y-84237285D01*
X83276938Y-84237285D01*
X83924034Y-84866238D02*
X83821224Y-84914619D01*
X83627700Y-84914619D01*
X83536986Y-84866238D01*
X83500700Y-84769476D01*
X83549081Y-84382428D01*
X83609557Y-84285666D01*
X83712367Y-84237285D01*
X83905891Y-84237285D01*
X83996605Y-84285666D01*
X84032891Y-84382428D01*
X84020796Y-84479190D01*
X83524891Y-84575952D01*
X84837224Y-84914619D02*
X84903748Y-84382428D01*
X84867462Y-84285666D01*
X84776748Y-84237285D01*
X84583224Y-84237285D01*
X84480415Y-84285666D01*
X84843272Y-84866238D02*
X84740462Y-84914619D01*
X84498557Y-84914619D01*
X84407843Y-84866238D01*
X84371557Y-84769476D01*
X84383653Y-84672714D01*
X84444129Y-84575952D01*
X84546938Y-84527571D01*
X84788843Y-84527571D01*
X84891653Y-84479190D01*
X85466177Y-84914619D02*
X85375462Y-84866238D01*
X85339177Y-84769476D01*
X85448034Y-83898619D01*
X85998367Y-84914619D02*
X85907653Y-84866238D01*
X85871367Y-84769476D01*
X85980224Y-83898619D01*
X86373319Y-84237285D02*
X86530557Y-84914619D01*
X86857129Y-84237285D02*
X86530557Y-84914619D01*
X86403557Y-85156523D01*
X86349129Y-85204904D01*
X86246319Y-85253285D01*
X87891272Y-84866238D02*
X87981986Y-84914619D01*
X88175510Y-84914619D01*
X88278319Y-84866238D01*
X88338796Y-84769476D01*
X88344843Y-84721095D01*
X88308557Y-84624333D01*
X88217843Y-84575952D01*
X88072700Y-84575952D01*
X87981986Y-84527571D01*
X87945700Y-84430809D01*
X87951748Y-84382428D01*
X88012224Y-84285666D01*
X88115034Y-84237285D01*
X88260177Y-84237285D01*
X88350891Y-84285666D01*
X89149177Y-84866238D02*
X89046367Y-84914619D01*
X88852843Y-84914619D01*
X88762129Y-84866238D01*
X88725843Y-84769476D01*
X88774224Y-84382428D01*
X88834700Y-84285666D01*
X88937510Y-84237285D01*
X89131034Y-84237285D01*
X89221748Y-84285666D01*
X89258034Y-84382428D01*
X89245938Y-84479190D01*
X88750034Y-84575952D01*
X89626938Y-84914619D02*
X89711605Y-84237285D01*
X89687415Y-84430809D02*
X89747891Y-84334047D01*
X89802319Y-84285666D01*
X89905129Y-84237285D01*
X90001891Y-84237285D01*
X90255891Y-84914619D02*
X90340557Y-84237285D01*
X90382891Y-83898619D02*
X90328462Y-83947000D01*
X90370796Y-83995380D01*
X90425224Y-83947000D01*
X90382891Y-83898619D01*
X90370796Y-83995380D01*
X90884843Y-84914619D02*
X90794129Y-84866238D01*
X90751796Y-84817857D01*
X90715510Y-84721095D01*
X90751796Y-84430809D01*
X90812272Y-84334047D01*
X90866700Y-84285666D01*
X90969510Y-84237285D01*
X91114653Y-84237285D01*
X91205367Y-84285666D01*
X91247700Y-84334047D01*
X91283986Y-84430809D01*
X91247700Y-84721095D01*
X91187224Y-84817857D01*
X91132796Y-84866238D01*
X91029986Y-84914619D01*
X90884843Y-84914619D01*
X92179034Y-84237285D02*
X92094367Y-84914619D01*
X91743605Y-84237285D02*
X91677081Y-84769476D01*
X91713367Y-84866238D01*
X91804081Y-84914619D01*
X91949224Y-84914619D01*
X92052034Y-84866238D01*
X92106462Y-84817857D01*
X92535843Y-84866238D02*
X92626557Y-84914619D01*
X92820081Y-84914619D01*
X92922891Y-84866238D01*
X92983367Y-84769476D01*
X92989415Y-84721095D01*
X92953129Y-84624333D01*
X92862415Y-84575952D01*
X92717272Y-84575952D01*
X92626557Y-84527571D01*
X92590272Y-84430809D01*
X92596319Y-84382428D01*
X92656796Y-84285666D01*
X92759605Y-84237285D01*
X92904748Y-84237285D01*
X92995462Y-84285666D01*
X94610177Y-84914619D02*
X94676700Y-84382428D01*
X94640415Y-84285666D01*
X94549700Y-84237285D01*
X94356177Y-84237285D01*
X94253367Y-84285666D01*
X94616224Y-84866238D02*
X94513415Y-84914619D01*
X94271510Y-84914619D01*
X94180796Y-84866238D01*
X94144510Y-84769476D01*
X94156605Y-84672714D01*
X94217081Y-84575952D01*
X94319891Y-84527571D01*
X94561796Y-84527571D01*
X94664605Y-84479190D01*
X95093986Y-84914619D02*
X95220986Y-83898619D01*
X95172605Y-84285666D02*
X95275415Y-84237285D01*
X95468938Y-84237285D01*
X95559653Y-84285666D01*
X95601986Y-84334047D01*
X95638272Y-84430809D01*
X95601986Y-84721095D01*
X95541510Y-84817857D01*
X95487081Y-84866238D01*
X95384272Y-84914619D01*
X95190748Y-84914619D01*
X95100034Y-84866238D01*
X96158367Y-84914619D02*
X96067653Y-84866238D01*
X96025319Y-84817857D01*
X95989034Y-84721095D01*
X96025319Y-84430809D01*
X96085796Y-84334047D01*
X96140224Y-84285666D01*
X96243034Y-84237285D01*
X96388177Y-84237285D01*
X96478891Y-84285666D01*
X96521224Y-84334047D01*
X96557510Y-84430809D01*
X96521224Y-84721095D01*
X96460748Y-84817857D01*
X96406319Y-84866238D01*
X96303510Y-84914619D01*
X96158367Y-84914619D01*
X97452557Y-84237285D02*
X97367891Y-84914619D01*
X97017129Y-84237285D02*
X96950605Y-84769476D01*
X96986891Y-84866238D01*
X97077605Y-84914619D01*
X97222748Y-84914619D01*
X97325557Y-84866238D01*
X97379986Y-84817857D01*
X97791224Y-84237285D02*
X98178272Y-84237285D01*
X97978700Y-83898619D02*
X97869843Y-84769476D01*
X97906129Y-84866238D01*
X97996843Y-84914619D01*
X98093605Y-84914619D01*
X99164034Y-84866238D02*
X99254748Y-84914619D01*
X99448272Y-84914619D01*
X99551081Y-84866238D01*
X99611557Y-84769476D01*
X99617605Y-84721095D01*
X99581319Y-84624333D01*
X99490605Y-84575952D01*
X99345462Y-84575952D01*
X99254748Y-84527571D01*
X99218462Y-84430809D01*
X99224510Y-84382428D01*
X99284986Y-84285666D01*
X99387796Y-84237285D01*
X99532938Y-84237285D01*
X99623653Y-84285666D01*
X100173986Y-84914619D02*
X100083272Y-84866238D01*
X100040938Y-84817857D01*
X100004653Y-84721095D01*
X100040938Y-84430809D01*
X100101415Y-84334047D01*
X100155843Y-84285666D01*
X100258653Y-84237285D01*
X100403796Y-84237285D01*
X100494510Y-84285666D01*
X100536843Y-84334047D01*
X100573129Y-84430809D01*
X100536843Y-84721095D01*
X100476367Y-84817857D01*
X100421938Y-84866238D01*
X100319129Y-84914619D01*
X100173986Y-84914619D01*
X100887605Y-84237285D02*
X101274653Y-84237285D01*
X100948081Y-84914619D02*
X101056938Y-84043761D01*
X101117415Y-83947000D01*
X101220224Y-83898619D01*
X101316986Y-83898619D01*
X101468177Y-84237285D02*
X101855224Y-84237285D01*
X101655653Y-83898619D02*
X101546796Y-84769476D01*
X101583081Y-84866238D01*
X101673796Y-84914619D01*
X101770557Y-84914619D01*
X102097129Y-84237285D02*
X102205986Y-84914619D01*
X102459986Y-84430809D01*
X102593034Y-84914619D01*
X102871224Y-84237285D01*
X103609034Y-84914619D02*
X103675557Y-84382428D01*
X103639272Y-84285666D01*
X103548557Y-84237285D01*
X103355034Y-84237285D01*
X103252224Y-84285666D01*
X103615081Y-84866238D02*
X103512272Y-84914619D01*
X103270367Y-84914619D01*
X103179653Y-84866238D01*
X103143367Y-84769476D01*
X103155462Y-84672714D01*
X103215938Y-84575952D01*
X103318748Y-84527571D01*
X103560653Y-84527571D01*
X103663462Y-84479190D01*
X104092843Y-84914619D02*
X104177510Y-84237285D01*
X104153319Y-84430809D02*
X104213796Y-84334047D01*
X104268224Y-84285666D01*
X104371034Y-84237285D01*
X104467796Y-84237285D01*
X105114891Y-84866238D02*
X105012081Y-84914619D01*
X104818557Y-84914619D01*
X104727843Y-84866238D01*
X104691557Y-84769476D01*
X104739938Y-84382428D01*
X104800415Y-84285666D01*
X104903224Y-84237285D01*
X105096748Y-84237285D01*
X105187462Y-84285666D01*
X105223748Y-84382428D01*
X105211653Y-84479190D01*
X104715748Y-84575952D01*
X106324415Y-84866238D02*
X106415129Y-84914619D01*
X106608653Y-84914619D01*
X106711462Y-84866238D01*
X106771938Y-84769476D01*
X106777986Y-84721095D01*
X106741700Y-84624333D01*
X106650986Y-84575952D01*
X106505843Y-84575952D01*
X106415129Y-84527571D01*
X106378843Y-84430809D01*
X106384891Y-84382428D01*
X106445367Y-84285666D01*
X106548177Y-84237285D01*
X106693319Y-84237285D01*
X106784034Y-84285666D01*
X107189224Y-84914619D02*
X107316224Y-83898619D01*
X107624653Y-84914619D02*
X107691177Y-84382428D01*
X107654891Y-84285666D01*
X107564177Y-84237285D01*
X107419034Y-84237285D01*
X107316224Y-84285666D01*
X107261796Y-84334047D01*
X108253605Y-84914619D02*
X108162891Y-84866238D01*
X108120557Y-84817857D01*
X108084272Y-84721095D01*
X108120557Y-84430809D01*
X108181034Y-84334047D01*
X108235462Y-84285666D01*
X108338272Y-84237285D01*
X108483415Y-84237285D01*
X108574129Y-84285666D01*
X108616462Y-84334047D01*
X108652748Y-84430809D01*
X108616462Y-84721095D01*
X108555986Y-84817857D01*
X108501557Y-84866238D01*
X108398748Y-84914619D01*
X108253605Y-84914619D01*
X109547796Y-84237285D02*
X109463129Y-84914619D01*
X109112367Y-84237285D02*
X109045843Y-84769476D01*
X109082129Y-84866238D01*
X109172843Y-84914619D01*
X109317986Y-84914619D01*
X109420796Y-84866238D01*
X109475224Y-84817857D01*
X110092081Y-84914619D02*
X110001367Y-84866238D01*
X109965081Y-84769476D01*
X110073938Y-83898619D01*
X110914557Y-84914619D02*
X111041557Y-83898619D01*
X110920605Y-84866238D02*
X110817796Y-84914619D01*
X110624272Y-84914619D01*
X110533557Y-84866238D01*
X110491224Y-84817857D01*
X110454938Y-84721095D01*
X110491224Y-84430809D01*
X110551700Y-84334047D01*
X110606129Y-84285666D01*
X110708938Y-84237285D01*
X110902462Y-84237285D01*
X110993177Y-84285666D01*
X112172462Y-84914619D02*
X112257129Y-84237285D01*
X112245034Y-84334047D02*
X112299462Y-84285666D01*
X112402272Y-84237285D01*
X112547415Y-84237285D01*
X112638129Y-84285666D01*
X112674415Y-84382428D01*
X112607891Y-84914619D01*
X112674415Y-84382428D02*
X112734891Y-84285666D01*
X112837700Y-84237285D01*
X112982843Y-84237285D01*
X113073557Y-84285666D01*
X113109843Y-84382428D01*
X113043319Y-84914619D01*
X113962557Y-84914619D02*
X114029081Y-84382428D01*
X113992796Y-84285666D01*
X113902081Y-84237285D01*
X113708557Y-84237285D01*
X113605748Y-84285666D01*
X113968605Y-84866238D02*
X113865796Y-84914619D01*
X113623891Y-84914619D01*
X113533177Y-84866238D01*
X113496891Y-84769476D01*
X113508986Y-84672714D01*
X113569462Y-84575952D01*
X113672272Y-84527571D01*
X113914177Y-84527571D01*
X114016986Y-84479190D01*
X114446367Y-84914619D02*
X114573367Y-83898619D01*
X114591510Y-84527571D02*
X114833415Y-84914619D01*
X114918081Y-84237285D02*
X114482653Y-84624333D01*
X115661938Y-84866238D02*
X115559129Y-84914619D01*
X115365605Y-84914619D01*
X115274891Y-84866238D01*
X115238605Y-84769476D01*
X115286986Y-84382428D01*
X115347462Y-84285666D01*
X115450272Y-84237285D01*
X115643796Y-84237285D01*
X115734510Y-84285666D01*
X115770796Y-84382428D01*
X115758700Y-84479190D01*
X115262796Y-84575952D01*
X116853319Y-84237285D02*
X117240367Y-84237285D01*
X117040796Y-83898619D02*
X116931938Y-84769476D01*
X116968224Y-84866238D01*
X117058938Y-84914619D01*
X117155700Y-84914619D01*
X117494367Y-84914619D02*
X117621367Y-83898619D01*
X117929796Y-84914619D02*
X117996319Y-84382428D01*
X117960034Y-84285666D01*
X117869319Y-84237285D01*
X117724177Y-84237285D01*
X117621367Y-84285666D01*
X117566938Y-84334047D01*
X118806700Y-84866238D02*
X118703891Y-84914619D01*
X118510367Y-84914619D01*
X118419653Y-84866238D01*
X118383367Y-84769476D01*
X118431748Y-84382428D01*
X118492224Y-84285666D01*
X118595034Y-84237285D01*
X118788557Y-84237285D01*
X118879272Y-84285666D01*
X118915557Y-84382428D01*
X118903462Y-84479190D01*
X118407557Y-84575952D01*
X119284462Y-84914619D02*
X119369129Y-84237285D01*
X119411462Y-83898619D02*
X119357034Y-83947000D01*
X119399367Y-83995380D01*
X119453796Y-83947000D01*
X119411462Y-83898619D01*
X119399367Y-83995380D01*
X119768272Y-84914619D02*
X119852938Y-84237285D01*
X119828748Y-84430809D02*
X119889224Y-84334047D01*
X119943653Y-84285666D01*
X120046462Y-84237285D01*
X120143224Y-84237285D01*
X121316462Y-84914619D02*
X121225748Y-84866238D01*
X121183415Y-84817857D01*
X121147129Y-84721095D01*
X121183415Y-84430809D01*
X121243891Y-84334047D01*
X121298319Y-84285666D01*
X121401129Y-84237285D01*
X121546272Y-84237285D01*
X121636986Y-84285666D01*
X121679319Y-84334047D01*
X121715605Y-84430809D01*
X121679319Y-84721095D01*
X121618843Y-84817857D01*
X121564415Y-84866238D01*
X121461605Y-84914619D01*
X121316462Y-84914619D01*
X122078462Y-84237285D02*
X122187319Y-84914619D01*
X122441319Y-84430809D01*
X122574367Y-84914619D01*
X122852557Y-84237285D01*
X123239605Y-84237285D02*
X123154938Y-84914619D01*
X123227510Y-84334047D02*
X123281938Y-84285666D01*
X123384748Y-84237285D01*
X123529891Y-84237285D01*
X123620605Y-84285666D01*
X123656891Y-84382428D01*
X123590367Y-84914619D01*
X124848272Y-84914619D02*
X124975272Y-83898619D01*
X125283700Y-84914619D02*
X125350224Y-84382428D01*
X125313938Y-84285666D01*
X125223224Y-84237285D01*
X125078081Y-84237285D01*
X124975272Y-84285666D01*
X124920843Y-84334047D01*
X126202938Y-84914619D02*
X126269462Y-84382428D01*
X126233177Y-84285666D01*
X126142462Y-84237285D01*
X125948938Y-84237285D01*
X125846129Y-84285666D01*
X126208986Y-84866238D02*
X126106177Y-84914619D01*
X125864272Y-84914619D01*
X125773557Y-84866238D01*
X125737272Y-84769476D01*
X125749367Y-84672714D01*
X125809843Y-84575952D01*
X125912653Y-84527571D01*
X126154557Y-84527571D01*
X126257367Y-84479190D01*
X126686748Y-84914619D02*
X126771415Y-84237285D01*
X126747224Y-84430809D02*
X126807700Y-84334047D01*
X126862129Y-84285666D01*
X126964938Y-84237285D01*
X127061700Y-84237285D01*
X127751129Y-84914619D02*
X127878129Y-83898619D01*
X127757177Y-84866238D02*
X127654367Y-84914619D01*
X127460843Y-84914619D01*
X127370129Y-84866238D01*
X127327796Y-84817857D01*
X127291510Y-84721095D01*
X127327796Y-84430809D01*
X127388272Y-84334047D01*
X127442700Y-84285666D01*
X127545510Y-84237285D01*
X127739034Y-84237285D01*
X127829748Y-84285666D01*
X128222843Y-84237285D02*
X128331700Y-84914619D01*
X128585700Y-84430809D01*
X128718748Y-84914619D01*
X128996938Y-84237285D01*
X129734748Y-84914619D02*
X129801272Y-84382428D01*
X129764986Y-84285666D01*
X129674272Y-84237285D01*
X129480748Y-84237285D01*
X129377938Y-84285666D01*
X129740796Y-84866238D02*
X129637986Y-84914619D01*
X129396081Y-84914619D01*
X129305367Y-84866238D01*
X129269081Y-84769476D01*
X129281177Y-84672714D01*
X129341653Y-84575952D01*
X129444462Y-84527571D01*
X129686367Y-84527571D01*
X129789177Y-84479190D01*
X130218557Y-84914619D02*
X130303224Y-84237285D01*
X130279034Y-84430809D02*
X130339510Y-84334047D01*
X130393938Y-84285666D01*
X130496748Y-84237285D01*
X130593510Y-84237285D01*
X131240605Y-84866238D02*
X131137796Y-84914619D01*
X130944272Y-84914619D01*
X130853557Y-84866238D01*
X130817272Y-84769476D01*
X130865653Y-84382428D01*
X130926129Y-84285666D01*
X131028938Y-84237285D01*
X131222462Y-84237285D01*
X131313177Y-84285666D01*
X131349462Y-84382428D01*
X131337367Y-84479190D01*
X130841462Y-84575952D01*
X131730462Y-84817857D02*
X131772796Y-84866238D01*
X131718367Y-84914619D01*
X131676034Y-84866238D01*
X131730462Y-84817857D01*
X131718367Y-84914619D01*
X132964177Y-84624333D02*
X133447986Y-84624333D01*
X132831129Y-84914619D02*
X133296796Y-83898619D01*
X133508462Y-84914619D01*
X133992272Y-84914619D02*
X133901557Y-84866238D01*
X133865272Y-84769476D01*
X133974129Y-83898619D01*
X134814748Y-84914619D02*
X134881272Y-84382428D01*
X134844986Y-84285666D01*
X134754272Y-84237285D01*
X134560748Y-84237285D01*
X134457938Y-84285666D01*
X134820796Y-84866238D02*
X134717986Y-84914619D01*
X134476081Y-84914619D01*
X134385367Y-84866238D01*
X134349081Y-84769476D01*
X134361177Y-84672714D01*
X134421653Y-84575952D01*
X134524462Y-84527571D01*
X134766367Y-84527571D01*
X134869177Y-84479190D01*
X135383224Y-84237285D02*
X135298557Y-84914619D01*
X135371129Y-84334047D02*
X135425557Y-84285666D01*
X135528367Y-84237285D01*
X135673510Y-84237285D01*
X135764224Y-84285666D01*
X135800510Y-84382428D01*
X135733986Y-84914619D01*
X136991891Y-84914619D02*
X137118891Y-83898619D01*
X137572462Y-84914619D02*
X137209605Y-84334047D01*
X137699462Y-83898619D02*
X137046319Y-84479190D01*
X138443319Y-84914619D02*
X138509843Y-84382428D01*
X138473557Y-84285666D01*
X138382843Y-84237285D01*
X138189319Y-84237285D01*
X138086510Y-84285666D01*
X138449367Y-84866238D02*
X138346557Y-84914619D01*
X138104653Y-84914619D01*
X138013938Y-84866238D01*
X137977653Y-84769476D01*
X137989748Y-84672714D01*
X138050224Y-84575952D01*
X138153034Y-84527571D01*
X138394938Y-84527571D01*
X138497748Y-84479190D01*
X138915034Y-84237285D02*
X139072272Y-84914619D01*
X139398843Y-84237285D02*
X139072272Y-84914619D01*
X138945272Y-85156523D01*
X138890843Y-85204904D01*
X138788034Y-85253285D01*
D11*
X56046914Y-42447028D02*
X54813200Y-42447028D01*
X54813200Y-39856228D01*
D12*
X123898342Y-42447028D02*
X124222192Y-39856228D01*
X125209163Y-39856228D01*
X125440485Y-39979600D01*
X125548435Y-40102971D01*
X125640963Y-40349714D01*
X125594699Y-40719828D01*
X125440485Y-40966571D01*
X125301692Y-41089942D01*
X125039528Y-41213314D01*
X124052556Y-41213314D01*
X126489142Y-42447028D02*
X126705042Y-40719828D01*
X126643356Y-41213314D02*
X126797571Y-40966571D01*
X126936363Y-40843200D01*
X127198528Y-40719828D01*
X127445271Y-40719828D01*
X129203313Y-42447028D02*
X129372949Y-41089942D01*
X129280421Y-40843200D01*
X129049099Y-40719828D01*
X128555613Y-40719828D01*
X128293449Y-40843200D01*
X129218735Y-42323657D02*
X128956571Y-42447028D01*
X128339713Y-42447028D01*
X128108392Y-42323657D01*
X128015863Y-42076914D01*
X128046706Y-41830171D01*
X128200921Y-41583428D01*
X128463085Y-41460057D01*
X129079942Y-41460057D01*
X129342106Y-41336685D01*
X131763271Y-40719828D02*
X131501106Y-42817142D01*
X131346892Y-43063885D01*
X131208099Y-43187257D01*
X130945935Y-43310628D01*
X130575821Y-43310628D01*
X130344499Y-43187257D01*
X131562792Y-42323657D02*
X131300628Y-42447028D01*
X130807142Y-42447028D01*
X130575821Y-42323657D01*
X130467871Y-42200285D01*
X130375342Y-41953542D01*
X130467871Y-41213314D01*
X130622085Y-40966571D01*
X130760878Y-40843200D01*
X131023042Y-40719828D01*
X131516528Y-40719828D01*
X131747849Y-40843200D01*
X132781085Y-42447028D02*
X132996985Y-40719828D01*
X132966142Y-40966571D02*
X133104935Y-40843200D01*
X133367099Y-40719828D01*
X133737213Y-40719828D01*
X133968535Y-40843200D01*
X134061063Y-41089942D01*
X133891428Y-42447028D01*
X134061063Y-41089942D02*
X134215278Y-40843200D01*
X134477442Y-40719828D01*
X134847556Y-40719828D01*
X135078878Y-40843200D01*
X135171406Y-41089942D01*
X135001771Y-42447028D01*
X137345828Y-42447028D02*
X137515463Y-41089942D01*
X137422935Y-40843200D01*
X137191613Y-40719828D01*
X136698128Y-40719828D01*
X136435963Y-40843200D01*
X137361249Y-42323657D02*
X137099085Y-42447028D01*
X136482228Y-42447028D01*
X136250906Y-42323657D01*
X136158378Y-42076914D01*
X136189221Y-41830171D01*
X136343435Y-41583428D01*
X136605599Y-41460057D01*
X137222456Y-41460057D01*
X137484621Y-41336685D01*
X138425328Y-40719828D02*
X139412299Y-40719828D01*
X138903392Y-39856228D02*
X138625806Y-42076914D01*
X138718335Y-42323657D01*
X138949656Y-42447028D01*
X139196399Y-42447028D01*
X140059999Y-42447028D02*
X140275899Y-40719828D01*
X140383849Y-39856228D02*
X140245056Y-39979600D01*
X140353006Y-40102971D01*
X140491799Y-39979600D01*
X140383849Y-39856228D01*
X140353006Y-40102971D01*
X142419478Y-42323657D02*
X142157313Y-42447028D01*
X141663828Y-42447028D01*
X141432506Y-42323657D01*
X141324556Y-42200285D01*
X141232028Y-41953542D01*
X141324556Y-41213314D01*
X141478771Y-40966571D01*
X141617563Y-40843200D01*
X141879728Y-40719828D01*
X142373213Y-40719828D01*
X142604535Y-40843200D01*
D13*
X156210000Y-130810000D03*
D14*
X157500000Y-137250000D03*
D13*
X149860000Y-128270000D03*
X148590000Y-130810000D03*
D14*
X147300000Y-137250000D03*
D13*
X154940000Y-128270000D03*
X154940000Y-128270000D03*
D14*
X147300000Y-137250000D03*
D15*
X152400000Y-139250000D03*
D13*
X148590000Y-130810000D03*
X156210000Y-111760000D03*
D14*
X157500000Y-118200000D03*
D13*
X149860000Y-109220000D03*
X148590000Y-111760000D03*
D14*
X147300000Y-118200000D03*
D13*
X154940000Y-109220000D03*
X154940000Y-109220000D03*
D14*
X147300000Y-118200000D03*
D15*
X152400000Y-120200000D03*
D13*
X148590000Y-111760000D03*
D16*
X83820000Y-40005000D03*
X81280000Y-40005000D03*
X78740000Y-40005000D03*
X76200000Y-40005000D03*
X73660000Y-40005000D03*
X71120000Y-40005000D03*
X68580000Y-40005000D03*
X83820000Y-42545000D03*
X81280000Y-42545000D03*
X78740000Y-42545000D03*
X76200000Y-42545000D03*
X73660000Y-42545000D03*
X71120000Y-42545000D03*
%TA.AperFunction,ComponentPad*%
G36*
G01*
X69180000Y-43395000D02*
X67980000Y-43395000D01*
G75*
G02*
X67730000Y-43145000I0J250000D01*
G01*
X67730000Y-41945000D01*
G75*
G02*
X67980000Y-41695000I250000J0D01*
G01*
X69180000Y-41695000D01*
G75*
G02*
X69430000Y-41945000I0J-250000D01*
G01*
X69430000Y-43145000D01*
G75*
G02*
X69180000Y-43395000I-250000J0D01*
G01*
G37*
%TD.AperFunction*%
D13*
X60960000Y-54610000D03*
D14*
X62250000Y-61050000D03*
D13*
X54610000Y-52070000D03*
X53340000Y-54610000D03*
D14*
X52050000Y-61050000D03*
D13*
X59690000Y-52070000D03*
X59690000Y-52070000D03*
D14*
X52050000Y-61050000D03*
D15*
X57150000Y-63050000D03*
D13*
X53340000Y-54610000D03*
%TA.AperFunction,SMDPad,CuDef*%
G36*
G01*
X94799999Y-41675000D02*
X95700001Y-41675000D01*
G75*
G02*
X95950000Y-41924999I0J-249999D01*
G01*
X95950000Y-42625001D01*
G75*
G02*
X95700001Y-42875000I-249999J0D01*
G01*
X94799999Y-42875000D01*
G75*
G02*
X94550000Y-42625001I0J249999D01*
G01*
X94550000Y-41924999D01*
G75*
G02*
X94799999Y-41675000I249999J0D01*
G01*
G37*
%TD.AperFunction*%
%TA.AperFunction,SMDPad,CuDef*%
G36*
G01*
X94799999Y-39675000D02*
X95700001Y-39675000D01*
G75*
G02*
X95950000Y-39924999I0J-249999D01*
G01*
X95950000Y-40625001D01*
G75*
G02*
X95700001Y-40875000I-249999J0D01*
G01*
X94799999Y-40875000D01*
G75*
G02*
X94550000Y-40625001I0J249999D01*
G01*
X94550000Y-39924999D01*
G75*
G02*
X94799999Y-39675000I249999J0D01*
G01*
G37*
%TD.AperFunction*%
%TA.AperFunction,SMDPad,CuDef*%
G36*
G01*
X101149999Y-41725000D02*
X102050001Y-41725000D01*
G75*
G02*
X102300000Y-41974999I0J-249999D01*
G01*
X102300000Y-42625001D01*
G75*
G02*
X102050001Y-42875000I-249999J0D01*
G01*
X101149999Y-42875000D01*
G75*
G02*
X100900000Y-42625001I0J249999D01*
G01*
X100900000Y-41974999D01*
G75*
G02*
X101149999Y-41725000I249999J0D01*
G01*
G37*
%TD.AperFunction*%
%TA.AperFunction,SMDPad,CuDef*%
G36*
G01*
X101149999Y-39675000D02*
X102050001Y-39675000D01*
G75*
G02*
X102300000Y-39924999I0J-249999D01*
G01*
X102300000Y-40575001D01*
G75*
G02*
X102050001Y-40825000I-249999J0D01*
G01*
X101149999Y-40825000D01*
G75*
G02*
X100900000Y-40575001I0J249999D01*
G01*
X100900000Y-39924999D01*
G75*
G02*
X101149999Y-39675000I249999J0D01*
G01*
G37*
%TD.AperFunction*%
X156210000Y-149860000D03*
D14*
X157500000Y-156300000D03*
D13*
X149860000Y-147320000D03*
X148590000Y-149860000D03*
D14*
X147300000Y-156300000D03*
D13*
X154940000Y-147320000D03*
X154940000Y-147320000D03*
D14*
X147300000Y-156300000D03*
D15*
X152400000Y-158300000D03*
D13*
X148590000Y-149860000D03*
X137160000Y-149860000D03*
D14*
X138450000Y-156300000D03*
D13*
X130810000Y-147320000D03*
X129540000Y-149860000D03*
D14*
X128250000Y-156300000D03*
D13*
X135890000Y-147320000D03*
X135890000Y-147320000D03*
D14*
X128250000Y-156300000D03*
D15*
X133350000Y-158300000D03*
D13*
X129540000Y-149860000D03*
X118110000Y-149860000D03*
D14*
X119400000Y-156300000D03*
D13*
X111760000Y-147320000D03*
X110490000Y-149860000D03*
D14*
X109200000Y-156300000D03*
D13*
X116840000Y-147320000D03*
X116840000Y-147320000D03*
D14*
X109200000Y-156300000D03*
D15*
X114300000Y-158300000D03*
D13*
X110490000Y-149860000D03*
X99060000Y-149860000D03*
D14*
X100350000Y-156300000D03*
D13*
X92710000Y-147320000D03*
X91440000Y-149860000D03*
D14*
X90150000Y-156300000D03*
D13*
X97790000Y-147320000D03*
X97790000Y-147320000D03*
D14*
X90150000Y-156300000D03*
D15*
X95250000Y-158300000D03*
D13*
X91440000Y-149860000D03*
X80010000Y-149860000D03*
D14*
X81300000Y-156300000D03*
D13*
X73660000Y-147320000D03*
X72390000Y-149860000D03*
D14*
X71100000Y-156300000D03*
D13*
X78740000Y-147320000D03*
X78740000Y-147320000D03*
D14*
X71100000Y-156300000D03*
D15*
X76200000Y-158300000D03*
D13*
X72390000Y-149860000D03*
X60960000Y-149860000D03*
D14*
X62250000Y-156300000D03*
D13*
X54610000Y-147320000D03*
X53340000Y-149860000D03*
D14*
X52050000Y-156300000D03*
D13*
X59690000Y-147320000D03*
X59690000Y-147320000D03*
D14*
X52050000Y-156300000D03*
D15*
X57150000Y-158300000D03*
D13*
X53340000Y-149860000D03*
X137160000Y-130810000D03*
D14*
X138450000Y-137250000D03*
D13*
X130810000Y-128270000D03*
X129540000Y-130810000D03*
D14*
X128250000Y-137250000D03*
D13*
X135890000Y-128270000D03*
X135890000Y-128270000D03*
D14*
X128250000Y-137250000D03*
D15*
X133350000Y-139250000D03*
D13*
X129540000Y-130810000D03*
X118110000Y-130810000D03*
D14*
X119400000Y-137250000D03*
D13*
X111760000Y-128270000D03*
X110490000Y-130810000D03*
D14*
X109200000Y-137250000D03*
D13*
X116840000Y-128270000D03*
X116840000Y-128270000D03*
D14*
X109200000Y-137250000D03*
D15*
X114300000Y-139250000D03*
D13*
X110490000Y-130810000D03*
X99060000Y-130810000D03*
D14*
X100350000Y-137250000D03*
D13*
X92710000Y-128270000D03*
X91440000Y-130810000D03*
D14*
X90150000Y-137250000D03*
D13*
X97790000Y-128270000D03*
X97790000Y-128270000D03*
D14*
X90150000Y-137250000D03*
D15*
X95250000Y-139250000D03*
D13*
X91440000Y-130810000D03*
X80010000Y-130810000D03*
D14*
X81300000Y-137250000D03*
D13*
X73660000Y-128270000D03*
X72390000Y-130810000D03*
D14*
X71100000Y-137250000D03*
D13*
X78740000Y-128270000D03*
X78740000Y-128270000D03*
D14*
X71100000Y-137250000D03*
D15*
X76200000Y-139250000D03*
D13*
X72390000Y-130810000D03*
X60960000Y-130810000D03*
D14*
X62250000Y-137250000D03*
D13*
X54610000Y-128270000D03*
X53340000Y-130810000D03*
D14*
X52050000Y-137250000D03*
D13*
X59690000Y-128270000D03*
X59690000Y-128270000D03*
D14*
X52050000Y-137250000D03*
D15*
X57150000Y-139250000D03*
D13*
X53340000Y-130810000D03*
X137160000Y-111760000D03*
D14*
X138450000Y-118200000D03*
D13*
X130810000Y-109220000D03*
X129540000Y-111760000D03*
D14*
X128250000Y-118200000D03*
D13*
X135890000Y-109220000D03*
X135890000Y-109220000D03*
D14*
X128250000Y-118200000D03*
D15*
X133350000Y-120200000D03*
D13*
X129540000Y-111760000D03*
X118110000Y-111760000D03*
D14*
X119400000Y-118200000D03*
D13*
X111760000Y-109220000D03*
X110490000Y-111760000D03*
D14*
X109200000Y-118200000D03*
D13*
X116840000Y-109220000D03*
X116840000Y-109220000D03*
D14*
X109200000Y-118200000D03*
D15*
X114300000Y-120200000D03*
D13*
X110490000Y-111760000D03*
X99060000Y-111760000D03*
D14*
X100350000Y-118200000D03*
D13*
X92710000Y-109220000D03*
X91440000Y-111760000D03*
D14*
X90150000Y-118200000D03*
D13*
X97790000Y-109220000D03*
X97790000Y-109220000D03*
D14*
X90150000Y-118200000D03*
D15*
X95250000Y-120200000D03*
D13*
X91440000Y-111760000D03*
X80010000Y-111760000D03*
D14*
X81300000Y-118200000D03*
D13*
X73660000Y-109220000D03*
X72390000Y-111760000D03*
D14*
X71100000Y-118200000D03*
D13*
X78740000Y-109220000D03*
X78740000Y-109220000D03*
D14*
X71100000Y-118200000D03*
D15*
X76200000Y-120200000D03*
D13*
X72390000Y-111760000D03*
X60960000Y-111760000D03*
D14*
X62250000Y-118200000D03*
D13*
X54610000Y-109220000D03*
X53340000Y-111760000D03*
D14*
X52050000Y-118200000D03*
D13*
X59690000Y-109220000D03*
X59690000Y-109220000D03*
D14*
X52050000Y-118200000D03*
D15*
X57150000Y-120200000D03*
D13*
X53340000Y-111760000D03*
X156210000Y-92710000D03*
D14*
X157500000Y-99150000D03*
D13*
X149860000Y-90170000D03*
X148590000Y-92710000D03*
D14*
X147300000Y-99150000D03*
D13*
X154940000Y-90170000D03*
X154940000Y-90170000D03*
D14*
X147300000Y-99150000D03*
D15*
X152400000Y-101150000D03*
D13*
X148590000Y-92710000D03*
X137160000Y-92710000D03*
D14*
X138450000Y-99150000D03*
D13*
X130810000Y-90170000D03*
X129540000Y-92710000D03*
D14*
X128250000Y-99150000D03*
D13*
X135890000Y-90170000D03*
X135890000Y-90170000D03*
D14*
X128250000Y-99150000D03*
D15*
X133350000Y-101150000D03*
D13*
X129540000Y-92710000D03*
X118110000Y-92710000D03*
D14*
X119400000Y-99150000D03*
D13*
X111760000Y-90170000D03*
X110490000Y-92710000D03*
D14*
X109200000Y-99150000D03*
D13*
X116840000Y-90170000D03*
X116840000Y-90170000D03*
D14*
X109200000Y-99150000D03*
D15*
X114300000Y-101150000D03*
D13*
X110490000Y-92710000D03*
X99060000Y-92710000D03*
D14*
X100350000Y-99150000D03*
D13*
X92710000Y-90170000D03*
X91440000Y-92710000D03*
D14*
X90150000Y-99150000D03*
D13*
X97790000Y-90170000D03*
X97790000Y-90170000D03*
D14*
X90150000Y-99150000D03*
D15*
X95250000Y-101150000D03*
D13*
X91440000Y-92710000D03*
X80010000Y-92710000D03*
D14*
X81300000Y-99150000D03*
D13*
X73660000Y-90170000D03*
X72390000Y-92710000D03*
D14*
X71100000Y-99150000D03*
D13*
X78740000Y-90170000D03*
X78740000Y-90170000D03*
D14*
X71100000Y-99150000D03*
D15*
X76200000Y-101150000D03*
D13*
X72390000Y-92710000D03*
X60960000Y-92710000D03*
D14*
X62250000Y-99150000D03*
D13*
X54610000Y-90170000D03*
X53340000Y-92710000D03*
D14*
X52050000Y-99150000D03*
D13*
X59690000Y-90170000D03*
X59690000Y-90170000D03*
D14*
X52050000Y-99150000D03*
D15*
X57150000Y-101150000D03*
D13*
X53340000Y-92710000D03*
X156210000Y-73660000D03*
D14*
X157500000Y-80100000D03*
D13*
X149860000Y-71120000D03*
X148590000Y-73660000D03*
D14*
X147300000Y-80100000D03*
D13*
X154940000Y-71120000D03*
X154940000Y-71120000D03*
D14*
X147300000Y-80100000D03*
D15*
X152400000Y-82100000D03*
D13*
X148590000Y-73660000D03*
X137160000Y-73660000D03*
D14*
X138450000Y-80100000D03*
D13*
X130810000Y-71120000D03*
X129540000Y-73660000D03*
D14*
X128250000Y-80100000D03*
D13*
X135890000Y-71120000D03*
X135890000Y-71120000D03*
D14*
X128250000Y-80100000D03*
D15*
X133350000Y-82100000D03*
D13*
X129540000Y-73660000D03*
X118110000Y-73660000D03*
D14*
X119400000Y-80100000D03*
D13*
X111760000Y-71120000D03*
X110490000Y-73660000D03*
D14*
X109200000Y-80100000D03*
D13*
X116840000Y-71120000D03*
X116840000Y-71120000D03*
D14*
X109200000Y-80100000D03*
D15*
X114300000Y-82100000D03*
D13*
X110490000Y-73660000D03*
X99060000Y-73660000D03*
D14*
X100350000Y-80100000D03*
D13*
X92710000Y-71120000D03*
X91440000Y-73660000D03*
D14*
X90150000Y-80100000D03*
D13*
X97790000Y-71120000D03*
X97790000Y-71120000D03*
D14*
X90150000Y-80100000D03*
D15*
X95250000Y-82100000D03*
D13*
X91440000Y-73660000D03*
X156210000Y-54610000D03*
D14*
X157500000Y-61050000D03*
D13*
X149860000Y-52070000D03*
X148590000Y-54610000D03*
D14*
X147300000Y-61050000D03*
D13*
X154940000Y-52070000D03*
X154940000Y-52070000D03*
D14*
X147300000Y-61050000D03*
D15*
X152400000Y-63050000D03*
D13*
X148590000Y-54610000D03*
X137160000Y-54610000D03*
D14*
X138450000Y-61050000D03*
D13*
X130810000Y-52070000D03*
X129540000Y-54610000D03*
D14*
X128250000Y-61050000D03*
D13*
X135890000Y-52070000D03*
X135890000Y-52070000D03*
D14*
X128250000Y-61050000D03*
D15*
X133350000Y-63050000D03*
D13*
X129540000Y-54610000D03*
X118110000Y-54610000D03*
D14*
X119400000Y-61050000D03*
D13*
X111760000Y-52070000D03*
X110490000Y-54610000D03*
D14*
X109200000Y-61050000D03*
D13*
X116840000Y-52070000D03*
X116840000Y-52070000D03*
D14*
X109200000Y-61050000D03*
D15*
X114300000Y-63050000D03*
D13*
X110490000Y-54610000D03*
X99060000Y-54610000D03*
D14*
X100350000Y-61050000D03*
D13*
X92710000Y-52070000D03*
X91440000Y-54610000D03*
D14*
X90150000Y-61050000D03*
D13*
X97790000Y-52070000D03*
X97790000Y-52070000D03*
D14*
X90150000Y-61050000D03*
D15*
X95250000Y-63050000D03*
D13*
X91440000Y-54610000D03*
D17*
X150625000Y-144145000D03*
X154175000Y-144145000D03*
X131575000Y-144145000D03*
X135125000Y-144145000D03*
X112525000Y-144145000D03*
X116075000Y-144145000D03*
X93475000Y-144145000D03*
X97025000Y-144145000D03*
X74425000Y-144145000D03*
X77975000Y-144145000D03*
X55375000Y-144145000D03*
X58925000Y-144145000D03*
X150625000Y-125095000D03*
X154175000Y-125095000D03*
X131575000Y-125095000D03*
X135125000Y-125095000D03*
X112525000Y-125095000D03*
X116075000Y-125095000D03*
X93475000Y-125095000D03*
X97025000Y-125095000D03*
X74425000Y-125095000D03*
X77975000Y-125095000D03*
X55375000Y-125095000D03*
X58925000Y-125095000D03*
X150625000Y-106045000D03*
X154175000Y-106045000D03*
X131575000Y-106045000D03*
X135125000Y-106045000D03*
X112525000Y-106045000D03*
X116075000Y-106045000D03*
X93475000Y-106045000D03*
X97025000Y-106045000D03*
X74425000Y-106045000D03*
X77975000Y-106045000D03*
X55375000Y-106045000D03*
X58925000Y-106045000D03*
X150625000Y-86995000D03*
X154175000Y-86995000D03*
X131575000Y-86995000D03*
X135125000Y-86995000D03*
X112525000Y-86995000D03*
X116075000Y-86995000D03*
X93475000Y-86995000D03*
X97025000Y-86995000D03*
X74425000Y-86995000D03*
X77975000Y-86995000D03*
X55375000Y-86995000D03*
X58925000Y-86995000D03*
X150625000Y-67945000D03*
X154175000Y-67945000D03*
X131575000Y-67945000D03*
X135125000Y-67945000D03*
X112525000Y-67945000D03*
X116075000Y-67945000D03*
X93475000Y-67945000D03*
X97025000Y-67945000D03*
X150625000Y-48895000D03*
X154175000Y-48895000D03*
X131575000Y-48895000D03*
X135125000Y-48895000D03*
X112525000Y-48895000D03*
X116075000Y-48895000D03*
X93475000Y-48895000D03*
X97025000Y-48895000D03*
D13*
X80010000Y-73660000D03*
D14*
X81300000Y-80100000D03*
D13*
X73660000Y-71120000D03*
X72390000Y-73660000D03*
D14*
X71100000Y-80100000D03*
D13*
X78740000Y-71120000D03*
X78740000Y-71120000D03*
D14*
X71100000Y-80100000D03*
D15*
X76200000Y-82100000D03*
D13*
X72390000Y-73660000D03*
X60960000Y-73660000D03*
D14*
X62250000Y-80100000D03*
D13*
X54610000Y-71120000D03*
X53340000Y-73660000D03*
D14*
X52050000Y-80100000D03*
D13*
X59690000Y-71120000D03*
X59690000Y-71120000D03*
D14*
X52050000Y-80100000D03*
D15*
X57150000Y-82100000D03*
D13*
X53340000Y-73660000D03*
X80010000Y-54610000D03*
D14*
X81300000Y-61050000D03*
D13*
X73660000Y-52070000D03*
X72390000Y-54610000D03*
D14*
X71100000Y-61050000D03*
D13*
X78740000Y-52070000D03*
X78740000Y-52070000D03*
D14*
X71100000Y-61050000D03*
D15*
X76200000Y-63050000D03*
D13*
X72390000Y-54610000D03*
D17*
X74425000Y-67945000D03*
X77975000Y-67945000D03*
X55375000Y-67945000D03*
X58925000Y-67945000D03*
X74425000Y-48895000D03*
X77975000Y-48895000D03*
X55375000Y-48895000D03*
X58925000Y-48895000D03*
D18*
X79375000Y-48895000D03*
X60325000Y-48895000D03*
X98425000Y-48895000D03*
X117475006Y-48895000D03*
X136525000Y-48895000D03*
X152970000Y-47690000D03*
X60325000Y-67945000D03*
X79375000Y-67945000D03*
X98425000Y-67945000D03*
X117474996Y-67945000D03*
X136525000Y-67945000D03*
X153654997Y-66674997D03*
X93710036Y-40275000D03*
X153670000Y-85725000D03*
X136525000Y-86995000D03*
X117474990Y-86995000D03*
X98425000Y-86995000D03*
X60325000Y-86995000D03*
X79374994Y-86995000D03*
X101599992Y-38735000D03*
X60325000Y-106045000D03*
X79375000Y-106045004D03*
X104775000Y-99060000D03*
X117475000Y-106045000D03*
X136525000Y-106045000D03*
X153670000Y-105010009D03*
X153670000Y-123825000D03*
X136525000Y-125095000D03*
X124460000Y-123190000D03*
X98425006Y-125094994D03*
X79375000Y-125095000D03*
X60325000Y-125095000D03*
X153662500Y-142882500D03*
X60325009Y-144145009D03*
X79375000Y-144145000D03*
X98424986Y-144145014D03*
X117475006Y-144145000D03*
X137160000Y-144145000D03*
X96765000Y-42300000D03*
X100085000Y-42300000D03*
D19*
X55375000Y-48895000D02*
X55375000Y-51305000D01*
X54610000Y-52070000D02*
X54610000Y-53340000D01*
X54610000Y-53340000D02*
X53340000Y-54610000D01*
X55375000Y-51305000D02*
X54610000Y-52070000D01*
X53848000Y-59252000D02*
X52050000Y-61050000D01*
X53848000Y-55118000D02*
X53848000Y-59252000D01*
X53340000Y-54610000D02*
X53848000Y-55118000D01*
X55646000Y-61050000D02*
X62250000Y-61050000D01*
X53848000Y-59252000D02*
X55646000Y-61050000D01*
X135255000Y-48895000D02*
X135255000Y-49010000D01*
X77470000Y-48895000D02*
X77975000Y-48895000D01*
X58925000Y-48895000D02*
X71755000Y-48895000D01*
X73025000Y-47625000D02*
X76200000Y-47625000D01*
X71755000Y-48895000D02*
X73025000Y-47625000D01*
X76200000Y-47625000D02*
X77470000Y-48895000D01*
X77975000Y-48895000D02*
X79375000Y-48895000D01*
X97025000Y-48895000D02*
X98425000Y-48895000D01*
X92075000Y-47625000D02*
X90805000Y-48895000D01*
X95250000Y-47625000D02*
X92075000Y-47625000D01*
X96520000Y-48895000D02*
X95250000Y-47625000D01*
X81915000Y-48895000D02*
X79375000Y-48895000D01*
X90805000Y-48895000D02*
X81915000Y-48895000D01*
X97025000Y-48895000D02*
X96520000Y-48895000D01*
X116075000Y-48895000D02*
X117475006Y-48895000D01*
X109855000Y-48895000D02*
X98425000Y-48895000D01*
X114935000Y-47625000D02*
X111125000Y-47625000D01*
X111125000Y-47625000D02*
X109855000Y-48895000D01*
X116075000Y-48765000D02*
X114935000Y-47625000D01*
X116075000Y-48895000D02*
X116075000Y-48765000D01*
X128905000Y-48895000D02*
X117475006Y-48895000D01*
X129305002Y-48495001D02*
X129304999Y-48495001D01*
X129304999Y-48495001D02*
X128905000Y-48895000D01*
X135255000Y-48895000D02*
X133985000Y-47625000D01*
X130175003Y-47625000D02*
X129305002Y-48495001D01*
X133985000Y-47625000D02*
X130175003Y-47625000D01*
X135255000Y-48895000D02*
X136525000Y-48895000D01*
X149225000Y-47625000D02*
X147955000Y-48895000D01*
X152905000Y-47625000D02*
X149225000Y-47625000D01*
X147955000Y-48895000D02*
X136525000Y-48895000D01*
X154175000Y-48895000D02*
X152905000Y-47625000D01*
X154175000Y-48895000D02*
X152970000Y-47690000D01*
X73660000Y-53340000D02*
X72390000Y-54610000D01*
X73660000Y-52070000D02*
X73660000Y-53340000D01*
X74425000Y-51305000D02*
X73660000Y-52070000D01*
X74425000Y-48895000D02*
X74425000Y-51305000D01*
X72898000Y-55118000D02*
X72898000Y-59252000D01*
X72898000Y-59252000D02*
X71100000Y-61050000D01*
X72390000Y-54610000D02*
X72898000Y-55118000D01*
X74696000Y-61050000D02*
X81300000Y-61050000D01*
X72898000Y-59252000D02*
X74696000Y-61050000D01*
X53721000Y-78429000D02*
X52050000Y-80100000D01*
X53721000Y-74041000D02*
X53721000Y-78429000D01*
X53340000Y-73660000D02*
X53721000Y-74041000D01*
X54610000Y-72390000D02*
X53340000Y-73660000D01*
X54610000Y-71120000D02*
X54610000Y-72390000D01*
X55375000Y-70355000D02*
X54610000Y-71120000D01*
X55375000Y-67945000D02*
X55375000Y-70355000D01*
X55392000Y-80100000D02*
X62250000Y-80100000D01*
X53721000Y-78429000D02*
X55392000Y-80100000D01*
X58925000Y-67945000D02*
X60325000Y-67945000D01*
X68580000Y-71120000D02*
X63500000Y-71120000D01*
X76835000Y-66675000D02*
X73025000Y-66675000D01*
X63500000Y-71120000D02*
X60325000Y-67945000D01*
X77975000Y-67945000D02*
X77975000Y-67815000D01*
X73025000Y-66675000D02*
X68580000Y-71120000D01*
X77975000Y-67815000D02*
X76835000Y-66675000D01*
X79774999Y-67545001D02*
X79375000Y-67945000D01*
X95755000Y-66675000D02*
X80645000Y-66675000D01*
X97025000Y-67945000D02*
X95755000Y-66675000D01*
X77975000Y-67945000D02*
X79375000Y-67945000D01*
X80645000Y-66675000D02*
X79774999Y-67545001D01*
X97025000Y-67945000D02*
X98425000Y-67945000D01*
X109855000Y-67945000D02*
X98425000Y-67945000D01*
X111125000Y-66675000D02*
X109855000Y-67945000D01*
X114805000Y-66675000D02*
X111125000Y-66675000D01*
X116075000Y-67945000D02*
X114805000Y-66675000D01*
X116075000Y-67945000D02*
X117474996Y-67945000D01*
X118109996Y-68580000D02*
X117474996Y-67945000D01*
X128270000Y-68580000D02*
X118109996Y-68580000D01*
X130175000Y-66675000D02*
X128270000Y-68580000D01*
X133855000Y-66675000D02*
X130175000Y-66675000D01*
X135125000Y-67945000D02*
X133855000Y-66675000D01*
X135125000Y-67945000D02*
X136525000Y-67945000D01*
X137795000Y-67945000D02*
X136525000Y-67945000D01*
X140970000Y-71120000D02*
X137795000Y-67945000D01*
X144780000Y-71120000D02*
X140970000Y-71120000D01*
X149225000Y-66675000D02*
X144780000Y-71120000D01*
X153655000Y-66675000D02*
X149225000Y-66675000D01*
X154175000Y-67195000D02*
X153655000Y-66675000D01*
X154175000Y-67945000D02*
X154175000Y-67195000D01*
X154175000Y-67195000D02*
X153654997Y-66674997D01*
X74425000Y-71625000D02*
X72390000Y-73660000D01*
X74425000Y-67945000D02*
X74425000Y-71625000D01*
X72898000Y-78302000D02*
X71100000Y-80100000D01*
X72898000Y-74168000D02*
X72898000Y-78302000D01*
X72390000Y-73660000D02*
X72898000Y-74168000D01*
X74696000Y-80100000D02*
X81300000Y-80100000D01*
X72898000Y-78302000D02*
X74696000Y-80100000D01*
D20*
X95250000Y-40275000D02*
X95250000Y-40275000D01*
X69807808Y-38777192D02*
X92212228Y-38777192D01*
X68580000Y-40005000D02*
X69807808Y-38777192D01*
X95250000Y-40275000D02*
X93710036Y-40275000D01*
X92212228Y-38777192D02*
X93710036Y-40275000D01*
D19*
X153140001Y-85725000D02*
X153670000Y-85725000D01*
X154175000Y-86230000D02*
X153670000Y-85725000D01*
X154175000Y-86995000D02*
X154175000Y-86230000D01*
X135125000Y-86995000D02*
X136525000Y-86995000D01*
X149225000Y-85725000D02*
X147955000Y-86995000D01*
X147955000Y-86995000D02*
X136525000Y-86995000D01*
X153670000Y-85725000D02*
X149225000Y-85725000D01*
X116075000Y-86995000D02*
X117474990Y-86995000D01*
X130130009Y-85769991D02*
X128905000Y-86995000D01*
X134029991Y-85769991D02*
X130130009Y-85769991D01*
X135125000Y-86865000D02*
X134029991Y-85769991D01*
X128905000Y-86995000D02*
X117474990Y-86995000D01*
X135125000Y-86995000D02*
X135125000Y-86865000D01*
X97025000Y-86995000D02*
X98425000Y-86995000D01*
X115040001Y-85960001D02*
X110889999Y-85960001D01*
X109855000Y-86995000D02*
X98425000Y-86995000D01*
X110889999Y-85960001D02*
X109855000Y-86995000D01*
X116075000Y-86995000D02*
X115040001Y-85960001D01*
X58925000Y-86995000D02*
X60325000Y-86995000D01*
X76940001Y-85960001D02*
X72789999Y-85960001D01*
X71755000Y-86995000D02*
X60325000Y-86995000D01*
X72789999Y-85960001D02*
X71755000Y-86995000D01*
X77975000Y-86995000D02*
X76940001Y-85960001D01*
X77975000Y-86995000D02*
X79374994Y-86995000D01*
X90805000Y-86995000D02*
X79374994Y-86995000D01*
X91839999Y-85960001D02*
X90805000Y-86995000D01*
X95990001Y-85960001D02*
X91839999Y-85960001D01*
X97025000Y-86995000D02*
X95990001Y-85960001D01*
D20*
X101600000Y-40250000D02*
X101600000Y-40250000D01*
X101600000Y-38735008D02*
X101599992Y-38735000D01*
X101600000Y-40250000D02*
X101600000Y-38735008D01*
X67945000Y-38100000D02*
X100964992Y-38100000D01*
X67310000Y-38735000D02*
X67945000Y-38100000D01*
X67310000Y-41275000D02*
X67310000Y-38735000D01*
X100964992Y-38100000D02*
X101599992Y-38735000D01*
X68580000Y-42545000D02*
X67310000Y-41275000D01*
D19*
X58925000Y-106045000D02*
X60325000Y-106045000D01*
X71755000Y-106045000D02*
X60325000Y-106045000D01*
X73025000Y-104775000D02*
X71755000Y-106045000D01*
X76705000Y-104775000D02*
X73025000Y-104775000D01*
X77975000Y-106045000D02*
X76705000Y-104775000D01*
X77975000Y-106045000D02*
X79374996Y-106045000D01*
X79374996Y-106045000D02*
X79375000Y-106045004D01*
X90805000Y-106045000D02*
X79375004Y-106045000D01*
X92075000Y-104775000D02*
X90805000Y-106045000D01*
X79375004Y-106045000D02*
X79375000Y-106045004D01*
X95755000Y-104775000D02*
X92075000Y-104775000D01*
X97025000Y-106045000D02*
X95755000Y-104775000D01*
X97790000Y-106045000D02*
X104775000Y-99060000D01*
X97025000Y-106045000D02*
X97790000Y-106045000D01*
X105174999Y-99459999D02*
X104775000Y-99060000D01*
X110490000Y-104775000D02*
X105174999Y-99459999D01*
X114300000Y-104775000D02*
X110490000Y-104775000D01*
X115570000Y-106045000D02*
X114300000Y-104775000D01*
X116075000Y-106045000D02*
X115570000Y-106045000D01*
X116075000Y-106045000D02*
X117475000Y-106045000D01*
X128905000Y-106045000D02*
X117475000Y-106045000D01*
X130175000Y-104775000D02*
X128905000Y-106045000D01*
X133855000Y-104775000D02*
X130175000Y-104775000D01*
X135125000Y-106045000D02*
X133855000Y-104775000D01*
X135125000Y-106045000D02*
X136525000Y-106045000D01*
X147955000Y-106045000D02*
X136525000Y-106045000D01*
X153140001Y-105010001D02*
X148989999Y-105010001D01*
X148989999Y-105010001D02*
X147955000Y-106045000D01*
X153669992Y-105010001D02*
X153670000Y-105010009D01*
X153140001Y-105010001D02*
X153669992Y-105010001D01*
X154175000Y-105515009D02*
X153669992Y-105010001D01*
X154175000Y-106045000D02*
X154175000Y-105515009D01*
X154175000Y-124330000D02*
X153670000Y-123825000D01*
X154175000Y-125095000D02*
X154175000Y-124330000D01*
X135125000Y-125095000D02*
X136525000Y-125095000D01*
X147955000Y-125095000D02*
X136525000Y-125095000D01*
X149225000Y-123825000D02*
X147955000Y-125095000D01*
X153670000Y-123825000D02*
X149225000Y-123825000D01*
X122620000Y-125030000D02*
X124460000Y-123190000D01*
X116140000Y-125030000D02*
X122620000Y-125030000D01*
X116075000Y-125095000D02*
X116140000Y-125030000D01*
X125060343Y-123825000D02*
X124460000Y-123224657D01*
X134605000Y-123825000D02*
X125060343Y-123825000D01*
X124460000Y-123224657D02*
X124460000Y-123190000D01*
X135125000Y-124345000D02*
X134605000Y-123825000D01*
X135125000Y-125095000D02*
X135125000Y-124345000D01*
X109855006Y-125094994D02*
X98425006Y-125094994D01*
X111125000Y-123825000D02*
X109855006Y-125094994D01*
X114805000Y-123825000D02*
X111125000Y-123825000D01*
X116075000Y-125095000D02*
X114805000Y-123825000D01*
X98425000Y-125095000D02*
X98425006Y-125094994D01*
X97025000Y-125095000D02*
X98425000Y-125095000D01*
X77975000Y-125095000D02*
X79375000Y-125095000D01*
X90805000Y-125095000D02*
X79375000Y-125095000D01*
X92075000Y-123825000D02*
X90805000Y-125095000D01*
X95755000Y-123825000D02*
X92075000Y-123825000D01*
X97025000Y-125095000D02*
X95755000Y-123825000D01*
X58925000Y-125095000D02*
X60325000Y-125095000D01*
X71437500Y-125095000D02*
X60325000Y-125095000D01*
X72707500Y-123825000D02*
X71437500Y-125095000D01*
X76705000Y-123825000D02*
X72707500Y-123825000D01*
X77975000Y-125095000D02*
X76705000Y-123825000D01*
X154175000Y-144145000D02*
X154175000Y-143395000D01*
X154175000Y-143395000D02*
X153662500Y-142882500D01*
X58925000Y-144145000D02*
X60325000Y-144145000D01*
X60325000Y-144145000D02*
X60325009Y-144145009D01*
X60325018Y-144145000D02*
X60325009Y-144145009D01*
X61595000Y-144145000D02*
X60325018Y-144145000D01*
X67945000Y-146685000D02*
X64135000Y-146685000D01*
X64135000Y-146685000D02*
X61595000Y-144145000D01*
X71755000Y-142875000D02*
X67945000Y-146685000D01*
X76705000Y-142875000D02*
X71755000Y-142875000D01*
X77975000Y-144145000D02*
X76705000Y-142875000D01*
X77975000Y-144145000D02*
X79375000Y-144145000D01*
X90805000Y-144145000D02*
X79375000Y-144145000D01*
X92075000Y-142875000D02*
X90805000Y-144145000D01*
X95755000Y-142875000D02*
X92075000Y-142875000D01*
X97025000Y-144145000D02*
X95755000Y-142875000D01*
X97025000Y-144145000D02*
X98424972Y-144145000D01*
X98424972Y-144145000D02*
X98424986Y-144145014D01*
X109854986Y-144145014D02*
X98424986Y-144145014D01*
X111125000Y-142875000D02*
X109854986Y-144145014D01*
X114805000Y-142875000D02*
X111125000Y-142875000D01*
X116075000Y-144145000D02*
X114805000Y-142875000D01*
X116075000Y-144145000D02*
X117475006Y-144145000D01*
X149225000Y-142875000D02*
X144780000Y-147320000D01*
X144780000Y-147320000D02*
X140335000Y-147320000D01*
X118745006Y-142875000D02*
X133985000Y-142875000D01*
X154175000Y-143395000D02*
X153655000Y-142875000D01*
X135255000Y-144145000D02*
X137160000Y-144145000D01*
X133985000Y-142875000D02*
X135255000Y-144145000D01*
X117475006Y-144145000D02*
X118745006Y-142875000D01*
X140335000Y-147320000D02*
X137559999Y-144544999D01*
X137559999Y-144544999D02*
X137160000Y-144145000D01*
X153655000Y-142875000D02*
X149225000Y-142875000D01*
D20*
X95275000Y-42300000D02*
X95275000Y-42300000D01*
X95275000Y-42300000D02*
X96765000Y-42300000D01*
X95250000Y-42275000D02*
X95275000Y-42300000D01*
X96765000Y-42300000D02*
X100085000Y-42300000D01*
X101600000Y-42300000D02*
X100085000Y-42300000D01*
D19*
X93475000Y-51305000D02*
X92710000Y-52070000D01*
X93475000Y-48895000D02*
X93475000Y-51305000D01*
X91440000Y-53340000D02*
X91440000Y-54610000D01*
X92710000Y-52070000D02*
X91440000Y-53340000D01*
X91948000Y-59252000D02*
X90150000Y-61050000D01*
X91948000Y-55118000D02*
X91948000Y-59252000D01*
X91440000Y-54610000D02*
X91948000Y-55118000D01*
X93746000Y-61050000D02*
X100350000Y-61050000D01*
X91948000Y-59252000D02*
X93746000Y-61050000D01*
X110490000Y-53340000D02*
X110490000Y-54610000D01*
X111760000Y-52070000D02*
X110490000Y-53340000D01*
X110871000Y-54991000D02*
X110871000Y-59379000D01*
X110490000Y-54610000D02*
X110871000Y-54991000D01*
X110871000Y-59379000D02*
X109200000Y-61050000D01*
X112612000Y-61050000D02*
X119400000Y-61050000D01*
X110906000Y-59344000D02*
X112612000Y-61050000D01*
X110871000Y-59379000D02*
X110906000Y-59344000D01*
X112395000Y-49155000D02*
X112395000Y-51435000D01*
X112395000Y-51435000D02*
X111760000Y-52070000D01*
X112655000Y-48895000D02*
X112395000Y-49155000D01*
X131705000Y-51175000D02*
X130810000Y-52070000D01*
X131705000Y-48895000D02*
X131705000Y-51175000D01*
X129540000Y-53340000D02*
X129540000Y-54610000D01*
X130810000Y-52070000D02*
X129540000Y-53340000D01*
X130048000Y-59252000D02*
X128250000Y-61050000D01*
X130048000Y-55118000D02*
X130048000Y-59252000D01*
X129540000Y-54610000D02*
X130048000Y-55118000D01*
X131846000Y-61050000D02*
X138450000Y-61050000D01*
X130048000Y-59252000D02*
X131846000Y-61050000D01*
X150625000Y-51305000D02*
X149860000Y-52070000D01*
X150625000Y-48895000D02*
X150625000Y-51305000D01*
X148590000Y-53340000D02*
X148590000Y-54610000D01*
X149860000Y-52070000D02*
X148590000Y-53340000D01*
X149098000Y-59252000D02*
X147300000Y-61050000D01*
X149098000Y-55118000D02*
X149098000Y-59252000D01*
X148590000Y-54610000D02*
X149098000Y-55118000D01*
X150896000Y-61050000D02*
X157500000Y-61050000D01*
X149098000Y-59252000D02*
X150896000Y-61050000D01*
X93475000Y-70355000D02*
X92710000Y-71120000D01*
X93475000Y-67945000D02*
X93475000Y-70355000D01*
X91440000Y-72390000D02*
X91440000Y-73660000D01*
X92710000Y-71120000D02*
X91440000Y-72390000D01*
X91694000Y-78556000D02*
X90150000Y-80100000D01*
X91694000Y-73914000D02*
X91440000Y-73660000D01*
X91694000Y-78613000D02*
X91694000Y-73914000D01*
X93181000Y-80100000D02*
X91694000Y-78613000D01*
X100350000Y-80100000D02*
X93181000Y-80100000D01*
X112525000Y-67945000D02*
X112395000Y-67945000D01*
X112395000Y-70485000D02*
X111760000Y-71120000D01*
X112395000Y-67945000D02*
X112395000Y-70485000D01*
X110490000Y-72390000D02*
X110490000Y-73660000D01*
X111760000Y-71120000D02*
X110490000Y-72390000D01*
X110490000Y-78810000D02*
X109200000Y-80100000D01*
X110871000Y-78429000D02*
X110490000Y-78810000D01*
X110871000Y-74041000D02*
X110871000Y-78429000D01*
X110490000Y-73660000D02*
X110871000Y-74041000D01*
X112485000Y-80100000D02*
X119400000Y-80100000D01*
X110842500Y-78457500D02*
X112485000Y-80100000D01*
X110490000Y-78810000D02*
X110842500Y-78457500D01*
X131575000Y-70355000D02*
X130810000Y-71120000D01*
X131575000Y-67945000D02*
X131575000Y-70355000D01*
X129540000Y-72390000D02*
X129540000Y-73660000D01*
X130810000Y-71120000D02*
X129540000Y-72390000D01*
X129540000Y-78810000D02*
X128250000Y-80100000D01*
X130830000Y-80100000D02*
X138450000Y-80100000D01*
X129540000Y-78810000D02*
X130830000Y-80100000D01*
X129921000Y-78429000D02*
X129540000Y-78810000D01*
X129921000Y-74041000D02*
X129921000Y-78429000D01*
X129540000Y-73660000D02*
X129921000Y-74041000D01*
X148590000Y-72390000D02*
X148590000Y-73660000D01*
X149860000Y-71120000D02*
X148590000Y-72390000D01*
X150625000Y-70355000D02*
X149860000Y-71120000D01*
X150625000Y-67945000D02*
X150625000Y-70355000D01*
X148844000Y-73914000D02*
X148844000Y-78556000D01*
X148844000Y-78556000D02*
X147300000Y-80100000D01*
X148590000Y-73660000D02*
X148844000Y-73914000D01*
X150388000Y-80100000D02*
X157500000Y-80100000D01*
X148844000Y-78556000D02*
X150388000Y-80100000D01*
X55375000Y-89405000D02*
X54610000Y-90170000D01*
X55375000Y-86995000D02*
X55375000Y-89405000D01*
X53340000Y-91440000D02*
X53340000Y-92710000D01*
X54610000Y-90170000D02*
X53340000Y-91440000D01*
X53721000Y-97479000D02*
X53721000Y-97282000D01*
X52050000Y-99150000D02*
X53721000Y-97479000D01*
X62160000Y-99060000D02*
X62250000Y-99150000D01*
X55302000Y-99060000D02*
X62160000Y-99060000D01*
X53721000Y-97479000D02*
X55302000Y-99060000D01*
X53721000Y-93091000D02*
X53721000Y-97479000D01*
X53340000Y-92710000D02*
X53721000Y-93091000D01*
X74425000Y-89405000D02*
X73660000Y-90170000D01*
X74425000Y-86995000D02*
X74425000Y-89405000D01*
X72390000Y-91440000D02*
X72390000Y-92710000D01*
X73660000Y-90170000D02*
X72390000Y-91440000D01*
X72898000Y-97352000D02*
X71100000Y-99150000D01*
X72898000Y-93218000D02*
X72898000Y-97352000D01*
X72390000Y-92710000D02*
X72898000Y-93218000D01*
X74696000Y-99150000D02*
X81300000Y-99150000D01*
X72898000Y-97352000D02*
X74696000Y-99150000D01*
X93475000Y-89405000D02*
X92710000Y-90170000D01*
X93475000Y-86995000D02*
X93475000Y-89405000D01*
X91440000Y-91440000D02*
X91440000Y-92710000D01*
X92710000Y-90170000D02*
X91440000Y-91440000D01*
X91821000Y-97479000D02*
X90150000Y-99150000D01*
X91821000Y-93091000D02*
X91821000Y-97479000D01*
X91440000Y-92710000D02*
X91821000Y-93091000D01*
X93492000Y-99150000D02*
X100350000Y-99150000D01*
X91821000Y-97479000D02*
X93492000Y-99150000D01*
X112525000Y-89405000D02*
X111760000Y-90170000D01*
X112525000Y-86995000D02*
X112525000Y-89405000D01*
X110490000Y-91440000D02*
X110490000Y-92710000D01*
X111760000Y-90170000D02*
X110490000Y-91440000D01*
X110490000Y-97860000D02*
X109200000Y-99150000D01*
X110490000Y-92710000D02*
X110490000Y-97860000D01*
X119310000Y-99060000D02*
X119400000Y-99150000D01*
X111690000Y-99060000D02*
X119310000Y-99060000D01*
X110490000Y-97860000D02*
X111690000Y-99060000D01*
X131575000Y-89405000D02*
X130810000Y-90170000D01*
X131575000Y-86995000D02*
X131575000Y-89405000D01*
X129540000Y-91440000D02*
X129540000Y-92710000D01*
X130810000Y-90170000D02*
X129540000Y-91440000D01*
X131281000Y-99150000D02*
X138450000Y-99150000D01*
X130048000Y-97917000D02*
X131281000Y-99150000D01*
X129483000Y-97917000D02*
X128250000Y-99150000D01*
X130048000Y-97917000D02*
X129483000Y-97917000D01*
X129921000Y-93091000D02*
X129921000Y-97790000D01*
X129921000Y-97790000D02*
X130048000Y-97917000D01*
X129540000Y-92710000D02*
X129921000Y-93091000D01*
X150625000Y-89405000D02*
X149860000Y-90170000D01*
X150625000Y-86995000D02*
X150625000Y-89405000D01*
X148590000Y-91440000D02*
X148590000Y-92710000D01*
X149860000Y-90170000D02*
X148590000Y-91440000D01*
X148971000Y-97479000D02*
X147300000Y-99150000D01*
X148971000Y-93091000D02*
X148971000Y-97479000D01*
X148590000Y-92710000D02*
X148971000Y-93091000D01*
X150642000Y-99150000D02*
X157500000Y-99150000D01*
X148971000Y-97479000D02*
X150642000Y-99150000D01*
X55375000Y-108455000D02*
X54610000Y-109220000D01*
X55375000Y-106045000D02*
X55375000Y-108455000D01*
X53340000Y-110490000D02*
X53340000Y-111760000D01*
X54610000Y-109220000D02*
X53340000Y-110490000D01*
X53848000Y-112268000D02*
X53848000Y-116402000D01*
X53848000Y-116402000D02*
X52050000Y-118200000D01*
X53340000Y-111760000D02*
X53848000Y-112268000D01*
X55646000Y-118200000D02*
X62250000Y-118200000D01*
X53848000Y-116402000D02*
X55646000Y-118200000D01*
X74425000Y-108455000D02*
X73660000Y-109220000D01*
X74425000Y-106045000D02*
X74425000Y-108455000D01*
X72390000Y-110490000D02*
X72390000Y-111760000D01*
X73660000Y-109220000D02*
X72390000Y-110490000D01*
X72898000Y-116402000D02*
X71100000Y-118200000D01*
X72898000Y-112268000D02*
X72898000Y-116402000D01*
X72390000Y-111760000D02*
X72898000Y-112268000D01*
X74696000Y-118200000D02*
X81300000Y-118200000D01*
X72898000Y-116402000D02*
X74696000Y-118200000D01*
X93475000Y-108455000D02*
X92710000Y-109220000D01*
X93475000Y-106045000D02*
X93475000Y-108455000D01*
X91440000Y-110490000D02*
X91440000Y-111760000D01*
X92710000Y-109220000D02*
X91440000Y-110490000D01*
X91821000Y-116529000D02*
X90150000Y-118200000D01*
X91821000Y-112141000D02*
X91821000Y-116529000D01*
X91440000Y-111760000D02*
X91821000Y-112141000D01*
X93402000Y-118110000D02*
X100260000Y-118110000D01*
X91821000Y-116529000D02*
X93402000Y-118110000D01*
X112525000Y-108455000D02*
X111760000Y-109220000D01*
X112525000Y-106045000D02*
X112525000Y-108455000D01*
X110490000Y-110490000D02*
X110490000Y-111760000D01*
X111760000Y-109220000D02*
X110490000Y-110490000D01*
X110998000Y-116402000D02*
X109200000Y-118200000D01*
X110998000Y-112268000D02*
X110998000Y-116402000D01*
X110490000Y-111760000D02*
X110998000Y-112268000D01*
X112796000Y-118200000D02*
X119400000Y-118200000D01*
X110998000Y-116402000D02*
X112796000Y-118200000D01*
X131575000Y-108455000D02*
X130810000Y-109220000D01*
X131575000Y-106045000D02*
X131575000Y-108455000D01*
X129540000Y-110490000D02*
X129540000Y-111760000D01*
X130810000Y-109220000D02*
X129540000Y-110490000D01*
X129921000Y-116529000D02*
X128250000Y-118200000D01*
X129921000Y-112141000D02*
X129921000Y-116529000D01*
X129540000Y-111760000D02*
X129921000Y-112141000D01*
X131592000Y-118200000D02*
X138450000Y-118200000D01*
X129921000Y-116529000D02*
X131592000Y-118200000D01*
X150625000Y-108455000D02*
X149860000Y-109220000D01*
X150625000Y-106045000D02*
X150625000Y-108455000D01*
X148590000Y-110490000D02*
X148590000Y-111760000D01*
X149860000Y-109220000D02*
X148590000Y-110490000D01*
X148971000Y-116529000D02*
X147300000Y-118200000D01*
X148971000Y-112141000D02*
X148971000Y-116529000D01*
X148590000Y-111760000D02*
X148971000Y-112141000D01*
X150642000Y-118200000D02*
X157500000Y-118200000D01*
X148971000Y-116529000D02*
X150642000Y-118200000D01*
X55375000Y-127505000D02*
X54610000Y-128270000D01*
X55375000Y-125095000D02*
X55375000Y-127505000D01*
X53340000Y-129540000D02*
X53340000Y-130810000D01*
X54610000Y-128270000D02*
X53340000Y-129540000D01*
X53848000Y-135452000D02*
X52050000Y-137250000D01*
X53848000Y-131318000D02*
X53848000Y-135452000D01*
X53340000Y-130810000D02*
X53848000Y-131318000D01*
X55646000Y-137250000D02*
X62250000Y-137250000D01*
X53848000Y-135452000D02*
X55646000Y-137250000D01*
X74425000Y-127505000D02*
X73660000Y-128270000D01*
X74425000Y-125095000D02*
X74425000Y-127505000D01*
X72390000Y-129540000D02*
X72390000Y-130810000D01*
X73660000Y-128270000D02*
X72390000Y-129540000D01*
X72898000Y-135452000D02*
X71100000Y-137250000D01*
X72898000Y-131318000D02*
X72898000Y-135452000D01*
X72390000Y-130810000D02*
X72898000Y-131318000D01*
X74696000Y-137250000D02*
X81300000Y-137250000D01*
X72898000Y-135452000D02*
X74696000Y-137250000D01*
X93475000Y-127505000D02*
X92710000Y-128270000D01*
X93475000Y-125095000D02*
X93475000Y-127505000D01*
X91440000Y-129540000D02*
X91440000Y-130810000D01*
X92710000Y-128270000D02*
X91440000Y-129540000D01*
X90150000Y-137180000D02*
X90150000Y-137250000D01*
X91948000Y-135382000D02*
X90150000Y-137180000D01*
X91948000Y-131318000D02*
X91948000Y-135382000D01*
X91440000Y-130810000D02*
X91948000Y-131318000D01*
X93816000Y-137250000D02*
X100350000Y-137250000D01*
X91948000Y-135382000D02*
X93816000Y-137250000D01*
X112525000Y-127505000D02*
X111760000Y-128270000D01*
X112525000Y-125095000D02*
X112525000Y-127505000D01*
X110490000Y-129540000D02*
X110490000Y-130810000D01*
X111760000Y-128270000D02*
X110490000Y-129540000D01*
X110871000Y-135579000D02*
X109200000Y-137250000D01*
X110871000Y-131191000D02*
X110871000Y-135579000D01*
X110490000Y-130810000D02*
X110871000Y-131191000D01*
X112542000Y-137250000D02*
X119400000Y-137250000D01*
X110871000Y-135579000D02*
X112542000Y-137250000D01*
X131575000Y-127505000D02*
X130810000Y-128270000D01*
X131575000Y-125095000D02*
X131575000Y-127505000D01*
X129540000Y-129540000D02*
X129540000Y-130810000D01*
X130810000Y-128270000D02*
X129540000Y-129540000D01*
X130048000Y-135452000D02*
X128250000Y-137250000D01*
X130048000Y-131318000D02*
X130048000Y-135452000D01*
X129540000Y-130810000D02*
X130048000Y-131318000D01*
X131846000Y-137250000D02*
X138450000Y-137250000D01*
X130048000Y-135452000D02*
X131846000Y-137250000D01*
X150625000Y-127505000D02*
X149860000Y-128270000D01*
X150625000Y-125095000D02*
X150625000Y-127505000D01*
X148590000Y-129540000D02*
X148590000Y-130810000D01*
X149860000Y-128270000D02*
X148590000Y-129540000D01*
X149098000Y-135452000D02*
X147300000Y-137250000D01*
X149098000Y-131318000D02*
X149098000Y-135452000D01*
X148590000Y-130810000D02*
X149098000Y-131318000D01*
X150896000Y-137250000D02*
X157500000Y-137250000D01*
X149098000Y-135452000D02*
X150896000Y-137250000D01*
X55375000Y-146555000D02*
X54610000Y-147320000D01*
X55375000Y-144145000D02*
X55375000Y-146555000D01*
X53340000Y-148590000D02*
X53340000Y-149860000D01*
X54610000Y-147320000D02*
X53340000Y-148590000D01*
X53721000Y-154629000D02*
X52050000Y-156300000D01*
X53721000Y-150241000D02*
X53721000Y-154629000D01*
X53340000Y-149860000D02*
X53721000Y-150241000D01*
X55392000Y-156300000D02*
X62250000Y-156300000D01*
X53721000Y-154629000D02*
X55392000Y-156300000D01*
X74425000Y-146555000D02*
X73660000Y-147320000D01*
X74425000Y-144145000D02*
X74425000Y-146555000D01*
X72390000Y-148590000D02*
X72390000Y-149860000D01*
X73660000Y-147320000D02*
X72390000Y-148590000D01*
X72771000Y-154629000D02*
X71100000Y-156300000D01*
X72771000Y-150241000D02*
X72771000Y-154629000D01*
X72390000Y-149860000D02*
X72771000Y-150241000D01*
X74442000Y-156300000D02*
X81300000Y-156300000D01*
X72771000Y-154629000D02*
X74442000Y-156300000D01*
X93475000Y-146555000D02*
X92710000Y-147320000D01*
X93475000Y-144145000D02*
X93475000Y-146555000D01*
X91440000Y-148590000D02*
X91440000Y-149860000D01*
X92710000Y-147320000D02*
X91440000Y-148590000D01*
X91948000Y-154502000D02*
X90150000Y-156300000D01*
X91948000Y-150368000D02*
X91948000Y-154502000D01*
X91440000Y-149860000D02*
X91948000Y-150368000D01*
X93746000Y-156300000D02*
X100350000Y-156300000D01*
X91948000Y-154502000D02*
X93746000Y-156300000D01*
X112525000Y-146555000D02*
X111760000Y-147320000D01*
X112525000Y-144145000D02*
X112525000Y-146555000D01*
X110490000Y-148590000D02*
X110490000Y-149860000D01*
X111760000Y-147320000D02*
X110490000Y-148590000D01*
X110998000Y-154502000D02*
X109200000Y-156300000D01*
X110998000Y-150368000D02*
X110998000Y-154502000D01*
X110490000Y-149860000D02*
X110998000Y-150368000D01*
X112796000Y-156300000D02*
X119400000Y-156300000D01*
X110998000Y-154502000D02*
X112796000Y-156300000D01*
X129540000Y-148590000D02*
X129540000Y-149860000D01*
X130810000Y-147320000D02*
X129540000Y-148590000D01*
X130048000Y-154502000D02*
X128250000Y-156300000D01*
X130048000Y-150368000D02*
X130048000Y-154502000D01*
X129540000Y-149860000D02*
X130048000Y-150368000D01*
X131846000Y-156300000D02*
X138450000Y-156300000D01*
X130048000Y-154502000D02*
X131846000Y-156300000D01*
X131445000Y-146685000D02*
X130810000Y-147320000D01*
X131445000Y-144145000D02*
X131445000Y-146685000D01*
X150625000Y-146555000D02*
X149860000Y-147320000D01*
X150625000Y-144145000D02*
X150625000Y-146555000D01*
X148590000Y-148590000D02*
X148590000Y-149860000D01*
X149860000Y-147320000D02*
X148590000Y-148590000D01*
X148971000Y-154629000D02*
X147300000Y-156300000D01*
X148971000Y-150241000D02*
X148971000Y-154629000D01*
X148590000Y-149860000D02*
X148971000Y-150241000D01*
X150642000Y-156300000D02*
X157500000Y-156300000D01*
X148971000Y-154629000D02*
X150642000Y-156300000D01*
M02*
