M48
; DRILL file {KiCad (5.1.12-1-10_14)} date 2021 November 20, Saturday 17:22:28
; FORMAT={-:-/ absolute / metric / decimal}
; #@! TF.CreationDate,2021-11-20T17:22:28+08:00
; #@! TF.GenerationSoftware,Kicad,Pcbnew,(5.1.12-1-10_14)
; #@! TF.FileFunction,NonPlated,1,2,NPTH
FMAT,2
METRIC
T1C1.700
T2C1.800
T3C3.200
T4C4.900
%
G90
G05
T1
X52.07Y-57.15
X52.07Y-76.2
X52.07Y-95.25
X52.07Y-114.3
X52.07Y-133.35
X52.07Y-152.4
X62.23Y-57.15
X62.23Y-76.2
X62.23Y-95.25
X62.23Y-114.3
X62.23Y-133.35
X62.23Y-152.4
X71.12Y-57.15
X71.12Y-76.2
X71.12Y-95.25
X71.12Y-114.3
X71.12Y-133.35
X71.12Y-152.4
X81.28Y-57.15
X81.28Y-76.2
X81.28Y-95.25
X81.28Y-114.3
X81.28Y-133.35
X81.28Y-152.4
X90.17Y-57.15
X90.17Y-76.2
X90.17Y-95.25
X90.17Y-114.3
X90.17Y-133.35
X90.17Y-152.4
X100.33Y-57.15
X100.33Y-76.2
X100.33Y-95.25
X100.33Y-114.3
X100.33Y-133.35
X100.33Y-152.4
X109.22Y-57.15
X109.22Y-76.2
X109.22Y-95.25
X109.22Y-114.3
X109.22Y-133.35
X109.22Y-152.4
X119.38Y-57.15
X119.38Y-76.2
X119.38Y-95.25
X119.38Y-114.3
X119.38Y-133.35
X119.38Y-152.4
X128.27Y-57.15
X128.27Y-76.2
X128.27Y-95.25
X128.27Y-114.3
X128.27Y-133.35
X128.27Y-152.4
X138.43Y-57.15
X138.43Y-76.2
X138.43Y-95.25
X138.43Y-114.3
X138.43Y-133.35
X138.43Y-152.4
X147.32Y-57.15
X147.32Y-76.2
X147.32Y-95.25
X147.32Y-114.3
X147.32Y-133.35
X147.32Y-152.4
X157.48Y-57.15
X157.48Y-76.2
X157.48Y-95.25
X157.48Y-114.3
X157.48Y-133.35
X157.48Y-152.4
T2
X51.65Y-57.15
X51.65Y-76.2
X51.65Y-95.25
X51.65Y-114.3
X51.65Y-133.35
X51.65Y-152.4
X62.65Y-57.15
X62.65Y-76.2
X62.65Y-95.25
X62.65Y-114.3
X62.65Y-133.35
X62.65Y-152.4
X70.7Y-57.15
X70.7Y-76.2
X70.7Y-95.25
X70.7Y-114.3
X70.7Y-133.35
X70.7Y-152.4
X81.7Y-57.15
X81.7Y-76.2
X81.7Y-95.25
X81.7Y-114.3
X81.7Y-133.35
X81.7Y-152.4
X89.75Y-57.15
X89.75Y-76.2
X89.75Y-95.25
X89.75Y-114.3
X89.75Y-133.35
X89.75Y-152.4
X100.75Y-57.15
X100.75Y-76.2
X100.75Y-95.25
X100.75Y-114.3
X100.75Y-133.35
X100.75Y-152.4
X108.8Y-57.15
X108.8Y-76.2
X108.8Y-95.25
X108.8Y-114.3
X108.8Y-133.35
X108.8Y-152.4
X119.8Y-57.15
X119.8Y-76.2
X119.8Y-95.25
X119.8Y-114.3
X119.8Y-133.35
X119.8Y-152.4
X127.85Y-57.15
X127.85Y-76.2
X127.85Y-95.25
X127.85Y-114.3
X127.85Y-133.35
X127.85Y-152.4
X138.85Y-57.15
X138.85Y-76.2
X138.85Y-95.25
X138.85Y-114.3
X138.85Y-133.35
X138.85Y-152.4
X146.9Y-57.15
X146.9Y-76.2
X146.9Y-95.25
X146.9Y-114.3
X146.9Y-133.35
X146.9Y-152.4
X157.9Y-57.15
X157.9Y-76.2
X157.9Y-95.25
X157.9Y-114.3
X157.9Y-133.35
X157.9Y-152.4
T3
X66.04Y-142.24
X66.675Y-66.675
X142.875Y-66.675
X142.875Y-142.875
T4
X57.15Y-57.15
X57.15Y-76.2
X57.15Y-95.25
X57.15Y-114.3
X57.15Y-133.35
X57.15Y-152.4
X76.2Y-57.15
X76.2Y-76.2
X76.2Y-95.25
X76.2Y-114.3
X76.2Y-133.35
X76.2Y-152.4
X95.25Y-57.15
X95.25Y-76.2
X95.25Y-95.25
X95.25Y-114.3
X95.25Y-133.35
X95.25Y-152.4
X114.3Y-57.15
X114.3Y-76.2
X114.3Y-95.25
X114.3Y-114.3
X114.3Y-133.35
X114.3Y-152.4
X133.35Y-57.15
X133.35Y-76.2
X133.35Y-95.25
X133.35Y-114.3
X133.35Y-133.35
X133.35Y-152.4
X152.4Y-57.15
X152.4Y-76.2
X152.4Y-95.25
X152.4Y-114.3
X152.4Y-133.35
X152.4Y-152.4
T0
M30
