%TF.GenerationSoftware,KiCad,Pcbnew,(5.1.12-1-10_14)*%
%TF.CreationDate,2021-11-20T17:22:18+08:00*%
%TF.ProjectId,Pragmatic,50726167-6d61-4746-9963-2e6b69636164,0.2*%
%TF.SameCoordinates,Original*%
%TF.FileFunction,Paste,Top*%
%TF.FilePolarity,Positive*%
%FSLAX46Y46*%
G04 Gerber Fmt 4.6, Leading zero omitted, Abs format (unit mm)*
G04 Created by KiCad (PCBNEW (5.1.12-1-10_14)) date 2021-11-20 17:22:18*
%MOMM*%
%LPD*%
G01*
G04 APERTURE LIST*
%ADD10R,1.400000X1.000000*%
G04 APERTURE END LIST*
G36*
G01*
X88030000Y-42995001D02*
X88030000Y-42094999D01*
G75*
G02*
X88279999Y-41845000I249999J0D01*
G01*
X88980001Y-41845000D01*
G75*
G02*
X89230000Y-42094999I0J-249999D01*
G01*
X89230000Y-42995001D01*
G75*
G02*
X88980001Y-43245000I-249999J0D01*
G01*
X88279999Y-43245000D01*
G75*
G02*
X88030000Y-42995001I0J249999D01*
G01*
G37*
G36*
G01*
X86030000Y-42995001D02*
X86030000Y-42094999D01*
G75*
G02*
X86279999Y-41845000I249999J0D01*
G01*
X86980001Y-41845000D01*
G75*
G02*
X87230000Y-42094999I0J-249999D01*
G01*
X87230000Y-42995001D01*
G75*
G02*
X86980001Y-43245000I-249999J0D01*
G01*
X86279999Y-43245000D01*
G75*
G02*
X86030000Y-42995001I0J249999D01*
G01*
G37*
G36*
G01*
X88080000Y-40455001D02*
X88080000Y-39554999D01*
G75*
G02*
X88329999Y-39305000I249999J0D01*
G01*
X88980001Y-39305000D01*
G75*
G02*
X89230000Y-39554999I0J-249999D01*
G01*
X89230000Y-40455001D01*
G75*
G02*
X88980001Y-40705000I-249999J0D01*
G01*
X88329999Y-40705000D01*
G75*
G02*
X88080000Y-40455001I0J249999D01*
G01*
G37*
G36*
G01*
X86030000Y-40455001D02*
X86030000Y-39554999D01*
G75*
G02*
X86279999Y-39305000I249999J0D01*
G01*
X86930001Y-39305000D01*
G75*
G02*
X87180000Y-39554999I0J-249999D01*
G01*
X87180000Y-40455001D01*
G75*
G02*
X86930001Y-40705000I-249999J0D01*
G01*
X86279999Y-40705000D01*
G75*
G02*
X86030000Y-40455001I0J249999D01*
G01*
G37*
D10*
X150625000Y-144145000D03*
X154175000Y-144145000D03*
X131575000Y-144145000D03*
X135125000Y-144145000D03*
X112525000Y-144145000D03*
X116075000Y-144145000D03*
X93475000Y-144145000D03*
X97025000Y-144145000D03*
X74425000Y-144145000D03*
X77975000Y-144145000D03*
X55375000Y-144145000D03*
X58925000Y-144145000D03*
X150625000Y-125095000D03*
X154175000Y-125095000D03*
X131575000Y-125095000D03*
X135125000Y-125095000D03*
X112525000Y-125095000D03*
X116075000Y-125095000D03*
X93475000Y-125095000D03*
X97025000Y-125095000D03*
X74425000Y-125095000D03*
X77975000Y-125095000D03*
X55375000Y-125095000D03*
X58925000Y-125095000D03*
X150625000Y-106045000D03*
X154175000Y-106045000D03*
X131575000Y-106045000D03*
X135125000Y-106045000D03*
X112525000Y-106045000D03*
X116075000Y-106045000D03*
X93475000Y-106045000D03*
X97025000Y-106045000D03*
X74425000Y-106045000D03*
X77975000Y-106045000D03*
X55375000Y-106045000D03*
X58925000Y-106045000D03*
X150625000Y-86995000D03*
X154175000Y-86995000D03*
X131575000Y-86995000D03*
X135125000Y-86995000D03*
X112525000Y-86995000D03*
X116075000Y-86995000D03*
X93475000Y-86995000D03*
X97025000Y-86995000D03*
X74425000Y-86995000D03*
X77975000Y-86995000D03*
X55375000Y-86995000D03*
X58925000Y-86995000D03*
X150625000Y-67945000D03*
X154175000Y-67945000D03*
X131575000Y-67945000D03*
X135125000Y-67945000D03*
X112525000Y-67945000D03*
X116075000Y-67945000D03*
X93475000Y-67945000D03*
X97025000Y-67945000D03*
X150625000Y-48895000D03*
X154175000Y-48895000D03*
X131575000Y-48895000D03*
X135125000Y-48895000D03*
X112525000Y-48895000D03*
X116075000Y-48895000D03*
X93475000Y-48895000D03*
X97025000Y-48895000D03*
X74425000Y-67945000D03*
X77975000Y-67945000D03*
X55375000Y-67945000D03*
X58925000Y-67945000D03*
X74425000Y-48895000D03*
X77975000Y-48895000D03*
X55375000Y-48895000D03*
X58925000Y-48895000D03*
M02*
