%TF.GenerationSoftware,KiCad,Pcbnew,(7.0.0-0)*%
%TF.CreationDate,2023-03-13T10:37:30+08:00*%
%TF.ProjectId,Input,496e7075-742e-46b6-9963-61645f706362,1*%
%TF.SameCoordinates,PX7bfa480PY6052340*%
%TF.FileFunction,Legend,Top*%
%TF.FilePolarity,Positive*%
%FSLAX46Y46*%
G04 Gerber Fmt 4.6, Leading zero omitted, Abs format (unit mm)*
G04 Created by KiCad (PCBNEW (7.0.0-0)) date 2023-03-13 10:37:30*
%MOMM*%
%LPD*%
G01*
G04 APERTURE LIST*
G04 Aperture macros list*
%AMRoundRect*
0 Rectangle with rounded corners*
0 $1 Rounding radius*
0 $2 $3 $4 $5 $6 $7 $8 $9 X,Y pos of 4 corners*
0 Add a 4 corners polygon primitive as box body*
4,1,4,$2,$3,$4,$5,$6,$7,$8,$9,$2,$3,0*
0 Add four circle primitives for the rounded corners*
1,1,$1+$1,$2,$3*
1,1,$1+$1,$4,$5*
1,1,$1+$1,$6,$7*
1,1,$1+$1,$8,$9*
0 Add four rect primitives between the rounded corners*
20,1,$1+$1,$2,$3,$4,$5,0*
20,1,$1+$1,$4,$5,$6,$7,0*
20,1,$1+$1,$6,$7,$8,$9,0*
20,1,$1+$1,$8,$9,$2,$3,0*%
%AMRotRect*
0 Rectangle, with rotation*
0 The origin of the aperture is its center*
0 $1 length*
0 $2 width*
0 $3 Rotation angle, in degrees counterclockwise*
0 Add horizontal line*
21,1,$1,$2,0,0,$3*%
G04 Aperture macros list end*
%ADD10C,0.150000*%
%ADD11C,0.200000*%
%ADD12C,0.120000*%
%ADD13C,3.000000*%
%ADD14R,2.000000X2.600000*%
%ADD15C,3.200000*%
%ADD16R,1.400000X1.000000*%
%ADD17RotRect,1.400000X1.000000X20.000000*%
%ADD18R,1.270000X3.429000*%
%ADD19RoundRect,0.317500X-0.317500X-1.397000X0.317500X-1.397000X0.317500X1.397000X-0.317500X1.397000X0*%
%ADD20RotRect,2.000000X2.600000X200.000000*%
%ADD21C,1.700000*%
G04 APERTURE END LIST*
D10*
X-1446667Y23932620D02*
X-1780000Y24408810D01*
X-2018095Y23932620D02*
X-2018095Y24932620D01*
X-2018095Y24932620D02*
X-1637143Y24932620D01*
X-1637143Y24932620D02*
X-1541905Y24885000D01*
X-1541905Y24885000D02*
X-1494286Y24837381D01*
X-1494286Y24837381D02*
X-1446667Y24742143D01*
X-1446667Y24742143D02*
X-1446667Y24599286D01*
X-1446667Y24599286D02*
X-1494286Y24504048D01*
X-1494286Y24504048D02*
X-1541905Y24456429D01*
X-1541905Y24456429D02*
X-1637143Y24408810D01*
X-1637143Y24408810D02*
X-2018095Y24408810D01*
X-1065714Y24837381D02*
X-1018095Y24885000D01*
X-1018095Y24885000D02*
X-922857Y24932620D01*
X-922857Y24932620D02*
X-684762Y24932620D01*
X-684762Y24932620D02*
X-589524Y24885000D01*
X-589524Y24885000D02*
X-541905Y24837381D01*
X-541905Y24837381D02*
X-494286Y24742143D01*
X-494286Y24742143D02*
X-494286Y24646905D01*
X-494286Y24646905D02*
X-541905Y24504048D01*
X-541905Y24504048D02*
X-1113333Y23932620D01*
X-1113333Y23932620D02*
X-494286Y23932620D01*
X-3859667Y23352620D02*
X-4193000Y23828810D01*
X-4431095Y23352620D02*
X-4431095Y24352620D01*
X-4431095Y24352620D02*
X-4050143Y24352620D01*
X-4050143Y24352620D02*
X-3954905Y24305000D01*
X-3954905Y24305000D02*
X-3907286Y24257381D01*
X-3907286Y24257381D02*
X-3859667Y24162143D01*
X-3859667Y24162143D02*
X-3859667Y24019286D01*
X-3859667Y24019286D02*
X-3907286Y23924048D01*
X-3907286Y23924048D02*
X-3954905Y23876429D01*
X-3954905Y23876429D02*
X-4050143Y23828810D01*
X-4050143Y23828810D02*
X-4431095Y23828810D01*
X-2907286Y23352620D02*
X-3478714Y23352620D01*
X-3193000Y23352620D02*
X-3193000Y24352620D01*
X-3193000Y24352620D02*
X-3288238Y24209762D01*
X-3288238Y24209762D02*
X-3383476Y24114524D01*
X-3383476Y24114524D02*
X-3478714Y24066905D01*
D11*
X39935714Y-29691071D02*
X39935714Y-28191071D01*
X39935714Y-28191071D02*
X40507143Y-28191071D01*
X40507143Y-28191071D02*
X40650000Y-28262500D01*
X40650000Y-28262500D02*
X40721429Y-28333928D01*
X40721429Y-28333928D02*
X40792857Y-28476785D01*
X40792857Y-28476785D02*
X40792857Y-28691071D01*
X40792857Y-28691071D02*
X40721429Y-28833928D01*
X40721429Y-28833928D02*
X40650000Y-28905357D01*
X40650000Y-28905357D02*
X40507143Y-28976785D01*
X40507143Y-28976785D02*
X39935714Y-28976785D01*
X41435714Y-29691071D02*
X41435714Y-28691071D01*
X41435714Y-28976785D02*
X41507143Y-28833928D01*
X41507143Y-28833928D02*
X41578572Y-28762500D01*
X41578572Y-28762500D02*
X41721429Y-28691071D01*
X41721429Y-28691071D02*
X41864286Y-28691071D01*
X43007143Y-29691071D02*
X43007143Y-28905357D01*
X43007143Y-28905357D02*
X42935714Y-28762500D01*
X42935714Y-28762500D02*
X42792857Y-28691071D01*
X42792857Y-28691071D02*
X42507143Y-28691071D01*
X42507143Y-28691071D02*
X42364285Y-28762500D01*
X43007143Y-29619642D02*
X42864285Y-29691071D01*
X42864285Y-29691071D02*
X42507143Y-29691071D01*
X42507143Y-29691071D02*
X42364285Y-29619642D01*
X42364285Y-29619642D02*
X42292857Y-29476785D01*
X42292857Y-29476785D02*
X42292857Y-29333928D01*
X42292857Y-29333928D02*
X42364285Y-29191071D01*
X42364285Y-29191071D02*
X42507143Y-29119642D01*
X42507143Y-29119642D02*
X42864285Y-29119642D01*
X42864285Y-29119642D02*
X43007143Y-29048214D01*
X44364286Y-28691071D02*
X44364286Y-29905357D01*
X44364286Y-29905357D02*
X44292857Y-30048214D01*
X44292857Y-30048214D02*
X44221428Y-30119642D01*
X44221428Y-30119642D02*
X44078571Y-30191071D01*
X44078571Y-30191071D02*
X43864286Y-30191071D01*
X43864286Y-30191071D02*
X43721428Y-30119642D01*
X44364286Y-29619642D02*
X44221428Y-29691071D01*
X44221428Y-29691071D02*
X43935714Y-29691071D01*
X43935714Y-29691071D02*
X43792857Y-29619642D01*
X43792857Y-29619642D02*
X43721428Y-29548214D01*
X43721428Y-29548214D02*
X43650000Y-29405357D01*
X43650000Y-29405357D02*
X43650000Y-28976785D01*
X43650000Y-28976785D02*
X43721428Y-28833928D01*
X43721428Y-28833928D02*
X43792857Y-28762500D01*
X43792857Y-28762500D02*
X43935714Y-28691071D01*
X43935714Y-28691071D02*
X44221428Y-28691071D01*
X44221428Y-28691071D02*
X44364286Y-28762500D01*
X45078571Y-29691071D02*
X45078571Y-28691071D01*
X45078571Y-28833928D02*
X45150000Y-28762500D01*
X45150000Y-28762500D02*
X45292857Y-28691071D01*
X45292857Y-28691071D02*
X45507143Y-28691071D01*
X45507143Y-28691071D02*
X45650000Y-28762500D01*
X45650000Y-28762500D02*
X45721429Y-28905357D01*
X45721429Y-28905357D02*
X45721429Y-29691071D01*
X45721429Y-28905357D02*
X45792857Y-28762500D01*
X45792857Y-28762500D02*
X45935714Y-28691071D01*
X45935714Y-28691071D02*
X46150000Y-28691071D01*
X46150000Y-28691071D02*
X46292857Y-28762500D01*
X46292857Y-28762500D02*
X46364286Y-28905357D01*
X46364286Y-28905357D02*
X46364286Y-29691071D01*
X47721429Y-29691071D02*
X47721429Y-28905357D01*
X47721429Y-28905357D02*
X47650000Y-28762500D01*
X47650000Y-28762500D02*
X47507143Y-28691071D01*
X47507143Y-28691071D02*
X47221429Y-28691071D01*
X47221429Y-28691071D02*
X47078571Y-28762500D01*
X47721429Y-29619642D02*
X47578571Y-29691071D01*
X47578571Y-29691071D02*
X47221429Y-29691071D01*
X47221429Y-29691071D02*
X47078571Y-29619642D01*
X47078571Y-29619642D02*
X47007143Y-29476785D01*
X47007143Y-29476785D02*
X47007143Y-29333928D01*
X47007143Y-29333928D02*
X47078571Y-29191071D01*
X47078571Y-29191071D02*
X47221429Y-29119642D01*
X47221429Y-29119642D02*
X47578571Y-29119642D01*
X47578571Y-29119642D02*
X47721429Y-29048214D01*
X48221429Y-28691071D02*
X48792857Y-28691071D01*
X48435714Y-28191071D02*
X48435714Y-29476785D01*
X48435714Y-29476785D02*
X48507143Y-29619642D01*
X48507143Y-29619642D02*
X48650000Y-29691071D01*
X48650000Y-29691071D02*
X48792857Y-29691071D01*
X49292857Y-29691071D02*
X49292857Y-28691071D01*
X49292857Y-28191071D02*
X49221429Y-28262500D01*
X49221429Y-28262500D02*
X49292857Y-28333928D01*
X49292857Y-28333928D02*
X49364286Y-28262500D01*
X49364286Y-28262500D02*
X49292857Y-28191071D01*
X49292857Y-28191071D02*
X49292857Y-28333928D01*
X50650001Y-29619642D02*
X50507143Y-29691071D01*
X50507143Y-29691071D02*
X50221429Y-29691071D01*
X50221429Y-29691071D02*
X50078572Y-29619642D01*
X50078572Y-29619642D02*
X50007143Y-29548214D01*
X50007143Y-29548214D02*
X49935715Y-29405357D01*
X49935715Y-29405357D02*
X49935715Y-28976785D01*
X49935715Y-28976785D02*
X50007143Y-28833928D01*
X50007143Y-28833928D02*
X50078572Y-28762500D01*
X50078572Y-28762500D02*
X50221429Y-28691071D01*
X50221429Y-28691071D02*
X50507143Y-28691071D01*
X50507143Y-28691071D02*
X50650001Y-28762500D01*
X52050000Y-28191071D02*
X52978572Y-28191071D01*
X52978572Y-28191071D02*
X52478572Y-28762500D01*
X52478572Y-28762500D02*
X52692857Y-28762500D01*
X52692857Y-28762500D02*
X52835715Y-28833928D01*
X52835715Y-28833928D02*
X52907143Y-28905357D01*
X52907143Y-28905357D02*
X52978572Y-29048214D01*
X52978572Y-29048214D02*
X52978572Y-29405357D01*
X52978572Y-29405357D02*
X52907143Y-29548214D01*
X52907143Y-29548214D02*
X52835715Y-29619642D01*
X52835715Y-29619642D02*
X52692857Y-29691071D01*
X52692857Y-29691071D02*
X52264286Y-29691071D01*
X52264286Y-29691071D02*
X52121429Y-29619642D01*
X52121429Y-29619642D02*
X52050000Y-29548214D01*
X54264286Y-28191071D02*
X53978571Y-28191071D01*
X53978571Y-28191071D02*
X53835714Y-28262500D01*
X53835714Y-28262500D02*
X53764286Y-28333928D01*
X53764286Y-28333928D02*
X53621428Y-28548214D01*
X53621428Y-28548214D02*
X53550000Y-28833928D01*
X53550000Y-28833928D02*
X53550000Y-29405357D01*
X53550000Y-29405357D02*
X53621428Y-29548214D01*
X53621428Y-29548214D02*
X53692857Y-29619642D01*
X53692857Y-29619642D02*
X53835714Y-29691071D01*
X53835714Y-29691071D02*
X54121428Y-29691071D01*
X54121428Y-29691071D02*
X54264286Y-29619642D01*
X54264286Y-29619642D02*
X54335714Y-29548214D01*
X54335714Y-29548214D02*
X54407143Y-29405357D01*
X54407143Y-29405357D02*
X54407143Y-29048214D01*
X54407143Y-29048214D02*
X54335714Y-28905357D01*
X54335714Y-28905357D02*
X54264286Y-28833928D01*
X54264286Y-28833928D02*
X54121428Y-28762500D01*
X54121428Y-28762500D02*
X53835714Y-28762500D01*
X53835714Y-28762500D02*
X53692857Y-28833928D01*
X53692857Y-28833928D02*
X53621428Y-28905357D01*
X53621428Y-28905357D02*
X53550000Y-29048214D01*
X56807142Y-29691071D02*
X56307142Y-28976785D01*
X55949999Y-29691071D02*
X55949999Y-28191071D01*
X55949999Y-28191071D02*
X56521428Y-28191071D01*
X56521428Y-28191071D02*
X56664285Y-28262500D01*
X56664285Y-28262500D02*
X56735714Y-28333928D01*
X56735714Y-28333928D02*
X56807142Y-28476785D01*
X56807142Y-28476785D02*
X56807142Y-28691071D01*
X56807142Y-28691071D02*
X56735714Y-28833928D01*
X56735714Y-28833928D02*
X56664285Y-28905357D01*
X56664285Y-28905357D02*
X56521428Y-28976785D01*
X56521428Y-28976785D02*
X55949999Y-28976785D01*
X58235714Y-29691071D02*
X57378571Y-29691071D01*
X57807142Y-29691071D02*
X57807142Y-28191071D01*
X57807142Y-28191071D02*
X57664285Y-28405357D01*
X57664285Y-28405357D02*
X57521428Y-28548214D01*
X57521428Y-28548214D02*
X57378571Y-28619642D01*
X42264285Y-32121071D02*
X42264285Y-30621071D01*
X42264285Y-30621071D02*
X42621428Y-30621071D01*
X42621428Y-30621071D02*
X42835714Y-30692500D01*
X42835714Y-30692500D02*
X42978571Y-30835357D01*
X42978571Y-30835357D02*
X43050000Y-30978214D01*
X43050000Y-30978214D02*
X43121428Y-31263928D01*
X43121428Y-31263928D02*
X43121428Y-31478214D01*
X43121428Y-31478214D02*
X43050000Y-31763928D01*
X43050000Y-31763928D02*
X42978571Y-31906785D01*
X42978571Y-31906785D02*
X42835714Y-32049642D01*
X42835714Y-32049642D02*
X42621428Y-32121071D01*
X42621428Y-32121071D02*
X42264285Y-32121071D01*
X44407143Y-31121071D02*
X44407143Y-32121071D01*
X43764285Y-31121071D02*
X43764285Y-31906785D01*
X43764285Y-31906785D02*
X43835714Y-32049642D01*
X43835714Y-32049642D02*
X43978571Y-32121071D01*
X43978571Y-32121071D02*
X44192857Y-32121071D01*
X44192857Y-32121071D02*
X44335714Y-32049642D01*
X44335714Y-32049642D02*
X44407143Y-31978214D01*
X45121428Y-31121071D02*
X45121428Y-32621071D01*
X45121428Y-31192500D02*
X45264286Y-31121071D01*
X45264286Y-31121071D02*
X45550000Y-31121071D01*
X45550000Y-31121071D02*
X45692857Y-31192500D01*
X45692857Y-31192500D02*
X45764286Y-31263928D01*
X45764286Y-31263928D02*
X45835714Y-31406785D01*
X45835714Y-31406785D02*
X45835714Y-31835357D01*
X45835714Y-31835357D02*
X45764286Y-31978214D01*
X45764286Y-31978214D02*
X45692857Y-32049642D01*
X45692857Y-32049642D02*
X45550000Y-32121071D01*
X45550000Y-32121071D02*
X45264286Y-32121071D01*
X45264286Y-32121071D02*
X45121428Y-32049642D01*
X46692857Y-32121071D02*
X46550000Y-32049642D01*
X46550000Y-32049642D02*
X46478571Y-31906785D01*
X46478571Y-31906785D02*
X46478571Y-30621071D01*
X47835714Y-32049642D02*
X47692857Y-32121071D01*
X47692857Y-32121071D02*
X47407143Y-32121071D01*
X47407143Y-32121071D02*
X47264285Y-32049642D01*
X47264285Y-32049642D02*
X47192857Y-31906785D01*
X47192857Y-31906785D02*
X47192857Y-31335357D01*
X47192857Y-31335357D02*
X47264285Y-31192500D01*
X47264285Y-31192500D02*
X47407143Y-31121071D01*
X47407143Y-31121071D02*
X47692857Y-31121071D01*
X47692857Y-31121071D02*
X47835714Y-31192500D01*
X47835714Y-31192500D02*
X47907143Y-31335357D01*
X47907143Y-31335357D02*
X47907143Y-31478214D01*
X47907143Y-31478214D02*
X47192857Y-31621071D01*
X48407142Y-32121071D02*
X49192857Y-31121071D01*
X48407142Y-31121071D02*
X49192857Y-32121071D01*
X50664285Y-32121071D02*
X50664285Y-30621071D01*
X50664285Y-30621071D02*
X51164285Y-31692500D01*
X51164285Y-31692500D02*
X51664285Y-30621071D01*
X51664285Y-30621071D02*
X51664285Y-32121071D01*
X53021429Y-32121071D02*
X53021429Y-31335357D01*
X53021429Y-31335357D02*
X52950000Y-31192500D01*
X52950000Y-31192500D02*
X52807143Y-31121071D01*
X52807143Y-31121071D02*
X52521429Y-31121071D01*
X52521429Y-31121071D02*
X52378571Y-31192500D01*
X53021429Y-32049642D02*
X52878571Y-32121071D01*
X52878571Y-32121071D02*
X52521429Y-32121071D01*
X52521429Y-32121071D02*
X52378571Y-32049642D01*
X52378571Y-32049642D02*
X52307143Y-31906785D01*
X52307143Y-31906785D02*
X52307143Y-31763928D01*
X52307143Y-31763928D02*
X52378571Y-31621071D01*
X52378571Y-31621071D02*
X52521429Y-31549642D01*
X52521429Y-31549642D02*
X52878571Y-31549642D01*
X52878571Y-31549642D02*
X53021429Y-31478214D01*
X53521429Y-31121071D02*
X54092857Y-31121071D01*
X53735714Y-30621071D02*
X53735714Y-31906785D01*
X53735714Y-31906785D02*
X53807143Y-32049642D01*
X53807143Y-32049642D02*
X53950000Y-32121071D01*
X53950000Y-32121071D02*
X54092857Y-32121071D01*
X54592857Y-32121071D02*
X54592857Y-31121071D01*
X54592857Y-31406785D02*
X54664286Y-31263928D01*
X54664286Y-31263928D02*
X54735715Y-31192500D01*
X54735715Y-31192500D02*
X54878572Y-31121071D01*
X54878572Y-31121071D02*
X55021429Y-31121071D01*
X55521428Y-32121071D02*
X55521428Y-31121071D01*
X55521428Y-30621071D02*
X55450000Y-30692500D01*
X55450000Y-30692500D02*
X55521428Y-30763928D01*
X55521428Y-30763928D02*
X55592857Y-30692500D01*
X55592857Y-30692500D02*
X55521428Y-30621071D01*
X55521428Y-30621071D02*
X55521428Y-30763928D01*
X56092857Y-32121071D02*
X56878572Y-31121071D01*
X56092857Y-31121071D02*
X56878572Y-32121071D01*
X44728572Y-34551071D02*
X43871429Y-34551071D01*
X44300000Y-34551071D02*
X44300000Y-33051071D01*
X44300000Y-33051071D02*
X44157143Y-33265357D01*
X44157143Y-33265357D02*
X44014286Y-33408214D01*
X44014286Y-33408214D02*
X43871429Y-33479642D01*
X45442857Y-34551071D02*
X45728571Y-34551071D01*
X45728571Y-34551071D02*
X45871428Y-34479642D01*
X45871428Y-34479642D02*
X45942857Y-34408214D01*
X45942857Y-34408214D02*
X46085714Y-34193928D01*
X46085714Y-34193928D02*
X46157143Y-33908214D01*
X46157143Y-33908214D02*
X46157143Y-33336785D01*
X46157143Y-33336785D02*
X46085714Y-33193928D01*
X46085714Y-33193928D02*
X46014286Y-33122500D01*
X46014286Y-33122500D02*
X45871428Y-33051071D01*
X45871428Y-33051071D02*
X45585714Y-33051071D01*
X45585714Y-33051071D02*
X45442857Y-33122500D01*
X45442857Y-33122500D02*
X45371428Y-33193928D01*
X45371428Y-33193928D02*
X45300000Y-33336785D01*
X45300000Y-33336785D02*
X45300000Y-33693928D01*
X45300000Y-33693928D02*
X45371428Y-33836785D01*
X45371428Y-33836785D02*
X45442857Y-33908214D01*
X45442857Y-33908214D02*
X45585714Y-33979642D01*
X45585714Y-33979642D02*
X45871428Y-33979642D01*
X45871428Y-33979642D02*
X46014286Y-33908214D01*
X46014286Y-33908214D02*
X46085714Y-33836785D01*
X46085714Y-33836785D02*
X46157143Y-33693928D01*
X46657142Y-34551071D02*
X47442857Y-33551071D01*
X46657142Y-33551071D02*
X47442857Y-34551071D01*
X48800000Y-34551071D02*
X47942857Y-34551071D01*
X48371428Y-34551071D02*
X48371428Y-33051071D01*
X48371428Y-33051071D02*
X48228571Y-33265357D01*
X48228571Y-33265357D02*
X48085714Y-33408214D01*
X48085714Y-33408214D02*
X47942857Y-33479642D01*
X49657142Y-33693928D02*
X49514285Y-33622500D01*
X49514285Y-33622500D02*
X49442856Y-33551071D01*
X49442856Y-33551071D02*
X49371428Y-33408214D01*
X49371428Y-33408214D02*
X49371428Y-33336785D01*
X49371428Y-33336785D02*
X49442856Y-33193928D01*
X49442856Y-33193928D02*
X49514285Y-33122500D01*
X49514285Y-33122500D02*
X49657142Y-33051071D01*
X49657142Y-33051071D02*
X49942856Y-33051071D01*
X49942856Y-33051071D02*
X50085714Y-33122500D01*
X50085714Y-33122500D02*
X50157142Y-33193928D01*
X50157142Y-33193928D02*
X50228571Y-33336785D01*
X50228571Y-33336785D02*
X50228571Y-33408214D01*
X50228571Y-33408214D02*
X50157142Y-33551071D01*
X50157142Y-33551071D02*
X50085714Y-33622500D01*
X50085714Y-33622500D02*
X49942856Y-33693928D01*
X49942856Y-33693928D02*
X49657142Y-33693928D01*
X49657142Y-33693928D02*
X49514285Y-33765357D01*
X49514285Y-33765357D02*
X49442856Y-33836785D01*
X49442856Y-33836785D02*
X49371428Y-33979642D01*
X49371428Y-33979642D02*
X49371428Y-34265357D01*
X49371428Y-34265357D02*
X49442856Y-34408214D01*
X49442856Y-34408214D02*
X49514285Y-34479642D01*
X49514285Y-34479642D02*
X49657142Y-34551071D01*
X49657142Y-34551071D02*
X49942856Y-34551071D01*
X49942856Y-34551071D02*
X50085714Y-34479642D01*
X50085714Y-34479642D02*
X50157142Y-34408214D01*
X50157142Y-34408214D02*
X50228571Y-34265357D01*
X50228571Y-34265357D02*
X50228571Y-33979642D01*
X50228571Y-33979642D02*
X50157142Y-33836785D01*
X50157142Y-33836785D02*
X50085714Y-33765357D01*
X50085714Y-33765357D02*
X49942856Y-33693928D01*
X51771427Y-34551071D02*
X51771427Y-33551071D01*
X51771427Y-33693928D02*
X51842856Y-33622500D01*
X51842856Y-33622500D02*
X51985713Y-33551071D01*
X51985713Y-33551071D02*
X52199999Y-33551071D01*
X52199999Y-33551071D02*
X52342856Y-33622500D01*
X52342856Y-33622500D02*
X52414285Y-33765357D01*
X52414285Y-33765357D02*
X52414285Y-34551071D01*
X52414285Y-33765357D02*
X52485713Y-33622500D01*
X52485713Y-33622500D02*
X52628570Y-33551071D01*
X52628570Y-33551071D02*
X52842856Y-33551071D01*
X52842856Y-33551071D02*
X52985713Y-33622500D01*
X52985713Y-33622500D02*
X53057142Y-33765357D01*
X53057142Y-33765357D02*
X53057142Y-34551071D01*
X53771427Y-34551071D02*
X53771427Y-33551071D01*
X53771427Y-33693928D02*
X53842856Y-33622500D01*
X53842856Y-33622500D02*
X53985713Y-33551071D01*
X53985713Y-33551071D02*
X54199999Y-33551071D01*
X54199999Y-33551071D02*
X54342856Y-33622500D01*
X54342856Y-33622500D02*
X54414285Y-33765357D01*
X54414285Y-33765357D02*
X54414285Y-34551071D01*
X54414285Y-33765357D02*
X54485713Y-33622500D01*
X54485713Y-33622500D02*
X54628570Y-33551071D01*
X54628570Y-33551071D02*
X54842856Y-33551071D01*
X54842856Y-33551071D02*
X54985713Y-33622500D01*
X54985713Y-33622500D02*
X55057142Y-33765357D01*
X55057142Y-33765357D02*
X55057142Y-34551071D01*
X39528572Y-36909642D02*
X39742858Y-36981071D01*
X39742858Y-36981071D02*
X40100000Y-36981071D01*
X40100000Y-36981071D02*
X40242858Y-36909642D01*
X40242858Y-36909642D02*
X40314286Y-36838214D01*
X40314286Y-36838214D02*
X40385715Y-36695357D01*
X40385715Y-36695357D02*
X40385715Y-36552500D01*
X40385715Y-36552500D02*
X40314286Y-36409642D01*
X40314286Y-36409642D02*
X40242858Y-36338214D01*
X40242858Y-36338214D02*
X40100000Y-36266785D01*
X40100000Y-36266785D02*
X39814286Y-36195357D01*
X39814286Y-36195357D02*
X39671429Y-36123928D01*
X39671429Y-36123928D02*
X39600000Y-36052500D01*
X39600000Y-36052500D02*
X39528572Y-35909642D01*
X39528572Y-35909642D02*
X39528572Y-35766785D01*
X39528572Y-35766785D02*
X39600000Y-35623928D01*
X39600000Y-35623928D02*
X39671429Y-35552500D01*
X39671429Y-35552500D02*
X39814286Y-35481071D01*
X39814286Y-35481071D02*
X40171429Y-35481071D01*
X40171429Y-35481071D02*
X40385715Y-35552500D01*
X40814286Y-35981071D02*
X41385714Y-35981071D01*
X41028571Y-35481071D02*
X41028571Y-36766785D01*
X41028571Y-36766785D02*
X41100000Y-36909642D01*
X41100000Y-36909642D02*
X41242857Y-36981071D01*
X41242857Y-36981071D02*
X41385714Y-36981071D01*
X42528572Y-36981071D02*
X42528572Y-36195357D01*
X42528572Y-36195357D02*
X42457143Y-36052500D01*
X42457143Y-36052500D02*
X42314286Y-35981071D01*
X42314286Y-35981071D02*
X42028572Y-35981071D01*
X42028572Y-35981071D02*
X41885714Y-36052500D01*
X42528572Y-36909642D02*
X42385714Y-36981071D01*
X42385714Y-36981071D02*
X42028572Y-36981071D01*
X42028572Y-36981071D02*
X41885714Y-36909642D01*
X41885714Y-36909642D02*
X41814286Y-36766785D01*
X41814286Y-36766785D02*
X41814286Y-36623928D01*
X41814286Y-36623928D02*
X41885714Y-36481071D01*
X41885714Y-36481071D02*
X42028572Y-36409642D01*
X42028572Y-36409642D02*
X42385714Y-36409642D01*
X42385714Y-36409642D02*
X42528572Y-36338214D01*
X43885715Y-35981071D02*
X43885715Y-37195357D01*
X43885715Y-37195357D02*
X43814286Y-37338214D01*
X43814286Y-37338214D02*
X43742857Y-37409642D01*
X43742857Y-37409642D02*
X43600000Y-37481071D01*
X43600000Y-37481071D02*
X43385715Y-37481071D01*
X43385715Y-37481071D02*
X43242857Y-37409642D01*
X43885715Y-36909642D02*
X43742857Y-36981071D01*
X43742857Y-36981071D02*
X43457143Y-36981071D01*
X43457143Y-36981071D02*
X43314286Y-36909642D01*
X43314286Y-36909642D02*
X43242857Y-36838214D01*
X43242857Y-36838214D02*
X43171429Y-36695357D01*
X43171429Y-36695357D02*
X43171429Y-36266785D01*
X43171429Y-36266785D02*
X43242857Y-36123928D01*
X43242857Y-36123928D02*
X43314286Y-36052500D01*
X43314286Y-36052500D02*
X43457143Y-35981071D01*
X43457143Y-35981071D02*
X43742857Y-35981071D01*
X43742857Y-35981071D02*
X43885715Y-36052500D01*
X45242858Y-35981071D02*
X45242858Y-37195357D01*
X45242858Y-37195357D02*
X45171429Y-37338214D01*
X45171429Y-37338214D02*
X45100000Y-37409642D01*
X45100000Y-37409642D02*
X44957143Y-37481071D01*
X44957143Y-37481071D02*
X44742858Y-37481071D01*
X44742858Y-37481071D02*
X44600000Y-37409642D01*
X45242858Y-36909642D02*
X45100000Y-36981071D01*
X45100000Y-36981071D02*
X44814286Y-36981071D01*
X44814286Y-36981071D02*
X44671429Y-36909642D01*
X44671429Y-36909642D02*
X44600000Y-36838214D01*
X44600000Y-36838214D02*
X44528572Y-36695357D01*
X44528572Y-36695357D02*
X44528572Y-36266785D01*
X44528572Y-36266785D02*
X44600000Y-36123928D01*
X44600000Y-36123928D02*
X44671429Y-36052500D01*
X44671429Y-36052500D02*
X44814286Y-35981071D01*
X44814286Y-35981071D02*
X45100000Y-35981071D01*
X45100000Y-35981071D02*
X45242858Y-36052500D01*
X46528572Y-36909642D02*
X46385715Y-36981071D01*
X46385715Y-36981071D02*
X46100001Y-36981071D01*
X46100001Y-36981071D02*
X45957143Y-36909642D01*
X45957143Y-36909642D02*
X45885715Y-36766785D01*
X45885715Y-36766785D02*
X45885715Y-36195357D01*
X45885715Y-36195357D02*
X45957143Y-36052500D01*
X45957143Y-36052500D02*
X46100001Y-35981071D01*
X46100001Y-35981071D02*
X46385715Y-35981071D01*
X46385715Y-35981071D02*
X46528572Y-36052500D01*
X46528572Y-36052500D02*
X46600001Y-36195357D01*
X46600001Y-36195357D02*
X46600001Y-36338214D01*
X46600001Y-36338214D02*
X45885715Y-36481071D01*
X47242857Y-36981071D02*
X47242857Y-35981071D01*
X47242857Y-36266785D02*
X47314286Y-36123928D01*
X47314286Y-36123928D02*
X47385715Y-36052500D01*
X47385715Y-36052500D02*
X47528572Y-35981071D01*
X47528572Y-35981071D02*
X47671429Y-35981071D01*
X49071428Y-36981071D02*
X49071428Y-35481071D01*
X49071428Y-35481071D02*
X49642857Y-35481071D01*
X49642857Y-35481071D02*
X49785714Y-35552500D01*
X49785714Y-35552500D02*
X49857143Y-35623928D01*
X49857143Y-35623928D02*
X49928571Y-35766785D01*
X49928571Y-35766785D02*
X49928571Y-35981071D01*
X49928571Y-35981071D02*
X49857143Y-36123928D01*
X49857143Y-36123928D02*
X49785714Y-36195357D01*
X49785714Y-36195357D02*
X49642857Y-36266785D01*
X49642857Y-36266785D02*
X49071428Y-36266785D01*
X50571428Y-36981071D02*
X50571428Y-35981071D01*
X50571428Y-36266785D02*
X50642857Y-36123928D01*
X50642857Y-36123928D02*
X50714286Y-36052500D01*
X50714286Y-36052500D02*
X50857143Y-35981071D01*
X50857143Y-35981071D02*
X51000000Y-35981071D01*
X51714285Y-36981071D02*
X51571428Y-36909642D01*
X51571428Y-36909642D02*
X51499999Y-36838214D01*
X51499999Y-36838214D02*
X51428571Y-36695357D01*
X51428571Y-36695357D02*
X51428571Y-36266785D01*
X51428571Y-36266785D02*
X51499999Y-36123928D01*
X51499999Y-36123928D02*
X51571428Y-36052500D01*
X51571428Y-36052500D02*
X51714285Y-35981071D01*
X51714285Y-35981071D02*
X51928571Y-35981071D01*
X51928571Y-35981071D02*
X52071428Y-36052500D01*
X52071428Y-36052500D02*
X52142857Y-36123928D01*
X52142857Y-36123928D02*
X52214285Y-36266785D01*
X52214285Y-36266785D02*
X52214285Y-36695357D01*
X52214285Y-36695357D02*
X52142857Y-36838214D01*
X52142857Y-36838214D02*
X52071428Y-36909642D01*
X52071428Y-36909642D02*
X51928571Y-36981071D01*
X51928571Y-36981071D02*
X51714285Y-36981071D01*
X52642857Y-35981071D02*
X53214285Y-35981071D01*
X52857142Y-36981071D02*
X52857142Y-35695357D01*
X52857142Y-35695357D02*
X52928571Y-35552500D01*
X52928571Y-35552500D02*
X53071428Y-35481071D01*
X53071428Y-35481071D02*
X53214285Y-35481071D01*
X53714285Y-36981071D02*
X53714285Y-35981071D01*
X53714285Y-35481071D02*
X53642857Y-35552500D01*
X53642857Y-35552500D02*
X53714285Y-35623928D01*
X53714285Y-35623928D02*
X53785714Y-35552500D01*
X53785714Y-35552500D02*
X53714285Y-35481071D01*
X53714285Y-35481071D02*
X53714285Y-35623928D01*
X54642857Y-36981071D02*
X54500000Y-36909642D01*
X54500000Y-36909642D02*
X54428571Y-36766785D01*
X54428571Y-36766785D02*
X54428571Y-35481071D01*
X55785714Y-36909642D02*
X55642857Y-36981071D01*
X55642857Y-36981071D02*
X55357143Y-36981071D01*
X55357143Y-36981071D02*
X55214285Y-36909642D01*
X55214285Y-36909642D02*
X55142857Y-36766785D01*
X55142857Y-36766785D02*
X55142857Y-36195357D01*
X55142857Y-36195357D02*
X55214285Y-36052500D01*
X55214285Y-36052500D02*
X55357143Y-35981071D01*
X55357143Y-35981071D02*
X55642857Y-35981071D01*
X55642857Y-35981071D02*
X55785714Y-36052500D01*
X55785714Y-36052500D02*
X55857143Y-36195357D01*
X55857143Y-36195357D02*
X55857143Y-36338214D01*
X55857143Y-36338214D02*
X55142857Y-36481071D01*
X57185714Y-35481071D02*
X57685714Y-36981071D01*
X57685714Y-36981071D02*
X58185714Y-35481071D01*
X58614285Y-35623928D02*
X58685713Y-35552500D01*
X58685713Y-35552500D02*
X58828571Y-35481071D01*
X58828571Y-35481071D02*
X59185713Y-35481071D01*
X59185713Y-35481071D02*
X59328571Y-35552500D01*
X59328571Y-35552500D02*
X59399999Y-35623928D01*
X59399999Y-35623928D02*
X59471428Y-35766785D01*
X59471428Y-35766785D02*
X59471428Y-35909642D01*
X59471428Y-35909642D02*
X59399999Y-36123928D01*
X59399999Y-36123928D02*
X58542856Y-36981071D01*
X58542856Y-36981071D02*
X59471428Y-36981071D01*
X44571430Y-38053928D02*
X44642858Y-37982500D01*
X44642858Y-37982500D02*
X44785716Y-37911071D01*
X44785716Y-37911071D02*
X45142858Y-37911071D01*
X45142858Y-37911071D02*
X45285716Y-37982500D01*
X45285716Y-37982500D02*
X45357144Y-38053928D01*
X45357144Y-38053928D02*
X45428573Y-38196785D01*
X45428573Y-38196785D02*
X45428573Y-38339642D01*
X45428573Y-38339642D02*
X45357144Y-38553928D01*
X45357144Y-38553928D02*
X44500001Y-39411071D01*
X44500001Y-39411071D02*
X45428573Y-39411071D01*
X46357144Y-37911071D02*
X46500001Y-37911071D01*
X46500001Y-37911071D02*
X46642858Y-37982500D01*
X46642858Y-37982500D02*
X46714287Y-38053928D01*
X46714287Y-38053928D02*
X46785715Y-38196785D01*
X46785715Y-38196785D02*
X46857144Y-38482500D01*
X46857144Y-38482500D02*
X46857144Y-38839642D01*
X46857144Y-38839642D02*
X46785715Y-39125357D01*
X46785715Y-39125357D02*
X46714287Y-39268214D01*
X46714287Y-39268214D02*
X46642858Y-39339642D01*
X46642858Y-39339642D02*
X46500001Y-39411071D01*
X46500001Y-39411071D02*
X46357144Y-39411071D01*
X46357144Y-39411071D02*
X46214287Y-39339642D01*
X46214287Y-39339642D02*
X46142858Y-39268214D01*
X46142858Y-39268214D02*
X46071429Y-39125357D01*
X46071429Y-39125357D02*
X46000001Y-38839642D01*
X46000001Y-38839642D02*
X46000001Y-38482500D01*
X46000001Y-38482500D02*
X46071429Y-38196785D01*
X46071429Y-38196785D02*
X46142858Y-38053928D01*
X46142858Y-38053928D02*
X46214287Y-37982500D01*
X46214287Y-37982500D02*
X46357144Y-37911071D01*
X47428572Y-38053928D02*
X47500000Y-37982500D01*
X47500000Y-37982500D02*
X47642858Y-37911071D01*
X47642858Y-37911071D02*
X48000000Y-37911071D01*
X48000000Y-37911071D02*
X48142858Y-37982500D01*
X48142858Y-37982500D02*
X48214286Y-38053928D01*
X48214286Y-38053928D02*
X48285715Y-38196785D01*
X48285715Y-38196785D02*
X48285715Y-38339642D01*
X48285715Y-38339642D02*
X48214286Y-38553928D01*
X48214286Y-38553928D02*
X47357143Y-39411071D01*
X47357143Y-39411071D02*
X48285715Y-39411071D01*
X48785714Y-37911071D02*
X49714286Y-37911071D01*
X49714286Y-37911071D02*
X49214286Y-38482500D01*
X49214286Y-38482500D02*
X49428571Y-38482500D01*
X49428571Y-38482500D02*
X49571429Y-38553928D01*
X49571429Y-38553928D02*
X49642857Y-38625357D01*
X49642857Y-38625357D02*
X49714286Y-38768214D01*
X49714286Y-38768214D02*
X49714286Y-39125357D01*
X49714286Y-39125357D02*
X49642857Y-39268214D01*
X49642857Y-39268214D02*
X49571429Y-39339642D01*
X49571429Y-39339642D02*
X49428571Y-39411071D01*
X49428571Y-39411071D02*
X49000000Y-39411071D01*
X49000000Y-39411071D02*
X48857143Y-39339642D01*
X48857143Y-39339642D02*
X48785714Y-39268214D01*
X50357142Y-38839642D02*
X51500000Y-38839642D01*
X52500000Y-37911071D02*
X52642857Y-37911071D01*
X52642857Y-37911071D02*
X52785714Y-37982500D01*
X52785714Y-37982500D02*
X52857143Y-38053928D01*
X52857143Y-38053928D02*
X52928571Y-38196785D01*
X52928571Y-38196785D02*
X53000000Y-38482500D01*
X53000000Y-38482500D02*
X53000000Y-38839642D01*
X53000000Y-38839642D02*
X52928571Y-39125357D01*
X52928571Y-39125357D02*
X52857143Y-39268214D01*
X52857143Y-39268214D02*
X52785714Y-39339642D01*
X52785714Y-39339642D02*
X52642857Y-39411071D01*
X52642857Y-39411071D02*
X52500000Y-39411071D01*
X52500000Y-39411071D02*
X52357143Y-39339642D01*
X52357143Y-39339642D02*
X52285714Y-39268214D01*
X52285714Y-39268214D02*
X52214285Y-39125357D01*
X52214285Y-39125357D02*
X52142857Y-38839642D01*
X52142857Y-38839642D02*
X52142857Y-38482500D01*
X52142857Y-38482500D02*
X52214285Y-38196785D01*
X52214285Y-38196785D02*
X52285714Y-38053928D01*
X52285714Y-38053928D02*
X52357143Y-37982500D01*
X52357143Y-37982500D02*
X52500000Y-37911071D01*
X53499999Y-37911071D02*
X54428571Y-37911071D01*
X54428571Y-37911071D02*
X53928571Y-38482500D01*
X53928571Y-38482500D02*
X54142856Y-38482500D01*
X54142856Y-38482500D02*
X54285714Y-38553928D01*
X54285714Y-38553928D02*
X54357142Y-38625357D01*
X54357142Y-38625357D02*
X54428571Y-38768214D01*
X54428571Y-38768214D02*
X54428571Y-39125357D01*
X54428571Y-39125357D02*
X54357142Y-39268214D01*
X54357142Y-39268214D02*
X54285714Y-39339642D01*
X54285714Y-39339642D02*
X54142856Y-39411071D01*
X54142856Y-39411071D02*
X53714285Y-39411071D01*
X53714285Y-39411071D02*
X53571428Y-39339642D01*
X53571428Y-39339642D02*
X53499999Y-39268214D01*
D10*
X3633333Y23932620D02*
X3300000Y24408810D01*
X3061905Y23932620D02*
X3061905Y24932620D01*
X3061905Y24932620D02*
X3442857Y24932620D01*
X3442857Y24932620D02*
X3538095Y24885000D01*
X3538095Y24885000D02*
X3585714Y24837381D01*
X3585714Y24837381D02*
X3633333Y24742143D01*
X3633333Y24742143D02*
X3633333Y24599286D01*
X3633333Y24599286D02*
X3585714Y24504048D01*
X3585714Y24504048D02*
X3538095Y24456429D01*
X3538095Y24456429D02*
X3442857Y24408810D01*
X3442857Y24408810D02*
X3061905Y24408810D01*
X4490476Y24599286D02*
X4490476Y23932620D01*
X4252381Y24980239D02*
X4014286Y24265953D01*
X4014286Y24265953D02*
X4633333Y24265953D01*
X1093333Y23932620D02*
X760000Y24408810D01*
X521905Y23932620D02*
X521905Y24932620D01*
X521905Y24932620D02*
X902857Y24932620D01*
X902857Y24932620D02*
X998095Y24885000D01*
X998095Y24885000D02*
X1045714Y24837381D01*
X1045714Y24837381D02*
X1093333Y24742143D01*
X1093333Y24742143D02*
X1093333Y24599286D01*
X1093333Y24599286D02*
X1045714Y24504048D01*
X1045714Y24504048D02*
X998095Y24456429D01*
X998095Y24456429D02*
X902857Y24408810D01*
X902857Y24408810D02*
X521905Y24408810D01*
X1426667Y24932620D02*
X2045714Y24932620D01*
X2045714Y24932620D02*
X1712381Y24551667D01*
X1712381Y24551667D02*
X1855238Y24551667D01*
X1855238Y24551667D02*
X1950476Y24504048D01*
X1950476Y24504048D02*
X1998095Y24456429D01*
X1998095Y24456429D02*
X2045714Y24361191D01*
X2045714Y24361191D02*
X2045714Y24123096D01*
X2045714Y24123096D02*
X1998095Y24027858D01*
X1998095Y24027858D02*
X1950476Y23980239D01*
X1950476Y23980239D02*
X1855238Y23932620D01*
X1855238Y23932620D02*
X1569524Y23932620D01*
X1569524Y23932620D02*
X1474286Y23980239D01*
X1474286Y23980239D02*
X1426667Y24027858D01*
D11*
X-2535715Y-34551071D02*
X-3250001Y-34551071D01*
X-3250001Y-34551071D02*
X-3250001Y-33051071D01*
X-1464286Y-34479642D02*
X-1607143Y-34551071D01*
X-1607143Y-34551071D02*
X-1892857Y-34551071D01*
X-1892857Y-34551071D02*
X-2035715Y-34479642D01*
X-2035715Y-34479642D02*
X-2107143Y-34336785D01*
X-2107143Y-34336785D02*
X-2107143Y-33765357D01*
X-2107143Y-33765357D02*
X-2035715Y-33622500D01*
X-2035715Y-33622500D02*
X-1892857Y-33551071D01*
X-1892857Y-33551071D02*
X-1607143Y-33551071D01*
X-1607143Y-33551071D02*
X-1464286Y-33622500D01*
X-1464286Y-33622500D02*
X-1392857Y-33765357D01*
X-1392857Y-33765357D02*
X-1392857Y-33908214D01*
X-1392857Y-33908214D02*
X-2107143Y-34051071D01*
X-964286Y-33551071D02*
X-392858Y-33551071D01*
X-750001Y-34551071D02*
X-750001Y-33265357D01*
X-750001Y-33265357D02*
X-678572Y-33122500D01*
X-678572Y-33122500D02*
X-535715Y-33051071D01*
X-535715Y-33051071D02*
X-392858Y-33051071D01*
X-107143Y-33551071D02*
X464285Y-33551071D01*
X107142Y-33051071D02*
X107142Y-34336785D01*
X107142Y-34336785D02*
X178571Y-34479642D01*
X178571Y-34479642D02*
X321428Y-34551071D01*
X321428Y-34551071D02*
X464285Y-34551071D01*
D10*
%TO.C,SW17*%
X16700000Y16400000D02*
X16700000Y15682000D01*
X16700000Y15682000D02*
X16700000Y15682000D01*
X16700000Y12380000D02*
X16700000Y11800000D01*
X16725000Y16425000D02*
X19275000Y16425000D01*
X16725000Y11775000D02*
X21275000Y11775000D01*
X21280000Y12500000D02*
X21280000Y11800000D01*
X21575000Y18625000D02*
X26275000Y18625000D01*
X22500000Y13975000D02*
X26275000Y13975000D01*
X26275000Y18625000D02*
X26275000Y17968000D01*
X26275000Y14666000D02*
X26275000Y13975000D01*
X22500000Y13970000D02*
G75*
G03*
X21280000Y12550000I100000J-1320000D01*
G01*
X19200000Y16430001D02*
G75*
G03*
X21569999Y18600000I100000J2269999D01*
G01*
%TO.C,SW29*%
X16700000Y-1600000D02*
X16700000Y-2318000D01*
X16700000Y-2318000D02*
X16700000Y-2318000D01*
X16700000Y-5620000D02*
X16700000Y-6200000D01*
X16725000Y-1575000D02*
X19275000Y-1575000D01*
X16725000Y-6225000D02*
X21275000Y-6225000D01*
X21280000Y-5500000D02*
X21280000Y-6200000D01*
X21575000Y625000D02*
X26275000Y625000D01*
X22500000Y-4025000D02*
X26275000Y-4025000D01*
X26275000Y625000D02*
X26275000Y-32000D01*
X26275000Y-3334000D02*
X26275000Y-4025000D01*
X22500000Y-4030000D02*
G75*
G03*
X21280000Y-5450000I100000J-1320000D01*
G01*
X19200000Y-1569999D02*
G75*
G03*
X21569999Y600000I100000J2269999D01*
G01*
%TO.C,D27*%
X54300000Y7250000D02*
X54300000Y5750000D01*
X54300000Y5750000D02*
X59700000Y5750000D01*
X56500000Y7000000D02*
X56500000Y6000000D01*
X56600000Y6500000D02*
X57500000Y7000000D01*
X57500000Y7000000D02*
X57500000Y6000000D01*
X57500000Y6000000D02*
X56600000Y6500000D01*
X59700000Y7250000D02*
X54300000Y7250000D01*
X59700000Y7250000D02*
X59700000Y5750000D01*
%TO.C,D18*%
X-2700000Y23250000D02*
X-2700000Y21750000D01*
X-2700000Y21750000D02*
X2700000Y21750000D01*
X-500000Y23000000D02*
X-500000Y22000000D01*
X-400000Y22500000D02*
X500000Y23000000D01*
X500000Y23000000D02*
X500000Y22000000D01*
X500000Y22000000D02*
X-400000Y22500000D01*
X2700000Y23250000D02*
X-2700000Y23250000D01*
X2700000Y23250000D02*
X2700000Y21750000D01*
%TO.C,SW15*%
X54700000Y16400000D02*
X54700000Y15682000D01*
X54700000Y15682000D02*
X54700000Y15682000D01*
X54700000Y12380000D02*
X54700000Y11800000D01*
X54725000Y16425000D02*
X57275000Y16425000D01*
X54725000Y11775000D02*
X59275000Y11775000D01*
X59280000Y12500000D02*
X59280000Y11800000D01*
X59575000Y18625000D02*
X64275000Y18625000D01*
X60500000Y13975000D02*
X64275000Y13975000D01*
X64275000Y18625000D02*
X64275000Y17968000D01*
X64275000Y14666000D02*
X64275000Y13975000D01*
X60500000Y13970000D02*
G75*
G03*
X59280000Y12550000I100000J-1320000D01*
G01*
X57200000Y16430001D02*
G75*
G03*
X59569999Y18600000I100000J2269999D01*
G01*
%TO.C,D15*%
X54300000Y25250000D02*
X54300000Y23750000D01*
X54300000Y23750000D02*
X59700000Y23750000D01*
X56500000Y25000000D02*
X56500000Y24000000D01*
X56600000Y24500000D02*
X57500000Y25000000D01*
X57500000Y25000000D02*
X57500000Y24000000D01*
X57500000Y24000000D02*
X56600000Y24500000D01*
X59700000Y25250000D02*
X54300000Y25250000D01*
X59700000Y25250000D02*
X59700000Y23750000D01*
%TO.C,D52*%
X25800000Y-30750000D02*
X25800000Y-32250000D01*
X25800000Y-32250000D02*
X31200000Y-32250000D01*
X28000000Y-31000000D02*
X28000000Y-32000000D01*
X28100000Y-31500000D02*
X29000000Y-31000000D01*
X29000000Y-31000000D02*
X29000000Y-32000000D01*
X29000000Y-32000000D02*
X28100000Y-31500000D01*
X31200000Y-30750000D02*
X25800000Y-30750000D01*
X31200000Y-30750000D02*
X31200000Y-32250000D01*
%TO.C,D16*%
X35300000Y28250000D02*
X35300000Y26750000D01*
X35300000Y26750000D02*
X40700000Y26750000D01*
X37500000Y28000000D02*
X37500000Y27000000D01*
X37600000Y27500000D02*
X38500000Y28000000D01*
X38500000Y28000000D02*
X38500000Y27000000D01*
X38500000Y27000000D02*
X37600000Y27500000D01*
X40700000Y28250000D02*
X35300000Y28250000D01*
X40700000Y28250000D02*
X40700000Y26750000D01*
%TO.C,SW26*%
X73700000Y-10600000D02*
X73700000Y-11318000D01*
X73700000Y-11318000D02*
X73700000Y-11318000D01*
X73700000Y-14620000D02*
X73700000Y-15200000D01*
X73725000Y-10575000D02*
X76275000Y-10575000D01*
X73725000Y-15225000D02*
X78275000Y-15225000D01*
X78280000Y-14500000D02*
X78280000Y-15200000D01*
X78575000Y-8375000D02*
X83275000Y-8375000D01*
X79500000Y-13025000D02*
X83275000Y-13025000D01*
X83275000Y-8375000D02*
X83275000Y-9032000D01*
X83275000Y-12334000D02*
X83275000Y-13025000D01*
X79500000Y-13030000D02*
G75*
G03*
X78280000Y-14450000I100000J-1320000D01*
G01*
X76200000Y-10569999D02*
G75*
G03*
X78569999Y-8400000I100000J2269999D01*
G01*
%TO.C,SW38*%
X73700000Y-28600000D02*
X73700000Y-29318000D01*
X73700000Y-29318000D02*
X73700000Y-29318000D01*
X73700000Y-32620000D02*
X73700000Y-33200000D01*
X73725000Y-28575000D02*
X76275000Y-28575000D01*
X73725000Y-33225000D02*
X78275000Y-33225000D01*
X78280000Y-32500000D02*
X78280000Y-33200000D01*
X78575000Y-26375000D02*
X83275000Y-26375000D01*
X79500000Y-31025000D02*
X83275000Y-31025000D01*
X83275000Y-26375000D02*
X83275000Y-27032000D01*
X83275000Y-30334000D02*
X83275000Y-31025000D01*
X79500000Y-31030000D02*
G75*
G03*
X78280000Y-32450000I100000J-1320000D01*
G01*
X76200000Y-28569999D02*
G75*
G03*
X78569999Y-26400000I100000J2269999D01*
G01*
%TO.C,D54*%
X-15593685Y-34918685D02*
X-15080655Y-36328224D01*
X-15080655Y-36328224D02*
X-10006315Y-34481315D01*
X-13440856Y-34401164D02*
X-13098836Y-35340856D01*
X-13175877Y-34836808D02*
X-12501164Y-34059144D01*
X-12501164Y-34059144D02*
X-12159144Y-34998836D01*
X-12159144Y-34998836D02*
X-13175877Y-34836808D01*
X-10519345Y-33071776D02*
X-15593685Y-34918685D01*
X-10519345Y-33071776D02*
X-10006315Y-34481315D01*
%TO.C,SW27*%
X54700000Y-1600000D02*
X54700000Y-2318000D01*
X54700000Y-2318000D02*
X54700000Y-2318000D01*
X54700000Y-5620000D02*
X54700000Y-6200000D01*
X54725000Y-1575000D02*
X57275000Y-1575000D01*
X54725000Y-6225000D02*
X59275000Y-6225000D01*
X59280000Y-5500000D02*
X59280000Y-6200000D01*
X59575000Y625000D02*
X64275000Y625000D01*
X60500000Y-4025000D02*
X64275000Y-4025000D01*
X64275000Y625000D02*
X64275000Y-32000D01*
X64275000Y-3334000D02*
X64275000Y-4025000D01*
X60500000Y-4030000D02*
G75*
G03*
X59280000Y-5450000I100000J-1320000D01*
G01*
X57200000Y-1569999D02*
G75*
G03*
X59569999Y600000I100000J2269999D01*
G01*
%TO.C,D53*%
X6800000Y-30750000D02*
X6800000Y-32250000D01*
X6800000Y-32250000D02*
X12200000Y-32250000D01*
X9000000Y-31000000D02*
X9000000Y-32000000D01*
X9100000Y-31500000D02*
X10000000Y-31000000D01*
X10000000Y-31000000D02*
X10000000Y-32000000D01*
X10000000Y-32000000D02*
X9100000Y-31500000D01*
X12200000Y-30750000D02*
X6800000Y-30750000D01*
X12200000Y-30750000D02*
X12200000Y-32250000D01*
%TO.C,D39*%
X54300000Y-10750000D02*
X54300000Y-12250000D01*
X54300000Y-12250000D02*
X59700000Y-12250000D01*
X56500000Y-11000000D02*
X56500000Y-12000000D01*
X56600000Y-11500000D02*
X57500000Y-11000000D01*
X57500000Y-11000000D02*
X57500000Y-12000000D01*
X57500000Y-12000000D02*
X56600000Y-11500000D01*
X59700000Y-10750000D02*
X54300000Y-10750000D01*
X59700000Y-10750000D02*
X59700000Y-12250000D01*
%TO.C,SW52*%
X26200000Y-39600000D02*
X26200000Y-40318000D01*
X26200000Y-40318000D02*
X26200000Y-40318000D01*
X26200000Y-43620000D02*
X26200000Y-44200000D01*
X26225000Y-39575000D02*
X28775000Y-39575000D01*
X26225000Y-44225000D02*
X30775000Y-44225000D01*
X30780000Y-43500000D02*
X30780000Y-44200000D01*
X31075000Y-37375000D02*
X35775000Y-37375000D01*
X32000000Y-42025000D02*
X35775000Y-42025000D01*
X35775000Y-37375000D02*
X35775000Y-38032000D01*
X35775000Y-41334000D02*
X35775000Y-42025000D01*
X32000000Y-42030000D02*
G75*
G03*
X30780000Y-43450000I100000J-1320000D01*
G01*
X28700000Y-39569999D02*
G75*
G03*
X31069999Y-37400000I100000J2269999D01*
G01*
%TO.C,D42*%
X-2700000Y-12750000D02*
X-2700000Y-14250000D01*
X-2700000Y-14250000D02*
X2700000Y-14250000D01*
X-500000Y-13000000D02*
X-500000Y-14000000D01*
X-400000Y-13500000D02*
X500000Y-13000000D01*
X500000Y-13000000D02*
X500000Y-14000000D01*
X500000Y-14000000D02*
X-400000Y-13500000D01*
X2700000Y-12750000D02*
X-2700000Y-12750000D01*
X2700000Y-12750000D02*
X2700000Y-14250000D01*
%TO.C,D30*%
X-2700000Y5250000D02*
X-2700000Y3750000D01*
X-2700000Y3750000D02*
X2700000Y3750000D01*
X-500000Y5000000D02*
X-500000Y4000000D01*
X-400000Y4500000D02*
X500000Y5000000D01*
X500000Y5000000D02*
X500000Y4000000D01*
X500000Y4000000D02*
X-400000Y4500000D01*
X2700000Y5250000D02*
X-2700000Y5250000D01*
X2700000Y5250000D02*
X2700000Y3750000D01*
%TO.C,D28*%
X35300000Y10250000D02*
X35300000Y8750000D01*
X35300000Y8750000D02*
X40700000Y8750000D01*
X37500000Y10000000D02*
X37500000Y9000000D01*
X37600000Y9500000D02*
X38500000Y10000000D01*
X38500000Y10000000D02*
X38500000Y9000000D01*
X38500000Y9000000D02*
X37600000Y9500000D01*
X40700000Y10250000D02*
X35300000Y10250000D01*
X40700000Y10250000D02*
X40700000Y8750000D01*
%TO.C,SW28*%
X35700000Y1400000D02*
X35700000Y682000D01*
X35700000Y682000D02*
X35700000Y682000D01*
X35700000Y-2620000D02*
X35700000Y-3200000D01*
X35725000Y1425000D02*
X38275000Y1425000D01*
X35725000Y-3225000D02*
X40275000Y-3225000D01*
X40280000Y-2500000D02*
X40280000Y-3200000D01*
X40575000Y3625000D02*
X45275000Y3625000D01*
X41500000Y-1025000D02*
X45275000Y-1025000D01*
X45275000Y3625000D02*
X45275000Y2968000D01*
X45275000Y-334000D02*
X45275000Y-1025000D01*
X41500000Y-1030000D02*
G75*
G03*
X40280000Y-2450000I100000J-1320000D01*
G01*
X38200000Y1430001D02*
G75*
G03*
X40569999Y3600000I100000J2269999D01*
G01*
%TO.C,SW42*%
X-2300000Y-21600000D02*
X-2300000Y-22318000D01*
X-2300000Y-22318000D02*
X-2300000Y-22318000D01*
X-2300000Y-25620000D02*
X-2300000Y-26200000D01*
X-2275000Y-21575000D02*
X275000Y-21575000D01*
X-2275000Y-26225000D02*
X2275000Y-26225000D01*
X2280000Y-25500000D02*
X2280000Y-26200000D01*
X2575000Y-19375000D02*
X7275000Y-19375000D01*
X3500000Y-24025000D02*
X7275000Y-24025000D01*
X7275000Y-19375000D02*
X7275000Y-20032000D01*
X7275000Y-23334000D02*
X7275000Y-24025000D01*
X3500000Y-24030000D02*
G75*
G03*
X2280000Y-25450000I100000J-1320000D01*
G01*
X200000Y-21569999D02*
G75*
G03*
X2569999Y-19400000I100000J2269999D01*
G01*
%TO.C,SW14*%
X73700000Y7400000D02*
X73700000Y6682000D01*
X73700000Y6682000D02*
X73700000Y6682000D01*
X73700000Y3380000D02*
X73700000Y2800000D01*
X73725000Y7425000D02*
X76275000Y7425000D01*
X73725000Y2775000D02*
X78275000Y2775000D01*
X78280000Y3500000D02*
X78280000Y2800000D01*
X78575000Y9625000D02*
X83275000Y9625000D01*
X79500000Y4975000D02*
X83275000Y4975000D01*
X83275000Y9625000D02*
X83275000Y8968000D01*
X83275000Y5666000D02*
X83275000Y4975000D01*
X79500000Y4970000D02*
G75*
G03*
X78280000Y3550000I100000J-1320000D01*
G01*
X76200000Y7430001D02*
G75*
G03*
X78569999Y9600000I100000J2269999D01*
G01*
%TO.C,SW30*%
X-2300000Y-3600000D02*
X-2300000Y-4318000D01*
X-2300000Y-4318000D02*
X-2300000Y-4318000D01*
X-2300000Y-7620000D02*
X-2300000Y-8200000D01*
X-2275000Y-3575000D02*
X275000Y-3575000D01*
X-2275000Y-8225000D02*
X2275000Y-8225000D01*
X2280000Y-7500000D02*
X2280000Y-8200000D01*
X2575000Y-1375000D02*
X7275000Y-1375000D01*
X3500000Y-6025000D02*
X7275000Y-6025000D01*
X7275000Y-1375000D02*
X7275000Y-2032000D01*
X7275000Y-5334000D02*
X7275000Y-6025000D01*
X3500000Y-6030000D02*
G75*
G03*
X2280000Y-7450000I100000J-1320000D01*
G01*
X200000Y-3569999D02*
G75*
G03*
X2569999Y-1400000I100000J2269999D01*
G01*
D12*
%TO.C,J1*%
X5080000Y28365000D02*
X5080000Y29000000D01*
X-3810000Y25000000D02*
X-5080000Y25000000D01*
X-5080000Y25000000D02*
X-5080000Y29000000D01*
D10*
%TO.C,D26*%
X73300000Y-1750000D02*
X73300000Y-3250000D01*
X73300000Y-3250000D02*
X78700000Y-3250000D01*
X75500000Y-2000000D02*
X75500000Y-3000000D01*
X75600000Y-2500000D02*
X76500000Y-2000000D01*
X76500000Y-2000000D02*
X76500000Y-3000000D01*
X76500000Y-3000000D02*
X75600000Y-2500000D01*
X78700000Y-1750000D02*
X73300000Y-1750000D01*
X78700000Y-1750000D02*
X78700000Y-3250000D01*
%TO.C,SW53*%
X7199996Y-39600000D02*
X7199996Y-40318000D01*
X7199996Y-40318000D02*
X7199996Y-40318000D01*
X7199996Y-43620000D02*
X7199996Y-44200000D01*
X7224996Y-39575000D02*
X9774996Y-39575000D01*
X7224996Y-44225000D02*
X11774996Y-44225000D01*
X11779996Y-43500000D02*
X11779996Y-44200000D01*
X12074996Y-37375000D02*
X16774996Y-37375000D01*
X12999996Y-42025000D02*
X16774996Y-42025000D01*
X16774996Y-37375000D02*
X16774996Y-38032000D01*
X16774996Y-41334000D02*
X16774996Y-42025000D01*
X12999996Y-42030000D02*
G75*
G03*
X11779996Y-43450000I100000J-1320000D01*
G01*
X9699996Y-39569999D02*
G75*
G03*
X12069995Y-37400000I100000J2269999D01*
G01*
%TO.C,SW18*%
X-2300000Y14400000D02*
X-2300000Y13682000D01*
X-2300000Y13682000D02*
X-2300000Y13682000D01*
X-2300000Y10380000D02*
X-2300000Y9800000D01*
X-2275000Y14425000D02*
X275000Y14425000D01*
X-2275000Y9775000D02*
X2275000Y9775000D01*
X2280000Y10500000D02*
X2280000Y9800000D01*
X2575000Y16625000D02*
X7275000Y16625000D01*
X3500000Y11975000D02*
X7275000Y11975000D01*
X7275000Y16625000D02*
X7275000Y15968000D01*
X7275000Y12666000D02*
X7275000Y11975000D01*
X3500000Y11970000D02*
G75*
G03*
X2280000Y10550000I100000J-1320000D01*
G01*
X200000Y14430001D02*
G75*
G03*
X2569999Y16600000I100000J2269999D01*
G01*
%TO.C,SW40*%
X35700000Y-16600000D02*
X35700000Y-17318000D01*
X35700000Y-17318000D02*
X35700000Y-17318000D01*
X35700000Y-20620000D02*
X35700000Y-21200000D01*
X35725000Y-16575000D02*
X38275000Y-16575000D01*
X35725000Y-21225000D02*
X40275000Y-21225000D01*
X40280000Y-20500000D02*
X40280000Y-21200000D01*
X40575000Y-14375000D02*
X45275000Y-14375000D01*
X41500000Y-19025000D02*
X45275000Y-19025000D01*
X45275000Y-14375000D02*
X45275000Y-15032000D01*
X45275000Y-18334000D02*
X45275000Y-19025000D01*
X41500000Y-19030000D02*
G75*
G03*
X40280000Y-20450000I100000J-1320000D01*
G01*
X38200000Y-16569999D02*
G75*
G03*
X40569999Y-14400000I100000J2269999D01*
G01*
%TO.C,SW41*%
X16700000Y-19600000D02*
X16700000Y-20318000D01*
X16700000Y-20318000D02*
X16700000Y-20318000D01*
X16700000Y-23620000D02*
X16700000Y-24200000D01*
X16725000Y-19575000D02*
X19275000Y-19575000D01*
X16725000Y-24225000D02*
X21275000Y-24225000D01*
X21280000Y-23500000D02*
X21280000Y-24200000D01*
X21575000Y-17375000D02*
X26275000Y-17375000D01*
X22500000Y-22025000D02*
X26275000Y-22025000D01*
X26275000Y-17375000D02*
X26275000Y-18032000D01*
X26275000Y-21334000D02*
X26275000Y-22025000D01*
X22500000Y-22030000D02*
G75*
G03*
X21280000Y-23450000I100000J-1320000D01*
G01*
X19200000Y-19569999D02*
G75*
G03*
X21569999Y-17400000I100000J2269999D01*
G01*
%TO.C,D14*%
X73300000Y16250000D02*
X73300000Y14750000D01*
X73300000Y14750000D02*
X78700000Y14750000D01*
X75500000Y16000000D02*
X75500000Y15000000D01*
X75600000Y15500000D02*
X76500000Y16000000D01*
X76500000Y16000000D02*
X76500000Y15000000D01*
X76500000Y15000000D02*
X75600000Y15500000D01*
X78700000Y16250000D02*
X73300000Y16250000D01*
X78700000Y16250000D02*
X78700000Y14750000D01*
%TO.C,D17*%
X16300000Y25250000D02*
X16300000Y23750000D01*
X16300000Y23750000D02*
X21700000Y23750000D01*
X18500000Y25000000D02*
X18500000Y24000000D01*
X18600000Y24500000D02*
X19500000Y25000000D01*
X19500000Y25000000D02*
X19500000Y24000000D01*
X19500000Y24000000D02*
X18600000Y24500000D01*
X21700000Y25250000D02*
X16300000Y25250000D01*
X21700000Y25250000D02*
X21700000Y23750000D01*
%TO.C,SW39*%
X54700000Y-19600000D02*
X54700000Y-20318000D01*
X54700000Y-20318000D02*
X54700000Y-20318000D01*
X54700000Y-23620000D02*
X54700000Y-24200000D01*
X54725000Y-19575000D02*
X57275000Y-19575000D01*
X54725000Y-24225000D02*
X59275000Y-24225000D01*
X59280000Y-23500000D02*
X59280000Y-24200000D01*
X59575000Y-17375000D02*
X64275000Y-17375000D01*
X60500000Y-22025000D02*
X64275000Y-22025000D01*
X64275000Y-17375000D02*
X64275000Y-18032000D01*
X64275000Y-21334000D02*
X64275000Y-22025000D01*
X60500000Y-22030000D02*
G75*
G03*
X59280000Y-23450000I100000J-1320000D01*
G01*
X57200000Y-19569999D02*
G75*
G03*
X59569999Y-17400000I100000J2269999D01*
G01*
%TO.C,D40*%
X35300000Y-7750000D02*
X35300000Y-9250000D01*
X35300000Y-9250000D02*
X40700000Y-9250000D01*
X37500000Y-8000000D02*
X37500000Y-9000000D01*
X37600000Y-8500000D02*
X38500000Y-8000000D01*
X38500000Y-8000000D02*
X38500000Y-9000000D01*
X38500000Y-9000000D02*
X37600000Y-8500000D01*
X40700000Y-7750000D02*
X35300000Y-7750000D01*
X40700000Y-7750000D02*
X40700000Y-9250000D01*
%TO.C,D29*%
X16300000Y7250000D02*
X16300000Y5750000D01*
X16300000Y5750000D02*
X21700000Y5750000D01*
X18500000Y7000000D02*
X18500000Y6000000D01*
X18600000Y6500000D02*
X19500000Y7000000D01*
X19500000Y7000000D02*
X19500000Y6000000D01*
X19500000Y6000000D02*
X18600000Y6500000D01*
X21700000Y7250000D02*
X16300000Y7250000D01*
X21700000Y7250000D02*
X21700000Y5750000D01*
%TO.C,SW16*%
X35700000Y19400000D02*
X35700000Y18682000D01*
X35700000Y18682000D02*
X35700000Y18682000D01*
X35700000Y15380000D02*
X35700000Y14800000D01*
X35725000Y19425000D02*
X38275000Y19425000D01*
X35725000Y14775000D02*
X40275000Y14775000D01*
X40280000Y15500000D02*
X40280000Y14800000D01*
X40575000Y21625000D02*
X45275000Y21625000D01*
X41500000Y16975000D02*
X45275000Y16975000D01*
X45275000Y21625000D02*
X45275000Y20968000D01*
X45275000Y17666000D02*
X45275000Y16975000D01*
X41500000Y16970000D02*
G75*
G03*
X40280000Y15550000I100000J-1320000D01*
G01*
X38200000Y19430001D02*
G75*
G03*
X40569999Y21600000I100000J2269999D01*
G01*
%TO.C,SW54*%
X-12400021Y-43133540D02*
X-12154450Y-43808239D01*
X-12154450Y-43808239D02*
X-12154450Y-43808239D01*
X-11025100Y-46911104D02*
X-10826728Y-47456126D01*
X-12385079Y-43101497D02*
X-9988863Y-42229346D01*
X-10794685Y-47471068D02*
X-6519084Y-45914876D01*
X-6762350Y-45231889D02*
X-6522936Y-45889674D01*
X-8580014Y-39375375D02*
X-4163458Y-37767881D01*
X-6120404Y-43428578D02*
X-2573065Y-42137451D01*
X-4163458Y-37767881D02*
X-3938751Y-38385259D01*
X-2809401Y-41488124D02*
X-2573065Y-42137451D01*
X-6118694Y-43433276D02*
G75*
G03*
X-6779451Y-45184904I545435J-1206192D01*
G01*
X-10061050Y-42250298D02*
G75*
G03*
X-8576162Y-39400578I-682416J2167304D01*
G01*
%TO.C,D38*%
X73300000Y-19750000D02*
X73300000Y-21250000D01*
X73300000Y-21250000D02*
X78700000Y-21250000D01*
X75500000Y-20000000D02*
X75500000Y-21000000D01*
X75600000Y-20500000D02*
X76500000Y-20000000D01*
X76500000Y-20000000D02*
X76500000Y-21000000D01*
X76500000Y-21000000D02*
X75600000Y-20500000D01*
X78700000Y-19750000D02*
X73300000Y-19750000D01*
X78700000Y-19750000D02*
X78700000Y-21250000D01*
%TO.C,D41*%
X16300000Y-10750000D02*
X16300000Y-12250000D01*
X16300000Y-12250000D02*
X21700000Y-12250000D01*
X18500000Y-11000000D02*
X18500000Y-12000000D01*
X18600000Y-11500000D02*
X19500000Y-11000000D01*
X19500000Y-11000000D02*
X19500000Y-12000000D01*
X19500000Y-12000000D02*
X18600000Y-11500000D01*
X21700000Y-10750000D02*
X16300000Y-10750000D01*
X21700000Y-10750000D02*
X21700000Y-12250000D01*
%TD*%
%LPC*%
D13*
%TO.C,SW17*%
X24000000Y16300000D03*
D14*
X27254999Y16299999D03*
X15697999Y14099999D03*
%TD*%
D15*
%TO.C,H1*%
X-2500000Y-30000000D03*
%TD*%
D13*
%TO.C,SW29*%
X24000000Y-1700000D03*
D14*
X27254999Y-1699999D03*
X15697999Y-3899999D03*
%TD*%
D16*
%TO.C,D27*%
X55224999Y6499999D03*
X58774999Y6499999D03*
%TD*%
%TO.C,D18*%
X-1774999Y22499999D03*
X1774999Y22499999D03*
%TD*%
D13*
%TO.C,SW15*%
X62000000Y16300000D03*
D14*
X65254999Y16299999D03*
X53697999Y14099999D03*
%TD*%
D16*
%TO.C,D15*%
X55224999Y24499999D03*
X58774999Y24499999D03*
%TD*%
%TO.C,D52*%
X26724999Y-31499999D03*
X30274999Y-31499999D03*
%TD*%
%TO.C,D16*%
X36224999Y27499999D03*
X39774999Y27499999D03*
%TD*%
D13*
%TO.C,SW26*%
X81000000Y-10700000D03*
D14*
X84254999Y-10699999D03*
X72697999Y-12899999D03*
%TD*%
D13*
%TO.C,SW38*%
X81000000Y-28700000D03*
D14*
X84254999Y-28699999D03*
X72697999Y-30899999D03*
%TD*%
D17*
%TO.C,D54*%
X-14467953Y-35307085D03*
X-11132045Y-34092913D03*
%TD*%
D13*
%TO.C,SW27*%
X62000000Y-1700000D03*
D14*
X65254999Y-1699999D03*
X53697999Y-3899999D03*
%TD*%
D16*
%TO.C,D53*%
X7724999Y-31499999D03*
X11274999Y-31499999D03*
%TD*%
%TO.C,D39*%
X55224999Y-11499999D03*
X58774999Y-11499999D03*
%TD*%
D13*
%TO.C,SW52*%
X33500000Y-39700000D03*
D14*
X36754999Y-39699999D03*
X25197999Y-41899999D03*
%TD*%
D16*
%TO.C,D42*%
X-1774999Y-13499999D03*
X1774999Y-13499999D03*
%TD*%
%TO.C,D30*%
X-1774999Y4499999D03*
X1774999Y4499999D03*
%TD*%
%TO.C,D28*%
X36224999Y9499999D03*
X39774999Y9499999D03*
%TD*%
D13*
%TO.C,SW28*%
X43000000Y1300000D03*
D14*
X46254999Y1299999D03*
X34697999Y-899999D03*
%TD*%
D13*
%TO.C,SW42*%
X5000000Y-21700000D03*
D14*
X8254999Y-21699999D03*
X-3301999Y-23899999D03*
%TD*%
D13*
%TO.C,SW14*%
X81000000Y7300000D03*
D14*
X84254999Y7299999D03*
X72697999Y5099999D03*
%TD*%
D13*
%TO.C,SW30*%
X5000000Y-3700000D03*
D14*
X8254999Y-3699999D03*
X-3301999Y-5899999D03*
%TD*%
D15*
%TO.C,H2*%
X62000000Y-31000000D03*
%TD*%
%TO.C,H3*%
X71000000Y23000000D03*
%TD*%
D18*
%TO.C,J1*%
X-3809999Y27221999D03*
D19*
X-1270000Y27349000D03*
X1270000Y27349000D03*
X3810000Y27349000D03*
%TD*%
D16*
%TO.C,D26*%
X74224999Y-2499999D03*
X77774999Y-2499999D03*
%TD*%
D13*
%TO.C,SW53*%
X14499996Y-39700000D03*
D14*
X17754995Y-39699999D03*
X6197995Y-41899999D03*
%TD*%
D15*
%TO.C,H4*%
X-9500000Y5000000D03*
%TD*%
D13*
%TO.C,SW18*%
X5000000Y14300000D03*
D14*
X8254999Y14299999D03*
X-3301999Y12099999D03*
%TD*%
D13*
%TO.C,SW40*%
X43000000Y-16700000D03*
D14*
X46254999Y-16699999D03*
X34697999Y-18899999D03*
%TD*%
D13*
%TO.C,SW41*%
X24000000Y-19700000D03*
D14*
X27254999Y-19699999D03*
X15697999Y-21899999D03*
%TD*%
D16*
%TO.C,D14*%
X74224999Y15499999D03*
X77774999Y15499999D03*
%TD*%
%TO.C,D17*%
X17224999Y24499999D03*
X20774999Y24499999D03*
%TD*%
D13*
%TO.C,SW39*%
X62000000Y-19700000D03*
D14*
X65254999Y-19699999D03*
X53697999Y-21899999D03*
%TD*%
D16*
%TO.C,D40*%
X36224999Y-8499999D03*
X39774999Y-8499999D03*
%TD*%
%TO.C,D29*%
X17224999Y6499999D03*
X20774999Y6499999D03*
%TD*%
D13*
%TO.C,SW16*%
X43000000Y19300000D03*
D14*
X46254999Y19299999D03*
X34697999Y17099999D03*
%TD*%
D13*
%TO.C,SW54*%
X-5506062Y-40730762D03*
D20*
X-2447362Y-39617485D03*
X-12554945Y-45637536D03*
%TD*%
D16*
%TO.C,D38*%
X74224999Y-20499999D03*
X77774999Y-20499999D03*
%TD*%
%TO.C,D41*%
X17224999Y-11499999D03*
X20774999Y-11499999D03*
%TD*%
D21*
%TO.C,SW20*%
X24500000Y20000000D03*
D13*
X19000000Y14100000D03*
D15*
X19000000Y20000000D03*
D13*
X14000000Y16300000D03*
D21*
X13500000Y20000000D03*
%TD*%
%TO.C,SW22*%
X62500000Y20000000D03*
D13*
X57000000Y14100000D03*
D15*
X57000000Y20000000D03*
D13*
X52000000Y16300000D03*
D21*
X51500000Y20000000D03*
%TD*%
%TO.C,SW44*%
X24500000Y-16000000D03*
D13*
X19000000Y-21900000D03*
D15*
X19000000Y-16000000D03*
D13*
X14000000Y-19700000D03*
D21*
X13500000Y-16000000D03*
%TD*%
%TO.C,SW34*%
X62500000Y2000000D03*
D13*
X57000000Y-3900000D03*
D15*
X57000000Y2000000D03*
D13*
X52000000Y-1700000D03*
D21*
X51500000Y2000000D03*
%TD*%
%TO.C,SW55*%
X-6301691Y-37082889D03*
D13*
X-9452081Y-44508186D03*
D15*
X-11470000Y-38964000D03*
D13*
X-14902989Y-44150963D03*
D21*
X-16638309Y-40845111D03*
%TD*%
%TO.C,SW21*%
X43500000Y23000000D03*
D13*
X38000000Y17100000D03*
D15*
X38000000Y23000000D03*
D13*
X33000000Y19300000D03*
D21*
X32500000Y23000000D03*
%TD*%
%TO.C,SW19*%
X5500000Y18000000D03*
D13*
X0Y12100000D03*
D15*
X0Y18000000D03*
D13*
X-5000000Y14300000D03*
D21*
X-5500000Y18000000D03*
%TD*%
%TO.C,SW45*%
X43500000Y-13000000D03*
D13*
X38000000Y-18900000D03*
D15*
X38000000Y-13000000D03*
D13*
X33000000Y-16700000D03*
D21*
X32500000Y-13000000D03*
%TD*%
%TO.C,SW33*%
X43500000Y5000000D03*
D13*
X38000000Y-900000D03*
D15*
X38000000Y5000000D03*
D13*
X33000000Y1300000D03*
D21*
X32500000Y5000000D03*
%TD*%
%TO.C,SW47*%
X81500000Y-25000000D03*
D13*
X76000000Y-30900000D03*
D15*
X76000000Y-25000000D03*
D13*
X71000000Y-28700000D03*
D21*
X70500000Y-25000000D03*
%TD*%
%TO.C,SW32*%
X24500000Y2000000D03*
D13*
X19000000Y-3900000D03*
D15*
X19000000Y2000000D03*
D13*
X14000000Y-1700000D03*
D21*
X13500000Y2000000D03*
%TD*%
%TO.C,SW35*%
X81500000Y-7000000D03*
D13*
X76000000Y-12900000D03*
D15*
X76000000Y-7000000D03*
D13*
X71000000Y-10700000D03*
D21*
X70500000Y-7000000D03*
%TD*%
%TO.C,SW43*%
X5500000Y-18000000D03*
D13*
X0Y-23900000D03*
D15*
X0Y-18000000D03*
D13*
X-5000000Y-21700000D03*
D21*
X-5500000Y-18000000D03*
%TD*%
%TO.C,SW31*%
X5500000Y0D03*
D13*
X0Y-5900000D03*
D15*
X0Y0D03*
D13*
X-5000000Y-3700000D03*
D21*
X-5500000Y0D03*
%TD*%
%TO.C,SW23*%
X81500000Y11000000D03*
D13*
X76000000Y5100000D03*
D15*
X76000000Y11000000D03*
D13*
X71000000Y7300000D03*
D21*
X70500000Y11000000D03*
%TD*%
%TO.C,SW46*%
X62500000Y-16000000D03*
D13*
X57000000Y-21900000D03*
D15*
X57000000Y-16000000D03*
D13*
X52000000Y-19700000D03*
D21*
X51500000Y-16000000D03*
%TD*%
%TO.C,SW56*%
X14999996Y-36000000D03*
D13*
X9499996Y-41900000D03*
D15*
X9499996Y-36000000D03*
D13*
X4499996Y-39700000D03*
D21*
X3999996Y-36000000D03*
%TD*%
%TO.C,SW57*%
X34000000Y-36000000D03*
D13*
X28500000Y-41900000D03*
D15*
X28500000Y-36000000D03*
D13*
X23500000Y-39700000D03*
D21*
X23000000Y-36000000D03*
%TD*%
M02*
