%FSLAX45Y45*%
G04 Gerber Fmt 4.5, Leading zero omitted, Abs format (unit mm)*
G04 Created by KiCad (PCBNEW (6.0.5-0)) date 2022-06-17 01:52:42*
%MOMM*%
%LPD*%
G01*
G04 APERTURE LIST*
%TA.AperFunction,Profile*%
%ADD10C,0.100000*%
%TD*%
%ADD11C,0.200000*%
G04 APERTURE END LIST*
D10*
X-5969000Y-5715000D02*
X-5969000Y5715000D01*
X-5715000Y5969000D02*
X5715000Y5969000D01*
X5715000Y-5969000D02*
X-5715000Y-5969000D01*
X-5715000Y5969000D02*
G75*
G03*
X-5969000Y5715000I0J-254000D01*
G01*
X5715000Y-5969000D02*
G75*
G03*
X5969000Y-5715000I0J254000D01*
G01*
X5969000Y5715000D02*
G75*
G03*
X5715000Y5969000I-254000J0D01*
G01*
X5969000Y5715000D02*
X5969000Y-5715000D01*
X-5969000Y-5715000D02*
G75*
G03*
X-5715000Y-5969000I254000J0D01*
G01*
D11*
X-5716381Y-6284476D02*
X-5716381Y-6084476D01*
X-5668762Y-6084476D01*
X-5640190Y-6094000D01*
X-5621143Y-6113048D01*
X-5611619Y-6132095D01*
X-5602095Y-6170190D01*
X-5602095Y-6198762D01*
X-5611619Y-6236857D01*
X-5621143Y-6255905D01*
X-5640190Y-6274952D01*
X-5668762Y-6284476D01*
X-5716381Y-6284476D01*
X-5516381Y-6284476D02*
X-5516381Y-6151143D01*
X-5516381Y-6189238D02*
X-5506857Y-6170190D01*
X-5497333Y-6160667D01*
X-5478286Y-6151143D01*
X-5459238Y-6151143D01*
X-5392572Y-6284476D02*
X-5392572Y-6151143D01*
X-5392572Y-6084476D02*
X-5402095Y-6094000D01*
X-5392572Y-6103524D01*
X-5383048Y-6094000D01*
X-5392572Y-6084476D01*
X-5392572Y-6103524D01*
X-5268762Y-6284476D02*
X-5287810Y-6274952D01*
X-5297333Y-6255905D01*
X-5297333Y-6084476D01*
X-5164000Y-6284476D02*
X-5183048Y-6274952D01*
X-5192572Y-6255905D01*
X-5192572Y-6084476D01*
X-4935429Y-6284476D02*
X-4935429Y-6084476D01*
X-4868762Y-6227333D01*
X-4802095Y-6084476D01*
X-4802095Y-6284476D01*
X-4621143Y-6284476D02*
X-4621143Y-6179714D01*
X-4630667Y-6160667D01*
X-4649714Y-6151143D01*
X-4687810Y-6151143D01*
X-4706857Y-6160667D01*
X-4621143Y-6274952D02*
X-4640191Y-6284476D01*
X-4687810Y-6284476D01*
X-4706857Y-6274952D01*
X-4716381Y-6255905D01*
X-4716381Y-6236857D01*
X-4706857Y-6217809D01*
X-4687810Y-6208286D01*
X-4640191Y-6208286D01*
X-4621143Y-6198762D01*
X-4525905Y-6151143D02*
X-4525905Y-6351143D01*
X-4525905Y-6160667D02*
X-4506857Y-6151143D01*
X-4468762Y-6151143D01*
X-4449714Y-6160667D01*
X-4440191Y-6170190D01*
X-4430667Y-6189238D01*
X-4430667Y-6246381D01*
X-4440191Y-6265428D01*
X-4449714Y-6274952D01*
X-4468762Y-6284476D01*
X-4506857Y-6284476D01*
X-4525905Y-6274952D01*
X-4344952Y-6265428D02*
X-4335429Y-6274952D01*
X-4344952Y-6284476D01*
X-4354476Y-6274952D01*
X-4344952Y-6265428D01*
X-4344952Y-6284476D01*
X-4344952Y-6160667D02*
X-4335429Y-6170190D01*
X-4344952Y-6179714D01*
X-4354476Y-6170190D01*
X-4344952Y-6160667D01*
X-4344952Y-6179714D01*
M02*
