%TF.GenerationSoftware,KiCad,Pcbnew,(5.1.12-1-10_14)*%
%TF.CreationDate,2021-12-06T08:53:21+08:00*%
%TF.ProjectId,Pragmatic,50726167-6d61-4746-9963-2e6b69636164,0.3*%
%TF.SameCoordinates,Original*%
%TF.FileFunction,Soldermask,Bot*%
%TF.FilePolarity,Negative*%
%FSLAX46Y46*%
G04 Gerber Fmt 4.6, Leading zero omitted, Abs format (unit mm)*
G04 Created by KiCad (PCBNEW (5.1.12-1-10_14)) date 2021-12-06 08:53:21*
%MOMM*%
%LPD*%
G01*
G04 APERTURE LIST*
%ADD10C,0.304800*%
%ADD11C,0.457200*%
%ADD12C,0.010000*%
%ADD13C,2.400000*%
%ADD14O,2.200000X1.600000*%
%ADD15C,4.900000*%
%ADD16C,1.800000*%
%ADD17O,2.200000X1.500000*%
%ADD18C,1.700000*%
%ADD19C,3.200000*%
%ADD20R,1.400000X1.000000*%
G04 APERTURE END LIST*
D10*
X54458809Y-42424047D02*
X55305476Y-41214523D01*
X55910238Y-42424047D02*
X55910238Y-39884047D01*
X54942619Y-39884047D01*
X54700714Y-40005000D01*
X54579761Y-40125952D01*
X54458809Y-40367857D01*
X54458809Y-40730714D01*
X54579761Y-40972619D01*
X54700714Y-41093571D01*
X54942619Y-41214523D01*
X55910238Y-41214523D01*
D11*
X142678785Y-42447028D02*
X142354935Y-39856228D01*
X141367963Y-39856228D01*
X141136642Y-39979600D01*
X141028692Y-40102971D01*
X140936163Y-40349714D01*
X140982427Y-40719828D01*
X141136642Y-40966571D01*
X141275435Y-41089942D01*
X141537599Y-41213314D01*
X142524570Y-41213314D01*
X140087985Y-42447028D02*
X139872085Y-40719828D01*
X139933770Y-41213314D02*
X139779556Y-40966571D01*
X139640763Y-40843200D01*
X139378599Y-40719828D01*
X139131856Y-40719828D01*
X137373813Y-42447028D02*
X137204177Y-41089942D01*
X137296706Y-40843200D01*
X137528027Y-40719828D01*
X138021513Y-40719828D01*
X138283677Y-40843200D01*
X137358392Y-42323657D02*
X137620556Y-42447028D01*
X138237413Y-42447028D01*
X138468735Y-42323657D01*
X138561263Y-42076914D01*
X138530420Y-41830171D01*
X138376206Y-41583428D01*
X138114042Y-41460057D01*
X137497185Y-41460057D01*
X137235020Y-41336685D01*
X134813856Y-40719828D02*
X135076020Y-42817142D01*
X135230235Y-43063885D01*
X135369027Y-43187257D01*
X135631192Y-43310628D01*
X136001306Y-43310628D01*
X136232627Y-43187257D01*
X135014335Y-42323657D02*
X135276499Y-42447028D01*
X135769985Y-42447028D01*
X136001306Y-42323657D01*
X136109256Y-42200285D01*
X136201785Y-41953542D01*
X136109256Y-41213314D01*
X135955042Y-40966571D01*
X135816249Y-40843200D01*
X135554085Y-40719828D01*
X135060599Y-40719828D01*
X134829277Y-40843200D01*
X133796042Y-42447028D02*
X133580142Y-40719828D01*
X133610985Y-40966571D02*
X133472192Y-40843200D01*
X133210027Y-40719828D01*
X132839913Y-40719828D01*
X132608592Y-40843200D01*
X132516063Y-41089942D01*
X132685699Y-42447028D01*
X132516063Y-41089942D02*
X132361849Y-40843200D01*
X132099685Y-40719828D01*
X131729570Y-40719828D01*
X131498249Y-40843200D01*
X131405720Y-41089942D01*
X131575356Y-42447028D01*
X129231299Y-42447028D02*
X129061663Y-41089942D01*
X129154192Y-40843200D01*
X129385513Y-40719828D01*
X129878999Y-40719828D01*
X130141163Y-40843200D01*
X129215877Y-42323657D02*
X129478042Y-42447028D01*
X130094899Y-42447028D01*
X130326220Y-42323657D01*
X130418749Y-42076914D01*
X130387906Y-41830171D01*
X130233692Y-41583428D01*
X129971527Y-41460057D01*
X129354670Y-41460057D01*
X129092506Y-41336685D01*
X128151799Y-40719828D02*
X127164827Y-40719828D01*
X127673735Y-39856228D02*
X127951320Y-42076914D01*
X127858792Y-42323657D01*
X127627470Y-42447028D01*
X127380727Y-42447028D01*
X126517127Y-42447028D02*
X126301227Y-40719828D01*
X126193277Y-39856228D02*
X126332070Y-39979600D01*
X126224120Y-40102971D01*
X126085327Y-39979600D01*
X126193277Y-39856228D01*
X126224120Y-40102971D01*
X124157649Y-42323657D02*
X124419813Y-42447028D01*
X124913299Y-42447028D01*
X125144620Y-42323657D01*
X125252570Y-42200285D01*
X125345099Y-41953542D01*
X125252570Y-41213314D01*
X125098356Y-40966571D01*
X124959563Y-40843200D01*
X124697399Y-40719828D01*
X124203913Y-40719828D01*
X123972592Y-40843200D01*
D12*
G36*
X85621090Y-81697348D02*
G01*
X85542546Y-81697778D01*
X85485702Y-81698942D01*
X85446895Y-81701207D01*
X85422462Y-81704940D01*
X85408738Y-81710506D01*
X85402060Y-81718273D01*
X85398764Y-81728605D01*
X85398444Y-81729943D01*
X85393438Y-81754079D01*
X85384171Y-81801701D01*
X85371608Y-81867741D01*
X85356713Y-81947128D01*
X85340449Y-82034796D01*
X85339881Y-82037875D01*
X85323590Y-82123789D01*
X85308348Y-82199696D01*
X85295139Y-82261045D01*
X85284946Y-82303282D01*
X85278752Y-82321855D01*
X85278457Y-82322184D01*
X85260212Y-82331253D01*
X85222595Y-82346367D01*
X85173729Y-82364262D01*
X85173457Y-82364358D01*
X85111907Y-82387493D01*
X85039343Y-82416965D01*
X84970943Y-82446597D01*
X84967706Y-82448062D01*
X84856298Y-82498626D01*
X84609601Y-82330160D01*
X84533923Y-82278803D01*
X84465369Y-82232889D01*
X84407912Y-82195030D01*
X84365524Y-82167837D01*
X84342175Y-82153921D01*
X84339958Y-82152889D01*
X84322990Y-82157484D01*
X84291299Y-82179655D01*
X84243648Y-82220447D01*
X84178802Y-82280905D01*
X84112603Y-82345227D01*
X84048786Y-82408612D01*
X83991671Y-82466451D01*
X83944695Y-82515175D01*
X83911297Y-82551210D01*
X83894915Y-82570984D01*
X83894306Y-82572002D01*
X83892495Y-82585572D01*
X83899317Y-82607733D01*
X83916460Y-82641478D01*
X83945607Y-82689800D01*
X83988445Y-82755692D01*
X84045552Y-82840517D01*
X84096234Y-82915177D01*
X84141539Y-82982140D01*
X84178850Y-83037516D01*
X84205548Y-83077420D01*
X84219015Y-83097962D01*
X84219863Y-83099356D01*
X84218219Y-83119038D01*
X84205755Y-83157293D01*
X84184952Y-83206889D01*
X84177538Y-83222728D01*
X84145186Y-83293290D01*
X84110672Y-83373353D01*
X84082635Y-83442629D01*
X84062432Y-83494045D01*
X84046385Y-83533119D01*
X84037112Y-83553541D01*
X84035959Y-83555114D01*
X84018904Y-83557721D01*
X83978702Y-83564863D01*
X83920698Y-83575523D01*
X83850237Y-83588685D01*
X83772665Y-83603333D01*
X83693328Y-83618449D01*
X83617569Y-83633018D01*
X83550736Y-83646022D01*
X83498172Y-83656445D01*
X83465224Y-83663270D01*
X83457143Y-83665199D01*
X83448795Y-83669962D01*
X83442494Y-83680718D01*
X83437955Y-83701098D01*
X83434896Y-83734734D01*
X83433033Y-83785255D01*
X83432082Y-83856292D01*
X83431760Y-83951476D01*
X83431743Y-83990492D01*
X83431743Y-84307799D01*
X83507943Y-84322839D01*
X83550337Y-84330995D01*
X83613600Y-84342899D01*
X83690038Y-84357116D01*
X83771957Y-84372210D01*
X83794600Y-84376355D01*
X83870194Y-84391053D01*
X83936047Y-84405505D01*
X83986634Y-84418375D01*
X84016426Y-84428322D01*
X84021388Y-84431287D01*
X84033574Y-84452283D01*
X84051047Y-84492967D01*
X84070423Y-84545322D01*
X84074266Y-84556600D01*
X84099661Y-84626523D01*
X84131183Y-84705418D01*
X84162031Y-84776266D01*
X84162183Y-84776595D01*
X84213553Y-84887733D01*
X84044601Y-85136253D01*
X83875648Y-85384772D01*
X84092571Y-85602058D01*
X84158181Y-85666726D01*
X84218021Y-85723733D01*
X84268733Y-85770033D01*
X84306954Y-85802584D01*
X84329325Y-85818343D01*
X84332534Y-85819343D01*
X84351374Y-85811469D01*
X84389820Y-85789578D01*
X84443670Y-85756267D01*
X84508724Y-85714131D01*
X84579060Y-85666943D01*
X84650445Y-85618810D01*
X84714092Y-85576928D01*
X84765959Y-85543871D01*
X84802005Y-85522218D01*
X84818133Y-85514543D01*
X84837811Y-85521037D01*
X84875125Y-85538150D01*
X84922379Y-85562326D01*
X84927388Y-85565013D01*
X84991023Y-85596927D01*
X85034659Y-85612579D01*
X85061798Y-85612745D01*
X85075943Y-85598204D01*
X85076025Y-85598000D01*
X85083095Y-85580779D01*
X85099958Y-85539899D01*
X85125305Y-85478525D01*
X85157829Y-85399819D01*
X85196222Y-85306947D01*
X85239178Y-85203072D01*
X85280778Y-85102502D01*
X85326496Y-84991516D01*
X85368474Y-84888703D01*
X85405452Y-84797215D01*
X85436173Y-84720201D01*
X85459378Y-84660815D01*
X85473810Y-84622209D01*
X85478257Y-84607800D01*
X85467104Y-84591272D01*
X85437931Y-84564930D01*
X85399029Y-84535887D01*
X85288243Y-84444039D01*
X85201649Y-84338759D01*
X85140284Y-84222266D01*
X85105185Y-84096776D01*
X85097392Y-83964507D01*
X85103057Y-83903457D01*
X85133922Y-83776795D01*
X85187080Y-83664941D01*
X85259233Y-83569001D01*
X85347083Y-83490076D01*
X85447335Y-83429270D01*
X85556690Y-83387687D01*
X85671853Y-83366428D01*
X85789525Y-83366599D01*
X85906410Y-83389301D01*
X86019211Y-83435638D01*
X86124631Y-83506713D01*
X86168632Y-83546911D01*
X86253021Y-83650129D01*
X86311778Y-83762925D01*
X86345296Y-83882010D01*
X86353965Y-84004095D01*
X86338177Y-84125893D01*
X86298322Y-84244116D01*
X86234793Y-84355475D01*
X86147979Y-84456684D01*
X86050971Y-84535887D01*
X86010563Y-84566162D01*
X85982018Y-84592219D01*
X85971743Y-84607825D01*
X85977123Y-84624843D01*
X85992425Y-84665500D01*
X86016388Y-84726642D01*
X86047756Y-84805119D01*
X86085268Y-84897780D01*
X86127667Y-85001472D01*
X86169337Y-85102526D01*
X86215310Y-85213607D01*
X86257893Y-85316541D01*
X86295779Y-85408165D01*
X86327660Y-85485316D01*
X86352229Y-85544831D01*
X86368180Y-85583544D01*
X86374090Y-85598000D01*
X86388052Y-85612685D01*
X86415060Y-85612642D01*
X86458587Y-85597099D01*
X86522110Y-85565284D01*
X86522612Y-85565013D01*
X86570440Y-85540323D01*
X86609103Y-85522338D01*
X86630905Y-85514614D01*
X86631867Y-85514543D01*
X86648279Y-85522378D01*
X86684513Y-85544165D01*
X86736526Y-85577328D01*
X86800275Y-85619291D01*
X86870940Y-85666943D01*
X86942884Y-85715191D01*
X87007726Y-85757151D01*
X87061265Y-85790227D01*
X87099303Y-85811821D01*
X87117467Y-85819343D01*
X87134192Y-85809457D01*
X87167820Y-85781826D01*
X87214990Y-85739495D01*
X87272342Y-85685505D01*
X87336516Y-85622899D01*
X87357503Y-85601983D01*
X87574501Y-85384623D01*
X87409332Y-85142220D01*
X87359136Y-85067781D01*
X87315081Y-85000972D01*
X87279638Y-84945665D01*
X87255281Y-84905729D01*
X87244478Y-84885036D01*
X87244162Y-84883563D01*
X87249857Y-84864058D01*
X87265174Y-84824822D01*
X87287463Y-84772430D01*
X87303107Y-84737355D01*
X87332359Y-84670201D01*
X87359906Y-84602358D01*
X87381263Y-84545034D01*
X87387065Y-84527572D01*
X87403548Y-84480938D01*
X87419660Y-84444905D01*
X87428510Y-84431287D01*
X87448040Y-84422952D01*
X87490666Y-84411137D01*
X87550855Y-84397181D01*
X87623078Y-84382422D01*
X87655400Y-84376355D01*
X87737478Y-84361273D01*
X87816205Y-84346669D01*
X87883891Y-84333980D01*
X87932840Y-84324642D01*
X87942057Y-84322839D01*
X88018257Y-84307799D01*
X88018257Y-83990492D01*
X88018086Y-83886154D01*
X88017384Y-83807213D01*
X88015866Y-83750038D01*
X88013251Y-83710999D01*
X88009254Y-83686465D01*
X88003591Y-83672805D01*
X87995980Y-83666389D01*
X87992857Y-83665199D01*
X87974022Y-83660980D01*
X87932412Y-83652562D01*
X87873370Y-83640961D01*
X87802243Y-83627195D01*
X87724375Y-83612280D01*
X87645113Y-83597232D01*
X87569802Y-83583069D01*
X87503787Y-83570806D01*
X87452413Y-83561461D01*
X87421025Y-83556050D01*
X87414041Y-83555114D01*
X87407715Y-83542596D01*
X87393710Y-83509246D01*
X87374645Y-83461377D01*
X87367366Y-83442629D01*
X87338004Y-83370195D01*
X87303429Y-83290170D01*
X87272463Y-83222728D01*
X87249677Y-83171159D01*
X87234518Y-83128785D01*
X87229458Y-83102834D01*
X87230264Y-83099356D01*
X87240959Y-83082936D01*
X87265380Y-83046417D01*
X87300905Y-82993687D01*
X87344913Y-82928635D01*
X87394783Y-82855151D01*
X87404644Y-82840645D01*
X87462508Y-82754704D01*
X87505044Y-82689261D01*
X87533946Y-82641304D01*
X87550910Y-82607820D01*
X87557633Y-82585795D01*
X87555810Y-82572217D01*
X87555764Y-82572131D01*
X87541414Y-82554297D01*
X87509677Y-82519817D01*
X87463990Y-82472268D01*
X87407796Y-82415222D01*
X87344532Y-82352255D01*
X87337398Y-82345227D01*
X87257670Y-82268020D01*
X87196143Y-82211330D01*
X87151579Y-82174110D01*
X87122743Y-82155315D01*
X87110042Y-82152889D01*
X87091506Y-82163471D01*
X87053039Y-82187916D01*
X86998614Y-82223612D01*
X86932202Y-82267947D01*
X86857775Y-82318311D01*
X86840399Y-82330160D01*
X86593703Y-82498626D01*
X86482294Y-82448062D01*
X86414543Y-82418595D01*
X86341817Y-82388959D01*
X86279297Y-82365330D01*
X86276543Y-82364358D01*
X86227640Y-82346457D01*
X86189943Y-82331320D01*
X86171575Y-82322210D01*
X86171544Y-82322184D01*
X86165715Y-82305717D01*
X86155808Y-82265219D01*
X86142805Y-82205242D01*
X86127691Y-82130340D01*
X86111448Y-82045064D01*
X86110119Y-82037875D01*
X86093825Y-81950014D01*
X86078867Y-81870260D01*
X86066209Y-81803681D01*
X86056814Y-81755347D01*
X86051646Y-81730325D01*
X86051556Y-81729943D01*
X86048411Y-81719299D01*
X86042296Y-81711262D01*
X86029547Y-81705467D01*
X86006500Y-81701547D01*
X85969491Y-81699135D01*
X85914856Y-81697865D01*
X85838933Y-81697371D01*
X85738056Y-81697286D01*
X85725000Y-81697286D01*
X85621090Y-81697348D01*
G37*
X85621090Y-81697348D02*
X85542546Y-81697778D01*
X85485702Y-81698942D01*
X85446895Y-81701207D01*
X85422462Y-81704940D01*
X85408738Y-81710506D01*
X85402060Y-81718273D01*
X85398764Y-81728605D01*
X85398444Y-81729943D01*
X85393438Y-81754079D01*
X85384171Y-81801701D01*
X85371608Y-81867741D01*
X85356713Y-81947128D01*
X85340449Y-82034796D01*
X85339881Y-82037875D01*
X85323590Y-82123789D01*
X85308348Y-82199696D01*
X85295139Y-82261045D01*
X85284946Y-82303282D01*
X85278752Y-82321855D01*
X85278457Y-82322184D01*
X85260212Y-82331253D01*
X85222595Y-82346367D01*
X85173729Y-82364262D01*
X85173457Y-82364358D01*
X85111907Y-82387493D01*
X85039343Y-82416965D01*
X84970943Y-82446597D01*
X84967706Y-82448062D01*
X84856298Y-82498626D01*
X84609601Y-82330160D01*
X84533923Y-82278803D01*
X84465369Y-82232889D01*
X84407912Y-82195030D01*
X84365524Y-82167837D01*
X84342175Y-82153921D01*
X84339958Y-82152889D01*
X84322990Y-82157484D01*
X84291299Y-82179655D01*
X84243648Y-82220447D01*
X84178802Y-82280905D01*
X84112603Y-82345227D01*
X84048786Y-82408612D01*
X83991671Y-82466451D01*
X83944695Y-82515175D01*
X83911297Y-82551210D01*
X83894915Y-82570984D01*
X83894306Y-82572002D01*
X83892495Y-82585572D01*
X83899317Y-82607733D01*
X83916460Y-82641478D01*
X83945607Y-82689800D01*
X83988445Y-82755692D01*
X84045552Y-82840517D01*
X84096234Y-82915177D01*
X84141539Y-82982140D01*
X84178850Y-83037516D01*
X84205548Y-83077420D01*
X84219015Y-83097962D01*
X84219863Y-83099356D01*
X84218219Y-83119038D01*
X84205755Y-83157293D01*
X84184952Y-83206889D01*
X84177538Y-83222728D01*
X84145186Y-83293290D01*
X84110672Y-83373353D01*
X84082635Y-83442629D01*
X84062432Y-83494045D01*
X84046385Y-83533119D01*
X84037112Y-83553541D01*
X84035959Y-83555114D01*
X84018904Y-83557721D01*
X83978702Y-83564863D01*
X83920698Y-83575523D01*
X83850237Y-83588685D01*
X83772665Y-83603333D01*
X83693328Y-83618449D01*
X83617569Y-83633018D01*
X83550736Y-83646022D01*
X83498172Y-83656445D01*
X83465224Y-83663270D01*
X83457143Y-83665199D01*
X83448795Y-83669962D01*
X83442494Y-83680718D01*
X83437955Y-83701098D01*
X83434896Y-83734734D01*
X83433033Y-83785255D01*
X83432082Y-83856292D01*
X83431760Y-83951476D01*
X83431743Y-83990492D01*
X83431743Y-84307799D01*
X83507943Y-84322839D01*
X83550337Y-84330995D01*
X83613600Y-84342899D01*
X83690038Y-84357116D01*
X83771957Y-84372210D01*
X83794600Y-84376355D01*
X83870194Y-84391053D01*
X83936047Y-84405505D01*
X83986634Y-84418375D01*
X84016426Y-84428322D01*
X84021388Y-84431287D01*
X84033574Y-84452283D01*
X84051047Y-84492967D01*
X84070423Y-84545322D01*
X84074266Y-84556600D01*
X84099661Y-84626523D01*
X84131183Y-84705418D01*
X84162031Y-84776266D01*
X84162183Y-84776595D01*
X84213553Y-84887733D01*
X84044601Y-85136253D01*
X83875648Y-85384772D01*
X84092571Y-85602058D01*
X84158181Y-85666726D01*
X84218021Y-85723733D01*
X84268733Y-85770033D01*
X84306954Y-85802584D01*
X84329325Y-85818343D01*
X84332534Y-85819343D01*
X84351374Y-85811469D01*
X84389820Y-85789578D01*
X84443670Y-85756267D01*
X84508724Y-85714131D01*
X84579060Y-85666943D01*
X84650445Y-85618810D01*
X84714092Y-85576928D01*
X84765959Y-85543871D01*
X84802005Y-85522218D01*
X84818133Y-85514543D01*
X84837811Y-85521037D01*
X84875125Y-85538150D01*
X84922379Y-85562326D01*
X84927388Y-85565013D01*
X84991023Y-85596927D01*
X85034659Y-85612579D01*
X85061798Y-85612745D01*
X85075943Y-85598204D01*
X85076025Y-85598000D01*
X85083095Y-85580779D01*
X85099958Y-85539899D01*
X85125305Y-85478525D01*
X85157829Y-85399819D01*
X85196222Y-85306947D01*
X85239178Y-85203072D01*
X85280778Y-85102502D01*
X85326496Y-84991516D01*
X85368474Y-84888703D01*
X85405452Y-84797215D01*
X85436173Y-84720201D01*
X85459378Y-84660815D01*
X85473810Y-84622209D01*
X85478257Y-84607800D01*
X85467104Y-84591272D01*
X85437931Y-84564930D01*
X85399029Y-84535887D01*
X85288243Y-84444039D01*
X85201649Y-84338759D01*
X85140284Y-84222266D01*
X85105185Y-84096776D01*
X85097392Y-83964507D01*
X85103057Y-83903457D01*
X85133922Y-83776795D01*
X85187080Y-83664941D01*
X85259233Y-83569001D01*
X85347083Y-83490076D01*
X85447335Y-83429270D01*
X85556690Y-83387687D01*
X85671853Y-83366428D01*
X85789525Y-83366599D01*
X85906410Y-83389301D01*
X86019211Y-83435638D01*
X86124631Y-83506713D01*
X86168632Y-83546911D01*
X86253021Y-83650129D01*
X86311778Y-83762925D01*
X86345296Y-83882010D01*
X86353965Y-84004095D01*
X86338177Y-84125893D01*
X86298322Y-84244116D01*
X86234793Y-84355475D01*
X86147979Y-84456684D01*
X86050971Y-84535887D01*
X86010563Y-84566162D01*
X85982018Y-84592219D01*
X85971743Y-84607825D01*
X85977123Y-84624843D01*
X85992425Y-84665500D01*
X86016388Y-84726642D01*
X86047756Y-84805119D01*
X86085268Y-84897780D01*
X86127667Y-85001472D01*
X86169337Y-85102526D01*
X86215310Y-85213607D01*
X86257893Y-85316541D01*
X86295779Y-85408165D01*
X86327660Y-85485316D01*
X86352229Y-85544831D01*
X86368180Y-85583544D01*
X86374090Y-85598000D01*
X86388052Y-85612685D01*
X86415060Y-85612642D01*
X86458587Y-85597099D01*
X86522110Y-85565284D01*
X86522612Y-85565013D01*
X86570440Y-85540323D01*
X86609103Y-85522338D01*
X86630905Y-85514614D01*
X86631867Y-85514543D01*
X86648279Y-85522378D01*
X86684513Y-85544165D01*
X86736526Y-85577328D01*
X86800275Y-85619291D01*
X86870940Y-85666943D01*
X86942884Y-85715191D01*
X87007726Y-85757151D01*
X87061265Y-85790227D01*
X87099303Y-85811821D01*
X87117467Y-85819343D01*
X87134192Y-85809457D01*
X87167820Y-85781826D01*
X87214990Y-85739495D01*
X87272342Y-85685505D01*
X87336516Y-85622899D01*
X87357503Y-85601983D01*
X87574501Y-85384623D01*
X87409332Y-85142220D01*
X87359136Y-85067781D01*
X87315081Y-85000972D01*
X87279638Y-84945665D01*
X87255281Y-84905729D01*
X87244478Y-84885036D01*
X87244162Y-84883563D01*
X87249857Y-84864058D01*
X87265174Y-84824822D01*
X87287463Y-84772430D01*
X87303107Y-84737355D01*
X87332359Y-84670201D01*
X87359906Y-84602358D01*
X87381263Y-84545034D01*
X87387065Y-84527572D01*
X87403548Y-84480938D01*
X87419660Y-84444905D01*
X87428510Y-84431287D01*
X87448040Y-84422952D01*
X87490666Y-84411137D01*
X87550855Y-84397181D01*
X87623078Y-84382422D01*
X87655400Y-84376355D01*
X87737478Y-84361273D01*
X87816205Y-84346669D01*
X87883891Y-84333980D01*
X87932840Y-84324642D01*
X87942057Y-84322839D01*
X88018257Y-84307799D01*
X88018257Y-83990492D01*
X88018086Y-83886154D01*
X88017384Y-83807213D01*
X88015866Y-83750038D01*
X88013251Y-83710999D01*
X88009254Y-83686465D01*
X88003591Y-83672805D01*
X87995980Y-83666389D01*
X87992857Y-83665199D01*
X87974022Y-83660980D01*
X87932412Y-83652562D01*
X87873370Y-83640961D01*
X87802243Y-83627195D01*
X87724375Y-83612280D01*
X87645113Y-83597232D01*
X87569802Y-83583069D01*
X87503787Y-83570806D01*
X87452413Y-83561461D01*
X87421025Y-83556050D01*
X87414041Y-83555114D01*
X87407715Y-83542596D01*
X87393710Y-83509246D01*
X87374645Y-83461377D01*
X87367366Y-83442629D01*
X87338004Y-83370195D01*
X87303429Y-83290170D01*
X87272463Y-83222728D01*
X87249677Y-83171159D01*
X87234518Y-83128785D01*
X87229458Y-83102834D01*
X87230264Y-83099356D01*
X87240959Y-83082936D01*
X87265380Y-83046417D01*
X87300905Y-82993687D01*
X87344913Y-82928635D01*
X87394783Y-82855151D01*
X87404644Y-82840645D01*
X87462508Y-82754704D01*
X87505044Y-82689261D01*
X87533946Y-82641304D01*
X87550910Y-82607820D01*
X87557633Y-82585795D01*
X87555810Y-82572217D01*
X87555764Y-82572131D01*
X87541414Y-82554297D01*
X87509677Y-82519817D01*
X87463990Y-82472268D01*
X87407796Y-82415222D01*
X87344532Y-82352255D01*
X87337398Y-82345227D01*
X87257670Y-82268020D01*
X87196143Y-82211330D01*
X87151579Y-82174110D01*
X87122743Y-82155315D01*
X87110042Y-82152889D01*
X87091506Y-82163471D01*
X87053039Y-82187916D01*
X86998614Y-82223612D01*
X86932202Y-82267947D01*
X86857775Y-82318311D01*
X86840399Y-82330160D01*
X86593703Y-82498626D01*
X86482294Y-82448062D01*
X86414543Y-82418595D01*
X86341817Y-82388959D01*
X86279297Y-82365330D01*
X86276543Y-82364358D01*
X86227640Y-82346457D01*
X86189943Y-82331320D01*
X86171575Y-82322210D01*
X86171544Y-82322184D01*
X86165715Y-82305717D01*
X86155808Y-82265219D01*
X86142805Y-82205242D01*
X86127691Y-82130340D01*
X86111448Y-82045064D01*
X86110119Y-82037875D01*
X86093825Y-81950014D01*
X86078867Y-81870260D01*
X86066209Y-81803681D01*
X86056814Y-81755347D01*
X86051646Y-81730325D01*
X86051556Y-81729943D01*
X86048411Y-81719299D01*
X86042296Y-81711262D01*
X86029547Y-81705467D01*
X86006500Y-81701547D01*
X85969491Y-81699135D01*
X85914856Y-81697865D01*
X85838933Y-81697371D01*
X85738056Y-81697286D01*
X85725000Y-81697286D01*
X85621090Y-81697348D01*
G36*
X83580124Y-86411335D02*
G01*
X83538333Y-86430344D01*
X83505531Y-86453378D01*
X83481497Y-86479133D01*
X83464903Y-86512358D01*
X83454423Y-86557800D01*
X83448729Y-86620207D01*
X83446493Y-86704327D01*
X83446257Y-86759721D01*
X83446257Y-86975826D01*
X83483226Y-86992670D01*
X83512344Y-87004981D01*
X83526769Y-87009514D01*
X83529528Y-86996025D01*
X83531718Y-86959653D01*
X83533058Y-86906542D01*
X83533343Y-86864372D01*
X83534566Y-86803447D01*
X83537864Y-86755115D01*
X83542679Y-86725518D01*
X83546504Y-86719229D01*
X83572217Y-86725652D01*
X83612582Y-86742125D01*
X83659321Y-86764458D01*
X83704155Y-86788457D01*
X83738807Y-86809930D01*
X83754998Y-86824685D01*
X83755062Y-86824845D01*
X83753670Y-86852152D01*
X83741182Y-86878219D01*
X83719257Y-86899392D01*
X83687257Y-86906474D01*
X83659908Y-86905649D01*
X83621174Y-86905042D01*
X83600842Y-86914116D01*
X83588631Y-86938092D01*
X83587091Y-86942613D01*
X83581797Y-86976806D01*
X83595953Y-86997568D01*
X83632852Y-87007462D01*
X83672711Y-87009292D01*
X83744438Y-86995727D01*
X83781568Y-86976355D01*
X83827424Y-86930845D01*
X83851744Y-86874983D01*
X83853927Y-86815957D01*
X83833371Y-86760953D01*
X83802451Y-86726486D01*
X83771580Y-86707189D01*
X83723058Y-86682759D01*
X83666515Y-86657985D01*
X83657090Y-86654199D01*
X83594981Y-86626791D01*
X83559178Y-86602634D01*
X83547663Y-86578619D01*
X83558420Y-86551635D01*
X83576886Y-86530543D01*
X83620531Y-86504572D01*
X83668554Y-86502624D01*
X83712594Y-86522637D01*
X83744291Y-86562551D01*
X83748451Y-86572848D01*
X83772673Y-86610724D01*
X83808035Y-86638842D01*
X83852657Y-86661917D01*
X83852657Y-86596485D01*
X83850031Y-86556506D01*
X83838770Y-86524997D01*
X83813801Y-86491378D01*
X83789831Y-86465484D01*
X83752559Y-86428817D01*
X83723599Y-86409121D01*
X83692495Y-86401220D01*
X83657287Y-86399914D01*
X83580124Y-86411335D01*
G37*
X83580124Y-86411335D02*
X83538333Y-86430344D01*
X83505531Y-86453378D01*
X83481497Y-86479133D01*
X83464903Y-86512358D01*
X83454423Y-86557800D01*
X83448729Y-86620207D01*
X83446493Y-86704327D01*
X83446257Y-86759721D01*
X83446257Y-86975826D01*
X83483226Y-86992670D01*
X83512344Y-87004981D01*
X83526769Y-87009514D01*
X83529528Y-86996025D01*
X83531718Y-86959653D01*
X83533058Y-86906542D01*
X83533343Y-86864372D01*
X83534566Y-86803447D01*
X83537864Y-86755115D01*
X83542679Y-86725518D01*
X83546504Y-86719229D01*
X83572217Y-86725652D01*
X83612582Y-86742125D01*
X83659321Y-86764458D01*
X83704155Y-86788457D01*
X83738807Y-86809930D01*
X83754998Y-86824685D01*
X83755062Y-86824845D01*
X83753670Y-86852152D01*
X83741182Y-86878219D01*
X83719257Y-86899392D01*
X83687257Y-86906474D01*
X83659908Y-86905649D01*
X83621174Y-86905042D01*
X83600842Y-86914116D01*
X83588631Y-86938092D01*
X83587091Y-86942613D01*
X83581797Y-86976806D01*
X83595953Y-86997568D01*
X83632852Y-87007462D01*
X83672711Y-87009292D01*
X83744438Y-86995727D01*
X83781568Y-86976355D01*
X83827424Y-86930845D01*
X83851744Y-86874983D01*
X83853927Y-86815957D01*
X83833371Y-86760953D01*
X83802451Y-86726486D01*
X83771580Y-86707189D01*
X83723058Y-86682759D01*
X83666515Y-86657985D01*
X83657090Y-86654199D01*
X83594981Y-86626791D01*
X83559178Y-86602634D01*
X83547663Y-86578619D01*
X83558420Y-86551635D01*
X83576886Y-86530543D01*
X83620531Y-86504572D01*
X83668554Y-86502624D01*
X83712594Y-86522637D01*
X83744291Y-86562551D01*
X83748451Y-86572848D01*
X83772673Y-86610724D01*
X83808035Y-86638842D01*
X83852657Y-86661917D01*
X83852657Y-86596485D01*
X83850031Y-86556506D01*
X83838770Y-86524997D01*
X83813801Y-86491378D01*
X83789831Y-86465484D01*
X83752559Y-86428817D01*
X83723599Y-86409121D01*
X83692495Y-86401220D01*
X83657287Y-86399914D01*
X83580124Y-86411335D01*
G36*
X83945167Y-86413663D02*
G01*
X83942952Y-86451850D01*
X83941216Y-86509886D01*
X83940101Y-86583180D01*
X83939743Y-86660055D01*
X83939743Y-86920196D01*
X83985674Y-86966127D01*
X84017325Y-86994429D01*
X84045110Y-87005893D01*
X84083085Y-87005168D01*
X84098160Y-87003321D01*
X84145274Y-86997948D01*
X84184244Y-86994869D01*
X84193743Y-86994585D01*
X84225767Y-86996445D01*
X84271568Y-87001114D01*
X84289326Y-87003321D01*
X84332943Y-87006735D01*
X84362255Y-86999320D01*
X84391320Y-86976427D01*
X84401812Y-86966127D01*
X84447743Y-86920196D01*
X84447743Y-86433602D01*
X84410774Y-86416758D01*
X84378941Y-86404282D01*
X84360317Y-86399914D01*
X84355542Y-86413718D01*
X84351079Y-86452286D01*
X84347225Y-86511356D01*
X84344278Y-86586663D01*
X84342857Y-86650286D01*
X84338886Y-86900657D01*
X84304241Y-86905556D01*
X84272732Y-86902131D01*
X84257292Y-86891041D01*
X84252977Y-86870308D01*
X84249292Y-86826145D01*
X84246531Y-86764146D01*
X84244988Y-86689909D01*
X84244765Y-86651706D01*
X84244543Y-86431783D01*
X84198834Y-86415849D01*
X84166482Y-86405015D01*
X84148885Y-86399962D01*
X84148377Y-86399914D01*
X84146612Y-86413648D01*
X84144671Y-86451730D01*
X84142718Y-86509482D01*
X84140916Y-86582227D01*
X84139657Y-86650286D01*
X84135686Y-86900657D01*
X84048600Y-86900657D01*
X84044604Y-86672240D01*
X84040608Y-86443822D01*
X83998153Y-86421868D01*
X83966808Y-86406793D01*
X83948256Y-86399951D01*
X83947721Y-86399914D01*
X83945167Y-86413663D01*
G37*
X83945167Y-86413663D02*
X83942952Y-86451850D01*
X83941216Y-86509886D01*
X83940101Y-86583180D01*
X83939743Y-86660055D01*
X83939743Y-86920196D01*
X83985674Y-86966127D01*
X84017325Y-86994429D01*
X84045110Y-87005893D01*
X84083085Y-87005168D01*
X84098160Y-87003321D01*
X84145274Y-86997948D01*
X84184244Y-86994869D01*
X84193743Y-86994585D01*
X84225767Y-86996445D01*
X84271568Y-87001114D01*
X84289326Y-87003321D01*
X84332943Y-87006735D01*
X84362255Y-86999320D01*
X84391320Y-86976427D01*
X84401812Y-86966127D01*
X84447743Y-86920196D01*
X84447743Y-86433602D01*
X84410774Y-86416758D01*
X84378941Y-86404282D01*
X84360317Y-86399914D01*
X84355542Y-86413718D01*
X84351079Y-86452286D01*
X84347225Y-86511356D01*
X84344278Y-86586663D01*
X84342857Y-86650286D01*
X84338886Y-86900657D01*
X84304241Y-86905556D01*
X84272732Y-86902131D01*
X84257292Y-86891041D01*
X84252977Y-86870308D01*
X84249292Y-86826145D01*
X84246531Y-86764146D01*
X84244988Y-86689909D01*
X84244765Y-86651706D01*
X84244543Y-86431783D01*
X84198834Y-86415849D01*
X84166482Y-86405015D01*
X84148885Y-86399962D01*
X84148377Y-86399914D01*
X84146612Y-86413648D01*
X84144671Y-86451730D01*
X84142718Y-86509482D01*
X84140916Y-86582227D01*
X84139657Y-86650286D01*
X84135686Y-86900657D01*
X84048600Y-86900657D01*
X84044604Y-86672240D01*
X84040608Y-86443822D01*
X83998153Y-86421868D01*
X83966808Y-86406793D01*
X83948256Y-86399951D01*
X83947721Y-86399914D01*
X83945167Y-86413663D01*
G36*
X84534883Y-86520358D02*
G01*
X84535067Y-86628837D01*
X84535781Y-86712287D01*
X84537325Y-86774704D01*
X84539999Y-86820085D01*
X84544106Y-86852429D01*
X84549945Y-86875733D01*
X84557818Y-86893995D01*
X84563779Y-86904418D01*
X84613145Y-86960945D01*
X84675736Y-86996377D01*
X84744987Y-87009090D01*
X84814332Y-86997463D01*
X84855625Y-86976568D01*
X84898975Y-86940422D01*
X84928519Y-86896276D01*
X84946345Y-86838462D01*
X84954537Y-86761313D01*
X84955698Y-86704714D01*
X84955542Y-86700647D01*
X84854143Y-86700647D01*
X84853524Y-86765550D01*
X84850686Y-86808514D01*
X84844160Y-86836622D01*
X84832477Y-86856953D01*
X84818517Y-86872288D01*
X84771635Y-86901890D01*
X84721299Y-86904419D01*
X84673724Y-86879705D01*
X84670021Y-86876356D01*
X84654217Y-86858935D01*
X84644307Y-86838209D01*
X84638942Y-86807362D01*
X84636772Y-86759577D01*
X84636429Y-86706748D01*
X84637173Y-86640381D01*
X84640252Y-86596106D01*
X84646939Y-86567009D01*
X84658504Y-86546173D01*
X84667987Y-86535107D01*
X84712040Y-86507198D01*
X84762776Y-86503843D01*
X84811204Y-86525159D01*
X84820550Y-86533073D01*
X84836460Y-86550647D01*
X84846390Y-86571587D01*
X84851722Y-86602782D01*
X84853837Y-86651122D01*
X84854143Y-86700647D01*
X84955542Y-86700647D01*
X84952190Y-86613568D01*
X84940274Y-86545086D01*
X84917865Y-86493600D01*
X84882876Y-86453443D01*
X84855625Y-86432861D01*
X84806093Y-86410625D01*
X84748684Y-86400304D01*
X84695318Y-86403067D01*
X84665457Y-86414212D01*
X84653739Y-86417383D01*
X84645963Y-86405557D01*
X84640535Y-86373866D01*
X84636429Y-86325593D01*
X84631933Y-86271829D01*
X84625687Y-86239482D01*
X84614324Y-86220985D01*
X84594472Y-86208770D01*
X84582000Y-86203362D01*
X84534829Y-86183601D01*
X84534883Y-86520358D01*
G37*
X84534883Y-86520358D02*
X84535067Y-86628837D01*
X84535781Y-86712287D01*
X84537325Y-86774704D01*
X84539999Y-86820085D01*
X84544106Y-86852429D01*
X84549945Y-86875733D01*
X84557818Y-86893995D01*
X84563779Y-86904418D01*
X84613145Y-86960945D01*
X84675736Y-86996377D01*
X84744987Y-87009090D01*
X84814332Y-86997463D01*
X84855625Y-86976568D01*
X84898975Y-86940422D01*
X84928519Y-86896276D01*
X84946345Y-86838462D01*
X84954537Y-86761313D01*
X84955698Y-86704714D01*
X84955542Y-86700647D01*
X84854143Y-86700647D01*
X84853524Y-86765550D01*
X84850686Y-86808514D01*
X84844160Y-86836622D01*
X84832477Y-86856953D01*
X84818517Y-86872288D01*
X84771635Y-86901890D01*
X84721299Y-86904419D01*
X84673724Y-86879705D01*
X84670021Y-86876356D01*
X84654217Y-86858935D01*
X84644307Y-86838209D01*
X84638942Y-86807362D01*
X84636772Y-86759577D01*
X84636429Y-86706748D01*
X84637173Y-86640381D01*
X84640252Y-86596106D01*
X84646939Y-86567009D01*
X84658504Y-86546173D01*
X84667987Y-86535107D01*
X84712040Y-86507198D01*
X84762776Y-86503843D01*
X84811204Y-86525159D01*
X84820550Y-86533073D01*
X84836460Y-86550647D01*
X84846390Y-86571587D01*
X84851722Y-86602782D01*
X84853837Y-86651122D01*
X84854143Y-86700647D01*
X84955542Y-86700647D01*
X84952190Y-86613568D01*
X84940274Y-86545086D01*
X84917865Y-86493600D01*
X84882876Y-86453443D01*
X84855625Y-86432861D01*
X84806093Y-86410625D01*
X84748684Y-86400304D01*
X84695318Y-86403067D01*
X84665457Y-86414212D01*
X84653739Y-86417383D01*
X84645963Y-86405557D01*
X84640535Y-86373866D01*
X84636429Y-86325593D01*
X84631933Y-86271829D01*
X84625687Y-86239482D01*
X84614324Y-86220985D01*
X84594472Y-86208770D01*
X84582000Y-86203362D01*
X84534829Y-86183601D01*
X84534883Y-86520358D01*
G36*
X86349114Y-86306289D02*
G01*
X86344861Y-86365613D01*
X86339975Y-86400572D01*
X86333205Y-86415820D01*
X86323298Y-86416015D01*
X86320086Y-86414195D01*
X86277356Y-86401015D01*
X86221773Y-86401785D01*
X86165263Y-86415333D01*
X86129918Y-86432861D01*
X86093679Y-86460861D01*
X86067187Y-86492549D01*
X86049001Y-86532813D01*
X86037678Y-86586543D01*
X86031778Y-86658626D01*
X86029857Y-86753951D01*
X86029823Y-86772237D01*
X86029800Y-86977646D01*
X86075509Y-86993580D01*
X86107973Y-87004420D01*
X86125785Y-87009468D01*
X86126309Y-87009514D01*
X86128063Y-86995828D01*
X86129556Y-86958076D01*
X86130674Y-86901224D01*
X86131303Y-86830234D01*
X86131400Y-86787073D01*
X86131602Y-86701973D01*
X86132642Y-86640981D01*
X86135169Y-86599177D01*
X86139836Y-86571642D01*
X86147293Y-86553456D01*
X86158189Y-86539698D01*
X86164993Y-86533073D01*
X86211728Y-86506375D01*
X86262728Y-86504375D01*
X86308999Y-86526955D01*
X86317556Y-86535107D01*
X86330107Y-86550436D01*
X86338812Y-86568618D01*
X86344369Y-86594909D01*
X86347474Y-86634562D01*
X86348824Y-86692832D01*
X86349114Y-86773173D01*
X86349114Y-86977646D01*
X86394823Y-86993580D01*
X86427287Y-87004420D01*
X86445099Y-87009468D01*
X86445623Y-87009514D01*
X86446963Y-86995623D01*
X86448172Y-86956439D01*
X86449199Y-86895700D01*
X86449998Y-86817141D01*
X86450519Y-86724498D01*
X86450714Y-86621509D01*
X86450714Y-86224342D01*
X86403543Y-86204444D01*
X86356371Y-86184547D01*
X86349114Y-86306289D01*
G37*
X86349114Y-86306289D02*
X86344861Y-86365613D01*
X86339975Y-86400572D01*
X86333205Y-86415820D01*
X86323298Y-86416015D01*
X86320086Y-86414195D01*
X86277356Y-86401015D01*
X86221773Y-86401785D01*
X86165263Y-86415333D01*
X86129918Y-86432861D01*
X86093679Y-86460861D01*
X86067187Y-86492549D01*
X86049001Y-86532813D01*
X86037678Y-86586543D01*
X86031778Y-86658626D01*
X86029857Y-86753951D01*
X86029823Y-86772237D01*
X86029800Y-86977646D01*
X86075509Y-86993580D01*
X86107973Y-87004420D01*
X86125785Y-87009468D01*
X86126309Y-87009514D01*
X86128063Y-86995828D01*
X86129556Y-86958076D01*
X86130674Y-86901224D01*
X86131303Y-86830234D01*
X86131400Y-86787073D01*
X86131602Y-86701973D01*
X86132642Y-86640981D01*
X86135169Y-86599177D01*
X86139836Y-86571642D01*
X86147293Y-86553456D01*
X86158189Y-86539698D01*
X86164993Y-86533073D01*
X86211728Y-86506375D01*
X86262728Y-86504375D01*
X86308999Y-86526955D01*
X86317556Y-86535107D01*
X86330107Y-86550436D01*
X86338812Y-86568618D01*
X86344369Y-86594909D01*
X86347474Y-86634562D01*
X86348824Y-86692832D01*
X86349114Y-86773173D01*
X86349114Y-86977646D01*
X86394823Y-86993580D01*
X86427287Y-87004420D01*
X86445099Y-87009468D01*
X86445623Y-87009514D01*
X86446963Y-86995623D01*
X86448172Y-86956439D01*
X86449199Y-86895700D01*
X86449998Y-86817141D01*
X86450519Y-86724498D01*
X86450714Y-86621509D01*
X86450714Y-86224342D01*
X86403543Y-86204444D01*
X86356371Y-86184547D01*
X86349114Y-86306289D01*
G36*
X87556697Y-86386239D02*
G01*
X87499473Y-86424735D01*
X87455251Y-86480335D01*
X87428833Y-86551086D01*
X87423490Y-86603162D01*
X87424097Y-86624893D01*
X87429178Y-86641531D01*
X87443145Y-86656437D01*
X87470411Y-86672973D01*
X87515388Y-86694498D01*
X87582489Y-86724374D01*
X87582829Y-86724524D01*
X87644593Y-86752813D01*
X87695241Y-86777933D01*
X87729596Y-86797179D01*
X87742482Y-86807848D01*
X87742486Y-86807934D01*
X87731128Y-86831166D01*
X87704569Y-86856774D01*
X87674077Y-86875221D01*
X87658630Y-86878886D01*
X87616485Y-86866212D01*
X87580192Y-86834471D01*
X87562483Y-86799572D01*
X87545448Y-86773845D01*
X87512078Y-86744546D01*
X87472851Y-86719235D01*
X87438244Y-86705471D01*
X87431007Y-86704714D01*
X87422861Y-86717160D01*
X87422370Y-86748972D01*
X87428357Y-86791866D01*
X87439643Y-86837558D01*
X87455050Y-86877761D01*
X87455829Y-86879322D01*
X87502196Y-86944062D01*
X87562289Y-86988097D01*
X87630535Y-87009711D01*
X87701362Y-87007185D01*
X87769196Y-86978804D01*
X87772212Y-86976808D01*
X87825573Y-86928448D01*
X87860660Y-86865352D01*
X87880078Y-86782387D01*
X87882684Y-86759078D01*
X87887299Y-86649055D01*
X87881767Y-86597748D01*
X87742486Y-86597748D01*
X87740676Y-86629753D01*
X87730778Y-86639093D01*
X87706102Y-86632105D01*
X87667205Y-86615587D01*
X87623725Y-86594881D01*
X87622644Y-86594333D01*
X87585791Y-86574949D01*
X87571000Y-86562013D01*
X87574647Y-86548451D01*
X87590005Y-86530632D01*
X87629077Y-86504845D01*
X87671154Y-86502950D01*
X87708897Y-86521717D01*
X87734966Y-86557915D01*
X87742486Y-86597748D01*
X87881767Y-86597748D01*
X87877806Y-86561027D01*
X87853450Y-86491212D01*
X87819544Y-86442302D01*
X87758347Y-86392878D01*
X87690937Y-86368359D01*
X87622120Y-86366797D01*
X87556697Y-86386239D01*
G37*
X87556697Y-86386239D02*
X87499473Y-86424735D01*
X87455251Y-86480335D01*
X87428833Y-86551086D01*
X87423490Y-86603162D01*
X87424097Y-86624893D01*
X87429178Y-86641531D01*
X87443145Y-86656437D01*
X87470411Y-86672973D01*
X87515388Y-86694498D01*
X87582489Y-86724374D01*
X87582829Y-86724524D01*
X87644593Y-86752813D01*
X87695241Y-86777933D01*
X87729596Y-86797179D01*
X87742482Y-86807848D01*
X87742486Y-86807934D01*
X87731128Y-86831166D01*
X87704569Y-86856774D01*
X87674077Y-86875221D01*
X87658630Y-86878886D01*
X87616485Y-86866212D01*
X87580192Y-86834471D01*
X87562483Y-86799572D01*
X87545448Y-86773845D01*
X87512078Y-86744546D01*
X87472851Y-86719235D01*
X87438244Y-86705471D01*
X87431007Y-86704714D01*
X87422861Y-86717160D01*
X87422370Y-86748972D01*
X87428357Y-86791866D01*
X87439643Y-86837558D01*
X87455050Y-86877761D01*
X87455829Y-86879322D01*
X87502196Y-86944062D01*
X87562289Y-86988097D01*
X87630535Y-87009711D01*
X87701362Y-87007185D01*
X87769196Y-86978804D01*
X87772212Y-86976808D01*
X87825573Y-86928448D01*
X87860660Y-86865352D01*
X87880078Y-86782387D01*
X87882684Y-86759078D01*
X87887299Y-86649055D01*
X87881767Y-86597748D01*
X87742486Y-86597748D01*
X87740676Y-86629753D01*
X87730778Y-86639093D01*
X87706102Y-86632105D01*
X87667205Y-86615587D01*
X87623725Y-86594881D01*
X87622644Y-86594333D01*
X87585791Y-86574949D01*
X87571000Y-86562013D01*
X87574647Y-86548451D01*
X87590005Y-86530632D01*
X87629077Y-86504845D01*
X87671154Y-86502950D01*
X87708897Y-86521717D01*
X87734966Y-86557915D01*
X87742486Y-86597748D01*
X87881767Y-86597748D01*
X87877806Y-86561027D01*
X87853450Y-86491212D01*
X87819544Y-86442302D01*
X87758347Y-86392878D01*
X87690937Y-86368359D01*
X87622120Y-86366797D01*
X87556697Y-86386239D01*
G36*
X87008907Y-86382780D02*
G01*
X86962328Y-86409723D01*
X86929943Y-86436466D01*
X86906258Y-86464484D01*
X86889941Y-86498748D01*
X86879661Y-86544227D01*
X86874086Y-86605892D01*
X86871884Y-86688711D01*
X86871629Y-86748246D01*
X86871629Y-86967391D01*
X86933314Y-86995044D01*
X86995000Y-87022697D01*
X87002257Y-86782670D01*
X87005256Y-86693028D01*
X87008402Y-86627962D01*
X87012299Y-86583026D01*
X87017553Y-86553770D01*
X87024769Y-86535748D01*
X87034550Y-86524511D01*
X87037688Y-86522079D01*
X87085239Y-86503083D01*
X87133303Y-86510600D01*
X87161914Y-86530543D01*
X87173553Y-86544675D01*
X87181609Y-86563220D01*
X87186729Y-86591334D01*
X87189559Y-86634173D01*
X87190744Y-86696895D01*
X87190943Y-86762261D01*
X87190982Y-86844268D01*
X87192386Y-86902316D01*
X87197086Y-86941465D01*
X87207013Y-86966780D01*
X87224097Y-86983323D01*
X87250268Y-86996156D01*
X87285225Y-87009491D01*
X87323404Y-87024007D01*
X87318859Y-86766389D01*
X87317029Y-86673519D01*
X87314888Y-86604889D01*
X87311819Y-86555711D01*
X87307206Y-86521198D01*
X87300432Y-86496562D01*
X87290881Y-86477016D01*
X87279366Y-86459770D01*
X87223810Y-86404680D01*
X87156020Y-86372822D01*
X87082287Y-86365191D01*
X87008907Y-86382780D01*
G37*
X87008907Y-86382780D02*
X86962328Y-86409723D01*
X86929943Y-86436466D01*
X86906258Y-86464484D01*
X86889941Y-86498748D01*
X86879661Y-86544227D01*
X86874086Y-86605892D01*
X86871884Y-86688711D01*
X86871629Y-86748246D01*
X86871629Y-86967391D01*
X86933314Y-86995044D01*
X86995000Y-87022697D01*
X87002257Y-86782670D01*
X87005256Y-86693028D01*
X87008402Y-86627962D01*
X87012299Y-86583026D01*
X87017553Y-86553770D01*
X87024769Y-86535748D01*
X87034550Y-86524511D01*
X87037688Y-86522079D01*
X87085239Y-86503083D01*
X87133303Y-86510600D01*
X87161914Y-86530543D01*
X87173553Y-86544675D01*
X87181609Y-86563220D01*
X87186729Y-86591334D01*
X87189559Y-86634173D01*
X87190744Y-86696895D01*
X87190943Y-86762261D01*
X87190982Y-86844268D01*
X87192386Y-86902316D01*
X87197086Y-86941465D01*
X87207013Y-86966780D01*
X87224097Y-86983323D01*
X87250268Y-86996156D01*
X87285225Y-87009491D01*
X87323404Y-87024007D01*
X87318859Y-86766389D01*
X87317029Y-86673519D01*
X87314888Y-86604889D01*
X87311819Y-86555711D01*
X87307206Y-86521198D01*
X87300432Y-86496562D01*
X87290881Y-86477016D01*
X87279366Y-86459770D01*
X87223810Y-86404680D01*
X87156020Y-86372822D01*
X87082287Y-86365191D01*
X87008907Y-86382780D01*
G36*
X88683885Y-86376962D02*
G01*
X88615855Y-86412733D01*
X88565649Y-86470301D01*
X88547815Y-86507312D01*
X88533937Y-86562882D01*
X88526833Y-86633096D01*
X88526160Y-86709727D01*
X88531573Y-86784552D01*
X88542730Y-86849342D01*
X88559286Y-86895873D01*
X88564374Y-86903887D01*
X88624645Y-86963707D01*
X88696231Y-86999535D01*
X88773908Y-87010020D01*
X88852452Y-86993810D01*
X88874311Y-86984092D01*
X88916878Y-86954143D01*
X88954237Y-86914433D01*
X88957768Y-86909397D01*
X88972119Y-86885124D01*
X88981606Y-86859178D01*
X88987210Y-86825022D01*
X88989914Y-86776119D01*
X88990701Y-86705935D01*
X88990714Y-86690200D01*
X88990678Y-86685192D01*
X88845571Y-86685192D01*
X88844727Y-86751430D01*
X88841404Y-86795386D01*
X88834417Y-86823779D01*
X88822584Y-86843325D01*
X88816543Y-86849857D01*
X88781814Y-86874680D01*
X88748097Y-86873548D01*
X88714005Y-86852016D01*
X88693671Y-86829029D01*
X88681629Y-86795478D01*
X88674866Y-86742569D01*
X88674402Y-86736399D01*
X88673248Y-86640513D01*
X88685312Y-86569299D01*
X88710430Y-86523194D01*
X88748440Y-86502635D01*
X88762008Y-86501514D01*
X88797636Y-86507152D01*
X88822006Y-86526686D01*
X88836907Y-86564042D01*
X88844125Y-86623150D01*
X88845571Y-86685192D01*
X88990678Y-86685192D01*
X88990174Y-86615413D01*
X88987904Y-86563159D01*
X88982932Y-86526949D01*
X88974287Y-86500299D01*
X88960995Y-86476722D01*
X88958057Y-86472338D01*
X88908687Y-86413249D01*
X88854891Y-86378947D01*
X88789398Y-86365331D01*
X88767158Y-86364665D01*
X88683885Y-86376962D01*
G37*
X88683885Y-86376962D02*
X88615855Y-86412733D01*
X88565649Y-86470301D01*
X88547815Y-86507312D01*
X88533937Y-86562882D01*
X88526833Y-86633096D01*
X88526160Y-86709727D01*
X88531573Y-86784552D01*
X88542730Y-86849342D01*
X88559286Y-86895873D01*
X88564374Y-86903887D01*
X88624645Y-86963707D01*
X88696231Y-86999535D01*
X88773908Y-87010020D01*
X88852452Y-86993810D01*
X88874311Y-86984092D01*
X88916878Y-86954143D01*
X88954237Y-86914433D01*
X88957768Y-86909397D01*
X88972119Y-86885124D01*
X88981606Y-86859178D01*
X88987210Y-86825022D01*
X88989914Y-86776119D01*
X88990701Y-86705935D01*
X88990714Y-86690200D01*
X88990678Y-86685192D01*
X88845571Y-86685192D01*
X88844727Y-86751430D01*
X88841404Y-86795386D01*
X88834417Y-86823779D01*
X88822584Y-86843325D01*
X88816543Y-86849857D01*
X88781814Y-86874680D01*
X88748097Y-86873548D01*
X88714005Y-86852016D01*
X88693671Y-86829029D01*
X88681629Y-86795478D01*
X88674866Y-86742569D01*
X88674402Y-86736399D01*
X88673248Y-86640513D01*
X88685312Y-86569299D01*
X88710430Y-86523194D01*
X88748440Y-86502635D01*
X88762008Y-86501514D01*
X88797636Y-86507152D01*
X88822006Y-86526686D01*
X88836907Y-86564042D01*
X88844125Y-86623150D01*
X88845571Y-86685192D01*
X88990678Y-86685192D01*
X88990174Y-86615413D01*
X88987904Y-86563159D01*
X88982932Y-86526949D01*
X88974287Y-86500299D01*
X88960995Y-86476722D01*
X88958057Y-86472338D01*
X88908687Y-86413249D01*
X88854891Y-86378947D01*
X88789398Y-86365331D01*
X88767158Y-86364665D01*
X88683885Y-86376962D01*
G36*
X83072400Y-86413752D02*
G01*
X83055052Y-86421334D01*
X83013644Y-86454128D01*
X82978235Y-86501547D01*
X82956336Y-86552151D01*
X82952771Y-86577098D01*
X82964721Y-86611927D01*
X82990933Y-86630357D01*
X83019036Y-86641516D01*
X83031905Y-86643572D01*
X83038171Y-86628649D01*
X83050544Y-86596175D01*
X83055972Y-86581502D01*
X83086410Y-86530744D01*
X83130480Y-86505427D01*
X83186990Y-86506206D01*
X83191175Y-86507203D01*
X83221345Y-86521507D01*
X83243524Y-86549393D01*
X83258673Y-86594287D01*
X83267750Y-86659615D01*
X83271714Y-86748804D01*
X83272086Y-86796261D01*
X83272270Y-86871071D01*
X83273478Y-86922069D01*
X83276691Y-86954471D01*
X83282891Y-86973495D01*
X83293060Y-86984356D01*
X83308181Y-86992272D01*
X83309054Y-86992670D01*
X83338172Y-87004981D01*
X83352597Y-87009514D01*
X83354814Y-86995809D01*
X83356711Y-86957925D01*
X83358153Y-86900715D01*
X83359002Y-86829027D01*
X83359171Y-86776565D01*
X83358308Y-86675047D01*
X83354930Y-86598032D01*
X83347858Y-86541023D01*
X83335912Y-86499526D01*
X83317910Y-86469043D01*
X83292673Y-86445080D01*
X83267753Y-86428355D01*
X83207829Y-86406097D01*
X83138089Y-86401076D01*
X83072400Y-86413752D01*
G37*
X83072400Y-86413752D02*
X83055052Y-86421334D01*
X83013644Y-86454128D01*
X82978235Y-86501547D01*
X82956336Y-86552151D01*
X82952771Y-86577098D01*
X82964721Y-86611927D01*
X82990933Y-86630357D01*
X83019036Y-86641516D01*
X83031905Y-86643572D01*
X83038171Y-86628649D01*
X83050544Y-86596175D01*
X83055972Y-86581502D01*
X83086410Y-86530744D01*
X83130480Y-86505427D01*
X83186990Y-86506206D01*
X83191175Y-86507203D01*
X83221345Y-86521507D01*
X83243524Y-86549393D01*
X83258673Y-86594287D01*
X83267750Y-86659615D01*
X83271714Y-86748804D01*
X83272086Y-86796261D01*
X83272270Y-86871071D01*
X83273478Y-86922069D01*
X83276691Y-86954471D01*
X83282891Y-86973495D01*
X83293060Y-86984356D01*
X83308181Y-86992272D01*
X83309054Y-86992670D01*
X83338172Y-87004981D01*
X83352597Y-87009514D01*
X83354814Y-86995809D01*
X83356711Y-86957925D01*
X83358153Y-86900715D01*
X83359002Y-86829027D01*
X83359171Y-86776565D01*
X83358308Y-86675047D01*
X83354930Y-86598032D01*
X83347858Y-86541023D01*
X83335912Y-86499526D01*
X83317910Y-86469043D01*
X83292673Y-86445080D01*
X83267753Y-86428355D01*
X83207829Y-86406097D01*
X83138089Y-86401076D01*
X83072400Y-86413752D01*
G36*
X88125256Y-86374918D02*
G01*
X88069799Y-86402568D01*
X88020852Y-86453480D01*
X88007371Y-86472338D01*
X87992686Y-86497015D01*
X87983158Y-86523816D01*
X87977707Y-86559587D01*
X87975253Y-86611169D01*
X87974714Y-86679267D01*
X87977148Y-86772588D01*
X87985606Y-86842657D01*
X88001826Y-86894931D01*
X88027546Y-86934869D01*
X88064503Y-86967929D01*
X88067218Y-86969886D01*
X88103640Y-86989908D01*
X88147498Y-86999815D01*
X88203276Y-87002257D01*
X88293952Y-87002257D01*
X88293990Y-87090283D01*
X88294834Y-87139308D01*
X88299976Y-87168065D01*
X88313413Y-87185311D01*
X88339142Y-87199808D01*
X88345321Y-87202769D01*
X88374236Y-87216648D01*
X88396624Y-87225414D01*
X88413271Y-87226171D01*
X88424964Y-87216023D01*
X88432490Y-87192073D01*
X88436634Y-87151426D01*
X88438185Y-87091186D01*
X88437929Y-87008455D01*
X88436651Y-86900339D01*
X88436252Y-86868000D01*
X88434815Y-86756524D01*
X88433528Y-86683603D01*
X88294029Y-86683603D01*
X88293245Y-86745499D01*
X88289760Y-86785997D01*
X88281876Y-86812708D01*
X88267895Y-86833244D01*
X88258403Y-86843260D01*
X88219596Y-86872567D01*
X88185237Y-86874952D01*
X88149784Y-86850750D01*
X88148886Y-86849857D01*
X88134461Y-86831153D01*
X88125687Y-86805732D01*
X88121261Y-86766584D01*
X88119882Y-86706697D01*
X88119857Y-86693430D01*
X88123188Y-86610901D01*
X88134031Y-86553691D01*
X88153660Y-86518766D01*
X88183350Y-86503094D01*
X88200509Y-86501514D01*
X88241234Y-86508926D01*
X88269168Y-86533330D01*
X88285983Y-86577980D01*
X88293350Y-86646130D01*
X88294029Y-86683603D01*
X88433528Y-86683603D01*
X88433292Y-86670245D01*
X88431323Y-86605333D01*
X88428550Y-86557958D01*
X88424612Y-86524290D01*
X88419151Y-86500498D01*
X88411808Y-86482753D01*
X88402223Y-86467224D01*
X88398113Y-86461381D01*
X88343595Y-86406185D01*
X88274664Y-86374890D01*
X88194928Y-86366165D01*
X88125256Y-86374918D01*
G37*
X88125256Y-86374918D02*
X88069799Y-86402568D01*
X88020852Y-86453480D01*
X88007371Y-86472338D01*
X87992686Y-86497015D01*
X87983158Y-86523816D01*
X87977707Y-86559587D01*
X87975253Y-86611169D01*
X87974714Y-86679267D01*
X87977148Y-86772588D01*
X87985606Y-86842657D01*
X88001826Y-86894931D01*
X88027546Y-86934869D01*
X88064503Y-86967929D01*
X88067218Y-86969886D01*
X88103640Y-86989908D01*
X88147498Y-86999815D01*
X88203276Y-87002257D01*
X88293952Y-87002257D01*
X88293990Y-87090283D01*
X88294834Y-87139308D01*
X88299976Y-87168065D01*
X88313413Y-87185311D01*
X88339142Y-87199808D01*
X88345321Y-87202769D01*
X88374236Y-87216648D01*
X88396624Y-87225414D01*
X88413271Y-87226171D01*
X88424964Y-87216023D01*
X88432490Y-87192073D01*
X88436634Y-87151426D01*
X88438185Y-87091186D01*
X88437929Y-87008455D01*
X88436651Y-86900339D01*
X88436252Y-86868000D01*
X88434815Y-86756524D01*
X88433528Y-86683603D01*
X88294029Y-86683603D01*
X88293245Y-86745499D01*
X88289760Y-86785997D01*
X88281876Y-86812708D01*
X88267895Y-86833244D01*
X88258403Y-86843260D01*
X88219596Y-86872567D01*
X88185237Y-86874952D01*
X88149784Y-86850750D01*
X88148886Y-86849857D01*
X88134461Y-86831153D01*
X88125687Y-86805732D01*
X88121261Y-86766584D01*
X88119882Y-86706697D01*
X88119857Y-86693430D01*
X88123188Y-86610901D01*
X88134031Y-86553691D01*
X88153660Y-86518766D01*
X88183350Y-86503094D01*
X88200509Y-86501514D01*
X88241234Y-86508926D01*
X88269168Y-86533330D01*
X88285983Y-86577980D01*
X88293350Y-86646130D01*
X88294029Y-86683603D01*
X88433528Y-86683603D01*
X88433292Y-86670245D01*
X88431323Y-86605333D01*
X88428550Y-86557958D01*
X88424612Y-86524290D01*
X88419151Y-86500498D01*
X88411808Y-86482753D01*
X88402223Y-86467224D01*
X88398113Y-86461381D01*
X88343595Y-86406185D01*
X88274664Y-86374890D01*
X88194928Y-86366165D01*
X88125256Y-86374918D01*
G36*
X82571405Y-86421966D02*
G01*
X82513979Y-86459497D01*
X82486281Y-86493096D01*
X82464338Y-86554064D01*
X82462595Y-86602308D01*
X82466543Y-86666816D01*
X82615314Y-86731934D01*
X82687651Y-86765202D01*
X82734916Y-86791964D01*
X82759493Y-86815144D01*
X82763763Y-86837667D01*
X82750111Y-86862455D01*
X82735057Y-86878886D01*
X82691254Y-86905235D01*
X82643611Y-86907081D01*
X82599855Y-86886546D01*
X82567711Y-86845752D01*
X82561962Y-86831347D01*
X82534424Y-86786356D01*
X82502742Y-86767182D01*
X82459286Y-86750779D01*
X82459286Y-86812966D01*
X82463128Y-86855283D01*
X82478177Y-86890969D01*
X82509720Y-86931943D01*
X82514408Y-86937267D01*
X82549494Y-86973720D01*
X82579653Y-86993283D01*
X82617385Y-87002283D01*
X82648665Y-87005230D01*
X82704615Y-87005965D01*
X82744445Y-86996660D01*
X82769292Y-86982846D01*
X82808344Y-86952467D01*
X82835375Y-86919613D01*
X82852483Y-86878294D01*
X82861762Y-86822521D01*
X82865307Y-86746305D01*
X82865590Y-86707622D01*
X82864628Y-86661247D01*
X82776993Y-86661247D01*
X82775977Y-86686126D01*
X82773444Y-86690200D01*
X82756726Y-86684665D01*
X82720751Y-86670017D01*
X82672669Y-86649190D01*
X82662614Y-86644714D01*
X82601848Y-86613814D01*
X82568368Y-86586657D01*
X82561010Y-86561220D01*
X82578609Y-86535481D01*
X82593144Y-86524109D01*
X82645590Y-86501364D01*
X82694678Y-86505122D01*
X82735773Y-86532884D01*
X82764242Y-86582152D01*
X82773369Y-86621257D01*
X82776993Y-86661247D01*
X82864628Y-86661247D01*
X82863715Y-86617249D01*
X82856804Y-86550384D01*
X82843116Y-86501695D01*
X82820904Y-86465849D01*
X82788426Y-86437513D01*
X82774267Y-86428355D01*
X82709947Y-86404507D01*
X82639527Y-86403006D01*
X82571405Y-86421966D01*
G37*
X82571405Y-86421966D02*
X82513979Y-86459497D01*
X82486281Y-86493096D01*
X82464338Y-86554064D01*
X82462595Y-86602308D01*
X82466543Y-86666816D01*
X82615314Y-86731934D01*
X82687651Y-86765202D01*
X82734916Y-86791964D01*
X82759493Y-86815144D01*
X82763763Y-86837667D01*
X82750111Y-86862455D01*
X82735057Y-86878886D01*
X82691254Y-86905235D01*
X82643611Y-86907081D01*
X82599855Y-86886546D01*
X82567711Y-86845752D01*
X82561962Y-86831347D01*
X82534424Y-86786356D01*
X82502742Y-86767182D01*
X82459286Y-86750779D01*
X82459286Y-86812966D01*
X82463128Y-86855283D01*
X82478177Y-86890969D01*
X82509720Y-86931943D01*
X82514408Y-86937267D01*
X82549494Y-86973720D01*
X82579653Y-86993283D01*
X82617385Y-87002283D01*
X82648665Y-87005230D01*
X82704615Y-87005965D01*
X82744445Y-86996660D01*
X82769292Y-86982846D01*
X82808344Y-86952467D01*
X82835375Y-86919613D01*
X82852483Y-86878294D01*
X82861762Y-86822521D01*
X82865307Y-86746305D01*
X82865590Y-86707622D01*
X82864628Y-86661247D01*
X82776993Y-86661247D01*
X82775977Y-86686126D01*
X82773444Y-86690200D01*
X82756726Y-86684665D01*
X82720751Y-86670017D01*
X82672669Y-86649190D01*
X82662614Y-86644714D01*
X82601848Y-86613814D01*
X82568368Y-86586657D01*
X82561010Y-86561220D01*
X82578609Y-86535481D01*
X82593144Y-86524109D01*
X82645590Y-86501364D01*
X82694678Y-86505122D01*
X82735773Y-86532884D01*
X82764242Y-86582152D01*
X82773369Y-86621257D01*
X82776993Y-86661247D01*
X82864628Y-86661247D01*
X82863715Y-86617249D01*
X82856804Y-86550384D01*
X82843116Y-86501695D01*
X82820904Y-86465849D01*
X82788426Y-86437513D01*
X82774267Y-86428355D01*
X82709947Y-86404507D01*
X82639527Y-86403006D01*
X82571405Y-86421966D01*
G36*
X85195074Y-86404755D02*
G01*
X85129142Y-86429084D01*
X85075727Y-86472117D01*
X85054836Y-86502409D01*
X85032061Y-86557994D01*
X85032534Y-86598186D01*
X85056438Y-86625217D01*
X85065283Y-86629813D01*
X85103470Y-86644144D01*
X85122972Y-86640472D01*
X85129578Y-86616407D01*
X85129914Y-86603114D01*
X85142008Y-86554210D01*
X85173529Y-86519999D01*
X85217341Y-86503476D01*
X85266305Y-86507634D01*
X85306106Y-86529227D01*
X85319550Y-86541544D01*
X85329079Y-86556487D01*
X85335515Y-86579075D01*
X85339683Y-86614328D01*
X85342403Y-86667266D01*
X85344498Y-86742907D01*
X85345040Y-86766857D01*
X85347019Y-86848790D01*
X85349269Y-86906455D01*
X85352643Y-86944608D01*
X85357994Y-86968004D01*
X85366176Y-86981398D01*
X85378041Y-86989545D01*
X85385638Y-86993144D01*
X85417898Y-87005452D01*
X85436889Y-87009514D01*
X85443164Y-86995948D01*
X85446994Y-86954934D01*
X85448400Y-86885999D01*
X85447402Y-86788669D01*
X85447092Y-86773657D01*
X85444899Y-86684859D01*
X85442307Y-86620019D01*
X85438618Y-86574067D01*
X85433136Y-86541935D01*
X85425165Y-86518553D01*
X85414007Y-86498852D01*
X85408170Y-86490410D01*
X85374704Y-86453057D01*
X85337273Y-86424003D01*
X85332691Y-86421467D01*
X85265574Y-86401443D01*
X85195074Y-86404755D01*
G37*
X85195074Y-86404755D02*
X85129142Y-86429084D01*
X85075727Y-86472117D01*
X85054836Y-86502409D01*
X85032061Y-86557994D01*
X85032534Y-86598186D01*
X85056438Y-86625217D01*
X85065283Y-86629813D01*
X85103470Y-86644144D01*
X85122972Y-86640472D01*
X85129578Y-86616407D01*
X85129914Y-86603114D01*
X85142008Y-86554210D01*
X85173529Y-86519999D01*
X85217341Y-86503476D01*
X85266305Y-86507634D01*
X85306106Y-86529227D01*
X85319550Y-86541544D01*
X85329079Y-86556487D01*
X85335515Y-86579075D01*
X85339683Y-86614328D01*
X85342403Y-86667266D01*
X85344498Y-86742907D01*
X85345040Y-86766857D01*
X85347019Y-86848790D01*
X85349269Y-86906455D01*
X85352643Y-86944608D01*
X85357994Y-86968004D01*
X85366176Y-86981398D01*
X85378041Y-86989545D01*
X85385638Y-86993144D01*
X85417898Y-87005452D01*
X85436889Y-87009514D01*
X85443164Y-86995948D01*
X85446994Y-86954934D01*
X85448400Y-86885999D01*
X85447402Y-86788669D01*
X85447092Y-86773657D01*
X85444899Y-86684859D01*
X85442307Y-86620019D01*
X85438618Y-86574067D01*
X85433136Y-86541935D01*
X85425165Y-86518553D01*
X85414007Y-86498852D01*
X85408170Y-86490410D01*
X85374704Y-86453057D01*
X85337273Y-86424003D01*
X85332691Y-86421467D01*
X85265574Y-86401443D01*
X85195074Y-86404755D01*
G36*
X85685256Y-86405968D02*
G01*
X85628384Y-86427087D01*
X85627733Y-86427493D01*
X85592560Y-86453380D01*
X85566593Y-86483633D01*
X85548330Y-86523058D01*
X85536268Y-86576462D01*
X85528904Y-86648651D01*
X85524736Y-86744432D01*
X85524371Y-86758078D01*
X85519124Y-86963842D01*
X85563284Y-86986678D01*
X85595237Y-87002110D01*
X85614530Y-87009423D01*
X85615422Y-87009514D01*
X85618761Y-86996022D01*
X85621413Y-86959626D01*
X85623044Y-86906452D01*
X85623400Y-86863393D01*
X85623408Y-86793641D01*
X85626597Y-86749837D01*
X85637712Y-86728944D01*
X85661499Y-86727925D01*
X85702704Y-86743741D01*
X85764914Y-86772815D01*
X85810659Y-86796963D01*
X85834187Y-86817913D01*
X85841104Y-86840747D01*
X85841114Y-86841877D01*
X85829701Y-86881212D01*
X85795908Y-86902462D01*
X85744191Y-86905539D01*
X85706939Y-86905006D01*
X85687297Y-86915735D01*
X85675048Y-86941505D01*
X85667998Y-86974337D01*
X85678158Y-86992966D01*
X85681983Y-86995632D01*
X85717999Y-87006340D01*
X85768434Y-87007856D01*
X85820374Y-87000759D01*
X85857178Y-86987788D01*
X85908062Y-86944585D01*
X85936986Y-86884446D01*
X85942714Y-86837462D01*
X85938343Y-86795082D01*
X85922525Y-86760488D01*
X85891203Y-86729763D01*
X85840322Y-86698990D01*
X85765824Y-86664252D01*
X85761286Y-86662288D01*
X85694179Y-86631287D01*
X85652768Y-86605862D01*
X85635019Y-86583014D01*
X85638893Y-86559745D01*
X85662357Y-86533056D01*
X85669373Y-86526914D01*
X85716370Y-86503100D01*
X85765067Y-86504103D01*
X85807478Y-86527451D01*
X85835616Y-86570675D01*
X85838231Y-86579160D01*
X85863692Y-86620308D01*
X85895999Y-86640128D01*
X85942714Y-86659770D01*
X85942714Y-86608950D01*
X85928504Y-86535082D01*
X85886325Y-86467327D01*
X85864376Y-86444661D01*
X85814483Y-86415569D01*
X85751033Y-86402400D01*
X85685256Y-86405968D01*
G37*
X85685256Y-86405968D02*
X85628384Y-86427087D01*
X85627733Y-86427493D01*
X85592560Y-86453380D01*
X85566593Y-86483633D01*
X85548330Y-86523058D01*
X85536268Y-86576462D01*
X85528904Y-86648651D01*
X85524736Y-86744432D01*
X85524371Y-86758078D01*
X85519124Y-86963842D01*
X85563284Y-86986678D01*
X85595237Y-87002110D01*
X85614530Y-87009423D01*
X85615422Y-87009514D01*
X85618761Y-86996022D01*
X85621413Y-86959626D01*
X85623044Y-86906452D01*
X85623400Y-86863393D01*
X85623408Y-86793641D01*
X85626597Y-86749837D01*
X85637712Y-86728944D01*
X85661499Y-86727925D01*
X85702704Y-86743741D01*
X85764914Y-86772815D01*
X85810659Y-86796963D01*
X85834187Y-86817913D01*
X85841104Y-86840747D01*
X85841114Y-86841877D01*
X85829701Y-86881212D01*
X85795908Y-86902462D01*
X85744191Y-86905539D01*
X85706939Y-86905006D01*
X85687297Y-86915735D01*
X85675048Y-86941505D01*
X85667998Y-86974337D01*
X85678158Y-86992966D01*
X85681983Y-86995632D01*
X85717999Y-87006340D01*
X85768434Y-87007856D01*
X85820374Y-87000759D01*
X85857178Y-86987788D01*
X85908062Y-86944585D01*
X85936986Y-86884446D01*
X85942714Y-86837462D01*
X85938343Y-86795082D01*
X85922525Y-86760488D01*
X85891203Y-86729763D01*
X85840322Y-86698990D01*
X85765824Y-86664252D01*
X85761286Y-86662288D01*
X85694179Y-86631287D01*
X85652768Y-86605862D01*
X85635019Y-86583014D01*
X85638893Y-86559745D01*
X85662357Y-86533056D01*
X85669373Y-86526914D01*
X85716370Y-86503100D01*
X85765067Y-86504103D01*
X85807478Y-86527451D01*
X85835616Y-86570675D01*
X85838231Y-86579160D01*
X85863692Y-86620308D01*
X85895999Y-86640128D01*
X85942714Y-86659770D01*
X85942714Y-86608950D01*
X85928504Y-86535082D01*
X85886325Y-86467327D01*
X85864376Y-86444661D01*
X85814483Y-86415569D01*
X85751033Y-86402400D01*
X85685256Y-86405968D01*
D13*
X148590000Y-130810000D03*
D14*
X147300000Y-137250000D03*
D13*
X154940000Y-128270000D03*
X154940000Y-128270000D03*
D14*
X147300000Y-137250000D03*
D15*
X152400000Y-133350000D03*
D16*
X146900000Y-133350000D03*
X157900000Y-133350000D03*
D17*
X152400000Y-139250000D03*
D13*
X148590000Y-130810000D03*
D18*
X157480000Y-133350000D03*
X147320000Y-133350000D03*
D13*
X148590000Y-111760000D03*
D14*
X147300000Y-118200000D03*
D13*
X154940000Y-109220000D03*
X154940000Y-109220000D03*
D14*
X147300000Y-118200000D03*
D15*
X152400000Y-114300000D03*
D16*
X146900000Y-114300000D03*
X157900000Y-114300000D03*
D17*
X152400000Y-120200000D03*
D13*
X148590000Y-111760000D03*
D18*
X157480000Y-114300000D03*
X147320000Y-114300000D03*
X83820000Y-40005000D03*
X81280000Y-40005000D03*
X78740000Y-40005000D03*
X76200000Y-40005000D03*
X73660000Y-40005000D03*
X71120000Y-40005000D03*
X68580000Y-40005000D03*
X83820000Y-42545000D03*
X81280000Y-42545000D03*
X78740000Y-42545000D03*
X76200000Y-42545000D03*
X73660000Y-42545000D03*
X71120000Y-42545000D03*
G36*
G01*
X69180000Y-43395000D02*
X67980000Y-43395000D01*
G75*
G02*
X67730000Y-43145000I0J250000D01*
G01*
X67730000Y-41945000D01*
G75*
G02*
X67980000Y-41695000I250000J0D01*
G01*
X69180000Y-41695000D01*
G75*
G02*
X69430000Y-41945000I0J-250000D01*
G01*
X69430000Y-43145000D01*
G75*
G02*
X69180000Y-43395000I-250000J0D01*
G01*
G37*
D19*
X104775000Y-104775000D03*
X142875000Y-142875000D03*
X142875000Y-66675000D03*
X66040000Y-142240000D03*
X66675000Y-66675000D03*
D13*
X53340000Y-54610000D03*
D14*
X52050000Y-61050000D03*
D13*
X59690000Y-52070000D03*
X59690000Y-52070000D03*
D14*
X52050000Y-61050000D03*
D15*
X57150000Y-57150000D03*
D16*
X51650000Y-57150000D03*
X62650000Y-57150000D03*
D17*
X57150000Y-63050000D03*
D13*
X53340000Y-54610000D03*
D18*
X62230000Y-57150000D03*
X52070000Y-57150000D03*
G36*
G01*
X94799600Y-39675000D02*
X95700400Y-39675000D01*
G75*
G02*
X95950000Y-39924600I0J-249600D01*
G01*
X95950000Y-40625400D01*
G75*
G02*
X95700400Y-40875000I-249600J0D01*
G01*
X94799600Y-40875000D01*
G75*
G02*
X94550000Y-40625400I0J249600D01*
G01*
X94550000Y-39924600D01*
G75*
G02*
X94799600Y-39675000I249600J0D01*
G01*
G37*
G36*
G01*
X94799600Y-41675000D02*
X95700400Y-41675000D01*
G75*
G02*
X95950000Y-41924600I0J-249600D01*
G01*
X95950000Y-42625400D01*
G75*
G02*
X95700400Y-42875000I-249600J0D01*
G01*
X94799600Y-42875000D01*
G75*
G02*
X94550000Y-42625400I0J249600D01*
G01*
X94550000Y-41924600D01*
G75*
G02*
X94799600Y-41675000I249600J0D01*
G01*
G37*
G36*
G01*
X101149550Y-41725000D02*
X102050450Y-41725000D01*
G75*
G02*
X102300000Y-41974550I0J-249550D01*
G01*
X102300000Y-42625450D01*
G75*
G02*
X102050450Y-42875000I-249550J0D01*
G01*
X101149550Y-42875000D01*
G75*
G02*
X100900000Y-42625450I0J249550D01*
G01*
X100900000Y-41974550D01*
G75*
G02*
X101149550Y-41725000I249550J0D01*
G01*
G37*
G36*
G01*
X101149550Y-39675000D02*
X102050450Y-39675000D01*
G75*
G02*
X102300000Y-39924550I0J-249550D01*
G01*
X102300000Y-40575450D01*
G75*
G02*
X102050450Y-40825000I-249550J0D01*
G01*
X101149550Y-40825000D01*
G75*
G02*
X100900000Y-40575450I0J249550D01*
G01*
X100900000Y-39924550D01*
G75*
G02*
X101149550Y-39675000I249550J0D01*
G01*
G37*
D13*
X148590000Y-149860000D03*
D14*
X147300000Y-156300000D03*
D13*
X154940000Y-147320000D03*
X154940000Y-147320000D03*
D14*
X147300000Y-156300000D03*
D15*
X152400000Y-152400000D03*
D16*
X146900000Y-152400000D03*
X157900000Y-152400000D03*
D17*
X152400000Y-158300000D03*
D13*
X148590000Y-149860000D03*
D18*
X157480000Y-152400000D03*
X147320000Y-152400000D03*
D13*
X129540000Y-149860000D03*
D14*
X128250000Y-156300000D03*
D13*
X135890000Y-147320000D03*
X135890000Y-147320000D03*
D14*
X128250000Y-156300000D03*
D15*
X133350000Y-152400000D03*
D16*
X127850000Y-152400000D03*
X138850000Y-152400000D03*
D17*
X133350000Y-158300000D03*
D13*
X129540000Y-149860000D03*
D18*
X138430000Y-152400000D03*
X128270000Y-152400000D03*
D13*
X110490000Y-149860000D03*
D14*
X109200000Y-156300000D03*
D13*
X116840000Y-147320000D03*
X116840000Y-147320000D03*
D14*
X109200000Y-156300000D03*
D15*
X114300000Y-152400000D03*
D16*
X108800000Y-152400000D03*
X119800000Y-152400000D03*
D17*
X114300000Y-158300000D03*
D13*
X110490000Y-149860000D03*
D18*
X119380000Y-152400000D03*
X109220000Y-152400000D03*
D13*
X91440000Y-149860000D03*
D14*
X90150000Y-156300000D03*
D13*
X97790000Y-147320000D03*
X97790000Y-147320000D03*
D14*
X90150000Y-156300000D03*
D15*
X95250000Y-152400000D03*
D16*
X89750000Y-152400000D03*
X100750000Y-152400000D03*
D17*
X95250000Y-158300000D03*
D13*
X91440000Y-149860000D03*
D18*
X100330000Y-152400000D03*
X90170000Y-152400000D03*
D13*
X72390000Y-149860000D03*
D14*
X71100000Y-156300000D03*
D13*
X78740000Y-147320000D03*
X78740000Y-147320000D03*
D14*
X71100000Y-156300000D03*
D15*
X76200000Y-152400000D03*
D16*
X70700000Y-152400000D03*
X81700000Y-152400000D03*
D17*
X76200000Y-158300000D03*
D13*
X72390000Y-149860000D03*
D18*
X81280000Y-152400000D03*
X71120000Y-152400000D03*
D13*
X53340000Y-149860000D03*
D14*
X52050000Y-156300000D03*
D13*
X59690000Y-147320000D03*
X59690000Y-147320000D03*
D14*
X52050000Y-156300000D03*
D15*
X57150000Y-152400000D03*
D16*
X51650000Y-152400000D03*
X62650000Y-152400000D03*
D17*
X57150000Y-158300000D03*
D13*
X53340000Y-149860000D03*
D18*
X62230000Y-152400000D03*
X52070000Y-152400000D03*
D13*
X129540000Y-130810000D03*
D14*
X128250000Y-137250000D03*
D13*
X135890000Y-128270000D03*
X135890000Y-128270000D03*
D14*
X128250000Y-137250000D03*
D15*
X133350000Y-133350000D03*
D16*
X127850000Y-133350000D03*
X138850000Y-133350000D03*
D17*
X133350000Y-139250000D03*
D13*
X129540000Y-130810000D03*
D18*
X138430000Y-133350000D03*
X128270000Y-133350000D03*
D13*
X110490000Y-130810000D03*
D14*
X109200000Y-137250000D03*
D13*
X116840000Y-128270000D03*
X116840000Y-128270000D03*
D14*
X109200000Y-137250000D03*
D15*
X114300000Y-133350000D03*
D16*
X108800000Y-133350000D03*
X119800000Y-133350000D03*
D17*
X114300000Y-139250000D03*
D13*
X110490000Y-130810000D03*
D18*
X119380000Y-133350000D03*
X109220000Y-133350000D03*
D13*
X91440000Y-130810000D03*
D14*
X90150000Y-137250000D03*
D13*
X97790000Y-128270000D03*
X97790000Y-128270000D03*
D14*
X90150000Y-137250000D03*
D15*
X95250000Y-133350000D03*
D16*
X89750000Y-133350000D03*
X100750000Y-133350000D03*
D17*
X95250000Y-139250000D03*
D13*
X91440000Y-130810000D03*
D18*
X100330000Y-133350000D03*
X90170000Y-133350000D03*
D13*
X72390000Y-130810000D03*
D14*
X71100000Y-137250000D03*
D13*
X78740000Y-128270000D03*
X78740000Y-128270000D03*
D14*
X71100000Y-137250000D03*
D15*
X76200000Y-133350000D03*
D16*
X70700000Y-133350000D03*
X81700000Y-133350000D03*
D17*
X76200000Y-139250000D03*
D13*
X72390000Y-130810000D03*
D18*
X81280000Y-133350000D03*
X71120000Y-133350000D03*
D13*
X53340000Y-130810000D03*
D14*
X52050000Y-137250000D03*
D13*
X59690000Y-128270000D03*
X59690000Y-128270000D03*
D14*
X52050000Y-137250000D03*
D15*
X57150000Y-133350000D03*
D16*
X51650000Y-133350000D03*
X62650000Y-133350000D03*
D17*
X57150000Y-139250000D03*
D13*
X53340000Y-130810000D03*
D18*
X62230000Y-133350000D03*
X52070000Y-133350000D03*
D13*
X129540000Y-111760000D03*
D14*
X128250000Y-118200000D03*
D13*
X135890000Y-109220000D03*
X135890000Y-109220000D03*
D14*
X128250000Y-118200000D03*
D15*
X133350000Y-114300000D03*
D16*
X127850000Y-114300000D03*
X138850000Y-114300000D03*
D17*
X133350000Y-120200000D03*
D13*
X129540000Y-111760000D03*
D18*
X138430000Y-114300000D03*
X128270000Y-114300000D03*
D13*
X110490000Y-111760000D03*
D14*
X109200000Y-118200000D03*
D13*
X116840000Y-109220000D03*
X116840000Y-109220000D03*
D14*
X109200000Y-118200000D03*
D15*
X114300000Y-114300000D03*
D16*
X108800000Y-114300000D03*
X119800000Y-114300000D03*
D17*
X114300000Y-120200000D03*
D13*
X110490000Y-111760000D03*
D18*
X119380000Y-114300000D03*
X109220000Y-114300000D03*
D13*
X91440000Y-111760000D03*
D14*
X90150000Y-118200000D03*
D13*
X97790000Y-109220000D03*
X97790000Y-109220000D03*
D14*
X90150000Y-118200000D03*
D15*
X95250000Y-114300000D03*
D16*
X89750000Y-114300000D03*
X100750000Y-114300000D03*
D17*
X95250000Y-120200000D03*
D13*
X91440000Y-111760000D03*
D18*
X100330000Y-114300000D03*
X90170000Y-114300000D03*
D13*
X72390000Y-111760000D03*
D14*
X71100000Y-118200000D03*
D13*
X78740000Y-109220000D03*
X78740000Y-109220000D03*
D14*
X71100000Y-118200000D03*
D15*
X76200000Y-114300000D03*
D16*
X70700000Y-114300000D03*
X81700000Y-114300000D03*
D17*
X76200000Y-120200000D03*
D13*
X72390000Y-111760000D03*
D18*
X81280000Y-114300000D03*
X71120000Y-114300000D03*
D13*
X53340000Y-111760000D03*
D14*
X52050000Y-118200000D03*
D13*
X59690000Y-109220000D03*
X59690000Y-109220000D03*
D14*
X52050000Y-118200000D03*
D15*
X57150000Y-114300000D03*
D16*
X51650000Y-114300000D03*
X62650000Y-114300000D03*
D17*
X57150000Y-120200000D03*
D13*
X53340000Y-111760000D03*
D18*
X62230000Y-114300000D03*
X52070000Y-114300000D03*
D13*
X148590000Y-92710000D03*
D14*
X147300000Y-99150000D03*
D13*
X154940000Y-90170000D03*
X154940000Y-90170000D03*
D14*
X147300000Y-99150000D03*
D15*
X152400000Y-95250000D03*
D16*
X146900000Y-95250000D03*
X157900000Y-95250000D03*
D17*
X152400000Y-101150000D03*
D13*
X148590000Y-92710000D03*
D18*
X157480000Y-95250000D03*
X147320000Y-95250000D03*
D13*
X129540000Y-92710000D03*
D14*
X128250000Y-99150000D03*
D13*
X135890000Y-90170000D03*
X135890000Y-90170000D03*
D14*
X128250000Y-99150000D03*
D15*
X133350000Y-95250000D03*
D16*
X127850000Y-95250000D03*
X138850000Y-95250000D03*
D17*
X133350000Y-101150000D03*
D13*
X129540000Y-92710000D03*
D18*
X138430000Y-95250000D03*
X128270000Y-95250000D03*
D13*
X110490000Y-92710000D03*
D14*
X109200000Y-99150000D03*
D13*
X116840000Y-90170000D03*
X116840000Y-90170000D03*
D14*
X109200000Y-99150000D03*
D15*
X114300000Y-95250000D03*
D16*
X108800000Y-95250000D03*
X119800000Y-95250000D03*
D17*
X114300000Y-101150000D03*
D13*
X110490000Y-92710000D03*
D18*
X119380000Y-95250000D03*
X109220000Y-95250000D03*
D13*
X91440000Y-92710000D03*
D14*
X90150000Y-99150000D03*
D13*
X97790000Y-90170000D03*
X97790000Y-90170000D03*
D14*
X90150000Y-99150000D03*
D15*
X95250000Y-95250000D03*
D16*
X89750000Y-95250000D03*
X100750000Y-95250000D03*
D17*
X95250000Y-101150000D03*
D13*
X91440000Y-92710000D03*
D18*
X100330000Y-95250000D03*
X90170000Y-95250000D03*
D13*
X72390000Y-92710000D03*
D14*
X71100000Y-99150000D03*
D13*
X78740000Y-90170000D03*
X78740000Y-90170000D03*
D14*
X71100000Y-99150000D03*
D15*
X76200000Y-95250000D03*
D16*
X70700000Y-95250000D03*
X81700000Y-95250000D03*
D17*
X76200000Y-101150000D03*
D13*
X72390000Y-92710000D03*
D18*
X81280000Y-95250000D03*
X71120000Y-95250000D03*
D13*
X53340000Y-92710000D03*
D14*
X52050000Y-99150000D03*
D13*
X59690000Y-90170000D03*
X59690000Y-90170000D03*
D14*
X52050000Y-99150000D03*
D15*
X57150000Y-95250000D03*
D16*
X51650000Y-95250000D03*
X62650000Y-95250000D03*
D17*
X57150000Y-101150000D03*
D13*
X53340000Y-92710000D03*
D18*
X62230000Y-95250000D03*
X52070000Y-95250000D03*
D13*
X148590000Y-73660000D03*
D14*
X147300000Y-80100000D03*
D13*
X154940000Y-71120000D03*
X154940000Y-71120000D03*
D14*
X147300000Y-80100000D03*
D15*
X152400000Y-76200000D03*
D16*
X146900000Y-76200000D03*
X157900000Y-76200000D03*
D17*
X152400000Y-82100000D03*
D13*
X148590000Y-73660000D03*
D18*
X157480000Y-76200000D03*
X147320000Y-76200000D03*
D13*
X129540000Y-73660000D03*
D14*
X128250000Y-80100000D03*
D13*
X135890000Y-71120000D03*
X135890000Y-71120000D03*
D14*
X128250000Y-80100000D03*
D15*
X133350000Y-76200000D03*
D16*
X127850000Y-76200000D03*
X138850000Y-76200000D03*
D17*
X133350000Y-82100000D03*
D13*
X129540000Y-73660000D03*
D18*
X138430000Y-76200000D03*
X128270000Y-76200000D03*
D13*
X110490000Y-73660000D03*
D14*
X109200000Y-80100000D03*
D13*
X116840000Y-71120000D03*
X116840000Y-71120000D03*
D14*
X109200000Y-80100000D03*
D15*
X114300000Y-76200000D03*
D16*
X108800000Y-76200000D03*
X119800000Y-76200000D03*
D17*
X114300000Y-82100000D03*
D13*
X110490000Y-73660000D03*
D18*
X119380000Y-76200000D03*
X109220000Y-76200000D03*
D13*
X91440000Y-73660000D03*
D14*
X90150000Y-80100000D03*
D13*
X97790000Y-71120000D03*
X97790000Y-71120000D03*
D14*
X90150000Y-80100000D03*
D15*
X95250000Y-76200000D03*
D16*
X89750000Y-76200000D03*
X100750000Y-76200000D03*
D17*
X95250000Y-82100000D03*
D13*
X91440000Y-73660000D03*
D18*
X100330000Y-76200000D03*
X90170000Y-76200000D03*
D13*
X148590000Y-54610000D03*
D14*
X147300000Y-61050000D03*
D13*
X154940000Y-52070000D03*
X154940000Y-52070000D03*
D14*
X147300000Y-61050000D03*
D15*
X152400000Y-57150000D03*
D16*
X146900000Y-57150000D03*
X157900000Y-57150000D03*
D17*
X152400000Y-63050000D03*
D13*
X148590000Y-54610000D03*
D18*
X157480000Y-57150000D03*
X147320000Y-57150000D03*
D13*
X129540000Y-54610000D03*
D14*
X128250000Y-61050000D03*
D13*
X135890000Y-52070000D03*
X135890000Y-52070000D03*
D14*
X128250000Y-61050000D03*
D15*
X133350000Y-57150000D03*
D16*
X127850000Y-57150000D03*
X138850000Y-57150000D03*
D17*
X133350000Y-63050000D03*
D13*
X129540000Y-54610000D03*
D18*
X138430000Y-57150000D03*
X128270000Y-57150000D03*
D13*
X110490000Y-54610000D03*
D14*
X109200000Y-61050000D03*
D13*
X116840000Y-52070000D03*
X116840000Y-52070000D03*
D14*
X109200000Y-61050000D03*
D15*
X114300000Y-57150000D03*
D16*
X108800000Y-57150000D03*
X119800000Y-57150000D03*
D17*
X114300000Y-63050000D03*
D13*
X110490000Y-54610000D03*
D18*
X119380000Y-57150000D03*
X109220000Y-57150000D03*
D13*
X91440000Y-54610000D03*
D14*
X90150000Y-61050000D03*
D13*
X97790000Y-52070000D03*
X97790000Y-52070000D03*
D14*
X90150000Y-61050000D03*
D15*
X95250000Y-57150000D03*
D16*
X89750000Y-57150000D03*
X100750000Y-57150000D03*
D17*
X95250000Y-63050000D03*
D13*
X91440000Y-54610000D03*
D18*
X100330000Y-57150000D03*
X90170000Y-57150000D03*
D20*
X150625000Y-144145000D03*
X154175000Y-144145000D03*
X131575000Y-144145000D03*
X135125000Y-144145000D03*
X112525000Y-144145000D03*
X116075000Y-144145000D03*
X93475000Y-144145000D03*
X97025000Y-144145000D03*
X74425000Y-144145000D03*
X77975000Y-144145000D03*
X55375000Y-144145000D03*
X58925000Y-144145000D03*
X150625000Y-125095000D03*
X154175000Y-125095000D03*
X131575000Y-125095000D03*
X135125000Y-125095000D03*
X112525000Y-125095000D03*
X116075000Y-125095000D03*
X93475000Y-125095000D03*
X97025000Y-125095000D03*
X74425000Y-125095000D03*
X77975000Y-125095000D03*
X55375000Y-125095000D03*
X58925000Y-125095000D03*
X150625000Y-106045000D03*
X154175000Y-106045000D03*
X131575000Y-106045000D03*
X135125000Y-106045000D03*
X112525000Y-106045000D03*
X116075000Y-106045000D03*
X93475000Y-106045000D03*
X97025000Y-106045000D03*
X74425000Y-106045000D03*
X77975000Y-106045000D03*
X55375000Y-106045000D03*
X58925000Y-106045000D03*
X150625000Y-86995000D03*
X154175000Y-86995000D03*
X131575000Y-86995000D03*
X135125000Y-86995000D03*
X112525000Y-86995000D03*
X116075000Y-86995000D03*
X93475000Y-86995000D03*
X97025000Y-86995000D03*
X74425000Y-86995000D03*
X77975000Y-86995000D03*
X55375000Y-86995000D03*
X58925000Y-86995000D03*
X150625000Y-67945000D03*
X154175000Y-67945000D03*
X131575000Y-67945000D03*
X135125000Y-67945000D03*
X112525000Y-67945000D03*
X116075000Y-67945000D03*
X93475000Y-67945000D03*
X97025000Y-67945000D03*
X150625000Y-48895000D03*
X154175000Y-48895000D03*
X131575000Y-48895000D03*
X135125000Y-48895000D03*
X112525000Y-48895000D03*
X116075000Y-48895000D03*
X93475000Y-48895000D03*
X97025000Y-48895000D03*
D13*
X72390000Y-73660000D03*
D14*
X71100000Y-80100000D03*
D13*
X78740000Y-71120000D03*
X78740000Y-71120000D03*
D14*
X71100000Y-80100000D03*
D15*
X76200000Y-76200000D03*
D16*
X70700000Y-76200000D03*
X81700000Y-76200000D03*
D17*
X76200000Y-82100000D03*
D13*
X72390000Y-73660000D03*
D18*
X81280000Y-76200000D03*
X71120000Y-76200000D03*
D13*
X53340000Y-73660000D03*
D14*
X52050000Y-80100000D03*
D13*
X59690000Y-71120000D03*
X59690000Y-71120000D03*
D14*
X52050000Y-80100000D03*
D15*
X57150000Y-76200000D03*
D16*
X51650000Y-76200000D03*
X62650000Y-76200000D03*
D17*
X57150000Y-82100000D03*
D13*
X53340000Y-73660000D03*
D18*
X62230000Y-76200000D03*
X52070000Y-76200000D03*
D13*
X72390000Y-54610000D03*
D14*
X71100000Y-61050000D03*
D13*
X78740000Y-52070000D03*
X78740000Y-52070000D03*
D14*
X71100000Y-61050000D03*
D15*
X76200000Y-57150000D03*
D16*
X70700000Y-57150000D03*
X81700000Y-57150000D03*
D17*
X76200000Y-63050000D03*
D13*
X72390000Y-54610000D03*
D18*
X81280000Y-57150000D03*
X71120000Y-57150000D03*
D20*
X74425000Y-67945000D03*
X77975000Y-67945000D03*
X55375000Y-67945000D03*
X58925000Y-67945000D03*
X74425000Y-48895000D03*
X77975000Y-48895000D03*
X55375000Y-48895000D03*
X58925000Y-48895000D03*
M02*
