%TF.GenerationSoftware,KiCad,Pcbnew,7.0.2-0*%
%TF.CreationDate,2023-06-01T09:18:08+08:00*%
%TF.ProjectId,Anya,416e7961-2e6b-4696-9361-645f70636258,2*%
%TF.SameCoordinates,PX917e180PY435cdf8*%
%TF.FileFunction,Paste,Bot*%
%TF.FilePolarity,Positive*%
%FSLAX46Y46*%
G04 Gerber Fmt 4.6, Leading zero omitted, Abs format (unit mm)*
G04 Created by KiCad (PCBNEW 7.0.2-0) date 2023-06-01 09:18:08*
%MOMM*%
%LPD*%
G01*
G04 APERTURE LIST*
%ADD10R,2.550000X2.500000*%
%ADD11R,1.400000X1.000000*%
%ADD12R,1.700000X1.000000*%
G04 APERTURE END LIST*
D10*
%TO.C,SW29*%
X59590000Y-6985000D03*
X72517000Y-4445000D03*
%TD*%
%TO.C,SW13*%
X-54710000Y12065000D03*
X-41783000Y14605000D03*
%TD*%
%TO.C,SW27*%
X21490000Y-6985000D03*
X34417000Y-4445000D03*
%TD*%
%TO.C,SW24*%
X-35660000Y-6985000D03*
X-22733000Y-4445000D03*
%TD*%
%TO.C,SW8*%
X40540000Y31115000D03*
X53467000Y33655000D03*
%TD*%
%TO.C,SW15*%
X-16610000Y12065000D03*
X-3683000Y14605000D03*
%TD*%
%TO.C,SW1*%
X-92810000Y31115000D03*
X-79883000Y33655000D03*
%TD*%
%TO.C,SW6*%
X2440000Y31115000D03*
X15367000Y33655000D03*
%TD*%
%TO.C,SW2*%
X-73760000Y31115000D03*
X-60833000Y33655000D03*
%TD*%
%TO.C,SW7*%
X21490000Y31115000D03*
X34417000Y33655000D03*
%TD*%
%TO.C,SW26*%
X2440000Y-6985000D03*
X15367000Y-4445000D03*
%TD*%
%TO.C,SW3*%
X-54710000Y31115000D03*
X-41783000Y33655000D03*
%TD*%
%TO.C,SW21*%
X-92810000Y-6985000D03*
X-79883000Y-4445000D03*
%TD*%
%TO.C,SW12*%
X-73760000Y12065000D03*
X-60833000Y14605000D03*
%TD*%
%TO.C,SW31*%
X-57091250Y-26035000D03*
X-44164250Y-23495000D03*
%TD*%
%TO.C,SW23*%
X-54710000Y-6985000D03*
X-41783000Y-4445000D03*
%TD*%
%TO.C,SW10*%
X78640000Y31115000D03*
X91567000Y33655000D03*
%TD*%
%TO.C,SW17*%
X21490000Y12065000D03*
X34417000Y14605000D03*
%TD*%
%TO.C,SW4*%
X-35660000Y31115000D03*
X-22733000Y33655000D03*
%TD*%
%TO.C,SW14*%
X-35660000Y12065000D03*
X-22733000Y14605000D03*
%TD*%
%TO.C,SW20*%
X78640000Y12065000D03*
X91567000Y14605000D03*
%TD*%
%TO.C,SW9*%
X59590000Y31115000D03*
X72517000Y33655000D03*
%TD*%
%TO.C,SW30*%
X78640000Y-6985000D03*
X91567000Y-4445000D03*
%TD*%
%TO.C,SW33*%
X42921250Y-26035000D03*
X55848250Y-23495000D03*
%TD*%
%TO.C,SW25*%
X-16610000Y-6985000D03*
X-3683000Y-4445000D03*
%TD*%
%TO.C,SW5*%
X-16610000Y31115000D03*
X-3683000Y33655000D03*
%TD*%
%TO.C,SW19*%
X59590000Y12065000D03*
X72517000Y14605000D03*
%TD*%
%TO.C,SW11*%
X-92810000Y12065000D03*
X-79883000Y14605000D03*
%TD*%
%TO.C,SW32*%
X-7085000Y-26035000D03*
X5842000Y-23495000D03*
%TD*%
%TO.C,SW28*%
X40540000Y-6985000D03*
X53467000Y-4445000D03*
%TD*%
%TO.C,SW16*%
X2440000Y12065000D03*
X15367000Y14605000D03*
%TD*%
%TO.C,SW18*%
X40540000Y12065000D03*
X53467000Y14605000D03*
%TD*%
%TO.C,SW22*%
X-73760000Y-6985000D03*
X-60833000Y-4445000D03*
%TD*%
D11*
%TO.C,D20*%
X87500000Y2540000D03*
X83950000Y2540000D03*
%TD*%
%TO.C,D12*%
X-64900000Y2540000D03*
X-68450000Y2540000D03*
%TD*%
D12*
%TO.C,LED1*%
X-47256250Y-33975000D03*
X-47256250Y-32575000D03*
X-52756250Y-32575000D03*
X-52756250Y-33975000D03*
%TD*%
D11*
%TO.C,D7*%
X30350000Y21590000D03*
X26800000Y21590000D03*
%TD*%
%TO.C,D14*%
X-26800000Y2540000D03*
X-30350000Y2540000D03*
%TD*%
%TO.C,D30*%
X87500000Y-16510000D03*
X83950000Y-16510000D03*
%TD*%
%TO.C,D23*%
X-45850000Y-14605000D03*
X-49400000Y-14605000D03*
%TD*%
%TO.C,D13*%
X-45850000Y2540000D03*
X-49400000Y2540000D03*
%TD*%
%TO.C,D32*%
X17920000Y-28575000D03*
X14370000Y-28575000D03*
%TD*%
%TO.C,D10*%
X87500000Y21590000D03*
X83950000Y21590000D03*
%TD*%
%TO.C,D19*%
X68450000Y2540000D03*
X64900000Y2540000D03*
%TD*%
%TO.C,D9*%
X68450000Y21590000D03*
X64900000Y21590000D03*
%TD*%
%TO.C,D28*%
X49400000Y-16510000D03*
X45850000Y-16510000D03*
%TD*%
%TO.C,D33*%
X68450000Y-28575000D03*
X64900000Y-28575000D03*
%TD*%
%TO.C,D6*%
X11300000Y21590000D03*
X7750000Y21590000D03*
%TD*%
%TO.C,D5*%
X-7750000Y21590000D03*
X-11300000Y21590000D03*
%TD*%
%TO.C,D16*%
X11300000Y2540000D03*
X7750000Y2540000D03*
%TD*%
%TO.C,D11*%
X-83950000Y2540000D03*
X-87500000Y2540000D03*
%TD*%
%TO.C,D4*%
X-26800000Y21590000D03*
X-30350000Y21590000D03*
%TD*%
%TO.C,D15*%
X-7750000Y2540000D03*
X-11300000Y2540000D03*
%TD*%
%TO.C,D29*%
X68450000Y-16510000D03*
X64900000Y-16510000D03*
%TD*%
%TO.C,D26*%
X11300000Y-16510000D03*
X7750000Y-16510000D03*
%TD*%
%TO.C,D31*%
X-31880000Y-28575000D03*
X-35430000Y-28575000D03*
%TD*%
%TO.C,D25*%
X-7750000Y-16510000D03*
X-11300000Y-16510000D03*
%TD*%
%TO.C,D1*%
X-83950000Y21590000D03*
X-87500000Y21590000D03*
%TD*%
%TO.C,D3*%
X-45850000Y21590000D03*
X-49400000Y21590000D03*
%TD*%
%TO.C,D8*%
X49400000Y21590000D03*
X45850000Y21590000D03*
%TD*%
%TO.C,D27*%
X30350000Y-16510000D03*
X26800000Y-16510000D03*
%TD*%
%TO.C,D2*%
X-64900000Y21590000D03*
X-68450000Y21590000D03*
%TD*%
%TO.C,D24*%
X-26800000Y-16510000D03*
X-30350000Y-16510000D03*
%TD*%
D12*
%TO.C,LED2*%
X2750000Y-33975000D03*
X2750000Y-32575000D03*
X-2750000Y-32575000D03*
X-2750000Y-33975000D03*
%TD*%
D11*
%TO.C,D22*%
X-64900000Y-14605000D03*
X-68450000Y-14605000D03*
%TD*%
%TO.C,D21*%
X-83950000Y-16510000D03*
X-87500000Y-16510000D03*
%TD*%
D12*
%TO.C,LED3*%
X52756250Y-33975000D03*
X52756250Y-32575000D03*
X47256250Y-32575000D03*
X47256250Y-33975000D03*
%TD*%
D11*
%TO.C,D18*%
X49400000Y2540000D03*
X45850000Y2540000D03*
%TD*%
%TO.C,D17*%
X30350000Y2540000D03*
X26800000Y2540000D03*
%TD*%
M02*
