M48
; DRILL file {KiCad 7.0.2-0} date 2023 June 01, Thursday 09:18:05
; FORMAT={-:-/ absolute / metric / decimal}
; #@! TF.CreationDate,2023-06-01T09:18:05+08:00
; #@! TF.GenerationSoftware,Kicad,Pcbnew,7.0.2-0
; #@! TF.FileFunction,NonPlated,1,2,NPTH
FMAT,2
METRIC
; #@! TA.AperFunction,NonPlated,NPTH,ComponentDrill
T1C1.900
; #@! TA.AperFunction,NonPlated,NPTH,ComponentDrill
T2C3.000
; #@! TA.AperFunction,NonPlated,NPTH,ComponentDrill
T3C3.200
; #@! TA.AperFunction,NonPlated,NPTH,ComponentDrill
T4C4.000
%
G90
G05
T1
X-90.805Y28.575
X-90.805Y9.525
X-90.805Y-9.525
X-80.645Y28.575
X-80.645Y9.525
X-80.645Y-9.525
X-71.755Y28.575
X-71.755Y9.525
X-71.755Y-9.525
X-61.595Y28.575
X-61.595Y9.525
X-61.595Y-9.525
X-55.086Y-28.575
X-52.705Y28.575
X-52.705Y9.525
X-52.705Y-9.525
X-44.926Y-28.575
X-42.545Y28.575
X-42.545Y9.525
X-42.545Y-9.525
X-33.655Y28.575
X-33.655Y9.525
X-33.655Y-9.525
X-23.495Y28.575
X-23.495Y9.525
X-23.495Y-9.525
X-14.605Y28.575
X-14.605Y9.525
X-14.605Y-9.525
X-5.08Y-28.575
X-4.445Y28.575
X-4.445Y9.525
X-4.445Y-9.525
X4.445Y28.575
X4.445Y9.525
X4.445Y-9.525
X5.08Y-28.575
X14.605Y28.575
X14.605Y9.525
X14.605Y-9.525
X23.495Y28.575
X23.495Y9.525
X23.495Y-9.525
X33.655Y28.575
X33.655Y9.525
X33.655Y-9.525
X42.545Y28.575
X42.545Y9.525
X42.545Y-9.525
X44.926Y-28.575
X52.705Y28.575
X52.705Y9.525
X52.705Y-9.525
X55.086Y-28.575
X61.595Y28.575
X61.595Y9.525
X61.595Y-9.525
X71.755Y28.575
X71.755Y9.525
X71.755Y-9.525
X80.645Y28.575
X80.645Y9.525
X80.645Y-9.525
X90.805Y28.575
X90.805Y9.525
X90.805Y-9.525
T2
X-89.535Y31.115
X-89.535Y12.065
X-89.535Y-6.985
X-83.185Y33.655
X-83.185Y14.605
X-83.185Y-4.445
X-70.485Y31.115
X-70.485Y12.065
X-70.485Y-6.985
X-64.135Y33.655
X-64.135Y14.605
X-64.135Y-4.445
X-53.816Y-26.035
X-51.435Y31.115
X-51.435Y12.065
X-51.435Y-6.985
X-47.466Y-23.495
X-45.085Y33.655
X-45.085Y14.605
X-45.085Y-4.445
X-32.385Y31.115
X-32.385Y12.065
X-32.385Y-6.985
X-26.035Y33.655
X-26.035Y14.605
X-26.035Y-4.445
X-13.335Y31.115
X-13.335Y12.065
X-13.335Y-6.985
X-6.985Y33.655
X-6.985Y14.605
X-6.985Y-4.445
X-3.81Y-26.035
X2.54Y-23.495
X5.715Y31.115
X5.715Y12.065
X5.715Y-6.985
X12.065Y33.655
X12.065Y14.605
X12.065Y-4.445
X24.765Y31.115
X24.765Y12.065
X24.765Y-6.985
X31.115Y33.655
X31.115Y14.605
X31.115Y-4.445
X43.815Y31.115
X43.815Y12.065
X43.815Y-6.985
X46.196Y-26.035
X50.165Y33.655
X50.165Y14.605
X50.165Y-4.445
X52.546Y-23.495
X62.865Y31.115
X62.865Y12.065
X62.865Y-6.985
X69.215Y33.655
X69.215Y14.605
X69.215Y-4.445
X81.915Y31.115
X81.915Y12.065
X81.915Y-6.985
X88.265Y33.655
X88.265Y14.605
X88.265Y-4.445
T3
X-66.04Y-28.575
T4
X-85.725Y28.575
X-85.725Y9.525
X-85.725Y-9.525
X-66.675Y28.575
X-66.675Y9.525
X-66.675Y-9.525
X-50.006Y-28.575
X-47.625Y28.575
X-47.625Y9.525
X-47.625Y-9.525
X-28.575Y28.575
X-28.575Y9.525
X-28.575Y-9.525
X-9.525Y28.575
X-9.525Y9.525
X-9.525Y-9.525
X0.0Y-28.575
X9.525Y28.575
X9.525Y9.525
X9.525Y-9.525
X28.575Y28.575
X28.575Y9.525
X28.575Y-9.525
X47.625Y28.575
X47.625Y9.525
X47.625Y-9.525
X50.006Y-28.575
X66.675Y28.575
X66.675Y9.525
X66.675Y-9.525
X85.725Y28.575
X85.725Y9.525
X85.725Y-9.525
T0
M30
