%TF.GenerationSoftware,KiCad,Pcbnew,7.0.2-0*%
%TF.CreationDate,2023-06-01T09:18:09+08:00*%
%TF.ProjectId,Anya,416e7961-2e6b-4696-9361-645f70636258,2*%
%TF.SameCoordinates,PX917e180PY435cdf8*%
%TF.FileFunction,Profile,NP*%
%FSLAX46Y46*%
G04 Gerber Fmt 4.6, Leading zero omitted, Abs format (unit mm)*
G04 Created by KiCad (PCBNEW 7.0.2-0) date 2023-06-01 09:18:09*
%MOMM*%
%LPD*%
G01*
G04 APERTURE LIST*
%TA.AperFunction,Profile*%
%ADD10C,0.100000*%
%TD*%
%TA.AperFunction,Profile*%
%ADD11C,0.120000*%
%TD*%
G04 APERTURE END LIST*
D10*
X-95250000Y33337500D02*
X-95250000Y-23812500D01*
X-86360000Y-33337500D02*
X-95260571Y-33337500D01*
X-95260570Y-33337500D02*
G75*
G03*
X-90805000Y-38099998I4773070J0D01*
G01*
X90487500Y-38100000D02*
G75*
G03*
X95250000Y-33337500I0J4762500D01*
G01*
X-90487500Y38100000D02*
G75*
G03*
X-95250000Y33337500I0J-4762500D01*
G01*
X-95250000Y-23812500D02*
X-86360000Y-23812500D01*
X-90805000Y-38099999D02*
X90487500Y-38100000D01*
X95250000Y33337500D02*
G75*
G03*
X90487500Y38100000I-4762500J0D01*
G01*
X95250000Y-33337500D02*
X95250000Y33337500D01*
X-86360000Y-23812500D02*
X-86360000Y-33337500D01*
X90487500Y38100000D02*
X-90487500Y38100000D01*
D11*
%TO.C,LED1*%
X-51806250Y-31725000D02*
X-48206250Y-31725000D01*
X-51806250Y-34825000D02*
X-51806250Y-31725000D01*
X-48206250Y-31725000D02*
X-48206250Y-34825000D01*
X-48206250Y-34825000D02*
X-51806250Y-34825000D01*
%TO.C,LED2*%
X-1800000Y-31725000D02*
X1800000Y-31725000D01*
X-1800000Y-34825000D02*
X-1800000Y-31725000D01*
X1800000Y-31725000D02*
X1800000Y-34825000D01*
X1800000Y-34825000D02*
X-1800000Y-34825000D01*
%TO.C,LED3*%
X48206250Y-31725000D02*
X51806250Y-31725000D01*
X48206250Y-34825000D02*
X48206250Y-31725000D01*
X51806250Y-31725000D02*
X51806250Y-34825000D01*
X51806250Y-34825000D02*
X48206250Y-34825000D01*
%TD*%
M02*
