%TF.GenerationSoftware,KiCad,Pcbnew,7.0.2-0*%
%TF.CreationDate,2023-05-11T14:31:08+08:00*%
%TF.ProjectId,Anya,416e7961-2e6b-4696-9361-645f70636258,rev?*%
%TF.SameCoordinates,Original*%
%TF.FileFunction,Legend,Top*%
%TF.FilePolarity,Positive*%
%FSLAX46Y46*%
G04 Gerber Fmt 4.6, Leading zero omitted, Abs format (unit mm)*
G04 Created by KiCad (PCBNEW 7.0.2-0) date 2023-05-11 14:31:08*
%MOMM*%
%LPD*%
G01*
G04 APERTURE LIST*
%ADD10C,0.150000*%
%ADD11C,0.120000*%
%ADD12R,1.752600X1.752600*%
%ADD13C,1.752600*%
G04 APERTURE END LIST*
D10*
%TO.C,D34*%
X98004464Y-110102619D02*
X98004464Y-109102619D01*
X98004464Y-109102619D02*
X98242559Y-109102619D01*
X98242559Y-109102619D02*
X98385416Y-109150238D01*
X98385416Y-109150238D02*
X98480654Y-109245476D01*
X98480654Y-109245476D02*
X98528273Y-109340714D01*
X98528273Y-109340714D02*
X98575892Y-109531190D01*
X98575892Y-109531190D02*
X98575892Y-109674047D01*
X98575892Y-109674047D02*
X98528273Y-109864523D01*
X98528273Y-109864523D02*
X98480654Y-109959761D01*
X98480654Y-109959761D02*
X98385416Y-110055000D01*
X98385416Y-110055000D02*
X98242559Y-110102619D01*
X98242559Y-110102619D02*
X98004464Y-110102619D01*
X98909226Y-109102619D02*
X99528273Y-109102619D01*
X99528273Y-109102619D02*
X99194940Y-109483571D01*
X99194940Y-109483571D02*
X99337797Y-109483571D01*
X99337797Y-109483571D02*
X99433035Y-109531190D01*
X99433035Y-109531190D02*
X99480654Y-109578809D01*
X99480654Y-109578809D02*
X99528273Y-109674047D01*
X99528273Y-109674047D02*
X99528273Y-109912142D01*
X99528273Y-109912142D02*
X99480654Y-110007380D01*
X99480654Y-110007380D02*
X99433035Y-110055000D01*
X99433035Y-110055000D02*
X99337797Y-110102619D01*
X99337797Y-110102619D02*
X99052083Y-110102619D01*
X99052083Y-110102619D02*
X98956845Y-110055000D01*
X98956845Y-110055000D02*
X98909226Y-110007380D01*
X100385416Y-109435952D02*
X100385416Y-110102619D01*
X100147321Y-109055000D02*
X99909226Y-109769285D01*
X99909226Y-109769285D02*
X100528273Y-109769285D01*
%TO.C,R2*%
X115403333Y-109512619D02*
X115070000Y-109036428D01*
X114831905Y-109512619D02*
X114831905Y-108512619D01*
X114831905Y-108512619D02*
X115212857Y-108512619D01*
X115212857Y-108512619D02*
X115308095Y-108560238D01*
X115308095Y-108560238D02*
X115355714Y-108607857D01*
X115355714Y-108607857D02*
X115403333Y-108703095D01*
X115403333Y-108703095D02*
X115403333Y-108845952D01*
X115403333Y-108845952D02*
X115355714Y-108941190D01*
X115355714Y-108941190D02*
X115308095Y-108988809D01*
X115308095Y-108988809D02*
X115212857Y-109036428D01*
X115212857Y-109036428D02*
X114831905Y-109036428D01*
X115784286Y-108607857D02*
X115831905Y-108560238D01*
X115831905Y-108560238D02*
X115927143Y-108512619D01*
X115927143Y-108512619D02*
X116165238Y-108512619D01*
X116165238Y-108512619D02*
X116260476Y-108560238D01*
X116260476Y-108560238D02*
X116308095Y-108607857D01*
X116308095Y-108607857D02*
X116355714Y-108703095D01*
X116355714Y-108703095D02*
X116355714Y-108798333D01*
X116355714Y-108798333D02*
X116308095Y-108941190D01*
X116308095Y-108941190D02*
X115736667Y-109512619D01*
X115736667Y-109512619D02*
X116355714Y-109512619D01*
%TO.C,R4*%
X164933333Y-109512619D02*
X164600000Y-109036428D01*
X164361905Y-109512619D02*
X164361905Y-108512619D01*
X164361905Y-108512619D02*
X164742857Y-108512619D01*
X164742857Y-108512619D02*
X164838095Y-108560238D01*
X164838095Y-108560238D02*
X164885714Y-108607857D01*
X164885714Y-108607857D02*
X164933333Y-108703095D01*
X164933333Y-108703095D02*
X164933333Y-108845952D01*
X164933333Y-108845952D02*
X164885714Y-108941190D01*
X164885714Y-108941190D02*
X164838095Y-108988809D01*
X164838095Y-108988809D02*
X164742857Y-109036428D01*
X164742857Y-109036428D02*
X164361905Y-109036428D01*
X165790476Y-108845952D02*
X165790476Y-109512619D01*
X165552381Y-108465000D02*
X165314286Y-109179285D01*
X165314286Y-109179285D02*
X165933333Y-109179285D01*
%TO.C,R6*%
X215733333Y-110147619D02*
X215400000Y-109671428D01*
X215161905Y-110147619D02*
X215161905Y-109147619D01*
X215161905Y-109147619D02*
X215542857Y-109147619D01*
X215542857Y-109147619D02*
X215638095Y-109195238D01*
X215638095Y-109195238D02*
X215685714Y-109242857D01*
X215685714Y-109242857D02*
X215733333Y-109338095D01*
X215733333Y-109338095D02*
X215733333Y-109480952D01*
X215733333Y-109480952D02*
X215685714Y-109576190D01*
X215685714Y-109576190D02*
X215638095Y-109623809D01*
X215638095Y-109623809D02*
X215542857Y-109671428D01*
X215542857Y-109671428D02*
X215161905Y-109671428D01*
X216590476Y-109147619D02*
X216400000Y-109147619D01*
X216400000Y-109147619D02*
X216304762Y-109195238D01*
X216304762Y-109195238D02*
X216257143Y-109242857D01*
X216257143Y-109242857D02*
X216161905Y-109385714D01*
X216161905Y-109385714D02*
X216114286Y-109576190D01*
X216114286Y-109576190D02*
X216114286Y-109957142D01*
X216114286Y-109957142D02*
X216161905Y-110052380D01*
X216161905Y-110052380D02*
X216209524Y-110100000D01*
X216209524Y-110100000D02*
X216304762Y-110147619D01*
X216304762Y-110147619D02*
X216495238Y-110147619D01*
X216495238Y-110147619D02*
X216590476Y-110100000D01*
X216590476Y-110100000D02*
X216638095Y-110052380D01*
X216638095Y-110052380D02*
X216685714Y-109957142D01*
X216685714Y-109957142D02*
X216685714Y-109719047D01*
X216685714Y-109719047D02*
X216638095Y-109623809D01*
X216638095Y-109623809D02*
X216590476Y-109576190D01*
X216590476Y-109576190D02*
X216495238Y-109528571D01*
X216495238Y-109528571D02*
X216304762Y-109528571D01*
X216304762Y-109528571D02*
X216209524Y-109576190D01*
X216209524Y-109576190D02*
X216161905Y-109623809D01*
X216161905Y-109623809D02*
X216114286Y-109719047D01*
%TO.C,D35*%
X148010714Y-110102619D02*
X148010714Y-109102619D01*
X148010714Y-109102619D02*
X148248809Y-109102619D01*
X148248809Y-109102619D02*
X148391666Y-109150238D01*
X148391666Y-109150238D02*
X148486904Y-109245476D01*
X148486904Y-109245476D02*
X148534523Y-109340714D01*
X148534523Y-109340714D02*
X148582142Y-109531190D01*
X148582142Y-109531190D02*
X148582142Y-109674047D01*
X148582142Y-109674047D02*
X148534523Y-109864523D01*
X148534523Y-109864523D02*
X148486904Y-109959761D01*
X148486904Y-109959761D02*
X148391666Y-110055000D01*
X148391666Y-110055000D02*
X148248809Y-110102619D01*
X148248809Y-110102619D02*
X148010714Y-110102619D01*
X148915476Y-109102619D02*
X149534523Y-109102619D01*
X149534523Y-109102619D02*
X149201190Y-109483571D01*
X149201190Y-109483571D02*
X149344047Y-109483571D01*
X149344047Y-109483571D02*
X149439285Y-109531190D01*
X149439285Y-109531190D02*
X149486904Y-109578809D01*
X149486904Y-109578809D02*
X149534523Y-109674047D01*
X149534523Y-109674047D02*
X149534523Y-109912142D01*
X149534523Y-109912142D02*
X149486904Y-110007380D01*
X149486904Y-110007380D02*
X149439285Y-110055000D01*
X149439285Y-110055000D02*
X149344047Y-110102619D01*
X149344047Y-110102619D02*
X149058333Y-110102619D01*
X149058333Y-110102619D02*
X148963095Y-110055000D01*
X148963095Y-110055000D02*
X148915476Y-110007380D01*
X150439285Y-109102619D02*
X149963095Y-109102619D01*
X149963095Y-109102619D02*
X149915476Y-109578809D01*
X149915476Y-109578809D02*
X149963095Y-109531190D01*
X149963095Y-109531190D02*
X150058333Y-109483571D01*
X150058333Y-109483571D02*
X150296428Y-109483571D01*
X150296428Y-109483571D02*
X150391666Y-109531190D01*
X150391666Y-109531190D02*
X150439285Y-109578809D01*
X150439285Y-109578809D02*
X150486904Y-109674047D01*
X150486904Y-109674047D02*
X150486904Y-109912142D01*
X150486904Y-109912142D02*
X150439285Y-110007380D01*
X150439285Y-110007380D02*
X150391666Y-110055000D01*
X150391666Y-110055000D02*
X150296428Y-110102619D01*
X150296428Y-110102619D02*
X150058333Y-110102619D01*
X150058333Y-110102619D02*
X149963095Y-110055000D01*
X149963095Y-110055000D02*
X149915476Y-110007380D01*
%TO.C,D36*%
X198016964Y-110102619D02*
X198016964Y-109102619D01*
X198016964Y-109102619D02*
X198255059Y-109102619D01*
X198255059Y-109102619D02*
X198397916Y-109150238D01*
X198397916Y-109150238D02*
X198493154Y-109245476D01*
X198493154Y-109245476D02*
X198540773Y-109340714D01*
X198540773Y-109340714D02*
X198588392Y-109531190D01*
X198588392Y-109531190D02*
X198588392Y-109674047D01*
X198588392Y-109674047D02*
X198540773Y-109864523D01*
X198540773Y-109864523D02*
X198493154Y-109959761D01*
X198493154Y-109959761D02*
X198397916Y-110055000D01*
X198397916Y-110055000D02*
X198255059Y-110102619D01*
X198255059Y-110102619D02*
X198016964Y-110102619D01*
X198921726Y-109102619D02*
X199540773Y-109102619D01*
X199540773Y-109102619D02*
X199207440Y-109483571D01*
X199207440Y-109483571D02*
X199350297Y-109483571D01*
X199350297Y-109483571D02*
X199445535Y-109531190D01*
X199445535Y-109531190D02*
X199493154Y-109578809D01*
X199493154Y-109578809D02*
X199540773Y-109674047D01*
X199540773Y-109674047D02*
X199540773Y-109912142D01*
X199540773Y-109912142D02*
X199493154Y-110007380D01*
X199493154Y-110007380D02*
X199445535Y-110055000D01*
X199445535Y-110055000D02*
X199350297Y-110102619D01*
X199350297Y-110102619D02*
X199064583Y-110102619D01*
X199064583Y-110102619D02*
X198969345Y-110055000D01*
X198969345Y-110055000D02*
X198921726Y-110007380D01*
X200397916Y-109102619D02*
X200207440Y-109102619D01*
X200207440Y-109102619D02*
X200112202Y-109150238D01*
X200112202Y-109150238D02*
X200064583Y-109197857D01*
X200064583Y-109197857D02*
X199969345Y-109340714D01*
X199969345Y-109340714D02*
X199921726Y-109531190D01*
X199921726Y-109531190D02*
X199921726Y-109912142D01*
X199921726Y-109912142D02*
X199969345Y-110007380D01*
X199969345Y-110007380D02*
X200016964Y-110055000D01*
X200016964Y-110055000D02*
X200112202Y-110102619D01*
X200112202Y-110102619D02*
X200302678Y-110102619D01*
X200302678Y-110102619D02*
X200397916Y-110055000D01*
X200397916Y-110055000D02*
X200445535Y-110007380D01*
X200445535Y-110007380D02*
X200493154Y-109912142D01*
X200493154Y-109912142D02*
X200493154Y-109674047D01*
X200493154Y-109674047D02*
X200445535Y-109578809D01*
X200445535Y-109578809D02*
X200397916Y-109531190D01*
X200397916Y-109531190D02*
X200302678Y-109483571D01*
X200302678Y-109483571D02*
X200112202Y-109483571D01*
X200112202Y-109483571D02*
X200016964Y-109531190D01*
X200016964Y-109531190D02*
X199969345Y-109578809D01*
X199969345Y-109578809D02*
X199921726Y-109674047D01*
D11*
%TO.C,D34*%
X100778750Y-107916000D02*
X100778750Y-107760000D01*
X100778750Y-105600000D02*
X100778750Y-105444000D01*
X97546416Y-107758608D02*
G75*
G03*
X100778749Y-107915515I1672334J1078608D01*
G01*
X98177621Y-107759836D02*
G75*
G03*
X100259710Y-107759999I1041129J1079836D01*
G01*
X100259710Y-105600001D02*
G75*
G03*
X98177621Y-105600164I-1040960J-1079999D01*
G01*
X100778749Y-105444485D02*
G75*
G03*
X97546416Y-105601392I-1559999J-1235515D01*
G01*
%TO.C,R2*%
X119610000Y-106680000D02*
X118840000Y-106680000D01*
X118840000Y-108050000D02*
X118840000Y-105310000D01*
X118840000Y-105310000D02*
X112300000Y-105310000D01*
X112300000Y-108050000D02*
X118840000Y-108050000D01*
X112300000Y-105310000D02*
X112300000Y-108050000D01*
X111530000Y-106680000D02*
X112300000Y-106680000D01*
%TO.C,R4*%
X169140000Y-106680000D02*
X168370000Y-106680000D01*
X168370000Y-108050000D02*
X168370000Y-105310000D01*
X168370000Y-105310000D02*
X161830000Y-105310000D01*
X161830000Y-108050000D02*
X168370000Y-108050000D01*
X161830000Y-105310000D02*
X161830000Y-108050000D01*
X161060000Y-106680000D02*
X161830000Y-106680000D01*
%TO.C,R6*%
X219940000Y-107315000D02*
X219170000Y-107315000D01*
X219170000Y-108685000D02*
X219170000Y-105945000D01*
X219170000Y-105945000D02*
X212630000Y-105945000D01*
X212630000Y-108685000D02*
X219170000Y-108685000D01*
X212630000Y-105945000D02*
X212630000Y-108685000D01*
X211860000Y-107315000D02*
X212630000Y-107315000D01*
%TO.C,D35*%
X150785000Y-107916000D02*
X150785000Y-107760000D01*
X150785000Y-105600000D02*
X150785000Y-105444000D01*
X147552666Y-107758608D02*
G75*
G03*
X150784999Y-107915515I1672334J1078608D01*
G01*
X148183871Y-107759836D02*
G75*
G03*
X150265960Y-107759999I1041129J1079836D01*
G01*
X150265960Y-105600001D02*
G75*
G03*
X148183871Y-105600164I-1040960J-1079999D01*
G01*
X150784999Y-105444485D02*
G75*
G03*
X147552666Y-105601392I-1559999J-1235515D01*
G01*
%TO.C,D36*%
X200791250Y-107916000D02*
X200791250Y-107760000D01*
X200791250Y-105600000D02*
X200791250Y-105444000D01*
X197558916Y-107758608D02*
G75*
G03*
X200791249Y-107915515I1672334J1078608D01*
G01*
X198190121Y-107759836D02*
G75*
G03*
X200272210Y-107759999I1041129J1079836D01*
G01*
X200272210Y-105600001D02*
G75*
G03*
X198190121Y-105600164I-1040960J-1079999D01*
G01*
X200791249Y-105444485D02*
G75*
G03*
X197558916Y-105601392I-1559999J-1235515D01*
G01*
%TD*%
D12*
%TO.C,U1*%
X59055000Y-93980000D03*
D13*
X61595000Y-93980000D03*
X64135000Y-93980000D03*
X66675000Y-93980000D03*
X69215000Y-93980000D03*
X71755000Y-93980000D03*
X74295000Y-93980000D03*
X76835000Y-93980000D03*
X79375000Y-93980000D03*
X81915000Y-93980000D03*
X84455000Y-93980000D03*
X86995000Y-93980000D03*
X86995000Y-109220000D03*
X84455000Y-109220000D03*
X81915000Y-109220000D03*
X79375000Y-109220000D03*
X76835000Y-109220000D03*
X74295000Y-109220000D03*
X71755000Y-109220000D03*
X69215000Y-109220000D03*
X66675000Y-109220000D03*
X64135000Y-109220000D03*
X61595000Y-109220000D03*
X59055000Y-109220000D03*
%TD*%
M02*
