M48
; DRILL file {KiCad 7.0.2-0} date 2023 May 11, Thursday 14:31:10
; FORMAT={-:-/ absolute / metric / decimal}
; #@! TF.CreationDate,2023-05-11T14:31:10+08:00
; #@! TF.GenerationSoftware,Kicad,Pcbnew,7.0.2-0
; #@! TF.FileFunction,Plated,1,2,PTH
FMAT,2
METRIC
; #@! TA.AperFunction,Plated,PTH,ViaDrill
T1C0.400
; #@! TA.AperFunction,Plated,PTH,ComponentDrill
T2C0.800
; #@! TA.AperFunction,Plated,PTH,ComponentDrill
T3C0.900
; #@! TA.AperFunction,Plated,PTH,ComponentDrill
T4C1.092
%
G90
G05
T1
X63.5Y-90.805
X64.77Y-49.53
X64.77Y-68.58
X71.755Y-68.58
X71.755Y-87.63
X75.0Y-106.0
X77.512Y-106.724
X80.645Y-49.53
X80.645Y-68.58
X80.9Y-87.63
X90.17Y-72.39
X90.805Y-74.295
X92.075Y-56.515
X92.075Y-76.2
X98.425Y-86.36
X99.695Y-49.53
X99.695Y-68.58
X107.0Y-103.0
X108.0Y-97.0
X109.0Y-98.0
X110.0Y-99.0
X113.565Y-54.61
X114.3Y-100.33
X118.745Y-49.53
X118.745Y-68.58
X118.745Y-86.995
X132.615Y-71.12
X137.795Y-49.53
X137.795Y-68.58
X137.795Y-87.63
X151.665Y-72.39
X156.845Y-49.53
X156.845Y-68.58
X156.845Y-87.63
X163.195Y-100.33
X170.715Y-74.295
X175.895Y-49.53
X175.895Y-68.58
X175.895Y-87.63
X189.0Y-91.0
X194.945Y-49.53
X194.945Y-68.58
X194.945Y-87.63
X208.0Y-93.0
X213.36Y-101.6
X213.995Y-49.53
X213.995Y-68.58
X213.995Y-87.63
X226.5Y-93.0
X233.045Y-49.53
X233.045Y-68.58
X233.045Y-87.63
T2
X110.49Y-106.68
X120.65Y-106.68
X160.02Y-106.68
X170.18Y-106.68
X210.82Y-107.315
X220.98Y-107.315
T3
X97.949Y-106.68
X100.489Y-106.68
X147.955Y-106.68
X150.495Y-106.68
X197.961Y-106.68
X200.501Y-106.68
T4
X59.055Y-93.98
X59.055Y-109.22
X61.595Y-93.98
X61.595Y-109.22
X64.135Y-93.98
X64.135Y-109.22
X66.675Y-93.98
X66.675Y-109.22
X69.215Y-93.98
X69.215Y-109.22
X71.755Y-93.98
X71.755Y-109.22
X74.295Y-93.98
X74.295Y-109.22
X76.835Y-93.98
X76.835Y-109.22
X79.375Y-93.98
X79.375Y-109.22
X81.915Y-93.98
X81.915Y-109.22
X84.455Y-93.98
X84.455Y-109.22
X86.995Y-93.98
X86.995Y-109.22
T0
M30
