M48
; DRILL file {KiCad 7.0.2-0} date 2023 June 01, Thursday 09:18:05
; FORMAT={-:-/ absolute / metric / decimal}
; #@! TF.CreationDate,2023-06-01T09:18:05+08:00
; #@! TF.GenerationSoftware,Kicad,Pcbnew,7.0.2-0
; #@! TF.FileFunction,Plated,1,2,PTH
FMAT,2
METRIC
; #@! TA.AperFunction,Plated,PTH,ViaDrill
T1C0.400
; #@! TA.AperFunction,Plated,PTH,ComponentDrill
T2C1.092
%
G90
G05
T1
X-85.725Y-17.78
X-85.148Y-32.302
X-84.455Y23.495
X-84.455Y4.445
X-77.47Y4.445
X-77.47Y-14.605
X-69.475Y-34.475
X-68.58Y23.495
X-68.58Y4.445
X-68.325Y-14.605
X-59.055Y0.635
X-58.42Y-1.27
X-57.15Y16.51
X-57.15Y-3.175
X-50.8Y-13.335
X-49.53Y23.495
X-49.53Y4.445
X-45.225Y-30.64
X-35.66Y18.415
X-34.925Y-27.305
X-30.48Y23.495
X-30.48Y4.445
X-30.48Y-13.97
X-16.61Y1.905
X-11.43Y23.495
X-11.43Y4.445
X-11.43Y-14.605
X2.44Y0.635
X7.62Y23.495
X7.62Y4.445
X7.62Y-14.605
X13.97Y-27.305
X21.49Y-1.27
X26.67Y23.495
X26.67Y4.445
X26.67Y-14.605
X39.775Y-17.975
X45.72Y23.495
X45.72Y4.445
X45.72Y-14.605
X58.775Y-19.975
X64.135Y-28.575
X64.77Y23.495
X64.77Y4.445
X64.77Y-14.605
X77.275Y-19.975
X83.82Y23.495
X83.82Y4.445
X83.82Y-14.605
T2
X-90.17Y-20.955
X-90.17Y-36.195
X-87.63Y-20.955
X-87.63Y-36.195
X-85.09Y-20.955
X-85.09Y-36.195
X-82.55Y-20.955
X-82.55Y-36.195
X-80.01Y-20.955
X-80.01Y-36.195
X-77.47Y-20.955
X-77.47Y-36.195
X-74.93Y-20.955
X-74.93Y-36.195
X-72.39Y-20.955
X-72.39Y-36.195
X-69.85Y-20.955
X-69.85Y-36.195
X-67.31Y-20.955
X-67.31Y-36.195
X-64.77Y-20.955
X-64.77Y-36.195
X-62.23Y-20.955
X-62.23Y-36.195
T0
M30
