%TF.GenerationSoftware,KiCad,Pcbnew,7.0.2-0*%
%TF.CreationDate,2023-05-11T14:31:10+08:00*%
%TF.ProjectId,Anya,416e7961-2e6b-4696-9361-645f70636258,rev?*%
%TF.SameCoordinates,Original*%
%TF.FileFunction,Drillmap*%
%TF.FilePolarity,Positive*%
%FSLAX45Y45*%
G04 Gerber Fmt 4.5, Leading zero omitted, Abs format (unit mm)*
G04 Created by KiCad (PCBNEW 7.0.2-0) date 2023-05-11 14:31:10*
%MOMM*%
%LPD*%
G01*
G04 APERTURE LIST*
%ADD10C,0.100000*%
%ADD11C,0.200000*%
%ADD12C,0.190000*%
%ADD13C,0.300000*%
%ADD14C,0.320000*%
%ADD15C,0.400000*%
G04 APERTURE END LIST*
D10*
X5397500Y-3968750D02*
X5397500Y-9683750D01*
X6286500Y-10636250D02*
X5396443Y-10636250D01*
X5396443Y-10636250D02*
G75*
G03*
X5842000Y-11112500I477307J0D01*
G01*
X23971250Y-11112500D02*
G75*
G03*
X24447500Y-10636250I0J476250D01*
G01*
X5873750Y-3492500D02*
G75*
G03*
X5397500Y-3968750I0J-476250D01*
G01*
X5397500Y-9683750D02*
X6286500Y-9683750D01*
X5842000Y-11112500D02*
X23971250Y-11112500D01*
X24447500Y-3968750D02*
G75*
G03*
X23971250Y-3492500I-476250J0D01*
G01*
X24447500Y-10636250D02*
X24447500Y-3968750D01*
X6286500Y-9683750D02*
X6286500Y-10636250D01*
X23971250Y-3492500D02*
X5873750Y-3492500D01*
D11*
D12*
X5747000Y-4350000D02*
X5937000Y-4540000D01*
X5937000Y-4350000D02*
X5747000Y-4540000D01*
X5747000Y-6255000D02*
X5937000Y-6445000D01*
X5937000Y-6255000D02*
X5747000Y-6445000D01*
X5747000Y-8160000D02*
X5937000Y-8350000D01*
X5937000Y-8160000D02*
X5747000Y-8350000D01*
X6763000Y-4350000D02*
X6953000Y-4540000D01*
X6953000Y-4350000D02*
X6763000Y-4540000D01*
X6763000Y-6255000D02*
X6953000Y-6445000D01*
X6953000Y-6255000D02*
X6763000Y-6445000D01*
X6763000Y-8160000D02*
X6953000Y-8350000D01*
X6953000Y-8160000D02*
X6763000Y-8350000D01*
X7652000Y-4350000D02*
X7842000Y-4540000D01*
X7842000Y-4350000D02*
X7652000Y-4540000D01*
X7652000Y-6255000D02*
X7842000Y-6445000D01*
X7842000Y-6255000D02*
X7652000Y-6445000D01*
X7652000Y-8160000D02*
X7842000Y-8350000D01*
X7842000Y-8160000D02*
X7652000Y-8350000D01*
X8668000Y-4350000D02*
X8858000Y-4540000D01*
X8858000Y-4350000D02*
X8668000Y-4540000D01*
X8668000Y-6255000D02*
X8858000Y-6445000D01*
X8858000Y-6255000D02*
X8668000Y-6445000D01*
X8668000Y-8160000D02*
X8858000Y-8350000D01*
X8858000Y-8160000D02*
X8668000Y-8350000D01*
X9318875Y-10065000D02*
X9508875Y-10255000D01*
X9508875Y-10065000D02*
X9318875Y-10255000D01*
X9557000Y-4350000D02*
X9747000Y-4540000D01*
X9747000Y-4350000D02*
X9557000Y-4540000D01*
X9557000Y-6255000D02*
X9747000Y-6445000D01*
X9747000Y-6255000D02*
X9557000Y-6445000D01*
X9557000Y-8160000D02*
X9747000Y-8350000D01*
X9747000Y-8160000D02*
X9557000Y-8350000D01*
X10334875Y-10065000D02*
X10524875Y-10255000D01*
X10524875Y-10065000D02*
X10334875Y-10255000D01*
X10573000Y-4350000D02*
X10763000Y-4540000D01*
X10763000Y-4350000D02*
X10573000Y-4540000D01*
X10573000Y-6255000D02*
X10763000Y-6445000D01*
X10763000Y-6255000D02*
X10573000Y-6445000D01*
X10573000Y-8160000D02*
X10763000Y-8350000D01*
X10763000Y-8160000D02*
X10573000Y-8350000D01*
X11462000Y-4350000D02*
X11652000Y-4540000D01*
X11652000Y-4350000D02*
X11462000Y-4540000D01*
X11462000Y-6255000D02*
X11652000Y-6445000D01*
X11652000Y-6255000D02*
X11462000Y-6445000D01*
X11462000Y-8160000D02*
X11652000Y-8350000D01*
X11652000Y-8160000D02*
X11462000Y-8350000D01*
X12478000Y-4350000D02*
X12668000Y-4540000D01*
X12668000Y-4350000D02*
X12478000Y-4540000D01*
X12478000Y-6255000D02*
X12668000Y-6445000D01*
X12668000Y-6255000D02*
X12478000Y-6445000D01*
X12478000Y-8160000D02*
X12668000Y-8350000D01*
X12668000Y-8160000D02*
X12478000Y-8350000D01*
X13367000Y-4350000D02*
X13557000Y-4540000D01*
X13557000Y-4350000D02*
X13367000Y-4540000D01*
X13367000Y-6255000D02*
X13557000Y-6445000D01*
X13557000Y-6255000D02*
X13367000Y-6445000D01*
X13367000Y-8160000D02*
X13557000Y-8350000D01*
X13557000Y-8160000D02*
X13367000Y-8350000D01*
X14319500Y-10065000D02*
X14509500Y-10255000D01*
X14509500Y-10065000D02*
X14319500Y-10255000D01*
X14383000Y-4350000D02*
X14573000Y-4540000D01*
X14573000Y-4350000D02*
X14383000Y-4540000D01*
X14383000Y-6255000D02*
X14573000Y-6445000D01*
X14573000Y-6255000D02*
X14383000Y-6445000D01*
X14383000Y-8160000D02*
X14573000Y-8350000D01*
X14573000Y-8160000D02*
X14383000Y-8350000D01*
X15272000Y-4350000D02*
X15462000Y-4540000D01*
X15462000Y-4350000D02*
X15272000Y-4540000D01*
X15272000Y-6255000D02*
X15462000Y-6445000D01*
X15462000Y-6255000D02*
X15272000Y-6445000D01*
X15272000Y-8160000D02*
X15462000Y-8350000D01*
X15462000Y-8160000D02*
X15272000Y-8350000D01*
X15335500Y-10065000D02*
X15525500Y-10255000D01*
X15525500Y-10065000D02*
X15335500Y-10255000D01*
X16288000Y-4350000D02*
X16478000Y-4540000D01*
X16478000Y-4350000D02*
X16288000Y-4540000D01*
X16288000Y-6255000D02*
X16478000Y-6445000D01*
X16478000Y-6255000D02*
X16288000Y-6445000D01*
X16288000Y-8160000D02*
X16478000Y-8350000D01*
X16478000Y-8160000D02*
X16288000Y-8350000D01*
X17177000Y-4350000D02*
X17367000Y-4540000D01*
X17367000Y-4350000D02*
X17177000Y-4540000D01*
X17177000Y-6255000D02*
X17367000Y-6445000D01*
X17367000Y-6255000D02*
X17177000Y-6445000D01*
X17177000Y-8160000D02*
X17367000Y-8350000D01*
X17367000Y-8160000D02*
X17177000Y-8350000D01*
X18193000Y-4350000D02*
X18383000Y-4540000D01*
X18383000Y-4350000D02*
X18193000Y-4540000D01*
X18193000Y-6255000D02*
X18383000Y-6445000D01*
X18383000Y-6255000D02*
X18193000Y-6445000D01*
X18193000Y-8160000D02*
X18383000Y-8350000D01*
X18383000Y-8160000D02*
X18193000Y-8350000D01*
X19082000Y-4350000D02*
X19272000Y-4540000D01*
X19272000Y-4350000D02*
X19082000Y-4540000D01*
X19082000Y-6255000D02*
X19272000Y-6445000D01*
X19272000Y-6255000D02*
X19082000Y-6445000D01*
X19082000Y-8160000D02*
X19272000Y-8350000D01*
X19272000Y-8160000D02*
X19082000Y-8350000D01*
X19320125Y-10065000D02*
X19510125Y-10255000D01*
X19510125Y-10065000D02*
X19320125Y-10255000D01*
X20098000Y-4350000D02*
X20288000Y-4540000D01*
X20288000Y-4350000D02*
X20098000Y-4540000D01*
X20098000Y-6255000D02*
X20288000Y-6445000D01*
X20288000Y-6255000D02*
X20098000Y-6445000D01*
X20098000Y-8160000D02*
X20288000Y-8350000D01*
X20288000Y-8160000D02*
X20098000Y-8350000D01*
X20336125Y-10065000D02*
X20526125Y-10255000D01*
X20526125Y-10065000D02*
X20336125Y-10255000D01*
X20987000Y-4350000D02*
X21177000Y-4540000D01*
X21177000Y-4350000D02*
X20987000Y-4540000D01*
X20987000Y-6255000D02*
X21177000Y-6445000D01*
X21177000Y-6255000D02*
X20987000Y-6445000D01*
X20987000Y-8160000D02*
X21177000Y-8350000D01*
X21177000Y-8160000D02*
X20987000Y-8350000D01*
X22003000Y-4350000D02*
X22193000Y-4540000D01*
X22193000Y-4350000D02*
X22003000Y-4540000D01*
X22003000Y-6255000D02*
X22193000Y-6445000D01*
X22193000Y-6255000D02*
X22003000Y-6445000D01*
X22003000Y-8160000D02*
X22193000Y-8350000D01*
X22193000Y-8160000D02*
X22003000Y-8350000D01*
X22892000Y-4350000D02*
X23082000Y-4540000D01*
X23082000Y-4350000D02*
X22892000Y-4540000D01*
X22892000Y-6255000D02*
X23082000Y-6445000D01*
X23082000Y-6255000D02*
X22892000Y-6445000D01*
X22892000Y-8160000D02*
X23082000Y-8350000D01*
X23082000Y-8160000D02*
X22892000Y-8350000D01*
X23908000Y-4350000D02*
X24098000Y-4540000D01*
X24098000Y-4350000D02*
X23908000Y-4540000D01*
X23908000Y-6255000D02*
X24098000Y-6445000D01*
X24098000Y-6255000D02*
X23908000Y-6445000D01*
X23908000Y-8160000D02*
X24098000Y-8350000D01*
X24098000Y-8160000D02*
X23908000Y-8350000D01*
D13*
X6119000Y-4191000D02*
G75*
G03*
X6119000Y-4191000I-150000J0D01*
G01*
X6119000Y-6096000D02*
G75*
G03*
X6119000Y-6096000I-150000J0D01*
G01*
X6119000Y-8001000D02*
G75*
G03*
X6119000Y-8001000I-150000J0D01*
G01*
X6754000Y-3937000D02*
G75*
G03*
X6754000Y-3937000I-150000J0D01*
G01*
X6754000Y-5842000D02*
G75*
G03*
X6754000Y-5842000I-150000J0D01*
G01*
X6754000Y-7747000D02*
G75*
G03*
X6754000Y-7747000I-150000J0D01*
G01*
X8024000Y-4191000D02*
G75*
G03*
X8024000Y-4191000I-150000J0D01*
G01*
X8024000Y-6096000D02*
G75*
G03*
X8024000Y-6096000I-150000J0D01*
G01*
X8024000Y-8001000D02*
G75*
G03*
X8024000Y-8001000I-150000J0D01*
G01*
X8659000Y-3937000D02*
G75*
G03*
X8659000Y-3937000I-150000J0D01*
G01*
X8659000Y-5842000D02*
G75*
G03*
X8659000Y-5842000I-150000J0D01*
G01*
X8659000Y-7747000D02*
G75*
G03*
X8659000Y-7747000I-150000J0D01*
G01*
X9690875Y-9906000D02*
G75*
G03*
X9690875Y-9906000I-150000J0D01*
G01*
X9929000Y-4191000D02*
G75*
G03*
X9929000Y-4191000I-150000J0D01*
G01*
X9929000Y-6096000D02*
G75*
G03*
X9929000Y-6096000I-150000J0D01*
G01*
X9929000Y-8001000D02*
G75*
G03*
X9929000Y-8001000I-150000J0D01*
G01*
X10325875Y-9652000D02*
G75*
G03*
X10325875Y-9652000I-150000J0D01*
G01*
X10564000Y-3937000D02*
G75*
G03*
X10564000Y-3937000I-150000J0D01*
G01*
X10564000Y-5842000D02*
G75*
G03*
X10564000Y-5842000I-150000J0D01*
G01*
X10564000Y-7747000D02*
G75*
G03*
X10564000Y-7747000I-150000J0D01*
G01*
X11834000Y-4191000D02*
G75*
G03*
X11834000Y-4191000I-150000J0D01*
G01*
X11834000Y-6096000D02*
G75*
G03*
X11834000Y-6096000I-150000J0D01*
G01*
X11834000Y-8001000D02*
G75*
G03*
X11834000Y-8001000I-150000J0D01*
G01*
X12469000Y-3937000D02*
G75*
G03*
X12469000Y-3937000I-150000J0D01*
G01*
X12469000Y-5842000D02*
G75*
G03*
X12469000Y-5842000I-150000J0D01*
G01*
X12469000Y-7747000D02*
G75*
G03*
X12469000Y-7747000I-150000J0D01*
G01*
X13739000Y-4191000D02*
G75*
G03*
X13739000Y-4191000I-150000J0D01*
G01*
X13739000Y-6096000D02*
G75*
G03*
X13739000Y-6096000I-150000J0D01*
G01*
X13739000Y-8001000D02*
G75*
G03*
X13739000Y-8001000I-150000J0D01*
G01*
X14374000Y-3937000D02*
G75*
G03*
X14374000Y-3937000I-150000J0D01*
G01*
X14374000Y-5842000D02*
G75*
G03*
X14374000Y-5842000I-150000J0D01*
G01*
X14374000Y-7747000D02*
G75*
G03*
X14374000Y-7747000I-150000J0D01*
G01*
X14691500Y-9906000D02*
G75*
G03*
X14691500Y-9906000I-150000J0D01*
G01*
X15326500Y-9652000D02*
G75*
G03*
X15326500Y-9652000I-150000J0D01*
G01*
X15644000Y-4191000D02*
G75*
G03*
X15644000Y-4191000I-150000J0D01*
G01*
X15644000Y-6096000D02*
G75*
G03*
X15644000Y-6096000I-150000J0D01*
G01*
X15644000Y-8001000D02*
G75*
G03*
X15644000Y-8001000I-150000J0D01*
G01*
X16279000Y-3937000D02*
G75*
G03*
X16279000Y-3937000I-150000J0D01*
G01*
X16279000Y-5842000D02*
G75*
G03*
X16279000Y-5842000I-150000J0D01*
G01*
X16279000Y-7747000D02*
G75*
G03*
X16279000Y-7747000I-150000J0D01*
G01*
X17549000Y-4191000D02*
G75*
G03*
X17549000Y-4191000I-150000J0D01*
G01*
X17549000Y-6096000D02*
G75*
G03*
X17549000Y-6096000I-150000J0D01*
G01*
X17549000Y-8001000D02*
G75*
G03*
X17549000Y-8001000I-150000J0D01*
G01*
X18184000Y-3937000D02*
G75*
G03*
X18184000Y-3937000I-150000J0D01*
G01*
X18184000Y-5842000D02*
G75*
G03*
X18184000Y-5842000I-150000J0D01*
G01*
X18184000Y-7747000D02*
G75*
G03*
X18184000Y-7747000I-150000J0D01*
G01*
X19454000Y-4191000D02*
G75*
G03*
X19454000Y-4191000I-150000J0D01*
G01*
X19454000Y-6096000D02*
G75*
G03*
X19454000Y-6096000I-150000J0D01*
G01*
X19454000Y-8001000D02*
G75*
G03*
X19454000Y-8001000I-150000J0D01*
G01*
X19692125Y-9906000D02*
G75*
G03*
X19692125Y-9906000I-150000J0D01*
G01*
X20089000Y-3937000D02*
G75*
G03*
X20089000Y-3937000I-150000J0D01*
G01*
X20089000Y-5842000D02*
G75*
G03*
X20089000Y-5842000I-150000J0D01*
G01*
X20089000Y-7747000D02*
G75*
G03*
X20089000Y-7747000I-150000J0D01*
G01*
X20327125Y-9652000D02*
G75*
G03*
X20327125Y-9652000I-150000J0D01*
G01*
X21359000Y-4191000D02*
G75*
G03*
X21359000Y-4191000I-150000J0D01*
G01*
X21359000Y-6096000D02*
G75*
G03*
X21359000Y-6096000I-150000J0D01*
G01*
X21359000Y-8001000D02*
G75*
G03*
X21359000Y-8001000I-150000J0D01*
G01*
X21994000Y-3937000D02*
G75*
G03*
X21994000Y-3937000I-150000J0D01*
G01*
X21994000Y-5842000D02*
G75*
G03*
X21994000Y-5842000I-150000J0D01*
G01*
X21994000Y-7747000D02*
G75*
G03*
X21994000Y-7747000I-150000J0D01*
G01*
X23264000Y-4191000D02*
G75*
G03*
X23264000Y-4191000I-150000J0D01*
G01*
X23264000Y-6096000D02*
G75*
G03*
X23264000Y-6096000I-150000J0D01*
G01*
X23264000Y-8001000D02*
G75*
G03*
X23264000Y-8001000I-150000J0D01*
G01*
X23899000Y-3937000D02*
G75*
G03*
X23899000Y-3937000I-150000J0D01*
G01*
X23899000Y-5842000D02*
G75*
G03*
X23899000Y-5842000I-150000J0D01*
G01*
X23899000Y-7747000D02*
G75*
G03*
X23899000Y-7747000I-150000J0D01*
G01*
D14*
X8318500Y-10000000D02*
X8318500Y-10320000D01*
X8158500Y-10160000D02*
X8478500Y-10160000D01*
D15*
X6491423Y-4586423D02*
X6491423Y-4303577D01*
X6208577Y-4303577D01*
X6208577Y-4586423D01*
X6491423Y-4586423D01*
X6491423Y-6491423D02*
X6491423Y-6208577D01*
X6208577Y-6208577D01*
X6208577Y-6491423D01*
X6491423Y-6491423D01*
X6491423Y-8396423D02*
X6491423Y-8113577D01*
X6208577Y-8113577D01*
X6208577Y-8396423D01*
X6491423Y-8396423D01*
X8396423Y-4586423D02*
X8396423Y-4303577D01*
X8113577Y-4303577D01*
X8113577Y-4586423D01*
X8396423Y-4586423D01*
X8396423Y-6491423D02*
X8396423Y-6208577D01*
X8113577Y-6208577D01*
X8113577Y-6491423D01*
X8396423Y-6491423D01*
X8396423Y-8396423D02*
X8396423Y-8113577D01*
X8113577Y-8113577D01*
X8113577Y-8396423D01*
X8396423Y-8396423D01*
X10063298Y-10301423D02*
X10063298Y-10018577D01*
X9780452Y-10018577D01*
X9780452Y-10301423D01*
X10063298Y-10301423D01*
X10301423Y-4586423D02*
X10301423Y-4303577D01*
X10018577Y-4303577D01*
X10018577Y-4586423D01*
X10301423Y-4586423D01*
X10301423Y-6491423D02*
X10301423Y-6208577D01*
X10018577Y-6208577D01*
X10018577Y-6491423D01*
X10301423Y-6491423D01*
X10301423Y-8396423D02*
X10301423Y-8113577D01*
X10018577Y-8113577D01*
X10018577Y-8396423D01*
X10301423Y-8396423D01*
X12206423Y-4586423D02*
X12206423Y-4303577D01*
X11923577Y-4303577D01*
X11923577Y-4586423D01*
X12206423Y-4586423D01*
X12206423Y-6491423D02*
X12206423Y-6208577D01*
X11923577Y-6208577D01*
X11923577Y-6491423D01*
X12206423Y-6491423D01*
X12206423Y-8396423D02*
X12206423Y-8113577D01*
X11923577Y-8113577D01*
X11923577Y-8396423D01*
X12206423Y-8396423D01*
X14111423Y-4586423D02*
X14111423Y-4303577D01*
X13828577Y-4303577D01*
X13828577Y-4586423D01*
X14111423Y-4586423D01*
X14111423Y-6491423D02*
X14111423Y-6208577D01*
X13828577Y-6208577D01*
X13828577Y-6491423D01*
X14111423Y-6491423D01*
X14111423Y-8396423D02*
X14111423Y-8113577D01*
X13828577Y-8113577D01*
X13828577Y-8396423D01*
X14111423Y-8396423D01*
X15063923Y-10301423D02*
X15063923Y-10018577D01*
X14781077Y-10018577D01*
X14781077Y-10301423D01*
X15063923Y-10301423D01*
X16016423Y-4586423D02*
X16016423Y-4303577D01*
X15733577Y-4303577D01*
X15733577Y-4586423D01*
X16016423Y-4586423D01*
X16016423Y-6491423D02*
X16016423Y-6208577D01*
X15733577Y-6208577D01*
X15733577Y-6491423D01*
X16016423Y-6491423D01*
X16016423Y-8396423D02*
X16016423Y-8113577D01*
X15733577Y-8113577D01*
X15733577Y-8396423D01*
X16016423Y-8396423D01*
X17921423Y-4586423D02*
X17921423Y-4303577D01*
X17638577Y-4303577D01*
X17638577Y-4586423D01*
X17921423Y-4586423D01*
X17921423Y-6491423D02*
X17921423Y-6208577D01*
X17638577Y-6208577D01*
X17638577Y-6491423D01*
X17921423Y-6491423D01*
X17921423Y-8396423D02*
X17921423Y-8113577D01*
X17638577Y-8113577D01*
X17638577Y-8396423D01*
X17921423Y-8396423D01*
X19826423Y-4586423D02*
X19826423Y-4303577D01*
X19543577Y-4303577D01*
X19543577Y-4586423D01*
X19826423Y-4586423D01*
X19826423Y-6491423D02*
X19826423Y-6208577D01*
X19543577Y-6208577D01*
X19543577Y-6491423D01*
X19826423Y-6491423D01*
X19826423Y-8396423D02*
X19826423Y-8113577D01*
X19543577Y-8113577D01*
X19543577Y-8396423D01*
X19826423Y-8396423D01*
X20064548Y-10301423D02*
X20064548Y-10018577D01*
X19781702Y-10018577D01*
X19781702Y-10301423D01*
X20064548Y-10301423D01*
X21731423Y-4586423D02*
X21731423Y-4303577D01*
X21448577Y-4303577D01*
X21448577Y-4586423D01*
X21731423Y-4586423D01*
X21731423Y-6491423D02*
X21731423Y-6208577D01*
X21448577Y-6208577D01*
X21448577Y-6491423D01*
X21731423Y-6491423D01*
X21731423Y-8396423D02*
X21731423Y-8113577D01*
X21448577Y-8113577D01*
X21448577Y-8396423D01*
X21731423Y-8396423D01*
X23636423Y-4586423D02*
X23636423Y-4303577D01*
X23353577Y-4303577D01*
X23353577Y-4586423D01*
X23636423Y-4586423D01*
X23636423Y-6491423D02*
X23636423Y-6208577D01*
X23353577Y-6208577D01*
X23353577Y-6491423D01*
X23636423Y-6491423D01*
X23636423Y-8396423D02*
X23636423Y-8113577D01*
X23353577Y-8113577D01*
X23353577Y-8396423D01*
X23636423Y-8396423D01*
D11*
X5639062Y-11430024D02*
X5639062Y-11230024D01*
X5639062Y-11230024D02*
X5686681Y-11230024D01*
X5686681Y-11230024D02*
X5715252Y-11239548D01*
X5715252Y-11239548D02*
X5734300Y-11258595D01*
X5734300Y-11258595D02*
X5743824Y-11277643D01*
X5743824Y-11277643D02*
X5753348Y-11315738D01*
X5753348Y-11315738D02*
X5753348Y-11344309D01*
X5753348Y-11344309D02*
X5743824Y-11382405D01*
X5743824Y-11382405D02*
X5734300Y-11401452D01*
X5734300Y-11401452D02*
X5715252Y-11420500D01*
X5715252Y-11420500D02*
X5686681Y-11430024D01*
X5686681Y-11430024D02*
X5639062Y-11430024D01*
X5839062Y-11430024D02*
X5839062Y-11296690D01*
X5839062Y-11334786D02*
X5848586Y-11315738D01*
X5848586Y-11315738D02*
X5858109Y-11306214D01*
X5858109Y-11306214D02*
X5877157Y-11296690D01*
X5877157Y-11296690D02*
X5896205Y-11296690D01*
X5962871Y-11430024D02*
X5962871Y-11296690D01*
X5962871Y-11230024D02*
X5953348Y-11239548D01*
X5953348Y-11239548D02*
X5962871Y-11249071D01*
X5962871Y-11249071D02*
X5972395Y-11239548D01*
X5972395Y-11239548D02*
X5962871Y-11230024D01*
X5962871Y-11230024D02*
X5962871Y-11249071D01*
X6086681Y-11430024D02*
X6067633Y-11420500D01*
X6067633Y-11420500D02*
X6058109Y-11401452D01*
X6058109Y-11401452D02*
X6058109Y-11230024D01*
X6191443Y-11430024D02*
X6172395Y-11420500D01*
X6172395Y-11420500D02*
X6162871Y-11401452D01*
X6162871Y-11401452D02*
X6162871Y-11230024D01*
X6420014Y-11430024D02*
X6420014Y-11230024D01*
X6420014Y-11230024D02*
X6486681Y-11372881D01*
X6486681Y-11372881D02*
X6553348Y-11230024D01*
X6553348Y-11230024D02*
X6553348Y-11430024D01*
X6734300Y-11430024D02*
X6734300Y-11325262D01*
X6734300Y-11325262D02*
X6724776Y-11306214D01*
X6724776Y-11306214D02*
X6705729Y-11296690D01*
X6705729Y-11296690D02*
X6667633Y-11296690D01*
X6667633Y-11296690D02*
X6648586Y-11306214D01*
X6734300Y-11420500D02*
X6715252Y-11430024D01*
X6715252Y-11430024D02*
X6667633Y-11430024D01*
X6667633Y-11430024D02*
X6648586Y-11420500D01*
X6648586Y-11420500D02*
X6639062Y-11401452D01*
X6639062Y-11401452D02*
X6639062Y-11382405D01*
X6639062Y-11382405D02*
X6648586Y-11363357D01*
X6648586Y-11363357D02*
X6667633Y-11353833D01*
X6667633Y-11353833D02*
X6715252Y-11353833D01*
X6715252Y-11353833D02*
X6734300Y-11344309D01*
X6829538Y-11296690D02*
X6829538Y-11496690D01*
X6829538Y-11306214D02*
X6848586Y-11296690D01*
X6848586Y-11296690D02*
X6886681Y-11296690D01*
X6886681Y-11296690D02*
X6905729Y-11306214D01*
X6905729Y-11306214D02*
X6915252Y-11315738D01*
X6915252Y-11315738D02*
X6924776Y-11334786D01*
X6924776Y-11334786D02*
X6924776Y-11391928D01*
X6924776Y-11391928D02*
X6915252Y-11410976D01*
X6915252Y-11410976D02*
X6905729Y-11420500D01*
X6905729Y-11420500D02*
X6886681Y-11430024D01*
X6886681Y-11430024D02*
X6848586Y-11430024D01*
X6848586Y-11430024D02*
X6829538Y-11420500D01*
X7010490Y-11410976D02*
X7020014Y-11420500D01*
X7020014Y-11420500D02*
X7010490Y-11430024D01*
X7010490Y-11430024D02*
X7000967Y-11420500D01*
X7000967Y-11420500D02*
X7010490Y-11410976D01*
X7010490Y-11410976D02*
X7010490Y-11430024D01*
X7010490Y-11306214D02*
X7020014Y-11315738D01*
X7020014Y-11315738D02*
X7010490Y-11325262D01*
X7010490Y-11325262D02*
X7000967Y-11315738D01*
X7000967Y-11315738D02*
X7010490Y-11306214D01*
X7010490Y-11306214D02*
X7010490Y-11325262D01*
D12*
X5201443Y-11662500D02*
X5391443Y-11852500D01*
X5391443Y-11662500D02*
X5201443Y-11852500D01*
D11*
X5743824Y-11850024D02*
X5629538Y-11850024D01*
X5686681Y-11850024D02*
X5686681Y-11650024D01*
X5686681Y-11650024D02*
X5667633Y-11678595D01*
X5667633Y-11678595D02*
X5648586Y-11697643D01*
X5648586Y-11697643D02*
X5629538Y-11707167D01*
X5829538Y-11830976D02*
X5839062Y-11840500D01*
X5839062Y-11840500D02*
X5829538Y-11850024D01*
X5829538Y-11850024D02*
X5820014Y-11840500D01*
X5820014Y-11840500D02*
X5829538Y-11830976D01*
X5829538Y-11830976D02*
X5829538Y-11850024D01*
X5934300Y-11850024D02*
X5972395Y-11850024D01*
X5972395Y-11850024D02*
X5991443Y-11840500D01*
X5991443Y-11840500D02*
X6000967Y-11830976D01*
X6000967Y-11830976D02*
X6020014Y-11802405D01*
X6020014Y-11802405D02*
X6029538Y-11764309D01*
X6029538Y-11764309D02*
X6029538Y-11688119D01*
X6029538Y-11688119D02*
X6020014Y-11669071D01*
X6020014Y-11669071D02*
X6010490Y-11659548D01*
X6010490Y-11659548D02*
X5991443Y-11650024D01*
X5991443Y-11650024D02*
X5953348Y-11650024D01*
X5953348Y-11650024D02*
X5934300Y-11659548D01*
X5934300Y-11659548D02*
X5924776Y-11669071D01*
X5924776Y-11669071D02*
X5915252Y-11688119D01*
X5915252Y-11688119D02*
X5915252Y-11735738D01*
X5915252Y-11735738D02*
X5924776Y-11754786D01*
X5924776Y-11754786D02*
X5934300Y-11764309D01*
X5934300Y-11764309D02*
X5953348Y-11773833D01*
X5953348Y-11773833D02*
X5991443Y-11773833D01*
X5991443Y-11773833D02*
X6010490Y-11764309D01*
X6010490Y-11764309D02*
X6020014Y-11754786D01*
X6020014Y-11754786D02*
X6029538Y-11735738D01*
X6153348Y-11650024D02*
X6172395Y-11650024D01*
X6172395Y-11650024D02*
X6191443Y-11659548D01*
X6191443Y-11659548D02*
X6200967Y-11669071D01*
X6200967Y-11669071D02*
X6210490Y-11688119D01*
X6210490Y-11688119D02*
X6220014Y-11726214D01*
X6220014Y-11726214D02*
X6220014Y-11773833D01*
X6220014Y-11773833D02*
X6210490Y-11811928D01*
X6210490Y-11811928D02*
X6200967Y-11830976D01*
X6200967Y-11830976D02*
X6191443Y-11840500D01*
X6191443Y-11840500D02*
X6172395Y-11850024D01*
X6172395Y-11850024D02*
X6153348Y-11850024D01*
X6153348Y-11850024D02*
X6134300Y-11840500D01*
X6134300Y-11840500D02*
X6124776Y-11830976D01*
X6124776Y-11830976D02*
X6115252Y-11811928D01*
X6115252Y-11811928D02*
X6105729Y-11773833D01*
X6105729Y-11773833D02*
X6105729Y-11726214D01*
X6105729Y-11726214D02*
X6115252Y-11688119D01*
X6115252Y-11688119D02*
X6124776Y-11669071D01*
X6124776Y-11669071D02*
X6134300Y-11659548D01*
X6134300Y-11659548D02*
X6153348Y-11650024D01*
X6343824Y-11650024D02*
X6362871Y-11650024D01*
X6362871Y-11650024D02*
X6381919Y-11659548D01*
X6381919Y-11659548D02*
X6391443Y-11669071D01*
X6391443Y-11669071D02*
X6400967Y-11688119D01*
X6400967Y-11688119D02*
X6410490Y-11726214D01*
X6410490Y-11726214D02*
X6410490Y-11773833D01*
X6410490Y-11773833D02*
X6400967Y-11811928D01*
X6400967Y-11811928D02*
X6391443Y-11830976D01*
X6391443Y-11830976D02*
X6381919Y-11840500D01*
X6381919Y-11840500D02*
X6362871Y-11850024D01*
X6362871Y-11850024D02*
X6343824Y-11850024D01*
X6343824Y-11850024D02*
X6324776Y-11840500D01*
X6324776Y-11840500D02*
X6315252Y-11830976D01*
X6315252Y-11830976D02*
X6305729Y-11811928D01*
X6305729Y-11811928D02*
X6296205Y-11773833D01*
X6296205Y-11773833D02*
X6296205Y-11726214D01*
X6296205Y-11726214D02*
X6305729Y-11688119D01*
X6305729Y-11688119D02*
X6315252Y-11669071D01*
X6315252Y-11669071D02*
X6324776Y-11659548D01*
X6324776Y-11659548D02*
X6343824Y-11650024D01*
X6496205Y-11850024D02*
X6496205Y-11716690D01*
X6496205Y-11735738D02*
X6505729Y-11726214D01*
X6505729Y-11726214D02*
X6524776Y-11716690D01*
X6524776Y-11716690D02*
X6553348Y-11716690D01*
X6553348Y-11716690D02*
X6572395Y-11726214D01*
X6572395Y-11726214D02*
X6581919Y-11745262D01*
X6581919Y-11745262D02*
X6581919Y-11850024D01*
X6581919Y-11745262D02*
X6591443Y-11726214D01*
X6591443Y-11726214D02*
X6610490Y-11716690D01*
X6610490Y-11716690D02*
X6639062Y-11716690D01*
X6639062Y-11716690D02*
X6658110Y-11726214D01*
X6658110Y-11726214D02*
X6667633Y-11745262D01*
X6667633Y-11745262D02*
X6667633Y-11850024D01*
X6762871Y-11850024D02*
X6762871Y-11716690D01*
X6762871Y-11735738D02*
X6772395Y-11726214D01*
X6772395Y-11726214D02*
X6791443Y-11716690D01*
X6791443Y-11716690D02*
X6820014Y-11716690D01*
X6820014Y-11716690D02*
X6839062Y-11726214D01*
X6839062Y-11726214D02*
X6848586Y-11745262D01*
X6848586Y-11745262D02*
X6848586Y-11850024D01*
X6848586Y-11745262D02*
X6858110Y-11726214D01*
X6858110Y-11726214D02*
X6877157Y-11716690D01*
X6877157Y-11716690D02*
X6905729Y-11716690D01*
X6905729Y-11716690D02*
X6924776Y-11726214D01*
X6924776Y-11726214D02*
X6934300Y-11745262D01*
X6934300Y-11745262D02*
X6934300Y-11850024D01*
X7324776Y-11640500D02*
X7153348Y-11897643D01*
X7581919Y-11650024D02*
X7600967Y-11650024D01*
X7600967Y-11650024D02*
X7620014Y-11659548D01*
X7620014Y-11659548D02*
X7629538Y-11669071D01*
X7629538Y-11669071D02*
X7639062Y-11688119D01*
X7639062Y-11688119D02*
X7648586Y-11726214D01*
X7648586Y-11726214D02*
X7648586Y-11773833D01*
X7648586Y-11773833D02*
X7639062Y-11811928D01*
X7639062Y-11811928D02*
X7629538Y-11830976D01*
X7629538Y-11830976D02*
X7620014Y-11840500D01*
X7620014Y-11840500D02*
X7600967Y-11850024D01*
X7600967Y-11850024D02*
X7581919Y-11850024D01*
X7581919Y-11850024D02*
X7562872Y-11840500D01*
X7562872Y-11840500D02*
X7553348Y-11830976D01*
X7553348Y-11830976D02*
X7543824Y-11811928D01*
X7543824Y-11811928D02*
X7534300Y-11773833D01*
X7534300Y-11773833D02*
X7534300Y-11726214D01*
X7534300Y-11726214D02*
X7543824Y-11688119D01*
X7543824Y-11688119D02*
X7553348Y-11669071D01*
X7553348Y-11669071D02*
X7562872Y-11659548D01*
X7562872Y-11659548D02*
X7581919Y-11650024D01*
X7734300Y-11830976D02*
X7743824Y-11840500D01*
X7743824Y-11840500D02*
X7734300Y-11850024D01*
X7734300Y-11850024D02*
X7724776Y-11840500D01*
X7724776Y-11840500D02*
X7734300Y-11830976D01*
X7734300Y-11830976D02*
X7734300Y-11850024D01*
X7867633Y-11650024D02*
X7886681Y-11650024D01*
X7886681Y-11650024D02*
X7905729Y-11659548D01*
X7905729Y-11659548D02*
X7915253Y-11669071D01*
X7915253Y-11669071D02*
X7924776Y-11688119D01*
X7924776Y-11688119D02*
X7934300Y-11726214D01*
X7934300Y-11726214D02*
X7934300Y-11773833D01*
X7934300Y-11773833D02*
X7924776Y-11811928D01*
X7924776Y-11811928D02*
X7915253Y-11830976D01*
X7915253Y-11830976D02*
X7905729Y-11840500D01*
X7905729Y-11840500D02*
X7886681Y-11850024D01*
X7886681Y-11850024D02*
X7867633Y-11850024D01*
X7867633Y-11850024D02*
X7848586Y-11840500D01*
X7848586Y-11840500D02*
X7839062Y-11830976D01*
X7839062Y-11830976D02*
X7829538Y-11811928D01*
X7829538Y-11811928D02*
X7820014Y-11773833D01*
X7820014Y-11773833D02*
X7820014Y-11726214D01*
X7820014Y-11726214D02*
X7829538Y-11688119D01*
X7829538Y-11688119D02*
X7839062Y-11669071D01*
X7839062Y-11669071D02*
X7848586Y-11659548D01*
X7848586Y-11659548D02*
X7867633Y-11650024D01*
X8000967Y-11650024D02*
X8134300Y-11650024D01*
X8134300Y-11650024D02*
X8048586Y-11850024D01*
X8296205Y-11716690D02*
X8296205Y-11850024D01*
X8248586Y-11640500D02*
X8200967Y-11783357D01*
X8200967Y-11783357D02*
X8324776Y-11783357D01*
X8429538Y-11735738D02*
X8410491Y-11726214D01*
X8410491Y-11726214D02*
X8400967Y-11716690D01*
X8400967Y-11716690D02*
X8391443Y-11697643D01*
X8391443Y-11697643D02*
X8391443Y-11688119D01*
X8391443Y-11688119D02*
X8400967Y-11669071D01*
X8400967Y-11669071D02*
X8410491Y-11659548D01*
X8410491Y-11659548D02*
X8429538Y-11650024D01*
X8429538Y-11650024D02*
X8467634Y-11650024D01*
X8467634Y-11650024D02*
X8486681Y-11659548D01*
X8486681Y-11659548D02*
X8496205Y-11669071D01*
X8496205Y-11669071D02*
X8505729Y-11688119D01*
X8505729Y-11688119D02*
X8505729Y-11697643D01*
X8505729Y-11697643D02*
X8496205Y-11716690D01*
X8496205Y-11716690D02*
X8486681Y-11726214D01*
X8486681Y-11726214D02*
X8467634Y-11735738D01*
X8467634Y-11735738D02*
X8429538Y-11735738D01*
X8429538Y-11735738D02*
X8410491Y-11745262D01*
X8410491Y-11745262D02*
X8400967Y-11754786D01*
X8400967Y-11754786D02*
X8391443Y-11773833D01*
X8391443Y-11773833D02*
X8391443Y-11811928D01*
X8391443Y-11811928D02*
X8400967Y-11830976D01*
X8400967Y-11830976D02*
X8410491Y-11840500D01*
X8410491Y-11840500D02*
X8429538Y-11850024D01*
X8429538Y-11850024D02*
X8467634Y-11850024D01*
X8467634Y-11850024D02*
X8486681Y-11840500D01*
X8486681Y-11840500D02*
X8496205Y-11830976D01*
X8496205Y-11830976D02*
X8505729Y-11811928D01*
X8505729Y-11811928D02*
X8505729Y-11773833D01*
X8505729Y-11773833D02*
X8496205Y-11754786D01*
X8496205Y-11754786D02*
X8486681Y-11745262D01*
X8486681Y-11745262D02*
X8467634Y-11735738D01*
X8581919Y-11650024D02*
X8581919Y-11688119D01*
X8658110Y-11650024D02*
X8658110Y-11688119D01*
X8953348Y-11926214D02*
X8943824Y-11916690D01*
X8943824Y-11916690D02*
X8924777Y-11888119D01*
X8924777Y-11888119D02*
X8915253Y-11869071D01*
X8915253Y-11869071D02*
X8905729Y-11840500D01*
X8905729Y-11840500D02*
X8896205Y-11792881D01*
X8896205Y-11792881D02*
X8896205Y-11754786D01*
X8896205Y-11754786D02*
X8905729Y-11707167D01*
X8905729Y-11707167D02*
X8915253Y-11678595D01*
X8915253Y-11678595D02*
X8924777Y-11659548D01*
X8924777Y-11659548D02*
X8943824Y-11630976D01*
X8943824Y-11630976D02*
X8953348Y-11621452D01*
X9115253Y-11650024D02*
X9077157Y-11650024D01*
X9077157Y-11650024D02*
X9058110Y-11659548D01*
X9058110Y-11659548D02*
X9048586Y-11669071D01*
X9048586Y-11669071D02*
X9029538Y-11697643D01*
X9029538Y-11697643D02*
X9020015Y-11735738D01*
X9020015Y-11735738D02*
X9020015Y-11811928D01*
X9020015Y-11811928D02*
X9029538Y-11830976D01*
X9029538Y-11830976D02*
X9039062Y-11840500D01*
X9039062Y-11840500D02*
X9058110Y-11850024D01*
X9058110Y-11850024D02*
X9096205Y-11850024D01*
X9096205Y-11850024D02*
X9115253Y-11840500D01*
X9115253Y-11840500D02*
X9124777Y-11830976D01*
X9124777Y-11830976D02*
X9134300Y-11811928D01*
X9134300Y-11811928D02*
X9134300Y-11764309D01*
X9134300Y-11764309D02*
X9124777Y-11745262D01*
X9124777Y-11745262D02*
X9115253Y-11735738D01*
X9115253Y-11735738D02*
X9096205Y-11726214D01*
X9096205Y-11726214D02*
X9058110Y-11726214D01*
X9058110Y-11726214D02*
X9039062Y-11735738D01*
X9039062Y-11735738D02*
X9029538Y-11745262D01*
X9029538Y-11745262D02*
X9020015Y-11764309D01*
X9305729Y-11650024D02*
X9267634Y-11650024D01*
X9267634Y-11650024D02*
X9248586Y-11659548D01*
X9248586Y-11659548D02*
X9239062Y-11669071D01*
X9239062Y-11669071D02*
X9220015Y-11697643D01*
X9220015Y-11697643D02*
X9210491Y-11735738D01*
X9210491Y-11735738D02*
X9210491Y-11811928D01*
X9210491Y-11811928D02*
X9220015Y-11830976D01*
X9220015Y-11830976D02*
X9229538Y-11840500D01*
X9229538Y-11840500D02*
X9248586Y-11850024D01*
X9248586Y-11850024D02*
X9286681Y-11850024D01*
X9286681Y-11850024D02*
X9305729Y-11840500D01*
X9305729Y-11840500D02*
X9315253Y-11830976D01*
X9315253Y-11830976D02*
X9324777Y-11811928D01*
X9324777Y-11811928D02*
X9324777Y-11764309D01*
X9324777Y-11764309D02*
X9315253Y-11745262D01*
X9315253Y-11745262D02*
X9305729Y-11735738D01*
X9305729Y-11735738D02*
X9286681Y-11726214D01*
X9286681Y-11726214D02*
X9248586Y-11726214D01*
X9248586Y-11726214D02*
X9229538Y-11735738D01*
X9229538Y-11735738D02*
X9220015Y-11745262D01*
X9220015Y-11745262D02*
X9210491Y-11764309D01*
X9562872Y-11850024D02*
X9562872Y-11650024D01*
X9648586Y-11850024D02*
X9648586Y-11745262D01*
X9648586Y-11745262D02*
X9639062Y-11726214D01*
X9639062Y-11726214D02*
X9620015Y-11716690D01*
X9620015Y-11716690D02*
X9591443Y-11716690D01*
X9591443Y-11716690D02*
X9572396Y-11726214D01*
X9572396Y-11726214D02*
X9562872Y-11735738D01*
X9772396Y-11850024D02*
X9753348Y-11840500D01*
X9753348Y-11840500D02*
X9743824Y-11830976D01*
X9743824Y-11830976D02*
X9734300Y-11811928D01*
X9734300Y-11811928D02*
X9734300Y-11754786D01*
X9734300Y-11754786D02*
X9743824Y-11735738D01*
X9743824Y-11735738D02*
X9753348Y-11726214D01*
X9753348Y-11726214D02*
X9772396Y-11716690D01*
X9772396Y-11716690D02*
X9800967Y-11716690D01*
X9800967Y-11716690D02*
X9820015Y-11726214D01*
X9820015Y-11726214D02*
X9829539Y-11735738D01*
X9829539Y-11735738D02*
X9839062Y-11754786D01*
X9839062Y-11754786D02*
X9839062Y-11811928D01*
X9839062Y-11811928D02*
X9829539Y-11830976D01*
X9829539Y-11830976D02*
X9820015Y-11840500D01*
X9820015Y-11840500D02*
X9800967Y-11850024D01*
X9800967Y-11850024D02*
X9772396Y-11850024D01*
X9953348Y-11850024D02*
X9934300Y-11840500D01*
X9934300Y-11840500D02*
X9924777Y-11821452D01*
X9924777Y-11821452D02*
X9924777Y-11650024D01*
X10105729Y-11840500D02*
X10086681Y-11850024D01*
X10086681Y-11850024D02*
X10048586Y-11850024D01*
X10048586Y-11850024D02*
X10029539Y-11840500D01*
X10029539Y-11840500D02*
X10020015Y-11821452D01*
X10020015Y-11821452D02*
X10020015Y-11745262D01*
X10020015Y-11745262D02*
X10029539Y-11726214D01*
X10029539Y-11726214D02*
X10048586Y-11716690D01*
X10048586Y-11716690D02*
X10086681Y-11716690D01*
X10086681Y-11716690D02*
X10105729Y-11726214D01*
X10105729Y-11726214D02*
X10115253Y-11745262D01*
X10115253Y-11745262D02*
X10115253Y-11764309D01*
X10115253Y-11764309D02*
X10020015Y-11783357D01*
X10191443Y-11840500D02*
X10210491Y-11850024D01*
X10210491Y-11850024D02*
X10248586Y-11850024D01*
X10248586Y-11850024D02*
X10267634Y-11840500D01*
X10267634Y-11840500D02*
X10277158Y-11821452D01*
X10277158Y-11821452D02*
X10277158Y-11811928D01*
X10277158Y-11811928D02*
X10267634Y-11792881D01*
X10267634Y-11792881D02*
X10248586Y-11783357D01*
X10248586Y-11783357D02*
X10220015Y-11783357D01*
X10220015Y-11783357D02*
X10200967Y-11773833D01*
X10200967Y-11773833D02*
X10191443Y-11754786D01*
X10191443Y-11754786D02*
X10191443Y-11745262D01*
X10191443Y-11745262D02*
X10200967Y-11726214D01*
X10200967Y-11726214D02*
X10220015Y-11716690D01*
X10220015Y-11716690D02*
X10248586Y-11716690D01*
X10248586Y-11716690D02*
X10267634Y-11726214D01*
X10343824Y-11926214D02*
X10353348Y-11916690D01*
X10353348Y-11916690D02*
X10372396Y-11888119D01*
X10372396Y-11888119D02*
X10381920Y-11869071D01*
X10381920Y-11869071D02*
X10391443Y-11840500D01*
X10391443Y-11840500D02*
X10400967Y-11792881D01*
X10400967Y-11792881D02*
X10400967Y-11754786D01*
X10400967Y-11754786D02*
X10391443Y-11707167D01*
X10391443Y-11707167D02*
X10381920Y-11678595D01*
X10381920Y-11678595D02*
X10372396Y-11659548D01*
X10372396Y-11659548D02*
X10353348Y-11630976D01*
X10353348Y-11630976D02*
X10343824Y-11621452D01*
X10705729Y-11926214D02*
X10696205Y-11916690D01*
X10696205Y-11916690D02*
X10677158Y-11888119D01*
X10677158Y-11888119D02*
X10667634Y-11869071D01*
X10667634Y-11869071D02*
X10658110Y-11840500D01*
X10658110Y-11840500D02*
X10648586Y-11792881D01*
X10648586Y-11792881D02*
X10648586Y-11754786D01*
X10648586Y-11754786D02*
X10658110Y-11707167D01*
X10658110Y-11707167D02*
X10667634Y-11678595D01*
X10667634Y-11678595D02*
X10677158Y-11659548D01*
X10677158Y-11659548D02*
X10696205Y-11630976D01*
X10696205Y-11630976D02*
X10705729Y-11621452D01*
X10781920Y-11716690D02*
X10781920Y-11850024D01*
X10781920Y-11735738D02*
X10791443Y-11726214D01*
X10791443Y-11726214D02*
X10810491Y-11716690D01*
X10810491Y-11716690D02*
X10839062Y-11716690D01*
X10839062Y-11716690D02*
X10858110Y-11726214D01*
X10858110Y-11726214D02*
X10867634Y-11745262D01*
X10867634Y-11745262D02*
X10867634Y-11850024D01*
X10991443Y-11850024D02*
X10972396Y-11840500D01*
X10972396Y-11840500D02*
X10962872Y-11830976D01*
X10962872Y-11830976D02*
X10953348Y-11811928D01*
X10953348Y-11811928D02*
X10953348Y-11754786D01*
X10953348Y-11754786D02*
X10962872Y-11735738D01*
X10962872Y-11735738D02*
X10972396Y-11726214D01*
X10972396Y-11726214D02*
X10991443Y-11716690D01*
X10991443Y-11716690D02*
X11020015Y-11716690D01*
X11020015Y-11716690D02*
X11039062Y-11726214D01*
X11039062Y-11726214D02*
X11048586Y-11735738D01*
X11048586Y-11735738D02*
X11058110Y-11754786D01*
X11058110Y-11754786D02*
X11058110Y-11811928D01*
X11058110Y-11811928D02*
X11048586Y-11830976D01*
X11048586Y-11830976D02*
X11039062Y-11840500D01*
X11039062Y-11840500D02*
X11020015Y-11850024D01*
X11020015Y-11850024D02*
X10991443Y-11850024D01*
X11115253Y-11716690D02*
X11191443Y-11716690D01*
X11143824Y-11650024D02*
X11143824Y-11821452D01*
X11143824Y-11821452D02*
X11153348Y-11840500D01*
X11153348Y-11840500D02*
X11172396Y-11850024D01*
X11172396Y-11850024D02*
X11191443Y-11850024D01*
X11410491Y-11716690D02*
X11410491Y-11916690D01*
X11410491Y-11726214D02*
X11429539Y-11716690D01*
X11429539Y-11716690D02*
X11467634Y-11716690D01*
X11467634Y-11716690D02*
X11486681Y-11726214D01*
X11486681Y-11726214D02*
X11496205Y-11735738D01*
X11496205Y-11735738D02*
X11505729Y-11754786D01*
X11505729Y-11754786D02*
X11505729Y-11811928D01*
X11505729Y-11811928D02*
X11496205Y-11830976D01*
X11496205Y-11830976D02*
X11486681Y-11840500D01*
X11486681Y-11840500D02*
X11467634Y-11850024D01*
X11467634Y-11850024D02*
X11429539Y-11850024D01*
X11429539Y-11850024D02*
X11410491Y-11840500D01*
X11620015Y-11850024D02*
X11600967Y-11840500D01*
X11600967Y-11840500D02*
X11591443Y-11821452D01*
X11591443Y-11821452D02*
X11591443Y-11650024D01*
X11781920Y-11850024D02*
X11781920Y-11745262D01*
X11781920Y-11745262D02*
X11772396Y-11726214D01*
X11772396Y-11726214D02*
X11753348Y-11716690D01*
X11753348Y-11716690D02*
X11715253Y-11716690D01*
X11715253Y-11716690D02*
X11696205Y-11726214D01*
X11781920Y-11840500D02*
X11762872Y-11850024D01*
X11762872Y-11850024D02*
X11715253Y-11850024D01*
X11715253Y-11850024D02*
X11696205Y-11840500D01*
X11696205Y-11840500D02*
X11686681Y-11821452D01*
X11686681Y-11821452D02*
X11686681Y-11802405D01*
X11686681Y-11802405D02*
X11696205Y-11783357D01*
X11696205Y-11783357D02*
X11715253Y-11773833D01*
X11715253Y-11773833D02*
X11762872Y-11773833D01*
X11762872Y-11773833D02*
X11781920Y-11764309D01*
X11848586Y-11716690D02*
X11924777Y-11716690D01*
X11877158Y-11650024D02*
X11877158Y-11821452D01*
X11877158Y-11821452D02*
X11886681Y-11840500D01*
X11886681Y-11840500D02*
X11905729Y-11850024D01*
X11905729Y-11850024D02*
X11924777Y-11850024D01*
X12067634Y-11840500D02*
X12048586Y-11850024D01*
X12048586Y-11850024D02*
X12010491Y-11850024D01*
X12010491Y-11850024D02*
X11991443Y-11840500D01*
X11991443Y-11840500D02*
X11981920Y-11821452D01*
X11981920Y-11821452D02*
X11981920Y-11745262D01*
X11981920Y-11745262D02*
X11991443Y-11726214D01*
X11991443Y-11726214D02*
X12010491Y-11716690D01*
X12010491Y-11716690D02*
X12048586Y-11716690D01*
X12048586Y-11716690D02*
X12067634Y-11726214D01*
X12067634Y-11726214D02*
X12077158Y-11745262D01*
X12077158Y-11745262D02*
X12077158Y-11764309D01*
X12077158Y-11764309D02*
X11981920Y-11783357D01*
X12248586Y-11850024D02*
X12248586Y-11650024D01*
X12248586Y-11840500D02*
X12229539Y-11850024D01*
X12229539Y-11850024D02*
X12191443Y-11850024D01*
X12191443Y-11850024D02*
X12172396Y-11840500D01*
X12172396Y-11840500D02*
X12162872Y-11830976D01*
X12162872Y-11830976D02*
X12153348Y-11811928D01*
X12153348Y-11811928D02*
X12153348Y-11754786D01*
X12153348Y-11754786D02*
X12162872Y-11735738D01*
X12162872Y-11735738D02*
X12172396Y-11726214D01*
X12172396Y-11726214D02*
X12191443Y-11716690D01*
X12191443Y-11716690D02*
X12229539Y-11716690D01*
X12229539Y-11716690D02*
X12248586Y-11726214D01*
X12324777Y-11926214D02*
X12334301Y-11916690D01*
X12334301Y-11916690D02*
X12353348Y-11888119D01*
X12353348Y-11888119D02*
X12362872Y-11869071D01*
X12362872Y-11869071D02*
X12372396Y-11840500D01*
X12372396Y-11840500D02*
X12381920Y-11792881D01*
X12381920Y-11792881D02*
X12381920Y-11754786D01*
X12381920Y-11754786D02*
X12372396Y-11707167D01*
X12372396Y-11707167D02*
X12362872Y-11678595D01*
X12362872Y-11678595D02*
X12353348Y-11659548D01*
X12353348Y-11659548D02*
X12334301Y-11630976D01*
X12334301Y-11630976D02*
X12324777Y-11621452D01*
X5391443Y-12067500D02*
G75*
G03*
X5391443Y-12067500I-100000J0D01*
G01*
X5620014Y-11960024D02*
X5743824Y-11960024D01*
X5743824Y-11960024D02*
X5677157Y-12036214D01*
X5677157Y-12036214D02*
X5705729Y-12036214D01*
X5705729Y-12036214D02*
X5724776Y-12045738D01*
X5724776Y-12045738D02*
X5734300Y-12055262D01*
X5734300Y-12055262D02*
X5743824Y-12074309D01*
X5743824Y-12074309D02*
X5743824Y-12121928D01*
X5743824Y-12121928D02*
X5734300Y-12140976D01*
X5734300Y-12140976D02*
X5724776Y-12150500D01*
X5724776Y-12150500D02*
X5705729Y-12160024D01*
X5705729Y-12160024D02*
X5648586Y-12160024D01*
X5648586Y-12160024D02*
X5629538Y-12150500D01*
X5629538Y-12150500D02*
X5620014Y-12140976D01*
X5829538Y-12140976D02*
X5839062Y-12150500D01*
X5839062Y-12150500D02*
X5829538Y-12160024D01*
X5829538Y-12160024D02*
X5820014Y-12150500D01*
X5820014Y-12150500D02*
X5829538Y-12140976D01*
X5829538Y-12140976D02*
X5829538Y-12160024D01*
X5962871Y-11960024D02*
X5981919Y-11960024D01*
X5981919Y-11960024D02*
X6000967Y-11969548D01*
X6000967Y-11969548D02*
X6010490Y-11979071D01*
X6010490Y-11979071D02*
X6020014Y-11998119D01*
X6020014Y-11998119D02*
X6029538Y-12036214D01*
X6029538Y-12036214D02*
X6029538Y-12083833D01*
X6029538Y-12083833D02*
X6020014Y-12121928D01*
X6020014Y-12121928D02*
X6010490Y-12140976D01*
X6010490Y-12140976D02*
X6000967Y-12150500D01*
X6000967Y-12150500D02*
X5981919Y-12160024D01*
X5981919Y-12160024D02*
X5962871Y-12160024D01*
X5962871Y-12160024D02*
X5943824Y-12150500D01*
X5943824Y-12150500D02*
X5934300Y-12140976D01*
X5934300Y-12140976D02*
X5924776Y-12121928D01*
X5924776Y-12121928D02*
X5915252Y-12083833D01*
X5915252Y-12083833D02*
X5915252Y-12036214D01*
X5915252Y-12036214D02*
X5924776Y-11998119D01*
X5924776Y-11998119D02*
X5934300Y-11979071D01*
X5934300Y-11979071D02*
X5943824Y-11969548D01*
X5943824Y-11969548D02*
X5962871Y-11960024D01*
X6153348Y-11960024D02*
X6172395Y-11960024D01*
X6172395Y-11960024D02*
X6191443Y-11969548D01*
X6191443Y-11969548D02*
X6200967Y-11979071D01*
X6200967Y-11979071D02*
X6210490Y-11998119D01*
X6210490Y-11998119D02*
X6220014Y-12036214D01*
X6220014Y-12036214D02*
X6220014Y-12083833D01*
X6220014Y-12083833D02*
X6210490Y-12121928D01*
X6210490Y-12121928D02*
X6200967Y-12140976D01*
X6200967Y-12140976D02*
X6191443Y-12150500D01*
X6191443Y-12150500D02*
X6172395Y-12160024D01*
X6172395Y-12160024D02*
X6153348Y-12160024D01*
X6153348Y-12160024D02*
X6134300Y-12150500D01*
X6134300Y-12150500D02*
X6124776Y-12140976D01*
X6124776Y-12140976D02*
X6115252Y-12121928D01*
X6115252Y-12121928D02*
X6105729Y-12083833D01*
X6105729Y-12083833D02*
X6105729Y-12036214D01*
X6105729Y-12036214D02*
X6115252Y-11998119D01*
X6115252Y-11998119D02*
X6124776Y-11979071D01*
X6124776Y-11979071D02*
X6134300Y-11969548D01*
X6134300Y-11969548D02*
X6153348Y-11960024D01*
X6343824Y-11960024D02*
X6362871Y-11960024D01*
X6362871Y-11960024D02*
X6381919Y-11969548D01*
X6381919Y-11969548D02*
X6391443Y-11979071D01*
X6391443Y-11979071D02*
X6400967Y-11998119D01*
X6400967Y-11998119D02*
X6410490Y-12036214D01*
X6410490Y-12036214D02*
X6410490Y-12083833D01*
X6410490Y-12083833D02*
X6400967Y-12121928D01*
X6400967Y-12121928D02*
X6391443Y-12140976D01*
X6391443Y-12140976D02*
X6381919Y-12150500D01*
X6381919Y-12150500D02*
X6362871Y-12160024D01*
X6362871Y-12160024D02*
X6343824Y-12160024D01*
X6343824Y-12160024D02*
X6324776Y-12150500D01*
X6324776Y-12150500D02*
X6315252Y-12140976D01*
X6315252Y-12140976D02*
X6305729Y-12121928D01*
X6305729Y-12121928D02*
X6296205Y-12083833D01*
X6296205Y-12083833D02*
X6296205Y-12036214D01*
X6296205Y-12036214D02*
X6305729Y-11998119D01*
X6305729Y-11998119D02*
X6315252Y-11979071D01*
X6315252Y-11979071D02*
X6324776Y-11969548D01*
X6324776Y-11969548D02*
X6343824Y-11960024D01*
X6496205Y-12160024D02*
X6496205Y-12026690D01*
X6496205Y-12045738D02*
X6505729Y-12036214D01*
X6505729Y-12036214D02*
X6524776Y-12026690D01*
X6524776Y-12026690D02*
X6553348Y-12026690D01*
X6553348Y-12026690D02*
X6572395Y-12036214D01*
X6572395Y-12036214D02*
X6581919Y-12055262D01*
X6581919Y-12055262D02*
X6581919Y-12160024D01*
X6581919Y-12055262D02*
X6591443Y-12036214D01*
X6591443Y-12036214D02*
X6610490Y-12026690D01*
X6610490Y-12026690D02*
X6639062Y-12026690D01*
X6639062Y-12026690D02*
X6658110Y-12036214D01*
X6658110Y-12036214D02*
X6667633Y-12055262D01*
X6667633Y-12055262D02*
X6667633Y-12160024D01*
X6762871Y-12160024D02*
X6762871Y-12026690D01*
X6762871Y-12045738D02*
X6772395Y-12036214D01*
X6772395Y-12036214D02*
X6791443Y-12026690D01*
X6791443Y-12026690D02*
X6820014Y-12026690D01*
X6820014Y-12026690D02*
X6839062Y-12036214D01*
X6839062Y-12036214D02*
X6848586Y-12055262D01*
X6848586Y-12055262D02*
X6848586Y-12160024D01*
X6848586Y-12055262D02*
X6858110Y-12036214D01*
X6858110Y-12036214D02*
X6877157Y-12026690D01*
X6877157Y-12026690D02*
X6905729Y-12026690D01*
X6905729Y-12026690D02*
X6924776Y-12036214D01*
X6924776Y-12036214D02*
X6934300Y-12055262D01*
X6934300Y-12055262D02*
X6934300Y-12160024D01*
X7324776Y-11950500D02*
X7153348Y-12207643D01*
X7581919Y-11960024D02*
X7600967Y-11960024D01*
X7600967Y-11960024D02*
X7620014Y-11969548D01*
X7620014Y-11969548D02*
X7629538Y-11979071D01*
X7629538Y-11979071D02*
X7639062Y-11998119D01*
X7639062Y-11998119D02*
X7648586Y-12036214D01*
X7648586Y-12036214D02*
X7648586Y-12083833D01*
X7648586Y-12083833D02*
X7639062Y-12121928D01*
X7639062Y-12121928D02*
X7629538Y-12140976D01*
X7629538Y-12140976D02*
X7620014Y-12150500D01*
X7620014Y-12150500D02*
X7600967Y-12160024D01*
X7600967Y-12160024D02*
X7581919Y-12160024D01*
X7581919Y-12160024D02*
X7562872Y-12150500D01*
X7562872Y-12150500D02*
X7553348Y-12140976D01*
X7553348Y-12140976D02*
X7543824Y-12121928D01*
X7543824Y-12121928D02*
X7534300Y-12083833D01*
X7534300Y-12083833D02*
X7534300Y-12036214D01*
X7534300Y-12036214D02*
X7543824Y-11998119D01*
X7543824Y-11998119D02*
X7553348Y-11979071D01*
X7553348Y-11979071D02*
X7562872Y-11969548D01*
X7562872Y-11969548D02*
X7581919Y-11960024D01*
X7734300Y-12140976D02*
X7743824Y-12150500D01*
X7743824Y-12150500D02*
X7734300Y-12160024D01*
X7734300Y-12160024D02*
X7724776Y-12150500D01*
X7724776Y-12150500D02*
X7734300Y-12140976D01*
X7734300Y-12140976D02*
X7734300Y-12160024D01*
X7934300Y-12160024D02*
X7820014Y-12160024D01*
X7877157Y-12160024D02*
X7877157Y-11960024D01*
X7877157Y-11960024D02*
X7858110Y-11988595D01*
X7858110Y-11988595D02*
X7839062Y-12007643D01*
X7839062Y-12007643D02*
X7820014Y-12017167D01*
X8124776Y-12160024D02*
X8010491Y-12160024D01*
X8067633Y-12160024D02*
X8067633Y-11960024D01*
X8067633Y-11960024D02*
X8048586Y-11988595D01*
X8048586Y-11988595D02*
X8029538Y-12007643D01*
X8029538Y-12007643D02*
X8010491Y-12017167D01*
X8239062Y-12045738D02*
X8220014Y-12036214D01*
X8220014Y-12036214D02*
X8210491Y-12026690D01*
X8210491Y-12026690D02*
X8200967Y-12007643D01*
X8200967Y-12007643D02*
X8200967Y-11998119D01*
X8200967Y-11998119D02*
X8210491Y-11979071D01*
X8210491Y-11979071D02*
X8220014Y-11969548D01*
X8220014Y-11969548D02*
X8239062Y-11960024D01*
X8239062Y-11960024D02*
X8277157Y-11960024D01*
X8277157Y-11960024D02*
X8296205Y-11969548D01*
X8296205Y-11969548D02*
X8305729Y-11979071D01*
X8305729Y-11979071D02*
X8315253Y-11998119D01*
X8315253Y-11998119D02*
X8315253Y-12007643D01*
X8315253Y-12007643D02*
X8305729Y-12026690D01*
X8305729Y-12026690D02*
X8296205Y-12036214D01*
X8296205Y-12036214D02*
X8277157Y-12045738D01*
X8277157Y-12045738D02*
X8239062Y-12045738D01*
X8239062Y-12045738D02*
X8220014Y-12055262D01*
X8220014Y-12055262D02*
X8210491Y-12064786D01*
X8210491Y-12064786D02*
X8200967Y-12083833D01*
X8200967Y-12083833D02*
X8200967Y-12121928D01*
X8200967Y-12121928D02*
X8210491Y-12140976D01*
X8210491Y-12140976D02*
X8220014Y-12150500D01*
X8220014Y-12150500D02*
X8239062Y-12160024D01*
X8239062Y-12160024D02*
X8277157Y-12160024D01*
X8277157Y-12160024D02*
X8296205Y-12150500D01*
X8296205Y-12150500D02*
X8305729Y-12140976D01*
X8305729Y-12140976D02*
X8315253Y-12121928D01*
X8315253Y-12121928D02*
X8315253Y-12083833D01*
X8315253Y-12083833D02*
X8305729Y-12064786D01*
X8305729Y-12064786D02*
X8296205Y-12055262D01*
X8296205Y-12055262D02*
X8277157Y-12045738D01*
X8505729Y-12160024D02*
X8391443Y-12160024D01*
X8448586Y-12160024D02*
X8448586Y-11960024D01*
X8448586Y-11960024D02*
X8429538Y-11988595D01*
X8429538Y-11988595D02*
X8410491Y-12007643D01*
X8410491Y-12007643D02*
X8391443Y-12017167D01*
X8581919Y-11960024D02*
X8581919Y-11998119D01*
X8658110Y-11960024D02*
X8658110Y-11998119D01*
X8953348Y-12236214D02*
X8943824Y-12226690D01*
X8943824Y-12226690D02*
X8924777Y-12198119D01*
X8924777Y-12198119D02*
X8915253Y-12179071D01*
X8915253Y-12179071D02*
X8905729Y-12150500D01*
X8905729Y-12150500D02*
X8896205Y-12102881D01*
X8896205Y-12102881D02*
X8896205Y-12064786D01*
X8896205Y-12064786D02*
X8905729Y-12017167D01*
X8905729Y-12017167D02*
X8915253Y-11988595D01*
X8915253Y-11988595D02*
X8924777Y-11969548D01*
X8924777Y-11969548D02*
X8943824Y-11940976D01*
X8943824Y-11940976D02*
X8953348Y-11931452D01*
X9115253Y-11960024D02*
X9077157Y-11960024D01*
X9077157Y-11960024D02*
X9058110Y-11969548D01*
X9058110Y-11969548D02*
X9048586Y-11979071D01*
X9048586Y-11979071D02*
X9029538Y-12007643D01*
X9029538Y-12007643D02*
X9020015Y-12045738D01*
X9020015Y-12045738D02*
X9020015Y-12121928D01*
X9020015Y-12121928D02*
X9029538Y-12140976D01*
X9029538Y-12140976D02*
X9039062Y-12150500D01*
X9039062Y-12150500D02*
X9058110Y-12160024D01*
X9058110Y-12160024D02*
X9096205Y-12160024D01*
X9096205Y-12160024D02*
X9115253Y-12150500D01*
X9115253Y-12150500D02*
X9124777Y-12140976D01*
X9124777Y-12140976D02*
X9134300Y-12121928D01*
X9134300Y-12121928D02*
X9134300Y-12074309D01*
X9134300Y-12074309D02*
X9124777Y-12055262D01*
X9124777Y-12055262D02*
X9115253Y-12045738D01*
X9115253Y-12045738D02*
X9096205Y-12036214D01*
X9096205Y-12036214D02*
X9058110Y-12036214D01*
X9058110Y-12036214D02*
X9039062Y-12045738D01*
X9039062Y-12045738D02*
X9029538Y-12055262D01*
X9029538Y-12055262D02*
X9020015Y-12074309D01*
X9305729Y-11960024D02*
X9267634Y-11960024D01*
X9267634Y-11960024D02*
X9248586Y-11969548D01*
X9248586Y-11969548D02*
X9239062Y-11979071D01*
X9239062Y-11979071D02*
X9220015Y-12007643D01*
X9220015Y-12007643D02*
X9210491Y-12045738D01*
X9210491Y-12045738D02*
X9210491Y-12121928D01*
X9210491Y-12121928D02*
X9220015Y-12140976D01*
X9220015Y-12140976D02*
X9229538Y-12150500D01*
X9229538Y-12150500D02*
X9248586Y-12160024D01*
X9248586Y-12160024D02*
X9286681Y-12160024D01*
X9286681Y-12160024D02*
X9305729Y-12150500D01*
X9305729Y-12150500D02*
X9315253Y-12140976D01*
X9315253Y-12140976D02*
X9324777Y-12121928D01*
X9324777Y-12121928D02*
X9324777Y-12074309D01*
X9324777Y-12074309D02*
X9315253Y-12055262D01*
X9315253Y-12055262D02*
X9305729Y-12045738D01*
X9305729Y-12045738D02*
X9286681Y-12036214D01*
X9286681Y-12036214D02*
X9248586Y-12036214D01*
X9248586Y-12036214D02*
X9229538Y-12045738D01*
X9229538Y-12045738D02*
X9220015Y-12055262D01*
X9220015Y-12055262D02*
X9210491Y-12074309D01*
X9562872Y-12160024D02*
X9562872Y-11960024D01*
X9648586Y-12160024D02*
X9648586Y-12055262D01*
X9648586Y-12055262D02*
X9639062Y-12036214D01*
X9639062Y-12036214D02*
X9620015Y-12026690D01*
X9620015Y-12026690D02*
X9591443Y-12026690D01*
X9591443Y-12026690D02*
X9572396Y-12036214D01*
X9572396Y-12036214D02*
X9562872Y-12045738D01*
X9772396Y-12160024D02*
X9753348Y-12150500D01*
X9753348Y-12150500D02*
X9743824Y-12140976D01*
X9743824Y-12140976D02*
X9734300Y-12121928D01*
X9734300Y-12121928D02*
X9734300Y-12064786D01*
X9734300Y-12064786D02*
X9743824Y-12045738D01*
X9743824Y-12045738D02*
X9753348Y-12036214D01*
X9753348Y-12036214D02*
X9772396Y-12026690D01*
X9772396Y-12026690D02*
X9800967Y-12026690D01*
X9800967Y-12026690D02*
X9820015Y-12036214D01*
X9820015Y-12036214D02*
X9829539Y-12045738D01*
X9829539Y-12045738D02*
X9839062Y-12064786D01*
X9839062Y-12064786D02*
X9839062Y-12121928D01*
X9839062Y-12121928D02*
X9829539Y-12140976D01*
X9829539Y-12140976D02*
X9820015Y-12150500D01*
X9820015Y-12150500D02*
X9800967Y-12160024D01*
X9800967Y-12160024D02*
X9772396Y-12160024D01*
X9953348Y-12160024D02*
X9934300Y-12150500D01*
X9934300Y-12150500D02*
X9924777Y-12131452D01*
X9924777Y-12131452D02*
X9924777Y-11960024D01*
X10105729Y-12150500D02*
X10086681Y-12160024D01*
X10086681Y-12160024D02*
X10048586Y-12160024D01*
X10048586Y-12160024D02*
X10029539Y-12150500D01*
X10029539Y-12150500D02*
X10020015Y-12131452D01*
X10020015Y-12131452D02*
X10020015Y-12055262D01*
X10020015Y-12055262D02*
X10029539Y-12036214D01*
X10029539Y-12036214D02*
X10048586Y-12026690D01*
X10048586Y-12026690D02*
X10086681Y-12026690D01*
X10086681Y-12026690D02*
X10105729Y-12036214D01*
X10105729Y-12036214D02*
X10115253Y-12055262D01*
X10115253Y-12055262D02*
X10115253Y-12074309D01*
X10115253Y-12074309D02*
X10020015Y-12093357D01*
X10191443Y-12150500D02*
X10210491Y-12160024D01*
X10210491Y-12160024D02*
X10248586Y-12160024D01*
X10248586Y-12160024D02*
X10267634Y-12150500D01*
X10267634Y-12150500D02*
X10277158Y-12131452D01*
X10277158Y-12131452D02*
X10277158Y-12121928D01*
X10277158Y-12121928D02*
X10267634Y-12102881D01*
X10267634Y-12102881D02*
X10248586Y-12093357D01*
X10248586Y-12093357D02*
X10220015Y-12093357D01*
X10220015Y-12093357D02*
X10200967Y-12083833D01*
X10200967Y-12083833D02*
X10191443Y-12064786D01*
X10191443Y-12064786D02*
X10191443Y-12055262D01*
X10191443Y-12055262D02*
X10200967Y-12036214D01*
X10200967Y-12036214D02*
X10220015Y-12026690D01*
X10220015Y-12026690D02*
X10248586Y-12026690D01*
X10248586Y-12026690D02*
X10267634Y-12036214D01*
X10343824Y-12236214D02*
X10353348Y-12226690D01*
X10353348Y-12226690D02*
X10372396Y-12198119D01*
X10372396Y-12198119D02*
X10381920Y-12179071D01*
X10381920Y-12179071D02*
X10391443Y-12150500D01*
X10391443Y-12150500D02*
X10400967Y-12102881D01*
X10400967Y-12102881D02*
X10400967Y-12064786D01*
X10400967Y-12064786D02*
X10391443Y-12017167D01*
X10391443Y-12017167D02*
X10381920Y-11988595D01*
X10381920Y-11988595D02*
X10372396Y-11969548D01*
X10372396Y-11969548D02*
X10353348Y-11940976D01*
X10353348Y-11940976D02*
X10343824Y-11931452D01*
X10705729Y-12236214D02*
X10696205Y-12226690D01*
X10696205Y-12226690D02*
X10677158Y-12198119D01*
X10677158Y-12198119D02*
X10667634Y-12179071D01*
X10667634Y-12179071D02*
X10658110Y-12150500D01*
X10658110Y-12150500D02*
X10648586Y-12102881D01*
X10648586Y-12102881D02*
X10648586Y-12064786D01*
X10648586Y-12064786D02*
X10658110Y-12017167D01*
X10658110Y-12017167D02*
X10667634Y-11988595D01*
X10667634Y-11988595D02*
X10677158Y-11969548D01*
X10677158Y-11969548D02*
X10696205Y-11940976D01*
X10696205Y-11940976D02*
X10705729Y-11931452D01*
X10781920Y-12026690D02*
X10781920Y-12160024D01*
X10781920Y-12045738D02*
X10791443Y-12036214D01*
X10791443Y-12036214D02*
X10810491Y-12026690D01*
X10810491Y-12026690D02*
X10839062Y-12026690D01*
X10839062Y-12026690D02*
X10858110Y-12036214D01*
X10858110Y-12036214D02*
X10867634Y-12055262D01*
X10867634Y-12055262D02*
X10867634Y-12160024D01*
X10991443Y-12160024D02*
X10972396Y-12150500D01*
X10972396Y-12150500D02*
X10962872Y-12140976D01*
X10962872Y-12140976D02*
X10953348Y-12121928D01*
X10953348Y-12121928D02*
X10953348Y-12064786D01*
X10953348Y-12064786D02*
X10962872Y-12045738D01*
X10962872Y-12045738D02*
X10972396Y-12036214D01*
X10972396Y-12036214D02*
X10991443Y-12026690D01*
X10991443Y-12026690D02*
X11020015Y-12026690D01*
X11020015Y-12026690D02*
X11039062Y-12036214D01*
X11039062Y-12036214D02*
X11048586Y-12045738D01*
X11048586Y-12045738D02*
X11058110Y-12064786D01*
X11058110Y-12064786D02*
X11058110Y-12121928D01*
X11058110Y-12121928D02*
X11048586Y-12140976D01*
X11048586Y-12140976D02*
X11039062Y-12150500D01*
X11039062Y-12150500D02*
X11020015Y-12160024D01*
X11020015Y-12160024D02*
X10991443Y-12160024D01*
X11115253Y-12026690D02*
X11191443Y-12026690D01*
X11143824Y-11960024D02*
X11143824Y-12131452D01*
X11143824Y-12131452D02*
X11153348Y-12150500D01*
X11153348Y-12150500D02*
X11172396Y-12160024D01*
X11172396Y-12160024D02*
X11191443Y-12160024D01*
X11410491Y-12026690D02*
X11410491Y-12226690D01*
X11410491Y-12036214D02*
X11429539Y-12026690D01*
X11429539Y-12026690D02*
X11467634Y-12026690D01*
X11467634Y-12026690D02*
X11486681Y-12036214D01*
X11486681Y-12036214D02*
X11496205Y-12045738D01*
X11496205Y-12045738D02*
X11505729Y-12064786D01*
X11505729Y-12064786D02*
X11505729Y-12121928D01*
X11505729Y-12121928D02*
X11496205Y-12140976D01*
X11496205Y-12140976D02*
X11486681Y-12150500D01*
X11486681Y-12150500D02*
X11467634Y-12160024D01*
X11467634Y-12160024D02*
X11429539Y-12160024D01*
X11429539Y-12160024D02*
X11410491Y-12150500D01*
X11620015Y-12160024D02*
X11600967Y-12150500D01*
X11600967Y-12150500D02*
X11591443Y-12131452D01*
X11591443Y-12131452D02*
X11591443Y-11960024D01*
X11781920Y-12160024D02*
X11781920Y-12055262D01*
X11781920Y-12055262D02*
X11772396Y-12036214D01*
X11772396Y-12036214D02*
X11753348Y-12026690D01*
X11753348Y-12026690D02*
X11715253Y-12026690D01*
X11715253Y-12026690D02*
X11696205Y-12036214D01*
X11781920Y-12150500D02*
X11762872Y-12160024D01*
X11762872Y-12160024D02*
X11715253Y-12160024D01*
X11715253Y-12160024D02*
X11696205Y-12150500D01*
X11696205Y-12150500D02*
X11686681Y-12131452D01*
X11686681Y-12131452D02*
X11686681Y-12112405D01*
X11686681Y-12112405D02*
X11696205Y-12093357D01*
X11696205Y-12093357D02*
X11715253Y-12083833D01*
X11715253Y-12083833D02*
X11762872Y-12083833D01*
X11762872Y-12083833D02*
X11781920Y-12074309D01*
X11848586Y-12026690D02*
X11924777Y-12026690D01*
X11877158Y-11960024D02*
X11877158Y-12131452D01*
X11877158Y-12131452D02*
X11886681Y-12150500D01*
X11886681Y-12150500D02*
X11905729Y-12160024D01*
X11905729Y-12160024D02*
X11924777Y-12160024D01*
X12067634Y-12150500D02*
X12048586Y-12160024D01*
X12048586Y-12160024D02*
X12010491Y-12160024D01*
X12010491Y-12160024D02*
X11991443Y-12150500D01*
X11991443Y-12150500D02*
X11981920Y-12131452D01*
X11981920Y-12131452D02*
X11981920Y-12055262D01*
X11981920Y-12055262D02*
X11991443Y-12036214D01*
X11991443Y-12036214D02*
X12010491Y-12026690D01*
X12010491Y-12026690D02*
X12048586Y-12026690D01*
X12048586Y-12026690D02*
X12067634Y-12036214D01*
X12067634Y-12036214D02*
X12077158Y-12055262D01*
X12077158Y-12055262D02*
X12077158Y-12074309D01*
X12077158Y-12074309D02*
X11981920Y-12093357D01*
X12248586Y-12160024D02*
X12248586Y-11960024D01*
X12248586Y-12150500D02*
X12229539Y-12160024D01*
X12229539Y-12160024D02*
X12191443Y-12160024D01*
X12191443Y-12160024D02*
X12172396Y-12150500D01*
X12172396Y-12150500D02*
X12162872Y-12140976D01*
X12162872Y-12140976D02*
X12153348Y-12121928D01*
X12153348Y-12121928D02*
X12153348Y-12064786D01*
X12153348Y-12064786D02*
X12162872Y-12045738D01*
X12162872Y-12045738D02*
X12172396Y-12036214D01*
X12172396Y-12036214D02*
X12191443Y-12026690D01*
X12191443Y-12026690D02*
X12229539Y-12026690D01*
X12229539Y-12026690D02*
X12248586Y-12036214D01*
X12324777Y-12236214D02*
X12334301Y-12226690D01*
X12334301Y-12226690D02*
X12353348Y-12198119D01*
X12353348Y-12198119D02*
X12362872Y-12179071D01*
X12362872Y-12179071D02*
X12372396Y-12150500D01*
X12372396Y-12150500D02*
X12381920Y-12102881D01*
X12381920Y-12102881D02*
X12381920Y-12064786D01*
X12381920Y-12064786D02*
X12372396Y-12017167D01*
X12372396Y-12017167D02*
X12362872Y-11988595D01*
X12362872Y-11988595D02*
X12353348Y-11969548D01*
X12353348Y-11969548D02*
X12334301Y-11940976D01*
X12334301Y-11940976D02*
X12324777Y-11931452D01*
X5291443Y-12287500D02*
X5291443Y-12487500D01*
X5191443Y-12387500D02*
X5391443Y-12387500D01*
X5620014Y-12280024D02*
X5743824Y-12280024D01*
X5743824Y-12280024D02*
X5677157Y-12356214D01*
X5677157Y-12356214D02*
X5705729Y-12356214D01*
X5705729Y-12356214D02*
X5724776Y-12365738D01*
X5724776Y-12365738D02*
X5734300Y-12375262D01*
X5734300Y-12375262D02*
X5743824Y-12394309D01*
X5743824Y-12394309D02*
X5743824Y-12441928D01*
X5743824Y-12441928D02*
X5734300Y-12460976D01*
X5734300Y-12460976D02*
X5724776Y-12470500D01*
X5724776Y-12470500D02*
X5705729Y-12480024D01*
X5705729Y-12480024D02*
X5648586Y-12480024D01*
X5648586Y-12480024D02*
X5629538Y-12470500D01*
X5629538Y-12470500D02*
X5620014Y-12460976D01*
X5829538Y-12460976D02*
X5839062Y-12470500D01*
X5839062Y-12470500D02*
X5829538Y-12480024D01*
X5829538Y-12480024D02*
X5820014Y-12470500D01*
X5820014Y-12470500D02*
X5829538Y-12460976D01*
X5829538Y-12460976D02*
X5829538Y-12480024D01*
X5915252Y-12299071D02*
X5924776Y-12289548D01*
X5924776Y-12289548D02*
X5943824Y-12280024D01*
X5943824Y-12280024D02*
X5991443Y-12280024D01*
X5991443Y-12280024D02*
X6010490Y-12289548D01*
X6010490Y-12289548D02*
X6020014Y-12299071D01*
X6020014Y-12299071D02*
X6029538Y-12318119D01*
X6029538Y-12318119D02*
X6029538Y-12337167D01*
X6029538Y-12337167D02*
X6020014Y-12365738D01*
X6020014Y-12365738D02*
X5905729Y-12480024D01*
X5905729Y-12480024D02*
X6029538Y-12480024D01*
X6153348Y-12280024D02*
X6172395Y-12280024D01*
X6172395Y-12280024D02*
X6191443Y-12289548D01*
X6191443Y-12289548D02*
X6200967Y-12299071D01*
X6200967Y-12299071D02*
X6210490Y-12318119D01*
X6210490Y-12318119D02*
X6220014Y-12356214D01*
X6220014Y-12356214D02*
X6220014Y-12403833D01*
X6220014Y-12403833D02*
X6210490Y-12441928D01*
X6210490Y-12441928D02*
X6200967Y-12460976D01*
X6200967Y-12460976D02*
X6191443Y-12470500D01*
X6191443Y-12470500D02*
X6172395Y-12480024D01*
X6172395Y-12480024D02*
X6153348Y-12480024D01*
X6153348Y-12480024D02*
X6134300Y-12470500D01*
X6134300Y-12470500D02*
X6124776Y-12460976D01*
X6124776Y-12460976D02*
X6115252Y-12441928D01*
X6115252Y-12441928D02*
X6105729Y-12403833D01*
X6105729Y-12403833D02*
X6105729Y-12356214D01*
X6105729Y-12356214D02*
X6115252Y-12318119D01*
X6115252Y-12318119D02*
X6124776Y-12299071D01*
X6124776Y-12299071D02*
X6134300Y-12289548D01*
X6134300Y-12289548D02*
X6153348Y-12280024D01*
X6343824Y-12280024D02*
X6362871Y-12280024D01*
X6362871Y-12280024D02*
X6381919Y-12289548D01*
X6381919Y-12289548D02*
X6391443Y-12299071D01*
X6391443Y-12299071D02*
X6400967Y-12318119D01*
X6400967Y-12318119D02*
X6410490Y-12356214D01*
X6410490Y-12356214D02*
X6410490Y-12403833D01*
X6410490Y-12403833D02*
X6400967Y-12441928D01*
X6400967Y-12441928D02*
X6391443Y-12460976D01*
X6391443Y-12460976D02*
X6381919Y-12470500D01*
X6381919Y-12470500D02*
X6362871Y-12480024D01*
X6362871Y-12480024D02*
X6343824Y-12480024D01*
X6343824Y-12480024D02*
X6324776Y-12470500D01*
X6324776Y-12470500D02*
X6315252Y-12460976D01*
X6315252Y-12460976D02*
X6305729Y-12441928D01*
X6305729Y-12441928D02*
X6296205Y-12403833D01*
X6296205Y-12403833D02*
X6296205Y-12356214D01*
X6296205Y-12356214D02*
X6305729Y-12318119D01*
X6305729Y-12318119D02*
X6315252Y-12299071D01*
X6315252Y-12299071D02*
X6324776Y-12289548D01*
X6324776Y-12289548D02*
X6343824Y-12280024D01*
X6496205Y-12480024D02*
X6496205Y-12346690D01*
X6496205Y-12365738D02*
X6505729Y-12356214D01*
X6505729Y-12356214D02*
X6524776Y-12346690D01*
X6524776Y-12346690D02*
X6553348Y-12346690D01*
X6553348Y-12346690D02*
X6572395Y-12356214D01*
X6572395Y-12356214D02*
X6581919Y-12375262D01*
X6581919Y-12375262D02*
X6581919Y-12480024D01*
X6581919Y-12375262D02*
X6591443Y-12356214D01*
X6591443Y-12356214D02*
X6610490Y-12346690D01*
X6610490Y-12346690D02*
X6639062Y-12346690D01*
X6639062Y-12346690D02*
X6658110Y-12356214D01*
X6658110Y-12356214D02*
X6667633Y-12375262D01*
X6667633Y-12375262D02*
X6667633Y-12480024D01*
X6762871Y-12480024D02*
X6762871Y-12346690D01*
X6762871Y-12365738D02*
X6772395Y-12356214D01*
X6772395Y-12356214D02*
X6791443Y-12346690D01*
X6791443Y-12346690D02*
X6820014Y-12346690D01*
X6820014Y-12346690D02*
X6839062Y-12356214D01*
X6839062Y-12356214D02*
X6848586Y-12375262D01*
X6848586Y-12375262D02*
X6848586Y-12480024D01*
X6848586Y-12375262D02*
X6858110Y-12356214D01*
X6858110Y-12356214D02*
X6877157Y-12346690D01*
X6877157Y-12346690D02*
X6905729Y-12346690D01*
X6905729Y-12346690D02*
X6924776Y-12356214D01*
X6924776Y-12356214D02*
X6934300Y-12375262D01*
X6934300Y-12375262D02*
X6934300Y-12480024D01*
X7324776Y-12270500D02*
X7153348Y-12527643D01*
X7581919Y-12280024D02*
X7600967Y-12280024D01*
X7600967Y-12280024D02*
X7620014Y-12289548D01*
X7620014Y-12289548D02*
X7629538Y-12299071D01*
X7629538Y-12299071D02*
X7639062Y-12318119D01*
X7639062Y-12318119D02*
X7648586Y-12356214D01*
X7648586Y-12356214D02*
X7648586Y-12403833D01*
X7648586Y-12403833D02*
X7639062Y-12441928D01*
X7639062Y-12441928D02*
X7629538Y-12460976D01*
X7629538Y-12460976D02*
X7620014Y-12470500D01*
X7620014Y-12470500D02*
X7600967Y-12480024D01*
X7600967Y-12480024D02*
X7581919Y-12480024D01*
X7581919Y-12480024D02*
X7562872Y-12470500D01*
X7562872Y-12470500D02*
X7553348Y-12460976D01*
X7553348Y-12460976D02*
X7543824Y-12441928D01*
X7543824Y-12441928D02*
X7534300Y-12403833D01*
X7534300Y-12403833D02*
X7534300Y-12356214D01*
X7534300Y-12356214D02*
X7543824Y-12318119D01*
X7543824Y-12318119D02*
X7553348Y-12299071D01*
X7553348Y-12299071D02*
X7562872Y-12289548D01*
X7562872Y-12289548D02*
X7581919Y-12280024D01*
X7734300Y-12460976D02*
X7743824Y-12470500D01*
X7743824Y-12470500D02*
X7734300Y-12480024D01*
X7734300Y-12480024D02*
X7724776Y-12470500D01*
X7724776Y-12470500D02*
X7734300Y-12460976D01*
X7734300Y-12460976D02*
X7734300Y-12480024D01*
X7934300Y-12480024D02*
X7820014Y-12480024D01*
X7877157Y-12480024D02*
X7877157Y-12280024D01*
X7877157Y-12280024D02*
X7858110Y-12308595D01*
X7858110Y-12308595D02*
X7839062Y-12327643D01*
X7839062Y-12327643D02*
X7820014Y-12337167D01*
X8010491Y-12299071D02*
X8020014Y-12289548D01*
X8020014Y-12289548D02*
X8039062Y-12280024D01*
X8039062Y-12280024D02*
X8086681Y-12280024D01*
X8086681Y-12280024D02*
X8105729Y-12289548D01*
X8105729Y-12289548D02*
X8115253Y-12299071D01*
X8115253Y-12299071D02*
X8124776Y-12318119D01*
X8124776Y-12318119D02*
X8124776Y-12337167D01*
X8124776Y-12337167D02*
X8115253Y-12365738D01*
X8115253Y-12365738D02*
X8000967Y-12480024D01*
X8000967Y-12480024D02*
X8124776Y-12480024D01*
X8296205Y-12280024D02*
X8258110Y-12280024D01*
X8258110Y-12280024D02*
X8239062Y-12289548D01*
X8239062Y-12289548D02*
X8229538Y-12299071D01*
X8229538Y-12299071D02*
X8210491Y-12327643D01*
X8210491Y-12327643D02*
X8200967Y-12365738D01*
X8200967Y-12365738D02*
X8200967Y-12441928D01*
X8200967Y-12441928D02*
X8210491Y-12460976D01*
X8210491Y-12460976D02*
X8220014Y-12470500D01*
X8220014Y-12470500D02*
X8239062Y-12480024D01*
X8239062Y-12480024D02*
X8277157Y-12480024D01*
X8277157Y-12480024D02*
X8296205Y-12470500D01*
X8296205Y-12470500D02*
X8305729Y-12460976D01*
X8305729Y-12460976D02*
X8315253Y-12441928D01*
X8315253Y-12441928D02*
X8315253Y-12394309D01*
X8315253Y-12394309D02*
X8305729Y-12375262D01*
X8305729Y-12375262D02*
X8296205Y-12365738D01*
X8296205Y-12365738D02*
X8277157Y-12356214D01*
X8277157Y-12356214D02*
X8239062Y-12356214D01*
X8239062Y-12356214D02*
X8220014Y-12365738D01*
X8220014Y-12365738D02*
X8210491Y-12375262D01*
X8210491Y-12375262D02*
X8200967Y-12394309D01*
X8439062Y-12280024D02*
X8458110Y-12280024D01*
X8458110Y-12280024D02*
X8477157Y-12289548D01*
X8477157Y-12289548D02*
X8486681Y-12299071D01*
X8486681Y-12299071D02*
X8496205Y-12318119D01*
X8496205Y-12318119D02*
X8505729Y-12356214D01*
X8505729Y-12356214D02*
X8505729Y-12403833D01*
X8505729Y-12403833D02*
X8496205Y-12441928D01*
X8496205Y-12441928D02*
X8486681Y-12460976D01*
X8486681Y-12460976D02*
X8477157Y-12470500D01*
X8477157Y-12470500D02*
X8458110Y-12480024D01*
X8458110Y-12480024D02*
X8439062Y-12480024D01*
X8439062Y-12480024D02*
X8420015Y-12470500D01*
X8420015Y-12470500D02*
X8410491Y-12460976D01*
X8410491Y-12460976D02*
X8400967Y-12441928D01*
X8400967Y-12441928D02*
X8391443Y-12403833D01*
X8391443Y-12403833D02*
X8391443Y-12356214D01*
X8391443Y-12356214D02*
X8400967Y-12318119D01*
X8400967Y-12318119D02*
X8410491Y-12299071D01*
X8410491Y-12299071D02*
X8420015Y-12289548D01*
X8420015Y-12289548D02*
X8439062Y-12280024D01*
X8581919Y-12280024D02*
X8581919Y-12318119D01*
X8658110Y-12280024D02*
X8658110Y-12318119D01*
X8953348Y-12556214D02*
X8943824Y-12546690D01*
X8943824Y-12546690D02*
X8924777Y-12518119D01*
X8924777Y-12518119D02*
X8915253Y-12499071D01*
X8915253Y-12499071D02*
X8905729Y-12470500D01*
X8905729Y-12470500D02*
X8896205Y-12422881D01*
X8896205Y-12422881D02*
X8896205Y-12384786D01*
X8896205Y-12384786D02*
X8905729Y-12337167D01*
X8905729Y-12337167D02*
X8915253Y-12308595D01*
X8915253Y-12308595D02*
X8924777Y-12289548D01*
X8924777Y-12289548D02*
X8943824Y-12260976D01*
X8943824Y-12260976D02*
X8953348Y-12251452D01*
X9134300Y-12480024D02*
X9020015Y-12480024D01*
X9077157Y-12480024D02*
X9077157Y-12280024D01*
X9077157Y-12280024D02*
X9058110Y-12308595D01*
X9058110Y-12308595D02*
X9039062Y-12327643D01*
X9039062Y-12327643D02*
X9020015Y-12337167D01*
X9372396Y-12480024D02*
X9372396Y-12280024D01*
X9458110Y-12480024D02*
X9458110Y-12375262D01*
X9458110Y-12375262D02*
X9448586Y-12356214D01*
X9448586Y-12356214D02*
X9429539Y-12346690D01*
X9429539Y-12346690D02*
X9400967Y-12346690D01*
X9400967Y-12346690D02*
X9381919Y-12356214D01*
X9381919Y-12356214D02*
X9372396Y-12365738D01*
X9581919Y-12480024D02*
X9562872Y-12470500D01*
X9562872Y-12470500D02*
X9553348Y-12460976D01*
X9553348Y-12460976D02*
X9543824Y-12441928D01*
X9543824Y-12441928D02*
X9543824Y-12384786D01*
X9543824Y-12384786D02*
X9553348Y-12365738D01*
X9553348Y-12365738D02*
X9562872Y-12356214D01*
X9562872Y-12356214D02*
X9581919Y-12346690D01*
X9581919Y-12346690D02*
X9610491Y-12346690D01*
X9610491Y-12346690D02*
X9629539Y-12356214D01*
X9629539Y-12356214D02*
X9639062Y-12365738D01*
X9639062Y-12365738D02*
X9648586Y-12384786D01*
X9648586Y-12384786D02*
X9648586Y-12441928D01*
X9648586Y-12441928D02*
X9639062Y-12460976D01*
X9639062Y-12460976D02*
X9629539Y-12470500D01*
X9629539Y-12470500D02*
X9610491Y-12480024D01*
X9610491Y-12480024D02*
X9581919Y-12480024D01*
X9762872Y-12480024D02*
X9743824Y-12470500D01*
X9743824Y-12470500D02*
X9734300Y-12451452D01*
X9734300Y-12451452D02*
X9734300Y-12280024D01*
X9915253Y-12470500D02*
X9896205Y-12480024D01*
X9896205Y-12480024D02*
X9858110Y-12480024D01*
X9858110Y-12480024D02*
X9839062Y-12470500D01*
X9839062Y-12470500D02*
X9829539Y-12451452D01*
X9829539Y-12451452D02*
X9829539Y-12375262D01*
X9829539Y-12375262D02*
X9839062Y-12356214D01*
X9839062Y-12356214D02*
X9858110Y-12346690D01*
X9858110Y-12346690D02*
X9896205Y-12346690D01*
X9896205Y-12346690D02*
X9915253Y-12356214D01*
X9915253Y-12356214D02*
X9924777Y-12375262D01*
X9924777Y-12375262D02*
X9924777Y-12394309D01*
X9924777Y-12394309D02*
X9829539Y-12413357D01*
X9991443Y-12556214D02*
X10000967Y-12546690D01*
X10000967Y-12546690D02*
X10020015Y-12518119D01*
X10020015Y-12518119D02*
X10029539Y-12499071D01*
X10029539Y-12499071D02*
X10039062Y-12470500D01*
X10039062Y-12470500D02*
X10048586Y-12422881D01*
X10048586Y-12422881D02*
X10048586Y-12384786D01*
X10048586Y-12384786D02*
X10039062Y-12337167D01*
X10039062Y-12337167D02*
X10029539Y-12308595D01*
X10029539Y-12308595D02*
X10020015Y-12289548D01*
X10020015Y-12289548D02*
X10000967Y-12260976D01*
X10000967Y-12260976D02*
X9991443Y-12251452D01*
X10353348Y-12556214D02*
X10343824Y-12546690D01*
X10343824Y-12546690D02*
X10324777Y-12518119D01*
X10324777Y-12518119D02*
X10315253Y-12499071D01*
X10315253Y-12499071D02*
X10305729Y-12470500D01*
X10305729Y-12470500D02*
X10296205Y-12422881D01*
X10296205Y-12422881D02*
X10296205Y-12384786D01*
X10296205Y-12384786D02*
X10305729Y-12337167D01*
X10305729Y-12337167D02*
X10315253Y-12308595D01*
X10315253Y-12308595D02*
X10324777Y-12289548D01*
X10324777Y-12289548D02*
X10343824Y-12260976D01*
X10343824Y-12260976D02*
X10353348Y-12251452D01*
X10429539Y-12346690D02*
X10429539Y-12480024D01*
X10429539Y-12365738D02*
X10439062Y-12356214D01*
X10439062Y-12356214D02*
X10458110Y-12346690D01*
X10458110Y-12346690D02*
X10486681Y-12346690D01*
X10486681Y-12346690D02*
X10505729Y-12356214D01*
X10505729Y-12356214D02*
X10515253Y-12375262D01*
X10515253Y-12375262D02*
X10515253Y-12480024D01*
X10639062Y-12480024D02*
X10620015Y-12470500D01*
X10620015Y-12470500D02*
X10610491Y-12460976D01*
X10610491Y-12460976D02*
X10600967Y-12441928D01*
X10600967Y-12441928D02*
X10600967Y-12384786D01*
X10600967Y-12384786D02*
X10610491Y-12365738D01*
X10610491Y-12365738D02*
X10620015Y-12356214D01*
X10620015Y-12356214D02*
X10639062Y-12346690D01*
X10639062Y-12346690D02*
X10667634Y-12346690D01*
X10667634Y-12346690D02*
X10686681Y-12356214D01*
X10686681Y-12356214D02*
X10696205Y-12365738D01*
X10696205Y-12365738D02*
X10705729Y-12384786D01*
X10705729Y-12384786D02*
X10705729Y-12441928D01*
X10705729Y-12441928D02*
X10696205Y-12460976D01*
X10696205Y-12460976D02*
X10686681Y-12470500D01*
X10686681Y-12470500D02*
X10667634Y-12480024D01*
X10667634Y-12480024D02*
X10639062Y-12480024D01*
X10762872Y-12346690D02*
X10839062Y-12346690D01*
X10791443Y-12280024D02*
X10791443Y-12451452D01*
X10791443Y-12451452D02*
X10800967Y-12470500D01*
X10800967Y-12470500D02*
X10820015Y-12480024D01*
X10820015Y-12480024D02*
X10839062Y-12480024D01*
X11058110Y-12346690D02*
X11058110Y-12546690D01*
X11058110Y-12356214D02*
X11077158Y-12346690D01*
X11077158Y-12346690D02*
X11115253Y-12346690D01*
X11115253Y-12346690D02*
X11134301Y-12356214D01*
X11134301Y-12356214D02*
X11143824Y-12365738D01*
X11143824Y-12365738D02*
X11153348Y-12384786D01*
X11153348Y-12384786D02*
X11153348Y-12441928D01*
X11153348Y-12441928D02*
X11143824Y-12460976D01*
X11143824Y-12460976D02*
X11134301Y-12470500D01*
X11134301Y-12470500D02*
X11115253Y-12480024D01*
X11115253Y-12480024D02*
X11077158Y-12480024D01*
X11077158Y-12480024D02*
X11058110Y-12470500D01*
X11267634Y-12480024D02*
X11248586Y-12470500D01*
X11248586Y-12470500D02*
X11239062Y-12451452D01*
X11239062Y-12451452D02*
X11239062Y-12280024D01*
X11429539Y-12480024D02*
X11429539Y-12375262D01*
X11429539Y-12375262D02*
X11420015Y-12356214D01*
X11420015Y-12356214D02*
X11400967Y-12346690D01*
X11400967Y-12346690D02*
X11362872Y-12346690D01*
X11362872Y-12346690D02*
X11343824Y-12356214D01*
X11429539Y-12470500D02*
X11410491Y-12480024D01*
X11410491Y-12480024D02*
X11362872Y-12480024D01*
X11362872Y-12480024D02*
X11343824Y-12470500D01*
X11343824Y-12470500D02*
X11334300Y-12451452D01*
X11334300Y-12451452D02*
X11334300Y-12432405D01*
X11334300Y-12432405D02*
X11343824Y-12413357D01*
X11343824Y-12413357D02*
X11362872Y-12403833D01*
X11362872Y-12403833D02*
X11410491Y-12403833D01*
X11410491Y-12403833D02*
X11429539Y-12394309D01*
X11496205Y-12346690D02*
X11572396Y-12346690D01*
X11524777Y-12280024D02*
X11524777Y-12451452D01*
X11524777Y-12451452D02*
X11534300Y-12470500D01*
X11534300Y-12470500D02*
X11553348Y-12480024D01*
X11553348Y-12480024D02*
X11572396Y-12480024D01*
X11715253Y-12470500D02*
X11696205Y-12480024D01*
X11696205Y-12480024D02*
X11658110Y-12480024D01*
X11658110Y-12480024D02*
X11639062Y-12470500D01*
X11639062Y-12470500D02*
X11629539Y-12451452D01*
X11629539Y-12451452D02*
X11629539Y-12375262D01*
X11629539Y-12375262D02*
X11639062Y-12356214D01*
X11639062Y-12356214D02*
X11658110Y-12346690D01*
X11658110Y-12346690D02*
X11696205Y-12346690D01*
X11696205Y-12346690D02*
X11715253Y-12356214D01*
X11715253Y-12356214D02*
X11724777Y-12375262D01*
X11724777Y-12375262D02*
X11724777Y-12394309D01*
X11724777Y-12394309D02*
X11629539Y-12413357D01*
X11896205Y-12480024D02*
X11896205Y-12280024D01*
X11896205Y-12470500D02*
X11877158Y-12480024D01*
X11877158Y-12480024D02*
X11839062Y-12480024D01*
X11839062Y-12480024D02*
X11820015Y-12470500D01*
X11820015Y-12470500D02*
X11810491Y-12460976D01*
X11810491Y-12460976D02*
X11800967Y-12441928D01*
X11800967Y-12441928D02*
X11800967Y-12384786D01*
X11800967Y-12384786D02*
X11810491Y-12365738D01*
X11810491Y-12365738D02*
X11820015Y-12356214D01*
X11820015Y-12356214D02*
X11839062Y-12346690D01*
X11839062Y-12346690D02*
X11877158Y-12346690D01*
X11877158Y-12346690D02*
X11896205Y-12356214D01*
X11972396Y-12556214D02*
X11981920Y-12546690D01*
X11981920Y-12546690D02*
X12000967Y-12518119D01*
X12000967Y-12518119D02*
X12010491Y-12499071D01*
X12010491Y-12499071D02*
X12020015Y-12470500D01*
X12020015Y-12470500D02*
X12029539Y-12422881D01*
X12029539Y-12422881D02*
X12029539Y-12384786D01*
X12029539Y-12384786D02*
X12020015Y-12337167D01*
X12020015Y-12337167D02*
X12010491Y-12308595D01*
X12010491Y-12308595D02*
X12000967Y-12289548D01*
X12000967Y-12289548D02*
X11981920Y-12260976D01*
X11981920Y-12260976D02*
X11972396Y-12251452D01*
X5362154Y-12778211D02*
X5362154Y-12636789D01*
X5220732Y-12636789D01*
X5220732Y-12778211D01*
X5362154Y-12778211D01*
X5724776Y-12666690D02*
X5724776Y-12800024D01*
X5677157Y-12590500D02*
X5629538Y-12733357D01*
X5629538Y-12733357D02*
X5753348Y-12733357D01*
X5829538Y-12780976D02*
X5839062Y-12790500D01*
X5839062Y-12790500D02*
X5829538Y-12800024D01*
X5829538Y-12800024D02*
X5820014Y-12790500D01*
X5820014Y-12790500D02*
X5829538Y-12780976D01*
X5829538Y-12780976D02*
X5829538Y-12800024D01*
X5962871Y-12600024D02*
X5981919Y-12600024D01*
X5981919Y-12600024D02*
X6000967Y-12609548D01*
X6000967Y-12609548D02*
X6010490Y-12619071D01*
X6010490Y-12619071D02*
X6020014Y-12638119D01*
X6020014Y-12638119D02*
X6029538Y-12676214D01*
X6029538Y-12676214D02*
X6029538Y-12723833D01*
X6029538Y-12723833D02*
X6020014Y-12761928D01*
X6020014Y-12761928D02*
X6010490Y-12780976D01*
X6010490Y-12780976D02*
X6000967Y-12790500D01*
X6000967Y-12790500D02*
X5981919Y-12800024D01*
X5981919Y-12800024D02*
X5962871Y-12800024D01*
X5962871Y-12800024D02*
X5943824Y-12790500D01*
X5943824Y-12790500D02*
X5934300Y-12780976D01*
X5934300Y-12780976D02*
X5924776Y-12761928D01*
X5924776Y-12761928D02*
X5915252Y-12723833D01*
X5915252Y-12723833D02*
X5915252Y-12676214D01*
X5915252Y-12676214D02*
X5924776Y-12638119D01*
X5924776Y-12638119D02*
X5934300Y-12619071D01*
X5934300Y-12619071D02*
X5943824Y-12609548D01*
X5943824Y-12609548D02*
X5962871Y-12600024D01*
X6153348Y-12600024D02*
X6172395Y-12600024D01*
X6172395Y-12600024D02*
X6191443Y-12609548D01*
X6191443Y-12609548D02*
X6200967Y-12619071D01*
X6200967Y-12619071D02*
X6210490Y-12638119D01*
X6210490Y-12638119D02*
X6220014Y-12676214D01*
X6220014Y-12676214D02*
X6220014Y-12723833D01*
X6220014Y-12723833D02*
X6210490Y-12761928D01*
X6210490Y-12761928D02*
X6200967Y-12780976D01*
X6200967Y-12780976D02*
X6191443Y-12790500D01*
X6191443Y-12790500D02*
X6172395Y-12800024D01*
X6172395Y-12800024D02*
X6153348Y-12800024D01*
X6153348Y-12800024D02*
X6134300Y-12790500D01*
X6134300Y-12790500D02*
X6124776Y-12780976D01*
X6124776Y-12780976D02*
X6115252Y-12761928D01*
X6115252Y-12761928D02*
X6105729Y-12723833D01*
X6105729Y-12723833D02*
X6105729Y-12676214D01*
X6105729Y-12676214D02*
X6115252Y-12638119D01*
X6115252Y-12638119D02*
X6124776Y-12619071D01*
X6124776Y-12619071D02*
X6134300Y-12609548D01*
X6134300Y-12609548D02*
X6153348Y-12600024D01*
X6343824Y-12600024D02*
X6362871Y-12600024D01*
X6362871Y-12600024D02*
X6381919Y-12609548D01*
X6381919Y-12609548D02*
X6391443Y-12619071D01*
X6391443Y-12619071D02*
X6400967Y-12638119D01*
X6400967Y-12638119D02*
X6410490Y-12676214D01*
X6410490Y-12676214D02*
X6410490Y-12723833D01*
X6410490Y-12723833D02*
X6400967Y-12761928D01*
X6400967Y-12761928D02*
X6391443Y-12780976D01*
X6391443Y-12780976D02*
X6381919Y-12790500D01*
X6381919Y-12790500D02*
X6362871Y-12800024D01*
X6362871Y-12800024D02*
X6343824Y-12800024D01*
X6343824Y-12800024D02*
X6324776Y-12790500D01*
X6324776Y-12790500D02*
X6315252Y-12780976D01*
X6315252Y-12780976D02*
X6305729Y-12761928D01*
X6305729Y-12761928D02*
X6296205Y-12723833D01*
X6296205Y-12723833D02*
X6296205Y-12676214D01*
X6296205Y-12676214D02*
X6305729Y-12638119D01*
X6305729Y-12638119D02*
X6315252Y-12619071D01*
X6315252Y-12619071D02*
X6324776Y-12609548D01*
X6324776Y-12609548D02*
X6343824Y-12600024D01*
X6496205Y-12800024D02*
X6496205Y-12666690D01*
X6496205Y-12685738D02*
X6505729Y-12676214D01*
X6505729Y-12676214D02*
X6524776Y-12666690D01*
X6524776Y-12666690D02*
X6553348Y-12666690D01*
X6553348Y-12666690D02*
X6572395Y-12676214D01*
X6572395Y-12676214D02*
X6581919Y-12695262D01*
X6581919Y-12695262D02*
X6581919Y-12800024D01*
X6581919Y-12695262D02*
X6591443Y-12676214D01*
X6591443Y-12676214D02*
X6610490Y-12666690D01*
X6610490Y-12666690D02*
X6639062Y-12666690D01*
X6639062Y-12666690D02*
X6658110Y-12676214D01*
X6658110Y-12676214D02*
X6667633Y-12695262D01*
X6667633Y-12695262D02*
X6667633Y-12800024D01*
X6762871Y-12800024D02*
X6762871Y-12666690D01*
X6762871Y-12685738D02*
X6772395Y-12676214D01*
X6772395Y-12676214D02*
X6791443Y-12666690D01*
X6791443Y-12666690D02*
X6820014Y-12666690D01*
X6820014Y-12666690D02*
X6839062Y-12676214D01*
X6839062Y-12676214D02*
X6848586Y-12695262D01*
X6848586Y-12695262D02*
X6848586Y-12800024D01*
X6848586Y-12695262D02*
X6858110Y-12676214D01*
X6858110Y-12676214D02*
X6877157Y-12666690D01*
X6877157Y-12666690D02*
X6905729Y-12666690D01*
X6905729Y-12666690D02*
X6924776Y-12676214D01*
X6924776Y-12676214D02*
X6934300Y-12695262D01*
X6934300Y-12695262D02*
X6934300Y-12800024D01*
X7324776Y-12590500D02*
X7153348Y-12847643D01*
X7581919Y-12600024D02*
X7600967Y-12600024D01*
X7600967Y-12600024D02*
X7620014Y-12609548D01*
X7620014Y-12609548D02*
X7629538Y-12619071D01*
X7629538Y-12619071D02*
X7639062Y-12638119D01*
X7639062Y-12638119D02*
X7648586Y-12676214D01*
X7648586Y-12676214D02*
X7648586Y-12723833D01*
X7648586Y-12723833D02*
X7639062Y-12761928D01*
X7639062Y-12761928D02*
X7629538Y-12780976D01*
X7629538Y-12780976D02*
X7620014Y-12790500D01*
X7620014Y-12790500D02*
X7600967Y-12800024D01*
X7600967Y-12800024D02*
X7581919Y-12800024D01*
X7581919Y-12800024D02*
X7562872Y-12790500D01*
X7562872Y-12790500D02*
X7553348Y-12780976D01*
X7553348Y-12780976D02*
X7543824Y-12761928D01*
X7543824Y-12761928D02*
X7534300Y-12723833D01*
X7534300Y-12723833D02*
X7534300Y-12676214D01*
X7534300Y-12676214D02*
X7543824Y-12638119D01*
X7543824Y-12638119D02*
X7553348Y-12619071D01*
X7553348Y-12619071D02*
X7562872Y-12609548D01*
X7562872Y-12609548D02*
X7581919Y-12600024D01*
X7734300Y-12780976D02*
X7743824Y-12790500D01*
X7743824Y-12790500D02*
X7734300Y-12800024D01*
X7734300Y-12800024D02*
X7724776Y-12790500D01*
X7724776Y-12790500D02*
X7734300Y-12780976D01*
X7734300Y-12780976D02*
X7734300Y-12800024D01*
X7934300Y-12800024D02*
X7820014Y-12800024D01*
X7877157Y-12800024D02*
X7877157Y-12600024D01*
X7877157Y-12600024D02*
X7858110Y-12628595D01*
X7858110Y-12628595D02*
X7839062Y-12647643D01*
X7839062Y-12647643D02*
X7820014Y-12657167D01*
X8115253Y-12600024D02*
X8020014Y-12600024D01*
X8020014Y-12600024D02*
X8010491Y-12695262D01*
X8010491Y-12695262D02*
X8020014Y-12685738D01*
X8020014Y-12685738D02*
X8039062Y-12676214D01*
X8039062Y-12676214D02*
X8086681Y-12676214D01*
X8086681Y-12676214D02*
X8105729Y-12685738D01*
X8105729Y-12685738D02*
X8115253Y-12695262D01*
X8115253Y-12695262D02*
X8124776Y-12714309D01*
X8124776Y-12714309D02*
X8124776Y-12761928D01*
X8124776Y-12761928D02*
X8115253Y-12780976D01*
X8115253Y-12780976D02*
X8105729Y-12790500D01*
X8105729Y-12790500D02*
X8086681Y-12800024D01*
X8086681Y-12800024D02*
X8039062Y-12800024D01*
X8039062Y-12800024D02*
X8020014Y-12790500D01*
X8020014Y-12790500D02*
X8010491Y-12780976D01*
X8191443Y-12600024D02*
X8324776Y-12600024D01*
X8324776Y-12600024D02*
X8239062Y-12800024D01*
X8496205Y-12600024D02*
X8400967Y-12600024D01*
X8400967Y-12600024D02*
X8391443Y-12695262D01*
X8391443Y-12695262D02*
X8400967Y-12685738D01*
X8400967Y-12685738D02*
X8420015Y-12676214D01*
X8420015Y-12676214D02*
X8467634Y-12676214D01*
X8467634Y-12676214D02*
X8486681Y-12685738D01*
X8486681Y-12685738D02*
X8496205Y-12695262D01*
X8496205Y-12695262D02*
X8505729Y-12714309D01*
X8505729Y-12714309D02*
X8505729Y-12761928D01*
X8505729Y-12761928D02*
X8496205Y-12780976D01*
X8496205Y-12780976D02*
X8486681Y-12790500D01*
X8486681Y-12790500D02*
X8467634Y-12800024D01*
X8467634Y-12800024D02*
X8420015Y-12800024D01*
X8420015Y-12800024D02*
X8400967Y-12790500D01*
X8400967Y-12790500D02*
X8391443Y-12780976D01*
X8581919Y-12600024D02*
X8581919Y-12638119D01*
X8658110Y-12600024D02*
X8658110Y-12638119D01*
X8953348Y-12876214D02*
X8943824Y-12866690D01*
X8943824Y-12866690D02*
X8924777Y-12838119D01*
X8924777Y-12838119D02*
X8915253Y-12819071D01*
X8915253Y-12819071D02*
X8905729Y-12790500D01*
X8905729Y-12790500D02*
X8896205Y-12742881D01*
X8896205Y-12742881D02*
X8896205Y-12704786D01*
X8896205Y-12704786D02*
X8905729Y-12657167D01*
X8905729Y-12657167D02*
X8915253Y-12628595D01*
X8915253Y-12628595D02*
X8924777Y-12609548D01*
X8924777Y-12609548D02*
X8943824Y-12580976D01*
X8943824Y-12580976D02*
X8953348Y-12571452D01*
X9010491Y-12600024D02*
X9134300Y-12600024D01*
X9134300Y-12600024D02*
X9067634Y-12676214D01*
X9067634Y-12676214D02*
X9096205Y-12676214D01*
X9096205Y-12676214D02*
X9115253Y-12685738D01*
X9115253Y-12685738D02*
X9124777Y-12695262D01*
X9124777Y-12695262D02*
X9134300Y-12714309D01*
X9134300Y-12714309D02*
X9134300Y-12761928D01*
X9134300Y-12761928D02*
X9124777Y-12780976D01*
X9124777Y-12780976D02*
X9115253Y-12790500D01*
X9115253Y-12790500D02*
X9096205Y-12800024D01*
X9096205Y-12800024D02*
X9039062Y-12800024D01*
X9039062Y-12800024D02*
X9020015Y-12790500D01*
X9020015Y-12790500D02*
X9010491Y-12780976D01*
X9200967Y-12600024D02*
X9324777Y-12600024D01*
X9324777Y-12600024D02*
X9258110Y-12676214D01*
X9258110Y-12676214D02*
X9286681Y-12676214D01*
X9286681Y-12676214D02*
X9305729Y-12685738D01*
X9305729Y-12685738D02*
X9315253Y-12695262D01*
X9315253Y-12695262D02*
X9324777Y-12714309D01*
X9324777Y-12714309D02*
X9324777Y-12761928D01*
X9324777Y-12761928D02*
X9315253Y-12780976D01*
X9315253Y-12780976D02*
X9305729Y-12790500D01*
X9305729Y-12790500D02*
X9286681Y-12800024D01*
X9286681Y-12800024D02*
X9229538Y-12800024D01*
X9229538Y-12800024D02*
X9210491Y-12790500D01*
X9210491Y-12790500D02*
X9200967Y-12780976D01*
X9562872Y-12800024D02*
X9562872Y-12600024D01*
X9648586Y-12800024D02*
X9648586Y-12695262D01*
X9648586Y-12695262D02*
X9639062Y-12676214D01*
X9639062Y-12676214D02*
X9620015Y-12666690D01*
X9620015Y-12666690D02*
X9591443Y-12666690D01*
X9591443Y-12666690D02*
X9572396Y-12676214D01*
X9572396Y-12676214D02*
X9562872Y-12685738D01*
X9772396Y-12800024D02*
X9753348Y-12790500D01*
X9753348Y-12790500D02*
X9743824Y-12780976D01*
X9743824Y-12780976D02*
X9734300Y-12761928D01*
X9734300Y-12761928D02*
X9734300Y-12704786D01*
X9734300Y-12704786D02*
X9743824Y-12685738D01*
X9743824Y-12685738D02*
X9753348Y-12676214D01*
X9753348Y-12676214D02*
X9772396Y-12666690D01*
X9772396Y-12666690D02*
X9800967Y-12666690D01*
X9800967Y-12666690D02*
X9820015Y-12676214D01*
X9820015Y-12676214D02*
X9829539Y-12685738D01*
X9829539Y-12685738D02*
X9839062Y-12704786D01*
X9839062Y-12704786D02*
X9839062Y-12761928D01*
X9839062Y-12761928D02*
X9829539Y-12780976D01*
X9829539Y-12780976D02*
X9820015Y-12790500D01*
X9820015Y-12790500D02*
X9800967Y-12800024D01*
X9800967Y-12800024D02*
X9772396Y-12800024D01*
X9953348Y-12800024D02*
X9934300Y-12790500D01*
X9934300Y-12790500D02*
X9924777Y-12771452D01*
X9924777Y-12771452D02*
X9924777Y-12600024D01*
X10105729Y-12790500D02*
X10086681Y-12800024D01*
X10086681Y-12800024D02*
X10048586Y-12800024D01*
X10048586Y-12800024D02*
X10029539Y-12790500D01*
X10029539Y-12790500D02*
X10020015Y-12771452D01*
X10020015Y-12771452D02*
X10020015Y-12695262D01*
X10020015Y-12695262D02*
X10029539Y-12676214D01*
X10029539Y-12676214D02*
X10048586Y-12666690D01*
X10048586Y-12666690D02*
X10086681Y-12666690D01*
X10086681Y-12666690D02*
X10105729Y-12676214D01*
X10105729Y-12676214D02*
X10115253Y-12695262D01*
X10115253Y-12695262D02*
X10115253Y-12714309D01*
X10115253Y-12714309D02*
X10020015Y-12733357D01*
X10191443Y-12790500D02*
X10210491Y-12800024D01*
X10210491Y-12800024D02*
X10248586Y-12800024D01*
X10248586Y-12800024D02*
X10267634Y-12790500D01*
X10267634Y-12790500D02*
X10277158Y-12771452D01*
X10277158Y-12771452D02*
X10277158Y-12761928D01*
X10277158Y-12761928D02*
X10267634Y-12742881D01*
X10267634Y-12742881D02*
X10248586Y-12733357D01*
X10248586Y-12733357D02*
X10220015Y-12733357D01*
X10220015Y-12733357D02*
X10200967Y-12723833D01*
X10200967Y-12723833D02*
X10191443Y-12704786D01*
X10191443Y-12704786D02*
X10191443Y-12695262D01*
X10191443Y-12695262D02*
X10200967Y-12676214D01*
X10200967Y-12676214D02*
X10220015Y-12666690D01*
X10220015Y-12666690D02*
X10248586Y-12666690D01*
X10248586Y-12666690D02*
X10267634Y-12676214D01*
X10343824Y-12876214D02*
X10353348Y-12866690D01*
X10353348Y-12866690D02*
X10372396Y-12838119D01*
X10372396Y-12838119D02*
X10381920Y-12819071D01*
X10381920Y-12819071D02*
X10391443Y-12790500D01*
X10391443Y-12790500D02*
X10400967Y-12742881D01*
X10400967Y-12742881D02*
X10400967Y-12704786D01*
X10400967Y-12704786D02*
X10391443Y-12657167D01*
X10391443Y-12657167D02*
X10381920Y-12628595D01*
X10381920Y-12628595D02*
X10372396Y-12609548D01*
X10372396Y-12609548D02*
X10353348Y-12580976D01*
X10353348Y-12580976D02*
X10343824Y-12571452D01*
X10705729Y-12876214D02*
X10696205Y-12866690D01*
X10696205Y-12866690D02*
X10677158Y-12838119D01*
X10677158Y-12838119D02*
X10667634Y-12819071D01*
X10667634Y-12819071D02*
X10658110Y-12790500D01*
X10658110Y-12790500D02*
X10648586Y-12742881D01*
X10648586Y-12742881D02*
X10648586Y-12704786D01*
X10648586Y-12704786D02*
X10658110Y-12657167D01*
X10658110Y-12657167D02*
X10667634Y-12628595D01*
X10667634Y-12628595D02*
X10677158Y-12609548D01*
X10677158Y-12609548D02*
X10696205Y-12580976D01*
X10696205Y-12580976D02*
X10705729Y-12571452D01*
X10781920Y-12666690D02*
X10781920Y-12800024D01*
X10781920Y-12685738D02*
X10791443Y-12676214D01*
X10791443Y-12676214D02*
X10810491Y-12666690D01*
X10810491Y-12666690D02*
X10839062Y-12666690D01*
X10839062Y-12666690D02*
X10858110Y-12676214D01*
X10858110Y-12676214D02*
X10867634Y-12695262D01*
X10867634Y-12695262D02*
X10867634Y-12800024D01*
X10991443Y-12800024D02*
X10972396Y-12790500D01*
X10972396Y-12790500D02*
X10962872Y-12780976D01*
X10962872Y-12780976D02*
X10953348Y-12761928D01*
X10953348Y-12761928D02*
X10953348Y-12704786D01*
X10953348Y-12704786D02*
X10962872Y-12685738D01*
X10962872Y-12685738D02*
X10972396Y-12676214D01*
X10972396Y-12676214D02*
X10991443Y-12666690D01*
X10991443Y-12666690D02*
X11020015Y-12666690D01*
X11020015Y-12666690D02*
X11039062Y-12676214D01*
X11039062Y-12676214D02*
X11048586Y-12685738D01*
X11048586Y-12685738D02*
X11058110Y-12704786D01*
X11058110Y-12704786D02*
X11058110Y-12761928D01*
X11058110Y-12761928D02*
X11048586Y-12780976D01*
X11048586Y-12780976D02*
X11039062Y-12790500D01*
X11039062Y-12790500D02*
X11020015Y-12800024D01*
X11020015Y-12800024D02*
X10991443Y-12800024D01*
X11115253Y-12666690D02*
X11191443Y-12666690D01*
X11143824Y-12600024D02*
X11143824Y-12771452D01*
X11143824Y-12771452D02*
X11153348Y-12790500D01*
X11153348Y-12790500D02*
X11172396Y-12800024D01*
X11172396Y-12800024D02*
X11191443Y-12800024D01*
X11410491Y-12666690D02*
X11410491Y-12866690D01*
X11410491Y-12676214D02*
X11429539Y-12666690D01*
X11429539Y-12666690D02*
X11467634Y-12666690D01*
X11467634Y-12666690D02*
X11486681Y-12676214D01*
X11486681Y-12676214D02*
X11496205Y-12685738D01*
X11496205Y-12685738D02*
X11505729Y-12704786D01*
X11505729Y-12704786D02*
X11505729Y-12761928D01*
X11505729Y-12761928D02*
X11496205Y-12780976D01*
X11496205Y-12780976D02*
X11486681Y-12790500D01*
X11486681Y-12790500D02*
X11467634Y-12800024D01*
X11467634Y-12800024D02*
X11429539Y-12800024D01*
X11429539Y-12800024D02*
X11410491Y-12790500D01*
X11620015Y-12800024D02*
X11600967Y-12790500D01*
X11600967Y-12790500D02*
X11591443Y-12771452D01*
X11591443Y-12771452D02*
X11591443Y-12600024D01*
X11781920Y-12800024D02*
X11781920Y-12695262D01*
X11781920Y-12695262D02*
X11772396Y-12676214D01*
X11772396Y-12676214D02*
X11753348Y-12666690D01*
X11753348Y-12666690D02*
X11715253Y-12666690D01*
X11715253Y-12666690D02*
X11696205Y-12676214D01*
X11781920Y-12790500D02*
X11762872Y-12800024D01*
X11762872Y-12800024D02*
X11715253Y-12800024D01*
X11715253Y-12800024D02*
X11696205Y-12790500D01*
X11696205Y-12790500D02*
X11686681Y-12771452D01*
X11686681Y-12771452D02*
X11686681Y-12752405D01*
X11686681Y-12752405D02*
X11696205Y-12733357D01*
X11696205Y-12733357D02*
X11715253Y-12723833D01*
X11715253Y-12723833D02*
X11762872Y-12723833D01*
X11762872Y-12723833D02*
X11781920Y-12714309D01*
X11848586Y-12666690D02*
X11924777Y-12666690D01*
X11877158Y-12600024D02*
X11877158Y-12771452D01*
X11877158Y-12771452D02*
X11886681Y-12790500D01*
X11886681Y-12790500D02*
X11905729Y-12800024D01*
X11905729Y-12800024D02*
X11924777Y-12800024D01*
X12067634Y-12790500D02*
X12048586Y-12800024D01*
X12048586Y-12800024D02*
X12010491Y-12800024D01*
X12010491Y-12800024D02*
X11991443Y-12790500D01*
X11991443Y-12790500D02*
X11981920Y-12771452D01*
X11981920Y-12771452D02*
X11981920Y-12695262D01*
X11981920Y-12695262D02*
X11991443Y-12676214D01*
X11991443Y-12676214D02*
X12010491Y-12666690D01*
X12010491Y-12666690D02*
X12048586Y-12666690D01*
X12048586Y-12666690D02*
X12067634Y-12676214D01*
X12067634Y-12676214D02*
X12077158Y-12695262D01*
X12077158Y-12695262D02*
X12077158Y-12714309D01*
X12077158Y-12714309D02*
X11981920Y-12733357D01*
X12248586Y-12800024D02*
X12248586Y-12600024D01*
X12248586Y-12790500D02*
X12229539Y-12800024D01*
X12229539Y-12800024D02*
X12191443Y-12800024D01*
X12191443Y-12800024D02*
X12172396Y-12790500D01*
X12172396Y-12790500D02*
X12162872Y-12780976D01*
X12162872Y-12780976D02*
X12153348Y-12761928D01*
X12153348Y-12761928D02*
X12153348Y-12704786D01*
X12153348Y-12704786D02*
X12162872Y-12685738D01*
X12162872Y-12685738D02*
X12172396Y-12676214D01*
X12172396Y-12676214D02*
X12191443Y-12666690D01*
X12191443Y-12666690D02*
X12229539Y-12666690D01*
X12229539Y-12666690D02*
X12248586Y-12676214D01*
X12324777Y-12876214D02*
X12334301Y-12866690D01*
X12334301Y-12866690D02*
X12353348Y-12838119D01*
X12353348Y-12838119D02*
X12362872Y-12819071D01*
X12362872Y-12819071D02*
X12372396Y-12790500D01*
X12372396Y-12790500D02*
X12381920Y-12742881D01*
X12381920Y-12742881D02*
X12381920Y-12704786D01*
X12381920Y-12704786D02*
X12372396Y-12657167D01*
X12372396Y-12657167D02*
X12362872Y-12628595D01*
X12362872Y-12628595D02*
X12353348Y-12609548D01*
X12353348Y-12609548D02*
X12334301Y-12580976D01*
X12334301Y-12580976D02*
X12324777Y-12571452D01*
M02*
