%FSLAX45Y45*%
G04 Gerber Fmt 4.5, Leading zero omitted, Abs format (unit mm)*
G04 Created by KiCad (PCBNEW (6.0.2-0)) date 2022-03-02 14:26:11*
%MOMM*%
%LPD*%
G01*
G04 APERTURE LIST*
%TA.AperFunction,Profile*%
%ADD10C,0.120000*%
%TD*%
%ADD11C,0.200000*%
%ADD12C,0.170000*%
%ADD13C,0.190000*%
%ADD14C,0.250000*%
%ADD15C,0.300000*%
%ADD16C,0.400000*%
G04 APERTURE END LIST*
D10*
X-10223500Y-10477500D02*
X698500Y-10477500D01*
X698500Y-10477500D02*
G75*
G03*
X952500Y-10223500I0J254000D01*
G01*
X952500Y1968500D02*
G75*
G03*
X698500Y2222500I-254000J0D01*
G01*
X952500Y1968500D02*
X952500Y-10223500D01*
X-10477500Y-10223500D02*
G75*
G03*
X-10223500Y-10477500I254000J0D01*
G01*
X698500Y2222500D02*
X-10223500Y2222500D01*
X-10223500Y2222500D02*
G75*
G03*
X-10477500Y1968500I0J-254000D01*
G01*
X-10477500Y1968500D02*
X-10477500Y-10223500D01*
D11*
D12*
X-10118000Y85000D02*
X-9948000Y-85000D01*
X-9948000Y85000D02*
X-10118000Y-85000D01*
X-10118000Y-1820000D02*
X-9948000Y-1990000D01*
X-9948000Y-1820000D02*
X-10118000Y-1990000D01*
X-10118000Y-3725000D02*
X-9948000Y-3895000D01*
X-9948000Y-3725000D02*
X-10118000Y-3895000D01*
X-10118000Y-5630000D02*
X-9948000Y-5800000D01*
X-9948000Y-5630000D02*
X-10118000Y-5800000D01*
X-10118000Y-7535000D02*
X-9948000Y-7705000D01*
X-9948000Y-7535000D02*
X-10118000Y-7705000D01*
X-10118000Y-9440000D02*
X-9948000Y-9610000D01*
X-9948000Y-9440000D02*
X-10118000Y-9610000D01*
X-9102000Y85000D02*
X-8932000Y-85000D01*
X-8932000Y85000D02*
X-9102000Y-85000D01*
X-9102000Y-1820000D02*
X-8932000Y-1990000D01*
X-8932000Y-1820000D02*
X-9102000Y-1990000D01*
X-9102000Y-3725000D02*
X-8932000Y-3895000D01*
X-8932000Y-3725000D02*
X-9102000Y-3895000D01*
X-9102000Y-5630000D02*
X-8932000Y-5800000D01*
X-8932000Y-5630000D02*
X-9102000Y-5800000D01*
X-9102000Y-7535000D02*
X-8932000Y-7705000D01*
X-8932000Y-7535000D02*
X-9102000Y-7705000D01*
X-9102000Y-9440000D02*
X-8932000Y-9610000D01*
X-8932000Y-9440000D02*
X-9102000Y-9610000D01*
X-8213000Y85000D02*
X-8043000Y-85000D01*
X-8043000Y85000D02*
X-8213000Y-85000D01*
X-8213000Y-1820000D02*
X-8043000Y-1990000D01*
X-8043000Y-1820000D02*
X-8213000Y-1990000D01*
X-8213000Y-3725000D02*
X-8043000Y-3895000D01*
X-8043000Y-3725000D02*
X-8213000Y-3895000D01*
X-8213000Y-5630000D02*
X-8043000Y-5800000D01*
X-8043000Y-5630000D02*
X-8213000Y-5800000D01*
X-8213000Y-7535000D02*
X-8043000Y-7705000D01*
X-8043000Y-7535000D02*
X-8213000Y-7705000D01*
X-8213000Y-9440000D02*
X-8043000Y-9610000D01*
X-8043000Y-9440000D02*
X-8213000Y-9610000D01*
X-7197000Y85000D02*
X-7027000Y-85000D01*
X-7027000Y85000D02*
X-7197000Y-85000D01*
X-7197000Y-1820000D02*
X-7027000Y-1990000D01*
X-7027000Y-1820000D02*
X-7197000Y-1990000D01*
X-7197000Y-3725000D02*
X-7027000Y-3895000D01*
X-7027000Y-3725000D02*
X-7197000Y-3895000D01*
X-7197000Y-5630000D02*
X-7027000Y-5800000D01*
X-7027000Y-5630000D02*
X-7197000Y-5800000D01*
X-7197000Y-7535000D02*
X-7027000Y-7705000D01*
X-7027000Y-7535000D02*
X-7197000Y-7705000D01*
X-7197000Y-9440000D02*
X-7027000Y-9610000D01*
X-7027000Y-9440000D02*
X-7197000Y-9610000D01*
X-6308000Y85000D02*
X-6138000Y-85000D01*
X-6138000Y85000D02*
X-6308000Y-85000D01*
X-6308000Y-1820000D02*
X-6138000Y-1990000D01*
X-6138000Y-1820000D02*
X-6308000Y-1990000D01*
X-6308000Y-3725000D02*
X-6138000Y-3895000D01*
X-6138000Y-3725000D02*
X-6308000Y-3895000D01*
X-6308000Y-5630000D02*
X-6138000Y-5800000D01*
X-6138000Y-5630000D02*
X-6308000Y-5800000D01*
X-6308000Y-7535000D02*
X-6138000Y-7705000D01*
X-6138000Y-7535000D02*
X-6308000Y-7705000D01*
X-6308000Y-9440000D02*
X-6138000Y-9610000D01*
X-6138000Y-9440000D02*
X-6308000Y-9610000D01*
X-5292000Y85000D02*
X-5122000Y-85000D01*
X-5122000Y85000D02*
X-5292000Y-85000D01*
X-5292000Y-1820000D02*
X-5122000Y-1990000D01*
X-5122000Y-1820000D02*
X-5292000Y-1990000D01*
X-5292000Y-3725000D02*
X-5122000Y-3895000D01*
X-5122000Y-3725000D02*
X-5292000Y-3895000D01*
X-5292000Y-5630000D02*
X-5122000Y-5800000D01*
X-5122000Y-5630000D02*
X-5292000Y-5800000D01*
X-5292000Y-7535000D02*
X-5122000Y-7705000D01*
X-5122000Y-7535000D02*
X-5292000Y-7705000D01*
X-5292000Y-9440000D02*
X-5122000Y-9610000D01*
X-5122000Y-9440000D02*
X-5292000Y-9610000D01*
X-4403000Y85000D02*
X-4233000Y-85000D01*
X-4233000Y85000D02*
X-4403000Y-85000D01*
X-4403000Y-1820000D02*
X-4233000Y-1990000D01*
X-4233000Y-1820000D02*
X-4403000Y-1990000D01*
X-4403000Y-3725000D02*
X-4233000Y-3895000D01*
X-4233000Y-3725000D02*
X-4403000Y-3895000D01*
X-4403000Y-5630000D02*
X-4233000Y-5800000D01*
X-4233000Y-5630000D02*
X-4403000Y-5800000D01*
X-4403000Y-7535000D02*
X-4233000Y-7705000D01*
X-4233000Y-7535000D02*
X-4403000Y-7705000D01*
X-4403000Y-9440000D02*
X-4233000Y-9610000D01*
X-4233000Y-9440000D02*
X-4403000Y-9610000D01*
X-3387000Y85000D02*
X-3217000Y-85000D01*
X-3217000Y85000D02*
X-3387000Y-85000D01*
X-3387000Y-1820000D02*
X-3217000Y-1990000D01*
X-3217000Y-1820000D02*
X-3387000Y-1990000D01*
X-3387000Y-3725000D02*
X-3217000Y-3895000D01*
X-3217000Y-3725000D02*
X-3387000Y-3895000D01*
X-3387000Y-5630000D02*
X-3217000Y-5800000D01*
X-3217000Y-5630000D02*
X-3387000Y-5800000D01*
X-3387000Y-7535000D02*
X-3217000Y-7705000D01*
X-3217000Y-7535000D02*
X-3387000Y-7705000D01*
X-3387000Y-9440000D02*
X-3217000Y-9610000D01*
X-3217000Y-9440000D02*
X-3387000Y-9610000D01*
X-2498000Y85000D02*
X-2328000Y-85000D01*
X-2328000Y85000D02*
X-2498000Y-85000D01*
X-2498000Y-1820000D02*
X-2328000Y-1990000D01*
X-2328000Y-1820000D02*
X-2498000Y-1990000D01*
X-2498000Y-3725000D02*
X-2328000Y-3895000D01*
X-2328000Y-3725000D02*
X-2498000Y-3895000D01*
X-2498000Y-5630000D02*
X-2328000Y-5800000D01*
X-2328000Y-5630000D02*
X-2498000Y-5800000D01*
X-2498000Y-7535000D02*
X-2328000Y-7705000D01*
X-2328000Y-7535000D02*
X-2498000Y-7705000D01*
X-2498000Y-9440000D02*
X-2328000Y-9610000D01*
X-2328000Y-9440000D02*
X-2498000Y-9610000D01*
X-1482000Y85000D02*
X-1312000Y-85000D01*
X-1312000Y85000D02*
X-1482000Y-85000D01*
X-1482000Y-1820000D02*
X-1312000Y-1990000D01*
X-1312000Y-1820000D02*
X-1482000Y-1990000D01*
X-1482000Y-3725000D02*
X-1312000Y-3895000D01*
X-1312000Y-3725000D02*
X-1482000Y-3895000D01*
X-1482000Y-5630000D02*
X-1312000Y-5800000D01*
X-1312000Y-5630000D02*
X-1482000Y-5800000D01*
X-1482000Y-7535000D02*
X-1312000Y-7705000D01*
X-1312000Y-7535000D02*
X-1482000Y-7705000D01*
X-1482000Y-9440000D02*
X-1312000Y-9610000D01*
X-1312000Y-9440000D02*
X-1482000Y-9610000D01*
X-593000Y85000D02*
X-423000Y-85000D01*
X-423000Y85000D02*
X-593000Y-85000D01*
X-593000Y-1820000D02*
X-423000Y-1990000D01*
X-423000Y-1820000D02*
X-593000Y-1990000D01*
X-593000Y-3725000D02*
X-423000Y-3895000D01*
X-423000Y-3725000D02*
X-593000Y-3895000D01*
X-593000Y-5630000D02*
X-423000Y-5800000D01*
X-423000Y-5630000D02*
X-593000Y-5800000D01*
X-593000Y-7535000D02*
X-423000Y-7705000D01*
X-423000Y-7535000D02*
X-593000Y-7705000D01*
X-593000Y-9440000D02*
X-423000Y-9610000D01*
X-423000Y-9440000D02*
X-593000Y-9610000D01*
X423000Y85000D02*
X593000Y-85000D01*
X593000Y85000D02*
X423000Y-85000D01*
X423000Y-1820000D02*
X593000Y-1990000D01*
X593000Y-1820000D02*
X423000Y-1990000D01*
X423000Y-3725000D02*
X593000Y-3895000D01*
X593000Y-3725000D02*
X423000Y-3895000D01*
X423000Y-5630000D02*
X593000Y-5800000D01*
X593000Y-5630000D02*
X423000Y-5800000D01*
X423000Y-7535000D02*
X593000Y-7705000D01*
X593000Y-7535000D02*
X423000Y-7705000D01*
X423000Y-9440000D02*
X593000Y-9610000D01*
X593000Y-9440000D02*
X423000Y-9610000D01*
D13*
X-9980000Y0D02*
G75*
G03*
X-9980000Y0I-95000J0D01*
G01*
X-9980000Y-1905000D02*
G75*
G03*
X-9980000Y-1905000I-95000J0D01*
G01*
X-9980000Y-3810000D02*
G75*
G03*
X-9980000Y-3810000I-95000J0D01*
G01*
X-9980000Y-5715000D02*
G75*
G03*
X-9980000Y-5715000I-95000J0D01*
G01*
X-9980000Y-7620000D02*
G75*
G03*
X-9980000Y-7620000I-95000J0D01*
G01*
X-9980000Y-9525000D02*
G75*
G03*
X-9980000Y-9525000I-95000J0D01*
G01*
X-8880000Y0D02*
G75*
G03*
X-8880000Y0I-95000J0D01*
G01*
X-8880000Y-1905000D02*
G75*
G03*
X-8880000Y-1905000I-95000J0D01*
G01*
X-8880000Y-3810000D02*
G75*
G03*
X-8880000Y-3810000I-95000J0D01*
G01*
X-8880000Y-5715000D02*
G75*
G03*
X-8880000Y-5715000I-95000J0D01*
G01*
X-8880000Y-7620000D02*
G75*
G03*
X-8880000Y-7620000I-95000J0D01*
G01*
X-8880000Y-9525000D02*
G75*
G03*
X-8880000Y-9525000I-95000J0D01*
G01*
X-8075000Y0D02*
G75*
G03*
X-8075000Y0I-95000J0D01*
G01*
X-8075000Y-1905000D02*
G75*
G03*
X-8075000Y-1905000I-95000J0D01*
G01*
X-8075000Y-3810000D02*
G75*
G03*
X-8075000Y-3810000I-95000J0D01*
G01*
X-8075000Y-5715000D02*
G75*
G03*
X-8075000Y-5715000I-95000J0D01*
G01*
X-8075000Y-7620000D02*
G75*
G03*
X-8075000Y-7620000I-95000J0D01*
G01*
X-8075000Y-9525000D02*
G75*
G03*
X-8075000Y-9525000I-95000J0D01*
G01*
X-6975000Y0D02*
G75*
G03*
X-6975000Y0I-95000J0D01*
G01*
X-6975000Y-1905000D02*
G75*
G03*
X-6975000Y-1905000I-95000J0D01*
G01*
X-6975000Y-3810000D02*
G75*
G03*
X-6975000Y-3810000I-95000J0D01*
G01*
X-6975000Y-5715000D02*
G75*
G03*
X-6975000Y-5715000I-95000J0D01*
G01*
X-6975000Y-7620000D02*
G75*
G03*
X-6975000Y-7620000I-95000J0D01*
G01*
X-6975000Y-9525000D02*
G75*
G03*
X-6975000Y-9525000I-95000J0D01*
G01*
X-6170000Y0D02*
G75*
G03*
X-6170000Y0I-95000J0D01*
G01*
X-6170000Y-1905000D02*
G75*
G03*
X-6170000Y-1905000I-95000J0D01*
G01*
X-6170000Y-3810000D02*
G75*
G03*
X-6170000Y-3810000I-95000J0D01*
G01*
X-6170000Y-5715000D02*
G75*
G03*
X-6170000Y-5715000I-95000J0D01*
G01*
X-6170000Y-7620000D02*
G75*
G03*
X-6170000Y-7620000I-95000J0D01*
G01*
X-6170000Y-9525000D02*
G75*
G03*
X-6170000Y-9525000I-95000J0D01*
G01*
X-5070000Y0D02*
G75*
G03*
X-5070000Y0I-95000J0D01*
G01*
X-5070000Y-1905000D02*
G75*
G03*
X-5070000Y-1905000I-95000J0D01*
G01*
X-5070000Y-3810000D02*
G75*
G03*
X-5070000Y-3810000I-95000J0D01*
G01*
X-5070000Y-5715000D02*
G75*
G03*
X-5070000Y-5715000I-95000J0D01*
G01*
X-5070000Y-7620000D02*
G75*
G03*
X-5070000Y-7620000I-95000J0D01*
G01*
X-5070000Y-9525000D02*
G75*
G03*
X-5070000Y-9525000I-95000J0D01*
G01*
X-4265000Y0D02*
G75*
G03*
X-4265000Y0I-95000J0D01*
G01*
X-4265000Y-1905000D02*
G75*
G03*
X-4265000Y-1905000I-95000J0D01*
G01*
X-4265000Y-3810000D02*
G75*
G03*
X-4265000Y-3810000I-95000J0D01*
G01*
X-4265000Y-5715000D02*
G75*
G03*
X-4265000Y-5715000I-95000J0D01*
G01*
X-4265000Y-7620000D02*
G75*
G03*
X-4265000Y-7620000I-95000J0D01*
G01*
X-4265000Y-9525000D02*
G75*
G03*
X-4265000Y-9525000I-95000J0D01*
G01*
X-3165000Y0D02*
G75*
G03*
X-3165000Y0I-95000J0D01*
G01*
X-3165000Y-1905000D02*
G75*
G03*
X-3165000Y-1905000I-95000J0D01*
G01*
X-3165000Y-3810000D02*
G75*
G03*
X-3165000Y-3810000I-95000J0D01*
G01*
X-3165000Y-5715000D02*
G75*
G03*
X-3165000Y-5715000I-95000J0D01*
G01*
X-3165000Y-7620000D02*
G75*
G03*
X-3165000Y-7620000I-95000J0D01*
G01*
X-3165000Y-9525000D02*
G75*
G03*
X-3165000Y-9525000I-95000J0D01*
G01*
X-2360000Y0D02*
G75*
G03*
X-2360000Y0I-95000J0D01*
G01*
X-2360000Y-1905000D02*
G75*
G03*
X-2360000Y-1905000I-95000J0D01*
G01*
X-2360000Y-3810000D02*
G75*
G03*
X-2360000Y-3810000I-95000J0D01*
G01*
X-2360000Y-5715000D02*
G75*
G03*
X-2360000Y-5715000I-95000J0D01*
G01*
X-2360000Y-7620000D02*
G75*
G03*
X-2360000Y-7620000I-95000J0D01*
G01*
X-2360000Y-9525000D02*
G75*
G03*
X-2360000Y-9525000I-95000J0D01*
G01*
X-1260000Y0D02*
G75*
G03*
X-1260000Y0I-95000J0D01*
G01*
X-1260000Y-1905000D02*
G75*
G03*
X-1260000Y-1905000I-95000J0D01*
G01*
X-1260000Y-3810000D02*
G75*
G03*
X-1260000Y-3810000I-95000J0D01*
G01*
X-1260000Y-5715000D02*
G75*
G03*
X-1260000Y-5715000I-95000J0D01*
G01*
X-1260000Y-7620000D02*
G75*
G03*
X-1260000Y-7620000I-95000J0D01*
G01*
X-1260000Y-9525000D02*
G75*
G03*
X-1260000Y-9525000I-95000J0D01*
G01*
X-455000Y0D02*
G75*
G03*
X-455000Y0I-95000J0D01*
G01*
X-455000Y-1905000D02*
G75*
G03*
X-455000Y-1905000I-95000J0D01*
G01*
X-455000Y-3810000D02*
G75*
G03*
X-455000Y-3810000I-95000J0D01*
G01*
X-455000Y-5715000D02*
G75*
G03*
X-455000Y-5715000I-95000J0D01*
G01*
X-455000Y-7620000D02*
G75*
G03*
X-455000Y-7620000I-95000J0D01*
G01*
X-455000Y-9525000D02*
G75*
G03*
X-455000Y-9525000I-95000J0D01*
G01*
X645000Y0D02*
G75*
G03*
X645000Y0I-95000J0D01*
G01*
X645000Y-1905000D02*
G75*
G03*
X645000Y-1905000I-95000J0D01*
G01*
X645000Y-3810000D02*
G75*
G03*
X645000Y-3810000I-95000J0D01*
G01*
X645000Y-5715000D02*
G75*
G03*
X645000Y-5715000I-95000J0D01*
G01*
X645000Y-7620000D02*
G75*
G03*
X645000Y-7620000I-95000J0D01*
G01*
X645000Y-9525000D02*
G75*
G03*
X645000Y-9525000I-95000J0D01*
G01*
D14*
X-8636000Y-8384000D02*
X-8636000Y-8634000D01*
X-8761000Y-8509000D02*
X-8511000Y-8509000D01*
X-8572500Y-827500D02*
X-8572500Y-1077500D01*
X-8697500Y-952500D02*
X-8447500Y-952500D01*
X-4762500Y-4637500D02*
X-4762500Y-4887500D01*
X-4887500Y-4762500D02*
X-4637500Y-4762500D01*
X-952500Y-827500D02*
X-952500Y-1077500D01*
X-1077500Y-952500D02*
X-827500Y-952500D01*
X-952500Y-8447500D02*
X-952500Y-8697500D01*
X-1077500Y-8572500D02*
X-827500Y-8572500D01*
D15*
X-9918933Y-476067D02*
X-9918933Y-263933D01*
X-10131067Y-263933D01*
X-10131067Y-476067D01*
X-9918933Y-476067D01*
X-9918933Y-2381067D02*
X-9918933Y-2168933D01*
X-10131067Y-2168933D01*
X-10131067Y-2381067D01*
X-9918933Y-2381067D01*
X-9918933Y-4286067D02*
X-9918933Y-4073933D01*
X-10131067Y-4073933D01*
X-10131067Y-4286067D01*
X-9918933Y-4286067D01*
X-9918933Y-6191067D02*
X-9918933Y-5978933D01*
X-10131067Y-5978933D01*
X-10131067Y-6191067D01*
X-9918933Y-6191067D01*
X-9918933Y-8096067D02*
X-9918933Y-7883933D01*
X-10131067Y-7883933D01*
X-10131067Y-8096067D01*
X-9918933Y-8096067D01*
X-9918933Y-10001067D02*
X-9918933Y-9788933D01*
X-10131067Y-9788933D01*
X-10131067Y-10001067D01*
X-9918933Y-10001067D01*
X-9799933Y147933D02*
X-9799933Y360067D01*
X-10012067Y360067D01*
X-10012067Y147933D01*
X-9799933Y147933D01*
X-9799933Y-1757067D02*
X-9799933Y-1544933D01*
X-10012067Y-1544933D01*
X-10012067Y-1757067D01*
X-9799933Y-1757067D01*
X-9799933Y-3662067D02*
X-9799933Y-3449933D01*
X-10012067Y-3449933D01*
X-10012067Y-3662067D01*
X-9799933Y-3662067D01*
X-9799933Y-5567067D02*
X-9799933Y-5354933D01*
X-10012067Y-5354933D01*
X-10012067Y-5567067D01*
X-9799933Y-5567067D01*
X-9799933Y-7472067D02*
X-9799933Y-7259933D01*
X-10012067Y-7259933D01*
X-10012067Y-7472067D01*
X-9799933Y-7472067D01*
X-9799933Y-9377067D02*
X-9799933Y-9164933D01*
X-10012067Y-9164933D01*
X-10012067Y-9377067D01*
X-9799933Y-9377067D01*
X-9418933Y-696067D02*
X-9418933Y-483933D01*
X-9631067Y-483933D01*
X-9631067Y-696067D01*
X-9418933Y-696067D01*
X-9418933Y-2601067D02*
X-9418933Y-2388933D01*
X-9631067Y-2388933D01*
X-9631067Y-2601067D01*
X-9418933Y-2601067D01*
X-9418933Y-4506067D02*
X-9418933Y-4293933D01*
X-9631067Y-4293933D01*
X-9631067Y-4506067D01*
X-9418933Y-4506067D01*
X-9418933Y-6411067D02*
X-9418933Y-6198933D01*
X-9631067Y-6198933D01*
X-9631067Y-6411067D01*
X-9418933Y-6411067D01*
X-9418933Y-8316067D02*
X-9418933Y-8103933D01*
X-9631067Y-8103933D01*
X-9631067Y-8316067D01*
X-9418933Y-8316067D01*
X-9418933Y-10221067D02*
X-9418933Y-10008933D01*
X-9631067Y-10008933D01*
X-9631067Y-10221067D01*
X-9418933Y-10221067D01*
X-9164933Y401933D02*
X-9164933Y614067D01*
X-9377067Y614067D01*
X-9377067Y401933D01*
X-9164933Y401933D01*
X-9164933Y-1503067D02*
X-9164933Y-1290933D01*
X-9377067Y-1290933D01*
X-9377067Y-1503067D01*
X-9164933Y-1503067D01*
X-9164933Y-3408067D02*
X-9164933Y-3195933D01*
X-9377067Y-3195933D01*
X-9377067Y-3408067D01*
X-9164933Y-3408067D01*
X-9164933Y-5313067D02*
X-9164933Y-5100933D01*
X-9377067Y-5100933D01*
X-9377067Y-5313067D01*
X-9164933Y-5313067D01*
X-9164933Y-7218067D02*
X-9164933Y-7005933D01*
X-9377067Y-7005933D01*
X-9377067Y-7218067D01*
X-9164933Y-7218067D01*
X-9164933Y-9123067D02*
X-9164933Y-8910933D01*
X-9377067Y-8910933D01*
X-9377067Y-9123067D01*
X-9164933Y-9123067D01*
X-8013933Y-476067D02*
X-8013933Y-263933D01*
X-8226067Y-263933D01*
X-8226067Y-476067D01*
X-8013933Y-476067D01*
X-8013933Y-2381067D02*
X-8013933Y-2168933D01*
X-8226067Y-2168933D01*
X-8226067Y-2381067D01*
X-8013933Y-2381067D01*
X-8013933Y-4286067D02*
X-8013933Y-4073933D01*
X-8226067Y-4073933D01*
X-8226067Y-4286067D01*
X-8013933Y-4286067D01*
X-8013933Y-6191067D02*
X-8013933Y-5978933D01*
X-8226067Y-5978933D01*
X-8226067Y-6191067D01*
X-8013933Y-6191067D01*
X-8013933Y-8096067D02*
X-8013933Y-7883933D01*
X-8226067Y-7883933D01*
X-8226067Y-8096067D01*
X-8013933Y-8096067D01*
X-8013933Y-10001067D02*
X-8013933Y-9788933D01*
X-8226067Y-9788933D01*
X-8226067Y-10001067D01*
X-8013933Y-10001067D01*
X-7894933Y147933D02*
X-7894933Y360067D01*
X-8107067Y360067D01*
X-8107067Y147933D01*
X-7894933Y147933D01*
X-7894933Y-1757067D02*
X-7894933Y-1544933D01*
X-8107067Y-1544933D01*
X-8107067Y-1757067D01*
X-7894933Y-1757067D01*
X-7894933Y-3662067D02*
X-7894933Y-3449933D01*
X-8107067Y-3449933D01*
X-8107067Y-3662067D01*
X-7894933Y-3662067D01*
X-7894933Y-5567067D02*
X-7894933Y-5354933D01*
X-8107067Y-5354933D01*
X-8107067Y-5567067D01*
X-7894933Y-5567067D01*
X-7894933Y-7472067D02*
X-7894933Y-7259933D01*
X-8107067Y-7259933D01*
X-8107067Y-7472067D01*
X-7894933Y-7472067D01*
X-7894933Y-9377067D02*
X-7894933Y-9164933D01*
X-8107067Y-9164933D01*
X-8107067Y-9377067D01*
X-7894933Y-9377067D01*
X-7513933Y-696067D02*
X-7513933Y-483933D01*
X-7726067Y-483933D01*
X-7726067Y-696067D01*
X-7513933Y-696067D01*
X-7513933Y-2601067D02*
X-7513933Y-2388933D01*
X-7726067Y-2388933D01*
X-7726067Y-2601067D01*
X-7513933Y-2601067D01*
X-7513933Y-4506067D02*
X-7513933Y-4293933D01*
X-7726067Y-4293933D01*
X-7726067Y-4506067D01*
X-7513933Y-4506067D01*
X-7513933Y-6411067D02*
X-7513933Y-6198933D01*
X-7726067Y-6198933D01*
X-7726067Y-6411067D01*
X-7513933Y-6411067D01*
X-7513933Y-8316067D02*
X-7513933Y-8103933D01*
X-7726067Y-8103933D01*
X-7726067Y-8316067D01*
X-7513933Y-8316067D01*
X-7513933Y-10221067D02*
X-7513933Y-10008933D01*
X-7726067Y-10008933D01*
X-7726067Y-10221067D01*
X-7513933Y-10221067D01*
X-7259933Y401933D02*
X-7259933Y614067D01*
X-7472067Y614067D01*
X-7472067Y401933D01*
X-7259933Y401933D01*
X-7259933Y-1503067D02*
X-7259933Y-1290933D01*
X-7472067Y-1290933D01*
X-7472067Y-1503067D01*
X-7259933Y-1503067D01*
X-7259933Y-3408067D02*
X-7259933Y-3195933D01*
X-7472067Y-3195933D01*
X-7472067Y-3408067D01*
X-7259933Y-3408067D01*
X-7259933Y-5313067D02*
X-7259933Y-5100933D01*
X-7472067Y-5100933D01*
X-7472067Y-5313067D01*
X-7259933Y-5313067D01*
X-7259933Y-7218067D02*
X-7259933Y-7005933D01*
X-7472067Y-7005933D01*
X-7472067Y-7218067D01*
X-7259933Y-7218067D01*
X-7259933Y-9123067D02*
X-7259933Y-8910933D01*
X-7472067Y-8910933D01*
X-7472067Y-9123067D01*
X-7259933Y-9123067D01*
X-6108933Y-476067D02*
X-6108933Y-263933D01*
X-6321067Y-263933D01*
X-6321067Y-476067D01*
X-6108933Y-476067D01*
X-6108933Y-2381067D02*
X-6108933Y-2168933D01*
X-6321067Y-2168933D01*
X-6321067Y-2381067D01*
X-6108933Y-2381067D01*
X-6108933Y-4286067D02*
X-6108933Y-4073933D01*
X-6321067Y-4073933D01*
X-6321067Y-4286067D01*
X-6108933Y-4286067D01*
X-6108933Y-6191067D02*
X-6108933Y-5978933D01*
X-6321067Y-5978933D01*
X-6321067Y-6191067D01*
X-6108933Y-6191067D01*
X-6108933Y-8096067D02*
X-6108933Y-7883933D01*
X-6321067Y-7883933D01*
X-6321067Y-8096067D01*
X-6108933Y-8096067D01*
X-6108933Y-10001067D02*
X-6108933Y-9788933D01*
X-6321067Y-9788933D01*
X-6321067Y-10001067D01*
X-6108933Y-10001067D01*
X-5989933Y147933D02*
X-5989933Y360067D01*
X-6202067Y360067D01*
X-6202067Y147933D01*
X-5989933Y147933D01*
X-5989933Y-1757067D02*
X-5989933Y-1544933D01*
X-6202067Y-1544933D01*
X-6202067Y-1757067D01*
X-5989933Y-1757067D01*
X-5989933Y-3662067D02*
X-5989933Y-3449933D01*
X-6202067Y-3449933D01*
X-6202067Y-3662067D01*
X-5989933Y-3662067D01*
X-5989933Y-5567067D02*
X-5989933Y-5354933D01*
X-6202067Y-5354933D01*
X-6202067Y-5567067D01*
X-5989933Y-5567067D01*
X-5989933Y-7472067D02*
X-5989933Y-7259933D01*
X-6202067Y-7259933D01*
X-6202067Y-7472067D01*
X-5989933Y-7472067D01*
X-5989933Y-9377067D02*
X-5989933Y-9164933D01*
X-6202067Y-9164933D01*
X-6202067Y-9377067D01*
X-5989933Y-9377067D01*
X-5608933Y-696067D02*
X-5608933Y-483933D01*
X-5821067Y-483933D01*
X-5821067Y-696067D01*
X-5608933Y-696067D01*
X-5608933Y-2601067D02*
X-5608933Y-2388933D01*
X-5821067Y-2388933D01*
X-5821067Y-2601067D01*
X-5608933Y-2601067D01*
X-5608933Y-4506067D02*
X-5608933Y-4293933D01*
X-5821067Y-4293933D01*
X-5821067Y-4506067D01*
X-5608933Y-4506067D01*
X-5608933Y-6411067D02*
X-5608933Y-6198933D01*
X-5821067Y-6198933D01*
X-5821067Y-6411067D01*
X-5608933Y-6411067D01*
X-5608933Y-8316067D02*
X-5608933Y-8103933D01*
X-5821067Y-8103933D01*
X-5821067Y-8316067D01*
X-5608933Y-8316067D01*
X-5608933Y-10221067D02*
X-5608933Y-10008933D01*
X-5821067Y-10008933D01*
X-5821067Y-10221067D01*
X-5608933Y-10221067D01*
X-5354933Y401933D02*
X-5354933Y614067D01*
X-5567067Y614067D01*
X-5567067Y401933D01*
X-5354933Y401933D01*
X-5354933Y-1503067D02*
X-5354933Y-1290933D01*
X-5567067Y-1290933D01*
X-5567067Y-1503067D01*
X-5354933Y-1503067D01*
X-5354933Y-3408067D02*
X-5354933Y-3195933D01*
X-5567067Y-3195933D01*
X-5567067Y-3408067D01*
X-5354933Y-3408067D01*
X-5354933Y-5313067D02*
X-5354933Y-5100933D01*
X-5567067Y-5100933D01*
X-5567067Y-5313067D01*
X-5354933Y-5313067D01*
X-5354933Y-7218067D02*
X-5354933Y-7005933D01*
X-5567067Y-7005933D01*
X-5567067Y-7218067D01*
X-5354933Y-7218067D01*
X-5354933Y-9123067D02*
X-5354933Y-8910933D01*
X-5567067Y-8910933D01*
X-5567067Y-9123067D01*
X-5354933Y-9123067D01*
X-4203933Y-476067D02*
X-4203933Y-263933D01*
X-4416067Y-263933D01*
X-4416067Y-476067D01*
X-4203933Y-476067D01*
X-4203933Y-2381067D02*
X-4203933Y-2168933D01*
X-4416067Y-2168933D01*
X-4416067Y-2381067D01*
X-4203933Y-2381067D01*
X-4203933Y-4286067D02*
X-4203933Y-4073933D01*
X-4416067Y-4073933D01*
X-4416067Y-4286067D01*
X-4203933Y-4286067D01*
X-4203933Y-6191067D02*
X-4203933Y-5978933D01*
X-4416067Y-5978933D01*
X-4416067Y-6191067D01*
X-4203933Y-6191067D01*
X-4203933Y-8096067D02*
X-4203933Y-7883933D01*
X-4416067Y-7883933D01*
X-4416067Y-8096067D01*
X-4203933Y-8096067D01*
X-4203933Y-10001067D02*
X-4203933Y-9788933D01*
X-4416067Y-9788933D01*
X-4416067Y-10001067D01*
X-4203933Y-10001067D01*
X-4084933Y147933D02*
X-4084933Y360067D01*
X-4297067Y360067D01*
X-4297067Y147933D01*
X-4084933Y147933D01*
X-4084933Y-1757067D02*
X-4084933Y-1544933D01*
X-4297067Y-1544933D01*
X-4297067Y-1757067D01*
X-4084933Y-1757067D01*
X-4084933Y-3662067D02*
X-4084933Y-3449933D01*
X-4297067Y-3449933D01*
X-4297067Y-3662067D01*
X-4084933Y-3662067D01*
X-4084933Y-5567067D02*
X-4084933Y-5354933D01*
X-4297067Y-5354933D01*
X-4297067Y-5567067D01*
X-4084933Y-5567067D01*
X-4084933Y-7472067D02*
X-4084933Y-7259933D01*
X-4297067Y-7259933D01*
X-4297067Y-7472067D01*
X-4084933Y-7472067D01*
X-4084933Y-9377067D02*
X-4084933Y-9164933D01*
X-4297067Y-9164933D01*
X-4297067Y-9377067D01*
X-4084933Y-9377067D01*
X-3703933Y-696067D02*
X-3703933Y-483933D01*
X-3916067Y-483933D01*
X-3916067Y-696067D01*
X-3703933Y-696067D01*
X-3703933Y-2601067D02*
X-3703933Y-2388933D01*
X-3916067Y-2388933D01*
X-3916067Y-2601067D01*
X-3703933Y-2601067D01*
X-3703933Y-4506067D02*
X-3703933Y-4293933D01*
X-3916067Y-4293933D01*
X-3916067Y-4506067D01*
X-3703933Y-4506067D01*
X-3703933Y-6411067D02*
X-3703933Y-6198933D01*
X-3916067Y-6198933D01*
X-3916067Y-6411067D01*
X-3703933Y-6411067D01*
X-3703933Y-8316067D02*
X-3703933Y-8103933D01*
X-3916067Y-8103933D01*
X-3916067Y-8316067D01*
X-3703933Y-8316067D01*
X-3703933Y-10221067D02*
X-3703933Y-10008933D01*
X-3916067Y-10008933D01*
X-3916067Y-10221067D01*
X-3703933Y-10221067D01*
X-3449933Y401933D02*
X-3449933Y614067D01*
X-3662067Y614067D01*
X-3662067Y401933D01*
X-3449933Y401933D01*
X-3449933Y-1503067D02*
X-3449933Y-1290933D01*
X-3662067Y-1290933D01*
X-3662067Y-1503067D01*
X-3449933Y-1503067D01*
X-3449933Y-3408067D02*
X-3449933Y-3195933D01*
X-3662067Y-3195933D01*
X-3662067Y-3408067D01*
X-3449933Y-3408067D01*
X-3449933Y-5313067D02*
X-3449933Y-5100933D01*
X-3662067Y-5100933D01*
X-3662067Y-5313067D01*
X-3449933Y-5313067D01*
X-3449933Y-7218067D02*
X-3449933Y-7005933D01*
X-3662067Y-7005933D01*
X-3662067Y-7218067D01*
X-3449933Y-7218067D01*
X-3449933Y-9123067D02*
X-3449933Y-8910933D01*
X-3662067Y-8910933D01*
X-3662067Y-9123067D01*
X-3449933Y-9123067D01*
X-2298933Y-476067D02*
X-2298933Y-263933D01*
X-2511067Y-263933D01*
X-2511067Y-476067D01*
X-2298933Y-476067D01*
X-2298933Y-2381067D02*
X-2298933Y-2168933D01*
X-2511067Y-2168933D01*
X-2511067Y-2381067D01*
X-2298933Y-2381067D01*
X-2298933Y-4286067D02*
X-2298933Y-4073933D01*
X-2511067Y-4073933D01*
X-2511067Y-4286067D01*
X-2298933Y-4286067D01*
X-2298933Y-6191067D02*
X-2298933Y-5978933D01*
X-2511067Y-5978933D01*
X-2511067Y-6191067D01*
X-2298933Y-6191067D01*
X-2298933Y-8096067D02*
X-2298933Y-7883933D01*
X-2511067Y-7883933D01*
X-2511067Y-8096067D01*
X-2298933Y-8096067D01*
X-2298933Y-10001067D02*
X-2298933Y-9788933D01*
X-2511067Y-9788933D01*
X-2511067Y-10001067D01*
X-2298933Y-10001067D01*
X-2179933Y147933D02*
X-2179933Y360067D01*
X-2392067Y360067D01*
X-2392067Y147933D01*
X-2179933Y147933D01*
X-2179933Y-1757067D02*
X-2179933Y-1544933D01*
X-2392067Y-1544933D01*
X-2392067Y-1757067D01*
X-2179933Y-1757067D01*
X-2179933Y-3662067D02*
X-2179933Y-3449933D01*
X-2392067Y-3449933D01*
X-2392067Y-3662067D01*
X-2179933Y-3662067D01*
X-2179933Y-5567067D02*
X-2179933Y-5354933D01*
X-2392067Y-5354933D01*
X-2392067Y-5567067D01*
X-2179933Y-5567067D01*
X-2179933Y-7472067D02*
X-2179933Y-7259933D01*
X-2392067Y-7259933D01*
X-2392067Y-7472067D01*
X-2179933Y-7472067D01*
X-2179933Y-9377067D02*
X-2179933Y-9164933D01*
X-2392067Y-9164933D01*
X-2392067Y-9377067D01*
X-2179933Y-9377067D01*
X-1798933Y-696067D02*
X-1798933Y-483933D01*
X-2011067Y-483933D01*
X-2011067Y-696067D01*
X-1798933Y-696067D01*
X-1798933Y-2601067D02*
X-1798933Y-2388933D01*
X-2011067Y-2388933D01*
X-2011067Y-2601067D01*
X-1798933Y-2601067D01*
X-1798933Y-4506067D02*
X-1798933Y-4293933D01*
X-2011067Y-4293933D01*
X-2011067Y-4506067D01*
X-1798933Y-4506067D01*
X-1798933Y-6411067D02*
X-1798933Y-6198933D01*
X-2011067Y-6198933D01*
X-2011067Y-6411067D01*
X-1798933Y-6411067D01*
X-1798933Y-8316067D02*
X-1798933Y-8103933D01*
X-2011067Y-8103933D01*
X-2011067Y-8316067D01*
X-1798933Y-8316067D01*
X-1798933Y-10221067D02*
X-1798933Y-10008933D01*
X-2011067Y-10008933D01*
X-2011067Y-10221067D01*
X-1798933Y-10221067D01*
X-1544933Y401933D02*
X-1544933Y614067D01*
X-1757067Y614067D01*
X-1757067Y401933D01*
X-1544933Y401933D01*
X-1544933Y-1503067D02*
X-1544933Y-1290933D01*
X-1757067Y-1290933D01*
X-1757067Y-1503067D01*
X-1544933Y-1503067D01*
X-1544933Y-3408067D02*
X-1544933Y-3195933D01*
X-1757067Y-3195933D01*
X-1757067Y-3408067D01*
X-1544933Y-3408067D01*
X-1544933Y-5313067D02*
X-1544933Y-5100933D01*
X-1757067Y-5100933D01*
X-1757067Y-5313067D01*
X-1544933Y-5313067D01*
X-1544933Y-7218067D02*
X-1544933Y-7005933D01*
X-1757067Y-7005933D01*
X-1757067Y-7218067D01*
X-1544933Y-7218067D01*
X-1544933Y-9123067D02*
X-1544933Y-8910933D01*
X-1757067Y-8910933D01*
X-1757067Y-9123067D01*
X-1544933Y-9123067D01*
X-393933Y-476067D02*
X-393933Y-263933D01*
X-606067Y-263933D01*
X-606067Y-476067D01*
X-393933Y-476067D01*
X-393933Y-2381067D02*
X-393933Y-2168933D01*
X-606067Y-2168933D01*
X-606067Y-2381067D01*
X-393933Y-2381067D01*
X-393933Y-4286067D02*
X-393933Y-4073933D01*
X-606067Y-4073933D01*
X-606067Y-4286067D01*
X-393933Y-4286067D01*
X-393933Y-6191067D02*
X-393933Y-5978933D01*
X-606067Y-5978933D01*
X-606067Y-6191067D01*
X-393933Y-6191067D01*
X-393933Y-8096067D02*
X-393933Y-7883933D01*
X-606067Y-7883933D01*
X-606067Y-8096067D01*
X-393933Y-8096067D01*
X-393933Y-10001067D02*
X-393933Y-9788933D01*
X-606067Y-9788933D01*
X-606067Y-10001067D01*
X-393933Y-10001067D01*
X-274933Y147933D02*
X-274933Y360067D01*
X-487067Y360067D01*
X-487067Y147933D01*
X-274933Y147933D01*
X-274933Y-1757067D02*
X-274933Y-1544933D01*
X-487067Y-1544933D01*
X-487067Y-1757067D01*
X-274933Y-1757067D01*
X-274933Y-3662067D02*
X-274933Y-3449933D01*
X-487067Y-3449933D01*
X-487067Y-3662067D01*
X-274933Y-3662067D01*
X-274933Y-5567067D02*
X-274933Y-5354933D01*
X-487067Y-5354933D01*
X-487067Y-5567067D01*
X-274933Y-5567067D01*
X-274933Y-7472067D02*
X-274933Y-7259933D01*
X-487067Y-7259933D01*
X-487067Y-7472067D01*
X-274933Y-7472067D01*
X-274933Y-9377067D02*
X-274933Y-9164933D01*
X-487067Y-9164933D01*
X-487067Y-9377067D01*
X-274933Y-9377067D01*
X106067Y-696067D02*
X106067Y-483933D01*
X-106067Y-483933D01*
X-106067Y-696067D01*
X106067Y-696067D01*
X106067Y-2601067D02*
X106067Y-2388933D01*
X-106067Y-2388933D01*
X-106067Y-2601067D01*
X106067Y-2601067D01*
X106067Y-4506067D02*
X106067Y-4293933D01*
X-106067Y-4293933D01*
X-106067Y-4506067D01*
X106067Y-4506067D01*
X106067Y-6411067D02*
X106067Y-6198933D01*
X-106067Y-6198933D01*
X-106067Y-6411067D01*
X106067Y-6411067D01*
X106067Y-8316067D02*
X106067Y-8103933D01*
X-106067Y-8103933D01*
X-106067Y-8316067D01*
X106067Y-8316067D01*
X106067Y-10221067D02*
X106067Y-10008933D01*
X-106067Y-10008933D01*
X-106067Y-10221067D01*
X106067Y-10221067D01*
X360067Y401933D02*
X360067Y614067D01*
X147933Y614067D01*
X147933Y401933D01*
X360067Y401933D01*
X360067Y-1503067D02*
X360067Y-1290933D01*
X147933Y-1290933D01*
X147933Y-1503067D01*
X360067Y-1503067D01*
X360067Y-3408067D02*
X360067Y-3195933D01*
X147933Y-3195933D01*
X147933Y-3408067D01*
X360067Y-3408067D01*
X360067Y-5313067D02*
X360067Y-5100933D01*
X147933Y-5100933D01*
X147933Y-5313067D01*
X360067Y-5313067D01*
X360067Y-7218067D02*
X360067Y-7005933D01*
X147933Y-7005933D01*
X147933Y-7218067D01*
X360067Y-7218067D01*
X360067Y-9123067D02*
X360067Y-8910933D01*
X147933Y-8910933D01*
X147933Y-9123067D01*
X360067Y-9123067D01*
D16*
X-9525000Y-200000D02*
X-9325000Y0D01*
X-9525000Y200000D01*
X-9725000Y0D01*
X-9525000Y-200000D01*
X-9525000Y-2105000D02*
X-9325000Y-1905000D01*
X-9525000Y-1705000D01*
X-9725000Y-1905000D01*
X-9525000Y-2105000D01*
X-9525000Y-4010000D02*
X-9325000Y-3810000D01*
X-9525000Y-3610000D01*
X-9725000Y-3810000D01*
X-9525000Y-4010000D01*
X-9525000Y-5915000D02*
X-9325000Y-5715000D01*
X-9525000Y-5515000D01*
X-9725000Y-5715000D01*
X-9525000Y-5915000D01*
X-9525000Y-7820000D02*
X-9325000Y-7620000D01*
X-9525000Y-7420000D01*
X-9725000Y-7620000D01*
X-9525000Y-7820000D01*
X-9525000Y-9725000D02*
X-9325000Y-9525000D01*
X-9525000Y-9325000D01*
X-9725000Y-9525000D01*
X-9525000Y-9725000D01*
X-7620000Y-200000D02*
X-7420000Y0D01*
X-7620000Y200000D01*
X-7820000Y0D01*
X-7620000Y-200000D01*
X-7620000Y-2105000D02*
X-7420000Y-1905000D01*
X-7620000Y-1705000D01*
X-7820000Y-1905000D01*
X-7620000Y-2105000D01*
X-7620000Y-4010000D02*
X-7420000Y-3810000D01*
X-7620000Y-3610000D01*
X-7820000Y-3810000D01*
X-7620000Y-4010000D01*
X-7620000Y-5915000D02*
X-7420000Y-5715000D01*
X-7620000Y-5515000D01*
X-7820000Y-5715000D01*
X-7620000Y-5915000D01*
X-7620000Y-7820000D02*
X-7420000Y-7620000D01*
X-7620000Y-7420000D01*
X-7820000Y-7620000D01*
X-7620000Y-7820000D01*
X-7620000Y-9725000D02*
X-7420000Y-9525000D01*
X-7620000Y-9325000D01*
X-7820000Y-9525000D01*
X-7620000Y-9725000D01*
X-5715000Y-200000D02*
X-5515000Y0D01*
X-5715000Y200000D01*
X-5915000Y0D01*
X-5715000Y-200000D01*
X-5715000Y-2105000D02*
X-5515000Y-1905000D01*
X-5715000Y-1705000D01*
X-5915000Y-1905000D01*
X-5715000Y-2105000D01*
X-5715000Y-4010000D02*
X-5515000Y-3810000D01*
X-5715000Y-3610000D01*
X-5915000Y-3810000D01*
X-5715000Y-4010000D01*
X-5715000Y-5915000D02*
X-5515000Y-5715000D01*
X-5715000Y-5515000D01*
X-5915000Y-5715000D01*
X-5715000Y-5915000D01*
X-5715000Y-7820000D02*
X-5515000Y-7620000D01*
X-5715000Y-7420000D01*
X-5915000Y-7620000D01*
X-5715000Y-7820000D01*
X-5715000Y-9725000D02*
X-5515000Y-9525000D01*
X-5715000Y-9325000D01*
X-5915000Y-9525000D01*
X-5715000Y-9725000D01*
X-3810000Y-200000D02*
X-3610000Y0D01*
X-3810000Y200000D01*
X-4010000Y0D01*
X-3810000Y-200000D01*
X-3810000Y-2105000D02*
X-3610000Y-1905000D01*
X-3810000Y-1705000D01*
X-4010000Y-1905000D01*
X-3810000Y-2105000D01*
X-3810000Y-4010000D02*
X-3610000Y-3810000D01*
X-3810000Y-3610000D01*
X-4010000Y-3810000D01*
X-3810000Y-4010000D01*
X-3810000Y-5915000D02*
X-3610000Y-5715000D01*
X-3810000Y-5515000D01*
X-4010000Y-5715000D01*
X-3810000Y-5915000D01*
X-3810000Y-7820000D02*
X-3610000Y-7620000D01*
X-3810000Y-7420000D01*
X-4010000Y-7620000D01*
X-3810000Y-7820000D01*
X-3810000Y-9725000D02*
X-3610000Y-9525000D01*
X-3810000Y-9325000D01*
X-4010000Y-9525000D01*
X-3810000Y-9725000D01*
X-1905000Y-200000D02*
X-1705000Y0D01*
X-1905000Y200000D01*
X-2105000Y0D01*
X-1905000Y-200000D01*
X-1905000Y-2105000D02*
X-1705000Y-1905000D01*
X-1905000Y-1705000D01*
X-2105000Y-1905000D01*
X-1905000Y-2105000D01*
X-1905000Y-4010000D02*
X-1705000Y-3810000D01*
X-1905000Y-3610000D01*
X-2105000Y-3810000D01*
X-1905000Y-4010000D01*
X-1905000Y-5915000D02*
X-1705000Y-5715000D01*
X-1905000Y-5515000D01*
X-2105000Y-5715000D01*
X-1905000Y-5915000D01*
X-1905000Y-7820000D02*
X-1705000Y-7620000D01*
X-1905000Y-7420000D01*
X-2105000Y-7620000D01*
X-1905000Y-7820000D01*
X-1905000Y-9725000D02*
X-1705000Y-9525000D01*
X-1905000Y-9325000D01*
X-2105000Y-9525000D01*
X-1905000Y-9725000D01*
X0Y-200000D02*
X200000Y0D01*
X0Y200000D01*
X-200000Y0D01*
X0Y-200000D01*
X0Y-2105000D02*
X200000Y-1905000D01*
X0Y-1705000D01*
X-200000Y-1905000D01*
X0Y-2105000D01*
X0Y-4010000D02*
X200000Y-3810000D01*
X0Y-3610000D01*
X-200000Y-3810000D01*
X0Y-4010000D01*
X0Y-5915000D02*
X200000Y-5715000D01*
X0Y-5515000D01*
X-200000Y-5715000D01*
X0Y-5915000D01*
X0Y-7820000D02*
X200000Y-7620000D01*
X0Y-7420000D01*
X-200000Y-7620000D01*
X0Y-7820000D01*
X0Y-9725000D02*
X200000Y-9525000D01*
X0Y-9325000D01*
X-200000Y-9525000D01*
X0Y-9725000D01*
D11*
X-10225881Y-10793976D02*
X-10225881Y-10593976D01*
X-10178262Y-10593976D01*
X-10149691Y-10603500D01*
X-10130643Y-10622548D01*
X-10121119Y-10641595D01*
X-10111595Y-10679690D01*
X-10111595Y-10708262D01*
X-10121119Y-10746357D01*
X-10130643Y-10765405D01*
X-10149691Y-10784452D01*
X-10178262Y-10793976D01*
X-10225881Y-10793976D01*
X-10025881Y-10793976D02*
X-10025881Y-10660643D01*
X-10025881Y-10698738D02*
X-10016357Y-10679690D01*
X-10006833Y-10670167D01*
X-9987786Y-10660643D01*
X-9968738Y-10660643D01*
X-9902072Y-10793976D02*
X-9902072Y-10660643D01*
X-9902072Y-10593976D02*
X-9911595Y-10603500D01*
X-9902072Y-10613024D01*
X-9892548Y-10603500D01*
X-9902072Y-10593976D01*
X-9902072Y-10613024D01*
X-9778262Y-10793976D02*
X-9797310Y-10784452D01*
X-9806833Y-10765405D01*
X-9806833Y-10593976D01*
X-9673500Y-10793976D02*
X-9692548Y-10784452D01*
X-9702072Y-10765405D01*
X-9702072Y-10593976D01*
X-9444929Y-10793976D02*
X-9444929Y-10593976D01*
X-9378262Y-10736833D01*
X-9311595Y-10593976D01*
X-9311595Y-10793976D01*
X-9130643Y-10793976D02*
X-9130643Y-10689214D01*
X-9140167Y-10670167D01*
X-9159214Y-10660643D01*
X-9197310Y-10660643D01*
X-9216357Y-10670167D01*
X-9130643Y-10784452D02*
X-9149691Y-10793976D01*
X-9197310Y-10793976D01*
X-9216357Y-10784452D01*
X-9225881Y-10765405D01*
X-9225881Y-10746357D01*
X-9216357Y-10727310D01*
X-9197310Y-10717786D01*
X-9149691Y-10717786D01*
X-9130643Y-10708262D01*
X-9035405Y-10660643D02*
X-9035405Y-10860643D01*
X-9035405Y-10670167D02*
X-9016357Y-10660643D01*
X-8978262Y-10660643D01*
X-8959214Y-10670167D01*
X-8949691Y-10679690D01*
X-8940167Y-10698738D01*
X-8940167Y-10755881D01*
X-8949691Y-10774929D01*
X-8959214Y-10784452D01*
X-8978262Y-10793976D01*
X-9016357Y-10793976D01*
X-9035405Y-10784452D01*
X-8854452Y-10774929D02*
X-8844929Y-10784452D01*
X-8854452Y-10793976D01*
X-8863976Y-10784452D01*
X-8854452Y-10774929D01*
X-8854452Y-10793976D01*
X-8854452Y-10670167D02*
X-8844929Y-10679690D01*
X-8854452Y-10689214D01*
X-8863976Y-10679690D01*
X-8854452Y-10670167D01*
X-8854452Y-10689214D01*
D12*
X-10653500Y-11038500D02*
X-10483500Y-11208500D01*
X-10483500Y-11038500D02*
X-10653500Y-11208500D01*
D11*
X-10121119Y-11213976D02*
X-10235405Y-11213976D01*
X-10178262Y-11213976D02*
X-10178262Y-11013976D01*
X-10197310Y-11042548D01*
X-10216357Y-11061595D01*
X-10235405Y-11071119D01*
X-10035405Y-11194928D02*
X-10025881Y-11204452D01*
X-10035405Y-11213976D01*
X-10044929Y-11204452D01*
X-10035405Y-11194928D01*
X-10035405Y-11213976D01*
X-9959214Y-11013976D02*
X-9825881Y-11013976D01*
X-9911595Y-11213976D01*
X-9711595Y-11013976D02*
X-9692548Y-11013976D01*
X-9673500Y-11023500D01*
X-9663976Y-11033024D01*
X-9654452Y-11052071D01*
X-9644929Y-11090167D01*
X-9644929Y-11137786D01*
X-9654452Y-11175881D01*
X-9663976Y-11194928D01*
X-9673500Y-11204452D01*
X-9692548Y-11213976D01*
X-9711595Y-11213976D01*
X-9730643Y-11204452D01*
X-9740167Y-11194928D01*
X-9749691Y-11175881D01*
X-9759214Y-11137786D01*
X-9759214Y-11090167D01*
X-9749691Y-11052071D01*
X-9740167Y-11033024D01*
X-9730643Y-11023500D01*
X-9711595Y-11013976D01*
X-9521119Y-11013976D02*
X-9502072Y-11013976D01*
X-9483024Y-11023500D01*
X-9473500Y-11033024D01*
X-9463976Y-11052071D01*
X-9454452Y-11090167D01*
X-9454452Y-11137786D01*
X-9463976Y-11175881D01*
X-9473500Y-11194928D01*
X-9483024Y-11204452D01*
X-9502072Y-11213976D01*
X-9521119Y-11213976D01*
X-9540167Y-11204452D01*
X-9549691Y-11194928D01*
X-9559214Y-11175881D01*
X-9568738Y-11137786D01*
X-9568738Y-11090167D01*
X-9559214Y-11052071D01*
X-9549691Y-11033024D01*
X-9540167Y-11023500D01*
X-9521119Y-11013976D01*
X-9368738Y-11213976D02*
X-9368738Y-11080643D01*
X-9368738Y-11099690D02*
X-9359214Y-11090167D01*
X-9340167Y-11080643D01*
X-9311595Y-11080643D01*
X-9292548Y-11090167D01*
X-9283024Y-11109214D01*
X-9283024Y-11213976D01*
X-9283024Y-11109214D02*
X-9273500Y-11090167D01*
X-9254452Y-11080643D01*
X-9225881Y-11080643D01*
X-9206833Y-11090167D01*
X-9197310Y-11109214D01*
X-9197310Y-11213976D01*
X-9102072Y-11213976D02*
X-9102072Y-11080643D01*
X-9102072Y-11099690D02*
X-9092548Y-11090167D01*
X-9073500Y-11080643D01*
X-9044929Y-11080643D01*
X-9025881Y-11090167D01*
X-9016357Y-11109214D01*
X-9016357Y-11213976D01*
X-9016357Y-11109214D02*
X-9006833Y-11090167D01*
X-8987786Y-11080643D01*
X-8959214Y-11080643D01*
X-8940167Y-11090167D01*
X-8930643Y-11109214D01*
X-8930643Y-11213976D01*
X-8540167Y-11004452D02*
X-8711595Y-11261595D01*
X-8283024Y-11013976D02*
X-8263976Y-11013976D01*
X-8244929Y-11023500D01*
X-8235405Y-11033024D01*
X-8225881Y-11052071D01*
X-8216357Y-11090167D01*
X-8216357Y-11137786D01*
X-8225881Y-11175881D01*
X-8235405Y-11194928D01*
X-8244929Y-11204452D01*
X-8263976Y-11213976D01*
X-8283024Y-11213976D01*
X-8302071Y-11204452D01*
X-8311595Y-11194928D01*
X-8321119Y-11175881D01*
X-8330643Y-11137786D01*
X-8330643Y-11090167D01*
X-8321119Y-11052071D01*
X-8311595Y-11033024D01*
X-8302071Y-11023500D01*
X-8283024Y-11013976D01*
X-8130643Y-11194928D02*
X-8121119Y-11204452D01*
X-8130643Y-11213976D01*
X-8140167Y-11204452D01*
X-8130643Y-11194928D01*
X-8130643Y-11213976D01*
X-7997310Y-11013976D02*
X-7978262Y-11013976D01*
X-7959214Y-11023500D01*
X-7949690Y-11033024D01*
X-7940167Y-11052071D01*
X-7930643Y-11090167D01*
X-7930643Y-11137786D01*
X-7940167Y-11175881D01*
X-7949690Y-11194928D01*
X-7959214Y-11204452D01*
X-7978262Y-11213976D01*
X-7997310Y-11213976D01*
X-8016357Y-11204452D01*
X-8025881Y-11194928D01*
X-8035405Y-11175881D01*
X-8044929Y-11137786D01*
X-8044929Y-11090167D01*
X-8035405Y-11052071D01*
X-8025881Y-11033024D01*
X-8016357Y-11023500D01*
X-7997310Y-11013976D01*
X-7759214Y-11013976D02*
X-7797310Y-11013976D01*
X-7816357Y-11023500D01*
X-7825881Y-11033024D01*
X-7844929Y-11061595D01*
X-7854452Y-11099690D01*
X-7854452Y-11175881D01*
X-7844929Y-11194928D01*
X-7835405Y-11204452D01*
X-7816357Y-11213976D01*
X-7778262Y-11213976D01*
X-7759214Y-11204452D01*
X-7749690Y-11194928D01*
X-7740167Y-11175881D01*
X-7740167Y-11128262D01*
X-7749690Y-11109214D01*
X-7759214Y-11099690D01*
X-7778262Y-11090167D01*
X-7816357Y-11090167D01*
X-7835405Y-11099690D01*
X-7844929Y-11109214D01*
X-7854452Y-11128262D01*
X-7568738Y-11013976D02*
X-7606833Y-11013976D01*
X-7625881Y-11023500D01*
X-7635405Y-11033024D01*
X-7654452Y-11061595D01*
X-7663976Y-11099690D01*
X-7663976Y-11175881D01*
X-7654452Y-11194928D01*
X-7644929Y-11204452D01*
X-7625881Y-11213976D01*
X-7587786Y-11213976D01*
X-7568738Y-11204452D01*
X-7559214Y-11194928D01*
X-7549690Y-11175881D01*
X-7549690Y-11128262D01*
X-7559214Y-11109214D01*
X-7568738Y-11099690D01*
X-7587786Y-11090167D01*
X-7625881Y-11090167D01*
X-7644929Y-11099690D01*
X-7654452Y-11109214D01*
X-7663976Y-11128262D01*
X-7454452Y-11213976D02*
X-7416357Y-11213976D01*
X-7397310Y-11204452D01*
X-7387786Y-11194928D01*
X-7368738Y-11166357D01*
X-7359214Y-11128262D01*
X-7359214Y-11052071D01*
X-7368738Y-11033024D01*
X-7378262Y-11023500D01*
X-7397310Y-11013976D01*
X-7435405Y-11013976D01*
X-7454452Y-11023500D01*
X-7463976Y-11033024D01*
X-7473500Y-11052071D01*
X-7473500Y-11099690D01*
X-7463976Y-11118738D01*
X-7454452Y-11128262D01*
X-7435405Y-11137786D01*
X-7397310Y-11137786D01*
X-7378262Y-11128262D01*
X-7368738Y-11118738D01*
X-7359214Y-11099690D01*
X-7283024Y-11013976D02*
X-7283024Y-11052071D01*
X-7206833Y-11013976D02*
X-7206833Y-11052071D01*
X-6911595Y-11290167D02*
X-6921119Y-11280643D01*
X-6940167Y-11252071D01*
X-6949690Y-11233024D01*
X-6959214Y-11204452D01*
X-6968738Y-11156833D01*
X-6968738Y-11118738D01*
X-6959214Y-11071119D01*
X-6949690Y-11042548D01*
X-6940167Y-11023500D01*
X-6921119Y-10994929D01*
X-6911595Y-10985405D01*
X-6854452Y-11013976D02*
X-6721119Y-11013976D01*
X-6806833Y-11213976D01*
X-6654452Y-11033024D02*
X-6644929Y-11023500D01*
X-6625881Y-11013976D01*
X-6578262Y-11013976D01*
X-6559214Y-11023500D01*
X-6549690Y-11033024D01*
X-6540167Y-11052071D01*
X-6540167Y-11071119D01*
X-6549690Y-11099690D01*
X-6663976Y-11213976D01*
X-6540167Y-11213976D01*
X-6302071Y-11213976D02*
X-6302071Y-11013976D01*
X-6216357Y-11213976D02*
X-6216357Y-11109214D01*
X-6225881Y-11090167D01*
X-6244929Y-11080643D01*
X-6273500Y-11080643D01*
X-6292548Y-11090167D01*
X-6302071Y-11099690D01*
X-6092548Y-11213976D02*
X-6111595Y-11204452D01*
X-6121119Y-11194928D01*
X-6130643Y-11175881D01*
X-6130643Y-11118738D01*
X-6121119Y-11099690D01*
X-6111595Y-11090167D01*
X-6092548Y-11080643D01*
X-6063976Y-11080643D01*
X-6044929Y-11090167D01*
X-6035405Y-11099690D01*
X-6025881Y-11118738D01*
X-6025881Y-11175881D01*
X-6035405Y-11194928D01*
X-6044929Y-11204452D01*
X-6063976Y-11213976D01*
X-6092548Y-11213976D01*
X-5911595Y-11213976D02*
X-5930643Y-11204452D01*
X-5940167Y-11185405D01*
X-5940167Y-11013976D01*
X-5759214Y-11204452D02*
X-5778262Y-11213976D01*
X-5816357Y-11213976D01*
X-5835405Y-11204452D01*
X-5844929Y-11185405D01*
X-5844929Y-11109214D01*
X-5835405Y-11090167D01*
X-5816357Y-11080643D01*
X-5778262Y-11080643D01*
X-5759214Y-11090167D01*
X-5749690Y-11109214D01*
X-5749690Y-11128262D01*
X-5844929Y-11147310D01*
X-5673500Y-11204452D02*
X-5654452Y-11213976D01*
X-5616357Y-11213976D01*
X-5597310Y-11204452D01*
X-5587786Y-11185405D01*
X-5587786Y-11175881D01*
X-5597310Y-11156833D01*
X-5616357Y-11147310D01*
X-5644929Y-11147310D01*
X-5663976Y-11137786D01*
X-5673500Y-11118738D01*
X-5673500Y-11109214D01*
X-5663976Y-11090167D01*
X-5644929Y-11080643D01*
X-5616357Y-11080643D01*
X-5597310Y-11090167D01*
X-5521119Y-11290167D02*
X-5511595Y-11280643D01*
X-5492548Y-11252071D01*
X-5483024Y-11233024D01*
X-5473500Y-11204452D01*
X-5463976Y-11156833D01*
X-5463976Y-11118738D01*
X-5473500Y-11071119D01*
X-5483024Y-11042548D01*
X-5492548Y-11023500D01*
X-5511595Y-10994929D01*
X-5521119Y-10985405D01*
X-5159214Y-11290167D02*
X-5168738Y-11280643D01*
X-5187786Y-11252071D01*
X-5197310Y-11233024D01*
X-5206833Y-11204452D01*
X-5216357Y-11156833D01*
X-5216357Y-11118738D01*
X-5206833Y-11071119D01*
X-5197310Y-11042548D01*
X-5187786Y-11023500D01*
X-5168738Y-10994929D01*
X-5159214Y-10985405D01*
X-5083024Y-11080643D02*
X-5083024Y-11213976D01*
X-5083024Y-11099690D02*
X-5073500Y-11090167D01*
X-5054452Y-11080643D01*
X-5025881Y-11080643D01*
X-5006833Y-11090167D01*
X-4997310Y-11109214D01*
X-4997310Y-11213976D01*
X-4873500Y-11213976D02*
X-4892548Y-11204452D01*
X-4902072Y-11194928D01*
X-4911595Y-11175881D01*
X-4911595Y-11118738D01*
X-4902072Y-11099690D01*
X-4892548Y-11090167D01*
X-4873500Y-11080643D01*
X-4844929Y-11080643D01*
X-4825881Y-11090167D01*
X-4816357Y-11099690D01*
X-4806833Y-11118738D01*
X-4806833Y-11175881D01*
X-4816357Y-11194928D01*
X-4825881Y-11204452D01*
X-4844929Y-11213976D01*
X-4873500Y-11213976D01*
X-4749691Y-11080643D02*
X-4673500Y-11080643D01*
X-4721119Y-11013976D02*
X-4721119Y-11185405D01*
X-4711595Y-11204452D01*
X-4692548Y-11213976D01*
X-4673500Y-11213976D01*
X-4454452Y-11080643D02*
X-4454452Y-11280643D01*
X-4454452Y-11090167D02*
X-4435405Y-11080643D01*
X-4397310Y-11080643D01*
X-4378262Y-11090167D01*
X-4368738Y-11099690D01*
X-4359214Y-11118738D01*
X-4359214Y-11175881D01*
X-4368738Y-11194928D01*
X-4378262Y-11204452D01*
X-4397310Y-11213976D01*
X-4435405Y-11213976D01*
X-4454452Y-11204452D01*
X-4244929Y-11213976D02*
X-4263976Y-11204452D01*
X-4273500Y-11185405D01*
X-4273500Y-11013976D01*
X-4083024Y-11213976D02*
X-4083024Y-11109214D01*
X-4092548Y-11090167D01*
X-4111595Y-11080643D01*
X-4149690Y-11080643D01*
X-4168738Y-11090167D01*
X-4083024Y-11204452D02*
X-4102071Y-11213976D01*
X-4149690Y-11213976D01*
X-4168738Y-11204452D01*
X-4178262Y-11185405D01*
X-4178262Y-11166357D01*
X-4168738Y-11147310D01*
X-4149690Y-11137786D01*
X-4102071Y-11137786D01*
X-4083024Y-11128262D01*
X-4016357Y-11080643D02*
X-3940167Y-11080643D01*
X-3987786Y-11013976D02*
X-3987786Y-11185405D01*
X-3978262Y-11204452D01*
X-3959214Y-11213976D01*
X-3940167Y-11213976D01*
X-3797310Y-11204452D02*
X-3816357Y-11213976D01*
X-3854452Y-11213976D01*
X-3873500Y-11204452D01*
X-3883024Y-11185405D01*
X-3883024Y-11109214D01*
X-3873500Y-11090167D01*
X-3854452Y-11080643D01*
X-3816357Y-11080643D01*
X-3797310Y-11090167D01*
X-3787786Y-11109214D01*
X-3787786Y-11128262D01*
X-3883024Y-11147310D01*
X-3616357Y-11213976D02*
X-3616357Y-11013976D01*
X-3616357Y-11204452D02*
X-3635405Y-11213976D01*
X-3673500Y-11213976D01*
X-3692548Y-11204452D01*
X-3702071Y-11194928D01*
X-3711595Y-11175881D01*
X-3711595Y-11118738D01*
X-3702071Y-11099690D01*
X-3692548Y-11090167D01*
X-3673500Y-11080643D01*
X-3635405Y-11080643D01*
X-3616357Y-11090167D01*
X-3540167Y-11290167D02*
X-3530643Y-11280643D01*
X-3511595Y-11252071D01*
X-3502071Y-11233024D01*
X-3492548Y-11204452D01*
X-3483024Y-11156833D01*
X-3483024Y-11118738D01*
X-3492548Y-11071119D01*
X-3502071Y-11042548D01*
X-3511595Y-11023500D01*
X-3530643Y-10994929D01*
X-3540167Y-10985405D01*
D13*
X-10483500Y-11413500D02*
G75*
G03*
X-10483500Y-11413500I-95000J0D01*
G01*
D11*
X-10121119Y-11503976D02*
X-10235405Y-11503976D01*
X-10178262Y-11503976D02*
X-10178262Y-11303976D01*
X-10197310Y-11332548D01*
X-10216357Y-11351595D01*
X-10235405Y-11361119D01*
X-10035405Y-11484928D02*
X-10025881Y-11494452D01*
X-10035405Y-11503976D01*
X-10044929Y-11494452D01*
X-10035405Y-11484928D01*
X-10035405Y-11503976D01*
X-9930643Y-11503976D02*
X-9892548Y-11503976D01*
X-9873500Y-11494452D01*
X-9863976Y-11484928D01*
X-9844929Y-11456357D01*
X-9835405Y-11418262D01*
X-9835405Y-11342071D01*
X-9844929Y-11323024D01*
X-9854452Y-11313500D01*
X-9873500Y-11303976D01*
X-9911595Y-11303976D01*
X-9930643Y-11313500D01*
X-9940167Y-11323024D01*
X-9949691Y-11342071D01*
X-9949691Y-11389690D01*
X-9940167Y-11408738D01*
X-9930643Y-11418262D01*
X-9911595Y-11427786D01*
X-9873500Y-11427786D01*
X-9854452Y-11418262D01*
X-9844929Y-11408738D01*
X-9835405Y-11389690D01*
X-9711595Y-11303976D02*
X-9692548Y-11303976D01*
X-9673500Y-11313500D01*
X-9663976Y-11323024D01*
X-9654452Y-11342071D01*
X-9644929Y-11380167D01*
X-9644929Y-11427786D01*
X-9654452Y-11465881D01*
X-9663976Y-11484928D01*
X-9673500Y-11494452D01*
X-9692548Y-11503976D01*
X-9711595Y-11503976D01*
X-9730643Y-11494452D01*
X-9740167Y-11484928D01*
X-9749691Y-11465881D01*
X-9759214Y-11427786D01*
X-9759214Y-11380167D01*
X-9749691Y-11342071D01*
X-9740167Y-11323024D01*
X-9730643Y-11313500D01*
X-9711595Y-11303976D01*
X-9521119Y-11303976D02*
X-9502072Y-11303976D01*
X-9483024Y-11313500D01*
X-9473500Y-11323024D01*
X-9463976Y-11342071D01*
X-9454452Y-11380167D01*
X-9454452Y-11427786D01*
X-9463976Y-11465881D01*
X-9473500Y-11484928D01*
X-9483024Y-11494452D01*
X-9502072Y-11503976D01*
X-9521119Y-11503976D01*
X-9540167Y-11494452D01*
X-9549691Y-11484928D01*
X-9559214Y-11465881D01*
X-9568738Y-11427786D01*
X-9568738Y-11380167D01*
X-9559214Y-11342071D01*
X-9549691Y-11323024D01*
X-9540167Y-11313500D01*
X-9521119Y-11303976D01*
X-9368738Y-11503976D02*
X-9368738Y-11370643D01*
X-9368738Y-11389690D02*
X-9359214Y-11380167D01*
X-9340167Y-11370643D01*
X-9311595Y-11370643D01*
X-9292548Y-11380167D01*
X-9283024Y-11399214D01*
X-9283024Y-11503976D01*
X-9283024Y-11399214D02*
X-9273500Y-11380167D01*
X-9254452Y-11370643D01*
X-9225881Y-11370643D01*
X-9206833Y-11380167D01*
X-9197310Y-11399214D01*
X-9197310Y-11503976D01*
X-9102072Y-11503976D02*
X-9102072Y-11370643D01*
X-9102072Y-11389690D02*
X-9092548Y-11380167D01*
X-9073500Y-11370643D01*
X-9044929Y-11370643D01*
X-9025881Y-11380167D01*
X-9016357Y-11399214D01*
X-9016357Y-11503976D01*
X-9016357Y-11399214D02*
X-9006833Y-11380167D01*
X-8987786Y-11370643D01*
X-8959214Y-11370643D01*
X-8940167Y-11380167D01*
X-8930643Y-11399214D01*
X-8930643Y-11503976D01*
X-8540167Y-11294452D02*
X-8711595Y-11551595D01*
X-8283024Y-11303976D02*
X-8263976Y-11303976D01*
X-8244929Y-11313500D01*
X-8235405Y-11323024D01*
X-8225881Y-11342071D01*
X-8216357Y-11380167D01*
X-8216357Y-11427786D01*
X-8225881Y-11465881D01*
X-8235405Y-11484928D01*
X-8244929Y-11494452D01*
X-8263976Y-11503976D01*
X-8283024Y-11503976D01*
X-8302071Y-11494452D01*
X-8311595Y-11484928D01*
X-8321119Y-11465881D01*
X-8330643Y-11427786D01*
X-8330643Y-11380167D01*
X-8321119Y-11342071D01*
X-8311595Y-11323024D01*
X-8302071Y-11313500D01*
X-8283024Y-11303976D01*
X-8130643Y-11484928D02*
X-8121119Y-11494452D01*
X-8130643Y-11503976D01*
X-8140167Y-11494452D01*
X-8130643Y-11484928D01*
X-8130643Y-11503976D01*
X-7997310Y-11303976D02*
X-7978262Y-11303976D01*
X-7959214Y-11313500D01*
X-7949690Y-11323024D01*
X-7940167Y-11342071D01*
X-7930643Y-11380167D01*
X-7930643Y-11427786D01*
X-7940167Y-11465881D01*
X-7949690Y-11484928D01*
X-7959214Y-11494452D01*
X-7978262Y-11503976D01*
X-7997310Y-11503976D01*
X-8016357Y-11494452D01*
X-8025881Y-11484928D01*
X-8035405Y-11465881D01*
X-8044929Y-11427786D01*
X-8044929Y-11380167D01*
X-8035405Y-11342071D01*
X-8025881Y-11323024D01*
X-8016357Y-11313500D01*
X-7997310Y-11303976D01*
X-7863976Y-11303976D02*
X-7730643Y-11303976D01*
X-7816357Y-11503976D01*
X-7568738Y-11370643D02*
X-7568738Y-11503976D01*
X-7616357Y-11294452D02*
X-7663976Y-11437309D01*
X-7540167Y-11437309D01*
X-7435405Y-11389690D02*
X-7454452Y-11380167D01*
X-7463976Y-11370643D01*
X-7473500Y-11351595D01*
X-7473500Y-11342071D01*
X-7463976Y-11323024D01*
X-7454452Y-11313500D01*
X-7435405Y-11303976D01*
X-7397310Y-11303976D01*
X-7378262Y-11313500D01*
X-7368738Y-11323024D01*
X-7359214Y-11342071D01*
X-7359214Y-11351595D01*
X-7368738Y-11370643D01*
X-7378262Y-11380167D01*
X-7397310Y-11389690D01*
X-7435405Y-11389690D01*
X-7454452Y-11399214D01*
X-7463976Y-11408738D01*
X-7473500Y-11427786D01*
X-7473500Y-11465881D01*
X-7463976Y-11484928D01*
X-7454452Y-11494452D01*
X-7435405Y-11503976D01*
X-7397310Y-11503976D01*
X-7378262Y-11494452D01*
X-7368738Y-11484928D01*
X-7359214Y-11465881D01*
X-7359214Y-11427786D01*
X-7368738Y-11408738D01*
X-7378262Y-11399214D01*
X-7397310Y-11389690D01*
X-7283024Y-11303976D02*
X-7283024Y-11342071D01*
X-7206833Y-11303976D02*
X-7206833Y-11342071D01*
X-6911595Y-11580167D02*
X-6921119Y-11570643D01*
X-6940167Y-11542071D01*
X-6949690Y-11523024D01*
X-6959214Y-11494452D01*
X-6968738Y-11446833D01*
X-6968738Y-11408738D01*
X-6959214Y-11361119D01*
X-6949690Y-11332548D01*
X-6940167Y-11313500D01*
X-6921119Y-11284928D01*
X-6911595Y-11275405D01*
X-6854452Y-11303976D02*
X-6721119Y-11303976D01*
X-6806833Y-11503976D01*
X-6654452Y-11323024D02*
X-6644929Y-11313500D01*
X-6625881Y-11303976D01*
X-6578262Y-11303976D01*
X-6559214Y-11313500D01*
X-6549690Y-11323024D01*
X-6540167Y-11342071D01*
X-6540167Y-11361119D01*
X-6549690Y-11389690D01*
X-6663976Y-11503976D01*
X-6540167Y-11503976D01*
X-6302071Y-11503976D02*
X-6302071Y-11303976D01*
X-6216357Y-11503976D02*
X-6216357Y-11399214D01*
X-6225881Y-11380167D01*
X-6244929Y-11370643D01*
X-6273500Y-11370643D01*
X-6292548Y-11380167D01*
X-6302071Y-11389690D01*
X-6092548Y-11503976D02*
X-6111595Y-11494452D01*
X-6121119Y-11484928D01*
X-6130643Y-11465881D01*
X-6130643Y-11408738D01*
X-6121119Y-11389690D01*
X-6111595Y-11380167D01*
X-6092548Y-11370643D01*
X-6063976Y-11370643D01*
X-6044929Y-11380167D01*
X-6035405Y-11389690D01*
X-6025881Y-11408738D01*
X-6025881Y-11465881D01*
X-6035405Y-11484928D01*
X-6044929Y-11494452D01*
X-6063976Y-11503976D01*
X-6092548Y-11503976D01*
X-5911595Y-11503976D02*
X-5930643Y-11494452D01*
X-5940167Y-11475405D01*
X-5940167Y-11303976D01*
X-5759214Y-11494452D02*
X-5778262Y-11503976D01*
X-5816357Y-11503976D01*
X-5835405Y-11494452D01*
X-5844929Y-11475405D01*
X-5844929Y-11399214D01*
X-5835405Y-11380167D01*
X-5816357Y-11370643D01*
X-5778262Y-11370643D01*
X-5759214Y-11380167D01*
X-5749690Y-11399214D01*
X-5749690Y-11418262D01*
X-5844929Y-11437309D01*
X-5673500Y-11494452D02*
X-5654452Y-11503976D01*
X-5616357Y-11503976D01*
X-5597310Y-11494452D01*
X-5587786Y-11475405D01*
X-5587786Y-11465881D01*
X-5597310Y-11446833D01*
X-5616357Y-11437309D01*
X-5644929Y-11437309D01*
X-5663976Y-11427786D01*
X-5673500Y-11408738D01*
X-5673500Y-11399214D01*
X-5663976Y-11380167D01*
X-5644929Y-11370643D01*
X-5616357Y-11370643D01*
X-5597310Y-11380167D01*
X-5521119Y-11580167D02*
X-5511595Y-11570643D01*
X-5492548Y-11542071D01*
X-5483024Y-11523024D01*
X-5473500Y-11494452D01*
X-5463976Y-11446833D01*
X-5463976Y-11408738D01*
X-5473500Y-11361119D01*
X-5483024Y-11332548D01*
X-5492548Y-11313500D01*
X-5511595Y-11284928D01*
X-5521119Y-11275405D01*
X-5159214Y-11580167D02*
X-5168738Y-11570643D01*
X-5187786Y-11542071D01*
X-5197310Y-11523024D01*
X-5206833Y-11494452D01*
X-5216357Y-11446833D01*
X-5216357Y-11408738D01*
X-5206833Y-11361119D01*
X-5197310Y-11332548D01*
X-5187786Y-11313500D01*
X-5168738Y-11284928D01*
X-5159214Y-11275405D01*
X-5083024Y-11370643D02*
X-5083024Y-11503976D01*
X-5083024Y-11389690D02*
X-5073500Y-11380167D01*
X-5054452Y-11370643D01*
X-5025881Y-11370643D01*
X-5006833Y-11380167D01*
X-4997310Y-11399214D01*
X-4997310Y-11503976D01*
X-4873500Y-11503976D02*
X-4892548Y-11494452D01*
X-4902072Y-11484928D01*
X-4911595Y-11465881D01*
X-4911595Y-11408738D01*
X-4902072Y-11389690D01*
X-4892548Y-11380167D01*
X-4873500Y-11370643D01*
X-4844929Y-11370643D01*
X-4825881Y-11380167D01*
X-4816357Y-11389690D01*
X-4806833Y-11408738D01*
X-4806833Y-11465881D01*
X-4816357Y-11484928D01*
X-4825881Y-11494452D01*
X-4844929Y-11503976D01*
X-4873500Y-11503976D01*
X-4749691Y-11370643D02*
X-4673500Y-11370643D01*
X-4721119Y-11303976D02*
X-4721119Y-11475405D01*
X-4711595Y-11494452D01*
X-4692548Y-11503976D01*
X-4673500Y-11503976D01*
X-4454452Y-11370643D02*
X-4454452Y-11570643D01*
X-4454452Y-11380167D02*
X-4435405Y-11370643D01*
X-4397310Y-11370643D01*
X-4378262Y-11380167D01*
X-4368738Y-11389690D01*
X-4359214Y-11408738D01*
X-4359214Y-11465881D01*
X-4368738Y-11484928D01*
X-4378262Y-11494452D01*
X-4397310Y-11503976D01*
X-4435405Y-11503976D01*
X-4454452Y-11494452D01*
X-4244929Y-11503976D02*
X-4263976Y-11494452D01*
X-4273500Y-11475405D01*
X-4273500Y-11303976D01*
X-4083024Y-11503976D02*
X-4083024Y-11399214D01*
X-4092548Y-11380167D01*
X-4111595Y-11370643D01*
X-4149690Y-11370643D01*
X-4168738Y-11380167D01*
X-4083024Y-11494452D02*
X-4102071Y-11503976D01*
X-4149690Y-11503976D01*
X-4168738Y-11494452D01*
X-4178262Y-11475405D01*
X-4178262Y-11456357D01*
X-4168738Y-11437309D01*
X-4149690Y-11427786D01*
X-4102071Y-11427786D01*
X-4083024Y-11418262D01*
X-4016357Y-11370643D02*
X-3940167Y-11370643D01*
X-3987786Y-11303976D02*
X-3987786Y-11475405D01*
X-3978262Y-11494452D01*
X-3959214Y-11503976D01*
X-3940167Y-11503976D01*
X-3797310Y-11494452D02*
X-3816357Y-11503976D01*
X-3854452Y-11503976D01*
X-3873500Y-11494452D01*
X-3883024Y-11475405D01*
X-3883024Y-11399214D01*
X-3873500Y-11380167D01*
X-3854452Y-11370643D01*
X-3816357Y-11370643D01*
X-3797310Y-11380167D01*
X-3787786Y-11399214D01*
X-3787786Y-11418262D01*
X-3883024Y-11437309D01*
X-3616357Y-11503976D02*
X-3616357Y-11303976D01*
X-3616357Y-11494452D02*
X-3635405Y-11503976D01*
X-3673500Y-11503976D01*
X-3692548Y-11494452D01*
X-3702071Y-11484928D01*
X-3711595Y-11465881D01*
X-3711595Y-11408738D01*
X-3702071Y-11389690D01*
X-3692548Y-11380167D01*
X-3673500Y-11370643D01*
X-3635405Y-11370643D01*
X-3616357Y-11380167D01*
X-3540167Y-11580167D02*
X-3530643Y-11570643D01*
X-3511595Y-11542071D01*
X-3502071Y-11523024D01*
X-3492548Y-11494452D01*
X-3483024Y-11446833D01*
X-3483024Y-11408738D01*
X-3492548Y-11361119D01*
X-3502071Y-11332548D01*
X-3511595Y-11313500D01*
X-3530643Y-11284928D01*
X-3540167Y-11275405D01*
X-10583500Y-11623500D02*
X-10583500Y-11823500D01*
X-10683500Y-11723500D02*
X-10483500Y-11723500D01*
X-10235405Y-11633024D02*
X-10225881Y-11623500D01*
X-10206833Y-11613976D01*
X-10159214Y-11613976D01*
X-10140167Y-11623500D01*
X-10130643Y-11633024D01*
X-10121119Y-11652071D01*
X-10121119Y-11671119D01*
X-10130643Y-11699690D01*
X-10244929Y-11813976D01*
X-10121119Y-11813976D01*
X-10035405Y-11794928D02*
X-10025881Y-11804452D01*
X-10035405Y-11813976D01*
X-10044929Y-11804452D01*
X-10035405Y-11794928D01*
X-10035405Y-11813976D01*
X-9844929Y-11613976D02*
X-9940167Y-11613976D01*
X-9949691Y-11709214D01*
X-9940167Y-11699690D01*
X-9921119Y-11690167D01*
X-9873500Y-11690167D01*
X-9854452Y-11699690D01*
X-9844929Y-11709214D01*
X-9835405Y-11728262D01*
X-9835405Y-11775881D01*
X-9844929Y-11794928D01*
X-9854452Y-11804452D01*
X-9873500Y-11813976D01*
X-9921119Y-11813976D01*
X-9940167Y-11804452D01*
X-9949691Y-11794928D01*
X-9711595Y-11613976D02*
X-9692548Y-11613976D01*
X-9673500Y-11623500D01*
X-9663976Y-11633024D01*
X-9654452Y-11652071D01*
X-9644929Y-11690167D01*
X-9644929Y-11737786D01*
X-9654452Y-11775881D01*
X-9663976Y-11794928D01*
X-9673500Y-11804452D01*
X-9692548Y-11813976D01*
X-9711595Y-11813976D01*
X-9730643Y-11804452D01*
X-9740167Y-11794928D01*
X-9749691Y-11775881D01*
X-9759214Y-11737786D01*
X-9759214Y-11690167D01*
X-9749691Y-11652071D01*
X-9740167Y-11633024D01*
X-9730643Y-11623500D01*
X-9711595Y-11613976D01*
X-9521119Y-11613976D02*
X-9502072Y-11613976D01*
X-9483024Y-11623500D01*
X-9473500Y-11633024D01*
X-9463976Y-11652071D01*
X-9454452Y-11690167D01*
X-9454452Y-11737786D01*
X-9463976Y-11775881D01*
X-9473500Y-11794928D01*
X-9483024Y-11804452D01*
X-9502072Y-11813976D01*
X-9521119Y-11813976D01*
X-9540167Y-11804452D01*
X-9549691Y-11794928D01*
X-9559214Y-11775881D01*
X-9568738Y-11737786D01*
X-9568738Y-11690167D01*
X-9559214Y-11652071D01*
X-9549691Y-11633024D01*
X-9540167Y-11623500D01*
X-9521119Y-11613976D01*
X-9368738Y-11813976D02*
X-9368738Y-11680643D01*
X-9368738Y-11699690D02*
X-9359214Y-11690167D01*
X-9340167Y-11680643D01*
X-9311595Y-11680643D01*
X-9292548Y-11690167D01*
X-9283024Y-11709214D01*
X-9283024Y-11813976D01*
X-9283024Y-11709214D02*
X-9273500Y-11690167D01*
X-9254452Y-11680643D01*
X-9225881Y-11680643D01*
X-9206833Y-11690167D01*
X-9197310Y-11709214D01*
X-9197310Y-11813976D01*
X-9102072Y-11813976D02*
X-9102072Y-11680643D01*
X-9102072Y-11699690D02*
X-9092548Y-11690167D01*
X-9073500Y-11680643D01*
X-9044929Y-11680643D01*
X-9025881Y-11690167D01*
X-9016357Y-11709214D01*
X-9016357Y-11813976D01*
X-9016357Y-11709214D02*
X-9006833Y-11690167D01*
X-8987786Y-11680643D01*
X-8959214Y-11680643D01*
X-8940167Y-11690167D01*
X-8930643Y-11709214D01*
X-8930643Y-11813976D01*
X-8540167Y-11604452D02*
X-8711595Y-11861595D01*
X-8283024Y-11613976D02*
X-8263976Y-11613976D01*
X-8244929Y-11623500D01*
X-8235405Y-11633024D01*
X-8225881Y-11652071D01*
X-8216357Y-11690167D01*
X-8216357Y-11737786D01*
X-8225881Y-11775881D01*
X-8235405Y-11794928D01*
X-8244929Y-11804452D01*
X-8263976Y-11813976D01*
X-8283024Y-11813976D01*
X-8302071Y-11804452D01*
X-8311595Y-11794928D01*
X-8321119Y-11775881D01*
X-8330643Y-11737786D01*
X-8330643Y-11690167D01*
X-8321119Y-11652071D01*
X-8311595Y-11633024D01*
X-8302071Y-11623500D01*
X-8283024Y-11613976D01*
X-8130643Y-11794928D02*
X-8121119Y-11804452D01*
X-8130643Y-11813976D01*
X-8140167Y-11804452D01*
X-8130643Y-11794928D01*
X-8130643Y-11813976D01*
X-7997310Y-11613976D02*
X-7978262Y-11613976D01*
X-7959214Y-11623500D01*
X-7949690Y-11633024D01*
X-7940167Y-11652071D01*
X-7930643Y-11690167D01*
X-7930643Y-11737786D01*
X-7940167Y-11775881D01*
X-7949690Y-11794928D01*
X-7959214Y-11804452D01*
X-7978262Y-11813976D01*
X-7997310Y-11813976D01*
X-8016357Y-11804452D01*
X-8025881Y-11794928D01*
X-8035405Y-11775881D01*
X-8044929Y-11737786D01*
X-8044929Y-11690167D01*
X-8035405Y-11652071D01*
X-8025881Y-11633024D01*
X-8016357Y-11623500D01*
X-7997310Y-11613976D01*
X-7835405Y-11813976D02*
X-7797310Y-11813976D01*
X-7778262Y-11804452D01*
X-7768738Y-11794928D01*
X-7749690Y-11766357D01*
X-7740167Y-11728262D01*
X-7740167Y-11652071D01*
X-7749690Y-11633024D01*
X-7759214Y-11623500D01*
X-7778262Y-11613976D01*
X-7816357Y-11613976D01*
X-7835405Y-11623500D01*
X-7844929Y-11633024D01*
X-7854452Y-11652071D01*
X-7854452Y-11699690D01*
X-7844929Y-11718738D01*
X-7835405Y-11728262D01*
X-7816357Y-11737786D01*
X-7778262Y-11737786D01*
X-7759214Y-11728262D01*
X-7749690Y-11718738D01*
X-7740167Y-11699690D01*
X-7625881Y-11699690D02*
X-7644929Y-11690167D01*
X-7654452Y-11680643D01*
X-7663976Y-11661595D01*
X-7663976Y-11652071D01*
X-7654452Y-11633024D01*
X-7644929Y-11623500D01*
X-7625881Y-11613976D01*
X-7587786Y-11613976D01*
X-7568738Y-11623500D01*
X-7559214Y-11633024D01*
X-7549690Y-11652071D01*
X-7549690Y-11661595D01*
X-7559214Y-11680643D01*
X-7568738Y-11690167D01*
X-7587786Y-11699690D01*
X-7625881Y-11699690D01*
X-7644929Y-11709214D01*
X-7654452Y-11718738D01*
X-7663976Y-11737786D01*
X-7663976Y-11775881D01*
X-7654452Y-11794928D01*
X-7644929Y-11804452D01*
X-7625881Y-11813976D01*
X-7587786Y-11813976D01*
X-7568738Y-11804452D01*
X-7559214Y-11794928D01*
X-7549690Y-11775881D01*
X-7549690Y-11737786D01*
X-7559214Y-11718738D01*
X-7568738Y-11709214D01*
X-7587786Y-11699690D01*
X-7378262Y-11680643D02*
X-7378262Y-11813976D01*
X-7425881Y-11604452D02*
X-7473500Y-11747309D01*
X-7349690Y-11747309D01*
X-7283024Y-11613976D02*
X-7283024Y-11652071D01*
X-7206833Y-11613976D02*
X-7206833Y-11652071D01*
X-6911595Y-11890167D02*
X-6921119Y-11880643D01*
X-6940167Y-11852071D01*
X-6949690Y-11833024D01*
X-6959214Y-11804452D01*
X-6968738Y-11756833D01*
X-6968738Y-11718738D01*
X-6959214Y-11671119D01*
X-6949690Y-11642548D01*
X-6940167Y-11623500D01*
X-6921119Y-11594928D01*
X-6911595Y-11585405D01*
X-6740167Y-11613976D02*
X-6835405Y-11613976D01*
X-6844929Y-11709214D01*
X-6835405Y-11699690D01*
X-6816357Y-11690167D01*
X-6768738Y-11690167D01*
X-6749690Y-11699690D01*
X-6740167Y-11709214D01*
X-6730643Y-11728262D01*
X-6730643Y-11775881D01*
X-6740167Y-11794928D01*
X-6749690Y-11804452D01*
X-6768738Y-11813976D01*
X-6816357Y-11813976D01*
X-6835405Y-11804452D01*
X-6844929Y-11794928D01*
X-6492548Y-11813976D02*
X-6492548Y-11613976D01*
X-6406833Y-11813976D02*
X-6406833Y-11709214D01*
X-6416357Y-11690167D01*
X-6435405Y-11680643D01*
X-6463976Y-11680643D01*
X-6483024Y-11690167D01*
X-6492548Y-11699690D01*
X-6283024Y-11813976D02*
X-6302071Y-11804452D01*
X-6311595Y-11794928D01*
X-6321119Y-11775881D01*
X-6321119Y-11718738D01*
X-6311595Y-11699690D01*
X-6302071Y-11690167D01*
X-6283024Y-11680643D01*
X-6254452Y-11680643D01*
X-6235405Y-11690167D01*
X-6225881Y-11699690D01*
X-6216357Y-11718738D01*
X-6216357Y-11775881D01*
X-6225881Y-11794928D01*
X-6235405Y-11804452D01*
X-6254452Y-11813976D01*
X-6283024Y-11813976D01*
X-6102071Y-11813976D02*
X-6121119Y-11804452D01*
X-6130643Y-11785405D01*
X-6130643Y-11613976D01*
X-5949690Y-11804452D02*
X-5968738Y-11813976D01*
X-6006833Y-11813976D01*
X-6025881Y-11804452D01*
X-6035405Y-11785405D01*
X-6035405Y-11709214D01*
X-6025881Y-11690167D01*
X-6006833Y-11680643D01*
X-5968738Y-11680643D01*
X-5949690Y-11690167D01*
X-5940167Y-11709214D01*
X-5940167Y-11728262D01*
X-6035405Y-11747309D01*
X-5863976Y-11804452D02*
X-5844929Y-11813976D01*
X-5806833Y-11813976D01*
X-5787786Y-11804452D01*
X-5778262Y-11785405D01*
X-5778262Y-11775881D01*
X-5787786Y-11756833D01*
X-5806833Y-11747309D01*
X-5835405Y-11747309D01*
X-5854452Y-11737786D01*
X-5863976Y-11718738D01*
X-5863976Y-11709214D01*
X-5854452Y-11690167D01*
X-5835405Y-11680643D01*
X-5806833Y-11680643D01*
X-5787786Y-11690167D01*
X-5711595Y-11890167D02*
X-5702071Y-11880643D01*
X-5683024Y-11852071D01*
X-5673500Y-11833024D01*
X-5663976Y-11804452D01*
X-5654452Y-11756833D01*
X-5654452Y-11718738D01*
X-5663976Y-11671119D01*
X-5673500Y-11642548D01*
X-5683024Y-11623500D01*
X-5702071Y-11594928D01*
X-5711595Y-11585405D01*
X-5349691Y-11890167D02*
X-5359214Y-11880643D01*
X-5378262Y-11852071D01*
X-5387786Y-11833024D01*
X-5397310Y-11804452D01*
X-5406833Y-11756833D01*
X-5406833Y-11718738D01*
X-5397310Y-11671119D01*
X-5387786Y-11642548D01*
X-5378262Y-11623500D01*
X-5359214Y-11594928D01*
X-5349691Y-11585405D01*
X-5273500Y-11680643D02*
X-5273500Y-11813976D01*
X-5273500Y-11699690D02*
X-5263976Y-11690167D01*
X-5244929Y-11680643D01*
X-5216357Y-11680643D01*
X-5197310Y-11690167D01*
X-5187786Y-11709214D01*
X-5187786Y-11813976D01*
X-5063976Y-11813976D02*
X-5083024Y-11804452D01*
X-5092548Y-11794928D01*
X-5102072Y-11775881D01*
X-5102072Y-11718738D01*
X-5092548Y-11699690D01*
X-5083024Y-11690167D01*
X-5063976Y-11680643D01*
X-5035405Y-11680643D01*
X-5016357Y-11690167D01*
X-5006833Y-11699690D01*
X-4997310Y-11718738D01*
X-4997310Y-11775881D01*
X-5006833Y-11794928D01*
X-5016357Y-11804452D01*
X-5035405Y-11813976D01*
X-5063976Y-11813976D01*
X-4940167Y-11680643D02*
X-4863976Y-11680643D01*
X-4911595Y-11613976D02*
X-4911595Y-11785405D01*
X-4902072Y-11804452D01*
X-4883024Y-11813976D01*
X-4863976Y-11813976D01*
X-4644929Y-11680643D02*
X-4644929Y-11880643D01*
X-4644929Y-11690167D02*
X-4625881Y-11680643D01*
X-4587786Y-11680643D01*
X-4568738Y-11690167D01*
X-4559214Y-11699690D01*
X-4549691Y-11718738D01*
X-4549691Y-11775881D01*
X-4559214Y-11794928D01*
X-4568738Y-11804452D01*
X-4587786Y-11813976D01*
X-4625881Y-11813976D01*
X-4644929Y-11804452D01*
X-4435405Y-11813976D02*
X-4454452Y-11804452D01*
X-4463976Y-11785405D01*
X-4463976Y-11613976D01*
X-4273500Y-11813976D02*
X-4273500Y-11709214D01*
X-4283024Y-11690167D01*
X-4302072Y-11680643D01*
X-4340167Y-11680643D01*
X-4359214Y-11690167D01*
X-4273500Y-11804452D02*
X-4292548Y-11813976D01*
X-4340167Y-11813976D01*
X-4359214Y-11804452D01*
X-4368738Y-11785405D01*
X-4368738Y-11766357D01*
X-4359214Y-11747309D01*
X-4340167Y-11737786D01*
X-4292548Y-11737786D01*
X-4273500Y-11728262D01*
X-4206833Y-11680643D02*
X-4130643Y-11680643D01*
X-4178262Y-11613976D02*
X-4178262Y-11785405D01*
X-4168738Y-11804452D01*
X-4149690Y-11813976D01*
X-4130643Y-11813976D01*
X-3987786Y-11804452D02*
X-4006833Y-11813976D01*
X-4044929Y-11813976D01*
X-4063976Y-11804452D01*
X-4073500Y-11785405D01*
X-4073500Y-11709214D01*
X-4063976Y-11690167D01*
X-4044929Y-11680643D01*
X-4006833Y-11680643D01*
X-3987786Y-11690167D01*
X-3978262Y-11709214D01*
X-3978262Y-11728262D01*
X-4073500Y-11747309D01*
X-3806833Y-11813976D02*
X-3806833Y-11613976D01*
X-3806833Y-11804452D02*
X-3825881Y-11813976D01*
X-3863976Y-11813976D01*
X-3883024Y-11804452D01*
X-3892548Y-11794928D01*
X-3902071Y-11775881D01*
X-3902071Y-11718738D01*
X-3892548Y-11699690D01*
X-3883024Y-11690167D01*
X-3863976Y-11680643D01*
X-3825881Y-11680643D01*
X-3806833Y-11690167D01*
X-3730643Y-11890167D02*
X-3721119Y-11880643D01*
X-3702071Y-11852071D01*
X-3692548Y-11833024D01*
X-3683024Y-11804452D01*
X-3673500Y-11756833D01*
X-3673500Y-11718738D01*
X-3683024Y-11671119D01*
X-3692548Y-11642548D01*
X-3702071Y-11623500D01*
X-3721119Y-11594928D01*
X-3730643Y-11585405D01*
X-10512789Y-12114211D02*
X-10512789Y-11972789D01*
X-10654211Y-11972789D01*
X-10654211Y-12114211D01*
X-10512789Y-12114211D01*
X-10244929Y-11933976D02*
X-10121119Y-11933976D01*
X-10187786Y-12010167D01*
X-10159214Y-12010167D01*
X-10140167Y-12019690D01*
X-10130643Y-12029214D01*
X-10121119Y-12048262D01*
X-10121119Y-12095881D01*
X-10130643Y-12114928D01*
X-10140167Y-12124452D01*
X-10159214Y-12133976D01*
X-10216357Y-12133976D01*
X-10235405Y-12124452D01*
X-10244929Y-12114928D01*
X-10035405Y-12114928D02*
X-10025881Y-12124452D01*
X-10035405Y-12133976D01*
X-10044929Y-12124452D01*
X-10035405Y-12114928D01*
X-10035405Y-12133976D01*
X-9902072Y-11933976D02*
X-9883024Y-11933976D01*
X-9863976Y-11943500D01*
X-9854452Y-11953024D01*
X-9844929Y-11972071D01*
X-9835405Y-12010167D01*
X-9835405Y-12057786D01*
X-9844929Y-12095881D01*
X-9854452Y-12114928D01*
X-9863976Y-12124452D01*
X-9883024Y-12133976D01*
X-9902072Y-12133976D01*
X-9921119Y-12124452D01*
X-9930643Y-12114928D01*
X-9940167Y-12095881D01*
X-9949691Y-12057786D01*
X-9949691Y-12010167D01*
X-9940167Y-11972071D01*
X-9930643Y-11953024D01*
X-9921119Y-11943500D01*
X-9902072Y-11933976D01*
X-9711595Y-11933976D02*
X-9692548Y-11933976D01*
X-9673500Y-11943500D01*
X-9663976Y-11953024D01*
X-9654452Y-11972071D01*
X-9644929Y-12010167D01*
X-9644929Y-12057786D01*
X-9654452Y-12095881D01*
X-9663976Y-12114928D01*
X-9673500Y-12124452D01*
X-9692548Y-12133976D01*
X-9711595Y-12133976D01*
X-9730643Y-12124452D01*
X-9740167Y-12114928D01*
X-9749691Y-12095881D01*
X-9759214Y-12057786D01*
X-9759214Y-12010167D01*
X-9749691Y-11972071D01*
X-9740167Y-11953024D01*
X-9730643Y-11943500D01*
X-9711595Y-11933976D01*
X-9521119Y-11933976D02*
X-9502072Y-11933976D01*
X-9483024Y-11943500D01*
X-9473500Y-11953024D01*
X-9463976Y-11972071D01*
X-9454452Y-12010167D01*
X-9454452Y-12057786D01*
X-9463976Y-12095881D01*
X-9473500Y-12114928D01*
X-9483024Y-12124452D01*
X-9502072Y-12133976D01*
X-9521119Y-12133976D01*
X-9540167Y-12124452D01*
X-9549691Y-12114928D01*
X-9559214Y-12095881D01*
X-9568738Y-12057786D01*
X-9568738Y-12010167D01*
X-9559214Y-11972071D01*
X-9549691Y-11953024D01*
X-9540167Y-11943500D01*
X-9521119Y-11933976D01*
X-9368738Y-12133976D02*
X-9368738Y-12000643D01*
X-9368738Y-12019690D02*
X-9359214Y-12010167D01*
X-9340167Y-12000643D01*
X-9311595Y-12000643D01*
X-9292548Y-12010167D01*
X-9283024Y-12029214D01*
X-9283024Y-12133976D01*
X-9283024Y-12029214D02*
X-9273500Y-12010167D01*
X-9254452Y-12000643D01*
X-9225881Y-12000643D01*
X-9206833Y-12010167D01*
X-9197310Y-12029214D01*
X-9197310Y-12133976D01*
X-9102072Y-12133976D02*
X-9102072Y-12000643D01*
X-9102072Y-12019690D02*
X-9092548Y-12010167D01*
X-9073500Y-12000643D01*
X-9044929Y-12000643D01*
X-9025881Y-12010167D01*
X-9016357Y-12029214D01*
X-9016357Y-12133976D01*
X-9016357Y-12029214D02*
X-9006833Y-12010167D01*
X-8987786Y-12000643D01*
X-8959214Y-12000643D01*
X-8940167Y-12010167D01*
X-8930643Y-12029214D01*
X-8930643Y-12133976D01*
X-8540167Y-11924452D02*
X-8711595Y-12181595D01*
X-8283024Y-11933976D02*
X-8263976Y-11933976D01*
X-8244929Y-11943500D01*
X-8235405Y-11953024D01*
X-8225881Y-11972071D01*
X-8216357Y-12010167D01*
X-8216357Y-12057786D01*
X-8225881Y-12095881D01*
X-8235405Y-12114928D01*
X-8244929Y-12124452D01*
X-8263976Y-12133976D01*
X-8283024Y-12133976D01*
X-8302071Y-12124452D01*
X-8311595Y-12114928D01*
X-8321119Y-12095881D01*
X-8330643Y-12057786D01*
X-8330643Y-12010167D01*
X-8321119Y-11972071D01*
X-8311595Y-11953024D01*
X-8302071Y-11943500D01*
X-8283024Y-11933976D01*
X-8130643Y-12114928D02*
X-8121119Y-12124452D01*
X-8130643Y-12133976D01*
X-8140167Y-12124452D01*
X-8130643Y-12114928D01*
X-8130643Y-12133976D01*
X-7930643Y-12133976D02*
X-8044929Y-12133976D01*
X-7987786Y-12133976D02*
X-7987786Y-11933976D01*
X-8006833Y-11962548D01*
X-8025881Y-11981595D01*
X-8044929Y-11991119D01*
X-7740167Y-12133976D02*
X-7854452Y-12133976D01*
X-7797310Y-12133976D02*
X-7797310Y-11933976D01*
X-7816357Y-11962548D01*
X-7835405Y-11981595D01*
X-7854452Y-11991119D01*
X-7625881Y-12019690D02*
X-7644929Y-12010167D01*
X-7654452Y-12000643D01*
X-7663976Y-11981595D01*
X-7663976Y-11972071D01*
X-7654452Y-11953024D01*
X-7644929Y-11943500D01*
X-7625881Y-11933976D01*
X-7587786Y-11933976D01*
X-7568738Y-11943500D01*
X-7559214Y-11953024D01*
X-7549690Y-11972071D01*
X-7549690Y-11981595D01*
X-7559214Y-12000643D01*
X-7568738Y-12010167D01*
X-7587786Y-12019690D01*
X-7625881Y-12019690D01*
X-7644929Y-12029214D01*
X-7654452Y-12038738D01*
X-7663976Y-12057786D01*
X-7663976Y-12095881D01*
X-7654452Y-12114928D01*
X-7644929Y-12124452D01*
X-7625881Y-12133976D01*
X-7587786Y-12133976D01*
X-7568738Y-12124452D01*
X-7559214Y-12114928D01*
X-7549690Y-12095881D01*
X-7549690Y-12057786D01*
X-7559214Y-12038738D01*
X-7568738Y-12029214D01*
X-7587786Y-12019690D01*
X-7359214Y-12133976D02*
X-7473500Y-12133976D01*
X-7416357Y-12133976D02*
X-7416357Y-11933976D01*
X-7435405Y-11962548D01*
X-7454452Y-11981595D01*
X-7473500Y-11991119D01*
X-7283024Y-11933976D02*
X-7283024Y-11972071D01*
X-7206833Y-11933976D02*
X-7206833Y-11972071D01*
X-6911595Y-12210167D02*
X-6921119Y-12200643D01*
X-6940167Y-12172071D01*
X-6949690Y-12153024D01*
X-6959214Y-12124452D01*
X-6968738Y-12076833D01*
X-6968738Y-12038738D01*
X-6959214Y-11991119D01*
X-6949690Y-11962548D01*
X-6940167Y-11943500D01*
X-6921119Y-11914928D01*
X-6911595Y-11905405D01*
X-6730643Y-12133976D02*
X-6844929Y-12133976D01*
X-6787786Y-12133976D02*
X-6787786Y-11933976D01*
X-6806833Y-11962548D01*
X-6825881Y-11981595D01*
X-6844929Y-11991119D01*
X-6559214Y-12000643D02*
X-6559214Y-12133976D01*
X-6606833Y-11924452D02*
X-6654452Y-12067309D01*
X-6530643Y-12067309D01*
X-6368738Y-12000643D02*
X-6368738Y-12133976D01*
X-6416357Y-11924452D02*
X-6463976Y-12067309D01*
X-6340167Y-12067309D01*
X-6111595Y-12133976D02*
X-6111595Y-11933976D01*
X-6025881Y-12133976D02*
X-6025881Y-12029214D01*
X-6035405Y-12010167D01*
X-6054452Y-12000643D01*
X-6083024Y-12000643D01*
X-6102071Y-12010167D01*
X-6111595Y-12019690D01*
X-5902071Y-12133976D02*
X-5921119Y-12124452D01*
X-5930643Y-12114928D01*
X-5940167Y-12095881D01*
X-5940167Y-12038738D01*
X-5930643Y-12019690D01*
X-5921119Y-12010167D01*
X-5902071Y-12000643D01*
X-5873500Y-12000643D01*
X-5854452Y-12010167D01*
X-5844929Y-12019690D01*
X-5835405Y-12038738D01*
X-5835405Y-12095881D01*
X-5844929Y-12114928D01*
X-5854452Y-12124452D01*
X-5873500Y-12133976D01*
X-5902071Y-12133976D01*
X-5721119Y-12133976D02*
X-5740167Y-12124452D01*
X-5749690Y-12105405D01*
X-5749690Y-11933976D01*
X-5568738Y-12124452D02*
X-5587786Y-12133976D01*
X-5625881Y-12133976D01*
X-5644929Y-12124452D01*
X-5654452Y-12105405D01*
X-5654452Y-12029214D01*
X-5644929Y-12010167D01*
X-5625881Y-12000643D01*
X-5587786Y-12000643D01*
X-5568738Y-12010167D01*
X-5559214Y-12029214D01*
X-5559214Y-12048262D01*
X-5654452Y-12067309D01*
X-5483024Y-12124452D02*
X-5463976Y-12133976D01*
X-5425881Y-12133976D01*
X-5406833Y-12124452D01*
X-5397310Y-12105405D01*
X-5397310Y-12095881D01*
X-5406833Y-12076833D01*
X-5425881Y-12067309D01*
X-5454452Y-12067309D01*
X-5473500Y-12057786D01*
X-5483024Y-12038738D01*
X-5483024Y-12029214D01*
X-5473500Y-12010167D01*
X-5454452Y-12000643D01*
X-5425881Y-12000643D01*
X-5406833Y-12010167D01*
X-5330643Y-12210167D02*
X-5321119Y-12200643D01*
X-5302072Y-12172071D01*
X-5292548Y-12153024D01*
X-5283024Y-12124452D01*
X-5273500Y-12076833D01*
X-5273500Y-12038738D01*
X-5283024Y-11991119D01*
X-5292548Y-11962548D01*
X-5302072Y-11943500D01*
X-5321119Y-11914928D01*
X-5330643Y-11905405D01*
X-4968738Y-12210167D02*
X-4978262Y-12200643D01*
X-4997310Y-12172071D01*
X-5006833Y-12153024D01*
X-5016357Y-12124452D01*
X-5025881Y-12076833D01*
X-5025881Y-12038738D01*
X-5016357Y-11991119D01*
X-5006833Y-11962548D01*
X-4997310Y-11943500D01*
X-4978262Y-11914928D01*
X-4968738Y-11905405D01*
X-4892548Y-12000643D02*
X-4892548Y-12133976D01*
X-4892548Y-12019690D02*
X-4883024Y-12010167D01*
X-4863976Y-12000643D01*
X-4835405Y-12000643D01*
X-4816357Y-12010167D01*
X-4806833Y-12029214D01*
X-4806833Y-12133976D01*
X-4683024Y-12133976D02*
X-4702072Y-12124452D01*
X-4711595Y-12114928D01*
X-4721119Y-12095881D01*
X-4721119Y-12038738D01*
X-4711595Y-12019690D01*
X-4702072Y-12010167D01*
X-4683024Y-12000643D01*
X-4654452Y-12000643D01*
X-4635405Y-12010167D01*
X-4625881Y-12019690D01*
X-4616357Y-12038738D01*
X-4616357Y-12095881D01*
X-4625881Y-12114928D01*
X-4635405Y-12124452D01*
X-4654452Y-12133976D01*
X-4683024Y-12133976D01*
X-4559214Y-12000643D02*
X-4483024Y-12000643D01*
X-4530643Y-11933976D02*
X-4530643Y-12105405D01*
X-4521119Y-12124452D01*
X-4502072Y-12133976D01*
X-4483024Y-12133976D01*
X-4263976Y-12000643D02*
X-4263976Y-12200643D01*
X-4263976Y-12010167D02*
X-4244929Y-12000643D01*
X-4206833Y-12000643D01*
X-4187786Y-12010167D01*
X-4178262Y-12019690D01*
X-4168738Y-12038738D01*
X-4168738Y-12095881D01*
X-4178262Y-12114928D01*
X-4187786Y-12124452D01*
X-4206833Y-12133976D01*
X-4244929Y-12133976D01*
X-4263976Y-12124452D01*
X-4054452Y-12133976D02*
X-4073500Y-12124452D01*
X-4083024Y-12105405D01*
X-4083024Y-11933976D01*
X-3892548Y-12133976D02*
X-3892548Y-12029214D01*
X-3902071Y-12010167D01*
X-3921119Y-12000643D01*
X-3959214Y-12000643D01*
X-3978262Y-12010167D01*
X-3892548Y-12124452D02*
X-3911595Y-12133976D01*
X-3959214Y-12133976D01*
X-3978262Y-12124452D01*
X-3987786Y-12105405D01*
X-3987786Y-12086357D01*
X-3978262Y-12067309D01*
X-3959214Y-12057786D01*
X-3911595Y-12057786D01*
X-3892548Y-12048262D01*
X-3825881Y-12000643D02*
X-3749690Y-12000643D01*
X-3797310Y-11933976D02*
X-3797310Y-12105405D01*
X-3787786Y-12124452D01*
X-3768738Y-12133976D01*
X-3749690Y-12133976D01*
X-3606833Y-12124452D02*
X-3625881Y-12133976D01*
X-3663976Y-12133976D01*
X-3683024Y-12124452D01*
X-3692548Y-12105405D01*
X-3692548Y-12029214D01*
X-3683024Y-12010167D01*
X-3663976Y-12000643D01*
X-3625881Y-12000643D01*
X-3606833Y-12010167D01*
X-3597310Y-12029214D01*
X-3597310Y-12048262D01*
X-3692548Y-12067309D01*
X-3425881Y-12133976D02*
X-3425881Y-11933976D01*
X-3425881Y-12124452D02*
X-3444929Y-12133976D01*
X-3483024Y-12133976D01*
X-3502071Y-12124452D01*
X-3511595Y-12114928D01*
X-3521119Y-12095881D01*
X-3521119Y-12038738D01*
X-3511595Y-12019690D01*
X-3502071Y-12010167D01*
X-3483024Y-12000643D01*
X-3444929Y-12000643D01*
X-3425881Y-12010167D01*
X-3349690Y-12210167D02*
X-3340167Y-12200643D01*
X-3321119Y-12172071D01*
X-3311595Y-12153024D01*
X-3302071Y-12124452D01*
X-3292548Y-12076833D01*
X-3292548Y-12038738D01*
X-3302071Y-11991119D01*
X-3311595Y-11962548D01*
X-3321119Y-11943500D01*
X-3340167Y-11914928D01*
X-3349690Y-11905405D01*
X-10583500Y-12463500D02*
X-10483500Y-12363500D01*
X-10583500Y-12263500D01*
X-10683500Y-12363500D01*
X-10583500Y-12463500D01*
X-10140167Y-12320643D02*
X-10140167Y-12453976D01*
X-10187786Y-12244452D02*
X-10235405Y-12387309D01*
X-10111595Y-12387309D01*
X-10035405Y-12434928D02*
X-10025881Y-12444452D01*
X-10035405Y-12453976D01*
X-10044929Y-12444452D01*
X-10035405Y-12434928D01*
X-10035405Y-12453976D01*
X-9902072Y-12253976D02*
X-9883024Y-12253976D01*
X-9863976Y-12263500D01*
X-9854452Y-12273024D01*
X-9844929Y-12292071D01*
X-9835405Y-12330167D01*
X-9835405Y-12377786D01*
X-9844929Y-12415881D01*
X-9854452Y-12434928D01*
X-9863976Y-12444452D01*
X-9883024Y-12453976D01*
X-9902072Y-12453976D01*
X-9921119Y-12444452D01*
X-9930643Y-12434928D01*
X-9940167Y-12415881D01*
X-9949691Y-12377786D01*
X-9949691Y-12330167D01*
X-9940167Y-12292071D01*
X-9930643Y-12273024D01*
X-9921119Y-12263500D01*
X-9902072Y-12253976D01*
X-9711595Y-12253976D02*
X-9692548Y-12253976D01*
X-9673500Y-12263500D01*
X-9663976Y-12273024D01*
X-9654452Y-12292071D01*
X-9644929Y-12330167D01*
X-9644929Y-12377786D01*
X-9654452Y-12415881D01*
X-9663976Y-12434928D01*
X-9673500Y-12444452D01*
X-9692548Y-12453976D01*
X-9711595Y-12453976D01*
X-9730643Y-12444452D01*
X-9740167Y-12434928D01*
X-9749691Y-12415881D01*
X-9759214Y-12377786D01*
X-9759214Y-12330167D01*
X-9749691Y-12292071D01*
X-9740167Y-12273024D01*
X-9730643Y-12263500D01*
X-9711595Y-12253976D01*
X-9521119Y-12253976D02*
X-9502072Y-12253976D01*
X-9483024Y-12263500D01*
X-9473500Y-12273024D01*
X-9463976Y-12292071D01*
X-9454452Y-12330167D01*
X-9454452Y-12377786D01*
X-9463976Y-12415881D01*
X-9473500Y-12434928D01*
X-9483024Y-12444452D01*
X-9502072Y-12453976D01*
X-9521119Y-12453976D01*
X-9540167Y-12444452D01*
X-9549691Y-12434928D01*
X-9559214Y-12415881D01*
X-9568738Y-12377786D01*
X-9568738Y-12330167D01*
X-9559214Y-12292071D01*
X-9549691Y-12273024D01*
X-9540167Y-12263500D01*
X-9521119Y-12253976D01*
X-9368738Y-12453976D02*
X-9368738Y-12320643D01*
X-9368738Y-12339690D02*
X-9359214Y-12330167D01*
X-9340167Y-12320643D01*
X-9311595Y-12320643D01*
X-9292548Y-12330167D01*
X-9283024Y-12349214D01*
X-9283024Y-12453976D01*
X-9283024Y-12349214D02*
X-9273500Y-12330167D01*
X-9254452Y-12320643D01*
X-9225881Y-12320643D01*
X-9206833Y-12330167D01*
X-9197310Y-12349214D01*
X-9197310Y-12453976D01*
X-9102072Y-12453976D02*
X-9102072Y-12320643D01*
X-9102072Y-12339690D02*
X-9092548Y-12330167D01*
X-9073500Y-12320643D01*
X-9044929Y-12320643D01*
X-9025881Y-12330167D01*
X-9016357Y-12349214D01*
X-9016357Y-12453976D01*
X-9016357Y-12349214D02*
X-9006833Y-12330167D01*
X-8987786Y-12320643D01*
X-8959214Y-12320643D01*
X-8940167Y-12330167D01*
X-8930643Y-12349214D01*
X-8930643Y-12453976D01*
X-8540167Y-12244452D02*
X-8711595Y-12501595D01*
X-8283024Y-12253976D02*
X-8263976Y-12253976D01*
X-8244929Y-12263500D01*
X-8235405Y-12273024D01*
X-8225881Y-12292071D01*
X-8216357Y-12330167D01*
X-8216357Y-12377786D01*
X-8225881Y-12415881D01*
X-8235405Y-12434928D01*
X-8244929Y-12444452D01*
X-8263976Y-12453976D01*
X-8283024Y-12453976D01*
X-8302071Y-12444452D01*
X-8311595Y-12434928D01*
X-8321119Y-12415881D01*
X-8330643Y-12377786D01*
X-8330643Y-12330167D01*
X-8321119Y-12292071D01*
X-8311595Y-12273024D01*
X-8302071Y-12263500D01*
X-8283024Y-12253976D01*
X-8130643Y-12434928D02*
X-8121119Y-12444452D01*
X-8130643Y-12453976D01*
X-8140167Y-12444452D01*
X-8130643Y-12434928D01*
X-8130643Y-12453976D01*
X-7930643Y-12453976D02*
X-8044929Y-12453976D01*
X-7987786Y-12453976D02*
X-7987786Y-12253976D01*
X-8006833Y-12282548D01*
X-8025881Y-12301595D01*
X-8044929Y-12311119D01*
X-7749690Y-12253976D02*
X-7844929Y-12253976D01*
X-7854452Y-12349214D01*
X-7844929Y-12339690D01*
X-7825881Y-12330167D01*
X-7778262Y-12330167D01*
X-7759214Y-12339690D01*
X-7749690Y-12349214D01*
X-7740167Y-12368262D01*
X-7740167Y-12415881D01*
X-7749690Y-12434928D01*
X-7759214Y-12444452D01*
X-7778262Y-12453976D01*
X-7825881Y-12453976D01*
X-7844929Y-12444452D01*
X-7854452Y-12434928D01*
X-7673500Y-12253976D02*
X-7540167Y-12253976D01*
X-7625881Y-12453976D01*
X-7368738Y-12253976D02*
X-7463976Y-12253976D01*
X-7473500Y-12349214D01*
X-7463976Y-12339690D01*
X-7444929Y-12330167D01*
X-7397310Y-12330167D01*
X-7378262Y-12339690D01*
X-7368738Y-12349214D01*
X-7359214Y-12368262D01*
X-7359214Y-12415881D01*
X-7368738Y-12434928D01*
X-7378262Y-12444452D01*
X-7397310Y-12453976D01*
X-7444929Y-12453976D01*
X-7463976Y-12444452D01*
X-7473500Y-12434928D01*
X-7283024Y-12253976D02*
X-7283024Y-12292071D01*
X-7206833Y-12253976D02*
X-7206833Y-12292071D01*
X-6911595Y-12530167D02*
X-6921119Y-12520643D01*
X-6940167Y-12492071D01*
X-6949690Y-12473024D01*
X-6959214Y-12444452D01*
X-6968738Y-12396833D01*
X-6968738Y-12358738D01*
X-6959214Y-12311119D01*
X-6949690Y-12282548D01*
X-6940167Y-12263500D01*
X-6921119Y-12234928D01*
X-6911595Y-12225405D01*
X-6854452Y-12253976D02*
X-6730643Y-12253976D01*
X-6797310Y-12330167D01*
X-6768738Y-12330167D01*
X-6749690Y-12339690D01*
X-6740167Y-12349214D01*
X-6730643Y-12368262D01*
X-6730643Y-12415881D01*
X-6740167Y-12434928D01*
X-6749690Y-12444452D01*
X-6768738Y-12453976D01*
X-6825881Y-12453976D01*
X-6844929Y-12444452D01*
X-6854452Y-12434928D01*
X-6559214Y-12253976D02*
X-6597310Y-12253976D01*
X-6616357Y-12263500D01*
X-6625881Y-12273024D01*
X-6644929Y-12301595D01*
X-6654452Y-12339690D01*
X-6654452Y-12415881D01*
X-6644929Y-12434928D01*
X-6635405Y-12444452D01*
X-6616357Y-12453976D01*
X-6578262Y-12453976D01*
X-6559214Y-12444452D01*
X-6549690Y-12434928D01*
X-6540167Y-12415881D01*
X-6540167Y-12368262D01*
X-6549690Y-12349214D01*
X-6559214Y-12339690D01*
X-6578262Y-12330167D01*
X-6616357Y-12330167D01*
X-6635405Y-12339690D01*
X-6644929Y-12349214D01*
X-6654452Y-12368262D01*
X-6302071Y-12453976D02*
X-6302071Y-12253976D01*
X-6216357Y-12453976D02*
X-6216357Y-12349214D01*
X-6225881Y-12330167D01*
X-6244929Y-12320643D01*
X-6273500Y-12320643D01*
X-6292548Y-12330167D01*
X-6302071Y-12339690D01*
X-6092548Y-12453976D02*
X-6111595Y-12444452D01*
X-6121119Y-12434928D01*
X-6130643Y-12415881D01*
X-6130643Y-12358738D01*
X-6121119Y-12339690D01*
X-6111595Y-12330167D01*
X-6092548Y-12320643D01*
X-6063976Y-12320643D01*
X-6044929Y-12330167D01*
X-6035405Y-12339690D01*
X-6025881Y-12358738D01*
X-6025881Y-12415881D01*
X-6035405Y-12434928D01*
X-6044929Y-12444452D01*
X-6063976Y-12453976D01*
X-6092548Y-12453976D01*
X-5911595Y-12453976D02*
X-5930643Y-12444452D01*
X-5940167Y-12425405D01*
X-5940167Y-12253976D01*
X-5759214Y-12444452D02*
X-5778262Y-12453976D01*
X-5816357Y-12453976D01*
X-5835405Y-12444452D01*
X-5844929Y-12425405D01*
X-5844929Y-12349214D01*
X-5835405Y-12330167D01*
X-5816357Y-12320643D01*
X-5778262Y-12320643D01*
X-5759214Y-12330167D01*
X-5749690Y-12349214D01*
X-5749690Y-12368262D01*
X-5844929Y-12387309D01*
X-5673500Y-12444452D02*
X-5654452Y-12453976D01*
X-5616357Y-12453976D01*
X-5597310Y-12444452D01*
X-5587786Y-12425405D01*
X-5587786Y-12415881D01*
X-5597310Y-12396833D01*
X-5616357Y-12387309D01*
X-5644929Y-12387309D01*
X-5663976Y-12377786D01*
X-5673500Y-12358738D01*
X-5673500Y-12349214D01*
X-5663976Y-12330167D01*
X-5644929Y-12320643D01*
X-5616357Y-12320643D01*
X-5597310Y-12330167D01*
X-5521119Y-12530167D02*
X-5511595Y-12520643D01*
X-5492548Y-12492071D01*
X-5483024Y-12473024D01*
X-5473500Y-12444452D01*
X-5463976Y-12396833D01*
X-5463976Y-12358738D01*
X-5473500Y-12311119D01*
X-5483024Y-12282548D01*
X-5492548Y-12263500D01*
X-5511595Y-12234928D01*
X-5521119Y-12225405D01*
X-5159214Y-12530167D02*
X-5168738Y-12520643D01*
X-5187786Y-12492071D01*
X-5197310Y-12473024D01*
X-5206833Y-12444452D01*
X-5216357Y-12396833D01*
X-5216357Y-12358738D01*
X-5206833Y-12311119D01*
X-5197310Y-12282548D01*
X-5187786Y-12263500D01*
X-5168738Y-12234928D01*
X-5159214Y-12225405D01*
X-5083024Y-12320643D02*
X-5083024Y-12453976D01*
X-5083024Y-12339690D02*
X-5073500Y-12330167D01*
X-5054452Y-12320643D01*
X-5025881Y-12320643D01*
X-5006833Y-12330167D01*
X-4997310Y-12349214D01*
X-4997310Y-12453976D01*
X-4873500Y-12453976D02*
X-4892548Y-12444452D01*
X-4902072Y-12434928D01*
X-4911595Y-12415881D01*
X-4911595Y-12358738D01*
X-4902072Y-12339690D01*
X-4892548Y-12330167D01*
X-4873500Y-12320643D01*
X-4844929Y-12320643D01*
X-4825881Y-12330167D01*
X-4816357Y-12339690D01*
X-4806833Y-12358738D01*
X-4806833Y-12415881D01*
X-4816357Y-12434928D01*
X-4825881Y-12444452D01*
X-4844929Y-12453976D01*
X-4873500Y-12453976D01*
X-4749691Y-12320643D02*
X-4673500Y-12320643D01*
X-4721119Y-12253976D02*
X-4721119Y-12425405D01*
X-4711595Y-12444452D01*
X-4692548Y-12453976D01*
X-4673500Y-12453976D01*
X-4454452Y-12320643D02*
X-4454452Y-12520643D01*
X-4454452Y-12330167D02*
X-4435405Y-12320643D01*
X-4397310Y-12320643D01*
X-4378262Y-12330167D01*
X-4368738Y-12339690D01*
X-4359214Y-12358738D01*
X-4359214Y-12415881D01*
X-4368738Y-12434928D01*
X-4378262Y-12444452D01*
X-4397310Y-12453976D01*
X-4435405Y-12453976D01*
X-4454452Y-12444452D01*
X-4244929Y-12453976D02*
X-4263976Y-12444452D01*
X-4273500Y-12425405D01*
X-4273500Y-12253976D01*
X-4083024Y-12453976D02*
X-4083024Y-12349214D01*
X-4092548Y-12330167D01*
X-4111595Y-12320643D01*
X-4149690Y-12320643D01*
X-4168738Y-12330167D01*
X-4083024Y-12444452D02*
X-4102071Y-12453976D01*
X-4149690Y-12453976D01*
X-4168738Y-12444452D01*
X-4178262Y-12425405D01*
X-4178262Y-12406357D01*
X-4168738Y-12387309D01*
X-4149690Y-12377786D01*
X-4102071Y-12377786D01*
X-4083024Y-12368262D01*
X-4016357Y-12320643D02*
X-3940167Y-12320643D01*
X-3987786Y-12253976D02*
X-3987786Y-12425405D01*
X-3978262Y-12444452D01*
X-3959214Y-12453976D01*
X-3940167Y-12453976D01*
X-3797310Y-12444452D02*
X-3816357Y-12453976D01*
X-3854452Y-12453976D01*
X-3873500Y-12444452D01*
X-3883024Y-12425405D01*
X-3883024Y-12349214D01*
X-3873500Y-12330167D01*
X-3854452Y-12320643D01*
X-3816357Y-12320643D01*
X-3797310Y-12330167D01*
X-3787786Y-12349214D01*
X-3787786Y-12368262D01*
X-3883024Y-12387309D01*
X-3616357Y-12453976D02*
X-3616357Y-12253976D01*
X-3616357Y-12444452D02*
X-3635405Y-12453976D01*
X-3673500Y-12453976D01*
X-3692548Y-12444452D01*
X-3702071Y-12434928D01*
X-3711595Y-12415881D01*
X-3711595Y-12358738D01*
X-3702071Y-12339690D01*
X-3692548Y-12330167D01*
X-3673500Y-12320643D01*
X-3635405Y-12320643D01*
X-3616357Y-12330167D01*
X-3540167Y-12530167D02*
X-3530643Y-12520643D01*
X-3511595Y-12492071D01*
X-3502071Y-12473024D01*
X-3492548Y-12444452D01*
X-3483024Y-12396833D01*
X-3483024Y-12358738D01*
X-3492548Y-12311119D01*
X-3502071Y-12282548D01*
X-3511595Y-12263500D01*
X-3530643Y-12234928D01*
X-3540167Y-12225405D01*
M02*
