%TF.GenerationSoftware,KiCad,Pcbnew,(6.0.6-1)-1*%
%TF.CreationDate,2022-07-18T09:19:42+08:00*%
%TF.ProjectId,Pragmatic,50726167-6d61-4746-9963-2e6b69636164,3*%
%TF.SameCoordinates,PX7616b68PY48ab840*%
%TF.FileFunction,Legend,Top*%
%TF.FilePolarity,Positive*%
%FSLAX46Y46*%
G04 Gerber Fmt 4.6, Leading zero omitted, Abs format (unit mm)*
G04 Created by KiCad (PCBNEW (6.0.6-1)-1) date 2022-07-18 09:19:42*
%MOMM*%
%LPD*%
G01*
G04 APERTURE LIST*
%ADD10C,0.500000*%
%ADD11C,0.010000*%
%ADD12C,2.500000*%
G04 APERTURE END LIST*
%LPC*%
D10*
X-72675000Y7000000D02*
X-60675000Y7000000D01*
X-72675000Y-7000000D02*
X-60675000Y-7000000D01*
X-59675000Y6000000D02*
X-59675000Y-6000000D01*
X-73675000Y6000000D02*
X-73675000Y-6000000D01*
X-59675000Y6000000D02*
G75*
G03*
X-60675000Y7000000I-1000000J0D01*
G01*
X-72675000Y7000000D02*
G75*
G03*
X-73675000Y6000000I-1J-999999D01*
G01*
X-60675000Y-7000000D02*
G75*
G03*
X-59675000Y-6000000I0J1000000D01*
G01*
X-73675000Y-6000000D02*
G75*
G03*
X-72675000Y-7000000I999999J-1D01*
G01*
X-72675000Y-12050000D02*
X-60675000Y-12050000D01*
X-72675000Y-26050000D02*
X-60675000Y-26050000D01*
X-59675000Y-13050000D02*
X-59675000Y-25050000D01*
X-73675000Y-13050000D02*
X-73675000Y-25050000D01*
X-59675000Y-13050000D02*
G75*
G03*
X-60675000Y-12050000I-1000000J0D01*
G01*
X-72675000Y-12050000D02*
G75*
G03*
X-73675000Y-13050000I-1J-999999D01*
G01*
X-60675000Y-26050000D02*
G75*
G03*
X-59675000Y-25050000I0J1000000D01*
G01*
X-73675000Y-25050000D02*
G75*
G03*
X-72675000Y-26050000I999999J-1D01*
G01*
X-53625000Y-2525000D02*
X-41625000Y-2525000D01*
X-53625000Y-16525000D02*
X-41625000Y-16525000D01*
X-40625000Y-3525000D02*
X-40625000Y-15525000D01*
X-54625000Y-3525000D02*
X-54625000Y-15525000D01*
X-40625000Y-3525000D02*
G75*
G03*
X-41625000Y-2525000I-1000000J0D01*
G01*
X-53625000Y-2525000D02*
G75*
G03*
X-54625000Y-3525000I-1J-999999D01*
G01*
X-41625000Y-16525000D02*
G75*
G03*
X-40625000Y-15525000I0J1000000D01*
G01*
X-54625000Y-15525000D02*
G75*
G03*
X-53625000Y-16525000I999999J-1D01*
G01*
X-53625000Y16525000D02*
X-41625000Y16525000D01*
X-53625000Y2525000D02*
X-41625000Y2525000D01*
X-40625000Y15525000D02*
X-40625000Y3525000D01*
X-54625000Y15525000D02*
X-54625000Y3525000D01*
X-40625000Y15525000D02*
G75*
G03*
X-41625000Y16525000I-1000000J0D01*
G01*
X-53625000Y16525000D02*
G75*
G03*
X-54625000Y15525000I-1J-999999D01*
G01*
X-41625000Y2525000D02*
G75*
G03*
X-40625000Y3525000I0J1000000D01*
G01*
X-54625000Y3525000D02*
G75*
G03*
X-53625000Y2525000I999999J-1D01*
G01*
X-34575000Y26050000D02*
X-22575000Y26050000D01*
X-34575000Y12050000D02*
X-22575000Y12050000D01*
X-21575000Y25050000D02*
X-21575000Y13050000D01*
X-35575000Y25050000D02*
X-35575000Y13050000D01*
X-21575000Y25050000D02*
G75*
G03*
X-22575000Y26050000I-1000000J0D01*
G01*
X-34575000Y26050000D02*
G75*
G03*
X-35575000Y25050000I-1J-999999D01*
G01*
X-22575000Y12050000D02*
G75*
G03*
X-21575000Y13050000I0J1000000D01*
G01*
X-35575000Y13050000D02*
G75*
G03*
X-34575000Y12050000I999999J-1D01*
G01*
X-15525000Y16525000D02*
X-3525000Y16525000D01*
X-15525000Y2525000D02*
X-3525000Y2525000D01*
X-2525000Y15525000D02*
X-2525000Y3525000D01*
X-16525000Y15525000D02*
X-16525000Y3525000D01*
X-2525000Y15525000D02*
G75*
G03*
X-3525000Y16525000I-1000000J0D01*
G01*
X-15525000Y16525000D02*
G75*
G03*
X-16525000Y15525000I-1J-999999D01*
G01*
X-3525000Y2525000D02*
G75*
G03*
X-2525000Y3525000I0J1000000D01*
G01*
X-16525000Y3525000D02*
G75*
G03*
X-15525000Y2525000I999999J-1D01*
G01*
X3525000Y16525000D02*
X15525000Y16525000D01*
X3525000Y2525000D02*
X15525000Y2525000D01*
X16525000Y15525000D02*
X16525000Y3525000D01*
X2525000Y15525000D02*
X2525000Y3525000D01*
X16525000Y15525000D02*
G75*
G03*
X15525000Y16525000I-1000000J0D01*
G01*
X3525000Y16525000D02*
G75*
G03*
X2525000Y15525000I-1J-999999D01*
G01*
X15525000Y2525000D02*
G75*
G03*
X16525000Y3525000I0J1000000D01*
G01*
X2525000Y3525000D02*
G75*
G03*
X3525000Y2525000I999999J-1D01*
G01*
X-34575000Y7000000D02*
X-22575000Y7000000D01*
X-34575000Y-7000000D02*
X-22575000Y-7000000D01*
X-21575000Y6000000D02*
X-21575000Y-6000000D01*
X-35575000Y6000000D02*
X-35575000Y-6000000D01*
X-21575000Y6000000D02*
G75*
G03*
X-22575000Y7000000I-1000000J0D01*
G01*
X-34575000Y7000000D02*
G75*
G03*
X-35575000Y6000000I-1J-999999D01*
G01*
X-22575000Y-7000000D02*
G75*
G03*
X-21575000Y-6000000I0J1000000D01*
G01*
X-35575000Y-6000000D02*
G75*
G03*
X-34575000Y-7000000I999999J-1D01*
G01*
X-16525000Y-15525000D02*
G75*
G03*
X-15525000Y-16525000I999999J-1D01*
G01*
X-3525000Y-16525000D02*
G75*
G03*
X-2525000Y-15525000I0J1000000D01*
G01*
X-15525000Y-2525000D02*
G75*
G03*
X-16525000Y-3525000I-1J-999999D01*
G01*
X-2525000Y-3525000D02*
G75*
G03*
X-3525000Y-2525000I-1000000J0D01*
G01*
X-16525000Y-3525000D02*
X-16525000Y-15525000D01*
X-2525000Y-3525000D02*
X-2525000Y-15525000D01*
X-15525000Y-16525000D02*
X-3525000Y-16525000D01*
X-15525000Y-2525000D02*
X-3525000Y-2525000D01*
X3525000Y-2525000D02*
X15525000Y-2525000D01*
X3525000Y-16525000D02*
X15525000Y-16525000D01*
X16525000Y-3525000D02*
X16525000Y-15525000D01*
X2525000Y-3525000D02*
X2525000Y-15525000D01*
X16525000Y-3525000D02*
G75*
G03*
X15525000Y-2525000I-1000000J0D01*
G01*
X3525000Y-2525000D02*
G75*
G03*
X2525000Y-3525000I-1J-999999D01*
G01*
X15525000Y-16525000D02*
G75*
G03*
X16525000Y-15525000I0J1000000D01*
G01*
X2525000Y-15525000D02*
G75*
G03*
X3525000Y-16525000I999999J-1D01*
G01*
X-72675000Y-31100000D02*
X-60675000Y-31100000D01*
X-72675000Y-45100000D02*
X-60675000Y-45100000D01*
X-59675000Y-32100000D02*
X-59675000Y-44100000D01*
X-73675000Y-32100000D02*
X-73675000Y-44100000D01*
X-59675000Y-32100000D02*
G75*
G03*
X-60675000Y-31100000I-1000000J0D01*
G01*
X-72675000Y-31100000D02*
G75*
G03*
X-73675000Y-32100000I-1J-999999D01*
G01*
X-60675000Y-45100000D02*
G75*
G03*
X-59675000Y-44100000I0J1000000D01*
G01*
X-73675000Y-44100000D02*
G75*
G03*
X-72675000Y-45100000I999999J-1D01*
G01*
X-53625000Y-21575000D02*
X-41625000Y-21575000D01*
X-53625000Y-35575000D02*
X-41625000Y-35575000D01*
X-40625000Y-22575000D02*
X-40625000Y-34575000D01*
X-54625000Y-22575000D02*
X-54625000Y-34575000D01*
X-40625000Y-22575000D02*
G75*
G03*
X-41625000Y-21575000I-1000000J0D01*
G01*
X-53625000Y-21575000D02*
G75*
G03*
X-54625000Y-22575000I-1J-999999D01*
G01*
X-41625000Y-35575000D02*
G75*
G03*
X-40625000Y-34575000I0J1000000D01*
G01*
X-54625000Y-34575000D02*
G75*
G03*
X-53625000Y-35575000I999999J-1D01*
G01*
X-34575000Y-12050000D02*
X-22575000Y-12050000D01*
X-34575000Y-26050000D02*
X-22575000Y-26050000D01*
X-21575000Y-13050000D02*
X-21575000Y-25050000D01*
X-35575000Y-13050000D02*
X-35575000Y-25050000D01*
X-21575000Y-13050000D02*
G75*
G03*
X-22575000Y-12050000I-1000000J0D01*
G01*
X-34575000Y-12050000D02*
G75*
G03*
X-35575000Y-13050000I-1J-999999D01*
G01*
X-22575000Y-26050000D02*
G75*
G03*
X-21575000Y-25050000I0J1000000D01*
G01*
X-35575000Y-25050000D02*
G75*
G03*
X-34575000Y-26050000I999999J-1D01*
G01*
X-15525000Y-21575000D02*
X-3525000Y-21575000D01*
X-15525000Y-35575000D02*
X-3525000Y-35575000D01*
X-2525000Y-22575000D02*
X-2525000Y-34575000D01*
X-16525000Y-22575000D02*
X-16525000Y-34575000D01*
X-2525000Y-22575000D02*
G75*
G03*
X-3525000Y-21575000I-1000000J0D01*
G01*
X-15525000Y-21575000D02*
G75*
G03*
X-16525000Y-22575000I-1J-999999D01*
G01*
X-3525000Y-35575000D02*
G75*
G03*
X-2525000Y-34575000I0J1000000D01*
G01*
X-16525000Y-34575000D02*
G75*
G03*
X-15525000Y-35575000I999999J-1D01*
G01*
X3525000Y-21575000D02*
X15525000Y-21575000D01*
X3525000Y-35575000D02*
X15525000Y-35575000D01*
X16525000Y-22575000D02*
X16525000Y-34575000D01*
X2525000Y-22575000D02*
X2525000Y-34575000D01*
X16525000Y-22575000D02*
G75*
G03*
X15525000Y-21575000I-1000000J0D01*
G01*
X3525000Y-21575000D02*
G75*
G03*
X2525000Y-22575000I-1J-999999D01*
G01*
X15525000Y-35575000D02*
G75*
G03*
X16525000Y-34575000I0J1000000D01*
G01*
X2525000Y-34575000D02*
G75*
G03*
X3525000Y-35575000I999999J-1D01*
G01*
X-6000000Y-50150000D02*
X6000000Y-50150000D01*
X-6000000Y-64150000D02*
X6000000Y-64150000D01*
X7000000Y-51150000D02*
X7000000Y-63150000D01*
X-7000000Y-51150000D02*
X-7000000Y-63150000D01*
X7000000Y-51150000D02*
G75*
G03*
X6000000Y-50150000I-1000000J0D01*
G01*
X-6000000Y-50150000D02*
G75*
G03*
X-7000000Y-51150000I-1J-999999D01*
G01*
X6000000Y-64150000D02*
G75*
G03*
X7000000Y-63150000I0J1000000D01*
G01*
X-7000000Y-63150000D02*
G75*
G03*
X-6000000Y-64150000I999999J-1D01*
G01*
X13050000Y-50150000D02*
X25050000Y-50150000D01*
X13050000Y-64150000D02*
X25050000Y-64150000D01*
X26050000Y-51150000D02*
X26050000Y-63150000D01*
X12050000Y-51150000D02*
X12050000Y-63150000D01*
X26050000Y-51150000D02*
G75*
G03*
X25050000Y-50150000I-1000000J0D01*
G01*
X13050000Y-50150000D02*
G75*
G03*
X12050000Y-51150000I-1J-999999D01*
G01*
X25050000Y-64150000D02*
G75*
G03*
X26050000Y-63150000I0J1000000D01*
G01*
X12050000Y-63150000D02*
G75*
G03*
X13050000Y-64150000I999999J-1D01*
G01*
G36*
X-27584763Y-39758305D02*
G01*
X-27583575Y-39850526D01*
X-27579233Y-39920573D01*
X-27570572Y-39971344D01*
X-27556426Y-40005735D01*
X-27535630Y-40026642D01*
X-27507020Y-40036963D01*
X-27471595Y-40039599D01*
X-27434494Y-40036645D01*
X-27406312Y-40025852D01*
X-27385887Y-40004323D01*
X-27372051Y-39969162D01*
X-27363639Y-39917473D01*
X-27359487Y-39846357D01*
X-27358427Y-39758305D01*
X-27358427Y-39562577D01*
X-27220110Y-39562577D01*
X-27220110Y-40166142D01*
X-27289268Y-40166142D01*
X-27330960Y-40164452D01*
X-27352429Y-40158519D01*
X-27358427Y-40147256D01*
X-27362039Y-40137224D01*
X-27376416Y-40139346D01*
X-27405394Y-40153543D01*
X-27471811Y-40175443D01*
X-27542255Y-40173891D01*
X-27609753Y-40150110D01*
X-27641897Y-40131325D01*
X-27666415Y-40110985D01*
X-27684326Y-40085536D01*
X-27696651Y-40051421D01*
X-27704407Y-40005084D01*
X-27708614Y-39942970D01*
X-27710290Y-39861524D01*
X-27710506Y-39798541D01*
X-27710506Y-39562577D01*
X-27584763Y-39562577D01*
X-27584763Y-39758305D01*
G37*
D11*
X-27584763Y-39758305D02*
X-27583575Y-39850526D01*
X-27579233Y-39920573D01*
X-27570572Y-39971344D01*
X-27556426Y-40005735D01*
X-27535630Y-40026642D01*
X-27507020Y-40036963D01*
X-27471595Y-40039599D01*
X-27434494Y-40036645D01*
X-27406312Y-40025852D01*
X-27385887Y-40004323D01*
X-27372051Y-39969162D01*
X-27363639Y-39917473D01*
X-27359487Y-39846357D01*
X-27358427Y-39758305D01*
X-27358427Y-39562577D01*
X-27220110Y-39562577D01*
X-27220110Y-40166142D01*
X-27289268Y-40166142D01*
X-27330960Y-40164452D01*
X-27352429Y-40158519D01*
X-27358427Y-40147256D01*
X-27362039Y-40137224D01*
X-27376416Y-40139346D01*
X-27405394Y-40153543D01*
X-27471811Y-40175443D01*
X-27542255Y-40173891D01*
X-27609753Y-40150110D01*
X-27641897Y-40131325D01*
X-27666415Y-40110985D01*
X-27684326Y-40085536D01*
X-27696651Y-40051421D01*
X-27704407Y-40005084D01*
X-27708614Y-39942970D01*
X-27710290Y-39861524D01*
X-27710506Y-39798541D01*
X-27710506Y-39562577D01*
X-27584763Y-39562577D01*
X-27584763Y-39758305D01*
G36*
X-29264664Y-40762563D02*
G01*
X-29258514Y-40680981D01*
X-29245733Y-40619730D01*
X-29224471Y-40574449D01*
X-29192878Y-40540779D01*
X-29162207Y-40521014D01*
X-29119354Y-40507120D01*
X-29066056Y-40502354D01*
X-29011480Y-40506236D01*
X-28964792Y-40518282D01*
X-28940124Y-40532693D01*
X-28914505Y-40555878D01*
X-28914505Y-40262773D01*
X-28776188Y-40262773D01*
X-28776188Y-41117822D01*
X-28845346Y-41117822D01*
X-28885488Y-41116645D01*
X-28906394Y-41111772D01*
X-28913922Y-41101186D01*
X-28914505Y-41094029D01*
X-28915774Y-41079676D01*
X-28923779Y-41076923D01*
X-28944815Y-41085771D01*
X-28961173Y-41094029D01*
X-29023977Y-41113597D01*
X-29092248Y-41114729D01*
X-29147752Y-41100135D01*
X-29199438Y-41064877D01*
X-29238838Y-41012835D01*
X-29260413Y-40951450D01*
X-29260962Y-40948018D01*
X-29264167Y-40910571D01*
X-29265761Y-40856813D01*
X-29265633Y-40816155D01*
X-29128279Y-40816155D01*
X-29125097Y-40870194D01*
X-29117859Y-40914735D01*
X-29108060Y-40939888D01*
X-29070989Y-40974260D01*
X-29026974Y-40986582D01*
X-28981584Y-40976618D01*
X-28942797Y-40946895D01*
X-28928108Y-40926905D01*
X-28919519Y-40903050D01*
X-28915496Y-40868230D01*
X-28914505Y-40815930D01*
X-28916278Y-40764139D01*
X-28920963Y-40718634D01*
X-28927603Y-40688181D01*
X-28928710Y-40685452D01*
X-28955491Y-40653000D01*
X-28994579Y-40635183D01*
X-29038315Y-40632306D01*
X-29079038Y-40644674D01*
X-29109087Y-40672593D01*
X-29112204Y-40678148D01*
X-29121961Y-40712022D01*
X-29127277Y-40760728D01*
X-29128279Y-40816155D01*
X-29265633Y-40816155D01*
X-29265568Y-40795540D01*
X-29264664Y-40762563D01*
G37*
X-29264664Y-40762563D02*
X-29258514Y-40680981D01*
X-29245733Y-40619730D01*
X-29224471Y-40574449D01*
X-29192878Y-40540779D01*
X-29162207Y-40521014D01*
X-29119354Y-40507120D01*
X-29066056Y-40502354D01*
X-29011480Y-40506236D01*
X-28964792Y-40518282D01*
X-28940124Y-40532693D01*
X-28914505Y-40555878D01*
X-28914505Y-40262773D01*
X-28776188Y-40262773D01*
X-28776188Y-41117822D01*
X-28845346Y-41117822D01*
X-28885488Y-41116645D01*
X-28906394Y-41111772D01*
X-28913922Y-41101186D01*
X-28914505Y-41094029D01*
X-28915774Y-41079676D01*
X-28923779Y-41076923D01*
X-28944815Y-41085771D01*
X-28961173Y-41094029D01*
X-29023977Y-41113597D01*
X-29092248Y-41114729D01*
X-29147752Y-41100135D01*
X-29199438Y-41064877D01*
X-29238838Y-41012835D01*
X-29260413Y-40951450D01*
X-29260962Y-40948018D01*
X-29264167Y-40910571D01*
X-29265761Y-40856813D01*
X-29265633Y-40816155D01*
X-29128279Y-40816155D01*
X-29125097Y-40870194D01*
X-29117859Y-40914735D01*
X-29108060Y-40939888D01*
X-29070989Y-40974260D01*
X-29026974Y-40986582D01*
X-28981584Y-40976618D01*
X-28942797Y-40946895D01*
X-28928108Y-40926905D01*
X-28919519Y-40903050D01*
X-28915496Y-40868230D01*
X-28914505Y-40815930D01*
X-28916278Y-40764139D01*
X-28920963Y-40718634D01*
X-28927603Y-40688181D01*
X-28928710Y-40685452D01*
X-28955491Y-40653000D01*
X-28994579Y-40635183D01*
X-29038315Y-40632306D01*
X-29079038Y-40644674D01*
X-29109087Y-40672593D01*
X-29112204Y-40678148D01*
X-29121961Y-40712022D01*
X-29127277Y-40760728D01*
X-29128279Y-40816155D01*
X-29265633Y-40816155D01*
X-29265568Y-40795540D01*
X-29264664Y-40762563D01*
G36*
X-28564113Y-39560415D02*
G01*
X-28516496Y-39569445D01*
X-28467096Y-39588333D01*
X-28461818Y-39590740D01*
X-28424356Y-39610439D01*
X-28398413Y-39628744D01*
X-28390027Y-39640471D01*
X-28398013Y-39659595D01*
X-28417410Y-39687813D01*
X-28426020Y-39698347D01*
X-28461502Y-39739810D01*
X-28507245Y-39712821D01*
X-28550780Y-39694841D01*
X-28601080Y-39685230D01*
X-28649318Y-39684623D01*
X-28686663Y-39693654D01*
X-28695625Y-39699290D01*
X-28712693Y-39725134D01*
X-28714767Y-39754904D01*
X-28701996Y-39778160D01*
X-28694442Y-39782671D01*
X-28671805Y-39788272D01*
X-28632015Y-39794855D01*
X-28582964Y-39801146D01*
X-28573915Y-39802133D01*
X-28495134Y-39815761D01*
X-28437994Y-39838909D01*
X-28400100Y-39873715D01*
X-28379051Y-39922317D01*
X-28372495Y-39981681D01*
X-28381553Y-40049161D01*
X-28410966Y-40102151D01*
X-28460852Y-40140746D01*
X-28531330Y-40165044D01*
X-28609565Y-40174630D01*
X-28673364Y-40174515D01*
X-28725114Y-40165808D01*
X-28760457Y-40153788D01*
X-28805113Y-40132843D01*
X-28846383Y-40108537D01*
X-28861051Y-40097839D01*
X-28898773Y-40067047D01*
X-28853278Y-40021012D01*
X-28807783Y-39974976D01*
X-28756058Y-40009206D01*
X-28704178Y-40034915D01*
X-28648779Y-40048362D01*
X-28595525Y-40049781D01*
X-28550081Y-40039406D01*
X-28518114Y-40017470D01*
X-28507792Y-39998961D01*
X-28509341Y-39969277D01*
X-28534990Y-39946578D01*
X-28584670Y-39930903D01*
X-28639099Y-39923658D01*
X-28722866Y-39909836D01*
X-28785097Y-39883759D01*
X-28826623Y-39844662D01*
X-28848277Y-39791783D01*
X-28851277Y-39729089D01*
X-28836459Y-39663605D01*
X-28802676Y-39614107D01*
X-28749625Y-39580371D01*
X-28677004Y-39562170D01*
X-28623202Y-39558602D01*
X-28564113Y-39560415D01*
G37*
X-28564113Y-39560415D02*
X-28516496Y-39569445D01*
X-28467096Y-39588333D01*
X-28461818Y-39590740D01*
X-28424356Y-39610439D01*
X-28398413Y-39628744D01*
X-28390027Y-39640471D01*
X-28398013Y-39659595D01*
X-28417410Y-39687813D01*
X-28426020Y-39698347D01*
X-28461502Y-39739810D01*
X-28507245Y-39712821D01*
X-28550780Y-39694841D01*
X-28601080Y-39685230D01*
X-28649318Y-39684623D01*
X-28686663Y-39693654D01*
X-28695625Y-39699290D01*
X-28712693Y-39725134D01*
X-28714767Y-39754904D01*
X-28701996Y-39778160D01*
X-28694442Y-39782671D01*
X-28671805Y-39788272D01*
X-28632015Y-39794855D01*
X-28582964Y-39801146D01*
X-28573915Y-39802133D01*
X-28495134Y-39815761D01*
X-28437994Y-39838909D01*
X-28400100Y-39873715D01*
X-28379051Y-39922317D01*
X-28372495Y-39981681D01*
X-28381553Y-40049161D01*
X-28410966Y-40102151D01*
X-28460852Y-40140746D01*
X-28531330Y-40165044D01*
X-28609565Y-40174630D01*
X-28673364Y-40174515D01*
X-28725114Y-40165808D01*
X-28760457Y-40153788D01*
X-28805113Y-40132843D01*
X-28846383Y-40108537D01*
X-28861051Y-40097839D01*
X-28898773Y-40067047D01*
X-28853278Y-40021012D01*
X-28807783Y-39974976D01*
X-28756058Y-40009206D01*
X-28704178Y-40034915D01*
X-28648779Y-40048362D01*
X-28595525Y-40049781D01*
X-28550081Y-40039406D01*
X-28518114Y-40017470D01*
X-28507792Y-39998961D01*
X-28509341Y-39969277D01*
X-28534990Y-39946578D01*
X-28584670Y-39930903D01*
X-28639099Y-39923658D01*
X-28722866Y-39909836D01*
X-28785097Y-39883759D01*
X-28826623Y-39844662D01*
X-28848277Y-39791783D01*
X-28851277Y-39729089D01*
X-28836459Y-39663605D01*
X-28802676Y-39614107D01*
X-28749625Y-39580371D01*
X-28677004Y-39562170D01*
X-28623202Y-39558602D01*
X-28564113Y-39560415D01*
G36*
X-27841467Y-40839207D02*
G01*
X-27810506Y-40800543D01*
X-27791754Y-40783827D01*
X-27773397Y-40772841D01*
X-27749511Y-40766143D01*
X-27714173Y-40762289D01*
X-27661461Y-40759836D01*
X-27640553Y-40759131D01*
X-27509318Y-40754842D01*
X-27509510Y-40715121D01*
X-27514593Y-40673368D01*
X-27532968Y-40648121D01*
X-27570091Y-40631993D01*
X-27571087Y-40631705D01*
X-27623720Y-40625363D01*
X-27675224Y-40633647D01*
X-27713500Y-40653790D01*
X-27728858Y-40663736D01*
X-27745400Y-40662360D01*
X-27770855Y-40647950D01*
X-27785802Y-40637780D01*
X-27815039Y-40616051D01*
X-27833150Y-40599763D01*
X-27836056Y-40595100D01*
X-27824090Y-40570968D01*
X-27788734Y-40542148D01*
X-27773377Y-40532424D01*
X-27729229Y-40515677D01*
X-27669732Y-40506190D01*
X-27603643Y-40504058D01*
X-27539719Y-40509380D01*
X-27486719Y-40522253D01*
X-27471399Y-40529073D01*
X-27441702Y-40546937D01*
X-27418910Y-40567056D01*
X-27402047Y-40592925D01*
X-27390132Y-40628036D01*
X-27382188Y-40675883D01*
X-27377236Y-40739959D01*
X-27374299Y-40823757D01*
X-27373183Y-40879731D01*
X-27369078Y-41121785D01*
X-27439198Y-41121785D01*
X-27481737Y-41120001D01*
X-27503654Y-41113905D01*
X-27509318Y-41103669D01*
X-27512309Y-41092600D01*
X-27525679Y-41094717D01*
X-27543897Y-41103592D01*
X-27589506Y-41117196D01*
X-27648123Y-41120862D01*
X-27709776Y-41114866D01*
X-27764492Y-41099484D01*
X-27769400Y-41097349D01*
X-27819407Y-41062218D01*
X-27852374Y-41013382D01*
X-27867543Y-40956296D01*
X-27866384Y-40935787D01*
X-27742622Y-40935787D01*
X-27731717Y-40963388D01*
X-27699385Y-40983167D01*
X-27647220Y-40993782D01*
X-27619343Y-40995191D01*
X-27572883Y-40991583D01*
X-27542001Y-40977560D01*
X-27534466Y-40970894D01*
X-27514054Y-40934629D01*
X-27509318Y-40901736D01*
X-27509318Y-40857726D01*
X-27570617Y-40857726D01*
X-27641874Y-40861358D01*
X-27691854Y-40872781D01*
X-27723434Y-40892787D01*
X-27730504Y-40901706D01*
X-27742622Y-40935787D01*
X-27866384Y-40935787D01*
X-27864159Y-40896419D01*
X-27841467Y-40839207D01*
G37*
X-27841467Y-40839207D02*
X-27810506Y-40800543D01*
X-27791754Y-40783827D01*
X-27773397Y-40772841D01*
X-27749511Y-40766143D01*
X-27714173Y-40762289D01*
X-27661461Y-40759836D01*
X-27640553Y-40759131D01*
X-27509318Y-40754842D01*
X-27509510Y-40715121D01*
X-27514593Y-40673368D01*
X-27532968Y-40648121D01*
X-27570091Y-40631993D01*
X-27571087Y-40631705D01*
X-27623720Y-40625363D01*
X-27675224Y-40633647D01*
X-27713500Y-40653790D01*
X-27728858Y-40663736D01*
X-27745400Y-40662360D01*
X-27770855Y-40647950D01*
X-27785802Y-40637780D01*
X-27815039Y-40616051D01*
X-27833150Y-40599763D01*
X-27836056Y-40595100D01*
X-27824090Y-40570968D01*
X-27788734Y-40542148D01*
X-27773377Y-40532424D01*
X-27729229Y-40515677D01*
X-27669732Y-40506190D01*
X-27603643Y-40504058D01*
X-27539719Y-40509380D01*
X-27486719Y-40522253D01*
X-27471399Y-40529073D01*
X-27441702Y-40546937D01*
X-27418910Y-40567056D01*
X-27402047Y-40592925D01*
X-27390132Y-40628036D01*
X-27382188Y-40675883D01*
X-27377236Y-40739959D01*
X-27374299Y-40823757D01*
X-27373183Y-40879731D01*
X-27369078Y-41121785D01*
X-27439198Y-41121785D01*
X-27481737Y-41120001D01*
X-27503654Y-41113905D01*
X-27509318Y-41103669D01*
X-27512309Y-41092600D01*
X-27525679Y-41094717D01*
X-27543897Y-41103592D01*
X-27589506Y-41117196D01*
X-27648123Y-41120862D01*
X-27709776Y-41114866D01*
X-27764492Y-41099484D01*
X-27769400Y-41097349D01*
X-27819407Y-41062218D01*
X-27852374Y-41013382D01*
X-27867543Y-40956296D01*
X-27866384Y-40935787D01*
X-27742622Y-40935787D01*
X-27731717Y-40963388D01*
X-27699385Y-40983167D01*
X-27647220Y-40993782D01*
X-27619343Y-40995191D01*
X-27572883Y-40991583D01*
X-27542001Y-40977560D01*
X-27534466Y-40970894D01*
X-27514054Y-40934629D01*
X-27509318Y-40901736D01*
X-27509318Y-40857726D01*
X-27570617Y-40857726D01*
X-27641874Y-40861358D01*
X-27691854Y-40872781D01*
X-27723434Y-40892787D01*
X-27730504Y-40901706D01*
X-27742622Y-40935787D01*
X-27866384Y-40935787D01*
X-27864159Y-40896419D01*
X-27841467Y-40839207D01*
G36*
X-28292742Y-39714464D02*
G01*
X-28259101Y-39646493D01*
X-28209112Y-39597627D01*
X-28142774Y-39567862D01*
X-28128529Y-39564411D01*
X-28042920Y-39556308D01*
X-27967368Y-39570018D01*
X-27903767Y-39604655D01*
X-27854007Y-39659335D01*
X-27830562Y-39703805D01*
X-27820496Y-39743084D01*
X-27813974Y-39799079D01*
X-27811179Y-39863584D01*
X-27812294Y-39928392D01*
X-27817504Y-39985297D01*
X-27823589Y-40015690D01*
X-27844116Y-40057269D01*
X-27879667Y-40101431D01*
X-27922511Y-40140050D01*
X-27964919Y-40164997D01*
X-27965953Y-40165393D01*
X-28018577Y-40176294D01*
X-28080942Y-40176564D01*
X-28140206Y-40166639D01*
X-28163090Y-40158685D01*
X-28222028Y-40125263D01*
X-28264240Y-40081474D01*
X-28291974Y-40023501D01*
X-28307479Y-39947528D01*
X-28310987Y-39907734D01*
X-28310540Y-39857729D01*
X-28175754Y-39857729D01*
X-28171213Y-39930695D01*
X-28158144Y-39986297D01*
X-28137374Y-40021824D01*
X-28122578Y-40031983D01*
X-28084666Y-40039067D01*
X-28039603Y-40036970D01*
X-28000643Y-40026775D01*
X-27990426Y-40021167D01*
X-27963471Y-39988501D01*
X-27945679Y-39938508D01*
X-27938106Y-39877668D01*
X-27941805Y-39812460D01*
X-27950073Y-39773216D01*
X-27973810Y-39727768D01*
X-28011281Y-39699359D01*
X-28056410Y-39689536D01*
X-28103119Y-39699850D01*
X-28138998Y-39725075D01*
X-28157853Y-39745888D01*
X-28168858Y-39766402D01*
X-28174104Y-39794166D01*
X-28175681Y-39836725D01*
X-28175754Y-39857729D01*
X-28310540Y-39857729D01*
X-28310036Y-39801543D01*
X-28292742Y-39714464D01*
G37*
X-28292742Y-39714464D02*
X-28259101Y-39646493D01*
X-28209112Y-39597627D01*
X-28142774Y-39567862D01*
X-28128529Y-39564411D01*
X-28042920Y-39556308D01*
X-27967368Y-39570018D01*
X-27903767Y-39604655D01*
X-27854007Y-39659335D01*
X-27830562Y-39703805D01*
X-27820496Y-39743084D01*
X-27813974Y-39799079D01*
X-27811179Y-39863584D01*
X-27812294Y-39928392D01*
X-27817504Y-39985297D01*
X-27823589Y-40015690D01*
X-27844116Y-40057269D01*
X-27879667Y-40101431D01*
X-27922511Y-40140050D01*
X-27964919Y-40164997D01*
X-27965953Y-40165393D01*
X-28018577Y-40176294D01*
X-28080942Y-40176564D01*
X-28140206Y-40166639D01*
X-28163090Y-40158685D01*
X-28222028Y-40125263D01*
X-28264240Y-40081474D01*
X-28291974Y-40023501D01*
X-28307479Y-39947528D01*
X-28310987Y-39907734D01*
X-28310540Y-39857729D01*
X-28175754Y-39857729D01*
X-28171213Y-39930695D01*
X-28158144Y-39986297D01*
X-28137374Y-40021824D01*
X-28122578Y-40031983D01*
X-28084666Y-40039067D01*
X-28039603Y-40036970D01*
X-28000643Y-40026775D01*
X-27990426Y-40021167D01*
X-27963471Y-39988501D01*
X-27945679Y-39938508D01*
X-27938106Y-39877668D01*
X-27941805Y-39812460D01*
X-27950073Y-39773216D01*
X-27973810Y-39727768D01*
X-28011281Y-39699359D01*
X-28056410Y-39689536D01*
X-28103119Y-39699850D01*
X-28138998Y-39725075D01*
X-28157853Y-39745888D01*
X-28168858Y-39766402D01*
X-28174104Y-39794166D01*
X-28175681Y-39836725D01*
X-28175754Y-39857729D01*
X-28310540Y-39857729D01*
X-28310036Y-39801543D01*
X-28292742Y-39714464D01*
G36*
X-29571486Y-40506983D02*
G01*
X-29552669Y-40512623D01*
X-29546603Y-40525016D01*
X-29546348Y-40530610D01*
X-29545259Y-40546193D01*
X-29537762Y-40548639D01*
X-29517511Y-40537956D01*
X-29505481Y-40530657D01*
X-29467530Y-40515026D01*
X-29422202Y-40507297D01*
X-29374674Y-40506703D01*
X-29330125Y-40512476D01*
X-29293732Y-40523847D01*
X-29270673Y-40540051D01*
X-29266126Y-40560318D01*
X-29268421Y-40565806D01*
X-29285150Y-40588589D01*
X-29311093Y-40616610D01*
X-29315785Y-40621140D01*
X-29340513Y-40641968D01*
X-29361848Y-40648698D01*
X-29391685Y-40644001D01*
X-29403638Y-40640880D01*
X-29440835Y-40633384D01*
X-29466989Y-40636755D01*
X-29489076Y-40648644D01*
X-29509308Y-40664598D01*
X-29524209Y-40684663D01*
X-29534564Y-40712665D01*
X-29541159Y-40752430D01*
X-29544779Y-40807786D01*
X-29546208Y-40882557D01*
X-29546348Y-40927703D01*
X-29546348Y-41121785D01*
X-29672090Y-41121785D01*
X-29672090Y-40505646D01*
X-29609219Y-40505646D01*
X-29571486Y-40506983D01*
G37*
X-29571486Y-40506983D02*
X-29552669Y-40512623D01*
X-29546603Y-40525016D01*
X-29546348Y-40530610D01*
X-29545259Y-40546193D01*
X-29537762Y-40548639D01*
X-29517511Y-40537956D01*
X-29505481Y-40530657D01*
X-29467530Y-40515026D01*
X-29422202Y-40507297D01*
X-29374674Y-40506703D01*
X-29330125Y-40512476D01*
X-29293732Y-40523847D01*
X-29270673Y-40540051D01*
X-29266126Y-40560318D01*
X-29268421Y-40565806D01*
X-29285150Y-40588589D01*
X-29311093Y-40616610D01*
X-29315785Y-40621140D01*
X-29340513Y-40641968D01*
X-29361848Y-40648698D01*
X-29391685Y-40644001D01*
X-29403638Y-40640880D01*
X-29440835Y-40633384D01*
X-29466989Y-40636755D01*
X-29489076Y-40648644D01*
X-29509308Y-40664598D01*
X-29524209Y-40684663D01*
X-29534564Y-40712665D01*
X-29541159Y-40752430D01*
X-29544779Y-40807786D01*
X-29546208Y-40882557D01*
X-29546348Y-40927703D01*
X-29546348Y-41121785D01*
X-29672090Y-41121785D01*
X-29672090Y-40505646D01*
X-29609219Y-40505646D01*
X-29571486Y-40506983D01*
G36*
X-30258840Y-40827808D02*
G01*
X-30215078Y-40785610D01*
X-30209029Y-40781771D01*
X-30183037Y-40769272D01*
X-30150865Y-40761703D01*
X-30105890Y-40758024D01*
X-30052461Y-40757179D01*
X-29936150Y-40757132D01*
X-29936150Y-40708374D01*
X-29941083Y-40670544D01*
X-29953673Y-40645199D01*
X-29955147Y-40643850D01*
X-29983164Y-40632763D01*
X-30025456Y-40628466D01*
X-30072194Y-40630578D01*
X-30113548Y-40638719D01*
X-30138087Y-40650928D01*
X-30151383Y-40660709D01*
X-30165424Y-40662576D01*
X-30184801Y-40654563D01*
X-30214106Y-40634702D01*
X-30257933Y-40601026D01*
X-30261955Y-40597872D01*
X-30259894Y-40586199D01*
X-30242698Y-40566785D01*
X-30216563Y-40545211D01*
X-30187682Y-40527059D01*
X-30178608Y-40522772D01*
X-30145510Y-40514219D01*
X-30097010Y-40508118D01*
X-30042825Y-40505671D01*
X-30040291Y-40505666D01*
X-29962340Y-40510518D01*
X-29903185Y-40526302D01*
X-29858153Y-40554911D01*
X-29826376Y-40592382D01*
X-29816496Y-40608374D01*
X-29809203Y-40625126D01*
X-29804104Y-40646555D01*
X-29800809Y-40676579D01*
X-29798927Y-40719117D01*
X-29798067Y-40778085D01*
X-29797837Y-40857403D01*
X-29797833Y-40878447D01*
X-29797833Y-41121785D01*
X-29858189Y-41121785D01*
X-29896687Y-41119089D01*
X-29925153Y-41112258D01*
X-29932285Y-41108046D01*
X-29951782Y-41100776D01*
X-29971696Y-41108046D01*
X-30004483Y-41117123D01*
X-30052108Y-41120776D01*
X-30104894Y-41119191D01*
X-30153166Y-41112552D01*
X-30181348Y-41104035D01*
X-30235883Y-41069026D01*
X-30269965Y-41020442D01*
X-30285287Y-40955845D01*
X-30285429Y-40954186D01*
X-30284085Y-40925529D01*
X-30162486Y-40925529D01*
X-30151856Y-40958124D01*
X-30134540Y-40976468D01*
X-30099782Y-40990342D01*
X-30053903Y-40995880D01*
X-30007118Y-40993154D01*
X-29969644Y-40982237D01*
X-29959145Y-40975232D01*
X-29940798Y-40942867D01*
X-29936150Y-40906074D01*
X-29936150Y-40857726D01*
X-30005712Y-40857726D01*
X-30071797Y-40862813D01*
X-30121894Y-40877226D01*
X-30153059Y-40899692D01*
X-30162486Y-40925529D01*
X-30284085Y-40925529D01*
X-30282117Y-40883610D01*
X-30258840Y-40827808D01*
G37*
X-30258840Y-40827808D02*
X-30215078Y-40785610D01*
X-30209029Y-40781771D01*
X-30183037Y-40769272D01*
X-30150865Y-40761703D01*
X-30105890Y-40758024D01*
X-30052461Y-40757179D01*
X-29936150Y-40757132D01*
X-29936150Y-40708374D01*
X-29941083Y-40670544D01*
X-29953673Y-40645199D01*
X-29955147Y-40643850D01*
X-29983164Y-40632763D01*
X-30025456Y-40628466D01*
X-30072194Y-40630578D01*
X-30113548Y-40638719D01*
X-30138087Y-40650928D01*
X-30151383Y-40660709D01*
X-30165424Y-40662576D01*
X-30184801Y-40654563D01*
X-30214106Y-40634702D01*
X-30257933Y-40601026D01*
X-30261955Y-40597872D01*
X-30259894Y-40586199D01*
X-30242698Y-40566785D01*
X-30216563Y-40545211D01*
X-30187682Y-40527059D01*
X-30178608Y-40522772D01*
X-30145510Y-40514219D01*
X-30097010Y-40508118D01*
X-30042825Y-40505671D01*
X-30040291Y-40505666D01*
X-29962340Y-40510518D01*
X-29903185Y-40526302D01*
X-29858153Y-40554911D01*
X-29826376Y-40592382D01*
X-29816496Y-40608374D01*
X-29809203Y-40625126D01*
X-29804104Y-40646555D01*
X-29800809Y-40676579D01*
X-29798927Y-40719117D01*
X-29798067Y-40778085D01*
X-29797837Y-40857403D01*
X-29797833Y-40878447D01*
X-29797833Y-41121785D01*
X-29858189Y-41121785D01*
X-29896687Y-41119089D01*
X-29925153Y-41112258D01*
X-29932285Y-41108046D01*
X-29951782Y-41100776D01*
X-29971696Y-41108046D01*
X-30004483Y-41117123D01*
X-30052108Y-41120776D01*
X-30104894Y-41119191D01*
X-30153166Y-41112552D01*
X-30181348Y-41104035D01*
X-30235883Y-41069026D01*
X-30269965Y-41020442D01*
X-30285287Y-40955845D01*
X-30285429Y-40954186D01*
X-30284085Y-40925529D01*
X-30162486Y-40925529D01*
X-30151856Y-40958124D01*
X-30134540Y-40976468D01*
X-30099782Y-40990342D01*
X-30053903Y-40995880D01*
X-30007118Y-40993154D01*
X-29969644Y-40982237D01*
X-29959145Y-40975232D01*
X-29940798Y-40942867D01*
X-29936150Y-40906074D01*
X-29936150Y-40857726D01*
X-30005712Y-40857726D01*
X-30071797Y-40862813D01*
X-30121894Y-40877226D01*
X-30153059Y-40899692D01*
X-30162486Y-40925529D01*
X-30284085Y-40925529D01*
X-30282117Y-40883610D01*
X-30258840Y-40827808D01*
G36*
X-30244168Y-39663988D02*
G01*
X-30211937Y-39624602D01*
X-30152347Y-39581894D01*
X-30082298Y-39559072D01*
X-30007791Y-39557009D01*
X-29934829Y-39576577D01*
X-29922298Y-39582477D01*
X-29878929Y-39614246D01*
X-29837920Y-39660609D01*
X-29807298Y-39711659D01*
X-29798589Y-39735129D01*
X-29790642Y-39777054D01*
X-29785904Y-39827720D01*
X-29785329Y-39848642D01*
X-29785259Y-39914656D01*
X-30165213Y-39914656D01*
X-30157113Y-39949236D01*
X-30137234Y-39990133D01*
X-30102477Y-40025477D01*
X-30061128Y-40048245D01*
X-30034779Y-40052973D01*
X-29999046Y-40047236D01*
X-29956412Y-40032845D01*
X-29941929Y-40026225D01*
X-29888370Y-39999476D01*
X-29842663Y-40034339D01*
X-29816288Y-40057918D01*
X-29802254Y-40077380D01*
X-29801544Y-40083092D01*
X-29814081Y-40096936D01*
X-29841558Y-40117975D01*
X-29866496Y-40134388D01*
X-29933794Y-40163893D01*
X-30009240Y-40177247D01*
X-30084018Y-40173775D01*
X-30143625Y-40155626D01*
X-30205071Y-40116747D01*
X-30248738Y-40065558D01*
X-30276056Y-39999330D01*
X-30288452Y-39915334D01*
X-30289551Y-39876899D01*
X-30285152Y-39788824D01*
X-30284612Y-39786262D01*
X-30158712Y-39786262D01*
X-30155245Y-39794521D01*
X-30140993Y-39799076D01*
X-30111600Y-39801028D01*
X-30062705Y-39801480D01*
X-30043878Y-39801488D01*
X-29986597Y-39800806D01*
X-29950271Y-39798327D01*
X-29930734Y-39793406D01*
X-29923820Y-39785397D01*
X-29923575Y-39782825D01*
X-29931466Y-39762386D01*
X-29951215Y-39733752D01*
X-29959705Y-39723726D01*
X-29991224Y-39695371D01*
X-30024079Y-39684222D01*
X-30041781Y-39683290D01*
X-30089669Y-39694944D01*
X-30129829Y-39726248D01*
X-30155303Y-39771715D01*
X-30155755Y-39773196D01*
X-30158712Y-39786262D01*
X-30284612Y-39786262D01*
X-30270522Y-39719473D01*
X-30244168Y-39663988D01*
G37*
X-30244168Y-39663988D02*
X-30211937Y-39624602D01*
X-30152347Y-39581894D01*
X-30082298Y-39559072D01*
X-30007791Y-39557009D01*
X-29934829Y-39576577D01*
X-29922298Y-39582477D01*
X-29878929Y-39614246D01*
X-29837920Y-39660609D01*
X-29807298Y-39711659D01*
X-29798589Y-39735129D01*
X-29790642Y-39777054D01*
X-29785904Y-39827720D01*
X-29785329Y-39848642D01*
X-29785259Y-39914656D01*
X-30165213Y-39914656D01*
X-30157113Y-39949236D01*
X-30137234Y-39990133D01*
X-30102477Y-40025477D01*
X-30061128Y-40048245D01*
X-30034779Y-40052973D01*
X-29999046Y-40047236D01*
X-29956412Y-40032845D01*
X-29941929Y-40026225D01*
X-29888370Y-39999476D01*
X-29842663Y-40034339D01*
X-29816288Y-40057918D01*
X-29802254Y-40077380D01*
X-29801544Y-40083092D01*
X-29814081Y-40096936D01*
X-29841558Y-40117975D01*
X-29866496Y-40134388D01*
X-29933794Y-40163893D01*
X-30009240Y-40177247D01*
X-30084018Y-40173775D01*
X-30143625Y-40155626D01*
X-30205071Y-40116747D01*
X-30248738Y-40065558D01*
X-30276056Y-39999330D01*
X-30288452Y-39915334D01*
X-30289551Y-39876899D01*
X-30285152Y-39788824D01*
X-30284612Y-39786262D01*
X-30158712Y-39786262D01*
X-30155245Y-39794521D01*
X-30140993Y-39799076D01*
X-30111600Y-39801028D01*
X-30062705Y-39801480D01*
X-30043878Y-39801488D01*
X-29986597Y-39800806D01*
X-29950271Y-39798327D01*
X-29930734Y-39793406D01*
X-29923820Y-39785397D01*
X-29923575Y-39782825D01*
X-29931466Y-39762386D01*
X-29951215Y-39733752D01*
X-29959705Y-39723726D01*
X-29991224Y-39695371D01*
X-30024079Y-39684222D01*
X-30041781Y-39683290D01*
X-30089669Y-39694944D01*
X-30129829Y-39726248D01*
X-30155303Y-39771715D01*
X-30155755Y-39773196D01*
X-30158712Y-39786262D01*
X-30284612Y-39786262D01*
X-30270522Y-39719473D01*
X-30244168Y-39663988D01*
G36*
X-26778670Y-39561993D02*
G01*
X-26735419Y-39575208D01*
X-26707572Y-39591904D01*
X-26698501Y-39605108D01*
X-26700998Y-39620760D01*
X-26717199Y-39645348D01*
X-26730898Y-39662763D01*
X-26759138Y-39694246D01*
X-26780355Y-39707492D01*
X-26798442Y-39706627D01*
X-26852095Y-39692973D01*
X-26891500Y-39693593D01*
X-26923498Y-39709067D01*
X-26934240Y-39718124D01*
X-26968625Y-39749990D01*
X-26968625Y-40166142D01*
X-27106942Y-40166142D01*
X-27106942Y-39562577D01*
X-27037783Y-39562577D01*
X-26996261Y-39564219D01*
X-26974839Y-39570050D01*
X-26968628Y-39581424D01*
X-26968625Y-39581761D01*
X-26965691Y-39593676D01*
X-26952426Y-39592122D01*
X-26934046Y-39583526D01*
X-26896084Y-39567531D01*
X-26865258Y-39557908D01*
X-26825594Y-39555441D01*
X-26778670Y-39561993D01*
G37*
X-26778670Y-39561993D02*
X-26735419Y-39575208D01*
X-26707572Y-39591904D01*
X-26698501Y-39605108D01*
X-26700998Y-39620760D01*
X-26717199Y-39645348D01*
X-26730898Y-39662763D01*
X-26759138Y-39694246D01*
X-26780355Y-39707492D01*
X-26798442Y-39706627D01*
X-26852095Y-39692973D01*
X-26891500Y-39693593D01*
X-26923498Y-39709067D01*
X-26934240Y-39718124D01*
X-26968625Y-39749990D01*
X-26968625Y-40166142D01*
X-27106942Y-40166142D01*
X-27106942Y-39562577D01*
X-27037783Y-39562577D01*
X-26996261Y-39564219D01*
X-26974839Y-39570050D01*
X-26968628Y-39581424D01*
X-26968625Y-39581761D01*
X-26965691Y-39593676D01*
X-26952426Y-39592122D01*
X-26934046Y-39583526D01*
X-26896084Y-39567531D01*
X-26865258Y-39557908D01*
X-26825594Y-39555441D01*
X-26778670Y-39561993D01*
G36*
X-26149432Y-39668154D02*
G01*
X-26103429Y-39612742D01*
X-26045309Y-39574972D01*
X-25976950Y-39556859D01*
X-25900232Y-39560420D01*
X-25868034Y-39568242D01*
X-25806305Y-39596884D01*
X-25753520Y-39640630D01*
X-25716989Y-39693080D01*
X-25711970Y-39704856D01*
X-25705085Y-39735703D01*
X-25700266Y-39781334D01*
X-25698625Y-39827455D01*
X-25698625Y-39914656D01*
X-25880952Y-39914656D01*
X-25956151Y-39914941D01*
X-26009127Y-39916667D01*
X-26042805Y-39921144D01*
X-26060110Y-39929683D01*
X-26063967Y-39943593D01*
X-26057301Y-39964185D01*
X-26045360Y-39988278D01*
X-26012050Y-40028488D01*
X-25965762Y-40048521D01*
X-25909186Y-40047868D01*
X-25845099Y-40026064D01*
X-25789713Y-39999156D01*
X-25743755Y-40035495D01*
X-25697797Y-40071835D01*
X-25741034Y-40111782D01*
X-25798756Y-40149526D01*
X-25869744Y-40172283D01*
X-25946101Y-40178651D01*
X-26019931Y-40167231D01*
X-26031843Y-40163356D01*
X-26096731Y-40129469D01*
X-26145000Y-40078949D01*
X-26177665Y-40010288D01*
X-26195745Y-39921977D01*
X-26195955Y-39920084D01*
X-26197574Y-39823841D01*
X-26191030Y-39789505D01*
X-26063278Y-39789505D01*
X-26051546Y-39794785D01*
X-26019692Y-39798830D01*
X-25972733Y-39801139D01*
X-25942976Y-39801488D01*
X-25887482Y-39801269D01*
X-25852784Y-39799879D01*
X-25834529Y-39796214D01*
X-25828364Y-39789173D01*
X-25829935Y-39777653D01*
X-25831252Y-39773196D01*
X-25853748Y-39731318D01*
X-25889127Y-39697567D01*
X-25920350Y-39682736D01*
X-25961829Y-39683631D01*
X-26003861Y-39702127D01*
X-26039118Y-39732749D01*
X-26060276Y-39770025D01*
X-26063278Y-39789505D01*
X-26191030Y-39789505D01*
X-26181440Y-39739192D01*
X-26149432Y-39668154D01*
G37*
X-26149432Y-39668154D02*
X-26103429Y-39612742D01*
X-26045309Y-39574972D01*
X-25976950Y-39556859D01*
X-25900232Y-39560420D01*
X-25868034Y-39568242D01*
X-25806305Y-39596884D01*
X-25753520Y-39640630D01*
X-25716989Y-39693080D01*
X-25711970Y-39704856D01*
X-25705085Y-39735703D01*
X-25700266Y-39781334D01*
X-25698625Y-39827455D01*
X-25698625Y-39914656D01*
X-25880952Y-39914656D01*
X-25956151Y-39914941D01*
X-26009127Y-39916667D01*
X-26042805Y-39921144D01*
X-26060110Y-39929683D01*
X-26063967Y-39943593D01*
X-26057301Y-39964185D01*
X-26045360Y-39988278D01*
X-26012050Y-40028488D01*
X-25965762Y-40048521D01*
X-25909186Y-40047868D01*
X-25845099Y-40026064D01*
X-25789713Y-39999156D01*
X-25743755Y-40035495D01*
X-25697797Y-40071835D01*
X-25741034Y-40111782D01*
X-25798756Y-40149526D01*
X-25869744Y-40172283D01*
X-25946101Y-40178651D01*
X-26019931Y-40167231D01*
X-26031843Y-40163356D01*
X-26096731Y-40129469D01*
X-26145000Y-40078949D01*
X-26177665Y-40010288D01*
X-26195745Y-39921977D01*
X-26195955Y-39920084D01*
X-26197574Y-39823841D01*
X-26191030Y-39789505D01*
X-26063278Y-39789505D01*
X-26051546Y-39794785D01*
X-26019692Y-39798830D01*
X-25972733Y-39801139D01*
X-25942976Y-39801488D01*
X-25887482Y-39801269D01*
X-25852784Y-39799879D01*
X-25834529Y-39796214D01*
X-25828364Y-39789173D01*
X-25829935Y-39777653D01*
X-25831252Y-39773196D01*
X-25853748Y-39731318D01*
X-25889127Y-39697567D01*
X-25920350Y-39682736D01*
X-25961829Y-39683631D01*
X-26003861Y-39702127D01*
X-26039118Y-39732749D01*
X-26060276Y-39770025D01*
X-26063278Y-39789505D01*
X-26191030Y-39789505D01*
X-26181440Y-39739192D01*
X-26149432Y-39668154D01*
G36*
X-26814075Y-40634912D02*
G01*
X-26777660Y-40575226D01*
X-26725833Y-40534512D01*
X-26658140Y-40512142D01*
X-26621468Y-40507834D01*
X-26545549Y-40508933D01*
X-26485445Y-40524560D01*
X-26435109Y-40556811D01*
X-26410737Y-40580903D01*
X-26370785Y-40637858D01*
X-26347888Y-40703928D01*
X-26340022Y-40785145D01*
X-26339982Y-40791711D01*
X-26339912Y-40857726D01*
X-26719866Y-40857726D01*
X-26711767Y-40892305D01*
X-26697143Y-40923622D01*
X-26671549Y-40956254D01*
X-26666195Y-40961463D01*
X-26620187Y-40989657D01*
X-26567720Y-40994438D01*
X-26507327Y-40975889D01*
X-26497090Y-40970894D01*
X-26465691Y-40955708D01*
X-26444660Y-40947057D01*
X-26440991Y-40946256D01*
X-26428182Y-40954026D01*
X-26403752Y-40973035D01*
X-26391351Y-40983423D01*
X-26365654Y-41007284D01*
X-26357215Y-41023040D01*
X-26363072Y-41037534D01*
X-26366202Y-41041497D01*
X-26387405Y-41058842D01*
X-26422392Y-41079922D01*
X-26446793Y-41092228D01*
X-26516058Y-41113909D01*
X-26592742Y-41120934D01*
X-26665365Y-41112610D01*
X-26685704Y-41106649D01*
X-26748654Y-41072915D01*
X-26795315Y-41021008D01*
X-26825957Y-40950422D01*
X-26840848Y-40860655D01*
X-26842483Y-40813716D01*
X-26837709Y-40745376D01*
X-26717140Y-40745376D01*
X-26705478Y-40750428D01*
X-26674132Y-40754392D01*
X-26628559Y-40756731D01*
X-26597684Y-40757132D01*
X-26542149Y-40756746D01*
X-26507097Y-40754938D01*
X-26487868Y-40750736D01*
X-26479800Y-40743166D01*
X-26478229Y-40732181D01*
X-26489009Y-40698344D01*
X-26516150Y-40664903D01*
X-26551853Y-40639235D01*
X-26587570Y-40628735D01*
X-26636082Y-40638049D01*
X-26678077Y-40664976D01*
X-26707194Y-40703790D01*
X-26717140Y-40745376D01*
X-26837709Y-40745376D01*
X-26835531Y-40714199D01*
X-26814075Y-40634912D01*
G37*
X-26814075Y-40634912D02*
X-26777660Y-40575226D01*
X-26725833Y-40534512D01*
X-26658140Y-40512142D01*
X-26621468Y-40507834D01*
X-26545549Y-40508933D01*
X-26485445Y-40524560D01*
X-26435109Y-40556811D01*
X-26410737Y-40580903D01*
X-26370785Y-40637858D01*
X-26347888Y-40703928D01*
X-26340022Y-40785145D01*
X-26339982Y-40791711D01*
X-26339912Y-40857726D01*
X-26719866Y-40857726D01*
X-26711767Y-40892305D01*
X-26697143Y-40923622D01*
X-26671549Y-40956254D01*
X-26666195Y-40961463D01*
X-26620187Y-40989657D01*
X-26567720Y-40994438D01*
X-26507327Y-40975889D01*
X-26497090Y-40970894D01*
X-26465691Y-40955708D01*
X-26444660Y-40947057D01*
X-26440991Y-40946256D01*
X-26428182Y-40954026D01*
X-26403752Y-40973035D01*
X-26391351Y-40983423D01*
X-26365654Y-41007284D01*
X-26357215Y-41023040D01*
X-26363072Y-41037534D01*
X-26366202Y-41041497D01*
X-26387405Y-41058842D01*
X-26422392Y-41079922D01*
X-26446793Y-41092228D01*
X-26516058Y-41113909D01*
X-26592742Y-41120934D01*
X-26665365Y-41112610D01*
X-26685704Y-41106649D01*
X-26748654Y-41072915D01*
X-26795315Y-41021008D01*
X-26825957Y-40950422D01*
X-26840848Y-40860655D01*
X-26842483Y-40813716D01*
X-26837709Y-40745376D01*
X-26717140Y-40745376D01*
X-26705478Y-40750428D01*
X-26674132Y-40754392D01*
X-26628559Y-40756731D01*
X-26597684Y-40757132D01*
X-26542149Y-40756746D01*
X-26507097Y-40754938D01*
X-26487868Y-40750736D01*
X-26479800Y-40743166D01*
X-26478229Y-40732181D01*
X-26489009Y-40698344D01*
X-26516150Y-40664903D01*
X-26551853Y-40639235D01*
X-26587570Y-40628735D01*
X-26636082Y-40638049D01*
X-26678077Y-40664976D01*
X-26707194Y-40703790D01*
X-26717140Y-40745376D01*
X-26837709Y-40745376D01*
X-26835531Y-40714199D01*
X-26814075Y-40634912D01*
G36*
X-29332142Y-39572965D02*
G01*
X-29300847Y-39587913D01*
X-29270539Y-39609504D01*
X-29247448Y-39634354D01*
X-29230630Y-39666050D01*
X-29219136Y-39708177D01*
X-29212021Y-39764321D01*
X-29208337Y-39838069D01*
X-29207138Y-39933007D01*
X-29207119Y-39942948D01*
X-29206843Y-40166142D01*
X-29345160Y-40166142D01*
X-29345160Y-39960381D01*
X-29345258Y-39884152D01*
X-29345939Y-39828902D01*
X-29347781Y-39790464D01*
X-29351363Y-39764669D01*
X-29357262Y-39747347D01*
X-29366057Y-39734331D01*
X-29378310Y-39721470D01*
X-29421177Y-39693836D01*
X-29467973Y-39688708D01*
X-29512554Y-39706180D01*
X-29528058Y-39719184D01*
X-29539440Y-39731410D01*
X-29547611Y-39744503D01*
X-29553104Y-39762578D01*
X-29556450Y-39789750D01*
X-29558181Y-39830133D01*
X-29558827Y-39887842D01*
X-29558922Y-39958095D01*
X-29558922Y-40166142D01*
X-29697239Y-40166142D01*
X-29697239Y-39562577D01*
X-29628080Y-39562577D01*
X-29586558Y-39564219D01*
X-29565136Y-39570050D01*
X-29558925Y-39581424D01*
X-29558922Y-39581761D01*
X-29556040Y-39592901D01*
X-29543329Y-39591637D01*
X-29518056Y-39579397D01*
X-29460735Y-39561387D01*
X-29395167Y-39559384D01*
X-29332142Y-39572965D01*
G37*
X-29332142Y-39572965D02*
X-29300847Y-39587913D01*
X-29270539Y-39609504D01*
X-29247448Y-39634354D01*
X-29230630Y-39666050D01*
X-29219136Y-39708177D01*
X-29212021Y-39764321D01*
X-29208337Y-39838069D01*
X-29207138Y-39933007D01*
X-29207119Y-39942948D01*
X-29206843Y-40166142D01*
X-29345160Y-40166142D01*
X-29345160Y-39960381D01*
X-29345258Y-39884152D01*
X-29345939Y-39828902D01*
X-29347781Y-39790464D01*
X-29351363Y-39764669D01*
X-29357262Y-39747347D01*
X-29366057Y-39734331D01*
X-29378310Y-39721470D01*
X-29421177Y-39693836D01*
X-29467973Y-39688708D01*
X-29512554Y-39706180D01*
X-29528058Y-39719184D01*
X-29539440Y-39731410D01*
X-29547611Y-39744503D01*
X-29553104Y-39762578D01*
X-29556450Y-39789750D01*
X-29558181Y-39830133D01*
X-29558827Y-39887842D01*
X-29558922Y-39958095D01*
X-29558922Y-40166142D01*
X-29697239Y-40166142D01*
X-29697239Y-39562577D01*
X-29628080Y-39562577D01*
X-29586558Y-39564219D01*
X-29565136Y-39570050D01*
X-29558925Y-39581424D01*
X-29558922Y-39581761D01*
X-29556040Y-39592901D01*
X-29543329Y-39591637D01*
X-29518056Y-39579397D01*
X-29460735Y-39561387D01*
X-29395167Y-39559384D01*
X-29332142Y-39572965D01*
G36*
X-26360904Y-39567843D02*
G01*
X-26288050Y-39598793D01*
X-26265103Y-39613858D01*
X-26235776Y-39637011D01*
X-26217366Y-39655216D01*
X-26214169Y-39661146D01*
X-26223195Y-39674303D01*
X-26246293Y-39696630D01*
X-26264786Y-39712213D01*
X-26315402Y-39752889D01*
X-26355370Y-39719258D01*
X-26386256Y-39697547D01*
X-26416371Y-39690053D01*
X-26450838Y-39691883D01*
X-26505569Y-39705491D01*
X-26543244Y-39733735D01*
X-26566139Y-39779396D01*
X-26576533Y-39845252D01*
X-26576535Y-39845294D01*
X-26575636Y-39918902D01*
X-26561667Y-39972909D01*
X-26533802Y-40009679D01*
X-26514805Y-40022131D01*
X-26464354Y-40037636D01*
X-26410467Y-40037646D01*
X-26363584Y-40022601D01*
X-26352486Y-40015250D01*
X-26324654Y-39996474D01*
X-26302894Y-39993397D01*
X-26279426Y-40007372D01*
X-26253481Y-40032473D01*
X-26212414Y-40074843D01*
X-26258009Y-40112427D01*
X-26328456Y-40154845D01*
X-26407897Y-40175748D01*
X-26490915Y-40174235D01*
X-26545436Y-40160374D01*
X-26609160Y-40126098D01*
X-26660125Y-40072175D01*
X-26683279Y-40034112D01*
X-26702031Y-39979499D01*
X-26711415Y-39910332D01*
X-26711487Y-39835370D01*
X-26702306Y-39763372D01*
X-26683931Y-39703100D01*
X-26681037Y-39696921D01*
X-26638178Y-39636314D01*
X-26580151Y-39592187D01*
X-26511539Y-39565456D01*
X-26436929Y-39557036D01*
X-26360904Y-39567843D01*
G37*
X-26360904Y-39567843D02*
X-26288050Y-39598793D01*
X-26265103Y-39613858D01*
X-26235776Y-39637011D01*
X-26217366Y-39655216D01*
X-26214169Y-39661146D01*
X-26223195Y-39674303D01*
X-26246293Y-39696630D01*
X-26264786Y-39712213D01*
X-26315402Y-39752889D01*
X-26355370Y-39719258D01*
X-26386256Y-39697547D01*
X-26416371Y-39690053D01*
X-26450838Y-39691883D01*
X-26505569Y-39705491D01*
X-26543244Y-39733735D01*
X-26566139Y-39779396D01*
X-26576533Y-39845252D01*
X-26576535Y-39845294D01*
X-26575636Y-39918902D01*
X-26561667Y-39972909D01*
X-26533802Y-40009679D01*
X-26514805Y-40022131D01*
X-26464354Y-40037636D01*
X-26410467Y-40037646D01*
X-26363584Y-40022601D01*
X-26352486Y-40015250D01*
X-26324654Y-39996474D01*
X-26302894Y-39993397D01*
X-26279426Y-40007372D01*
X-26253481Y-40032473D01*
X-26212414Y-40074843D01*
X-26258009Y-40112427D01*
X-26328456Y-40154845D01*
X-26407897Y-40175748D01*
X-26490915Y-40174235D01*
X-26545436Y-40160374D01*
X-26609160Y-40126098D01*
X-26660125Y-40072175D01*
X-26683279Y-40034112D01*
X-26702031Y-39979499D01*
X-26711415Y-39910332D01*
X-26711487Y-39835370D01*
X-26702306Y-39763372D01*
X-26683931Y-39703100D01*
X-26681037Y-39696921D01*
X-26638178Y-39636314D01*
X-26580151Y-39592187D01*
X-26511539Y-39565456D01*
X-26436929Y-39557036D01*
X-26360904Y-39567843D01*
G36*
X-26942875Y-40505449D02*
G01*
X-26894535Y-40514978D01*
X-26867016Y-40529088D01*
X-26838066Y-40552531D01*
X-26879254Y-40604534D01*
X-26904648Y-40636027D01*
X-26921892Y-40651391D01*
X-26939028Y-40653739D01*
X-26964103Y-40646180D01*
X-26975873Y-40641904D01*
X-27023860Y-40635594D01*
X-27067806Y-40649119D01*
X-27100070Y-40679673D01*
X-27105311Y-40689415D01*
X-27111018Y-40715221D01*
X-27115424Y-40762780D01*
X-27118319Y-40828721D01*
X-27119499Y-40909673D01*
X-27119516Y-40921189D01*
X-27119516Y-41121785D01*
X-27257833Y-41121785D01*
X-27257833Y-40505646D01*
X-27188674Y-40505646D01*
X-27148797Y-40506688D01*
X-27128023Y-40511321D01*
X-27120341Y-40521812D01*
X-27119516Y-40531708D01*
X-27119516Y-40557769D01*
X-27086385Y-40531708D01*
X-27048395Y-40513928D01*
X-26997360Y-40505137D01*
X-26942875Y-40505449D01*
G37*
X-26942875Y-40505449D02*
X-26894535Y-40514978D01*
X-26867016Y-40529088D01*
X-26838066Y-40552531D01*
X-26879254Y-40604534D01*
X-26904648Y-40636027D01*
X-26921892Y-40651391D01*
X-26939028Y-40653739D01*
X-26964103Y-40646180D01*
X-26975873Y-40641904D01*
X-27023860Y-40635594D01*
X-27067806Y-40649119D01*
X-27100070Y-40679673D01*
X-27105311Y-40689415D01*
X-27111018Y-40715221D01*
X-27115424Y-40762780D01*
X-27118319Y-40828721D01*
X-27119499Y-40909673D01*
X-27119516Y-40921189D01*
X-27119516Y-41121785D01*
X-27257833Y-41121785D01*
X-27257833Y-40505646D01*
X-27188674Y-40505646D01*
X-27148797Y-40506688D01*
X-27128023Y-40511321D01*
X-27120341Y-40521812D01*
X-27119516Y-40531708D01*
X-27119516Y-40557769D01*
X-27086385Y-40531708D01*
X-27048395Y-40513928D01*
X-26997360Y-40505137D01*
X-26942875Y-40505449D01*
G36*
X-31442078Y-39762019D02*
G01*
X-31434492Y-39717970D01*
X-31420811Y-39683211D01*
X-31399995Y-39652514D01*
X-31392277Y-39643399D01*
X-31344019Y-39597984D01*
X-31292258Y-39571456D01*
X-31228958Y-39560342D01*
X-31198091Y-39559434D01*
X-31116391Y-39569111D01*
X-31050609Y-39598194D01*
X-31000670Y-39646756D01*
X-30966504Y-39714871D01*
X-30948037Y-39802614D01*
X-30946713Y-39816314D01*
X-30945676Y-39912902D01*
X-30959123Y-39997565D01*
X-30986238Y-40066184D01*
X-31000757Y-40088257D01*
X-31051331Y-40134974D01*
X-31115739Y-40165231D01*
X-31187796Y-40177787D01*
X-31261315Y-40171402D01*
X-31317202Y-40151735D01*
X-31365262Y-40118592D01*
X-31404542Y-40075138D01*
X-31405222Y-40074121D01*
X-31421174Y-40047301D01*
X-31431540Y-40020331D01*
X-31437818Y-39986295D01*
X-31441503Y-39938273D01*
X-31443127Y-39898894D01*
X-31443802Y-39863182D01*
X-31318085Y-39863182D01*
X-31316856Y-39898733D01*
X-31312396Y-39946057D01*
X-31304527Y-39976428D01*
X-31290337Y-39998035D01*
X-31277047Y-40010657D01*
X-31229932Y-40037085D01*
X-31180635Y-40040616D01*
X-31134723Y-40021602D01*
X-31111768Y-40000294D01*
X-31095226Y-39978822D01*
X-31085551Y-39958276D01*
X-31081304Y-39931537D01*
X-31081050Y-39891486D01*
X-31082358Y-39854601D01*
X-31085173Y-39801910D01*
X-31089635Y-39767735D01*
X-31097678Y-39745443D01*
X-31111233Y-39728405D01*
X-31121975Y-39718666D01*
X-31166907Y-39693086D01*
X-31215379Y-39691810D01*
X-31256024Y-39706962D01*
X-31290697Y-39738605D01*
X-31311354Y-39790583D01*
X-31318085Y-39863182D01*
X-31443802Y-39863182D01*
X-31444609Y-39820584D01*
X-31442078Y-39762019D01*
G37*
X-31442078Y-39762019D02*
X-31434492Y-39717970D01*
X-31420811Y-39683211D01*
X-31399995Y-39652514D01*
X-31392277Y-39643399D01*
X-31344019Y-39597984D01*
X-31292258Y-39571456D01*
X-31228958Y-39560342D01*
X-31198091Y-39559434D01*
X-31116391Y-39569111D01*
X-31050609Y-39598194D01*
X-31000670Y-39646756D01*
X-30966504Y-39714871D01*
X-30948037Y-39802614D01*
X-30946713Y-39816314D01*
X-30945676Y-39912902D01*
X-30959123Y-39997565D01*
X-30986238Y-40066184D01*
X-31000757Y-40088257D01*
X-31051331Y-40134974D01*
X-31115739Y-40165231D01*
X-31187796Y-40177787D01*
X-31261315Y-40171402D01*
X-31317202Y-40151735D01*
X-31365262Y-40118592D01*
X-31404542Y-40075138D01*
X-31405222Y-40074121D01*
X-31421174Y-40047301D01*
X-31431540Y-40020331D01*
X-31437818Y-39986295D01*
X-31441503Y-39938273D01*
X-31443127Y-39898894D01*
X-31443802Y-39863182D01*
X-31318085Y-39863182D01*
X-31316856Y-39898733D01*
X-31312396Y-39946057D01*
X-31304527Y-39976428D01*
X-31290337Y-39998035D01*
X-31277047Y-40010657D01*
X-31229932Y-40037085D01*
X-31180635Y-40040616D01*
X-31134723Y-40021602D01*
X-31111768Y-40000294D01*
X-31095226Y-39978822D01*
X-31085551Y-39958276D01*
X-31081304Y-39931537D01*
X-31081050Y-39891486D01*
X-31082358Y-39854601D01*
X-31085173Y-39801910D01*
X-31089635Y-39767735D01*
X-31097678Y-39745443D01*
X-31111233Y-39728405D01*
X-31121975Y-39718666D01*
X-31166907Y-39693086D01*
X-31215379Y-39691810D01*
X-31256024Y-39706962D01*
X-31290697Y-39738605D01*
X-31311354Y-39790583D01*
X-31318085Y-39863182D01*
X-31443802Y-39863182D01*
X-31444609Y-39820584D01*
X-31442078Y-39762019D01*
G36*
X-30784912Y-39562577D02*
G01*
X-30743390Y-39564219D01*
X-30721968Y-39570050D01*
X-30715756Y-39581424D01*
X-30715754Y-39581761D01*
X-30712872Y-39592901D01*
X-30700160Y-39591636D01*
X-30674887Y-39579396D01*
X-30615999Y-39560670D01*
X-30549745Y-39558702D01*
X-30486889Y-39573147D01*
X-30460377Y-39586245D01*
X-30427683Y-39609069D01*
X-30403855Y-39633959D01*
X-30387536Y-39665212D01*
X-30377370Y-39707129D01*
X-30372002Y-39764007D01*
X-30370074Y-39840147D01*
X-30369961Y-39872880D01*
X-30370291Y-39944619D01*
X-30371657Y-39995890D01*
X-30374630Y-40031367D01*
X-30379779Y-40055726D01*
X-30387673Y-40073643D01*
X-30395887Y-40085865D01*
X-30448317Y-40137868D01*
X-30510060Y-40169147D01*
X-30576666Y-40178555D01*
X-30643688Y-40164943D01*
X-30664922Y-40155317D01*
X-30715754Y-40128822D01*
X-30715754Y-40544015D01*
X-30678655Y-40524831D01*
X-30629773Y-40509988D01*
X-30569691Y-40506185D01*
X-30509694Y-40513206D01*
X-30464386Y-40528976D01*
X-30426805Y-40559010D01*
X-30394694Y-40601987D01*
X-30392280Y-40606399D01*
X-30382097Y-40627184D01*
X-30374660Y-40648133D01*
X-30369541Y-40673511D01*
X-30366311Y-40707581D01*
X-30364543Y-40754604D01*
X-30363807Y-40818845D01*
X-30363674Y-40891139D01*
X-30363674Y-41121785D01*
X-30501991Y-41121785D01*
X-30501991Y-40696496D01*
X-30540679Y-40663942D01*
X-30580868Y-40637903D01*
X-30618927Y-40633168D01*
X-30657196Y-40645352D01*
X-30677592Y-40657283D01*
X-30692772Y-40674276D01*
X-30703568Y-40699958D01*
X-30710813Y-40737954D01*
X-30715338Y-40791889D01*
X-30717974Y-40865388D01*
X-30718902Y-40914310D01*
X-30722041Y-41115498D01*
X-30788056Y-41119299D01*
X-30854070Y-41123099D01*
X-30854070Y-39874613D01*
X-30715754Y-39874613D01*
X-30712227Y-39944217D01*
X-30700345Y-39992532D01*
X-30678150Y-40022594D01*
X-30643689Y-40037434D01*
X-30608872Y-40040399D01*
X-30569459Y-40036991D01*
X-30543301Y-40023580D01*
X-30526944Y-40005859D01*
X-30514067Y-39986798D01*
X-30506402Y-39965564D01*
X-30502991Y-39935812D01*
X-30502879Y-39891199D01*
X-30504027Y-39853843D01*
X-30506662Y-39797567D01*
X-30510586Y-39760621D01*
X-30517193Y-39737186D01*
X-30527879Y-39721443D01*
X-30537963Y-39712343D01*
X-30580100Y-39692500D01*
X-30629970Y-39689295D01*
X-30658606Y-39696131D01*
X-30686958Y-39720427D01*
X-30705739Y-39767691D01*
X-30714842Y-39837587D01*
X-30715754Y-39874613D01*
X-30854070Y-39874613D01*
X-30854070Y-39562577D01*
X-30784912Y-39562577D01*
G37*
X-30784912Y-39562577D02*
X-30743390Y-39564219D01*
X-30721968Y-39570050D01*
X-30715756Y-39581424D01*
X-30715754Y-39581761D01*
X-30712872Y-39592901D01*
X-30700160Y-39591636D01*
X-30674887Y-39579396D01*
X-30615999Y-39560670D01*
X-30549745Y-39558702D01*
X-30486889Y-39573147D01*
X-30460377Y-39586245D01*
X-30427683Y-39609069D01*
X-30403855Y-39633959D01*
X-30387536Y-39665212D01*
X-30377370Y-39707129D01*
X-30372002Y-39764007D01*
X-30370074Y-39840147D01*
X-30369961Y-39872880D01*
X-30370291Y-39944619D01*
X-30371657Y-39995890D01*
X-30374630Y-40031367D01*
X-30379779Y-40055726D01*
X-30387673Y-40073643D01*
X-30395887Y-40085865D01*
X-30448317Y-40137868D01*
X-30510060Y-40169147D01*
X-30576666Y-40178555D01*
X-30643688Y-40164943D01*
X-30664922Y-40155317D01*
X-30715754Y-40128822D01*
X-30715754Y-40544015D01*
X-30678655Y-40524831D01*
X-30629773Y-40509988D01*
X-30569691Y-40506185D01*
X-30509694Y-40513206D01*
X-30464386Y-40528976D01*
X-30426805Y-40559010D01*
X-30394694Y-40601987D01*
X-30392280Y-40606399D01*
X-30382097Y-40627184D01*
X-30374660Y-40648133D01*
X-30369541Y-40673511D01*
X-30366311Y-40707581D01*
X-30364543Y-40754604D01*
X-30363807Y-40818845D01*
X-30363674Y-40891139D01*
X-30363674Y-41121785D01*
X-30501991Y-41121785D01*
X-30501991Y-40696496D01*
X-30540679Y-40663942D01*
X-30580868Y-40637903D01*
X-30618927Y-40633168D01*
X-30657196Y-40645352D01*
X-30677592Y-40657283D01*
X-30692772Y-40674276D01*
X-30703568Y-40699958D01*
X-30710813Y-40737954D01*
X-30715338Y-40791889D01*
X-30717974Y-40865388D01*
X-30718902Y-40914310D01*
X-30722041Y-41115498D01*
X-30788056Y-41119299D01*
X-30854070Y-41123099D01*
X-30854070Y-39874613D01*
X-30715754Y-39874613D01*
X-30712227Y-39944217D01*
X-30700345Y-39992532D01*
X-30678150Y-40022594D01*
X-30643689Y-40037434D01*
X-30608872Y-40040399D01*
X-30569459Y-40036991D01*
X-30543301Y-40023580D01*
X-30526944Y-40005859D01*
X-30514067Y-39986798D01*
X-30506402Y-39965564D01*
X-30502991Y-39935812D01*
X-30502879Y-39891199D01*
X-30504027Y-39853843D01*
X-30506662Y-39797567D01*
X-30510586Y-39760621D01*
X-30517193Y-39737186D01*
X-30527879Y-39721443D01*
X-30537963Y-39712343D01*
X-30580100Y-39692500D01*
X-30629970Y-39689295D01*
X-30658606Y-39696131D01*
X-30686958Y-39720427D01*
X-30705739Y-39767691D01*
X-30714842Y-39837587D01*
X-30715754Y-39874613D01*
X-30854070Y-39874613D01*
X-30854070Y-39562577D01*
X-30784912Y-39562577D01*
G36*
X-28201166Y-35393981D02*
G01*
X-28144318Y-35695533D01*
X-27724792Y-35868475D01*
X-27473146Y-35697358D01*
X-27402672Y-35649713D01*
X-27338967Y-35607173D01*
X-27285004Y-35571678D01*
X-27243757Y-35545173D01*
X-27218196Y-35529599D01*
X-27211235Y-35526241D01*
X-27198695Y-35534877D01*
X-27171899Y-35558755D01*
X-27133850Y-35594822D01*
X-27087551Y-35640030D01*
X-27036007Y-35691327D01*
X-26982221Y-35745664D01*
X-26929195Y-35799991D01*
X-26879935Y-35851258D01*
X-26837443Y-35896414D01*
X-26804723Y-35932409D01*
X-26784779Y-35956193D01*
X-26780011Y-35964153D01*
X-26786873Y-35978828D01*
X-26806110Y-36010977D01*
X-26835700Y-36057455D01*
X-26873620Y-36115119D01*
X-26917848Y-36180823D01*
X-26943476Y-36218299D01*
X-26990189Y-36286731D01*
X-27031698Y-36348483D01*
X-27065990Y-36400482D01*
X-27091050Y-36439655D01*
X-27104866Y-36462928D01*
X-27106942Y-36467818D01*
X-27102235Y-36481718D01*
X-27089407Y-36514113D01*
X-27070392Y-36560448D01*
X-27047127Y-36616169D01*
X-27021546Y-36676721D01*
X-26995585Y-36737549D01*
X-26971180Y-36794099D01*
X-26950267Y-36841815D01*
X-26934781Y-36876144D01*
X-26926658Y-36892531D01*
X-26926178Y-36893175D01*
X-26913423Y-36896304D01*
X-26879453Y-36903284D01*
X-26827790Y-36913430D01*
X-26761954Y-36926055D01*
X-26685466Y-36940472D01*
X-26640840Y-36948786D01*
X-26559109Y-36964347D01*
X-26485287Y-36979155D01*
X-26423109Y-36992399D01*
X-26376308Y-37003268D01*
X-26348621Y-37010952D01*
X-26343056Y-37013390D01*
X-26337604Y-37029893D01*
X-26333206Y-37067163D01*
X-26329858Y-37120843D01*
X-26327556Y-37186575D01*
X-26326298Y-37260000D01*
X-26326082Y-37336759D01*
X-26326903Y-37412495D01*
X-26328759Y-37482849D01*
X-26331648Y-37543463D01*
X-26335565Y-37589979D01*
X-26340508Y-37618038D01*
X-26343473Y-37623879D01*
X-26361196Y-37630880D01*
X-26398749Y-37640890D01*
X-26451166Y-37652732D01*
X-26513478Y-37665230D01*
X-26535230Y-37669273D01*
X-26640106Y-37688483D01*
X-26722950Y-37703954D01*
X-26786500Y-37716300D01*
X-26833493Y-37726136D01*
X-26866667Y-37734077D01*
X-26888759Y-37740739D01*
X-26902506Y-37746736D01*
X-26910646Y-37752682D01*
X-26911785Y-37753857D01*
X-26923153Y-37772789D01*
X-26940495Y-37809632D01*
X-26962080Y-37859876D01*
X-26986176Y-37919009D01*
X-27011051Y-37982519D01*
X-27034973Y-38045895D01*
X-27056211Y-38104625D01*
X-27073033Y-38154198D01*
X-27083708Y-38190102D01*
X-27086503Y-38207825D01*
X-27086270Y-38208446D01*
X-27076799Y-38222933D01*
X-27055312Y-38254807D01*
X-27024067Y-38300752D01*
X-26985323Y-38357448D01*
X-26941337Y-38421580D01*
X-26928811Y-38439805D01*
X-26884146Y-38505877D01*
X-26844842Y-38566163D01*
X-26813042Y-38617198D01*
X-26790885Y-38655523D01*
X-26780513Y-38677674D01*
X-26780011Y-38680395D01*
X-26788725Y-38694699D01*
X-26812805Y-38723035D01*
X-26849154Y-38762359D01*
X-26894677Y-38809624D01*
X-26946278Y-38861786D01*
X-27000863Y-38915798D01*
X-27055336Y-38968616D01*
X-27106601Y-39017194D01*
X-27151563Y-39058486D01*
X-27187126Y-39089448D01*
X-27210195Y-39107033D01*
X-27216576Y-39109904D01*
X-27231431Y-39103141D01*
X-27261844Y-39084902D01*
X-27302862Y-39058260D01*
X-27334421Y-39036815D01*
X-27391605Y-38997466D01*
X-27459324Y-38951134D01*
X-27527250Y-38904876D01*
X-27563769Y-38880118D01*
X-27687378Y-38796510D01*
X-27791139Y-38852613D01*
X-27838410Y-38877191D01*
X-27878607Y-38896294D01*
X-27905804Y-38907190D01*
X-27912728Y-38908706D01*
X-27921053Y-38897512D01*
X-27937476Y-38865880D01*
X-27960773Y-38816728D01*
X-27989716Y-38752973D01*
X-28023080Y-38677534D01*
X-28059639Y-38593327D01*
X-28098166Y-38503271D01*
X-28137436Y-38410284D01*
X-28176222Y-38317283D01*
X-28213300Y-38227186D01*
X-28247441Y-38142911D01*
X-28277422Y-38067376D01*
X-28302014Y-38003497D01*
X-28319994Y-37954194D01*
X-28330133Y-37922384D01*
X-28331764Y-37911459D01*
X-28318839Y-37897524D01*
X-28290541Y-37874903D01*
X-28252784Y-37848296D01*
X-28249615Y-37846191D01*
X-28152030Y-37768077D01*
X-28073344Y-37676945D01*
X-28014239Y-37575708D01*
X-27975398Y-37467281D01*
X-27957502Y-37354577D01*
X-27961233Y-37240511D01*
X-27987273Y-37127997D01*
X-28036305Y-37019948D01*
X-28050730Y-36996308D01*
X-28125761Y-36900850D01*
X-28214400Y-36824195D01*
X-28313581Y-36766743D01*
X-28420235Y-36728892D01*
X-28531294Y-36711041D01*
X-28643691Y-36713588D01*
X-28754357Y-36736933D01*
X-28860224Y-36781473D01*
X-28958225Y-36847608D01*
X-28988540Y-36874450D01*
X-29065692Y-36958475D01*
X-29121912Y-37046929D01*
X-29160477Y-37146078D01*
X-29181956Y-37244266D01*
X-29187258Y-37354660D01*
X-29169578Y-37465603D01*
X-29130711Y-37573344D01*
X-29072453Y-37674132D01*
X-28996599Y-37764219D01*
X-28904947Y-37839855D01*
X-28892902Y-37847827D01*
X-28854741Y-37873937D01*
X-28825731Y-37896558D01*
X-28811862Y-37911002D01*
X-28811661Y-37911459D01*
X-28814638Y-37927084D01*
X-28826441Y-37962545D01*
X-28845844Y-38014925D01*
X-28871618Y-38081308D01*
X-28902539Y-38158777D01*
X-28937379Y-38244413D01*
X-28974913Y-38335300D01*
X-29013913Y-38428522D01*
X-29053153Y-38521160D01*
X-29091406Y-38610298D01*
X-29127447Y-38693018D01*
X-29160047Y-38766404D01*
X-29187982Y-38827538D01*
X-29210025Y-38873504D01*
X-29224948Y-38901384D01*
X-29230958Y-38908706D01*
X-29249321Y-38903004D01*
X-29283682Y-38887712D01*
X-29328114Y-38865562D01*
X-29352547Y-38852613D01*
X-29456308Y-38796510D01*
X-29579917Y-38880118D01*
X-29643016Y-38922950D01*
X-29712100Y-38970085D01*
X-29776837Y-39014466D01*
X-29809264Y-39036815D01*
X-29854871Y-39067440D01*
X-29893490Y-39091710D01*
X-29920082Y-39106550D01*
X-29928720Y-39109687D01*
X-29941291Y-39101224D01*
X-29969114Y-39077599D01*
X-30009491Y-39041265D01*
X-30059725Y-38994674D01*
X-30117118Y-38940280D01*
X-30153416Y-38905355D01*
X-30216920Y-38842959D01*
X-30271803Y-38787151D01*
X-30315844Y-38740317D01*
X-30346825Y-38704845D01*
X-30362528Y-38683124D01*
X-30364035Y-38678715D01*
X-30357044Y-38661948D01*
X-30337724Y-38628045D01*
X-30308221Y-38580439D01*
X-30270675Y-38522562D01*
X-30227230Y-38457847D01*
X-30214875Y-38439805D01*
X-30169857Y-38374230D01*
X-30129470Y-38315191D01*
X-30095970Y-38266005D01*
X-30071616Y-38229991D01*
X-30058666Y-38210465D01*
X-30057415Y-38208446D01*
X-30059286Y-38192885D01*
X-30069217Y-38158672D01*
X-30085477Y-38110318D01*
X-30106335Y-38052334D01*
X-30130057Y-37989233D01*
X-30154914Y-37925526D01*
X-30179172Y-37865724D01*
X-30201101Y-37814339D01*
X-30218968Y-37775882D01*
X-30231043Y-37754865D01*
X-30231901Y-37753857D01*
X-30239284Y-37747851D01*
X-30251755Y-37741911D01*
X-30272050Y-37735423D01*
X-30302908Y-37727772D01*
X-30347064Y-37718343D01*
X-30407256Y-37706522D01*
X-30486223Y-37691692D01*
X-30586700Y-37673240D01*
X-30608455Y-37669273D01*
X-30672932Y-37656816D01*
X-30729141Y-37644629D01*
X-30772117Y-37633889D01*
X-30796890Y-37625772D01*
X-30800212Y-37623879D01*
X-30805686Y-37607101D01*
X-30810136Y-37569608D01*
X-30813558Y-37515757D01*
X-30815949Y-37449907D01*
X-30817307Y-37376416D01*
X-30817629Y-37299643D01*
X-30816911Y-37223946D01*
X-30815151Y-37153683D01*
X-30812346Y-37093213D01*
X-30808492Y-37046893D01*
X-30803587Y-37019082D01*
X-30800630Y-37013390D01*
X-30784167Y-37007649D01*
X-30746681Y-36998308D01*
X-30691905Y-36986178D01*
X-30623575Y-36972070D01*
X-30545424Y-36956793D01*
X-30502846Y-36948786D01*
X-30422059Y-36933684D01*
X-30350017Y-36920003D01*
X-30290241Y-36908430D01*
X-30246251Y-36899650D01*
X-30221569Y-36894350D01*
X-30217507Y-36893175D01*
X-30210641Y-36879928D01*
X-30196128Y-36848020D01*
X-30175901Y-36802010D01*
X-30151896Y-36746455D01*
X-30126048Y-36685916D01*
X-30100290Y-36624949D01*
X-30076557Y-36568114D01*
X-30056784Y-36519969D01*
X-30042906Y-36485073D01*
X-30036856Y-36467984D01*
X-30036744Y-36467237D01*
X-30043602Y-36453756D01*
X-30062828Y-36422733D01*
X-30092402Y-36377252D01*
X-30130303Y-36320395D01*
X-30174510Y-36255246D01*
X-30200209Y-36217825D01*
X-30247037Y-36149210D01*
X-30288629Y-36086915D01*
X-30322955Y-36034092D01*
X-30347987Y-35993890D01*
X-30361695Y-35969463D01*
X-30363674Y-35963987D01*
X-30355164Y-35951241D01*
X-30331637Y-35924026D01*
X-30296098Y-35885391D01*
X-30251553Y-35838386D01*
X-30201007Y-35786058D01*
X-30147466Y-35731458D01*
X-30093935Y-35677633D01*
X-30043419Y-35627633D01*
X-29998924Y-35584506D01*
X-29963455Y-35551302D01*
X-29940017Y-35531069D01*
X-29932176Y-35526241D01*
X-29919410Y-35533030D01*
X-29888874Y-35552105D01*
X-29843540Y-35581524D01*
X-29786374Y-35619344D01*
X-29720346Y-35663624D01*
X-29670540Y-35697358D01*
X-29418894Y-35868475D01*
X-29209131Y-35782004D01*
X-28999367Y-35695533D01*
X-28942519Y-35393981D01*
X-28885670Y-35092429D01*
X-28258015Y-35092429D01*
X-28201166Y-35393981D01*
G37*
X-28201166Y-35393981D02*
X-28144318Y-35695533D01*
X-27724792Y-35868475D01*
X-27473146Y-35697358D01*
X-27402672Y-35649713D01*
X-27338967Y-35607173D01*
X-27285004Y-35571678D01*
X-27243757Y-35545173D01*
X-27218196Y-35529599D01*
X-27211235Y-35526241D01*
X-27198695Y-35534877D01*
X-27171899Y-35558755D01*
X-27133850Y-35594822D01*
X-27087551Y-35640030D01*
X-27036007Y-35691327D01*
X-26982221Y-35745664D01*
X-26929195Y-35799991D01*
X-26879935Y-35851258D01*
X-26837443Y-35896414D01*
X-26804723Y-35932409D01*
X-26784779Y-35956193D01*
X-26780011Y-35964153D01*
X-26786873Y-35978828D01*
X-26806110Y-36010977D01*
X-26835700Y-36057455D01*
X-26873620Y-36115119D01*
X-26917848Y-36180823D01*
X-26943476Y-36218299D01*
X-26990189Y-36286731D01*
X-27031698Y-36348483D01*
X-27065990Y-36400482D01*
X-27091050Y-36439655D01*
X-27104866Y-36462928D01*
X-27106942Y-36467818D01*
X-27102235Y-36481718D01*
X-27089407Y-36514113D01*
X-27070392Y-36560448D01*
X-27047127Y-36616169D01*
X-27021546Y-36676721D01*
X-26995585Y-36737549D01*
X-26971180Y-36794099D01*
X-26950267Y-36841815D01*
X-26934781Y-36876144D01*
X-26926658Y-36892531D01*
X-26926178Y-36893175D01*
X-26913423Y-36896304D01*
X-26879453Y-36903284D01*
X-26827790Y-36913430D01*
X-26761954Y-36926055D01*
X-26685466Y-36940472D01*
X-26640840Y-36948786D01*
X-26559109Y-36964347D01*
X-26485287Y-36979155D01*
X-26423109Y-36992399D01*
X-26376308Y-37003268D01*
X-26348621Y-37010952D01*
X-26343056Y-37013390D01*
X-26337604Y-37029893D01*
X-26333206Y-37067163D01*
X-26329858Y-37120843D01*
X-26327556Y-37186575D01*
X-26326298Y-37260000D01*
X-26326082Y-37336759D01*
X-26326903Y-37412495D01*
X-26328759Y-37482849D01*
X-26331648Y-37543463D01*
X-26335565Y-37589979D01*
X-26340508Y-37618038D01*
X-26343473Y-37623879D01*
X-26361196Y-37630880D01*
X-26398749Y-37640890D01*
X-26451166Y-37652732D01*
X-26513478Y-37665230D01*
X-26535230Y-37669273D01*
X-26640106Y-37688483D01*
X-26722950Y-37703954D01*
X-26786500Y-37716300D01*
X-26833493Y-37726136D01*
X-26866667Y-37734077D01*
X-26888759Y-37740739D01*
X-26902506Y-37746736D01*
X-26910646Y-37752682D01*
X-26911785Y-37753857D01*
X-26923153Y-37772789D01*
X-26940495Y-37809632D01*
X-26962080Y-37859876D01*
X-26986176Y-37919009D01*
X-27011051Y-37982519D01*
X-27034973Y-38045895D01*
X-27056211Y-38104625D01*
X-27073033Y-38154198D01*
X-27083708Y-38190102D01*
X-27086503Y-38207825D01*
X-27086270Y-38208446D01*
X-27076799Y-38222933D01*
X-27055312Y-38254807D01*
X-27024067Y-38300752D01*
X-26985323Y-38357448D01*
X-26941337Y-38421580D01*
X-26928811Y-38439805D01*
X-26884146Y-38505877D01*
X-26844842Y-38566163D01*
X-26813042Y-38617198D01*
X-26790885Y-38655523D01*
X-26780513Y-38677674D01*
X-26780011Y-38680395D01*
X-26788725Y-38694699D01*
X-26812805Y-38723035D01*
X-26849154Y-38762359D01*
X-26894677Y-38809624D01*
X-26946278Y-38861786D01*
X-27000863Y-38915798D01*
X-27055336Y-38968616D01*
X-27106601Y-39017194D01*
X-27151563Y-39058486D01*
X-27187126Y-39089448D01*
X-27210195Y-39107033D01*
X-27216576Y-39109904D01*
X-27231431Y-39103141D01*
X-27261844Y-39084902D01*
X-27302862Y-39058260D01*
X-27334421Y-39036815D01*
X-27391605Y-38997466D01*
X-27459324Y-38951134D01*
X-27527250Y-38904876D01*
X-27563769Y-38880118D01*
X-27687378Y-38796510D01*
X-27791139Y-38852613D01*
X-27838410Y-38877191D01*
X-27878607Y-38896294D01*
X-27905804Y-38907190D01*
X-27912728Y-38908706D01*
X-27921053Y-38897512D01*
X-27937476Y-38865880D01*
X-27960773Y-38816728D01*
X-27989716Y-38752973D01*
X-28023080Y-38677534D01*
X-28059639Y-38593327D01*
X-28098166Y-38503271D01*
X-28137436Y-38410284D01*
X-28176222Y-38317283D01*
X-28213300Y-38227186D01*
X-28247441Y-38142911D01*
X-28277422Y-38067376D01*
X-28302014Y-38003497D01*
X-28319994Y-37954194D01*
X-28330133Y-37922384D01*
X-28331764Y-37911459D01*
X-28318839Y-37897524D01*
X-28290541Y-37874903D01*
X-28252784Y-37848296D01*
X-28249615Y-37846191D01*
X-28152030Y-37768077D01*
X-28073344Y-37676945D01*
X-28014239Y-37575708D01*
X-27975398Y-37467281D01*
X-27957502Y-37354577D01*
X-27961233Y-37240511D01*
X-27987273Y-37127997D01*
X-28036305Y-37019948D01*
X-28050730Y-36996308D01*
X-28125761Y-36900850D01*
X-28214400Y-36824195D01*
X-28313581Y-36766743D01*
X-28420235Y-36728892D01*
X-28531294Y-36711041D01*
X-28643691Y-36713588D01*
X-28754357Y-36736933D01*
X-28860224Y-36781473D01*
X-28958225Y-36847608D01*
X-28988540Y-36874450D01*
X-29065692Y-36958475D01*
X-29121912Y-37046929D01*
X-29160477Y-37146078D01*
X-29181956Y-37244266D01*
X-29187258Y-37354660D01*
X-29169578Y-37465603D01*
X-29130711Y-37573344D01*
X-29072453Y-37674132D01*
X-28996599Y-37764219D01*
X-28904947Y-37839855D01*
X-28892902Y-37847827D01*
X-28854741Y-37873937D01*
X-28825731Y-37896558D01*
X-28811862Y-37911002D01*
X-28811661Y-37911459D01*
X-28814638Y-37927084D01*
X-28826441Y-37962545D01*
X-28845844Y-38014925D01*
X-28871618Y-38081308D01*
X-28902539Y-38158777D01*
X-28937379Y-38244413D01*
X-28974913Y-38335300D01*
X-29013913Y-38428522D01*
X-29053153Y-38521160D01*
X-29091406Y-38610298D01*
X-29127447Y-38693018D01*
X-29160047Y-38766404D01*
X-29187982Y-38827538D01*
X-29210025Y-38873504D01*
X-29224948Y-38901384D01*
X-29230958Y-38908706D01*
X-29249321Y-38903004D01*
X-29283682Y-38887712D01*
X-29328114Y-38865562D01*
X-29352547Y-38852613D01*
X-29456308Y-38796510D01*
X-29579917Y-38880118D01*
X-29643016Y-38922950D01*
X-29712100Y-38970085D01*
X-29776837Y-39014466D01*
X-29809264Y-39036815D01*
X-29854871Y-39067440D01*
X-29893490Y-39091710D01*
X-29920082Y-39106550D01*
X-29928720Y-39109687D01*
X-29941291Y-39101224D01*
X-29969114Y-39077599D01*
X-30009491Y-39041265D01*
X-30059725Y-38994674D01*
X-30117118Y-38940280D01*
X-30153416Y-38905355D01*
X-30216920Y-38842959D01*
X-30271803Y-38787151D01*
X-30315844Y-38740317D01*
X-30346825Y-38704845D01*
X-30362528Y-38683124D01*
X-30364035Y-38678715D01*
X-30357044Y-38661948D01*
X-30337724Y-38628045D01*
X-30308221Y-38580439D01*
X-30270675Y-38522562D01*
X-30227230Y-38457847D01*
X-30214875Y-38439805D01*
X-30169857Y-38374230D01*
X-30129470Y-38315191D01*
X-30095970Y-38266005D01*
X-30071616Y-38229991D01*
X-30058666Y-38210465D01*
X-30057415Y-38208446D01*
X-30059286Y-38192885D01*
X-30069217Y-38158672D01*
X-30085477Y-38110318D01*
X-30106335Y-38052334D01*
X-30130057Y-37989233D01*
X-30154914Y-37925526D01*
X-30179172Y-37865724D01*
X-30201101Y-37814339D01*
X-30218968Y-37775882D01*
X-30231043Y-37754865D01*
X-30231901Y-37753857D01*
X-30239284Y-37747851D01*
X-30251755Y-37741911D01*
X-30272050Y-37735423D01*
X-30302908Y-37727772D01*
X-30347064Y-37718343D01*
X-30407256Y-37706522D01*
X-30486223Y-37691692D01*
X-30586700Y-37673240D01*
X-30608455Y-37669273D01*
X-30672932Y-37656816D01*
X-30729141Y-37644629D01*
X-30772117Y-37633889D01*
X-30796890Y-37625772D01*
X-30800212Y-37623879D01*
X-30805686Y-37607101D01*
X-30810136Y-37569608D01*
X-30813558Y-37515757D01*
X-30815949Y-37449907D01*
X-30817307Y-37376416D01*
X-30817629Y-37299643D01*
X-30816911Y-37223946D01*
X-30815151Y-37153683D01*
X-30812346Y-37093213D01*
X-30808492Y-37046893D01*
X-30803587Y-37019082D01*
X-30800630Y-37013390D01*
X-30784167Y-37007649D01*
X-30746681Y-36998308D01*
X-30691905Y-36986178D01*
X-30623575Y-36972070D01*
X-30545424Y-36956793D01*
X-30502846Y-36948786D01*
X-30422059Y-36933684D01*
X-30350017Y-36920003D01*
X-30290241Y-36908430D01*
X-30246251Y-36899650D01*
X-30221569Y-36894350D01*
X-30217507Y-36893175D01*
X-30210641Y-36879928D01*
X-30196128Y-36848020D01*
X-30175901Y-36802010D01*
X-30151896Y-36746455D01*
X-30126048Y-36685916D01*
X-30100290Y-36624949D01*
X-30076557Y-36568114D01*
X-30056784Y-36519969D01*
X-30042906Y-36485073D01*
X-30036856Y-36467984D01*
X-30036744Y-36467237D01*
X-30043602Y-36453756D01*
X-30062828Y-36422733D01*
X-30092402Y-36377252D01*
X-30130303Y-36320395D01*
X-30174510Y-36255246D01*
X-30200209Y-36217825D01*
X-30247037Y-36149210D01*
X-30288629Y-36086915D01*
X-30322955Y-36034092D01*
X-30347987Y-35993890D01*
X-30361695Y-35969463D01*
X-30363674Y-35963987D01*
X-30355164Y-35951241D01*
X-30331637Y-35924026D01*
X-30296098Y-35885391D01*
X-30251553Y-35838386D01*
X-30201007Y-35786058D01*
X-30147466Y-35731458D01*
X-30093935Y-35677633D01*
X-30043419Y-35627633D01*
X-29998924Y-35584506D01*
X-29963455Y-35551302D01*
X-29940017Y-35531069D01*
X-29932176Y-35526241D01*
X-29919410Y-35533030D01*
X-29888874Y-35552105D01*
X-29843540Y-35581524D01*
X-29786374Y-35619344D01*
X-29720346Y-35663624D01*
X-29670540Y-35697358D01*
X-29418894Y-35868475D01*
X-29209131Y-35782004D01*
X-28999367Y-35695533D01*
X-28942519Y-35393981D01*
X-28885670Y-35092429D01*
X-28258015Y-35092429D01*
X-28201166Y-35393981D01*
G36*
X-28296606Y-40508200D02*
G01*
X-28246875Y-40511934D01*
X-28116839Y-40901736D01*
X-28096452Y-40832577D01*
X-28084184Y-40789837D01*
X-28068045Y-40732078D01*
X-28050618Y-40668588D01*
X-28041404Y-40634533D01*
X-28006742Y-40505646D01*
X-27863739Y-40505646D01*
X-27906484Y-40640820D01*
X-27927534Y-40707305D01*
X-27952963Y-40787502D01*
X-27979520Y-40871156D01*
X-28003228Y-40945745D01*
X-28057228Y-41115498D01*
X-28115532Y-41119291D01*
X-28173835Y-41123085D01*
X-28205451Y-41018697D01*
X-28224948Y-40953852D01*
X-28246226Y-40882363D01*
X-28264822Y-40819226D01*
X-28265556Y-40816713D01*
X-28279446Y-40773932D01*
X-28291701Y-40744742D01*
X-28300284Y-40733704D01*
X-28302048Y-40734981D01*
X-28308239Y-40752093D01*
X-28320002Y-40788750D01*
X-28335905Y-40840341D01*
X-28354516Y-40902257D01*
X-28364587Y-40936315D01*
X-28419123Y-41121785D01*
X-28534866Y-41121785D01*
X-28627393Y-40829434D01*
X-28653386Y-40747425D01*
X-28677064Y-40672950D01*
X-28697310Y-40609507D01*
X-28713004Y-40560595D01*
X-28723028Y-40529712D01*
X-28726075Y-40520689D01*
X-28723663Y-40511450D01*
X-28704722Y-40507404D01*
X-28665307Y-40507809D01*
X-28659137Y-40508115D01*
X-28586044Y-40511934D01*
X-28538173Y-40687973D01*
X-28520577Y-40752174D01*
X-28504853Y-40808612D01*
X-28492384Y-40852385D01*
X-28484556Y-40878593D01*
X-28483110Y-40882866D01*
X-28477116Y-40877953D01*
X-28465029Y-40852495D01*
X-28448237Y-40809960D01*
X-28428127Y-40753813D01*
X-28411127Y-40703093D01*
X-28346336Y-40504467D01*
X-28296606Y-40508200D01*
G37*
X-28296606Y-40508200D02*
X-28246875Y-40511934D01*
X-28116839Y-40901736D01*
X-28096452Y-40832577D01*
X-28084184Y-40789837D01*
X-28068045Y-40732078D01*
X-28050618Y-40668588D01*
X-28041404Y-40634533D01*
X-28006742Y-40505646D01*
X-27863739Y-40505646D01*
X-27906484Y-40640820D01*
X-27927534Y-40707305D01*
X-27952963Y-40787502D01*
X-27979520Y-40871156D01*
X-28003228Y-40945745D01*
X-28057228Y-41115498D01*
X-28115532Y-41119291D01*
X-28173835Y-41123085D01*
X-28205451Y-41018697D01*
X-28224948Y-40953852D01*
X-28246226Y-40882363D01*
X-28264822Y-40819226D01*
X-28265556Y-40816713D01*
X-28279446Y-40773932D01*
X-28291701Y-40744742D01*
X-28300284Y-40733704D01*
X-28302048Y-40734981D01*
X-28308239Y-40752093D01*
X-28320002Y-40788750D01*
X-28335905Y-40840341D01*
X-28354516Y-40902257D01*
X-28364587Y-40936315D01*
X-28419123Y-41121785D01*
X-28534866Y-41121785D01*
X-28627393Y-40829434D01*
X-28653386Y-40747425D01*
X-28677064Y-40672950D01*
X-28697310Y-40609507D01*
X-28713004Y-40560595D01*
X-28723028Y-40529712D01*
X-28726075Y-40520689D01*
X-28723663Y-40511450D01*
X-28704722Y-40507404D01*
X-28665307Y-40507809D01*
X-28659137Y-40508115D01*
X-28586044Y-40511934D01*
X-28538173Y-40687973D01*
X-28520577Y-40752174D01*
X-28504853Y-40808612D01*
X-28492384Y-40852385D01*
X-28484556Y-40878593D01*
X-28483110Y-40882866D01*
X-28477116Y-40877953D01*
X-28465029Y-40852495D01*
X-28448237Y-40809960D01*
X-28428127Y-40753813D01*
X-28411127Y-40703093D01*
X-28346336Y-40504467D01*
X-28296606Y-40508200D01*
D12*
X-56261000Y0D03*
X-58039000Y-28575000D03*
X0Y0D03*
X9525000Y-47625000D03*
M02*
