M48
; DRILL file {KiCad 7.0.2-0} date 2023 May 24, Wednesday 14:40:13
; FORMAT={-:-/ absolute / metric / decimal}
; #@! TF.CreationDate,2023-05-24T14:40:13+08:00
; #@! TF.GenerationSoftware,Kicad,Pcbnew,7.0.2-0
; #@! TF.FileFunction,NonPlated,1,2,NPTH
FMAT,2
METRIC
; #@! TA.AperFunction,NonPlated,NPTH,ComponentDrill
T1C1.500
; #@! TA.AperFunction,NonPlated,NPTH,ComponentDrill
T2C1.900
; #@! TA.AperFunction,NonPlated,NPTH,ComponentDrill
T3C3.000
; #@! TA.AperFunction,NonPlated,NPTH,ComponentDrill
T4C3.200
; #@! TA.AperFunction,NonPlated,NPTH,ComponentDrill
T5C4.000
%
G90
G05
T1
X-15.982Y-41.947
X-7.288Y-39.617
X5.0Y-38.0
X14.0Y-38.0
X24.0Y-38.0
X33.0Y-38.0
T2
X-16.542Y-42.097
X-6.728Y-39.467
X-5.08Y19.0
X-5.08Y0.0
X-5.08Y-19.0
X4.42Y-38.0
X5.08Y19.0
X5.08Y0.0
X5.08Y-19.0
X13.92Y21.0
X13.92Y2.0
X13.92Y-17.0
X14.58Y-38.0
X23.42Y-38.0
X24.08Y21.0
X24.08Y2.0
X24.08Y-17.0
X32.92Y24.0
X32.92Y5.0
X32.92Y-14.0
X33.58Y-38.0
X43.08Y24.0
X43.08Y5.0
X43.08Y-14.0
X51.92Y21.0
X51.92Y2.0
X51.92Y-17.0
X62.08Y21.0
X62.08Y2.0
X62.08Y-17.0
X70.92Y12.0
X70.92Y-7.0
X70.92Y-26.0
X81.08Y12.0
X81.08Y-7.0
X81.08Y-26.0
T3
X-15.973Y-39.315
X-15.403Y-36.532
X-10.496Y-35.218
X-8.612Y-37.342
X-3.81Y16.46
X-3.81Y2.54
X-3.81Y-16.46
X-2.54Y13.92
X-2.54Y5.08
X-2.54Y-13.92
X2.54Y13.92
X2.54Y5.08
X2.54Y-13.92
X3.81Y16.46
X3.81Y2.54
X3.81Y-16.46
X5.69Y-35.46
X6.96Y-32.92
X12.04Y-32.92
X13.31Y-35.46
X15.19Y23.54
X15.19Y4.54
X15.19Y-14.46
X16.46Y26.08
X16.46Y7.08
X16.46Y-11.92
X21.54Y26.08
X21.54Y7.08
X21.54Y-11.92
X22.81Y23.54
X22.81Y4.54
X22.81Y-14.46
X24.69Y-35.46
X25.96Y-32.92
X31.04Y-32.92
X32.31Y-35.46
X34.19Y26.54
X34.19Y7.54
X34.19Y-11.46
X35.46Y29.08
X35.46Y10.08
X35.46Y-8.92
X40.54Y29.08
X40.54Y10.08
X40.54Y-8.92
X41.81Y26.54
X41.81Y7.54
X41.81Y-11.46
X53.19Y23.54
X53.19Y4.54
X53.19Y-14.46
X54.46Y26.08
X54.46Y7.08
X54.46Y-11.92
X59.54Y26.08
X59.54Y7.08
X59.54Y-11.92
X60.81Y23.54
X60.81Y4.54
X60.81Y-14.46
X72.19Y14.54
X72.19Y-4.46
X72.19Y-23.46
X73.46Y17.08
X73.46Y-1.92
X73.46Y-20.92
X78.54Y17.08
X78.54Y-1.92
X78.54Y-20.92
X79.81Y14.54
X79.81Y-4.46
X79.81Y-23.46
T4
X-9.5Y9.5
X38.0Y-26.0
X71.0Y23.5
X76.0Y-38.0
T5
X-11.635Y-40.782
X0.0Y19.0
X0.0Y0.0
X0.0Y-19.0
X9.5Y-38.0
X19.0Y21.0
X19.0Y2.0
X19.0Y-17.0
X28.5Y-38.0
X38.0Y24.0
X38.0Y5.0
X38.0Y-14.0
X57.0Y21.0
X57.0Y2.0
X57.0Y-17.0
X76.0Y12.0
X76.0Y-7.0
X76.0Y-26.0
T0
M30
