%TF.GenerationSoftware,KiCad,Pcbnew,7.0.2-0*%
%TF.CreationDate,2023-05-24T14:00:58+08:00*%
%TF.ProjectId,Input,496e7075-742e-46b6-9963-61645f706362,1*%
%TF.SameCoordinates,PX7bfa480PY6052340*%
%TF.FileFunction,Drillmap*%
%TF.FilePolarity,Positive*%
%FSLAX45Y45*%
G04 Gerber Fmt 4.5, Leading zero omitted, Abs format (unit mm)*
G04 Created by KiCad (PCBNEW 7.0.2-0) date 2023-05-24 14:00:58*
%MOMM*%
%LPD*%
G01*
G04 APERTURE LIST*
%ADD10C,0.100000*%
%ADD11C,0.200000*%
%ADD12C,0.040000*%
G04 APERTURE END LIST*
D10*
X-750000Y2900000D02*
G75*
G03*
X-950000Y2700000I0J-200000D01*
G01*
X-1502982Y-5047237D02*
X0Y-4500000D01*
X-2268037Y-3676218D02*
X-1823410Y-4897818D01*
X-1823410Y-4897818D02*
G75*
G03*
X-1502982Y-5047237I234923J85505D01*
G01*
X-2118618Y-3355790D02*
X-950000Y-2930000D01*
X-2118618Y-3355790D02*
G75*
G03*
X-2268037Y-3676218I85505J-234923D01*
G01*
X2900000Y3200000D02*
X1000000Y2900000D01*
X6600000Y2900000D02*
X4700000Y3200000D01*
X-950000Y2700000D02*
X-950000Y-2930000D01*
X1000000Y2900000D02*
X750000Y2900000D01*
X5650000Y-4500000D02*
X10450000Y-3850000D01*
X0Y-4500000D02*
X5650000Y-4500000D01*
X10450000Y1550000D02*
X6600000Y2900000D01*
X4700000Y3200000D02*
X2900000Y3200000D01*
X10450000Y-3850000D02*
X10450000Y1550000D01*
D11*
D12*
X-1027327Y-3272673D02*
X-987327Y-3312673D01*
X-987327Y-3272673D02*
X-1027327Y-3312673D01*
X-1020000Y-4130000D02*
X-980000Y-4170000D01*
X-980000Y-4130000D02*
X-1020000Y-4170000D01*
X-70000Y-3930000D02*
X-30000Y-3970000D01*
X-30000Y-3930000D02*
X-70000Y-3970000D01*
X130000Y-280000D02*
X170000Y-320000D01*
X170000Y-280000D02*
X130000Y-320000D01*
X180000Y1570000D02*
X220000Y1530000D01*
X220000Y1570000D02*
X180000Y1530000D01*
X180000Y-2080000D02*
X220000Y-2120000D01*
X220000Y-2080000D02*
X180000Y-2120000D01*
X280000Y470000D02*
X320000Y430000D01*
X320000Y470000D02*
X280000Y430000D01*
X280000Y-1330000D02*
X320000Y-1370000D01*
X320000Y-1330000D02*
X280000Y-1370000D01*
X280000Y2270000D02*
X320000Y2230000D01*
X320000Y2270000D02*
X280000Y2230000D01*
X630000Y-3130000D02*
X670000Y-3170000D01*
X670000Y-3130000D02*
X630000Y-3170000D01*
X830000Y1670000D02*
X870000Y1630000D01*
X870000Y1670000D02*
X830000Y1630000D01*
X830000Y-130000D02*
X870000Y-170000D01*
X870000Y-130000D02*
X830000Y-170000D01*
X870000Y470000D02*
X910000Y430000D01*
X910000Y470000D02*
X870000Y430000D01*
X880000Y-1930000D02*
X920000Y-1970000D01*
X920000Y-1930000D02*
X880000Y-1970000D01*
X900000Y-1330000D02*
X940000Y-1370000D01*
X940000Y-1330000D02*
X900000Y-1370000D01*
X1070000Y2622450D02*
X1110000Y2582450D01*
X1110000Y2622450D02*
X1070000Y2582450D01*
X1080000Y-3880000D02*
X1120000Y-3920000D01*
X1120000Y-3880000D02*
X1080000Y-3920000D01*
X1572500Y-1272500D02*
X1612500Y-1312500D01*
X1612500Y-1272500D02*
X1572500Y-1312500D01*
X1596250Y553750D02*
X1636250Y513750D01*
X1636250Y553750D02*
X1596250Y513750D01*
X1622500Y2377500D02*
X1662500Y2337500D01*
X1662500Y2377500D02*
X1622500Y2337500D01*
X1820000Y2590000D02*
X1860000Y2550000D01*
X1860000Y2590000D02*
X1820000Y2550000D01*
X2030000Y1770000D02*
X2070000Y1730000D01*
X2070000Y1770000D02*
X2030000Y1730000D01*
X2030000Y-80000D02*
X2070000Y-120000D01*
X2070000Y-80000D02*
X2030000Y-120000D01*
X2080000Y-1880000D02*
X2120000Y-1920000D01*
X2120000Y-1880000D02*
X2080000Y-1920000D01*
X2950000Y2210000D02*
X2990000Y2170000D01*
X2990000Y2210000D02*
X2950000Y2170000D01*
X2980000Y-3880000D02*
X3020000Y-3920000D01*
X3020000Y-3880000D02*
X2980000Y-3920000D01*
X3130000Y-3130000D02*
X3170000Y-3170000D01*
X3170000Y-3130000D02*
X3130000Y-3170000D01*
X3930000Y2897550D02*
X3970000Y2857550D01*
X3970000Y2897550D02*
X3930000Y2857550D01*
X3930000Y2020000D02*
X3970000Y1980000D01*
X3970000Y2020000D02*
X3930000Y1980000D01*
X3930000Y-1580000D02*
X3970000Y-1620000D01*
X3970000Y-1580000D02*
X3930000Y-1620000D01*
X3980000Y220000D02*
X4020000Y180000D01*
X4020000Y220000D02*
X3980000Y180000D01*
X4080000Y970000D02*
X4120000Y930000D01*
X4120000Y970000D02*
X4080000Y930000D01*
X4080000Y-830000D02*
X4120000Y-870000D01*
X4120000Y-830000D02*
X4080000Y-870000D01*
X4510000Y1210000D02*
X4550000Y1170000D01*
X4550000Y1210000D02*
X4510000Y1170000D01*
X4605500Y1645500D02*
X4645500Y1605500D01*
X4645500Y1645500D02*
X4605500Y1605500D01*
X4630000Y-80000D02*
X4670000Y-120000D01*
X4670000Y-80000D02*
X4630000Y-120000D01*
X4630000Y-1930000D02*
X4670000Y-1970000D01*
X4670000Y-1930000D02*
X4630000Y-1970000D01*
X5372500Y812500D02*
X5412500Y772500D01*
X5412500Y812500D02*
X5372500Y772500D01*
X5380000Y-980000D02*
X5420000Y-1020000D01*
X5420000Y-980000D02*
X5380000Y-1020000D01*
X5422500Y2562500D02*
X5462500Y2522500D01*
X5462500Y2562500D02*
X5422500Y2522500D01*
X5630000Y-1030000D02*
X5670000Y-1070000D01*
X5670000Y-1030000D02*
X5630000Y-1070000D01*
X5665000Y820000D02*
X5705000Y780000D01*
X5705000Y820000D02*
X5665000Y780000D01*
X5830000Y1720000D02*
X5870000Y1680000D01*
X5870000Y1720000D02*
X5830000Y1680000D01*
X5830000Y-1880000D02*
X5870000Y-1920000D01*
X5870000Y-1880000D02*
X5830000Y-1920000D01*
X5880000Y-80000D02*
X5920000Y-120000D01*
X5920000Y-80000D02*
X5880000Y-120000D01*
X7652500Y-1937500D02*
X7692500Y-1977500D01*
X7692500Y-1937500D02*
X7652500Y-1977500D01*
X7730000Y820000D02*
X7770000Y780000D01*
X7770000Y820000D02*
X7730000Y780000D01*
X7730000Y-2780000D02*
X7770000Y-2820000D01*
X7770000Y-2780000D02*
X7730000Y-2820000D01*
X7780000Y-980000D02*
X7820000Y-1020000D01*
X7820000Y-980000D02*
X7780000Y-1020000D01*
X7880000Y1570000D02*
X7920000Y1530000D01*
X7920000Y1570000D02*
X7880000Y1530000D01*
X7880000Y-230000D02*
X7920000Y-270000D01*
X7920000Y-230000D02*
X7880000Y-270000D01*
X8330000Y295000D02*
X8370000Y255000D01*
X8370000Y295000D02*
X8330000Y255000D01*
X8330000Y-1480000D02*
X8370000Y-1520000D01*
X8370000Y-1480000D02*
X8330000Y-1520000D01*
X8330000Y-3205000D02*
X8370000Y-3245000D01*
X8370000Y-3205000D02*
X8330000Y-3245000D01*
X9180000Y-2330000D02*
X9220000Y-2370000D01*
X9220000Y-2330000D02*
X9180000Y-2370000D01*
X9197500Y1237500D02*
X9237500Y1197500D01*
X9237500Y1237500D02*
X9197500Y1197500D01*
X9197500Y-562500D02*
X9237500Y-602500D01*
X9237500Y-562500D02*
X9197500Y-602500D01*
X9580000Y-3230000D02*
X9620000Y-3270000D01*
X9620000Y-3230000D02*
X9580000Y-3270000D01*
X9630000Y370000D02*
X9670000Y330000D01*
X9670000Y370000D02*
X9630000Y330000D01*
X9680000Y-1430000D02*
X9720000Y-1470000D01*
X9720000Y-1430000D02*
X9680000Y-1470000D01*
D11*
X-2040494Y-5379837D02*
X-2040494Y-5179837D01*
X-2040494Y-5179837D02*
X-1992875Y-5179837D01*
X-1992875Y-5179837D02*
X-1964304Y-5189361D01*
X-1964304Y-5189361D02*
X-1945256Y-5208409D01*
X-1945256Y-5208409D02*
X-1935732Y-5227456D01*
X-1935732Y-5227456D02*
X-1926209Y-5265551D01*
X-1926209Y-5265551D02*
X-1926209Y-5294123D01*
X-1926209Y-5294123D02*
X-1935732Y-5332218D01*
X-1935732Y-5332218D02*
X-1945256Y-5351266D01*
X-1945256Y-5351266D02*
X-1964304Y-5370313D01*
X-1964304Y-5370313D02*
X-1992875Y-5379837D01*
X-1992875Y-5379837D02*
X-2040494Y-5379837D01*
X-1840494Y-5379837D02*
X-1840494Y-5246504D01*
X-1840494Y-5284599D02*
X-1830970Y-5265551D01*
X-1830970Y-5265551D02*
X-1821447Y-5256028D01*
X-1821447Y-5256028D02*
X-1802399Y-5246504D01*
X-1802399Y-5246504D02*
X-1783351Y-5246504D01*
X-1716685Y-5379837D02*
X-1716685Y-5246504D01*
X-1716685Y-5179837D02*
X-1726209Y-5189361D01*
X-1726209Y-5189361D02*
X-1716685Y-5198885D01*
X-1716685Y-5198885D02*
X-1707161Y-5189361D01*
X-1707161Y-5189361D02*
X-1716685Y-5179837D01*
X-1716685Y-5179837D02*
X-1716685Y-5198885D01*
X-1592875Y-5379837D02*
X-1611923Y-5370313D01*
X-1611923Y-5370313D02*
X-1621447Y-5351266D01*
X-1621447Y-5351266D02*
X-1621447Y-5179837D01*
X-1488113Y-5379837D02*
X-1507161Y-5370313D01*
X-1507161Y-5370313D02*
X-1516685Y-5351266D01*
X-1516685Y-5351266D02*
X-1516685Y-5179837D01*
X-1259542Y-5379837D02*
X-1259542Y-5179837D01*
X-1259542Y-5179837D02*
X-1192875Y-5322694D01*
X-1192875Y-5322694D02*
X-1126209Y-5179837D01*
X-1126209Y-5179837D02*
X-1126209Y-5379837D01*
X-945256Y-5379837D02*
X-945256Y-5275075D01*
X-945256Y-5275075D02*
X-954780Y-5256028D01*
X-954780Y-5256028D02*
X-973828Y-5246504D01*
X-973828Y-5246504D02*
X-1011923Y-5246504D01*
X-1011923Y-5246504D02*
X-1030970Y-5256028D01*
X-945256Y-5370313D02*
X-964304Y-5379837D01*
X-964304Y-5379837D02*
X-1011923Y-5379837D01*
X-1011923Y-5379837D02*
X-1030970Y-5370313D01*
X-1030970Y-5370313D02*
X-1040494Y-5351266D01*
X-1040494Y-5351266D02*
X-1040494Y-5332218D01*
X-1040494Y-5332218D02*
X-1030970Y-5313170D01*
X-1030970Y-5313170D02*
X-1011923Y-5303647D01*
X-1011923Y-5303647D02*
X-964304Y-5303647D01*
X-964304Y-5303647D02*
X-945256Y-5294123D01*
X-850018Y-5246504D02*
X-850018Y-5446504D01*
X-850018Y-5256028D02*
X-830970Y-5246504D01*
X-830970Y-5246504D02*
X-792875Y-5246504D01*
X-792875Y-5246504D02*
X-773828Y-5256028D01*
X-773828Y-5256028D02*
X-764304Y-5265551D01*
X-764304Y-5265551D02*
X-754780Y-5284599D01*
X-754780Y-5284599D02*
X-754780Y-5341742D01*
X-754780Y-5341742D02*
X-764304Y-5360789D01*
X-764304Y-5360789D02*
X-773828Y-5370313D01*
X-773828Y-5370313D02*
X-792875Y-5379837D01*
X-792875Y-5379837D02*
X-830970Y-5379837D01*
X-830970Y-5379837D02*
X-850018Y-5370313D01*
X-669066Y-5360789D02*
X-659542Y-5370313D01*
X-659542Y-5370313D02*
X-669066Y-5379837D01*
X-669066Y-5379837D02*
X-678590Y-5370313D01*
X-678590Y-5370313D02*
X-669066Y-5360789D01*
X-669066Y-5360789D02*
X-669066Y-5379837D01*
X-669066Y-5256028D02*
X-659542Y-5265551D01*
X-659542Y-5265551D02*
X-669066Y-5275075D01*
X-669066Y-5275075D02*
X-678590Y-5265551D01*
X-678590Y-5265551D02*
X-669066Y-5256028D01*
X-669066Y-5256028D02*
X-669066Y-5275075D01*
D12*
X-2328113Y-5687313D02*
X-2288113Y-5727313D01*
X-2288113Y-5687313D02*
X-2328113Y-5727313D01*
D11*
X-2002399Y-5599837D02*
X-1983351Y-5599837D01*
X-1983351Y-5599837D02*
X-1964304Y-5609361D01*
X-1964304Y-5609361D02*
X-1954780Y-5618885D01*
X-1954780Y-5618885D02*
X-1945256Y-5637932D01*
X-1945256Y-5637932D02*
X-1935732Y-5676027D01*
X-1935732Y-5676027D02*
X-1935732Y-5723647D01*
X-1935732Y-5723647D02*
X-1945256Y-5761742D01*
X-1945256Y-5761742D02*
X-1954780Y-5780789D01*
X-1954780Y-5780789D02*
X-1964304Y-5790313D01*
X-1964304Y-5790313D02*
X-1983351Y-5799837D01*
X-1983351Y-5799837D02*
X-2002399Y-5799837D01*
X-2002399Y-5799837D02*
X-2021447Y-5790313D01*
X-2021447Y-5790313D02*
X-2030970Y-5780789D01*
X-2030970Y-5780789D02*
X-2040494Y-5761742D01*
X-2040494Y-5761742D02*
X-2050018Y-5723647D01*
X-2050018Y-5723647D02*
X-2050018Y-5676027D01*
X-2050018Y-5676027D02*
X-2040494Y-5637932D01*
X-2040494Y-5637932D02*
X-2030970Y-5618885D01*
X-2030970Y-5618885D02*
X-2021447Y-5609361D01*
X-2021447Y-5609361D02*
X-2002399Y-5599837D01*
X-1850018Y-5780789D02*
X-1840494Y-5790313D01*
X-1840494Y-5790313D02*
X-1850018Y-5799837D01*
X-1850018Y-5799837D02*
X-1859542Y-5790313D01*
X-1859542Y-5790313D02*
X-1850018Y-5780789D01*
X-1850018Y-5780789D02*
X-1850018Y-5799837D01*
X-1669066Y-5666504D02*
X-1669066Y-5799837D01*
X-1716685Y-5590313D02*
X-1764304Y-5733170D01*
X-1764304Y-5733170D02*
X-1640494Y-5733170D01*
X-1526209Y-5599837D02*
X-1507161Y-5599837D01*
X-1507161Y-5599837D02*
X-1488113Y-5609361D01*
X-1488113Y-5609361D02*
X-1478589Y-5618885D01*
X-1478589Y-5618885D02*
X-1469066Y-5637932D01*
X-1469066Y-5637932D02*
X-1459542Y-5676027D01*
X-1459542Y-5676027D02*
X-1459542Y-5723647D01*
X-1459542Y-5723647D02*
X-1469066Y-5761742D01*
X-1469066Y-5761742D02*
X-1478589Y-5780789D01*
X-1478589Y-5780789D02*
X-1488113Y-5790313D01*
X-1488113Y-5790313D02*
X-1507161Y-5799837D01*
X-1507161Y-5799837D02*
X-1526209Y-5799837D01*
X-1526209Y-5799837D02*
X-1545256Y-5790313D01*
X-1545256Y-5790313D02*
X-1554780Y-5780789D01*
X-1554780Y-5780789D02*
X-1564304Y-5761742D01*
X-1564304Y-5761742D02*
X-1573828Y-5723647D01*
X-1573828Y-5723647D02*
X-1573828Y-5676027D01*
X-1573828Y-5676027D02*
X-1564304Y-5637932D01*
X-1564304Y-5637932D02*
X-1554780Y-5618885D01*
X-1554780Y-5618885D02*
X-1545256Y-5609361D01*
X-1545256Y-5609361D02*
X-1526209Y-5599837D01*
X-1335732Y-5599837D02*
X-1316685Y-5599837D01*
X-1316685Y-5599837D02*
X-1297637Y-5609361D01*
X-1297637Y-5609361D02*
X-1288113Y-5618885D01*
X-1288113Y-5618885D02*
X-1278590Y-5637932D01*
X-1278590Y-5637932D02*
X-1269066Y-5676027D01*
X-1269066Y-5676027D02*
X-1269066Y-5723647D01*
X-1269066Y-5723647D02*
X-1278590Y-5761742D01*
X-1278590Y-5761742D02*
X-1288113Y-5780789D01*
X-1288113Y-5780789D02*
X-1297637Y-5790313D01*
X-1297637Y-5790313D02*
X-1316685Y-5799837D01*
X-1316685Y-5799837D02*
X-1335732Y-5799837D01*
X-1335732Y-5799837D02*
X-1354780Y-5790313D01*
X-1354780Y-5790313D02*
X-1364304Y-5780789D01*
X-1364304Y-5780789D02*
X-1373828Y-5761742D01*
X-1373828Y-5761742D02*
X-1383351Y-5723647D01*
X-1383351Y-5723647D02*
X-1383351Y-5676027D01*
X-1383351Y-5676027D02*
X-1373828Y-5637932D01*
X-1373828Y-5637932D02*
X-1364304Y-5618885D01*
X-1364304Y-5618885D02*
X-1354780Y-5609361D01*
X-1354780Y-5609361D02*
X-1335732Y-5599837D01*
X-1183351Y-5799837D02*
X-1183351Y-5666504D01*
X-1183351Y-5685551D02*
X-1173828Y-5676027D01*
X-1173828Y-5676027D02*
X-1154780Y-5666504D01*
X-1154780Y-5666504D02*
X-1126209Y-5666504D01*
X-1126209Y-5666504D02*
X-1107161Y-5676027D01*
X-1107161Y-5676027D02*
X-1097637Y-5695075D01*
X-1097637Y-5695075D02*
X-1097637Y-5799837D01*
X-1097637Y-5695075D02*
X-1088113Y-5676027D01*
X-1088113Y-5676027D02*
X-1069066Y-5666504D01*
X-1069066Y-5666504D02*
X-1040494Y-5666504D01*
X-1040494Y-5666504D02*
X-1021447Y-5676027D01*
X-1021447Y-5676027D02*
X-1011923Y-5695075D01*
X-1011923Y-5695075D02*
X-1011923Y-5799837D01*
X-916685Y-5799837D02*
X-916685Y-5666504D01*
X-916685Y-5685551D02*
X-907161Y-5676027D01*
X-907161Y-5676027D02*
X-888113Y-5666504D01*
X-888113Y-5666504D02*
X-859542Y-5666504D01*
X-859542Y-5666504D02*
X-840494Y-5676027D01*
X-840494Y-5676027D02*
X-830970Y-5695075D01*
X-830970Y-5695075D02*
X-830970Y-5799837D01*
X-830970Y-5695075D02*
X-821447Y-5676027D01*
X-821447Y-5676027D02*
X-802399Y-5666504D01*
X-802399Y-5666504D02*
X-773828Y-5666504D01*
X-773828Y-5666504D02*
X-754780Y-5676027D01*
X-754780Y-5676027D02*
X-745256Y-5695075D01*
X-745256Y-5695075D02*
X-745256Y-5799837D01*
X-354780Y-5590313D02*
X-526208Y-5847456D01*
X-97637Y-5599837D02*
X-78589Y-5599837D01*
X-78589Y-5599837D02*
X-59542Y-5609361D01*
X-59542Y-5609361D02*
X-50018Y-5618885D01*
X-50018Y-5618885D02*
X-40494Y-5637932D01*
X-40494Y-5637932D02*
X-30970Y-5676027D01*
X-30970Y-5676027D02*
X-30970Y-5723647D01*
X-30970Y-5723647D02*
X-40494Y-5761742D01*
X-40494Y-5761742D02*
X-50018Y-5780789D01*
X-50018Y-5780789D02*
X-59542Y-5790313D01*
X-59542Y-5790313D02*
X-78589Y-5799837D01*
X-78589Y-5799837D02*
X-97637Y-5799837D01*
X-97637Y-5799837D02*
X-116685Y-5790313D01*
X-116685Y-5790313D02*
X-126208Y-5780789D01*
X-126208Y-5780789D02*
X-135732Y-5761742D01*
X-135732Y-5761742D02*
X-145256Y-5723647D01*
X-145256Y-5723647D02*
X-145256Y-5676027D01*
X-145256Y-5676027D02*
X-135732Y-5637932D01*
X-135732Y-5637932D02*
X-126208Y-5618885D01*
X-126208Y-5618885D02*
X-116685Y-5609361D01*
X-116685Y-5609361D02*
X-97637Y-5599837D01*
X54744Y-5780789D02*
X64268Y-5790313D01*
X64268Y-5790313D02*
X54744Y-5799837D01*
X54744Y-5799837D02*
X45220Y-5790313D01*
X45220Y-5790313D02*
X54744Y-5780789D01*
X54744Y-5780789D02*
X54744Y-5799837D01*
X188077Y-5599837D02*
X207125Y-5599837D01*
X207125Y-5599837D02*
X226173Y-5609361D01*
X226173Y-5609361D02*
X235696Y-5618885D01*
X235696Y-5618885D02*
X245220Y-5637932D01*
X245220Y-5637932D02*
X254744Y-5676027D01*
X254744Y-5676027D02*
X254744Y-5723647D01*
X254744Y-5723647D02*
X245220Y-5761742D01*
X245220Y-5761742D02*
X235696Y-5780789D01*
X235696Y-5780789D02*
X226173Y-5790313D01*
X226173Y-5790313D02*
X207125Y-5799837D01*
X207125Y-5799837D02*
X188077Y-5799837D01*
X188077Y-5799837D02*
X169030Y-5790313D01*
X169030Y-5790313D02*
X159506Y-5780789D01*
X159506Y-5780789D02*
X149982Y-5761742D01*
X149982Y-5761742D02*
X140458Y-5723647D01*
X140458Y-5723647D02*
X140458Y-5676027D01*
X140458Y-5676027D02*
X149982Y-5637932D01*
X149982Y-5637932D02*
X159506Y-5618885D01*
X159506Y-5618885D02*
X169030Y-5609361D01*
X169030Y-5609361D02*
X188077Y-5599837D01*
X445220Y-5799837D02*
X330935Y-5799837D01*
X388077Y-5799837D02*
X388077Y-5599837D01*
X388077Y-5599837D02*
X369030Y-5628408D01*
X369030Y-5628408D02*
X349982Y-5647456D01*
X349982Y-5647456D02*
X330935Y-5656980D01*
X626173Y-5599837D02*
X530935Y-5599837D01*
X530935Y-5599837D02*
X521411Y-5695075D01*
X521411Y-5695075D02*
X530935Y-5685551D01*
X530935Y-5685551D02*
X549982Y-5676027D01*
X549982Y-5676027D02*
X597601Y-5676027D01*
X597601Y-5676027D02*
X616649Y-5685551D01*
X616649Y-5685551D02*
X626173Y-5695075D01*
X626173Y-5695075D02*
X635696Y-5714123D01*
X635696Y-5714123D02*
X635696Y-5761742D01*
X635696Y-5761742D02*
X626173Y-5780789D01*
X626173Y-5780789D02*
X616649Y-5790313D01*
X616649Y-5790313D02*
X597601Y-5799837D01*
X597601Y-5799837D02*
X549982Y-5799837D01*
X549982Y-5799837D02*
X530935Y-5790313D01*
X530935Y-5790313D02*
X521411Y-5780789D01*
X702363Y-5599837D02*
X835696Y-5599837D01*
X835696Y-5599837D02*
X749982Y-5799837D01*
X902363Y-5599837D02*
X902363Y-5637932D01*
X978554Y-5599837D02*
X978554Y-5637932D01*
X1273792Y-5876027D02*
X1264268Y-5866504D01*
X1264268Y-5866504D02*
X1245220Y-5837932D01*
X1245220Y-5837932D02*
X1235697Y-5818885D01*
X1235697Y-5818885D02*
X1226173Y-5790313D01*
X1226173Y-5790313D02*
X1216649Y-5742694D01*
X1216649Y-5742694D02*
X1216649Y-5704599D01*
X1216649Y-5704599D02*
X1226173Y-5656980D01*
X1226173Y-5656980D02*
X1235697Y-5628408D01*
X1235697Y-5628408D02*
X1245220Y-5609361D01*
X1245220Y-5609361D02*
X1264268Y-5580789D01*
X1264268Y-5580789D02*
X1273792Y-5571266D01*
X1435696Y-5599837D02*
X1397601Y-5599837D01*
X1397601Y-5599837D02*
X1378554Y-5609361D01*
X1378554Y-5609361D02*
X1369030Y-5618885D01*
X1369030Y-5618885D02*
X1349982Y-5647456D01*
X1349982Y-5647456D02*
X1340458Y-5685551D01*
X1340458Y-5685551D02*
X1340458Y-5761742D01*
X1340458Y-5761742D02*
X1349982Y-5780789D01*
X1349982Y-5780789D02*
X1359506Y-5790313D01*
X1359506Y-5790313D02*
X1378554Y-5799837D01*
X1378554Y-5799837D02*
X1416649Y-5799837D01*
X1416649Y-5799837D02*
X1435696Y-5790313D01*
X1435696Y-5790313D02*
X1445220Y-5780789D01*
X1445220Y-5780789D02*
X1454744Y-5761742D01*
X1454744Y-5761742D02*
X1454744Y-5714123D01*
X1454744Y-5714123D02*
X1445220Y-5695075D01*
X1445220Y-5695075D02*
X1435696Y-5685551D01*
X1435696Y-5685551D02*
X1416649Y-5676027D01*
X1416649Y-5676027D02*
X1378554Y-5676027D01*
X1378554Y-5676027D02*
X1359506Y-5685551D01*
X1359506Y-5685551D02*
X1349982Y-5695075D01*
X1349982Y-5695075D02*
X1340458Y-5714123D01*
X1578554Y-5599837D02*
X1597601Y-5599837D01*
X1597601Y-5599837D02*
X1616649Y-5609361D01*
X1616649Y-5609361D02*
X1626173Y-5618885D01*
X1626173Y-5618885D02*
X1635696Y-5637932D01*
X1635696Y-5637932D02*
X1645220Y-5676027D01*
X1645220Y-5676027D02*
X1645220Y-5723647D01*
X1645220Y-5723647D02*
X1635696Y-5761742D01*
X1635696Y-5761742D02*
X1626173Y-5780789D01*
X1626173Y-5780789D02*
X1616649Y-5790313D01*
X1616649Y-5790313D02*
X1597601Y-5799837D01*
X1597601Y-5799837D02*
X1578554Y-5799837D01*
X1578554Y-5799837D02*
X1559506Y-5790313D01*
X1559506Y-5790313D02*
X1549982Y-5780789D01*
X1549982Y-5780789D02*
X1540458Y-5761742D01*
X1540458Y-5761742D02*
X1530935Y-5723647D01*
X1530935Y-5723647D02*
X1530935Y-5676027D01*
X1530935Y-5676027D02*
X1540458Y-5637932D01*
X1540458Y-5637932D02*
X1549982Y-5618885D01*
X1549982Y-5618885D02*
X1559506Y-5609361D01*
X1559506Y-5609361D02*
X1578554Y-5599837D01*
X1883316Y-5799837D02*
X1883316Y-5599837D01*
X1969030Y-5799837D02*
X1969030Y-5695075D01*
X1969030Y-5695075D02*
X1959506Y-5676027D01*
X1959506Y-5676027D02*
X1940458Y-5666504D01*
X1940458Y-5666504D02*
X1911887Y-5666504D01*
X1911887Y-5666504D02*
X1892839Y-5676027D01*
X1892839Y-5676027D02*
X1883316Y-5685551D01*
X2092839Y-5799837D02*
X2073792Y-5790313D01*
X2073792Y-5790313D02*
X2064268Y-5780789D01*
X2064268Y-5780789D02*
X2054744Y-5761742D01*
X2054744Y-5761742D02*
X2054744Y-5704599D01*
X2054744Y-5704599D02*
X2064268Y-5685551D01*
X2064268Y-5685551D02*
X2073792Y-5676027D01*
X2073792Y-5676027D02*
X2092839Y-5666504D01*
X2092839Y-5666504D02*
X2121411Y-5666504D01*
X2121411Y-5666504D02*
X2140459Y-5676027D01*
X2140459Y-5676027D02*
X2149982Y-5685551D01*
X2149982Y-5685551D02*
X2159506Y-5704599D01*
X2159506Y-5704599D02*
X2159506Y-5761742D01*
X2159506Y-5761742D02*
X2149982Y-5780789D01*
X2149982Y-5780789D02*
X2140459Y-5790313D01*
X2140459Y-5790313D02*
X2121411Y-5799837D01*
X2121411Y-5799837D02*
X2092839Y-5799837D01*
X2273792Y-5799837D02*
X2254744Y-5790313D01*
X2254744Y-5790313D02*
X2245220Y-5771266D01*
X2245220Y-5771266D02*
X2245220Y-5599837D01*
X2426173Y-5790313D02*
X2407125Y-5799837D01*
X2407125Y-5799837D02*
X2369030Y-5799837D01*
X2369030Y-5799837D02*
X2349982Y-5790313D01*
X2349982Y-5790313D02*
X2340459Y-5771266D01*
X2340459Y-5771266D02*
X2340459Y-5695075D01*
X2340459Y-5695075D02*
X2349982Y-5676027D01*
X2349982Y-5676027D02*
X2369030Y-5666504D01*
X2369030Y-5666504D02*
X2407125Y-5666504D01*
X2407125Y-5666504D02*
X2426173Y-5676027D01*
X2426173Y-5676027D02*
X2435697Y-5695075D01*
X2435697Y-5695075D02*
X2435697Y-5714123D01*
X2435697Y-5714123D02*
X2340459Y-5733170D01*
X2511887Y-5790313D02*
X2530935Y-5799837D01*
X2530935Y-5799837D02*
X2569030Y-5799837D01*
X2569030Y-5799837D02*
X2588078Y-5790313D01*
X2588078Y-5790313D02*
X2597601Y-5771266D01*
X2597601Y-5771266D02*
X2597601Y-5761742D01*
X2597601Y-5761742D02*
X2588078Y-5742694D01*
X2588078Y-5742694D02*
X2569030Y-5733170D01*
X2569030Y-5733170D02*
X2540459Y-5733170D01*
X2540459Y-5733170D02*
X2521411Y-5723647D01*
X2521411Y-5723647D02*
X2511887Y-5704599D01*
X2511887Y-5704599D02*
X2511887Y-5695075D01*
X2511887Y-5695075D02*
X2521411Y-5676027D01*
X2521411Y-5676027D02*
X2540459Y-5666504D01*
X2540459Y-5666504D02*
X2569030Y-5666504D01*
X2569030Y-5666504D02*
X2588078Y-5676027D01*
X2664268Y-5876027D02*
X2673792Y-5866504D01*
X2673792Y-5866504D02*
X2692840Y-5837932D01*
X2692840Y-5837932D02*
X2702363Y-5818885D01*
X2702363Y-5818885D02*
X2711887Y-5790313D01*
X2711887Y-5790313D02*
X2721411Y-5742694D01*
X2721411Y-5742694D02*
X2721411Y-5704599D01*
X2721411Y-5704599D02*
X2711887Y-5656980D01*
X2711887Y-5656980D02*
X2702363Y-5628408D01*
X2702363Y-5628408D02*
X2692840Y-5609361D01*
X2692840Y-5609361D02*
X2673792Y-5580789D01*
X2673792Y-5580789D02*
X2664268Y-5571266D01*
M02*
