%TF.GenerationSoftware,KiCad,Pcbnew,7.0.2-0*%
%TF.CreationDate,2023-05-24T14:01:04+08:00*%
%TF.ProjectId,Input,496e7075-742e-46b6-9963-61645f706362,1*%
%TF.SameCoordinates,PX7bfa480PY6052340*%
%TF.FileFunction,Legend,Top*%
%TF.FilePolarity,Positive*%
%FSLAX46Y46*%
G04 Gerber Fmt 4.6, Leading zero omitted, Abs format (unit mm)*
G04 Created by KiCad (PCBNEW 7.0.2-0) date 2023-05-24 14:01:04*
%MOMM*%
%LPD*%
G01*
G04 APERTURE LIST*
G04 Aperture macros list*
%AMRoundRect*
0 Rectangle with rounded corners*
0 $1 Rounding radius*
0 $2 $3 $4 $5 $6 $7 $8 $9 X,Y pos of 4 corners*
0 Add a 4 corners polygon primitive as box body*
4,1,4,$2,$3,$4,$5,$6,$7,$8,$9,$2,$3,0*
0 Add four circle primitives for the rounded corners*
1,1,$1+$1,$2,$3*
1,1,$1+$1,$4,$5*
1,1,$1+$1,$6,$7*
1,1,$1+$1,$8,$9*
0 Add four rect primitives between the rounded corners*
20,1,$1+$1,$2,$3,$4,$5,0*
20,1,$1+$1,$4,$5,$6,$7,0*
20,1,$1+$1,$6,$7,$8,$9,0*
20,1,$1+$1,$8,$9,$2,$3,0*%
%AMRotRect*
0 Rectangle, with rotation*
0 The origin of the aperture is its center*
0 $1 length*
0 $2 width*
0 $3 Rotation angle, in degrees counterclockwise*
0 Add horizontal line*
21,1,$1,$2,0,0,$3*%
G04 Aperture macros list end*
%ADD10C,0.150000*%
%ADD11C,0.200000*%
%ADD12C,0.120000*%
%ADD13C,3.000000*%
%ADD14R,2.000000X2.600000*%
%ADD15C,3.200000*%
%ADD16R,1.400000X1.000000*%
%ADD17RotRect,1.400000X1.000000X20.000000*%
%ADD18R,1.270000X3.429000*%
%ADD19RoundRect,0.317500X-0.317500X-1.397000X0.317500X-1.397000X0.317500X1.397000X-0.317500X1.397000X0*%
%ADD20RotRect,2.000000X2.600000X200.000000*%
%ADD21C,1.700000*%
G04 APERTURE END LIST*
D10*
X-1446667Y23837381D02*
X-1780000Y24313572D01*
X-2018095Y23837381D02*
X-2018095Y24837381D01*
X-2018095Y24837381D02*
X-1637143Y24837381D01*
X-1637143Y24837381D02*
X-1541905Y24789762D01*
X-1541905Y24789762D02*
X-1494286Y24742143D01*
X-1494286Y24742143D02*
X-1446667Y24646905D01*
X-1446667Y24646905D02*
X-1446667Y24504048D01*
X-1446667Y24504048D02*
X-1494286Y24408810D01*
X-1494286Y24408810D02*
X-1541905Y24361191D01*
X-1541905Y24361191D02*
X-1637143Y24313572D01*
X-1637143Y24313572D02*
X-2018095Y24313572D01*
X-1065714Y24742143D02*
X-1018095Y24789762D01*
X-1018095Y24789762D02*
X-922857Y24837381D01*
X-922857Y24837381D02*
X-684762Y24837381D01*
X-684762Y24837381D02*
X-589524Y24789762D01*
X-589524Y24789762D02*
X-541905Y24742143D01*
X-541905Y24742143D02*
X-494286Y24646905D01*
X-494286Y24646905D02*
X-494286Y24551667D01*
X-494286Y24551667D02*
X-541905Y24408810D01*
X-541905Y24408810D02*
X-1113333Y23837381D01*
X-1113333Y23837381D02*
X-494286Y23837381D01*
X-3859667Y23257381D02*
X-4193000Y23733572D01*
X-4431095Y23257381D02*
X-4431095Y24257381D01*
X-4431095Y24257381D02*
X-4050143Y24257381D01*
X-4050143Y24257381D02*
X-3954905Y24209762D01*
X-3954905Y24209762D02*
X-3907286Y24162143D01*
X-3907286Y24162143D02*
X-3859667Y24066905D01*
X-3859667Y24066905D02*
X-3859667Y23924048D01*
X-3859667Y23924048D02*
X-3907286Y23828810D01*
X-3907286Y23828810D02*
X-3954905Y23781191D01*
X-3954905Y23781191D02*
X-4050143Y23733572D01*
X-4050143Y23733572D02*
X-4431095Y23733572D01*
X-2907286Y23257381D02*
X-3478714Y23257381D01*
X-3193000Y23257381D02*
X-3193000Y24257381D01*
X-3193000Y24257381D02*
X-3288238Y24114524D01*
X-3288238Y24114524D02*
X-3383476Y24019286D01*
X-3383476Y24019286D02*
X-3478714Y23971667D01*
D11*
X47642857Y-35478928D02*
X47642857Y-33978928D01*
X47642857Y-33978928D02*
X48214286Y-33978928D01*
X48214286Y-33978928D02*
X48357143Y-34050357D01*
X48357143Y-34050357D02*
X48428572Y-34121785D01*
X48428572Y-34121785D02*
X48500000Y-34264642D01*
X48500000Y-34264642D02*
X48500000Y-34478928D01*
X48500000Y-34478928D02*
X48428572Y-34621785D01*
X48428572Y-34621785D02*
X48357143Y-34693214D01*
X48357143Y-34693214D02*
X48214286Y-34764642D01*
X48214286Y-34764642D02*
X47642857Y-34764642D01*
X49142857Y-35478928D02*
X49142857Y-34478928D01*
X49142857Y-34764642D02*
X49214286Y-34621785D01*
X49214286Y-34621785D02*
X49285715Y-34550357D01*
X49285715Y-34550357D02*
X49428572Y-34478928D01*
X49428572Y-34478928D02*
X49571429Y-34478928D01*
X50714286Y-35478928D02*
X50714286Y-34693214D01*
X50714286Y-34693214D02*
X50642857Y-34550357D01*
X50642857Y-34550357D02*
X50500000Y-34478928D01*
X50500000Y-34478928D02*
X50214286Y-34478928D01*
X50214286Y-34478928D02*
X50071428Y-34550357D01*
X50714286Y-35407500D02*
X50571428Y-35478928D01*
X50571428Y-35478928D02*
X50214286Y-35478928D01*
X50214286Y-35478928D02*
X50071428Y-35407500D01*
X50071428Y-35407500D02*
X50000000Y-35264642D01*
X50000000Y-35264642D02*
X50000000Y-35121785D01*
X50000000Y-35121785D02*
X50071428Y-34978928D01*
X50071428Y-34978928D02*
X50214286Y-34907500D01*
X50214286Y-34907500D02*
X50571428Y-34907500D01*
X50571428Y-34907500D02*
X50714286Y-34836071D01*
X52071429Y-34478928D02*
X52071429Y-35693214D01*
X52071429Y-35693214D02*
X52000000Y-35836071D01*
X52000000Y-35836071D02*
X51928571Y-35907500D01*
X51928571Y-35907500D02*
X51785714Y-35978928D01*
X51785714Y-35978928D02*
X51571429Y-35978928D01*
X51571429Y-35978928D02*
X51428571Y-35907500D01*
X52071429Y-35407500D02*
X51928571Y-35478928D01*
X51928571Y-35478928D02*
X51642857Y-35478928D01*
X51642857Y-35478928D02*
X51500000Y-35407500D01*
X51500000Y-35407500D02*
X51428571Y-35336071D01*
X51428571Y-35336071D02*
X51357143Y-35193214D01*
X51357143Y-35193214D02*
X51357143Y-34764642D01*
X51357143Y-34764642D02*
X51428571Y-34621785D01*
X51428571Y-34621785D02*
X51500000Y-34550357D01*
X51500000Y-34550357D02*
X51642857Y-34478928D01*
X51642857Y-34478928D02*
X51928571Y-34478928D01*
X51928571Y-34478928D02*
X52071429Y-34550357D01*
X52785714Y-35478928D02*
X52785714Y-34478928D01*
X52785714Y-34621785D02*
X52857143Y-34550357D01*
X52857143Y-34550357D02*
X53000000Y-34478928D01*
X53000000Y-34478928D02*
X53214286Y-34478928D01*
X53214286Y-34478928D02*
X53357143Y-34550357D01*
X53357143Y-34550357D02*
X53428572Y-34693214D01*
X53428572Y-34693214D02*
X53428572Y-35478928D01*
X53428572Y-34693214D02*
X53500000Y-34550357D01*
X53500000Y-34550357D02*
X53642857Y-34478928D01*
X53642857Y-34478928D02*
X53857143Y-34478928D01*
X53857143Y-34478928D02*
X54000000Y-34550357D01*
X54000000Y-34550357D02*
X54071429Y-34693214D01*
X54071429Y-34693214D02*
X54071429Y-35478928D01*
X55428572Y-35478928D02*
X55428572Y-34693214D01*
X55428572Y-34693214D02*
X55357143Y-34550357D01*
X55357143Y-34550357D02*
X55214286Y-34478928D01*
X55214286Y-34478928D02*
X54928572Y-34478928D01*
X54928572Y-34478928D02*
X54785714Y-34550357D01*
X55428572Y-35407500D02*
X55285714Y-35478928D01*
X55285714Y-35478928D02*
X54928572Y-35478928D01*
X54928572Y-35478928D02*
X54785714Y-35407500D01*
X54785714Y-35407500D02*
X54714286Y-35264642D01*
X54714286Y-35264642D02*
X54714286Y-35121785D01*
X54714286Y-35121785D02*
X54785714Y-34978928D01*
X54785714Y-34978928D02*
X54928572Y-34907500D01*
X54928572Y-34907500D02*
X55285714Y-34907500D01*
X55285714Y-34907500D02*
X55428572Y-34836071D01*
X55928572Y-34478928D02*
X56500000Y-34478928D01*
X56142857Y-33978928D02*
X56142857Y-35264642D01*
X56142857Y-35264642D02*
X56214286Y-35407500D01*
X56214286Y-35407500D02*
X56357143Y-35478928D01*
X56357143Y-35478928D02*
X56500000Y-35478928D01*
X57000000Y-35478928D02*
X57000000Y-34478928D01*
X57000000Y-33978928D02*
X56928572Y-34050357D01*
X56928572Y-34050357D02*
X57000000Y-34121785D01*
X57000000Y-34121785D02*
X57071429Y-34050357D01*
X57071429Y-34050357D02*
X57000000Y-33978928D01*
X57000000Y-33978928D02*
X57000000Y-34121785D01*
X58357144Y-35407500D02*
X58214286Y-35478928D01*
X58214286Y-35478928D02*
X57928572Y-35478928D01*
X57928572Y-35478928D02*
X57785715Y-35407500D01*
X57785715Y-35407500D02*
X57714286Y-35336071D01*
X57714286Y-35336071D02*
X57642858Y-35193214D01*
X57642858Y-35193214D02*
X57642858Y-34764642D01*
X57642858Y-34764642D02*
X57714286Y-34621785D01*
X57714286Y-34621785D02*
X57785715Y-34550357D01*
X57785715Y-34550357D02*
X57928572Y-34478928D01*
X57928572Y-34478928D02*
X58214286Y-34478928D01*
X58214286Y-34478928D02*
X58357144Y-34550357D01*
X60785715Y-34478928D02*
X60785715Y-35478928D01*
X60428572Y-33907500D02*
X60071429Y-34978928D01*
X60071429Y-34978928D02*
X61000000Y-34978928D01*
X61500000Y-34121785D02*
X61571428Y-34050357D01*
X61571428Y-34050357D02*
X61714286Y-33978928D01*
X61714286Y-33978928D02*
X62071428Y-33978928D01*
X62071428Y-33978928D02*
X62214286Y-34050357D01*
X62214286Y-34050357D02*
X62285714Y-34121785D01*
X62285714Y-34121785D02*
X62357143Y-34264642D01*
X62357143Y-34264642D02*
X62357143Y-34407500D01*
X62357143Y-34407500D02*
X62285714Y-34621785D01*
X62285714Y-34621785D02*
X61428571Y-35478928D01*
X61428571Y-35478928D02*
X62357143Y-35478928D01*
X64999999Y-35478928D02*
X64499999Y-34764642D01*
X64142856Y-35478928D02*
X64142856Y-33978928D01*
X64142856Y-33978928D02*
X64714285Y-33978928D01*
X64714285Y-33978928D02*
X64857142Y-34050357D01*
X64857142Y-34050357D02*
X64928571Y-34121785D01*
X64928571Y-34121785D02*
X64999999Y-34264642D01*
X64999999Y-34264642D02*
X64999999Y-34478928D01*
X64999999Y-34478928D02*
X64928571Y-34621785D01*
X64928571Y-34621785D02*
X64857142Y-34693214D01*
X64857142Y-34693214D02*
X64714285Y-34764642D01*
X64714285Y-34764642D02*
X64142856Y-34764642D01*
X65571428Y-34121785D02*
X65642856Y-34050357D01*
X65642856Y-34050357D02*
X65785714Y-33978928D01*
X65785714Y-33978928D02*
X66142856Y-33978928D01*
X66142856Y-33978928D02*
X66285714Y-34050357D01*
X66285714Y-34050357D02*
X66357142Y-34121785D01*
X66357142Y-34121785D02*
X66428571Y-34264642D01*
X66428571Y-34264642D02*
X66428571Y-34407500D01*
X66428571Y-34407500D02*
X66357142Y-34621785D01*
X66357142Y-34621785D02*
X65499999Y-35478928D01*
X65499999Y-35478928D02*
X66428571Y-35478928D01*
X50464287Y-37766071D02*
X50392859Y-37837500D01*
X50392859Y-37837500D02*
X50178573Y-37908928D01*
X50178573Y-37908928D02*
X50035716Y-37908928D01*
X50035716Y-37908928D02*
X49821430Y-37837500D01*
X49821430Y-37837500D02*
X49678573Y-37694642D01*
X49678573Y-37694642D02*
X49607144Y-37551785D01*
X49607144Y-37551785D02*
X49535716Y-37266071D01*
X49535716Y-37266071D02*
X49535716Y-37051785D01*
X49535716Y-37051785D02*
X49607144Y-36766071D01*
X49607144Y-36766071D02*
X49678573Y-36623214D01*
X49678573Y-36623214D02*
X49821430Y-36480357D01*
X49821430Y-36480357D02*
X50035716Y-36408928D01*
X50035716Y-36408928D02*
X50178573Y-36408928D01*
X50178573Y-36408928D02*
X50392859Y-36480357D01*
X50392859Y-36480357D02*
X50464287Y-36551785D01*
X51107144Y-37908928D02*
X51107144Y-36408928D01*
X51107144Y-37123214D02*
X51964287Y-37123214D01*
X51964287Y-37908928D02*
X51964287Y-36408928D01*
X53321431Y-36908928D02*
X53321431Y-37908928D01*
X52964288Y-36337500D02*
X52607145Y-37408928D01*
X52607145Y-37408928D02*
X53535716Y-37408928D01*
X54035716Y-36551785D02*
X54107144Y-36480357D01*
X54107144Y-36480357D02*
X54250002Y-36408928D01*
X54250002Y-36408928D02*
X54607144Y-36408928D01*
X54607144Y-36408928D02*
X54750002Y-36480357D01*
X54750002Y-36480357D02*
X54821430Y-36551785D01*
X54821430Y-36551785D02*
X54892859Y-36694642D01*
X54892859Y-36694642D02*
X54892859Y-36837500D01*
X54892859Y-36837500D02*
X54821430Y-37051785D01*
X54821430Y-37051785D02*
X53964287Y-37908928D01*
X53964287Y-37908928D02*
X54892859Y-37908928D01*
X55464287Y-37480357D02*
X56178573Y-37480357D01*
X55321430Y-37908928D02*
X55821430Y-36408928D01*
X55821430Y-36408928D02*
X56321430Y-37908928D01*
X56750001Y-36551785D02*
X56821429Y-36480357D01*
X56821429Y-36480357D02*
X56964287Y-36408928D01*
X56964287Y-36408928D02*
X57321429Y-36408928D01*
X57321429Y-36408928D02*
X57464287Y-36480357D01*
X57464287Y-36480357D02*
X57535715Y-36551785D01*
X57535715Y-36551785D02*
X57607144Y-36694642D01*
X57607144Y-36694642D02*
X57607144Y-36837500D01*
X57607144Y-36837500D02*
X57535715Y-37051785D01*
X57535715Y-37051785D02*
X56678572Y-37908928D01*
X56678572Y-37908928D02*
X57607144Y-37908928D01*
X59321429Y-36551785D02*
X59392857Y-36480357D01*
X59392857Y-36480357D02*
X59535715Y-36408928D01*
X59535715Y-36408928D02*
X59892857Y-36408928D01*
X59892857Y-36408928D02*
X60035715Y-36480357D01*
X60035715Y-36480357D02*
X60107143Y-36551785D01*
X60107143Y-36551785D02*
X60178572Y-36694642D01*
X60178572Y-36694642D02*
X60178572Y-36837500D01*
X60178572Y-36837500D02*
X60107143Y-37051785D01*
X60107143Y-37051785D02*
X59250000Y-37908928D01*
X59250000Y-37908928D02*
X60178572Y-37908928D01*
X60678571Y-36408928D02*
X61607143Y-36408928D01*
X61607143Y-36408928D02*
X61107143Y-36980357D01*
X61107143Y-36980357D02*
X61321428Y-36980357D01*
X61321428Y-36980357D02*
X61464286Y-37051785D01*
X61464286Y-37051785D02*
X61535714Y-37123214D01*
X61535714Y-37123214D02*
X61607143Y-37266071D01*
X61607143Y-37266071D02*
X61607143Y-37623214D01*
X61607143Y-37623214D02*
X61535714Y-37766071D01*
X61535714Y-37766071D02*
X61464286Y-37837500D01*
X61464286Y-37837500D02*
X61321428Y-37908928D01*
X61321428Y-37908928D02*
X60892857Y-37908928D01*
X60892857Y-37908928D02*
X60750000Y-37837500D01*
X60750000Y-37837500D02*
X60678571Y-37766071D01*
X62178571Y-36551785D02*
X62249999Y-36480357D01*
X62249999Y-36480357D02*
X62392857Y-36408928D01*
X62392857Y-36408928D02*
X62749999Y-36408928D01*
X62749999Y-36408928D02*
X62892857Y-36480357D01*
X62892857Y-36480357D02*
X62964285Y-36551785D01*
X62964285Y-36551785D02*
X63035714Y-36694642D01*
X63035714Y-36694642D02*
X63035714Y-36837500D01*
X63035714Y-36837500D02*
X62964285Y-37051785D01*
X62964285Y-37051785D02*
X62107142Y-37908928D01*
X62107142Y-37908928D02*
X63035714Y-37908928D01*
X64464285Y-37908928D02*
X63607142Y-37908928D01*
X64035713Y-37908928D02*
X64035713Y-36408928D01*
X64035713Y-36408928D02*
X63892856Y-36623214D01*
X63892856Y-36623214D02*
X63749999Y-36766071D01*
X63749999Y-36766071D02*
X63607142Y-36837500D01*
D10*
X3633333Y23837381D02*
X3300000Y24313572D01*
X3061905Y23837381D02*
X3061905Y24837381D01*
X3061905Y24837381D02*
X3442857Y24837381D01*
X3442857Y24837381D02*
X3538095Y24789762D01*
X3538095Y24789762D02*
X3585714Y24742143D01*
X3585714Y24742143D02*
X3633333Y24646905D01*
X3633333Y24646905D02*
X3633333Y24504048D01*
X3633333Y24504048D02*
X3585714Y24408810D01*
X3585714Y24408810D02*
X3538095Y24361191D01*
X3538095Y24361191D02*
X3442857Y24313572D01*
X3442857Y24313572D02*
X3061905Y24313572D01*
X4490476Y24504048D02*
X4490476Y23837381D01*
X4252381Y24885000D02*
X4014286Y24170715D01*
X4014286Y24170715D02*
X4633333Y24170715D01*
X1093333Y23837381D02*
X760000Y24313572D01*
X521905Y23837381D02*
X521905Y24837381D01*
X521905Y24837381D02*
X902857Y24837381D01*
X902857Y24837381D02*
X998095Y24789762D01*
X998095Y24789762D02*
X1045714Y24742143D01*
X1045714Y24742143D02*
X1093333Y24646905D01*
X1093333Y24646905D02*
X1093333Y24504048D01*
X1093333Y24504048D02*
X1045714Y24408810D01*
X1045714Y24408810D02*
X998095Y24361191D01*
X998095Y24361191D02*
X902857Y24313572D01*
X902857Y24313572D02*
X521905Y24313572D01*
X1426667Y24837381D02*
X2045714Y24837381D01*
X2045714Y24837381D02*
X1712381Y24456429D01*
X1712381Y24456429D02*
X1855238Y24456429D01*
X1855238Y24456429D02*
X1950476Y24408810D01*
X1950476Y24408810D02*
X1998095Y24361191D01*
X1998095Y24361191D02*
X2045714Y24265953D01*
X2045714Y24265953D02*
X2045714Y24027858D01*
X2045714Y24027858D02*
X1998095Y23932620D01*
X1998095Y23932620D02*
X1950476Y23885000D01*
X1950476Y23885000D02*
X1855238Y23837381D01*
X1855238Y23837381D02*
X1569524Y23837381D01*
X1569524Y23837381D02*
X1474286Y23885000D01*
X1474286Y23885000D02*
X1426667Y23932620D01*
D11*
X55864285Y-29393928D02*
X55149999Y-29393928D01*
X55149999Y-29393928D02*
X55149999Y-27893928D01*
X56935714Y-29322500D02*
X56792857Y-29393928D01*
X56792857Y-29393928D02*
X56507143Y-29393928D01*
X56507143Y-29393928D02*
X56364285Y-29322500D01*
X56364285Y-29322500D02*
X56292857Y-29179642D01*
X56292857Y-29179642D02*
X56292857Y-28608214D01*
X56292857Y-28608214D02*
X56364285Y-28465357D01*
X56364285Y-28465357D02*
X56507143Y-28393928D01*
X56507143Y-28393928D02*
X56792857Y-28393928D01*
X56792857Y-28393928D02*
X56935714Y-28465357D01*
X56935714Y-28465357D02*
X57007143Y-28608214D01*
X57007143Y-28608214D02*
X57007143Y-28751071D01*
X57007143Y-28751071D02*
X56292857Y-28893928D01*
X57435714Y-28393928D02*
X58007142Y-28393928D01*
X57649999Y-29393928D02*
X57649999Y-28108214D01*
X57649999Y-28108214D02*
X57721428Y-27965357D01*
X57721428Y-27965357D02*
X57864285Y-27893928D01*
X57864285Y-27893928D02*
X58007142Y-27893928D01*
X58292857Y-28393928D02*
X58864285Y-28393928D01*
X58507142Y-27893928D02*
X58507142Y-29179642D01*
X58507142Y-29179642D02*
X58578571Y-29322500D01*
X58578571Y-29322500D02*
X58721428Y-29393928D01*
X58721428Y-29393928D02*
X58864285Y-29393928D01*
D10*
%TO.C,SW17*%
X16700000Y16400000D02*
X16700000Y15682000D01*
X16700000Y15682000D02*
X16700000Y15682000D01*
X16700000Y12380000D02*
X16700000Y11800000D01*
X16725000Y16425000D02*
X19275000Y16425000D01*
X16725000Y11775000D02*
X21275000Y11775000D01*
X21280000Y12500000D02*
X21280000Y11800000D01*
X21575000Y18625000D02*
X26275000Y18625000D01*
X22500000Y13975000D02*
X26275000Y13975000D01*
X26275000Y18625000D02*
X26275000Y17968000D01*
X26275000Y14666000D02*
X26275000Y13975000D01*
X22500000Y13970000D02*
G75*
G03*
X21280000Y12550000I100000J-1320000D01*
G01*
X19200000Y16430001D02*
G75*
G03*
X21569999Y18600000I100000J2269999D01*
G01*
%TO.C,SW29*%
X16700000Y-1600000D02*
X16700000Y-2318000D01*
X16700000Y-2318000D02*
X16700000Y-2318000D01*
X16700000Y-5620000D02*
X16700000Y-6200000D01*
X16725000Y-1575000D02*
X19275000Y-1575000D01*
X16725000Y-6225000D02*
X21275000Y-6225000D01*
X21280000Y-5500000D02*
X21280000Y-6200000D01*
X21575000Y625000D02*
X26275000Y625000D01*
X22500000Y-4025000D02*
X26275000Y-4025000D01*
X26275000Y625000D02*
X26275000Y-32000D01*
X26275000Y-3334000D02*
X26275000Y-4025000D01*
X22500000Y-4030000D02*
G75*
G03*
X21280000Y-5450000I100000J-1320000D01*
G01*
X19200000Y-1569999D02*
G75*
G03*
X21569999Y600000I100000J2269999D01*
G01*
%TO.C,D27*%
X54300000Y7250000D02*
X54300000Y5750000D01*
X54300000Y5750000D02*
X59700000Y5750000D01*
X56500000Y7000000D02*
X56500000Y6000000D01*
X56600000Y6500000D02*
X57500000Y7000000D01*
X57500000Y7000000D02*
X57500000Y6000000D01*
X57500000Y6000000D02*
X56600000Y6500000D01*
X59700000Y7250000D02*
X54300000Y7250000D01*
X59700000Y7250000D02*
X59700000Y5750000D01*
%TO.C,D18*%
X-2700000Y23250000D02*
X-2700000Y21750000D01*
X-2700000Y21750000D02*
X2700000Y21750000D01*
X-500000Y23000000D02*
X-500000Y22000000D01*
X-400000Y22500000D02*
X500000Y23000000D01*
X500000Y23000000D02*
X500000Y22000000D01*
X500000Y22000000D02*
X-400000Y22500000D01*
X2700000Y23250000D02*
X-2700000Y23250000D01*
X2700000Y23250000D02*
X2700000Y21750000D01*
%TO.C,SW15*%
X54700000Y16400000D02*
X54700000Y15682000D01*
X54700000Y15682000D02*
X54700000Y15682000D01*
X54700000Y12380000D02*
X54700000Y11800000D01*
X54725000Y16425000D02*
X57275000Y16425000D01*
X54725000Y11775000D02*
X59275000Y11775000D01*
X59280000Y12500000D02*
X59280000Y11800000D01*
X59575000Y18625000D02*
X64275000Y18625000D01*
X60500000Y13975000D02*
X64275000Y13975000D01*
X64275000Y18625000D02*
X64275000Y17968000D01*
X64275000Y14666000D02*
X64275000Y13975000D01*
X60500000Y13970000D02*
G75*
G03*
X59280000Y12550000I100000J-1320000D01*
G01*
X57200000Y16430001D02*
G75*
G03*
X59569999Y18600000I100000J2269999D01*
G01*
%TO.C,D15*%
X54300000Y25250000D02*
X54300000Y23750000D01*
X54300000Y23750000D02*
X59700000Y23750000D01*
X56500000Y25000000D02*
X56500000Y24000000D01*
X56600000Y24500000D02*
X57500000Y25000000D01*
X57500000Y25000000D02*
X57500000Y24000000D01*
X57500000Y24000000D02*
X56600000Y24500000D01*
X59700000Y25250000D02*
X54300000Y25250000D01*
X59700000Y25250000D02*
X59700000Y23750000D01*
%TO.C,D37*%
X92300000Y-24250000D02*
X92300000Y-25750000D01*
X92300000Y-25750000D02*
X97700000Y-25750000D01*
X94500000Y-24500000D02*
X94500000Y-25500000D01*
X94600000Y-25000000D02*
X95500000Y-24500000D01*
X95500000Y-24500000D02*
X95500000Y-25500000D01*
X95500000Y-25500000D02*
X94600000Y-25000000D01*
X97700000Y-24250000D02*
X92300000Y-24250000D01*
X97700000Y-24250000D02*
X97700000Y-25750000D01*
%TO.C,D52*%
X25800000Y-30750000D02*
X25800000Y-32250000D01*
X25800000Y-32250000D02*
X31200000Y-32250000D01*
X28000000Y-31000000D02*
X28000000Y-32000000D01*
X28100000Y-31500000D02*
X29000000Y-31000000D01*
X29000000Y-31000000D02*
X29000000Y-32000000D01*
X29000000Y-32000000D02*
X28100000Y-31500000D01*
X31200000Y-30750000D02*
X25800000Y-30750000D01*
X31200000Y-30750000D02*
X31200000Y-32250000D01*
%TO.C,D16*%
X35300000Y28250000D02*
X35300000Y26750000D01*
X35300000Y26750000D02*
X40700000Y26750000D01*
X37500000Y28000000D02*
X37500000Y27000000D01*
X37600000Y27500000D02*
X38500000Y28000000D01*
X38500000Y28000000D02*
X38500000Y27000000D01*
X38500000Y27000000D02*
X37600000Y27500000D01*
X40700000Y28250000D02*
X35300000Y28250000D01*
X40700000Y28250000D02*
X40700000Y26750000D01*
%TO.C,SW26*%
X73700000Y-10600000D02*
X73700000Y-11318000D01*
X73700000Y-11318000D02*
X73700000Y-11318000D01*
X73700000Y-14620000D02*
X73700000Y-15200000D01*
X73725000Y-10575000D02*
X76275000Y-10575000D01*
X73725000Y-15225000D02*
X78275000Y-15225000D01*
X78280000Y-14500000D02*
X78280000Y-15200000D01*
X78575000Y-8375000D02*
X83275000Y-8375000D01*
X79500000Y-13025000D02*
X83275000Y-13025000D01*
X83275000Y-8375000D02*
X83275000Y-9032000D01*
X83275000Y-12334000D02*
X83275000Y-13025000D01*
X79500000Y-13030000D02*
G75*
G03*
X78280000Y-14450000I100000J-1320000D01*
G01*
X76200000Y-10569999D02*
G75*
G03*
X78569999Y-8400000I100000J2269999D01*
G01*
%TO.C,SW38*%
X73700000Y-28600000D02*
X73700000Y-29318000D01*
X73700000Y-29318000D02*
X73700000Y-29318000D01*
X73700000Y-32620000D02*
X73700000Y-33200000D01*
X73725000Y-28575000D02*
X76275000Y-28575000D01*
X73725000Y-33225000D02*
X78275000Y-33225000D01*
X78280000Y-32500000D02*
X78280000Y-33200000D01*
X78575000Y-26375000D02*
X83275000Y-26375000D01*
X79500000Y-31025000D02*
X83275000Y-31025000D01*
X83275000Y-26375000D02*
X83275000Y-27032000D01*
X83275000Y-30334000D02*
X83275000Y-31025000D01*
X79500000Y-31030000D02*
G75*
G03*
X78280000Y-32450000I100000J-1320000D01*
G01*
X76200000Y-28569999D02*
G75*
G03*
X78569999Y-26400000I100000J2269999D01*
G01*
%TO.C,D54*%
X-15593685Y-34918685D02*
X-15080655Y-36328224D01*
X-15080655Y-36328224D02*
X-10006315Y-34481315D01*
X-13440856Y-34401164D02*
X-13098836Y-35340856D01*
X-13175877Y-34836808D02*
X-12501164Y-34059144D01*
X-12501164Y-34059144D02*
X-12159144Y-34998836D01*
X-12159144Y-34998836D02*
X-13175877Y-34836808D01*
X-10519345Y-33071776D02*
X-15593685Y-34918685D01*
X-10519345Y-33071776D02*
X-10006315Y-34481315D01*
%TO.C,SW27*%
X54700000Y-1600000D02*
X54700000Y-2318000D01*
X54700000Y-2318000D02*
X54700000Y-2318000D01*
X54700000Y-5620000D02*
X54700000Y-6200000D01*
X54725000Y-1575000D02*
X57275000Y-1575000D01*
X54725000Y-6225000D02*
X59275000Y-6225000D01*
X59280000Y-5500000D02*
X59280000Y-6200000D01*
X59575000Y625000D02*
X64275000Y625000D01*
X60500000Y-4025000D02*
X64275000Y-4025000D01*
X64275000Y625000D02*
X64275000Y-32000D01*
X64275000Y-3334000D02*
X64275000Y-4025000D01*
X60500000Y-4030000D02*
G75*
G03*
X59280000Y-5450000I100000J-1320000D01*
G01*
X57200000Y-1569999D02*
G75*
G03*
X59569999Y600000I100000J2269999D01*
G01*
%TO.C,D53*%
X6800000Y-30750000D02*
X6800000Y-32250000D01*
X6800000Y-32250000D02*
X12200000Y-32250000D01*
X9000000Y-31000000D02*
X9000000Y-32000000D01*
X9100000Y-31500000D02*
X10000000Y-31000000D01*
X10000000Y-31000000D02*
X10000000Y-32000000D01*
X10000000Y-32000000D02*
X9100000Y-31500000D01*
X12200000Y-30750000D02*
X6800000Y-30750000D01*
X12200000Y-30750000D02*
X12200000Y-32250000D01*
%TO.C,D39*%
X54300000Y-10750000D02*
X54300000Y-12250000D01*
X54300000Y-12250000D02*
X59700000Y-12250000D01*
X56500000Y-11000000D02*
X56500000Y-12000000D01*
X56600000Y-11500000D02*
X57500000Y-11000000D01*
X57500000Y-11000000D02*
X57500000Y-12000000D01*
X57500000Y-12000000D02*
X56600000Y-11500000D01*
X59700000Y-10750000D02*
X54300000Y-10750000D01*
X59700000Y-10750000D02*
X59700000Y-12250000D01*
%TO.C,SW52*%
X26200000Y-39600000D02*
X26200000Y-40318000D01*
X26200000Y-40318000D02*
X26200000Y-40318000D01*
X26200000Y-43620000D02*
X26200000Y-44200000D01*
X26225000Y-39575000D02*
X28775000Y-39575000D01*
X26225000Y-44225000D02*
X30775000Y-44225000D01*
X30780000Y-43500000D02*
X30780000Y-44200000D01*
X31075000Y-37375000D02*
X35775000Y-37375000D01*
X32000000Y-42025000D02*
X35775000Y-42025000D01*
X35775000Y-37375000D02*
X35775000Y-38032000D01*
X35775000Y-41334000D02*
X35775000Y-42025000D01*
X32000000Y-42030000D02*
G75*
G03*
X30780000Y-43450000I100000J-1320000D01*
G01*
X28700000Y-39569999D02*
G75*
G03*
X31069999Y-37400000I100000J2269999D01*
G01*
%TO.C,D42*%
X-2700000Y-12750000D02*
X-2700000Y-14250000D01*
X-2700000Y-14250000D02*
X2700000Y-14250000D01*
X-500000Y-13000000D02*
X-500000Y-14000000D01*
X-400000Y-13500000D02*
X500000Y-13000000D01*
X500000Y-13000000D02*
X500000Y-14000000D01*
X500000Y-14000000D02*
X-400000Y-13500000D01*
X2700000Y-12750000D02*
X-2700000Y-12750000D01*
X2700000Y-12750000D02*
X2700000Y-14250000D01*
%TO.C,D30*%
X-2700000Y5250000D02*
X-2700000Y3750000D01*
X-2700000Y3750000D02*
X2700000Y3750000D01*
X-500000Y5000000D02*
X-500000Y4000000D01*
X-400000Y4500000D02*
X500000Y5000000D01*
X500000Y5000000D02*
X500000Y4000000D01*
X500000Y4000000D02*
X-400000Y4500000D01*
X2700000Y5250000D02*
X-2700000Y5250000D01*
X2700000Y5250000D02*
X2700000Y3750000D01*
%TO.C,SW13*%
X92700000Y2900000D02*
X92700000Y2182000D01*
X92700000Y2182000D02*
X92700000Y2182000D01*
X92700000Y-1120000D02*
X92700000Y-1700000D01*
X92725000Y2925000D02*
X95275000Y2925000D01*
X92725000Y-1725000D02*
X97275000Y-1725000D01*
X97280000Y-1000000D02*
X97280000Y-1700000D01*
X97575000Y5125000D02*
X102275000Y5125000D01*
X98500000Y475000D02*
X102275000Y475000D01*
X102275000Y5125000D02*
X102275000Y4468000D01*
X102275000Y1166000D02*
X102275000Y475000D01*
X98500000Y470000D02*
G75*
G03*
X97280000Y-950000I100000J-1320000D01*
G01*
X95200000Y2930001D02*
G75*
G03*
X97569999Y5100000I100000J2269999D01*
G01*
%TO.C,D28*%
X35300000Y10250000D02*
X35300000Y8750000D01*
X35300000Y8750000D02*
X40700000Y8750000D01*
X37500000Y10000000D02*
X37500000Y9000000D01*
X37600000Y9500000D02*
X38500000Y10000000D01*
X38500000Y10000000D02*
X38500000Y9000000D01*
X38500000Y9000000D02*
X37600000Y9500000D01*
X40700000Y10250000D02*
X35300000Y10250000D01*
X40700000Y10250000D02*
X40700000Y8750000D01*
%TO.C,SW28*%
X35700000Y1400000D02*
X35700000Y682000D01*
X35700000Y682000D02*
X35700000Y682000D01*
X35700000Y-2620000D02*
X35700000Y-3200000D01*
X35725000Y1425000D02*
X38275000Y1425000D01*
X35725000Y-3225000D02*
X40275000Y-3225000D01*
X40280000Y-2500000D02*
X40280000Y-3200000D01*
X40575000Y3625000D02*
X45275000Y3625000D01*
X41500000Y-1025000D02*
X45275000Y-1025000D01*
X45275000Y3625000D02*
X45275000Y2968000D01*
X45275000Y-334000D02*
X45275000Y-1025000D01*
X41500000Y-1030000D02*
G75*
G03*
X40280000Y-2450000I100000J-1320000D01*
G01*
X38200000Y1430001D02*
G75*
G03*
X40569999Y3600000I100000J2269999D01*
G01*
%TO.C,D13*%
X92300000Y11750000D02*
X92300000Y10250000D01*
X92300000Y10250000D02*
X97700000Y10250000D01*
X94500000Y11500000D02*
X94500000Y10500000D01*
X94600000Y11000000D02*
X95500000Y11500000D01*
X95500000Y11500000D02*
X95500000Y10500000D01*
X95500000Y10500000D02*
X94600000Y11000000D01*
X97700000Y11750000D02*
X92300000Y11750000D01*
X97700000Y11750000D02*
X97700000Y10250000D01*
%TO.C,SW42*%
X-2300000Y-21600000D02*
X-2300000Y-22318000D01*
X-2300000Y-22318000D02*
X-2300000Y-22318000D01*
X-2300000Y-25620000D02*
X-2300000Y-26200000D01*
X-2275000Y-21575000D02*
X275000Y-21575000D01*
X-2275000Y-26225000D02*
X2275000Y-26225000D01*
X2280000Y-25500000D02*
X2280000Y-26200000D01*
X2575000Y-19375000D02*
X7275000Y-19375000D01*
X3500000Y-24025000D02*
X7275000Y-24025000D01*
X7275000Y-19375000D02*
X7275000Y-20032000D01*
X7275000Y-23334000D02*
X7275000Y-24025000D01*
X3500000Y-24030000D02*
G75*
G03*
X2280000Y-25450000I100000J-1320000D01*
G01*
X200000Y-21569999D02*
G75*
G03*
X2569999Y-19400000I100000J2269999D01*
G01*
%TO.C,SW14*%
X73700000Y7400000D02*
X73700000Y6682000D01*
X73700000Y6682000D02*
X73700000Y6682000D01*
X73700000Y3380000D02*
X73700000Y2800000D01*
X73725000Y7425000D02*
X76275000Y7425000D01*
X73725000Y2775000D02*
X78275000Y2775000D01*
X78280000Y3500000D02*
X78280000Y2800000D01*
X78575000Y9625000D02*
X83275000Y9625000D01*
X79500000Y4975000D02*
X83275000Y4975000D01*
X83275000Y9625000D02*
X83275000Y8968000D01*
X83275000Y5666000D02*
X83275000Y4975000D01*
X79500000Y4970000D02*
G75*
G03*
X78280000Y3550000I100000J-1320000D01*
G01*
X76200000Y7430001D02*
G75*
G03*
X78569999Y9600000I100000J2269999D01*
G01*
%TO.C,SW30*%
X-2300000Y-3600000D02*
X-2300000Y-4318000D01*
X-2300000Y-4318000D02*
X-2300000Y-4318000D01*
X-2300000Y-7620000D02*
X-2300000Y-8200000D01*
X-2275000Y-3575000D02*
X275000Y-3575000D01*
X-2275000Y-8225000D02*
X2275000Y-8225000D01*
X2280000Y-7500000D02*
X2280000Y-8200000D01*
X2575000Y-1375000D02*
X7275000Y-1375000D01*
X3500000Y-6025000D02*
X7275000Y-6025000D01*
X7275000Y-1375000D02*
X7275000Y-2032000D01*
X7275000Y-5334000D02*
X7275000Y-6025000D01*
X3500000Y-6030000D02*
G75*
G03*
X2280000Y-7450000I100000J-1320000D01*
G01*
X200000Y-3569999D02*
G75*
G03*
X2569999Y-1400000I100000J2269999D01*
G01*
D12*
%TO.C,J1*%
X5080000Y28365000D02*
X5080000Y29000000D01*
X-3810000Y25000000D02*
X-5080000Y25000000D01*
X-5080000Y25000000D02*
X-5080000Y29000000D01*
D10*
%TO.C,D26*%
X73300000Y-1750000D02*
X73300000Y-3250000D01*
X73300000Y-3250000D02*
X78700000Y-3250000D01*
X75500000Y-2000000D02*
X75500000Y-3000000D01*
X75600000Y-2500000D02*
X76500000Y-2000000D01*
X76500000Y-2000000D02*
X76500000Y-3000000D01*
X76500000Y-3000000D02*
X75600000Y-2500000D01*
X78700000Y-1750000D02*
X73300000Y-1750000D01*
X78700000Y-1750000D02*
X78700000Y-3250000D01*
%TO.C,SW53*%
X7199996Y-39600000D02*
X7199996Y-40318000D01*
X7199996Y-40318000D02*
X7199996Y-40318000D01*
X7199996Y-43620000D02*
X7199996Y-44200000D01*
X7224996Y-39575000D02*
X9774996Y-39575000D01*
X7224996Y-44225000D02*
X11774996Y-44225000D01*
X11779996Y-43500000D02*
X11779996Y-44200000D01*
X12074996Y-37375000D02*
X16774996Y-37375000D01*
X12999996Y-42025000D02*
X16774996Y-42025000D01*
X16774996Y-37375000D02*
X16774996Y-38032000D01*
X16774996Y-41334000D02*
X16774996Y-42025000D01*
X12999996Y-42030000D02*
G75*
G03*
X11779996Y-43450000I100000J-1320000D01*
G01*
X9699996Y-39569999D02*
G75*
G03*
X12069995Y-37400000I100000J2269999D01*
G01*
%TO.C,SW18*%
X-2300000Y14400000D02*
X-2300000Y13682000D01*
X-2300000Y13682000D02*
X-2300000Y13682000D01*
X-2300000Y10380000D02*
X-2300000Y9800000D01*
X-2275000Y14425000D02*
X275000Y14425000D01*
X-2275000Y9775000D02*
X2275000Y9775000D01*
X2280000Y10500000D02*
X2280000Y9800000D01*
X2575000Y16625000D02*
X7275000Y16625000D01*
X3500000Y11975000D02*
X7275000Y11975000D01*
X7275000Y16625000D02*
X7275000Y15968000D01*
X7275000Y12666000D02*
X7275000Y11975000D01*
X3500000Y11970000D02*
G75*
G03*
X2280000Y10550000I100000J-1320000D01*
G01*
X200000Y14430001D02*
G75*
G03*
X2569999Y16600000I100000J2269999D01*
G01*
%TO.C,SW40*%
X35700000Y-16600000D02*
X35700000Y-17318000D01*
X35700000Y-17318000D02*
X35700000Y-17318000D01*
X35700000Y-20620000D02*
X35700000Y-21200000D01*
X35725000Y-16575000D02*
X38275000Y-16575000D01*
X35725000Y-21225000D02*
X40275000Y-21225000D01*
X40280000Y-20500000D02*
X40280000Y-21200000D01*
X40575000Y-14375000D02*
X45275000Y-14375000D01*
X41500000Y-19025000D02*
X45275000Y-19025000D01*
X45275000Y-14375000D02*
X45275000Y-15032000D01*
X45275000Y-18334000D02*
X45275000Y-19025000D01*
X41500000Y-19030000D02*
G75*
G03*
X40280000Y-20450000I100000J-1320000D01*
G01*
X38200000Y-16569999D02*
G75*
G03*
X40569999Y-14400000I100000J2269999D01*
G01*
%TO.C,SW41*%
X16700000Y-19600000D02*
X16700000Y-20318000D01*
X16700000Y-20318000D02*
X16700000Y-20318000D01*
X16700000Y-23620000D02*
X16700000Y-24200000D01*
X16725000Y-19575000D02*
X19275000Y-19575000D01*
X16725000Y-24225000D02*
X21275000Y-24225000D01*
X21280000Y-23500000D02*
X21280000Y-24200000D01*
X21575000Y-17375000D02*
X26275000Y-17375000D01*
X22500000Y-22025000D02*
X26275000Y-22025000D01*
X26275000Y-17375000D02*
X26275000Y-18032000D01*
X26275000Y-21334000D02*
X26275000Y-22025000D01*
X22500000Y-22030000D02*
G75*
G03*
X21280000Y-23450000I100000J-1320000D01*
G01*
X19200000Y-19569999D02*
G75*
G03*
X21569999Y-17400000I100000J2269999D01*
G01*
%TO.C,D14*%
X73300000Y16250000D02*
X73300000Y14750000D01*
X73300000Y14750000D02*
X78700000Y14750000D01*
X75500000Y16000000D02*
X75500000Y15000000D01*
X75600000Y15500000D02*
X76500000Y16000000D01*
X76500000Y16000000D02*
X76500000Y15000000D01*
X76500000Y15000000D02*
X75600000Y15500000D01*
X78700000Y16250000D02*
X73300000Y16250000D01*
X78700000Y16250000D02*
X78700000Y14750000D01*
%TO.C,D17*%
X16300000Y25250000D02*
X16300000Y23750000D01*
X16300000Y23750000D02*
X21700000Y23750000D01*
X18500000Y25000000D02*
X18500000Y24000000D01*
X18600000Y24500000D02*
X19500000Y25000000D01*
X19500000Y25000000D02*
X19500000Y24000000D01*
X19500000Y24000000D02*
X18600000Y24500000D01*
X21700000Y25250000D02*
X16300000Y25250000D01*
X21700000Y25250000D02*
X21700000Y23750000D01*
%TO.C,SW39*%
X54700000Y-19600000D02*
X54700000Y-20318000D01*
X54700000Y-20318000D02*
X54700000Y-20318000D01*
X54700000Y-23620000D02*
X54700000Y-24200000D01*
X54725000Y-19575000D02*
X57275000Y-19575000D01*
X54725000Y-24225000D02*
X59275000Y-24225000D01*
X59280000Y-23500000D02*
X59280000Y-24200000D01*
X59575000Y-17375000D02*
X64275000Y-17375000D01*
X60500000Y-22025000D02*
X64275000Y-22025000D01*
X64275000Y-17375000D02*
X64275000Y-18032000D01*
X64275000Y-21334000D02*
X64275000Y-22025000D01*
X60500000Y-22030000D02*
G75*
G03*
X59280000Y-23450000I100000J-1320000D01*
G01*
X57200000Y-19569999D02*
G75*
G03*
X59569999Y-17400000I100000J2269999D01*
G01*
%TO.C,D40*%
X35300000Y-7750000D02*
X35300000Y-9250000D01*
X35300000Y-9250000D02*
X40700000Y-9250000D01*
X37500000Y-8000000D02*
X37500000Y-9000000D01*
X37600000Y-8500000D02*
X38500000Y-8000000D01*
X38500000Y-8000000D02*
X38500000Y-9000000D01*
X38500000Y-9000000D02*
X37600000Y-8500000D01*
X40700000Y-7750000D02*
X35300000Y-7750000D01*
X40700000Y-7750000D02*
X40700000Y-9250000D01*
%TO.C,SW25*%
X92700000Y-15100000D02*
X92700000Y-15818000D01*
X92700000Y-15818000D02*
X92700000Y-15818000D01*
X92700000Y-19120000D02*
X92700000Y-19700000D01*
X92725000Y-15075000D02*
X95275000Y-15075000D01*
X92725000Y-19725000D02*
X97275000Y-19725000D01*
X97280000Y-19000000D02*
X97280000Y-19700000D01*
X97575000Y-12875000D02*
X102275000Y-12875000D01*
X98500000Y-17525000D02*
X102275000Y-17525000D01*
X102275000Y-12875000D02*
X102275000Y-13532000D01*
X102275000Y-16834000D02*
X102275000Y-17525000D01*
X98500000Y-17530000D02*
G75*
G03*
X97280000Y-18950000I100000J-1320000D01*
G01*
X95200000Y-15069999D02*
G75*
G03*
X97569999Y-12900000I100000J2269999D01*
G01*
%TO.C,D29*%
X16300000Y7250000D02*
X16300000Y5750000D01*
X16300000Y5750000D02*
X21700000Y5750000D01*
X18500000Y7000000D02*
X18500000Y6000000D01*
X18600000Y6500000D02*
X19500000Y7000000D01*
X19500000Y7000000D02*
X19500000Y6000000D01*
X19500000Y6000000D02*
X18600000Y6500000D01*
X21700000Y7250000D02*
X16300000Y7250000D01*
X21700000Y7250000D02*
X21700000Y5750000D01*
%TO.C,D25*%
X92300000Y-6250000D02*
X92300000Y-7750000D01*
X92300000Y-7750000D02*
X97700000Y-7750000D01*
X94500000Y-6500000D02*
X94500000Y-7500000D01*
X94600000Y-7000000D02*
X95500000Y-6500000D01*
X95500000Y-6500000D02*
X95500000Y-7500000D01*
X95500000Y-7500000D02*
X94600000Y-7000000D01*
X97700000Y-6250000D02*
X92300000Y-6250000D01*
X97700000Y-6250000D02*
X97700000Y-7750000D01*
%TO.C,SW16*%
X35700000Y19400000D02*
X35700000Y18682000D01*
X35700000Y18682000D02*
X35700000Y18682000D01*
X35700000Y15380000D02*
X35700000Y14800000D01*
X35725000Y19425000D02*
X38275000Y19425000D01*
X35725000Y14775000D02*
X40275000Y14775000D01*
X40280000Y15500000D02*
X40280000Y14800000D01*
X40575000Y21625000D02*
X45275000Y21625000D01*
X41500000Y16975000D02*
X45275000Y16975000D01*
X45275000Y21625000D02*
X45275000Y20968000D01*
X45275000Y17666000D02*
X45275000Y16975000D01*
X41500000Y16970000D02*
G75*
G03*
X40280000Y15550000I100000J-1320000D01*
G01*
X38200000Y19430001D02*
G75*
G03*
X40569999Y21600000I100000J2269999D01*
G01*
%TO.C,SW54*%
X-12930025Y-43961540D02*
X-12684454Y-44636239D01*
X-12684454Y-44636239D02*
X-12684454Y-44636239D01*
X-11555104Y-47739104D02*
X-11356732Y-48284126D01*
X-12915083Y-43929497D02*
X-10518867Y-43057346D01*
X-11324689Y-48299068D02*
X-7049088Y-46742876D01*
X-7292354Y-46059889D02*
X-7052940Y-46717674D01*
X-9110018Y-40203375D02*
X-4693462Y-38595881D01*
X-6650408Y-44256578D02*
X-3103069Y-42965451D01*
X-4693462Y-38595881D02*
X-4468755Y-39213259D01*
X-3339405Y-42316124D02*
X-3103069Y-42965451D01*
X-6648698Y-44261276D02*
G75*
G03*
X-7309455Y-46012904I545435J-1206192D01*
G01*
X-10591054Y-43078298D02*
G75*
G03*
X-9106166Y-40228578I-682416J2167304D01*
G01*
%TO.C,SW37*%
X92700000Y-33100000D02*
X92700000Y-33818000D01*
X92700000Y-33818000D02*
X92700000Y-33818000D01*
X92700000Y-37120000D02*
X92700000Y-37700000D01*
X92725000Y-33075000D02*
X95275000Y-33075000D01*
X92725000Y-37725000D02*
X97275000Y-37725000D01*
X97280000Y-37000000D02*
X97280000Y-37700000D01*
X97575000Y-30875000D02*
X102275000Y-30875000D01*
X98500000Y-35525000D02*
X102275000Y-35525000D01*
X102275000Y-30875000D02*
X102275000Y-31532000D01*
X102275000Y-34834000D02*
X102275000Y-35525000D01*
X98500000Y-35530000D02*
G75*
G03*
X97280000Y-36950000I100000J-1320000D01*
G01*
X95200000Y-33069999D02*
G75*
G03*
X97569999Y-30900000I100000J2269999D01*
G01*
%TO.C,D38*%
X73300000Y-19750000D02*
X73300000Y-21250000D01*
X73300000Y-21250000D02*
X78700000Y-21250000D01*
X75500000Y-20000000D02*
X75500000Y-21000000D01*
X75600000Y-20500000D02*
X76500000Y-20000000D01*
X76500000Y-20000000D02*
X76500000Y-21000000D01*
X76500000Y-21000000D02*
X75600000Y-20500000D01*
X78700000Y-19750000D02*
X73300000Y-19750000D01*
X78700000Y-19750000D02*
X78700000Y-21250000D01*
%TO.C,D41*%
X16300000Y-10750000D02*
X16300000Y-12250000D01*
X16300000Y-12250000D02*
X21700000Y-12250000D01*
X18500000Y-11000000D02*
X18500000Y-12000000D01*
X18600000Y-11500000D02*
X19500000Y-11000000D01*
X19500000Y-11000000D02*
X19500000Y-12000000D01*
X19500000Y-12000000D02*
X18600000Y-11500000D01*
X21700000Y-10750000D02*
X16300000Y-10750000D01*
X21700000Y-10750000D02*
X21700000Y-12250000D01*
%TD*%
%LPC*%
D13*
%TO.C,SW17*%
X24000000Y16300000D03*
D14*
X27255000Y16300000D03*
X15698000Y14100000D03*
%TD*%
D15*
%TO.C,H1*%
X38000000Y-25000000D03*
%TD*%
D13*
%TO.C,SW29*%
X24000000Y-1700000D03*
D14*
X27255000Y-1700000D03*
X15698000Y-3900000D03*
%TD*%
D16*
%TO.C,D27*%
X55225000Y6500000D03*
X58775000Y6500000D03*
%TD*%
%TO.C,D18*%
X-1775000Y22500000D03*
X1775000Y22500000D03*
%TD*%
D13*
%TO.C,SW15*%
X62000000Y16300000D03*
D14*
X65255000Y16300000D03*
X53698000Y14100000D03*
%TD*%
D16*
%TO.C,D15*%
X55225000Y24500000D03*
X58775000Y24500000D03*
%TD*%
%TO.C,D37*%
X93225000Y-25000000D03*
X96775000Y-25000000D03*
%TD*%
%TO.C,D52*%
X26725000Y-31500000D03*
X30275000Y-31500000D03*
%TD*%
%TO.C,D16*%
X36225000Y27500000D03*
X39775000Y27500000D03*
%TD*%
D13*
%TO.C,SW26*%
X81000000Y-10700000D03*
D14*
X84255000Y-10700000D03*
X72698000Y-12900000D03*
%TD*%
D13*
%TO.C,SW38*%
X81000000Y-28700000D03*
D14*
X84255000Y-28700000D03*
X72698000Y-30900000D03*
%TD*%
D17*
%TO.C,D54*%
X-14467954Y-35307086D03*
X-11132046Y-34092914D03*
%TD*%
D13*
%TO.C,SW27*%
X62000000Y-1700000D03*
D14*
X65255000Y-1700000D03*
X53698000Y-3900000D03*
%TD*%
D16*
%TO.C,D53*%
X7725000Y-31500000D03*
X11275000Y-31500000D03*
%TD*%
%TO.C,D39*%
X55225000Y-11500000D03*
X58775000Y-11500000D03*
%TD*%
D13*
%TO.C,SW52*%
X33500000Y-39700000D03*
D14*
X36755000Y-39700000D03*
X25198000Y-41900000D03*
%TD*%
D16*
%TO.C,D42*%
X-1775000Y-13500000D03*
X1775000Y-13500000D03*
%TD*%
%TO.C,D30*%
X-1775000Y4500000D03*
X1775000Y4500000D03*
%TD*%
D13*
%TO.C,SW13*%
X100000000Y2800000D03*
D14*
X103255000Y2800000D03*
X91698000Y600000D03*
%TD*%
D16*
%TO.C,D28*%
X36225000Y9500000D03*
X39775000Y9500000D03*
%TD*%
D13*
%TO.C,SW28*%
X43000000Y1300000D03*
D14*
X46255000Y1300000D03*
X34698000Y-900000D03*
%TD*%
D15*
%TO.C,H2*%
X82000000Y-38000000D03*
%TD*%
D16*
%TO.C,D13*%
X93225000Y11000000D03*
X96775000Y11000000D03*
%TD*%
D13*
%TO.C,SW42*%
X5000000Y-21700000D03*
D14*
X8255000Y-21700000D03*
X-3302000Y-23900000D03*
%TD*%
D13*
%TO.C,SW14*%
X81000000Y7300000D03*
D14*
X84255000Y7300000D03*
X72698000Y5100000D03*
%TD*%
D13*
%TO.C,SW30*%
X5000000Y-3700000D03*
D14*
X8255000Y-3700000D03*
X-3302000Y-5900000D03*
%TD*%
D15*
%TO.C,H3*%
X71000000Y23000000D03*
%TD*%
D18*
%TO.C,J1*%
X-3810000Y27222000D03*
D19*
X-1270000Y27349000D03*
X1270000Y27349000D03*
X3810000Y27349000D03*
%TD*%
D16*
%TO.C,D26*%
X74225000Y-2500000D03*
X77775000Y-2500000D03*
%TD*%
D13*
%TO.C,SW53*%
X14499996Y-39700000D03*
D14*
X17754996Y-39700000D03*
X6197996Y-41900000D03*
%TD*%
D15*
%TO.C,H4*%
X-9500000Y5000000D03*
%TD*%
D13*
%TO.C,SW18*%
X5000000Y14300000D03*
D14*
X8255000Y14300000D03*
X-3302000Y12100000D03*
%TD*%
D13*
%TO.C,SW40*%
X43000000Y-16700000D03*
D14*
X46255000Y-16700000D03*
X34698000Y-18900000D03*
%TD*%
D13*
%TO.C,SW41*%
X24000000Y-19700000D03*
D14*
X27255000Y-19700000D03*
X15698000Y-21900000D03*
%TD*%
D16*
%TO.C,D14*%
X74225000Y15500000D03*
X77775000Y15500000D03*
%TD*%
%TO.C,D17*%
X17225000Y24500000D03*
X20775000Y24500000D03*
%TD*%
D13*
%TO.C,SW39*%
X62000000Y-19700000D03*
D14*
X65255000Y-19700000D03*
X53698000Y-21900000D03*
%TD*%
D16*
%TO.C,D40*%
X36225000Y-8500000D03*
X39775000Y-8500000D03*
%TD*%
D13*
%TO.C,SW25*%
X100000000Y-15200000D03*
D14*
X103255000Y-15200000D03*
X91698000Y-17400000D03*
%TD*%
D16*
%TO.C,D29*%
X17225000Y6500000D03*
X20775000Y6500000D03*
%TD*%
%TO.C,D25*%
X93225000Y-7000000D03*
X96775000Y-7000000D03*
%TD*%
D13*
%TO.C,SW16*%
X43000000Y19300000D03*
D14*
X46255000Y19300000D03*
X34698000Y17100000D03*
%TD*%
D13*
%TO.C,SW54*%
X-6036066Y-41558762D03*
D20*
X-2977367Y-40445486D03*
X-13084950Y-46465537D03*
%TD*%
D13*
%TO.C,SW37*%
X100000000Y-33200000D03*
D14*
X103255000Y-33200000D03*
X91698000Y-35400000D03*
%TD*%
D16*
%TO.C,D38*%
X74225000Y-20500000D03*
X77775000Y-20500000D03*
%TD*%
%TO.C,D41*%
X17225000Y-11500000D03*
X20775000Y-11500000D03*
%TD*%
D21*
%TO.C,SW20*%
X24500000Y20000000D03*
D13*
X19000000Y14100000D03*
D15*
X19000000Y20000000D03*
D13*
X14000000Y16300000D03*
D21*
X13500000Y20000000D03*
%TD*%
%TO.C,SW22*%
X62500000Y20000000D03*
D13*
X57000000Y14100000D03*
D15*
X57000000Y20000000D03*
D13*
X52000000Y16300000D03*
D21*
X51500000Y20000000D03*
%TD*%
%TO.C,SW44*%
X24500000Y-16000000D03*
D13*
X19000000Y-21900000D03*
D15*
X19000000Y-16000000D03*
D13*
X14000000Y-19700000D03*
D21*
X13500000Y-16000000D03*
%TD*%
%TO.C,SW36*%
X100500000Y-11500000D03*
D13*
X95000000Y-17400000D03*
D15*
X95000000Y-11500000D03*
D13*
X90000000Y-15200000D03*
D21*
X89500000Y-11500000D03*
%TD*%
%TO.C,SW34*%
X62500000Y2000000D03*
D13*
X57000000Y-3900000D03*
D15*
X57000000Y2000000D03*
D13*
X52000000Y-1700000D03*
D21*
X51500000Y2000000D03*
%TD*%
%TO.C,SW55*%
X-17168313Y-41673111D03*
D13*
X-15432993Y-44978963D03*
D15*
X-12000004Y-39792000D03*
D13*
X-9982085Y-45336186D03*
D21*
X-6831695Y-37910889D03*
%TD*%
%TO.C,SW21*%
X43500000Y23000000D03*
D13*
X38000000Y17100000D03*
D15*
X38000000Y23000000D03*
D13*
X33000000Y19300000D03*
D21*
X32500000Y23000000D03*
%TD*%
%TO.C,SW19*%
X5500000Y18000000D03*
D13*
X0Y12100000D03*
D15*
X0Y18000000D03*
D13*
X-5000000Y14300000D03*
D21*
X-5500000Y18000000D03*
%TD*%
%TO.C,SW45*%
X43500000Y-13000000D03*
D13*
X38000000Y-18900000D03*
D15*
X38000000Y-13000000D03*
D13*
X33000000Y-16700000D03*
D21*
X32500000Y-13000000D03*
%TD*%
%TO.C,SW33*%
X43500000Y5000000D03*
D13*
X38000000Y-900000D03*
D15*
X38000000Y5000000D03*
D13*
X33000000Y1300000D03*
D21*
X32500000Y5000000D03*
%TD*%
%TO.C,SW24*%
X100500000Y6500000D03*
D13*
X95000000Y600000D03*
D15*
X95000000Y6500000D03*
D13*
X90000000Y2800000D03*
D21*
X89500000Y6500000D03*
%TD*%
%TO.C,SW47*%
X81500000Y-25000000D03*
D13*
X76000000Y-30900000D03*
D15*
X76000000Y-25000000D03*
D13*
X71000000Y-28700000D03*
D21*
X70500000Y-25000000D03*
%TD*%
%TO.C,SW32*%
X24500000Y2000000D03*
D13*
X19000000Y-3900000D03*
D15*
X19000000Y2000000D03*
D13*
X14000000Y-1700000D03*
D21*
X13500000Y2000000D03*
%TD*%
%TO.C,SW35*%
X81500000Y-7000000D03*
D13*
X76000000Y-12900000D03*
D15*
X76000000Y-7000000D03*
D13*
X71000000Y-10700000D03*
D21*
X70500000Y-7000000D03*
%TD*%
%TO.C,SW43*%
X5500000Y-18000000D03*
D13*
X0Y-23900000D03*
D15*
X0Y-18000000D03*
D13*
X-5000000Y-21700000D03*
D21*
X-5500000Y-18000000D03*
%TD*%
%TO.C,SW31*%
X5500000Y0D03*
D13*
X0Y-5900000D03*
D15*
X0Y0D03*
D13*
X-5000000Y-3700000D03*
D21*
X-5500000Y0D03*
%TD*%
%TO.C,SW23*%
X81500000Y11000000D03*
D13*
X76000000Y5100000D03*
D15*
X76000000Y11000000D03*
D13*
X71000000Y7300000D03*
D21*
X70500000Y11000000D03*
%TD*%
%TO.C,SW48*%
X100500000Y-29500000D03*
D13*
X95000000Y-35400000D03*
D15*
X95000000Y-29500000D03*
D13*
X90000000Y-33200000D03*
D21*
X89500000Y-29500000D03*
%TD*%
%TO.C,SW46*%
X62500000Y-16000000D03*
D13*
X57000000Y-21900000D03*
D15*
X57000000Y-16000000D03*
D13*
X52000000Y-19700000D03*
D21*
X51500000Y-16000000D03*
%TD*%
%TO.C,SW56*%
X14999996Y-36000000D03*
D13*
X9499996Y-41900000D03*
D15*
X9499996Y-36000000D03*
D13*
X4499996Y-39700000D03*
D21*
X3999996Y-36000000D03*
%TD*%
%TO.C,SW57*%
X34000000Y-36000000D03*
D13*
X28500000Y-41900000D03*
D15*
X28500000Y-36000000D03*
D13*
X23500000Y-39700000D03*
D21*
X23000000Y-36000000D03*
%TD*%
%LPD*%
M02*
