M48
; DRILL file {KiCad (6.0.5-0)} date 2022 June 17, Friday 01:41:15
; FORMAT={-:-/ absolute / metric / decimal}
; #@! TF.CreationDate,2022-06-17T01:41:15+08:00
; #@! TF.GenerationSoftware,Kicad,Pcbnew,(6.0.5-0)
; #@! TF.FileFunction,NonPlated,1,2,NPTH
FMAT,2
METRIC
; #@! TA.AperFunction,NonPlated,NPTH,ComponentDrill
T1C1.900
; #@! TA.AperFunction,NonPlated,NPTH,ComponentDrill
T2C2.500
; #@! TA.AperFunction,NonPlated,NPTH,ComponentDrill
T3C3.000
; #@! TA.AperFunction,NonPlated,NPTH,ComponentDrill
T4C4.000
%
G90
G05
T1
X-100.33Y0.0
X-100.33Y-19.05
X-100.33Y-38.1
X-100.33Y-57.15
X-100.33Y-76.2
X-100.33Y-95.25
X-90.17Y0.0
X-90.17Y-19.05
X-90.17Y-38.1
X-90.17Y-57.15
X-90.17Y-76.2
X-90.17Y-95.25
X-81.28Y0.0
X-81.28Y-19.05
X-81.28Y-38.1
X-81.28Y-57.15
X-81.28Y-76.2
X-81.28Y-95.25
X-71.12Y0.0
X-71.12Y-19.05
X-71.12Y-38.1
X-71.12Y-57.15
X-71.12Y-76.2
X-71.12Y-95.25
X-62.23Y0.0
X-62.23Y-19.05
X-62.23Y-38.1
X-62.23Y-57.15
X-62.23Y-76.2
X-62.23Y-95.25
X-52.07Y0.0
X-52.07Y-19.05
X-52.07Y-38.1
X-52.07Y-57.15
X-52.07Y-76.2
X-52.07Y-95.25
X-43.18Y0.0
X-43.18Y-19.05
X-43.18Y-38.1
X-43.18Y-57.15
X-43.18Y-76.2
X-43.18Y-95.25
X-33.02Y0.0
X-33.02Y-19.05
X-33.02Y-38.1
X-33.02Y-57.15
X-33.02Y-76.2
X-33.02Y-95.25
X-24.13Y0.0
X-24.13Y-19.05
X-24.13Y-38.1
X-24.13Y-57.15
X-24.13Y-76.2
X-24.13Y-95.25
X-13.97Y0.0
X-13.97Y-19.05
X-13.97Y-38.1
X-13.97Y-57.15
X-13.97Y-76.2
X-13.97Y-95.25
X-5.08Y0.0
X-5.08Y-19.05
X-5.08Y-38.1
X-5.08Y-57.15
X-5.08Y-76.2
X-5.08Y-95.25
X5.08Y0.0
X5.08Y-19.05
X5.08Y-38.1
X5.08Y-57.15
X5.08Y-76.2
X5.08Y-95.25
T2
X-85.725Y-9.525
X-85.725Y-85.725
X-47.625Y-47.625
X-9.525Y-9.525
X-9.525Y-85.725
T3
X-99.06Y2.54
X-99.06Y-16.51
X-99.06Y-35.56
X-99.06Y-54.61
X-99.06Y-73.66
X-99.06Y-92.71
X-92.71Y5.08
X-92.71Y-13.97
X-92.71Y-33.02
X-92.71Y-52.07
X-92.71Y-71.12
X-92.71Y-90.17
X-80.01Y2.54
X-80.01Y-16.51
X-80.01Y-35.56
X-80.01Y-54.61
X-80.01Y-73.66
X-80.01Y-92.71
X-73.66Y5.08
X-73.66Y-13.97
X-73.66Y-33.02
X-73.66Y-52.07
X-73.66Y-71.12
X-73.66Y-90.17
X-60.96Y2.54
X-60.96Y-16.51
X-60.96Y-35.56
X-60.96Y-54.61
X-60.96Y-73.66
X-60.96Y-92.71
X-54.61Y5.08
X-54.61Y-13.97
X-54.61Y-33.02
X-54.61Y-52.07
X-54.61Y-71.12
X-54.61Y-90.17
X-41.91Y2.54
X-41.91Y-16.51
X-41.91Y-35.56
X-41.91Y-54.61
X-41.91Y-73.66
X-41.91Y-92.71
X-35.56Y5.08
X-35.56Y-13.97
X-35.56Y-33.02
X-35.56Y-52.07
X-35.56Y-71.12
X-35.56Y-90.17
X-22.86Y2.54
X-22.86Y-16.51
X-22.86Y-35.56
X-22.86Y-54.61
X-22.86Y-73.66
X-22.86Y-92.71
X-16.51Y5.08
X-16.51Y-13.97
X-16.51Y-33.02
X-16.51Y-52.07
X-16.51Y-71.12
X-16.51Y-90.17
X-3.81Y2.54
X-3.81Y-16.51
X-3.81Y-35.56
X-3.81Y-54.61
X-3.81Y-73.66
X-3.81Y-92.71
X2.54Y5.08
X2.54Y-13.97
X2.54Y-33.02
X2.54Y-52.07
X2.54Y-71.12
X2.54Y-90.17
T4
X-95.25Y0.0
X-95.25Y0.0
X-95.25Y-19.05
X-95.25Y-19.05
X-95.25Y-38.1
X-95.25Y-38.1
X-95.25Y-57.15
X-95.25Y-57.15
X-95.25Y-76.2
X-95.25Y-76.2
X-95.25Y-95.25
X-95.25Y-95.25
X-76.2Y0.0
X-76.2Y0.0
X-76.2Y-19.05
X-76.2Y-19.05
X-76.2Y-38.1
X-76.2Y-38.1
X-76.2Y-57.15
X-76.2Y-57.15
X-76.2Y-76.2
X-76.2Y-76.2
X-76.2Y-95.25
X-76.2Y-95.25
X-57.15Y0.0
X-57.15Y0.0
X-57.15Y-19.05
X-57.15Y-19.05
X-57.15Y-38.1
X-57.15Y-38.1
X-57.15Y-57.15
X-57.15Y-57.15
X-57.15Y-76.2
X-57.15Y-76.2
X-57.15Y-95.25
X-57.15Y-95.25
X-38.1Y0.0
X-38.1Y0.0
X-38.1Y-19.05
X-38.1Y-19.05
X-38.1Y-38.1
X-38.1Y-38.1
X-38.1Y-57.15
X-38.1Y-57.15
X-38.1Y-76.2
X-38.1Y-76.2
X-38.1Y-95.25
X-38.1Y-95.25
X-19.05Y0.0
X-19.05Y0.0
X-19.05Y-19.05
X-19.05Y-19.05
X-19.05Y-38.1
X-19.05Y-38.1
X-19.05Y-57.15
X-19.05Y-57.15
X-19.05Y-76.2
X-19.05Y-76.2
X-19.05Y-95.25
X-19.05Y-95.25
X0.0Y0.0
X0.0Y0.0
X0.0Y-19.05
X0.0Y-19.05
X0.0Y-38.1
X0.0Y-38.1
X0.0Y-57.15
X0.0Y-57.15
X0.0Y-76.2
X0.0Y-76.2
X0.0Y-95.25
X0.0Y-95.25
T0
M30
