%TF.GenerationSoftware,KiCad,Pcbnew,(6.0.7-1)-1*%
%TF.CreationDate,2022-08-30T19:37:24+08:00*%
%TF.ProjectId,Control,436f6e74-726f-46c2-9e6b-696361645f70,V3.2.2*%
%TF.SameCoordinates,PX7df6180PY32de760*%
%TF.FileFunction,Drillmap*%
%TF.FilePolarity,Positive*%
%FSLAX45Y45*%
G04 Gerber Fmt 4.5, Leading zero omitted, Abs format (unit mm)*
G04 Created by KiCad (PCBNEW (6.0.7-1)-1) date 2022-08-30 19:37:24*
%MOMM*%
%LPD*%
G01*
G04 APERTURE LIST*
%ADD10C,0.120000*%
%ADD11C,0.200000*%
%ADD12C,0.040000*%
%ADD13C,0.100000*%
G04 APERTURE END LIST*
D10*
X2730500Y-4254500D02*
X-1206500Y-4254500D01*
X-1333500Y-4127500D02*
X-1333500Y444500D01*
X1397000Y571500D02*
G75*
G03*
X1270000Y444500I0J-127000D01*
G01*
X2857500Y444500D02*
G75*
G03*
X2730500Y571500I-127000J0D01*
G01*
X-1333500Y-4127500D02*
G75*
G03*
X-1206500Y-4254500I127000J0D01*
G01*
X1270000Y444500D02*
X1270000Y-63500D01*
X2730500Y-4254500D02*
G75*
G03*
X2857500Y-4127500I0J127000D01*
G01*
X-1206500Y571500D02*
G75*
G03*
X-1333500Y444500I0J-127000D01*
G01*
X254000Y-63500D02*
X254000Y444500D01*
X1270000Y-63500D02*
X254000Y-63500D01*
X1397000Y571500D02*
X2730500Y571500D01*
X2857500Y444500D02*
X2857500Y-4127500D01*
X254000Y444500D02*
G75*
G03*
X127000Y571500I-127000J0D01*
G01*
X127000Y571500D02*
X-1206500Y571500D01*
D11*
D12*
X-655000Y-3726500D02*
X-615000Y-3766500D01*
X-615000Y-3726500D02*
X-655000Y-3766500D01*
X1896951Y-2211450D02*
X1936951Y-2251450D01*
X1936951Y-2211450D02*
X1896951Y-2251450D01*
X1948500Y-3218500D02*
X1988500Y-3258500D01*
X1988500Y-3218500D02*
X1948500Y-3258500D01*
X1948500Y-3472500D02*
X1988500Y-3512500D01*
X1988500Y-3472500D02*
X1948500Y-3512500D01*
X2075500Y-1504000D02*
X2115500Y-1544000D01*
X2115500Y-1504000D02*
X2075500Y-1544000D01*
X2075500Y-1631000D02*
X2115500Y-1671000D01*
X2115500Y-1631000D02*
X2075500Y-1671000D01*
D13*
X-1044500Y323000D02*
G75*
G03*
X-1044500Y323000I-50000J0D01*
G01*
X-1044500Y-127000D02*
G75*
G03*
X-1044500Y-127000I-50000J0D01*
G01*
X-966000Y-889000D02*
G75*
G03*
X-966000Y-889000I-50000J0D01*
G01*
X-966000Y-1143000D02*
G75*
G03*
X-966000Y-1143000I-50000J0D01*
G01*
X-966000Y-1397000D02*
G75*
G03*
X-966000Y-1397000I-50000J0D01*
G01*
X-966000Y-1651000D02*
G75*
G03*
X-966000Y-1651000I-50000J0D01*
G01*
X-966000Y-1905000D02*
G75*
G03*
X-966000Y-1905000I-50000J0D01*
G01*
X-966000Y-2159000D02*
G75*
G03*
X-966000Y-2159000I-50000J0D01*
G01*
X-966000Y-2413000D02*
G75*
G03*
X-966000Y-2413000I-50000J0D01*
G01*
X-966000Y-3239500D02*
G75*
G03*
X-966000Y-3239500I-50000J0D01*
G01*
X-966000Y-3493500D02*
G75*
G03*
X-966000Y-3493500I-50000J0D01*
G01*
X-966000Y-3747500D02*
G75*
G03*
X-966000Y-3747500I-50000J0D01*
G01*
X-966000Y-4001500D02*
G75*
G03*
X-966000Y-4001500I-50000J0D01*
G01*
X-712000Y-889000D02*
G75*
G03*
X-712000Y-889000I-50000J0D01*
G01*
X-712000Y-1143000D02*
G75*
G03*
X-712000Y-1143000I-50000J0D01*
G01*
X-712000Y-1397000D02*
G75*
G03*
X-712000Y-1397000I-50000J0D01*
G01*
X-712000Y-1651000D02*
G75*
G03*
X-712000Y-1651000I-50000J0D01*
G01*
X-712000Y-1905000D02*
G75*
G03*
X-712000Y-1905000I-50000J0D01*
G01*
X-712000Y-2159000D02*
G75*
G03*
X-712000Y-2159000I-50000J0D01*
G01*
X-712000Y-2413000D02*
G75*
G03*
X-712000Y-2413000I-50000J0D01*
G01*
X-394500Y323000D02*
G75*
G03*
X-394500Y323000I-50000J0D01*
G01*
X-394500Y-127000D02*
G75*
G03*
X-394500Y-127000I-50000J0D01*
G01*
X50000Y0D02*
G75*
G03*
X50000Y0I-50000J0D01*
G01*
X50000Y-254000D02*
G75*
G03*
X50000Y-254000I-50000J0D01*
G01*
X50000Y-508000D02*
G75*
G03*
X50000Y-508000I-50000J0D01*
G01*
X50000Y-762000D02*
G75*
G03*
X50000Y-762000I-50000J0D01*
G01*
X50000Y-1016000D02*
G75*
G03*
X50000Y-1016000I-50000J0D01*
G01*
X50000Y-1270000D02*
G75*
G03*
X50000Y-1270000I-50000J0D01*
G01*
X50000Y-1524000D02*
G75*
G03*
X50000Y-1524000I-50000J0D01*
G01*
X50000Y-1778000D02*
G75*
G03*
X50000Y-1778000I-50000J0D01*
G01*
X50000Y-2032000D02*
G75*
G03*
X50000Y-2032000I-50000J0D01*
G01*
X50000Y-2286000D02*
G75*
G03*
X50000Y-2286000I-50000J0D01*
G01*
X50000Y-2540000D02*
G75*
G03*
X50000Y-2540000I-50000J0D01*
G01*
X50000Y-2794000D02*
G75*
G03*
X50000Y-2794000I-50000J0D01*
G01*
X1574000Y0D02*
G75*
G03*
X1574000Y0I-50000J0D01*
G01*
X1574000Y-254000D02*
G75*
G03*
X1574000Y-254000I-50000J0D01*
G01*
X1574000Y-508000D02*
G75*
G03*
X1574000Y-508000I-50000J0D01*
G01*
X1574000Y-762000D02*
G75*
G03*
X1574000Y-762000I-50000J0D01*
G01*
X1574000Y-1016000D02*
G75*
G03*
X1574000Y-1016000I-50000J0D01*
G01*
X1574000Y-1270000D02*
G75*
G03*
X1574000Y-1270000I-50000J0D01*
G01*
X1574000Y-1524000D02*
G75*
G03*
X1574000Y-1524000I-50000J0D01*
G01*
X1574000Y-1778000D02*
G75*
G03*
X1574000Y-1778000I-50000J0D01*
G01*
X1574000Y-2032000D02*
G75*
G03*
X1574000Y-2032000I-50000J0D01*
G01*
X1574000Y-2286000D02*
G75*
G03*
X1574000Y-2286000I-50000J0D01*
G01*
X1574000Y-2540000D02*
G75*
G03*
X1574000Y-2540000I-50000J0D01*
G01*
X1574000Y-2794000D02*
G75*
G03*
X1574000Y-2794000I-50000J0D01*
G01*
X2336000Y-889000D02*
G75*
G03*
X2336000Y-889000I-50000J0D01*
G01*
X2336000Y-1143000D02*
G75*
G03*
X2336000Y-1143000I-50000J0D01*
G01*
X2336000Y-1397000D02*
G75*
G03*
X2336000Y-1397000I-50000J0D01*
G01*
X2336000Y-1651000D02*
G75*
G03*
X2336000Y-1651000I-50000J0D01*
G01*
X2336000Y-1905000D02*
G75*
G03*
X2336000Y-1905000I-50000J0D01*
G01*
X2336000Y-2159000D02*
G75*
G03*
X2336000Y-2159000I-50000J0D01*
G01*
X2336000Y-2413000D02*
G75*
G03*
X2336000Y-2413000I-50000J0D01*
G01*
X2590000Y-889000D02*
G75*
G03*
X2590000Y-889000I-50000J0D01*
G01*
X2590000Y-1143000D02*
G75*
G03*
X2590000Y-1143000I-50000J0D01*
G01*
X2590000Y-1397000D02*
G75*
G03*
X2590000Y-1397000I-50000J0D01*
G01*
X2590000Y-1651000D02*
G75*
G03*
X2590000Y-1651000I-50000J0D01*
G01*
X2590000Y-1905000D02*
G75*
G03*
X2590000Y-1905000I-50000J0D01*
G01*
X2590000Y-2159000D02*
G75*
G03*
X2590000Y-2159000I-50000J0D01*
G01*
X2590000Y-2413000D02*
G75*
G03*
X2590000Y-2413000I-50000J0D01*
G01*
X2590000Y-3238500D02*
G75*
G03*
X2590000Y-3238500I-50000J0D01*
G01*
X2590000Y-3492500D02*
G75*
G03*
X2590000Y-3492500I-50000J0D01*
G01*
X2590000Y-3746500D02*
G75*
G03*
X2590000Y-3746500I-50000J0D01*
G01*
X2590000Y-4000500D02*
G75*
G03*
X2590000Y-4000500I-50000J0D01*
G01*
D11*
X-1081881Y-4570976D02*
X-1081881Y-4370976D01*
X-1034262Y-4370976D01*
X-1005690Y-4380500D01*
X-986643Y-4399548D01*
X-977119Y-4418595D01*
X-967595Y-4456690D01*
X-967595Y-4485262D01*
X-977119Y-4523357D01*
X-986643Y-4542405D01*
X-1005690Y-4561452D01*
X-1034262Y-4570976D01*
X-1081881Y-4570976D01*
X-881881Y-4570976D02*
X-881881Y-4437643D01*
X-881881Y-4475738D02*
X-872357Y-4456690D01*
X-862833Y-4447167D01*
X-843786Y-4437643D01*
X-824738Y-4437643D01*
X-758071Y-4570976D02*
X-758071Y-4437643D01*
X-758071Y-4370976D02*
X-767595Y-4380500D01*
X-758071Y-4390024D01*
X-748548Y-4380500D01*
X-758071Y-4370976D01*
X-758071Y-4390024D01*
X-634262Y-4570976D02*
X-653310Y-4561452D01*
X-662833Y-4542405D01*
X-662833Y-4370976D01*
X-529500Y-4570976D02*
X-548548Y-4561452D01*
X-558072Y-4542405D01*
X-558072Y-4370976D01*
X-300929Y-4570976D02*
X-300929Y-4370976D01*
X-234262Y-4513833D01*
X-167595Y-4370976D01*
X-167595Y-4570976D01*
X13357Y-4570976D02*
X13357Y-4466214D01*
X3833Y-4447167D01*
X-15214Y-4437643D01*
X-53310Y-4437643D01*
X-72357Y-4447167D01*
X13357Y-4561452D02*
X-5690Y-4570976D01*
X-53310Y-4570976D01*
X-72357Y-4561452D01*
X-81881Y-4542405D01*
X-81881Y-4523357D01*
X-72357Y-4504310D01*
X-53310Y-4494786D01*
X-5690Y-4494786D01*
X13357Y-4485262D01*
X108595Y-4437643D02*
X108595Y-4637643D01*
X108595Y-4447167D02*
X127643Y-4437643D01*
X165738Y-4437643D01*
X184786Y-4447167D01*
X194309Y-4456690D01*
X203833Y-4475738D01*
X203833Y-4532881D01*
X194309Y-4551929D01*
X184786Y-4561452D01*
X165738Y-4570976D01*
X127643Y-4570976D01*
X108595Y-4561452D01*
X289548Y-4551929D02*
X299071Y-4561452D01*
X289548Y-4570976D01*
X280024Y-4561452D01*
X289548Y-4551929D01*
X289548Y-4570976D01*
X289548Y-4447167D02*
X299071Y-4456690D01*
X289548Y-4466214D01*
X280024Y-4456690D01*
X289548Y-4447167D01*
X289548Y-4466214D01*
D12*
X-1379500Y-4880500D02*
X-1339500Y-4920500D01*
X-1339500Y-4880500D02*
X-1379500Y-4920500D01*
D11*
X-1043786Y-4790976D02*
X-1024738Y-4790976D01*
X-1005690Y-4800500D01*
X-996167Y-4810024D01*
X-986643Y-4829071D01*
X-977119Y-4867167D01*
X-977119Y-4914786D01*
X-986643Y-4952881D01*
X-996167Y-4971929D01*
X-1005690Y-4981452D01*
X-1024738Y-4990976D01*
X-1043786Y-4990976D01*
X-1062833Y-4981452D01*
X-1072357Y-4971929D01*
X-1081881Y-4952881D01*
X-1091405Y-4914786D01*
X-1091405Y-4867167D01*
X-1081881Y-4829071D01*
X-1072357Y-4810024D01*
X-1062833Y-4800500D01*
X-1043786Y-4790976D01*
X-891405Y-4971929D02*
X-881881Y-4981452D01*
X-891405Y-4990976D01*
X-900929Y-4981452D01*
X-891405Y-4971929D01*
X-891405Y-4990976D01*
X-710452Y-4857643D02*
X-710452Y-4990976D01*
X-758071Y-4781452D02*
X-805690Y-4924310D01*
X-681881Y-4924310D01*
X-567595Y-4790976D02*
X-548548Y-4790976D01*
X-529500Y-4800500D01*
X-519976Y-4810024D01*
X-510452Y-4829071D01*
X-500929Y-4867167D01*
X-500929Y-4914786D01*
X-510452Y-4952881D01*
X-519976Y-4971929D01*
X-529500Y-4981452D01*
X-548548Y-4990976D01*
X-567595Y-4990976D01*
X-586643Y-4981452D01*
X-596167Y-4971929D01*
X-605691Y-4952881D01*
X-615214Y-4914786D01*
X-615214Y-4867167D01*
X-605691Y-4829071D01*
X-596167Y-4810024D01*
X-586643Y-4800500D01*
X-567595Y-4790976D01*
X-377119Y-4790976D02*
X-358071Y-4790976D01*
X-339024Y-4800500D01*
X-329500Y-4810024D01*
X-319976Y-4829071D01*
X-310452Y-4867167D01*
X-310452Y-4914786D01*
X-319976Y-4952881D01*
X-329500Y-4971929D01*
X-339024Y-4981452D01*
X-358071Y-4990976D01*
X-377119Y-4990976D01*
X-396167Y-4981452D01*
X-405690Y-4971929D01*
X-415214Y-4952881D01*
X-424738Y-4914786D01*
X-424738Y-4867167D01*
X-415214Y-4829071D01*
X-405690Y-4810024D01*
X-396167Y-4800500D01*
X-377119Y-4790976D01*
X-224738Y-4990976D02*
X-224738Y-4857643D01*
X-224738Y-4876690D02*
X-215214Y-4867167D01*
X-196167Y-4857643D01*
X-167595Y-4857643D01*
X-148548Y-4867167D01*
X-139024Y-4886214D01*
X-139024Y-4990976D01*
X-139024Y-4886214D02*
X-129500Y-4867167D01*
X-110452Y-4857643D01*
X-81881Y-4857643D01*
X-62833Y-4867167D01*
X-53310Y-4886214D01*
X-53310Y-4990976D01*
X41929Y-4990976D02*
X41929Y-4857643D01*
X41929Y-4876690D02*
X51452Y-4867167D01*
X70500Y-4857643D01*
X99071Y-4857643D01*
X118119Y-4867167D01*
X127643Y-4886214D01*
X127643Y-4990976D01*
X127643Y-4886214D02*
X137167Y-4867167D01*
X156214Y-4857643D01*
X184786Y-4857643D01*
X203833Y-4867167D01*
X213357Y-4886214D01*
X213357Y-4990976D01*
X603833Y-4781452D02*
X432405Y-5038595D01*
X860976Y-4790976D02*
X880024Y-4790976D01*
X899071Y-4800500D01*
X908595Y-4810024D01*
X918119Y-4829071D01*
X927643Y-4867167D01*
X927643Y-4914786D01*
X918119Y-4952881D01*
X908595Y-4971929D01*
X899071Y-4981452D01*
X880024Y-4990976D01*
X860976Y-4990976D01*
X841928Y-4981452D01*
X832405Y-4971929D01*
X822881Y-4952881D01*
X813357Y-4914786D01*
X813357Y-4867167D01*
X822881Y-4829071D01*
X832405Y-4810024D01*
X841928Y-4800500D01*
X860976Y-4790976D01*
X1013357Y-4971929D02*
X1022881Y-4981452D01*
X1013357Y-4990976D01*
X1003833Y-4981452D01*
X1013357Y-4971929D01*
X1013357Y-4990976D01*
X1146690Y-4790976D02*
X1165738Y-4790976D01*
X1184786Y-4800500D01*
X1194310Y-4810024D01*
X1203833Y-4829071D01*
X1213357Y-4867167D01*
X1213357Y-4914786D01*
X1203833Y-4952881D01*
X1194310Y-4971929D01*
X1184786Y-4981452D01*
X1165738Y-4990976D01*
X1146690Y-4990976D01*
X1127643Y-4981452D01*
X1118119Y-4971929D01*
X1108595Y-4952881D01*
X1099071Y-4914786D01*
X1099071Y-4867167D01*
X1108595Y-4829071D01*
X1118119Y-4810024D01*
X1127643Y-4800500D01*
X1146690Y-4790976D01*
X1403833Y-4990976D02*
X1289548Y-4990976D01*
X1346690Y-4990976D02*
X1346690Y-4790976D01*
X1327643Y-4819548D01*
X1308595Y-4838595D01*
X1289548Y-4848119D01*
X1584786Y-4790976D02*
X1489548Y-4790976D01*
X1480024Y-4886214D01*
X1489548Y-4876690D01*
X1508595Y-4867167D01*
X1556214Y-4867167D01*
X1575262Y-4876690D01*
X1584786Y-4886214D01*
X1594309Y-4905262D01*
X1594309Y-4952881D01*
X1584786Y-4971929D01*
X1575262Y-4981452D01*
X1556214Y-4990976D01*
X1508595Y-4990976D01*
X1489548Y-4981452D01*
X1480024Y-4971929D01*
X1660976Y-4790976D02*
X1794309Y-4790976D01*
X1708595Y-4990976D01*
X1860976Y-4790976D02*
X1860976Y-4829071D01*
X1937167Y-4790976D02*
X1937167Y-4829071D01*
X2232405Y-5067167D02*
X2222881Y-5057643D01*
X2203833Y-5029071D01*
X2194310Y-5010024D01*
X2184786Y-4981452D01*
X2175262Y-4933833D01*
X2175262Y-4895738D01*
X2184786Y-4848119D01*
X2194310Y-4819548D01*
X2203833Y-4800500D01*
X2222881Y-4771929D01*
X2232405Y-4762405D01*
X2394310Y-4790976D02*
X2356214Y-4790976D01*
X2337167Y-4800500D01*
X2327643Y-4810024D01*
X2308595Y-4838595D01*
X2299071Y-4876690D01*
X2299071Y-4952881D01*
X2308595Y-4971929D01*
X2318119Y-4981452D01*
X2337167Y-4990976D01*
X2375262Y-4990976D01*
X2394310Y-4981452D01*
X2403833Y-4971929D01*
X2413357Y-4952881D01*
X2413357Y-4905262D01*
X2403833Y-4886214D01*
X2394310Y-4876690D01*
X2375262Y-4867167D01*
X2337167Y-4867167D01*
X2318119Y-4876690D01*
X2308595Y-4886214D01*
X2299071Y-4905262D01*
X2651452Y-4990976D02*
X2651452Y-4790976D01*
X2737167Y-4990976D02*
X2737167Y-4886214D01*
X2727643Y-4867167D01*
X2708595Y-4857643D01*
X2680024Y-4857643D01*
X2660976Y-4867167D01*
X2651452Y-4876690D01*
X2860976Y-4990976D02*
X2841928Y-4981452D01*
X2832405Y-4971929D01*
X2822881Y-4952881D01*
X2822881Y-4895738D01*
X2832405Y-4876690D01*
X2841928Y-4867167D01*
X2860976Y-4857643D01*
X2889548Y-4857643D01*
X2908595Y-4867167D01*
X2918119Y-4876690D01*
X2927643Y-4895738D01*
X2927643Y-4952881D01*
X2918119Y-4971929D01*
X2908595Y-4981452D01*
X2889548Y-4990976D01*
X2860976Y-4990976D01*
X3041928Y-4990976D02*
X3022881Y-4981452D01*
X3013357Y-4962405D01*
X3013357Y-4790976D01*
X3194309Y-4981452D02*
X3175262Y-4990976D01*
X3137167Y-4990976D01*
X3118119Y-4981452D01*
X3108595Y-4962405D01*
X3108595Y-4886214D01*
X3118119Y-4867167D01*
X3137167Y-4857643D01*
X3175262Y-4857643D01*
X3194309Y-4867167D01*
X3203833Y-4886214D01*
X3203833Y-4905262D01*
X3108595Y-4924310D01*
X3280024Y-4981452D02*
X3299071Y-4990976D01*
X3337167Y-4990976D01*
X3356214Y-4981452D01*
X3365738Y-4962405D01*
X3365738Y-4952881D01*
X3356214Y-4933833D01*
X3337167Y-4924310D01*
X3308595Y-4924310D01*
X3289548Y-4914786D01*
X3280024Y-4895738D01*
X3280024Y-4886214D01*
X3289548Y-4867167D01*
X3308595Y-4857643D01*
X3337167Y-4857643D01*
X3356214Y-4867167D01*
X3432405Y-5067167D02*
X3441928Y-5057643D01*
X3460976Y-5029071D01*
X3470500Y-5010024D01*
X3480024Y-4981452D01*
X3489548Y-4933833D01*
X3489548Y-4895738D01*
X3480024Y-4848119D01*
X3470500Y-4819548D01*
X3460976Y-4800500D01*
X3441928Y-4771929D01*
X3432405Y-4762405D01*
D13*
X-1339500Y-5164500D02*
G75*
G03*
X-1339500Y-5164500I-50000J0D01*
G01*
D11*
X-977119Y-5254976D02*
X-1091405Y-5254976D01*
X-1034262Y-5254976D02*
X-1034262Y-5054976D01*
X-1053310Y-5083548D01*
X-1072357Y-5102595D01*
X-1091405Y-5112119D01*
X-891405Y-5235929D02*
X-881881Y-5245452D01*
X-891405Y-5254976D01*
X-900929Y-5245452D01*
X-891405Y-5235929D01*
X-891405Y-5254976D01*
X-758071Y-5054976D02*
X-739024Y-5054976D01*
X-719976Y-5064500D01*
X-710452Y-5074024D01*
X-700929Y-5093071D01*
X-691405Y-5131167D01*
X-691405Y-5178786D01*
X-700929Y-5216881D01*
X-710452Y-5235929D01*
X-719976Y-5245452D01*
X-739024Y-5254976D01*
X-758071Y-5254976D01*
X-777119Y-5245452D01*
X-786643Y-5235929D01*
X-796167Y-5216881D01*
X-805690Y-5178786D01*
X-805690Y-5131167D01*
X-796167Y-5093071D01*
X-786643Y-5074024D01*
X-777119Y-5064500D01*
X-758071Y-5054976D01*
X-567595Y-5054976D02*
X-548548Y-5054976D01*
X-529500Y-5064500D01*
X-519976Y-5074024D01*
X-510452Y-5093071D01*
X-500929Y-5131167D01*
X-500929Y-5178786D01*
X-510452Y-5216881D01*
X-519976Y-5235929D01*
X-529500Y-5245452D01*
X-548548Y-5254976D01*
X-567595Y-5254976D01*
X-586643Y-5245452D01*
X-596167Y-5235929D01*
X-605691Y-5216881D01*
X-615214Y-5178786D01*
X-615214Y-5131167D01*
X-605691Y-5093071D01*
X-596167Y-5074024D01*
X-586643Y-5064500D01*
X-567595Y-5054976D01*
X-377119Y-5054976D02*
X-358071Y-5054976D01*
X-339024Y-5064500D01*
X-329500Y-5074024D01*
X-319976Y-5093071D01*
X-310452Y-5131167D01*
X-310452Y-5178786D01*
X-319976Y-5216881D01*
X-329500Y-5235929D01*
X-339024Y-5245452D01*
X-358071Y-5254976D01*
X-377119Y-5254976D01*
X-396167Y-5245452D01*
X-405690Y-5235929D01*
X-415214Y-5216881D01*
X-424738Y-5178786D01*
X-424738Y-5131167D01*
X-415214Y-5093071D01*
X-405690Y-5074024D01*
X-396167Y-5064500D01*
X-377119Y-5054976D01*
X-224738Y-5254976D02*
X-224738Y-5121643D01*
X-224738Y-5140690D02*
X-215214Y-5131167D01*
X-196167Y-5121643D01*
X-167595Y-5121643D01*
X-148548Y-5131167D01*
X-139024Y-5150214D01*
X-139024Y-5254976D01*
X-139024Y-5150214D02*
X-129500Y-5131167D01*
X-110452Y-5121643D01*
X-81881Y-5121643D01*
X-62833Y-5131167D01*
X-53310Y-5150214D01*
X-53310Y-5254976D01*
X41929Y-5254976D02*
X41929Y-5121643D01*
X41929Y-5140690D02*
X51452Y-5131167D01*
X70500Y-5121643D01*
X99071Y-5121643D01*
X118119Y-5131167D01*
X127643Y-5150214D01*
X127643Y-5254976D01*
X127643Y-5150214D02*
X137167Y-5131167D01*
X156214Y-5121643D01*
X184786Y-5121643D01*
X203833Y-5131167D01*
X213357Y-5150214D01*
X213357Y-5254976D01*
X603833Y-5045452D02*
X432405Y-5302595D01*
X860976Y-5054976D02*
X880024Y-5054976D01*
X899071Y-5064500D01*
X908595Y-5074024D01*
X918119Y-5093071D01*
X927643Y-5131167D01*
X927643Y-5178786D01*
X918119Y-5216881D01*
X908595Y-5235929D01*
X899071Y-5245452D01*
X880024Y-5254976D01*
X860976Y-5254976D01*
X841928Y-5245452D01*
X832405Y-5235929D01*
X822881Y-5216881D01*
X813357Y-5178786D01*
X813357Y-5131167D01*
X822881Y-5093071D01*
X832405Y-5074024D01*
X841928Y-5064500D01*
X860976Y-5054976D01*
X1013357Y-5235929D02*
X1022881Y-5245452D01*
X1013357Y-5254976D01*
X1003833Y-5245452D01*
X1013357Y-5235929D01*
X1013357Y-5254976D01*
X1146690Y-5054976D02*
X1165738Y-5054976D01*
X1184786Y-5064500D01*
X1194310Y-5074024D01*
X1203833Y-5093071D01*
X1213357Y-5131167D01*
X1213357Y-5178786D01*
X1203833Y-5216881D01*
X1194310Y-5235929D01*
X1184786Y-5245452D01*
X1165738Y-5254976D01*
X1146690Y-5254976D01*
X1127643Y-5245452D01*
X1118119Y-5235929D01*
X1108595Y-5216881D01*
X1099071Y-5178786D01*
X1099071Y-5131167D01*
X1108595Y-5093071D01*
X1118119Y-5074024D01*
X1127643Y-5064500D01*
X1146690Y-5054976D01*
X1280024Y-5054976D02*
X1403833Y-5054976D01*
X1337167Y-5131167D01*
X1365738Y-5131167D01*
X1384786Y-5140690D01*
X1394310Y-5150214D01*
X1403833Y-5169262D01*
X1403833Y-5216881D01*
X1394310Y-5235929D01*
X1384786Y-5245452D01*
X1365738Y-5254976D01*
X1308595Y-5254976D01*
X1289548Y-5245452D01*
X1280024Y-5235929D01*
X1499071Y-5254976D02*
X1537167Y-5254976D01*
X1556214Y-5245452D01*
X1565738Y-5235929D01*
X1584786Y-5207357D01*
X1594309Y-5169262D01*
X1594309Y-5093071D01*
X1584786Y-5074024D01*
X1575262Y-5064500D01*
X1556214Y-5054976D01*
X1518119Y-5054976D01*
X1499071Y-5064500D01*
X1489548Y-5074024D01*
X1480024Y-5093071D01*
X1480024Y-5140690D01*
X1489548Y-5159738D01*
X1499071Y-5169262D01*
X1518119Y-5178786D01*
X1556214Y-5178786D01*
X1575262Y-5169262D01*
X1584786Y-5159738D01*
X1594309Y-5140690D01*
X1765738Y-5121643D02*
X1765738Y-5254976D01*
X1718119Y-5045452D02*
X1670500Y-5188310D01*
X1794309Y-5188310D01*
X1860976Y-5054976D02*
X1860976Y-5093071D01*
X1937167Y-5054976D02*
X1937167Y-5093071D01*
X2232405Y-5331167D02*
X2222881Y-5321643D01*
X2203833Y-5293071D01*
X2194310Y-5274024D01*
X2184786Y-5245452D01*
X2175262Y-5197833D01*
X2175262Y-5159738D01*
X2184786Y-5112119D01*
X2194310Y-5083548D01*
X2203833Y-5064500D01*
X2222881Y-5035929D01*
X2232405Y-5026405D01*
X2394310Y-5054976D02*
X2356214Y-5054976D01*
X2337167Y-5064500D01*
X2327643Y-5074024D01*
X2308595Y-5102595D01*
X2299071Y-5140690D01*
X2299071Y-5216881D01*
X2308595Y-5235929D01*
X2318119Y-5245452D01*
X2337167Y-5254976D01*
X2375262Y-5254976D01*
X2394310Y-5245452D01*
X2403833Y-5235929D01*
X2413357Y-5216881D01*
X2413357Y-5169262D01*
X2403833Y-5150214D01*
X2394310Y-5140690D01*
X2375262Y-5131167D01*
X2337167Y-5131167D01*
X2318119Y-5140690D01*
X2308595Y-5150214D01*
X2299071Y-5169262D01*
X2584786Y-5121643D02*
X2584786Y-5254976D01*
X2537167Y-5045452D02*
X2489548Y-5188310D01*
X2613357Y-5188310D01*
X2841928Y-5254976D02*
X2841928Y-5054976D01*
X2927643Y-5254976D02*
X2927643Y-5150214D01*
X2918119Y-5131167D01*
X2899071Y-5121643D01*
X2870500Y-5121643D01*
X2851452Y-5131167D01*
X2841928Y-5140690D01*
X3051452Y-5254976D02*
X3032405Y-5245452D01*
X3022881Y-5235929D01*
X3013357Y-5216881D01*
X3013357Y-5159738D01*
X3022881Y-5140690D01*
X3032405Y-5131167D01*
X3051452Y-5121643D01*
X3080024Y-5121643D01*
X3099071Y-5131167D01*
X3108595Y-5140690D01*
X3118119Y-5159738D01*
X3118119Y-5216881D01*
X3108595Y-5235929D01*
X3099071Y-5245452D01*
X3080024Y-5254976D01*
X3051452Y-5254976D01*
X3232405Y-5254976D02*
X3213357Y-5245452D01*
X3203833Y-5226405D01*
X3203833Y-5054976D01*
X3384786Y-5245452D02*
X3365738Y-5254976D01*
X3327643Y-5254976D01*
X3308595Y-5245452D01*
X3299071Y-5226405D01*
X3299071Y-5150214D01*
X3308595Y-5131167D01*
X3327643Y-5121643D01*
X3365738Y-5121643D01*
X3384786Y-5131167D01*
X3394309Y-5150214D01*
X3394309Y-5169262D01*
X3299071Y-5188310D01*
X3470500Y-5245452D02*
X3489548Y-5254976D01*
X3527643Y-5254976D01*
X3546690Y-5245452D01*
X3556214Y-5226405D01*
X3556214Y-5216881D01*
X3546690Y-5197833D01*
X3527643Y-5188310D01*
X3499071Y-5188310D01*
X3480024Y-5178786D01*
X3470500Y-5159738D01*
X3470500Y-5150214D01*
X3480024Y-5131167D01*
X3499071Y-5121643D01*
X3527643Y-5121643D01*
X3546690Y-5131167D01*
X3622881Y-5331167D02*
X3632405Y-5321643D01*
X3651452Y-5293071D01*
X3660976Y-5274024D01*
X3670500Y-5245452D01*
X3680024Y-5197833D01*
X3680024Y-5159738D01*
X3670500Y-5112119D01*
X3660976Y-5083548D01*
X3651452Y-5064500D01*
X3632405Y-5035929D01*
X3622881Y-5026405D01*
M02*
