%TF.GenerationSoftware,KiCad,Pcbnew,(6.0.7-1)-1*%
%TF.CreationDate,2022-08-30T19:37:27+08:00*%
%TF.ProjectId,Control,436f6e74-726f-46c2-9e6b-696361645f70,V3.2.2*%
%TF.SameCoordinates,PX7df6180PY32de760*%
%TF.FileFunction,Copper,L1,Top*%
%TF.FilePolarity,Positive*%
%FSLAX46Y46*%
G04 Gerber Fmt 4.6, Leading zero omitted, Abs format (unit mm)*
G04 Created by KiCad (PCBNEW (6.0.7-1)-1) date 2022-08-30 19:37:27*
%MOMM*%
%LPD*%
G01*
G04 APERTURE LIST*
G04 Aperture macros list*
%AMRoundRect*
0 Rectangle with rounded corners*
0 $1 Rounding radius*
0 $2 $3 $4 $5 $6 $7 $8 $9 X,Y pos of 4 corners*
0 Add a 4 corners polygon primitive as box body*
4,1,4,$2,$3,$4,$5,$6,$7,$8,$9,$2,$3,0*
0 Add four circle primitives for the rounded corners*
1,1,$1+$1,$2,$3*
1,1,$1+$1,$4,$5*
1,1,$1+$1,$6,$7*
1,1,$1+$1,$8,$9*
0 Add four rect primitives between the rounded corners*
20,1,$1+$1,$2,$3,$4,$5,0*
20,1,$1+$1,$4,$5,$6,$7,0*
20,1,$1+$1,$6,$7,$8,$9,0*
20,1,$1+$1,$8,$9,$2,$3,0*%
G04 Aperture macros list end*
%TA.AperFunction,ComponentPad*%
%ADD10O,1.700000X1.700000*%
%TD*%
%TA.AperFunction,ComponentPad*%
%ADD11R,1.700000X1.700000*%
%TD*%
%TA.AperFunction,ComponentPad*%
%ADD12RoundRect,0.250000X-0.600000X-0.600000X0.600000X-0.600000X0.600000X0.600000X-0.600000X0.600000X0*%
%TD*%
%TA.AperFunction,ComponentPad*%
%ADD13C,1.700000*%
%TD*%
%TA.AperFunction,ComponentPad*%
%ADD14RoundRect,0.250000X0.600000X0.600000X-0.600000X0.600000X-0.600000X-0.600000X0.600000X-0.600000X0*%
%TD*%
%TA.AperFunction,ComponentPad*%
%ADD15C,2.000000*%
%TD*%
%TA.AperFunction,ViaPad*%
%ADD16C,0.800000*%
%TD*%
%TA.AperFunction,Conductor*%
%ADD17C,0.381000*%
%TD*%
%TA.AperFunction,Conductor*%
%ADD18C,0.250000*%
%TD*%
%TA.AperFunction,Conductor*%
%ADD19C,0.400000*%
%TD*%
G04 APERTURE END LIST*
D10*
%TO.P,J4,4,Pin_4*%
%TO.N,GND*%
X25400000Y-32385000D03*
%TO.P,J4,3,Pin_3*%
%TO.N,VCC*%
X25400000Y-34925000D03*
%TO.P,J4,2,Pin_2*%
%TO.N,Row2*%
X25400000Y-37465000D03*
D11*
%TO.P,J4,1,Pin_1*%
%TO.N,Row1*%
X25400000Y-40005000D03*
%TD*%
%TO.P,J3,1,Pin_1*%
%TO.N,Row1*%
X-10160000Y-32395000D03*
D10*
%TO.P,J3,2,Pin_2*%
%TO.N,Row2*%
X-10160000Y-34935000D03*
%TO.P,J3,3,Pin_3*%
%TO.N,VCC*%
X-10160000Y-37475000D03*
%TO.P,J3,4,Pin_4*%
%TO.N,GND*%
X-10160000Y-40015000D03*
%TD*%
D12*
%TO.P,J1,1,Pin_1*%
%TO.N,VCC*%
X-10160000Y-8890000D03*
D13*
%TO.P,J1,2,Pin_2*%
%TO.N,GND*%
X-7620000Y-8890000D03*
%TO.P,J1,3,Pin_3*%
%TO.N,Row1*%
X-10160000Y-11430000D03*
%TO.P,J1,4,Pin_4*%
%TO.N,Col1*%
X-7620000Y-11430000D03*
%TO.P,J1,5,Pin_5*%
%TO.N,Row2*%
X-10160000Y-13970000D03*
%TO.P,J1,6,Pin_6*%
%TO.N,Col2*%
X-7620000Y-13970000D03*
%TO.P,J1,7,Pin_7*%
%TO.N,Row3*%
X-10160000Y-16510000D03*
%TO.P,J1,8,Pin_8*%
%TO.N,Col3*%
X-7620000Y-16510000D03*
%TO.P,J1,9,Pin_9*%
%TO.N,Row4*%
X-10160000Y-19050000D03*
%TO.P,J1,10,Pin_10*%
%TO.N,Col4*%
X-7620000Y-19050000D03*
%TO.P,J1,11,Pin_11*%
%TO.N,Row5*%
X-10160000Y-21590000D03*
%TO.P,J1,12,Pin_12*%
%TO.N,Col5*%
X-7620000Y-21590000D03*
%TO.P,J1,13,Pin_13*%
%TO.N,Row6*%
X-10160000Y-24130000D03*
%TO.P,J1,14,Pin_14*%
%TO.N,Col6*%
X-7620000Y-24130000D03*
%TD*%
D14*
%TO.P,J2,1,Pin_1*%
%TO.N,VCC*%
X25400000Y-24130000D03*
D13*
%TO.P,J2,2,Pin_2*%
%TO.N,GND*%
X22860000Y-24130000D03*
%TO.P,J2,3,Pin_3*%
%TO.N,Row1*%
X25400000Y-21590000D03*
%TO.P,J2,4,Pin_4*%
%TO.N,Col7*%
X22860000Y-21590000D03*
%TO.P,J2,5,Pin_5*%
%TO.N,Row2*%
X25400000Y-19050000D03*
%TO.P,J2,6,Pin_6*%
%TO.N,Col8*%
X22860000Y-19050000D03*
%TO.P,J2,7,Pin_7*%
%TO.N,Row3*%
X25400000Y-16510000D03*
%TO.P,J2,8,Pin_8*%
%TO.N,Col9*%
X22860000Y-16510000D03*
%TO.P,J2,9,Pin_9*%
%TO.N,Row4*%
X25400000Y-13970000D03*
%TO.P,J2,10,Pin_10*%
%TO.N,Col10*%
X22860000Y-13970000D03*
%TO.P,J2,11,Pin_11*%
%TO.N,Row5*%
X25400000Y-11430000D03*
%TO.P,J2,12,Pin_12*%
%TO.N,Col11*%
X22860000Y-11430000D03*
%TO.P,J2,13,Pin_13*%
%TO.N,Row6*%
X25400000Y-8890000D03*
%TO.P,J2,14,Pin_14*%
%TO.N,Col12*%
X22860000Y-8890000D03*
%TD*%
D15*
%TO.P,SW1,*%
%TO.N,*%
X-10945000Y3230000D03*
X-10945000Y-1270000D03*
%TO.P,SW1,1,1*%
%TO.N,Reset*%
X-4445000Y3230000D03*
%TO.P,SW1,2,2*%
%TO.N,GND*%
X-4445000Y-1270000D03*
%TD*%
D11*
%TO.P,U1,1,TX0/PD3*%
%TO.N,Col1*%
X15240000Y0D03*
D13*
%TO.P,U1,2,RX1/PD2*%
%TO.N,Col2*%
X15240000Y-2540000D03*
%TO.P,U1,3,GND*%
%TO.N,GND*%
X15240000Y-5080000D03*
%TO.P,U1,4,GND*%
X15240000Y-7620000D03*
%TO.P,U1,5,2/PD1*%
%TO.N,Row1*%
X15240000Y-10160000D03*
%TO.P,U1,6,3/PD0*%
%TO.N,Row2*%
X15240000Y-12700000D03*
%TO.P,U1,7,4/PD4*%
%TO.N,Col3*%
X15240000Y-15240000D03*
%TO.P,U1,8,5/PC6*%
%TO.N,Row4*%
X15240000Y-17780000D03*
%TO.P,U1,9,6/PD7*%
%TO.N,Col4*%
X15240000Y-20320000D03*
%TO.P,U1,10,7/PE6*%
%TO.N,Row5*%
X15240000Y-22860000D03*
%TO.P,U1,11,8/PB4*%
%TO.N,Col5*%
X15240000Y-25400000D03*
%TO.P,U1,12,9/PB5*%
%TO.N,Col6*%
X15240000Y-27940000D03*
%TO.P,U1,13,10/PB6*%
%TO.N,Col7*%
X0Y-27940000D03*
%TO.P,U1,14,16/PB2*%
%TO.N,Row6*%
X0Y-25400000D03*
%TO.P,U1,15,14/PB3*%
%TO.N,Col8*%
X0Y-22860000D03*
%TO.P,U1,16,15/PB1*%
%TO.N,Col9*%
X0Y-20320000D03*
%TO.P,U1,17,A0/PF7*%
%TO.N,Col10*%
X0Y-17780000D03*
%TO.P,U1,18,A1/PF6*%
%TO.N,Row3*%
X0Y-15240000D03*
%TO.P,U1,19,A2/PF5*%
%TO.N,Col11*%
X0Y-12700000D03*
%TO.P,U1,20,A3/PF4*%
%TO.N,Col12*%
X0Y-10160000D03*
%TO.P,U1,21,VCC*%
%TO.N,VCC*%
X0Y-7620000D03*
%TO.P,U1,22,RST*%
%TO.N,Reset*%
X0Y-5080000D03*
%TO.P,U1,23,GND*%
%TO.N,GND*%
X0Y-2540000D03*
%TO.P,U1,24,RAW*%
%TO.N,unconnected-(U1-Pad24)*%
X0Y0D03*
%TD*%
D16*
%TO.N,Row1*%
X19685000Y-34925000D03*
%TO.N,VCC*%
X-6350000Y-37465000D03*
%TO.N,Row5*%
X19169511Y-22314500D03*
%TO.N,Row4*%
X20955000Y-16510000D03*
%TO.N,Col10*%
X20955000Y-15240000D03*
%TO.N,GND*%
X19685000Y-32385000D03*
%TD*%
D17*
%TO.N,VCC*%
X-2540000Y-33655000D02*
X-6350000Y-37465000D01*
X24130000Y-33655000D02*
X-2540000Y-33655000D01*
X25400000Y-34925000D02*
X24130000Y-33655000D01*
D18*
%TO.N,Row1*%
X20320000Y-34925000D02*
X19685000Y-34925000D01*
X-8890000Y-12700000D02*
X-10160000Y-11430000D01*
X1270000Y-11430000D02*
X-3810000Y-11430000D01*
X-3810000Y-11430000D02*
X-5080000Y-12700000D01*
X15240000Y-10160000D02*
X2540000Y-10160000D01*
X25400000Y-40005000D02*
X20320000Y-34925000D01*
X-5080000Y-12700000D02*
X-8890000Y-12700000D01*
X2540000Y-10160000D02*
X1270000Y-11430000D01*
D17*
%TO.N,VCC*%
X-8890000Y-10160000D02*
X-5080000Y-10160000D01*
X19685000Y-25400000D02*
X24130000Y-25400000D01*
X17145000Y-22860000D02*
X19685000Y-25400000D01*
X1270000Y-8890000D02*
X15875000Y-8890000D01*
X0Y-7620000D02*
X1270000Y-8890000D01*
X-2540000Y-7620000D02*
X0Y-7620000D01*
X-5080000Y-10160000D02*
X-2540000Y-7620000D01*
X24130000Y-25400000D02*
X25400000Y-24130000D01*
X17145000Y-10160000D02*
X17145000Y-22860000D01*
X-10160000Y-8890000D02*
X-8890000Y-10160000D01*
X15875000Y-8890000D02*
X17145000Y-10160000D01*
D18*
%TO.N,Row5*%
X21590000Y-12700000D02*
X19685000Y-14605000D01*
X13970000Y-22860000D02*
X12700000Y-21590000D01*
X-6252247Y-20320000D02*
X-8890000Y-20320000D01*
X25400000Y-11430000D02*
X24130000Y-12700000D01*
X19685000Y-14605000D02*
X19685000Y-21799011D01*
X15240000Y-22860000D02*
X13970000Y-22860000D01*
X24130000Y-12700000D02*
X21590000Y-12700000D01*
X19685000Y-21799011D02*
X19169511Y-22314500D01*
X-4982247Y-21590000D02*
X-6252247Y-20320000D01*
X-8890000Y-20320000D02*
X-10160000Y-21590000D01*
X12700000Y-21590000D02*
X-4982247Y-21590000D01*
%TO.N,Row6*%
X25400000Y-26670000D02*
X26670000Y-25400000D01*
X0Y-25400000D02*
X13335000Y-25400000D01*
X14605000Y-26670000D02*
X25400000Y-26670000D01*
X13335000Y-25400000D02*
X14605000Y-26670000D01*
X26670000Y-25400000D02*
X26670000Y-10160000D01*
X0Y-25400000D02*
X-8890000Y-25400000D01*
X26670000Y-10160000D02*
X25400000Y-8890000D01*
X-8890000Y-25400000D02*
X-10160000Y-24130000D01*
%TO.N,Row4*%
X24130000Y-15240000D02*
X22225000Y-15240000D01*
X13970000Y-17780000D02*
X12700000Y-16510000D01*
X22225000Y-15240000D02*
X20955000Y-16510000D01*
X-8890000Y-17780000D02*
X-10160000Y-19050000D01*
X12700000Y-16510000D02*
X-1270000Y-16510000D01*
X-2540000Y-17780000D02*
X-8890000Y-17780000D01*
X-1270000Y-16510000D02*
X-2540000Y-17780000D01*
X15240000Y-17780000D02*
X13970000Y-17780000D01*
X25400000Y-13970000D02*
X24130000Y-15240000D01*
%TO.N,Col4*%
X15240000Y-20320000D02*
X13970000Y-20320000D01*
X12700000Y-19050000D02*
X-7620000Y-19050000D01*
X13970000Y-20320000D02*
X12700000Y-19050000D01*
%TO.N,Row2*%
X-6350000Y-15240000D02*
X-5080000Y-13970000D01*
X-5080000Y-13970000D02*
X1905000Y-13970000D01*
X3175000Y-12700000D02*
X15240000Y-12700000D01*
X1905000Y-13970000D02*
X3175000Y-12700000D01*
X-10160000Y-13970000D02*
X-8890000Y-15240000D01*
X-8890000Y-15240000D02*
X-6350000Y-15240000D01*
%TO.N,Col10*%
X22860000Y-13970000D02*
X22225000Y-13970000D01*
X22225000Y-13970000D02*
X20955000Y-15240000D01*
D19*
%TO.N,GND*%
X15240000Y-7620000D02*
X16442081Y-7620000D01*
X-3572000Y-2540000D02*
X0Y-2540000D01*
X16442081Y-7620000D02*
X17780000Y-8957919D01*
X-4700200Y-1411800D02*
X-3572000Y-2540000D01*
X15240000Y-5080000D02*
X15240000Y-7620000D01*
X17780000Y-22660598D02*
X19249402Y-24130000D01*
X-10160000Y-40015000D02*
X-2530000Y-32385000D01*
X0Y-2540000D02*
X12700000Y-2540000D01*
X-2530000Y-32385000D02*
X19685000Y-32385000D01*
X12700000Y-2540000D02*
X15240000Y-5080000D01*
X25400000Y-32385000D02*
X19685000Y-32385000D01*
X-7620000Y-8890000D02*
X-6350000Y-8890000D01*
X17780000Y-8957919D02*
X17780000Y-22660598D01*
X-6350000Y-8890000D02*
X0Y-2540000D01*
X19249402Y-24130000D02*
X22860000Y-24130000D01*
%TD*%
%TA.AperFunction,NonConductor*%
G36*
X16345862Y-8091585D02*
G01*
X16357762Y-8102074D01*
X17342595Y-9086906D01*
X17376620Y-9149218D01*
X17379500Y-9176001D01*
X17379500Y-9537353D01*
X17359498Y-9605474D01*
X17305842Y-9651967D01*
X17235568Y-9662071D01*
X17170988Y-9632577D01*
X17164405Y-9626448D01*
X16195270Y-8657313D01*
X16195269Y-8657311D01*
X16107689Y-8569731D01*
X16098852Y-8565228D01*
X16088763Y-8560087D01*
X16071906Y-8549757D01*
X16062747Y-8543103D01*
X16054723Y-8537273D01*
X16045291Y-8534208D01*
X16044960Y-8534040D01*
X15993344Y-8485293D01*
X15976277Y-8416378D01*
X15999176Y-8349176D01*
X16006779Y-8339441D01*
X16098540Y-8233134D01*
X16098540Y-8233133D01*
X16102564Y-8228472D01*
X16105608Y-8223114D01*
X16159111Y-8128932D01*
X16210150Y-8079581D01*
X16279769Y-8065659D01*
X16345862Y-8091585D01*
G37*
%TD.AperFunction*%
%TA.AperFunction,NonConductor*%
G36*
X12550038Y-2960502D02*
G01*
X12571012Y-2977405D01*
X14212714Y-4619106D01*
X14246739Y-4681418D01*
X14243721Y-4746299D01*
X14207484Y-4860532D01*
X14184520Y-5065262D01*
X14201759Y-5270553D01*
X14258544Y-5468586D01*
X14261359Y-5474063D01*
X14261360Y-5474066D01*
X14282247Y-5514707D01*
X14352712Y-5651818D01*
X14480677Y-5813270D01*
X14637564Y-5946791D01*
X14774972Y-6023586D01*
X14824676Y-6074279D01*
X14839500Y-6133573D01*
X14839500Y-6567624D01*
X14819498Y-6635745D01*
X14771876Y-6679285D01*
X14662002Y-6736726D01*
X14501447Y-6865815D01*
X14369024Y-7023630D01*
X14366056Y-7029028D01*
X14366053Y-7029033D01*
X14272743Y-7198765D01*
X14269776Y-7204162D01*
X14207484Y-7400532D01*
X14206798Y-7406649D01*
X14206797Y-7406653D01*
X14185207Y-7599137D01*
X14184520Y-7605262D01*
X14201759Y-7810553D01*
X14203458Y-7816478D01*
X14245260Y-7962258D01*
X14258544Y-8008586D01*
X14261359Y-8014063D01*
X14261360Y-8014066D01*
X14349897Y-8186341D01*
X14352712Y-8191818D01*
X14433407Y-8293630D01*
X14434283Y-8294735D01*
X14460921Y-8360545D01*
X14447750Y-8430310D01*
X14398953Y-8481879D01*
X14335538Y-8499000D01*
X1484147Y-8499000D01*
X1416026Y-8478998D01*
X1395052Y-8462095D01*
X1023837Y-8090880D01*
X989811Y-8028568D01*
X993374Y-7962013D01*
X1007408Y-7919827D01*
X1029351Y-7853863D01*
X1055171Y-7649474D01*
X1055583Y-7620000D01*
X1035480Y-7414970D01*
X975935Y-7217749D01*
X879218Y-7035849D01*
X805859Y-6945902D01*
X752906Y-6880975D01*
X752903Y-6880972D01*
X749011Y-6876200D01*
X731786Y-6861950D01*
X595025Y-6748811D01*
X595021Y-6748809D01*
X590275Y-6744882D01*
X409055Y-6646897D01*
X212254Y-6585977D01*
X206129Y-6585333D01*
X206128Y-6585333D01*
X13498Y-6565087D01*
X13496Y-6565087D01*
X7369Y-6564443D01*
X-79471Y-6572346D01*
X-191658Y-6582555D01*
X-191661Y-6582556D01*
X-197797Y-6583114D01*
X-395428Y-6641280D01*
X-577998Y-6736726D01*
X-582799Y-6740586D01*
X-582802Y-6740588D01*
X-593029Y-6748811D01*
X-738553Y-6865815D01*
X-870976Y-7023630D01*
X-941906Y-7152653D01*
X-947980Y-7163701D01*
X-998325Y-7213759D01*
X-1058395Y-7229000D01*
X-2601929Y-7229000D01*
X-2611361Y-7232065D01*
X-2611363Y-7232065D01*
X-2622125Y-7235562D01*
X-2641351Y-7240178D01*
X-2662332Y-7243501D01*
X-2671166Y-7248002D01*
X-2671171Y-7248004D01*
X-2681256Y-7253143D01*
X-2699524Y-7260710D01*
X-2710288Y-7264207D01*
X-2710294Y-7264210D01*
X-2719724Y-7267274D01*
X-2727748Y-7273104D01*
X-2736905Y-7279757D01*
X-2753761Y-7290086D01*
X-2763851Y-7295227D01*
X-2763855Y-7295230D01*
X-2772689Y-7299731D01*
X-2794719Y-7321761D01*
X-4016060Y-8543103D01*
X-5205052Y-9732095D01*
X-5267364Y-9766121D01*
X-5294147Y-9769000D01*
X-6715741Y-9769000D01*
X-6783862Y-9748998D01*
X-6830355Y-9695342D01*
X-6840459Y-9625068D01*
X-6811122Y-9560669D01*
X-6761465Y-9503141D01*
X-6761460Y-9503134D01*
X-6757436Y-9498472D01*
X-6736613Y-9461818D01*
X-6702604Y-9401950D01*
X-6675514Y-9354263D01*
X-6624475Y-9304913D01*
X-6565958Y-9290500D01*
X-6286567Y-9290500D01*
X-6277136Y-9287436D01*
X-6277132Y-9287435D01*
X-6265647Y-9283703D01*
X-6246422Y-9279087D01*
X-6234488Y-9277197D01*
X-6234487Y-9277197D01*
X-6224696Y-9275646D01*
X-6215863Y-9271145D01*
X-6215859Y-9271144D01*
X-6205094Y-9265659D01*
X-6186834Y-9258095D01*
X-6165910Y-9251296D01*
X-6148107Y-9238361D01*
X-6131255Y-9228035D01*
X-6120498Y-9222554D01*
X-6111658Y-9218050D01*
X-6089095Y-9195487D01*
X-6089091Y-9195484D01*
X-1958870Y-5065262D01*
X-1055480Y-5065262D01*
X-1038241Y-5270553D01*
X-981456Y-5468586D01*
X-978641Y-5474063D01*
X-978640Y-5474066D01*
X-957753Y-5514707D01*
X-887288Y-5651818D01*
X-759323Y-5813270D01*
X-602436Y-5946791D01*
X-422602Y-6047297D01*
X-339560Y-6074279D01*
X-232529Y-6109056D01*
X-232525Y-6109057D01*
X-226671Y-6110959D01*
X-22106Y-6135351D01*
X-15971Y-6134879D01*
X-15969Y-6134879D01*
X40039Y-6130569D01*
X183300Y-6119546D01*
X189230Y-6117890D01*
X189232Y-6117890D01*
X375797Y-6065800D01*
X375796Y-6065800D01*
X381725Y-6064145D01*
X387214Y-6061372D01*
X387220Y-6061370D01*
X560116Y-5974033D01*
X565610Y-5971258D01*
X727951Y-5844424D01*
X862564Y-5688472D01*
X883387Y-5651818D01*
X961276Y-5514707D01*
X964323Y-5509344D01*
X1029351Y-5313863D01*
X1055171Y-5109474D01*
X1055583Y-5080000D01*
X1035480Y-4874970D01*
X975935Y-4677749D01*
X879218Y-4495849D01*
X805859Y-4405902D01*
X752906Y-4340975D01*
X752903Y-4340972D01*
X749011Y-4336200D01*
X731786Y-4321950D01*
X595025Y-4208811D01*
X595021Y-4208809D01*
X590275Y-4204882D01*
X409055Y-4106897D01*
X212254Y-4045977D01*
X206129Y-4045333D01*
X206128Y-4045333D01*
X13498Y-4025087D01*
X13496Y-4025087D01*
X7369Y-4024443D01*
X-79471Y-4032346D01*
X-191658Y-4042555D01*
X-191661Y-4042556D01*
X-197797Y-4043114D01*
X-395428Y-4101280D01*
X-577998Y-4196726D01*
X-582799Y-4200586D01*
X-582802Y-4200588D01*
X-593029Y-4208811D01*
X-738553Y-4325815D01*
X-870976Y-4483630D01*
X-873944Y-4489028D01*
X-873947Y-4489033D01*
X-967257Y-4658765D01*
X-970224Y-4664162D01*
X-1032516Y-4860532D01*
X-1033202Y-4866649D01*
X-1033203Y-4866653D01*
X-1054793Y-5059137D01*
X-1055480Y-5065262D01*
X-1958870Y-5065262D01*
X-460824Y-3567216D01*
X-398512Y-3533190D01*
X-332793Y-3536478D01*
X-232529Y-3569056D01*
X-232525Y-3569057D01*
X-226671Y-3570959D01*
X-22106Y-3595351D01*
X-15971Y-3594879D01*
X-15969Y-3594879D01*
X40039Y-3590569D01*
X183300Y-3579546D01*
X189230Y-3577890D01*
X189232Y-3577890D01*
X375797Y-3525800D01*
X375796Y-3525800D01*
X381725Y-3524145D01*
X387214Y-3521372D01*
X387220Y-3521370D01*
X560116Y-3434033D01*
X565610Y-3431258D01*
X727951Y-3304424D01*
X862564Y-3148472D01*
X883387Y-3111818D01*
X944486Y-3004263D01*
X995525Y-2954913D01*
X1054042Y-2940500D01*
X12481917Y-2940500D01*
X12550038Y-2960502D01*
G37*
%TD.AperFunction*%
%TA.AperFunction,NonConductor*%
G36*
X-989005Y-8031002D02*
G01*
X-945060Y-8079405D01*
X-887288Y-8191818D01*
X-759323Y-8353270D01*
X-754630Y-8357264D01*
X-754629Y-8357265D01*
X-609092Y-8481126D01*
X-602436Y-8486791D01*
X-422602Y-8587297D01*
X-370749Y-8604145D01*
X-232529Y-8649056D01*
X-232525Y-8649057D01*
X-226671Y-8650959D01*
X-22106Y-8675351D01*
X-15971Y-8674879D01*
X-15969Y-8674879D01*
X40523Y-8670532D01*
X183300Y-8659546D01*
X189230Y-8657890D01*
X189232Y-8657890D01*
X349477Y-8613149D01*
X420468Y-8614096D01*
X472456Y-8645413D01*
X949730Y-9122687D01*
X949731Y-9122689D01*
X1037311Y-9210269D01*
X1046147Y-9214772D01*
X1046148Y-9214772D01*
X1056237Y-9219913D01*
X1073094Y-9230243D01*
X1090277Y-9242727D01*
X1099708Y-9245791D01*
X1099711Y-9245793D01*
X1110479Y-9249292D01*
X1128739Y-9256855D01*
X1137185Y-9261158D01*
X1147668Y-9266499D01*
X1157457Y-9268049D01*
X1157462Y-9268051D01*
X1168648Y-9269823D01*
X1187867Y-9274437D01*
X1198635Y-9277935D01*
X1198640Y-9277936D01*
X1208071Y-9281000D01*
X14335972Y-9281000D01*
X14404093Y-9301002D01*
X14450586Y-9354658D01*
X14460690Y-9424932D01*
X14432493Y-9487991D01*
X14369024Y-9563630D01*
X14366056Y-9569028D01*
X14366053Y-9569033D01*
X14314906Y-9662071D01*
X14269776Y-9744162D01*
X14267914Y-9750031D01*
X14265485Y-9755699D01*
X14263458Y-9754830D01*
X14229342Y-9805481D01*
X14164140Y-9833575D01*
X14148901Y-9834500D01*
X2559713Y-9834500D01*
X2548732Y-9834021D01*
X2522170Y-9831697D01*
X2522168Y-9831697D01*
X2511193Y-9830737D01*
X2474783Y-9840492D01*
X2464076Y-9842866D01*
X2426955Y-9849412D01*
X2417411Y-9854922D01*
X2414135Y-9856114D01*
X2410964Y-9857593D01*
X2400316Y-9860446D01*
X2391287Y-9866768D01*
X2384717Y-9871368D01*
X2370035Y-9881649D01*
X2369449Y-9882059D01*
X2360179Y-9887964D01*
X2337092Y-9901293D01*
X2337088Y-9901296D01*
X2327545Y-9906806D01*
X2313684Y-9923325D01*
X2303320Y-9935676D01*
X2295894Y-9943779D01*
X1720382Y-10519292D01*
X1172079Y-11067595D01*
X1109767Y-11101620D01*
X1082984Y-11104500D01*
X847722Y-11104500D01*
X779601Y-11084498D01*
X733108Y-11030842D01*
X723004Y-10960568D01*
X752340Y-10896169D01*
X858540Y-10773134D01*
X858540Y-10773133D01*
X862564Y-10768472D01*
X883387Y-10731818D01*
X914389Y-10677244D01*
X964323Y-10589344D01*
X1029351Y-10393863D01*
X1055171Y-10189474D01*
X1055583Y-10160000D01*
X1035480Y-9954970D01*
X975935Y-9757749D01*
X879218Y-9575849D01*
X786216Y-9461818D01*
X752906Y-9420975D01*
X752903Y-9420972D01*
X749011Y-9416200D01*
X714371Y-9387543D01*
X595025Y-9288811D01*
X595021Y-9288809D01*
X590275Y-9284882D01*
X409055Y-9186897D01*
X212254Y-9125977D01*
X206129Y-9125333D01*
X206128Y-9125333D01*
X13498Y-9105087D01*
X13496Y-9105087D01*
X7369Y-9104443D01*
X-79471Y-9112346D01*
X-191658Y-9122555D01*
X-191661Y-9122556D01*
X-197797Y-9123114D01*
X-395428Y-9181280D01*
X-577998Y-9276726D01*
X-582799Y-9280586D01*
X-582802Y-9280588D01*
X-684227Y-9362136D01*
X-738553Y-9405815D01*
X-870976Y-9563630D01*
X-873944Y-9569028D01*
X-873947Y-9569033D01*
X-942813Y-9694301D01*
X-970224Y-9744162D01*
X-1032516Y-9940532D01*
X-1033202Y-9946649D01*
X-1033203Y-9946653D01*
X-1049223Y-10089481D01*
X-1055480Y-10145262D01*
X-1054964Y-10151406D01*
X-1040642Y-10321957D01*
X-1038241Y-10350553D01*
X-1036542Y-10356478D01*
X-983524Y-10541373D01*
X-981456Y-10548586D01*
X-978641Y-10554063D01*
X-978640Y-10554066D01*
X-906245Y-10694932D01*
X-887288Y-10731818D01*
X-759323Y-10893270D01*
X-759450Y-10893370D01*
X-727773Y-10953870D01*
X-734073Y-11024586D01*
X-777605Y-11080671D01*
X-851342Y-11104500D01*
X-3790287Y-11104500D01*
X-3801268Y-11104021D01*
X-3827830Y-11101697D01*
X-3827832Y-11101697D01*
X-3838807Y-11100737D01*
X-3875217Y-11110492D01*
X-3885924Y-11112866D01*
X-3923045Y-11119412D01*
X-3932589Y-11124922D01*
X-3935865Y-11126114D01*
X-3939036Y-11127593D01*
X-3949684Y-11130446D01*
X-3958713Y-11136768D01*
X-3980551Y-11152059D01*
X-3989821Y-11157964D01*
X-4012908Y-11171293D01*
X-4012912Y-11171296D01*
X-4022455Y-11176806D01*
X-4040147Y-11197890D01*
X-4046680Y-11205676D01*
X-4054106Y-11213779D01*
X-5177921Y-12337595D01*
X-5240233Y-12371620D01*
X-5267016Y-12374500D01*
X-6772278Y-12374500D01*
X-6840399Y-12354498D01*
X-6886892Y-12300842D01*
X-6896996Y-12230568D01*
X-6867660Y-12166169D01*
X-6761460Y-12043134D01*
X-6761460Y-12043133D01*
X-6757436Y-12038472D01*
X-6736613Y-12001818D01*
X-6707485Y-11950543D01*
X-6655677Y-11859344D01*
X-6590649Y-11663863D01*
X-6564829Y-11459474D01*
X-6564417Y-11430000D01*
X-6584520Y-11224970D01*
X-6644065Y-11027749D01*
X-6740782Y-10845849D01*
X-6750747Y-10833630D01*
X-6800087Y-10773134D01*
X-6813543Y-10756635D01*
X-6841097Y-10691205D01*
X-6828902Y-10621263D01*
X-6780830Y-10569018D01*
X-6715900Y-10551000D01*
X-5018072Y-10551000D01*
X-5008640Y-10547935D01*
X-5008638Y-10547935D01*
X-4997876Y-10544438D01*
X-4978649Y-10539822D01*
X-4967464Y-10538051D01*
X-4967461Y-10538050D01*
X-4957668Y-10536499D01*
X-4948834Y-10531998D01*
X-4948829Y-10531996D01*
X-4938744Y-10526857D01*
X-4920474Y-10519289D01*
X-4918922Y-10518785D01*
X-4900277Y-10512727D01*
X-4892256Y-10506900D01*
X-4892253Y-10506898D01*
X-4883094Y-10500243D01*
X-4866237Y-10489913D01*
X-4856148Y-10484772D01*
X-4856147Y-10484772D01*
X-4847311Y-10480269D01*
X-4759731Y-10392689D01*
X-4759730Y-10392687D01*
X-3589597Y-9222554D01*
X-2414947Y-8047905D01*
X-2352635Y-8013879D01*
X-2325852Y-8011000D01*
X-1057126Y-8011000D01*
X-989005Y-8031002D01*
G37*
%TD.AperFunction*%
%TA.AperFunction,NonConductor*%
G36*
X26265403Y-12164412D02*
G01*
X26321183Y-12208334D01*
X26344500Y-12281357D01*
X26344500Y-13120159D01*
X26324498Y-13188280D01*
X26270842Y-13234773D01*
X26200568Y-13244877D01*
X26138186Y-13217245D01*
X25990275Y-13094882D01*
X25809055Y-12996897D01*
X25612254Y-12935977D01*
X25606129Y-12935333D01*
X25606128Y-12935333D01*
X25413498Y-12915087D01*
X25413496Y-12915087D01*
X25407369Y-12914443D01*
X25320529Y-12922346D01*
X25208342Y-12932555D01*
X25208339Y-12932556D01*
X25202203Y-12933114D01*
X25004572Y-12991280D01*
X24999107Y-12994137D01*
X24937375Y-13026410D01*
X24822002Y-13086726D01*
X24817201Y-13090586D01*
X24817198Y-13090588D01*
X24719136Y-13169432D01*
X24661447Y-13215815D01*
X24529024Y-13373630D01*
X24526056Y-13379028D01*
X24526053Y-13379033D01*
X24459239Y-13500568D01*
X24429776Y-13554162D01*
X24367484Y-13750532D01*
X24366798Y-13756649D01*
X24366797Y-13756653D01*
X24347692Y-13926981D01*
X24344520Y-13955262D01*
X24361759Y-14160553D01*
X24363458Y-14166478D01*
X24411037Y-14332405D01*
X24418544Y-14358586D01*
X24421361Y-14364067D01*
X24421537Y-14364410D01*
X24421575Y-14364608D01*
X24423630Y-14369799D01*
X24422644Y-14370190D01*
X24434888Y-14434140D01*
X24408420Y-14500019D01*
X24398569Y-14511104D01*
X24032079Y-14877595D01*
X23969766Y-14911620D01*
X23942983Y-14914500D01*
X23707722Y-14914500D01*
X23639601Y-14894498D01*
X23593108Y-14840842D01*
X23583004Y-14770568D01*
X23612340Y-14706169D01*
X23718540Y-14583134D01*
X23718540Y-14583133D01*
X23722564Y-14578472D01*
X23743387Y-14541818D01*
X23771533Y-14492271D01*
X23824323Y-14399344D01*
X23889351Y-14203863D01*
X23915171Y-13999474D01*
X23915583Y-13970000D01*
X23895480Y-13764970D01*
X23835935Y-13567749D01*
X23739218Y-13385849D01*
X23613037Y-13231136D01*
X23585483Y-13165704D01*
X23597678Y-13095763D01*
X23645751Y-13043518D01*
X23710680Y-13025500D01*
X24110290Y-13025500D01*
X24121272Y-13025980D01*
X24147820Y-13028303D01*
X24147822Y-13028303D01*
X24158807Y-13029264D01*
X24195215Y-13019508D01*
X24205942Y-13017130D01*
X24209301Y-13016538D01*
X24243045Y-13010588D01*
X24252590Y-13005077D01*
X24255866Y-13003885D01*
X24259034Y-13002408D01*
X24269684Y-12999554D01*
X24300550Y-12977941D01*
X24309815Y-12972039D01*
X24332910Y-12958705D01*
X24332911Y-12958704D01*
X24342455Y-12953194D01*
X24366685Y-12924319D01*
X24374110Y-12916217D01*
X24859122Y-12431205D01*
X24921434Y-12397179D01*
X24987153Y-12400467D01*
X25167471Y-12459056D01*
X25167475Y-12459057D01*
X25173329Y-12460959D01*
X25377894Y-12485351D01*
X25384029Y-12484879D01*
X25384031Y-12484879D01*
X25440523Y-12480532D01*
X25583300Y-12469546D01*
X25589230Y-12467890D01*
X25589232Y-12467890D01*
X25742080Y-12425214D01*
X25781725Y-12414145D01*
X25787214Y-12411372D01*
X25787220Y-12411370D01*
X25960116Y-12324033D01*
X25965610Y-12321258D01*
X25991742Y-12300842D01*
X26123095Y-12198218D01*
X26123096Y-12198217D01*
X26127951Y-12194424D01*
X26131726Y-12190051D01*
X26194732Y-12157619D01*
X26265403Y-12164412D01*
G37*
%TD.AperFunction*%
%TA.AperFunction,NonConductor*%
G36*
X-780946Y-11775502D02*
G01*
X-734453Y-11829158D01*
X-724349Y-11899432D01*
X-752546Y-11962491D01*
X-870976Y-12103630D01*
X-873944Y-12109028D01*
X-873947Y-12109033D01*
X-940761Y-12230568D01*
X-970224Y-12284162D01*
X-1032516Y-12480532D01*
X-1033202Y-12486649D01*
X-1033203Y-12486653D01*
X-1054793Y-12679137D01*
X-1055480Y-12685262D01*
X-1038241Y-12890553D01*
X-1036542Y-12896478D01*
X-988963Y-13062405D01*
X-981456Y-13088586D01*
X-978641Y-13094063D01*
X-978640Y-13094066D01*
X-901134Y-13244877D01*
X-887288Y-13271818D01*
X-759323Y-13433270D01*
X-759450Y-13433370D01*
X-727773Y-13493870D01*
X-734073Y-13564586D01*
X-777605Y-13620671D01*
X-851342Y-13644500D01*
X-5060287Y-13644500D01*
X-5071268Y-13644021D01*
X-5097830Y-13641697D01*
X-5097832Y-13641697D01*
X-5108807Y-13640737D01*
X-5145217Y-13650492D01*
X-5155924Y-13652866D01*
X-5193045Y-13659412D01*
X-5202589Y-13664922D01*
X-5205865Y-13666114D01*
X-5209036Y-13667593D01*
X-5219684Y-13670446D01*
X-5228713Y-13676768D01*
X-5250551Y-13692059D01*
X-5259821Y-13697964D01*
X-5282908Y-13711293D01*
X-5282912Y-13711296D01*
X-5292455Y-13716806D01*
X-5310147Y-13737890D01*
X-5316680Y-13745676D01*
X-5324106Y-13753779D01*
X-6447921Y-14877595D01*
X-6510233Y-14911620D01*
X-6537016Y-14914500D01*
X-6772278Y-14914500D01*
X-6840399Y-14894498D01*
X-6886892Y-14840842D01*
X-6896996Y-14770568D01*
X-6867660Y-14706169D01*
X-6761460Y-14583134D01*
X-6761460Y-14583133D01*
X-6757436Y-14578472D01*
X-6736613Y-14541818D01*
X-6708467Y-14492271D01*
X-6655677Y-14399344D01*
X-6590649Y-14203863D01*
X-6564829Y-13999474D01*
X-6564417Y-13970000D01*
X-6584520Y-13764970D01*
X-6644065Y-13567749D01*
X-6740782Y-13385849D01*
X-6866963Y-13231136D01*
X-6894517Y-13165704D01*
X-6882322Y-13095763D01*
X-6834249Y-13043518D01*
X-6769320Y-13025500D01*
X-5099710Y-13025500D01*
X-5088728Y-13025980D01*
X-5062180Y-13028303D01*
X-5062178Y-13028303D01*
X-5051193Y-13029264D01*
X-5014785Y-13019508D01*
X-5004058Y-13017130D01*
X-5000699Y-13016538D01*
X-4966955Y-13010588D01*
X-4957410Y-13005077D01*
X-4954134Y-13003885D01*
X-4950966Y-13002408D01*
X-4940316Y-12999554D01*
X-4909450Y-12977941D01*
X-4900185Y-12972039D01*
X-4877090Y-12958705D01*
X-4877089Y-12958704D01*
X-4867545Y-12953194D01*
X-4843315Y-12924319D01*
X-4835890Y-12916217D01*
X-3712078Y-11792405D01*
X-3649766Y-11758379D01*
X-3622983Y-11755500D01*
X-849067Y-11755500D01*
X-780946Y-11775502D01*
G37*
%TD.AperFunction*%
%TA.AperFunction,NonConductor*%
G36*
X-780946Y-14315502D02*
G01*
X-734453Y-14369158D01*
X-724349Y-14439432D01*
X-752546Y-14502491D01*
X-870976Y-14643630D01*
X-873944Y-14649028D01*
X-873947Y-14649033D01*
X-963383Y-14811718D01*
X-970224Y-14824162D01*
X-1032516Y-15020532D01*
X-1033202Y-15026649D01*
X-1033203Y-15026653D01*
X-1038694Y-15075609D01*
X-1055480Y-15225262D01*
X-1038241Y-15430553D01*
X-1036542Y-15436478D01*
X-998466Y-15569264D01*
X-981456Y-15628586D01*
X-978641Y-15634063D01*
X-978640Y-15634066D01*
X-905154Y-15777054D01*
X-887288Y-15811818D01*
X-759323Y-15973270D01*
X-759450Y-15973370D01*
X-727773Y-16033870D01*
X-734073Y-16104586D01*
X-777605Y-16160671D01*
X-851342Y-16184500D01*
X-1250287Y-16184500D01*
X-1261268Y-16184021D01*
X-1287830Y-16181697D01*
X-1287832Y-16181697D01*
X-1298807Y-16180737D01*
X-1335217Y-16190492D01*
X-1345924Y-16192866D01*
X-1383045Y-16199412D01*
X-1392589Y-16204922D01*
X-1395865Y-16206114D01*
X-1399036Y-16207593D01*
X-1409684Y-16210446D01*
X-1418713Y-16216768D01*
X-1440551Y-16232059D01*
X-1449821Y-16237964D01*
X-1472908Y-16251293D01*
X-1472912Y-16251296D01*
X-1482455Y-16256806D01*
X-1500147Y-16277890D01*
X-1506680Y-16285676D01*
X-1514106Y-16293779D01*
X-2637921Y-17417595D01*
X-2700233Y-17451620D01*
X-2727016Y-17454500D01*
X-6772278Y-17454500D01*
X-6840399Y-17434498D01*
X-6886892Y-17380842D01*
X-6896996Y-17310568D01*
X-6867660Y-17246169D01*
X-6761460Y-17123134D01*
X-6761460Y-17123133D01*
X-6757436Y-17118472D01*
X-6736613Y-17081818D01*
X-6706898Y-17029509D01*
X-6655677Y-16939344D01*
X-6590649Y-16743863D01*
X-6564829Y-16539474D01*
X-6564417Y-16510000D01*
X-6584520Y-16304970D01*
X-6644065Y-16107749D01*
X-6740782Y-15925849D01*
X-6855756Y-15784877D01*
X-6866963Y-15771136D01*
X-6894517Y-15705704D01*
X-6882322Y-15635763D01*
X-6834249Y-15583518D01*
X-6769320Y-15565500D01*
X-6369710Y-15565500D01*
X-6358728Y-15565980D01*
X-6332180Y-15568303D01*
X-6332178Y-15568303D01*
X-6321193Y-15569264D01*
X-6284785Y-15559508D01*
X-6274058Y-15557130D01*
X-6270699Y-15556538D01*
X-6236955Y-15550588D01*
X-6227410Y-15545077D01*
X-6224134Y-15543885D01*
X-6220966Y-15542408D01*
X-6210316Y-15539554D01*
X-6179450Y-15517941D01*
X-6170185Y-15512039D01*
X-6147090Y-15498705D01*
X-6147089Y-15498704D01*
X-6137545Y-15493194D01*
X-6113315Y-15464319D01*
X-6105890Y-15456217D01*
X-4982078Y-14332405D01*
X-4919766Y-14298379D01*
X-4892983Y-14295500D01*
X-849067Y-14295500D01*
X-780946Y-14315502D01*
G37*
%TD.AperFunction*%
%TA.AperFunction,NonConductor*%
G36*
X-780946Y-16855502D02*
G01*
X-734453Y-16909158D01*
X-724349Y-16979432D01*
X-752546Y-17042491D01*
X-870976Y-17183630D01*
X-873944Y-17189028D01*
X-873947Y-17189033D01*
X-940761Y-17310568D01*
X-970224Y-17364162D01*
X-1032516Y-17560532D01*
X-1033202Y-17566649D01*
X-1033203Y-17566653D01*
X-1054793Y-17759137D01*
X-1055480Y-17765262D01*
X-1038241Y-17970553D01*
X-1036542Y-17976478D01*
X-988963Y-18142405D01*
X-981456Y-18168586D01*
X-978641Y-18174063D01*
X-978640Y-18174066D01*
X-901134Y-18324877D01*
X-887288Y-18351818D01*
X-759323Y-18513270D01*
X-759450Y-18513370D01*
X-727773Y-18573870D01*
X-734073Y-18644586D01*
X-777605Y-18700671D01*
X-851342Y-18724500D01*
X-6528731Y-18724500D01*
X-6596852Y-18704498D01*
X-6643992Y-18647991D01*
X-6644065Y-18647749D01*
X-6740782Y-18465849D01*
X-6866963Y-18311136D01*
X-6894517Y-18245704D01*
X-6882322Y-18175763D01*
X-6834249Y-18123518D01*
X-6769320Y-18105500D01*
X-2559710Y-18105500D01*
X-2548728Y-18105980D01*
X-2522180Y-18108303D01*
X-2522178Y-18108303D01*
X-2511193Y-18109264D01*
X-2474785Y-18099508D01*
X-2464058Y-18097130D01*
X-2460699Y-18096538D01*
X-2426955Y-18090588D01*
X-2417410Y-18085077D01*
X-2414134Y-18083885D01*
X-2410966Y-18082408D01*
X-2400316Y-18079554D01*
X-2369450Y-18057941D01*
X-2360185Y-18052039D01*
X-2337090Y-18038705D01*
X-2337089Y-18038704D01*
X-2327545Y-18033194D01*
X-2303315Y-18004319D01*
X-2295890Y-17996217D01*
X-1172078Y-16872405D01*
X-1109766Y-16838379D01*
X-1082983Y-16835500D01*
X-849067Y-16835500D01*
X-780946Y-16855502D01*
G37*
%TD.AperFunction*%
%TA.AperFunction,NonConductor*%
G36*
X-780946Y-19395502D02*
G01*
X-734453Y-19449158D01*
X-724349Y-19519432D01*
X-752546Y-19582491D01*
X-870976Y-19723630D01*
X-873944Y-19729028D01*
X-873947Y-19729033D01*
X-940761Y-19850568D01*
X-970224Y-19904162D01*
X-1032516Y-20100532D01*
X-1033202Y-20106649D01*
X-1033203Y-20106653D01*
X-1054793Y-20299137D01*
X-1055480Y-20305262D01*
X-1038241Y-20510553D01*
X-1036542Y-20516478D01*
X-988963Y-20682405D01*
X-981456Y-20708586D01*
X-978641Y-20714063D01*
X-978640Y-20714066D01*
X-901134Y-20864877D01*
X-887288Y-20891818D01*
X-759323Y-21053270D01*
X-759450Y-21053370D01*
X-727773Y-21113870D01*
X-734073Y-21184586D01*
X-777605Y-21240671D01*
X-851342Y-21264500D01*
X-4795230Y-21264500D01*
X-4863351Y-21244498D01*
X-4884325Y-21227595D01*
X-6008137Y-20103784D01*
X-6015564Y-20095680D01*
X-6020711Y-20089546D01*
X-6039792Y-20066806D01*
X-6049341Y-20061293D01*
X-6072432Y-20047961D01*
X-6081703Y-20042055D01*
X-6090636Y-20035800D01*
X-6112563Y-20020446D01*
X-6123213Y-20017592D01*
X-6126381Y-20016115D01*
X-6129657Y-20014923D01*
X-6139202Y-20009412D01*
X-6172946Y-20003462D01*
X-6176305Y-20002870D01*
X-6187032Y-20000492D01*
X-6223440Y-19990736D01*
X-6234425Y-19991697D01*
X-6234427Y-19991697D01*
X-6260975Y-19994020D01*
X-6271957Y-19994500D01*
X-6772278Y-19994500D01*
X-6840399Y-19974498D01*
X-6886892Y-19920842D01*
X-6896996Y-19850568D01*
X-6867660Y-19786169D01*
X-6761460Y-19663134D01*
X-6761460Y-19663133D01*
X-6757436Y-19658472D01*
X-6736613Y-19621818D01*
X-6678450Y-19519432D01*
X-6655677Y-19479344D01*
X-6649816Y-19461726D01*
X-6609334Y-19403403D01*
X-6543746Y-19376224D01*
X-6530259Y-19375500D01*
X-849067Y-19375500D01*
X-780946Y-19395502D01*
G37*
%TD.AperFunction*%
%TA.AperFunction,NonConductor*%
G36*
X22079054Y-13045502D02*
G01*
X22125547Y-13099158D01*
X22135651Y-13169432D01*
X22107454Y-13232491D01*
X21989024Y-13373630D01*
X21986056Y-13379028D01*
X21986053Y-13379033D01*
X21919239Y-13500568D01*
X21889776Y-13554162D01*
X21827484Y-13750532D01*
X21826798Y-13756649D01*
X21826797Y-13756653D01*
X21820537Y-13812467D01*
X21812610Y-13883134D01*
X21785140Y-13948598D01*
X21776491Y-13958182D01*
X21127382Y-14607291D01*
X21065070Y-14641317D01*
X21021843Y-14643118D01*
X20955000Y-14634318D01*
X20798238Y-14654956D01*
X20652159Y-14715464D01*
X20526718Y-14811718D01*
X20521695Y-14818264D01*
X20504370Y-14840842D01*
X20430464Y-14937159D01*
X20369956Y-15083238D01*
X20349318Y-15240000D01*
X20369956Y-15396762D01*
X20430464Y-15542841D01*
X20526718Y-15668282D01*
X20652159Y-15764536D01*
X20657450Y-15766728D01*
X20705636Y-15817262D01*
X20719074Y-15886975D01*
X20692688Y-15952886D01*
X20657776Y-15983137D01*
X20652159Y-15985464D01*
X20526718Y-16081718D01*
X20521695Y-16088264D01*
X20504370Y-16110842D01*
X20430464Y-16207159D01*
X20369956Y-16353238D01*
X20349318Y-16510000D01*
X20369956Y-16666762D01*
X20430464Y-16812841D01*
X20526718Y-16938282D01*
X20652159Y-17034536D01*
X20798238Y-17095044D01*
X20955000Y-17115682D01*
X20963188Y-17114604D01*
X21103574Y-17096122D01*
X21111762Y-17095044D01*
X21257841Y-17034536D01*
X21383282Y-16938282D01*
X21479536Y-16812841D01*
X21540044Y-16666762D01*
X21557685Y-16532765D01*
X21586407Y-16467838D01*
X21645673Y-16428746D01*
X21716664Y-16427901D01*
X21776843Y-16465571D01*
X21807102Y-16529796D01*
X21808165Y-16538667D01*
X21821759Y-16700553D01*
X21823458Y-16706478D01*
X21871037Y-16872405D01*
X21878544Y-16898586D01*
X21881359Y-16904063D01*
X21881360Y-16904066D01*
X21951804Y-17041136D01*
X21972712Y-17081818D01*
X22100677Y-17243270D01*
X22105370Y-17247264D01*
X22105371Y-17247265D01*
X22249626Y-17370035D01*
X22257564Y-17376791D01*
X22437398Y-17477297D01*
X22531781Y-17507964D01*
X22627471Y-17539056D01*
X22627475Y-17539057D01*
X22633329Y-17540959D01*
X22837894Y-17565351D01*
X22844029Y-17564879D01*
X22844031Y-17564879D01*
X22900523Y-17560532D01*
X23043300Y-17549546D01*
X23049230Y-17547890D01*
X23049232Y-17547890D01*
X23235797Y-17495800D01*
X23235796Y-17495800D01*
X23241725Y-17494145D01*
X23247214Y-17491372D01*
X23247220Y-17491370D01*
X23420116Y-17404033D01*
X23425610Y-17401258D01*
X23451742Y-17380842D01*
X23506780Y-17337841D01*
X23587951Y-17274424D01*
X23613857Y-17244412D01*
X23718540Y-17123134D01*
X23718540Y-17123133D01*
X23722564Y-17118472D01*
X23743387Y-17081818D01*
X23773102Y-17029509D01*
X23824323Y-16939344D01*
X23889351Y-16743863D01*
X23915171Y-16539474D01*
X23915583Y-16510000D01*
X23895480Y-16304970D01*
X23835935Y-16107749D01*
X23739218Y-15925849D01*
X23624244Y-15784877D01*
X23613037Y-15771136D01*
X23585483Y-15705704D01*
X23597678Y-15635763D01*
X23645751Y-15583518D01*
X23710680Y-15565500D01*
X24110290Y-15565500D01*
X24121272Y-15565980D01*
X24147820Y-15568303D01*
X24147822Y-15568303D01*
X24158807Y-15569264D01*
X24195215Y-15559508D01*
X24205942Y-15557130D01*
X24209301Y-15556538D01*
X24243045Y-15550588D01*
X24252590Y-15545077D01*
X24255866Y-15543885D01*
X24259034Y-15542408D01*
X24269684Y-15539554D01*
X24300550Y-15517941D01*
X24309815Y-15512039D01*
X24332910Y-15498705D01*
X24332911Y-15498704D01*
X24342455Y-15493194D01*
X24366685Y-15464319D01*
X24374110Y-15456217D01*
X24859122Y-14971205D01*
X24921434Y-14937179D01*
X24987153Y-14940467D01*
X25167471Y-14999056D01*
X25167475Y-14999057D01*
X25173329Y-15000959D01*
X25377894Y-15025351D01*
X25384029Y-15024879D01*
X25384031Y-15024879D01*
X25440523Y-15020532D01*
X25583300Y-15009546D01*
X25589230Y-15007890D01*
X25589232Y-15007890D01*
X25742080Y-14965214D01*
X25781725Y-14954145D01*
X25787214Y-14951372D01*
X25787220Y-14951370D01*
X25960116Y-14864033D01*
X25965610Y-14861258D01*
X25991742Y-14840842D01*
X26123095Y-14738218D01*
X26123096Y-14738217D01*
X26127951Y-14734424D01*
X26131726Y-14730051D01*
X26194732Y-14697619D01*
X26265403Y-14704412D01*
X26321183Y-14748334D01*
X26344500Y-14821357D01*
X26344500Y-15660159D01*
X26324498Y-15728280D01*
X26270842Y-15774773D01*
X26200568Y-15784877D01*
X26138186Y-15757245D01*
X25990275Y-15634882D01*
X25809055Y-15536897D01*
X25612254Y-15475977D01*
X25606129Y-15475333D01*
X25606128Y-15475333D01*
X25413498Y-15455087D01*
X25413496Y-15455087D01*
X25407369Y-15454443D01*
X25320529Y-15462346D01*
X25208342Y-15472555D01*
X25208339Y-15472556D01*
X25202203Y-15473114D01*
X25004572Y-15531280D01*
X24999107Y-15534137D01*
X24937375Y-15566410D01*
X24822002Y-15626726D01*
X24817201Y-15630586D01*
X24817198Y-15630588D01*
X24719136Y-15709432D01*
X24661447Y-15755815D01*
X24529024Y-15913630D01*
X24526056Y-15919028D01*
X24526053Y-15919033D01*
X24436617Y-16081718D01*
X24429776Y-16094162D01*
X24367484Y-16290532D01*
X24366798Y-16296649D01*
X24366797Y-16296653D01*
X24361306Y-16345609D01*
X24344520Y-16495262D01*
X24361759Y-16700553D01*
X24363458Y-16706478D01*
X24411037Y-16872405D01*
X24418544Y-16898586D01*
X24421359Y-16904063D01*
X24421360Y-16904066D01*
X24491804Y-17041136D01*
X24512712Y-17081818D01*
X24640677Y-17243270D01*
X24645370Y-17247264D01*
X24645371Y-17247265D01*
X24789626Y-17370035D01*
X24797564Y-17376791D01*
X24977398Y-17477297D01*
X25071781Y-17507964D01*
X25167471Y-17539056D01*
X25167475Y-17539057D01*
X25173329Y-17540959D01*
X25377894Y-17565351D01*
X25384029Y-17564879D01*
X25384031Y-17564879D01*
X25440523Y-17560532D01*
X25583300Y-17549546D01*
X25589230Y-17547890D01*
X25589232Y-17547890D01*
X25775797Y-17495800D01*
X25775796Y-17495800D01*
X25781725Y-17494145D01*
X25787214Y-17491372D01*
X25787220Y-17491370D01*
X25960116Y-17404033D01*
X25965610Y-17401258D01*
X25991742Y-17380842D01*
X26123095Y-17278218D01*
X26123096Y-17278217D01*
X26127951Y-17274424D01*
X26131726Y-17270051D01*
X26194732Y-17237619D01*
X26265403Y-17244412D01*
X26321183Y-17288334D01*
X26344500Y-17361357D01*
X26344500Y-18200159D01*
X26324498Y-18268280D01*
X26270842Y-18314773D01*
X26200568Y-18324877D01*
X26138186Y-18297245D01*
X25990275Y-18174882D01*
X25809055Y-18076897D01*
X25612254Y-18015977D01*
X25606129Y-18015333D01*
X25606128Y-18015333D01*
X25413498Y-17995087D01*
X25413496Y-17995087D01*
X25407369Y-17994443D01*
X25320529Y-18002346D01*
X25208342Y-18012555D01*
X25208339Y-18012556D01*
X25202203Y-18013114D01*
X25004572Y-18071280D01*
X24999107Y-18074137D01*
X24937375Y-18106410D01*
X24822002Y-18166726D01*
X24817201Y-18170586D01*
X24817198Y-18170588D01*
X24719136Y-18249432D01*
X24661447Y-18295815D01*
X24529024Y-18453630D01*
X24526056Y-18459028D01*
X24526053Y-18459033D01*
X24462285Y-18575028D01*
X24429776Y-18634162D01*
X24367484Y-18830532D01*
X24366798Y-18836649D01*
X24366797Y-18836653D01*
X24345207Y-19029137D01*
X24344520Y-19035262D01*
X24361759Y-19240553D01*
X24363458Y-19246478D01*
X24411037Y-19412405D01*
X24418544Y-19438586D01*
X24421359Y-19444063D01*
X24421360Y-19444066D01*
X24491804Y-19581136D01*
X24512712Y-19621818D01*
X24640677Y-19783270D01*
X24645370Y-19787264D01*
X24645371Y-19787265D01*
X24789626Y-19910035D01*
X24797564Y-19916791D01*
X24977398Y-20017297D01*
X25071772Y-20047961D01*
X25167471Y-20079056D01*
X25167475Y-20079057D01*
X25173329Y-20080959D01*
X25377894Y-20105351D01*
X25384029Y-20104879D01*
X25384031Y-20104879D01*
X25440523Y-20100532D01*
X25583300Y-20089546D01*
X25589230Y-20087890D01*
X25589232Y-20087890D01*
X25742080Y-20045214D01*
X25781725Y-20034145D01*
X25787214Y-20031372D01*
X25787220Y-20031370D01*
X25960116Y-19944033D01*
X25965610Y-19941258D01*
X25991742Y-19920842D01*
X26123095Y-19818218D01*
X26123096Y-19818217D01*
X26127951Y-19814424D01*
X26131726Y-19810051D01*
X26194732Y-19777619D01*
X26265403Y-19784412D01*
X26321183Y-19828334D01*
X26344500Y-19901357D01*
X26344500Y-20740159D01*
X26324498Y-20808280D01*
X26270842Y-20854773D01*
X26200568Y-20864877D01*
X26138186Y-20837245D01*
X25990275Y-20714882D01*
X25809055Y-20616897D01*
X25612254Y-20555977D01*
X25606129Y-20555333D01*
X25606128Y-20555333D01*
X25413498Y-20535087D01*
X25413496Y-20535087D01*
X25407369Y-20534443D01*
X25320529Y-20542346D01*
X25208342Y-20552555D01*
X25208339Y-20552556D01*
X25202203Y-20553114D01*
X25004572Y-20611280D01*
X24822002Y-20706726D01*
X24817201Y-20710586D01*
X24817198Y-20710588D01*
X24719136Y-20789432D01*
X24661447Y-20835815D01*
X24529024Y-20993630D01*
X24526056Y-20999028D01*
X24526053Y-20999033D01*
X24462285Y-21115028D01*
X24429776Y-21174162D01*
X24367484Y-21370532D01*
X24366798Y-21376649D01*
X24366797Y-21376653D01*
X24345207Y-21569137D01*
X24344520Y-21575262D01*
X24345036Y-21581406D01*
X24357734Y-21732616D01*
X24361759Y-21780553D01*
X24363458Y-21786478D01*
X24411037Y-21952405D01*
X24418544Y-21978586D01*
X24421359Y-21984063D01*
X24421360Y-21984066D01*
X24491804Y-22121136D01*
X24512712Y-22161818D01*
X24640677Y-22323270D01*
X24645370Y-22327264D01*
X24645371Y-22327265D01*
X24789626Y-22450035D01*
X24797564Y-22456791D01*
X24802942Y-22459797D01*
X24802944Y-22459798D01*
X24834563Y-22477469D01*
X24977398Y-22557297D01*
X25072238Y-22588113D01*
X25167471Y-22619056D01*
X25167475Y-22619057D01*
X25173329Y-22620959D01*
X25377894Y-22645351D01*
X25384029Y-22644879D01*
X25384031Y-22644879D01*
X25440523Y-22640532D01*
X25583300Y-22629546D01*
X25589230Y-22627890D01*
X25589232Y-22627890D01*
X25775797Y-22575800D01*
X25775796Y-22575800D01*
X25781725Y-22574145D01*
X25787214Y-22571372D01*
X25787220Y-22571370D01*
X25960116Y-22484033D01*
X25965610Y-22481258D01*
X25978405Y-22471262D01*
X26123095Y-22358218D01*
X26123096Y-22358217D01*
X26127951Y-22354424D01*
X26131726Y-22350051D01*
X26194732Y-22317619D01*
X26265403Y-22324412D01*
X26321183Y-22368334D01*
X26344500Y-22441357D01*
X26344500Y-22995689D01*
X26324498Y-23063810D01*
X26270842Y-23110303D01*
X26200568Y-23120407D01*
X26176752Y-23114572D01*
X26120600Y-23094853D01*
X26085369Y-23082481D01*
X26077723Y-23081758D01*
X26077722Y-23081758D01*
X26071752Y-23081194D01*
X26053834Y-23079500D01*
X24746166Y-23079500D01*
X24728248Y-23081194D01*
X24722278Y-23081758D01*
X24722277Y-23081758D01*
X24714631Y-23082481D01*
X24586816Y-23127366D01*
X24579246Y-23132958D01*
X24579243Y-23132959D01*
X24516216Y-23179512D01*
X24477850Y-23207850D01*
X24472258Y-23215421D01*
X24402959Y-23309243D01*
X24402958Y-23309246D01*
X24397366Y-23316816D01*
X24352481Y-23444631D01*
X24349500Y-23476166D01*
X24349500Y-24575353D01*
X24329498Y-24643474D01*
X24312595Y-24664448D01*
X24004948Y-24972095D01*
X23942636Y-25006121D01*
X23915853Y-25009000D01*
X23764259Y-25009000D01*
X23696138Y-24988998D01*
X23649645Y-24935342D01*
X23639541Y-24865068D01*
X23668878Y-24800669D01*
X23718535Y-24743141D01*
X23718540Y-24743134D01*
X23722564Y-24738472D01*
X23743387Y-24701818D01*
X23772515Y-24650543D01*
X23824323Y-24559344D01*
X23889351Y-24363863D01*
X23915171Y-24159474D01*
X23915583Y-24130000D01*
X23895480Y-23924970D01*
X23835935Y-23727749D01*
X23739218Y-23545849D01*
X23646216Y-23431818D01*
X23612906Y-23390975D01*
X23612903Y-23390972D01*
X23609011Y-23386200D01*
X23535878Y-23325699D01*
X23455025Y-23258811D01*
X23455021Y-23258809D01*
X23450275Y-23254882D01*
X23269055Y-23156897D01*
X23072254Y-23095977D01*
X23066129Y-23095333D01*
X23066128Y-23095333D01*
X22873498Y-23075087D01*
X22873496Y-23075087D01*
X22867369Y-23074443D01*
X22786988Y-23081758D01*
X22668342Y-23092555D01*
X22668339Y-23092556D01*
X22662203Y-23093114D01*
X22464572Y-23151280D01*
X22282002Y-23246726D01*
X22277201Y-23250586D01*
X22277198Y-23250588D01*
X22222325Y-23294707D01*
X22121447Y-23375815D01*
X21989024Y-23533630D01*
X21986054Y-23539033D01*
X21986053Y-23539034D01*
X21917242Y-23664201D01*
X21866896Y-23714260D01*
X21806827Y-23729500D01*
X19467484Y-23729500D01*
X19399363Y-23709498D01*
X19378393Y-23692599D01*
X18731024Y-23045230D01*
X18697000Y-22982919D01*
X18702065Y-22912103D01*
X18744612Y-22855268D01*
X18811132Y-22830457D01*
X18868338Y-22839727D01*
X19012749Y-22899544D01*
X19169511Y-22920182D01*
X19177699Y-22919104D01*
X19318085Y-22900622D01*
X19326273Y-22899544D01*
X19472352Y-22839036D01*
X19597793Y-22742782D01*
X19694047Y-22617341D01*
X19754555Y-22471262D01*
X19775193Y-22314500D01*
X19766393Y-22247657D01*
X19777332Y-22177510D01*
X19802220Y-22142117D01*
X19901215Y-22043122D01*
X19909319Y-22035695D01*
X19929749Y-22018552D01*
X19938194Y-22011466D01*
X19943707Y-22001917D01*
X19957039Y-21978826D01*
X19962945Y-21969555D01*
X19978230Y-21947726D01*
X19984554Y-21938695D01*
X19987409Y-21928042D01*
X19988883Y-21924880D01*
X19990075Y-21921604D01*
X19995588Y-21912056D01*
X19997502Y-21901201D01*
X19997504Y-21901196D01*
X20002133Y-21874946D01*
X20004511Y-21864219D01*
X20011412Y-21838463D01*
X20011412Y-21838460D01*
X20014264Y-21827817D01*
X20012276Y-21805087D01*
X20010979Y-21790267D01*
X20010500Y-21779286D01*
X20010500Y-21575262D01*
X21804520Y-21575262D01*
X21805036Y-21581406D01*
X21817734Y-21732616D01*
X21821759Y-21780553D01*
X21823458Y-21786478D01*
X21871037Y-21952405D01*
X21878544Y-21978586D01*
X21881359Y-21984063D01*
X21881360Y-21984066D01*
X21951804Y-22121136D01*
X21972712Y-22161818D01*
X22100677Y-22323270D01*
X22105370Y-22327264D01*
X22105371Y-22327265D01*
X22249626Y-22450035D01*
X22257564Y-22456791D01*
X22262942Y-22459797D01*
X22262944Y-22459798D01*
X22294563Y-22477469D01*
X22437398Y-22557297D01*
X22532238Y-22588113D01*
X22627471Y-22619056D01*
X22627475Y-22619057D01*
X22633329Y-22620959D01*
X22837894Y-22645351D01*
X22844029Y-22644879D01*
X22844031Y-22644879D01*
X22900523Y-22640532D01*
X23043300Y-22629546D01*
X23049230Y-22627890D01*
X23049232Y-22627890D01*
X23235797Y-22575800D01*
X23235796Y-22575800D01*
X23241725Y-22574145D01*
X23247214Y-22571372D01*
X23247220Y-22571370D01*
X23420116Y-22484033D01*
X23425610Y-22481258D01*
X23438405Y-22471262D01*
X23583101Y-22358213D01*
X23587951Y-22354424D01*
X23613857Y-22324412D01*
X23718540Y-22203134D01*
X23718540Y-22203133D01*
X23722564Y-22198472D01*
X23729619Y-22186054D01*
X23772515Y-22110543D01*
X23824323Y-22019344D01*
X23889351Y-21823863D01*
X23915171Y-21619474D01*
X23915583Y-21590000D01*
X23895480Y-21384970D01*
X23835935Y-21187749D01*
X23739218Y-21005849D01*
X23646216Y-20891818D01*
X23612906Y-20850975D01*
X23612903Y-20850972D01*
X23609011Y-20846200D01*
X23563174Y-20808280D01*
X23455025Y-20718811D01*
X23455021Y-20718808D01*
X23450275Y-20714882D01*
X23269055Y-20616897D01*
X23072254Y-20555977D01*
X23066129Y-20555333D01*
X23066128Y-20555333D01*
X22873498Y-20535087D01*
X22873496Y-20535087D01*
X22867369Y-20534443D01*
X22780529Y-20542346D01*
X22668342Y-20552555D01*
X22668339Y-20552556D01*
X22662203Y-20553114D01*
X22464572Y-20611280D01*
X22282002Y-20706726D01*
X22277201Y-20710586D01*
X22277198Y-20710588D01*
X22179136Y-20789432D01*
X22121447Y-20835815D01*
X21989024Y-20993630D01*
X21986056Y-20999028D01*
X21986053Y-20999033D01*
X21922285Y-21115028D01*
X21889776Y-21174162D01*
X21827484Y-21370532D01*
X21826798Y-21376649D01*
X21826797Y-21376653D01*
X21805207Y-21569137D01*
X21804520Y-21575262D01*
X20010500Y-21575262D01*
X20010500Y-19035262D01*
X21804520Y-19035262D01*
X21821759Y-19240553D01*
X21823458Y-19246478D01*
X21871037Y-19412405D01*
X21878544Y-19438586D01*
X21881359Y-19444063D01*
X21881360Y-19444066D01*
X21951804Y-19581136D01*
X21972712Y-19621818D01*
X22100677Y-19783270D01*
X22105370Y-19787264D01*
X22105371Y-19787265D01*
X22249626Y-19910035D01*
X22257564Y-19916791D01*
X22437398Y-20017297D01*
X22531772Y-20047961D01*
X22627471Y-20079056D01*
X22627475Y-20079057D01*
X22633329Y-20080959D01*
X22837894Y-20105351D01*
X22844029Y-20104879D01*
X22844031Y-20104879D01*
X22900523Y-20100532D01*
X23043300Y-20089546D01*
X23049230Y-20087890D01*
X23049232Y-20087890D01*
X23202080Y-20045214D01*
X23241725Y-20034145D01*
X23247214Y-20031372D01*
X23247220Y-20031370D01*
X23420116Y-19944033D01*
X23425610Y-19941258D01*
X23451742Y-19920842D01*
X23506780Y-19877841D01*
X23587951Y-19814424D01*
X23613857Y-19784412D01*
X23718540Y-19663134D01*
X23718540Y-19663133D01*
X23722564Y-19658472D01*
X23743387Y-19621818D01*
X23772515Y-19570543D01*
X23824323Y-19479344D01*
X23889351Y-19283863D01*
X23915171Y-19079474D01*
X23915583Y-19050000D01*
X23895480Y-18844970D01*
X23835935Y-18647749D01*
X23739218Y-18465849D01*
X23646216Y-18351818D01*
X23612906Y-18310975D01*
X23612903Y-18310972D01*
X23609011Y-18306200D01*
X23563174Y-18268280D01*
X23455025Y-18178811D01*
X23455021Y-18178808D01*
X23450275Y-18174882D01*
X23269055Y-18076897D01*
X23072254Y-18015977D01*
X23066129Y-18015333D01*
X23066128Y-18015333D01*
X22873498Y-17995087D01*
X22873496Y-17995087D01*
X22867369Y-17994443D01*
X22780529Y-18002346D01*
X22668342Y-18012555D01*
X22668339Y-18012556D01*
X22662203Y-18013114D01*
X22464572Y-18071280D01*
X22459107Y-18074137D01*
X22397375Y-18106410D01*
X22282002Y-18166726D01*
X22277201Y-18170586D01*
X22277198Y-18170588D01*
X22179136Y-18249432D01*
X22121447Y-18295815D01*
X21989024Y-18453630D01*
X21986056Y-18459028D01*
X21986053Y-18459033D01*
X21922285Y-18575028D01*
X21889776Y-18634162D01*
X21827484Y-18830532D01*
X21826798Y-18836649D01*
X21826797Y-18836653D01*
X21805207Y-19029137D01*
X21804520Y-19035262D01*
X20010500Y-19035262D01*
X20010500Y-14792016D01*
X20030502Y-14723895D01*
X20047405Y-14702921D01*
X21687921Y-13062405D01*
X21750233Y-13028379D01*
X21777016Y-13025500D01*
X22010933Y-13025500D01*
X22079054Y-13045502D01*
G37*
%TD.AperFunction*%
%TA.AperFunction,NonConductor*%
G36*
X21875877Y-24550502D02*
G01*
X21919822Y-24598905D01*
X21926793Y-24612468D01*
X21953507Y-24664448D01*
X21972712Y-24701818D01*
X22051060Y-24800669D01*
X22054283Y-24804735D01*
X22080921Y-24870545D01*
X22067750Y-24940310D01*
X22018953Y-24991879D01*
X21955538Y-25009000D01*
X19899148Y-25009000D01*
X19831027Y-24988998D01*
X19810053Y-24972095D01*
X19583553Y-24745595D01*
X19549527Y-24683283D01*
X19554592Y-24612468D01*
X19597139Y-24555632D01*
X19663659Y-24530821D01*
X19672648Y-24530500D01*
X21807756Y-24530500D01*
X21875877Y-24550502D01*
G37*
%TD.AperFunction*%
%TA.AperFunction,NonConductor*%
G36*
X1257965Y5652312D02*
G01*
X1261762Y5652927D01*
X1270000Y5649515D01*
X1279839Y5653590D01*
X1300494Y5651370D01*
X1304493Y5651785D01*
X1449322Y5640387D01*
X1468849Y5637294D01*
X1634120Y5597616D01*
X1652914Y5591510D01*
X1809945Y5526465D01*
X1827556Y5517491D01*
X1972475Y5428684D01*
X1988470Y5417063D01*
X2117705Y5306686D01*
X2131686Y5292705D01*
X2242063Y5163470D01*
X2253684Y5147475D01*
X2342491Y5002556D01*
X2351465Y4984945D01*
X2404289Y4857418D01*
X2416508Y4827919D01*
X2422618Y4809115D01*
X2462294Y4643850D01*
X2465387Y4624321D01*
X2478642Y4455894D01*
X2478628Y4454930D01*
X2474515Y4445000D01*
X2478354Y4435733D01*
X2478308Y4432543D01*
X2477583Y4425801D01*
X2479500Y4412469D01*
X2479500Y-622965D01*
X2477312Y-622965D01*
X2477927Y-626762D01*
X2474515Y-635000D01*
X2479500Y-647035D01*
X2493695Y-681305D01*
X2510433Y-688238D01*
X2523264Y-693553D01*
X2523265Y-693553D01*
X2540000Y-700485D01*
X2549839Y-696410D01*
X2559203Y-697416D01*
X2572531Y-695500D01*
X12687965Y-695500D01*
X12687965Y-697688D01*
X12691762Y-697073D01*
X12700000Y-700485D01*
X12709838Y-696410D01*
X12709839Y-696410D01*
X12729568Y-688238D01*
X12729569Y-688237D01*
X12746305Y-681305D01*
X12760500Y-647035D01*
X12765485Y-635000D01*
X12761410Y-625161D01*
X12762416Y-615797D01*
X12760500Y-602469D01*
X12760500Y4432965D01*
X12762688Y4432965D01*
X12762073Y4436762D01*
X12765485Y4445000D01*
X12761410Y4454839D01*
X12763630Y4475494D01*
X12763215Y4479493D01*
X12774613Y4624322D01*
X12777706Y4643850D01*
X12817382Y4809115D01*
X12823492Y4827919D01*
X12835711Y4857418D01*
X12888535Y4984945D01*
X12897509Y5002556D01*
X12986316Y5147475D01*
X12997937Y5163470D01*
X13108314Y5292705D01*
X13122295Y5306686D01*
X13251530Y5417063D01*
X13267525Y5428684D01*
X13412444Y5517491D01*
X13430055Y5526465D01*
X13587086Y5591510D01*
X13605880Y5597616D01*
X13771151Y5637294D01*
X13790679Y5640387D01*
X13959106Y5653642D01*
X13960070Y5653628D01*
X13970000Y5649515D01*
X13979267Y5653354D01*
X13982457Y5653308D01*
X13989199Y5652583D01*
X14002531Y5654500D01*
X27292965Y5654500D01*
X27292965Y5652312D01*
X27296762Y5652927D01*
X27305000Y5649515D01*
X27314839Y5653590D01*
X27335494Y5651370D01*
X27339493Y5651785D01*
X27484322Y5640387D01*
X27503849Y5637294D01*
X27669120Y5597616D01*
X27687914Y5591510D01*
X27844945Y5526465D01*
X27862556Y5517491D01*
X28007475Y5428684D01*
X28023470Y5417063D01*
X28152705Y5306686D01*
X28166686Y5292705D01*
X28277063Y5163470D01*
X28288684Y5147475D01*
X28377491Y5002556D01*
X28386465Y4984945D01*
X28439289Y4857418D01*
X28451508Y4827919D01*
X28457618Y4809115D01*
X28497294Y4643850D01*
X28500387Y4624321D01*
X28513642Y4455894D01*
X28513628Y4454930D01*
X28509515Y4445000D01*
X28513354Y4435733D01*
X28513308Y4432543D01*
X28512583Y4425801D01*
X28514500Y4412469D01*
X28514500Y-41262965D01*
X28512312Y-41262965D01*
X28512927Y-41266762D01*
X28509515Y-41275000D01*
X28513590Y-41284839D01*
X28511370Y-41305494D01*
X28511785Y-41309493D01*
X28500387Y-41454322D01*
X28497294Y-41473850D01*
X28457618Y-41639115D01*
X28451510Y-41657914D01*
X28386465Y-41814945D01*
X28377491Y-41832556D01*
X28288684Y-41977475D01*
X28277063Y-41993470D01*
X28166686Y-42122705D01*
X28152705Y-42136686D01*
X28023470Y-42247063D01*
X28007475Y-42258684D01*
X27862556Y-42347491D01*
X27844945Y-42356465D01*
X27687914Y-42421510D01*
X27669120Y-42427616D01*
X27516946Y-42464150D01*
X27503850Y-42467294D01*
X27484321Y-42470387D01*
X27315894Y-42483642D01*
X27314930Y-42483628D01*
X27305000Y-42479515D01*
X27295733Y-42483354D01*
X27292543Y-42483308D01*
X27285801Y-42482583D01*
X27272469Y-42484500D01*
X-12052965Y-42484500D01*
X-12052965Y-42482312D01*
X-12056762Y-42482927D01*
X-12065000Y-42479515D01*
X-12074839Y-42483590D01*
X-12095494Y-42481370D01*
X-12099493Y-42481785D01*
X-12244322Y-42470387D01*
X-12263850Y-42467294D01*
X-12276946Y-42464150D01*
X-12429120Y-42427616D01*
X-12447914Y-42421510D01*
X-12604945Y-42356465D01*
X-12622556Y-42347491D01*
X-12767475Y-42258684D01*
X-12783470Y-42247063D01*
X-12912705Y-42136686D01*
X-12926686Y-42122705D01*
X-13037063Y-41993470D01*
X-13048684Y-41977475D01*
X-13137491Y-41832556D01*
X-13146465Y-41814945D01*
X-13211510Y-41657914D01*
X-13217618Y-41639115D01*
X-13257294Y-41473850D01*
X-13260387Y-41454321D01*
X-13273642Y-41285894D01*
X-13273628Y-41284930D01*
X-13269515Y-41275000D01*
X-13273354Y-41265733D01*
X-13273308Y-41262543D01*
X-13272583Y-41255801D01*
X-13274500Y-41242469D01*
X-13274500Y-40000262D01*
X-11215480Y-40000262D01*
X-11198241Y-40205553D01*
X-11141456Y-40403586D01*
X-11138641Y-40409063D01*
X-11138640Y-40409066D01*
X-11117753Y-40449707D01*
X-11047288Y-40586818D01*
X-10919323Y-40748270D01*
X-10762436Y-40881791D01*
X-10582602Y-40982297D01*
X-10508288Y-41006443D01*
X-10392529Y-41044056D01*
X-10392525Y-41044057D01*
X-10386671Y-41045959D01*
X-10182106Y-41070351D01*
X-10175971Y-41069879D01*
X-10175969Y-41069879D01*
X-10119961Y-41065569D01*
X-9976700Y-41054546D01*
X-9970770Y-41052890D01*
X-9970768Y-41052890D01*
X-9784203Y-41000800D01*
X-9784204Y-41000800D01*
X-9778275Y-40999145D01*
X-9772786Y-40996372D01*
X-9772780Y-40996370D01*
X-9599884Y-40909033D01*
X-9594390Y-40906258D01*
X-9561825Y-40880816D01*
X-9436899Y-40783213D01*
X-9432049Y-40779424D01*
X-9297436Y-40623472D01*
X-9276613Y-40586818D01*
X-9198724Y-40449707D01*
X-9195677Y-40444344D01*
X-9130649Y-40248863D01*
X-9104829Y-40044474D01*
X-9104417Y-40015000D01*
X-9124520Y-39809970D01*
X-9163960Y-39679339D01*
X-9164501Y-39608345D01*
X-9132433Y-39553826D01*
X-7144551Y-37565944D01*
X-7082239Y-37531918D01*
X-7011424Y-37536983D01*
X-6954588Y-37579530D01*
X-6935405Y-37619020D01*
X-6935044Y-37621762D01*
X-6874536Y-37767841D01*
X-6778282Y-37893282D01*
X-6771736Y-37898305D01*
X-6742082Y-37921059D01*
X-6652841Y-37989536D01*
X-6506762Y-38050044D01*
X-6350000Y-38070682D01*
X-6341812Y-38069604D01*
X-6201426Y-38051122D01*
X-6193238Y-38050044D01*
X-6047159Y-37989536D01*
X-5957918Y-37921059D01*
X-5928264Y-37898305D01*
X-5921718Y-37893282D01*
X-5825464Y-37767841D01*
X-5764956Y-37621762D01*
X-5744318Y-37465000D01*
X-5744602Y-37462840D01*
X-5725394Y-37397422D01*
X-5708491Y-37376448D01*
X-3257043Y-34925000D01*
X19079318Y-34925000D01*
X19099956Y-35081762D01*
X19160464Y-35227841D01*
X19256718Y-35353282D01*
X19263264Y-35358305D01*
X19292918Y-35381059D01*
X19382159Y-35449536D01*
X19528238Y-35510044D01*
X19685000Y-35530682D01*
X19693188Y-35529604D01*
X19833574Y-35511122D01*
X19841762Y-35510044D01*
X19987841Y-35449536D01*
X20032951Y-35414922D01*
X20106730Y-35358310D01*
X20106732Y-35358308D01*
X20113282Y-35353282D01*
X20113782Y-35352630D01*
X20173068Y-35320254D01*
X20243884Y-35325315D01*
X20288952Y-35354278D01*
X24312595Y-39377921D01*
X24346621Y-39440233D01*
X24349500Y-39467016D01*
X24349500Y-40874748D01*
X24361133Y-40933231D01*
X24405448Y-40999552D01*
X24471769Y-41043867D01*
X24483938Y-41046288D01*
X24483939Y-41046288D01*
X24524184Y-41054293D01*
X24530252Y-41055500D01*
X26269748Y-41055500D01*
X26275816Y-41054293D01*
X26316061Y-41046288D01*
X26316062Y-41046288D01*
X26328231Y-41043867D01*
X26394552Y-40999552D01*
X26438867Y-40933231D01*
X26450500Y-40874748D01*
X26450500Y-39135252D01*
X26438867Y-39076769D01*
X26394552Y-39010448D01*
X26328231Y-38966133D01*
X26316062Y-38963712D01*
X26316061Y-38963712D01*
X26275816Y-38955707D01*
X26269748Y-38954500D01*
X24862016Y-38954500D01*
X24793895Y-38934498D01*
X24772921Y-38917595D01*
X23305588Y-37450262D01*
X24344520Y-37450262D01*
X24345036Y-37456406D01*
X24359563Y-37629396D01*
X24361759Y-37655553D01*
X24363458Y-37661478D01*
X24395836Y-37774392D01*
X24418544Y-37853586D01*
X24421359Y-37859063D01*
X24421360Y-37859066D01*
X24441526Y-37898305D01*
X24512712Y-38036818D01*
X24640677Y-38198270D01*
X24645370Y-38202264D01*
X24645371Y-38202265D01*
X24646751Y-38203439D01*
X24797564Y-38331791D01*
X24802942Y-38334797D01*
X24802944Y-38334798D01*
X24887481Y-38382044D01*
X24977398Y-38432297D01*
X25065121Y-38460800D01*
X25167471Y-38494056D01*
X25167475Y-38494057D01*
X25173329Y-38495959D01*
X25377894Y-38520351D01*
X25384029Y-38519879D01*
X25384031Y-38519879D01*
X25453337Y-38514546D01*
X25583300Y-38504546D01*
X25589230Y-38502890D01*
X25589232Y-38502890D01*
X25775797Y-38450800D01*
X25775796Y-38450800D01*
X25781725Y-38449145D01*
X25787214Y-38446372D01*
X25787220Y-38446370D01*
X25960116Y-38359033D01*
X25965610Y-38356258D01*
X26127951Y-38229424D01*
X26146211Y-38208270D01*
X26258540Y-38078134D01*
X26258540Y-38078133D01*
X26262564Y-38073472D01*
X26283387Y-38036818D01*
X26313102Y-37984509D01*
X26364323Y-37894344D01*
X26429351Y-37698863D01*
X26455171Y-37494474D01*
X26455583Y-37465000D01*
X26435480Y-37259970D01*
X26375935Y-37062749D01*
X26279218Y-36880849D01*
X26205859Y-36790902D01*
X26152906Y-36725975D01*
X26152903Y-36725972D01*
X26149011Y-36721200D01*
X26131786Y-36706950D01*
X25995025Y-36593811D01*
X25995021Y-36593809D01*
X25990275Y-36589882D01*
X25809055Y-36491897D01*
X25612254Y-36430977D01*
X25606129Y-36430333D01*
X25606128Y-36430333D01*
X25413498Y-36410087D01*
X25413496Y-36410087D01*
X25407369Y-36409443D01*
X25320529Y-36417346D01*
X25208342Y-36427555D01*
X25208339Y-36427556D01*
X25202203Y-36428114D01*
X25004572Y-36486280D01*
X24822002Y-36581726D01*
X24817201Y-36585586D01*
X24817198Y-36585588D01*
X24666254Y-36706950D01*
X24661447Y-36710815D01*
X24529024Y-36868630D01*
X24526056Y-36874028D01*
X24526053Y-36874033D01*
X24432743Y-37043765D01*
X24429776Y-37049162D01*
X24367484Y-37245532D01*
X24366798Y-37251649D01*
X24366797Y-37251653D01*
X24350447Y-37397422D01*
X24344520Y-37450262D01*
X23305588Y-37450262D01*
X20564111Y-34708785D01*
X20556684Y-34700681D01*
X20539541Y-34680251D01*
X20539542Y-34680251D01*
X20532455Y-34671806D01*
X20522906Y-34666293D01*
X20499815Y-34652961D01*
X20490544Y-34647055D01*
X20468715Y-34631770D01*
X20459684Y-34625446D01*
X20449034Y-34622592D01*
X20445866Y-34621115D01*
X20442590Y-34619923D01*
X20433045Y-34614412D01*
X20399301Y-34608462D01*
X20395942Y-34607870D01*
X20385215Y-34605492D01*
X20348807Y-34595736D01*
X20337822Y-34596697D01*
X20337820Y-34596697D01*
X20311272Y-34599020D01*
X20300290Y-34599500D01*
X20254286Y-34599500D01*
X20186165Y-34579498D01*
X20154323Y-34550204D01*
X20118305Y-34503264D01*
X20113282Y-34496718D01*
X19987841Y-34400464D01*
X19841762Y-34339956D01*
X19685000Y-34319318D01*
X19528238Y-34339956D01*
X19382159Y-34400464D01*
X19256718Y-34496718D01*
X19160464Y-34622159D01*
X19099956Y-34768238D01*
X19079318Y-34925000D01*
X-3257043Y-34925000D01*
X-2414948Y-34082905D01*
X-2352636Y-34048879D01*
X-2325853Y-34046000D01*
X23915853Y-34046000D01*
X23983974Y-34066002D01*
X24004948Y-34082905D01*
X24375949Y-34453906D01*
X24409975Y-34516218D01*
X24406956Y-34581099D01*
X24386034Y-34647055D01*
X24367484Y-34705532D01*
X24366798Y-34711649D01*
X24366797Y-34711653D01*
X24364055Y-34736103D01*
X24344520Y-34910262D01*
X24361759Y-35115553D01*
X24363458Y-35121478D01*
X24395836Y-35234392D01*
X24418544Y-35313586D01*
X24421359Y-35319063D01*
X24421360Y-35319066D01*
X24441526Y-35358305D01*
X24512712Y-35496818D01*
X24640677Y-35658270D01*
X24645370Y-35662264D01*
X24645371Y-35662265D01*
X24646751Y-35663439D01*
X24797564Y-35791791D01*
X24802942Y-35794797D01*
X24802944Y-35794798D01*
X24887481Y-35842044D01*
X24977398Y-35892297D01*
X25065121Y-35920800D01*
X25167471Y-35954056D01*
X25167475Y-35954057D01*
X25173329Y-35955959D01*
X25377894Y-35980351D01*
X25384029Y-35979879D01*
X25384031Y-35979879D01*
X25453337Y-35974546D01*
X25583300Y-35964546D01*
X25589230Y-35962890D01*
X25589232Y-35962890D01*
X25775797Y-35910800D01*
X25775796Y-35910800D01*
X25781725Y-35909145D01*
X25787214Y-35906372D01*
X25787220Y-35906370D01*
X25960116Y-35819033D01*
X25965610Y-35816258D01*
X26127951Y-35689424D01*
X26146211Y-35668270D01*
X26258540Y-35538134D01*
X26258540Y-35538133D01*
X26262564Y-35533472D01*
X26283387Y-35496818D01*
X26313102Y-35444509D01*
X26364323Y-35354344D01*
X26429351Y-35158863D01*
X26455171Y-34954474D01*
X26455583Y-34925000D01*
X26435480Y-34719970D01*
X26375935Y-34522749D01*
X26279218Y-34340849D01*
X26205859Y-34250902D01*
X26152906Y-34185975D01*
X26152903Y-34185972D01*
X26149011Y-34181200D01*
X26009761Y-34066002D01*
X25995025Y-34053811D01*
X25995021Y-34053809D01*
X25990275Y-34049882D01*
X25809055Y-33951897D01*
X25612254Y-33890977D01*
X25606129Y-33890333D01*
X25606128Y-33890333D01*
X25413498Y-33870087D01*
X25413496Y-33870087D01*
X25407369Y-33869443D01*
X25320529Y-33877346D01*
X25208342Y-33887555D01*
X25208339Y-33887556D01*
X25202203Y-33888114D01*
X25196295Y-33889853D01*
X25196294Y-33889853D01*
X25052903Y-33932055D01*
X24981906Y-33932100D01*
X24928233Y-33900276D01*
X24450270Y-33422313D01*
X24450269Y-33422311D01*
X24362689Y-33334731D01*
X24353852Y-33330228D01*
X24343763Y-33325087D01*
X24326906Y-33314757D01*
X24317747Y-33308102D01*
X24317744Y-33308100D01*
X24309723Y-33302273D01*
X24289527Y-33295711D01*
X24271256Y-33288143D01*
X24261171Y-33283004D01*
X24261166Y-33283002D01*
X24252332Y-33278501D01*
X24242539Y-33276950D01*
X24242536Y-33276949D01*
X24231351Y-33275178D01*
X24212124Y-33270562D01*
X24201362Y-33267065D01*
X24201360Y-33267065D01*
X24191928Y-33264000D01*
X-2478069Y-33264000D01*
X-2478071Y-33263999D01*
X-2538417Y-33263999D01*
X-2606538Y-33243997D01*
X-2653031Y-33190341D01*
X-2663135Y-33120067D01*
X-2633641Y-33055487D01*
X-2627512Y-33048904D01*
X-2401013Y-32822405D01*
X-2338701Y-32788379D01*
X-2311918Y-32785500D01*
X19178269Y-32785500D01*
X19246390Y-32805502D01*
X19256460Y-32813618D01*
X19256718Y-32813282D01*
X19382159Y-32909536D01*
X19528238Y-32970044D01*
X19685000Y-32990682D01*
X19693188Y-32989604D01*
X19833574Y-32971122D01*
X19841762Y-32970044D01*
X19987841Y-32909536D01*
X20113282Y-32813282D01*
X20115072Y-32815614D01*
X20164948Y-32788379D01*
X20191731Y-32785500D01*
X24347756Y-32785500D01*
X24415877Y-32805502D01*
X24459822Y-32853905D01*
X24512712Y-32956818D01*
X24640677Y-33118270D01*
X24797564Y-33251791D01*
X24802942Y-33254797D01*
X24802944Y-33254798D01*
X24839410Y-33275178D01*
X24977398Y-33352297D01*
X25060317Y-33379239D01*
X25167471Y-33414056D01*
X25167475Y-33414057D01*
X25173329Y-33415959D01*
X25377894Y-33440351D01*
X25384029Y-33439879D01*
X25384031Y-33439879D01*
X25440039Y-33435569D01*
X25583300Y-33424546D01*
X25589230Y-33422890D01*
X25589232Y-33422890D01*
X25775797Y-33370800D01*
X25775796Y-33370800D01*
X25781725Y-33369145D01*
X25787214Y-33366372D01*
X25787220Y-33366370D01*
X25933169Y-33292645D01*
X25965610Y-33276258D01*
X25972576Y-33270816D01*
X26123101Y-33153213D01*
X26127951Y-33149424D01*
X26262564Y-32993472D01*
X26283387Y-32956818D01*
X26313102Y-32904509D01*
X26364323Y-32814344D01*
X26429351Y-32618863D01*
X26455171Y-32414474D01*
X26455583Y-32385000D01*
X26435480Y-32179970D01*
X26375935Y-31982749D01*
X26279218Y-31800849D01*
X26205859Y-31710902D01*
X26152906Y-31645975D01*
X26152903Y-31645972D01*
X26149011Y-31641200D01*
X26131786Y-31626950D01*
X25995025Y-31513811D01*
X25995021Y-31513809D01*
X25990275Y-31509882D01*
X25809055Y-31411897D01*
X25612254Y-31350977D01*
X25606129Y-31350333D01*
X25606128Y-31350333D01*
X25413498Y-31330087D01*
X25413496Y-31330087D01*
X25407369Y-31329443D01*
X25320529Y-31337346D01*
X25208342Y-31347555D01*
X25208339Y-31347556D01*
X25202203Y-31348114D01*
X25004572Y-31406280D01*
X24822002Y-31501726D01*
X24817201Y-31505586D01*
X24817198Y-31505588D01*
X24792741Y-31525252D01*
X24661447Y-31630815D01*
X24529024Y-31788630D01*
X24526054Y-31794033D01*
X24526053Y-31794034D01*
X24457242Y-31919201D01*
X24406896Y-31969260D01*
X24346827Y-31984500D01*
X20191731Y-31984500D01*
X20123610Y-31964498D01*
X20113540Y-31956382D01*
X20113282Y-31956718D01*
X19994392Y-31865491D01*
X19987841Y-31860464D01*
X19841762Y-31799956D01*
X19685000Y-31779318D01*
X19528238Y-31799956D01*
X19382159Y-31860464D01*
X19256718Y-31956718D01*
X19254928Y-31954386D01*
X19205052Y-31981621D01*
X19178269Y-31984500D01*
X-2561519Y-31984500D01*
X-2561523Y-31984501D01*
X-2593433Y-31984501D01*
X-2602860Y-31987564D01*
X-2602867Y-31987565D01*
X-2614353Y-31991297D01*
X-2633573Y-31995911D01*
X-2645507Y-31997801D01*
X-2645515Y-31997803D01*
X-2655304Y-31999354D01*
X-2664135Y-32003854D01*
X-2664139Y-32003855D01*
X-2674907Y-32009342D01*
X-2693168Y-32016906D01*
X-2714090Y-32023704D01*
X-2729082Y-32034597D01*
X-2731884Y-32036632D01*
X-2748741Y-32046962D01*
X-2759507Y-32052448D01*
X-2759508Y-32052449D01*
X-2768342Y-32056950D01*
X-2790909Y-32079517D01*
X-9698990Y-38987597D01*
X-9761302Y-39021623D01*
X-9825344Y-39018867D01*
X-9852541Y-39010448D01*
X-9947746Y-38980977D01*
X-9953871Y-38980333D01*
X-9953872Y-38980333D01*
X-10146502Y-38960087D01*
X-10146504Y-38960087D01*
X-10152631Y-38959443D01*
X-10226144Y-38966133D01*
X-10351658Y-38977555D01*
X-10351661Y-38977556D01*
X-10357797Y-38978114D01*
X-10555428Y-39036280D01*
X-10737998Y-39131726D01*
X-10742799Y-39135586D01*
X-10742802Y-39135588D01*
X-10750079Y-39141439D01*
X-10898553Y-39260815D01*
X-11030976Y-39418630D01*
X-11033944Y-39424028D01*
X-11033947Y-39424033D01*
X-11127257Y-39593765D01*
X-11130224Y-39599162D01*
X-11192516Y-39795532D01*
X-11193202Y-39801649D01*
X-11193203Y-39801653D01*
X-11214793Y-39994137D01*
X-11215480Y-40000262D01*
X-13274500Y-40000262D01*
X-13274500Y-37460262D01*
X-11215480Y-37460262D01*
X-11214964Y-37466406D01*
X-11199596Y-37649411D01*
X-11198241Y-37665553D01*
X-11196542Y-37671478D01*
X-11144323Y-37853586D01*
X-11141456Y-37863586D01*
X-11138641Y-37869063D01*
X-11138640Y-37869066D01*
X-11076727Y-37989536D01*
X-11047288Y-38046818D01*
X-10919323Y-38208270D01*
X-10762436Y-38341791D01*
X-10757058Y-38344797D01*
X-10757056Y-38344798D01*
X-10731585Y-38359033D01*
X-10582602Y-38442297D01*
X-10487762Y-38473113D01*
X-10392529Y-38504056D01*
X-10392525Y-38504057D01*
X-10386671Y-38505959D01*
X-10182106Y-38530351D01*
X-10175971Y-38529879D01*
X-10175969Y-38529879D01*
X-10119961Y-38525569D01*
X-9976700Y-38514546D01*
X-9970770Y-38512890D01*
X-9970768Y-38512890D01*
X-9784203Y-38460800D01*
X-9784204Y-38460800D01*
X-9778275Y-38459145D01*
X-9772786Y-38456372D01*
X-9772780Y-38456370D01*
X-9599884Y-38369033D01*
X-9594390Y-38366258D01*
X-9581590Y-38356258D01*
X-9436899Y-38243213D01*
X-9432049Y-38239424D01*
X-9419396Y-38224766D01*
X-9301460Y-38088134D01*
X-9301460Y-38088133D01*
X-9297436Y-38083472D01*
X-9279058Y-38051122D01*
X-9198724Y-37909707D01*
X-9195677Y-37904344D01*
X-9130649Y-37708863D01*
X-9104829Y-37504474D01*
X-9104417Y-37475000D01*
X-9124520Y-37269970D01*
X-9184065Y-37072749D01*
X-9280782Y-36890849D01*
X-9354141Y-36800902D01*
X-9407094Y-36735975D01*
X-9407097Y-36735972D01*
X-9410989Y-36731200D01*
X-9440302Y-36706950D01*
X-9564975Y-36603811D01*
X-9564979Y-36603809D01*
X-9569725Y-36599882D01*
X-9750945Y-36501897D01*
X-9947746Y-36440977D01*
X-9953871Y-36440333D01*
X-9953872Y-36440333D01*
X-10146502Y-36420087D01*
X-10146504Y-36420087D01*
X-10152631Y-36419443D01*
X-10239471Y-36427346D01*
X-10351658Y-36437555D01*
X-10351661Y-36437556D01*
X-10357797Y-36438114D01*
X-10555428Y-36496280D01*
X-10737998Y-36591726D01*
X-10742799Y-36595586D01*
X-10742802Y-36595588D01*
X-10891996Y-36715543D01*
X-10898553Y-36720815D01*
X-11030976Y-36878630D01*
X-11033944Y-36884028D01*
X-11033947Y-36884033D01*
X-11127257Y-37053765D01*
X-11130224Y-37059162D01*
X-11192516Y-37255532D01*
X-11193202Y-37261649D01*
X-11193203Y-37261653D01*
X-11213671Y-37444137D01*
X-11215480Y-37460262D01*
X-13274500Y-37460262D01*
X-13274500Y-34920262D01*
X-11215480Y-34920262D01*
X-11214964Y-34926406D01*
X-11199596Y-35109411D01*
X-11198241Y-35125553D01*
X-11196542Y-35131478D01*
X-11144323Y-35313586D01*
X-11141456Y-35323586D01*
X-11138641Y-35329063D01*
X-11138640Y-35329066D01*
X-11076727Y-35449536D01*
X-11047288Y-35506818D01*
X-10919323Y-35668270D01*
X-10762436Y-35801791D01*
X-10757058Y-35804797D01*
X-10757056Y-35804798D01*
X-10731585Y-35819033D01*
X-10582602Y-35902297D01*
X-10487762Y-35933113D01*
X-10392529Y-35964056D01*
X-10392525Y-35964057D01*
X-10386671Y-35965959D01*
X-10182106Y-35990351D01*
X-10175971Y-35989879D01*
X-10175969Y-35989879D01*
X-10119961Y-35985569D01*
X-9976700Y-35974546D01*
X-9970770Y-35972890D01*
X-9970768Y-35972890D01*
X-9784203Y-35920800D01*
X-9784204Y-35920800D01*
X-9778275Y-35919145D01*
X-9772786Y-35916372D01*
X-9772780Y-35916370D01*
X-9599884Y-35829033D01*
X-9594390Y-35826258D01*
X-9581590Y-35816258D01*
X-9436899Y-35703213D01*
X-9432049Y-35699424D01*
X-9419396Y-35684766D01*
X-9301460Y-35548134D01*
X-9301460Y-35548133D01*
X-9297436Y-35543472D01*
X-9279058Y-35511122D01*
X-9198724Y-35369707D01*
X-9195677Y-35364344D01*
X-9130649Y-35168863D01*
X-9104829Y-34964474D01*
X-9104417Y-34935000D01*
X-9124520Y-34729970D01*
X-9184065Y-34532749D01*
X-9280782Y-34350849D01*
X-9354141Y-34260902D01*
X-9407094Y-34195975D01*
X-9407097Y-34195972D01*
X-9410989Y-34191200D01*
X-9428214Y-34176950D01*
X-9564975Y-34063811D01*
X-9564979Y-34063809D01*
X-9569725Y-34059882D01*
X-9750945Y-33961897D01*
X-9947746Y-33900977D01*
X-9953871Y-33900333D01*
X-9953872Y-33900333D01*
X-10146502Y-33880087D01*
X-10146504Y-33880087D01*
X-10152631Y-33879443D01*
X-10239471Y-33887346D01*
X-10351658Y-33897555D01*
X-10351661Y-33897556D01*
X-10357797Y-33898114D01*
X-10555428Y-33956280D01*
X-10737998Y-34051726D01*
X-10742799Y-34055586D01*
X-10742802Y-34055588D01*
X-10893746Y-34176950D01*
X-10898553Y-34180815D01*
X-11030976Y-34338630D01*
X-11033944Y-34344028D01*
X-11033947Y-34344033D01*
X-11127257Y-34513765D01*
X-11130224Y-34519162D01*
X-11192516Y-34715532D01*
X-11193202Y-34721649D01*
X-11193203Y-34721653D01*
X-11213671Y-34904137D01*
X-11215480Y-34920262D01*
X-13274500Y-34920262D01*
X-13274500Y-33264748D01*
X-11210500Y-33264748D01*
X-11209293Y-33270816D01*
X-11201876Y-33308102D01*
X-11198867Y-33323231D01*
X-11154552Y-33389552D01*
X-11144239Y-33396443D01*
X-11105525Y-33422311D01*
X-11088231Y-33433867D01*
X-11076062Y-33436288D01*
X-11076061Y-33436288D01*
X-11059299Y-33439622D01*
X-11029748Y-33445500D01*
X-9290252Y-33445500D01*
X-9260701Y-33439622D01*
X-9243939Y-33436288D01*
X-9243938Y-33436288D01*
X-9231769Y-33433867D01*
X-9214474Y-33422311D01*
X-9175761Y-33396443D01*
X-9165448Y-33389552D01*
X-9121133Y-33323231D01*
X-9118123Y-33308102D01*
X-9110707Y-33270816D01*
X-9109500Y-33264748D01*
X-9109500Y-31525252D01*
X-9121133Y-31466769D01*
X-9165448Y-31400448D01*
X-9231769Y-31356133D01*
X-9243938Y-31353712D01*
X-9243939Y-31353712D01*
X-9284184Y-31345707D01*
X-9290252Y-31344500D01*
X-11029748Y-31344500D01*
X-11035816Y-31345707D01*
X-11076061Y-31353712D01*
X-11076062Y-31353712D01*
X-11088231Y-31356133D01*
X-11154552Y-31400448D01*
X-11198867Y-31466769D01*
X-11210500Y-31525252D01*
X-11210500Y-33264748D01*
X-13274500Y-33264748D01*
X-13274500Y-27925262D01*
X-1055480Y-27925262D01*
X-1038241Y-28130553D01*
X-981456Y-28328586D01*
X-978641Y-28334063D01*
X-978640Y-28334066D01*
X-957753Y-28374707D01*
X-887288Y-28511818D01*
X-759323Y-28673270D01*
X-602436Y-28806791D01*
X-422602Y-28907297D01*
X-327762Y-28938113D01*
X-232529Y-28969056D01*
X-232525Y-28969057D01*
X-226671Y-28970959D01*
X-22106Y-28995351D01*
X-15971Y-28994879D01*
X-15969Y-28994879D01*
X40039Y-28990569D01*
X183300Y-28979546D01*
X189230Y-28977890D01*
X189232Y-28977890D01*
X375797Y-28925800D01*
X375796Y-28925800D01*
X381725Y-28924145D01*
X387214Y-28921372D01*
X387220Y-28921370D01*
X560116Y-28834033D01*
X565610Y-28831258D01*
X727951Y-28704424D01*
X862564Y-28548472D01*
X883387Y-28511818D01*
X961276Y-28374707D01*
X964323Y-28369344D01*
X1029351Y-28173863D01*
X1055171Y-27969474D01*
X1055583Y-27940000D01*
X1035480Y-27734970D01*
X975935Y-27537749D01*
X879218Y-27355849D01*
X753037Y-27201136D01*
X752906Y-27200975D01*
X752903Y-27200972D01*
X749011Y-27196200D01*
X726575Y-27177639D01*
X595025Y-27068811D01*
X595021Y-27068809D01*
X590275Y-27064882D01*
X409055Y-26966897D01*
X212254Y-26905977D01*
X206129Y-26905333D01*
X206128Y-26905333D01*
X13498Y-26885087D01*
X13496Y-26885087D01*
X7369Y-26884443D01*
X-79471Y-26892346D01*
X-191658Y-26902555D01*
X-191661Y-26902556D01*
X-197797Y-26903114D01*
X-395428Y-26961280D01*
X-400893Y-26964137D01*
X-462625Y-26996410D01*
X-577998Y-27056726D01*
X-582799Y-27060586D01*
X-582802Y-27060588D01*
X-701311Y-27155872D01*
X-738553Y-27185815D01*
X-870976Y-27343630D01*
X-873944Y-27349028D01*
X-873947Y-27349033D01*
X-880685Y-27361290D01*
X-970224Y-27524162D01*
X-1032516Y-27720532D01*
X-1033202Y-27726649D01*
X-1033203Y-27726653D01*
X-1054793Y-27919137D01*
X-1055480Y-27925262D01*
X-13274500Y-27925262D01*
X-13274500Y-24115262D01*
X-11215480Y-24115262D01*
X-11198241Y-24320553D01*
X-11196542Y-24326478D01*
X-11167747Y-24426897D01*
X-11141456Y-24518586D01*
X-11138641Y-24524063D01*
X-11138640Y-24524066D01*
X-11063440Y-24670389D01*
X-11047288Y-24701818D01*
X-10919323Y-24863270D01*
X-10914630Y-24867264D01*
X-10914629Y-24867265D01*
X-10770374Y-24990035D01*
X-10762436Y-24996791D01*
X-10582602Y-25097297D01*
X-10488228Y-25127961D01*
X-10392529Y-25159056D01*
X-10392525Y-25159057D01*
X-10386671Y-25160959D01*
X-10182106Y-25185351D01*
X-10175971Y-25184879D01*
X-10175969Y-25184879D01*
X-10115435Y-25180221D01*
X-9976700Y-25169546D01*
X-9970770Y-25167890D01*
X-9970768Y-25167890D01*
X-9827759Y-25127961D01*
X-9778275Y-25114145D01*
X-9765283Y-25107582D01*
X-9695460Y-25094720D01*
X-9629769Y-25121649D01*
X-9619374Y-25130952D01*
X-9134099Y-25616228D01*
X-9126673Y-25624331D01*
X-9102455Y-25653194D01*
X-9092912Y-25658704D01*
X-9092908Y-25658707D01*
X-9069821Y-25672036D01*
X-9060552Y-25677940D01*
X-9029684Y-25699554D01*
X-9019036Y-25702407D01*
X-9015865Y-25703886D01*
X-9012589Y-25705078D01*
X-9003045Y-25710588D01*
X-8965924Y-25717134D01*
X-8955217Y-25719508D01*
X-8918807Y-25729263D01*
X-8907832Y-25728303D01*
X-8907830Y-25728303D01*
X-8881269Y-25725979D01*
X-8870288Y-25725500D01*
X-1090789Y-25725500D01*
X-1022668Y-25745502D01*
X-978722Y-25793906D01*
X-887288Y-25971818D01*
X-759323Y-26133270D01*
X-602436Y-26266791D01*
X-422602Y-26367297D01*
X-327762Y-26398113D01*
X-232529Y-26429056D01*
X-232525Y-26429057D01*
X-226671Y-26430959D01*
X-22106Y-26455351D01*
X-15971Y-26454879D01*
X-15969Y-26454879D01*
X40039Y-26450569D01*
X183300Y-26439546D01*
X189230Y-26437890D01*
X189232Y-26437890D01*
X375797Y-26385800D01*
X375796Y-26385800D01*
X381725Y-26384145D01*
X387214Y-26381372D01*
X387220Y-26381370D01*
X560116Y-26294033D01*
X565610Y-26291258D01*
X591742Y-26270842D01*
X646780Y-26227841D01*
X727951Y-26164424D01*
X862564Y-26008472D01*
X883387Y-25971818D01*
X961275Y-25834709D01*
X961276Y-25834707D01*
X964323Y-25829344D01*
X970184Y-25811726D01*
X1010666Y-25753403D01*
X1076254Y-25726224D01*
X1089741Y-25725500D01*
X13147984Y-25725500D01*
X13216105Y-25745502D01*
X13237079Y-25762405D01*
X14360895Y-26886222D01*
X14368316Y-26894319D01*
X14392545Y-26923194D01*
X14402088Y-26928704D01*
X14402092Y-26928707D01*
X14425179Y-26942036D01*
X14434448Y-26947940D01*
X14465316Y-26969554D01*
X14475960Y-26972406D01*
X14476626Y-26972717D01*
X14529911Y-27019634D01*
X14549371Y-27087912D01*
X14528829Y-27155872D01*
X14509843Y-27176809D01*
X14510656Y-27177639D01*
X14506254Y-27181950D01*
X14501447Y-27185815D01*
X14369024Y-27343630D01*
X14366056Y-27349028D01*
X14366053Y-27349033D01*
X14359315Y-27361290D01*
X14269776Y-27524162D01*
X14207484Y-27720532D01*
X14206798Y-27726649D01*
X14206797Y-27726653D01*
X14185207Y-27919137D01*
X14184520Y-27925262D01*
X14201759Y-28130553D01*
X14258544Y-28328586D01*
X14261359Y-28334063D01*
X14261360Y-28334066D01*
X14282247Y-28374707D01*
X14352712Y-28511818D01*
X14480677Y-28673270D01*
X14637564Y-28806791D01*
X14817398Y-28907297D01*
X14912238Y-28938113D01*
X15007471Y-28969056D01*
X15007475Y-28969057D01*
X15013329Y-28970959D01*
X15217894Y-28995351D01*
X15224029Y-28994879D01*
X15224031Y-28994879D01*
X15280039Y-28990569D01*
X15423300Y-28979546D01*
X15429230Y-28977890D01*
X15429232Y-28977890D01*
X15615797Y-28925800D01*
X15615796Y-28925800D01*
X15621725Y-28924145D01*
X15627214Y-28921372D01*
X15627220Y-28921370D01*
X15800116Y-28834033D01*
X15805610Y-28831258D01*
X15967951Y-28704424D01*
X16102564Y-28548472D01*
X16123387Y-28511818D01*
X16201276Y-28374707D01*
X16204323Y-28369344D01*
X16269351Y-28173863D01*
X16295171Y-27969474D01*
X16295583Y-27940000D01*
X16275480Y-27734970D01*
X16215935Y-27537749D01*
X16119218Y-27355849D01*
X15993037Y-27201136D01*
X15965483Y-27135704D01*
X15977678Y-27065763D01*
X16025751Y-27013518D01*
X16090680Y-26995500D01*
X25380290Y-26995500D01*
X25391272Y-26995980D01*
X25417820Y-26998303D01*
X25417822Y-26998303D01*
X25428807Y-26999264D01*
X25465215Y-26989508D01*
X25475942Y-26987130D01*
X25479301Y-26986538D01*
X25513045Y-26980588D01*
X25522590Y-26975077D01*
X25525866Y-26973885D01*
X25529034Y-26972408D01*
X25539684Y-26969554D01*
X25570550Y-26947941D01*
X25579815Y-26942039D01*
X25602910Y-26928705D01*
X25602911Y-26928704D01*
X25612455Y-26923194D01*
X25636685Y-26894319D01*
X25644110Y-26886217D01*
X26886222Y-25644105D01*
X26894326Y-25636678D01*
X26904973Y-25627744D01*
X26923194Y-25612455D01*
X26928704Y-25602912D01*
X26928707Y-25602908D01*
X26942036Y-25579821D01*
X26947941Y-25570551D01*
X26963232Y-25548713D01*
X26969554Y-25539684D01*
X26972407Y-25529036D01*
X26973886Y-25525865D01*
X26975078Y-25522589D01*
X26980588Y-25513045D01*
X26987134Y-25475924D01*
X26989508Y-25465217D01*
X26999263Y-25428807D01*
X26995979Y-25391269D01*
X26995500Y-25380288D01*
X26995500Y-10179713D01*
X26995979Y-10168732D01*
X26998303Y-10142170D01*
X26998303Y-10142168D01*
X26999263Y-10131193D01*
X26989508Y-10094783D01*
X26987133Y-10084072D01*
X26982501Y-10057806D01*
X26980588Y-10046955D01*
X26975078Y-10037411D01*
X26973886Y-10034135D01*
X26972407Y-10030964D01*
X26969554Y-10020316D01*
X26947940Y-9989448D01*
X26942036Y-9980179D01*
X26928707Y-9957092D01*
X26928704Y-9957088D01*
X26923194Y-9947545D01*
X26894330Y-9923325D01*
X26886227Y-9915900D01*
X26664628Y-9694301D01*
X26400715Y-9430389D01*
X26366690Y-9368076D01*
X26370252Y-9301521D01*
X26393963Y-9230243D01*
X26429351Y-9123863D01*
X26455171Y-8919474D01*
X26455390Y-8903806D01*
X26455534Y-8893522D01*
X26455534Y-8893518D01*
X26455583Y-8890000D01*
X26435480Y-8684970D01*
X26375935Y-8487749D01*
X26279218Y-8305849D01*
X26186216Y-8191818D01*
X26152906Y-8150975D01*
X26152903Y-8150972D01*
X26149011Y-8146200D01*
X26068483Y-8079581D01*
X25995025Y-8018811D01*
X25995021Y-8018809D01*
X25990275Y-8014882D01*
X25809055Y-7916897D01*
X25612254Y-7855977D01*
X25606129Y-7855333D01*
X25606128Y-7855333D01*
X25413498Y-7835087D01*
X25413496Y-7835087D01*
X25407369Y-7834443D01*
X25326988Y-7841758D01*
X25208342Y-7852555D01*
X25208339Y-7852556D01*
X25202203Y-7853114D01*
X25004572Y-7911280D01*
X24822002Y-8006726D01*
X24817201Y-8010586D01*
X24817198Y-8010588D01*
X24670008Y-8128932D01*
X24661447Y-8135815D01*
X24529024Y-8293630D01*
X24526056Y-8299028D01*
X24526053Y-8299033D01*
X24453884Y-8430310D01*
X24429776Y-8474162D01*
X24367484Y-8670532D01*
X24366798Y-8676649D01*
X24366797Y-8676653D01*
X24348205Y-8842412D01*
X24344520Y-8875262D01*
X24361759Y-9080553D01*
X24363458Y-9086478D01*
X24416476Y-9271373D01*
X24418544Y-9278586D01*
X24421359Y-9284063D01*
X24421360Y-9284066D01*
X24493755Y-9424932D01*
X24512712Y-9461818D01*
X24640677Y-9623270D01*
X24645370Y-9627264D01*
X24645371Y-9627265D01*
X24789626Y-9750035D01*
X24797564Y-9756791D01*
X24977398Y-9857297D01*
X25068940Y-9887041D01*
X25167471Y-9919056D01*
X25167475Y-9919057D01*
X25173329Y-9920959D01*
X25377894Y-9945351D01*
X25384029Y-9944879D01*
X25384031Y-9944879D01*
X25444565Y-9940221D01*
X25583300Y-9929546D01*
X25589230Y-9927890D01*
X25589232Y-9927890D01*
X25732231Y-9887964D01*
X25781725Y-9874145D01*
X25794717Y-9867582D01*
X25864540Y-9854720D01*
X25930231Y-9881649D01*
X25940625Y-9890951D01*
X26128214Y-10078541D01*
X26307596Y-10257923D01*
X26341621Y-10320235D01*
X26344500Y-10347018D01*
X26344500Y-10580159D01*
X26324498Y-10648280D01*
X26270842Y-10694773D01*
X26200568Y-10704877D01*
X26138186Y-10677245D01*
X25990275Y-10554882D01*
X25809055Y-10456897D01*
X25612254Y-10395977D01*
X25606129Y-10395333D01*
X25606128Y-10395333D01*
X25413498Y-10375087D01*
X25413496Y-10375087D01*
X25407369Y-10374443D01*
X25320529Y-10382346D01*
X25208342Y-10392555D01*
X25208339Y-10392556D01*
X25202203Y-10393114D01*
X25004572Y-10451280D01*
X24822002Y-10546726D01*
X24817201Y-10550586D01*
X24817198Y-10550588D01*
X24695694Y-10648280D01*
X24661447Y-10675815D01*
X24529024Y-10833630D01*
X24526056Y-10839028D01*
X24526053Y-10839033D01*
X24459239Y-10960568D01*
X24429776Y-11014162D01*
X24367484Y-11210532D01*
X24366798Y-11216649D01*
X24366797Y-11216653D01*
X24345207Y-11409137D01*
X24344520Y-11415262D01*
X24361759Y-11620553D01*
X24363458Y-11626478D01*
X24411037Y-11792405D01*
X24418544Y-11818586D01*
X24421361Y-11824067D01*
X24421537Y-11824410D01*
X24421575Y-11824608D01*
X24423630Y-11829799D01*
X24422644Y-11830190D01*
X24434888Y-11894140D01*
X24408420Y-11960019D01*
X24398569Y-11971104D01*
X24032079Y-12337595D01*
X23969766Y-12371620D01*
X23942983Y-12374500D01*
X23707722Y-12374500D01*
X23639601Y-12354498D01*
X23593108Y-12300842D01*
X23583004Y-12230568D01*
X23612340Y-12166169D01*
X23718540Y-12043134D01*
X23718540Y-12043133D01*
X23722564Y-12038472D01*
X23743387Y-12001818D01*
X23772515Y-11950543D01*
X23824323Y-11859344D01*
X23889351Y-11663863D01*
X23915171Y-11459474D01*
X23915583Y-11430000D01*
X23895480Y-11224970D01*
X23835935Y-11027749D01*
X23739218Y-10845849D01*
X23646216Y-10731818D01*
X23612906Y-10690975D01*
X23612903Y-10690972D01*
X23609011Y-10686200D01*
X23530516Y-10621263D01*
X23455025Y-10558811D01*
X23455021Y-10558808D01*
X23450275Y-10554882D01*
X23269055Y-10456897D01*
X23072254Y-10395977D01*
X23066129Y-10395333D01*
X23066128Y-10395333D01*
X22873498Y-10375087D01*
X22873496Y-10375087D01*
X22867369Y-10374443D01*
X22780529Y-10382346D01*
X22668342Y-10392555D01*
X22668339Y-10392556D01*
X22662203Y-10393114D01*
X22464572Y-10451280D01*
X22282002Y-10546726D01*
X22277201Y-10550586D01*
X22277198Y-10550588D01*
X22155694Y-10648280D01*
X22121447Y-10675815D01*
X21989024Y-10833630D01*
X21986056Y-10839028D01*
X21986053Y-10839033D01*
X21919239Y-10960568D01*
X21889776Y-11014162D01*
X21827484Y-11210532D01*
X21826798Y-11216649D01*
X21826797Y-11216653D01*
X21805207Y-11409137D01*
X21804520Y-11415262D01*
X21821759Y-11620553D01*
X21823458Y-11626478D01*
X21871037Y-11792405D01*
X21878544Y-11818586D01*
X21881359Y-11824063D01*
X21881360Y-11824066D01*
X21951804Y-11961136D01*
X21972712Y-12001818D01*
X22100677Y-12163270D01*
X22100550Y-12163370D01*
X22132227Y-12223870D01*
X22125927Y-12294586D01*
X22082395Y-12350671D01*
X22008658Y-12374500D01*
X21609710Y-12374500D01*
X21598728Y-12374020D01*
X21572180Y-12371697D01*
X21572178Y-12371697D01*
X21561193Y-12370736D01*
X21524785Y-12380492D01*
X21514058Y-12382870D01*
X21510699Y-12383462D01*
X21476955Y-12389412D01*
X21467410Y-12394923D01*
X21464134Y-12396115D01*
X21460966Y-12397592D01*
X21450316Y-12400446D01*
X21428389Y-12415800D01*
X21419456Y-12422055D01*
X21410185Y-12427961D01*
X21387094Y-12441293D01*
X21377545Y-12446806D01*
X21359853Y-12467890D01*
X21353315Y-12475682D01*
X21345889Y-12483785D01*
X19468785Y-14360889D01*
X19460681Y-14368316D01*
X19431806Y-14392545D01*
X19426293Y-14402094D01*
X19412961Y-14425185D01*
X19407055Y-14434456D01*
X19385446Y-14465316D01*
X19382592Y-14475966D01*
X19381115Y-14479134D01*
X19379923Y-14482410D01*
X19374412Y-14491955D01*
X19371162Y-14510389D01*
X19367870Y-14529058D01*
X19365492Y-14539785D01*
X19355736Y-14576193D01*
X19356697Y-14587178D01*
X19356697Y-14587180D01*
X19359020Y-14613728D01*
X19359500Y-14624710D01*
X19359500Y-21590155D01*
X19339498Y-21658276D01*
X19285842Y-21704769D01*
X19217054Y-21715077D01*
X19177699Y-21709896D01*
X19169511Y-21708818D01*
X19012749Y-21729456D01*
X18866670Y-21789964D01*
X18741229Y-21886218D01*
X18736206Y-21892764D01*
X18729736Y-21901196D01*
X18644975Y-22011659D01*
X18584467Y-22157738D01*
X18563829Y-22314500D01*
X18584467Y-22471262D01*
X18618859Y-22554290D01*
X18644284Y-22615672D01*
X18651873Y-22686261D01*
X18620094Y-22749748D01*
X18559036Y-22785976D01*
X18488085Y-22783442D01*
X18438780Y-22752985D01*
X18217405Y-22531610D01*
X18183379Y-22469298D01*
X18180500Y-22442515D01*
X18180500Y-8926400D01*
X18180499Y-8926394D01*
X18180499Y-8894486D01*
X18177436Y-8885059D01*
X18177435Y-8885052D01*
X18174254Y-8875262D01*
X21804520Y-8875262D01*
X21821759Y-9080553D01*
X21823458Y-9086478D01*
X21876476Y-9271373D01*
X21878544Y-9278586D01*
X21881359Y-9284063D01*
X21881360Y-9284066D01*
X21953755Y-9424932D01*
X21972712Y-9461818D01*
X22100677Y-9623270D01*
X22105370Y-9627264D01*
X22105371Y-9627265D01*
X22249626Y-9750035D01*
X22257564Y-9756791D01*
X22437398Y-9857297D01*
X22528940Y-9887041D01*
X22627471Y-9919056D01*
X22627475Y-9919057D01*
X22633329Y-9920959D01*
X22837894Y-9945351D01*
X22844029Y-9944879D01*
X22844031Y-9944879D01*
X22904565Y-9940221D01*
X23043300Y-9929546D01*
X23049230Y-9927890D01*
X23049232Y-9927890D01*
X23192231Y-9887964D01*
X23241725Y-9874145D01*
X23247214Y-9871372D01*
X23247220Y-9871370D01*
X23379952Y-9804322D01*
X23425610Y-9781258D01*
X23459437Y-9754830D01*
X23583101Y-9658213D01*
X23587951Y-9654424D01*
X23613291Y-9625068D01*
X23718540Y-9503134D01*
X23718540Y-9503133D01*
X23722564Y-9498472D01*
X23743387Y-9461818D01*
X23772515Y-9410543D01*
X23824323Y-9319344D01*
X23889351Y-9123863D01*
X23915171Y-8919474D01*
X23915390Y-8903806D01*
X23915534Y-8893522D01*
X23915534Y-8893518D01*
X23915583Y-8890000D01*
X23895480Y-8684970D01*
X23835935Y-8487749D01*
X23739218Y-8305849D01*
X23646216Y-8191818D01*
X23612906Y-8150975D01*
X23612903Y-8150972D01*
X23609011Y-8146200D01*
X23528483Y-8079581D01*
X23455025Y-8018811D01*
X23455021Y-8018809D01*
X23450275Y-8014882D01*
X23269055Y-7916897D01*
X23072254Y-7855977D01*
X23066129Y-7855333D01*
X23066128Y-7855333D01*
X22873498Y-7835087D01*
X22873496Y-7835087D01*
X22867369Y-7834443D01*
X22786988Y-7841758D01*
X22668342Y-7852555D01*
X22668339Y-7852556D01*
X22662203Y-7853114D01*
X22464572Y-7911280D01*
X22282002Y-8006726D01*
X22277201Y-8010586D01*
X22277198Y-8010588D01*
X22130008Y-8128932D01*
X22121447Y-8135815D01*
X21989024Y-8293630D01*
X21986056Y-8299028D01*
X21986053Y-8299033D01*
X21913884Y-8430310D01*
X21889776Y-8474162D01*
X21827484Y-8670532D01*
X21826798Y-8676649D01*
X21826797Y-8676653D01*
X21808205Y-8842412D01*
X21804520Y-8875262D01*
X18174254Y-8875262D01*
X18173703Y-8873566D01*
X18169089Y-8854346D01*
X18167199Y-8842412D01*
X18167197Y-8842404D01*
X18165646Y-8832615D01*
X18161146Y-8823784D01*
X18161145Y-8823780D01*
X18155658Y-8813012D01*
X18148094Y-8794751D01*
X18141296Y-8773829D01*
X18128368Y-8756035D01*
X18118038Y-8739178D01*
X18112552Y-8728412D01*
X18112551Y-8728411D01*
X18108050Y-8719577D01*
X18018342Y-8629869D01*
X16702990Y-7314516D01*
X16702986Y-7314513D01*
X16680423Y-7291950D01*
X16660827Y-7281965D01*
X16643974Y-7271639D01*
X16626171Y-7258704D01*
X16605247Y-7251905D01*
X16586987Y-7244341D01*
X16576222Y-7238856D01*
X16576218Y-7238855D01*
X16567385Y-7234354D01*
X16557594Y-7232803D01*
X16557593Y-7232803D01*
X16545659Y-7230913D01*
X16526434Y-7226297D01*
X16514949Y-7222565D01*
X16514945Y-7222564D01*
X16505514Y-7219500D01*
X16292575Y-7219500D01*
X16224454Y-7199498D01*
X16181323Y-7152653D01*
X16122111Y-7041290D01*
X16119218Y-7035849D01*
X16045859Y-6945902D01*
X15992906Y-6880975D01*
X15992903Y-6880972D01*
X15989011Y-6876200D01*
X15971786Y-6861950D01*
X15835025Y-6748811D01*
X15835021Y-6748809D01*
X15830275Y-6744882D01*
X15824854Y-6741951D01*
X15824850Y-6741948D01*
X15706572Y-6677996D01*
X15656163Y-6628001D01*
X15640500Y-6567160D01*
X15640500Y-6132177D01*
X15660502Y-6064056D01*
X15709690Y-6019711D01*
X15800112Y-5974035D01*
X15805610Y-5971258D01*
X15967951Y-5844424D01*
X16102564Y-5688472D01*
X16123387Y-5651818D01*
X16201276Y-5514707D01*
X16204323Y-5509344D01*
X16269351Y-5313863D01*
X16295171Y-5109474D01*
X16295583Y-5080000D01*
X16275480Y-4874970D01*
X16215935Y-4677749D01*
X16119218Y-4495849D01*
X16045859Y-4405902D01*
X15992906Y-4340975D01*
X15992903Y-4340972D01*
X15989011Y-4336200D01*
X15971786Y-4321950D01*
X15835025Y-4208811D01*
X15835021Y-4208809D01*
X15830275Y-4204882D01*
X15649055Y-4106897D01*
X15452254Y-4045977D01*
X15446129Y-4045333D01*
X15446128Y-4045333D01*
X15253498Y-4025087D01*
X15253496Y-4025087D01*
X15247369Y-4024443D01*
X15160529Y-4032346D01*
X15048342Y-4042555D01*
X15048339Y-4042556D01*
X15042203Y-4043114D01*
X15036295Y-4044853D01*
X15036294Y-4044853D01*
X14903283Y-4084000D01*
X14832286Y-4084045D01*
X14778613Y-4052221D01*
X13881988Y-3155595D01*
X13251655Y-2525262D01*
X14184520Y-2525262D01*
X14201759Y-2730553D01*
X14203458Y-2736478D01*
X14250719Y-2901296D01*
X14258544Y-2928586D01*
X14261359Y-2934063D01*
X14261360Y-2934066D01*
X14349897Y-3106341D01*
X14352712Y-3111818D01*
X14480677Y-3273270D01*
X14637564Y-3406791D01*
X14817398Y-3507297D01*
X14897088Y-3533190D01*
X15007471Y-3569056D01*
X15007475Y-3569057D01*
X15013329Y-3570959D01*
X15217894Y-3595351D01*
X15224029Y-3594879D01*
X15224031Y-3594879D01*
X15280039Y-3590569D01*
X15423300Y-3579546D01*
X15429230Y-3577890D01*
X15429232Y-3577890D01*
X15615797Y-3525800D01*
X15615796Y-3525800D01*
X15621725Y-3524145D01*
X15627214Y-3521372D01*
X15627220Y-3521370D01*
X15800116Y-3434033D01*
X15805610Y-3431258D01*
X15967951Y-3304424D01*
X16102564Y-3148472D01*
X16123387Y-3111818D01*
X16184486Y-3004263D01*
X16204323Y-2969344D01*
X16269351Y-2773863D01*
X16295171Y-2569474D01*
X16295583Y-2540000D01*
X16275480Y-2334970D01*
X16215935Y-2137749D01*
X16119218Y-1955849D01*
X16045859Y-1865902D01*
X15992906Y-1800975D01*
X15992903Y-1800972D01*
X15989011Y-1796200D01*
X15945711Y-1760379D01*
X15835025Y-1668811D01*
X15835021Y-1668809D01*
X15830275Y-1664882D01*
X15649055Y-1566897D01*
X15452254Y-1505977D01*
X15446129Y-1505333D01*
X15446128Y-1505333D01*
X15253498Y-1485087D01*
X15253496Y-1485087D01*
X15247369Y-1484443D01*
X15160529Y-1492346D01*
X15048342Y-1502555D01*
X15048339Y-1502556D01*
X15042203Y-1503114D01*
X14844572Y-1561280D01*
X14662002Y-1656726D01*
X14657201Y-1660586D01*
X14657198Y-1660588D01*
X14539889Y-1754907D01*
X14501447Y-1785815D01*
X14369024Y-1943630D01*
X14366056Y-1949028D01*
X14366053Y-1949033D01*
X14298093Y-2072653D01*
X14269776Y-2124162D01*
X14207484Y-2320532D01*
X14206798Y-2326649D01*
X14206797Y-2326653D01*
X14190364Y-2473162D01*
X14184520Y-2525262D01*
X13251655Y-2525262D01*
X12960909Y-2234516D01*
X12960905Y-2234513D01*
X12938342Y-2211950D01*
X12918746Y-2201965D01*
X12901893Y-2191639D01*
X12884090Y-2178704D01*
X12863166Y-2171905D01*
X12844906Y-2164341D01*
X12834141Y-2158856D01*
X12834137Y-2158855D01*
X12825304Y-2154354D01*
X12815513Y-2152803D01*
X12815512Y-2152803D01*
X12803578Y-2150913D01*
X12784353Y-2146297D01*
X12772868Y-2142565D01*
X12772864Y-2142564D01*
X12763433Y-2139500D01*
X1052575Y-2139500D01*
X984454Y-2119498D01*
X941323Y-2072653D01*
X882111Y-1961290D01*
X879218Y-1955849D01*
X805859Y-1865902D01*
X752906Y-1800975D01*
X752903Y-1800972D01*
X749011Y-1796200D01*
X705711Y-1760379D01*
X595025Y-1668811D01*
X595021Y-1668809D01*
X590275Y-1664882D01*
X409055Y-1566897D01*
X212254Y-1505977D01*
X206129Y-1505333D01*
X206128Y-1505333D01*
X13498Y-1485087D01*
X13496Y-1485087D01*
X7369Y-1484443D01*
X-79471Y-1492346D01*
X-191658Y-1502555D01*
X-191661Y-1502556D01*
X-197797Y-1503114D01*
X-395428Y-1561280D01*
X-577998Y-1656726D01*
X-582799Y-1660586D01*
X-582802Y-1660588D01*
X-700111Y-1754907D01*
X-738553Y-1785815D01*
X-870976Y-1943630D01*
X-873946Y-1949033D01*
X-873947Y-1949034D01*
X-942758Y-2074201D01*
X-993104Y-2124260D01*
X-1053173Y-2139500D01*
X-3340932Y-2139500D01*
X-3409053Y-2119498D01*
X-3455546Y-2065842D01*
X-3465650Y-1995568D01*
X-3450866Y-1951934D01*
X-3346414Y-1765422D01*
X-3346413Y-1765420D01*
X-3343590Y-1760379D01*
X-3341734Y-1754912D01*
X-3341732Y-1754907D01*
X-3274525Y-1556921D01*
X-3274524Y-1556916D01*
X-3272669Y-1551452D01*
X-3271841Y-1545743D01*
X-3271840Y-1545738D01*
X-3241542Y-1336772D01*
X-3241009Y-1333098D01*
X-3239357Y-1270000D01*
X-3259546Y-1050289D01*
X-3262084Y-1041288D01*
X-3291060Y-938547D01*
X-3319435Y-837936D01*
X-3417020Y-640053D01*
X-3472063Y-566341D01*
X-3545580Y-467891D01*
X-3545580Y-467890D01*
X-3549033Y-463267D01*
X-3711051Y-313499D01*
X-3897650Y-195764D01*
X-4102579Y-114006D01*
X-4108239Y-112880D01*
X-4108243Y-112879D01*
X-4313309Y-72089D01*
X-4313312Y-72089D01*
X-4318976Y-70962D01*
X-4324751Y-70886D01*
X-4324755Y-70886D01*
X-4435496Y-69437D01*
X-4539594Y-68074D01*
X-4545291Y-69053D01*
X-4545292Y-69053D01*
X-4751346Y-104459D01*
X-4751347Y-104459D01*
X-4757043Y-105438D01*
X-4964043Y-181804D01*
X-4969004Y-184756D01*
X-4969005Y-184756D01*
X-5061382Y-239715D01*
X-5153659Y-294614D01*
X-5319543Y-440090D01*
X-5456137Y-613360D01*
X-5558869Y-808620D01*
X-5624297Y-1019333D01*
X-5650230Y-1238440D01*
X-5635800Y-1458604D01*
X-5634379Y-1464200D01*
X-5634378Y-1464205D01*
X-5608998Y-1564137D01*
X-5581489Y-1672452D01*
X-5579072Y-1677694D01*
X-5579072Y-1677695D01*
X-5540954Y-1760379D01*
X-5489117Y-1872821D01*
X-5361778Y-2053002D01*
X-5203736Y-2206961D01*
X-5198940Y-2210166D01*
X-5198937Y-2210168D01*
X-5114739Y-2266427D01*
X-5020283Y-2329540D01*
X-5014980Y-2331818D01*
X-5014977Y-2331820D01*
X-4822871Y-2414355D01*
X-4817564Y-2416635D01*
X-4737912Y-2434658D01*
X-4608005Y-2464054D01*
X-4607999Y-2464055D01*
X-4602368Y-2465329D01*
X-4596597Y-2465556D01*
X-4596595Y-2465556D01*
X-4528789Y-2468220D01*
X-4381902Y-2473991D01*
X-4376192Y-2473163D01*
X-4376190Y-2473163D01*
X-4357633Y-2470472D01*
X-4289389Y-2460577D01*
X-4219105Y-2470597D01*
X-4182215Y-2496178D01*
X-3832909Y-2845484D01*
X-3832905Y-2845487D01*
X-3810342Y-2868050D01*
X-3801503Y-2872554D01*
X-3801501Y-2872555D01*
X-3790742Y-2878037D01*
X-3773886Y-2888365D01*
X-3756089Y-2901296D01*
X-3735168Y-2908094D01*
X-3716908Y-2915658D01*
X-3706141Y-2921144D01*
X-3706137Y-2921145D01*
X-3697304Y-2925646D01*
X-3687513Y-2927197D01*
X-3687512Y-2927197D01*
X-3675578Y-2929087D01*
X-3656353Y-2933703D01*
X-3644868Y-2937435D01*
X-3644864Y-2937436D01*
X-3635433Y-2940500D01*
X-1271082Y-2940500D01*
X-1202961Y-2960502D01*
X-1156468Y-3014158D01*
X-1146364Y-3084432D01*
X-1175858Y-3149012D01*
X-1181987Y-3155595D01*
X-6478558Y-8452165D01*
X-6540870Y-8486191D01*
X-6611685Y-8481126D01*
X-6668521Y-8438579D01*
X-6678904Y-8422223D01*
X-6737884Y-8311298D01*
X-6737889Y-8311290D01*
X-6740782Y-8305849D01*
X-6833784Y-8191818D01*
X-6867094Y-8150975D01*
X-6867097Y-8150972D01*
X-6870989Y-8146200D01*
X-6951517Y-8079581D01*
X-7024975Y-8018811D01*
X-7024979Y-8018809D01*
X-7029725Y-8014882D01*
X-7210945Y-7916897D01*
X-7407746Y-7855977D01*
X-7413871Y-7855333D01*
X-7413872Y-7855333D01*
X-7606502Y-7835087D01*
X-7606504Y-7835087D01*
X-7612631Y-7834443D01*
X-7693012Y-7841758D01*
X-7811658Y-7852555D01*
X-7811661Y-7852556D01*
X-7817797Y-7853114D01*
X-8015428Y-7911280D01*
X-8197998Y-8006726D01*
X-8202799Y-8010586D01*
X-8202802Y-8010588D01*
X-8349992Y-8128932D01*
X-8358553Y-8135815D01*
X-8490976Y-8293630D01*
X-8493944Y-8299028D01*
X-8493947Y-8299033D01*
X-8566116Y-8430310D01*
X-8590224Y-8474162D01*
X-8652516Y-8670532D01*
X-8653202Y-8676649D01*
X-8653203Y-8676653D01*
X-8671795Y-8842412D01*
X-8675480Y-8875262D01*
X-8658241Y-9080553D01*
X-8656542Y-9086478D01*
X-8603524Y-9271373D01*
X-8601456Y-9278586D01*
X-8598641Y-9284063D01*
X-8598640Y-9284066D01*
X-8526245Y-9424932D01*
X-8507288Y-9461818D01*
X-8428940Y-9560669D01*
X-8425717Y-9564735D01*
X-8399079Y-9630545D01*
X-8412250Y-9700310D01*
X-8461047Y-9751879D01*
X-8524462Y-9769000D01*
X-8675853Y-9769000D01*
X-8743974Y-9748998D01*
X-8764948Y-9732095D01*
X-9072595Y-9424448D01*
X-9106621Y-9362136D01*
X-9109500Y-9335353D01*
X-9109500Y-8236166D01*
X-9112481Y-8204631D01*
X-9157366Y-8076816D01*
X-9162958Y-8069246D01*
X-9162959Y-8069243D01*
X-9232258Y-7975421D01*
X-9237850Y-7967850D01*
X-9254794Y-7955335D01*
X-9339243Y-7892959D01*
X-9339246Y-7892958D01*
X-9346816Y-7887366D01*
X-9474631Y-7842481D01*
X-9482277Y-7841758D01*
X-9482278Y-7841758D01*
X-9488248Y-7841194D01*
X-9506166Y-7839500D01*
X-10813834Y-7839500D01*
X-10831752Y-7841194D01*
X-10837722Y-7841758D01*
X-10837723Y-7841758D01*
X-10845369Y-7842481D01*
X-10973184Y-7887366D01*
X-10980754Y-7892958D01*
X-10980757Y-7892959D01*
X-11065206Y-7955335D01*
X-11082150Y-7967850D01*
X-11087742Y-7975421D01*
X-11157041Y-8069243D01*
X-11157042Y-8069246D01*
X-11162634Y-8076816D01*
X-11207519Y-8204631D01*
X-11210500Y-8236166D01*
X-11210500Y-9543834D01*
X-11207519Y-9575369D01*
X-11162634Y-9703184D01*
X-11157042Y-9710754D01*
X-11157041Y-9710757D01*
X-11120818Y-9759798D01*
X-11082150Y-9812150D01*
X-11074579Y-9817742D01*
X-10980757Y-9887041D01*
X-10980754Y-9887042D01*
X-10973184Y-9892634D01*
X-10845369Y-9937519D01*
X-10837723Y-9938242D01*
X-10837722Y-9938242D01*
X-10831752Y-9938806D01*
X-10813834Y-9940500D01*
X-9714647Y-9940500D01*
X-9646526Y-9960502D01*
X-9625552Y-9977405D01*
X-9210270Y-10392687D01*
X-9210269Y-10392689D01*
X-9122689Y-10480269D01*
X-9113853Y-10484772D01*
X-9113852Y-10484772D01*
X-9103763Y-10489913D01*
X-9086906Y-10500243D01*
X-9069723Y-10512727D01*
X-9060292Y-10515791D01*
X-9060289Y-10515793D01*
X-9049521Y-10519292D01*
X-9031261Y-10526855D01*
X-9021297Y-10531931D01*
X-9012332Y-10536499D01*
X-9002543Y-10538049D01*
X-9002538Y-10538051D01*
X-8991352Y-10539823D01*
X-8972133Y-10544437D01*
X-8961365Y-10547935D01*
X-8961360Y-10547936D01*
X-8951929Y-10551000D01*
X-8524028Y-10551000D01*
X-8455907Y-10571002D01*
X-8409414Y-10624658D01*
X-8399310Y-10694932D01*
X-8427507Y-10757991D01*
X-8490976Y-10833630D01*
X-8493944Y-10839028D01*
X-8493947Y-10839033D01*
X-8560761Y-10960568D01*
X-8590224Y-11014162D01*
X-8652516Y-11210532D01*
X-8653202Y-11216649D01*
X-8653203Y-11216653D01*
X-8674793Y-11409137D01*
X-8675480Y-11415262D01*
X-8658241Y-11620553D01*
X-8656542Y-11626478D01*
X-8608963Y-11792405D01*
X-8601456Y-11818586D01*
X-8598641Y-11824063D01*
X-8598640Y-11824066D01*
X-8528196Y-11961136D01*
X-8507288Y-12001818D01*
X-8379323Y-12163270D01*
X-8379450Y-12163370D01*
X-8347773Y-12223870D01*
X-8354073Y-12294586D01*
X-8397605Y-12350671D01*
X-8471342Y-12374500D01*
X-8702982Y-12374500D01*
X-8771103Y-12354498D01*
X-8792077Y-12337596D01*
X-9159285Y-11970389D01*
X-9193310Y-11908076D01*
X-9189748Y-11841521D01*
X-9167786Y-11775502D01*
X-9130649Y-11663863D01*
X-9104829Y-11459474D01*
X-9104417Y-11430000D01*
X-9124520Y-11224970D01*
X-9184065Y-11027749D01*
X-9280782Y-10845849D01*
X-9373784Y-10731818D01*
X-9407094Y-10690975D01*
X-9407097Y-10690972D01*
X-9410989Y-10686200D01*
X-9489484Y-10621263D01*
X-9564975Y-10558811D01*
X-9564979Y-10558808D01*
X-9569725Y-10554882D01*
X-9750945Y-10456897D01*
X-9947746Y-10395977D01*
X-9953871Y-10395333D01*
X-9953872Y-10395333D01*
X-10146502Y-10375087D01*
X-10146504Y-10375087D01*
X-10152631Y-10374443D01*
X-10239471Y-10382346D01*
X-10351658Y-10392555D01*
X-10351661Y-10392556D01*
X-10357797Y-10393114D01*
X-10555428Y-10451280D01*
X-10737998Y-10546726D01*
X-10742799Y-10550586D01*
X-10742802Y-10550588D01*
X-10864306Y-10648280D01*
X-10898553Y-10675815D01*
X-11030976Y-10833630D01*
X-11033944Y-10839028D01*
X-11033947Y-10839033D01*
X-11100761Y-10960568D01*
X-11130224Y-11014162D01*
X-11192516Y-11210532D01*
X-11193202Y-11216649D01*
X-11193203Y-11216653D01*
X-11214793Y-11409137D01*
X-11215480Y-11415262D01*
X-11198241Y-11620553D01*
X-11196542Y-11626478D01*
X-11148963Y-11792405D01*
X-11141456Y-11818586D01*
X-11138641Y-11824063D01*
X-11138640Y-11824066D01*
X-11068196Y-11961136D01*
X-11047288Y-12001818D01*
X-10919323Y-12163270D01*
X-10914630Y-12167264D01*
X-10914629Y-12167265D01*
X-10770374Y-12290035D01*
X-10762436Y-12296791D01*
X-10582602Y-12397297D01*
X-10488228Y-12427961D01*
X-10392529Y-12459056D01*
X-10392525Y-12459057D01*
X-10386671Y-12460959D01*
X-10182106Y-12485351D01*
X-10175971Y-12484879D01*
X-10175969Y-12484879D01*
X-10119477Y-12480532D01*
X-9976700Y-12469546D01*
X-9970770Y-12467890D01*
X-9970768Y-12467890D01*
X-9817920Y-12425214D01*
X-9778275Y-12414145D01*
X-9765283Y-12407582D01*
X-9695460Y-12394720D01*
X-9629769Y-12421649D01*
X-9619374Y-12430952D01*
X-9134099Y-12916228D01*
X-9126673Y-12924331D01*
X-9102455Y-12953194D01*
X-9092912Y-12958704D01*
X-9092908Y-12958707D01*
X-9069821Y-12972036D01*
X-9060552Y-12977940D01*
X-9029684Y-12999554D01*
X-9019036Y-13002407D01*
X-9015865Y-13003886D01*
X-9012589Y-13005078D01*
X-9003045Y-13010588D01*
X-8965924Y-13017134D01*
X-8955217Y-13019508D01*
X-8918807Y-13029263D01*
X-8907832Y-13028303D01*
X-8907830Y-13028303D01*
X-8881269Y-13025979D01*
X-8870288Y-13025500D01*
X-8469067Y-13025500D01*
X-8400946Y-13045502D01*
X-8354453Y-13099158D01*
X-8344349Y-13169432D01*
X-8372546Y-13232491D01*
X-8490976Y-13373630D01*
X-8493944Y-13379028D01*
X-8493947Y-13379033D01*
X-8560761Y-13500568D01*
X-8590224Y-13554162D01*
X-8652516Y-13750532D01*
X-8653202Y-13756649D01*
X-8653203Y-13756653D01*
X-8672308Y-13926981D01*
X-8675480Y-13955262D01*
X-8658241Y-14160553D01*
X-8656542Y-14166478D01*
X-8608963Y-14332405D01*
X-8601456Y-14358586D01*
X-8598641Y-14364063D01*
X-8598640Y-14364066D01*
X-8528196Y-14501136D01*
X-8507288Y-14541818D01*
X-8379323Y-14703270D01*
X-8379450Y-14703370D01*
X-8347773Y-14763870D01*
X-8354073Y-14834586D01*
X-8397605Y-14890671D01*
X-8471342Y-14914500D01*
X-8702982Y-14914500D01*
X-8771103Y-14894498D01*
X-8792077Y-14877596D01*
X-9159285Y-14510389D01*
X-9193310Y-14448076D01*
X-9189748Y-14381521D01*
X-9167786Y-14315502D01*
X-9130649Y-14203863D01*
X-9104829Y-13999474D01*
X-9104417Y-13970000D01*
X-9124520Y-13764970D01*
X-9184065Y-13567749D01*
X-9280782Y-13385849D01*
X-9373784Y-13271818D01*
X-9407094Y-13230975D01*
X-9407097Y-13230972D01*
X-9410989Y-13226200D01*
X-9456826Y-13188280D01*
X-9564975Y-13098811D01*
X-9564979Y-13098808D01*
X-9569725Y-13094882D01*
X-9750945Y-12996897D01*
X-9947746Y-12935977D01*
X-9953871Y-12935333D01*
X-9953872Y-12935333D01*
X-10146502Y-12915087D01*
X-10146504Y-12915087D01*
X-10152631Y-12914443D01*
X-10239471Y-12922346D01*
X-10351658Y-12932555D01*
X-10351661Y-12932556D01*
X-10357797Y-12933114D01*
X-10555428Y-12991280D01*
X-10560893Y-12994137D01*
X-10622625Y-13026410D01*
X-10737998Y-13086726D01*
X-10742799Y-13090586D01*
X-10742802Y-13090588D01*
X-10840864Y-13169432D01*
X-10898553Y-13215815D01*
X-11030976Y-13373630D01*
X-11033944Y-13379028D01*
X-11033947Y-13379033D01*
X-11100761Y-13500568D01*
X-11130224Y-13554162D01*
X-11192516Y-13750532D01*
X-11193202Y-13756649D01*
X-11193203Y-13756653D01*
X-11212308Y-13926981D01*
X-11215480Y-13955262D01*
X-11198241Y-14160553D01*
X-11196542Y-14166478D01*
X-11148963Y-14332405D01*
X-11141456Y-14358586D01*
X-11138641Y-14364063D01*
X-11138640Y-14364066D01*
X-11068196Y-14501136D01*
X-11047288Y-14541818D01*
X-10919323Y-14703270D01*
X-10914630Y-14707264D01*
X-10914629Y-14707265D01*
X-10770374Y-14830035D01*
X-10762436Y-14836791D01*
X-10582602Y-14937297D01*
X-10487762Y-14968113D01*
X-10392529Y-14999056D01*
X-10392525Y-14999057D01*
X-10386671Y-15000959D01*
X-10182106Y-15025351D01*
X-10175971Y-15024879D01*
X-10175969Y-15024879D01*
X-10119477Y-15020532D01*
X-9976700Y-15009546D01*
X-9970770Y-15007890D01*
X-9970768Y-15007890D01*
X-9817920Y-14965214D01*
X-9778275Y-14954145D01*
X-9765283Y-14947582D01*
X-9695460Y-14934720D01*
X-9629769Y-14961649D01*
X-9619374Y-14970952D01*
X-9134099Y-15456228D01*
X-9126673Y-15464331D01*
X-9102455Y-15493194D01*
X-9092912Y-15498704D01*
X-9092908Y-15498707D01*
X-9069821Y-15512036D01*
X-9060552Y-15517940D01*
X-9029684Y-15539554D01*
X-9019036Y-15542407D01*
X-9015865Y-15543886D01*
X-9012589Y-15545078D01*
X-9003045Y-15550588D01*
X-8965924Y-15557134D01*
X-8955217Y-15559508D01*
X-8918807Y-15569263D01*
X-8907832Y-15568303D01*
X-8907830Y-15568303D01*
X-8881269Y-15565979D01*
X-8870288Y-15565500D01*
X-8469067Y-15565500D01*
X-8400946Y-15585502D01*
X-8354453Y-15639158D01*
X-8344349Y-15709432D01*
X-8372546Y-15772491D01*
X-8490976Y-15913630D01*
X-8493944Y-15919028D01*
X-8493947Y-15919033D01*
X-8583383Y-16081718D01*
X-8590224Y-16094162D01*
X-8652516Y-16290532D01*
X-8653202Y-16296649D01*
X-8653203Y-16296653D01*
X-8658694Y-16345609D01*
X-8675480Y-16495262D01*
X-8658241Y-16700553D01*
X-8656542Y-16706478D01*
X-8608963Y-16872405D01*
X-8601456Y-16898586D01*
X-8598641Y-16904063D01*
X-8598640Y-16904066D01*
X-8528196Y-17041136D01*
X-8507288Y-17081818D01*
X-8379323Y-17243270D01*
X-8379450Y-17243370D01*
X-8347773Y-17303870D01*
X-8354073Y-17374586D01*
X-8397605Y-17430671D01*
X-8471342Y-17454500D01*
X-8870287Y-17454500D01*
X-8881268Y-17454021D01*
X-8907830Y-17451697D01*
X-8907832Y-17451697D01*
X-8918807Y-17450737D01*
X-8955217Y-17460492D01*
X-8965924Y-17462866D01*
X-9003045Y-17469412D01*
X-9012589Y-17474922D01*
X-9015865Y-17476114D01*
X-9019036Y-17477593D01*
X-9029684Y-17480446D01*
X-9038713Y-17486768D01*
X-9060551Y-17502059D01*
X-9069821Y-17507964D01*
X-9092908Y-17521293D01*
X-9092912Y-17521296D01*
X-9102455Y-17526806D01*
X-9120147Y-17547890D01*
X-9126680Y-17555676D01*
X-9134106Y-17563779D01*
X-9618510Y-18048183D01*
X-9680822Y-18082209D01*
X-9750600Y-18075781D01*
X-9750945Y-18076897D01*
X-9756224Y-18075263D01*
X-9756223Y-18075263D01*
X-9947746Y-18015977D01*
X-9953871Y-18015333D01*
X-9953872Y-18015333D01*
X-10146502Y-17995087D01*
X-10146504Y-17995087D01*
X-10152631Y-17994443D01*
X-10239471Y-18002346D01*
X-10351658Y-18012555D01*
X-10351661Y-18012556D01*
X-10357797Y-18013114D01*
X-10555428Y-18071280D01*
X-10560893Y-18074137D01*
X-10622625Y-18106410D01*
X-10737998Y-18166726D01*
X-10742799Y-18170586D01*
X-10742802Y-18170588D01*
X-10840864Y-18249432D01*
X-10898553Y-18295815D01*
X-11030976Y-18453630D01*
X-11033944Y-18459028D01*
X-11033947Y-18459033D01*
X-11097715Y-18575028D01*
X-11130224Y-18634162D01*
X-11192516Y-18830532D01*
X-11193202Y-18836649D01*
X-11193203Y-18836653D01*
X-11214793Y-19029137D01*
X-11215480Y-19035262D01*
X-11198241Y-19240553D01*
X-11196542Y-19246478D01*
X-11148963Y-19412405D01*
X-11141456Y-19438586D01*
X-11138641Y-19444063D01*
X-11138640Y-19444066D01*
X-11068196Y-19581136D01*
X-11047288Y-19621818D01*
X-10919323Y-19783270D01*
X-10914630Y-19787264D01*
X-10914629Y-19787265D01*
X-10770374Y-19910035D01*
X-10762436Y-19916791D01*
X-10582602Y-20017297D01*
X-10488228Y-20047961D01*
X-10392529Y-20079056D01*
X-10392525Y-20079057D01*
X-10386671Y-20080959D01*
X-10182106Y-20105351D01*
X-10175971Y-20104879D01*
X-10175969Y-20104879D01*
X-10119477Y-20100532D01*
X-9976700Y-20089546D01*
X-9970770Y-20087890D01*
X-9970768Y-20087890D01*
X-9817920Y-20045214D01*
X-9778275Y-20034145D01*
X-9772786Y-20031372D01*
X-9772780Y-20031370D01*
X-9599884Y-19944033D01*
X-9594390Y-19941258D01*
X-9568258Y-19920842D01*
X-9513220Y-19877841D01*
X-9432049Y-19814424D01*
X-9406143Y-19784412D01*
X-9301460Y-19663134D01*
X-9301460Y-19663133D01*
X-9297436Y-19658472D01*
X-9276613Y-19621818D01*
X-9247485Y-19570543D01*
X-9195677Y-19479344D01*
X-9130649Y-19283863D01*
X-9104829Y-19079474D01*
X-9104417Y-19050000D01*
X-9124520Y-18844970D01*
X-9184065Y-18647749D01*
X-9185688Y-18644697D01*
X-9193056Y-18575028D01*
X-9158192Y-18508519D01*
X-8792078Y-18142405D01*
X-8729766Y-18108379D01*
X-8702983Y-18105500D01*
X-8469067Y-18105500D01*
X-8400946Y-18125502D01*
X-8354453Y-18179158D01*
X-8344349Y-18249432D01*
X-8372546Y-18312491D01*
X-8490976Y-18453630D01*
X-8493944Y-18459028D01*
X-8493947Y-18459033D01*
X-8557715Y-18575028D01*
X-8590224Y-18634162D01*
X-8652516Y-18830532D01*
X-8653202Y-18836649D01*
X-8653203Y-18836653D01*
X-8674793Y-19029137D01*
X-8675480Y-19035262D01*
X-8658241Y-19240553D01*
X-8656542Y-19246478D01*
X-8608963Y-19412405D01*
X-8601456Y-19438586D01*
X-8598641Y-19444063D01*
X-8598640Y-19444066D01*
X-8528196Y-19581136D01*
X-8507288Y-19621818D01*
X-8379323Y-19783270D01*
X-8379450Y-19783370D01*
X-8347773Y-19843870D01*
X-8354073Y-19914586D01*
X-8397605Y-19970671D01*
X-8471342Y-19994500D01*
X-8870287Y-19994500D01*
X-8881268Y-19994021D01*
X-8907830Y-19991697D01*
X-8907832Y-19991697D01*
X-8918807Y-19990737D01*
X-8955217Y-20000492D01*
X-8965924Y-20002866D01*
X-9003045Y-20009412D01*
X-9012589Y-20014922D01*
X-9015865Y-20016114D01*
X-9019036Y-20017593D01*
X-9029684Y-20020446D01*
X-9038713Y-20026768D01*
X-9060551Y-20042059D01*
X-9069821Y-20047964D01*
X-9092908Y-20061293D01*
X-9092912Y-20061296D01*
X-9102455Y-20066806D01*
X-9120147Y-20087890D01*
X-9126680Y-20095676D01*
X-9134106Y-20103779D01*
X-9618510Y-20588183D01*
X-9680822Y-20622209D01*
X-9750600Y-20615781D01*
X-9750945Y-20616897D01*
X-9756224Y-20615263D01*
X-9756223Y-20615263D01*
X-9947746Y-20555977D01*
X-9953871Y-20555333D01*
X-9953872Y-20555333D01*
X-10146502Y-20535087D01*
X-10146504Y-20535087D01*
X-10152631Y-20534443D01*
X-10239471Y-20542346D01*
X-10351658Y-20552555D01*
X-10351661Y-20552556D01*
X-10357797Y-20553114D01*
X-10555428Y-20611280D01*
X-10737998Y-20706726D01*
X-10742799Y-20710586D01*
X-10742802Y-20710588D01*
X-10840864Y-20789432D01*
X-10898553Y-20835815D01*
X-11030976Y-20993630D01*
X-11033944Y-20999028D01*
X-11033947Y-20999033D01*
X-11097715Y-21115028D01*
X-11130224Y-21174162D01*
X-11192516Y-21370532D01*
X-11193202Y-21376649D01*
X-11193203Y-21376653D01*
X-11214793Y-21569137D01*
X-11215480Y-21575262D01*
X-11214964Y-21581406D01*
X-11202266Y-21732616D01*
X-11198241Y-21780553D01*
X-11196542Y-21786478D01*
X-11148963Y-21952405D01*
X-11141456Y-21978586D01*
X-11138641Y-21984063D01*
X-11138640Y-21984066D01*
X-11068196Y-22121136D01*
X-11047288Y-22161818D01*
X-10919323Y-22323270D01*
X-10914630Y-22327264D01*
X-10914629Y-22327265D01*
X-10770374Y-22450035D01*
X-10762436Y-22456791D01*
X-10757058Y-22459797D01*
X-10757056Y-22459798D01*
X-10725437Y-22477469D01*
X-10582602Y-22557297D01*
X-10487762Y-22588113D01*
X-10392529Y-22619056D01*
X-10392525Y-22619057D01*
X-10386671Y-22620959D01*
X-10182106Y-22645351D01*
X-10175971Y-22644879D01*
X-10175969Y-22644879D01*
X-10119477Y-22640532D01*
X-9976700Y-22629546D01*
X-9970770Y-22627890D01*
X-9970768Y-22627890D01*
X-9784203Y-22575800D01*
X-9784204Y-22575800D01*
X-9778275Y-22574145D01*
X-9772786Y-22571372D01*
X-9772780Y-22571370D01*
X-9599884Y-22484033D01*
X-9594390Y-22481258D01*
X-9581595Y-22471262D01*
X-9436899Y-22358213D01*
X-9432049Y-22354424D01*
X-9406143Y-22324412D01*
X-9301460Y-22203134D01*
X-9301460Y-22203133D01*
X-9297436Y-22198472D01*
X-9290381Y-22186054D01*
X-9247485Y-22110543D01*
X-9195677Y-22019344D01*
X-9130649Y-21823863D01*
X-9104829Y-21619474D01*
X-9104417Y-21590000D01*
X-9124520Y-21384970D01*
X-9184065Y-21187749D01*
X-9185688Y-21184697D01*
X-9193056Y-21115028D01*
X-9158192Y-21048519D01*
X-8792078Y-20682405D01*
X-8729766Y-20648379D01*
X-8702983Y-20645500D01*
X-8469067Y-20645500D01*
X-8400946Y-20665502D01*
X-8354453Y-20719158D01*
X-8344349Y-20789432D01*
X-8372546Y-20852491D01*
X-8490976Y-20993630D01*
X-8493944Y-20999028D01*
X-8493947Y-20999033D01*
X-8557715Y-21115028D01*
X-8590224Y-21174162D01*
X-8652516Y-21370532D01*
X-8653202Y-21376649D01*
X-8653203Y-21376653D01*
X-8674793Y-21569137D01*
X-8675480Y-21575262D01*
X-8674964Y-21581406D01*
X-8662266Y-21732616D01*
X-8658241Y-21780553D01*
X-8656542Y-21786478D01*
X-8608963Y-21952405D01*
X-8601456Y-21978586D01*
X-8598641Y-21984063D01*
X-8598640Y-21984066D01*
X-8528196Y-22121136D01*
X-8507288Y-22161818D01*
X-8379323Y-22323270D01*
X-8374630Y-22327264D01*
X-8374629Y-22327265D01*
X-8230374Y-22450035D01*
X-8222436Y-22456791D01*
X-8217058Y-22459797D01*
X-8217056Y-22459798D01*
X-8185437Y-22477469D01*
X-8042602Y-22557297D01*
X-7947762Y-22588113D01*
X-7852529Y-22619056D01*
X-7852525Y-22619057D01*
X-7846671Y-22620959D01*
X-7642106Y-22645351D01*
X-7635971Y-22644879D01*
X-7635969Y-22644879D01*
X-7579477Y-22640532D01*
X-7436700Y-22629546D01*
X-7430770Y-22627890D01*
X-7430768Y-22627890D01*
X-7244203Y-22575800D01*
X-7244204Y-22575800D01*
X-7238275Y-22574145D01*
X-7232786Y-22571372D01*
X-7232780Y-22571370D01*
X-7059884Y-22484033D01*
X-7054390Y-22481258D01*
X-7041595Y-22471262D01*
X-6896899Y-22358213D01*
X-6892049Y-22354424D01*
X-6866143Y-22324412D01*
X-6761460Y-22203134D01*
X-6761460Y-22203133D01*
X-6757436Y-22198472D01*
X-6750381Y-22186054D01*
X-6707485Y-22110543D01*
X-6655677Y-22019344D01*
X-6590649Y-21823863D01*
X-6564829Y-21619474D01*
X-6564417Y-21590000D01*
X-6584520Y-21384970D01*
X-6644065Y-21187749D01*
X-6740782Y-21005849D01*
X-6866963Y-20851136D01*
X-6894517Y-20785704D01*
X-6882322Y-20715763D01*
X-6834249Y-20663518D01*
X-6769320Y-20645500D01*
X-6439263Y-20645500D01*
X-6371142Y-20665502D01*
X-6350168Y-20682405D01*
X-5788076Y-21244498D01*
X-5226352Y-21806222D01*
X-5218926Y-21814325D01*
X-5194702Y-21843194D01*
X-5185159Y-21848704D01*
X-5185155Y-21848707D01*
X-5162068Y-21862036D01*
X-5152799Y-21867940D01*
X-5121931Y-21889554D01*
X-5111283Y-21892407D01*
X-5108112Y-21893886D01*
X-5104836Y-21895078D01*
X-5095292Y-21900588D01*
X-5058171Y-21907134D01*
X-5047464Y-21909508D01*
X-5011054Y-21919263D01*
X-5000079Y-21918303D01*
X-5000077Y-21918303D01*
X-4973516Y-21915979D01*
X-4962535Y-21915500D01*
X-849067Y-21915500D01*
X-780946Y-21935502D01*
X-734453Y-21989158D01*
X-724349Y-22059432D01*
X-752546Y-22122491D01*
X-870976Y-22263630D01*
X-873944Y-22269028D01*
X-873947Y-22269033D01*
X-967255Y-22438762D01*
X-970224Y-22444162D01*
X-1032516Y-22640532D01*
X-1033202Y-22646649D01*
X-1033203Y-22646653D01*
X-1045130Y-22752985D01*
X-1055480Y-22845262D01*
X-1054964Y-22851406D01*
X-1039150Y-23039723D01*
X-1038241Y-23050553D01*
X-1036542Y-23056478D01*
X-984460Y-23238109D01*
X-981456Y-23248586D01*
X-978641Y-23254063D01*
X-978640Y-23254066D01*
X-890103Y-23426341D01*
X-887288Y-23431818D01*
X-759323Y-23593270D01*
X-754630Y-23597264D01*
X-754629Y-23597265D01*
X-610374Y-23720035D01*
X-602436Y-23726791D01*
X-422602Y-23827297D01*
X-327762Y-23858113D01*
X-232529Y-23889056D01*
X-232525Y-23889057D01*
X-226671Y-23890959D01*
X-22106Y-23915351D01*
X-15971Y-23914879D01*
X-15969Y-23914879D01*
X40523Y-23910532D01*
X183300Y-23899546D01*
X189230Y-23897890D01*
X189232Y-23897890D01*
X375797Y-23845800D01*
X375796Y-23845800D01*
X381725Y-23844145D01*
X387214Y-23841372D01*
X387220Y-23841370D01*
X560116Y-23754033D01*
X565610Y-23751258D01*
X727951Y-23624424D01*
X862564Y-23468472D01*
X871764Y-23452278D01*
X912515Y-23380543D01*
X964323Y-23289344D01*
X1029351Y-23093863D01*
X1055171Y-22889474D01*
X1055583Y-22860000D01*
X1035480Y-22654970D01*
X975935Y-22457749D01*
X879218Y-22275849D01*
X776667Y-22150109D01*
X753037Y-22121136D01*
X725483Y-22055704D01*
X737678Y-21985763D01*
X785751Y-21933518D01*
X850680Y-21915500D01*
X12512984Y-21915500D01*
X12581105Y-21935502D01*
X12602079Y-21952405D01*
X13178267Y-22528594D01*
X13725895Y-23076222D01*
X13733321Y-23084325D01*
X13757545Y-23113194D01*
X13767088Y-23118704D01*
X13767092Y-23118707D01*
X13790179Y-23132036D01*
X13799448Y-23137940D01*
X13830316Y-23159554D01*
X13840964Y-23162407D01*
X13844135Y-23163886D01*
X13847411Y-23165078D01*
X13856955Y-23170588D01*
X13894076Y-23177134D01*
X13904783Y-23179508D01*
X13941193Y-23189263D01*
X13952168Y-23188303D01*
X13952170Y-23188303D01*
X13978731Y-23185979D01*
X13989712Y-23185500D01*
X14149211Y-23185500D01*
X14217332Y-23205502D01*
X14261278Y-23253906D01*
X14331722Y-23390975D01*
X14352712Y-23431818D01*
X14480677Y-23593270D01*
X14485370Y-23597264D01*
X14485371Y-23597265D01*
X14629626Y-23720035D01*
X14637564Y-23726791D01*
X14817398Y-23827297D01*
X14912238Y-23858113D01*
X15007471Y-23889056D01*
X15007475Y-23889057D01*
X15013329Y-23890959D01*
X15217894Y-23915351D01*
X15224029Y-23914879D01*
X15224031Y-23914879D01*
X15280523Y-23910532D01*
X15423300Y-23899546D01*
X15429230Y-23897890D01*
X15429232Y-23897890D01*
X15615797Y-23845800D01*
X15615796Y-23845800D01*
X15621725Y-23844145D01*
X15627214Y-23841372D01*
X15627220Y-23841370D01*
X15800116Y-23754033D01*
X15805610Y-23751258D01*
X15967951Y-23624424D01*
X16102564Y-23468472D01*
X16111764Y-23452278D01*
X16152515Y-23380543D01*
X16204323Y-23289344D01*
X16269351Y-23093863D01*
X16295171Y-22889474D01*
X16295583Y-22860000D01*
X16275480Y-22654970D01*
X16215935Y-22457749D01*
X16119218Y-22275849D01*
X16022889Y-22157738D01*
X15992906Y-22120975D01*
X15992903Y-22120972D01*
X15989011Y-22116200D01*
X15971786Y-22101950D01*
X15835025Y-21988811D01*
X15835021Y-21988809D01*
X15830275Y-21984882D01*
X15649055Y-21886897D01*
X15452254Y-21825977D01*
X15446129Y-21825333D01*
X15446128Y-21825333D01*
X15253498Y-21805087D01*
X15253496Y-21805087D01*
X15247369Y-21804443D01*
X15160529Y-21812346D01*
X15048342Y-21822555D01*
X15048339Y-21822556D01*
X15042203Y-21823114D01*
X14844572Y-21881280D01*
X14839107Y-21884137D01*
X14833828Y-21886897D01*
X14662002Y-21976726D01*
X14657201Y-21980586D01*
X14657198Y-21980588D01*
X14559136Y-22059432D01*
X14501447Y-22105815D01*
X14369024Y-22263630D01*
X14366056Y-22269028D01*
X14366053Y-22269033D01*
X14335609Y-22324412D01*
X14269776Y-22444162D01*
X14267913Y-22450035D01*
X14266958Y-22452264D01*
X14221739Y-22506997D01*
X14154107Y-22528594D01*
X14085535Y-22510198D01*
X14062051Y-22491724D01*
X12944110Y-21373784D01*
X12936683Y-21365680D01*
X12931536Y-21359546D01*
X12912455Y-21336806D01*
X12902906Y-21331293D01*
X12879815Y-21317961D01*
X12870544Y-21312055D01*
X12861611Y-21305800D01*
X12839684Y-21290446D01*
X12829034Y-21287592D01*
X12825866Y-21286115D01*
X12822590Y-21284923D01*
X12813045Y-21279412D01*
X12779301Y-21273462D01*
X12775942Y-21272870D01*
X12765215Y-21270492D01*
X12728807Y-21260736D01*
X12717822Y-21261697D01*
X12717820Y-21261697D01*
X12691272Y-21264020D01*
X12680290Y-21264500D01*
X847722Y-21264500D01*
X779601Y-21244498D01*
X733108Y-21190842D01*
X723004Y-21120568D01*
X752340Y-21056169D01*
X858540Y-20933134D01*
X858540Y-20933133D01*
X862564Y-20928472D01*
X883387Y-20891818D01*
X914389Y-20837244D01*
X964323Y-20749344D01*
X1029351Y-20553863D01*
X1055171Y-20349474D01*
X1055583Y-20320000D01*
X1035480Y-20114970D01*
X975935Y-19917749D01*
X879218Y-19735849D01*
X753037Y-19581136D01*
X725483Y-19515704D01*
X737678Y-19445763D01*
X785751Y-19393518D01*
X850680Y-19375500D01*
X12512984Y-19375500D01*
X12581105Y-19395502D01*
X12602079Y-19412405D01*
X13164171Y-19974498D01*
X13725895Y-20536222D01*
X13733321Y-20544325D01*
X13757545Y-20573194D01*
X13767088Y-20578704D01*
X13767092Y-20578707D01*
X13790179Y-20592036D01*
X13799448Y-20597940D01*
X13830316Y-20619554D01*
X13840964Y-20622407D01*
X13844135Y-20623886D01*
X13847411Y-20625078D01*
X13856955Y-20630588D01*
X13894076Y-20637134D01*
X13904783Y-20639508D01*
X13941193Y-20649263D01*
X13952168Y-20648303D01*
X13952170Y-20648303D01*
X13978731Y-20645979D01*
X13989712Y-20645500D01*
X14149211Y-20645500D01*
X14217332Y-20665502D01*
X14261278Y-20713906D01*
X14333674Y-20854773D01*
X14352712Y-20891818D01*
X14480677Y-21053270D01*
X14485370Y-21057264D01*
X14485371Y-21057265D01*
X14629626Y-21180035D01*
X14637564Y-21186791D01*
X14817398Y-21287297D01*
X14911772Y-21317961D01*
X15007471Y-21349056D01*
X15007475Y-21349057D01*
X15013329Y-21350959D01*
X15217894Y-21375351D01*
X15224029Y-21374879D01*
X15224031Y-21374879D01*
X15280523Y-21370532D01*
X15423300Y-21359546D01*
X15429230Y-21357890D01*
X15429232Y-21357890D01*
X15572241Y-21317961D01*
X15621725Y-21304145D01*
X15627214Y-21301372D01*
X15627220Y-21301370D01*
X15800116Y-21214033D01*
X15805610Y-21211258D01*
X15828144Y-21193653D01*
X15911372Y-21128628D01*
X15967951Y-21084424D01*
X16102564Y-20928472D01*
X16123387Y-20891818D01*
X16154389Y-20837244D01*
X16204323Y-20749344D01*
X16269351Y-20553863D01*
X16295171Y-20349474D01*
X16295583Y-20320000D01*
X16275480Y-20114970D01*
X16215935Y-19917749D01*
X16119218Y-19735849D01*
X16026216Y-19621818D01*
X15992906Y-19580975D01*
X15992903Y-19580972D01*
X15989011Y-19576200D01*
X15971786Y-19561950D01*
X15835025Y-19448811D01*
X15835021Y-19448809D01*
X15830275Y-19444882D01*
X15649055Y-19346897D01*
X15452254Y-19285977D01*
X15446129Y-19285333D01*
X15446128Y-19285333D01*
X15253498Y-19265087D01*
X15253496Y-19265087D01*
X15247369Y-19264443D01*
X15160529Y-19272346D01*
X15048342Y-19282555D01*
X15048339Y-19282556D01*
X15042203Y-19283114D01*
X14844572Y-19341280D01*
X14662002Y-19436726D01*
X14657201Y-19440586D01*
X14657198Y-19440588D01*
X14559136Y-19519432D01*
X14501447Y-19565815D01*
X14369024Y-19723630D01*
X14366056Y-19729028D01*
X14366053Y-19729033D01*
X14335609Y-19784412D01*
X14269776Y-19904162D01*
X14267913Y-19910035D01*
X14266958Y-19912264D01*
X14221739Y-19966997D01*
X14154107Y-19988594D01*
X14085535Y-19970198D01*
X14062051Y-19951724D01*
X12944110Y-18833784D01*
X12936683Y-18825680D01*
X12931536Y-18819546D01*
X12912455Y-18796806D01*
X12902906Y-18791293D01*
X12879815Y-18777961D01*
X12870544Y-18772055D01*
X12861611Y-18765800D01*
X12839684Y-18750446D01*
X12829034Y-18747592D01*
X12825866Y-18746115D01*
X12822590Y-18744923D01*
X12813045Y-18739412D01*
X12779301Y-18733462D01*
X12775942Y-18732870D01*
X12765215Y-18730492D01*
X12728807Y-18720736D01*
X12717822Y-18721697D01*
X12717820Y-18721697D01*
X12691272Y-18724020D01*
X12680290Y-18724500D01*
X847722Y-18724500D01*
X779601Y-18704498D01*
X733108Y-18650842D01*
X723004Y-18580568D01*
X752340Y-18516169D01*
X858540Y-18393134D01*
X858540Y-18393133D01*
X862564Y-18388472D01*
X883387Y-18351818D01*
X914389Y-18297244D01*
X964323Y-18209344D01*
X1029351Y-18013863D01*
X1055171Y-17809474D01*
X1055583Y-17780000D01*
X1035480Y-17574970D01*
X975935Y-17377749D01*
X879218Y-17195849D01*
X753037Y-17041136D01*
X725483Y-16975704D01*
X737678Y-16905763D01*
X785751Y-16853518D01*
X850680Y-16835500D01*
X12512984Y-16835500D01*
X12581105Y-16855502D01*
X12602079Y-16872405D01*
X13164171Y-17434498D01*
X13725895Y-17996222D01*
X13733316Y-18004319D01*
X13757545Y-18033194D01*
X13767088Y-18038704D01*
X13767092Y-18038707D01*
X13790179Y-18052036D01*
X13799448Y-18057940D01*
X13830316Y-18079554D01*
X13840964Y-18082407D01*
X13844135Y-18083886D01*
X13847411Y-18085078D01*
X13856955Y-18090588D01*
X13894076Y-18097134D01*
X13904783Y-18099508D01*
X13941193Y-18109263D01*
X13952168Y-18108303D01*
X13952170Y-18108303D01*
X13978731Y-18105979D01*
X13989712Y-18105500D01*
X14149211Y-18105500D01*
X14217332Y-18125502D01*
X14261278Y-18173906D01*
X14333674Y-18314773D01*
X14352712Y-18351818D01*
X14480677Y-18513270D01*
X14485370Y-18517264D01*
X14485371Y-18517265D01*
X14629626Y-18640035D01*
X14637564Y-18646791D01*
X14817398Y-18747297D01*
X14911772Y-18777961D01*
X15007471Y-18809056D01*
X15007475Y-18809057D01*
X15013329Y-18810959D01*
X15217894Y-18835351D01*
X15224029Y-18834879D01*
X15224031Y-18834879D01*
X15280523Y-18830532D01*
X15423300Y-18819546D01*
X15429230Y-18817890D01*
X15429232Y-18817890D01*
X15572241Y-18777961D01*
X15621725Y-18764145D01*
X15627214Y-18761372D01*
X15627220Y-18761370D01*
X15800116Y-18674033D01*
X15805610Y-18671258D01*
X15828144Y-18653653D01*
X15911372Y-18588628D01*
X15967951Y-18544424D01*
X16102564Y-18388472D01*
X16123387Y-18351818D01*
X16154389Y-18297244D01*
X16204323Y-18209344D01*
X16269351Y-18013863D01*
X16295171Y-17809474D01*
X16295583Y-17780000D01*
X16275480Y-17574970D01*
X16215935Y-17377749D01*
X16119218Y-17195849D01*
X16026216Y-17081818D01*
X15992906Y-17040975D01*
X15992903Y-17040972D01*
X15989011Y-17036200D01*
X15971786Y-17021950D01*
X15835025Y-16908811D01*
X15835021Y-16908809D01*
X15830275Y-16904882D01*
X15649055Y-16806897D01*
X15452254Y-16745977D01*
X15446129Y-16745333D01*
X15446128Y-16745333D01*
X15253498Y-16725087D01*
X15253496Y-16725087D01*
X15247369Y-16724443D01*
X15160529Y-16732346D01*
X15048342Y-16742555D01*
X15048339Y-16742556D01*
X15042203Y-16743114D01*
X14844572Y-16801280D01*
X14662002Y-16896726D01*
X14657201Y-16900586D01*
X14657198Y-16900588D01*
X14559136Y-16979432D01*
X14501447Y-17025815D01*
X14369024Y-17183630D01*
X14366056Y-17189028D01*
X14366053Y-17189033D01*
X14335609Y-17244412D01*
X14269776Y-17364162D01*
X14267913Y-17370035D01*
X14266958Y-17372264D01*
X14221739Y-17426997D01*
X14154107Y-17448594D01*
X14085535Y-17430198D01*
X14062051Y-17411724D01*
X12944110Y-16293784D01*
X12936683Y-16285680D01*
X12931536Y-16279546D01*
X12912455Y-16256806D01*
X12902906Y-16251293D01*
X12879815Y-16237961D01*
X12870544Y-16232055D01*
X12861611Y-16225800D01*
X12839684Y-16210446D01*
X12829034Y-16207592D01*
X12825866Y-16206115D01*
X12822590Y-16204923D01*
X12813045Y-16199412D01*
X12779301Y-16193462D01*
X12775942Y-16192870D01*
X12765215Y-16190492D01*
X12728807Y-16180736D01*
X12717822Y-16181697D01*
X12717820Y-16181697D01*
X12691272Y-16184020D01*
X12680290Y-16184500D01*
X847722Y-16184500D01*
X779601Y-16164498D01*
X733108Y-16110842D01*
X723004Y-16040568D01*
X752340Y-15976169D01*
X858540Y-15853134D01*
X858540Y-15853133D01*
X862564Y-15848472D01*
X883387Y-15811818D01*
X914389Y-15757244D01*
X964323Y-15669344D01*
X1029351Y-15473863D01*
X1055171Y-15269474D01*
X1055583Y-15240000D01*
X1054138Y-15225262D01*
X14184520Y-15225262D01*
X14201759Y-15430553D01*
X14203458Y-15436478D01*
X14241534Y-15569264D01*
X14258544Y-15628586D01*
X14261359Y-15634063D01*
X14261360Y-15634066D01*
X14334846Y-15777054D01*
X14352712Y-15811818D01*
X14480677Y-15973270D01*
X14485370Y-15977264D01*
X14485371Y-15977265D01*
X14629626Y-16100035D01*
X14637564Y-16106791D01*
X14817398Y-16207297D01*
X14911772Y-16237961D01*
X15007471Y-16269056D01*
X15007475Y-16269057D01*
X15013329Y-16270959D01*
X15217894Y-16295351D01*
X15224029Y-16294879D01*
X15224031Y-16294879D01*
X15280523Y-16290532D01*
X15423300Y-16279546D01*
X15429230Y-16277890D01*
X15429232Y-16277890D01*
X15582080Y-16235214D01*
X15621725Y-16224145D01*
X15627214Y-16221372D01*
X15627220Y-16221370D01*
X15800116Y-16134033D01*
X15805610Y-16131258D01*
X15831742Y-16110842D01*
X15911372Y-16048628D01*
X15967951Y-16004424D01*
X15979980Y-15990489D01*
X16098540Y-15853134D01*
X16098540Y-15853133D01*
X16102564Y-15848472D01*
X16123387Y-15811818D01*
X16154389Y-15757244D01*
X16204323Y-15669344D01*
X16269351Y-15473863D01*
X16295171Y-15269474D01*
X16295583Y-15240000D01*
X16275480Y-15034970D01*
X16215935Y-14837749D01*
X16119218Y-14655849D01*
X16024562Y-14539790D01*
X15992906Y-14500975D01*
X15992903Y-14500972D01*
X15989011Y-14496200D01*
X15951679Y-14465316D01*
X15835025Y-14368811D01*
X15835021Y-14368809D01*
X15830275Y-14364882D01*
X15649055Y-14266897D01*
X15452254Y-14205977D01*
X15446129Y-14205333D01*
X15446128Y-14205333D01*
X15253498Y-14185087D01*
X15253496Y-14185087D01*
X15247369Y-14184443D01*
X15160529Y-14192346D01*
X15048342Y-14202555D01*
X15048339Y-14202556D01*
X15042203Y-14203114D01*
X14844572Y-14261280D01*
X14839107Y-14264137D01*
X14777375Y-14296410D01*
X14662002Y-14356726D01*
X14657201Y-14360586D01*
X14657198Y-14360588D01*
X14509472Y-14479363D01*
X14501447Y-14485815D01*
X14369024Y-14643630D01*
X14366056Y-14649028D01*
X14366053Y-14649033D01*
X14276617Y-14811718D01*
X14269776Y-14824162D01*
X14207484Y-15020532D01*
X14206798Y-15026649D01*
X14206797Y-15026653D01*
X14201306Y-15075609D01*
X14184520Y-15225262D01*
X1054138Y-15225262D01*
X1035480Y-15034970D01*
X975935Y-14837749D01*
X879218Y-14655849D01*
X780227Y-14534475D01*
X753037Y-14501136D01*
X725483Y-14435704D01*
X737678Y-14365763D01*
X785751Y-14313518D01*
X850680Y-14295500D01*
X1885290Y-14295500D01*
X1896272Y-14295980D01*
X1922820Y-14298303D01*
X1922822Y-14298303D01*
X1933807Y-14299264D01*
X1970215Y-14289508D01*
X1980942Y-14287130D01*
X1984301Y-14286538D01*
X2018045Y-14280588D01*
X2027590Y-14275077D01*
X2030866Y-14273885D01*
X2034034Y-14272408D01*
X2044684Y-14269554D01*
X2075544Y-14247945D01*
X2084815Y-14242039D01*
X2107910Y-14228705D01*
X2107911Y-14228704D01*
X2117455Y-14223194D01*
X2141685Y-14194319D01*
X2149110Y-14186217D01*
X3272922Y-13062405D01*
X3335234Y-13028379D01*
X3362017Y-13025500D01*
X14149211Y-13025500D01*
X14217332Y-13045502D01*
X14261278Y-13093906D01*
X14333674Y-13234773D01*
X14352712Y-13271818D01*
X14480677Y-13433270D01*
X14485370Y-13437264D01*
X14485371Y-13437265D01*
X14629626Y-13560035D01*
X14637564Y-13566791D01*
X14817398Y-13667297D01*
X14911781Y-13697964D01*
X15007471Y-13729056D01*
X15007475Y-13729057D01*
X15013329Y-13730959D01*
X15217894Y-13755351D01*
X15224029Y-13754879D01*
X15224031Y-13754879D01*
X15280523Y-13750532D01*
X15423300Y-13739546D01*
X15429230Y-13737890D01*
X15429232Y-13737890D01*
X15615797Y-13685800D01*
X15615796Y-13685800D01*
X15621725Y-13684145D01*
X15627214Y-13681372D01*
X15627220Y-13681370D01*
X15800116Y-13594033D01*
X15805610Y-13591258D01*
X15831742Y-13570842D01*
X15911372Y-13508628D01*
X15967951Y-13464424D01*
X16102564Y-13308472D01*
X16123387Y-13271818D01*
X16154389Y-13217244D01*
X16204323Y-13129344D01*
X16269351Y-12933863D01*
X16295171Y-12729474D01*
X16295583Y-12700000D01*
X16275480Y-12494970D01*
X16215935Y-12297749D01*
X16119218Y-12115849D01*
X16026216Y-12001818D01*
X15992906Y-11960975D01*
X15992903Y-11960972D01*
X15989011Y-11956200D01*
X15971786Y-11941950D01*
X15835025Y-11828811D01*
X15835021Y-11828809D01*
X15830275Y-11824882D01*
X15649055Y-11726897D01*
X15452254Y-11665977D01*
X15446129Y-11665333D01*
X15446128Y-11665333D01*
X15253498Y-11645087D01*
X15253496Y-11645087D01*
X15247369Y-11644443D01*
X15160529Y-11652346D01*
X15048342Y-11662555D01*
X15048339Y-11662556D01*
X15042203Y-11663114D01*
X14844572Y-11721280D01*
X14839107Y-11724137D01*
X14777375Y-11756410D01*
X14662002Y-11816726D01*
X14657201Y-11820586D01*
X14657198Y-11820588D01*
X14559136Y-11899432D01*
X14501447Y-11945815D01*
X14369024Y-12103630D01*
X14366056Y-12109028D01*
X14366053Y-12109033D01*
X14302922Y-12223870D01*
X14269776Y-12284162D01*
X14267914Y-12290031D01*
X14265485Y-12295699D01*
X14263458Y-12294830D01*
X14229342Y-12345481D01*
X14164140Y-12373575D01*
X14148901Y-12374500D01*
X3194713Y-12374500D01*
X3183732Y-12374021D01*
X3157170Y-12371697D01*
X3157168Y-12371697D01*
X3146193Y-12370737D01*
X3109783Y-12380492D01*
X3099076Y-12382866D01*
X3061955Y-12389412D01*
X3052411Y-12394922D01*
X3049135Y-12396114D01*
X3045964Y-12397593D01*
X3035316Y-12400446D01*
X3026287Y-12406768D01*
X3019717Y-12411368D01*
X3005035Y-12421649D01*
X3004449Y-12422059D01*
X2995179Y-12427964D01*
X2972092Y-12441293D01*
X2972088Y-12441296D01*
X2962545Y-12446806D01*
X2944853Y-12467890D01*
X2938320Y-12475676D01*
X2930894Y-12483779D01*
X1807079Y-13607595D01*
X1744767Y-13641620D01*
X1717984Y-13644500D01*
X847722Y-13644500D01*
X779601Y-13624498D01*
X733108Y-13570842D01*
X723004Y-13500568D01*
X752340Y-13436169D01*
X858540Y-13313134D01*
X858540Y-13313133D01*
X862564Y-13308472D01*
X883387Y-13271818D01*
X914389Y-13217244D01*
X964323Y-13129344D01*
X1029351Y-12933863D01*
X1055171Y-12729474D01*
X1055583Y-12700000D01*
X1035480Y-12494970D01*
X975935Y-12297749D01*
X879218Y-12115849D01*
X781749Y-11996341D01*
X753037Y-11961136D01*
X725483Y-11895704D01*
X737678Y-11825763D01*
X785751Y-11773518D01*
X850680Y-11755500D01*
X1250290Y-11755500D01*
X1261272Y-11755980D01*
X1287820Y-11758303D01*
X1287822Y-11758303D01*
X1298807Y-11759264D01*
X1335215Y-11749508D01*
X1345942Y-11747130D01*
X1349301Y-11746538D01*
X1383045Y-11740588D01*
X1392590Y-11735077D01*
X1395866Y-11733885D01*
X1399034Y-11732408D01*
X1409684Y-11729554D01*
X1440544Y-11707945D01*
X1449815Y-11702039D01*
X1472910Y-11688705D01*
X1472911Y-11688704D01*
X1482455Y-11683194D01*
X1506685Y-11654319D01*
X1514110Y-11646217D01*
X2637922Y-10522405D01*
X2700234Y-10488379D01*
X2727017Y-10485500D01*
X14149211Y-10485500D01*
X14217332Y-10505502D01*
X14261278Y-10553906D01*
X14333674Y-10694773D01*
X14352712Y-10731818D01*
X14480677Y-10893270D01*
X14485370Y-10897264D01*
X14485371Y-10897265D01*
X14629626Y-11020035D01*
X14637564Y-11026791D01*
X14817398Y-11127297D01*
X14911781Y-11157964D01*
X15007471Y-11189056D01*
X15007475Y-11189057D01*
X15013329Y-11190959D01*
X15217894Y-11215351D01*
X15224029Y-11214879D01*
X15224031Y-11214879D01*
X15280523Y-11210532D01*
X15423300Y-11199546D01*
X15429230Y-11197890D01*
X15429232Y-11197890D01*
X15615797Y-11145800D01*
X15615796Y-11145800D01*
X15621725Y-11144145D01*
X15627214Y-11141372D01*
X15627220Y-11141370D01*
X15800116Y-11054033D01*
X15805610Y-11051258D01*
X15831742Y-11030842D01*
X15911372Y-10968628D01*
X15967951Y-10924424D01*
X16102564Y-10768472D01*
X16123387Y-10731818D01*
X16154389Y-10677244D01*
X16204323Y-10589344D01*
X16269351Y-10393863D01*
X16295171Y-10189474D01*
X16295501Y-10165874D01*
X16316454Y-10098040D01*
X16370754Y-10052302D01*
X16441163Y-10043181D01*
X16505325Y-10073575D01*
X16510584Y-10078541D01*
X16717095Y-10285052D01*
X16751121Y-10347364D01*
X16754000Y-10374147D01*
X16754000Y-22921928D01*
X16757065Y-22931360D01*
X16757065Y-22931362D01*
X16760562Y-22942124D01*
X16765178Y-22961351D01*
X16766949Y-22972536D01*
X16766950Y-22972539D01*
X16768501Y-22982332D01*
X16773002Y-22991166D01*
X16773004Y-22991171D01*
X16778143Y-23001256D01*
X16785711Y-23019526D01*
X16792273Y-23039723D01*
X16798100Y-23047744D01*
X16798102Y-23047747D01*
X16804757Y-23056906D01*
X16815087Y-23073763D01*
X16820228Y-23083852D01*
X16824731Y-23092689D01*
X16912311Y-23180269D01*
X16912313Y-23180270D01*
X19364731Y-25632689D01*
X19452311Y-25720269D01*
X19461145Y-25724770D01*
X19461149Y-25724773D01*
X19471239Y-25729914D01*
X19488096Y-25740243D01*
X19505276Y-25752726D01*
X19514706Y-25755790D01*
X19514712Y-25755793D01*
X19525476Y-25759290D01*
X19543744Y-25766857D01*
X19553829Y-25771996D01*
X19553834Y-25771998D01*
X19562668Y-25776499D01*
X19583029Y-25779724D01*
X19583649Y-25779822D01*
X19602875Y-25784438D01*
X19613637Y-25787935D01*
X19613639Y-25787935D01*
X19623071Y-25791000D01*
X24191928Y-25791000D01*
X24201360Y-25787935D01*
X24201362Y-25787935D01*
X24212124Y-25784438D01*
X24231351Y-25779822D01*
X24242536Y-25778051D01*
X24242539Y-25778050D01*
X24252332Y-25776499D01*
X24261166Y-25771998D01*
X24261171Y-25771996D01*
X24271256Y-25766857D01*
X24289526Y-25759289D01*
X24291078Y-25758785D01*
X24309723Y-25752727D01*
X24317744Y-25746900D01*
X24317747Y-25746898D01*
X24326906Y-25740243D01*
X24343763Y-25729913D01*
X24353852Y-25724772D01*
X24353853Y-25724772D01*
X24362689Y-25720269D01*
X24450269Y-25632689D01*
X24450270Y-25632687D01*
X24865552Y-25217405D01*
X24927864Y-25183379D01*
X24954647Y-25180500D01*
X26053834Y-25180500D01*
X26071752Y-25178806D01*
X26077722Y-25178242D01*
X26077723Y-25178242D01*
X26085369Y-25177519D01*
X26092615Y-25174974D01*
X26092617Y-25174974D01*
X26097649Y-25173207D01*
X26168550Y-25169512D01*
X26230193Y-25204735D01*
X26263007Y-25267693D01*
X26256575Y-25338398D01*
X26228489Y-25381184D01*
X25797947Y-25811727D01*
X25302079Y-26307595D01*
X25239767Y-26341621D01*
X25212984Y-26344500D01*
X16087722Y-26344500D01*
X16019601Y-26324498D01*
X15973108Y-26270842D01*
X15963004Y-26200568D01*
X15992340Y-26136169D01*
X16098540Y-26013134D01*
X16098540Y-26013133D01*
X16102564Y-26008472D01*
X16123387Y-25971818D01*
X16201276Y-25834707D01*
X16204323Y-25829344D01*
X16269351Y-25633863D01*
X16295171Y-25429474D01*
X16295583Y-25400000D01*
X16275480Y-25194970D01*
X16215935Y-24997749D01*
X16119218Y-24815849D01*
X16026216Y-24701818D01*
X15992906Y-24660975D01*
X15992903Y-24660972D01*
X15989011Y-24656200D01*
X15954371Y-24627543D01*
X15835025Y-24528811D01*
X15835021Y-24528809D01*
X15830275Y-24524882D01*
X15649055Y-24426897D01*
X15452254Y-24365977D01*
X15446129Y-24365333D01*
X15446128Y-24365333D01*
X15253498Y-24345087D01*
X15253496Y-24345087D01*
X15247369Y-24344443D01*
X15160529Y-24352346D01*
X15048342Y-24362555D01*
X15048339Y-24362556D01*
X15042203Y-24363114D01*
X14844572Y-24421280D01*
X14662002Y-24516726D01*
X14657201Y-24520586D01*
X14657198Y-24520588D01*
X14602325Y-24564707D01*
X14501447Y-24645815D01*
X14369024Y-24803630D01*
X14366056Y-24809028D01*
X14366053Y-24809033D01*
X14299239Y-24930568D01*
X14269776Y-24984162D01*
X14207484Y-25180532D01*
X14206798Y-25186649D01*
X14206797Y-25186653D01*
X14185207Y-25379137D01*
X14184520Y-25385262D01*
X14185036Y-25391407D01*
X14192737Y-25483120D01*
X14178505Y-25552675D01*
X14128928Y-25603495D01*
X14059746Y-25619444D01*
X13992924Y-25595458D01*
X13978084Y-25582758D01*
X13579111Y-25183785D01*
X13571684Y-25175681D01*
X13554541Y-25155251D01*
X13554542Y-25155251D01*
X13547455Y-25146806D01*
X13537906Y-25141293D01*
X13514815Y-25127961D01*
X13505544Y-25122055D01*
X13496611Y-25115800D01*
X13474684Y-25100446D01*
X13464034Y-25097592D01*
X13460866Y-25096115D01*
X13457590Y-25094923D01*
X13448045Y-25089412D01*
X13414301Y-25083462D01*
X13410942Y-25082870D01*
X13400215Y-25080492D01*
X13363807Y-25070736D01*
X13352822Y-25071697D01*
X13352820Y-25071697D01*
X13326272Y-25074020D01*
X13315290Y-25074500D01*
X1091269Y-25074500D01*
X1023148Y-25054498D01*
X976008Y-24997991D01*
X975935Y-24997749D01*
X879218Y-24815849D01*
X786216Y-24701818D01*
X752906Y-24660975D01*
X752903Y-24660972D01*
X749011Y-24656200D01*
X714371Y-24627543D01*
X595025Y-24528811D01*
X595021Y-24528809D01*
X590275Y-24524882D01*
X409055Y-24426897D01*
X212254Y-24365977D01*
X206129Y-24365333D01*
X206128Y-24365333D01*
X13498Y-24345087D01*
X13496Y-24345087D01*
X7369Y-24344443D01*
X-79471Y-24352346D01*
X-191658Y-24362555D01*
X-191661Y-24362556D01*
X-197797Y-24363114D01*
X-395428Y-24421280D01*
X-577998Y-24516726D01*
X-582799Y-24520586D01*
X-582802Y-24520588D01*
X-637675Y-24564707D01*
X-738553Y-24645815D01*
X-870976Y-24803630D01*
X-873944Y-24809028D01*
X-873947Y-24809033D01*
X-937078Y-24923870D01*
X-970224Y-24984162D01*
X-972086Y-24990031D01*
X-974515Y-24995699D01*
X-976542Y-24994830D01*
X-1010658Y-25045481D01*
X-1075860Y-25073575D01*
X-1091099Y-25074500D01*
X-6772278Y-25074500D01*
X-6840399Y-25054498D01*
X-6886892Y-25000842D01*
X-6896996Y-24930568D01*
X-6867660Y-24866169D01*
X-6761460Y-24743134D01*
X-6761460Y-24743133D01*
X-6757436Y-24738472D01*
X-6736613Y-24701818D01*
X-6707485Y-24650543D01*
X-6655677Y-24559344D01*
X-6590649Y-24363863D01*
X-6564829Y-24159474D01*
X-6564417Y-24130000D01*
X-6584520Y-23924970D01*
X-6644065Y-23727749D01*
X-6740782Y-23545849D01*
X-6833784Y-23431818D01*
X-6867094Y-23390975D01*
X-6867097Y-23390972D01*
X-6870989Y-23386200D01*
X-6944122Y-23325699D01*
X-7024975Y-23258811D01*
X-7024979Y-23258809D01*
X-7029725Y-23254882D01*
X-7210945Y-23156897D01*
X-7407746Y-23095977D01*
X-7413871Y-23095333D01*
X-7413872Y-23095333D01*
X-7606502Y-23075087D01*
X-7606504Y-23075087D01*
X-7612631Y-23074443D01*
X-7693012Y-23081758D01*
X-7811658Y-23092555D01*
X-7811661Y-23092556D01*
X-7817797Y-23093114D01*
X-8015428Y-23151280D01*
X-8197998Y-23246726D01*
X-8202799Y-23250586D01*
X-8202802Y-23250588D01*
X-8257675Y-23294707D01*
X-8358553Y-23375815D01*
X-8490976Y-23533630D01*
X-8493944Y-23539028D01*
X-8493947Y-23539033D01*
X-8587257Y-23708765D01*
X-8590224Y-23714162D01*
X-8652516Y-23910532D01*
X-8653202Y-23916649D01*
X-8653203Y-23916653D01*
X-8674793Y-24109137D01*
X-8675480Y-24115262D01*
X-8658241Y-24320553D01*
X-8656542Y-24326478D01*
X-8627747Y-24426897D01*
X-8601456Y-24518586D01*
X-8598641Y-24524063D01*
X-8598640Y-24524066D01*
X-8523440Y-24670389D01*
X-8507288Y-24701818D01*
X-8379323Y-24863270D01*
X-8379450Y-24863370D01*
X-8347773Y-24923870D01*
X-8354073Y-24994586D01*
X-8397605Y-25050671D01*
X-8471342Y-25074500D01*
X-8702982Y-25074500D01*
X-8771103Y-25054498D01*
X-8792077Y-25037596D01*
X-9159285Y-24670389D01*
X-9193310Y-24608076D01*
X-9189748Y-24541521D01*
X-9179361Y-24510296D01*
X-9130649Y-24363863D01*
X-9104829Y-24159474D01*
X-9104417Y-24130000D01*
X-9124520Y-23924970D01*
X-9184065Y-23727749D01*
X-9280782Y-23545849D01*
X-9373784Y-23431818D01*
X-9407094Y-23390975D01*
X-9407097Y-23390972D01*
X-9410989Y-23386200D01*
X-9484122Y-23325699D01*
X-9564975Y-23258811D01*
X-9564979Y-23258809D01*
X-9569725Y-23254882D01*
X-9750945Y-23156897D01*
X-9947746Y-23095977D01*
X-9953871Y-23095333D01*
X-9953872Y-23095333D01*
X-10146502Y-23075087D01*
X-10146504Y-23075087D01*
X-10152631Y-23074443D01*
X-10233012Y-23081758D01*
X-10351658Y-23092555D01*
X-10351661Y-23092556D01*
X-10357797Y-23093114D01*
X-10555428Y-23151280D01*
X-10737998Y-23246726D01*
X-10742799Y-23250586D01*
X-10742802Y-23250588D01*
X-10797675Y-23294707D01*
X-10898553Y-23375815D01*
X-11030976Y-23533630D01*
X-11033944Y-23539028D01*
X-11033947Y-23539033D01*
X-11127257Y-23708765D01*
X-11130224Y-23714162D01*
X-11192516Y-23910532D01*
X-11193202Y-23916649D01*
X-11193203Y-23916653D01*
X-11214793Y-24109137D01*
X-11215480Y-24115262D01*
X-13274500Y-24115262D01*
X-13274500Y-16495262D01*
X-11215480Y-16495262D01*
X-11198241Y-16700553D01*
X-11196542Y-16706478D01*
X-11148963Y-16872405D01*
X-11141456Y-16898586D01*
X-11138641Y-16904063D01*
X-11138640Y-16904066D01*
X-11068196Y-17041136D01*
X-11047288Y-17081818D01*
X-10919323Y-17243270D01*
X-10914630Y-17247264D01*
X-10914629Y-17247265D01*
X-10770374Y-17370035D01*
X-10762436Y-17376791D01*
X-10582602Y-17477297D01*
X-10488219Y-17507964D01*
X-10392529Y-17539056D01*
X-10392525Y-17539057D01*
X-10386671Y-17540959D01*
X-10182106Y-17565351D01*
X-10175971Y-17564879D01*
X-10175969Y-17564879D01*
X-10119477Y-17560532D01*
X-9976700Y-17549546D01*
X-9970770Y-17547890D01*
X-9970768Y-17547890D01*
X-9784203Y-17495800D01*
X-9784204Y-17495800D01*
X-9778275Y-17494145D01*
X-9772786Y-17491372D01*
X-9772780Y-17491370D01*
X-9599884Y-17404033D01*
X-9594390Y-17401258D01*
X-9568258Y-17380842D01*
X-9513220Y-17337841D01*
X-9432049Y-17274424D01*
X-9406143Y-17244412D01*
X-9301460Y-17123134D01*
X-9301460Y-17123133D01*
X-9297436Y-17118472D01*
X-9276613Y-17081818D01*
X-9246898Y-17029509D01*
X-9195677Y-16939344D01*
X-9130649Y-16743863D01*
X-9104829Y-16539474D01*
X-9104417Y-16510000D01*
X-9124520Y-16304970D01*
X-9184065Y-16107749D01*
X-9280782Y-15925849D01*
X-9373784Y-15811818D01*
X-9407094Y-15770975D01*
X-9407097Y-15770972D01*
X-9410989Y-15766200D01*
X-9417827Y-15760543D01*
X-9564975Y-15638811D01*
X-9564979Y-15638808D01*
X-9569725Y-15634882D01*
X-9750945Y-15536897D01*
X-9947746Y-15475977D01*
X-9953871Y-15475333D01*
X-9953872Y-15475333D01*
X-10146502Y-15455087D01*
X-10146504Y-15455087D01*
X-10152631Y-15454443D01*
X-10239471Y-15462346D01*
X-10351658Y-15472555D01*
X-10351661Y-15472556D01*
X-10357797Y-15473114D01*
X-10555428Y-15531280D01*
X-10560893Y-15534137D01*
X-10622625Y-15566410D01*
X-10737998Y-15626726D01*
X-10742799Y-15630586D01*
X-10742802Y-15630588D01*
X-10840864Y-15709432D01*
X-10898553Y-15755815D01*
X-11030976Y-15913630D01*
X-11033944Y-15919028D01*
X-11033947Y-15919033D01*
X-11123383Y-16081718D01*
X-11130224Y-16094162D01*
X-11192516Y-16290532D01*
X-11193202Y-16296649D01*
X-11193203Y-16296653D01*
X-11198694Y-16345609D01*
X-11215480Y-16495262D01*
X-13274500Y-16495262D01*
X-13274500Y-1238440D01*
X-12150230Y-1238440D01*
X-12135800Y-1458604D01*
X-12134379Y-1464200D01*
X-12134378Y-1464205D01*
X-12108998Y-1564137D01*
X-12081489Y-1672452D01*
X-12079072Y-1677694D01*
X-12079072Y-1677695D01*
X-12040954Y-1760379D01*
X-11989117Y-1872821D01*
X-11861778Y-2053002D01*
X-11703736Y-2206961D01*
X-11698940Y-2210166D01*
X-11698937Y-2210168D01*
X-11614739Y-2266427D01*
X-11520283Y-2329540D01*
X-11514980Y-2331818D01*
X-11514977Y-2331820D01*
X-11322871Y-2414355D01*
X-11317564Y-2416635D01*
X-11237912Y-2434658D01*
X-11108005Y-2464054D01*
X-11107999Y-2464055D01*
X-11102368Y-2465329D01*
X-11096597Y-2465556D01*
X-11096595Y-2465556D01*
X-11028789Y-2468220D01*
X-10881902Y-2473991D01*
X-10772725Y-2458161D01*
X-10669262Y-2443160D01*
X-10669257Y-2443159D01*
X-10663548Y-2442331D01*
X-10658084Y-2440476D01*
X-10658079Y-2440475D01*
X-10460093Y-2373268D01*
X-10460088Y-2373266D01*
X-10454621Y-2371410D01*
X-10262116Y-2263602D01*
X-10227153Y-2234524D01*
X-10096914Y-2126204D01*
X-10092482Y-2122518D01*
X-10030744Y-2048287D01*
X-9955092Y-1957326D01*
X-9955090Y-1957323D01*
X-9951398Y-1952884D01*
X-9843590Y-1760379D01*
X-9841734Y-1754912D01*
X-9841732Y-1754907D01*
X-9774525Y-1556921D01*
X-9774524Y-1556916D01*
X-9772669Y-1551452D01*
X-9771841Y-1545743D01*
X-9771840Y-1545738D01*
X-9741542Y-1336772D01*
X-9741009Y-1333098D01*
X-9739357Y-1270000D01*
X-9759546Y-1050289D01*
X-9762084Y-1041288D01*
X-9791060Y-938547D01*
X-9819435Y-837936D01*
X-9917020Y-640053D01*
X-9972063Y-566341D01*
X-10045580Y-467891D01*
X-10045580Y-467890D01*
X-10049033Y-463267D01*
X-10211051Y-313499D01*
X-10397650Y-195764D01*
X-10602579Y-114006D01*
X-10608239Y-112880D01*
X-10608243Y-112879D01*
X-10813309Y-72089D01*
X-10813312Y-72089D01*
X-10818976Y-70962D01*
X-10824751Y-70886D01*
X-10824755Y-70886D01*
X-10935496Y-69437D01*
X-11039594Y-68074D01*
X-11045291Y-69053D01*
X-11045292Y-69053D01*
X-11251346Y-104459D01*
X-11251347Y-104459D01*
X-11257043Y-105438D01*
X-11464043Y-181804D01*
X-11469004Y-184756D01*
X-11469005Y-184756D01*
X-11561382Y-239715D01*
X-11653659Y-294614D01*
X-11819543Y-440090D01*
X-11956137Y-613360D01*
X-12058869Y-808620D01*
X-12124297Y-1019333D01*
X-12150230Y-1238440D01*
X-13274500Y-1238440D01*
X-13274500Y14738D01*
X-1055480Y14738D01*
X-1054964Y8594D01*
X-1039143Y-179806D01*
X-1038241Y-190553D01*
X-981456Y-388586D01*
X-978641Y-394063D01*
X-978640Y-394066D01*
X-940699Y-467891D01*
X-887288Y-571818D01*
X-759323Y-733270D01*
X-602436Y-866791D01*
X-422602Y-967297D01*
X-338720Y-994552D01*
X-232529Y-1029056D01*
X-232525Y-1029057D01*
X-226671Y-1030959D01*
X-22106Y-1055351D01*
X-15971Y-1054879D01*
X-15969Y-1054879D01*
X56625Y-1049293D01*
X183300Y-1039546D01*
X189230Y-1037890D01*
X189232Y-1037890D01*
X375797Y-985800D01*
X375796Y-985800D01*
X381725Y-984145D01*
X387214Y-981372D01*
X387220Y-981370D01*
X560116Y-894033D01*
X565610Y-891258D01*
X593142Y-869748D01*
X14189500Y-869748D01*
X14190707Y-875816D01*
X14194331Y-894033D01*
X14201133Y-928231D01*
X14245448Y-994552D01*
X14311769Y-1038867D01*
X14323938Y-1041288D01*
X14323939Y-1041288D01*
X14364184Y-1049293D01*
X14370252Y-1050500D01*
X16109748Y-1050500D01*
X16115816Y-1049293D01*
X16156061Y-1041288D01*
X16156062Y-1041288D01*
X16168231Y-1038867D01*
X16234552Y-994552D01*
X16278867Y-928231D01*
X16285670Y-894033D01*
X16289293Y-875816D01*
X16290500Y-869748D01*
X16290500Y869748D01*
X16278867Y928231D01*
X16234552Y994552D01*
X16168231Y1038867D01*
X16156062Y1041288D01*
X16156061Y1041288D01*
X16115816Y1049293D01*
X16109748Y1050500D01*
X14370252Y1050500D01*
X14364184Y1049293D01*
X14323939Y1041288D01*
X14323938Y1041288D01*
X14311769Y1038867D01*
X14245448Y994552D01*
X14201133Y928231D01*
X14189500Y869748D01*
X14189500Y-869748D01*
X593142Y-869748D01*
X727951Y-764424D01*
X785556Y-697688D01*
X858540Y-613134D01*
X858540Y-613133D01*
X862564Y-608472D01*
X883387Y-571818D01*
X945052Y-463267D01*
X964323Y-429344D01*
X1029351Y-233863D01*
X1055171Y-29474D01*
X1055583Y0D01*
X1035480Y205030D01*
X975935Y402251D01*
X879218Y584151D01*
X805859Y674098D01*
X752906Y739025D01*
X752903Y739028D01*
X749011Y743800D01*
X731786Y758050D01*
X595025Y871189D01*
X595021Y871191D01*
X590275Y875118D01*
X409055Y973103D01*
X212254Y1034023D01*
X206129Y1034667D01*
X206128Y1034667D01*
X13498Y1054913D01*
X13496Y1054913D01*
X7369Y1055557D01*
X-79471Y1047654D01*
X-191658Y1037445D01*
X-191661Y1037444D01*
X-197797Y1036886D01*
X-395428Y978720D01*
X-577998Y883274D01*
X-582799Y879414D01*
X-582802Y879412D01*
X-733746Y758050D01*
X-738553Y754185D01*
X-870976Y596370D01*
X-873944Y590972D01*
X-873947Y590967D01*
X-880685Y578710D01*
X-970224Y415838D01*
X-1032516Y219468D01*
X-1033202Y213351D01*
X-1033203Y213347D01*
X-1054793Y20863D01*
X-1055480Y14738D01*
X-13274500Y14738D01*
X-13274500Y3261560D01*
X-12150230Y3261560D01*
X-12135800Y3041396D01*
X-12134379Y3035800D01*
X-12134378Y3035795D01*
X-12082910Y2833143D01*
X-12081489Y2827548D01*
X-12079072Y2822306D01*
X-12079072Y2822305D01*
X-12040954Y2739621D01*
X-11989117Y2627179D01*
X-11861778Y2446998D01*
X-11703736Y2293039D01*
X-11698940Y2289834D01*
X-11698937Y2289832D01*
X-11614739Y2233573D01*
X-11520283Y2170460D01*
X-11514980Y2168182D01*
X-11514977Y2168180D01*
X-11322871Y2085645D01*
X-11317564Y2083365D01*
X-11237912Y2065342D01*
X-11108005Y2035946D01*
X-11107999Y2035945D01*
X-11102368Y2034671D01*
X-11096597Y2034444D01*
X-11096595Y2034444D01*
X-11028789Y2031780D01*
X-10881902Y2026009D01*
X-10772725Y2041839D01*
X-10669262Y2056840D01*
X-10669257Y2056841D01*
X-10663548Y2057669D01*
X-10658084Y2059524D01*
X-10658079Y2059525D01*
X-10460093Y2126732D01*
X-10460088Y2126734D01*
X-10454621Y2128590D01*
X-10262116Y2236398D01*
X-10092482Y2377482D01*
X-9951398Y2547116D01*
X-9843590Y2739621D01*
X-9841734Y2745088D01*
X-9841732Y2745093D01*
X-9774525Y2943079D01*
X-9774524Y2943084D01*
X-9772669Y2948548D01*
X-9771841Y2954257D01*
X-9771840Y2954262D01*
X-9741542Y3163228D01*
X-9741009Y3166902D01*
X-9739357Y3230000D01*
X-9742257Y3261560D01*
X-5650230Y3261560D01*
X-5635800Y3041396D01*
X-5634379Y3035800D01*
X-5634378Y3035795D01*
X-5582910Y2833143D01*
X-5581489Y2827548D01*
X-5579072Y2822306D01*
X-5579072Y2822305D01*
X-5540954Y2739621D01*
X-5489117Y2627179D01*
X-5361778Y2446998D01*
X-5203736Y2293039D01*
X-5198940Y2289834D01*
X-5198937Y2289832D01*
X-5114739Y2233573D01*
X-5020283Y2170460D01*
X-5014980Y2168182D01*
X-5014977Y2168180D01*
X-4822871Y2085645D01*
X-4817564Y2083365D01*
X-4737912Y2065342D01*
X-4608005Y2035946D01*
X-4607999Y2035945D01*
X-4602368Y2034671D01*
X-4596597Y2034444D01*
X-4596595Y2034444D01*
X-4528789Y2031780D01*
X-4381902Y2026009D01*
X-4272725Y2041839D01*
X-4169262Y2056840D01*
X-4169257Y2056841D01*
X-4163548Y2057669D01*
X-4158084Y2059524D01*
X-4158079Y2059525D01*
X-3960093Y2126732D01*
X-3960088Y2126734D01*
X-3954621Y2128590D01*
X-3762116Y2236398D01*
X-3592482Y2377482D01*
X-3451398Y2547116D01*
X-3343590Y2739621D01*
X-3341734Y2745088D01*
X-3341732Y2745093D01*
X-3274525Y2943079D01*
X-3274524Y2943084D01*
X-3272669Y2948548D01*
X-3271841Y2954257D01*
X-3271840Y2954262D01*
X-3241542Y3163228D01*
X-3241009Y3166902D01*
X-3239357Y3230000D01*
X-3259546Y3449711D01*
X-3319435Y3662064D01*
X-3417020Y3859947D01*
X-3549033Y4036733D01*
X-3711051Y4186501D01*
X-3897650Y4304236D01*
X-4102579Y4385994D01*
X-4108239Y4387120D01*
X-4108243Y4387121D01*
X-4313309Y4427911D01*
X-4313312Y4427911D01*
X-4318976Y4429038D01*
X-4324751Y4429114D01*
X-4324755Y4429114D01*
X-4435496Y4430563D01*
X-4539594Y4431926D01*
X-4545291Y4430947D01*
X-4545292Y4430947D01*
X-4751346Y4395541D01*
X-4751347Y4395541D01*
X-4757043Y4394562D01*
X-4964043Y4318196D01*
X-5153659Y4205386D01*
X-5319543Y4059910D01*
X-5456137Y3886640D01*
X-5558869Y3691380D01*
X-5624297Y3480667D01*
X-5650230Y3261560D01*
X-9742257Y3261560D01*
X-9759546Y3449711D01*
X-9819435Y3662064D01*
X-9917020Y3859947D01*
X-10049033Y4036733D01*
X-10211051Y4186501D01*
X-10397650Y4304236D01*
X-10602579Y4385994D01*
X-10608239Y4387120D01*
X-10608243Y4387121D01*
X-10813309Y4427911D01*
X-10813312Y4427911D01*
X-10818976Y4429038D01*
X-10824751Y4429114D01*
X-10824755Y4429114D01*
X-10935496Y4430563D01*
X-11039594Y4431926D01*
X-11045291Y4430947D01*
X-11045292Y4430947D01*
X-11251346Y4395541D01*
X-11251347Y4395541D01*
X-11257043Y4394562D01*
X-11464043Y4318196D01*
X-11653659Y4205386D01*
X-11819543Y4059910D01*
X-11956137Y3886640D01*
X-12058869Y3691380D01*
X-12124297Y3480667D01*
X-12150230Y3261560D01*
X-13274500Y3261560D01*
X-13274500Y4432965D01*
X-13272312Y4432965D01*
X-13272927Y4436762D01*
X-13269515Y4445000D01*
X-13273590Y4454839D01*
X-13271370Y4475494D01*
X-13271785Y4479493D01*
X-13260387Y4624322D01*
X-13257294Y4643850D01*
X-13217618Y4809115D01*
X-13211508Y4827919D01*
X-13199289Y4857418D01*
X-13146465Y4984945D01*
X-13137491Y5002556D01*
X-13048684Y5147475D01*
X-13037063Y5163470D01*
X-12926686Y5292705D01*
X-12912705Y5306686D01*
X-12783470Y5417063D01*
X-12767475Y5428684D01*
X-12622556Y5517491D01*
X-12604945Y5526465D01*
X-12447914Y5591510D01*
X-12429120Y5597616D01*
X-12263849Y5637294D01*
X-12244321Y5640387D01*
X-12075894Y5653642D01*
X-12074930Y5653628D01*
X-12065000Y5649515D01*
X-12055733Y5653354D01*
X-12052543Y5653308D01*
X-12045801Y5652583D01*
X-12032469Y5654500D01*
X1257965Y5654500D01*
X1257965Y5652312D01*
G37*
%TD.AperFunction*%
M02*
