%TF.GenerationSoftware,KiCad,Pcbnew,(6.0.7-1)-1*%
%TF.CreationDate,2022-08-30T19:37:27+08:00*%
%TF.ProjectId,Control,436f6e74-726f-46c2-9e6b-696361645f70,V3.2.2*%
%TF.SameCoordinates,PX7df6180PY32de760*%
%TF.FileFunction,Legend,Bot*%
%TF.FilePolarity,Positive*%
%FSLAX46Y46*%
G04 Gerber Fmt 4.6, Leading zero omitted, Abs format (unit mm)*
G04 Created by KiCad (PCBNEW (6.0.7-1)-1) date 2022-08-30 19:37:27*
%MOMM*%
%LPD*%
G01*
G04 APERTURE LIST*
G04 Aperture macros list*
%AMRoundRect*
0 Rectangle with rounded corners*
0 $1 Rounding radius*
0 $2 $3 $4 $5 $6 $7 $8 $9 X,Y pos of 4 corners*
0 Add a 4 corners polygon primitive as box body*
4,1,4,$2,$3,$4,$5,$6,$7,$8,$9,$2,$3,0*
0 Add four circle primitives for the rounded corners*
1,1,$1+$1,$2,$3*
1,1,$1+$1,$4,$5*
1,1,$1+$1,$6,$7*
1,1,$1+$1,$8,$9*
0 Add four rect primitives between the rounded corners*
20,1,$1+$1,$2,$3,$4,$5,0*
20,1,$1+$1,$4,$5,$6,$7,0*
20,1,$1+$1,$6,$7,$8,$9,0*
20,1,$1+$1,$8,$9,$2,$3,0*%
G04 Aperture macros list end*
%ADD10C,0.150000*%
%ADD11C,0.152400*%
%ADD12C,0.200000*%
%ADD13C,0.010000*%
%ADD14O,1.700000X1.700000*%
%ADD15R,1.700000X1.700000*%
%ADD16RoundRect,0.250000X-0.600000X-0.600000X0.600000X-0.600000X0.600000X0.600000X-0.600000X0.600000X0*%
%ADD17C,1.700000*%
%ADD18RoundRect,0.250000X0.600000X0.600000X-0.600000X0.600000X-0.600000X-0.600000X0.600000X-0.600000X0*%
%ADD19C,2.000000*%
G04 APERTURE END LIST*
D10*
X21107380Y-14331904D02*
X21564523Y-14331904D01*
X21335952Y-14331904D02*
X21335952Y-13531904D01*
X21412142Y-13646190D01*
X21488333Y-13722380D01*
X21564523Y-13760476D01*
X20612142Y-13531904D02*
X20535952Y-13531904D01*
X20459761Y-13570000D01*
X20421666Y-13608095D01*
X20383571Y-13684285D01*
X20345476Y-13836666D01*
X20345476Y-14027142D01*
X20383571Y-14179523D01*
X20421666Y-14255714D01*
X20459761Y-14293809D01*
X20535952Y-14331904D01*
X20612142Y-14331904D01*
X20688333Y-14293809D01*
X20726428Y-14255714D01*
X20764523Y-14179523D01*
X20802619Y-14027142D01*
X20802619Y-13836666D01*
X20764523Y-13684285D01*
X20726428Y-13608095D01*
X20688333Y-13570000D01*
X20612142Y-13531904D01*
X-5867381Y-23691904D02*
X-5715000Y-23691904D01*
X-5638810Y-23730000D01*
X-5600715Y-23768095D01*
X-5524524Y-23882380D01*
X-5486429Y-24034761D01*
X-5486429Y-24339523D01*
X-5524524Y-24415714D01*
X-5562620Y-24453809D01*
X-5638810Y-24491904D01*
X-5791191Y-24491904D01*
X-5867381Y-24453809D01*
X-5905477Y-24415714D01*
X-5943572Y-24339523D01*
X-5943572Y-24149047D01*
X-5905477Y-24072857D01*
X-5867381Y-24034761D01*
X-5791191Y-23996666D01*
X-5638810Y-23996666D01*
X-5562620Y-24034761D01*
X-5524524Y-24072857D01*
X-5486429Y-24149047D01*
X-12217381Y-18878571D02*
X-12217381Y-19411904D01*
X-12026905Y-18573809D02*
X-11836429Y-19145238D01*
X-12331667Y-19145238D01*
X23183809Y-7270714D02*
X23221904Y-7308809D01*
X23336190Y-7346904D01*
X23412380Y-7346904D01*
X23526666Y-7308809D01*
X23602857Y-7232619D01*
X23640952Y-7156428D01*
X23679047Y-7004047D01*
X23679047Y-6889761D01*
X23640952Y-6737380D01*
X23602857Y-6661190D01*
X23526666Y-6585000D01*
X23412380Y-6546904D01*
X23336190Y-6546904D01*
X23221904Y-6585000D01*
X23183809Y-6623095D01*
X22726666Y-7346904D02*
X22802857Y-7308809D01*
X22840952Y-7270714D01*
X22879047Y-7194523D01*
X22879047Y-6965952D01*
X22840952Y-6889761D01*
X22802857Y-6851666D01*
X22726666Y-6813571D01*
X22612380Y-6813571D01*
X22536190Y-6851666D01*
X22498095Y-6889761D01*
X22460000Y-6965952D01*
X22460000Y-7194523D01*
X22498095Y-7270714D01*
X22536190Y-7308809D01*
X22612380Y-7346904D01*
X22726666Y-7346904D01*
X22002857Y-7346904D02*
X22079047Y-7308809D01*
X22117142Y-7232619D01*
X22117142Y-6546904D01*
X27076428Y-21951904D02*
X27533571Y-21951904D01*
X27305000Y-21951904D02*
X27305000Y-21151904D01*
X27381190Y-21266190D01*
X27457380Y-21342380D01*
X27533571Y-21380476D01*
X-11798334Y-16071904D02*
X-12293572Y-16071904D01*
X-12026905Y-16376666D01*
X-12141191Y-16376666D01*
X-12217381Y-16414761D01*
X-12255477Y-16452857D01*
X-12293572Y-16529047D01*
X-12293572Y-16719523D01*
X-12255477Y-16795714D01*
X-12217381Y-16833809D01*
X-12141191Y-16871904D01*
X-11912620Y-16871904D01*
X-11836429Y-16833809D01*
X-11798334Y-16795714D01*
X-7010477Y-6585000D02*
X-6934286Y-6546904D01*
X-6820000Y-6546904D01*
X-6705715Y-6585000D01*
X-6629524Y-6661190D01*
X-6591429Y-6737380D01*
X-6553334Y-6889761D01*
X-6553334Y-7004047D01*
X-6591429Y-7156428D01*
X-6629524Y-7232619D01*
X-6705715Y-7308809D01*
X-6820000Y-7346904D01*
X-6896191Y-7346904D01*
X-7010477Y-7308809D01*
X-7048572Y-7270714D01*
X-7048572Y-7004047D01*
X-6896191Y-7004047D01*
X-7391429Y-7346904D02*
X-7391429Y-6546904D01*
X-7848572Y-7346904D01*
X-7848572Y-6546904D01*
X-8229524Y-7346904D02*
X-8229524Y-6546904D01*
X-8420000Y-6546904D01*
X-8534286Y-6585000D01*
X-8610477Y-6661190D01*
X-8648572Y-6737380D01*
X-8686667Y-6889761D01*
X-8686667Y-7004047D01*
X-8648572Y-7156428D01*
X-8610477Y-7232619D01*
X-8534286Y-7308809D01*
X-8420000Y-7346904D01*
X-8229524Y-7346904D01*
X27152619Y-8451904D02*
X27305000Y-8451904D01*
X27381190Y-8490000D01*
X27419285Y-8528095D01*
X27495476Y-8642380D01*
X27533571Y-8794761D01*
X27533571Y-9099523D01*
X27495476Y-9175714D01*
X27457380Y-9213809D01*
X27381190Y-9251904D01*
X27228809Y-9251904D01*
X27152619Y-9213809D01*
X27114523Y-9175714D01*
X27076428Y-9099523D01*
X27076428Y-8909047D01*
X27114523Y-8832857D01*
X27152619Y-8794761D01*
X27228809Y-8756666D01*
X27381190Y-8756666D01*
X27457380Y-8794761D01*
X27495476Y-8832857D01*
X27533571Y-8909047D01*
X21107380Y-9251904D02*
X21564523Y-9251904D01*
X21335952Y-9251904D02*
X21335952Y-8451904D01*
X21412142Y-8566190D01*
X21488333Y-8642380D01*
X21564523Y-8680476D01*
X20802619Y-8528095D02*
X20764523Y-8490000D01*
X20688333Y-8451904D01*
X20497857Y-8451904D01*
X20421666Y-8490000D01*
X20383571Y-8528095D01*
X20345476Y-8604285D01*
X20345476Y-8680476D01*
X20383571Y-8794761D01*
X20840714Y-9251904D01*
X20345476Y-9251904D01*
X25933333Y-7346904D02*
X26200000Y-6965952D01*
X26390476Y-7346904D02*
X26390476Y-6546904D01*
X26085714Y-6546904D01*
X26009523Y-6585000D01*
X25971428Y-6623095D01*
X25933333Y-6699285D01*
X25933333Y-6813571D01*
X25971428Y-6889761D01*
X26009523Y-6927857D01*
X26085714Y-6965952D01*
X26390476Y-6965952D01*
X25476190Y-7346904D02*
X25552380Y-7308809D01*
X25590476Y-7270714D01*
X25628571Y-7194523D01*
X25628571Y-6965952D01*
X25590476Y-6889761D01*
X25552380Y-6851666D01*
X25476190Y-6813571D01*
X25361904Y-6813571D01*
X25285714Y-6851666D01*
X25247619Y-6889761D01*
X25209523Y-6965952D01*
X25209523Y-7194523D01*
X25247619Y-7270714D01*
X25285714Y-7308809D01*
X25361904Y-7346904D01*
X25476190Y-7346904D01*
X24942857Y-6813571D02*
X24790476Y-7346904D01*
X24638095Y-6965952D01*
X24485714Y-7346904D01*
X24333333Y-6813571D01*
X27114523Y-10991904D02*
X27495476Y-10991904D01*
X27533571Y-11372857D01*
X27495476Y-11334761D01*
X27419285Y-11296666D01*
X27228809Y-11296666D01*
X27152619Y-11334761D01*
X27114523Y-11372857D01*
X27076428Y-11449047D01*
X27076428Y-11639523D01*
X27114523Y-11715714D01*
X27152619Y-11753809D01*
X27228809Y-11791904D01*
X27419285Y-11791904D01*
X27495476Y-11753809D01*
X27533571Y-11715714D01*
X27571666Y-16071904D02*
X27076428Y-16071904D01*
X27343095Y-16376666D01*
X27228809Y-16376666D01*
X27152619Y-16414761D01*
X27114523Y-16452857D01*
X27076428Y-16529047D01*
X27076428Y-16719523D01*
X27114523Y-16795714D01*
X27152619Y-16833809D01*
X27228809Y-16871904D01*
X27457380Y-16871904D01*
X27533571Y-16833809D01*
X27571666Y-16795714D01*
X-11836429Y-13608095D02*
X-11874524Y-13570000D01*
X-11950715Y-13531904D01*
X-12141191Y-13531904D01*
X-12217381Y-13570000D01*
X-12255477Y-13608095D01*
X-12293572Y-13684285D01*
X-12293572Y-13760476D01*
X-12255477Y-13874761D01*
X-11798334Y-14331904D01*
X-12293572Y-14331904D01*
X-9093334Y-6546904D02*
X-9360000Y-7346904D01*
X-9626667Y-6546904D01*
X-10350477Y-7270714D02*
X-10312381Y-7308809D01*
X-10198096Y-7346904D01*
X-10121905Y-7346904D01*
X-10007620Y-7308809D01*
X-9931429Y-7232619D01*
X-9893334Y-7156428D01*
X-9855239Y-7004047D01*
X-9855239Y-6889761D01*
X-9893334Y-6737380D01*
X-9931429Y-6661190D01*
X-10007620Y-6585000D01*
X-10121905Y-6546904D01*
X-10198096Y-6546904D01*
X-10312381Y-6585000D01*
X-10350477Y-6623095D01*
X-11150477Y-7270714D02*
X-11112381Y-7308809D01*
X-10998096Y-7346904D01*
X-10921905Y-7346904D01*
X-10807620Y-7308809D01*
X-10731429Y-7232619D01*
X-10693334Y-7156428D01*
X-10655239Y-7004047D01*
X-10655239Y-6889761D01*
X-10693334Y-6737380D01*
X-10731429Y-6661190D01*
X-10807620Y-6585000D01*
X-10921905Y-6546904D01*
X-10998096Y-6546904D01*
X-11112381Y-6585000D01*
X-11150477Y-6623095D01*
X21031190Y-18954761D02*
X21107380Y-18916666D01*
X21145476Y-18878571D01*
X21183571Y-18802380D01*
X21183571Y-18764285D01*
X21145476Y-18688095D01*
X21107380Y-18650000D01*
X21031190Y-18611904D01*
X20878809Y-18611904D01*
X20802619Y-18650000D01*
X20764523Y-18688095D01*
X20726428Y-18764285D01*
X20726428Y-18802380D01*
X20764523Y-18878571D01*
X20802619Y-18916666D01*
X20878809Y-18954761D01*
X21031190Y-18954761D01*
X21107380Y-18992857D01*
X21145476Y-19030952D01*
X21183571Y-19107142D01*
X21183571Y-19259523D01*
X21145476Y-19335714D01*
X21107380Y-19373809D01*
X21031190Y-19411904D01*
X20878809Y-19411904D01*
X20802619Y-19373809D01*
X20764523Y-19335714D01*
X20726428Y-19259523D01*
X20726428Y-19107142D01*
X20764523Y-19030952D01*
X20802619Y-18992857D01*
X20878809Y-18954761D01*
X-12255477Y-21151904D02*
X-11874524Y-21151904D01*
X-11836429Y-21532857D01*
X-11874524Y-21494761D01*
X-11950715Y-21456666D01*
X-12141191Y-21456666D01*
X-12217381Y-21494761D01*
X-12255477Y-21532857D01*
X-12293572Y-21609047D01*
X-12293572Y-21799523D01*
X-12255477Y-21875714D01*
X-12217381Y-21913809D01*
X-12141191Y-21951904D01*
X-11950715Y-21951904D01*
X-11874524Y-21913809D01*
X-11836429Y-21875714D01*
X-5905477Y-21151904D02*
X-5524524Y-21151904D01*
X-5486429Y-21532857D01*
X-5524524Y-21494761D01*
X-5600715Y-21456666D01*
X-5791191Y-21456666D01*
X-5867381Y-21494761D01*
X-5905477Y-21532857D01*
X-5943572Y-21609047D01*
X-5943572Y-21799523D01*
X-5905477Y-21875714D01*
X-5867381Y-21913809D01*
X-5791191Y-21951904D01*
X-5600715Y-21951904D01*
X-5524524Y-21913809D01*
X-5486429Y-21875714D01*
X21107380Y-11791904D02*
X21564523Y-11791904D01*
X21335952Y-11791904D02*
X21335952Y-10991904D01*
X21412142Y-11106190D01*
X21488333Y-11182380D01*
X21564523Y-11220476D01*
X20345476Y-11791904D02*
X20802619Y-11791904D01*
X20574047Y-11791904D02*
X20574047Y-10991904D01*
X20650238Y-11106190D01*
X20726428Y-11182380D01*
X20802619Y-11220476D01*
X-5486429Y-13608095D02*
X-5524524Y-13570000D01*
X-5600715Y-13531904D01*
X-5791191Y-13531904D01*
X-5867381Y-13570000D01*
X-5905477Y-13608095D01*
X-5943572Y-13684285D01*
X-5943572Y-13760476D01*
X-5905477Y-13874761D01*
X-5448334Y-14331904D01*
X-5943572Y-14331904D01*
X19837380Y-16871904D02*
X19685000Y-16871904D01*
X19608809Y-16833809D01*
X19570714Y-16795714D01*
X19494523Y-16681428D01*
X19456428Y-16529047D01*
X19456428Y-16224285D01*
X19494523Y-16148095D01*
X19532619Y-16110000D01*
X19608809Y-16071904D01*
X19761190Y-16071904D01*
X19837380Y-16110000D01*
X19875476Y-16148095D01*
X19913571Y-16224285D01*
X19913571Y-16414761D01*
X19875476Y-16490952D01*
X19837380Y-16529047D01*
X19761190Y-16567142D01*
X19608809Y-16567142D01*
X19532619Y-16529047D01*
X19494523Y-16490952D01*
X19456428Y-16414761D01*
X-5448334Y-16071904D02*
X-5943572Y-16071904D01*
X-5676905Y-16376666D01*
X-5791191Y-16376666D01*
X-5867381Y-16414761D01*
X-5905477Y-16452857D01*
X-5943572Y-16529047D01*
X-5943572Y-16719523D01*
X-5905477Y-16795714D01*
X-5867381Y-16833809D01*
X-5791191Y-16871904D01*
X-5562620Y-16871904D01*
X-5486429Y-16833809D01*
X-5448334Y-16795714D01*
X-12217381Y-23691904D02*
X-12065000Y-23691904D01*
X-11988810Y-23730000D01*
X-11950715Y-23768095D01*
X-11874524Y-23882380D01*
X-11836429Y-24034761D01*
X-11836429Y-24339523D01*
X-11874524Y-24415714D01*
X-11912620Y-24453809D01*
X-11988810Y-24491904D01*
X-12141191Y-24491904D01*
X-12217381Y-24453809D01*
X-12255477Y-24415714D01*
X-12293572Y-24339523D01*
X-12293572Y-24149047D01*
X-12255477Y-24072857D01*
X-12217381Y-24034761D01*
X-12141191Y-23996666D01*
X-11988810Y-23996666D01*
X-11912620Y-24034761D01*
X-11874524Y-24072857D01*
X-11836429Y-24149047D01*
D11*
X17157095Y-33383099D02*
X17157095Y-32367099D01*
X16770047Y-32367099D01*
X16673285Y-32415480D01*
X16624904Y-32463860D01*
X16576523Y-32560622D01*
X16576523Y-32705765D01*
X16624904Y-32802527D01*
X16673285Y-32850908D01*
X16770047Y-32899289D01*
X17157095Y-32899289D01*
X16141095Y-33383099D02*
X16141095Y-32705765D01*
X16141095Y-32899289D02*
X16092714Y-32802527D01*
X16044333Y-32754146D01*
X15947571Y-32705765D01*
X15850809Y-32705765D01*
X15076714Y-33383099D02*
X15076714Y-32850908D01*
X15125095Y-32754146D01*
X15221857Y-32705765D01*
X15415380Y-32705765D01*
X15512142Y-32754146D01*
X15076714Y-33334718D02*
X15173476Y-33383099D01*
X15415380Y-33383099D01*
X15512142Y-33334718D01*
X15560523Y-33237956D01*
X15560523Y-33141194D01*
X15512142Y-33044432D01*
X15415380Y-32996051D01*
X15173476Y-32996051D01*
X15076714Y-32947670D01*
X14157476Y-32705765D02*
X14157476Y-33528241D01*
X14205857Y-33625003D01*
X14254238Y-33673384D01*
X14351000Y-33721765D01*
X14496142Y-33721765D01*
X14592904Y-33673384D01*
X14157476Y-33334718D02*
X14254238Y-33383099D01*
X14447761Y-33383099D01*
X14544523Y-33334718D01*
X14592904Y-33286337D01*
X14641285Y-33189575D01*
X14641285Y-32899289D01*
X14592904Y-32802527D01*
X14544523Y-32754146D01*
X14447761Y-32705765D01*
X14254238Y-32705765D01*
X14157476Y-32754146D01*
X13673666Y-33383099D02*
X13673666Y-32705765D01*
X13673666Y-32802527D02*
X13625285Y-32754146D01*
X13528523Y-32705765D01*
X13383380Y-32705765D01*
X13286619Y-32754146D01*
X13238238Y-32850908D01*
X13238238Y-33383099D01*
X13238238Y-32850908D02*
X13189857Y-32754146D01*
X13093095Y-32705765D01*
X12947952Y-32705765D01*
X12851190Y-32754146D01*
X12802809Y-32850908D01*
X12802809Y-33383099D01*
X11883571Y-33383099D02*
X11883571Y-32850908D01*
X11931952Y-32754146D01*
X12028714Y-32705765D01*
X12222238Y-32705765D01*
X12319000Y-32754146D01*
X11883571Y-33334718D02*
X11980333Y-33383099D01*
X12222238Y-33383099D01*
X12319000Y-33334718D01*
X12367380Y-33237956D01*
X12367380Y-33141194D01*
X12319000Y-33044432D01*
X12222238Y-32996051D01*
X11980333Y-32996051D01*
X11883571Y-32947670D01*
X11544904Y-32705765D02*
X11157857Y-32705765D01*
X11399761Y-32367099D02*
X11399761Y-33237956D01*
X11351380Y-33334718D01*
X11254619Y-33383099D01*
X11157857Y-33383099D01*
X10819190Y-33383099D02*
X10819190Y-32705765D01*
X10819190Y-32367099D02*
X10867571Y-32415480D01*
X10819190Y-32463860D01*
X10770809Y-32415480D01*
X10819190Y-32367099D01*
X10819190Y-32463860D01*
X9899952Y-33334718D02*
X9996714Y-33383099D01*
X10190238Y-33383099D01*
X10287000Y-33334718D01*
X10335380Y-33286337D01*
X10383761Y-33189575D01*
X10383761Y-32899289D01*
X10335380Y-32802527D01*
X10287000Y-32754146D01*
X10190238Y-32705765D01*
X9996714Y-32705765D01*
X9899952Y-32754146D01*
X8690428Y-33383099D02*
X8690428Y-32367099D01*
X8109857Y-33383099D02*
X8545285Y-32802527D01*
X8109857Y-32367099D02*
X8690428Y-32947670D01*
X7287380Y-33334718D02*
X7384142Y-33383099D01*
X7577666Y-33383099D01*
X7674428Y-33334718D01*
X7722809Y-33237956D01*
X7722809Y-32850908D01*
X7674428Y-32754146D01*
X7577666Y-32705765D01*
X7384142Y-32705765D01*
X7287380Y-32754146D01*
X7239000Y-32850908D01*
X7239000Y-32947670D01*
X7722809Y-33044432D01*
X6900333Y-32705765D02*
X6658428Y-33383099D01*
X6416523Y-32705765D02*
X6658428Y-33383099D01*
X6755190Y-33625003D01*
X6803571Y-33673384D01*
X6900333Y-33721765D01*
X6029476Y-33383099D02*
X6029476Y-32367099D01*
X6029476Y-32754146D02*
X5932714Y-32705765D01*
X5739190Y-32705765D01*
X5642428Y-32754146D01*
X5594047Y-32802527D01*
X5545666Y-32899289D01*
X5545666Y-33189575D01*
X5594047Y-33286337D01*
X5642428Y-33334718D01*
X5739190Y-33383099D01*
X5932714Y-33383099D01*
X6029476Y-33334718D01*
X4965095Y-33383099D02*
X5061857Y-33334718D01*
X5110238Y-33286337D01*
X5158619Y-33189575D01*
X5158619Y-32899289D01*
X5110238Y-32802527D01*
X5061857Y-32754146D01*
X4965095Y-32705765D01*
X4819952Y-32705765D01*
X4723190Y-32754146D01*
X4674809Y-32802527D01*
X4626428Y-32899289D01*
X4626428Y-33189575D01*
X4674809Y-33286337D01*
X4723190Y-33334718D01*
X4819952Y-33383099D01*
X4965095Y-33383099D01*
X3755571Y-33383099D02*
X3755571Y-32850908D01*
X3803952Y-32754146D01*
X3900714Y-32705765D01*
X4094238Y-32705765D01*
X4191000Y-32754146D01*
X3755571Y-33334718D02*
X3852333Y-33383099D01*
X4094238Y-33383099D01*
X4191000Y-33334718D01*
X4239380Y-33237956D01*
X4239380Y-33141194D01*
X4191000Y-33044432D01*
X4094238Y-32996051D01*
X3852333Y-32996051D01*
X3755571Y-32947670D01*
X3271761Y-33383099D02*
X3271761Y-32705765D01*
X3271761Y-32899289D02*
X3223380Y-32802527D01*
X3175000Y-32754146D01*
X3078238Y-32705765D01*
X2981476Y-32705765D01*
X2207380Y-33383099D02*
X2207380Y-32367099D01*
X2207380Y-33334718D02*
X2304142Y-33383099D01*
X2497666Y-33383099D01*
X2594428Y-33334718D01*
X2642809Y-33286337D01*
X2691190Y-33189575D01*
X2691190Y-32899289D01*
X2642809Y-32802527D01*
X2594428Y-32754146D01*
X2497666Y-32705765D01*
X2304142Y-32705765D01*
X2207380Y-32754146D01*
X949476Y-33383099D02*
X949476Y-32367099D01*
X368904Y-33383099D02*
X804333Y-32802527D01*
X368904Y-32367099D02*
X949476Y-32947670D01*
X-66524Y-33383099D02*
X-66524Y-32705765D01*
X-66524Y-32367099D02*
X-18143Y-32415480D01*
X-66524Y-32463860D01*
X-114905Y-32415480D01*
X-66524Y-32367099D01*
X-66524Y-32463860D01*
X-405191Y-32705765D02*
X-792239Y-32705765D01*
X-550334Y-32367099D02*
X-550334Y-33237956D01*
X-598715Y-33334718D01*
X-695477Y-33383099D01*
X-792239Y-33383099D01*
X15270238Y-34922097D02*
X15318619Y-34970478D01*
X15463761Y-35018859D01*
X15560523Y-35018859D01*
X15705666Y-34970478D01*
X15802428Y-34873716D01*
X15850809Y-34776954D01*
X15899190Y-34583430D01*
X15899190Y-34438287D01*
X15850809Y-34244763D01*
X15802428Y-34148001D01*
X15705666Y-34051240D01*
X15560523Y-34002859D01*
X15463761Y-34002859D01*
X15318619Y-34051240D01*
X15270238Y-34099620D01*
X14689666Y-35018859D02*
X14786428Y-34970478D01*
X14834809Y-34922097D01*
X14883190Y-34825335D01*
X14883190Y-34535049D01*
X14834809Y-34438287D01*
X14786428Y-34389906D01*
X14689666Y-34341525D01*
X14544523Y-34341525D01*
X14447761Y-34389906D01*
X14399380Y-34438287D01*
X14351000Y-34535049D01*
X14351000Y-34825335D01*
X14399380Y-34922097D01*
X14447761Y-34970478D01*
X14544523Y-35018859D01*
X14689666Y-35018859D01*
X13915571Y-34341525D02*
X13915571Y-35018859D01*
X13915571Y-34438287D02*
X13867190Y-34389906D01*
X13770428Y-34341525D01*
X13625285Y-34341525D01*
X13528523Y-34389906D01*
X13480142Y-34486668D01*
X13480142Y-35018859D01*
X13141476Y-34341525D02*
X12754428Y-34341525D01*
X12996333Y-34002859D02*
X12996333Y-34873716D01*
X12947952Y-34970478D01*
X12851190Y-35018859D01*
X12754428Y-35018859D01*
X12415761Y-35018859D02*
X12415761Y-34341525D01*
X12415761Y-34535049D02*
X12367380Y-34438287D01*
X12319000Y-34389906D01*
X12222238Y-34341525D01*
X12125476Y-34341525D01*
X11641666Y-35018859D02*
X11738428Y-34970478D01*
X11786809Y-34922097D01*
X11835190Y-34825335D01*
X11835190Y-34535049D01*
X11786809Y-34438287D01*
X11738428Y-34389906D01*
X11641666Y-34341525D01*
X11496523Y-34341525D01*
X11399761Y-34389906D01*
X11351380Y-34438287D01*
X11303000Y-34535049D01*
X11303000Y-34825335D01*
X11351380Y-34922097D01*
X11399761Y-34970478D01*
X11496523Y-35018859D01*
X11641666Y-35018859D01*
X10722428Y-35018859D02*
X10819190Y-34970478D01*
X10867571Y-34873716D01*
X10867571Y-34002859D01*
X9561285Y-35018859D02*
X9561285Y-34002859D01*
X9222619Y-34728573D01*
X8883952Y-34002859D01*
X8883952Y-35018859D01*
X8255000Y-35018859D02*
X8351761Y-34970478D01*
X8400142Y-34922097D01*
X8448523Y-34825335D01*
X8448523Y-34535049D01*
X8400142Y-34438287D01*
X8351761Y-34389906D01*
X8255000Y-34341525D01*
X8109857Y-34341525D01*
X8013095Y-34389906D01*
X7964714Y-34438287D01*
X7916333Y-34535049D01*
X7916333Y-34825335D01*
X7964714Y-34922097D01*
X8013095Y-34970478D01*
X8109857Y-35018859D01*
X8255000Y-35018859D01*
X7045476Y-35018859D02*
X7045476Y-34002859D01*
X7045476Y-34970478D02*
X7142238Y-35018859D01*
X7335761Y-35018859D01*
X7432523Y-34970478D01*
X7480904Y-34922097D01*
X7529285Y-34825335D01*
X7529285Y-34535049D01*
X7480904Y-34438287D01*
X7432523Y-34389906D01*
X7335761Y-34341525D01*
X7142238Y-34341525D01*
X7045476Y-34389906D01*
X6126238Y-34341525D02*
X6126238Y-35018859D01*
X6561666Y-34341525D02*
X6561666Y-34873716D01*
X6513285Y-34970478D01*
X6416523Y-35018859D01*
X6271380Y-35018859D01*
X6174619Y-34970478D01*
X6126238Y-34922097D01*
X5497285Y-35018859D02*
X5594047Y-34970478D01*
X5642428Y-34873716D01*
X5642428Y-34002859D01*
X4723190Y-34970478D02*
X4819952Y-35018859D01*
X5013476Y-35018859D01*
X5110238Y-34970478D01*
X5158619Y-34873716D01*
X5158619Y-34486668D01*
X5110238Y-34389906D01*
X5013476Y-34341525D01*
X4819952Y-34341525D01*
X4723190Y-34389906D01*
X4674809Y-34486668D01*
X4674809Y-34583430D01*
X5158619Y-34680192D01*
X3610428Y-34002859D02*
X3271761Y-35018859D01*
X2933095Y-34002859D01*
X2691190Y-34002859D02*
X2062238Y-34002859D01*
X2400904Y-34389906D01*
X2255761Y-34389906D01*
X2159000Y-34438287D01*
X2110619Y-34486668D01*
X2062238Y-34583430D01*
X2062238Y-34825335D01*
X2110619Y-34922097D01*
X2159000Y-34970478D01*
X2255761Y-35018859D01*
X2546047Y-35018859D01*
X2642809Y-34970478D01*
X2691190Y-34922097D01*
X1626809Y-34922097D02*
X1578428Y-34970478D01*
X1626809Y-35018859D01*
X1675190Y-34970478D01*
X1626809Y-34922097D01*
X1626809Y-35018859D01*
X1191380Y-34099620D02*
X1143000Y-34051240D01*
X1046238Y-34002859D01*
X804333Y-34002859D01*
X707571Y-34051240D01*
X659190Y-34099620D01*
X610809Y-34196382D01*
X610809Y-34293144D01*
X659190Y-34438287D01*
X1239761Y-35018859D01*
X610809Y-35018859D01*
X15947571Y-38290379D02*
X15947571Y-37274379D01*
X15512142Y-38290379D02*
X15512142Y-37758188D01*
X15560523Y-37661426D01*
X15657285Y-37613045D01*
X15802428Y-37613045D01*
X15899190Y-37661426D01*
X15947571Y-37709807D01*
X15173476Y-37613045D02*
X14786428Y-37613045D01*
X15028333Y-37274379D02*
X15028333Y-38145236D01*
X14979952Y-38241998D01*
X14883190Y-38290379D01*
X14786428Y-38290379D01*
X14592904Y-37613045D02*
X14205857Y-37613045D01*
X14447761Y-37274379D02*
X14447761Y-38145236D01*
X14399380Y-38241998D01*
X14302619Y-38290379D01*
X14205857Y-38290379D01*
X13867190Y-37613045D02*
X13867190Y-38629045D01*
X13867190Y-37661426D02*
X13770428Y-37613045D01*
X13576904Y-37613045D01*
X13480142Y-37661426D01*
X13431761Y-37709807D01*
X13383380Y-37806569D01*
X13383380Y-38096855D01*
X13431761Y-38193617D01*
X13480142Y-38241998D01*
X13576904Y-38290379D01*
X13770428Y-38290379D01*
X13867190Y-38241998D01*
X12996333Y-38241998D02*
X12899571Y-38290379D01*
X12706047Y-38290379D01*
X12609285Y-38241998D01*
X12560904Y-38145236D01*
X12560904Y-38096855D01*
X12609285Y-38000093D01*
X12706047Y-37951712D01*
X12851190Y-37951712D01*
X12947952Y-37903331D01*
X12996333Y-37806569D01*
X12996333Y-37758188D01*
X12947952Y-37661426D01*
X12851190Y-37613045D01*
X12706047Y-37613045D01*
X12609285Y-37661426D01*
X12125476Y-38193617D02*
X12077095Y-38241998D01*
X12125476Y-38290379D01*
X12173857Y-38241998D01*
X12125476Y-38193617D01*
X12125476Y-38290379D01*
X12125476Y-37661426D02*
X12077095Y-37709807D01*
X12125476Y-37758188D01*
X12173857Y-37709807D01*
X12125476Y-37661426D01*
X12125476Y-37758188D01*
X10915952Y-37225998D02*
X11786809Y-38532283D01*
X9851571Y-37225998D02*
X10722428Y-38532283D01*
X9077476Y-37613045D02*
X9077476Y-38435521D01*
X9125857Y-38532283D01*
X9174238Y-38580664D01*
X9271000Y-38629045D01*
X9416142Y-38629045D01*
X9512904Y-38580664D01*
X9077476Y-38241998D02*
X9174238Y-38290379D01*
X9367761Y-38290379D01*
X9464523Y-38241998D01*
X9512904Y-38193617D01*
X9561285Y-38096855D01*
X9561285Y-37806569D01*
X9512904Y-37709807D01*
X9464523Y-37661426D01*
X9367761Y-37613045D01*
X9174238Y-37613045D01*
X9077476Y-37661426D01*
X8593666Y-38290379D02*
X8593666Y-37613045D01*
X8593666Y-37274379D02*
X8642047Y-37322760D01*
X8593666Y-37371140D01*
X8545285Y-37322760D01*
X8593666Y-37274379D01*
X8593666Y-37371140D01*
X8255000Y-37613045D02*
X7867952Y-37613045D01*
X8109857Y-37274379D02*
X8109857Y-38145236D01*
X8061476Y-38241998D01*
X7964714Y-38290379D01*
X7867952Y-38290379D01*
X7529285Y-38290379D02*
X7529285Y-37274379D01*
X7093857Y-38290379D02*
X7093857Y-37758188D01*
X7142238Y-37661426D01*
X7239000Y-37613045D01*
X7384142Y-37613045D01*
X7480904Y-37661426D01*
X7529285Y-37709807D01*
X6174619Y-37613045D02*
X6174619Y-38290379D01*
X6610047Y-37613045D02*
X6610047Y-38145236D01*
X6561666Y-38241998D01*
X6464904Y-38290379D01*
X6319761Y-38290379D01*
X6223000Y-38241998D01*
X6174619Y-38193617D01*
X5690809Y-38290379D02*
X5690809Y-37274379D01*
X5690809Y-37661426D02*
X5594047Y-37613045D01*
X5400523Y-37613045D01*
X5303761Y-37661426D01*
X5255380Y-37709807D01*
X5207000Y-37806569D01*
X5207000Y-38096855D01*
X5255380Y-38193617D01*
X5303761Y-38241998D01*
X5400523Y-38290379D01*
X5594047Y-38290379D01*
X5690809Y-38241998D01*
X4771571Y-38193617D02*
X4723190Y-38241998D01*
X4771571Y-38290379D01*
X4819952Y-38241998D01*
X4771571Y-38193617D01*
X4771571Y-38290379D01*
X3852333Y-38241998D02*
X3949095Y-38290379D01*
X4142619Y-38290379D01*
X4239380Y-38241998D01*
X4287761Y-38193617D01*
X4336142Y-38096855D01*
X4336142Y-37806569D01*
X4287761Y-37709807D01*
X4239380Y-37661426D01*
X4142619Y-37613045D01*
X3949095Y-37613045D01*
X3852333Y-37661426D01*
X3271761Y-38290379D02*
X3368523Y-38241998D01*
X3416904Y-38193617D01*
X3465285Y-38096855D01*
X3465285Y-37806569D01*
X3416904Y-37709807D01*
X3368523Y-37661426D01*
X3271761Y-37613045D01*
X3126619Y-37613045D01*
X3029857Y-37661426D01*
X2981476Y-37709807D01*
X2933095Y-37806569D01*
X2933095Y-38096855D01*
X2981476Y-38193617D01*
X3029857Y-38241998D01*
X3126619Y-38290379D01*
X3271761Y-38290379D01*
X2497666Y-38290379D02*
X2497666Y-37613045D01*
X2497666Y-37709807D02*
X2449285Y-37661426D01*
X2352523Y-37613045D01*
X2207380Y-37613045D01*
X2110619Y-37661426D01*
X2062238Y-37758188D01*
X2062238Y-38290379D01*
X2062238Y-37758188D02*
X2013857Y-37661426D01*
X1917095Y-37613045D01*
X1771952Y-37613045D01*
X1675190Y-37661426D01*
X1626809Y-37758188D01*
X1626809Y-38290379D01*
X417285Y-37225998D02*
X1288142Y-38532283D01*
X15487952Y-39248805D02*
X15487952Y-40119662D01*
X15536333Y-40216424D01*
X15633095Y-40264805D01*
X15681476Y-40264805D01*
X15487952Y-38910139D02*
X15536333Y-38958520D01*
X15487952Y-39006900D01*
X15439571Y-38958520D01*
X15487952Y-38910139D01*
X15487952Y-39006900D01*
X14568714Y-39926139D02*
X14568714Y-39393948D01*
X14617095Y-39297186D01*
X14713857Y-39248805D01*
X14907380Y-39248805D01*
X15004142Y-39297186D01*
X14568714Y-39877758D02*
X14665476Y-39926139D01*
X14907380Y-39926139D01*
X15004142Y-39877758D01*
X15052523Y-39780996D01*
X15052523Y-39684234D01*
X15004142Y-39587472D01*
X14907380Y-39539091D01*
X14665476Y-39539091D01*
X14568714Y-39490710D01*
X14084904Y-39926139D02*
X14084904Y-39248805D01*
X14084904Y-39345567D02*
X14036523Y-39297186D01*
X13939761Y-39248805D01*
X13794619Y-39248805D01*
X13697857Y-39297186D01*
X13649476Y-39393948D01*
X13649476Y-39926139D01*
X13649476Y-39393948D02*
X13601095Y-39297186D01*
X13504333Y-39248805D01*
X13359190Y-39248805D01*
X13262428Y-39297186D01*
X13214047Y-39393948D01*
X13214047Y-39926139D01*
X12343190Y-39877758D02*
X12439952Y-39926139D01*
X12633476Y-39926139D01*
X12730238Y-39877758D01*
X12778619Y-39780996D01*
X12778619Y-39393948D01*
X12730238Y-39297186D01*
X12633476Y-39248805D01*
X12439952Y-39248805D01*
X12343190Y-39297186D01*
X12294809Y-39393948D01*
X12294809Y-39490710D01*
X12778619Y-39587472D01*
X11907761Y-39877758D02*
X11811000Y-39926139D01*
X11617476Y-39926139D01*
X11520714Y-39877758D01*
X11472333Y-39780996D01*
X11472333Y-39732615D01*
X11520714Y-39635853D01*
X11617476Y-39587472D01*
X11762619Y-39587472D01*
X11859380Y-39539091D01*
X11907761Y-39442329D01*
X11907761Y-39393948D01*
X11859380Y-39297186D01*
X11762619Y-39248805D01*
X11617476Y-39248805D01*
X11520714Y-39297186D01*
X11085285Y-39877758D02*
X10988523Y-39926139D01*
X10795000Y-39926139D01*
X10698238Y-39877758D01*
X10649857Y-39780996D01*
X10649857Y-39732615D01*
X10698238Y-39635853D01*
X10795000Y-39587472D01*
X10940142Y-39587472D01*
X11036904Y-39539091D01*
X11085285Y-39442329D01*
X11085285Y-39393948D01*
X11036904Y-39297186D01*
X10940142Y-39248805D01*
X10795000Y-39248805D01*
X10698238Y-39297186D01*
X9779000Y-39926139D02*
X9779000Y-39393948D01*
X9827380Y-39297186D01*
X9924142Y-39248805D01*
X10117666Y-39248805D01*
X10214428Y-39297186D01*
X9779000Y-39877758D02*
X9875761Y-39926139D01*
X10117666Y-39926139D01*
X10214428Y-39877758D01*
X10262809Y-39780996D01*
X10262809Y-39684234D01*
X10214428Y-39587472D01*
X10117666Y-39539091D01*
X9875761Y-39539091D01*
X9779000Y-39490710D01*
X8569476Y-38861758D02*
X9440333Y-40168043D01*
X8230809Y-39926139D02*
X8230809Y-38910139D01*
X7843761Y-38910139D01*
X7747000Y-38958520D01*
X7698619Y-39006900D01*
X7650238Y-39103662D01*
X7650238Y-39248805D01*
X7698619Y-39345567D01*
X7747000Y-39393948D01*
X7843761Y-39442329D01*
X8230809Y-39442329D01*
X7214809Y-39926139D02*
X7214809Y-39248805D01*
X7214809Y-39442329D02*
X7166428Y-39345567D01*
X7118047Y-39297186D01*
X7021285Y-39248805D01*
X6924523Y-39248805D01*
X6150428Y-39926139D02*
X6150428Y-39393948D01*
X6198809Y-39297186D01*
X6295571Y-39248805D01*
X6489095Y-39248805D01*
X6585857Y-39297186D01*
X6150428Y-39877758D02*
X6247190Y-39926139D01*
X6489095Y-39926139D01*
X6585857Y-39877758D01*
X6634238Y-39780996D01*
X6634238Y-39684234D01*
X6585857Y-39587472D01*
X6489095Y-39539091D01*
X6247190Y-39539091D01*
X6150428Y-39490710D01*
X5231190Y-39248805D02*
X5231190Y-40071281D01*
X5279571Y-40168043D01*
X5327952Y-40216424D01*
X5424714Y-40264805D01*
X5569857Y-40264805D01*
X5666619Y-40216424D01*
X5231190Y-39877758D02*
X5327952Y-39926139D01*
X5521476Y-39926139D01*
X5618238Y-39877758D01*
X5666619Y-39829377D01*
X5715000Y-39732615D01*
X5715000Y-39442329D01*
X5666619Y-39345567D01*
X5618238Y-39297186D01*
X5521476Y-39248805D01*
X5327952Y-39248805D01*
X5231190Y-39297186D01*
X4747380Y-39926139D02*
X4747380Y-39248805D01*
X4747380Y-39345567D02*
X4699000Y-39297186D01*
X4602238Y-39248805D01*
X4457095Y-39248805D01*
X4360333Y-39297186D01*
X4311952Y-39393948D01*
X4311952Y-39926139D01*
X4311952Y-39393948D02*
X4263571Y-39297186D01*
X4166809Y-39248805D01*
X4021666Y-39248805D01*
X3924904Y-39297186D01*
X3876523Y-39393948D01*
X3876523Y-39926139D01*
X2957285Y-39926139D02*
X2957285Y-39393948D01*
X3005666Y-39297186D01*
X3102428Y-39248805D01*
X3295952Y-39248805D01*
X3392714Y-39297186D01*
X2957285Y-39877758D02*
X3054047Y-39926139D01*
X3295952Y-39926139D01*
X3392714Y-39877758D01*
X3441095Y-39780996D01*
X3441095Y-39684234D01*
X3392714Y-39587472D01*
X3295952Y-39539091D01*
X3054047Y-39539091D01*
X2957285Y-39490710D01*
X2618619Y-39248805D02*
X2231571Y-39248805D01*
X2473476Y-38910139D02*
X2473476Y-39780996D01*
X2425095Y-39877758D01*
X2328333Y-39926139D01*
X2231571Y-39926139D01*
X1892904Y-39926139D02*
X1892904Y-39248805D01*
X1892904Y-38910139D02*
X1941285Y-38958520D01*
X1892904Y-39006900D01*
X1844523Y-38958520D01*
X1892904Y-38910139D01*
X1892904Y-39006900D01*
X973666Y-39877758D02*
X1070428Y-39926139D01*
X1263952Y-39926139D01*
X1360714Y-39877758D01*
X1409095Y-39829377D01*
X1457476Y-39732615D01*
X1457476Y-39442329D01*
X1409095Y-39345567D01*
X1360714Y-39297186D01*
X1263952Y-39248805D01*
X1070428Y-39248805D01*
X973666Y-39297186D01*
D10*
X26466666Y-25596904D02*
X26200000Y-26396904D01*
X25933333Y-25596904D01*
X25209523Y-26320714D02*
X25247619Y-26358809D01*
X25361904Y-26396904D01*
X25438095Y-26396904D01*
X25552380Y-26358809D01*
X25628571Y-26282619D01*
X25666666Y-26206428D01*
X25704761Y-26054047D01*
X25704761Y-25939761D01*
X25666666Y-25787380D01*
X25628571Y-25711190D01*
X25552380Y-25635000D01*
X25438095Y-25596904D01*
X25361904Y-25596904D01*
X25247619Y-25635000D01*
X25209523Y-25673095D01*
X24409523Y-26320714D02*
X24447619Y-26358809D01*
X24561904Y-26396904D01*
X24638095Y-26396904D01*
X24752380Y-26358809D01*
X24828571Y-26282619D01*
X24866666Y-26206428D01*
X24904761Y-26054047D01*
X24904761Y-25939761D01*
X24866666Y-25787380D01*
X24828571Y-25711190D01*
X24752380Y-25635000D01*
X24638095Y-25596904D01*
X24561904Y-25596904D01*
X24447619Y-25635000D01*
X24409523Y-25673095D01*
X-12293572Y-11791904D02*
X-11836429Y-11791904D01*
X-12065000Y-11791904D02*
X-12065000Y-10991904D01*
X-11988810Y-11106190D01*
X-11912620Y-11182380D01*
X-11836429Y-11220476D01*
X27533571Y-18688095D02*
X27495476Y-18650000D01*
X27419285Y-18611904D01*
X27228809Y-18611904D01*
X27152619Y-18650000D01*
X27114523Y-18688095D01*
X27076428Y-18764285D01*
X27076428Y-18840476D01*
X27114523Y-18954761D01*
X27571666Y-19411904D01*
X27076428Y-19411904D01*
X-5943572Y-11791904D02*
X-5486429Y-11791904D01*
X-5715000Y-11791904D02*
X-5715000Y-10991904D01*
X-5638810Y-11106190D01*
X-5562620Y-11182380D01*
X-5486429Y-11220476D01*
X-5867381Y-18878571D02*
X-5867381Y-19411904D01*
X-5676905Y-18573809D02*
X-5486429Y-19145238D01*
X-5981667Y-19145238D01*
X27152619Y-13798571D02*
X27152619Y-14331904D01*
X27343095Y-13493809D02*
X27533571Y-14065238D01*
X27038333Y-14065238D01*
X-7296191Y-26320714D02*
X-7258096Y-26358809D01*
X-7143810Y-26396904D01*
X-7067620Y-26396904D01*
X-6953334Y-26358809D01*
X-6877143Y-26282619D01*
X-6839048Y-26206428D01*
X-6800953Y-26054047D01*
X-6800953Y-25939761D01*
X-6839048Y-25787380D01*
X-6877143Y-25711190D01*
X-6953334Y-25635000D01*
X-7067620Y-25596904D01*
X-7143810Y-25596904D01*
X-7258096Y-25635000D01*
X-7296191Y-25673095D01*
X-7753334Y-26396904D02*
X-7677143Y-26358809D01*
X-7639048Y-26320714D01*
X-7600953Y-26244523D01*
X-7600953Y-26015952D01*
X-7639048Y-25939761D01*
X-7677143Y-25901666D01*
X-7753334Y-25863571D01*
X-7867620Y-25863571D01*
X-7943810Y-25901666D01*
X-7981905Y-25939761D01*
X-8020000Y-26015952D01*
X-8020000Y-26244523D01*
X-7981905Y-26320714D01*
X-7943810Y-26358809D01*
X-7867620Y-26396904D01*
X-7753334Y-26396904D01*
X-8477143Y-26396904D02*
X-8400953Y-26358809D01*
X-8362858Y-26282619D01*
X-8362858Y-25596904D01*
X23469523Y-25635000D02*
X23545714Y-25596904D01*
X23660000Y-25596904D01*
X23774285Y-25635000D01*
X23850476Y-25711190D01*
X23888571Y-25787380D01*
X23926666Y-25939761D01*
X23926666Y-26054047D01*
X23888571Y-26206428D01*
X23850476Y-26282619D01*
X23774285Y-26358809D01*
X23660000Y-26396904D01*
X23583809Y-26396904D01*
X23469523Y-26358809D01*
X23431428Y-26320714D01*
X23431428Y-26054047D01*
X23583809Y-26054047D01*
X23088571Y-26396904D02*
X23088571Y-25596904D01*
X22631428Y-26396904D01*
X22631428Y-25596904D01*
X22250476Y-26396904D02*
X22250476Y-25596904D01*
X22060000Y-25596904D01*
X21945714Y-25635000D01*
X21869523Y-25711190D01*
X21831428Y-25787380D01*
X21793333Y-25939761D01*
X21793333Y-26054047D01*
X21831428Y-26206428D01*
X21869523Y-26282619D01*
X21945714Y-26358809D01*
X22060000Y-26396904D01*
X22250476Y-26396904D01*
X21221666Y-21151904D02*
X20688333Y-21151904D01*
X21031190Y-21951904D01*
X-9626667Y-26396904D02*
X-9360000Y-26015952D01*
X-9169524Y-26396904D02*
X-9169524Y-25596904D01*
X-9474286Y-25596904D01*
X-9550477Y-25635000D01*
X-9588572Y-25673095D01*
X-9626667Y-25749285D01*
X-9626667Y-25863571D01*
X-9588572Y-25939761D01*
X-9550477Y-25977857D01*
X-9474286Y-26015952D01*
X-9169524Y-26015952D01*
X-10083810Y-26396904D02*
X-10007620Y-26358809D01*
X-9969524Y-26320714D01*
X-9931429Y-26244523D01*
X-9931429Y-26015952D01*
X-9969524Y-25939761D01*
X-10007620Y-25901666D01*
X-10083810Y-25863571D01*
X-10198096Y-25863571D01*
X-10274286Y-25901666D01*
X-10312381Y-25939761D01*
X-10350477Y-26015952D01*
X-10350477Y-26244523D01*
X-10312381Y-26320714D01*
X-10274286Y-26358809D01*
X-10198096Y-26396904D01*
X-10083810Y-26396904D01*
X-10617143Y-25863571D02*
X-10769524Y-26396904D01*
X-10921905Y-26015952D01*
X-11074286Y-26396904D01*
X-11226667Y-25863571D01*
D11*
X22999095Y-31877000D02*
X23095857Y-31828619D01*
X23241000Y-31828619D01*
X23386142Y-31877000D01*
X23482904Y-31973761D01*
X23531285Y-32070523D01*
X23579666Y-32264047D01*
X23579666Y-32409190D01*
X23531285Y-32602714D01*
X23482904Y-32699476D01*
X23386142Y-32796238D01*
X23241000Y-32844619D01*
X23144238Y-32844619D01*
X22999095Y-32796238D01*
X22950714Y-32747857D01*
X22950714Y-32409190D01*
X23144238Y-32409190D01*
X22515285Y-32844619D02*
X22515285Y-31828619D01*
X21934714Y-32844619D01*
X21934714Y-31828619D01*
X21450904Y-32844619D02*
X21450904Y-31828619D01*
X21209000Y-31828619D01*
X21063857Y-31877000D01*
X20967095Y-31973761D01*
X20918714Y-32070523D01*
X20870333Y-32264047D01*
X20870333Y-32409190D01*
X20918714Y-32602714D01*
X20967095Y-32699476D01*
X21063857Y-32796238D01*
X21209000Y-32844619D01*
X21450904Y-32844619D01*
X-5751286Y-32796238D02*
X-5896429Y-32844619D01*
X-6138334Y-32844619D01*
X-6235096Y-32796238D01*
X-6283477Y-32747857D01*
X-6331858Y-32651095D01*
X-6331858Y-32554333D01*
X-6283477Y-32457571D01*
X-6235096Y-32409190D01*
X-6138334Y-32360809D01*
X-5944810Y-32312428D01*
X-5848048Y-32264047D01*
X-5799667Y-32215666D01*
X-5751286Y-32118904D01*
X-5751286Y-32022142D01*
X-5799667Y-31925380D01*
X-5848048Y-31877000D01*
X-5944810Y-31828619D01*
X-6186715Y-31828619D01*
X-6331858Y-31877000D01*
X-6767286Y-32844619D02*
X-6767286Y-31828619D01*
X-7009191Y-31828619D01*
X-7154334Y-31877000D01*
X-7251096Y-31973761D01*
X-7299477Y-32070523D01*
X-7347858Y-32264047D01*
X-7347858Y-32409190D01*
X-7299477Y-32602714D01*
X-7251096Y-32699476D01*
X-7154334Y-32796238D01*
X-7009191Y-32844619D01*
X-6767286Y-32844619D01*
X-7734905Y-32554333D02*
X-8218715Y-32554333D01*
X-7638143Y-32844619D02*
X-7976810Y-31828619D01*
X-8315477Y-32844619D01*
X-5630334Y-36908619D02*
X-5969000Y-37924619D01*
X-6307667Y-36908619D01*
X-7226905Y-37827857D02*
X-7178524Y-37876238D01*
X-7033381Y-37924619D01*
X-6936620Y-37924619D01*
X-6791477Y-37876238D01*
X-6694715Y-37779476D01*
X-6646334Y-37682714D01*
X-6597953Y-37489190D01*
X-6597953Y-37344047D01*
X-6646334Y-37150523D01*
X-6694715Y-37053761D01*
X-6791477Y-36957000D01*
X-6936620Y-36908619D01*
X-7033381Y-36908619D01*
X-7178524Y-36957000D01*
X-7226905Y-37005380D01*
X-8242905Y-37827857D02*
X-8194524Y-37876238D01*
X-8049381Y-37924619D01*
X-7952620Y-37924619D01*
X-7807477Y-37876238D01*
X-7710715Y-37779476D01*
X-7662334Y-37682714D01*
X-7613953Y-37489190D01*
X-7613953Y-37344047D01*
X-7662334Y-37150523D01*
X-7710715Y-37053761D01*
X-7807477Y-36957000D01*
X-7952620Y-36908619D01*
X-8049381Y-36908619D01*
X-8194524Y-36957000D01*
X-8242905Y-37005380D01*
X-5775477Y-35336238D02*
X-5920620Y-35384619D01*
X-6162524Y-35384619D01*
X-6259286Y-35336238D01*
X-6307667Y-35287857D01*
X-6356048Y-35191095D01*
X-6356048Y-35094333D01*
X-6307667Y-34997571D01*
X-6259286Y-34949190D01*
X-6162524Y-34900809D01*
X-5969000Y-34852428D01*
X-5872239Y-34804047D01*
X-5823858Y-34755666D01*
X-5775477Y-34658904D01*
X-5775477Y-34562142D01*
X-5823858Y-34465380D01*
X-5872239Y-34417000D01*
X-5969000Y-34368619D01*
X-6210905Y-34368619D01*
X-6356048Y-34417000D01*
X-7372048Y-35287857D02*
X-7323667Y-35336238D01*
X-7178524Y-35384619D01*
X-7081762Y-35384619D01*
X-6936620Y-35336238D01*
X-6839858Y-35239476D01*
X-6791477Y-35142714D01*
X-6743096Y-34949190D01*
X-6743096Y-34804047D01*
X-6791477Y-34610523D01*
X-6839858Y-34513761D01*
X-6936620Y-34417000D01*
X-7081762Y-34368619D01*
X-7178524Y-34368619D01*
X-7323667Y-34417000D01*
X-7372048Y-34465380D01*
X-8291286Y-35384619D02*
X-7807477Y-35384619D01*
X-7807477Y-34368619D01*
X23434523Y-37876238D02*
X23289380Y-37924619D01*
X23047476Y-37924619D01*
X22950714Y-37876238D01*
X22902333Y-37827857D01*
X22853952Y-37731095D01*
X22853952Y-37634333D01*
X22902333Y-37537571D01*
X22950714Y-37489190D01*
X23047476Y-37440809D01*
X23241000Y-37392428D01*
X23337761Y-37344047D01*
X23386142Y-37295666D01*
X23434523Y-37198904D01*
X23434523Y-37102142D01*
X23386142Y-37005380D01*
X23337761Y-36957000D01*
X23241000Y-36908619D01*
X22999095Y-36908619D01*
X22853952Y-36957000D01*
X21837952Y-37827857D02*
X21886333Y-37876238D01*
X22031476Y-37924619D01*
X22128238Y-37924619D01*
X22273380Y-37876238D01*
X22370142Y-37779476D01*
X22418523Y-37682714D01*
X22466904Y-37489190D01*
X22466904Y-37344047D01*
X22418523Y-37150523D01*
X22370142Y-37053761D01*
X22273380Y-36957000D01*
X22128238Y-36908619D01*
X22031476Y-36908619D01*
X21886333Y-36957000D01*
X21837952Y-37005380D01*
X20918714Y-37924619D02*
X21402523Y-37924619D01*
X21402523Y-36908619D01*
X23579666Y-34368619D02*
X23241000Y-35384619D01*
X22902333Y-34368619D01*
X21983095Y-35287857D02*
X22031476Y-35336238D01*
X22176619Y-35384619D01*
X22273380Y-35384619D01*
X22418523Y-35336238D01*
X22515285Y-35239476D01*
X22563666Y-35142714D01*
X22612047Y-34949190D01*
X22612047Y-34804047D01*
X22563666Y-34610523D01*
X22515285Y-34513761D01*
X22418523Y-34417000D01*
X22273380Y-34368619D01*
X22176619Y-34368619D01*
X22031476Y-34417000D01*
X21983095Y-34465380D01*
X20967095Y-35287857D02*
X21015476Y-35336238D01*
X21160619Y-35384619D01*
X21257380Y-35384619D01*
X21402523Y-35336238D01*
X21499285Y-35239476D01*
X21547666Y-35142714D01*
X21596047Y-34949190D01*
X21596047Y-34804047D01*
X21547666Y-34610523D01*
X21499285Y-34513761D01*
X21402523Y-34417000D01*
X21257380Y-34368619D01*
X21160619Y-34368619D01*
X21015476Y-34417000D01*
X20967095Y-34465380D01*
X-6210905Y-39497000D02*
X-6114143Y-39448619D01*
X-5969000Y-39448619D01*
X-5823858Y-39497000D01*
X-5727096Y-39593761D01*
X-5678715Y-39690523D01*
X-5630334Y-39884047D01*
X-5630334Y-40029190D01*
X-5678715Y-40222714D01*
X-5727096Y-40319476D01*
X-5823858Y-40416238D01*
X-5969000Y-40464619D01*
X-6065762Y-40464619D01*
X-6210905Y-40416238D01*
X-6259286Y-40367857D01*
X-6259286Y-40029190D01*
X-6065762Y-40029190D01*
X-6694715Y-40464619D02*
X-6694715Y-39448619D01*
X-7275286Y-40464619D01*
X-7275286Y-39448619D01*
X-7759096Y-40464619D02*
X-7759096Y-39448619D01*
X-8001000Y-39448619D01*
X-8146143Y-39497000D01*
X-8242905Y-39593761D01*
X-8291286Y-39690523D01*
X-8339667Y-39884047D01*
X-8339667Y-40029190D01*
X-8291286Y-40222714D01*
X-8242905Y-40319476D01*
X-8146143Y-40416238D01*
X-8001000Y-40464619D01*
X-7759096Y-40464619D01*
X23458714Y-40416238D02*
X23313571Y-40464619D01*
X23071666Y-40464619D01*
X22974904Y-40416238D01*
X22926523Y-40367857D01*
X22878142Y-40271095D01*
X22878142Y-40174333D01*
X22926523Y-40077571D01*
X22974904Y-40029190D01*
X23071666Y-39980809D01*
X23265190Y-39932428D01*
X23361952Y-39884047D01*
X23410333Y-39835666D01*
X23458714Y-39738904D01*
X23458714Y-39642142D01*
X23410333Y-39545380D01*
X23361952Y-39497000D01*
X23265190Y-39448619D01*
X23023285Y-39448619D01*
X22878142Y-39497000D01*
X22442714Y-40464619D02*
X22442714Y-39448619D01*
X22200809Y-39448619D01*
X22055666Y-39497000D01*
X21958904Y-39593761D01*
X21910523Y-39690523D01*
X21862142Y-39884047D01*
X21862142Y-40029190D01*
X21910523Y-40222714D01*
X21958904Y-40319476D01*
X22055666Y-40416238D01*
X22200809Y-40464619D01*
X22442714Y-40464619D01*
X21475095Y-40174333D02*
X20991285Y-40174333D01*
X21571857Y-40464619D02*
X21233190Y-39448619D01*
X20894523Y-40464619D01*
D12*
%TO.C,SW1*%
X-6456905Y527620D02*
X-6123572Y1003810D01*
X-5885477Y527620D02*
X-5885477Y1527620D01*
X-6266429Y1527620D01*
X-6361667Y1480000D01*
X-6409286Y1432381D01*
X-6456905Y1337143D01*
X-6456905Y1194286D01*
X-6409286Y1099048D01*
X-6361667Y1051429D01*
X-6266429Y1003810D01*
X-5885477Y1003810D01*
X-7266429Y575239D02*
X-7171191Y527620D01*
X-6980715Y527620D01*
X-6885477Y575239D01*
X-6837858Y670477D01*
X-6837858Y1051429D01*
X-6885477Y1146667D01*
X-6980715Y1194286D01*
X-7171191Y1194286D01*
X-7266429Y1146667D01*
X-7314048Y1051429D01*
X-7314048Y956191D01*
X-6837858Y860953D01*
X-7695000Y575239D02*
X-7790239Y527620D01*
X-7980715Y527620D01*
X-8075953Y575239D01*
X-8123572Y670477D01*
X-8123572Y718096D01*
X-8075953Y813334D01*
X-7980715Y860953D01*
X-7837858Y860953D01*
X-7742620Y908572D01*
X-7695000Y1003810D01*
X-7695000Y1051429D01*
X-7742620Y1146667D01*
X-7837858Y1194286D01*
X-7980715Y1194286D01*
X-8075953Y1146667D01*
X-8933096Y575239D02*
X-8837858Y527620D01*
X-8647381Y527620D01*
X-8552143Y575239D01*
X-8504524Y670477D01*
X-8504524Y1051429D01*
X-8552143Y1146667D01*
X-8647381Y1194286D01*
X-8837858Y1194286D01*
X-8933096Y1146667D01*
X-8980715Y1051429D01*
X-8980715Y956191D01*
X-8504524Y860953D01*
X-9266429Y1194286D02*
X-9647381Y1194286D01*
X-9409286Y1527620D02*
X-9409286Y670477D01*
X-9456905Y575239D01*
X-9552143Y527620D01*
X-9647381Y527620D01*
D11*
%TO.C,L1*%
X12312952Y-35638619D02*
X12312952Y-36364333D01*
X12361333Y-36509476D01*
X12458095Y-36606238D01*
X12603238Y-36654619D01*
X12700000Y-36654619D01*
X11345333Y-36654619D02*
X11829142Y-36654619D01*
X11829142Y-35638619D01*
X10426095Y-36557857D02*
X10474476Y-36606238D01*
X10619619Y-36654619D01*
X10716380Y-36654619D01*
X10861523Y-36606238D01*
X10958285Y-36509476D01*
X11006666Y-36412714D01*
X11055047Y-36219190D01*
X11055047Y-36074047D01*
X11006666Y-35880523D01*
X10958285Y-35783761D01*
X10861523Y-35687000D01*
X10716380Y-35638619D01*
X10619619Y-35638619D01*
X10474476Y-35687000D01*
X10426095Y-35735380D01*
X9700380Y-35638619D02*
X9700380Y-36364333D01*
X9748761Y-36509476D01*
X9845523Y-36606238D01*
X9990666Y-36654619D01*
X10087428Y-36654619D01*
X8732761Y-36654619D02*
X9216571Y-36654619D01*
X9216571Y-35638619D01*
X7813523Y-36557857D02*
X7861904Y-36606238D01*
X8007047Y-36654619D01*
X8103809Y-36654619D01*
X8248952Y-36606238D01*
X8345714Y-36509476D01*
X8394095Y-36412714D01*
X8442476Y-36219190D01*
X8442476Y-36074047D01*
X8394095Y-35880523D01*
X8345714Y-35783761D01*
X8248952Y-35687000D01*
X8103809Y-35638619D01*
X8007047Y-35638619D01*
X7861904Y-35687000D01*
X7813523Y-35735380D01*
X7087809Y-35638619D02*
X7087809Y-36364333D01*
X7136190Y-36509476D01*
X7232952Y-36606238D01*
X7378095Y-36654619D01*
X7474857Y-36654619D01*
X6120190Y-36654619D02*
X6604000Y-36654619D01*
X6604000Y-35638619D01*
X5200952Y-36557857D02*
X5249333Y-36606238D01*
X5394476Y-36654619D01*
X5491238Y-36654619D01*
X5636380Y-36606238D01*
X5733142Y-36509476D01*
X5781523Y-36412714D01*
X5829904Y-36219190D01*
X5829904Y-36074047D01*
X5781523Y-35880523D01*
X5733142Y-35783761D01*
X5636380Y-35687000D01*
X5491238Y-35638619D01*
X5394476Y-35638619D01*
X5249333Y-35687000D01*
X5200952Y-35735380D01*
X4475238Y-35638619D02*
X4475238Y-36364333D01*
X4523619Y-36509476D01*
X4620380Y-36606238D01*
X4765523Y-36654619D01*
X4862285Y-36654619D01*
X3507619Y-36654619D02*
X3991428Y-36654619D01*
X3991428Y-35638619D01*
X2588380Y-36557857D02*
X2636761Y-36606238D01*
X2781904Y-36654619D01*
X2878666Y-36654619D01*
X3023809Y-36606238D01*
X3120571Y-36509476D01*
X3168952Y-36412714D01*
X3217333Y-36219190D01*
X3217333Y-36074047D01*
X3168952Y-35880523D01*
X3120571Y-35783761D01*
X3023809Y-35687000D01*
X2878666Y-35638619D01*
X2781904Y-35638619D01*
X2636761Y-35687000D01*
X2588380Y-35735380D01*
D10*
%TO.C,U1*%
X2425666Y-12642857D02*
X2692333Y-12642857D01*
X2692333Y-13061904D02*
X2692333Y-12261904D01*
X2311380Y-12261904D01*
X1625666Y-12261904D02*
X2006619Y-12261904D01*
X2044714Y-12642857D01*
X2006619Y-12604761D01*
X1930428Y-12566666D01*
X1739952Y-12566666D01*
X1663761Y-12604761D01*
X1625666Y-12642857D01*
X1587571Y-12719047D01*
X1587571Y-12909523D01*
X1625666Y-12985714D01*
X1663761Y-13023809D01*
X1739952Y-13061904D01*
X1930428Y-13061904D01*
X2006619Y-13023809D01*
X2044714Y-12985714D01*
X3225666Y-7181904D02*
X2959000Y-7981904D01*
X2692333Y-7181904D01*
X1968523Y-7905714D02*
X2006619Y-7943809D01*
X2120904Y-7981904D01*
X2197095Y-7981904D01*
X2311380Y-7943809D01*
X2387571Y-7867619D01*
X2425666Y-7791428D01*
X2463761Y-7639047D01*
X2463761Y-7524761D01*
X2425666Y-7372380D01*
X2387571Y-7296190D01*
X2311380Y-7220000D01*
X2197095Y-7181904D01*
X2120904Y-7181904D01*
X2006619Y-7220000D01*
X1968523Y-7258095D01*
X1168523Y-7905714D02*
X1206619Y-7943809D01*
X1320904Y-7981904D01*
X1397095Y-7981904D01*
X1511380Y-7943809D01*
X1587571Y-7867619D01*
X1625666Y-7791428D01*
X1663761Y-7639047D01*
X1663761Y-7524761D01*
X1625666Y-7372380D01*
X1587571Y-7296190D01*
X1511380Y-7220000D01*
X1397095Y-7181904D01*
X1320904Y-7181904D01*
X1206619Y-7220000D01*
X1168523Y-7258095D01*
X13404809Y-27882857D02*
X13290523Y-27920952D01*
X13252428Y-27959047D01*
X13214333Y-28035238D01*
X13214333Y-28149523D01*
X13252428Y-28225714D01*
X13290523Y-28263809D01*
X13366714Y-28301904D01*
X13671476Y-28301904D01*
X13671476Y-27501904D01*
X13404809Y-27501904D01*
X13328619Y-27540000D01*
X13290523Y-27578095D01*
X13252428Y-27654285D01*
X13252428Y-27730476D01*
X13290523Y-27806666D01*
X13328619Y-27844761D01*
X13404809Y-27882857D01*
X13671476Y-27882857D01*
X12490523Y-27501904D02*
X12871476Y-27501904D01*
X12909571Y-27882857D01*
X12871476Y-27844761D01*
X12795285Y-27806666D01*
X12604809Y-27806666D01*
X12528619Y-27844761D01*
X12490523Y-27882857D01*
X12452428Y-27959047D01*
X12452428Y-28149523D01*
X12490523Y-28225714D01*
X12528619Y-28263809D01*
X12604809Y-28301904D01*
X12795285Y-28301904D01*
X12871476Y-28263809D01*
X12909571Y-28225714D01*
X13633380Y-22802857D02*
X13366714Y-22802857D01*
X13252428Y-23221904D02*
X13633380Y-23221904D01*
X13633380Y-22421904D01*
X13252428Y-22421904D01*
X12566714Y-22421904D02*
X12719095Y-22421904D01*
X12795285Y-22460000D01*
X12833380Y-22498095D01*
X12909571Y-22612380D01*
X12947666Y-22764761D01*
X12947666Y-23069523D01*
X12909571Y-23145714D01*
X12871476Y-23183809D01*
X12795285Y-23221904D01*
X12642904Y-23221904D01*
X12566714Y-23183809D01*
X12528619Y-23145714D01*
X12490523Y-23069523D01*
X12490523Y-22879047D01*
X12528619Y-22802857D01*
X12566714Y-22764761D01*
X12642904Y-22726666D01*
X12795285Y-22726666D01*
X12871476Y-22764761D01*
X12909571Y-22802857D01*
X12947666Y-22879047D01*
X13671476Y-13061904D02*
X13671476Y-12261904D01*
X13481000Y-12261904D01*
X13366714Y-12300000D01*
X13290523Y-12376190D01*
X13252428Y-12452380D01*
X13214333Y-12604761D01*
X13214333Y-12719047D01*
X13252428Y-12871428D01*
X13290523Y-12947619D01*
X13366714Y-13023809D01*
X13481000Y-13061904D01*
X13671476Y-13061904D01*
X12719095Y-12261904D02*
X12642904Y-12261904D01*
X12566714Y-12300000D01*
X12528619Y-12338095D01*
X12490523Y-12414285D01*
X12452428Y-12566666D01*
X12452428Y-12757142D01*
X12490523Y-12909523D01*
X12528619Y-12985714D01*
X12566714Y-13023809D01*
X12642904Y-13061904D01*
X12719095Y-13061904D01*
X12795285Y-13023809D01*
X12833380Y-12985714D01*
X12871476Y-12909523D01*
X12909571Y-12757142D01*
X12909571Y-12566666D01*
X12871476Y-12414285D01*
X12833380Y-12338095D01*
X12795285Y-12300000D01*
X12719095Y-12261904D01*
X13671476Y-10521904D02*
X13671476Y-9721904D01*
X13481000Y-9721904D01*
X13366714Y-9760000D01*
X13290523Y-9836190D01*
X13252428Y-9912380D01*
X13214333Y-10064761D01*
X13214333Y-10179047D01*
X13252428Y-10331428D01*
X13290523Y-10407619D01*
X13366714Y-10483809D01*
X13481000Y-10521904D01*
X13671476Y-10521904D01*
X12452428Y-10521904D02*
X12909571Y-10521904D01*
X12681000Y-10521904D02*
X12681000Y-9721904D01*
X12757190Y-9836190D01*
X12833380Y-9912380D01*
X12909571Y-9950476D01*
X2482809Y-22802857D02*
X2368523Y-22840952D01*
X2330428Y-22879047D01*
X2292333Y-22955238D01*
X2292333Y-23069523D01*
X2330428Y-23145714D01*
X2368523Y-23183809D01*
X2444714Y-23221904D01*
X2749476Y-23221904D01*
X2749476Y-22421904D01*
X2482809Y-22421904D01*
X2406619Y-22460000D01*
X2368523Y-22498095D01*
X2330428Y-22574285D01*
X2330428Y-22650476D01*
X2368523Y-22726666D01*
X2406619Y-22764761D01*
X2482809Y-22802857D01*
X2749476Y-22802857D01*
X2025666Y-22421904D02*
X1530428Y-22421904D01*
X1797095Y-22726666D01*
X1682809Y-22726666D01*
X1606619Y-22764761D01*
X1568523Y-22802857D01*
X1530428Y-22879047D01*
X1530428Y-23069523D01*
X1568523Y-23145714D01*
X1606619Y-23183809D01*
X1682809Y-23221904D01*
X1911380Y-23221904D01*
X1987571Y-23183809D01*
X2025666Y-23145714D01*
X13404809Y-25342857D02*
X13290523Y-25380952D01*
X13252428Y-25419047D01*
X13214333Y-25495238D01*
X13214333Y-25609523D01*
X13252428Y-25685714D01*
X13290523Y-25723809D01*
X13366714Y-25761904D01*
X13671476Y-25761904D01*
X13671476Y-24961904D01*
X13404809Y-24961904D01*
X13328619Y-25000000D01*
X13290523Y-25038095D01*
X13252428Y-25114285D01*
X13252428Y-25190476D01*
X13290523Y-25266666D01*
X13328619Y-25304761D01*
X13404809Y-25342857D01*
X13671476Y-25342857D01*
X12528619Y-25228571D02*
X12528619Y-25761904D01*
X12719095Y-24923809D02*
X12909571Y-25495238D01*
X12414333Y-25495238D01*
X2482809Y-20262857D02*
X2368523Y-20300952D01*
X2330428Y-20339047D01*
X2292333Y-20415238D01*
X2292333Y-20529523D01*
X2330428Y-20605714D01*
X2368523Y-20643809D01*
X2444714Y-20681904D01*
X2749476Y-20681904D01*
X2749476Y-19881904D01*
X2482809Y-19881904D01*
X2406619Y-19920000D01*
X2368523Y-19958095D01*
X2330428Y-20034285D01*
X2330428Y-20110476D01*
X2368523Y-20186666D01*
X2406619Y-20224761D01*
X2482809Y-20262857D01*
X2749476Y-20262857D01*
X1530428Y-20681904D02*
X1987571Y-20681904D01*
X1759000Y-20681904D02*
X1759000Y-19881904D01*
X1835190Y-19996190D01*
X1911380Y-20072380D01*
X1987571Y-20110476D01*
X13309523Y-7220000D02*
X13385714Y-7181904D01*
X13500000Y-7181904D01*
X13614285Y-7220000D01*
X13690476Y-7296190D01*
X13728571Y-7372380D01*
X13766666Y-7524761D01*
X13766666Y-7639047D01*
X13728571Y-7791428D01*
X13690476Y-7867619D01*
X13614285Y-7943809D01*
X13500000Y-7981904D01*
X13423809Y-7981904D01*
X13309523Y-7943809D01*
X13271428Y-7905714D01*
X13271428Y-7639047D01*
X13423809Y-7639047D01*
X12928571Y-7981904D02*
X12928571Y-7181904D01*
X12471428Y-7981904D01*
X12471428Y-7181904D01*
X12090476Y-7981904D02*
X12090476Y-7181904D01*
X11900000Y-7181904D01*
X11785714Y-7220000D01*
X11709523Y-7296190D01*
X11671428Y-7372380D01*
X11633333Y-7524761D01*
X11633333Y-7639047D01*
X11671428Y-7791428D01*
X11709523Y-7867619D01*
X11785714Y-7943809D01*
X11900000Y-7981904D01*
X12090476Y-7981904D01*
X2622495Y-5441904D02*
X2889161Y-5060952D01*
X3079638Y-5441904D02*
X3079638Y-4641904D01*
X2774876Y-4641904D01*
X2698685Y-4680000D01*
X2660590Y-4718095D01*
X2622495Y-4794285D01*
X2622495Y-4908571D01*
X2660590Y-4984761D01*
X2698685Y-5022857D01*
X2774876Y-5060952D01*
X3079638Y-5060952D01*
X2317733Y-5403809D02*
X2203447Y-5441904D01*
X2012971Y-5441904D01*
X1936780Y-5403809D01*
X1898685Y-5365714D01*
X1860590Y-5289523D01*
X1860590Y-5213333D01*
X1898685Y-5137142D01*
X1936780Y-5099047D01*
X2012971Y-5060952D01*
X2165352Y-5022857D01*
X2241542Y-4984761D01*
X2279638Y-4946666D01*
X2317733Y-4870476D01*
X2317733Y-4794285D01*
X2279638Y-4718095D01*
X2241542Y-4680000D01*
X2165352Y-4641904D01*
X1974876Y-4641904D01*
X1860590Y-4680000D01*
X1632019Y-4641904D02*
X1174876Y-4641904D01*
X1403447Y-5441904D02*
X1403447Y-4641904D01*
X2266904Y552381D02*
X1885952Y819048D01*
X2266904Y1009524D02*
X1466904Y1009524D01*
X1466904Y704762D01*
X1505000Y628572D01*
X1543095Y590477D01*
X1619285Y552381D01*
X1733571Y552381D01*
X1809761Y590477D01*
X1847857Y628572D01*
X1885952Y704762D01*
X1885952Y1009524D01*
X2038333Y247620D02*
X2038333Y-133333D01*
X2266904Y323810D02*
X1466904Y57143D01*
X2266904Y-209523D01*
X1466904Y-400000D02*
X2266904Y-590476D01*
X1695476Y-742857D01*
X2266904Y-895238D01*
X1466904Y-1085714D01*
X2482809Y-27882857D02*
X2368523Y-27920952D01*
X2330428Y-27959047D01*
X2292333Y-28035238D01*
X2292333Y-28149523D01*
X2330428Y-28225714D01*
X2368523Y-28263809D01*
X2444714Y-28301904D01*
X2749476Y-28301904D01*
X2749476Y-27501904D01*
X2482809Y-27501904D01*
X2406619Y-27540000D01*
X2368523Y-27578095D01*
X2330428Y-27654285D01*
X2330428Y-27730476D01*
X2368523Y-27806666D01*
X2406619Y-27844761D01*
X2482809Y-27882857D01*
X2749476Y-27882857D01*
X1606619Y-27501904D02*
X1759000Y-27501904D01*
X1835190Y-27540000D01*
X1873285Y-27578095D01*
X1949476Y-27692380D01*
X1987571Y-27844761D01*
X1987571Y-28149523D01*
X1949476Y-28225714D01*
X1911380Y-28263809D01*
X1835190Y-28301904D01*
X1682809Y-28301904D01*
X1606619Y-28263809D01*
X1568523Y-28225714D01*
X1530428Y-28149523D01*
X1530428Y-27959047D01*
X1568523Y-27882857D01*
X1606619Y-27844761D01*
X1682809Y-27806666D01*
X1835190Y-27806666D01*
X1911380Y-27844761D01*
X1949476Y-27882857D01*
X1987571Y-27959047D01*
X13696904Y590477D02*
X12896904Y590477D01*
X12896904Y400000D01*
X12935000Y285715D01*
X13011190Y209524D01*
X13087380Y171429D01*
X13239761Y133334D01*
X13354047Y133334D01*
X13506428Y171429D01*
X13582619Y209524D01*
X13658809Y285715D01*
X13696904Y400000D01*
X13696904Y590477D01*
X12896904Y-133333D02*
X12896904Y-628571D01*
X13201666Y-361904D01*
X13201666Y-476190D01*
X13239761Y-552380D01*
X13277857Y-590476D01*
X13354047Y-628571D01*
X13544523Y-628571D01*
X13620714Y-590476D01*
X13658809Y-552380D01*
X13696904Y-476190D01*
X13696904Y-247619D01*
X13658809Y-171428D01*
X13620714Y-133333D01*
X2768523Y-2140000D02*
X2844714Y-2101904D01*
X2959000Y-2101904D01*
X3073285Y-2140000D01*
X3149476Y-2216190D01*
X3187571Y-2292380D01*
X3225666Y-2444761D01*
X3225666Y-2559047D01*
X3187571Y-2711428D01*
X3149476Y-2787619D01*
X3073285Y-2863809D01*
X2959000Y-2901904D01*
X2882809Y-2901904D01*
X2768523Y-2863809D01*
X2730428Y-2825714D01*
X2730428Y-2559047D01*
X2882809Y-2559047D01*
X2387571Y-2901904D02*
X2387571Y-2101904D01*
X1930428Y-2901904D01*
X1930428Y-2101904D01*
X1549476Y-2901904D02*
X1549476Y-2101904D01*
X1359000Y-2101904D01*
X1244714Y-2140000D01*
X1168523Y-2216190D01*
X1130428Y-2292380D01*
X1092333Y-2444761D01*
X1092333Y-2559047D01*
X1130428Y-2711428D01*
X1168523Y-2787619D01*
X1244714Y-2863809D01*
X1359000Y-2901904D01*
X1549476Y-2901904D01*
X13671476Y-15601904D02*
X13671476Y-14801904D01*
X13481000Y-14801904D01*
X13366714Y-14840000D01*
X13290523Y-14916190D01*
X13252428Y-14992380D01*
X13214333Y-15144761D01*
X13214333Y-15259047D01*
X13252428Y-15411428D01*
X13290523Y-15487619D01*
X13366714Y-15563809D01*
X13481000Y-15601904D01*
X13671476Y-15601904D01*
X12528619Y-15068571D02*
X12528619Y-15601904D01*
X12719095Y-14763809D02*
X12909571Y-15335238D01*
X12414333Y-15335238D01*
X2425666Y-15182857D02*
X2692333Y-15182857D01*
X2692333Y-15601904D02*
X2692333Y-14801904D01*
X2311380Y-14801904D01*
X1663761Y-14801904D02*
X1816142Y-14801904D01*
X1892333Y-14840000D01*
X1930428Y-14878095D01*
X2006619Y-14992380D01*
X2044714Y-15144761D01*
X2044714Y-15449523D01*
X2006619Y-15525714D01*
X1968523Y-15563809D01*
X1892333Y-15601904D01*
X1739952Y-15601904D01*
X1663761Y-15563809D01*
X1625666Y-15525714D01*
X1587571Y-15449523D01*
X1587571Y-15259047D01*
X1625666Y-15182857D01*
X1663761Y-15144761D01*
X1739952Y-15106666D01*
X1892333Y-15106666D01*
X1968523Y-15144761D01*
X2006619Y-15182857D01*
X2044714Y-15259047D01*
X13309523Y-4680000D02*
X13385714Y-4641904D01*
X13500000Y-4641904D01*
X13614285Y-4680000D01*
X13690476Y-4756190D01*
X13728571Y-4832380D01*
X13766666Y-4984761D01*
X13766666Y-5099047D01*
X13728571Y-5251428D01*
X13690476Y-5327619D01*
X13614285Y-5403809D01*
X13500000Y-5441904D01*
X13423809Y-5441904D01*
X13309523Y-5403809D01*
X13271428Y-5365714D01*
X13271428Y-5099047D01*
X13423809Y-5099047D01*
X12928571Y-5441904D02*
X12928571Y-4641904D01*
X12471428Y-5441904D01*
X12471428Y-4641904D01*
X12090476Y-5441904D02*
X12090476Y-4641904D01*
X11900000Y-4641904D01*
X11785714Y-4680000D01*
X11709523Y-4756190D01*
X11671428Y-4832380D01*
X11633333Y-4984761D01*
X11633333Y-5099047D01*
X11671428Y-5251428D01*
X11709523Y-5327619D01*
X11785714Y-5403809D01*
X11900000Y-5441904D01*
X12090476Y-5441904D01*
X13671476Y-20681904D02*
X13671476Y-19881904D01*
X13481000Y-19881904D01*
X13366714Y-19920000D01*
X13290523Y-19996190D01*
X13252428Y-20072380D01*
X13214333Y-20224761D01*
X13214333Y-20339047D01*
X13252428Y-20491428D01*
X13290523Y-20567619D01*
X13366714Y-20643809D01*
X13481000Y-20681904D01*
X13671476Y-20681904D01*
X12947666Y-19881904D02*
X12414333Y-19881904D01*
X12757190Y-20681904D01*
X2425666Y-10102857D02*
X2692333Y-10102857D01*
X2692333Y-10521904D02*
X2692333Y-9721904D01*
X2311380Y-9721904D01*
X1663761Y-9988571D02*
X1663761Y-10521904D01*
X1854238Y-9683809D02*
X2044714Y-10255238D01*
X1549476Y-10255238D01*
X13214333Y-18065714D02*
X13252428Y-18103809D01*
X13366714Y-18141904D01*
X13442904Y-18141904D01*
X13557190Y-18103809D01*
X13633380Y-18027619D01*
X13671476Y-17951428D01*
X13709571Y-17799047D01*
X13709571Y-17684761D01*
X13671476Y-17532380D01*
X13633380Y-17456190D01*
X13557190Y-17380000D01*
X13442904Y-17341904D01*
X13366714Y-17341904D01*
X13252428Y-17380000D01*
X13214333Y-17418095D01*
X12528619Y-17341904D02*
X12681000Y-17341904D01*
X12757190Y-17380000D01*
X12795285Y-17418095D01*
X12871476Y-17532380D01*
X12909571Y-17684761D01*
X12909571Y-17989523D01*
X12871476Y-18065714D01*
X12833380Y-18103809D01*
X12757190Y-18141904D01*
X12604809Y-18141904D01*
X12528619Y-18103809D01*
X12490523Y-18065714D01*
X12452428Y-17989523D01*
X12452428Y-17799047D01*
X12490523Y-17722857D01*
X12528619Y-17684761D01*
X12604809Y-17646666D01*
X12757190Y-17646666D01*
X12833380Y-17684761D01*
X12871476Y-17722857D01*
X12909571Y-17799047D01*
X2425666Y-17722857D02*
X2692333Y-17722857D01*
X2692333Y-18141904D02*
X2692333Y-17341904D01*
X2311380Y-17341904D01*
X2082809Y-17341904D02*
X1549476Y-17341904D01*
X1892333Y-18141904D01*
D12*
X11024761Y-13152380D02*
X11024761Y-12152380D01*
X10643809Y-12152380D01*
X10548571Y-12200000D01*
X10500952Y-12247619D01*
X10453333Y-12342857D01*
X10453333Y-12485714D01*
X10500952Y-12580952D01*
X10548571Y-12628571D01*
X10643809Y-12676190D01*
X11024761Y-12676190D01*
X10024761Y-13152380D02*
X10024761Y-12485714D01*
X10024761Y-12676190D02*
X9977142Y-12580952D01*
X9929523Y-12533333D01*
X9834285Y-12485714D01*
X9739047Y-12485714D01*
X9262857Y-13152380D02*
X9358095Y-13104761D01*
X9405714Y-13057142D01*
X9453333Y-12961904D01*
X9453333Y-12676190D01*
X9405714Y-12580952D01*
X9358095Y-12533333D01*
X9262857Y-12485714D01*
X9120000Y-12485714D01*
X9024761Y-12533333D01*
X8977142Y-12580952D01*
X8929523Y-12676190D01*
X8929523Y-12961904D01*
X8977142Y-13057142D01*
X9024761Y-13104761D01*
X9120000Y-13152380D01*
X9262857Y-13152380D01*
X7739047Y-13152380D02*
X7739047Y-12152380D01*
X7405714Y-12866666D01*
X7072380Y-12152380D01*
X7072380Y-13152380D01*
X6596190Y-13152380D02*
X6596190Y-12485714D01*
X6596190Y-12152380D02*
X6643809Y-12200000D01*
X6596190Y-12247619D01*
X6548571Y-12200000D01*
X6596190Y-12152380D01*
X6596190Y-12247619D01*
X5691428Y-13104761D02*
X5786666Y-13152380D01*
X5977142Y-13152380D01*
X6072380Y-13104761D01*
X6120000Y-13057142D01*
X6167619Y-12961904D01*
X6167619Y-12676190D01*
X6120000Y-12580952D01*
X6072380Y-12533333D01*
X5977142Y-12485714D01*
X5786666Y-12485714D01*
X5691428Y-12533333D01*
X5262857Y-13152380D02*
X5262857Y-12485714D01*
X5262857Y-12676190D02*
X5215238Y-12580952D01*
X5167619Y-12533333D01*
X5072380Y-12485714D01*
X4977142Y-12485714D01*
X4500952Y-13152380D02*
X4596190Y-13104761D01*
X4643809Y-13057142D01*
X4691428Y-12961904D01*
X4691428Y-12676190D01*
X4643809Y-12580952D01*
X4596190Y-12533333D01*
X4500952Y-12485714D01*
X4358095Y-12485714D01*
X4262857Y-12533333D01*
X4215238Y-12580952D01*
X4167619Y-12676190D01*
X4167619Y-12961904D01*
X4215238Y-13057142D01*
X4262857Y-13104761D01*
X4358095Y-13152380D01*
X4500952Y-13152380D01*
D10*
X2482809Y-25342857D02*
X2368523Y-25380952D01*
X2330428Y-25419047D01*
X2292333Y-25495238D01*
X2292333Y-25609523D01*
X2330428Y-25685714D01*
X2368523Y-25723809D01*
X2444714Y-25761904D01*
X2749476Y-25761904D01*
X2749476Y-24961904D01*
X2482809Y-24961904D01*
X2406619Y-25000000D01*
X2368523Y-25038095D01*
X2330428Y-25114285D01*
X2330428Y-25190476D01*
X2368523Y-25266666D01*
X2406619Y-25304761D01*
X2482809Y-25342857D01*
X2749476Y-25342857D01*
X1987571Y-25038095D02*
X1949476Y-25000000D01*
X1873285Y-24961904D01*
X1682809Y-24961904D01*
X1606619Y-25000000D01*
X1568523Y-25038095D01*
X1530428Y-25114285D01*
X1530428Y-25190476D01*
X1568523Y-25304761D01*
X2025666Y-25761904D01*
X1530428Y-25761904D01*
X13671476Y-2901904D02*
X13671476Y-2101904D01*
X13481000Y-2101904D01*
X13366714Y-2140000D01*
X13290523Y-2216190D01*
X13252428Y-2292380D01*
X13214333Y-2444761D01*
X13214333Y-2559047D01*
X13252428Y-2711428D01*
X13290523Y-2787619D01*
X13366714Y-2863809D01*
X13481000Y-2901904D01*
X13671476Y-2901904D01*
X12909571Y-2178095D02*
X12871476Y-2140000D01*
X12795285Y-2101904D01*
X12604809Y-2101904D01*
X12528619Y-2140000D01*
X12490523Y-2178095D01*
X12452428Y-2254285D01*
X12452428Y-2330476D01*
X12490523Y-2444761D01*
X12947666Y-2901904D01*
X12452428Y-2901904D01*
%TO.C,REF\u002A\u002A*%
G36*
X21334793Y1468649D02*
G01*
X21351923Y1458602D01*
X21360492Y1453635D01*
X21388145Y1441732D01*
X21430633Y1425332D01*
X21484107Y1405908D01*
X21544721Y1384929D01*
X21556609Y1380883D01*
X21738331Y1311258D01*
X21900476Y1233265D01*
X22044782Y1145725D01*
X22172991Y1047460D01*
X22286843Y937292D01*
X22388078Y814043D01*
X22443279Y734107D01*
X22527601Y586087D01*
X22591905Y432558D01*
X22636920Y271211D01*
X22663376Y99738D01*
X22672003Y-84169D01*
X22671015Y-147191D01*
X22656930Y-320071D01*
X22625285Y-483541D01*
X22574960Y-642403D01*
X22504837Y-801457D01*
X22499342Y-812350D01*
X22403236Y-979290D01*
X22288164Y-1141585D01*
X22157093Y-1296252D01*
X22012992Y-1440307D01*
X21858831Y-1570765D01*
X21697578Y-1684643D01*
X21532203Y-1778957D01*
X21418252Y-1830889D01*
X21248023Y-1891033D01*
X21073060Y-1933739D01*
X20897124Y-1958345D01*
X20723974Y-1964190D01*
X20557373Y-1950609D01*
X20465319Y-1933054D01*
X20326364Y-1892572D01*
X20187630Y-1836877D01*
X20055651Y-1768706D01*
X19936964Y-1690798D01*
X19925800Y-1682015D01*
X19892727Y-1653649D01*
X19850109Y-1615049D01*
X19802238Y-1570145D01*
X19753413Y-1522868D01*
X19665406Y-1431569D01*
X19570158Y-1317930D01*
X19490332Y-1202745D01*
X19422485Y-1081419D01*
X19411862Y-1058876D01*
X19391731Y-1011195D01*
X19369431Y-953632D01*
X19346090Y-889630D01*
X19322837Y-822633D01*
X19300802Y-756086D01*
X19281115Y-693433D01*
X19264904Y-638118D01*
X19253301Y-593586D01*
X19247433Y-563280D01*
X19248430Y-550645D01*
X19251645Y-549483D01*
X19273621Y-543309D01*
X19313603Y-532861D01*
X19368822Y-518839D01*
X19436513Y-501942D01*
X19513907Y-482868D01*
X19598236Y-462316D01*
X19936609Y-380295D01*
X19938022Y-444685D01*
X19947272Y-564705D01*
X19974876Y-697772D01*
X20019956Y-819269D01*
X20081913Y-927635D01*
X20160146Y-1021312D01*
X20190417Y-1049685D01*
X20286408Y-1119857D01*
X20391770Y-1170072D01*
X20505110Y-1200049D01*
X20625039Y-1209509D01*
X20750162Y-1198171D01*
X20879091Y-1165758D01*
X20914825Y-1153049D01*
X21034721Y-1098312D01*
X21157365Y-1025340D01*
X21280012Y-936763D01*
X21399912Y-835214D01*
X21514317Y-723321D01*
X21620479Y-603715D01*
X21715650Y-479028D01*
X21797084Y-351887D01*
X21862028Y-224925D01*
X21896800Y-137238D01*
X21931159Y-11242D01*
X21944032Y108281D01*
X21935375Y221747D01*
X21905140Y329572D01*
X21853284Y432173D01*
X21779761Y529965D01*
X21731515Y579867D01*
X21634549Y656666D01*
X21528056Y713520D01*
X21413397Y749773D01*
X21291936Y764769D01*
X21270568Y765665D01*
X21230197Y768528D01*
X21202255Y772180D01*
X21191813Y776047D01*
X21191958Y778999D01*
X21195077Y802575D01*
X21201782Y842997D01*
X21211432Y897011D01*
X21223382Y961365D01*
X21236993Y1032805D01*
X21251620Y1108075D01*
X21266623Y1183923D01*
X21281359Y1257096D01*
X21295186Y1324338D01*
X21307461Y1382398D01*
X21317544Y1428019D01*
X21324790Y1457950D01*
X21328559Y1468935D01*
X21334793Y1468649D01*
G37*
D13*
X21334793Y1468649D02*
X21351923Y1458602D01*
X21360492Y1453635D01*
X21388145Y1441732D01*
X21430633Y1425332D01*
X21484107Y1405908D01*
X21544721Y1384929D01*
X21556609Y1380883D01*
X21738331Y1311258D01*
X21900476Y1233265D01*
X22044782Y1145725D01*
X22172991Y1047460D01*
X22286843Y937292D01*
X22388078Y814043D01*
X22443279Y734107D01*
X22527601Y586087D01*
X22591905Y432558D01*
X22636920Y271211D01*
X22663376Y99738D01*
X22672003Y-84169D01*
X22671015Y-147191D01*
X22656930Y-320071D01*
X22625285Y-483541D01*
X22574960Y-642403D01*
X22504837Y-801457D01*
X22499342Y-812350D01*
X22403236Y-979290D01*
X22288164Y-1141585D01*
X22157093Y-1296252D01*
X22012992Y-1440307D01*
X21858831Y-1570765D01*
X21697578Y-1684643D01*
X21532203Y-1778957D01*
X21418252Y-1830889D01*
X21248023Y-1891033D01*
X21073060Y-1933739D01*
X20897124Y-1958345D01*
X20723974Y-1964190D01*
X20557373Y-1950609D01*
X20465319Y-1933054D01*
X20326364Y-1892572D01*
X20187630Y-1836877D01*
X20055651Y-1768706D01*
X19936964Y-1690798D01*
X19925800Y-1682015D01*
X19892727Y-1653649D01*
X19850109Y-1615049D01*
X19802238Y-1570145D01*
X19753413Y-1522868D01*
X19665406Y-1431569D01*
X19570158Y-1317930D01*
X19490332Y-1202745D01*
X19422485Y-1081419D01*
X19411862Y-1058876D01*
X19391731Y-1011195D01*
X19369431Y-953632D01*
X19346090Y-889630D01*
X19322837Y-822633D01*
X19300802Y-756086D01*
X19281115Y-693433D01*
X19264904Y-638118D01*
X19253301Y-593586D01*
X19247433Y-563280D01*
X19248430Y-550645D01*
X19251645Y-549483D01*
X19273621Y-543309D01*
X19313603Y-532861D01*
X19368822Y-518839D01*
X19436513Y-501942D01*
X19513907Y-482868D01*
X19598236Y-462316D01*
X19936609Y-380295D01*
X19938022Y-444685D01*
X19947272Y-564705D01*
X19974876Y-697772D01*
X20019956Y-819269D01*
X20081913Y-927635D01*
X20160146Y-1021312D01*
X20190417Y-1049685D01*
X20286408Y-1119857D01*
X20391770Y-1170072D01*
X20505110Y-1200049D01*
X20625039Y-1209509D01*
X20750162Y-1198171D01*
X20879091Y-1165758D01*
X20914825Y-1153049D01*
X21034721Y-1098312D01*
X21157365Y-1025340D01*
X21280012Y-936763D01*
X21399912Y-835214D01*
X21514317Y-723321D01*
X21620479Y-603715D01*
X21715650Y-479028D01*
X21797084Y-351887D01*
X21862028Y-224925D01*
X21896800Y-137238D01*
X21931159Y-11242D01*
X21944032Y108281D01*
X21935375Y221747D01*
X21905140Y329572D01*
X21853284Y432173D01*
X21779761Y529965D01*
X21731515Y579867D01*
X21634549Y656666D01*
X21528056Y713520D01*
X21413397Y749773D01*
X21291936Y764769D01*
X21270568Y765665D01*
X21230197Y768528D01*
X21202255Y772180D01*
X21191813Y776047D01*
X21191958Y778999D01*
X21195077Y802575D01*
X21201782Y842997D01*
X21211432Y897011D01*
X21223382Y961365D01*
X21236993Y1032805D01*
X21251620Y1108075D01*
X21266623Y1183923D01*
X21281359Y1257096D01*
X21295186Y1324338D01*
X21307461Y1382398D01*
X21317544Y1428019D01*
X21324790Y1457950D01*
X21328559Y1468935D01*
X21334793Y1468649D01*
G36*
X24488089Y-57877D02*
G01*
X24579600Y-88814D01*
X24664816Y-139752D01*
X24741099Y-210385D01*
X24788729Y-272546D01*
X24828008Y-350295D01*
X24848982Y-435518D01*
X24853277Y-532894D01*
X24849234Y-591451D01*
X24835811Y-660609D01*
X24810754Y-721290D01*
X24771252Y-779763D01*
X24714493Y-842302D01*
X24681709Y-874692D01*
X24651054Y-902223D01*
X24624398Y-921008D01*
X24595514Y-935314D01*
X24558175Y-949406D01*
X24529051Y-958804D01*
X24427061Y-978013D01*
X24327194Y-975992D01*
X24231878Y-952977D01*
X24143543Y-909203D01*
X24115208Y-890732D01*
X24081731Y-866969D01*
X24057134Y-844953D01*
X24034981Y-818597D01*
X24008834Y-781814D01*
X23981369Y-736778D01*
X23944168Y-645993D01*
X23926623Y-551689D01*
X23928213Y-457020D01*
X23948416Y-365133D01*
X23986710Y-279180D01*
X24042575Y-202308D01*
X24115489Y-137668D01*
X24202161Y-88137D01*
X24296733Y-57232D01*
X24392921Y-47247D01*
X24488089Y-57877D01*
G37*
X24488089Y-57877D02*
X24579600Y-88814D01*
X24664816Y-139752D01*
X24741099Y-210385D01*
X24788729Y-272546D01*
X24828008Y-350295D01*
X24848982Y-435518D01*
X24853277Y-532894D01*
X24849234Y-591451D01*
X24835811Y-660609D01*
X24810754Y-721290D01*
X24771252Y-779763D01*
X24714493Y-842302D01*
X24681709Y-874692D01*
X24651054Y-902223D01*
X24624398Y-921008D01*
X24595514Y-935314D01*
X24558175Y-949406D01*
X24529051Y-958804D01*
X24427061Y-978013D01*
X24327194Y-975992D01*
X24231878Y-952977D01*
X24143543Y-909203D01*
X24115208Y-890732D01*
X24081731Y-866969D01*
X24057134Y-844953D01*
X24034981Y-818597D01*
X24008834Y-781814D01*
X23981369Y-736778D01*
X23944168Y-645993D01*
X23926623Y-551689D01*
X23928213Y-457020D01*
X23948416Y-365133D01*
X23986710Y-279180D01*
X24042575Y-202308D01*
X24115489Y-137668D01*
X24202161Y-88137D01*
X24296733Y-57232D01*
X24392921Y-47247D01*
X24488089Y-57877D01*
G36*
X26727694Y-3737365D02*
G01*
X26635223Y-3830465D01*
X26531347Y-3934769D01*
X26415419Y-4050960D01*
X26286790Y-4179722D01*
X26144814Y-4321739D01*
X25988843Y-4477696D01*
X25818229Y-4648275D01*
X25632323Y-4834161D01*
X25602517Y-4863967D01*
X25418242Y-5048275D01*
X25249181Y-5217392D01*
X25094649Y-5371956D01*
X24953966Y-5512610D01*
X24826451Y-5639992D01*
X24711420Y-5754743D01*
X24608192Y-5857502D01*
X24516085Y-5948910D01*
X24434418Y-6029607D01*
X24362509Y-6100233D01*
X24299677Y-6161426D01*
X24245238Y-6213830D01*
X24198512Y-6258083D01*
X24158815Y-6294825D01*
X24125469Y-6324697D01*
X24097789Y-6348337D01*
X24075095Y-6366388D01*
X24056703Y-6379488D01*
X24041934Y-6388278D01*
X24030104Y-6393398D01*
X24020533Y-6395488D01*
X24012538Y-6395187D01*
X24005436Y-6393137D01*
X23998548Y-6389977D01*
X23991191Y-6386348D01*
X23982682Y-6382889D01*
X23978421Y-6380987D01*
X23971011Y-6376358D01*
X23960757Y-6368650D01*
X23947002Y-6357219D01*
X23929093Y-6341420D01*
X23906371Y-6320607D01*
X23878184Y-6294137D01*
X23843874Y-6261363D01*
X23802789Y-6221641D01*
X23754272Y-6174326D01*
X23697668Y-6118771D01*
X23632320Y-6054334D01*
X23557575Y-5980367D01*
X23472777Y-5896228D01*
X23377271Y-5801269D01*
X23270401Y-5694847D01*
X23151512Y-5576315D01*
X23019949Y-5445031D01*
X22875057Y-5300346D01*
X22716180Y-5141618D01*
X22542662Y-4968201D01*
X22353850Y-4779449D01*
X22326705Y-4752312D01*
X22139009Y-4564677D01*
X21966534Y-4392265D01*
X21808644Y-4234408D01*
X21664703Y-4090433D01*
X21534076Y-3959673D01*
X21416126Y-3841458D01*
X21365727Y-3790854D01*
X22099276Y-3790854D01*
X22915588Y-4607165D01*
X22969021Y-4552835D01*
X22999538Y-4523899D01*
X23028923Y-4502618D01*
X23064383Y-4484957D01*
X23113791Y-4466207D01*
X23120792Y-4463761D01*
X23173780Y-4446692D01*
X23226670Y-4431714D01*
X23268972Y-4421828D01*
X23276892Y-4420368D01*
X23314561Y-4413856D01*
X23369090Y-4404832D01*
X23437871Y-4393700D01*
X23518291Y-4380862D01*
X23607740Y-4366724D01*
X23703608Y-4351688D01*
X23803285Y-4336157D01*
X23904158Y-4320536D01*
X24003617Y-4305226D01*
X24099053Y-4290634D01*
X24187855Y-4277161D01*
X24267411Y-4265210D01*
X24335110Y-4255186D01*
X24388344Y-4247491D01*
X24424500Y-4242530D01*
X24440969Y-4240706D01*
X24447183Y-4240817D01*
X24451589Y-4242339D01*
X24452150Y-4246597D01*
X24447640Y-4254900D01*
X24436833Y-4268557D01*
X24418504Y-4288877D01*
X24391426Y-4317167D01*
X24354371Y-4354737D01*
X24306118Y-4402896D01*
X24245435Y-4462952D01*
X24171101Y-4536215D01*
X24081886Y-4623991D01*
X24050012Y-4655332D01*
X23963580Y-4740154D01*
X23891108Y-4810932D01*
X23831068Y-4869083D01*
X23781923Y-4916023D01*
X23742143Y-4953170D01*
X23710195Y-4981938D01*
X23684545Y-5003744D01*
X23663660Y-5020005D01*
X23646009Y-5032139D01*
X23630058Y-5041561D01*
X23605535Y-5054391D01*
X23544998Y-5081538D01*
X23489350Y-5100562D01*
X23445352Y-5108992D01*
X23443495Y-5109157D01*
X23438885Y-5110697D01*
X23437865Y-5114772D01*
X23441677Y-5122720D01*
X23451561Y-5135882D01*
X23468758Y-5155599D01*
X23494506Y-5183208D01*
X23530050Y-5220051D01*
X23576628Y-5267467D01*
X23635481Y-5326796D01*
X23707850Y-5399378D01*
X23794976Y-5486553D01*
X24170848Y-5862425D01*
X24184173Y-5794267D01*
X24186152Y-5783674D01*
X24189241Y-5765799D01*
X24192246Y-5749504D01*
X24195966Y-5733910D01*
X24201201Y-5718139D01*
X24208754Y-5701309D01*
X24219423Y-5682541D01*
X24234006Y-5660956D01*
X24253307Y-5635674D01*
X24278125Y-5605815D01*
X24309258Y-5570500D01*
X24347509Y-5528849D01*
X24393676Y-5479983D01*
X24448560Y-5423021D01*
X24512961Y-5357085D01*
X24587679Y-5281294D01*
X24673514Y-5194769D01*
X24771267Y-5096631D01*
X24881736Y-4985999D01*
X25005724Y-4861995D01*
X25144030Y-4723737D01*
X25297453Y-4570348D01*
X25384152Y-4483636D01*
X25529130Y-4338606D01*
X25659460Y-4208253D01*
X25776022Y-4091778D01*
X25879693Y-3988383D01*
X25971354Y-3897268D01*
X26051884Y-3817636D01*
X26122161Y-3748687D01*
X26183065Y-3689623D01*
X26235475Y-3639644D01*
X26280271Y-3597953D01*
X26318329Y-3563749D01*
X26350532Y-3536236D01*
X26377756Y-3514614D01*
X26400881Y-3498083D01*
X26420786Y-3485846D01*
X26438351Y-3477104D01*
X26454455Y-3471057D01*
X26469976Y-3466908D01*
X26485795Y-3463856D01*
X26502788Y-3461104D01*
X26521837Y-3457854D01*
X26590874Y-3445088D01*
X25841424Y-2695637D01*
X25823674Y-2767123D01*
X25816351Y-2795210D01*
X25807128Y-2824992D01*
X25795801Y-2853425D01*
X25780990Y-2882244D01*
X25761311Y-2913183D01*
X25735380Y-2947977D01*
X25701813Y-2988362D01*
X25659231Y-3036069D01*
X25606247Y-3092837D01*
X25541481Y-3160397D01*
X25463547Y-3240487D01*
X25371065Y-3334839D01*
X25286863Y-3420327D01*
X25204681Y-3503084D01*
X25136996Y-3570411D01*
X25084009Y-3622111D01*
X25045922Y-3657986D01*
X25022936Y-3677842D01*
X25015252Y-3681482D01*
X25015421Y-3676987D01*
X25017751Y-3648982D01*
X25022551Y-3602136D01*
X25029489Y-3539145D01*
X25038233Y-3462704D01*
X25048452Y-3375513D01*
X25059814Y-3280265D01*
X25071987Y-3179659D01*
X25084640Y-3076392D01*
X25097440Y-2973158D01*
X25110056Y-2872657D01*
X25122157Y-2777584D01*
X25133410Y-2690637D01*
X25143483Y-2614511D01*
X25152045Y-2551903D01*
X25158765Y-2505510D01*
X25163309Y-2478030D01*
X25182383Y-2394881D01*
X25210509Y-2310224D01*
X25243562Y-2246721D01*
X25281774Y-2203837D01*
X25319439Y-2173652D01*
X24518987Y-1373554D01*
X24525285Y-1423133D01*
X24526709Y-1434976D01*
X24532780Y-1517908D01*
X24533482Y-1614524D01*
X24528774Y-1727559D01*
X24518613Y-1859756D01*
X24516135Y-1886508D01*
X24509926Y-1950390D01*
X24502033Y-2028647D01*
X24492696Y-2119113D01*
X24482151Y-2219621D01*
X24470639Y-2328007D01*
X24458398Y-2442101D01*
X24445667Y-2559739D01*
X24443027Y-2583941D01*
X24432683Y-2678755D01*
X24419685Y-2796980D01*
X24406914Y-2912251D01*
X24394605Y-3022399D01*
X24382999Y-3125260D01*
X24372335Y-3218664D01*
X24362849Y-3300449D01*
X24354782Y-3368446D01*
X24348372Y-3420489D01*
X24343857Y-3454413D01*
X24341477Y-3468049D01*
X24337332Y-3469708D01*
X24313684Y-3475140D01*
X24270853Y-3483541D01*
X24210819Y-3494590D01*
X24135562Y-3507959D01*
X24047064Y-3523327D01*
X23947304Y-3540368D01*
X23838262Y-3558759D01*
X23721919Y-3578174D01*
X23600257Y-3598292D01*
X23475253Y-3618787D01*
X23348890Y-3639335D01*
X23223147Y-3659611D01*
X23100005Y-3679292D01*
X22981444Y-3698054D01*
X22869445Y-3715573D01*
X22765988Y-3731524D01*
X22673053Y-3745583D01*
X22592621Y-3757427D01*
X22526671Y-3766730D01*
X22477186Y-3773170D01*
X22444816Y-3776654D01*
X22373883Y-3782469D01*
X22298388Y-3786849D01*
X22230017Y-3789038D01*
X22099276Y-3790854D01*
X21365727Y-3790854D01*
X21310216Y-3735118D01*
X21215712Y-3639985D01*
X21131975Y-3555387D01*
X21058372Y-3480658D01*
X20994266Y-3415125D01*
X20939019Y-3358121D01*
X20891998Y-3308975D01*
X20852565Y-3267019D01*
X20820085Y-3231583D01*
X20793920Y-3201997D01*
X20773435Y-3177593D01*
X20757995Y-3157699D01*
X20746964Y-3141648D01*
X20739704Y-3128768D01*
X20735580Y-3118394D01*
X20733956Y-3109851D01*
X20734195Y-3102474D01*
X20735662Y-3095591D01*
X20737722Y-3088533D01*
X20739736Y-3080631D01*
X20740279Y-3078557D01*
X20742608Y-3073099D01*
X20747053Y-3065788D01*
X20754273Y-3055955D01*
X20764928Y-3042928D01*
X20779679Y-3026033D01*
X20799184Y-3004602D01*
X20824105Y-2977961D01*
X20855101Y-2945440D01*
X20857549Y-2942905D01*
X21265339Y-2942905D01*
X21267184Y-2946550D01*
X21282199Y-2964430D01*
X21310850Y-2995676D01*
X21351620Y-3038710D01*
X21402993Y-3091953D01*
X21463454Y-3153826D01*
X21531484Y-3222751D01*
X21605570Y-3297147D01*
X21654334Y-3345839D01*
X21723990Y-3415130D01*
X21787543Y-3478041D01*
X21843355Y-3532966D01*
X21889787Y-3578302D01*
X21925204Y-3612447D01*
X21947969Y-3633796D01*
X21956443Y-3640747D01*
X21957879Y-3637629D01*
X21963139Y-3618020D01*
X21969615Y-3587311D01*
X21972420Y-3572485D01*
X21975855Y-3556023D01*
X21980221Y-3540208D01*
X21986461Y-3524001D01*
X21995513Y-3506367D01*
X22008320Y-3486268D01*
X22025823Y-3462670D01*
X22048963Y-3434535D01*
X22078682Y-3400825D01*
X22115921Y-3360505D01*
X22161619Y-3312538D01*
X22216720Y-3255888D01*
X22282164Y-3189519D01*
X22358893Y-3112393D01*
X22447848Y-3023474D01*
X22549969Y-2921725D01*
X22666198Y-2806110D01*
X22797477Y-2675593D01*
X22924326Y-2549499D01*
X23037027Y-2437542D01*
X23135741Y-2339598D01*
X23221475Y-2254706D01*
X23295234Y-2181900D01*
X23358026Y-2120217D01*
X23410855Y-2068694D01*
X23454729Y-2026366D01*
X23490653Y-1992270D01*
X23519635Y-1965441D01*
X23542682Y-1944917D01*
X23560797Y-1929734D01*
X23574990Y-1918926D01*
X23586265Y-1911532D01*
X23595631Y-1906587D01*
X23604091Y-1903127D01*
X23612601Y-1900131D01*
X23652537Y-1887980D01*
X23687143Y-1879944D01*
X23688932Y-1879635D01*
X23714797Y-1874036D01*
X23728138Y-1869052D01*
X23727746Y-1868020D01*
X23716607Y-1854836D01*
X23691628Y-1827985D01*
X23654483Y-1789195D01*
X23606851Y-1740192D01*
X23550402Y-1682702D01*
X23486816Y-1618453D01*
X23417765Y-1549170D01*
X23102637Y-1234042D01*
X21433947Y-2894034D01*
X21373455Y-2916854D01*
X21347658Y-2925791D01*
X21314077Y-2934992D01*
X21292653Y-2937788D01*
X21281319Y-2937811D01*
X21265339Y-2942905D01*
X20857549Y-2942905D01*
X20892833Y-2906366D01*
X20937960Y-2860068D01*
X20991142Y-2805875D01*
X21053040Y-2743115D01*
X21124313Y-2671116D01*
X21205622Y-2589208D01*
X21297626Y-2496717D01*
X21400985Y-2392974D01*
X21516360Y-2277306D01*
X21644411Y-2149041D01*
X21785797Y-2007508D01*
X21941178Y-1852036D01*
X22111216Y-1681953D01*
X22296569Y-1496588D01*
X23846244Y53087D01*
X23900524Y53087D01*
X23936476Y50705D01*
X23963840Y40030D01*
X23991524Y16368D01*
X24028243Y-20352D01*
X23966061Y-82534D01*
X23932149Y-119186D01*
X23867344Y-210539D01*
X23821774Y-308461D01*
X23794894Y-410508D01*
X23786166Y-514240D01*
X23795047Y-617211D01*
X23820994Y-716982D01*
X23863468Y-811108D01*
X23921925Y-897149D01*
X23995826Y-972660D01*
X24084626Y-1035201D01*
X24187785Y-1082327D01*
X24297284Y-1109988D01*
X24410354Y-1117231D01*
X24521222Y-1103550D01*
X24627219Y-1069541D01*
X24725677Y-1015797D01*
X24813926Y-942912D01*
X24882365Y-874474D01*
X26028128Y-2020236D01*
X26177420Y-2169547D01*
X26321721Y-2313919D01*
X26451522Y-2443861D01*
X26567589Y-2560157D01*
X26670686Y-2663589D01*
X26761578Y-2754939D01*
X26841033Y-2834992D01*
X26909814Y-2904528D01*
X26968686Y-2964331D01*
X27018417Y-3015184D01*
X27059768Y-3057869D01*
X27093507Y-3093169D01*
X27120400Y-3121867D01*
X27141210Y-3144745D01*
X27156704Y-3162587D01*
X27167646Y-3176175D01*
X27174801Y-3186291D01*
X27178936Y-3193719D01*
X27180815Y-3199241D01*
X27182531Y-3206004D01*
X27184824Y-3213293D01*
X27186725Y-3220158D01*
X27187586Y-3227285D01*
X27186760Y-3235353D01*
X27183598Y-3245051D01*
X27177452Y-3257061D01*
X27167676Y-3272066D01*
X27153621Y-3290752D01*
X27134639Y-3313801D01*
X27110083Y-3341898D01*
X27079305Y-3375727D01*
X27041657Y-3415971D01*
X26996491Y-3463315D01*
X26943160Y-3518442D01*
X26881015Y-3582037D01*
X26809409Y-3654783D01*
X26805012Y-3659226D01*
X26727694Y-3737365D01*
G37*
X26727694Y-3737365D02*
X26635223Y-3830465D01*
X26531347Y-3934769D01*
X26415419Y-4050960D01*
X26286790Y-4179722D01*
X26144814Y-4321739D01*
X25988843Y-4477696D01*
X25818229Y-4648275D01*
X25632323Y-4834161D01*
X25602517Y-4863967D01*
X25418242Y-5048275D01*
X25249181Y-5217392D01*
X25094649Y-5371956D01*
X24953966Y-5512610D01*
X24826451Y-5639992D01*
X24711420Y-5754743D01*
X24608192Y-5857502D01*
X24516085Y-5948910D01*
X24434418Y-6029607D01*
X24362509Y-6100233D01*
X24299677Y-6161426D01*
X24245238Y-6213830D01*
X24198512Y-6258083D01*
X24158815Y-6294825D01*
X24125469Y-6324697D01*
X24097789Y-6348337D01*
X24075095Y-6366388D01*
X24056703Y-6379488D01*
X24041934Y-6388278D01*
X24030104Y-6393398D01*
X24020533Y-6395488D01*
X24012538Y-6395187D01*
X24005436Y-6393137D01*
X23998548Y-6389977D01*
X23991191Y-6386348D01*
X23982682Y-6382889D01*
X23978421Y-6380987D01*
X23971011Y-6376358D01*
X23960757Y-6368650D01*
X23947002Y-6357219D01*
X23929093Y-6341420D01*
X23906371Y-6320607D01*
X23878184Y-6294137D01*
X23843874Y-6261363D01*
X23802789Y-6221641D01*
X23754272Y-6174326D01*
X23697668Y-6118771D01*
X23632320Y-6054334D01*
X23557575Y-5980367D01*
X23472777Y-5896228D01*
X23377271Y-5801269D01*
X23270401Y-5694847D01*
X23151512Y-5576315D01*
X23019949Y-5445031D01*
X22875057Y-5300346D01*
X22716180Y-5141618D01*
X22542662Y-4968201D01*
X22353850Y-4779449D01*
X22326705Y-4752312D01*
X22139009Y-4564677D01*
X21966534Y-4392265D01*
X21808644Y-4234408D01*
X21664703Y-4090433D01*
X21534076Y-3959673D01*
X21416126Y-3841458D01*
X21365727Y-3790854D01*
X22099276Y-3790854D01*
X22915588Y-4607165D01*
X22969021Y-4552835D01*
X22999538Y-4523899D01*
X23028923Y-4502618D01*
X23064383Y-4484957D01*
X23113791Y-4466207D01*
X23120792Y-4463761D01*
X23173780Y-4446692D01*
X23226670Y-4431714D01*
X23268972Y-4421828D01*
X23276892Y-4420368D01*
X23314561Y-4413856D01*
X23369090Y-4404832D01*
X23437871Y-4393700D01*
X23518291Y-4380862D01*
X23607740Y-4366724D01*
X23703608Y-4351688D01*
X23803285Y-4336157D01*
X23904158Y-4320536D01*
X24003617Y-4305226D01*
X24099053Y-4290634D01*
X24187855Y-4277161D01*
X24267411Y-4265210D01*
X24335110Y-4255186D01*
X24388344Y-4247491D01*
X24424500Y-4242530D01*
X24440969Y-4240706D01*
X24447183Y-4240817D01*
X24451589Y-4242339D01*
X24452150Y-4246597D01*
X24447640Y-4254900D01*
X24436833Y-4268557D01*
X24418504Y-4288877D01*
X24391426Y-4317167D01*
X24354371Y-4354737D01*
X24306118Y-4402896D01*
X24245435Y-4462952D01*
X24171101Y-4536215D01*
X24081886Y-4623991D01*
X24050012Y-4655332D01*
X23963580Y-4740154D01*
X23891108Y-4810932D01*
X23831068Y-4869083D01*
X23781923Y-4916023D01*
X23742143Y-4953170D01*
X23710195Y-4981938D01*
X23684545Y-5003744D01*
X23663660Y-5020005D01*
X23646009Y-5032139D01*
X23630058Y-5041561D01*
X23605535Y-5054391D01*
X23544998Y-5081538D01*
X23489350Y-5100562D01*
X23445352Y-5108992D01*
X23443495Y-5109157D01*
X23438885Y-5110697D01*
X23437865Y-5114772D01*
X23441677Y-5122720D01*
X23451561Y-5135882D01*
X23468758Y-5155599D01*
X23494506Y-5183208D01*
X23530050Y-5220051D01*
X23576628Y-5267467D01*
X23635481Y-5326796D01*
X23707850Y-5399378D01*
X23794976Y-5486553D01*
X24170848Y-5862425D01*
X24184173Y-5794267D01*
X24186152Y-5783674D01*
X24189241Y-5765799D01*
X24192246Y-5749504D01*
X24195966Y-5733910D01*
X24201201Y-5718139D01*
X24208754Y-5701309D01*
X24219423Y-5682541D01*
X24234006Y-5660956D01*
X24253307Y-5635674D01*
X24278125Y-5605815D01*
X24309258Y-5570500D01*
X24347509Y-5528849D01*
X24393676Y-5479983D01*
X24448560Y-5423021D01*
X24512961Y-5357085D01*
X24587679Y-5281294D01*
X24673514Y-5194769D01*
X24771267Y-5096631D01*
X24881736Y-4985999D01*
X25005724Y-4861995D01*
X25144030Y-4723737D01*
X25297453Y-4570348D01*
X25384152Y-4483636D01*
X25529130Y-4338606D01*
X25659460Y-4208253D01*
X25776022Y-4091778D01*
X25879693Y-3988383D01*
X25971354Y-3897268D01*
X26051884Y-3817636D01*
X26122161Y-3748687D01*
X26183065Y-3689623D01*
X26235475Y-3639644D01*
X26280271Y-3597953D01*
X26318329Y-3563749D01*
X26350532Y-3536236D01*
X26377756Y-3514614D01*
X26400881Y-3498083D01*
X26420786Y-3485846D01*
X26438351Y-3477104D01*
X26454455Y-3471057D01*
X26469976Y-3466908D01*
X26485795Y-3463856D01*
X26502788Y-3461104D01*
X26521837Y-3457854D01*
X26590874Y-3445088D01*
X25841424Y-2695637D01*
X25823674Y-2767123D01*
X25816351Y-2795210D01*
X25807128Y-2824992D01*
X25795801Y-2853425D01*
X25780990Y-2882244D01*
X25761311Y-2913183D01*
X25735380Y-2947977D01*
X25701813Y-2988362D01*
X25659231Y-3036069D01*
X25606247Y-3092837D01*
X25541481Y-3160397D01*
X25463547Y-3240487D01*
X25371065Y-3334839D01*
X25286863Y-3420327D01*
X25204681Y-3503084D01*
X25136996Y-3570411D01*
X25084009Y-3622111D01*
X25045922Y-3657986D01*
X25022936Y-3677842D01*
X25015252Y-3681482D01*
X25015421Y-3676987D01*
X25017751Y-3648982D01*
X25022551Y-3602136D01*
X25029489Y-3539145D01*
X25038233Y-3462704D01*
X25048452Y-3375513D01*
X25059814Y-3280265D01*
X25071987Y-3179659D01*
X25084640Y-3076392D01*
X25097440Y-2973158D01*
X25110056Y-2872657D01*
X25122157Y-2777584D01*
X25133410Y-2690637D01*
X25143483Y-2614511D01*
X25152045Y-2551903D01*
X25158765Y-2505510D01*
X25163309Y-2478030D01*
X25182383Y-2394881D01*
X25210509Y-2310224D01*
X25243562Y-2246721D01*
X25281774Y-2203837D01*
X25319439Y-2173652D01*
X24518987Y-1373554D01*
X24525285Y-1423133D01*
X24526709Y-1434976D01*
X24532780Y-1517908D01*
X24533482Y-1614524D01*
X24528774Y-1727559D01*
X24518613Y-1859756D01*
X24516135Y-1886508D01*
X24509926Y-1950390D01*
X24502033Y-2028647D01*
X24492696Y-2119113D01*
X24482151Y-2219621D01*
X24470639Y-2328007D01*
X24458398Y-2442101D01*
X24445667Y-2559739D01*
X24443027Y-2583941D01*
X24432683Y-2678755D01*
X24419685Y-2796980D01*
X24406914Y-2912251D01*
X24394605Y-3022399D01*
X24382999Y-3125260D01*
X24372335Y-3218664D01*
X24362849Y-3300449D01*
X24354782Y-3368446D01*
X24348372Y-3420489D01*
X24343857Y-3454413D01*
X24341477Y-3468049D01*
X24337332Y-3469708D01*
X24313684Y-3475140D01*
X24270853Y-3483541D01*
X24210819Y-3494590D01*
X24135562Y-3507959D01*
X24047064Y-3523327D01*
X23947304Y-3540368D01*
X23838262Y-3558759D01*
X23721919Y-3578174D01*
X23600257Y-3598292D01*
X23475253Y-3618787D01*
X23348890Y-3639335D01*
X23223147Y-3659611D01*
X23100005Y-3679292D01*
X22981444Y-3698054D01*
X22869445Y-3715573D01*
X22765988Y-3731524D01*
X22673053Y-3745583D01*
X22592621Y-3757427D01*
X22526671Y-3766730D01*
X22477186Y-3773170D01*
X22444816Y-3776654D01*
X22373883Y-3782469D01*
X22298388Y-3786849D01*
X22230017Y-3789038D01*
X22099276Y-3790854D01*
X21365727Y-3790854D01*
X21310216Y-3735118D01*
X21215712Y-3639985D01*
X21131975Y-3555387D01*
X21058372Y-3480658D01*
X20994266Y-3415125D01*
X20939019Y-3358121D01*
X20891998Y-3308975D01*
X20852565Y-3267019D01*
X20820085Y-3231583D01*
X20793920Y-3201997D01*
X20773435Y-3177593D01*
X20757995Y-3157699D01*
X20746964Y-3141648D01*
X20739704Y-3128768D01*
X20735580Y-3118394D01*
X20733956Y-3109851D01*
X20734195Y-3102474D01*
X20735662Y-3095591D01*
X20737722Y-3088533D01*
X20739736Y-3080631D01*
X20740279Y-3078557D01*
X20742608Y-3073099D01*
X20747053Y-3065788D01*
X20754273Y-3055955D01*
X20764928Y-3042928D01*
X20779679Y-3026033D01*
X20799184Y-3004602D01*
X20824105Y-2977961D01*
X20855101Y-2945440D01*
X20857549Y-2942905D01*
X21265339Y-2942905D01*
X21267184Y-2946550D01*
X21282199Y-2964430D01*
X21310850Y-2995676D01*
X21351620Y-3038710D01*
X21402993Y-3091953D01*
X21463454Y-3153826D01*
X21531484Y-3222751D01*
X21605570Y-3297147D01*
X21654334Y-3345839D01*
X21723990Y-3415130D01*
X21787543Y-3478041D01*
X21843355Y-3532966D01*
X21889787Y-3578302D01*
X21925204Y-3612447D01*
X21947969Y-3633796D01*
X21956443Y-3640747D01*
X21957879Y-3637629D01*
X21963139Y-3618020D01*
X21969615Y-3587311D01*
X21972420Y-3572485D01*
X21975855Y-3556023D01*
X21980221Y-3540208D01*
X21986461Y-3524001D01*
X21995513Y-3506367D01*
X22008320Y-3486268D01*
X22025823Y-3462670D01*
X22048963Y-3434535D01*
X22078682Y-3400825D01*
X22115921Y-3360505D01*
X22161619Y-3312538D01*
X22216720Y-3255888D01*
X22282164Y-3189519D01*
X22358893Y-3112393D01*
X22447848Y-3023474D01*
X22549969Y-2921725D01*
X22666198Y-2806110D01*
X22797477Y-2675593D01*
X22924326Y-2549499D01*
X23037027Y-2437542D01*
X23135741Y-2339598D01*
X23221475Y-2254706D01*
X23295234Y-2181900D01*
X23358026Y-2120217D01*
X23410855Y-2068694D01*
X23454729Y-2026366D01*
X23490653Y-1992270D01*
X23519635Y-1965441D01*
X23542682Y-1944917D01*
X23560797Y-1929734D01*
X23574990Y-1918926D01*
X23586265Y-1911532D01*
X23595631Y-1906587D01*
X23604091Y-1903127D01*
X23612601Y-1900131D01*
X23652537Y-1887980D01*
X23687143Y-1879944D01*
X23688932Y-1879635D01*
X23714797Y-1874036D01*
X23728138Y-1869052D01*
X23727746Y-1868020D01*
X23716607Y-1854836D01*
X23691628Y-1827985D01*
X23654483Y-1789195D01*
X23606851Y-1740192D01*
X23550402Y-1682702D01*
X23486816Y-1618453D01*
X23417765Y-1549170D01*
X23102637Y-1234042D01*
X21433947Y-2894034D01*
X21373455Y-2916854D01*
X21347658Y-2925791D01*
X21314077Y-2934992D01*
X21292653Y-2937788D01*
X21281319Y-2937811D01*
X21265339Y-2942905D01*
X20857549Y-2942905D01*
X20892833Y-2906366D01*
X20937960Y-2860068D01*
X20991142Y-2805875D01*
X21053040Y-2743115D01*
X21124313Y-2671116D01*
X21205622Y-2589208D01*
X21297626Y-2496717D01*
X21400985Y-2392974D01*
X21516360Y-2277306D01*
X21644411Y-2149041D01*
X21785797Y-2007508D01*
X21941178Y-1852036D01*
X22111216Y-1681953D01*
X22296569Y-1496588D01*
X23846244Y53087D01*
X23900524Y53087D01*
X23936476Y50705D01*
X23963840Y40030D01*
X23991524Y16368D01*
X24028243Y-20352D01*
X23966061Y-82534D01*
X23932149Y-119186D01*
X23867344Y-210539D01*
X23821774Y-308461D01*
X23794894Y-410508D01*
X23786166Y-514240D01*
X23795047Y-617211D01*
X23820994Y-716982D01*
X23863468Y-811108D01*
X23921925Y-897149D01*
X23995826Y-972660D01*
X24084626Y-1035201D01*
X24187785Y-1082327D01*
X24297284Y-1109988D01*
X24410354Y-1117231D01*
X24521222Y-1103550D01*
X24627219Y-1069541D01*
X24725677Y-1015797D01*
X24813926Y-942912D01*
X24882365Y-874474D01*
X26028128Y-2020236D01*
X26177420Y-2169547D01*
X26321721Y-2313919D01*
X26451522Y-2443861D01*
X26567589Y-2560157D01*
X26670686Y-2663589D01*
X26761578Y-2754939D01*
X26841033Y-2834992D01*
X26909814Y-2904528D01*
X26968686Y-2964331D01*
X27018417Y-3015184D01*
X27059768Y-3057869D01*
X27093507Y-3093169D01*
X27120400Y-3121867D01*
X27141210Y-3144745D01*
X27156704Y-3162587D01*
X27167646Y-3176175D01*
X27174801Y-3186291D01*
X27178936Y-3193719D01*
X27180815Y-3199241D01*
X27182531Y-3206004D01*
X27184824Y-3213293D01*
X27186725Y-3220158D01*
X27187586Y-3227285D01*
X27186760Y-3235353D01*
X27183598Y-3245051D01*
X27177452Y-3257061D01*
X27167676Y-3272066D01*
X27153621Y-3290752D01*
X27134639Y-3313801D01*
X27110083Y-3341898D01*
X27079305Y-3375727D01*
X27041657Y-3415971D01*
X26996491Y-3463315D01*
X26943160Y-3518442D01*
X26881015Y-3582037D01*
X26809409Y-3654783D01*
X26805012Y-3659226D01*
X26727694Y-3737365D01*
G36*
X19600387Y-190387D02*
G01*
X19576070Y-214006D01*
X19520584Y-264359D01*
X19471222Y-302959D01*
X19422490Y-334248D01*
X19301952Y-392030D01*
X19176429Y-428581D01*
X19048407Y-443237D01*
X18919109Y-436065D01*
X18789761Y-407138D01*
X18661585Y-356522D01*
X18535804Y-284286D01*
X18506146Y-262708D01*
X18446073Y-211067D01*
X18383391Y-148855D01*
X18323443Y-81854D01*
X18271569Y-15849D01*
X18233115Y43378D01*
X18193351Y125892D01*
X18154312Y242277D01*
X18133229Y358839D01*
X18125379Y438796D01*
X18055143Y373174D01*
X17984907Y307551D01*
X17685876Y606581D01*
X17678166Y614296D01*
X17611570Y681325D01*
X17605013Y687999D01*
X18511644Y687999D01*
X18514605Y624748D01*
X18532157Y556527D01*
X18536021Y545340D01*
X18551495Y505973D01*
X18569068Y474026D01*
X18593544Y441890D01*
X18629724Y401959D01*
X18642241Y388869D01*
X18697541Y337589D01*
X18748914Y303074D01*
X18801446Y282479D01*
X18860221Y272956D01*
X18866917Y272500D01*
X18940532Y277569D01*
X19005596Y302771D01*
X19065236Y349269D01*
X19110743Y405003D01*
X19137842Y467068D01*
X19147275Y539499D01*
X19141632Y611539D01*
X19118596Y690928D01*
X19076979Y771716D01*
X19015812Y855747D01*
X18934126Y944863D01*
X18927831Y951137D01*
X18888130Y989709D01*
X18853654Y1021593D01*
X18827911Y1043626D01*
X18814414Y1052650D01*
X18806952Y1050966D01*
X18788211Y1038406D01*
X18758455Y1012847D01*
X18716282Y973065D01*
X18660291Y917832D01*
X18521786Y779327D01*
X18513413Y707781D01*
X18511644Y687999D01*
X17605013Y687999D01*
X17550786Y743189D01*
X17497521Y798102D01*
X17453479Y844278D01*
X17420365Y879930D01*
X17399888Y903273D01*
X17393751Y912519D01*
X17394092Y912828D01*
X17410064Y918850D01*
X17437400Y923813D01*
X17444283Y924615D01*
X17462013Y926728D01*
X17478244Y929476D01*
X17494235Y933941D01*
X17511246Y941206D01*
X17530536Y952352D01*
X17553367Y968464D01*
X17580997Y990622D01*
X17614687Y1019910D01*
X17655696Y1057410D01*
X17705284Y1104205D01*
X17764710Y1161377D01*
X17835236Y1230008D01*
X17918121Y1311182D01*
X18014624Y1405981D01*
X18126005Y1515486D01*
X18227842Y1615551D01*
X18331428Y1717125D01*
X18421542Y1805082D01*
X18499570Y1880625D01*
X18566900Y1944960D01*
X18624920Y1999290D01*
X18675017Y2044819D01*
X18718577Y2082752D01*
X18756989Y2114293D01*
X18791640Y2140644D01*
X18823917Y2163012D01*
X18855208Y2182598D01*
X18886900Y2200609D01*
X18920381Y2218248D01*
X18957038Y2236718D01*
X18998435Y2256232D01*
X19093982Y2291103D01*
X19188390Y2309510D01*
X19289488Y2313253D01*
X19389310Y2303319D01*
X19506871Y2272987D01*
X19624962Y2222103D01*
X19744391Y2150241D01*
X19865966Y2056971D01*
X19990494Y1941866D01*
X20031238Y1900560D01*
X20076111Y1852790D01*
X20116364Y1806359D01*
X20154599Y1757756D01*
X20193420Y1703472D01*
X20235429Y1639998D01*
X20283231Y1563824D01*
X20339427Y1471441D01*
X20354656Y1446280D01*
X20395168Y1380375D01*
X20433557Y1319296D01*
X20467477Y1266697D01*
X20494589Y1226227D01*
X20512549Y1201539D01*
X20529939Y1178946D01*
X20544788Y1156634D01*
X20548496Y1146201D01*
X20540049Y1142148D01*
X20513145Y1130458D01*
X20470602Y1112423D01*
X20415266Y1089244D01*
X20349982Y1062114D01*
X20277592Y1032231D01*
X20261762Y1025731D01*
X20170411Y988948D01*
X20099083Y961658D01*
X20047437Y943742D01*
X20015131Y935080D01*
X20001821Y935551D01*
X19997833Y942434D01*
X19986020Y967887D01*
X19969853Y1006073D01*
X19951620Y1051706D01*
X19911649Y1145419D01*
X19843923Y1271176D01*
X19761882Y1388810D01*
X19737859Y1418491D01*
X19666377Y1493034D01*
X19595467Y1545311D01*
X19524080Y1575497D01*
X19451171Y1583762D01*
X19375694Y1570277D01*
X19296601Y1535214D01*
X19212848Y1478744D01*
X19165897Y1442286D01*
X19285161Y1332609D01*
X19375806Y1244272D01*
X19478389Y1132664D01*
X19573044Y1017386D01*
X19653709Y905460D01*
X19688872Y849170D01*
X19752034Y725310D01*
X19798472Y598829D01*
X19827637Y472540D01*
X19838983Y349255D01*
X19831962Y231788D01*
X19806026Y122953D01*
X19785962Y68954D01*
X19754080Y815D01*
X19715206Y-61034D01*
X19665315Y-122725D01*
X19602593Y-188089D01*
X19600387Y-190387D01*
G37*
X19600387Y-190387D02*
X19576070Y-214006D01*
X19520584Y-264359D01*
X19471222Y-302959D01*
X19422490Y-334248D01*
X19301952Y-392030D01*
X19176429Y-428581D01*
X19048407Y-443237D01*
X18919109Y-436065D01*
X18789761Y-407138D01*
X18661585Y-356522D01*
X18535804Y-284286D01*
X18506146Y-262708D01*
X18446073Y-211067D01*
X18383391Y-148855D01*
X18323443Y-81854D01*
X18271569Y-15849D01*
X18233115Y43378D01*
X18193351Y125892D01*
X18154312Y242277D01*
X18133229Y358839D01*
X18125379Y438796D01*
X18055143Y373174D01*
X17984907Y307551D01*
X17685876Y606581D01*
X17678166Y614296D01*
X17611570Y681325D01*
X17605013Y687999D01*
X18511644Y687999D01*
X18514605Y624748D01*
X18532157Y556527D01*
X18536021Y545340D01*
X18551495Y505973D01*
X18569068Y474026D01*
X18593544Y441890D01*
X18629724Y401959D01*
X18642241Y388869D01*
X18697541Y337589D01*
X18748914Y303074D01*
X18801446Y282479D01*
X18860221Y272956D01*
X18866917Y272500D01*
X18940532Y277569D01*
X19005596Y302771D01*
X19065236Y349269D01*
X19110743Y405003D01*
X19137842Y467068D01*
X19147275Y539499D01*
X19141632Y611539D01*
X19118596Y690928D01*
X19076979Y771716D01*
X19015812Y855747D01*
X18934126Y944863D01*
X18927831Y951137D01*
X18888130Y989709D01*
X18853654Y1021593D01*
X18827911Y1043626D01*
X18814414Y1052650D01*
X18806952Y1050966D01*
X18788211Y1038406D01*
X18758455Y1012847D01*
X18716282Y973065D01*
X18660291Y917832D01*
X18521786Y779327D01*
X18513413Y707781D01*
X18511644Y687999D01*
X17605013Y687999D01*
X17550786Y743189D01*
X17497521Y798102D01*
X17453479Y844278D01*
X17420365Y879930D01*
X17399888Y903273D01*
X17393751Y912519D01*
X17394092Y912828D01*
X17410064Y918850D01*
X17437400Y923813D01*
X17444283Y924615D01*
X17462013Y926728D01*
X17478244Y929476D01*
X17494235Y933941D01*
X17511246Y941206D01*
X17530536Y952352D01*
X17553367Y968464D01*
X17580997Y990622D01*
X17614687Y1019910D01*
X17655696Y1057410D01*
X17705284Y1104205D01*
X17764710Y1161377D01*
X17835236Y1230008D01*
X17918121Y1311182D01*
X18014624Y1405981D01*
X18126005Y1515486D01*
X18227842Y1615551D01*
X18331428Y1717125D01*
X18421542Y1805082D01*
X18499570Y1880625D01*
X18566900Y1944960D01*
X18624920Y1999290D01*
X18675017Y2044819D01*
X18718577Y2082752D01*
X18756989Y2114293D01*
X18791640Y2140644D01*
X18823917Y2163012D01*
X18855208Y2182598D01*
X18886900Y2200609D01*
X18920381Y2218248D01*
X18957038Y2236718D01*
X18998435Y2256232D01*
X19093982Y2291103D01*
X19188390Y2309510D01*
X19289488Y2313253D01*
X19389310Y2303319D01*
X19506871Y2272987D01*
X19624962Y2222103D01*
X19744391Y2150241D01*
X19865966Y2056971D01*
X19990494Y1941866D01*
X20031238Y1900560D01*
X20076111Y1852790D01*
X20116364Y1806359D01*
X20154599Y1757756D01*
X20193420Y1703472D01*
X20235429Y1639998D01*
X20283231Y1563824D01*
X20339427Y1471441D01*
X20354656Y1446280D01*
X20395168Y1380375D01*
X20433557Y1319296D01*
X20467477Y1266697D01*
X20494589Y1226227D01*
X20512549Y1201539D01*
X20529939Y1178946D01*
X20544788Y1156634D01*
X20548496Y1146201D01*
X20540049Y1142148D01*
X20513145Y1130458D01*
X20470602Y1112423D01*
X20415266Y1089244D01*
X20349982Y1062114D01*
X20277592Y1032231D01*
X20261762Y1025731D01*
X20170411Y988948D01*
X20099083Y961658D01*
X20047437Y943742D01*
X20015131Y935080D01*
X20001821Y935551D01*
X19997833Y942434D01*
X19986020Y967887D01*
X19969853Y1006073D01*
X19951620Y1051706D01*
X19911649Y1145419D01*
X19843923Y1271176D01*
X19761882Y1388810D01*
X19737859Y1418491D01*
X19666377Y1493034D01*
X19595467Y1545311D01*
X19524080Y1575497D01*
X19451171Y1583762D01*
X19375694Y1570277D01*
X19296601Y1535214D01*
X19212848Y1478744D01*
X19165897Y1442286D01*
X19285161Y1332609D01*
X19375806Y1244272D01*
X19478389Y1132664D01*
X19573044Y1017386D01*
X19653709Y905460D01*
X19688872Y849170D01*
X19752034Y725310D01*
X19798472Y598829D01*
X19827637Y472540D01*
X19838983Y349255D01*
X19831962Y231788D01*
X19806026Y122953D01*
X19785962Y68954D01*
X19754080Y815D01*
X19715206Y-61034D01*
X19665315Y-122725D01*
X19602593Y-188089D01*
X19600387Y-190387D01*
G36*
X18086468Y1890287D02*
G01*
X18031191Y1836037D01*
X17918044Y1735022D01*
X17808057Y1651701D01*
X17697756Y1583821D01*
X17583664Y1529128D01*
X17462308Y1485366D01*
X17336726Y1454256D01*
X17192219Y1438165D01*
X17051415Y1443951D01*
X16915167Y1471499D01*
X16784335Y1520698D01*
X16659772Y1591434D01*
X16629011Y1613982D01*
X16569068Y1665821D01*
X16506624Y1728001D01*
X16446980Y1794778D01*
X16395438Y1860407D01*
X16357303Y1919141D01*
X16342310Y1947779D01*
X16309031Y2023825D01*
X16281068Y2104829D01*
X16260932Y2182952D01*
X16251139Y2250353D01*
X16248788Y2280104D01*
X16245343Y2308782D01*
X16242134Y2321727D01*
X16240092Y2321441D01*
X16225533Y2310854D01*
X16200701Y2288783D01*
X16169522Y2258638D01*
X16101671Y2190787D01*
X15629456Y2663002D01*
X16637745Y2663002D01*
X16654848Y2580324D01*
X16666840Y2534813D01*
X16686838Y2478260D01*
X16708725Y2430649D01*
X16742492Y2374647D01*
X16802720Y2298877D01*
X16868301Y2244859D01*
X16939633Y2212502D01*
X17017119Y2201715D01*
X17101158Y2212406D01*
X17192150Y2244485D01*
X17290498Y2297858D01*
X17301051Y2304758D01*
X17350331Y2342081D01*
X17408839Y2392580D01*
X17472905Y2452527D01*
X17538860Y2518189D01*
X17603038Y2585836D01*
X17661768Y2651735D01*
X17711382Y2712156D01*
X17748211Y2763369D01*
X17751453Y2768423D01*
X17809085Y2867125D01*
X17848705Y2955557D01*
X17870956Y3036009D01*
X17876482Y3110771D01*
X17865926Y3182134D01*
X17854340Y3215737D01*
X17816197Y3280600D01*
X17760983Y3340419D01*
X17692360Y3392180D01*
X17613986Y3432863D01*
X17529524Y3459452D01*
X17451053Y3476310D01*
X16637745Y2663002D01*
X15629456Y2663002D01*
X15494868Y2797590D01*
X15562029Y2816293D01*
X15572140Y2819059D01*
X15588389Y2823485D01*
X15603697Y2828083D01*
X15618870Y2833605D01*
X15634713Y2840800D01*
X15652035Y2850421D01*
X15671640Y2863218D01*
X15694334Y2879942D01*
X15720924Y2901344D01*
X15752216Y2928175D01*
X15789016Y2961185D01*
X15832130Y3001127D01*
X15882364Y3048751D01*
X15940525Y3104808D01*
X16007417Y3170048D01*
X16083849Y3245223D01*
X16170624Y3331083D01*
X16268551Y3428381D01*
X16378434Y3537866D01*
X16501081Y3660290D01*
X16637296Y3796402D01*
X16787887Y3946956D01*
X16953658Y4112700D01*
X18145178Y5303942D01*
X18785341Y4663779D01*
X18742122Y4655112D01*
X18730917Y4652769D01*
X18679691Y4638469D01*
X18633828Y4617693D01*
X18586657Y4586871D01*
X18531507Y4542437D01*
X18526222Y4537847D01*
X18498102Y4512240D01*
X18458820Y4475247D01*
X18410332Y4428802D01*
X18354593Y4374844D01*
X18293558Y4315307D01*
X18229178Y4252131D01*
X18163410Y4187249D01*
X18098209Y4122600D01*
X18035528Y4060120D01*
X17977322Y4001745D01*
X17925545Y3949412D01*
X17882152Y3905058D01*
X17849097Y3870619D01*
X17828335Y3848032D01*
X17821820Y3839232D01*
X17830736Y3836538D01*
X17856660Y3831787D01*
X17892921Y3826517D01*
X17951665Y3816156D01*
X18046960Y3786653D01*
X18140623Y3740604D01*
X18235665Y3676413D01*
X18335098Y3592488D01*
X18401249Y3527816D01*
X18480124Y3435089D01*
X18540884Y3340161D01*
X18585912Y3239115D01*
X18617592Y3128031D01*
X18627643Y3074209D01*
X18637667Y2935164D01*
X18625389Y2793305D01*
X18590863Y2648763D01*
X18534146Y2501665D01*
X18455294Y2352140D01*
X18354360Y2200316D01*
X18231400Y2046322D01*
X18125135Y1931915D01*
X18086468Y1890287D01*
G37*
X18086468Y1890287D02*
X18031191Y1836037D01*
X17918044Y1735022D01*
X17808057Y1651701D01*
X17697756Y1583821D01*
X17583664Y1529128D01*
X17462308Y1485366D01*
X17336726Y1454256D01*
X17192219Y1438165D01*
X17051415Y1443951D01*
X16915167Y1471499D01*
X16784335Y1520698D01*
X16659772Y1591434D01*
X16629011Y1613982D01*
X16569068Y1665821D01*
X16506624Y1728001D01*
X16446980Y1794778D01*
X16395438Y1860407D01*
X16357303Y1919141D01*
X16342310Y1947779D01*
X16309031Y2023825D01*
X16281068Y2104829D01*
X16260932Y2182952D01*
X16251139Y2250353D01*
X16248788Y2280104D01*
X16245343Y2308782D01*
X16242134Y2321727D01*
X16240092Y2321441D01*
X16225533Y2310854D01*
X16200701Y2288783D01*
X16169522Y2258638D01*
X16101671Y2190787D01*
X15629456Y2663002D01*
X16637745Y2663002D01*
X16654848Y2580324D01*
X16666840Y2534813D01*
X16686838Y2478260D01*
X16708725Y2430649D01*
X16742492Y2374647D01*
X16802720Y2298877D01*
X16868301Y2244859D01*
X16939633Y2212502D01*
X17017119Y2201715D01*
X17101158Y2212406D01*
X17192150Y2244485D01*
X17290498Y2297858D01*
X17301051Y2304758D01*
X17350331Y2342081D01*
X17408839Y2392580D01*
X17472905Y2452527D01*
X17538860Y2518189D01*
X17603038Y2585836D01*
X17661768Y2651735D01*
X17711382Y2712156D01*
X17748211Y2763369D01*
X17751453Y2768423D01*
X17809085Y2867125D01*
X17848705Y2955557D01*
X17870956Y3036009D01*
X17876482Y3110771D01*
X17865926Y3182134D01*
X17854340Y3215737D01*
X17816197Y3280600D01*
X17760983Y3340419D01*
X17692360Y3392180D01*
X17613986Y3432863D01*
X17529524Y3459452D01*
X17451053Y3476310D01*
X16637745Y2663002D01*
X15629456Y2663002D01*
X15494868Y2797590D01*
X15562029Y2816293D01*
X15572140Y2819059D01*
X15588389Y2823485D01*
X15603697Y2828083D01*
X15618870Y2833605D01*
X15634713Y2840800D01*
X15652035Y2850421D01*
X15671640Y2863218D01*
X15694334Y2879942D01*
X15720924Y2901344D01*
X15752216Y2928175D01*
X15789016Y2961185D01*
X15832130Y3001127D01*
X15882364Y3048751D01*
X15940525Y3104808D01*
X16007417Y3170048D01*
X16083849Y3245223D01*
X16170624Y3331083D01*
X16268551Y3428381D01*
X16378434Y3537866D01*
X16501081Y3660290D01*
X16637296Y3796402D01*
X16787887Y3946956D01*
X16953658Y4112700D01*
X18145178Y5303942D01*
X18785341Y4663779D01*
X18742122Y4655112D01*
X18730917Y4652769D01*
X18679691Y4638469D01*
X18633828Y4617693D01*
X18586657Y4586871D01*
X18531507Y4542437D01*
X18526222Y4537847D01*
X18498102Y4512240D01*
X18458820Y4475247D01*
X18410332Y4428802D01*
X18354593Y4374844D01*
X18293558Y4315307D01*
X18229178Y4252131D01*
X18163410Y4187249D01*
X18098209Y4122600D01*
X18035528Y4060120D01*
X17977322Y4001745D01*
X17925545Y3949412D01*
X17882152Y3905058D01*
X17849097Y3870619D01*
X17828335Y3848032D01*
X17821820Y3839232D01*
X17830736Y3836538D01*
X17856660Y3831787D01*
X17892921Y3826517D01*
X17951665Y3816156D01*
X18046960Y3786653D01*
X18140623Y3740604D01*
X18235665Y3676413D01*
X18335098Y3592488D01*
X18401249Y3527816D01*
X18480124Y3435089D01*
X18540884Y3340161D01*
X18585912Y3239115D01*
X18617592Y3128031D01*
X18627643Y3074209D01*
X18637667Y2935164D01*
X18625389Y2793305D01*
X18590863Y2648763D01*
X18534146Y2501665D01*
X18455294Y2352140D01*
X18354360Y2200316D01*
X18231400Y2046322D01*
X18125135Y1931915D01*
X18086468Y1890287D01*
%TD*%
%LPC*%
D14*
%TO.C,J4*%
X25400000Y-32385000D03*
X25400000Y-34925000D03*
X25400000Y-37465000D03*
D15*
X25400000Y-40005000D03*
%TD*%
%TO.C,J3*%
X-10160000Y-32395000D03*
D14*
X-10160000Y-34935000D03*
X-10160000Y-37475000D03*
X-10160000Y-40015000D03*
%TD*%
D16*
%TO.C,J1*%
X-10160000Y-8890000D03*
D17*
X-7620000Y-8890000D03*
X-10160000Y-11430000D03*
X-7620000Y-11430000D03*
X-10160000Y-13970000D03*
X-7620000Y-13970000D03*
X-10160000Y-16510000D03*
X-7620000Y-16510000D03*
X-10160000Y-19050000D03*
X-7620000Y-19050000D03*
X-10160000Y-21590000D03*
X-7620000Y-21590000D03*
X-10160000Y-24130000D03*
X-7620000Y-24130000D03*
%TD*%
D18*
%TO.C,J2*%
X25400000Y-24130000D03*
D17*
X22860000Y-24130000D03*
X25400000Y-21590000D03*
X22860000Y-21590000D03*
X25400000Y-19050000D03*
X22860000Y-19050000D03*
X25400000Y-16510000D03*
X22860000Y-16510000D03*
X25400000Y-13970000D03*
X22860000Y-13970000D03*
X25400000Y-11430000D03*
X22860000Y-11430000D03*
X25400000Y-8890000D03*
X22860000Y-8890000D03*
%TD*%
D19*
%TO.C,SW1*%
X-10945000Y3230000D03*
X-10945000Y-1270000D03*
X-4445000Y3230000D03*
X-4445000Y-1270000D03*
%TD*%
D15*
%TO.C,U1*%
X15240000Y0D03*
D17*
X15240000Y-2540000D03*
X15240000Y-5080000D03*
X15240000Y-7620000D03*
X15240000Y-10160000D03*
X15240000Y-12700000D03*
X15240000Y-15240000D03*
X15240000Y-17780000D03*
X15240000Y-20320000D03*
X15240000Y-22860000D03*
X15240000Y-25400000D03*
X15240000Y-27940000D03*
X0Y-27940000D03*
X0Y-25400000D03*
X0Y-22860000D03*
X0Y-20320000D03*
X0Y-17780000D03*
X0Y-15240000D03*
X0Y-12700000D03*
X0Y-10160000D03*
X0Y-7620000D03*
X0Y-5080000D03*
X0Y-2540000D03*
X0Y0D03*
%TD*%
M02*
