%TF.GenerationSoftware,KiCad,Pcbnew,(6.0.4-0)*%
%TF.CreationDate,2022-03-28T14:36:41+08:00*%
%TF.ProjectId,Pragmatic,50726167-6d61-4746-9963-2e6b69636164,3*%
%TF.SameCoordinates,Original*%
%TF.FileFunction,Legend,Bot*%
%TF.FilePolarity,Positive*%
%FSLAX46Y46*%
G04 Gerber Fmt 4.6, Leading zero omitted, Abs format (unit mm)*
G04 Created by KiCad (PCBNEW (6.0.4-0)) date 2022-03-28 14:36:41*
%MOMM*%
%LPD*%
G01*
G04 APERTURE LIST*
G04 Aperture macros list*
%AMRoundRect*
0 Rectangle with rounded corners*
0 $1 Rounding radius*
0 $2 $3 $4 $5 $6 $7 $8 $9 X,Y pos of 4 corners*
0 Add a 4 corners polygon primitive as box body*
4,1,4,$2,$3,$4,$5,$6,$7,$8,$9,$2,$3,0*
0 Add four circle primitives for the rounded corners*
1,1,$1+$1,$2,$3*
1,1,$1+$1,$4,$5*
1,1,$1+$1,$6,$7*
1,1,$1+$1,$8,$9*
0 Add four rect primitives between the rounded corners*
20,1,$1+$1,$2,$3,$4,$5,0*
20,1,$1+$1,$4,$5,$6,$7,0*
20,1,$1+$1,$6,$7,$8,$9,0*
20,1,$1+$1,$8,$9,$2,$3,0*%
G04 Aperture macros list end*
%ADD10C,0.150000*%
%ADD11C,0.120000*%
%ADD12C,1.900000*%
%ADD13C,3.000000*%
%ADD14C,1.701800*%
%ADD15C,4.000000*%
%ADD16C,2.032000*%
%ADD17R,2.550000X2.500000*%
%ADD18C,2.500000*%
%ADD19RoundRect,0.250000X0.600000X-0.600000X0.600000X0.600000X-0.600000X0.600000X-0.600000X-0.600000X0*%
%ADD20C,1.700000*%
%ADD21R,1.400000X1.000000*%
%ADD22RoundRect,0.250000X0.325000X0.450000X-0.325000X0.450000X-0.325000X-0.450000X0.325000X-0.450000X0*%
%ADD23RoundRect,0.250000X0.350000X0.450000X-0.350000X0.450000X-0.350000X-0.450000X0.350000X-0.450000X0*%
G04 APERTURE END LIST*
D10*
X113703571Y-97378571D02*
X113370238Y-97378571D01*
X113227380Y-97902380D02*
X113703571Y-97902380D01*
X113703571Y-96902380D01*
X113227380Y-96902380D01*
X112798809Y-97902380D02*
X112798809Y-97235714D01*
X112798809Y-97426190D02*
X112751190Y-97330952D01*
X112703571Y-97283333D01*
X112608333Y-97235714D01*
X112513095Y-97235714D01*
X111751190Y-97235714D02*
X111751190Y-98045238D01*
X111798809Y-98140476D01*
X111846428Y-98188095D01*
X111941666Y-98235714D01*
X112084523Y-98235714D01*
X112179761Y-98188095D01*
X111751190Y-97854761D02*
X111846428Y-97902380D01*
X112036904Y-97902380D01*
X112132142Y-97854761D01*
X112179761Y-97807142D01*
X112227380Y-97711904D01*
X112227380Y-97426190D01*
X112179761Y-97330952D01*
X112132142Y-97283333D01*
X112036904Y-97235714D01*
X111846428Y-97235714D01*
X111751190Y-97283333D01*
X111132142Y-97902380D02*
X111227380Y-97854761D01*
X111275000Y-97807142D01*
X111322619Y-97711904D01*
X111322619Y-97426190D01*
X111275000Y-97330952D01*
X111227380Y-97283333D01*
X111132142Y-97235714D01*
X110989285Y-97235714D01*
X110894047Y-97283333D01*
X110846428Y-97330952D01*
X110798809Y-97426190D01*
X110798809Y-97711904D01*
X110846428Y-97807142D01*
X110894047Y-97854761D01*
X110989285Y-97902380D01*
X111132142Y-97902380D01*
X109608333Y-97902380D02*
X109608333Y-97235714D01*
X109608333Y-96902380D02*
X109655952Y-96950000D01*
X109608333Y-96997619D01*
X109560714Y-96950000D01*
X109608333Y-96902380D01*
X109608333Y-96997619D01*
X109132142Y-97235714D02*
X109132142Y-97902380D01*
X109132142Y-97330952D02*
X109084523Y-97283333D01*
X108989285Y-97235714D01*
X108846428Y-97235714D01*
X108751190Y-97283333D01*
X108703571Y-97378571D01*
X108703571Y-97902380D01*
X108227380Y-97235714D02*
X108227380Y-98235714D01*
X108227380Y-97283333D02*
X108132142Y-97235714D01*
X107941666Y-97235714D01*
X107846428Y-97283333D01*
X107798809Y-97330952D01*
X107751190Y-97426190D01*
X107751190Y-97711904D01*
X107798809Y-97807142D01*
X107846428Y-97854761D01*
X107941666Y-97902380D01*
X108132142Y-97902380D01*
X108227380Y-97854761D01*
X106894047Y-97235714D02*
X106894047Y-97902380D01*
X107322619Y-97235714D02*
X107322619Y-97759523D01*
X107275000Y-97854761D01*
X107179761Y-97902380D01*
X107036904Y-97902380D01*
X106941666Y-97854761D01*
X106894047Y-97807142D01*
X106560714Y-97235714D02*
X106179761Y-97235714D01*
X106417857Y-96902380D02*
X106417857Y-97759523D01*
X106370238Y-97854761D01*
X106275000Y-97902380D01*
X106179761Y-97902380D01*
X105084523Y-97902380D02*
X105084523Y-96902380D01*
X105084523Y-97283333D02*
X104989285Y-97235714D01*
X104798809Y-97235714D01*
X104703571Y-97283333D01*
X104655952Y-97330952D01*
X104608333Y-97426190D01*
X104608333Y-97711904D01*
X104655952Y-97807142D01*
X104703571Y-97854761D01*
X104798809Y-97902380D01*
X104989285Y-97902380D01*
X105084523Y-97854761D01*
X104275000Y-97235714D02*
X104036904Y-97902380D01*
X103798809Y-97235714D02*
X104036904Y-97902380D01*
X104132142Y-98140476D01*
X104179761Y-98188095D01*
X104275000Y-98235714D01*
X102370238Y-96902380D02*
X102370238Y-97616666D01*
X102417857Y-97759523D01*
X102513095Y-97854761D01*
X102655952Y-97902380D01*
X102751190Y-97902380D01*
X101465476Y-97902380D02*
X101465476Y-97378571D01*
X101513095Y-97283333D01*
X101608333Y-97235714D01*
X101798809Y-97235714D01*
X101894047Y-97283333D01*
X101465476Y-97854761D02*
X101560714Y-97902380D01*
X101798809Y-97902380D01*
X101894047Y-97854761D01*
X101941666Y-97759523D01*
X101941666Y-97664285D01*
X101894047Y-97569047D01*
X101798809Y-97521428D01*
X101560714Y-97521428D01*
X101465476Y-97473809D01*
X100989285Y-97902380D02*
X100989285Y-97235714D01*
X100989285Y-97330952D02*
X100941666Y-97283333D01*
X100846428Y-97235714D01*
X100703571Y-97235714D01*
X100608333Y-97283333D01*
X100560714Y-97378571D01*
X100560714Y-97902380D01*
X100560714Y-97378571D02*
X100513095Y-97283333D01*
X100417857Y-97235714D01*
X100275000Y-97235714D01*
X100179761Y-97283333D01*
X100132142Y-97378571D01*
X100132142Y-97902380D01*
X99275000Y-97854761D02*
X99370238Y-97902380D01*
X99560714Y-97902380D01*
X99655952Y-97854761D01*
X99703571Y-97759523D01*
X99703571Y-97378571D01*
X99655952Y-97283333D01*
X99560714Y-97235714D01*
X99370238Y-97235714D01*
X99275000Y-97283333D01*
X99227380Y-97378571D01*
X99227380Y-97473809D01*
X99703571Y-97569047D01*
X98846428Y-97854761D02*
X98751190Y-97902380D01*
X98560714Y-97902380D01*
X98465476Y-97854761D01*
X98417857Y-97759523D01*
X98417857Y-97711904D01*
X98465476Y-97616666D01*
X98560714Y-97569047D01*
X98703571Y-97569047D01*
X98798809Y-97521428D01*
X98846428Y-97426190D01*
X98846428Y-97378571D01*
X98798809Y-97283333D01*
X98703571Y-97235714D01*
X98560714Y-97235714D01*
X98465476Y-97283333D01*
X97275000Y-97854761D02*
X97132142Y-97902380D01*
X96894047Y-97902380D01*
X96798809Y-97854761D01*
X96751190Y-97807142D01*
X96703571Y-97711904D01*
X96703571Y-97616666D01*
X96751190Y-97521428D01*
X96798809Y-97473809D01*
X96894047Y-97426190D01*
X97084523Y-97378571D01*
X97179761Y-97330952D01*
X97227380Y-97283333D01*
X97275000Y-97188095D01*
X97275000Y-97092857D01*
X97227380Y-96997619D01*
X97179761Y-96950000D01*
X97084523Y-96902380D01*
X96846428Y-96902380D01*
X96703571Y-96950000D01*
X95846428Y-97902380D02*
X95846428Y-97378571D01*
X95894047Y-97283333D01*
X95989285Y-97235714D01*
X96179761Y-97235714D01*
X96275000Y-97283333D01*
X95846428Y-97854761D02*
X95941666Y-97902380D01*
X96179761Y-97902380D01*
X96275000Y-97854761D01*
X96322619Y-97759523D01*
X96322619Y-97664285D01*
X96275000Y-97569047D01*
X96179761Y-97521428D01*
X95941666Y-97521428D01*
X95846428Y-97473809D01*
X112346428Y-99512380D02*
X112346428Y-98512380D01*
X111917857Y-99512380D02*
X111917857Y-98988571D01*
X111965476Y-98893333D01*
X112060714Y-98845714D01*
X112203571Y-98845714D01*
X112298809Y-98893333D01*
X112346428Y-98940952D01*
X111584523Y-98845714D02*
X111203571Y-98845714D01*
X111441666Y-98512380D02*
X111441666Y-99369523D01*
X111394047Y-99464761D01*
X111298809Y-99512380D01*
X111203571Y-99512380D01*
X111013095Y-98845714D02*
X110632142Y-98845714D01*
X110870238Y-98512380D02*
X110870238Y-99369523D01*
X110822619Y-99464761D01*
X110727380Y-99512380D01*
X110632142Y-99512380D01*
X110298809Y-98845714D02*
X110298809Y-99845714D01*
X110298809Y-98893333D02*
X110203571Y-98845714D01*
X110013095Y-98845714D01*
X109917857Y-98893333D01*
X109870238Y-98940952D01*
X109822619Y-99036190D01*
X109822619Y-99321904D01*
X109870238Y-99417142D01*
X109917857Y-99464761D01*
X110013095Y-99512380D01*
X110203571Y-99512380D01*
X110298809Y-99464761D01*
X109441666Y-99464761D02*
X109346428Y-99512380D01*
X109155952Y-99512380D01*
X109060714Y-99464761D01*
X109013095Y-99369523D01*
X109013095Y-99321904D01*
X109060714Y-99226666D01*
X109155952Y-99179047D01*
X109298809Y-99179047D01*
X109394047Y-99131428D01*
X109441666Y-99036190D01*
X109441666Y-98988571D01*
X109394047Y-98893333D01*
X109298809Y-98845714D01*
X109155952Y-98845714D01*
X109060714Y-98893333D01*
X108584523Y-99417142D02*
X108536904Y-99464761D01*
X108584523Y-99512380D01*
X108632142Y-99464761D01*
X108584523Y-99417142D01*
X108584523Y-99512380D01*
X108584523Y-98893333D02*
X108536904Y-98940952D01*
X108584523Y-98988571D01*
X108632142Y-98940952D01*
X108584523Y-98893333D01*
X108584523Y-98988571D01*
X107394047Y-98464761D02*
X108251190Y-99750476D01*
X106346428Y-98464761D02*
X107203571Y-99750476D01*
X105584523Y-98845714D02*
X105584523Y-99655238D01*
X105632142Y-99750476D01*
X105679761Y-99798095D01*
X105775000Y-99845714D01*
X105917857Y-99845714D01*
X106013095Y-99798095D01*
X105584523Y-99464761D02*
X105679761Y-99512380D01*
X105870238Y-99512380D01*
X105965476Y-99464761D01*
X106013095Y-99417142D01*
X106060714Y-99321904D01*
X106060714Y-99036190D01*
X106013095Y-98940952D01*
X105965476Y-98893333D01*
X105870238Y-98845714D01*
X105679761Y-98845714D01*
X105584523Y-98893333D01*
X105108333Y-99512380D02*
X105108333Y-98845714D01*
X105108333Y-98512380D02*
X105155952Y-98560000D01*
X105108333Y-98607619D01*
X105060714Y-98560000D01*
X105108333Y-98512380D01*
X105108333Y-98607619D01*
X104775000Y-98845714D02*
X104394047Y-98845714D01*
X104632142Y-98512380D02*
X104632142Y-99369523D01*
X104584523Y-99464761D01*
X104489285Y-99512380D01*
X104394047Y-99512380D01*
X104060714Y-99512380D02*
X104060714Y-98512380D01*
X103632142Y-99512380D02*
X103632142Y-98988571D01*
X103679761Y-98893333D01*
X103775000Y-98845714D01*
X103917857Y-98845714D01*
X104013095Y-98893333D01*
X104060714Y-98940952D01*
X102727380Y-98845714D02*
X102727380Y-99512380D01*
X103155952Y-98845714D02*
X103155952Y-99369523D01*
X103108333Y-99464761D01*
X103013095Y-99512380D01*
X102870238Y-99512380D01*
X102775000Y-99464761D01*
X102727380Y-99417142D01*
X102251190Y-99512380D02*
X102251190Y-98512380D01*
X102251190Y-98893333D02*
X102155952Y-98845714D01*
X101965476Y-98845714D01*
X101870238Y-98893333D01*
X101822619Y-98940952D01*
X101775000Y-99036190D01*
X101775000Y-99321904D01*
X101822619Y-99417142D01*
X101870238Y-99464761D01*
X101965476Y-99512380D01*
X102155952Y-99512380D01*
X102251190Y-99464761D01*
X101346428Y-99417142D02*
X101298809Y-99464761D01*
X101346428Y-99512380D01*
X101394047Y-99464761D01*
X101346428Y-99417142D01*
X101346428Y-99512380D01*
X100441666Y-99464761D02*
X100536904Y-99512380D01*
X100727380Y-99512380D01*
X100822619Y-99464761D01*
X100870238Y-99417142D01*
X100917857Y-99321904D01*
X100917857Y-99036190D01*
X100870238Y-98940952D01*
X100822619Y-98893333D01*
X100727380Y-98845714D01*
X100536904Y-98845714D01*
X100441666Y-98893333D01*
X99870238Y-99512380D02*
X99965476Y-99464761D01*
X100013095Y-99417142D01*
X100060714Y-99321904D01*
X100060714Y-99036190D01*
X100013095Y-98940952D01*
X99965476Y-98893333D01*
X99870238Y-98845714D01*
X99727380Y-98845714D01*
X99632142Y-98893333D01*
X99584523Y-98940952D01*
X99536904Y-99036190D01*
X99536904Y-99321904D01*
X99584523Y-99417142D01*
X99632142Y-99464761D01*
X99727380Y-99512380D01*
X99870238Y-99512380D01*
X99108333Y-99512380D02*
X99108333Y-98845714D01*
X99108333Y-98940952D02*
X99060714Y-98893333D01*
X98965476Y-98845714D01*
X98822619Y-98845714D01*
X98727380Y-98893333D01*
X98679761Y-98988571D01*
X98679761Y-99512380D01*
X98679761Y-98988571D02*
X98632142Y-98893333D01*
X98536904Y-98845714D01*
X98394047Y-98845714D01*
X98298809Y-98893333D01*
X98251190Y-98988571D01*
X98251190Y-99512380D01*
X97060714Y-98464761D02*
X97917857Y-99750476D01*
X111894047Y-100455714D02*
X111894047Y-101312857D01*
X111941666Y-101408095D01*
X112036904Y-101455714D01*
X112084523Y-101455714D01*
X111894047Y-100122380D02*
X111941666Y-100170000D01*
X111894047Y-100217619D01*
X111846428Y-100170000D01*
X111894047Y-100122380D01*
X111894047Y-100217619D01*
X110989285Y-101122380D02*
X110989285Y-100598571D01*
X111036904Y-100503333D01*
X111132142Y-100455714D01*
X111322619Y-100455714D01*
X111417857Y-100503333D01*
X110989285Y-101074761D02*
X111084523Y-101122380D01*
X111322619Y-101122380D01*
X111417857Y-101074761D01*
X111465476Y-100979523D01*
X111465476Y-100884285D01*
X111417857Y-100789047D01*
X111322619Y-100741428D01*
X111084523Y-100741428D01*
X110989285Y-100693809D01*
X110513095Y-101122380D02*
X110513095Y-100455714D01*
X110513095Y-100550952D02*
X110465476Y-100503333D01*
X110370238Y-100455714D01*
X110227380Y-100455714D01*
X110132142Y-100503333D01*
X110084523Y-100598571D01*
X110084523Y-101122380D01*
X110084523Y-100598571D02*
X110036904Y-100503333D01*
X109941666Y-100455714D01*
X109798809Y-100455714D01*
X109703571Y-100503333D01*
X109655952Y-100598571D01*
X109655952Y-101122380D01*
X108798809Y-101074761D02*
X108894047Y-101122380D01*
X109084523Y-101122380D01*
X109179761Y-101074761D01*
X109227380Y-100979523D01*
X109227380Y-100598571D01*
X109179761Y-100503333D01*
X109084523Y-100455714D01*
X108894047Y-100455714D01*
X108798809Y-100503333D01*
X108751190Y-100598571D01*
X108751190Y-100693809D01*
X109227380Y-100789047D01*
X108370238Y-101074761D02*
X108275000Y-101122380D01*
X108084523Y-101122380D01*
X107989285Y-101074761D01*
X107941666Y-100979523D01*
X107941666Y-100931904D01*
X107989285Y-100836666D01*
X108084523Y-100789047D01*
X108227380Y-100789047D01*
X108322619Y-100741428D01*
X108370238Y-100646190D01*
X108370238Y-100598571D01*
X108322619Y-100503333D01*
X108227380Y-100455714D01*
X108084523Y-100455714D01*
X107989285Y-100503333D01*
X107560714Y-101074761D02*
X107465476Y-101122380D01*
X107275000Y-101122380D01*
X107179761Y-101074761D01*
X107132142Y-100979523D01*
X107132142Y-100931904D01*
X107179761Y-100836666D01*
X107275000Y-100789047D01*
X107417857Y-100789047D01*
X107513095Y-100741428D01*
X107560714Y-100646190D01*
X107560714Y-100598571D01*
X107513095Y-100503333D01*
X107417857Y-100455714D01*
X107275000Y-100455714D01*
X107179761Y-100503333D01*
X106275000Y-101122380D02*
X106275000Y-100598571D01*
X106322619Y-100503333D01*
X106417857Y-100455714D01*
X106608333Y-100455714D01*
X106703571Y-100503333D01*
X106275000Y-101074761D02*
X106370238Y-101122380D01*
X106608333Y-101122380D01*
X106703571Y-101074761D01*
X106751190Y-100979523D01*
X106751190Y-100884285D01*
X106703571Y-100789047D01*
X106608333Y-100741428D01*
X106370238Y-100741428D01*
X106275000Y-100693809D01*
X105084523Y-100074761D02*
X105941666Y-101360476D01*
X104751190Y-101122380D02*
X104751190Y-100122380D01*
X104370238Y-100122380D01*
X104275000Y-100170000D01*
X104227380Y-100217619D01*
X104179761Y-100312857D01*
X104179761Y-100455714D01*
X104227380Y-100550952D01*
X104275000Y-100598571D01*
X104370238Y-100646190D01*
X104751190Y-100646190D01*
X103751190Y-101122380D02*
X103751190Y-100455714D01*
X103751190Y-100646190D02*
X103703571Y-100550952D01*
X103655952Y-100503333D01*
X103560714Y-100455714D01*
X103465476Y-100455714D01*
X102703571Y-101122380D02*
X102703571Y-100598571D01*
X102751190Y-100503333D01*
X102846428Y-100455714D01*
X103036904Y-100455714D01*
X103132142Y-100503333D01*
X102703571Y-101074761D02*
X102798809Y-101122380D01*
X103036904Y-101122380D01*
X103132142Y-101074761D01*
X103179761Y-100979523D01*
X103179761Y-100884285D01*
X103132142Y-100789047D01*
X103036904Y-100741428D01*
X102798809Y-100741428D01*
X102703571Y-100693809D01*
X101798809Y-100455714D02*
X101798809Y-101265238D01*
X101846428Y-101360476D01*
X101894047Y-101408095D01*
X101989285Y-101455714D01*
X102132142Y-101455714D01*
X102227380Y-101408095D01*
X101798809Y-101074761D02*
X101894047Y-101122380D01*
X102084523Y-101122380D01*
X102179761Y-101074761D01*
X102227380Y-101027142D01*
X102275000Y-100931904D01*
X102275000Y-100646190D01*
X102227380Y-100550952D01*
X102179761Y-100503333D01*
X102084523Y-100455714D01*
X101894047Y-100455714D01*
X101798809Y-100503333D01*
X101322619Y-101122380D02*
X101322619Y-100455714D01*
X101322619Y-100550952D02*
X101275000Y-100503333D01*
X101179761Y-100455714D01*
X101036904Y-100455714D01*
X100941666Y-100503333D01*
X100894047Y-100598571D01*
X100894047Y-101122380D01*
X100894047Y-100598571D02*
X100846428Y-100503333D01*
X100751190Y-100455714D01*
X100608333Y-100455714D01*
X100513095Y-100503333D01*
X100465476Y-100598571D01*
X100465476Y-101122380D01*
X99560714Y-101122380D02*
X99560714Y-100598571D01*
X99608333Y-100503333D01*
X99703571Y-100455714D01*
X99894047Y-100455714D01*
X99989285Y-100503333D01*
X99560714Y-101074761D02*
X99655952Y-101122380D01*
X99894047Y-101122380D01*
X99989285Y-101074761D01*
X100036904Y-100979523D01*
X100036904Y-100884285D01*
X99989285Y-100789047D01*
X99894047Y-100741428D01*
X99655952Y-100741428D01*
X99560714Y-100693809D01*
X99227380Y-100455714D02*
X98846428Y-100455714D01*
X99084523Y-100122380D02*
X99084523Y-100979523D01*
X99036904Y-101074761D01*
X98941666Y-101122380D01*
X98846428Y-101122380D01*
X98513095Y-101122380D02*
X98513095Y-100455714D01*
X98513095Y-100122380D02*
X98560714Y-100170000D01*
X98513095Y-100217619D01*
X98465476Y-100170000D01*
X98513095Y-100122380D01*
X98513095Y-100217619D01*
X97608333Y-101074761D02*
X97703571Y-101122380D01*
X97894047Y-101122380D01*
X97989285Y-101074761D01*
X98036904Y-101027142D01*
X98084523Y-100931904D01*
X98084523Y-100646190D01*
X98036904Y-100550952D01*
X97989285Y-100503333D01*
X97894047Y-100455714D01*
X97703571Y-100455714D01*
X97608333Y-100503333D01*
X72865714Y-45172380D02*
X72532380Y-46172380D01*
X72199047Y-45172380D01*
X71960952Y-45172380D02*
X71341904Y-45172380D01*
X71675238Y-45553333D01*
X71532380Y-45553333D01*
X71437142Y-45600952D01*
X71389523Y-45648571D01*
X71341904Y-45743809D01*
X71341904Y-45981904D01*
X71389523Y-46077142D01*
X71437142Y-46124761D01*
X71532380Y-46172380D01*
X71818095Y-46172380D01*
X71913333Y-46124761D01*
X71960952Y-46077142D01*
X70151428Y-46172380D02*
X70151428Y-45172380D01*
X70151428Y-45648571D02*
X69580000Y-45648571D01*
X69580000Y-46172380D02*
X69580000Y-45172380D01*
X68960952Y-46172380D02*
X69056190Y-46124761D01*
X69103809Y-46077142D01*
X69151428Y-45981904D01*
X69151428Y-45696190D01*
X69103809Y-45600952D01*
X69056190Y-45553333D01*
X68960952Y-45505714D01*
X68818095Y-45505714D01*
X68722857Y-45553333D01*
X68675238Y-45600952D01*
X68627619Y-45696190D01*
X68627619Y-45981904D01*
X68675238Y-46077142D01*
X68722857Y-46124761D01*
X68818095Y-46172380D01*
X68960952Y-46172380D01*
X68341904Y-45505714D02*
X67960952Y-45505714D01*
X68199047Y-45172380D02*
X68199047Y-46029523D01*
X68151428Y-46124761D01*
X68056190Y-46172380D01*
X67960952Y-46172380D01*
X67675238Y-46124761D02*
X67580000Y-46172380D01*
X67389523Y-46172380D01*
X67294285Y-46124761D01*
X67246666Y-46029523D01*
X67246666Y-45981904D01*
X67294285Y-45886666D01*
X67389523Y-45839047D01*
X67532380Y-45839047D01*
X67627619Y-45791428D01*
X67675238Y-45696190D01*
X67675238Y-45648571D01*
X67627619Y-45553333D01*
X67532380Y-45505714D01*
X67389523Y-45505714D01*
X67294285Y-45553333D01*
X66913333Y-45505714D02*
X66722857Y-46172380D01*
X66532380Y-45696190D01*
X66341904Y-46172380D01*
X66151428Y-45505714D01*
X65341904Y-46172380D02*
X65341904Y-45648571D01*
X65389523Y-45553333D01*
X65484761Y-45505714D01*
X65675238Y-45505714D01*
X65770476Y-45553333D01*
X65341904Y-46124761D02*
X65437142Y-46172380D01*
X65675238Y-46172380D01*
X65770476Y-46124761D01*
X65818095Y-46029523D01*
X65818095Y-45934285D01*
X65770476Y-45839047D01*
X65675238Y-45791428D01*
X65437142Y-45791428D01*
X65341904Y-45743809D01*
X64865714Y-45505714D02*
X64865714Y-46505714D01*
X64865714Y-45553333D02*
X64770476Y-45505714D01*
X64580000Y-45505714D01*
X64484761Y-45553333D01*
X64437142Y-45600952D01*
X64389523Y-45696190D01*
X64389523Y-45981904D01*
X64437142Y-46077142D01*
X64484761Y-46124761D01*
X64580000Y-46172380D01*
X64770476Y-46172380D01*
X64865714Y-46124761D01*
X87169047Y-45163619D02*
X87169047Y-45889333D01*
X87216666Y-46034476D01*
X87311904Y-46131238D01*
X87454761Y-46179619D01*
X87550000Y-46179619D01*
X86216666Y-46179619D02*
X86692857Y-46179619D01*
X86692857Y-45163619D01*
X85311904Y-46082857D02*
X85359523Y-46131238D01*
X85502380Y-46179619D01*
X85597619Y-46179619D01*
X85740476Y-46131238D01*
X85835714Y-46034476D01*
X85883333Y-45937714D01*
X85930952Y-45744190D01*
X85930952Y-45599047D01*
X85883333Y-45405523D01*
X85835714Y-45308761D01*
X85740476Y-45212000D01*
X85597619Y-45163619D01*
X85502380Y-45163619D01*
X85359523Y-45212000D01*
X85311904Y-45260380D01*
X84597619Y-45163619D02*
X84597619Y-45889333D01*
X84645238Y-46034476D01*
X84740476Y-46131238D01*
X84883333Y-46179619D01*
X84978571Y-46179619D01*
X83645238Y-46179619D02*
X84121428Y-46179619D01*
X84121428Y-45163619D01*
X82740476Y-46082857D02*
X82788095Y-46131238D01*
X82930952Y-46179619D01*
X83026190Y-46179619D01*
X83169047Y-46131238D01*
X83264285Y-46034476D01*
X83311904Y-45937714D01*
X83359523Y-45744190D01*
X83359523Y-45599047D01*
X83311904Y-45405523D01*
X83264285Y-45308761D01*
X83169047Y-45212000D01*
X83026190Y-45163619D01*
X82930952Y-45163619D01*
X82788095Y-45212000D01*
X82740476Y-45260380D01*
X82026190Y-45163619D02*
X82026190Y-45889333D01*
X82073809Y-46034476D01*
X82169047Y-46131238D01*
X82311904Y-46179619D01*
X82407142Y-46179619D01*
X81073809Y-46179619D02*
X81550000Y-46179619D01*
X81550000Y-45163619D01*
X80169047Y-46082857D02*
X80216666Y-46131238D01*
X80359523Y-46179619D01*
X80454761Y-46179619D01*
X80597619Y-46131238D01*
X80692857Y-46034476D01*
X80740476Y-45937714D01*
X80788095Y-45744190D01*
X80788095Y-45599047D01*
X80740476Y-45405523D01*
X80692857Y-45308761D01*
X80597619Y-45212000D01*
X80454761Y-45163619D01*
X80359523Y-45163619D01*
X80216666Y-45212000D01*
X80169047Y-45260380D01*
X79454761Y-45163619D02*
X79454761Y-45889333D01*
X79502380Y-46034476D01*
X79597619Y-46131238D01*
X79740476Y-46179619D01*
X79835714Y-46179619D01*
X78502380Y-46179619D02*
X78978571Y-46179619D01*
X78978571Y-45163619D01*
X77597619Y-46082857D02*
X77645238Y-46131238D01*
X77788095Y-46179619D01*
X77883333Y-46179619D01*
X78026190Y-46131238D01*
X78121428Y-46034476D01*
X78169047Y-45937714D01*
X78216666Y-45744190D01*
X78216666Y-45599047D01*
X78169047Y-45405523D01*
X78121428Y-45308761D01*
X78026190Y-45212000D01*
X77883333Y-45163619D01*
X77788095Y-45163619D01*
X77645238Y-45212000D01*
X77597619Y-45260380D01*
X65104285Y-37537380D02*
X65104285Y-36537380D01*
X64866190Y-36537380D01*
X64723333Y-36585000D01*
X64628095Y-36680238D01*
X64580476Y-36775476D01*
X64532857Y-36965952D01*
X64532857Y-37108809D01*
X64580476Y-37299285D01*
X64628095Y-37394523D01*
X64723333Y-37489761D01*
X64866190Y-37537380D01*
X65104285Y-37537380D01*
X63580476Y-37537380D02*
X64151904Y-37537380D01*
X63866190Y-37537380D02*
X63866190Y-36537380D01*
X63961428Y-36680238D01*
X64056666Y-36775476D01*
X64151904Y-36823095D01*
X63009047Y-36965952D02*
X63104285Y-36918333D01*
X63151904Y-36870714D01*
X63199523Y-36775476D01*
X63199523Y-36727857D01*
X63151904Y-36632619D01*
X63104285Y-36585000D01*
X63009047Y-36537380D01*
X62818571Y-36537380D01*
X62723333Y-36585000D01*
X62675714Y-36632619D01*
X62628095Y-36727857D01*
X62628095Y-36775476D01*
X62675714Y-36870714D01*
X62723333Y-36918333D01*
X62818571Y-36965952D01*
X63009047Y-36965952D01*
X63104285Y-37013571D01*
X63151904Y-37061190D01*
X63199523Y-37156428D01*
X63199523Y-37346904D01*
X63151904Y-37442142D01*
X63104285Y-37489761D01*
X63009047Y-37537380D01*
X62818571Y-37537380D01*
X62723333Y-37489761D01*
X62675714Y-37442142D01*
X62628095Y-37346904D01*
X62628095Y-37156428D01*
X62675714Y-37061190D01*
X62723333Y-37013571D01*
X62818571Y-36965952D01*
D11*
X62865000Y-50800000D02*
X67945000Y-50800000D01*
X66675000Y-53975000D02*
X70485000Y-53975000D01*
X62865000Y-50800000D02*
G75*
G03*
X60960000Y-52705000I1J-1905001D01*
G01*
X66675000Y-53975000D02*
G75*
G03*
X64770000Y-54610000I3J-3175009D01*
G01*
X81915000Y-69850000D02*
X86995000Y-69850000D01*
X85725000Y-73025000D02*
X89535000Y-73025000D01*
X85725000Y-73025000D02*
G75*
G03*
X83820000Y-73660000I3J-3175009D01*
G01*
X81915000Y-69850000D02*
G75*
G03*
X80010000Y-71755000I1J-1905001D01*
G01*
X100965000Y-60325000D02*
X106045000Y-60325000D01*
X104775000Y-63500000D02*
X108585000Y-63500000D01*
X104775000Y-63500000D02*
G75*
G03*
X102870000Y-64135000I3J-3175009D01*
G01*
X100965000Y-60325000D02*
G75*
G03*
X99060000Y-62230000I1J-1905001D01*
G01*
X85725000Y-53975000D02*
X89535000Y-53975000D01*
X81915000Y-50800000D02*
X86995000Y-50800000D01*
X85725000Y-53975000D02*
G75*
G03*
X83820000Y-54610000I3J-3175009D01*
G01*
X81915000Y-50800000D02*
G75*
G03*
X80010000Y-52705000I1J-1905001D01*
G01*
X100965000Y-41275000D02*
X106045000Y-41275000D01*
X104775000Y-44450000D02*
X108585000Y-44450000D01*
X100965000Y-41275000D02*
G75*
G03*
X99060000Y-43180000I1J-1905001D01*
G01*
X104775000Y-44450000D02*
G75*
G03*
X102870000Y-45085000I3J-3175009D01*
G01*
X120015000Y-50800000D02*
X125095000Y-50800000D01*
X123825000Y-53975000D02*
X127635000Y-53975000D01*
X120015000Y-50800000D02*
G75*
G03*
X118110000Y-52705000I1J-1905001D01*
G01*
X123825000Y-53975000D02*
G75*
G03*
X121920000Y-54610000I3J-3175009D01*
G01*
X139065000Y-60325000D02*
X144145000Y-60325000D01*
X142875000Y-63500000D02*
X146685000Y-63500000D01*
X139065000Y-60325000D02*
G75*
G03*
X137160000Y-62230000I1J-1905001D01*
G01*
X142875000Y-63500000D02*
G75*
G03*
X140970000Y-64135000I3J-3175009D01*
G01*
X66675000Y-73025000D02*
X70485000Y-73025000D01*
X62865000Y-69850000D02*
X67945000Y-69850000D01*
X66675000Y-73025000D02*
G75*
G03*
X64770000Y-73660000I3J-3175009D01*
G01*
X62865000Y-69850000D02*
G75*
G03*
X60960000Y-71755000I1J-1905001D01*
G01*
X120015000Y-69850000D02*
X125095000Y-69850000D01*
X123825000Y-73025000D02*
X127635000Y-73025000D01*
X120015000Y-69850000D02*
G75*
G03*
X118110000Y-71755000I1J-1905001D01*
G01*
X123825000Y-73025000D02*
G75*
G03*
X121920000Y-73660000I3J-3175009D01*
G01*
X139065000Y-79375000D02*
X144145000Y-79375000D01*
X142875000Y-82550000D02*
X146685000Y-82550000D01*
X139065000Y-79375000D02*
G75*
G03*
X137160000Y-81280000I1J-1905001D01*
G01*
X142875000Y-82550000D02*
G75*
G03*
X140970000Y-83185000I3J-3175009D01*
G01*
X62865000Y-88900000D02*
X67945000Y-88900000D01*
X66675000Y-92075000D02*
X70485000Y-92075000D01*
X62865000Y-88900000D02*
G75*
G03*
X60960000Y-90805000I1J-1905001D01*
G01*
X66675000Y-92075000D02*
G75*
G03*
X64770000Y-92710000I3J-3175009D01*
G01*
X85725000Y-92075000D02*
X89535000Y-92075000D01*
X81915000Y-88900000D02*
X86995000Y-88900000D01*
X85725000Y-92075000D02*
G75*
G03*
X83820000Y-92710000I3J-3175009D01*
G01*
X81915000Y-88900000D02*
G75*
G03*
X80010000Y-90805000I1J-1905001D01*
G01*
X104775000Y-82550000D02*
X108585000Y-82550000D01*
X100965000Y-79375000D02*
X106045000Y-79375000D01*
X100965000Y-79375000D02*
G75*
G03*
X99060000Y-81280000I1J-1905001D01*
G01*
X104775000Y-82550000D02*
G75*
G03*
X102870000Y-83185000I3J-3175009D01*
G01*
X120015000Y-88900000D02*
X125095000Y-88900000D01*
X123825000Y-92075000D02*
X127635000Y-92075000D01*
X120015000Y-88900000D02*
G75*
G03*
X118110000Y-90805000I1J-1905001D01*
G01*
X123825000Y-92075000D02*
G75*
G03*
X121920000Y-92710000I3J-3175009D01*
G01*
X142875000Y-101600000D02*
X146685000Y-101600000D01*
X139065000Y-98425000D02*
X144145000Y-98425000D01*
X142875000Y-101600000D02*
G75*
G03*
X140970000Y-102235000I3J-3175009D01*
G01*
X139065000Y-98425000D02*
G75*
G03*
X137160000Y-100330000I1J-1905001D01*
G01*
X53340000Y-107950000D02*
X58420000Y-107950000D01*
X57150000Y-111125000D02*
X60960000Y-111125000D01*
X57150000Y-111125000D02*
G75*
G03*
X55245000Y-111760000I3J-3175009D01*
G01*
X53340000Y-107950000D02*
G75*
G03*
X51435000Y-109855000I1J-1905001D01*
G01*
X76200000Y-111125000D02*
X80010000Y-111125000D01*
X72390000Y-107950000D02*
X77470000Y-107950000D01*
X72390000Y-107950000D02*
G75*
G03*
X70485000Y-109855000I1J-1905001D01*
G01*
X76200000Y-111125000D02*
G75*
G03*
X74295000Y-111760000I3J-3175009D01*
G01*
D10*
X66175000Y-47125000D02*
X66175000Y-48125000D01*
X63975000Y-46875000D02*
X63975000Y-48375000D01*
X67175000Y-47125000D02*
X67175000Y-48125000D01*
X66175000Y-48125000D02*
X67075000Y-47625000D01*
X69375000Y-46875000D02*
X69375000Y-48375000D01*
X67075000Y-47625000D02*
X66175000Y-47125000D01*
X69375000Y-48375000D02*
X63975000Y-48375000D01*
X63975000Y-46875000D02*
X69375000Y-46875000D01*
X88425000Y-67425000D02*
X83025000Y-67425000D01*
X85225000Y-66175000D02*
X85225000Y-67175000D01*
X86225000Y-66175000D02*
X86225000Y-67175000D01*
X85225000Y-67175000D02*
X86125000Y-66675000D01*
X83025000Y-65925000D02*
X83025000Y-67425000D01*
X83025000Y-65925000D02*
X88425000Y-65925000D01*
X88425000Y-65925000D02*
X88425000Y-67425000D01*
X86125000Y-66675000D02*
X85225000Y-66175000D01*
X107155000Y-56400000D02*
X107155000Y-57900000D01*
X109355000Y-57650000D02*
X110255000Y-57150000D01*
X109355000Y-56650000D02*
X109355000Y-57650000D01*
X112555000Y-56400000D02*
X112555000Y-57900000D01*
X110355000Y-56650000D02*
X110355000Y-57650000D01*
X110255000Y-57150000D02*
X109355000Y-56650000D01*
X107155000Y-56400000D02*
X112555000Y-56400000D01*
X112555000Y-57900000D02*
X107155000Y-57900000D01*
X83025000Y-46875000D02*
X88425000Y-46875000D01*
X85225000Y-48125000D02*
X86125000Y-47625000D01*
X86225000Y-47125000D02*
X86225000Y-48125000D01*
X83025000Y-46875000D02*
X83025000Y-48375000D01*
X86125000Y-47625000D02*
X85225000Y-47125000D01*
X85225000Y-47125000D02*
X85225000Y-48125000D01*
X88425000Y-48375000D02*
X83025000Y-48375000D01*
X88425000Y-46875000D02*
X88425000Y-48375000D01*
X96995000Y-56400000D02*
X102395000Y-56400000D01*
X102395000Y-56400000D02*
X102395000Y-57900000D01*
X99195000Y-56650000D02*
X99195000Y-57650000D01*
X96995000Y-56400000D02*
X96995000Y-57900000D01*
X102395000Y-57900000D02*
X96995000Y-57900000D01*
X100095000Y-57150000D02*
X99195000Y-56650000D01*
X100195000Y-56650000D02*
X100195000Y-57650000D01*
X99195000Y-57650000D02*
X100095000Y-57150000D01*
X121445000Y-67425000D02*
X116045000Y-67425000D01*
X119145000Y-66675000D02*
X118245000Y-66175000D01*
X121445000Y-65925000D02*
X121445000Y-67425000D01*
X116045000Y-65925000D02*
X116045000Y-67425000D01*
X119245000Y-66175000D02*
X119245000Y-67175000D01*
X118245000Y-67175000D02*
X119145000Y-66675000D01*
X118245000Y-66175000D02*
X118245000Y-67175000D01*
X116045000Y-65925000D02*
X121445000Y-65925000D01*
X135095000Y-75450000D02*
X140495000Y-75450000D01*
X137295000Y-76700000D02*
X138195000Y-76200000D01*
X140495000Y-76950000D02*
X135095000Y-76950000D01*
X138295000Y-75700000D02*
X138295000Y-76700000D01*
X135095000Y-75450000D02*
X135095000Y-76950000D01*
X140495000Y-75450000D02*
X140495000Y-76950000D01*
X138195000Y-76200000D02*
X137295000Y-75700000D01*
X137295000Y-75700000D02*
X137295000Y-76700000D01*
X63975000Y-65925000D02*
X69375000Y-65925000D01*
X67075000Y-66675000D02*
X66175000Y-66175000D01*
X66175000Y-67175000D02*
X67075000Y-66675000D01*
X69375000Y-65925000D02*
X69375000Y-67425000D01*
X67175000Y-66175000D02*
X67175000Y-67175000D01*
X69375000Y-67425000D02*
X63975000Y-67425000D01*
X63975000Y-65925000D02*
X63975000Y-67425000D01*
X66175000Y-66175000D02*
X66175000Y-67175000D01*
X129065000Y-65925000D02*
X129065000Y-67425000D01*
X126765000Y-66675000D02*
X125865000Y-66175000D01*
X129065000Y-67425000D02*
X123665000Y-67425000D01*
X123665000Y-65925000D02*
X129065000Y-65925000D01*
X126865000Y-66175000D02*
X126865000Y-67175000D01*
X125865000Y-66175000D02*
X125865000Y-67175000D01*
X123665000Y-65925000D02*
X123665000Y-67425000D01*
X125865000Y-67175000D02*
X126765000Y-66675000D01*
X148115000Y-76950000D02*
X142715000Y-76950000D01*
X148115000Y-75450000D02*
X148115000Y-76950000D01*
X145915000Y-75700000D02*
X145915000Y-76700000D01*
X142715000Y-75450000D02*
X142715000Y-76950000D01*
X144915000Y-75700000D02*
X144915000Y-76700000D01*
X142715000Y-75450000D02*
X148115000Y-75450000D01*
X144915000Y-76700000D02*
X145815000Y-76200000D01*
X145815000Y-76200000D02*
X144915000Y-75700000D01*
X66175000Y-86225000D02*
X67075000Y-85725000D01*
X63975000Y-84975000D02*
X63975000Y-86475000D01*
X66175000Y-85225000D02*
X66175000Y-86225000D01*
X69375000Y-84975000D02*
X69375000Y-86475000D01*
X69375000Y-86475000D02*
X63975000Y-86475000D01*
X67075000Y-85725000D02*
X66175000Y-85225000D01*
X67175000Y-85225000D02*
X67175000Y-86225000D01*
X63975000Y-84975000D02*
X69375000Y-84975000D01*
X83025000Y-84975000D02*
X88425000Y-84975000D01*
X88425000Y-86475000D02*
X83025000Y-86475000D01*
X86225000Y-85225000D02*
X86225000Y-86225000D01*
X85225000Y-86225000D02*
X86125000Y-85725000D01*
X86125000Y-85725000D02*
X85225000Y-85225000D01*
X85225000Y-85225000D02*
X85225000Y-86225000D01*
X83025000Y-84975000D02*
X83025000Y-86475000D01*
X88425000Y-84975000D02*
X88425000Y-86475000D01*
X107475000Y-76950000D02*
X102075000Y-76950000D01*
X104275000Y-75700000D02*
X104275000Y-76700000D01*
X105275000Y-75700000D02*
X105275000Y-76700000D01*
X102075000Y-75450000D02*
X107475000Y-75450000D01*
X104275000Y-76700000D02*
X105175000Y-76200000D01*
X105175000Y-76200000D02*
X104275000Y-75700000D01*
X102075000Y-75450000D02*
X102075000Y-76950000D01*
X107475000Y-75450000D02*
X107475000Y-76950000D01*
X123325000Y-86225000D02*
X124225000Y-85725000D01*
X124225000Y-85725000D02*
X123325000Y-85225000D01*
X123325000Y-85225000D02*
X123325000Y-86225000D01*
X126525000Y-86475000D02*
X121125000Y-86475000D01*
X121125000Y-84975000D02*
X126525000Y-84975000D01*
X124325000Y-85225000D02*
X124325000Y-86225000D01*
X126525000Y-84975000D02*
X126525000Y-86475000D01*
X121125000Y-84975000D02*
X121125000Y-86475000D01*
X143275000Y-95250000D02*
X142375000Y-94750000D01*
X142375000Y-95750000D02*
X143275000Y-95250000D01*
X142375000Y-94750000D02*
X142375000Y-95750000D01*
X145575000Y-94500000D02*
X145575000Y-96000000D01*
X140175000Y-94500000D02*
X140175000Y-96000000D01*
X145575000Y-96000000D02*
X140175000Y-96000000D01*
X140175000Y-94500000D02*
X145575000Y-94500000D01*
X143375000Y-94750000D02*
X143375000Y-95750000D01*
X64295000Y-104025000D02*
X64295000Y-105525000D01*
X58895000Y-104025000D02*
X64295000Y-104025000D01*
X61095000Y-104275000D02*
X61095000Y-105275000D01*
X64295000Y-105525000D02*
X58895000Y-105525000D01*
X58895000Y-104025000D02*
X58895000Y-105525000D01*
X62095000Y-104275000D02*
X62095000Y-105275000D01*
X61995000Y-104775000D02*
X61095000Y-104275000D01*
X61095000Y-105275000D02*
X61995000Y-104775000D01*
X69350000Y-105275000D02*
X70250000Y-104775000D01*
X72550000Y-104025000D02*
X72550000Y-105525000D01*
X70350000Y-104275000D02*
X70350000Y-105275000D01*
X67150000Y-104025000D02*
X72550000Y-104025000D01*
X72550000Y-105525000D02*
X67150000Y-105525000D01*
X67150000Y-104025000D02*
X67150000Y-105525000D01*
X69350000Y-104275000D02*
X69350000Y-105275000D01*
X70250000Y-104775000D02*
X69350000Y-104275000D01*
D11*
X65750000Y-37775000D02*
X65750000Y-39695000D01*
X65750000Y-39695000D02*
X62890000Y-39695000D01*
X62890000Y-37775000D02*
X65750000Y-37775000D01*
X64117064Y-40540000D02*
X63662936Y-40540000D01*
X64117064Y-42010000D02*
X63662936Y-42010000D01*
%LPC*%
D12*
X71755000Y-57150000D03*
X61595000Y-57150000D03*
D13*
X62865000Y-54610000D03*
D14*
X61200000Y-57175000D03*
D15*
X66675000Y-57150000D03*
D13*
X69215000Y-52070000D03*
D14*
X72200000Y-57175000D03*
D16*
X61700000Y-60960000D03*
D17*
X59590000Y-54610000D03*
D16*
X66700000Y-63075000D03*
D17*
X72517000Y-52070000D03*
D12*
X80645000Y-76200000D03*
D14*
X91250000Y-76225000D03*
D13*
X88265000Y-71120000D03*
X81915000Y-73660000D03*
D14*
X80250000Y-76225000D03*
D15*
X85725000Y-76200000D03*
D12*
X90805000Y-76200000D03*
D17*
X78640000Y-73660000D03*
D16*
X80750000Y-80010000D03*
D17*
X91567000Y-71120000D03*
D16*
X85750000Y-82125000D03*
D14*
X110300000Y-66700000D03*
D12*
X109855000Y-66675000D03*
X99695000Y-66675000D03*
D13*
X107315000Y-61595000D03*
X100965000Y-64135000D03*
D15*
X104775000Y-66675000D03*
D14*
X99300000Y-66700000D03*
D16*
X99800000Y-70485000D03*
D17*
X97690000Y-64135000D03*
X110617000Y-61595000D03*
D16*
X104800000Y-72600000D03*
D12*
X80645000Y-57150000D03*
D13*
X88265000Y-52070000D03*
D12*
X90805000Y-57150000D03*
D14*
X80250000Y-57175000D03*
D13*
X81915000Y-54610000D03*
D14*
X91250000Y-57175000D03*
D15*
X85725000Y-57150000D03*
D16*
X80750000Y-60960000D03*
D17*
X78640000Y-54610000D03*
D16*
X85750000Y-63075000D03*
D17*
X91567000Y-52070000D03*
D14*
X99300000Y-47650000D03*
D12*
X109855000Y-47625000D03*
D14*
X110300000Y-47650000D03*
D12*
X99695000Y-47625000D03*
D13*
X100965000Y-45085000D03*
X107315000Y-42545000D03*
D15*
X104775000Y-47625000D03*
D16*
X99800000Y-51435000D03*
D17*
X97690000Y-45085000D03*
X110617000Y-42545000D03*
D16*
X104800000Y-53550000D03*
D13*
X120015000Y-54610000D03*
X126365000Y-52070000D03*
D12*
X128905000Y-57150000D03*
D15*
X123825000Y-57150000D03*
D14*
X118350000Y-57175000D03*
D12*
X118745000Y-57150000D03*
D14*
X129350000Y-57175000D03*
D16*
X118850000Y-60960000D03*
D17*
X116740000Y-54610000D03*
D16*
X123850000Y-63075000D03*
D17*
X129667000Y-52070000D03*
D13*
X139065000Y-64135000D03*
D15*
X142875000Y-66675000D03*
D12*
X137795000Y-66675000D03*
D14*
X137400000Y-66700000D03*
D13*
X145415000Y-61595000D03*
D12*
X147955000Y-66675000D03*
D14*
X148400000Y-66700000D03*
D16*
X137900000Y-70485000D03*
D17*
X135790000Y-64135000D03*
X148717000Y-61595000D03*
D16*
X142900000Y-72600000D03*
D13*
X69215000Y-71120000D03*
D12*
X61595000Y-76200000D03*
D13*
X62865000Y-73660000D03*
D14*
X72200000Y-76225000D03*
D12*
X71755000Y-76200000D03*
D15*
X66675000Y-76200000D03*
D14*
X61200000Y-76225000D03*
D16*
X61700000Y-80010000D03*
D17*
X59590000Y-73660000D03*
X72517000Y-71120000D03*
D16*
X66700000Y-82125000D03*
D13*
X126365000Y-71120000D03*
D12*
X118745000Y-76200000D03*
D14*
X129350000Y-76225000D03*
X118350000Y-76225000D03*
D12*
X128905000Y-76200000D03*
D15*
X123825000Y-76200000D03*
D13*
X120015000Y-73660000D03*
D17*
X116740000Y-73660000D03*
D16*
X118850000Y-80010000D03*
X123850000Y-82125000D03*
D17*
X129667000Y-71120000D03*
D12*
X137795000Y-85725000D03*
X147955000Y-85725000D03*
D14*
X137400000Y-85750000D03*
D15*
X142875000Y-85725000D03*
D14*
X148400000Y-85750000D03*
D13*
X139065000Y-83185000D03*
X145415000Y-80645000D03*
D17*
X135790000Y-83185000D03*
D16*
X137900000Y-89535000D03*
D17*
X148717000Y-80645000D03*
D16*
X142900000Y-91650000D03*
D15*
X66675000Y-95250000D03*
D14*
X61200000Y-95275000D03*
X72200000Y-95275000D03*
D12*
X71755000Y-95250000D03*
D13*
X62865000Y-92710000D03*
X69215000Y-90170000D03*
D12*
X61595000Y-95250000D03*
D17*
X59590000Y-92710000D03*
D16*
X61700000Y-99060000D03*
D17*
X72517000Y-90170000D03*
D16*
X66700000Y-101175000D03*
D12*
X80645000Y-95250000D03*
D14*
X91250000Y-95275000D03*
D15*
X85725000Y-95250000D03*
D14*
X80250000Y-95275000D03*
D13*
X81915000Y-92710000D03*
X88265000Y-90170000D03*
D12*
X90805000Y-95250000D03*
D17*
X78640000Y-92710000D03*
D16*
X80750000Y-99060000D03*
D17*
X91567000Y-90170000D03*
D16*
X85750000Y-101175000D03*
D13*
X100965000Y-83185000D03*
D12*
X99695000Y-85725000D03*
D13*
X107315000Y-80645000D03*
D14*
X110300000Y-85750000D03*
D15*
X104775000Y-85725000D03*
D12*
X109855000Y-85725000D03*
D14*
X99300000Y-85750000D03*
D16*
X99800000Y-89535000D03*
D17*
X97690000Y-83185000D03*
D16*
X104800000Y-91650000D03*
D17*
X110617000Y-80645000D03*
D12*
X128905000Y-95250000D03*
D13*
X126365000Y-90170000D03*
D15*
X123825000Y-95250000D03*
D13*
X120015000Y-92710000D03*
D12*
X118745000Y-95250000D03*
D14*
X118350000Y-95275000D03*
X129350000Y-95275000D03*
D16*
X118850000Y-99060000D03*
D17*
X116740000Y-92710000D03*
X129667000Y-90170000D03*
D16*
X123850000Y-101175000D03*
D14*
X148400000Y-104800000D03*
D13*
X145415000Y-99695000D03*
D14*
X137400000Y-104800000D03*
D12*
X147955000Y-104775000D03*
D15*
X142875000Y-104775000D03*
D13*
X139065000Y-102235000D03*
D12*
X137795000Y-104775000D03*
D17*
X135790000Y-102235000D03*
D16*
X137900000Y-108585000D03*
X142900000Y-110700000D03*
D17*
X148717000Y-99695000D03*
D13*
X53340000Y-111760000D03*
D14*
X62675000Y-114325000D03*
D13*
X59690000Y-109220000D03*
D12*
X52070000Y-114300000D03*
D14*
X51675000Y-114325000D03*
D12*
X62230000Y-114300000D03*
D15*
X57150000Y-114300000D03*
D17*
X50065000Y-111760000D03*
D16*
X52175000Y-118110000D03*
D17*
X62992000Y-109220000D03*
D16*
X57175000Y-120225000D03*
D14*
X81725000Y-114325000D03*
D12*
X81280000Y-114300000D03*
D15*
X76200000Y-114300000D03*
D14*
X70725000Y-114325000D03*
D13*
X78740000Y-109220000D03*
D12*
X71120000Y-114300000D03*
D13*
X72390000Y-111760000D03*
D16*
X71225000Y-118110000D03*
D17*
X69115000Y-111760000D03*
D16*
X76225000Y-120225000D03*
D17*
X82042000Y-109220000D03*
D18*
X76200000Y-66675000D03*
X133350000Y-66675000D03*
X76200000Y-104775000D03*
X133350000Y-95250000D03*
D19*
X68580000Y-41275000D03*
D20*
X68580000Y-38735000D03*
X71120000Y-41275000D03*
X71120000Y-38735000D03*
X73660000Y-41275000D03*
X73660000Y-38735000D03*
X76200000Y-41275000D03*
X76200000Y-38735000D03*
X78740000Y-41275000D03*
X78740000Y-38735000D03*
X81280000Y-41275000D03*
X81280000Y-38735000D03*
X83820000Y-41275000D03*
X83820000Y-38735000D03*
D21*
X68450000Y-47625000D03*
X64900000Y-47625000D03*
X87500000Y-66675000D03*
X83950000Y-66675000D03*
X111630000Y-57150000D03*
X108080000Y-57150000D03*
X87500000Y-47625000D03*
X83950000Y-47625000D03*
X101470000Y-57150000D03*
X97920000Y-57150000D03*
X120520000Y-66675000D03*
X116970000Y-66675000D03*
X139570000Y-76200000D03*
X136020000Y-76200000D03*
X68450000Y-66675000D03*
X64900000Y-66675000D03*
X128140000Y-66675000D03*
X124590000Y-66675000D03*
X147190000Y-76200000D03*
X143640000Y-76200000D03*
X68450000Y-85725000D03*
X64900000Y-85725000D03*
X87500000Y-85725000D03*
X83950000Y-85725000D03*
X106550000Y-76200000D03*
X103000000Y-76200000D03*
X125600000Y-85725000D03*
X122050000Y-85725000D03*
X144650000Y-95250000D03*
X141100000Y-95250000D03*
X63370000Y-104775000D03*
X59820000Y-104775000D03*
X71625000Y-104775000D03*
X68075000Y-104775000D03*
D22*
X64915000Y-38735000D03*
X62865000Y-38735000D03*
D23*
X64890000Y-41275000D03*
X62890000Y-41275000D03*
M02*
