%TF.GenerationSoftware,KiCad,Pcbnew,(6.0.5-0)*%
%TF.CreationDate,2022-06-17T02:21:22+08:00*%
%TF.ProjectId,Pragmatic,50726167-6d61-4746-9963-2e6b69636164,3.1*%
%TF.SameCoordinates,PX63ebd58PY3f96138*%
%TF.FileFunction,Legend,Top*%
%TF.FilePolarity,Positive*%
%FSLAX46Y46*%
G04 Gerber Fmt 4.6, Leading zero omitted, Abs format (unit mm)*
G04 Created by KiCad (PCBNEW (6.0.5-0)) date 2022-06-17 02:21:22*
%MOMM*%
%LPD*%
G01*
G04 APERTURE LIST*
G04 Aperture macros list*
%AMRoundRect*
0 Rectangle with rounded corners*
0 $1 Rounding radius*
0 $2 $3 $4 $5 $6 $7 $8 $9 X,Y pos of 4 corners*
0 Add a 4 corners polygon primitive as box body*
4,1,4,$2,$3,$4,$5,$6,$7,$8,$9,$2,$3,0*
0 Add four circle primitives for the rounded corners*
1,1,$1+$1,$2,$3*
1,1,$1+$1,$4,$5*
1,1,$1+$1,$6,$7*
1,1,$1+$1,$8,$9*
0 Add four rect primitives between the rounded corners*
20,1,$1+$1,$2,$3,$4,$5,0*
20,1,$1+$1,$4,$5,$6,$7,0*
20,1,$1+$1,$6,$7,$8,$9,0*
20,1,$1+$1,$8,$9,$2,$3,0*%
G04 Aperture macros list end*
%ADD10C,0.120000*%
%ADD11C,0.300000*%
%ADD12RoundRect,0.250000X0.600000X-0.600000X0.600000X0.600000X-0.600000X0.600000X-0.600000X-0.600000X0*%
%ADD13C,1.700000*%
%ADD14C,4.000000*%
%ADD15C,1.900000*%
%ADD16C,3.000000*%
%ADD17C,2.500000*%
G04 APERTURE END LIST*
D10*
%TO.C,J1*%
X-40105000Y29920000D02*
X-17045000Y29920000D01*
X-15745000Y30988000D02*
X-15745000Y22110000D01*
X-30625000Y22110000D02*
X-30625000Y23420000D01*
X-41405000Y30988000D02*
X-15745000Y30988000D01*
X-26525000Y23420000D02*
X-26525000Y22110000D01*
X-17045000Y29920000D02*
X-17045000Y23420000D01*
X-41405000Y22110000D02*
X-30625000Y22110000D01*
X-30625000Y23420000D02*
X-40105000Y23420000D01*
X-26525000Y23420000D02*
X-26525000Y23420000D01*
X-40105000Y23420000D02*
X-40105000Y29920000D01*
X-17045000Y23420000D02*
X-26525000Y23420000D01*
X-41405000Y21868000D02*
X-41405000Y30988000D01*
X-15745000Y22110000D02*
X-26525000Y22110000D01*
%TD*%
%LPC*%
D11*
%TO.C,REF\u002A\u002A*%
X-7750000Y-33063571D02*
X-7750000Y-31563571D01*
X-6892858Y-31563571D01*
X-6892858Y-33063571D01*
X-6178572Y-32063571D02*
X-6178572Y-33563571D01*
X-6178572Y-32135000D02*
X-6035715Y-32063571D01*
X-5750000Y-32063571D01*
X-5607143Y-32135000D01*
X-5535715Y-32206428D01*
X-5464286Y-32349285D01*
X-5464286Y-32777857D01*
X-5535715Y-32920714D01*
X-5607143Y-32992142D01*
X-5750000Y-33063571D01*
X-6035715Y-33063571D01*
X-6178572Y-32992142D01*
X-4178572Y-33063571D02*
X-4178572Y-32277857D01*
X-4250000Y-32135000D01*
X-4392858Y-32063571D01*
X-4678572Y-32063571D01*
X-4821429Y-32135000D01*
X-4178572Y-32992142D02*
X-4321429Y-33063571D01*
X-4678572Y-33063571D01*
X-4821429Y-32992142D01*
X-4892858Y-32849285D01*
X-4892858Y-32706428D01*
X-4821429Y-32563571D01*
X-4678572Y-32492142D01*
X-4321429Y-32492142D01*
X-4178572Y-32420714D01*
X-3464286Y-33063571D02*
X-3464286Y-32063571D01*
X-2892858Y-32063571D01*
X-2392858Y-33063571D02*
X-2392858Y-32063571D01*
X-1964286Y-32849285D01*
X-1535715Y-32063571D01*
X-1535715Y-33063571D01*
X-178572Y-33063571D02*
X-178572Y-32277857D01*
X-250000Y-32135000D01*
X-392858Y-32063571D01*
X-678572Y-32063571D01*
X-821429Y-32135000D01*
X-178572Y-32992142D02*
X-321429Y-33063571D01*
X-678572Y-33063571D01*
X-821429Y-32992142D01*
X-892858Y-32849285D01*
X-892858Y-32706428D01*
X-821429Y-32563571D01*
X-678572Y-32492142D01*
X-321429Y-32492142D01*
X-178572Y-32420714D01*
X321428Y-32063571D02*
X1035714Y-32063571D01*
X678571Y-32063571D02*
X678571Y-33063571D01*
X1535714Y-32063571D02*
X1535714Y-33063571D01*
X2250000Y-32063571D01*
X2250000Y-33063571D01*
X3464285Y-32063571D02*
X3464285Y-33063571D01*
X2892857Y-32063571D02*
X2892857Y-32420714D01*
X2964285Y-32563571D01*
X3107142Y-32635000D01*
X3464285Y-32635000D01*
X4250000Y-32563571D02*
X4892857Y-32563571D01*
X4250000Y-32063571D02*
X4250000Y-33063571D01*
X4892857Y-32063571D02*
X4892857Y-33063571D01*
X5607142Y-32063571D02*
X5607142Y-33063571D01*
X6321428Y-32063571D01*
X6321428Y-33063571D01*
X7035714Y-32063571D02*
X7035714Y-33063571D01*
X7750000Y-32063571D01*
X7750000Y-33063571D01*
X7107142Y-31492142D02*
X7178571Y-31635000D01*
X7321428Y-31706428D01*
X7464285Y-31706428D01*
X7607142Y-31635000D01*
X7678571Y-31492142D01*
%TD*%
D12*
%TO.C,J1*%
X-36195000Y25400000D03*
D13*
X-36195000Y27940000D03*
X-33655000Y25400000D03*
X-33655000Y27940000D03*
X-31115000Y25400000D03*
X-31115000Y27940000D03*
X-28575000Y25400000D03*
X-28575000Y27940000D03*
X-26035000Y25400000D03*
X-26035000Y27940000D03*
X-23495000Y25400000D03*
X-23495000Y27940000D03*
X-20955000Y25400000D03*
X-20955000Y27940000D03*
%TD*%
D14*
%TO.C,SW1*%
X-38100000Y9525000D03*
D15*
X-33020000Y9525000D03*
D16*
X-41910000Y12065000D03*
D14*
X-38100000Y9525000D03*
D16*
X-35560000Y14605000D03*
D15*
X-43180000Y9525000D03*
%TD*%
%TO.C,SW7*%
X-13970000Y-9525000D03*
D16*
X-16510000Y-4445000D03*
X-22860000Y-6985000D03*
D14*
X-19050000Y-9525000D03*
D15*
X-24130000Y-9525000D03*
D14*
X-19050000Y-9525000D03*
%TD*%
D15*
%TO.C,SW8*%
X5080000Y0D03*
X-5080000Y0D03*
D14*
X0Y0D03*
X0Y0D03*
D16*
X-3810000Y2540000D03*
X2540000Y5080000D03*
%TD*%
%TO.C,SW2*%
X-22860000Y12065000D03*
D14*
X-19050000Y9525000D03*
D15*
X-24130000Y9525000D03*
X-13970000Y9525000D03*
D14*
X-19050000Y9525000D03*
D16*
X-16510000Y14605000D03*
%TD*%
D15*
%TO.C,SW3*%
X5080000Y19050000D03*
D16*
X-3810000Y21590000D03*
D14*
X0Y19050000D03*
X0Y19050000D03*
D15*
X-5080000Y19050000D03*
D16*
X2540000Y24130000D03*
%TD*%
D15*
%TO.C,SW4*%
X24130000Y9525000D03*
X13970000Y9525000D03*
D14*
X19050000Y9525000D03*
D16*
X21590000Y14605000D03*
X15240000Y12065000D03*
D14*
X19050000Y9525000D03*
%TD*%
D16*
%TO.C,SW5*%
X34290000Y2540000D03*
X40640000Y5080000D03*
D15*
X43180000Y0D03*
X33020000Y0D03*
D14*
X38100000Y0D03*
X38100000Y0D03*
%TD*%
%TO.C,SW6*%
X-38100000Y-9525000D03*
D16*
X-41910000Y-6985000D03*
D15*
X-43180000Y-9525000D03*
D14*
X-38100000Y-9525000D03*
D16*
X-35560000Y-4445000D03*
D15*
X-33020000Y-9525000D03*
%TD*%
D16*
%TO.C,SW9*%
X21590000Y-4445000D03*
D15*
X24130000Y-9525000D03*
D14*
X19050000Y-9525000D03*
X19050000Y-9525000D03*
D16*
X15240000Y-6985000D03*
D15*
X13970000Y-9525000D03*
%TD*%
D16*
%TO.C,SW10*%
X34290000Y-16510000D03*
D15*
X43180000Y-19050000D03*
X33020000Y-19050000D03*
D14*
X38100000Y-19050000D03*
D16*
X40640000Y-13970000D03*
D14*
X38100000Y-19050000D03*
%TD*%
%TO.C,SW11*%
X-38100000Y-28575000D03*
D15*
X-33020000Y-28575000D03*
D16*
X-41910000Y-26035000D03*
D15*
X-43180000Y-28575000D03*
D14*
X-38100000Y-28575000D03*
D16*
X-35560000Y-23495000D03*
%TD*%
%TO.C,SW12*%
X-22860000Y-26035000D03*
X-16510000Y-23495000D03*
D15*
X-24130000Y-28575000D03*
D14*
X-19050000Y-28575000D03*
X-19050000Y-28575000D03*
D15*
X-13970000Y-28575000D03*
%TD*%
%TO.C,SW13*%
X-5080000Y-19050000D03*
X5080000Y-19050000D03*
D16*
X2540000Y-13970000D03*
D14*
X0Y-19050000D03*
D16*
X-3810000Y-16510000D03*
D14*
X0Y-19050000D03*
%TD*%
D16*
%TO.C,SW14*%
X15240000Y-26035000D03*
D14*
X19050000Y-28575000D03*
X19050000Y-28575000D03*
D15*
X13970000Y-28575000D03*
D16*
X21590000Y-23495000D03*
D15*
X24130000Y-28575000D03*
%TD*%
D16*
%TO.C,SW15*%
X40640000Y-33020000D03*
X34290000Y-35560000D03*
D14*
X38100000Y-38100000D03*
D15*
X43180000Y-38100000D03*
D14*
X38100000Y-38100000D03*
D15*
X33020000Y-38100000D03*
%TD*%
%TO.C,SW16*%
X-52705000Y-47625000D03*
D14*
X-47625000Y-47625000D03*
D15*
X-42545000Y-47625000D03*
D16*
X-45085000Y-42545000D03*
X-51435000Y-45085000D03*
D14*
X-47625000Y-47625000D03*
%TD*%
%TO.C,SW17*%
X-28575000Y-47625000D03*
D16*
X-32385000Y-45085000D03*
D14*
X-28575000Y-47625000D03*
D16*
X-26035000Y-42545000D03*
D15*
X-23495000Y-47625000D03*
X-33655000Y-47625000D03*
%TD*%
D17*
%TO.C,H1*%
X-28575000Y0D03*
%TD*%
%TO.C,H2*%
X27686000Y0D03*
%TD*%
%TO.C,H3*%
X-33655000Y-38100000D03*
%TD*%
%TO.C,H4*%
X29464000Y-28575000D03*
%TD*%
M02*
