M48
; DRILL file {KiCad (6.0.4-0)} date 2022 March 28, Monday 14:36:45
; FORMAT={-:-/ absolute / metric / decimal}
; #@! TF.CreationDate,2022-03-28T14:36:45+08:00
; #@! TF.GenerationSoftware,Kicad,Pcbnew,(6.0.4-0)
; #@! TF.FileFunction,Plated,1,2,PTH
FMAT,2
METRIC
; #@! TA.AperFunction,Plated,PTH,ViaDrill
T1C0.400
; #@! TA.AperFunction,Plated,PTH,ComponentDrill
T2C1.000
; #@! TA.AperFunction,Plated,PTH,ComponentDrill
T3C1.270
%
G90
G05
T1
X62.992Y-109.22
X71.625Y-104.775
X72.517Y-52.07
X72.517Y-71.12
X72.517Y-90.17
X74.93Y-60.325
X78.74Y-64.135
X82.042Y-109.22
X91.567Y-71.12
X91.567Y-90.17
X93.837Y-81.915
X110.49Y-80.645
X110.617Y-61.595
X129.667Y-71.12
X129.667Y-90.17
X148.59Y-80.645
X148.717Y-99.695
T2
X68.58Y-38.735
X68.58Y-41.275
X71.12Y-38.735
X71.12Y-41.275
X73.66Y-38.735
X73.66Y-41.275
X76.2Y-38.735
X76.2Y-41.275
X78.74Y-38.735
X78.74Y-41.275
X81.28Y-38.735
X81.28Y-41.275
X83.82Y-38.735
X83.82Y-41.275
T3
X52.175Y-118.11
X57.175Y-120.225
X61.7Y-60.96
X61.7Y-80.01
X61.7Y-99.06
X66.7Y-63.075
X66.7Y-82.125
X66.7Y-101.175
X71.225Y-118.11
X76.225Y-120.225
X80.75Y-60.96
X80.75Y-80.01
X80.75Y-99.06
X85.75Y-63.075
X85.75Y-82.125
X85.75Y-101.175
X99.8Y-51.435
X99.8Y-70.485
X99.8Y-89.535
X104.8Y-53.55
X104.8Y-72.6
X104.8Y-91.65
X118.85Y-60.96
X118.85Y-80.01
X118.85Y-99.06
X123.85Y-63.075
X123.85Y-82.125
X123.85Y-101.175
X137.9Y-70.485
X137.9Y-89.535
X137.9Y-108.585
X142.9Y-72.6
X142.9Y-91.65
X142.9Y-110.7
T0
M30
