%FSLAX45Y45*%
G04 Gerber Fmt 4.5, Leading zero omitted, Abs format (unit mm)*
G04 Created by KiCad (PCBNEW (6.0.5-0)) date 2022-06-17 10:29:52*
%MOMM*%
%LPD*%
G01*
G04 APERTURE LIST*
%TA.AperFunction,Profile*%
%ADD10C,0.120000*%
%TD*%
%ADD11C,0.200000*%
%ADD12C,0.040000*%
%ADD13C,0.100000*%
%ADD14C,0.120000*%
G04 APERTURE END LIST*
D10*
X-10477500Y-8826500D02*
X952500Y-8826500D01*
X952500Y-8826500D02*
G75*
G03*
X1206500Y-8572500I0J254000D01*
G01*
X1206500Y1905000D02*
G75*
G03*
X952500Y2159000I-254000J0D01*
G01*
X1206500Y1905000D02*
X1206500Y-8572500D01*
X-10731500Y-8572500D02*
G75*
G03*
X-10477500Y-8826500I254000J0D01*
G01*
X952500Y2159000D02*
X-10477500Y2159000D01*
X-10477500Y2159000D02*
G75*
G03*
X-10731500Y1905000I0J-254000D01*
G01*
X-10731500Y1905000D02*
X-10731500Y-8572500D01*
D11*
D12*
X-5036500Y1036000D02*
X-4996500Y996000D01*
X-4996500Y1036000D02*
X-5036500Y996000D01*
X-4782500Y-869000D02*
X-4742500Y-909000D01*
X-4742500Y-869000D02*
X-4782500Y-909000D01*
X-4528500Y-2774000D02*
X-4488500Y-2814000D01*
X-4488500Y-2774000D02*
X-4528500Y-2814000D01*
X-3004500Y-4679000D02*
X-2964500Y-4719000D01*
X-2964500Y-4679000D02*
X-3004500Y-4719000D01*
X-2814000Y-6584000D02*
X-2774000Y-6624000D01*
X-2774000Y-6584000D02*
X-2814000Y-6624000D01*
D13*
X-5474500Y1841500D02*
G75*
G03*
X-5474500Y1841500I-50000J0D01*
G01*
X-5474500Y1587500D02*
G75*
G03*
X-5474500Y1587500I-50000J0D01*
G01*
X-5220500Y1841500D02*
G75*
G03*
X-5220500Y1841500I-50000J0D01*
G01*
X-5220500Y1587500D02*
G75*
G03*
X-5220500Y1587500I-50000J0D01*
G01*
X-4966500Y1841500D02*
G75*
G03*
X-4966500Y1841500I-50000J0D01*
G01*
X-4966500Y1587500D02*
G75*
G03*
X-4966500Y1587500I-50000J0D01*
G01*
X-4712500Y1841500D02*
G75*
G03*
X-4712500Y1841500I-50000J0D01*
G01*
X-4712500Y1587500D02*
G75*
G03*
X-4712500Y1587500I-50000J0D01*
G01*
X-4458500Y1841500D02*
G75*
G03*
X-4458500Y1841500I-50000J0D01*
G01*
X-4458500Y1587500D02*
G75*
G03*
X-4458500Y1587500I-50000J0D01*
G01*
X-4204500Y1841500D02*
G75*
G03*
X-4204500Y1841500I-50000J0D01*
G01*
X-4204500Y1587500D02*
G75*
G03*
X-4204500Y1587500I-50000J0D01*
G01*
X-3950500Y1841500D02*
G75*
G03*
X-3950500Y1841500I-50000J0D01*
G01*
X-3950500Y1587500D02*
G75*
G03*
X-3950500Y1587500I-50000J0D01*
G01*
D14*
X-10025000Y-320000D02*
X-10025000Y-440000D01*
X-10085000Y-380000D02*
X-9965000Y-380000D01*
X-10025000Y-2225000D02*
X-10025000Y-2345000D01*
X-10085000Y-2285000D02*
X-9965000Y-2285000D01*
X-10025000Y-4130000D02*
X-10025000Y-4250000D01*
X-10085000Y-4190000D02*
X-9965000Y-4190000D01*
X-10025000Y-6035000D02*
X-10025000Y-6155000D01*
X-10085000Y-6095000D02*
X-9965000Y-6095000D01*
X-10025000Y-7940000D02*
X-10025000Y-8060000D01*
X-10085000Y-8000000D02*
X-9965000Y-8000000D01*
X-9779000Y-448000D02*
X-9779000Y-568000D01*
X-9839000Y-508000D02*
X-9719000Y-508000D01*
X-9779000Y-2353000D02*
X-9779000Y-2473000D01*
X-9839000Y-2413000D02*
X-9719000Y-2413000D01*
X-9779000Y-4258000D02*
X-9779000Y-4378000D01*
X-9839000Y-4318000D02*
X-9719000Y-4318000D01*
X-9779000Y-6163000D02*
X-9779000Y-6283000D01*
X-9839000Y-6223000D02*
X-9719000Y-6223000D01*
X-9779000Y-8068000D02*
X-9779000Y-8188000D01*
X-9839000Y-8128000D02*
X-9719000Y-8128000D01*
X-9525000Y-530000D02*
X-9525000Y-650000D01*
X-9585000Y-590000D02*
X-9465000Y-590000D01*
X-9525000Y-2435000D02*
X-9525000Y-2555000D01*
X-9585000Y-2495000D02*
X-9465000Y-2495000D01*
X-9525000Y-4340000D02*
X-9525000Y-4460000D01*
X-9585000Y-4400000D02*
X-9465000Y-4400000D01*
X-9525000Y-6245000D02*
X-9525000Y-6365000D01*
X-9585000Y-6305000D02*
X-9465000Y-6305000D01*
X-9525000Y-8150000D02*
X-9525000Y-8270000D01*
X-9585000Y-8210000D02*
X-9465000Y-8210000D01*
X-9144000Y-194000D02*
X-9144000Y-314000D01*
X-9204000Y-254000D02*
X-9084000Y-254000D01*
X-9144000Y-2099000D02*
X-9144000Y-2219000D01*
X-9204000Y-2159000D02*
X-9084000Y-2159000D01*
X-9144000Y-4004000D02*
X-9144000Y-4124000D01*
X-9204000Y-4064000D02*
X-9084000Y-4064000D01*
X-9144000Y-5909000D02*
X-9144000Y-6029000D01*
X-9204000Y-5969000D02*
X-9084000Y-5969000D01*
X-9144000Y-7814000D02*
X-9144000Y-7934000D01*
X-9204000Y-7874000D02*
X-9084000Y-7874000D01*
X-8120000Y-320000D02*
X-8120000Y-440000D01*
X-8180000Y-380000D02*
X-8060000Y-380000D01*
X-8120000Y-2225000D02*
X-8120000Y-2345000D01*
X-8180000Y-2285000D02*
X-8060000Y-2285000D01*
X-8120000Y-4130000D02*
X-8120000Y-4250000D01*
X-8180000Y-4190000D02*
X-8060000Y-4190000D01*
X-8120000Y-6035000D02*
X-8120000Y-6155000D01*
X-8180000Y-6095000D02*
X-8060000Y-6095000D01*
X-8120000Y-7940000D02*
X-8120000Y-8060000D01*
X-8180000Y-8000000D02*
X-8060000Y-8000000D01*
X-7874000Y-448000D02*
X-7874000Y-568000D01*
X-7934000Y-508000D02*
X-7814000Y-508000D01*
X-7874000Y-2353000D02*
X-7874000Y-2473000D01*
X-7934000Y-2413000D02*
X-7814000Y-2413000D01*
X-7874000Y-4258000D02*
X-7874000Y-4378000D01*
X-7934000Y-4318000D02*
X-7814000Y-4318000D01*
X-7874000Y-6163000D02*
X-7874000Y-6283000D01*
X-7934000Y-6223000D02*
X-7814000Y-6223000D01*
X-7874000Y-8068000D02*
X-7874000Y-8188000D01*
X-7934000Y-8128000D02*
X-7814000Y-8128000D01*
X-7620000Y-530000D02*
X-7620000Y-650000D01*
X-7680000Y-590000D02*
X-7560000Y-590000D01*
X-7620000Y-2435000D02*
X-7620000Y-2555000D01*
X-7680000Y-2495000D02*
X-7560000Y-2495000D01*
X-7620000Y-4340000D02*
X-7620000Y-4460000D01*
X-7680000Y-4400000D02*
X-7560000Y-4400000D01*
X-7620000Y-6245000D02*
X-7620000Y-6365000D01*
X-7680000Y-6305000D02*
X-7560000Y-6305000D01*
X-7620000Y-8150000D02*
X-7620000Y-8270000D01*
X-7680000Y-8210000D02*
X-7560000Y-8210000D01*
X-7239000Y-194000D02*
X-7239000Y-314000D01*
X-7299000Y-254000D02*
X-7179000Y-254000D01*
X-7239000Y-2099000D02*
X-7239000Y-2219000D01*
X-7299000Y-2159000D02*
X-7179000Y-2159000D01*
X-7239000Y-4004000D02*
X-7239000Y-4124000D01*
X-7299000Y-4064000D02*
X-7179000Y-4064000D01*
X-7239000Y-5909000D02*
X-7239000Y-6029000D01*
X-7299000Y-5969000D02*
X-7179000Y-5969000D01*
X-7239000Y-7814000D02*
X-7239000Y-7934000D01*
X-7299000Y-7874000D02*
X-7179000Y-7874000D01*
X-6215000Y-320000D02*
X-6215000Y-440000D01*
X-6275000Y-380000D02*
X-6155000Y-380000D01*
X-6215000Y-2225000D02*
X-6215000Y-2345000D01*
X-6275000Y-2285000D02*
X-6155000Y-2285000D01*
X-6215000Y-4130000D02*
X-6215000Y-4250000D01*
X-6275000Y-4190000D02*
X-6155000Y-4190000D01*
X-6215000Y-6035000D02*
X-6215000Y-6155000D01*
X-6275000Y-6095000D02*
X-6155000Y-6095000D01*
X-6215000Y-7940000D02*
X-6215000Y-8060000D01*
X-6275000Y-8000000D02*
X-6155000Y-8000000D01*
X-5969000Y-448000D02*
X-5969000Y-568000D01*
X-6029000Y-508000D02*
X-5909000Y-508000D01*
X-5969000Y-2353000D02*
X-5969000Y-2473000D01*
X-6029000Y-2413000D02*
X-5909000Y-2413000D01*
X-5969000Y-4258000D02*
X-5969000Y-4378000D01*
X-6029000Y-4318000D02*
X-5909000Y-4318000D01*
X-5969000Y-6163000D02*
X-5969000Y-6283000D01*
X-6029000Y-6223000D02*
X-5909000Y-6223000D01*
X-5969000Y-8068000D02*
X-5969000Y-8188000D01*
X-6029000Y-8128000D02*
X-5909000Y-8128000D01*
X-5715000Y-530000D02*
X-5715000Y-650000D01*
X-5775000Y-590000D02*
X-5655000Y-590000D01*
X-5715000Y-2435000D02*
X-5715000Y-2555000D01*
X-5775000Y-2495000D02*
X-5655000Y-2495000D01*
X-5715000Y-4340000D02*
X-5715000Y-4460000D01*
X-5775000Y-4400000D02*
X-5655000Y-4400000D01*
X-5715000Y-6245000D02*
X-5715000Y-6365000D01*
X-5775000Y-6305000D02*
X-5655000Y-6305000D01*
X-5715000Y-8150000D02*
X-5715000Y-8270000D01*
X-5775000Y-8210000D02*
X-5655000Y-8210000D01*
X-5334000Y-194000D02*
X-5334000Y-314000D01*
X-5394000Y-254000D02*
X-5274000Y-254000D01*
X-5334000Y-2099000D02*
X-5334000Y-2219000D01*
X-5394000Y-2159000D02*
X-5274000Y-2159000D01*
X-5334000Y-4004000D02*
X-5334000Y-4124000D01*
X-5394000Y-4064000D02*
X-5274000Y-4064000D01*
X-5334000Y-5909000D02*
X-5334000Y-6029000D01*
X-5394000Y-5969000D02*
X-5274000Y-5969000D01*
X-5334000Y-7814000D02*
X-5334000Y-7934000D01*
X-5394000Y-7874000D02*
X-5274000Y-7874000D01*
X-4310000Y-320000D02*
X-4310000Y-440000D01*
X-4370000Y-380000D02*
X-4250000Y-380000D01*
X-4310000Y-2225000D02*
X-4310000Y-2345000D01*
X-4370000Y-2285000D02*
X-4250000Y-2285000D01*
X-4310000Y-4130000D02*
X-4310000Y-4250000D01*
X-4370000Y-4190000D02*
X-4250000Y-4190000D01*
X-4310000Y-6035000D02*
X-4310000Y-6155000D01*
X-4370000Y-6095000D02*
X-4250000Y-6095000D01*
X-4310000Y-7940000D02*
X-4310000Y-8060000D01*
X-4370000Y-8000000D02*
X-4250000Y-8000000D01*
X-4064000Y-448000D02*
X-4064000Y-568000D01*
X-4124000Y-508000D02*
X-4004000Y-508000D01*
X-4064000Y-2353000D02*
X-4064000Y-2473000D01*
X-4124000Y-2413000D02*
X-4004000Y-2413000D01*
X-4064000Y-4258000D02*
X-4064000Y-4378000D01*
X-4124000Y-4318000D02*
X-4004000Y-4318000D01*
X-4064000Y-6163000D02*
X-4064000Y-6283000D01*
X-4124000Y-6223000D02*
X-4004000Y-6223000D01*
X-4064000Y-8068000D02*
X-4064000Y-8188000D01*
X-4124000Y-8128000D02*
X-4004000Y-8128000D01*
X-3810000Y-530000D02*
X-3810000Y-650000D01*
X-3870000Y-590000D02*
X-3750000Y-590000D01*
X-3810000Y-2435000D02*
X-3810000Y-2555000D01*
X-3870000Y-2495000D02*
X-3750000Y-2495000D01*
X-3810000Y-4340000D02*
X-3810000Y-4460000D01*
X-3870000Y-4400000D02*
X-3750000Y-4400000D01*
X-3810000Y-6245000D02*
X-3810000Y-6365000D01*
X-3870000Y-6305000D02*
X-3750000Y-6305000D01*
X-3810000Y-8150000D02*
X-3810000Y-8270000D01*
X-3870000Y-8210000D02*
X-3750000Y-8210000D01*
X-3429000Y-194000D02*
X-3429000Y-314000D01*
X-3489000Y-254000D02*
X-3369000Y-254000D01*
X-3429000Y-2099000D02*
X-3429000Y-2219000D01*
X-3489000Y-2159000D02*
X-3369000Y-2159000D01*
X-3429000Y-4004000D02*
X-3429000Y-4124000D01*
X-3489000Y-4064000D02*
X-3369000Y-4064000D01*
X-3429000Y-5909000D02*
X-3429000Y-6029000D01*
X-3489000Y-5969000D02*
X-3369000Y-5969000D01*
X-3429000Y-7814000D02*
X-3429000Y-7934000D01*
X-3489000Y-7874000D02*
X-3369000Y-7874000D01*
X-2405000Y-320000D02*
X-2405000Y-440000D01*
X-2465000Y-380000D02*
X-2345000Y-380000D01*
X-2405000Y-2225000D02*
X-2405000Y-2345000D01*
X-2465000Y-2285000D02*
X-2345000Y-2285000D01*
X-2405000Y-4130000D02*
X-2405000Y-4250000D01*
X-2465000Y-4190000D02*
X-2345000Y-4190000D01*
X-2405000Y-6035000D02*
X-2405000Y-6155000D01*
X-2465000Y-6095000D02*
X-2345000Y-6095000D01*
X-2405000Y-7940000D02*
X-2405000Y-8060000D01*
X-2465000Y-8000000D02*
X-2345000Y-8000000D01*
X-2159000Y-448000D02*
X-2159000Y-568000D01*
X-2219000Y-508000D02*
X-2099000Y-508000D01*
X-2159000Y-2353000D02*
X-2159000Y-2473000D01*
X-2219000Y-2413000D02*
X-2099000Y-2413000D01*
X-2159000Y-4258000D02*
X-2159000Y-4378000D01*
X-2219000Y-4318000D02*
X-2099000Y-4318000D01*
X-2159000Y-6163000D02*
X-2159000Y-6283000D01*
X-2219000Y-6223000D02*
X-2099000Y-6223000D01*
X-2159000Y-8068000D02*
X-2159000Y-8188000D01*
X-2219000Y-8128000D02*
X-2099000Y-8128000D01*
X-1905000Y-530000D02*
X-1905000Y-650000D01*
X-1965000Y-590000D02*
X-1845000Y-590000D01*
X-1905000Y-2435000D02*
X-1905000Y-2555000D01*
X-1965000Y-2495000D02*
X-1845000Y-2495000D01*
X-1905000Y-4340000D02*
X-1905000Y-4460000D01*
X-1965000Y-4400000D02*
X-1845000Y-4400000D01*
X-1905000Y-6245000D02*
X-1905000Y-6365000D01*
X-1965000Y-6305000D02*
X-1845000Y-6305000D01*
X-1905000Y-8150000D02*
X-1905000Y-8270000D01*
X-1965000Y-8210000D02*
X-1845000Y-8210000D01*
X-1524000Y-194000D02*
X-1524000Y-314000D01*
X-1584000Y-254000D02*
X-1464000Y-254000D01*
X-1524000Y-2099000D02*
X-1524000Y-2219000D01*
X-1584000Y-2159000D02*
X-1464000Y-2159000D01*
X-1524000Y-4004000D02*
X-1524000Y-4124000D01*
X-1584000Y-4064000D02*
X-1464000Y-4064000D01*
X-1524000Y-5909000D02*
X-1524000Y-6029000D01*
X-1584000Y-5969000D02*
X-1464000Y-5969000D01*
X-1524000Y-7814000D02*
X-1524000Y-7934000D01*
X-1584000Y-7874000D02*
X-1464000Y-7874000D01*
X-500000Y-320000D02*
X-500000Y-440000D01*
X-560000Y-380000D02*
X-440000Y-380000D01*
X-500000Y-2225000D02*
X-500000Y-2345000D01*
X-560000Y-2285000D02*
X-440000Y-2285000D01*
X-500000Y-4130000D02*
X-500000Y-4250000D01*
X-560000Y-4190000D02*
X-440000Y-4190000D01*
X-500000Y-6035000D02*
X-500000Y-6155000D01*
X-560000Y-6095000D02*
X-440000Y-6095000D01*
X-500000Y-7940000D02*
X-500000Y-8060000D01*
X-560000Y-8000000D02*
X-440000Y-8000000D01*
X-254000Y-448000D02*
X-254000Y-568000D01*
X-314000Y-508000D02*
X-194000Y-508000D01*
X-254000Y-2353000D02*
X-254000Y-2473000D01*
X-314000Y-2413000D02*
X-194000Y-2413000D01*
X-254000Y-4258000D02*
X-254000Y-4378000D01*
X-314000Y-4318000D02*
X-194000Y-4318000D01*
X-254000Y-6163000D02*
X-254000Y-6283000D01*
X-314000Y-6223000D02*
X-194000Y-6223000D01*
X-254000Y-8068000D02*
X-254000Y-8188000D01*
X-314000Y-8128000D02*
X-194000Y-8128000D01*
X0Y-530000D02*
X0Y-650000D01*
X-60000Y-590000D02*
X60000Y-590000D01*
X0Y-2435000D02*
X0Y-2555000D01*
X-60000Y-2495000D02*
X60000Y-2495000D01*
X0Y-4340000D02*
X0Y-4460000D01*
X-60000Y-4400000D02*
X60000Y-4400000D01*
X0Y-6245000D02*
X0Y-6365000D01*
X-60000Y-6305000D02*
X60000Y-6305000D01*
X0Y-8150000D02*
X0Y-8270000D01*
X-60000Y-8210000D02*
X60000Y-8210000D01*
X381000Y-194000D02*
X381000Y-314000D01*
X321000Y-254000D02*
X441000Y-254000D01*
X381000Y-2099000D02*
X381000Y-2219000D01*
X321000Y-2159000D02*
X441000Y-2159000D01*
X381000Y-4004000D02*
X381000Y-4124000D01*
X321000Y-4064000D02*
X441000Y-4064000D01*
X381000Y-5909000D02*
X381000Y-6029000D01*
X321000Y-5969000D02*
X441000Y-5969000D01*
X381000Y-7814000D02*
X381000Y-7934000D01*
X321000Y-7874000D02*
X441000Y-7874000D01*
D11*
X-10479881Y-9142976D02*
X-10479881Y-8942976D01*
X-10432262Y-8942976D01*
X-10403691Y-8952500D01*
X-10384643Y-8971548D01*
X-10375119Y-8990595D01*
X-10365595Y-9028690D01*
X-10365595Y-9057262D01*
X-10375119Y-9095357D01*
X-10384643Y-9114405D01*
X-10403691Y-9133452D01*
X-10432262Y-9142976D01*
X-10479881Y-9142976D01*
X-10279881Y-9142976D02*
X-10279881Y-9009643D01*
X-10279881Y-9047738D02*
X-10270357Y-9028690D01*
X-10260833Y-9019167D01*
X-10241786Y-9009643D01*
X-10222738Y-9009643D01*
X-10156072Y-9142976D02*
X-10156072Y-9009643D01*
X-10156072Y-8942976D02*
X-10165595Y-8952500D01*
X-10156072Y-8962024D01*
X-10146548Y-8952500D01*
X-10156072Y-8942976D01*
X-10156072Y-8962024D01*
X-10032262Y-9142976D02*
X-10051310Y-9133452D01*
X-10060833Y-9114405D01*
X-10060833Y-8942976D01*
X-9927500Y-9142976D02*
X-9946548Y-9133452D01*
X-9956072Y-9114405D01*
X-9956072Y-8942976D01*
X-9698929Y-9142976D02*
X-9698929Y-8942976D01*
X-9632262Y-9085833D01*
X-9565595Y-8942976D01*
X-9565595Y-9142976D01*
X-9384643Y-9142976D02*
X-9384643Y-9038214D01*
X-9394167Y-9019167D01*
X-9413214Y-9009643D01*
X-9451310Y-9009643D01*
X-9470357Y-9019167D01*
X-9384643Y-9133452D02*
X-9403691Y-9142976D01*
X-9451310Y-9142976D01*
X-9470357Y-9133452D01*
X-9479881Y-9114405D01*
X-9479881Y-9095357D01*
X-9470357Y-9076310D01*
X-9451310Y-9066786D01*
X-9403691Y-9066786D01*
X-9384643Y-9057262D01*
X-9289405Y-9009643D02*
X-9289405Y-9209643D01*
X-9289405Y-9019167D02*
X-9270357Y-9009643D01*
X-9232262Y-9009643D01*
X-9213214Y-9019167D01*
X-9203691Y-9028690D01*
X-9194167Y-9047738D01*
X-9194167Y-9104881D01*
X-9203691Y-9123929D01*
X-9213214Y-9133452D01*
X-9232262Y-9142976D01*
X-9270357Y-9142976D01*
X-9289405Y-9133452D01*
X-9108452Y-9123929D02*
X-9098929Y-9133452D01*
X-9108452Y-9142976D01*
X-9117976Y-9133452D01*
X-9108452Y-9123929D01*
X-9108452Y-9142976D01*
X-9108452Y-9019167D02*
X-9098929Y-9028690D01*
X-9108452Y-9038214D01*
X-9117976Y-9028690D01*
X-9108452Y-9019167D01*
X-9108452Y-9038214D01*
D12*
X-10777500Y-9452500D02*
X-10737500Y-9492500D01*
X-10737500Y-9452500D02*
X-10777500Y-9492500D01*
D11*
X-10441786Y-9362976D02*
X-10422738Y-9362976D01*
X-10403691Y-9372500D01*
X-10394167Y-9382024D01*
X-10384643Y-9401071D01*
X-10375119Y-9439167D01*
X-10375119Y-9486786D01*
X-10384643Y-9524881D01*
X-10394167Y-9543929D01*
X-10403691Y-9553452D01*
X-10422738Y-9562976D01*
X-10441786Y-9562976D01*
X-10460833Y-9553452D01*
X-10470357Y-9543929D01*
X-10479881Y-9524881D01*
X-10489405Y-9486786D01*
X-10489405Y-9439167D01*
X-10479881Y-9401071D01*
X-10470357Y-9382024D01*
X-10460833Y-9372500D01*
X-10441786Y-9362976D01*
X-10289405Y-9543929D02*
X-10279881Y-9553452D01*
X-10289405Y-9562976D01*
X-10298929Y-9553452D01*
X-10289405Y-9543929D01*
X-10289405Y-9562976D01*
X-10108452Y-9429643D02*
X-10108452Y-9562976D01*
X-10156072Y-9353452D02*
X-10203691Y-9496310D01*
X-10079881Y-9496310D01*
X-9965595Y-9362976D02*
X-9946548Y-9362976D01*
X-9927500Y-9372500D01*
X-9917976Y-9382024D01*
X-9908452Y-9401071D01*
X-9898929Y-9439167D01*
X-9898929Y-9486786D01*
X-9908452Y-9524881D01*
X-9917976Y-9543929D01*
X-9927500Y-9553452D01*
X-9946548Y-9562976D01*
X-9965595Y-9562976D01*
X-9984643Y-9553452D01*
X-9994167Y-9543929D01*
X-10003691Y-9524881D01*
X-10013214Y-9486786D01*
X-10013214Y-9439167D01*
X-10003691Y-9401071D01*
X-9994167Y-9382024D01*
X-9984643Y-9372500D01*
X-9965595Y-9362976D01*
X-9775119Y-9362976D02*
X-9756072Y-9362976D01*
X-9737024Y-9372500D01*
X-9727500Y-9382024D01*
X-9717976Y-9401071D01*
X-9708452Y-9439167D01*
X-9708452Y-9486786D01*
X-9717976Y-9524881D01*
X-9727500Y-9543929D01*
X-9737024Y-9553452D01*
X-9756072Y-9562976D01*
X-9775119Y-9562976D01*
X-9794167Y-9553452D01*
X-9803691Y-9543929D01*
X-9813214Y-9524881D01*
X-9822738Y-9486786D01*
X-9822738Y-9439167D01*
X-9813214Y-9401071D01*
X-9803691Y-9382024D01*
X-9794167Y-9372500D01*
X-9775119Y-9362976D01*
X-9622738Y-9562976D02*
X-9622738Y-9429643D01*
X-9622738Y-9448690D02*
X-9613214Y-9439167D01*
X-9594167Y-9429643D01*
X-9565595Y-9429643D01*
X-9546548Y-9439167D01*
X-9537024Y-9458214D01*
X-9537024Y-9562976D01*
X-9537024Y-9458214D02*
X-9527500Y-9439167D01*
X-9508452Y-9429643D01*
X-9479881Y-9429643D01*
X-9460833Y-9439167D01*
X-9451310Y-9458214D01*
X-9451310Y-9562976D01*
X-9356072Y-9562976D02*
X-9356072Y-9429643D01*
X-9356072Y-9448690D02*
X-9346548Y-9439167D01*
X-9327500Y-9429643D01*
X-9298929Y-9429643D01*
X-9279881Y-9439167D01*
X-9270357Y-9458214D01*
X-9270357Y-9562976D01*
X-9270357Y-9458214D02*
X-9260833Y-9439167D01*
X-9241786Y-9429643D01*
X-9213214Y-9429643D01*
X-9194167Y-9439167D01*
X-9184643Y-9458214D01*
X-9184643Y-9562976D01*
X-8794167Y-9353452D02*
X-8965595Y-9610595D01*
X-8537024Y-9362976D02*
X-8517976Y-9362976D01*
X-8498929Y-9372500D01*
X-8489405Y-9382024D01*
X-8479881Y-9401071D01*
X-8470357Y-9439167D01*
X-8470357Y-9486786D01*
X-8479881Y-9524881D01*
X-8489405Y-9543929D01*
X-8498929Y-9553452D01*
X-8517976Y-9562976D01*
X-8537024Y-9562976D01*
X-8556072Y-9553452D01*
X-8565595Y-9543929D01*
X-8575119Y-9524881D01*
X-8584643Y-9486786D01*
X-8584643Y-9439167D01*
X-8575119Y-9401071D01*
X-8565595Y-9382024D01*
X-8556072Y-9372500D01*
X-8537024Y-9362976D01*
X-8384643Y-9543929D02*
X-8375119Y-9553452D01*
X-8384643Y-9562976D01*
X-8394167Y-9553452D01*
X-8384643Y-9543929D01*
X-8384643Y-9562976D01*
X-8251310Y-9362976D02*
X-8232262Y-9362976D01*
X-8213214Y-9372500D01*
X-8203690Y-9382024D01*
X-8194167Y-9401071D01*
X-8184643Y-9439167D01*
X-8184643Y-9486786D01*
X-8194167Y-9524881D01*
X-8203690Y-9543929D01*
X-8213214Y-9553452D01*
X-8232262Y-9562976D01*
X-8251310Y-9562976D01*
X-8270357Y-9553452D01*
X-8279881Y-9543929D01*
X-8289405Y-9524881D01*
X-8298929Y-9486786D01*
X-8298929Y-9439167D01*
X-8289405Y-9401071D01*
X-8279881Y-9382024D01*
X-8270357Y-9372500D01*
X-8251310Y-9362976D01*
X-7994167Y-9562976D02*
X-8108452Y-9562976D01*
X-8051310Y-9562976D02*
X-8051310Y-9362976D01*
X-8070357Y-9391548D01*
X-8089405Y-9410595D01*
X-8108452Y-9420119D01*
X-7813214Y-9362976D02*
X-7908452Y-9362976D01*
X-7917976Y-9458214D01*
X-7908452Y-9448690D01*
X-7889405Y-9439167D01*
X-7841786Y-9439167D01*
X-7822738Y-9448690D01*
X-7813214Y-9458214D01*
X-7803690Y-9477262D01*
X-7803690Y-9524881D01*
X-7813214Y-9543929D01*
X-7822738Y-9553452D01*
X-7841786Y-9562976D01*
X-7889405Y-9562976D01*
X-7908452Y-9553452D01*
X-7917976Y-9543929D01*
X-7737024Y-9362976D02*
X-7603690Y-9362976D01*
X-7689405Y-9562976D01*
X-7537024Y-9362976D02*
X-7537024Y-9401071D01*
X-7460833Y-9362976D02*
X-7460833Y-9401071D01*
X-7165595Y-9639167D02*
X-7175119Y-9629643D01*
X-7194167Y-9601071D01*
X-7203690Y-9582024D01*
X-7213214Y-9553452D01*
X-7222738Y-9505833D01*
X-7222738Y-9467738D01*
X-7213214Y-9420119D01*
X-7203690Y-9391548D01*
X-7194167Y-9372500D01*
X-7175119Y-9343929D01*
X-7165595Y-9334405D01*
X-6994167Y-9362976D02*
X-7089405Y-9362976D01*
X-7098929Y-9458214D01*
X-7089405Y-9448690D01*
X-7070357Y-9439167D01*
X-7022738Y-9439167D01*
X-7003690Y-9448690D01*
X-6994167Y-9458214D01*
X-6984643Y-9477262D01*
X-6984643Y-9524881D01*
X-6994167Y-9543929D01*
X-7003690Y-9553452D01*
X-7022738Y-9562976D01*
X-7070357Y-9562976D01*
X-7089405Y-9553452D01*
X-7098929Y-9543929D01*
X-6746548Y-9562976D02*
X-6746548Y-9362976D01*
X-6660833Y-9562976D02*
X-6660833Y-9458214D01*
X-6670357Y-9439167D01*
X-6689405Y-9429643D01*
X-6717976Y-9429643D01*
X-6737024Y-9439167D01*
X-6746548Y-9448690D01*
X-6537024Y-9562976D02*
X-6556071Y-9553452D01*
X-6565595Y-9543929D01*
X-6575119Y-9524881D01*
X-6575119Y-9467738D01*
X-6565595Y-9448690D01*
X-6556071Y-9439167D01*
X-6537024Y-9429643D01*
X-6508452Y-9429643D01*
X-6489405Y-9439167D01*
X-6479881Y-9448690D01*
X-6470357Y-9467738D01*
X-6470357Y-9524881D01*
X-6479881Y-9543929D01*
X-6489405Y-9553452D01*
X-6508452Y-9562976D01*
X-6537024Y-9562976D01*
X-6356071Y-9562976D02*
X-6375119Y-9553452D01*
X-6384643Y-9534405D01*
X-6384643Y-9362976D01*
X-6203690Y-9553452D02*
X-6222738Y-9562976D01*
X-6260833Y-9562976D01*
X-6279881Y-9553452D01*
X-6289405Y-9534405D01*
X-6289405Y-9458214D01*
X-6279881Y-9439167D01*
X-6260833Y-9429643D01*
X-6222738Y-9429643D01*
X-6203690Y-9439167D01*
X-6194167Y-9458214D01*
X-6194167Y-9477262D01*
X-6289405Y-9496310D01*
X-6117976Y-9553452D02*
X-6098929Y-9562976D01*
X-6060833Y-9562976D01*
X-6041786Y-9553452D01*
X-6032262Y-9534405D01*
X-6032262Y-9524881D01*
X-6041786Y-9505833D01*
X-6060833Y-9496310D01*
X-6089405Y-9496310D01*
X-6108452Y-9486786D01*
X-6117976Y-9467738D01*
X-6117976Y-9458214D01*
X-6108452Y-9439167D01*
X-6089405Y-9429643D01*
X-6060833Y-9429643D01*
X-6041786Y-9439167D01*
X-5965595Y-9639167D02*
X-5956071Y-9629643D01*
X-5937024Y-9601071D01*
X-5927500Y-9582024D01*
X-5917976Y-9553452D01*
X-5908452Y-9505833D01*
X-5908452Y-9467738D01*
X-5917976Y-9420119D01*
X-5927500Y-9391548D01*
X-5937024Y-9372500D01*
X-5956071Y-9343929D01*
X-5965595Y-9334405D01*
D13*
X-10737500Y-9736500D02*
G75*
G03*
X-10737500Y-9736500I-50000J0D01*
G01*
D11*
X-10375119Y-9826976D02*
X-10489405Y-9826976D01*
X-10432262Y-9826976D02*
X-10432262Y-9626976D01*
X-10451310Y-9655548D01*
X-10470357Y-9674595D01*
X-10489405Y-9684119D01*
X-10289405Y-9807929D02*
X-10279881Y-9817452D01*
X-10289405Y-9826976D01*
X-10298929Y-9817452D01*
X-10289405Y-9807929D01*
X-10289405Y-9826976D01*
X-10156072Y-9626976D02*
X-10137024Y-9626976D01*
X-10117976Y-9636500D01*
X-10108452Y-9646024D01*
X-10098929Y-9665071D01*
X-10089405Y-9703167D01*
X-10089405Y-9750786D01*
X-10098929Y-9788881D01*
X-10108452Y-9807929D01*
X-10117976Y-9817452D01*
X-10137024Y-9826976D01*
X-10156072Y-9826976D01*
X-10175119Y-9817452D01*
X-10184643Y-9807929D01*
X-10194167Y-9788881D01*
X-10203691Y-9750786D01*
X-10203691Y-9703167D01*
X-10194167Y-9665071D01*
X-10184643Y-9646024D01*
X-10175119Y-9636500D01*
X-10156072Y-9626976D01*
X-9965595Y-9626976D02*
X-9946548Y-9626976D01*
X-9927500Y-9636500D01*
X-9917976Y-9646024D01*
X-9908452Y-9665071D01*
X-9898929Y-9703167D01*
X-9898929Y-9750786D01*
X-9908452Y-9788881D01*
X-9917976Y-9807929D01*
X-9927500Y-9817452D01*
X-9946548Y-9826976D01*
X-9965595Y-9826976D01*
X-9984643Y-9817452D01*
X-9994167Y-9807929D01*
X-10003691Y-9788881D01*
X-10013214Y-9750786D01*
X-10013214Y-9703167D01*
X-10003691Y-9665071D01*
X-9994167Y-9646024D01*
X-9984643Y-9636500D01*
X-9965595Y-9626976D01*
X-9775119Y-9626976D02*
X-9756072Y-9626976D01*
X-9737024Y-9636500D01*
X-9727500Y-9646024D01*
X-9717976Y-9665071D01*
X-9708452Y-9703167D01*
X-9708452Y-9750786D01*
X-9717976Y-9788881D01*
X-9727500Y-9807929D01*
X-9737024Y-9817452D01*
X-9756072Y-9826976D01*
X-9775119Y-9826976D01*
X-9794167Y-9817452D01*
X-9803691Y-9807929D01*
X-9813214Y-9788881D01*
X-9822738Y-9750786D01*
X-9822738Y-9703167D01*
X-9813214Y-9665071D01*
X-9803691Y-9646024D01*
X-9794167Y-9636500D01*
X-9775119Y-9626976D01*
X-9622738Y-9826976D02*
X-9622738Y-9693643D01*
X-9622738Y-9712690D02*
X-9613214Y-9703167D01*
X-9594167Y-9693643D01*
X-9565595Y-9693643D01*
X-9546548Y-9703167D01*
X-9537024Y-9722214D01*
X-9537024Y-9826976D01*
X-9537024Y-9722214D02*
X-9527500Y-9703167D01*
X-9508452Y-9693643D01*
X-9479881Y-9693643D01*
X-9460833Y-9703167D01*
X-9451310Y-9722214D01*
X-9451310Y-9826976D01*
X-9356072Y-9826976D02*
X-9356072Y-9693643D01*
X-9356072Y-9712690D02*
X-9346548Y-9703167D01*
X-9327500Y-9693643D01*
X-9298929Y-9693643D01*
X-9279881Y-9703167D01*
X-9270357Y-9722214D01*
X-9270357Y-9826976D01*
X-9270357Y-9722214D02*
X-9260833Y-9703167D01*
X-9241786Y-9693643D01*
X-9213214Y-9693643D01*
X-9194167Y-9703167D01*
X-9184643Y-9722214D01*
X-9184643Y-9826976D01*
X-8794167Y-9617452D02*
X-8965595Y-9874595D01*
X-8537024Y-9626976D02*
X-8517976Y-9626976D01*
X-8498929Y-9636500D01*
X-8489405Y-9646024D01*
X-8479881Y-9665071D01*
X-8470357Y-9703167D01*
X-8470357Y-9750786D01*
X-8479881Y-9788881D01*
X-8489405Y-9807929D01*
X-8498929Y-9817452D01*
X-8517976Y-9826976D01*
X-8537024Y-9826976D01*
X-8556072Y-9817452D01*
X-8565595Y-9807929D01*
X-8575119Y-9788881D01*
X-8584643Y-9750786D01*
X-8584643Y-9703167D01*
X-8575119Y-9665071D01*
X-8565595Y-9646024D01*
X-8556072Y-9636500D01*
X-8537024Y-9626976D01*
X-8384643Y-9807929D02*
X-8375119Y-9817452D01*
X-8384643Y-9826976D01*
X-8394167Y-9817452D01*
X-8384643Y-9807929D01*
X-8384643Y-9826976D01*
X-8251310Y-9626976D02*
X-8232262Y-9626976D01*
X-8213214Y-9636500D01*
X-8203690Y-9646024D01*
X-8194167Y-9665071D01*
X-8184643Y-9703167D01*
X-8184643Y-9750786D01*
X-8194167Y-9788881D01*
X-8203690Y-9807929D01*
X-8213214Y-9817452D01*
X-8232262Y-9826976D01*
X-8251310Y-9826976D01*
X-8270357Y-9817452D01*
X-8279881Y-9807929D01*
X-8289405Y-9788881D01*
X-8298929Y-9750786D01*
X-8298929Y-9703167D01*
X-8289405Y-9665071D01*
X-8279881Y-9646024D01*
X-8270357Y-9636500D01*
X-8251310Y-9626976D01*
X-8117976Y-9626976D02*
X-7994167Y-9626976D01*
X-8060833Y-9703167D01*
X-8032262Y-9703167D01*
X-8013214Y-9712690D01*
X-8003690Y-9722214D01*
X-7994167Y-9741262D01*
X-7994167Y-9788881D01*
X-8003690Y-9807929D01*
X-8013214Y-9817452D01*
X-8032262Y-9826976D01*
X-8089405Y-9826976D01*
X-8108452Y-9817452D01*
X-8117976Y-9807929D01*
X-7898929Y-9826976D02*
X-7860833Y-9826976D01*
X-7841786Y-9817452D01*
X-7832262Y-9807929D01*
X-7813214Y-9779357D01*
X-7803690Y-9741262D01*
X-7803690Y-9665071D01*
X-7813214Y-9646024D01*
X-7822738Y-9636500D01*
X-7841786Y-9626976D01*
X-7879881Y-9626976D01*
X-7898929Y-9636500D01*
X-7908452Y-9646024D01*
X-7917976Y-9665071D01*
X-7917976Y-9712690D01*
X-7908452Y-9731738D01*
X-7898929Y-9741262D01*
X-7879881Y-9750786D01*
X-7841786Y-9750786D01*
X-7822738Y-9741262D01*
X-7813214Y-9731738D01*
X-7803690Y-9712690D01*
X-7632262Y-9693643D02*
X-7632262Y-9826976D01*
X-7679881Y-9617452D02*
X-7727500Y-9760310D01*
X-7603690Y-9760310D01*
X-7537024Y-9626976D02*
X-7537024Y-9665071D01*
X-7460833Y-9626976D02*
X-7460833Y-9665071D01*
X-7165595Y-9903167D02*
X-7175119Y-9893643D01*
X-7194167Y-9865071D01*
X-7203690Y-9846024D01*
X-7213214Y-9817452D01*
X-7222738Y-9769833D01*
X-7222738Y-9731738D01*
X-7213214Y-9684119D01*
X-7203690Y-9655548D01*
X-7194167Y-9636500D01*
X-7175119Y-9607929D01*
X-7165595Y-9598405D01*
X-6984643Y-9826976D02*
X-7098929Y-9826976D01*
X-7041786Y-9826976D02*
X-7041786Y-9626976D01*
X-7060833Y-9655548D01*
X-7079881Y-9674595D01*
X-7098929Y-9684119D01*
X-6813214Y-9693643D02*
X-6813214Y-9826976D01*
X-6860833Y-9617452D02*
X-6908452Y-9760310D01*
X-6784643Y-9760310D01*
X-6556071Y-9826976D02*
X-6556071Y-9626976D01*
X-6470357Y-9826976D02*
X-6470357Y-9722214D01*
X-6479881Y-9703167D01*
X-6498929Y-9693643D01*
X-6527500Y-9693643D01*
X-6546548Y-9703167D01*
X-6556071Y-9712690D01*
X-6346548Y-9826976D02*
X-6365595Y-9817452D01*
X-6375119Y-9807929D01*
X-6384643Y-9788881D01*
X-6384643Y-9731738D01*
X-6375119Y-9712690D01*
X-6365595Y-9703167D01*
X-6346548Y-9693643D01*
X-6317976Y-9693643D01*
X-6298929Y-9703167D01*
X-6289405Y-9712690D01*
X-6279881Y-9731738D01*
X-6279881Y-9788881D01*
X-6289405Y-9807929D01*
X-6298929Y-9817452D01*
X-6317976Y-9826976D01*
X-6346548Y-9826976D01*
X-6165595Y-9826976D02*
X-6184643Y-9817452D01*
X-6194167Y-9798405D01*
X-6194167Y-9626976D01*
X-6013214Y-9817452D02*
X-6032262Y-9826976D01*
X-6070357Y-9826976D01*
X-6089405Y-9817452D01*
X-6098929Y-9798405D01*
X-6098929Y-9722214D01*
X-6089405Y-9703167D01*
X-6070357Y-9693643D01*
X-6032262Y-9693643D01*
X-6013214Y-9703167D01*
X-6003690Y-9722214D01*
X-6003690Y-9741262D01*
X-6098929Y-9760310D01*
X-5927500Y-9817452D02*
X-5908452Y-9826976D01*
X-5870357Y-9826976D01*
X-5851310Y-9817452D01*
X-5841786Y-9798405D01*
X-5841786Y-9788881D01*
X-5851310Y-9769833D01*
X-5870357Y-9760310D01*
X-5898929Y-9760310D01*
X-5917976Y-9750786D01*
X-5927500Y-9731738D01*
X-5927500Y-9722214D01*
X-5917976Y-9703167D01*
X-5898929Y-9693643D01*
X-5870357Y-9693643D01*
X-5851310Y-9703167D01*
X-5775119Y-9903167D02*
X-5765595Y-9893643D01*
X-5746548Y-9865071D01*
X-5737024Y-9846024D01*
X-5727500Y-9817452D01*
X-5717976Y-9769833D01*
X-5717976Y-9731738D01*
X-5727500Y-9684119D01*
X-5737024Y-9655548D01*
X-5746548Y-9636500D01*
X-5765595Y-9607929D01*
X-5775119Y-9598405D01*
D14*
X-10797500Y-9940500D02*
X-10797500Y-10060500D01*
X-10857500Y-10000500D02*
X-10737500Y-10000500D01*
D11*
X-10375119Y-10090976D02*
X-10489405Y-10090976D01*
X-10432262Y-10090976D02*
X-10432262Y-9890976D01*
X-10451310Y-9919548D01*
X-10470357Y-9938595D01*
X-10489405Y-9948119D01*
X-10289405Y-10071929D02*
X-10279881Y-10081452D01*
X-10289405Y-10090976D01*
X-10298929Y-10081452D01*
X-10289405Y-10071929D01*
X-10289405Y-10090976D01*
X-10203691Y-9910024D02*
X-10194167Y-9900500D01*
X-10175119Y-9890976D01*
X-10127500Y-9890976D01*
X-10108452Y-9900500D01*
X-10098929Y-9910024D01*
X-10089405Y-9929071D01*
X-10089405Y-9948119D01*
X-10098929Y-9976690D01*
X-10213214Y-10090976D01*
X-10089405Y-10090976D01*
X-9965595Y-9890976D02*
X-9946548Y-9890976D01*
X-9927500Y-9900500D01*
X-9917976Y-9910024D01*
X-9908452Y-9929071D01*
X-9898929Y-9967167D01*
X-9898929Y-10014786D01*
X-9908452Y-10052881D01*
X-9917976Y-10071929D01*
X-9927500Y-10081452D01*
X-9946548Y-10090976D01*
X-9965595Y-10090976D01*
X-9984643Y-10081452D01*
X-9994167Y-10071929D01*
X-10003691Y-10052881D01*
X-10013214Y-10014786D01*
X-10013214Y-9967167D01*
X-10003691Y-9929071D01*
X-9994167Y-9910024D01*
X-9984643Y-9900500D01*
X-9965595Y-9890976D01*
X-9775119Y-9890976D02*
X-9756072Y-9890976D01*
X-9737024Y-9900500D01*
X-9727500Y-9910024D01*
X-9717976Y-9929071D01*
X-9708452Y-9967167D01*
X-9708452Y-10014786D01*
X-9717976Y-10052881D01*
X-9727500Y-10071929D01*
X-9737024Y-10081452D01*
X-9756072Y-10090976D01*
X-9775119Y-10090976D01*
X-9794167Y-10081452D01*
X-9803691Y-10071929D01*
X-9813214Y-10052881D01*
X-9822738Y-10014786D01*
X-9822738Y-9967167D01*
X-9813214Y-9929071D01*
X-9803691Y-9910024D01*
X-9794167Y-9900500D01*
X-9775119Y-9890976D01*
X-9622738Y-10090976D02*
X-9622738Y-9957643D01*
X-9622738Y-9976690D02*
X-9613214Y-9967167D01*
X-9594167Y-9957643D01*
X-9565595Y-9957643D01*
X-9546548Y-9967167D01*
X-9537024Y-9986214D01*
X-9537024Y-10090976D01*
X-9537024Y-9986214D02*
X-9527500Y-9967167D01*
X-9508452Y-9957643D01*
X-9479881Y-9957643D01*
X-9460833Y-9967167D01*
X-9451310Y-9986214D01*
X-9451310Y-10090976D01*
X-9356072Y-10090976D02*
X-9356072Y-9957643D01*
X-9356072Y-9976690D02*
X-9346548Y-9967167D01*
X-9327500Y-9957643D01*
X-9298929Y-9957643D01*
X-9279881Y-9967167D01*
X-9270357Y-9986214D01*
X-9270357Y-10090976D01*
X-9270357Y-9986214D02*
X-9260833Y-9967167D01*
X-9241786Y-9957643D01*
X-9213214Y-9957643D01*
X-9194167Y-9967167D01*
X-9184643Y-9986214D01*
X-9184643Y-10090976D01*
X-8794167Y-9881452D02*
X-8965595Y-10138595D01*
X-8537024Y-9890976D02*
X-8517976Y-9890976D01*
X-8498929Y-9900500D01*
X-8489405Y-9910024D01*
X-8479881Y-9929071D01*
X-8470357Y-9967167D01*
X-8470357Y-10014786D01*
X-8479881Y-10052881D01*
X-8489405Y-10071929D01*
X-8498929Y-10081452D01*
X-8517976Y-10090976D01*
X-8537024Y-10090976D01*
X-8556072Y-10081452D01*
X-8565595Y-10071929D01*
X-8575119Y-10052881D01*
X-8584643Y-10014786D01*
X-8584643Y-9967167D01*
X-8575119Y-9929071D01*
X-8565595Y-9910024D01*
X-8556072Y-9900500D01*
X-8537024Y-9890976D01*
X-8384643Y-10071929D02*
X-8375119Y-10081452D01*
X-8384643Y-10090976D01*
X-8394167Y-10081452D01*
X-8384643Y-10071929D01*
X-8384643Y-10090976D01*
X-8251310Y-9890976D02*
X-8232262Y-9890976D01*
X-8213214Y-9900500D01*
X-8203690Y-9910024D01*
X-8194167Y-9929071D01*
X-8184643Y-9967167D01*
X-8184643Y-10014786D01*
X-8194167Y-10052881D01*
X-8203690Y-10071929D01*
X-8213214Y-10081452D01*
X-8232262Y-10090976D01*
X-8251310Y-10090976D01*
X-8270357Y-10081452D01*
X-8279881Y-10071929D01*
X-8289405Y-10052881D01*
X-8298929Y-10014786D01*
X-8298929Y-9967167D01*
X-8289405Y-9929071D01*
X-8279881Y-9910024D01*
X-8270357Y-9900500D01*
X-8251310Y-9890976D01*
X-8013214Y-9957643D02*
X-8013214Y-10090976D01*
X-8060833Y-9881452D02*
X-8108452Y-10024310D01*
X-7984643Y-10024310D01*
X-7927500Y-9890976D02*
X-7794167Y-9890976D01*
X-7879881Y-10090976D01*
X-7727500Y-9910024D02*
X-7717976Y-9900500D01*
X-7698929Y-9890976D01*
X-7651310Y-9890976D01*
X-7632262Y-9900500D01*
X-7622738Y-9910024D01*
X-7613214Y-9929071D01*
X-7613214Y-9948119D01*
X-7622738Y-9976690D01*
X-7737024Y-10090976D01*
X-7613214Y-10090976D01*
X-7537024Y-9890976D02*
X-7537024Y-9929071D01*
X-7460833Y-9890976D02*
X-7460833Y-9929071D01*
X-7165595Y-10167167D02*
X-7175119Y-10157643D01*
X-7194167Y-10129071D01*
X-7203690Y-10110024D01*
X-7213214Y-10081452D01*
X-7222738Y-10033833D01*
X-7222738Y-9995738D01*
X-7213214Y-9948119D01*
X-7203690Y-9919548D01*
X-7194167Y-9900500D01*
X-7175119Y-9871929D01*
X-7165595Y-9862405D01*
X-6984643Y-10090976D02*
X-7098929Y-10090976D01*
X-7041786Y-10090976D02*
X-7041786Y-9890976D01*
X-7060833Y-9919548D01*
X-7079881Y-9938595D01*
X-7098929Y-9948119D01*
X-6908452Y-9910024D02*
X-6898929Y-9900500D01*
X-6879881Y-9890976D01*
X-6832262Y-9890976D01*
X-6813214Y-9900500D01*
X-6803690Y-9910024D01*
X-6794167Y-9929071D01*
X-6794167Y-9948119D01*
X-6803690Y-9976690D01*
X-6917976Y-10090976D01*
X-6794167Y-10090976D01*
X-6670357Y-9890976D02*
X-6651310Y-9890976D01*
X-6632262Y-9900500D01*
X-6622738Y-9910024D01*
X-6613214Y-9929071D01*
X-6603690Y-9967167D01*
X-6603690Y-10014786D01*
X-6613214Y-10052881D01*
X-6622738Y-10071929D01*
X-6632262Y-10081452D01*
X-6651310Y-10090976D01*
X-6670357Y-10090976D01*
X-6689405Y-10081452D01*
X-6698929Y-10071929D01*
X-6708452Y-10052881D01*
X-6717976Y-10014786D01*
X-6717976Y-9967167D01*
X-6708452Y-9929071D01*
X-6698929Y-9910024D01*
X-6689405Y-9900500D01*
X-6670357Y-9890976D01*
X-6365595Y-10090976D02*
X-6365595Y-9890976D01*
X-6279881Y-10090976D02*
X-6279881Y-9986214D01*
X-6289405Y-9967167D01*
X-6308452Y-9957643D01*
X-6337024Y-9957643D01*
X-6356071Y-9967167D01*
X-6365595Y-9976690D01*
X-6156071Y-10090976D02*
X-6175119Y-10081452D01*
X-6184643Y-10071929D01*
X-6194167Y-10052881D01*
X-6194167Y-9995738D01*
X-6184643Y-9976690D01*
X-6175119Y-9967167D01*
X-6156071Y-9957643D01*
X-6127500Y-9957643D01*
X-6108452Y-9967167D01*
X-6098929Y-9976690D01*
X-6089405Y-9995738D01*
X-6089405Y-10052881D01*
X-6098929Y-10071929D01*
X-6108452Y-10081452D01*
X-6127500Y-10090976D01*
X-6156071Y-10090976D01*
X-5975119Y-10090976D02*
X-5994167Y-10081452D01*
X-6003690Y-10062405D01*
X-6003690Y-9890976D01*
X-5822738Y-10081452D02*
X-5841786Y-10090976D01*
X-5879881Y-10090976D01*
X-5898929Y-10081452D01*
X-5908452Y-10062405D01*
X-5908452Y-9986214D01*
X-5898929Y-9967167D01*
X-5879881Y-9957643D01*
X-5841786Y-9957643D01*
X-5822738Y-9967167D01*
X-5813214Y-9986214D01*
X-5813214Y-10005262D01*
X-5908452Y-10024310D01*
X-5737024Y-10081452D02*
X-5717976Y-10090976D01*
X-5679881Y-10090976D01*
X-5660833Y-10081452D01*
X-5651310Y-10062405D01*
X-5651310Y-10052881D01*
X-5660833Y-10033833D01*
X-5679881Y-10024310D01*
X-5708452Y-10024310D01*
X-5727500Y-10014786D01*
X-5737024Y-9995738D01*
X-5737024Y-9986214D01*
X-5727500Y-9967167D01*
X-5708452Y-9957643D01*
X-5679881Y-9957643D01*
X-5660833Y-9967167D01*
X-5584643Y-10167167D02*
X-5575119Y-10157643D01*
X-5556072Y-10129071D01*
X-5546548Y-10110024D01*
X-5537024Y-10081452D01*
X-5527500Y-10033833D01*
X-5527500Y-9995738D01*
X-5537024Y-9948119D01*
X-5546548Y-9919548D01*
X-5556072Y-9900500D01*
X-5575119Y-9871929D01*
X-5584643Y-9862405D01*
M02*
