%TF.GenerationSoftware,KiCad,Pcbnew,(6.0.7-1)-1*%
%TF.CreationDate,2022-08-07T13:04:05+08:00*%
%TF.ProjectId,Pragmatic,50726167-6d61-4746-9963-2e6b69636164,3*%
%TF.SameCoordinates,PX9157080PY3680a30*%
%TF.FileFunction,Drillmap*%
%TF.FilePolarity,Positive*%
%FSLAX45Y45*%
G04 Gerber Fmt 4.5, Leading zero omitted, Abs format (unit mm)*
G04 Created by KiCad (PCBNEW (6.0.7-1)-1) date 2022-08-07 13:04:05*
%MOMM*%
%LPD*%
G01*
G04 APERTURE LIST*
%ADD10C,0.120000*%
%ADD11C,0.200000*%
%ADD12C,0.170180*%
%ADD13C,0.190000*%
%ADD14C,0.250000*%
%ADD15C,0.300000*%
%ADD16C,0.400000*%
G04 APERTURE END LIST*
D10*
X-10477500Y-8826500D02*
X952500Y-8826500D01*
X952500Y-8826500D02*
G75*
G03*
X1206500Y-8572500I0J254000D01*
G01*
X1206500Y1905000D02*
G75*
G03*
X952500Y2159000I-254000J0D01*
G01*
X1206500Y1905000D02*
X1206500Y-8572500D01*
X-10731500Y-8572500D02*
G75*
G03*
X-10477500Y-8826500I254000J0D01*
G01*
X952500Y2159000D02*
X-10477500Y2159000D01*
X-10477500Y2159000D02*
G75*
G03*
X-10731500Y1905000I0J-254000D01*
G01*
X-10731500Y1905000D02*
X-10731500Y-8572500D01*
D11*
D12*
X-10160090Y85090D02*
X-9989910Y-85090D01*
X-9989910Y85090D02*
X-10160090Y-85090D01*
X-10160090Y-1819910D02*
X-9989910Y-1990090D01*
X-9989910Y-1819910D02*
X-10160090Y-1990090D01*
X-10160090Y-3724910D02*
X-9989910Y-3895090D01*
X-9989910Y-3724910D02*
X-10160090Y-3895090D01*
X-10160090Y-5629910D02*
X-9989910Y-5800090D01*
X-9989910Y-5629910D02*
X-10160090Y-5800090D01*
X-10160090Y-7534910D02*
X-9989910Y-7705090D01*
X-9989910Y-7534910D02*
X-10160090Y-7705090D01*
X-9060090Y85090D02*
X-8889910Y-85090D01*
X-8889910Y85090D02*
X-9060090Y-85090D01*
X-9060090Y-1819910D02*
X-8889910Y-1990090D01*
X-8889910Y-1819910D02*
X-9060090Y-1990090D01*
X-9060090Y-3724910D02*
X-8889910Y-3895090D01*
X-8889910Y-3724910D02*
X-9060090Y-3895090D01*
X-9060090Y-5629910D02*
X-8889910Y-5800090D01*
X-8889910Y-5629910D02*
X-9060090Y-5800090D01*
X-9060090Y-7534910D02*
X-8889910Y-7705090D01*
X-8889910Y-7534910D02*
X-9060090Y-7705090D01*
X-8255090Y85090D02*
X-8084910Y-85090D01*
X-8084910Y85090D02*
X-8255090Y-85090D01*
X-8255090Y-1819910D02*
X-8084910Y-1990090D01*
X-8084910Y-1819910D02*
X-8255090Y-1990090D01*
X-8255090Y-3724910D02*
X-8084910Y-3895090D01*
X-8084910Y-3724910D02*
X-8255090Y-3895090D01*
X-8255090Y-5629910D02*
X-8084910Y-5800090D01*
X-8084910Y-5629910D02*
X-8255090Y-5800090D01*
X-8255090Y-7534910D02*
X-8084910Y-7705090D01*
X-8084910Y-7534910D02*
X-8255090Y-7705090D01*
X-7155090Y85090D02*
X-6984910Y-85090D01*
X-6984910Y85090D02*
X-7155090Y-85090D01*
X-7155090Y-1819910D02*
X-6984910Y-1990090D01*
X-6984910Y-1819910D02*
X-7155090Y-1990090D01*
X-7155090Y-3724910D02*
X-6984910Y-3895090D01*
X-6984910Y-3724910D02*
X-7155090Y-3895090D01*
X-7155090Y-5629910D02*
X-6984910Y-5800090D01*
X-6984910Y-5629910D02*
X-7155090Y-5800090D01*
X-7155090Y-7534910D02*
X-6984910Y-7705090D01*
X-6984910Y-7534910D02*
X-7155090Y-7705090D01*
X-6350090Y85090D02*
X-6179910Y-85090D01*
X-6179910Y85090D02*
X-6350090Y-85090D01*
X-6350090Y-1819910D02*
X-6179910Y-1990090D01*
X-6179910Y-1819910D02*
X-6350090Y-1990090D01*
X-6350090Y-3724910D02*
X-6179910Y-3895090D01*
X-6179910Y-3724910D02*
X-6350090Y-3895090D01*
X-6350090Y-5629910D02*
X-6179910Y-5800090D01*
X-6179910Y-5629910D02*
X-6350090Y-5800090D01*
X-6350090Y-7534910D02*
X-6179910Y-7705090D01*
X-6179910Y-7534910D02*
X-6350090Y-7705090D01*
X-5250090Y85090D02*
X-5079910Y-85090D01*
X-5079910Y85090D02*
X-5250090Y-85090D01*
X-5250090Y-1819910D02*
X-5079910Y-1990090D01*
X-5079910Y-1819910D02*
X-5250090Y-1990090D01*
X-5250090Y-3724910D02*
X-5079910Y-3895090D01*
X-5079910Y-3724910D02*
X-5250090Y-3895090D01*
X-5250090Y-5629910D02*
X-5079910Y-5800090D01*
X-5079910Y-5629910D02*
X-5250090Y-5800090D01*
X-5250090Y-7534910D02*
X-5079910Y-7705090D01*
X-5079910Y-7534910D02*
X-5250090Y-7705090D01*
X-4445090Y85090D02*
X-4274910Y-85090D01*
X-4274910Y85090D02*
X-4445090Y-85090D01*
X-4445090Y-1819910D02*
X-4274910Y-1990090D01*
X-4274910Y-1819910D02*
X-4445090Y-1990090D01*
X-4445090Y-3724910D02*
X-4274910Y-3895090D01*
X-4274910Y-3724910D02*
X-4445090Y-3895090D01*
X-4445090Y-5629910D02*
X-4274910Y-5800090D01*
X-4274910Y-5629910D02*
X-4445090Y-5800090D01*
X-4445090Y-7534910D02*
X-4274910Y-7705090D01*
X-4274910Y-7534910D02*
X-4445090Y-7705090D01*
X-3345090Y85090D02*
X-3174910Y-85090D01*
X-3174910Y85090D02*
X-3345090Y-85090D01*
X-3345090Y-1819910D02*
X-3174910Y-1990090D01*
X-3174910Y-1819910D02*
X-3345090Y-1990090D01*
X-3345090Y-3724910D02*
X-3174910Y-3895090D01*
X-3174910Y-3724910D02*
X-3345090Y-3895090D01*
X-3345090Y-5629910D02*
X-3174910Y-5800090D01*
X-3174910Y-5629910D02*
X-3345090Y-5800090D01*
X-3345090Y-7534910D02*
X-3174910Y-7705090D01*
X-3174910Y-7534910D02*
X-3345090Y-7705090D01*
X-2540090Y85090D02*
X-2369910Y-85090D01*
X-2369910Y85090D02*
X-2540090Y-85090D01*
X-2540090Y-1819910D02*
X-2369910Y-1990090D01*
X-2369910Y-1819910D02*
X-2540090Y-1990090D01*
X-2540090Y-3724910D02*
X-2369910Y-3895090D01*
X-2369910Y-3724910D02*
X-2540090Y-3895090D01*
X-2540090Y-5629910D02*
X-2369910Y-5800090D01*
X-2369910Y-5629910D02*
X-2540090Y-5800090D01*
X-2540090Y-7534910D02*
X-2369910Y-7705090D01*
X-2369910Y-7534910D02*
X-2540090Y-7705090D01*
X-1440090Y85090D02*
X-1269910Y-85090D01*
X-1269910Y85090D02*
X-1440090Y-85090D01*
X-1440090Y-1819910D02*
X-1269910Y-1990090D01*
X-1269910Y-1819910D02*
X-1440090Y-1990090D01*
X-1440090Y-3724910D02*
X-1269910Y-3895090D01*
X-1269910Y-3724910D02*
X-1440090Y-3895090D01*
X-1440090Y-5629910D02*
X-1269910Y-5800090D01*
X-1269910Y-5629910D02*
X-1440090Y-5800090D01*
X-1440090Y-7534910D02*
X-1269910Y-7705090D01*
X-1269910Y-7534910D02*
X-1440090Y-7705090D01*
X-635090Y85090D02*
X-464910Y-85090D01*
X-464910Y85090D02*
X-635090Y-85090D01*
X-635090Y-1819910D02*
X-464910Y-1990090D01*
X-464910Y-1819910D02*
X-635090Y-1990090D01*
X-635090Y-3724910D02*
X-464910Y-3895090D01*
X-464910Y-3724910D02*
X-635090Y-3895090D01*
X-635090Y-5629910D02*
X-464910Y-5800090D01*
X-464910Y-5629910D02*
X-635090Y-5800090D01*
X-635090Y-7534910D02*
X-464910Y-7705090D01*
X-464910Y-7534910D02*
X-635090Y-7705090D01*
X464910Y85090D02*
X635090Y-85090D01*
X635090Y85090D02*
X464910Y-85090D01*
X464910Y-1819910D02*
X635090Y-1990090D01*
X635090Y-1819910D02*
X464910Y-1990090D01*
X464910Y-3724910D02*
X635090Y-3895090D01*
X635090Y-3724910D02*
X464910Y-3895090D01*
X464910Y-5629910D02*
X635090Y-5800090D01*
X635090Y-5629910D02*
X464910Y-5800090D01*
X464910Y-7534910D02*
X635090Y-7705090D01*
X635090Y-7534910D02*
X464910Y-7705090D01*
D13*
X-9938000Y0D02*
G75*
G03*
X-9938000Y0I-95000J0D01*
G01*
X-9938000Y-1905000D02*
G75*
G03*
X-9938000Y-1905000I-95000J0D01*
G01*
X-9938000Y-3810000D02*
G75*
G03*
X-9938000Y-3810000I-95000J0D01*
G01*
X-9938000Y-5715000D02*
G75*
G03*
X-9938000Y-5715000I-95000J0D01*
G01*
X-9938000Y-7620000D02*
G75*
G03*
X-9938000Y-7620000I-95000J0D01*
G01*
X-8922000Y0D02*
G75*
G03*
X-8922000Y0I-95000J0D01*
G01*
X-8922000Y-1905000D02*
G75*
G03*
X-8922000Y-1905000I-95000J0D01*
G01*
X-8922000Y-3810000D02*
G75*
G03*
X-8922000Y-3810000I-95000J0D01*
G01*
X-8922000Y-5715000D02*
G75*
G03*
X-8922000Y-5715000I-95000J0D01*
G01*
X-8922000Y-7620000D02*
G75*
G03*
X-8922000Y-7620000I-95000J0D01*
G01*
X-8033000Y0D02*
G75*
G03*
X-8033000Y0I-95000J0D01*
G01*
X-8033000Y-1905000D02*
G75*
G03*
X-8033000Y-1905000I-95000J0D01*
G01*
X-8033000Y-3810000D02*
G75*
G03*
X-8033000Y-3810000I-95000J0D01*
G01*
X-8033000Y-5715000D02*
G75*
G03*
X-8033000Y-5715000I-95000J0D01*
G01*
X-8033000Y-7620000D02*
G75*
G03*
X-8033000Y-7620000I-95000J0D01*
G01*
X-7017000Y0D02*
G75*
G03*
X-7017000Y0I-95000J0D01*
G01*
X-7017000Y-1905000D02*
G75*
G03*
X-7017000Y-1905000I-95000J0D01*
G01*
X-7017000Y-3810000D02*
G75*
G03*
X-7017000Y-3810000I-95000J0D01*
G01*
X-7017000Y-5715000D02*
G75*
G03*
X-7017000Y-5715000I-95000J0D01*
G01*
X-7017000Y-7620000D02*
G75*
G03*
X-7017000Y-7620000I-95000J0D01*
G01*
X-6128000Y0D02*
G75*
G03*
X-6128000Y0I-95000J0D01*
G01*
X-6128000Y-1905000D02*
G75*
G03*
X-6128000Y-1905000I-95000J0D01*
G01*
X-6128000Y-3810000D02*
G75*
G03*
X-6128000Y-3810000I-95000J0D01*
G01*
X-6128000Y-5715000D02*
G75*
G03*
X-6128000Y-5715000I-95000J0D01*
G01*
X-6128000Y-7620000D02*
G75*
G03*
X-6128000Y-7620000I-95000J0D01*
G01*
X-5112000Y0D02*
G75*
G03*
X-5112000Y0I-95000J0D01*
G01*
X-5112000Y-1905000D02*
G75*
G03*
X-5112000Y-1905000I-95000J0D01*
G01*
X-5112000Y-3810000D02*
G75*
G03*
X-5112000Y-3810000I-95000J0D01*
G01*
X-5112000Y-5715000D02*
G75*
G03*
X-5112000Y-5715000I-95000J0D01*
G01*
X-5112000Y-7620000D02*
G75*
G03*
X-5112000Y-7620000I-95000J0D01*
G01*
X-4223000Y0D02*
G75*
G03*
X-4223000Y0I-95000J0D01*
G01*
X-4223000Y-1905000D02*
G75*
G03*
X-4223000Y-1905000I-95000J0D01*
G01*
X-4223000Y-3810000D02*
G75*
G03*
X-4223000Y-3810000I-95000J0D01*
G01*
X-4223000Y-5715000D02*
G75*
G03*
X-4223000Y-5715000I-95000J0D01*
G01*
X-4223000Y-7620000D02*
G75*
G03*
X-4223000Y-7620000I-95000J0D01*
G01*
X-3207000Y0D02*
G75*
G03*
X-3207000Y0I-95000J0D01*
G01*
X-3207000Y-1905000D02*
G75*
G03*
X-3207000Y-1905000I-95000J0D01*
G01*
X-3207000Y-3810000D02*
G75*
G03*
X-3207000Y-3810000I-95000J0D01*
G01*
X-3207000Y-5715000D02*
G75*
G03*
X-3207000Y-5715000I-95000J0D01*
G01*
X-3207000Y-7620000D02*
G75*
G03*
X-3207000Y-7620000I-95000J0D01*
G01*
X-2318000Y0D02*
G75*
G03*
X-2318000Y0I-95000J0D01*
G01*
X-2318000Y-1905000D02*
G75*
G03*
X-2318000Y-1905000I-95000J0D01*
G01*
X-2318000Y-3810000D02*
G75*
G03*
X-2318000Y-3810000I-95000J0D01*
G01*
X-2318000Y-5715000D02*
G75*
G03*
X-2318000Y-5715000I-95000J0D01*
G01*
X-2318000Y-7620000D02*
G75*
G03*
X-2318000Y-7620000I-95000J0D01*
G01*
X-1302000Y0D02*
G75*
G03*
X-1302000Y0I-95000J0D01*
G01*
X-1302000Y-1905000D02*
G75*
G03*
X-1302000Y-1905000I-95000J0D01*
G01*
X-1302000Y-3810000D02*
G75*
G03*
X-1302000Y-3810000I-95000J0D01*
G01*
X-1302000Y-5715000D02*
G75*
G03*
X-1302000Y-5715000I-95000J0D01*
G01*
X-1302000Y-7620000D02*
G75*
G03*
X-1302000Y-7620000I-95000J0D01*
G01*
X-413000Y0D02*
G75*
G03*
X-413000Y0I-95000J0D01*
G01*
X-413000Y-1905000D02*
G75*
G03*
X-413000Y-1905000I-95000J0D01*
G01*
X-413000Y-3810000D02*
G75*
G03*
X-413000Y-3810000I-95000J0D01*
G01*
X-413000Y-5715000D02*
G75*
G03*
X-413000Y-5715000I-95000J0D01*
G01*
X-413000Y-7620000D02*
G75*
G03*
X-413000Y-7620000I-95000J0D01*
G01*
X603000Y0D02*
G75*
G03*
X603000Y0I-95000J0D01*
G01*
X603000Y-1905000D02*
G75*
G03*
X603000Y-1905000I-95000J0D01*
G01*
X603000Y-3810000D02*
G75*
G03*
X603000Y-3810000I-95000J0D01*
G01*
X603000Y-5715000D02*
G75*
G03*
X603000Y-5715000I-95000J0D01*
G01*
X603000Y-7620000D02*
G75*
G03*
X603000Y-7620000I-95000J0D01*
G01*
D14*
X-8572500Y-827500D02*
X-8572500Y-1077500D01*
X-8697500Y-952500D02*
X-8447500Y-952500D01*
X-8572500Y-6542500D02*
X-8572500Y-6792500D01*
X-8697500Y-6667500D02*
X-8447500Y-6667500D01*
X-4762500Y-4637500D02*
X-4762500Y-4887500D01*
X-4887500Y-4762500D02*
X-4637500Y-4762500D01*
X-952500Y-827500D02*
X-952500Y-1077500D01*
X-1077500Y-952500D02*
X-827500Y-952500D01*
X-952500Y-6542500D02*
X-952500Y-6792500D01*
X-1077500Y-6667500D02*
X-827500Y-6667500D01*
D15*
X-9799933Y147933D02*
X-9799933Y360067D01*
X-10012067Y360067D01*
X-10012067Y147933D01*
X-9799933Y147933D01*
X-9799933Y-1757067D02*
X-9799933Y-1544933D01*
X-10012067Y-1544933D01*
X-10012067Y-1757067D01*
X-9799933Y-1757067D01*
X-9799933Y-3662067D02*
X-9799933Y-3449933D01*
X-10012067Y-3449933D01*
X-10012067Y-3662067D01*
X-9799933Y-3662067D01*
X-9799933Y-5567067D02*
X-9799933Y-5354933D01*
X-10012067Y-5354933D01*
X-10012067Y-5567067D01*
X-9799933Y-5567067D01*
X-9799933Y-7472067D02*
X-9799933Y-7259933D01*
X-10012067Y-7259933D01*
X-10012067Y-7472067D01*
X-9799933Y-7472067D01*
X-9164933Y401933D02*
X-9164933Y614067D01*
X-9377067Y614067D01*
X-9377067Y401933D01*
X-9164933Y401933D01*
X-9164933Y-1503067D02*
X-9164933Y-1290933D01*
X-9377067Y-1290933D01*
X-9377067Y-1503067D01*
X-9164933Y-1503067D01*
X-9164933Y-3408067D02*
X-9164933Y-3195933D01*
X-9377067Y-3195933D01*
X-9377067Y-3408067D01*
X-9164933Y-3408067D01*
X-9164933Y-5313067D02*
X-9164933Y-5100933D01*
X-9377067Y-5100933D01*
X-9377067Y-5313067D01*
X-9164933Y-5313067D01*
X-9164933Y-7218067D02*
X-9164933Y-7005933D01*
X-9377067Y-7005933D01*
X-9377067Y-7218067D01*
X-9164933Y-7218067D01*
X-7894933Y147933D02*
X-7894933Y360067D01*
X-8107067Y360067D01*
X-8107067Y147933D01*
X-7894933Y147933D01*
X-7894933Y-1757067D02*
X-7894933Y-1544933D01*
X-8107067Y-1544933D01*
X-8107067Y-1757067D01*
X-7894933Y-1757067D01*
X-7894933Y-3662067D02*
X-7894933Y-3449933D01*
X-8107067Y-3449933D01*
X-8107067Y-3662067D01*
X-7894933Y-3662067D01*
X-7894933Y-5567067D02*
X-7894933Y-5354933D01*
X-8107067Y-5354933D01*
X-8107067Y-5567067D01*
X-7894933Y-5567067D01*
X-7894933Y-7472067D02*
X-7894933Y-7259933D01*
X-8107067Y-7259933D01*
X-8107067Y-7472067D01*
X-7894933Y-7472067D01*
X-7259933Y401933D02*
X-7259933Y614067D01*
X-7472067Y614067D01*
X-7472067Y401933D01*
X-7259933Y401933D01*
X-7259933Y-1503067D02*
X-7259933Y-1290933D01*
X-7472067Y-1290933D01*
X-7472067Y-1503067D01*
X-7259933Y-1503067D01*
X-7259933Y-3408067D02*
X-7259933Y-3195933D01*
X-7472067Y-3195933D01*
X-7472067Y-3408067D01*
X-7259933Y-3408067D01*
X-7259933Y-5313067D02*
X-7259933Y-5100933D01*
X-7472067Y-5100933D01*
X-7472067Y-5313067D01*
X-7259933Y-5313067D01*
X-7259933Y-7218067D02*
X-7259933Y-7005933D01*
X-7472067Y-7005933D01*
X-7472067Y-7218067D01*
X-7259933Y-7218067D01*
X-5989933Y147933D02*
X-5989933Y360067D01*
X-6202067Y360067D01*
X-6202067Y147933D01*
X-5989933Y147933D01*
X-5989933Y-1757067D02*
X-5989933Y-1544933D01*
X-6202067Y-1544933D01*
X-6202067Y-1757067D01*
X-5989933Y-1757067D01*
X-5989933Y-3662067D02*
X-5989933Y-3449933D01*
X-6202067Y-3449933D01*
X-6202067Y-3662067D01*
X-5989933Y-3662067D01*
X-5989933Y-5567067D02*
X-5989933Y-5354933D01*
X-6202067Y-5354933D01*
X-6202067Y-5567067D01*
X-5989933Y-5567067D01*
X-5989933Y-7472067D02*
X-5989933Y-7259933D01*
X-6202067Y-7259933D01*
X-6202067Y-7472067D01*
X-5989933Y-7472067D01*
X-5354933Y401933D02*
X-5354933Y614067D01*
X-5567067Y614067D01*
X-5567067Y401933D01*
X-5354933Y401933D01*
X-5354933Y-1503067D02*
X-5354933Y-1290933D01*
X-5567067Y-1290933D01*
X-5567067Y-1503067D01*
X-5354933Y-1503067D01*
X-5354933Y-3408067D02*
X-5354933Y-3195933D01*
X-5567067Y-3195933D01*
X-5567067Y-3408067D01*
X-5354933Y-3408067D01*
X-5354933Y-5313067D02*
X-5354933Y-5100933D01*
X-5567067Y-5100933D01*
X-5567067Y-5313067D01*
X-5354933Y-5313067D01*
X-5354933Y-7218067D02*
X-5354933Y-7005933D01*
X-5567067Y-7005933D01*
X-5567067Y-7218067D01*
X-5354933Y-7218067D01*
X-4084933Y147933D02*
X-4084933Y360067D01*
X-4297067Y360067D01*
X-4297067Y147933D01*
X-4084933Y147933D01*
X-4084933Y-1757067D02*
X-4084933Y-1544933D01*
X-4297067Y-1544933D01*
X-4297067Y-1757067D01*
X-4084933Y-1757067D01*
X-4084933Y-3662067D02*
X-4084933Y-3449933D01*
X-4297067Y-3449933D01*
X-4297067Y-3662067D01*
X-4084933Y-3662067D01*
X-4084933Y-5567067D02*
X-4084933Y-5354933D01*
X-4297067Y-5354933D01*
X-4297067Y-5567067D01*
X-4084933Y-5567067D01*
X-4084933Y-7472067D02*
X-4084933Y-7259933D01*
X-4297067Y-7259933D01*
X-4297067Y-7472067D01*
X-4084933Y-7472067D01*
X-3449933Y401933D02*
X-3449933Y614067D01*
X-3662067Y614067D01*
X-3662067Y401933D01*
X-3449933Y401933D01*
X-3449933Y-1503067D02*
X-3449933Y-1290933D01*
X-3662067Y-1290933D01*
X-3662067Y-1503067D01*
X-3449933Y-1503067D01*
X-3449933Y-3408067D02*
X-3449933Y-3195933D01*
X-3662067Y-3195933D01*
X-3662067Y-3408067D01*
X-3449933Y-3408067D01*
X-3449933Y-5313067D02*
X-3449933Y-5100933D01*
X-3662067Y-5100933D01*
X-3662067Y-5313067D01*
X-3449933Y-5313067D01*
X-3449933Y-7218067D02*
X-3449933Y-7005933D01*
X-3662067Y-7005933D01*
X-3662067Y-7218067D01*
X-3449933Y-7218067D01*
X-2179933Y147933D02*
X-2179933Y360067D01*
X-2392067Y360067D01*
X-2392067Y147933D01*
X-2179933Y147933D01*
X-2179933Y-1757067D02*
X-2179933Y-1544933D01*
X-2392067Y-1544933D01*
X-2392067Y-1757067D01*
X-2179933Y-1757067D01*
X-2179933Y-3662067D02*
X-2179933Y-3449933D01*
X-2392067Y-3449933D01*
X-2392067Y-3662067D01*
X-2179933Y-3662067D01*
X-2179933Y-5567067D02*
X-2179933Y-5354933D01*
X-2392067Y-5354933D01*
X-2392067Y-5567067D01*
X-2179933Y-5567067D01*
X-2179933Y-7472067D02*
X-2179933Y-7259933D01*
X-2392067Y-7259933D01*
X-2392067Y-7472067D01*
X-2179933Y-7472067D01*
X-1544933Y401933D02*
X-1544933Y614067D01*
X-1757067Y614067D01*
X-1757067Y401933D01*
X-1544933Y401933D01*
X-1544933Y-1503067D02*
X-1544933Y-1290933D01*
X-1757067Y-1290933D01*
X-1757067Y-1503067D01*
X-1544933Y-1503067D01*
X-1544933Y-3408067D02*
X-1544933Y-3195933D01*
X-1757067Y-3195933D01*
X-1757067Y-3408067D01*
X-1544933Y-3408067D01*
X-1544933Y-5313067D02*
X-1544933Y-5100933D01*
X-1757067Y-5100933D01*
X-1757067Y-5313067D01*
X-1544933Y-5313067D01*
X-1544933Y-7218067D02*
X-1544933Y-7005933D01*
X-1757067Y-7005933D01*
X-1757067Y-7218067D01*
X-1544933Y-7218067D01*
X-274933Y147933D02*
X-274933Y360067D01*
X-487067Y360067D01*
X-487067Y147933D01*
X-274933Y147933D01*
X-274933Y-1757067D02*
X-274933Y-1544933D01*
X-487067Y-1544933D01*
X-487067Y-1757067D01*
X-274933Y-1757067D01*
X-274933Y-3662067D02*
X-274933Y-3449933D01*
X-487067Y-3449933D01*
X-487067Y-3662067D01*
X-274933Y-3662067D01*
X-274933Y-5567067D02*
X-274933Y-5354933D01*
X-487067Y-5354933D01*
X-487067Y-5567067D01*
X-274933Y-5567067D01*
X-274933Y-7472067D02*
X-274933Y-7259933D01*
X-487067Y-7259933D01*
X-487067Y-7472067D01*
X-274933Y-7472067D01*
X360067Y401933D02*
X360067Y614067D01*
X147933Y614067D01*
X147933Y401933D01*
X360067Y401933D01*
X360067Y-1503067D02*
X360067Y-1290933D01*
X147933Y-1290933D01*
X147933Y-1503067D01*
X360067Y-1503067D01*
X360067Y-3408067D02*
X360067Y-3195933D01*
X147933Y-3195933D01*
X147933Y-3408067D01*
X360067Y-3408067D01*
X360067Y-5313067D02*
X360067Y-5100933D01*
X147933Y-5100933D01*
X147933Y-5313067D01*
X360067Y-5313067D01*
X360067Y-7218067D02*
X360067Y-7005933D01*
X147933Y-7005933D01*
X147933Y-7218067D01*
X360067Y-7218067D01*
D16*
X-9525000Y-200000D02*
X-9325000Y0D01*
X-9525000Y200000D01*
X-9725000Y0D01*
X-9525000Y-200000D01*
X-9525000Y-2105000D02*
X-9325000Y-1905000D01*
X-9525000Y-1705000D01*
X-9725000Y-1905000D01*
X-9525000Y-2105000D01*
X-9525000Y-4010000D02*
X-9325000Y-3810000D01*
X-9525000Y-3610000D01*
X-9725000Y-3810000D01*
X-9525000Y-4010000D01*
X-9525000Y-5915000D02*
X-9325000Y-5715000D01*
X-9525000Y-5515000D01*
X-9725000Y-5715000D01*
X-9525000Y-5915000D01*
X-9525000Y-7820000D02*
X-9325000Y-7620000D01*
X-9525000Y-7420000D01*
X-9725000Y-7620000D01*
X-9525000Y-7820000D01*
X-7620000Y-200000D02*
X-7420000Y0D01*
X-7620000Y200000D01*
X-7820000Y0D01*
X-7620000Y-200000D01*
X-7620000Y-2105000D02*
X-7420000Y-1905000D01*
X-7620000Y-1705000D01*
X-7820000Y-1905000D01*
X-7620000Y-2105000D01*
X-7620000Y-4010000D02*
X-7420000Y-3810000D01*
X-7620000Y-3610000D01*
X-7820000Y-3810000D01*
X-7620000Y-4010000D01*
X-7620000Y-5915000D02*
X-7420000Y-5715000D01*
X-7620000Y-5515000D01*
X-7820000Y-5715000D01*
X-7620000Y-5915000D01*
X-7620000Y-7820000D02*
X-7420000Y-7620000D01*
X-7620000Y-7420000D01*
X-7820000Y-7620000D01*
X-7620000Y-7820000D01*
X-5715000Y-200000D02*
X-5515000Y0D01*
X-5715000Y200000D01*
X-5915000Y0D01*
X-5715000Y-200000D01*
X-5715000Y-2105000D02*
X-5515000Y-1905000D01*
X-5715000Y-1705000D01*
X-5915000Y-1905000D01*
X-5715000Y-2105000D01*
X-5715000Y-4010000D02*
X-5515000Y-3810000D01*
X-5715000Y-3610000D01*
X-5915000Y-3810000D01*
X-5715000Y-4010000D01*
X-5715000Y-5915000D02*
X-5515000Y-5715000D01*
X-5715000Y-5515000D01*
X-5915000Y-5715000D01*
X-5715000Y-5915000D01*
X-5715000Y-7820000D02*
X-5515000Y-7620000D01*
X-5715000Y-7420000D01*
X-5915000Y-7620000D01*
X-5715000Y-7820000D01*
X-3810000Y-200000D02*
X-3610000Y0D01*
X-3810000Y200000D01*
X-4010000Y0D01*
X-3810000Y-200000D01*
X-3810000Y-2105000D02*
X-3610000Y-1905000D01*
X-3810000Y-1705000D01*
X-4010000Y-1905000D01*
X-3810000Y-2105000D01*
X-3810000Y-4010000D02*
X-3610000Y-3810000D01*
X-3810000Y-3610000D01*
X-4010000Y-3810000D01*
X-3810000Y-4010000D01*
X-3810000Y-5915000D02*
X-3610000Y-5715000D01*
X-3810000Y-5515000D01*
X-4010000Y-5715000D01*
X-3810000Y-5915000D01*
X-3810000Y-7820000D02*
X-3610000Y-7620000D01*
X-3810000Y-7420000D01*
X-4010000Y-7620000D01*
X-3810000Y-7820000D01*
X-1905000Y-200000D02*
X-1705000Y0D01*
X-1905000Y200000D01*
X-2105000Y0D01*
X-1905000Y-200000D01*
X-1905000Y-2105000D02*
X-1705000Y-1905000D01*
X-1905000Y-1705000D01*
X-2105000Y-1905000D01*
X-1905000Y-2105000D01*
X-1905000Y-4010000D02*
X-1705000Y-3810000D01*
X-1905000Y-3610000D01*
X-2105000Y-3810000D01*
X-1905000Y-4010000D01*
X-1905000Y-5915000D02*
X-1705000Y-5715000D01*
X-1905000Y-5515000D01*
X-2105000Y-5715000D01*
X-1905000Y-5915000D01*
X-1905000Y-7820000D02*
X-1705000Y-7620000D01*
X-1905000Y-7420000D01*
X-2105000Y-7620000D01*
X-1905000Y-7820000D01*
X0Y-200000D02*
X200000Y0D01*
X0Y200000D01*
X-200000Y0D01*
X0Y-200000D01*
X0Y-2105000D02*
X200000Y-1905000D01*
X0Y-1705000D01*
X-200000Y-1905000D01*
X0Y-2105000D01*
X0Y-4010000D02*
X200000Y-3810000D01*
X0Y-3610000D01*
X-200000Y-3810000D01*
X0Y-4010000D01*
X0Y-5915000D02*
X200000Y-5715000D01*
X0Y-5515000D01*
X-200000Y-5715000D01*
X0Y-5915000D01*
X0Y-7820000D02*
X200000Y-7620000D01*
X0Y-7420000D01*
X-200000Y-7620000D01*
X0Y-7820000D01*
D11*
X-10479881Y-9142976D02*
X-10479881Y-8942976D01*
X-10432262Y-8942976D01*
X-10403691Y-8952500D01*
X-10384643Y-8971548D01*
X-10375119Y-8990595D01*
X-10365595Y-9028690D01*
X-10365595Y-9057262D01*
X-10375119Y-9095357D01*
X-10384643Y-9114405D01*
X-10403691Y-9133452D01*
X-10432262Y-9142976D01*
X-10479881Y-9142976D01*
X-10279881Y-9142976D02*
X-10279881Y-9009643D01*
X-10279881Y-9047738D02*
X-10270357Y-9028690D01*
X-10260833Y-9019167D01*
X-10241786Y-9009643D01*
X-10222738Y-9009643D01*
X-10156072Y-9142976D02*
X-10156072Y-9009643D01*
X-10156072Y-8942976D02*
X-10165595Y-8952500D01*
X-10156072Y-8962024D01*
X-10146548Y-8952500D01*
X-10156072Y-8942976D01*
X-10156072Y-8962024D01*
X-10032262Y-9142976D02*
X-10051310Y-9133452D01*
X-10060833Y-9114405D01*
X-10060833Y-8942976D01*
X-9927500Y-9142976D02*
X-9946548Y-9133452D01*
X-9956072Y-9114405D01*
X-9956072Y-8942976D01*
X-9698929Y-9142976D02*
X-9698929Y-8942976D01*
X-9632262Y-9085833D01*
X-9565595Y-8942976D01*
X-9565595Y-9142976D01*
X-9384643Y-9142976D02*
X-9384643Y-9038214D01*
X-9394167Y-9019167D01*
X-9413214Y-9009643D01*
X-9451310Y-9009643D01*
X-9470357Y-9019167D01*
X-9384643Y-9133452D02*
X-9403691Y-9142976D01*
X-9451310Y-9142976D01*
X-9470357Y-9133452D01*
X-9479881Y-9114405D01*
X-9479881Y-9095357D01*
X-9470357Y-9076310D01*
X-9451310Y-9066786D01*
X-9403691Y-9066786D01*
X-9384643Y-9057262D01*
X-9289405Y-9009643D02*
X-9289405Y-9209643D01*
X-9289405Y-9019167D02*
X-9270357Y-9009643D01*
X-9232262Y-9009643D01*
X-9213214Y-9019167D01*
X-9203691Y-9028690D01*
X-9194167Y-9047738D01*
X-9194167Y-9104881D01*
X-9203691Y-9123929D01*
X-9213214Y-9133452D01*
X-9232262Y-9142976D01*
X-9270357Y-9142976D01*
X-9289405Y-9133452D01*
X-9108452Y-9123929D02*
X-9098929Y-9133452D01*
X-9108452Y-9142976D01*
X-9117976Y-9133452D01*
X-9108452Y-9123929D01*
X-9108452Y-9142976D01*
X-9108452Y-9019167D02*
X-9098929Y-9028690D01*
X-9108452Y-9038214D01*
X-9117976Y-9028690D01*
X-9108452Y-9019167D01*
X-9108452Y-9038214D01*
D12*
X-10907680Y-9387410D02*
X-10737500Y-9557590D01*
X-10737500Y-9387410D02*
X-10907680Y-9557590D01*
D11*
X-10375119Y-9562976D02*
X-10489405Y-9562976D01*
X-10432262Y-9562976D02*
X-10432262Y-9362976D01*
X-10451310Y-9391548D01*
X-10470357Y-9410595D01*
X-10489405Y-9420119D01*
X-10289405Y-9543929D02*
X-10279881Y-9553452D01*
X-10289405Y-9562976D01*
X-10298929Y-9553452D01*
X-10289405Y-9543929D01*
X-10289405Y-9562976D01*
X-10213214Y-9362976D02*
X-10079881Y-9362976D01*
X-10165595Y-9562976D01*
X-9965595Y-9362976D02*
X-9946548Y-9362976D01*
X-9927500Y-9372500D01*
X-9917976Y-9382024D01*
X-9908452Y-9401071D01*
X-9898929Y-9439167D01*
X-9898929Y-9486786D01*
X-9908452Y-9524881D01*
X-9917976Y-9543929D01*
X-9927500Y-9553452D01*
X-9946548Y-9562976D01*
X-9965595Y-9562976D01*
X-9984643Y-9553452D01*
X-9994167Y-9543929D01*
X-10003691Y-9524881D01*
X-10013214Y-9486786D01*
X-10013214Y-9439167D01*
X-10003691Y-9401071D01*
X-9994167Y-9382024D01*
X-9984643Y-9372500D01*
X-9965595Y-9362976D01*
X-9822738Y-9382024D02*
X-9813214Y-9372500D01*
X-9794167Y-9362976D01*
X-9746548Y-9362976D01*
X-9727500Y-9372500D01*
X-9717976Y-9382024D01*
X-9708452Y-9401071D01*
X-9708452Y-9420119D01*
X-9717976Y-9448690D01*
X-9832262Y-9562976D01*
X-9708452Y-9562976D01*
X-9622738Y-9562976D02*
X-9622738Y-9429643D01*
X-9622738Y-9448690D02*
X-9613214Y-9439167D01*
X-9594167Y-9429643D01*
X-9565595Y-9429643D01*
X-9546548Y-9439167D01*
X-9537024Y-9458214D01*
X-9537024Y-9562976D01*
X-9537024Y-9458214D02*
X-9527500Y-9439167D01*
X-9508452Y-9429643D01*
X-9479881Y-9429643D01*
X-9460833Y-9439167D01*
X-9451310Y-9458214D01*
X-9451310Y-9562976D01*
X-9356072Y-9562976D02*
X-9356072Y-9429643D01*
X-9356072Y-9448690D02*
X-9346548Y-9439167D01*
X-9327500Y-9429643D01*
X-9298929Y-9429643D01*
X-9279881Y-9439167D01*
X-9270357Y-9458214D01*
X-9270357Y-9562976D01*
X-9270357Y-9458214D02*
X-9260833Y-9439167D01*
X-9241786Y-9429643D01*
X-9213214Y-9429643D01*
X-9194167Y-9439167D01*
X-9184643Y-9458214D01*
X-9184643Y-9562976D01*
X-8794167Y-9353452D02*
X-8965595Y-9610595D01*
X-8537024Y-9362976D02*
X-8517976Y-9362976D01*
X-8498929Y-9372500D01*
X-8489405Y-9382024D01*
X-8479881Y-9401071D01*
X-8470357Y-9439167D01*
X-8470357Y-9486786D01*
X-8479881Y-9524881D01*
X-8489405Y-9543929D01*
X-8498929Y-9553452D01*
X-8517976Y-9562976D01*
X-8537024Y-9562976D01*
X-8556072Y-9553452D01*
X-8565595Y-9543929D01*
X-8575119Y-9524881D01*
X-8584643Y-9486786D01*
X-8584643Y-9439167D01*
X-8575119Y-9401071D01*
X-8565595Y-9382024D01*
X-8556072Y-9372500D01*
X-8537024Y-9362976D01*
X-8384643Y-9543929D02*
X-8375119Y-9553452D01*
X-8384643Y-9562976D01*
X-8394167Y-9553452D01*
X-8384643Y-9543929D01*
X-8384643Y-9562976D01*
X-8251310Y-9362976D02*
X-8232262Y-9362976D01*
X-8213214Y-9372500D01*
X-8203690Y-9382024D01*
X-8194167Y-9401071D01*
X-8184643Y-9439167D01*
X-8184643Y-9486786D01*
X-8194167Y-9524881D01*
X-8203690Y-9543929D01*
X-8213214Y-9553452D01*
X-8232262Y-9562976D01*
X-8251310Y-9562976D01*
X-8270357Y-9553452D01*
X-8279881Y-9543929D01*
X-8289405Y-9524881D01*
X-8298929Y-9486786D01*
X-8298929Y-9439167D01*
X-8289405Y-9401071D01*
X-8279881Y-9382024D01*
X-8270357Y-9372500D01*
X-8251310Y-9362976D01*
X-8013214Y-9362976D02*
X-8051310Y-9362976D01*
X-8070357Y-9372500D01*
X-8079881Y-9382024D01*
X-8098929Y-9410595D01*
X-8108452Y-9448690D01*
X-8108452Y-9524881D01*
X-8098929Y-9543929D01*
X-8089405Y-9553452D01*
X-8070357Y-9562976D01*
X-8032262Y-9562976D01*
X-8013214Y-9553452D01*
X-8003690Y-9543929D01*
X-7994167Y-9524881D01*
X-7994167Y-9477262D01*
X-8003690Y-9458214D01*
X-8013214Y-9448690D01*
X-8032262Y-9439167D01*
X-8070357Y-9439167D01*
X-8089405Y-9448690D01*
X-8098929Y-9458214D01*
X-8108452Y-9477262D01*
X-7927500Y-9362976D02*
X-7794167Y-9362976D01*
X-7879881Y-9562976D01*
X-7679881Y-9362976D02*
X-7660833Y-9362976D01*
X-7641786Y-9372500D01*
X-7632262Y-9382024D01*
X-7622738Y-9401071D01*
X-7613214Y-9439167D01*
X-7613214Y-9486786D01*
X-7622738Y-9524881D01*
X-7632262Y-9543929D01*
X-7641786Y-9553452D01*
X-7660833Y-9562976D01*
X-7679881Y-9562976D01*
X-7698929Y-9553452D01*
X-7708452Y-9543929D01*
X-7717976Y-9524881D01*
X-7727500Y-9486786D01*
X-7727500Y-9439167D01*
X-7717976Y-9401071D01*
X-7708452Y-9382024D01*
X-7698929Y-9372500D01*
X-7679881Y-9362976D01*
X-7537024Y-9362976D02*
X-7537024Y-9401071D01*
X-7460833Y-9362976D02*
X-7460833Y-9401071D01*
X-7165595Y-9639167D02*
X-7175119Y-9629643D01*
X-7194167Y-9601071D01*
X-7203690Y-9582024D01*
X-7213214Y-9553452D01*
X-7222738Y-9505833D01*
X-7222738Y-9467738D01*
X-7213214Y-9420119D01*
X-7203690Y-9391548D01*
X-7194167Y-9372500D01*
X-7175119Y-9343929D01*
X-7165595Y-9334405D01*
X-7003690Y-9362976D02*
X-7041786Y-9362976D01*
X-7060833Y-9372500D01*
X-7070357Y-9382024D01*
X-7089405Y-9410595D01*
X-7098929Y-9448690D01*
X-7098929Y-9524881D01*
X-7089405Y-9543929D01*
X-7079881Y-9553452D01*
X-7060833Y-9562976D01*
X-7022738Y-9562976D01*
X-7003690Y-9553452D01*
X-6994167Y-9543929D01*
X-6984643Y-9524881D01*
X-6984643Y-9477262D01*
X-6994167Y-9458214D01*
X-7003690Y-9448690D01*
X-7022738Y-9439167D01*
X-7060833Y-9439167D01*
X-7079881Y-9448690D01*
X-7089405Y-9458214D01*
X-7098929Y-9477262D01*
X-6860833Y-9362976D02*
X-6841786Y-9362976D01*
X-6822738Y-9372500D01*
X-6813214Y-9382024D01*
X-6803690Y-9401071D01*
X-6794167Y-9439167D01*
X-6794167Y-9486786D01*
X-6803690Y-9524881D01*
X-6813214Y-9543929D01*
X-6822738Y-9553452D01*
X-6841786Y-9562976D01*
X-6860833Y-9562976D01*
X-6879881Y-9553452D01*
X-6889405Y-9543929D01*
X-6898929Y-9524881D01*
X-6908452Y-9486786D01*
X-6908452Y-9439167D01*
X-6898929Y-9401071D01*
X-6889405Y-9382024D01*
X-6879881Y-9372500D01*
X-6860833Y-9362976D01*
X-6556071Y-9562976D02*
X-6556071Y-9362976D01*
X-6470357Y-9562976D02*
X-6470357Y-9458214D01*
X-6479881Y-9439167D01*
X-6498929Y-9429643D01*
X-6527500Y-9429643D01*
X-6546548Y-9439167D01*
X-6556071Y-9448690D01*
X-6346548Y-9562976D02*
X-6365595Y-9553452D01*
X-6375119Y-9543929D01*
X-6384643Y-9524881D01*
X-6384643Y-9467738D01*
X-6375119Y-9448690D01*
X-6365595Y-9439167D01*
X-6346548Y-9429643D01*
X-6317976Y-9429643D01*
X-6298929Y-9439167D01*
X-6289405Y-9448690D01*
X-6279881Y-9467738D01*
X-6279881Y-9524881D01*
X-6289405Y-9543929D01*
X-6298929Y-9553452D01*
X-6317976Y-9562976D01*
X-6346548Y-9562976D01*
X-6165595Y-9562976D02*
X-6184643Y-9553452D01*
X-6194167Y-9534405D01*
X-6194167Y-9362976D01*
X-6013214Y-9553452D02*
X-6032262Y-9562976D01*
X-6070357Y-9562976D01*
X-6089405Y-9553452D01*
X-6098929Y-9534405D01*
X-6098929Y-9458214D01*
X-6089405Y-9439167D01*
X-6070357Y-9429643D01*
X-6032262Y-9429643D01*
X-6013214Y-9439167D01*
X-6003690Y-9458214D01*
X-6003690Y-9477262D01*
X-6098929Y-9496310D01*
X-5927500Y-9553452D02*
X-5908452Y-9562976D01*
X-5870357Y-9562976D01*
X-5851310Y-9553452D01*
X-5841786Y-9534405D01*
X-5841786Y-9524881D01*
X-5851310Y-9505833D01*
X-5870357Y-9496310D01*
X-5898929Y-9496310D01*
X-5917976Y-9486786D01*
X-5927500Y-9467738D01*
X-5927500Y-9458214D01*
X-5917976Y-9439167D01*
X-5898929Y-9429643D01*
X-5870357Y-9429643D01*
X-5851310Y-9439167D01*
X-5775119Y-9639167D02*
X-5765595Y-9629643D01*
X-5746548Y-9601071D01*
X-5737024Y-9582024D01*
X-5727500Y-9553452D01*
X-5717976Y-9505833D01*
X-5717976Y-9467738D01*
X-5727500Y-9420119D01*
X-5737024Y-9391548D01*
X-5746548Y-9372500D01*
X-5765595Y-9343929D01*
X-5775119Y-9334405D01*
X-5413214Y-9639167D02*
X-5422738Y-9629643D01*
X-5441786Y-9601071D01*
X-5451310Y-9582024D01*
X-5460833Y-9553452D01*
X-5470357Y-9505833D01*
X-5470357Y-9467738D01*
X-5460833Y-9420119D01*
X-5451310Y-9391548D01*
X-5441786Y-9372500D01*
X-5422738Y-9343929D01*
X-5413214Y-9334405D01*
X-5337024Y-9429643D02*
X-5337024Y-9562976D01*
X-5337024Y-9448690D02*
X-5327500Y-9439167D01*
X-5308452Y-9429643D01*
X-5279881Y-9429643D01*
X-5260833Y-9439167D01*
X-5251310Y-9458214D01*
X-5251310Y-9562976D01*
X-5127500Y-9562976D02*
X-5146548Y-9553452D01*
X-5156072Y-9543929D01*
X-5165595Y-9524881D01*
X-5165595Y-9467738D01*
X-5156072Y-9448690D01*
X-5146548Y-9439167D01*
X-5127500Y-9429643D01*
X-5098929Y-9429643D01*
X-5079881Y-9439167D01*
X-5070357Y-9448690D01*
X-5060833Y-9467738D01*
X-5060833Y-9524881D01*
X-5070357Y-9543929D01*
X-5079881Y-9553452D01*
X-5098929Y-9562976D01*
X-5127500Y-9562976D01*
X-5003691Y-9429643D02*
X-4927500Y-9429643D01*
X-4975119Y-9362976D02*
X-4975119Y-9534405D01*
X-4965595Y-9553452D01*
X-4946548Y-9562976D01*
X-4927500Y-9562976D01*
X-4708452Y-9429643D02*
X-4708452Y-9629643D01*
X-4708452Y-9439167D02*
X-4689405Y-9429643D01*
X-4651310Y-9429643D01*
X-4632262Y-9439167D01*
X-4622738Y-9448690D01*
X-4613214Y-9467738D01*
X-4613214Y-9524881D01*
X-4622738Y-9543929D01*
X-4632262Y-9553452D01*
X-4651310Y-9562976D01*
X-4689405Y-9562976D01*
X-4708452Y-9553452D01*
X-4498929Y-9562976D02*
X-4517976Y-9553452D01*
X-4527500Y-9534405D01*
X-4527500Y-9362976D01*
X-4337024Y-9562976D02*
X-4337024Y-9458214D01*
X-4346548Y-9439167D01*
X-4365595Y-9429643D01*
X-4403691Y-9429643D01*
X-4422738Y-9439167D01*
X-4337024Y-9553452D02*
X-4356072Y-9562976D01*
X-4403691Y-9562976D01*
X-4422738Y-9553452D01*
X-4432262Y-9534405D01*
X-4432262Y-9515357D01*
X-4422738Y-9496310D01*
X-4403691Y-9486786D01*
X-4356072Y-9486786D01*
X-4337024Y-9477262D01*
X-4270357Y-9429643D02*
X-4194167Y-9429643D01*
X-4241786Y-9362976D02*
X-4241786Y-9534405D01*
X-4232262Y-9553452D01*
X-4213214Y-9562976D01*
X-4194167Y-9562976D01*
X-4051310Y-9553452D02*
X-4070357Y-9562976D01*
X-4108452Y-9562976D01*
X-4127500Y-9553452D01*
X-4137024Y-9534405D01*
X-4137024Y-9458214D01*
X-4127500Y-9439167D01*
X-4108452Y-9429643D01*
X-4070357Y-9429643D01*
X-4051310Y-9439167D01*
X-4041786Y-9458214D01*
X-4041786Y-9477262D01*
X-4137024Y-9496310D01*
X-3870357Y-9562976D02*
X-3870357Y-9362976D01*
X-3870357Y-9553452D02*
X-3889405Y-9562976D01*
X-3927500Y-9562976D01*
X-3946548Y-9553452D01*
X-3956071Y-9543929D01*
X-3965595Y-9524881D01*
X-3965595Y-9467738D01*
X-3956071Y-9448690D01*
X-3946548Y-9439167D01*
X-3927500Y-9429643D01*
X-3889405Y-9429643D01*
X-3870357Y-9439167D01*
X-3794167Y-9639167D02*
X-3784643Y-9629643D01*
X-3765595Y-9601071D01*
X-3756071Y-9582024D01*
X-3746548Y-9553452D01*
X-3737024Y-9505833D01*
X-3737024Y-9467738D01*
X-3746548Y-9420119D01*
X-3756071Y-9391548D01*
X-3765595Y-9372500D01*
X-3784643Y-9343929D01*
X-3794167Y-9334405D01*
D13*
X-10737500Y-9762680D02*
G75*
G03*
X-10737500Y-9762680I-95000J0D01*
G01*
D11*
X-10375119Y-9853156D02*
X-10489405Y-9853156D01*
X-10432262Y-9853156D02*
X-10432262Y-9653156D01*
X-10451310Y-9681728D01*
X-10470357Y-9700775D01*
X-10489405Y-9710299D01*
X-10289405Y-9834109D02*
X-10279881Y-9843632D01*
X-10289405Y-9853156D01*
X-10298929Y-9843632D01*
X-10289405Y-9834109D01*
X-10289405Y-9853156D01*
X-10184643Y-9853156D02*
X-10146548Y-9853156D01*
X-10127500Y-9843632D01*
X-10117976Y-9834109D01*
X-10098929Y-9805537D01*
X-10089405Y-9767442D01*
X-10089405Y-9691251D01*
X-10098929Y-9672204D01*
X-10108452Y-9662680D01*
X-10127500Y-9653156D01*
X-10165595Y-9653156D01*
X-10184643Y-9662680D01*
X-10194167Y-9672204D01*
X-10203691Y-9691251D01*
X-10203691Y-9738870D01*
X-10194167Y-9757918D01*
X-10184643Y-9767442D01*
X-10165595Y-9776966D01*
X-10127500Y-9776966D01*
X-10108452Y-9767442D01*
X-10098929Y-9757918D01*
X-10089405Y-9738870D01*
X-9965595Y-9653156D02*
X-9946548Y-9653156D01*
X-9927500Y-9662680D01*
X-9917976Y-9672204D01*
X-9908452Y-9691251D01*
X-9898929Y-9729347D01*
X-9898929Y-9776966D01*
X-9908452Y-9815061D01*
X-9917976Y-9834109D01*
X-9927500Y-9843632D01*
X-9946548Y-9853156D01*
X-9965595Y-9853156D01*
X-9984643Y-9843632D01*
X-9994167Y-9834109D01*
X-10003691Y-9815061D01*
X-10013214Y-9776966D01*
X-10013214Y-9729347D01*
X-10003691Y-9691251D01*
X-9994167Y-9672204D01*
X-9984643Y-9662680D01*
X-9965595Y-9653156D01*
X-9775119Y-9653156D02*
X-9756072Y-9653156D01*
X-9737024Y-9662680D01*
X-9727500Y-9672204D01*
X-9717976Y-9691251D01*
X-9708452Y-9729347D01*
X-9708452Y-9776966D01*
X-9717976Y-9815061D01*
X-9727500Y-9834109D01*
X-9737024Y-9843632D01*
X-9756072Y-9853156D01*
X-9775119Y-9853156D01*
X-9794167Y-9843632D01*
X-9803691Y-9834109D01*
X-9813214Y-9815061D01*
X-9822738Y-9776966D01*
X-9822738Y-9729347D01*
X-9813214Y-9691251D01*
X-9803691Y-9672204D01*
X-9794167Y-9662680D01*
X-9775119Y-9653156D01*
X-9622738Y-9853156D02*
X-9622738Y-9719823D01*
X-9622738Y-9738870D02*
X-9613214Y-9729347D01*
X-9594167Y-9719823D01*
X-9565595Y-9719823D01*
X-9546548Y-9729347D01*
X-9537024Y-9748394D01*
X-9537024Y-9853156D01*
X-9537024Y-9748394D02*
X-9527500Y-9729347D01*
X-9508452Y-9719823D01*
X-9479881Y-9719823D01*
X-9460833Y-9729347D01*
X-9451310Y-9748394D01*
X-9451310Y-9853156D01*
X-9356072Y-9853156D02*
X-9356072Y-9719823D01*
X-9356072Y-9738870D02*
X-9346548Y-9729347D01*
X-9327500Y-9719823D01*
X-9298929Y-9719823D01*
X-9279881Y-9729347D01*
X-9270357Y-9748394D01*
X-9270357Y-9853156D01*
X-9270357Y-9748394D02*
X-9260833Y-9729347D01*
X-9241786Y-9719823D01*
X-9213214Y-9719823D01*
X-9194167Y-9729347D01*
X-9184643Y-9748394D01*
X-9184643Y-9853156D01*
X-8794167Y-9643632D02*
X-8965595Y-9900775D01*
X-8537024Y-9653156D02*
X-8517976Y-9653156D01*
X-8498929Y-9662680D01*
X-8489405Y-9672204D01*
X-8479881Y-9691251D01*
X-8470357Y-9729347D01*
X-8470357Y-9776966D01*
X-8479881Y-9815061D01*
X-8489405Y-9834109D01*
X-8498929Y-9843632D01*
X-8517976Y-9853156D01*
X-8537024Y-9853156D01*
X-8556072Y-9843632D01*
X-8565595Y-9834109D01*
X-8575119Y-9815061D01*
X-8584643Y-9776966D01*
X-8584643Y-9729347D01*
X-8575119Y-9691251D01*
X-8565595Y-9672204D01*
X-8556072Y-9662680D01*
X-8537024Y-9653156D01*
X-8384643Y-9834109D02*
X-8375119Y-9843632D01*
X-8384643Y-9853156D01*
X-8394167Y-9843632D01*
X-8384643Y-9834109D01*
X-8384643Y-9853156D01*
X-8251310Y-9653156D02*
X-8232262Y-9653156D01*
X-8213214Y-9662680D01*
X-8203690Y-9672204D01*
X-8194167Y-9691251D01*
X-8184643Y-9729347D01*
X-8184643Y-9776966D01*
X-8194167Y-9815061D01*
X-8203690Y-9834109D01*
X-8213214Y-9843632D01*
X-8232262Y-9853156D01*
X-8251310Y-9853156D01*
X-8270357Y-9843632D01*
X-8279881Y-9834109D01*
X-8289405Y-9815061D01*
X-8298929Y-9776966D01*
X-8298929Y-9729347D01*
X-8289405Y-9691251D01*
X-8279881Y-9672204D01*
X-8270357Y-9662680D01*
X-8251310Y-9653156D01*
X-8117976Y-9653156D02*
X-7984643Y-9653156D01*
X-8070357Y-9853156D01*
X-7822738Y-9719823D02*
X-7822738Y-9853156D01*
X-7870357Y-9643632D02*
X-7917976Y-9786490D01*
X-7794167Y-9786490D01*
X-7689405Y-9738870D02*
X-7708452Y-9729347D01*
X-7717976Y-9719823D01*
X-7727500Y-9700775D01*
X-7727500Y-9691251D01*
X-7717976Y-9672204D01*
X-7708452Y-9662680D01*
X-7689405Y-9653156D01*
X-7651310Y-9653156D01*
X-7632262Y-9662680D01*
X-7622738Y-9672204D01*
X-7613214Y-9691251D01*
X-7613214Y-9700775D01*
X-7622738Y-9719823D01*
X-7632262Y-9729347D01*
X-7651310Y-9738870D01*
X-7689405Y-9738870D01*
X-7708452Y-9748394D01*
X-7717976Y-9757918D01*
X-7727500Y-9776966D01*
X-7727500Y-9815061D01*
X-7717976Y-9834109D01*
X-7708452Y-9843632D01*
X-7689405Y-9853156D01*
X-7651310Y-9853156D01*
X-7632262Y-9843632D01*
X-7622738Y-9834109D01*
X-7613214Y-9815061D01*
X-7613214Y-9776966D01*
X-7622738Y-9757918D01*
X-7632262Y-9748394D01*
X-7651310Y-9738870D01*
X-7537024Y-9653156D02*
X-7537024Y-9691251D01*
X-7460833Y-9653156D02*
X-7460833Y-9691251D01*
X-7165595Y-9929347D02*
X-7175119Y-9919823D01*
X-7194167Y-9891251D01*
X-7203690Y-9872204D01*
X-7213214Y-9843632D01*
X-7222738Y-9796013D01*
X-7222738Y-9757918D01*
X-7213214Y-9710299D01*
X-7203690Y-9681728D01*
X-7194167Y-9662680D01*
X-7175119Y-9634109D01*
X-7165595Y-9624585D01*
X-7003690Y-9653156D02*
X-7041786Y-9653156D01*
X-7060833Y-9662680D01*
X-7070357Y-9672204D01*
X-7089405Y-9700775D01*
X-7098929Y-9738870D01*
X-7098929Y-9815061D01*
X-7089405Y-9834109D01*
X-7079881Y-9843632D01*
X-7060833Y-9853156D01*
X-7022738Y-9853156D01*
X-7003690Y-9843632D01*
X-6994167Y-9834109D01*
X-6984643Y-9815061D01*
X-6984643Y-9767442D01*
X-6994167Y-9748394D01*
X-7003690Y-9738870D01*
X-7022738Y-9729347D01*
X-7060833Y-9729347D01*
X-7079881Y-9738870D01*
X-7089405Y-9748394D01*
X-7098929Y-9767442D01*
X-6860833Y-9653156D02*
X-6841786Y-9653156D01*
X-6822738Y-9662680D01*
X-6813214Y-9672204D01*
X-6803690Y-9691251D01*
X-6794167Y-9729347D01*
X-6794167Y-9776966D01*
X-6803690Y-9815061D01*
X-6813214Y-9834109D01*
X-6822738Y-9843632D01*
X-6841786Y-9853156D01*
X-6860833Y-9853156D01*
X-6879881Y-9843632D01*
X-6889405Y-9834109D01*
X-6898929Y-9815061D01*
X-6908452Y-9776966D01*
X-6908452Y-9729347D01*
X-6898929Y-9691251D01*
X-6889405Y-9672204D01*
X-6879881Y-9662680D01*
X-6860833Y-9653156D01*
X-6556071Y-9853156D02*
X-6556071Y-9653156D01*
X-6470357Y-9853156D02*
X-6470357Y-9748394D01*
X-6479881Y-9729347D01*
X-6498929Y-9719823D01*
X-6527500Y-9719823D01*
X-6546548Y-9729347D01*
X-6556071Y-9738870D01*
X-6346548Y-9853156D02*
X-6365595Y-9843632D01*
X-6375119Y-9834109D01*
X-6384643Y-9815061D01*
X-6384643Y-9757918D01*
X-6375119Y-9738870D01*
X-6365595Y-9729347D01*
X-6346548Y-9719823D01*
X-6317976Y-9719823D01*
X-6298929Y-9729347D01*
X-6289405Y-9738870D01*
X-6279881Y-9757918D01*
X-6279881Y-9815061D01*
X-6289405Y-9834109D01*
X-6298929Y-9843632D01*
X-6317976Y-9853156D01*
X-6346548Y-9853156D01*
X-6165595Y-9853156D02*
X-6184643Y-9843632D01*
X-6194167Y-9824585D01*
X-6194167Y-9653156D01*
X-6013214Y-9843632D02*
X-6032262Y-9853156D01*
X-6070357Y-9853156D01*
X-6089405Y-9843632D01*
X-6098929Y-9824585D01*
X-6098929Y-9748394D01*
X-6089405Y-9729347D01*
X-6070357Y-9719823D01*
X-6032262Y-9719823D01*
X-6013214Y-9729347D01*
X-6003690Y-9748394D01*
X-6003690Y-9767442D01*
X-6098929Y-9786490D01*
X-5927500Y-9843632D02*
X-5908452Y-9853156D01*
X-5870357Y-9853156D01*
X-5851310Y-9843632D01*
X-5841786Y-9824585D01*
X-5841786Y-9815061D01*
X-5851310Y-9796013D01*
X-5870357Y-9786490D01*
X-5898929Y-9786490D01*
X-5917976Y-9776966D01*
X-5927500Y-9757918D01*
X-5927500Y-9748394D01*
X-5917976Y-9729347D01*
X-5898929Y-9719823D01*
X-5870357Y-9719823D01*
X-5851310Y-9729347D01*
X-5775119Y-9929347D02*
X-5765595Y-9919823D01*
X-5746548Y-9891251D01*
X-5737024Y-9872204D01*
X-5727500Y-9843632D01*
X-5717976Y-9796013D01*
X-5717976Y-9757918D01*
X-5727500Y-9710299D01*
X-5737024Y-9681728D01*
X-5746548Y-9662680D01*
X-5765595Y-9634109D01*
X-5775119Y-9624585D01*
X-5413214Y-9929347D02*
X-5422738Y-9919823D01*
X-5441786Y-9891251D01*
X-5451310Y-9872204D01*
X-5460833Y-9843632D01*
X-5470357Y-9796013D01*
X-5470357Y-9757918D01*
X-5460833Y-9710299D01*
X-5451310Y-9681728D01*
X-5441786Y-9662680D01*
X-5422738Y-9634109D01*
X-5413214Y-9624585D01*
X-5337024Y-9719823D02*
X-5337024Y-9853156D01*
X-5337024Y-9738870D02*
X-5327500Y-9729347D01*
X-5308452Y-9719823D01*
X-5279881Y-9719823D01*
X-5260833Y-9729347D01*
X-5251310Y-9748394D01*
X-5251310Y-9853156D01*
X-5127500Y-9853156D02*
X-5146548Y-9843632D01*
X-5156072Y-9834109D01*
X-5165595Y-9815061D01*
X-5165595Y-9757918D01*
X-5156072Y-9738870D01*
X-5146548Y-9729347D01*
X-5127500Y-9719823D01*
X-5098929Y-9719823D01*
X-5079881Y-9729347D01*
X-5070357Y-9738870D01*
X-5060833Y-9757918D01*
X-5060833Y-9815061D01*
X-5070357Y-9834109D01*
X-5079881Y-9843632D01*
X-5098929Y-9853156D01*
X-5127500Y-9853156D01*
X-5003691Y-9719823D02*
X-4927500Y-9719823D01*
X-4975119Y-9653156D02*
X-4975119Y-9824585D01*
X-4965595Y-9843632D01*
X-4946548Y-9853156D01*
X-4927500Y-9853156D01*
X-4708452Y-9719823D02*
X-4708452Y-9919823D01*
X-4708452Y-9729347D02*
X-4689405Y-9719823D01*
X-4651310Y-9719823D01*
X-4632262Y-9729347D01*
X-4622738Y-9738870D01*
X-4613214Y-9757918D01*
X-4613214Y-9815061D01*
X-4622738Y-9834109D01*
X-4632262Y-9843632D01*
X-4651310Y-9853156D01*
X-4689405Y-9853156D01*
X-4708452Y-9843632D01*
X-4498929Y-9853156D02*
X-4517976Y-9843632D01*
X-4527500Y-9824585D01*
X-4527500Y-9653156D01*
X-4337024Y-9853156D02*
X-4337024Y-9748394D01*
X-4346548Y-9729347D01*
X-4365595Y-9719823D01*
X-4403691Y-9719823D01*
X-4422738Y-9729347D01*
X-4337024Y-9843632D02*
X-4356072Y-9853156D01*
X-4403691Y-9853156D01*
X-4422738Y-9843632D01*
X-4432262Y-9824585D01*
X-4432262Y-9805537D01*
X-4422738Y-9786490D01*
X-4403691Y-9776966D01*
X-4356072Y-9776966D01*
X-4337024Y-9767442D01*
X-4270357Y-9719823D02*
X-4194167Y-9719823D01*
X-4241786Y-9653156D02*
X-4241786Y-9824585D01*
X-4232262Y-9843632D01*
X-4213214Y-9853156D01*
X-4194167Y-9853156D01*
X-4051310Y-9843632D02*
X-4070357Y-9853156D01*
X-4108452Y-9853156D01*
X-4127500Y-9843632D01*
X-4137024Y-9824585D01*
X-4137024Y-9748394D01*
X-4127500Y-9729347D01*
X-4108452Y-9719823D01*
X-4070357Y-9719823D01*
X-4051310Y-9729347D01*
X-4041786Y-9748394D01*
X-4041786Y-9767442D01*
X-4137024Y-9786490D01*
X-3870357Y-9853156D02*
X-3870357Y-9653156D01*
X-3870357Y-9843632D02*
X-3889405Y-9853156D01*
X-3927500Y-9853156D01*
X-3946548Y-9843632D01*
X-3956071Y-9834109D01*
X-3965595Y-9815061D01*
X-3965595Y-9757918D01*
X-3956071Y-9738870D01*
X-3946548Y-9729347D01*
X-3927500Y-9719823D01*
X-3889405Y-9719823D01*
X-3870357Y-9729347D01*
X-3794167Y-9929347D02*
X-3784643Y-9919823D01*
X-3765595Y-9891251D01*
X-3756071Y-9872204D01*
X-3746548Y-9843632D01*
X-3737024Y-9796013D01*
X-3737024Y-9757918D01*
X-3746548Y-9710299D01*
X-3756071Y-9681728D01*
X-3765595Y-9662680D01*
X-3784643Y-9634109D01*
X-3794167Y-9624585D01*
X-10837500Y-9972680D02*
X-10837500Y-10172680D01*
X-10937500Y-10072680D02*
X-10737500Y-10072680D01*
X-10489405Y-9982204D02*
X-10479881Y-9972680D01*
X-10460833Y-9963156D01*
X-10413214Y-9963156D01*
X-10394167Y-9972680D01*
X-10384643Y-9982204D01*
X-10375119Y-10001251D01*
X-10375119Y-10020299D01*
X-10384643Y-10048870D01*
X-10498929Y-10163156D01*
X-10375119Y-10163156D01*
X-10289405Y-10144109D02*
X-10279881Y-10153632D01*
X-10289405Y-10163156D01*
X-10298929Y-10153632D01*
X-10289405Y-10144109D01*
X-10289405Y-10163156D01*
X-10098929Y-9963156D02*
X-10194167Y-9963156D01*
X-10203691Y-10058394D01*
X-10194167Y-10048870D01*
X-10175119Y-10039347D01*
X-10127500Y-10039347D01*
X-10108452Y-10048870D01*
X-10098929Y-10058394D01*
X-10089405Y-10077442D01*
X-10089405Y-10125061D01*
X-10098929Y-10144109D01*
X-10108452Y-10153632D01*
X-10127500Y-10163156D01*
X-10175119Y-10163156D01*
X-10194167Y-10153632D01*
X-10203691Y-10144109D01*
X-9965595Y-9963156D02*
X-9946548Y-9963156D01*
X-9927500Y-9972680D01*
X-9917976Y-9982204D01*
X-9908452Y-10001251D01*
X-9898929Y-10039347D01*
X-9898929Y-10086966D01*
X-9908452Y-10125061D01*
X-9917976Y-10144109D01*
X-9927500Y-10153632D01*
X-9946548Y-10163156D01*
X-9965595Y-10163156D01*
X-9984643Y-10153632D01*
X-9994167Y-10144109D01*
X-10003691Y-10125061D01*
X-10013214Y-10086966D01*
X-10013214Y-10039347D01*
X-10003691Y-10001251D01*
X-9994167Y-9982204D01*
X-9984643Y-9972680D01*
X-9965595Y-9963156D01*
X-9775119Y-9963156D02*
X-9756072Y-9963156D01*
X-9737024Y-9972680D01*
X-9727500Y-9982204D01*
X-9717976Y-10001251D01*
X-9708452Y-10039347D01*
X-9708452Y-10086966D01*
X-9717976Y-10125061D01*
X-9727500Y-10144109D01*
X-9737024Y-10153632D01*
X-9756072Y-10163156D01*
X-9775119Y-10163156D01*
X-9794167Y-10153632D01*
X-9803691Y-10144109D01*
X-9813214Y-10125061D01*
X-9822738Y-10086966D01*
X-9822738Y-10039347D01*
X-9813214Y-10001251D01*
X-9803691Y-9982204D01*
X-9794167Y-9972680D01*
X-9775119Y-9963156D01*
X-9622738Y-10163156D02*
X-9622738Y-10029823D01*
X-9622738Y-10048870D02*
X-9613214Y-10039347D01*
X-9594167Y-10029823D01*
X-9565595Y-10029823D01*
X-9546548Y-10039347D01*
X-9537024Y-10058394D01*
X-9537024Y-10163156D01*
X-9537024Y-10058394D02*
X-9527500Y-10039347D01*
X-9508452Y-10029823D01*
X-9479881Y-10029823D01*
X-9460833Y-10039347D01*
X-9451310Y-10058394D01*
X-9451310Y-10163156D01*
X-9356072Y-10163156D02*
X-9356072Y-10029823D01*
X-9356072Y-10048870D02*
X-9346548Y-10039347D01*
X-9327500Y-10029823D01*
X-9298929Y-10029823D01*
X-9279881Y-10039347D01*
X-9270357Y-10058394D01*
X-9270357Y-10163156D01*
X-9270357Y-10058394D02*
X-9260833Y-10039347D01*
X-9241786Y-10029823D01*
X-9213214Y-10029823D01*
X-9194167Y-10039347D01*
X-9184643Y-10058394D01*
X-9184643Y-10163156D01*
X-8794167Y-9953632D02*
X-8965595Y-10210775D01*
X-8537024Y-9963156D02*
X-8517976Y-9963156D01*
X-8498929Y-9972680D01*
X-8489405Y-9982204D01*
X-8479881Y-10001251D01*
X-8470357Y-10039347D01*
X-8470357Y-10086966D01*
X-8479881Y-10125061D01*
X-8489405Y-10144109D01*
X-8498929Y-10153632D01*
X-8517976Y-10163156D01*
X-8537024Y-10163156D01*
X-8556072Y-10153632D01*
X-8565595Y-10144109D01*
X-8575119Y-10125061D01*
X-8584643Y-10086966D01*
X-8584643Y-10039347D01*
X-8575119Y-10001251D01*
X-8565595Y-9982204D01*
X-8556072Y-9972680D01*
X-8537024Y-9963156D01*
X-8384643Y-10144109D02*
X-8375119Y-10153632D01*
X-8384643Y-10163156D01*
X-8394167Y-10153632D01*
X-8384643Y-10144109D01*
X-8384643Y-10163156D01*
X-8251310Y-9963156D02*
X-8232262Y-9963156D01*
X-8213214Y-9972680D01*
X-8203690Y-9982204D01*
X-8194167Y-10001251D01*
X-8184643Y-10039347D01*
X-8184643Y-10086966D01*
X-8194167Y-10125061D01*
X-8203690Y-10144109D01*
X-8213214Y-10153632D01*
X-8232262Y-10163156D01*
X-8251310Y-10163156D01*
X-8270357Y-10153632D01*
X-8279881Y-10144109D01*
X-8289405Y-10125061D01*
X-8298929Y-10086966D01*
X-8298929Y-10039347D01*
X-8289405Y-10001251D01*
X-8279881Y-9982204D01*
X-8270357Y-9972680D01*
X-8251310Y-9963156D01*
X-8089405Y-10163156D02*
X-8051310Y-10163156D01*
X-8032262Y-10153632D01*
X-8022738Y-10144109D01*
X-8003690Y-10115537D01*
X-7994167Y-10077442D01*
X-7994167Y-10001251D01*
X-8003690Y-9982204D01*
X-8013214Y-9972680D01*
X-8032262Y-9963156D01*
X-8070357Y-9963156D01*
X-8089405Y-9972680D01*
X-8098929Y-9982204D01*
X-8108452Y-10001251D01*
X-8108452Y-10048870D01*
X-8098929Y-10067918D01*
X-8089405Y-10077442D01*
X-8070357Y-10086966D01*
X-8032262Y-10086966D01*
X-8013214Y-10077442D01*
X-8003690Y-10067918D01*
X-7994167Y-10048870D01*
X-7879881Y-10048870D02*
X-7898929Y-10039347D01*
X-7908452Y-10029823D01*
X-7917976Y-10010775D01*
X-7917976Y-10001251D01*
X-7908452Y-9982204D01*
X-7898929Y-9972680D01*
X-7879881Y-9963156D01*
X-7841786Y-9963156D01*
X-7822738Y-9972680D01*
X-7813214Y-9982204D01*
X-7803690Y-10001251D01*
X-7803690Y-10010775D01*
X-7813214Y-10029823D01*
X-7822738Y-10039347D01*
X-7841786Y-10048870D01*
X-7879881Y-10048870D01*
X-7898929Y-10058394D01*
X-7908452Y-10067918D01*
X-7917976Y-10086966D01*
X-7917976Y-10125061D01*
X-7908452Y-10144109D01*
X-7898929Y-10153632D01*
X-7879881Y-10163156D01*
X-7841786Y-10163156D01*
X-7822738Y-10153632D01*
X-7813214Y-10144109D01*
X-7803690Y-10125061D01*
X-7803690Y-10086966D01*
X-7813214Y-10067918D01*
X-7822738Y-10058394D01*
X-7841786Y-10048870D01*
X-7632262Y-10029823D02*
X-7632262Y-10163156D01*
X-7679881Y-9953632D02*
X-7727500Y-10096490D01*
X-7603690Y-10096490D01*
X-7537024Y-9963156D02*
X-7537024Y-10001251D01*
X-7460833Y-9963156D02*
X-7460833Y-10001251D01*
X-7165595Y-10239347D02*
X-7175119Y-10229823D01*
X-7194167Y-10201251D01*
X-7203690Y-10182204D01*
X-7213214Y-10153632D01*
X-7222738Y-10106013D01*
X-7222738Y-10067918D01*
X-7213214Y-10020299D01*
X-7203690Y-9991728D01*
X-7194167Y-9972680D01*
X-7175119Y-9944109D01*
X-7165595Y-9934585D01*
X-6994167Y-9963156D02*
X-7089405Y-9963156D01*
X-7098929Y-10058394D01*
X-7089405Y-10048870D01*
X-7070357Y-10039347D01*
X-7022738Y-10039347D01*
X-7003690Y-10048870D01*
X-6994167Y-10058394D01*
X-6984643Y-10077442D01*
X-6984643Y-10125061D01*
X-6994167Y-10144109D01*
X-7003690Y-10153632D01*
X-7022738Y-10163156D01*
X-7070357Y-10163156D01*
X-7089405Y-10153632D01*
X-7098929Y-10144109D01*
X-6746548Y-10163156D02*
X-6746548Y-9963156D01*
X-6660833Y-10163156D02*
X-6660833Y-10058394D01*
X-6670357Y-10039347D01*
X-6689405Y-10029823D01*
X-6717976Y-10029823D01*
X-6737024Y-10039347D01*
X-6746548Y-10048870D01*
X-6537024Y-10163156D02*
X-6556071Y-10153632D01*
X-6565595Y-10144109D01*
X-6575119Y-10125061D01*
X-6575119Y-10067918D01*
X-6565595Y-10048870D01*
X-6556071Y-10039347D01*
X-6537024Y-10029823D01*
X-6508452Y-10029823D01*
X-6489405Y-10039347D01*
X-6479881Y-10048870D01*
X-6470357Y-10067918D01*
X-6470357Y-10125061D01*
X-6479881Y-10144109D01*
X-6489405Y-10153632D01*
X-6508452Y-10163156D01*
X-6537024Y-10163156D01*
X-6356071Y-10163156D02*
X-6375119Y-10153632D01*
X-6384643Y-10134585D01*
X-6384643Y-9963156D01*
X-6203690Y-10153632D02*
X-6222738Y-10163156D01*
X-6260833Y-10163156D01*
X-6279881Y-10153632D01*
X-6289405Y-10134585D01*
X-6289405Y-10058394D01*
X-6279881Y-10039347D01*
X-6260833Y-10029823D01*
X-6222738Y-10029823D01*
X-6203690Y-10039347D01*
X-6194167Y-10058394D01*
X-6194167Y-10077442D01*
X-6289405Y-10096490D01*
X-6117976Y-10153632D02*
X-6098929Y-10163156D01*
X-6060833Y-10163156D01*
X-6041786Y-10153632D01*
X-6032262Y-10134585D01*
X-6032262Y-10125061D01*
X-6041786Y-10106013D01*
X-6060833Y-10096490D01*
X-6089405Y-10096490D01*
X-6108452Y-10086966D01*
X-6117976Y-10067918D01*
X-6117976Y-10058394D01*
X-6108452Y-10039347D01*
X-6089405Y-10029823D01*
X-6060833Y-10029823D01*
X-6041786Y-10039347D01*
X-5965595Y-10239347D02*
X-5956071Y-10229823D01*
X-5937024Y-10201251D01*
X-5927500Y-10182204D01*
X-5917976Y-10153632D01*
X-5908452Y-10106013D01*
X-5908452Y-10067918D01*
X-5917976Y-10020299D01*
X-5927500Y-9991728D01*
X-5937024Y-9972680D01*
X-5956071Y-9944109D01*
X-5965595Y-9934585D01*
X-5603690Y-10239347D02*
X-5613214Y-10229823D01*
X-5632262Y-10201251D01*
X-5641786Y-10182204D01*
X-5651310Y-10153632D01*
X-5660833Y-10106013D01*
X-5660833Y-10067918D01*
X-5651310Y-10020299D01*
X-5641786Y-9991728D01*
X-5632262Y-9972680D01*
X-5613214Y-9944109D01*
X-5603690Y-9934585D01*
X-5527500Y-10029823D02*
X-5527500Y-10163156D01*
X-5527500Y-10048870D02*
X-5517976Y-10039347D01*
X-5498929Y-10029823D01*
X-5470357Y-10029823D01*
X-5451310Y-10039347D01*
X-5441786Y-10058394D01*
X-5441786Y-10163156D01*
X-5317976Y-10163156D02*
X-5337024Y-10153632D01*
X-5346548Y-10144109D01*
X-5356072Y-10125061D01*
X-5356072Y-10067918D01*
X-5346548Y-10048870D01*
X-5337024Y-10039347D01*
X-5317976Y-10029823D01*
X-5289405Y-10029823D01*
X-5270357Y-10039347D01*
X-5260833Y-10048870D01*
X-5251310Y-10067918D01*
X-5251310Y-10125061D01*
X-5260833Y-10144109D01*
X-5270357Y-10153632D01*
X-5289405Y-10163156D01*
X-5317976Y-10163156D01*
X-5194167Y-10029823D02*
X-5117976Y-10029823D01*
X-5165595Y-9963156D02*
X-5165595Y-10134585D01*
X-5156072Y-10153632D01*
X-5137024Y-10163156D01*
X-5117976Y-10163156D01*
X-4898929Y-10029823D02*
X-4898929Y-10229823D01*
X-4898929Y-10039347D02*
X-4879881Y-10029823D01*
X-4841786Y-10029823D01*
X-4822738Y-10039347D01*
X-4813214Y-10048870D01*
X-4803691Y-10067918D01*
X-4803691Y-10125061D01*
X-4813214Y-10144109D01*
X-4822738Y-10153632D01*
X-4841786Y-10163156D01*
X-4879881Y-10163156D01*
X-4898929Y-10153632D01*
X-4689405Y-10163156D02*
X-4708452Y-10153632D01*
X-4717976Y-10134585D01*
X-4717976Y-9963156D01*
X-4527500Y-10163156D02*
X-4527500Y-10058394D01*
X-4537024Y-10039347D01*
X-4556072Y-10029823D01*
X-4594167Y-10029823D01*
X-4613214Y-10039347D01*
X-4527500Y-10153632D02*
X-4546548Y-10163156D01*
X-4594167Y-10163156D01*
X-4613214Y-10153632D01*
X-4622738Y-10134585D01*
X-4622738Y-10115537D01*
X-4613214Y-10096490D01*
X-4594167Y-10086966D01*
X-4546548Y-10086966D01*
X-4527500Y-10077442D01*
X-4460833Y-10029823D02*
X-4384643Y-10029823D01*
X-4432262Y-9963156D02*
X-4432262Y-10134585D01*
X-4422738Y-10153632D01*
X-4403691Y-10163156D01*
X-4384643Y-10163156D01*
X-4241786Y-10153632D02*
X-4260833Y-10163156D01*
X-4298929Y-10163156D01*
X-4317976Y-10153632D01*
X-4327500Y-10134585D01*
X-4327500Y-10058394D01*
X-4317976Y-10039347D01*
X-4298929Y-10029823D01*
X-4260833Y-10029823D01*
X-4241786Y-10039347D01*
X-4232262Y-10058394D01*
X-4232262Y-10077442D01*
X-4327500Y-10096490D01*
X-4060833Y-10163156D02*
X-4060833Y-9963156D01*
X-4060833Y-10153632D02*
X-4079881Y-10163156D01*
X-4117976Y-10163156D01*
X-4137024Y-10153632D01*
X-4146548Y-10144109D01*
X-4156071Y-10125061D01*
X-4156071Y-10067918D01*
X-4146548Y-10048870D01*
X-4137024Y-10039347D01*
X-4117976Y-10029823D01*
X-4079881Y-10029823D01*
X-4060833Y-10039347D01*
X-3984643Y-10239347D02*
X-3975119Y-10229823D01*
X-3956071Y-10201251D01*
X-3946548Y-10182204D01*
X-3937024Y-10153632D01*
X-3927500Y-10106013D01*
X-3927500Y-10067918D01*
X-3937024Y-10020299D01*
X-3946548Y-9991728D01*
X-3956071Y-9972680D01*
X-3975119Y-9944109D01*
X-3984643Y-9934585D01*
X-10766789Y-10463391D02*
X-10766789Y-10321969D01*
X-10908211Y-10321969D01*
X-10908211Y-10463391D01*
X-10766789Y-10463391D01*
X-10498929Y-10283156D02*
X-10375119Y-10283156D01*
X-10441786Y-10359347D01*
X-10413214Y-10359347D01*
X-10394167Y-10368870D01*
X-10384643Y-10378394D01*
X-10375119Y-10397442D01*
X-10375119Y-10445061D01*
X-10384643Y-10464109D01*
X-10394167Y-10473632D01*
X-10413214Y-10483156D01*
X-10470357Y-10483156D01*
X-10489405Y-10473632D01*
X-10498929Y-10464109D01*
X-10289405Y-10464109D02*
X-10279881Y-10473632D01*
X-10289405Y-10483156D01*
X-10298929Y-10473632D01*
X-10289405Y-10464109D01*
X-10289405Y-10483156D01*
X-10156072Y-10283156D02*
X-10137024Y-10283156D01*
X-10117976Y-10292680D01*
X-10108452Y-10302204D01*
X-10098929Y-10321251D01*
X-10089405Y-10359347D01*
X-10089405Y-10406966D01*
X-10098929Y-10445061D01*
X-10108452Y-10464109D01*
X-10117976Y-10473632D01*
X-10137024Y-10483156D01*
X-10156072Y-10483156D01*
X-10175119Y-10473632D01*
X-10184643Y-10464109D01*
X-10194167Y-10445061D01*
X-10203691Y-10406966D01*
X-10203691Y-10359347D01*
X-10194167Y-10321251D01*
X-10184643Y-10302204D01*
X-10175119Y-10292680D01*
X-10156072Y-10283156D01*
X-9965595Y-10283156D02*
X-9946548Y-10283156D01*
X-9927500Y-10292680D01*
X-9917976Y-10302204D01*
X-9908452Y-10321251D01*
X-9898929Y-10359347D01*
X-9898929Y-10406966D01*
X-9908452Y-10445061D01*
X-9917976Y-10464109D01*
X-9927500Y-10473632D01*
X-9946548Y-10483156D01*
X-9965595Y-10483156D01*
X-9984643Y-10473632D01*
X-9994167Y-10464109D01*
X-10003691Y-10445061D01*
X-10013214Y-10406966D01*
X-10013214Y-10359347D01*
X-10003691Y-10321251D01*
X-9994167Y-10302204D01*
X-9984643Y-10292680D01*
X-9965595Y-10283156D01*
X-9775119Y-10283156D02*
X-9756072Y-10283156D01*
X-9737024Y-10292680D01*
X-9727500Y-10302204D01*
X-9717976Y-10321251D01*
X-9708452Y-10359347D01*
X-9708452Y-10406966D01*
X-9717976Y-10445061D01*
X-9727500Y-10464109D01*
X-9737024Y-10473632D01*
X-9756072Y-10483156D01*
X-9775119Y-10483156D01*
X-9794167Y-10473632D01*
X-9803691Y-10464109D01*
X-9813214Y-10445061D01*
X-9822738Y-10406966D01*
X-9822738Y-10359347D01*
X-9813214Y-10321251D01*
X-9803691Y-10302204D01*
X-9794167Y-10292680D01*
X-9775119Y-10283156D01*
X-9622738Y-10483156D02*
X-9622738Y-10349823D01*
X-9622738Y-10368870D02*
X-9613214Y-10359347D01*
X-9594167Y-10349823D01*
X-9565595Y-10349823D01*
X-9546548Y-10359347D01*
X-9537024Y-10378394D01*
X-9537024Y-10483156D01*
X-9537024Y-10378394D02*
X-9527500Y-10359347D01*
X-9508452Y-10349823D01*
X-9479881Y-10349823D01*
X-9460833Y-10359347D01*
X-9451310Y-10378394D01*
X-9451310Y-10483156D01*
X-9356072Y-10483156D02*
X-9356072Y-10349823D01*
X-9356072Y-10368870D02*
X-9346548Y-10359347D01*
X-9327500Y-10349823D01*
X-9298929Y-10349823D01*
X-9279881Y-10359347D01*
X-9270357Y-10378394D01*
X-9270357Y-10483156D01*
X-9270357Y-10378394D02*
X-9260833Y-10359347D01*
X-9241786Y-10349823D01*
X-9213214Y-10349823D01*
X-9194167Y-10359347D01*
X-9184643Y-10378394D01*
X-9184643Y-10483156D01*
X-8794167Y-10273632D02*
X-8965595Y-10530775D01*
X-8537024Y-10283156D02*
X-8517976Y-10283156D01*
X-8498929Y-10292680D01*
X-8489405Y-10302204D01*
X-8479881Y-10321251D01*
X-8470357Y-10359347D01*
X-8470357Y-10406966D01*
X-8479881Y-10445061D01*
X-8489405Y-10464109D01*
X-8498929Y-10473632D01*
X-8517976Y-10483156D01*
X-8537024Y-10483156D01*
X-8556072Y-10473632D01*
X-8565595Y-10464109D01*
X-8575119Y-10445061D01*
X-8584643Y-10406966D01*
X-8584643Y-10359347D01*
X-8575119Y-10321251D01*
X-8565595Y-10302204D01*
X-8556072Y-10292680D01*
X-8537024Y-10283156D01*
X-8384643Y-10464109D02*
X-8375119Y-10473632D01*
X-8384643Y-10483156D01*
X-8394167Y-10473632D01*
X-8384643Y-10464109D01*
X-8384643Y-10483156D01*
X-8184643Y-10483156D02*
X-8298929Y-10483156D01*
X-8241786Y-10483156D02*
X-8241786Y-10283156D01*
X-8260833Y-10311728D01*
X-8279881Y-10330775D01*
X-8298929Y-10340299D01*
X-7994167Y-10483156D02*
X-8108452Y-10483156D01*
X-8051310Y-10483156D02*
X-8051310Y-10283156D01*
X-8070357Y-10311728D01*
X-8089405Y-10330775D01*
X-8108452Y-10340299D01*
X-7879881Y-10368870D02*
X-7898929Y-10359347D01*
X-7908452Y-10349823D01*
X-7917976Y-10330775D01*
X-7917976Y-10321251D01*
X-7908452Y-10302204D01*
X-7898929Y-10292680D01*
X-7879881Y-10283156D01*
X-7841786Y-10283156D01*
X-7822738Y-10292680D01*
X-7813214Y-10302204D01*
X-7803690Y-10321251D01*
X-7803690Y-10330775D01*
X-7813214Y-10349823D01*
X-7822738Y-10359347D01*
X-7841786Y-10368870D01*
X-7879881Y-10368870D01*
X-7898929Y-10378394D01*
X-7908452Y-10387918D01*
X-7917976Y-10406966D01*
X-7917976Y-10445061D01*
X-7908452Y-10464109D01*
X-7898929Y-10473632D01*
X-7879881Y-10483156D01*
X-7841786Y-10483156D01*
X-7822738Y-10473632D01*
X-7813214Y-10464109D01*
X-7803690Y-10445061D01*
X-7803690Y-10406966D01*
X-7813214Y-10387918D01*
X-7822738Y-10378394D01*
X-7841786Y-10368870D01*
X-7613214Y-10483156D02*
X-7727500Y-10483156D01*
X-7670357Y-10483156D02*
X-7670357Y-10283156D01*
X-7689405Y-10311728D01*
X-7708452Y-10330775D01*
X-7727500Y-10340299D01*
X-7537024Y-10283156D02*
X-7537024Y-10321251D01*
X-7460833Y-10283156D02*
X-7460833Y-10321251D01*
X-7165595Y-10559347D02*
X-7175119Y-10549823D01*
X-7194167Y-10521251D01*
X-7203690Y-10502204D01*
X-7213214Y-10473632D01*
X-7222738Y-10426013D01*
X-7222738Y-10387918D01*
X-7213214Y-10340299D01*
X-7203690Y-10311728D01*
X-7194167Y-10292680D01*
X-7175119Y-10264109D01*
X-7165595Y-10254585D01*
X-7003690Y-10283156D02*
X-7041786Y-10283156D01*
X-7060833Y-10292680D01*
X-7070357Y-10302204D01*
X-7089405Y-10330775D01*
X-7098929Y-10368870D01*
X-7098929Y-10445061D01*
X-7089405Y-10464109D01*
X-7079881Y-10473632D01*
X-7060833Y-10483156D01*
X-7022738Y-10483156D01*
X-7003690Y-10473632D01*
X-6994167Y-10464109D01*
X-6984643Y-10445061D01*
X-6984643Y-10397442D01*
X-6994167Y-10378394D01*
X-7003690Y-10368870D01*
X-7022738Y-10359347D01*
X-7060833Y-10359347D01*
X-7079881Y-10368870D01*
X-7089405Y-10378394D01*
X-7098929Y-10397442D01*
X-6860833Y-10283156D02*
X-6841786Y-10283156D01*
X-6822738Y-10292680D01*
X-6813214Y-10302204D01*
X-6803690Y-10321251D01*
X-6794167Y-10359347D01*
X-6794167Y-10406966D01*
X-6803690Y-10445061D01*
X-6813214Y-10464109D01*
X-6822738Y-10473632D01*
X-6841786Y-10483156D01*
X-6860833Y-10483156D01*
X-6879881Y-10473632D01*
X-6889405Y-10464109D01*
X-6898929Y-10445061D01*
X-6908452Y-10406966D01*
X-6908452Y-10359347D01*
X-6898929Y-10321251D01*
X-6889405Y-10302204D01*
X-6879881Y-10292680D01*
X-6860833Y-10283156D01*
X-6556071Y-10483156D02*
X-6556071Y-10283156D01*
X-6470357Y-10483156D02*
X-6470357Y-10378394D01*
X-6479881Y-10359347D01*
X-6498929Y-10349823D01*
X-6527500Y-10349823D01*
X-6546548Y-10359347D01*
X-6556071Y-10368870D01*
X-6346548Y-10483156D02*
X-6365595Y-10473632D01*
X-6375119Y-10464109D01*
X-6384643Y-10445061D01*
X-6384643Y-10387918D01*
X-6375119Y-10368870D01*
X-6365595Y-10359347D01*
X-6346548Y-10349823D01*
X-6317976Y-10349823D01*
X-6298929Y-10359347D01*
X-6289405Y-10368870D01*
X-6279881Y-10387918D01*
X-6279881Y-10445061D01*
X-6289405Y-10464109D01*
X-6298929Y-10473632D01*
X-6317976Y-10483156D01*
X-6346548Y-10483156D01*
X-6165595Y-10483156D02*
X-6184643Y-10473632D01*
X-6194167Y-10454585D01*
X-6194167Y-10283156D01*
X-6013214Y-10473632D02*
X-6032262Y-10483156D01*
X-6070357Y-10483156D01*
X-6089405Y-10473632D01*
X-6098929Y-10454585D01*
X-6098929Y-10378394D01*
X-6089405Y-10359347D01*
X-6070357Y-10349823D01*
X-6032262Y-10349823D01*
X-6013214Y-10359347D01*
X-6003690Y-10378394D01*
X-6003690Y-10397442D01*
X-6098929Y-10416490D01*
X-5927500Y-10473632D02*
X-5908452Y-10483156D01*
X-5870357Y-10483156D01*
X-5851310Y-10473632D01*
X-5841786Y-10454585D01*
X-5841786Y-10445061D01*
X-5851310Y-10426013D01*
X-5870357Y-10416490D01*
X-5898929Y-10416490D01*
X-5917976Y-10406966D01*
X-5927500Y-10387918D01*
X-5927500Y-10378394D01*
X-5917976Y-10359347D01*
X-5898929Y-10349823D01*
X-5870357Y-10349823D01*
X-5851310Y-10359347D01*
X-5775119Y-10559347D02*
X-5765595Y-10549823D01*
X-5746548Y-10521251D01*
X-5737024Y-10502204D01*
X-5727500Y-10473632D01*
X-5717976Y-10426013D01*
X-5717976Y-10387918D01*
X-5727500Y-10340299D01*
X-5737024Y-10311728D01*
X-5746548Y-10292680D01*
X-5765595Y-10264109D01*
X-5775119Y-10254585D01*
X-5413214Y-10559347D02*
X-5422738Y-10549823D01*
X-5441786Y-10521251D01*
X-5451310Y-10502204D01*
X-5460833Y-10473632D01*
X-5470357Y-10426013D01*
X-5470357Y-10387918D01*
X-5460833Y-10340299D01*
X-5451310Y-10311728D01*
X-5441786Y-10292680D01*
X-5422738Y-10264109D01*
X-5413214Y-10254585D01*
X-5337024Y-10349823D02*
X-5337024Y-10483156D01*
X-5337024Y-10368870D02*
X-5327500Y-10359347D01*
X-5308452Y-10349823D01*
X-5279881Y-10349823D01*
X-5260833Y-10359347D01*
X-5251310Y-10378394D01*
X-5251310Y-10483156D01*
X-5127500Y-10483156D02*
X-5146548Y-10473632D01*
X-5156072Y-10464109D01*
X-5165595Y-10445061D01*
X-5165595Y-10387918D01*
X-5156072Y-10368870D01*
X-5146548Y-10359347D01*
X-5127500Y-10349823D01*
X-5098929Y-10349823D01*
X-5079881Y-10359347D01*
X-5070357Y-10368870D01*
X-5060833Y-10387918D01*
X-5060833Y-10445061D01*
X-5070357Y-10464109D01*
X-5079881Y-10473632D01*
X-5098929Y-10483156D01*
X-5127500Y-10483156D01*
X-5003691Y-10349823D02*
X-4927500Y-10349823D01*
X-4975119Y-10283156D02*
X-4975119Y-10454585D01*
X-4965595Y-10473632D01*
X-4946548Y-10483156D01*
X-4927500Y-10483156D01*
X-4708452Y-10349823D02*
X-4708452Y-10549823D01*
X-4708452Y-10359347D02*
X-4689405Y-10349823D01*
X-4651310Y-10349823D01*
X-4632262Y-10359347D01*
X-4622738Y-10368870D01*
X-4613214Y-10387918D01*
X-4613214Y-10445061D01*
X-4622738Y-10464109D01*
X-4632262Y-10473632D01*
X-4651310Y-10483156D01*
X-4689405Y-10483156D01*
X-4708452Y-10473632D01*
X-4498929Y-10483156D02*
X-4517976Y-10473632D01*
X-4527500Y-10454585D01*
X-4527500Y-10283156D01*
X-4337024Y-10483156D02*
X-4337024Y-10378394D01*
X-4346548Y-10359347D01*
X-4365595Y-10349823D01*
X-4403691Y-10349823D01*
X-4422738Y-10359347D01*
X-4337024Y-10473632D02*
X-4356072Y-10483156D01*
X-4403691Y-10483156D01*
X-4422738Y-10473632D01*
X-4432262Y-10454585D01*
X-4432262Y-10435537D01*
X-4422738Y-10416490D01*
X-4403691Y-10406966D01*
X-4356072Y-10406966D01*
X-4337024Y-10397442D01*
X-4270357Y-10349823D02*
X-4194167Y-10349823D01*
X-4241786Y-10283156D02*
X-4241786Y-10454585D01*
X-4232262Y-10473632D01*
X-4213214Y-10483156D01*
X-4194167Y-10483156D01*
X-4051310Y-10473632D02*
X-4070357Y-10483156D01*
X-4108452Y-10483156D01*
X-4127500Y-10473632D01*
X-4137024Y-10454585D01*
X-4137024Y-10378394D01*
X-4127500Y-10359347D01*
X-4108452Y-10349823D01*
X-4070357Y-10349823D01*
X-4051310Y-10359347D01*
X-4041786Y-10378394D01*
X-4041786Y-10397442D01*
X-4137024Y-10416490D01*
X-3870357Y-10483156D02*
X-3870357Y-10283156D01*
X-3870357Y-10473632D02*
X-3889405Y-10483156D01*
X-3927500Y-10483156D01*
X-3946548Y-10473632D01*
X-3956071Y-10464109D01*
X-3965595Y-10445061D01*
X-3965595Y-10387918D01*
X-3956071Y-10368870D01*
X-3946548Y-10359347D01*
X-3927500Y-10349823D01*
X-3889405Y-10349823D01*
X-3870357Y-10359347D01*
X-3794167Y-10559347D02*
X-3784643Y-10549823D01*
X-3765595Y-10521251D01*
X-3756071Y-10502204D01*
X-3746548Y-10473632D01*
X-3737024Y-10426013D01*
X-3737024Y-10387918D01*
X-3746548Y-10340299D01*
X-3756071Y-10311728D01*
X-3765595Y-10292680D01*
X-3784643Y-10264109D01*
X-3794167Y-10254585D01*
X-10837500Y-10812680D02*
X-10737500Y-10712680D01*
X-10837500Y-10612680D01*
X-10937500Y-10712680D01*
X-10837500Y-10812680D01*
X-10394167Y-10669823D02*
X-10394167Y-10803156D01*
X-10441786Y-10593632D02*
X-10489405Y-10736490D01*
X-10365595Y-10736490D01*
X-10289405Y-10784109D02*
X-10279881Y-10793632D01*
X-10289405Y-10803156D01*
X-10298929Y-10793632D01*
X-10289405Y-10784109D01*
X-10289405Y-10803156D01*
X-10156072Y-10603156D02*
X-10137024Y-10603156D01*
X-10117976Y-10612680D01*
X-10108452Y-10622204D01*
X-10098929Y-10641251D01*
X-10089405Y-10679347D01*
X-10089405Y-10726966D01*
X-10098929Y-10765061D01*
X-10108452Y-10784109D01*
X-10117976Y-10793632D01*
X-10137024Y-10803156D01*
X-10156072Y-10803156D01*
X-10175119Y-10793632D01*
X-10184643Y-10784109D01*
X-10194167Y-10765061D01*
X-10203691Y-10726966D01*
X-10203691Y-10679347D01*
X-10194167Y-10641251D01*
X-10184643Y-10622204D01*
X-10175119Y-10612680D01*
X-10156072Y-10603156D01*
X-9965595Y-10603156D02*
X-9946548Y-10603156D01*
X-9927500Y-10612680D01*
X-9917976Y-10622204D01*
X-9908452Y-10641251D01*
X-9898929Y-10679347D01*
X-9898929Y-10726966D01*
X-9908452Y-10765061D01*
X-9917976Y-10784109D01*
X-9927500Y-10793632D01*
X-9946548Y-10803156D01*
X-9965595Y-10803156D01*
X-9984643Y-10793632D01*
X-9994167Y-10784109D01*
X-10003691Y-10765061D01*
X-10013214Y-10726966D01*
X-10013214Y-10679347D01*
X-10003691Y-10641251D01*
X-9994167Y-10622204D01*
X-9984643Y-10612680D01*
X-9965595Y-10603156D01*
X-9775119Y-10603156D02*
X-9756072Y-10603156D01*
X-9737024Y-10612680D01*
X-9727500Y-10622204D01*
X-9717976Y-10641251D01*
X-9708452Y-10679347D01*
X-9708452Y-10726966D01*
X-9717976Y-10765061D01*
X-9727500Y-10784109D01*
X-9737024Y-10793632D01*
X-9756072Y-10803156D01*
X-9775119Y-10803156D01*
X-9794167Y-10793632D01*
X-9803691Y-10784109D01*
X-9813214Y-10765061D01*
X-9822738Y-10726966D01*
X-9822738Y-10679347D01*
X-9813214Y-10641251D01*
X-9803691Y-10622204D01*
X-9794167Y-10612680D01*
X-9775119Y-10603156D01*
X-9622738Y-10803156D02*
X-9622738Y-10669823D01*
X-9622738Y-10688870D02*
X-9613214Y-10679347D01*
X-9594167Y-10669823D01*
X-9565595Y-10669823D01*
X-9546548Y-10679347D01*
X-9537024Y-10698394D01*
X-9537024Y-10803156D01*
X-9537024Y-10698394D02*
X-9527500Y-10679347D01*
X-9508452Y-10669823D01*
X-9479881Y-10669823D01*
X-9460833Y-10679347D01*
X-9451310Y-10698394D01*
X-9451310Y-10803156D01*
X-9356072Y-10803156D02*
X-9356072Y-10669823D01*
X-9356072Y-10688870D02*
X-9346548Y-10679347D01*
X-9327500Y-10669823D01*
X-9298929Y-10669823D01*
X-9279881Y-10679347D01*
X-9270357Y-10698394D01*
X-9270357Y-10803156D01*
X-9270357Y-10698394D02*
X-9260833Y-10679347D01*
X-9241786Y-10669823D01*
X-9213214Y-10669823D01*
X-9194167Y-10679347D01*
X-9184643Y-10698394D01*
X-9184643Y-10803156D01*
X-8794167Y-10593632D02*
X-8965595Y-10850775D01*
X-8537024Y-10603156D02*
X-8517976Y-10603156D01*
X-8498929Y-10612680D01*
X-8489405Y-10622204D01*
X-8479881Y-10641251D01*
X-8470357Y-10679347D01*
X-8470357Y-10726966D01*
X-8479881Y-10765061D01*
X-8489405Y-10784109D01*
X-8498929Y-10793632D01*
X-8517976Y-10803156D01*
X-8537024Y-10803156D01*
X-8556072Y-10793632D01*
X-8565595Y-10784109D01*
X-8575119Y-10765061D01*
X-8584643Y-10726966D01*
X-8584643Y-10679347D01*
X-8575119Y-10641251D01*
X-8565595Y-10622204D01*
X-8556072Y-10612680D01*
X-8537024Y-10603156D01*
X-8384643Y-10784109D02*
X-8375119Y-10793632D01*
X-8384643Y-10803156D01*
X-8394167Y-10793632D01*
X-8384643Y-10784109D01*
X-8384643Y-10803156D01*
X-8184643Y-10803156D02*
X-8298929Y-10803156D01*
X-8241786Y-10803156D02*
X-8241786Y-10603156D01*
X-8260833Y-10631728D01*
X-8279881Y-10650775D01*
X-8298929Y-10660299D01*
X-8003690Y-10603156D02*
X-8098929Y-10603156D01*
X-8108452Y-10698394D01*
X-8098929Y-10688870D01*
X-8079881Y-10679347D01*
X-8032262Y-10679347D01*
X-8013214Y-10688870D01*
X-8003690Y-10698394D01*
X-7994167Y-10717442D01*
X-7994167Y-10765061D01*
X-8003690Y-10784109D01*
X-8013214Y-10793632D01*
X-8032262Y-10803156D01*
X-8079881Y-10803156D01*
X-8098929Y-10793632D01*
X-8108452Y-10784109D01*
X-7927500Y-10603156D02*
X-7794167Y-10603156D01*
X-7879881Y-10803156D01*
X-7622738Y-10603156D02*
X-7717976Y-10603156D01*
X-7727500Y-10698394D01*
X-7717976Y-10688870D01*
X-7698929Y-10679347D01*
X-7651310Y-10679347D01*
X-7632262Y-10688870D01*
X-7622738Y-10698394D01*
X-7613214Y-10717442D01*
X-7613214Y-10765061D01*
X-7622738Y-10784109D01*
X-7632262Y-10793632D01*
X-7651310Y-10803156D01*
X-7698929Y-10803156D01*
X-7717976Y-10793632D01*
X-7727500Y-10784109D01*
X-7537024Y-10603156D02*
X-7537024Y-10641251D01*
X-7460833Y-10603156D02*
X-7460833Y-10641251D01*
X-7165595Y-10879347D02*
X-7175119Y-10869823D01*
X-7194167Y-10841251D01*
X-7203690Y-10822204D01*
X-7213214Y-10793632D01*
X-7222738Y-10746013D01*
X-7222738Y-10707918D01*
X-7213214Y-10660299D01*
X-7203690Y-10631728D01*
X-7194167Y-10612680D01*
X-7175119Y-10584109D01*
X-7165595Y-10574585D01*
X-7108452Y-10603156D02*
X-6984643Y-10603156D01*
X-7051310Y-10679347D01*
X-7022738Y-10679347D01*
X-7003690Y-10688870D01*
X-6994167Y-10698394D01*
X-6984643Y-10717442D01*
X-6984643Y-10765061D01*
X-6994167Y-10784109D01*
X-7003690Y-10793632D01*
X-7022738Y-10803156D01*
X-7079881Y-10803156D01*
X-7098929Y-10793632D01*
X-7108452Y-10784109D01*
X-6860833Y-10603156D02*
X-6841786Y-10603156D01*
X-6822738Y-10612680D01*
X-6813214Y-10622204D01*
X-6803690Y-10641251D01*
X-6794167Y-10679347D01*
X-6794167Y-10726966D01*
X-6803690Y-10765061D01*
X-6813214Y-10784109D01*
X-6822738Y-10793632D01*
X-6841786Y-10803156D01*
X-6860833Y-10803156D01*
X-6879881Y-10793632D01*
X-6889405Y-10784109D01*
X-6898929Y-10765061D01*
X-6908452Y-10726966D01*
X-6908452Y-10679347D01*
X-6898929Y-10641251D01*
X-6889405Y-10622204D01*
X-6879881Y-10612680D01*
X-6860833Y-10603156D01*
X-6556071Y-10803156D02*
X-6556071Y-10603156D01*
X-6470357Y-10803156D02*
X-6470357Y-10698394D01*
X-6479881Y-10679347D01*
X-6498929Y-10669823D01*
X-6527500Y-10669823D01*
X-6546548Y-10679347D01*
X-6556071Y-10688870D01*
X-6346548Y-10803156D02*
X-6365595Y-10793632D01*
X-6375119Y-10784109D01*
X-6384643Y-10765061D01*
X-6384643Y-10707918D01*
X-6375119Y-10688870D01*
X-6365595Y-10679347D01*
X-6346548Y-10669823D01*
X-6317976Y-10669823D01*
X-6298929Y-10679347D01*
X-6289405Y-10688870D01*
X-6279881Y-10707918D01*
X-6279881Y-10765061D01*
X-6289405Y-10784109D01*
X-6298929Y-10793632D01*
X-6317976Y-10803156D01*
X-6346548Y-10803156D01*
X-6165595Y-10803156D02*
X-6184643Y-10793632D01*
X-6194167Y-10774585D01*
X-6194167Y-10603156D01*
X-6013214Y-10793632D02*
X-6032262Y-10803156D01*
X-6070357Y-10803156D01*
X-6089405Y-10793632D01*
X-6098929Y-10774585D01*
X-6098929Y-10698394D01*
X-6089405Y-10679347D01*
X-6070357Y-10669823D01*
X-6032262Y-10669823D01*
X-6013214Y-10679347D01*
X-6003690Y-10698394D01*
X-6003690Y-10717442D01*
X-6098929Y-10736490D01*
X-5927500Y-10793632D02*
X-5908452Y-10803156D01*
X-5870357Y-10803156D01*
X-5851310Y-10793632D01*
X-5841786Y-10774585D01*
X-5841786Y-10765061D01*
X-5851310Y-10746013D01*
X-5870357Y-10736490D01*
X-5898929Y-10736490D01*
X-5917976Y-10726966D01*
X-5927500Y-10707918D01*
X-5927500Y-10698394D01*
X-5917976Y-10679347D01*
X-5898929Y-10669823D01*
X-5870357Y-10669823D01*
X-5851310Y-10679347D01*
X-5775119Y-10879347D02*
X-5765595Y-10869823D01*
X-5746548Y-10841251D01*
X-5737024Y-10822204D01*
X-5727500Y-10793632D01*
X-5717976Y-10746013D01*
X-5717976Y-10707918D01*
X-5727500Y-10660299D01*
X-5737024Y-10631728D01*
X-5746548Y-10612680D01*
X-5765595Y-10584109D01*
X-5775119Y-10574585D01*
X-5413214Y-10879347D02*
X-5422738Y-10869823D01*
X-5441786Y-10841251D01*
X-5451310Y-10822204D01*
X-5460833Y-10793632D01*
X-5470357Y-10746013D01*
X-5470357Y-10707918D01*
X-5460833Y-10660299D01*
X-5451310Y-10631728D01*
X-5441786Y-10612680D01*
X-5422738Y-10584109D01*
X-5413214Y-10574585D01*
X-5337024Y-10669823D02*
X-5337024Y-10803156D01*
X-5337024Y-10688870D02*
X-5327500Y-10679347D01*
X-5308452Y-10669823D01*
X-5279881Y-10669823D01*
X-5260833Y-10679347D01*
X-5251310Y-10698394D01*
X-5251310Y-10803156D01*
X-5127500Y-10803156D02*
X-5146548Y-10793632D01*
X-5156072Y-10784109D01*
X-5165595Y-10765061D01*
X-5165595Y-10707918D01*
X-5156072Y-10688870D01*
X-5146548Y-10679347D01*
X-5127500Y-10669823D01*
X-5098929Y-10669823D01*
X-5079881Y-10679347D01*
X-5070357Y-10688870D01*
X-5060833Y-10707918D01*
X-5060833Y-10765061D01*
X-5070357Y-10784109D01*
X-5079881Y-10793632D01*
X-5098929Y-10803156D01*
X-5127500Y-10803156D01*
X-5003691Y-10669823D02*
X-4927500Y-10669823D01*
X-4975119Y-10603156D02*
X-4975119Y-10774585D01*
X-4965595Y-10793632D01*
X-4946548Y-10803156D01*
X-4927500Y-10803156D01*
X-4708452Y-10669823D02*
X-4708452Y-10869823D01*
X-4708452Y-10679347D02*
X-4689405Y-10669823D01*
X-4651310Y-10669823D01*
X-4632262Y-10679347D01*
X-4622738Y-10688870D01*
X-4613214Y-10707918D01*
X-4613214Y-10765061D01*
X-4622738Y-10784109D01*
X-4632262Y-10793632D01*
X-4651310Y-10803156D01*
X-4689405Y-10803156D01*
X-4708452Y-10793632D01*
X-4498929Y-10803156D02*
X-4517976Y-10793632D01*
X-4527500Y-10774585D01*
X-4527500Y-10603156D01*
X-4337024Y-10803156D02*
X-4337024Y-10698394D01*
X-4346548Y-10679347D01*
X-4365595Y-10669823D01*
X-4403691Y-10669823D01*
X-4422738Y-10679347D01*
X-4337024Y-10793632D02*
X-4356072Y-10803156D01*
X-4403691Y-10803156D01*
X-4422738Y-10793632D01*
X-4432262Y-10774585D01*
X-4432262Y-10755537D01*
X-4422738Y-10736490D01*
X-4403691Y-10726966D01*
X-4356072Y-10726966D01*
X-4337024Y-10717442D01*
X-4270357Y-10669823D02*
X-4194167Y-10669823D01*
X-4241786Y-10603156D02*
X-4241786Y-10774585D01*
X-4232262Y-10793632D01*
X-4213214Y-10803156D01*
X-4194167Y-10803156D01*
X-4051310Y-10793632D02*
X-4070357Y-10803156D01*
X-4108452Y-10803156D01*
X-4127500Y-10793632D01*
X-4137024Y-10774585D01*
X-4137024Y-10698394D01*
X-4127500Y-10679347D01*
X-4108452Y-10669823D01*
X-4070357Y-10669823D01*
X-4051310Y-10679347D01*
X-4041786Y-10698394D01*
X-4041786Y-10717442D01*
X-4137024Y-10736490D01*
X-3870357Y-10803156D02*
X-3870357Y-10603156D01*
X-3870357Y-10793632D02*
X-3889405Y-10803156D01*
X-3927500Y-10803156D01*
X-3946548Y-10793632D01*
X-3956071Y-10784109D01*
X-3965595Y-10765061D01*
X-3965595Y-10707918D01*
X-3956071Y-10688870D01*
X-3946548Y-10679347D01*
X-3927500Y-10669823D01*
X-3889405Y-10669823D01*
X-3870357Y-10679347D01*
X-3794167Y-10879347D02*
X-3784643Y-10869823D01*
X-3765595Y-10841251D01*
X-3756071Y-10822204D01*
X-3746548Y-10793632D01*
X-3737024Y-10746013D01*
X-3737024Y-10707918D01*
X-3746548Y-10660299D01*
X-3756071Y-10631728D01*
X-3765595Y-10612680D01*
X-3784643Y-10584109D01*
X-3794167Y-10574585D01*
M02*
