%TF.GenerationSoftware,KiCad,Pcbnew,(7.0.0-0)*%
%TF.CreationDate,2023-03-08T00:10:09+08:00*%
%TF.ProjectId,Input,496e7075-742e-46b6-9963-61645f706362,1*%
%TF.SameCoordinates,PX7bfa480PY6052340*%
%TF.FileFunction,Legend,Top*%
%TF.FilePolarity,Positive*%
%FSLAX46Y46*%
G04 Gerber Fmt 4.6, Leading zero omitted, Abs format (unit mm)*
G04 Created by KiCad (PCBNEW (7.0.0-0)) date 2023-03-08 00:10:09*
%MOMM*%
%LPD*%
G01*
G04 APERTURE LIST*
G04 Aperture macros list*
%AMRoundRect*
0 Rectangle with rounded corners*
0 $1 Rounding radius*
0 $2 $3 $4 $5 $6 $7 $8 $9 X,Y pos of 4 corners*
0 Add a 4 corners polygon primitive as box body*
4,1,4,$2,$3,$4,$5,$6,$7,$8,$9,$2,$3,0*
0 Add four circle primitives for the rounded corners*
1,1,$1+$1,$2,$3*
1,1,$1+$1,$4,$5*
1,1,$1+$1,$6,$7*
1,1,$1+$1,$8,$9*
0 Add four rect primitives between the rounded corners*
20,1,$1+$1,$2,$3,$4,$5,0*
20,1,$1+$1,$4,$5,$6,$7,0*
20,1,$1+$1,$6,$7,$8,$9,0*
20,1,$1+$1,$8,$9,$2,$3,0*%
%AMRotRect*
0 Rectangle, with rotation*
0 The origin of the aperture is its center*
0 $1 length*
0 $2 width*
0 $3 Rotation angle, in degrees counterclockwise*
0 Add horizontal line*
21,1,$1,$2,0,0,$3*%
G04 Aperture macros list end*
%ADD10C,0.150000*%
%ADD11C,0.200000*%
%ADD12C,0.120000*%
%ADD13C,3.000000*%
%ADD14R,2.000000X2.600000*%
%ADD15C,3.200000*%
%ADD16R,1.400000X1.000000*%
%ADD17RotRect,1.400000X1.000000X20.000000*%
%ADD18R,1.270000X3.429000*%
%ADD19RoundRect,0.317500X-0.317500X-1.397000X0.317500X-1.397000X0.317500X1.397000X-0.317500X1.397000X0*%
%ADD20RotRect,2.000000X2.600000X200.000000*%
%ADD21C,1.700000*%
G04 APERTURE END LIST*
D10*
X-1388667Y42212620D02*
X-1722000Y42688810D01*
X-1960095Y42212620D02*
X-1960095Y43212620D01*
X-1960095Y43212620D02*
X-1579143Y43212620D01*
X-1579143Y43212620D02*
X-1483905Y43165000D01*
X-1483905Y43165000D02*
X-1436286Y43117381D01*
X-1436286Y43117381D02*
X-1388667Y43022143D01*
X-1388667Y43022143D02*
X-1388667Y42879286D01*
X-1388667Y42879286D02*
X-1436286Y42784048D01*
X-1436286Y42784048D02*
X-1483905Y42736429D01*
X-1483905Y42736429D02*
X-1579143Y42688810D01*
X-1579143Y42688810D02*
X-1960095Y42688810D01*
X-1007714Y43117381D02*
X-960095Y43165000D01*
X-960095Y43165000D02*
X-864857Y43212620D01*
X-864857Y43212620D02*
X-626762Y43212620D01*
X-626762Y43212620D02*
X-531524Y43165000D01*
X-531524Y43165000D02*
X-483905Y43117381D01*
X-483905Y43117381D02*
X-436286Y43022143D01*
X-436286Y43022143D02*
X-436286Y42926905D01*
X-436286Y42926905D02*
X-483905Y42784048D01*
X-483905Y42784048D02*
X-1055333Y42212620D01*
X-1055333Y42212620D02*
X-436286Y42212620D01*
X-3801667Y41632620D02*
X-4135000Y42108810D01*
X-4373095Y41632620D02*
X-4373095Y42632620D01*
X-4373095Y42632620D02*
X-3992143Y42632620D01*
X-3992143Y42632620D02*
X-3896905Y42585000D01*
X-3896905Y42585000D02*
X-3849286Y42537381D01*
X-3849286Y42537381D02*
X-3801667Y42442143D01*
X-3801667Y42442143D02*
X-3801667Y42299286D01*
X-3801667Y42299286D02*
X-3849286Y42204048D01*
X-3849286Y42204048D02*
X-3896905Y42156429D01*
X-3896905Y42156429D02*
X-3992143Y42108810D01*
X-3992143Y42108810D02*
X-4373095Y42108810D01*
X-2849286Y41632620D02*
X-3420714Y41632620D01*
X-3135000Y41632620D02*
X-3135000Y42632620D01*
X-3135000Y42632620D02*
X-3230238Y42489762D01*
X-3230238Y42489762D02*
X-3325476Y42394524D01*
X-3325476Y42394524D02*
X-3420714Y42346905D01*
D11*
X58357142Y-36121071D02*
X58357142Y-34621071D01*
X58357142Y-34621071D02*
X58928571Y-34621071D01*
X58928571Y-34621071D02*
X59071428Y-34692500D01*
X59071428Y-34692500D02*
X59142857Y-34763928D01*
X59142857Y-34763928D02*
X59214285Y-34906785D01*
X59214285Y-34906785D02*
X59214285Y-35121071D01*
X59214285Y-35121071D02*
X59142857Y-35263928D01*
X59142857Y-35263928D02*
X59071428Y-35335357D01*
X59071428Y-35335357D02*
X58928571Y-35406785D01*
X58928571Y-35406785D02*
X58357142Y-35406785D01*
X59857142Y-36121071D02*
X59857142Y-35121071D01*
X59857142Y-35406785D02*
X59928571Y-35263928D01*
X59928571Y-35263928D02*
X60000000Y-35192500D01*
X60000000Y-35192500D02*
X60142857Y-35121071D01*
X60142857Y-35121071D02*
X60285714Y-35121071D01*
X61428571Y-36121071D02*
X61428571Y-35335357D01*
X61428571Y-35335357D02*
X61357142Y-35192500D01*
X61357142Y-35192500D02*
X61214285Y-35121071D01*
X61214285Y-35121071D02*
X60928571Y-35121071D01*
X60928571Y-35121071D02*
X60785713Y-35192500D01*
X61428571Y-36049642D02*
X61285713Y-36121071D01*
X61285713Y-36121071D02*
X60928571Y-36121071D01*
X60928571Y-36121071D02*
X60785713Y-36049642D01*
X60785713Y-36049642D02*
X60714285Y-35906785D01*
X60714285Y-35906785D02*
X60714285Y-35763928D01*
X60714285Y-35763928D02*
X60785713Y-35621071D01*
X60785713Y-35621071D02*
X60928571Y-35549642D01*
X60928571Y-35549642D02*
X61285713Y-35549642D01*
X61285713Y-35549642D02*
X61428571Y-35478214D01*
X62785714Y-35121071D02*
X62785714Y-36335357D01*
X62785714Y-36335357D02*
X62714285Y-36478214D01*
X62714285Y-36478214D02*
X62642856Y-36549642D01*
X62642856Y-36549642D02*
X62499999Y-36621071D01*
X62499999Y-36621071D02*
X62285714Y-36621071D01*
X62285714Y-36621071D02*
X62142856Y-36549642D01*
X62785714Y-36049642D02*
X62642856Y-36121071D01*
X62642856Y-36121071D02*
X62357142Y-36121071D01*
X62357142Y-36121071D02*
X62214285Y-36049642D01*
X62214285Y-36049642D02*
X62142856Y-35978214D01*
X62142856Y-35978214D02*
X62071428Y-35835357D01*
X62071428Y-35835357D02*
X62071428Y-35406785D01*
X62071428Y-35406785D02*
X62142856Y-35263928D01*
X62142856Y-35263928D02*
X62214285Y-35192500D01*
X62214285Y-35192500D02*
X62357142Y-35121071D01*
X62357142Y-35121071D02*
X62642856Y-35121071D01*
X62642856Y-35121071D02*
X62785714Y-35192500D01*
X63499999Y-36121071D02*
X63499999Y-35121071D01*
X63499999Y-35263928D02*
X63571428Y-35192500D01*
X63571428Y-35192500D02*
X63714285Y-35121071D01*
X63714285Y-35121071D02*
X63928571Y-35121071D01*
X63928571Y-35121071D02*
X64071428Y-35192500D01*
X64071428Y-35192500D02*
X64142857Y-35335357D01*
X64142857Y-35335357D02*
X64142857Y-36121071D01*
X64142857Y-35335357D02*
X64214285Y-35192500D01*
X64214285Y-35192500D02*
X64357142Y-35121071D01*
X64357142Y-35121071D02*
X64571428Y-35121071D01*
X64571428Y-35121071D02*
X64714285Y-35192500D01*
X64714285Y-35192500D02*
X64785714Y-35335357D01*
X64785714Y-35335357D02*
X64785714Y-36121071D01*
X66142857Y-36121071D02*
X66142857Y-35335357D01*
X66142857Y-35335357D02*
X66071428Y-35192500D01*
X66071428Y-35192500D02*
X65928571Y-35121071D01*
X65928571Y-35121071D02*
X65642857Y-35121071D01*
X65642857Y-35121071D02*
X65499999Y-35192500D01*
X66142857Y-36049642D02*
X65999999Y-36121071D01*
X65999999Y-36121071D02*
X65642857Y-36121071D01*
X65642857Y-36121071D02*
X65499999Y-36049642D01*
X65499999Y-36049642D02*
X65428571Y-35906785D01*
X65428571Y-35906785D02*
X65428571Y-35763928D01*
X65428571Y-35763928D02*
X65499999Y-35621071D01*
X65499999Y-35621071D02*
X65642857Y-35549642D01*
X65642857Y-35549642D02*
X65999999Y-35549642D01*
X65999999Y-35549642D02*
X66142857Y-35478214D01*
X66642857Y-35121071D02*
X67214285Y-35121071D01*
X66857142Y-34621071D02*
X66857142Y-35906785D01*
X66857142Y-35906785D02*
X66928571Y-36049642D01*
X66928571Y-36049642D02*
X67071428Y-36121071D01*
X67071428Y-36121071D02*
X67214285Y-36121071D01*
X67714285Y-36121071D02*
X67714285Y-35121071D01*
X67714285Y-34621071D02*
X67642857Y-34692500D01*
X67642857Y-34692500D02*
X67714285Y-34763928D01*
X67714285Y-34763928D02*
X67785714Y-34692500D01*
X67785714Y-34692500D02*
X67714285Y-34621071D01*
X67714285Y-34621071D02*
X67714285Y-34763928D01*
X69071429Y-36049642D02*
X68928571Y-36121071D01*
X68928571Y-36121071D02*
X68642857Y-36121071D01*
X68642857Y-36121071D02*
X68500000Y-36049642D01*
X68500000Y-36049642D02*
X68428571Y-35978214D01*
X68428571Y-35978214D02*
X68357143Y-35835357D01*
X68357143Y-35835357D02*
X68357143Y-35406785D01*
X68357143Y-35406785D02*
X68428571Y-35263928D01*
X68428571Y-35263928D02*
X68500000Y-35192500D01*
X68500000Y-35192500D02*
X68642857Y-35121071D01*
X68642857Y-35121071D02*
X68928571Y-35121071D01*
X68928571Y-35121071D02*
X69071429Y-35192500D01*
X71328571Y-34621071D02*
X70614285Y-34621071D01*
X70614285Y-34621071D02*
X70542857Y-35335357D01*
X70542857Y-35335357D02*
X70614285Y-35263928D01*
X70614285Y-35263928D02*
X70757143Y-35192500D01*
X70757143Y-35192500D02*
X71114285Y-35192500D01*
X71114285Y-35192500D02*
X71257143Y-35263928D01*
X71257143Y-35263928D02*
X71328571Y-35335357D01*
X71328571Y-35335357D02*
X71400000Y-35478214D01*
X71400000Y-35478214D02*
X71400000Y-35835357D01*
X71400000Y-35835357D02*
X71328571Y-35978214D01*
X71328571Y-35978214D02*
X71257143Y-36049642D01*
X71257143Y-36049642D02*
X71114285Y-36121071D01*
X71114285Y-36121071D02*
X70757143Y-36121071D01*
X70757143Y-36121071D02*
X70614285Y-36049642D01*
X70614285Y-36049642D02*
X70542857Y-35978214D01*
X72685714Y-34621071D02*
X72399999Y-34621071D01*
X72399999Y-34621071D02*
X72257142Y-34692500D01*
X72257142Y-34692500D02*
X72185714Y-34763928D01*
X72185714Y-34763928D02*
X72042856Y-34978214D01*
X72042856Y-34978214D02*
X71971428Y-35263928D01*
X71971428Y-35263928D02*
X71971428Y-35835357D01*
X71971428Y-35835357D02*
X72042856Y-35978214D01*
X72042856Y-35978214D02*
X72114285Y-36049642D01*
X72114285Y-36049642D02*
X72257142Y-36121071D01*
X72257142Y-36121071D02*
X72542856Y-36121071D01*
X72542856Y-36121071D02*
X72685714Y-36049642D01*
X72685714Y-36049642D02*
X72757142Y-35978214D01*
X72757142Y-35978214D02*
X72828571Y-35835357D01*
X72828571Y-35835357D02*
X72828571Y-35478214D01*
X72828571Y-35478214D02*
X72757142Y-35335357D01*
X72757142Y-35335357D02*
X72685714Y-35263928D01*
X72685714Y-35263928D02*
X72542856Y-35192500D01*
X72542856Y-35192500D02*
X72257142Y-35192500D01*
X72257142Y-35192500D02*
X72114285Y-35263928D01*
X72114285Y-35263928D02*
X72042856Y-35335357D01*
X72042856Y-35335357D02*
X71971428Y-35478214D01*
X58357142Y-38551071D02*
X58357142Y-37051071D01*
X58357142Y-37051071D02*
X58714285Y-37051071D01*
X58714285Y-37051071D02*
X58928571Y-37122500D01*
X58928571Y-37122500D02*
X59071428Y-37265357D01*
X59071428Y-37265357D02*
X59142857Y-37408214D01*
X59142857Y-37408214D02*
X59214285Y-37693928D01*
X59214285Y-37693928D02*
X59214285Y-37908214D01*
X59214285Y-37908214D02*
X59142857Y-38193928D01*
X59142857Y-38193928D02*
X59071428Y-38336785D01*
X59071428Y-38336785D02*
X58928571Y-38479642D01*
X58928571Y-38479642D02*
X58714285Y-38551071D01*
X58714285Y-38551071D02*
X58357142Y-38551071D01*
X60500000Y-37551071D02*
X60500000Y-38551071D01*
X59857142Y-37551071D02*
X59857142Y-38336785D01*
X59857142Y-38336785D02*
X59928571Y-38479642D01*
X59928571Y-38479642D02*
X60071428Y-38551071D01*
X60071428Y-38551071D02*
X60285714Y-38551071D01*
X60285714Y-38551071D02*
X60428571Y-38479642D01*
X60428571Y-38479642D02*
X60500000Y-38408214D01*
X61214285Y-37551071D02*
X61214285Y-39051071D01*
X61214285Y-37622500D02*
X61357143Y-37551071D01*
X61357143Y-37551071D02*
X61642857Y-37551071D01*
X61642857Y-37551071D02*
X61785714Y-37622500D01*
X61785714Y-37622500D02*
X61857143Y-37693928D01*
X61857143Y-37693928D02*
X61928571Y-37836785D01*
X61928571Y-37836785D02*
X61928571Y-38265357D01*
X61928571Y-38265357D02*
X61857143Y-38408214D01*
X61857143Y-38408214D02*
X61785714Y-38479642D01*
X61785714Y-38479642D02*
X61642857Y-38551071D01*
X61642857Y-38551071D02*
X61357143Y-38551071D01*
X61357143Y-38551071D02*
X61214285Y-38479642D01*
X62785714Y-38551071D02*
X62642857Y-38479642D01*
X62642857Y-38479642D02*
X62571428Y-38336785D01*
X62571428Y-38336785D02*
X62571428Y-37051071D01*
X63928571Y-38479642D02*
X63785714Y-38551071D01*
X63785714Y-38551071D02*
X63500000Y-38551071D01*
X63500000Y-38551071D02*
X63357142Y-38479642D01*
X63357142Y-38479642D02*
X63285714Y-38336785D01*
X63285714Y-38336785D02*
X63285714Y-37765357D01*
X63285714Y-37765357D02*
X63357142Y-37622500D01*
X63357142Y-37622500D02*
X63500000Y-37551071D01*
X63500000Y-37551071D02*
X63785714Y-37551071D01*
X63785714Y-37551071D02*
X63928571Y-37622500D01*
X63928571Y-37622500D02*
X64000000Y-37765357D01*
X64000000Y-37765357D02*
X64000000Y-37908214D01*
X64000000Y-37908214D02*
X63285714Y-38051071D01*
X64499999Y-38551071D02*
X65285714Y-37551071D01*
X64499999Y-37551071D02*
X65285714Y-38551071D01*
X66757142Y-38551071D02*
X66757142Y-37051071D01*
X66757142Y-37051071D02*
X67257142Y-38122500D01*
X67257142Y-38122500D02*
X67757142Y-37051071D01*
X67757142Y-37051071D02*
X67757142Y-38551071D01*
X69114286Y-38551071D02*
X69114286Y-37765357D01*
X69114286Y-37765357D02*
X69042857Y-37622500D01*
X69042857Y-37622500D02*
X68900000Y-37551071D01*
X68900000Y-37551071D02*
X68614286Y-37551071D01*
X68614286Y-37551071D02*
X68471428Y-37622500D01*
X69114286Y-38479642D02*
X68971428Y-38551071D01*
X68971428Y-38551071D02*
X68614286Y-38551071D01*
X68614286Y-38551071D02*
X68471428Y-38479642D01*
X68471428Y-38479642D02*
X68400000Y-38336785D01*
X68400000Y-38336785D02*
X68400000Y-38193928D01*
X68400000Y-38193928D02*
X68471428Y-38051071D01*
X68471428Y-38051071D02*
X68614286Y-37979642D01*
X68614286Y-37979642D02*
X68971428Y-37979642D01*
X68971428Y-37979642D02*
X69114286Y-37908214D01*
X69614286Y-37551071D02*
X70185714Y-37551071D01*
X69828571Y-37051071D02*
X69828571Y-38336785D01*
X69828571Y-38336785D02*
X69900000Y-38479642D01*
X69900000Y-38479642D02*
X70042857Y-38551071D01*
X70042857Y-38551071D02*
X70185714Y-38551071D01*
X70685714Y-38551071D02*
X70685714Y-37551071D01*
X70685714Y-37836785D02*
X70757143Y-37693928D01*
X70757143Y-37693928D02*
X70828572Y-37622500D01*
X70828572Y-37622500D02*
X70971429Y-37551071D01*
X70971429Y-37551071D02*
X71114286Y-37551071D01*
X71614285Y-38551071D02*
X71614285Y-37551071D01*
X71614285Y-37051071D02*
X71542857Y-37122500D01*
X71542857Y-37122500D02*
X71614285Y-37193928D01*
X71614285Y-37193928D02*
X71685714Y-37122500D01*
X71685714Y-37122500D02*
X71614285Y-37051071D01*
X71614285Y-37051071D02*
X71614285Y-37193928D01*
X72185714Y-38551071D02*
X72971429Y-37551071D01*
X72185714Y-37551071D02*
X72971429Y-38551071D01*
X59214285Y-40981071D02*
X58714285Y-40266785D01*
X58357142Y-40981071D02*
X58357142Y-39481071D01*
X58357142Y-39481071D02*
X58928571Y-39481071D01*
X58928571Y-39481071D02*
X59071428Y-39552500D01*
X59071428Y-39552500D02*
X59142857Y-39623928D01*
X59142857Y-39623928D02*
X59214285Y-39766785D01*
X59214285Y-39766785D02*
X59214285Y-39981071D01*
X59214285Y-39981071D02*
X59142857Y-40123928D01*
X59142857Y-40123928D02*
X59071428Y-40195357D01*
X59071428Y-40195357D02*
X58928571Y-40266785D01*
X58928571Y-40266785D02*
X58357142Y-40266785D01*
X60642857Y-40981071D02*
X59785714Y-40981071D01*
X60214285Y-40981071D02*
X60214285Y-39481071D01*
X60214285Y-39481071D02*
X60071428Y-39695357D01*
X60071428Y-39695357D02*
X59928571Y-39838214D01*
X59928571Y-39838214D02*
X59785714Y-39909642D01*
X62114285Y-39623928D02*
X62185713Y-39552500D01*
X62185713Y-39552500D02*
X62328571Y-39481071D01*
X62328571Y-39481071D02*
X62685713Y-39481071D01*
X62685713Y-39481071D02*
X62828571Y-39552500D01*
X62828571Y-39552500D02*
X62899999Y-39623928D01*
X62899999Y-39623928D02*
X62971428Y-39766785D01*
X62971428Y-39766785D02*
X62971428Y-39909642D01*
X62971428Y-39909642D02*
X62899999Y-40123928D01*
X62899999Y-40123928D02*
X62042856Y-40981071D01*
X62042856Y-40981071D02*
X62971428Y-40981071D01*
X63899999Y-39481071D02*
X64042856Y-39481071D01*
X64042856Y-39481071D02*
X64185713Y-39552500D01*
X64185713Y-39552500D02*
X64257142Y-39623928D01*
X64257142Y-39623928D02*
X64328570Y-39766785D01*
X64328570Y-39766785D02*
X64399999Y-40052500D01*
X64399999Y-40052500D02*
X64399999Y-40409642D01*
X64399999Y-40409642D02*
X64328570Y-40695357D01*
X64328570Y-40695357D02*
X64257142Y-40838214D01*
X64257142Y-40838214D02*
X64185713Y-40909642D01*
X64185713Y-40909642D02*
X64042856Y-40981071D01*
X64042856Y-40981071D02*
X63899999Y-40981071D01*
X63899999Y-40981071D02*
X63757142Y-40909642D01*
X63757142Y-40909642D02*
X63685713Y-40838214D01*
X63685713Y-40838214D02*
X63614284Y-40695357D01*
X63614284Y-40695357D02*
X63542856Y-40409642D01*
X63542856Y-40409642D02*
X63542856Y-40052500D01*
X63542856Y-40052500D02*
X63614284Y-39766785D01*
X63614284Y-39766785D02*
X63685713Y-39623928D01*
X63685713Y-39623928D02*
X63757142Y-39552500D01*
X63757142Y-39552500D02*
X63899999Y-39481071D01*
X64971427Y-39623928D02*
X65042855Y-39552500D01*
X65042855Y-39552500D02*
X65185713Y-39481071D01*
X65185713Y-39481071D02*
X65542855Y-39481071D01*
X65542855Y-39481071D02*
X65685713Y-39552500D01*
X65685713Y-39552500D02*
X65757141Y-39623928D01*
X65757141Y-39623928D02*
X65828570Y-39766785D01*
X65828570Y-39766785D02*
X65828570Y-39909642D01*
X65828570Y-39909642D02*
X65757141Y-40123928D01*
X65757141Y-40123928D02*
X64899998Y-40981071D01*
X64899998Y-40981071D02*
X65828570Y-40981071D01*
X66328569Y-39481071D02*
X67257141Y-39481071D01*
X67257141Y-39481071D02*
X66757141Y-40052500D01*
X66757141Y-40052500D02*
X66971426Y-40052500D01*
X66971426Y-40052500D02*
X67114284Y-40123928D01*
X67114284Y-40123928D02*
X67185712Y-40195357D01*
X67185712Y-40195357D02*
X67257141Y-40338214D01*
X67257141Y-40338214D02*
X67257141Y-40695357D01*
X67257141Y-40695357D02*
X67185712Y-40838214D01*
X67185712Y-40838214D02*
X67114284Y-40909642D01*
X67114284Y-40909642D02*
X66971426Y-40981071D01*
X66971426Y-40981071D02*
X66542855Y-40981071D01*
X66542855Y-40981071D02*
X66399998Y-40909642D01*
X66399998Y-40909642D02*
X66328569Y-40838214D01*
X67899997Y-40409642D02*
X69042855Y-40409642D01*
X70042855Y-39481071D02*
X70185712Y-39481071D01*
X70185712Y-39481071D02*
X70328569Y-39552500D01*
X70328569Y-39552500D02*
X70399998Y-39623928D01*
X70399998Y-39623928D02*
X70471426Y-39766785D01*
X70471426Y-39766785D02*
X70542855Y-40052500D01*
X70542855Y-40052500D02*
X70542855Y-40409642D01*
X70542855Y-40409642D02*
X70471426Y-40695357D01*
X70471426Y-40695357D02*
X70399998Y-40838214D01*
X70399998Y-40838214D02*
X70328569Y-40909642D01*
X70328569Y-40909642D02*
X70185712Y-40981071D01*
X70185712Y-40981071D02*
X70042855Y-40981071D01*
X70042855Y-40981071D02*
X69899998Y-40909642D01*
X69899998Y-40909642D02*
X69828569Y-40838214D01*
X69828569Y-40838214D02*
X69757140Y-40695357D01*
X69757140Y-40695357D02*
X69685712Y-40409642D01*
X69685712Y-40409642D02*
X69685712Y-40052500D01*
X69685712Y-40052500D02*
X69757140Y-39766785D01*
X69757140Y-39766785D02*
X69828569Y-39623928D01*
X69828569Y-39623928D02*
X69899998Y-39552500D01*
X69899998Y-39552500D02*
X70042855Y-39481071D01*
X71042854Y-39481071D02*
X71971426Y-39481071D01*
X71971426Y-39481071D02*
X71471426Y-40052500D01*
X71471426Y-40052500D02*
X71685711Y-40052500D01*
X71685711Y-40052500D02*
X71828569Y-40123928D01*
X71828569Y-40123928D02*
X71899997Y-40195357D01*
X71899997Y-40195357D02*
X71971426Y-40338214D01*
X71971426Y-40338214D02*
X71971426Y-40695357D01*
X71971426Y-40695357D02*
X71899997Y-40838214D01*
X71899997Y-40838214D02*
X71828569Y-40909642D01*
X71828569Y-40909642D02*
X71685711Y-40981071D01*
X71685711Y-40981071D02*
X71257140Y-40981071D01*
X71257140Y-40981071D02*
X71114283Y-40909642D01*
X71114283Y-40909642D02*
X71042854Y-40838214D01*
D10*
X3691333Y42212620D02*
X3358000Y42688810D01*
X3119905Y42212620D02*
X3119905Y43212620D01*
X3119905Y43212620D02*
X3500857Y43212620D01*
X3500857Y43212620D02*
X3596095Y43165000D01*
X3596095Y43165000D02*
X3643714Y43117381D01*
X3643714Y43117381D02*
X3691333Y43022143D01*
X3691333Y43022143D02*
X3691333Y42879286D01*
X3691333Y42879286D02*
X3643714Y42784048D01*
X3643714Y42784048D02*
X3596095Y42736429D01*
X3596095Y42736429D02*
X3500857Y42688810D01*
X3500857Y42688810D02*
X3119905Y42688810D01*
X4548476Y42879286D02*
X4548476Y42212620D01*
X4310381Y43260239D02*
X4072286Y42545953D01*
X4072286Y42545953D02*
X4691333Y42545953D01*
X1151333Y42212620D02*
X818000Y42688810D01*
X579905Y42212620D02*
X579905Y43212620D01*
X579905Y43212620D02*
X960857Y43212620D01*
X960857Y43212620D02*
X1056095Y43165000D01*
X1056095Y43165000D02*
X1103714Y43117381D01*
X1103714Y43117381D02*
X1151333Y43022143D01*
X1151333Y43022143D02*
X1151333Y42879286D01*
X1151333Y42879286D02*
X1103714Y42784048D01*
X1103714Y42784048D02*
X1056095Y42736429D01*
X1056095Y42736429D02*
X960857Y42688810D01*
X960857Y42688810D02*
X579905Y42688810D01*
X1484667Y43212620D02*
X2103714Y43212620D01*
X2103714Y43212620D02*
X1770381Y42831667D01*
X1770381Y42831667D02*
X1913238Y42831667D01*
X1913238Y42831667D02*
X2008476Y42784048D01*
X2008476Y42784048D02*
X2056095Y42736429D01*
X2056095Y42736429D02*
X2103714Y42641191D01*
X2103714Y42641191D02*
X2103714Y42403096D01*
X2103714Y42403096D02*
X2056095Y42307858D01*
X2056095Y42307858D02*
X2008476Y42260239D01*
X2008476Y42260239D02*
X1913238Y42212620D01*
X1913238Y42212620D02*
X1627524Y42212620D01*
X1627524Y42212620D02*
X1532286Y42260239D01*
X1532286Y42260239D02*
X1484667Y42307858D01*
D11*
X-3535715Y-32051071D02*
X-4250001Y-32051071D01*
X-4250001Y-32051071D02*
X-4250001Y-30551071D01*
X-2464286Y-31979642D02*
X-2607143Y-32051071D01*
X-2607143Y-32051071D02*
X-2892857Y-32051071D01*
X-2892857Y-32051071D02*
X-3035715Y-31979642D01*
X-3035715Y-31979642D02*
X-3107143Y-31836785D01*
X-3107143Y-31836785D02*
X-3107143Y-31265357D01*
X-3107143Y-31265357D02*
X-3035715Y-31122500D01*
X-3035715Y-31122500D02*
X-2892857Y-31051071D01*
X-2892857Y-31051071D02*
X-2607143Y-31051071D01*
X-2607143Y-31051071D02*
X-2464286Y-31122500D01*
X-2464286Y-31122500D02*
X-2392857Y-31265357D01*
X-2392857Y-31265357D02*
X-2392857Y-31408214D01*
X-2392857Y-31408214D02*
X-3107143Y-31551071D01*
X-1964286Y-31051071D02*
X-1392858Y-31051071D01*
X-1750001Y-32051071D02*
X-1750001Y-30765357D01*
X-1750001Y-30765357D02*
X-1678572Y-30622500D01*
X-1678572Y-30622500D02*
X-1535715Y-30551071D01*
X-1535715Y-30551071D02*
X-1392858Y-30551071D01*
X-1107143Y-31051071D02*
X-535715Y-31051071D01*
X-892858Y-30551071D02*
X-892858Y-31836785D01*
X-892858Y-31836785D02*
X-821429Y-31979642D01*
X-821429Y-31979642D02*
X-678572Y-32051071D01*
X-678572Y-32051071D02*
X-535715Y-32051071D01*
D10*
%TO.C,SW17*%
X16700000Y16400000D02*
X16700000Y15682000D01*
X16700000Y15682000D02*
X16700000Y15682000D01*
X16700000Y12380000D02*
X16700000Y11800000D01*
X16725000Y16425000D02*
X19275000Y16425000D01*
X16725000Y11775000D02*
X21275000Y11775000D01*
X21280000Y12500000D02*
X21280000Y11800000D01*
X21575000Y18625000D02*
X26275000Y18625000D01*
X22500000Y13975000D02*
X26275000Y13975000D01*
X26275000Y18625000D02*
X26275000Y17968000D01*
X26275000Y14666000D02*
X26275000Y13975000D01*
X22500000Y13970000D02*
G75*
G03*
X21280000Y12550000I100000J-1320000D01*
G01*
X19200000Y16430001D02*
G75*
G03*
X21569999Y18600000I100000J2269999D01*
G01*
%TO.C,SW29*%
X16700000Y-1600000D02*
X16700000Y-2318000D01*
X16700000Y-2318000D02*
X16700000Y-2318000D01*
X16700000Y-5620000D02*
X16700000Y-6200000D01*
X16725000Y-1575000D02*
X19275000Y-1575000D01*
X16725000Y-6225000D02*
X21275000Y-6225000D01*
X21280000Y-5500000D02*
X21280000Y-6200000D01*
X21575000Y625000D02*
X26275000Y625000D01*
X22500000Y-4025000D02*
X26275000Y-4025000D01*
X26275000Y625000D02*
X26275000Y-32000D01*
X26275000Y-3334000D02*
X26275000Y-4025000D01*
X22500000Y-4030000D02*
G75*
G03*
X21280000Y-5450000I100000J-1320000D01*
G01*
X19200000Y-1569999D02*
G75*
G03*
X21569999Y600000I100000J2269999D01*
G01*
%TO.C,SW51*%
X45200000Y-39600000D02*
X45200000Y-40318000D01*
X45200000Y-40318000D02*
X45200000Y-40318000D01*
X45200000Y-43620000D02*
X45200000Y-44200000D01*
X45225000Y-39575000D02*
X47775000Y-39575000D01*
X45225000Y-44225000D02*
X49775000Y-44225000D01*
X49780000Y-43500000D02*
X49780000Y-44200000D01*
X50075000Y-37375000D02*
X54775000Y-37375000D01*
X51000000Y-42025000D02*
X54775000Y-42025000D01*
X54775000Y-37375000D02*
X54775000Y-38032000D01*
X54775000Y-41334000D02*
X54775000Y-42025000D01*
X51000000Y-42030000D02*
G75*
G03*
X49780000Y-43450000I100000J-1320000D01*
G01*
X47700000Y-39569999D02*
G75*
G03*
X50069999Y-37400000I100000J2269999D01*
G01*
%TO.C,D27*%
X54300000Y7250000D02*
X54300000Y5750000D01*
X54300000Y5750000D02*
X59700000Y5750000D01*
X56500000Y7000000D02*
X56500000Y6000000D01*
X56600000Y6500000D02*
X57500000Y7000000D01*
X57500000Y7000000D02*
X57500000Y6000000D01*
X57500000Y6000000D02*
X56600000Y6500000D01*
X59700000Y7250000D02*
X54300000Y7250000D01*
X59700000Y7250000D02*
X59700000Y5750000D01*
%TO.C,D18*%
X-2700000Y23250000D02*
X-2700000Y21750000D01*
X-2700000Y21750000D02*
X2700000Y21750000D01*
X-500000Y23000000D02*
X-500000Y22000000D01*
X-400000Y22500000D02*
X500000Y23000000D01*
X500000Y23000000D02*
X500000Y22000000D01*
X500000Y22000000D02*
X-400000Y22500000D01*
X2700000Y23250000D02*
X-2700000Y23250000D01*
X2700000Y23250000D02*
X2700000Y21750000D01*
%TO.C,SW15*%
X54700000Y16400000D02*
X54700000Y15682000D01*
X54700000Y15682000D02*
X54700000Y15682000D01*
X54700000Y12380000D02*
X54700000Y11800000D01*
X54725000Y16425000D02*
X57275000Y16425000D01*
X54725000Y11775000D02*
X59275000Y11775000D01*
X59280000Y12500000D02*
X59280000Y11800000D01*
X59575000Y18625000D02*
X64275000Y18625000D01*
X60500000Y13975000D02*
X64275000Y13975000D01*
X64275000Y18625000D02*
X64275000Y17968000D01*
X64275000Y14666000D02*
X64275000Y13975000D01*
X60500000Y13970000D02*
G75*
G03*
X59280000Y12550000I100000J-1320000D01*
G01*
X57200000Y16430001D02*
G75*
G03*
X59569999Y18600000I100000J2269999D01*
G01*
%TO.C,D15*%
X54300000Y25250000D02*
X54300000Y23750000D01*
X54300000Y23750000D02*
X59700000Y23750000D01*
X56500000Y25000000D02*
X56500000Y24000000D01*
X56600000Y24500000D02*
X57500000Y25000000D01*
X57500000Y25000000D02*
X57500000Y24000000D01*
X57500000Y24000000D02*
X56600000Y24500000D01*
X59700000Y25250000D02*
X54300000Y25250000D01*
X59700000Y25250000D02*
X59700000Y23750000D01*
%TO.C,D1*%
X92300000Y29750000D02*
X92300000Y28250000D01*
X92300000Y28250000D02*
X97700000Y28250000D01*
X94500000Y29500000D02*
X94500000Y28500000D01*
X94600000Y29000000D02*
X95500000Y29500000D01*
X95500000Y29500000D02*
X95500000Y28500000D01*
X95500000Y28500000D02*
X94600000Y29000000D01*
X97700000Y29750000D02*
X92300000Y29750000D01*
X97700000Y29750000D02*
X97700000Y28250000D01*
%TO.C,D37*%
X92300000Y-24250000D02*
X92300000Y-25750000D01*
X92300000Y-25750000D02*
X97700000Y-25750000D01*
X94500000Y-24500000D02*
X94500000Y-25500000D01*
X94600000Y-25000000D02*
X95500000Y-24500000D01*
X95500000Y-24500000D02*
X95500000Y-25500000D01*
X95500000Y-25500000D02*
X94600000Y-25000000D01*
X97700000Y-24250000D02*
X92300000Y-24250000D01*
X97700000Y-24250000D02*
X97700000Y-25750000D01*
%TO.C,D52*%
X25800000Y-30750000D02*
X25800000Y-32250000D01*
X25800000Y-32250000D02*
X31200000Y-32250000D01*
X28000000Y-31000000D02*
X28000000Y-32000000D01*
X28100000Y-31500000D02*
X29000000Y-31000000D01*
X29000000Y-31000000D02*
X29000000Y-32000000D01*
X29000000Y-32000000D02*
X28100000Y-31500000D01*
X31200000Y-30750000D02*
X25800000Y-30750000D01*
X31200000Y-30750000D02*
X31200000Y-32250000D01*
%TO.C,D2*%
X73300000Y34250000D02*
X73300000Y32750000D01*
X73300000Y32750000D02*
X78700000Y32750000D01*
X75500000Y34000000D02*
X75500000Y33000000D01*
X75600000Y33500000D02*
X76500000Y34000000D01*
X76500000Y34000000D02*
X76500000Y33000000D01*
X76500000Y33000000D02*
X75600000Y33500000D01*
X78700000Y34250000D02*
X73300000Y34250000D01*
X78700000Y34250000D02*
X78700000Y32750000D01*
%TO.C,SW3*%
X54700000Y34400000D02*
X54700000Y33682000D01*
X54700000Y33682000D02*
X54700000Y33682000D01*
X54700000Y30380000D02*
X54700000Y29800000D01*
X54725000Y34425000D02*
X57275000Y34425000D01*
X54725000Y29775000D02*
X59275000Y29775000D01*
X59280000Y30500000D02*
X59280000Y29800000D01*
X59575000Y36625000D02*
X64275000Y36625000D01*
X60500000Y31975000D02*
X64275000Y31975000D01*
X64275000Y36625000D02*
X64275000Y35968000D01*
X64275000Y32666000D02*
X64275000Y31975000D01*
X60500000Y31970000D02*
G75*
G03*
X59280000Y30550000I100000J-1320000D01*
G01*
X57200000Y34430001D02*
G75*
G03*
X59569999Y36600000I100000J2269999D01*
G01*
%TO.C,D16*%
X35300000Y28250000D02*
X35300000Y26750000D01*
X35300000Y26750000D02*
X40700000Y26750000D01*
X37500000Y28000000D02*
X37500000Y27000000D01*
X37600000Y27500000D02*
X38500000Y28000000D01*
X38500000Y28000000D02*
X38500000Y27000000D01*
X38500000Y27000000D02*
X37600000Y27500000D01*
X40700000Y28250000D02*
X35300000Y28250000D01*
X40700000Y28250000D02*
X40700000Y26750000D01*
%TO.C,SW4*%
X35700000Y37399997D02*
X35700000Y36681997D01*
X35700000Y36681997D02*
X35700000Y36681997D01*
X35700000Y33379997D02*
X35700000Y32799997D01*
X35725000Y37424997D02*
X38275000Y37424997D01*
X35725000Y32774997D02*
X40275000Y32774997D01*
X40280000Y33499997D02*
X40280000Y32799997D01*
X40575000Y39624997D02*
X45275000Y39624997D01*
X41500000Y34974997D02*
X45275000Y34974997D01*
X45275000Y39624997D02*
X45275000Y38967997D01*
X45275000Y35665997D02*
X45275000Y34974997D01*
X41500000Y34969997D02*
G75*
G03*
X40280000Y33549997I100000J-1320000D01*
G01*
X38200000Y37429998D02*
G75*
G03*
X40569999Y39599997I100000J2269999D01*
G01*
%TO.C,SW26*%
X73700000Y-10600000D02*
X73700000Y-11318000D01*
X73700000Y-11318000D02*
X73700000Y-11318000D01*
X73700000Y-14620000D02*
X73700000Y-15200000D01*
X73725000Y-10575000D02*
X76275000Y-10575000D01*
X73725000Y-15225000D02*
X78275000Y-15225000D01*
X78280000Y-14500000D02*
X78280000Y-15200000D01*
X78575000Y-8375000D02*
X83275000Y-8375000D01*
X79500000Y-13025000D02*
X83275000Y-13025000D01*
X83275000Y-8375000D02*
X83275000Y-9032000D01*
X83275000Y-12334000D02*
X83275000Y-13025000D01*
X79500000Y-13030000D02*
G75*
G03*
X78280000Y-14450000I100000J-1320000D01*
G01*
X76200000Y-10569999D02*
G75*
G03*
X78569999Y-8400000I100000J2269999D01*
G01*
%TO.C,D4*%
X35300000Y46250000D02*
X35300000Y44750000D01*
X35300000Y44750000D02*
X40700000Y44750000D01*
X37500000Y46000000D02*
X37500000Y45000000D01*
X37600000Y45500000D02*
X38500000Y46000000D01*
X38500000Y46000000D02*
X38500000Y45000000D01*
X38500000Y45000000D02*
X37600000Y45500000D01*
X40700000Y46250000D02*
X35300000Y46250000D01*
X40700000Y46250000D02*
X40700000Y44750000D01*
%TO.C,D3*%
X54300000Y43250000D02*
X54300000Y41750000D01*
X54300000Y41750000D02*
X59700000Y41750000D01*
X56500000Y43000000D02*
X56500000Y42000000D01*
X56600000Y42500000D02*
X57500000Y43000000D01*
X57500000Y43000000D02*
X57500000Y42000000D01*
X57500000Y42000000D02*
X56600000Y42500000D01*
X59700000Y43250000D02*
X54300000Y43250000D01*
X59700000Y43250000D02*
X59700000Y41750000D01*
%TO.C,SW38*%
X73700000Y-28600000D02*
X73700000Y-29318000D01*
X73700000Y-29318000D02*
X73700000Y-29318000D01*
X73700000Y-32620000D02*
X73700000Y-33200000D01*
X73725000Y-28575000D02*
X76275000Y-28575000D01*
X73725000Y-33225000D02*
X78275000Y-33225000D01*
X78280000Y-32500000D02*
X78280000Y-33200000D01*
X78575000Y-26375000D02*
X83275000Y-26375000D01*
X79500000Y-31025000D02*
X83275000Y-31025000D01*
X83275000Y-26375000D02*
X83275000Y-27032000D01*
X83275000Y-30334000D02*
X83275000Y-31025000D01*
X79500000Y-31030000D02*
G75*
G03*
X78280000Y-32450000I100000J-1320000D01*
G01*
X76200000Y-28569999D02*
G75*
G03*
X78569999Y-26400000I100000J2269999D01*
G01*
%TO.C,D54*%
X-15593685Y-34918685D02*
X-15080655Y-36328224D01*
X-15080655Y-36328224D02*
X-10006315Y-34481315D01*
X-13440856Y-34401164D02*
X-13098836Y-35340856D01*
X-13175877Y-34836808D02*
X-12501164Y-34059144D01*
X-12501164Y-34059144D02*
X-12159144Y-34998836D01*
X-12159144Y-34998836D02*
X-13175877Y-34836808D01*
X-10519345Y-33071776D02*
X-15593685Y-34918685D01*
X-10519345Y-33071776D02*
X-10006315Y-34481315D01*
%TO.C,SW27*%
X54700000Y-1600000D02*
X54700000Y-2318000D01*
X54700000Y-2318000D02*
X54700000Y-2318000D01*
X54700000Y-5620000D02*
X54700000Y-6200000D01*
X54725000Y-1575000D02*
X57275000Y-1575000D01*
X54725000Y-6225000D02*
X59275000Y-6225000D01*
X59280000Y-5500000D02*
X59280000Y-6200000D01*
X59575000Y625000D02*
X64275000Y625000D01*
X60500000Y-4025000D02*
X64275000Y-4025000D01*
X64275000Y625000D02*
X64275000Y-32000D01*
X64275000Y-3334000D02*
X64275000Y-4025000D01*
X60500000Y-4030000D02*
G75*
G03*
X59280000Y-5450000I100000J-1320000D01*
G01*
X57200000Y-1569999D02*
G75*
G03*
X59569999Y600000I100000J2269999D01*
G01*
%TO.C,D53*%
X6800000Y-30750000D02*
X6800000Y-32250000D01*
X6800000Y-32250000D02*
X12200000Y-32250000D01*
X9000000Y-31000000D02*
X9000000Y-32000000D01*
X9100000Y-31500000D02*
X10000000Y-31000000D01*
X10000000Y-31000000D02*
X10000000Y-32000000D01*
X10000000Y-32000000D02*
X9100000Y-31500000D01*
X12200000Y-30750000D02*
X6800000Y-30750000D01*
X12200000Y-30750000D02*
X12200000Y-32250000D01*
%TO.C,D39*%
X54300000Y-10750000D02*
X54300000Y-12250000D01*
X54300000Y-12250000D02*
X59700000Y-12250000D01*
X56500000Y-11000000D02*
X56500000Y-12000000D01*
X56600000Y-11500000D02*
X57500000Y-11000000D01*
X57500000Y-11000000D02*
X57500000Y-12000000D01*
X57500000Y-12000000D02*
X56600000Y-11500000D01*
X59700000Y-10750000D02*
X54300000Y-10750000D01*
X59700000Y-10750000D02*
X59700000Y-12250000D01*
%TO.C,SW52*%
X26200000Y-39600000D02*
X26200000Y-40318000D01*
X26200000Y-40318000D02*
X26200000Y-40318000D01*
X26200000Y-43620000D02*
X26200000Y-44200000D01*
X26225000Y-39575000D02*
X28775000Y-39575000D01*
X26225000Y-44225000D02*
X30775000Y-44225000D01*
X30780000Y-43500000D02*
X30780000Y-44200000D01*
X31075000Y-37375000D02*
X35775000Y-37375000D01*
X32000000Y-42025000D02*
X35775000Y-42025000D01*
X35775000Y-37375000D02*
X35775000Y-38032000D01*
X35775000Y-41334000D02*
X35775000Y-42025000D01*
X32000000Y-42030000D02*
G75*
G03*
X30780000Y-43450000I100000J-1320000D01*
G01*
X28700000Y-39569999D02*
G75*
G03*
X31069999Y-37400000I100000J2269999D01*
G01*
%TO.C,D42*%
X-2700000Y-12750000D02*
X-2700000Y-14250000D01*
X-2700000Y-14250000D02*
X2700000Y-14250000D01*
X-500000Y-13000000D02*
X-500000Y-14000000D01*
X-400000Y-13500000D02*
X500000Y-13000000D01*
X500000Y-13000000D02*
X500000Y-14000000D01*
X500000Y-14000000D02*
X-400000Y-13500000D01*
X2700000Y-12750000D02*
X-2700000Y-12750000D01*
X2700000Y-12750000D02*
X2700000Y-14250000D01*
%TO.C,D30*%
X-2700000Y5250000D02*
X-2700000Y3750000D01*
X-2700000Y3750000D02*
X2700000Y3750000D01*
X-500000Y5000000D02*
X-500000Y4000000D01*
X-400000Y4500000D02*
X500000Y5000000D01*
X500000Y5000000D02*
X500000Y4000000D01*
X500000Y4000000D02*
X-400000Y4500000D01*
X2700000Y5250000D02*
X-2700000Y5250000D01*
X2700000Y5250000D02*
X2700000Y3750000D01*
%TO.C,SW13*%
X92700000Y2900000D02*
X92700000Y2182000D01*
X92700000Y2182000D02*
X92700000Y2182000D01*
X92700000Y-1120000D02*
X92700000Y-1700000D01*
X92725000Y2925000D02*
X95275000Y2925000D01*
X92725000Y-1725000D02*
X97275000Y-1725000D01*
X97280000Y-1000000D02*
X97280000Y-1700000D01*
X97575000Y5125000D02*
X102275000Y5125000D01*
X98500000Y475000D02*
X102275000Y475000D01*
X102275000Y5125000D02*
X102275000Y4468000D01*
X102275000Y1166000D02*
X102275000Y475000D01*
X98500000Y470000D02*
G75*
G03*
X97280000Y-950000I100000J-1320000D01*
G01*
X95200000Y2930001D02*
G75*
G03*
X97569999Y5100000I100000J2269999D01*
G01*
%TO.C,D28*%
X35300000Y10250000D02*
X35300000Y8750000D01*
X35300000Y8750000D02*
X40700000Y8750000D01*
X37500000Y10000000D02*
X37500000Y9000000D01*
X37600000Y9500000D02*
X38500000Y10000000D01*
X38500000Y10000000D02*
X38500000Y9000000D01*
X38500000Y9000000D02*
X37600000Y9500000D01*
X40700000Y10250000D02*
X35300000Y10250000D01*
X40700000Y10250000D02*
X40700000Y8750000D01*
%TO.C,D6*%
X-2700000Y41250000D02*
X-2700000Y39750000D01*
X-2700000Y39750000D02*
X2700000Y39750000D01*
X-500000Y41000000D02*
X-500000Y40000000D01*
X-400000Y40500000D02*
X500000Y41000000D01*
X500000Y41000000D02*
X500000Y40000000D01*
X500000Y40000000D02*
X-400000Y40500000D01*
X2700000Y41250000D02*
X-2700000Y41250000D01*
X2700000Y41250000D02*
X2700000Y39750000D01*
%TO.C,SW5*%
X16700000Y34400002D02*
X16700000Y33682002D01*
X16700000Y33682002D02*
X16700000Y33682002D01*
X16700000Y30380002D02*
X16700000Y29800002D01*
X16725000Y34425002D02*
X19275000Y34425002D01*
X16725000Y29775002D02*
X21275000Y29775002D01*
X21280000Y30500002D02*
X21280000Y29800002D01*
X21575000Y36625002D02*
X26275000Y36625002D01*
X22500000Y31975002D02*
X26275000Y31975002D01*
X26275000Y36625002D02*
X26275000Y35968002D01*
X26275000Y32666002D02*
X26275000Y31975002D01*
X22500000Y31970002D02*
G75*
G03*
X21280000Y30550002I100000J-1320000D01*
G01*
X19200000Y34430003D02*
G75*
G03*
X21569999Y36600002I100000J2269999D01*
G01*
%TO.C,SW28*%
X35700000Y1400000D02*
X35700000Y682000D01*
X35700000Y682000D02*
X35700000Y682000D01*
X35700000Y-2620000D02*
X35700000Y-3200000D01*
X35725000Y1425000D02*
X38275000Y1425000D01*
X35725000Y-3225000D02*
X40275000Y-3225000D01*
X40280000Y-2500000D02*
X40280000Y-3200000D01*
X40575000Y3625000D02*
X45275000Y3625000D01*
X41500000Y-1025000D02*
X45275000Y-1025000D01*
X45275000Y3625000D02*
X45275000Y2968000D01*
X45275000Y-334000D02*
X45275000Y-1025000D01*
X41500000Y-1030000D02*
G75*
G03*
X40280000Y-2450000I100000J-1320000D01*
G01*
X38200000Y1430001D02*
G75*
G03*
X40569999Y3600000I100000J2269999D01*
G01*
%TO.C,SW1*%
X92700000Y20900000D02*
X92700000Y20182000D01*
X92700000Y20182000D02*
X92700000Y20182000D01*
X92700000Y16880000D02*
X92700000Y16300000D01*
X92725000Y20925000D02*
X95275000Y20925000D01*
X92725000Y16275000D02*
X97275000Y16275000D01*
X97280000Y17000000D02*
X97280000Y16300000D01*
X97575000Y23125000D02*
X102275000Y23125000D01*
X98500000Y18475000D02*
X102275000Y18475000D01*
X102275000Y23125000D02*
X102275000Y22468000D01*
X102275000Y19166000D02*
X102275000Y18475000D01*
X98500000Y18470000D02*
G75*
G03*
X97280000Y17050000I100000J-1320000D01*
G01*
X95200000Y20930001D02*
G75*
G03*
X97569999Y23100000I100000J2269999D01*
G01*
%TO.C,D13*%
X92300000Y11750000D02*
X92300000Y10250000D01*
X92300000Y10250000D02*
X97700000Y10250000D01*
X94500000Y11500000D02*
X94500000Y10500000D01*
X94600000Y11000000D02*
X95500000Y11500000D01*
X95500000Y11500000D02*
X95500000Y10500000D01*
X95500000Y10500000D02*
X94600000Y11000000D01*
X97700000Y11750000D02*
X92300000Y11750000D01*
X97700000Y11750000D02*
X97700000Y10250000D01*
%TO.C,SW42*%
X-2300000Y-21600000D02*
X-2300000Y-22318000D01*
X-2300000Y-22318000D02*
X-2300000Y-22318000D01*
X-2300000Y-25620000D02*
X-2300000Y-26200000D01*
X-2275000Y-21575000D02*
X275000Y-21575000D01*
X-2275000Y-26225000D02*
X2275000Y-26225000D01*
X2280000Y-25500000D02*
X2280000Y-26200000D01*
X2575000Y-19375000D02*
X7275000Y-19375000D01*
X3500000Y-24025000D02*
X7275000Y-24025000D01*
X7275000Y-19375000D02*
X7275000Y-20032000D01*
X7275000Y-23334000D02*
X7275000Y-24025000D01*
X3500000Y-24030000D02*
G75*
G03*
X2280000Y-25450000I100000J-1320000D01*
G01*
X200000Y-21569999D02*
G75*
G03*
X2569999Y-19400000I100000J2269999D01*
G01*
%TO.C,SW14*%
X73700000Y7400000D02*
X73700000Y6682000D01*
X73700000Y6682000D02*
X73700000Y6682000D01*
X73700000Y3380000D02*
X73700000Y2800000D01*
X73725000Y7425000D02*
X76275000Y7425000D01*
X73725000Y2775000D02*
X78275000Y2775000D01*
X78280000Y3500000D02*
X78280000Y2800000D01*
X78575000Y9625000D02*
X83275000Y9625000D01*
X79500000Y4975000D02*
X83275000Y4975000D01*
X83275000Y9625000D02*
X83275000Y8968000D01*
X83275000Y5666000D02*
X83275000Y4975000D01*
X79500000Y4970000D02*
G75*
G03*
X78280000Y3550000I100000J-1320000D01*
G01*
X76200000Y7430001D02*
G75*
G03*
X78569999Y9600000I100000J2269999D01*
G01*
%TO.C,SW30*%
X-2300000Y-3600000D02*
X-2300000Y-4318000D01*
X-2300000Y-4318000D02*
X-2300000Y-4318000D01*
X-2300000Y-7620000D02*
X-2300000Y-8200000D01*
X-2275000Y-3575000D02*
X275000Y-3575000D01*
X-2275000Y-8225000D02*
X2275000Y-8225000D01*
X2280000Y-7500000D02*
X2280000Y-8200000D01*
X2575000Y-1375000D02*
X7275000Y-1375000D01*
X3500000Y-6025000D02*
X7275000Y-6025000D01*
X7275000Y-1375000D02*
X7275000Y-2032000D01*
X7275000Y-5334000D02*
X7275000Y-6025000D01*
X3500000Y-6030000D02*
G75*
G03*
X2280000Y-7450000I100000J-1320000D01*
G01*
X200000Y-3569999D02*
G75*
G03*
X2569999Y-1400000I100000J2269999D01*
G01*
D12*
%TO.C,J1*%
X5080000Y46365000D02*
X5080000Y47000000D01*
X-3810000Y43000000D02*
X-5080000Y43000000D01*
X-5080000Y43000000D02*
X-5080000Y47000000D01*
D10*
%TO.C,D26*%
X73300000Y-1750000D02*
X73300000Y-3250000D01*
X73300000Y-3250000D02*
X78700000Y-3250000D01*
X75500000Y-2000000D02*
X75500000Y-3000000D01*
X75600000Y-2500000D02*
X76500000Y-2000000D01*
X76500000Y-2000000D02*
X76500000Y-3000000D01*
X76500000Y-3000000D02*
X75600000Y-2500000D01*
X78700000Y-1750000D02*
X73300000Y-1750000D01*
X78700000Y-1750000D02*
X78700000Y-3250000D01*
%TO.C,SW53*%
X7199996Y-39600000D02*
X7199996Y-40318000D01*
X7199996Y-40318000D02*
X7199996Y-40318000D01*
X7199996Y-43620000D02*
X7199996Y-44200000D01*
X7224996Y-39575000D02*
X9774996Y-39575000D01*
X7224996Y-44225000D02*
X11774996Y-44225000D01*
X11779996Y-43500000D02*
X11779996Y-44200000D01*
X12074996Y-37375000D02*
X16774996Y-37375000D01*
X12999996Y-42025000D02*
X16774996Y-42025000D01*
X16774996Y-37375000D02*
X16774996Y-38032000D01*
X16774996Y-41334000D02*
X16774996Y-42025000D01*
X12999996Y-42030000D02*
G75*
G03*
X11779996Y-43450000I100000J-1320000D01*
G01*
X9699996Y-39569999D02*
G75*
G03*
X12069995Y-37400000I100000J2269999D01*
G01*
%TO.C,SW18*%
X-2300000Y14400000D02*
X-2300000Y13682000D01*
X-2300000Y13682000D02*
X-2300000Y13682000D01*
X-2300000Y10380000D02*
X-2300000Y9800000D01*
X-2275000Y14425000D02*
X275000Y14425000D01*
X-2275000Y9775000D02*
X2275000Y9775000D01*
X2280000Y10500000D02*
X2280000Y9800000D01*
X2575000Y16625000D02*
X7275000Y16625000D01*
X3500000Y11975000D02*
X7275000Y11975000D01*
X7275000Y16625000D02*
X7275000Y15968000D01*
X7275000Y12666000D02*
X7275000Y11975000D01*
X3500000Y11970000D02*
G75*
G03*
X2280000Y10550000I100000J-1320000D01*
G01*
X200000Y14430001D02*
G75*
G03*
X2569999Y16600000I100000J2269999D01*
G01*
%TO.C,SW40*%
X35700000Y-16600000D02*
X35700000Y-17318000D01*
X35700000Y-17318000D02*
X35700000Y-17318000D01*
X35700000Y-20620000D02*
X35700000Y-21200000D01*
X35725000Y-16575000D02*
X38275000Y-16575000D01*
X35725000Y-21225000D02*
X40275000Y-21225000D01*
X40280000Y-20500000D02*
X40280000Y-21200000D01*
X40575000Y-14375000D02*
X45275000Y-14375000D01*
X41500000Y-19025000D02*
X45275000Y-19025000D01*
X45275000Y-14375000D02*
X45275000Y-15032000D01*
X45275000Y-18334000D02*
X45275000Y-19025000D01*
X41500000Y-19030000D02*
G75*
G03*
X40280000Y-20450000I100000J-1320000D01*
G01*
X38200000Y-16569999D02*
G75*
G03*
X40569999Y-14400000I100000J2269999D01*
G01*
%TO.C,SW41*%
X16700000Y-19600000D02*
X16700000Y-20318000D01*
X16700000Y-20318000D02*
X16700000Y-20318000D01*
X16700000Y-23620000D02*
X16700000Y-24200000D01*
X16725000Y-19575000D02*
X19275000Y-19575000D01*
X16725000Y-24225000D02*
X21275000Y-24225000D01*
X21280000Y-23500000D02*
X21280000Y-24200000D01*
X21575000Y-17375000D02*
X26275000Y-17375000D01*
X22500000Y-22025000D02*
X26275000Y-22025000D01*
X26275000Y-17375000D02*
X26275000Y-18032000D01*
X26275000Y-21334000D02*
X26275000Y-22025000D01*
X22500000Y-22030000D02*
G75*
G03*
X21280000Y-23450000I100000J-1320000D01*
G01*
X19200000Y-19569999D02*
G75*
G03*
X21569999Y-17400000I100000J2269999D01*
G01*
%TO.C,D14*%
X73300000Y16250000D02*
X73300000Y14750000D01*
X73300000Y14750000D02*
X78700000Y14750000D01*
X75500000Y16000000D02*
X75500000Y15000000D01*
X75600000Y15500000D02*
X76500000Y16000000D01*
X76500000Y16000000D02*
X76500000Y15000000D01*
X76500000Y15000000D02*
X75600000Y15500000D01*
X78700000Y16250000D02*
X73300000Y16250000D01*
X78700000Y16250000D02*
X78700000Y14750000D01*
%TO.C,D17*%
X16300000Y25250000D02*
X16300000Y23750000D01*
X16300000Y23750000D02*
X21700000Y23750000D01*
X18500000Y25000000D02*
X18500000Y24000000D01*
X18600000Y24500000D02*
X19500000Y25000000D01*
X19500000Y25000000D02*
X19500000Y24000000D01*
X19500000Y24000000D02*
X18600000Y24500000D01*
X21700000Y25250000D02*
X16300000Y25250000D01*
X21700000Y25250000D02*
X21700000Y23750000D01*
%TO.C,SW39*%
X54700000Y-19600000D02*
X54700000Y-20318000D01*
X54700000Y-20318000D02*
X54700000Y-20318000D01*
X54700000Y-23620000D02*
X54700000Y-24200000D01*
X54725000Y-19575000D02*
X57275000Y-19575000D01*
X54725000Y-24225000D02*
X59275000Y-24225000D01*
X59280000Y-23500000D02*
X59280000Y-24200000D01*
X59575000Y-17375000D02*
X64275000Y-17375000D01*
X60500000Y-22025000D02*
X64275000Y-22025000D01*
X64275000Y-17375000D02*
X64275000Y-18032000D01*
X64275000Y-21334000D02*
X64275000Y-22025000D01*
X60500000Y-22030000D02*
G75*
G03*
X59280000Y-23450000I100000J-1320000D01*
G01*
X57200000Y-19569999D02*
G75*
G03*
X59569999Y-17400000I100000J2269999D01*
G01*
%TO.C,D40*%
X35300000Y-7750000D02*
X35300000Y-9250000D01*
X35300000Y-9250000D02*
X40700000Y-9250000D01*
X37500000Y-8000000D02*
X37500000Y-9000000D01*
X37600000Y-8500000D02*
X38500000Y-8000000D01*
X38500000Y-8000000D02*
X38500000Y-9000000D01*
X38500000Y-9000000D02*
X37600000Y-8500000D01*
X40700000Y-7750000D02*
X35300000Y-7750000D01*
X40700000Y-7750000D02*
X40700000Y-9250000D01*
%TO.C,D51*%
X44800000Y-30750000D02*
X44800000Y-32250000D01*
X44800000Y-32250000D02*
X50200000Y-32250000D01*
X47000000Y-31000000D02*
X47000000Y-32000000D01*
X47100000Y-31500000D02*
X48000000Y-31000000D01*
X48000000Y-31000000D02*
X48000000Y-32000000D01*
X48000000Y-32000000D02*
X47100000Y-31500000D01*
X50200000Y-30750000D02*
X44800000Y-30750000D01*
X50200000Y-30750000D02*
X50200000Y-32250000D01*
%TO.C,SW6*%
X-2300000Y32400000D02*
X-2300000Y31682000D01*
X-2300000Y31682000D02*
X-2300000Y31682000D01*
X-2300000Y28380000D02*
X-2300000Y27800000D01*
X-2275000Y32425000D02*
X275000Y32425000D01*
X-2275000Y27775000D02*
X2275000Y27775000D01*
X2280000Y28500000D02*
X2280000Y27800000D01*
X2575000Y34625000D02*
X7275000Y34625000D01*
X3500000Y29975000D02*
X7275000Y29975000D01*
X7275000Y34625000D02*
X7275000Y33968000D01*
X7275000Y30666000D02*
X7275000Y29975000D01*
X3500000Y29970000D02*
G75*
G03*
X2280000Y28550000I100000J-1320000D01*
G01*
X200000Y32430001D02*
G75*
G03*
X2569999Y34600000I100000J2269999D01*
G01*
%TO.C,SW2*%
X73700000Y25400000D02*
X73700000Y24682000D01*
X73700000Y24682000D02*
X73700000Y24682000D01*
X73700000Y21380000D02*
X73700000Y20800000D01*
X73725000Y25425000D02*
X76275000Y25425000D01*
X73725000Y20775000D02*
X78275000Y20775000D01*
X78280000Y21500000D02*
X78280000Y20800000D01*
X78575000Y27625000D02*
X83275000Y27625000D01*
X79500000Y22975000D02*
X83275000Y22975000D01*
X83275000Y27625000D02*
X83275000Y26968000D01*
X83275000Y23666000D02*
X83275000Y22975000D01*
X79500000Y22970000D02*
G75*
G03*
X78280000Y21550000I100000J-1320000D01*
G01*
X76200000Y25430001D02*
G75*
G03*
X78569999Y27600000I100000J2269999D01*
G01*
%TO.C,SW25*%
X92700000Y-15100000D02*
X92700000Y-15818000D01*
X92700000Y-15818000D02*
X92700000Y-15818000D01*
X92700000Y-19120000D02*
X92700000Y-19700000D01*
X92725000Y-15075000D02*
X95275000Y-15075000D01*
X92725000Y-19725000D02*
X97275000Y-19725000D01*
X97280000Y-19000000D02*
X97280000Y-19700000D01*
X97575000Y-12875000D02*
X102275000Y-12875000D01*
X98500000Y-17525000D02*
X102275000Y-17525000D01*
X102275000Y-12875000D02*
X102275000Y-13532000D01*
X102275000Y-16834000D02*
X102275000Y-17525000D01*
X98500000Y-17530000D02*
G75*
G03*
X97280000Y-18950000I100000J-1320000D01*
G01*
X95200000Y-15069999D02*
G75*
G03*
X97569999Y-12900000I100000J2269999D01*
G01*
%TO.C,D29*%
X16300000Y7250000D02*
X16300000Y5750000D01*
X16300000Y5750000D02*
X21700000Y5750000D01*
X18500000Y7000000D02*
X18500000Y6000000D01*
X18600000Y6500000D02*
X19500000Y7000000D01*
X19500000Y7000000D02*
X19500000Y6000000D01*
X19500000Y6000000D02*
X18600000Y6500000D01*
X21700000Y7250000D02*
X16300000Y7250000D01*
X21700000Y7250000D02*
X21700000Y5750000D01*
%TO.C,D5*%
X16300000Y43250002D02*
X16300000Y41750002D01*
X16300000Y41750002D02*
X21700000Y41750002D01*
X18500000Y43000002D02*
X18500000Y42000002D01*
X18600000Y42500002D02*
X19500000Y43000002D01*
X19500000Y43000002D02*
X19500000Y42000002D01*
X19500000Y42000002D02*
X18600000Y42500002D01*
X21700000Y43250002D02*
X16300000Y43250002D01*
X21700000Y43250002D02*
X21700000Y41750002D01*
%TO.C,D25*%
X92300000Y-6250000D02*
X92300000Y-7750000D01*
X92300000Y-7750000D02*
X97700000Y-7750000D01*
X94500000Y-6500000D02*
X94500000Y-7500000D01*
X94600000Y-7000000D02*
X95500000Y-6500000D01*
X95500000Y-6500000D02*
X95500000Y-7500000D01*
X95500000Y-7500000D02*
X94600000Y-7000000D01*
X97700000Y-6250000D02*
X92300000Y-6250000D01*
X97700000Y-6250000D02*
X97700000Y-7750000D01*
%TO.C,SW16*%
X35700000Y19400000D02*
X35700000Y18682000D01*
X35700000Y18682000D02*
X35700000Y18682000D01*
X35700000Y15380000D02*
X35700000Y14800000D01*
X35725000Y19425000D02*
X38275000Y19425000D01*
X35725000Y14775000D02*
X40275000Y14775000D01*
X40280000Y15500000D02*
X40280000Y14800000D01*
X40575000Y21625000D02*
X45275000Y21625000D01*
X41500000Y16975000D02*
X45275000Y16975000D01*
X45275000Y21625000D02*
X45275000Y20968000D01*
X45275000Y17666000D02*
X45275000Y16975000D01*
X41500000Y16970000D02*
G75*
G03*
X40280000Y15550000I100000J-1320000D01*
G01*
X38200000Y19430001D02*
G75*
G03*
X40569999Y21600000I100000J2269999D01*
G01*
%TO.C,SW54*%
X-12400021Y-43133540D02*
X-12154450Y-43808239D01*
X-12154450Y-43808239D02*
X-12154450Y-43808239D01*
X-11025100Y-46911104D02*
X-10826728Y-47456126D01*
X-12385079Y-43101497D02*
X-9988863Y-42229346D01*
X-10794685Y-47471068D02*
X-6519084Y-45914876D01*
X-6762350Y-45231889D02*
X-6522936Y-45889674D01*
X-8580014Y-39375375D02*
X-4163458Y-37767881D01*
X-6120404Y-43428578D02*
X-2573065Y-42137451D01*
X-4163458Y-37767881D02*
X-3938751Y-38385259D01*
X-2809401Y-41488124D02*
X-2573065Y-42137451D01*
X-6118694Y-43433276D02*
G75*
G03*
X-6779451Y-45184904I545435J-1206192D01*
G01*
X-10061050Y-42250298D02*
G75*
G03*
X-8576162Y-39400578I-682416J2167304D01*
G01*
%TO.C,SW37*%
X92700000Y-33100000D02*
X92700000Y-33818000D01*
X92700000Y-33818000D02*
X92700000Y-33818000D01*
X92700000Y-37120000D02*
X92700000Y-37700000D01*
X92725000Y-33075000D02*
X95275000Y-33075000D01*
X92725000Y-37725000D02*
X97275000Y-37725000D01*
X97280000Y-37000000D02*
X97280000Y-37700000D01*
X97575000Y-30875000D02*
X102275000Y-30875000D01*
X98500000Y-35525000D02*
X102275000Y-35525000D01*
X102275000Y-30875000D02*
X102275000Y-31532000D01*
X102275000Y-34834000D02*
X102275000Y-35525000D01*
X98500000Y-35530000D02*
G75*
G03*
X97280000Y-36950000I100000J-1320000D01*
G01*
X95200000Y-33069999D02*
G75*
G03*
X97569999Y-30900000I100000J2269999D01*
G01*
%TO.C,D38*%
X73300000Y-19750000D02*
X73300000Y-21250000D01*
X73300000Y-21250000D02*
X78700000Y-21250000D01*
X75500000Y-20000000D02*
X75500000Y-21000000D01*
X75600000Y-20500000D02*
X76500000Y-20000000D01*
X76500000Y-20000000D02*
X76500000Y-21000000D01*
X76500000Y-21000000D02*
X75600000Y-20500000D01*
X78700000Y-19750000D02*
X73300000Y-19750000D01*
X78700000Y-19750000D02*
X78700000Y-21250000D01*
%TO.C,D41*%
X16300000Y-10750000D02*
X16300000Y-12250000D01*
X16300000Y-12250000D02*
X21700000Y-12250000D01*
X18500000Y-11000000D02*
X18500000Y-12000000D01*
X18600000Y-11500000D02*
X19500000Y-11000000D01*
X19500000Y-11000000D02*
X19500000Y-12000000D01*
X19500000Y-12000000D02*
X18600000Y-11500000D01*
X21700000Y-10750000D02*
X16300000Y-10750000D01*
X21700000Y-10750000D02*
X21700000Y-12250000D01*
%TD*%
%LPC*%
D13*
%TO.C,SW17*%
X24000000Y16300000D03*
D14*
X27254999Y16299999D03*
X15697999Y14099999D03*
%TD*%
D15*
%TO.C,H1*%
X38000000Y-25000000D03*
%TD*%
D13*
%TO.C,SW29*%
X24000000Y-1700000D03*
D14*
X27254999Y-1699999D03*
X15697999Y-3899999D03*
%TD*%
D13*
%TO.C,SW51*%
X52500000Y-39700000D03*
D14*
X55754999Y-39699999D03*
X44197999Y-41899999D03*
%TD*%
D16*
%TO.C,D27*%
X55224999Y6499999D03*
X58774999Y6499999D03*
%TD*%
%TO.C,D18*%
X-1774999Y22499999D03*
X1774999Y22499999D03*
%TD*%
D13*
%TO.C,SW15*%
X62000000Y16300000D03*
D14*
X65254999Y16299999D03*
X53697999Y14099999D03*
%TD*%
D16*
%TO.C,D15*%
X55224999Y24499999D03*
X58774999Y24499999D03*
%TD*%
%TO.C,D1*%
X93224999Y28999999D03*
X96774999Y28999999D03*
%TD*%
%TO.C,D37*%
X93224999Y-24999999D03*
X96774999Y-24999999D03*
%TD*%
%TO.C,D52*%
X26724999Y-31499999D03*
X30274999Y-31499999D03*
%TD*%
%TO.C,D2*%
X74224999Y33499999D03*
X77774999Y33499999D03*
%TD*%
D13*
%TO.C,SW3*%
X62000000Y34300000D03*
D14*
X65254999Y34299999D03*
X53697999Y32099999D03*
%TD*%
D16*
%TO.C,D16*%
X36224999Y27499999D03*
X39774999Y27499999D03*
%TD*%
D13*
%TO.C,SW4*%
X43000000Y37299997D03*
D14*
X46254999Y37299996D03*
X34697999Y35099996D03*
%TD*%
D13*
%TO.C,SW26*%
X81000000Y-10700000D03*
D14*
X84254999Y-10699999D03*
X72697999Y-12899999D03*
%TD*%
D16*
%TO.C,D4*%
X36224999Y45499999D03*
X39774999Y45499999D03*
%TD*%
%TO.C,D3*%
X55224999Y42499999D03*
X58774999Y42499999D03*
%TD*%
D13*
%TO.C,SW38*%
X81000000Y-28700000D03*
D14*
X84254999Y-28699999D03*
X72697999Y-30899999D03*
%TD*%
D17*
%TO.C,D54*%
X-14467953Y-35307085D03*
X-11132045Y-34092913D03*
%TD*%
D13*
%TO.C,SW27*%
X62000000Y-1700000D03*
D14*
X65254999Y-1699999D03*
X53697999Y-3899999D03*
%TD*%
D16*
%TO.C,D53*%
X7724999Y-31499999D03*
X11274999Y-31499999D03*
%TD*%
%TO.C,D39*%
X55224999Y-11499999D03*
X58774999Y-11499999D03*
%TD*%
D13*
%TO.C,SW52*%
X33500000Y-39700000D03*
D14*
X36754999Y-39699999D03*
X25197999Y-41899999D03*
%TD*%
D16*
%TO.C,D42*%
X-1774999Y-13499999D03*
X1774999Y-13499999D03*
%TD*%
%TO.C,D30*%
X-1774999Y4499999D03*
X1774999Y4499999D03*
%TD*%
D13*
%TO.C,SW13*%
X100000000Y2800000D03*
D14*
X103254999Y2799999D03*
X91697999Y599999D03*
%TD*%
D16*
%TO.C,D28*%
X36224999Y9499999D03*
X39774999Y9499999D03*
%TD*%
%TO.C,D6*%
X-1774999Y40499999D03*
X1774999Y40499999D03*
%TD*%
D13*
%TO.C,SW5*%
X24000000Y34300002D03*
D14*
X27254999Y34300001D03*
X15697999Y32100001D03*
%TD*%
D13*
%TO.C,SW28*%
X43000000Y1300000D03*
D14*
X46254999Y1299999D03*
X34697999Y-899999D03*
%TD*%
D13*
%TO.C,SW1*%
X100000000Y20800000D03*
D14*
X103254999Y20799999D03*
X91697999Y18599999D03*
%TD*%
D15*
%TO.C,H2*%
X82000000Y-38000000D03*
%TD*%
D16*
%TO.C,D13*%
X93224999Y10999999D03*
X96774999Y10999999D03*
%TD*%
D13*
%TO.C,SW42*%
X5000000Y-21700000D03*
D14*
X8254999Y-21699999D03*
X-3301999Y-23899999D03*
%TD*%
D13*
%TO.C,SW14*%
X81000000Y7300000D03*
D14*
X84254999Y7299999D03*
X72697999Y5099999D03*
%TD*%
D15*
%TO.C,H3*%
X71000000Y41000000D03*
%TD*%
D13*
%TO.C,SW30*%
X5000000Y-3700000D03*
D14*
X8254999Y-3699999D03*
X-3301999Y-5899999D03*
%TD*%
D18*
%TO.C,J1*%
X-3809999Y45221999D03*
D19*
X-1270000Y45349000D03*
X1270000Y45349000D03*
X3810000Y45349000D03*
%TD*%
D16*
%TO.C,D26*%
X74224999Y-2499999D03*
X77774999Y-2499999D03*
%TD*%
D13*
%TO.C,SW53*%
X14499996Y-39700000D03*
D14*
X17754995Y-39699999D03*
X6197995Y-41899999D03*
%TD*%
D15*
%TO.C,H4*%
X-9000000Y5000000D03*
%TD*%
D13*
%TO.C,SW18*%
X5000000Y14300000D03*
D14*
X8254999Y14299999D03*
X-3301999Y12099999D03*
%TD*%
D13*
%TO.C,SW40*%
X43000000Y-16700000D03*
D14*
X46254999Y-16699999D03*
X34697999Y-18899999D03*
%TD*%
D13*
%TO.C,SW41*%
X24000000Y-19700000D03*
D14*
X27254999Y-19699999D03*
X15697999Y-21899999D03*
%TD*%
D16*
%TO.C,D14*%
X74224999Y15499999D03*
X77774999Y15499999D03*
%TD*%
%TO.C,D17*%
X17224999Y24499999D03*
X20774999Y24499999D03*
%TD*%
D13*
%TO.C,SW39*%
X62000000Y-19700000D03*
D14*
X65254999Y-19699999D03*
X53697999Y-21899999D03*
%TD*%
D16*
%TO.C,D40*%
X36224999Y-8499999D03*
X39774999Y-8499999D03*
%TD*%
%TO.C,D51*%
X45724999Y-31499999D03*
X49274999Y-31499999D03*
%TD*%
D13*
%TO.C,SW6*%
X5000000Y32300000D03*
D14*
X8254999Y32299999D03*
X-3301999Y30099999D03*
%TD*%
D13*
%TO.C,SW2*%
X81000000Y25300000D03*
D14*
X84254999Y25299999D03*
X72697999Y23099999D03*
%TD*%
D13*
%TO.C,SW25*%
X100000000Y-15200000D03*
D14*
X103254999Y-15199999D03*
X91697999Y-17399999D03*
%TD*%
D16*
%TO.C,D29*%
X17224999Y6499999D03*
X20774999Y6499999D03*
%TD*%
%TO.C,D5*%
X17224999Y42500001D03*
X20774999Y42500001D03*
%TD*%
%TO.C,D25*%
X93224999Y-6999999D03*
X96774999Y-6999999D03*
%TD*%
D13*
%TO.C,SW16*%
X43000000Y19300000D03*
D14*
X46254999Y19299999D03*
X34697999Y17099999D03*
%TD*%
D13*
%TO.C,SW54*%
X-5506062Y-40730762D03*
D20*
X-2447362Y-39617485D03*
X-12554945Y-45637536D03*
%TD*%
D13*
%TO.C,SW37*%
X100000000Y-33200000D03*
D14*
X103254999Y-33199999D03*
X91697999Y-35399999D03*
%TD*%
D16*
%TO.C,D38*%
X74224999Y-20499999D03*
X77774999Y-20499999D03*
%TD*%
%TO.C,D41*%
X17224999Y-11499999D03*
X20774999Y-11499999D03*
%TD*%
D21*
%TO.C,SW20*%
X24500000Y20000000D03*
D13*
X19000000Y14100000D03*
D15*
X19000000Y20000000D03*
D13*
X14000000Y16300000D03*
D21*
X13500000Y20000000D03*
%TD*%
%TO.C,SW8*%
X24500000Y38000002D03*
D13*
X19000000Y32100002D03*
D15*
X19000000Y38000002D03*
D13*
X14000000Y34300002D03*
D21*
X13500000Y38000002D03*
%TD*%
%TO.C,SW11*%
X81500000Y29000000D03*
D13*
X76000000Y23100000D03*
D15*
X76000000Y29000000D03*
D13*
X71000000Y25300000D03*
D21*
X70500000Y29000000D03*
%TD*%
%TO.C,SW12*%
X100500000Y24500000D03*
D13*
X95000000Y18600000D03*
D15*
X95000000Y24500000D03*
D13*
X90000000Y20800000D03*
D21*
X89500000Y24500000D03*
%TD*%
%TO.C,SW7*%
X5500000Y36000000D03*
D13*
X0Y30100000D03*
D15*
X0Y36000000D03*
D13*
X-5000000Y32300000D03*
D21*
X-5500000Y36000000D03*
%TD*%
%TO.C,SW22*%
X62500000Y20000000D03*
D13*
X57000000Y14100000D03*
D15*
X57000000Y20000000D03*
D13*
X52000000Y16300000D03*
D21*
X51500000Y20000000D03*
%TD*%
%TO.C,SW58*%
X53000000Y-36000000D03*
D13*
X47500000Y-41900000D03*
D15*
X47500000Y-36000000D03*
D13*
X42500000Y-39700000D03*
D21*
X42000000Y-36000000D03*
%TD*%
%TO.C,SW44*%
X24500000Y-16000000D03*
D13*
X19000000Y-21900000D03*
D15*
X19000000Y-16000000D03*
D13*
X14000000Y-19700000D03*
D21*
X13500000Y-16000000D03*
%TD*%
%TO.C,SW36*%
X100500000Y-11500000D03*
D13*
X95000000Y-17400000D03*
D15*
X95000000Y-11500000D03*
D13*
X90000000Y-15200000D03*
D21*
X89500000Y-11500000D03*
%TD*%
%TO.C,SW34*%
X62500000Y2000000D03*
D13*
X57000000Y-3900000D03*
D15*
X57000000Y2000000D03*
D13*
X52000000Y-1700000D03*
D21*
X51500000Y2000000D03*
%TD*%
%TO.C,SW55*%
X-6301691Y-37082889D03*
D13*
X-9452081Y-44508186D03*
D15*
X-11470000Y-38964000D03*
D13*
X-14902989Y-44150963D03*
D21*
X-16638309Y-40845111D03*
%TD*%
%TO.C,SW9*%
X43500000Y40999997D03*
D13*
X38000000Y35099997D03*
D15*
X38000000Y40999997D03*
D13*
X33000000Y37299997D03*
D21*
X32500000Y40999997D03*
%TD*%
%TO.C,SW21*%
X43500000Y23000000D03*
D13*
X38000000Y17100000D03*
D15*
X38000000Y23000000D03*
D13*
X33000000Y19300000D03*
D21*
X32500000Y23000000D03*
%TD*%
%TO.C,SW19*%
X5500000Y18000000D03*
D13*
X0Y12100000D03*
D15*
X0Y18000000D03*
D13*
X-5000000Y14300000D03*
D21*
X-5500000Y18000000D03*
%TD*%
%TO.C,SW45*%
X43500000Y-13000000D03*
D13*
X38000000Y-18900000D03*
D15*
X38000000Y-13000000D03*
D13*
X33000000Y-16700000D03*
D21*
X32500000Y-13000000D03*
%TD*%
%TO.C,SW33*%
X43500000Y5000000D03*
D13*
X38000000Y-900000D03*
D15*
X38000000Y5000000D03*
D13*
X33000000Y1300000D03*
D21*
X32500000Y5000000D03*
%TD*%
%TO.C,SW24*%
X100500000Y6500000D03*
D13*
X95000000Y600000D03*
D15*
X95000000Y6500000D03*
D13*
X90000000Y2800000D03*
D21*
X89500000Y6500000D03*
%TD*%
%TO.C,SW47*%
X81500000Y-25000000D03*
D13*
X76000000Y-30900000D03*
D15*
X76000000Y-25000000D03*
D13*
X71000000Y-28700000D03*
D21*
X70500000Y-25000000D03*
%TD*%
%TO.C,SW32*%
X24500000Y2000000D03*
D13*
X19000000Y-3900000D03*
D15*
X19000000Y2000000D03*
D13*
X14000000Y-1700000D03*
D21*
X13500000Y2000000D03*
%TD*%
%TO.C,SW10*%
X62500000Y38000000D03*
D13*
X57000000Y32100000D03*
D15*
X57000000Y38000000D03*
D13*
X52000000Y34300000D03*
D21*
X51500000Y38000000D03*
%TD*%
%TO.C,SW35*%
X81500000Y-7000000D03*
D13*
X76000000Y-12900000D03*
D15*
X76000000Y-7000000D03*
D13*
X71000000Y-10700000D03*
D21*
X70500000Y-7000000D03*
%TD*%
%TO.C,SW43*%
X5500000Y-18000000D03*
D13*
X0Y-23900000D03*
D15*
X0Y-18000000D03*
D13*
X-5000000Y-21700000D03*
D21*
X-5500000Y-18000000D03*
%TD*%
%TO.C,SW31*%
X5500000Y0D03*
D13*
X0Y-5900000D03*
D15*
X0Y0D03*
D13*
X-5000000Y-3700000D03*
D21*
X-5500000Y0D03*
%TD*%
%TO.C,SW23*%
X81500000Y11000000D03*
D13*
X76000000Y5100000D03*
D15*
X76000000Y11000000D03*
D13*
X71000000Y7300000D03*
D21*
X70500000Y11000000D03*
%TD*%
%TO.C,SW48*%
X100500000Y-29500000D03*
D13*
X95000000Y-35400000D03*
D15*
X95000000Y-29500000D03*
D13*
X90000000Y-33200000D03*
D21*
X89500000Y-29500000D03*
%TD*%
%TO.C,SW46*%
X62500000Y-16000000D03*
D13*
X57000000Y-21900000D03*
D15*
X57000000Y-16000000D03*
D13*
X52000000Y-19700000D03*
D21*
X51500000Y-16000000D03*
%TD*%
%TO.C,SW56*%
X14999996Y-36000000D03*
D13*
X9499996Y-41900000D03*
D15*
X9499996Y-36000000D03*
D13*
X4499996Y-39700000D03*
D21*
X3999996Y-36000000D03*
%TD*%
%TO.C,SW57*%
X34000000Y-36000000D03*
D13*
X28500000Y-41900000D03*
D15*
X28500000Y-36000000D03*
D13*
X23500000Y-39700000D03*
D21*
X23000000Y-36000000D03*
%TD*%
M02*
