M48
; DRILL file {KiCad (7.0.0-0)} date Wednesday, March 08, 2023 at 12:10:03 AM
; FORMAT={-:-/ absolute / inch / decimal}
; #@! TF.CreationDate,2023-03-08T00:10:03+08:00
; #@! TF.GenerationSoftware,Kicad,Pcbnew,(7.0.0-0)
; #@! TF.FileFunction,Plated,1,2,PTH
FMAT,2
INCH
; #@! TA.AperFunction,Plated,PTH,ViaDrill
T1C0.0157
%
G90
G05
T1
X-0.3966Y-1.2963
X-0.3937Y-1.6339
X-0.0197Y-1.5551
X0.0591Y-0.1181
X0.0787Y1.3189
X0.0787Y0.6102
X0.0787Y-0.8268
X0.0933Y1.5894
X0.1181Y0.1772
X0.1181Y-0.5315
X0.1181Y0.8858
X0.2559Y1.6942
X0.2559Y-1.2402
X0.3346Y1.3386
X0.3346Y0.6496
X0.3346Y-0.0591
X0.3543Y-0.7677
X0.4331Y-1.5354
X0.627Y-0.5089
X0.6363Y0.2101
X0.6467Y1.6368
X0.6467Y0.9281
X0.7087Y1.752
X0.7156Y1.7057
X0.7244Y1.0118
X0.8071Y0.689
X0.8071Y-0.0394
X0.8268Y1.3976
X0.8268Y-0.748
X0.9331Y1.8307
X1.1083Y1.5492
X1.1811Y1.2402
X1.1811Y-1.5354
X1.2402Y-1.2402
X1.4961Y-1.4961
X1.5118Y1.8425
X1.5551Y1.4961
X1.5551Y1.1329
X1.5551Y0.7874
X1.5551Y-0.6299
X1.5748Y0.0787
X1.6142Y0.374
X1.6142Y-0.3346
X1.752Y-1.2402
X1.8211Y1.3482
X1.8211Y0.64
X1.8307Y-0.0394
X1.8307Y-0.7677
X1.9291Y-1.5354
X2.1063Y1.7205
X2.123Y0.312
X2.126Y-0.3937
X2.1427Y1.001
X2.2244Y-0.4134
X2.2382Y0.315
X2.3031Y1.378
X2.3031Y0.6693
X2.3031Y-0.748
X2.3228Y-0.0394
X2.9951Y1.3809
X3.0207Y-0.7707
X3.0512Y1.0236
X3.0512Y0.315
X3.0512Y-1.1024
X3.0709Y-0.3937
X3.1102Y1.3189
X3.1102Y0.6102
X3.1102Y-0.0984
X3.3171Y0.8171
X3.3268Y0.0984
X3.3268Y-0.5906
X3.3465Y-1.2205
X3.622Y-0.9252
X3.6289Y1.188
X3.6289Y0.4793
X3.6289Y-0.2293
X3.7795Y-1.2795
X3.7992Y0.8465
X3.7992Y0.1378
X3.8189Y-0.5709
T0
M30
