%TF.GenerationSoftware,KiCad,Pcbnew,(6.0.7-1)-1*%
%TF.CreationDate,2022-08-07T12:30:06+08:00*%
%TF.ProjectId,Plate,506c6174-652e-46b6-9963-61645f706362,3*%
%TF.SameCoordinates,PX4955318PY48ab840*%
%TF.FileFunction,Drillmap*%
%TF.FilePolarity,Positive*%
%FSLAX45Y45*%
G04 Gerber Fmt 4.5, Leading zero omitted, Abs format (unit mm)*
G04 Created by KiCad (PCBNEW (6.0.7-1)-1) date 2022-08-07 12:30:06*
%MOMM*%
%LPD*%
G01*
G04 APERTURE LIST*
%ADD10C,0.120000*%
%ADD11C,0.200000*%
G04 APERTURE END LIST*
D10*
X5969000Y1905000D02*
X5969000Y1460500D01*
X3048000Y-5016499D02*
G75*
G03*
X2730500Y-5143500I-17120J-417572D01*
G01*
X4064000Y2857500D02*
G75*
G03*
X3810000Y3111500I-254000J0D01*
G01*
X1651000Y2857500D02*
X1651000Y2413000D01*
X4318000Y2159000D02*
X5715000Y2159000D01*
X7874000Y-4762500D02*
X7874000Y952500D01*
X1397000Y2159000D02*
G75*
G03*
X1651000Y2413000I0J254000D01*
G01*
X4064000Y2857500D02*
X4064000Y2413000D01*
X-2286000Y-3937000D02*
G75*
G03*
X-2159000Y-3619500I-290542J300367D01*
G01*
X-2286000Y-3937000D02*
X-2984500Y-4635500D01*
X1905000Y3111500D02*
G75*
G03*
X1651000Y2857500I0J-254000D01*
G01*
X7620000Y-5016500D02*
G75*
G03*
X7874000Y-4762500I0J254000D01*
G01*
X7874000Y952500D02*
G75*
G03*
X7620000Y1206500I-254000J0D01*
G01*
X-1905000Y2159000D02*
G75*
G03*
X-2159000Y1905000I0J-254000D01*
G01*
X3556000Y3111500D02*
X3810000Y3111500D01*
X-1905000Y2159000D02*
X1397000Y2159000D01*
X7620000Y-5016500D02*
X3048000Y-5016500D01*
X5969000Y1460500D02*
G75*
G03*
X6223000Y1206500I254000J0D01*
G01*
X-3111500Y-6667500D02*
G75*
G03*
X-2857500Y-6921500I254000J0D01*
G01*
X-3111500Y-6667500D02*
X-3111500Y-4953000D01*
X6223000Y1206500D02*
X7620000Y1206500D01*
X762000Y-6921501D02*
G75*
G03*
X1079500Y-6794500I17120J417572D01*
G01*
X3556000Y3111500D02*
X1905000Y3111500D01*
X762000Y-6921500D02*
X-2857500Y-6921500D01*
X5969000Y1905000D02*
G75*
G03*
X5715000Y2159000I-254000J0D01*
G01*
X4064000Y2413000D02*
G75*
G03*
X4318000Y2159000I254000J0D01*
G01*
X1079500Y-6794500D02*
X2730500Y-5143500D01*
X-2984500Y-4635500D02*
G75*
G03*
X-3111500Y-4953000I290542J-300367D01*
G01*
X-2159000Y1905000D02*
X-2159000Y-3619500D01*
D11*
X-2860232Y-7238328D02*
X-2860232Y-7038328D01*
X-2812613Y-7038328D01*
X-2784042Y-7047852D01*
X-2764994Y-7066900D01*
X-2755471Y-7085947D01*
X-2745947Y-7124043D01*
X-2745947Y-7152614D01*
X-2755471Y-7190709D01*
X-2764994Y-7209757D01*
X-2784042Y-7228805D01*
X-2812613Y-7238328D01*
X-2860232Y-7238328D01*
X-2660232Y-7238328D02*
X-2660232Y-7104995D01*
X-2660232Y-7143090D02*
X-2650709Y-7124043D01*
X-2641185Y-7114519D01*
X-2622137Y-7104995D01*
X-2603090Y-7104995D01*
X-2536423Y-7238328D02*
X-2536423Y-7104995D01*
X-2536423Y-7038328D02*
X-2545947Y-7047852D01*
X-2536423Y-7057376D01*
X-2526899Y-7047852D01*
X-2536423Y-7038328D01*
X-2536423Y-7057376D01*
X-2412613Y-7238328D02*
X-2431661Y-7228805D01*
X-2441185Y-7209757D01*
X-2441185Y-7038328D01*
X-2307851Y-7238328D02*
X-2326899Y-7228805D01*
X-2336423Y-7209757D01*
X-2336423Y-7038328D01*
X-2079280Y-7238328D02*
X-2079280Y-7038328D01*
X-2012613Y-7181186D01*
X-1945947Y-7038328D01*
X-1945947Y-7238328D01*
X-1764994Y-7238328D02*
X-1764994Y-7133566D01*
X-1774518Y-7114519D01*
X-1793566Y-7104995D01*
X-1831661Y-7104995D01*
X-1850709Y-7114519D01*
X-1764994Y-7228805D02*
X-1784042Y-7238328D01*
X-1831661Y-7238328D01*
X-1850709Y-7228805D01*
X-1860232Y-7209757D01*
X-1860232Y-7190709D01*
X-1850709Y-7171662D01*
X-1831661Y-7162138D01*
X-1784042Y-7162138D01*
X-1764994Y-7152614D01*
X-1669756Y-7104995D02*
X-1669756Y-7304995D01*
X-1669756Y-7114519D02*
X-1650709Y-7104995D01*
X-1612613Y-7104995D01*
X-1593566Y-7114519D01*
X-1584042Y-7124043D01*
X-1574518Y-7143090D01*
X-1574518Y-7200233D01*
X-1584042Y-7219281D01*
X-1593566Y-7228805D01*
X-1612613Y-7238328D01*
X-1650709Y-7238328D01*
X-1669756Y-7228805D01*
X-1488804Y-7219281D02*
X-1479280Y-7228805D01*
X-1488804Y-7238328D01*
X-1498328Y-7228805D01*
X-1488804Y-7219281D01*
X-1488804Y-7238328D01*
X-1488804Y-7114519D02*
X-1479280Y-7124043D01*
X-1488804Y-7133566D01*
X-1498328Y-7124043D01*
X-1488804Y-7114519D01*
X-1488804Y-7133566D01*
M02*
