%TF.GenerationSoftware,KiCad,Pcbnew,(5.1.10-1-10_14)*%
%TF.CreationDate,2021-11-08T13:36:25+08:00*%
%TF.ProjectId,Pragmatic,50726167-6d61-4746-9963-2e6b69636164,0.1*%
%TF.SameCoordinates,Original*%
%TF.FileFunction,Soldermask,Bot*%
%TF.FilePolarity,Negative*%
%FSLAX46Y46*%
G04 Gerber Fmt 4.6, Leading zero omitted, Abs format (unit mm)*
G04 Created by KiCad (PCBNEW (5.1.10-1-10_14)) date 2021-11-08 13:36:25*
%MOMM*%
%LPD*%
G01*
G04 APERTURE LIST*
%ADD10O,1.600000X1.600000*%
%ADD11C,1.600000*%
%ADD12C,1.700000*%
%ADD13C,1.800000*%
%ADD14R,1.800000X1.800000*%
%ADD15C,2.400000*%
%ADD16O,2.200000X1.600000*%
%ADD17C,4.900000*%
%ADD18O,2.200000X1.500000*%
%ADD19R,1.400000X1.000000*%
G04 APERTURE END LIST*
D10*
%TO.C,R1*%
X100330000Y-41275000D03*
D11*
X90170000Y-41275000D03*
%TD*%
D12*
%TO.C,J1*%
X74295000Y-40005000D03*
X71755000Y-40005000D03*
X69215000Y-40005000D03*
X66675000Y-40005000D03*
X64135000Y-40005000D03*
X61595000Y-40005000D03*
X59055000Y-40005000D03*
X74295000Y-42545000D03*
X71755000Y-42545000D03*
X69215000Y-42545000D03*
X66675000Y-42545000D03*
X64135000Y-42545000D03*
X61595000Y-42545000D03*
G36*
G01*
X59655000Y-43395000D02*
X58455000Y-43395000D01*
G75*
G02*
X58205000Y-43145000I0J250000D01*
G01*
X58205000Y-41945000D01*
G75*
G02*
X58455000Y-41695000I250000J0D01*
G01*
X59655000Y-41695000D01*
G75*
G02*
X59905000Y-41945000I0J-250000D01*
G01*
X59905000Y-43145000D01*
G75*
G02*
X59655000Y-43395000I-250000J0D01*
G01*
G37*
%TD*%
D13*
%TO.C,D37*%
X85725000Y-41275000D03*
D14*
X83185000Y-41275000D03*
%TD*%
D15*
%TO.C,SW9*%
X97790000Y-71120000D03*
G36*
G01*
X96950126Y-70678797D02*
X96950126Y-70678797D01*
G75*
G02*
X97693552Y-69922281I749971J6545D01*
G01*
X100593442Y-69896975D01*
G75*
G02*
X101349958Y-70640401I6545J-749971D01*
G01*
X101349958Y-70640401D01*
G75*
G02*
X100606532Y-71396917I-749971J-6545D01*
G01*
X97706642Y-71422223D01*
G75*
G02*
X96950126Y-70678797I-6545J749971D01*
G01*
G37*
D16*
X90150000Y-80100000D03*
D17*
X95250000Y-76200000D03*
D13*
X89750000Y-76200000D03*
X100750000Y-76200000D03*
D18*
X95250000Y-82100000D03*
D15*
X91440000Y-73660000D03*
D12*
X100330000Y-76200000D03*
X90170000Y-76200000D03*
%TD*%
D15*
%TO.C,SW3*%
X97790000Y-52070000D03*
G36*
G01*
X96950126Y-51628797D02*
X96950126Y-51628797D01*
G75*
G02*
X97693552Y-50872281I749971J6545D01*
G01*
X100593442Y-50846975D01*
G75*
G02*
X101349958Y-51590401I6545J-749971D01*
G01*
X101349958Y-51590401D01*
G75*
G02*
X100606532Y-52346917I-749971J-6545D01*
G01*
X97706642Y-52372223D01*
G75*
G02*
X96950126Y-51628797I-6545J749971D01*
G01*
G37*
D16*
X90150000Y-61050000D03*
D17*
X95250000Y-57150000D03*
D13*
X89750000Y-57150000D03*
X100750000Y-57150000D03*
D18*
X95250000Y-63050000D03*
D15*
X91440000Y-54610000D03*
D12*
X100330000Y-57150000D03*
X90170000Y-57150000D03*
%TD*%
D19*
%TO.C,D6*%
X149095000Y-48260000D03*
X145545000Y-48260000D03*
%TD*%
D15*
%TO.C,SW2*%
X78740000Y-52070000D03*
G36*
G01*
X77900126Y-51628797D02*
X77900126Y-51628797D01*
G75*
G02*
X78643552Y-50872281I749971J6545D01*
G01*
X81543442Y-50846975D01*
G75*
G02*
X82299958Y-51590401I6545J-749971D01*
G01*
X82299958Y-51590401D01*
G75*
G02*
X81556532Y-52346917I-749971J-6545D01*
G01*
X78656642Y-52372223D01*
G75*
G02*
X77900126Y-51628797I-6545J749971D01*
G01*
G37*
D16*
X71100000Y-61050000D03*
D17*
X76200000Y-57150000D03*
D13*
X70700000Y-57150000D03*
X81700000Y-57150000D03*
D18*
X76200000Y-63050000D03*
D15*
X72390000Y-54610000D03*
D12*
X81280000Y-57150000D03*
X71120000Y-57150000D03*
%TD*%
D15*
%TO.C,SW29*%
X135890000Y-128270000D03*
G36*
G01*
X135050126Y-127828797D02*
X135050126Y-127828797D01*
G75*
G02*
X135793552Y-127072281I749971J6545D01*
G01*
X138693442Y-127046975D01*
G75*
G02*
X139449958Y-127790401I6545J-749971D01*
G01*
X139449958Y-127790401D01*
G75*
G02*
X138706532Y-128546917I-749971J-6545D01*
G01*
X135806642Y-128572223D01*
G75*
G02*
X135050126Y-127828797I-6545J749971D01*
G01*
G37*
D16*
X128250000Y-137250000D03*
D17*
X133350000Y-133350000D03*
D13*
X127850000Y-133350000D03*
X138850000Y-133350000D03*
D18*
X133350000Y-139250000D03*
D15*
X129540000Y-130810000D03*
D12*
X138430000Y-133350000D03*
X128270000Y-133350000D03*
%TD*%
D15*
%TO.C,SW28*%
X116840000Y-128270000D03*
G36*
G01*
X116000126Y-127828797D02*
X116000126Y-127828797D01*
G75*
G02*
X116743552Y-127072281I749971J6545D01*
G01*
X119643442Y-127046975D01*
G75*
G02*
X120399958Y-127790401I6545J-749971D01*
G01*
X120399958Y-127790401D01*
G75*
G02*
X119656532Y-128546917I-749971J-6545D01*
G01*
X116756642Y-128572223D01*
G75*
G02*
X116000126Y-127828797I-6545J749971D01*
G01*
G37*
D16*
X109200000Y-137250000D03*
D17*
X114300000Y-133350000D03*
D13*
X108800000Y-133350000D03*
X119800000Y-133350000D03*
D18*
X114300000Y-139250000D03*
D15*
X110490000Y-130810000D03*
D12*
X119380000Y-133350000D03*
X109220000Y-133350000D03*
%TD*%
D15*
%TO.C,SW24*%
X154940000Y-109220000D03*
G36*
G01*
X154100126Y-108778797D02*
X154100126Y-108778797D01*
G75*
G02*
X154843552Y-108022281I749971J6545D01*
G01*
X157743442Y-107996975D01*
G75*
G02*
X158499958Y-108740401I6545J-749971D01*
G01*
X158499958Y-108740401D01*
G75*
G02*
X157756532Y-109496917I-749971J-6545D01*
G01*
X154856642Y-109522223D01*
G75*
G02*
X154100126Y-108778797I-6545J749971D01*
G01*
G37*
D16*
X147300000Y-118200000D03*
D17*
X152400000Y-114300000D03*
D13*
X146900000Y-114300000D03*
X157900000Y-114300000D03*
D18*
X152400000Y-120200000D03*
D15*
X148590000Y-111760000D03*
D12*
X157480000Y-114300000D03*
X147320000Y-114300000D03*
%TD*%
D19*
%TO.C,D3*%
X91945000Y-48260000D03*
X88395000Y-48260000D03*
%TD*%
%TO.C,D2*%
X72895000Y-48260000D03*
X69345000Y-48260000D03*
%TD*%
D15*
%TO.C,SW36*%
X154940000Y-147320000D03*
G36*
G01*
X154100126Y-146878797D02*
X154100126Y-146878797D01*
G75*
G02*
X154843552Y-146122281I749971J6545D01*
G01*
X157743442Y-146096975D01*
G75*
G02*
X158499958Y-146840401I6545J-749971D01*
G01*
X158499958Y-146840401D01*
G75*
G02*
X157756532Y-147596917I-749971J-6545D01*
G01*
X154856642Y-147622223D01*
G75*
G02*
X154100126Y-146878797I-6545J749971D01*
G01*
G37*
D16*
X147300000Y-156300000D03*
D17*
X152400000Y-152400000D03*
D13*
X146900000Y-152400000D03*
X157900000Y-152400000D03*
D18*
X152400000Y-158300000D03*
D15*
X148590000Y-149860000D03*
D12*
X157480000Y-152400000D03*
X147320000Y-152400000D03*
%TD*%
D15*
%TO.C,SW35*%
X135890000Y-147320000D03*
G36*
G01*
X135050126Y-146878797D02*
X135050126Y-146878797D01*
G75*
G02*
X135793552Y-146122281I749971J6545D01*
G01*
X138693442Y-146096975D01*
G75*
G02*
X139449958Y-146840401I6545J-749971D01*
G01*
X139449958Y-146840401D01*
G75*
G02*
X138706532Y-147596917I-749971J-6545D01*
G01*
X135806642Y-147622223D01*
G75*
G02*
X135050126Y-146878797I-6545J749971D01*
G01*
G37*
D16*
X128250000Y-156300000D03*
D17*
X133350000Y-152400000D03*
D13*
X127850000Y-152400000D03*
X138850000Y-152400000D03*
D18*
X133350000Y-158300000D03*
D15*
X129540000Y-149860000D03*
D12*
X138430000Y-152400000D03*
X128270000Y-152400000D03*
%TD*%
D15*
%TO.C,SW34*%
X116840000Y-147320000D03*
G36*
G01*
X116000126Y-146878797D02*
X116000126Y-146878797D01*
G75*
G02*
X116743552Y-146122281I749971J6545D01*
G01*
X119643442Y-146096975D01*
G75*
G02*
X120399958Y-146840401I6545J-749971D01*
G01*
X120399958Y-146840401D01*
G75*
G02*
X119656532Y-147596917I-749971J-6545D01*
G01*
X116756642Y-147622223D01*
G75*
G02*
X116000126Y-146878797I-6545J749971D01*
G01*
G37*
D16*
X109200000Y-156300000D03*
D17*
X114300000Y-152400000D03*
D13*
X108800000Y-152400000D03*
X119800000Y-152400000D03*
D18*
X114300000Y-158300000D03*
D15*
X110490000Y-149860000D03*
D12*
X119380000Y-152400000D03*
X109220000Y-152400000D03*
%TD*%
D15*
%TO.C,SW33*%
X97790000Y-147320000D03*
G36*
G01*
X96950126Y-146878797D02*
X96950126Y-146878797D01*
G75*
G02*
X97693552Y-146122281I749971J6545D01*
G01*
X100593442Y-146096975D01*
G75*
G02*
X101349958Y-146840401I6545J-749971D01*
G01*
X101349958Y-146840401D01*
G75*
G02*
X100606532Y-147596917I-749971J-6545D01*
G01*
X97706642Y-147622223D01*
G75*
G02*
X96950126Y-146878797I-6545J749971D01*
G01*
G37*
D16*
X90150000Y-156300000D03*
D17*
X95250000Y-152400000D03*
D13*
X89750000Y-152400000D03*
X100750000Y-152400000D03*
D18*
X95250000Y-158300000D03*
D15*
X91440000Y-149860000D03*
D12*
X100330000Y-152400000D03*
X90170000Y-152400000D03*
%TD*%
D15*
%TO.C,SW32*%
X78740000Y-147320000D03*
G36*
G01*
X77900126Y-146878797D02*
X77900126Y-146878797D01*
G75*
G02*
X78643552Y-146122281I749971J6545D01*
G01*
X81543442Y-146096975D01*
G75*
G02*
X82299958Y-146840401I6545J-749971D01*
G01*
X82299958Y-146840401D01*
G75*
G02*
X81556532Y-147596917I-749971J-6545D01*
G01*
X78656642Y-147622223D01*
G75*
G02*
X77900126Y-146878797I-6545J749971D01*
G01*
G37*
D16*
X71100000Y-156300000D03*
D17*
X76200000Y-152400000D03*
D13*
X70700000Y-152400000D03*
X81700000Y-152400000D03*
D18*
X76200000Y-158300000D03*
D15*
X72390000Y-149860000D03*
D12*
X81280000Y-152400000D03*
X71120000Y-152400000D03*
%TD*%
D15*
%TO.C,SW31*%
X59690000Y-147320000D03*
G36*
G01*
X58850126Y-146878797D02*
X58850126Y-146878797D01*
G75*
G02*
X59593552Y-146122281I749971J6545D01*
G01*
X62493442Y-146096975D01*
G75*
G02*
X63249958Y-146840401I6545J-749971D01*
G01*
X63249958Y-146840401D01*
G75*
G02*
X62506532Y-147596917I-749971J-6545D01*
G01*
X59606642Y-147622223D01*
G75*
G02*
X58850126Y-146878797I-6545J749971D01*
G01*
G37*
D16*
X52050000Y-156300000D03*
D17*
X57150000Y-152400000D03*
D13*
X51650000Y-152400000D03*
X62650000Y-152400000D03*
D18*
X57150000Y-158300000D03*
D15*
X53340000Y-149860000D03*
D12*
X62230000Y-152400000D03*
X52070000Y-152400000D03*
%TD*%
D15*
%TO.C,SW30*%
X154940000Y-128270000D03*
G36*
G01*
X154100126Y-127828797D02*
X154100126Y-127828797D01*
G75*
G02*
X154843552Y-127072281I749971J6545D01*
G01*
X157743442Y-127046975D01*
G75*
G02*
X158499958Y-127790401I6545J-749971D01*
G01*
X158499958Y-127790401D01*
G75*
G02*
X157756532Y-128546917I-749971J-6545D01*
G01*
X154856642Y-128572223D01*
G75*
G02*
X154100126Y-127828797I-6545J749971D01*
G01*
G37*
D16*
X147300000Y-137250000D03*
D17*
X152400000Y-133350000D03*
D13*
X146900000Y-133350000D03*
X157900000Y-133350000D03*
D18*
X152400000Y-139250000D03*
D15*
X148590000Y-130810000D03*
D12*
X157480000Y-133350000D03*
X147320000Y-133350000D03*
%TD*%
D15*
%TO.C,SW27*%
X97790000Y-128270000D03*
G36*
G01*
X96950126Y-127828797D02*
X96950126Y-127828797D01*
G75*
G02*
X97693552Y-127072281I749971J6545D01*
G01*
X100593442Y-127046975D01*
G75*
G02*
X101349958Y-127790401I6545J-749971D01*
G01*
X101349958Y-127790401D01*
G75*
G02*
X100606532Y-128546917I-749971J-6545D01*
G01*
X97706642Y-128572223D01*
G75*
G02*
X96950126Y-127828797I-6545J749971D01*
G01*
G37*
D16*
X90150000Y-137250000D03*
D17*
X95250000Y-133350000D03*
D13*
X89750000Y-133350000D03*
X100750000Y-133350000D03*
D18*
X95250000Y-139250000D03*
D15*
X91440000Y-130810000D03*
D12*
X100330000Y-133350000D03*
X90170000Y-133350000D03*
%TD*%
D15*
%TO.C,SW26*%
X78740000Y-128270000D03*
G36*
G01*
X77900126Y-127828797D02*
X77900126Y-127828797D01*
G75*
G02*
X78643552Y-127072281I749971J6545D01*
G01*
X81543442Y-127046975D01*
G75*
G02*
X82299958Y-127790401I6545J-749971D01*
G01*
X82299958Y-127790401D01*
G75*
G02*
X81556532Y-128546917I-749971J-6545D01*
G01*
X78656642Y-128572223D01*
G75*
G02*
X77900126Y-127828797I-6545J749971D01*
G01*
G37*
D16*
X71100000Y-137250000D03*
D17*
X76200000Y-133350000D03*
D13*
X70700000Y-133350000D03*
X81700000Y-133350000D03*
D18*
X76200000Y-139250000D03*
D15*
X72390000Y-130810000D03*
D12*
X81280000Y-133350000D03*
X71120000Y-133350000D03*
%TD*%
D15*
%TO.C,SW25*%
X59690000Y-128270000D03*
G36*
G01*
X58850126Y-127828797D02*
X58850126Y-127828797D01*
G75*
G02*
X59593552Y-127072281I749971J6545D01*
G01*
X62493442Y-127046975D01*
G75*
G02*
X63249958Y-127790401I6545J-749971D01*
G01*
X63249958Y-127790401D01*
G75*
G02*
X62506532Y-128546917I-749971J-6545D01*
G01*
X59606642Y-128572223D01*
G75*
G02*
X58850126Y-127828797I-6545J749971D01*
G01*
G37*
D16*
X52050000Y-137250000D03*
D17*
X57150000Y-133350000D03*
D13*
X51650000Y-133350000D03*
X62650000Y-133350000D03*
D18*
X57150000Y-139250000D03*
D15*
X53340000Y-130810000D03*
D12*
X62230000Y-133350000D03*
X52070000Y-133350000D03*
%TD*%
D15*
%TO.C,SW23*%
X135890000Y-109220000D03*
G36*
G01*
X135050126Y-108778797D02*
X135050126Y-108778797D01*
G75*
G02*
X135793552Y-108022281I749971J6545D01*
G01*
X138693442Y-107996975D01*
G75*
G02*
X139449958Y-108740401I6545J-749971D01*
G01*
X139449958Y-108740401D01*
G75*
G02*
X138706532Y-109496917I-749971J-6545D01*
G01*
X135806642Y-109522223D01*
G75*
G02*
X135050126Y-108778797I-6545J749971D01*
G01*
G37*
D16*
X128250000Y-118200000D03*
D17*
X133350000Y-114300000D03*
D13*
X127850000Y-114300000D03*
X138850000Y-114300000D03*
D18*
X133350000Y-120200000D03*
D15*
X129540000Y-111760000D03*
D12*
X138430000Y-114300000D03*
X128270000Y-114300000D03*
%TD*%
D15*
%TO.C,SW22*%
X116840000Y-109220000D03*
G36*
G01*
X116000126Y-108778797D02*
X116000126Y-108778797D01*
G75*
G02*
X116743552Y-108022281I749971J6545D01*
G01*
X119643442Y-107996975D01*
G75*
G02*
X120399958Y-108740401I6545J-749971D01*
G01*
X120399958Y-108740401D01*
G75*
G02*
X119656532Y-109496917I-749971J-6545D01*
G01*
X116756642Y-109522223D01*
G75*
G02*
X116000126Y-108778797I-6545J749971D01*
G01*
G37*
D16*
X109200000Y-118200000D03*
D17*
X114300000Y-114300000D03*
D13*
X108800000Y-114300000D03*
X119800000Y-114300000D03*
D18*
X114300000Y-120200000D03*
D15*
X110490000Y-111760000D03*
D12*
X119380000Y-114300000D03*
X109220000Y-114300000D03*
%TD*%
D15*
%TO.C,SW21*%
X97790000Y-109220000D03*
G36*
G01*
X96950126Y-108778797D02*
X96950126Y-108778797D01*
G75*
G02*
X97693552Y-108022281I749971J6545D01*
G01*
X100593442Y-107996975D01*
G75*
G02*
X101349958Y-108740401I6545J-749971D01*
G01*
X101349958Y-108740401D01*
G75*
G02*
X100606532Y-109496917I-749971J-6545D01*
G01*
X97706642Y-109522223D01*
G75*
G02*
X96950126Y-108778797I-6545J749971D01*
G01*
G37*
D16*
X90150000Y-118200000D03*
D17*
X95250000Y-114300000D03*
D13*
X89750000Y-114300000D03*
X100750000Y-114300000D03*
D18*
X95250000Y-120200000D03*
D15*
X91440000Y-111760000D03*
D12*
X100330000Y-114300000D03*
X90170000Y-114300000D03*
%TD*%
D15*
%TO.C,SW20*%
X78740000Y-109220000D03*
G36*
G01*
X77900126Y-108778797D02*
X77900126Y-108778797D01*
G75*
G02*
X78643552Y-108022281I749971J6545D01*
G01*
X81543442Y-107996975D01*
G75*
G02*
X82299958Y-108740401I6545J-749971D01*
G01*
X82299958Y-108740401D01*
G75*
G02*
X81556532Y-109496917I-749971J-6545D01*
G01*
X78656642Y-109522223D01*
G75*
G02*
X77900126Y-108778797I-6545J749971D01*
G01*
G37*
D16*
X71100000Y-118200000D03*
D17*
X76200000Y-114300000D03*
D13*
X70700000Y-114300000D03*
X81700000Y-114300000D03*
D18*
X76200000Y-120200000D03*
D15*
X72390000Y-111760000D03*
D12*
X81280000Y-114300000D03*
X71120000Y-114300000D03*
%TD*%
D15*
%TO.C,SW19*%
X59690000Y-109220000D03*
G36*
G01*
X58850126Y-108778797D02*
X58850126Y-108778797D01*
G75*
G02*
X59593552Y-108022281I749971J6545D01*
G01*
X62493442Y-107996975D01*
G75*
G02*
X63249958Y-108740401I6545J-749971D01*
G01*
X63249958Y-108740401D01*
G75*
G02*
X62506532Y-109496917I-749971J-6545D01*
G01*
X59606642Y-109522223D01*
G75*
G02*
X58850126Y-108778797I-6545J749971D01*
G01*
G37*
D16*
X52050000Y-118200000D03*
D17*
X57150000Y-114300000D03*
D13*
X51650000Y-114300000D03*
X62650000Y-114300000D03*
D18*
X57150000Y-120200000D03*
D15*
X53340000Y-111760000D03*
D12*
X62230000Y-114300000D03*
X52070000Y-114300000D03*
%TD*%
D15*
%TO.C,SW18*%
X154940000Y-90170000D03*
G36*
G01*
X154100126Y-89728797D02*
X154100126Y-89728797D01*
G75*
G02*
X154843552Y-88972281I749971J6545D01*
G01*
X157743442Y-88946975D01*
G75*
G02*
X158499958Y-89690401I6545J-749971D01*
G01*
X158499958Y-89690401D01*
G75*
G02*
X157756532Y-90446917I-749971J-6545D01*
G01*
X154856642Y-90472223D01*
G75*
G02*
X154100126Y-89728797I-6545J749971D01*
G01*
G37*
D16*
X147300000Y-99150000D03*
D17*
X152400000Y-95250000D03*
D13*
X146900000Y-95250000D03*
X157900000Y-95250000D03*
D18*
X152400000Y-101150000D03*
D15*
X148590000Y-92710000D03*
D12*
X157480000Y-95250000D03*
X147320000Y-95250000D03*
%TD*%
D15*
%TO.C,SW17*%
X135890000Y-90170000D03*
G36*
G01*
X135050126Y-89728797D02*
X135050126Y-89728797D01*
G75*
G02*
X135793552Y-88972281I749971J6545D01*
G01*
X138693442Y-88946975D01*
G75*
G02*
X139449958Y-89690401I6545J-749971D01*
G01*
X139449958Y-89690401D01*
G75*
G02*
X138706532Y-90446917I-749971J-6545D01*
G01*
X135806642Y-90472223D01*
G75*
G02*
X135050126Y-89728797I-6545J749971D01*
G01*
G37*
D16*
X128250000Y-99150000D03*
D17*
X133350000Y-95250000D03*
D13*
X127850000Y-95250000D03*
X138850000Y-95250000D03*
D18*
X133350000Y-101150000D03*
D15*
X129540000Y-92710000D03*
D12*
X138430000Y-95250000D03*
X128270000Y-95250000D03*
%TD*%
D15*
%TO.C,SW16*%
X116840000Y-90170000D03*
G36*
G01*
X116000126Y-89728797D02*
X116000126Y-89728797D01*
G75*
G02*
X116743552Y-88972281I749971J6545D01*
G01*
X119643442Y-88946975D01*
G75*
G02*
X120399958Y-89690401I6545J-749971D01*
G01*
X120399958Y-89690401D01*
G75*
G02*
X119656532Y-90446917I-749971J-6545D01*
G01*
X116756642Y-90472223D01*
G75*
G02*
X116000126Y-89728797I-6545J749971D01*
G01*
G37*
D16*
X109200000Y-99150000D03*
D17*
X114300000Y-95250000D03*
D13*
X108800000Y-95250000D03*
X119800000Y-95250000D03*
D18*
X114300000Y-101150000D03*
D15*
X110490000Y-92710000D03*
D12*
X119380000Y-95250000D03*
X109220000Y-95250000D03*
%TD*%
D15*
%TO.C,SW15*%
X97790000Y-90170000D03*
G36*
G01*
X96950126Y-89728797D02*
X96950126Y-89728797D01*
G75*
G02*
X97693552Y-88972281I749971J6545D01*
G01*
X100593442Y-88946975D01*
G75*
G02*
X101349958Y-89690401I6545J-749971D01*
G01*
X101349958Y-89690401D01*
G75*
G02*
X100606532Y-90446917I-749971J-6545D01*
G01*
X97706642Y-90472223D01*
G75*
G02*
X96950126Y-89728797I-6545J749971D01*
G01*
G37*
D16*
X90150000Y-99150000D03*
D17*
X95250000Y-95250000D03*
D13*
X89750000Y-95250000D03*
X100750000Y-95250000D03*
D18*
X95250000Y-101150000D03*
D15*
X91440000Y-92710000D03*
D12*
X100330000Y-95250000D03*
X90170000Y-95250000D03*
%TD*%
D15*
%TO.C,SW14*%
X78740000Y-90170000D03*
G36*
G01*
X77900126Y-89728797D02*
X77900126Y-89728797D01*
G75*
G02*
X78643552Y-88972281I749971J6545D01*
G01*
X81543442Y-88946975D01*
G75*
G02*
X82299958Y-89690401I6545J-749971D01*
G01*
X82299958Y-89690401D01*
G75*
G02*
X81556532Y-90446917I-749971J-6545D01*
G01*
X78656642Y-90472223D01*
G75*
G02*
X77900126Y-89728797I-6545J749971D01*
G01*
G37*
D16*
X71100000Y-99150000D03*
D17*
X76200000Y-95250000D03*
D13*
X70700000Y-95250000D03*
X81700000Y-95250000D03*
D18*
X76200000Y-101150000D03*
D15*
X72390000Y-92710000D03*
D12*
X81280000Y-95250000D03*
X71120000Y-95250000D03*
%TD*%
D15*
%TO.C,SW13*%
X59690000Y-90170000D03*
G36*
G01*
X58850126Y-89728797D02*
X58850126Y-89728797D01*
G75*
G02*
X59593552Y-88972281I749971J6545D01*
G01*
X62493442Y-88946975D01*
G75*
G02*
X63249958Y-89690401I6545J-749971D01*
G01*
X63249958Y-89690401D01*
G75*
G02*
X62506532Y-90446917I-749971J-6545D01*
G01*
X59606642Y-90472223D01*
G75*
G02*
X58850126Y-89728797I-6545J749971D01*
G01*
G37*
D16*
X52050000Y-99150000D03*
D17*
X57150000Y-95250000D03*
D13*
X51650000Y-95250000D03*
X62650000Y-95250000D03*
D18*
X57150000Y-101150000D03*
D15*
X53340000Y-92710000D03*
D12*
X62230000Y-95250000D03*
X52070000Y-95250000D03*
%TD*%
D15*
%TO.C,SW12*%
X154940000Y-71120000D03*
G36*
G01*
X154100126Y-70678797D02*
X154100126Y-70678797D01*
G75*
G02*
X154843552Y-69922281I749971J6545D01*
G01*
X157743442Y-69896975D01*
G75*
G02*
X158499958Y-70640401I6545J-749971D01*
G01*
X158499958Y-70640401D01*
G75*
G02*
X157756532Y-71396917I-749971J-6545D01*
G01*
X154856642Y-71422223D01*
G75*
G02*
X154100126Y-70678797I-6545J749971D01*
G01*
G37*
D16*
X147300000Y-80100000D03*
D17*
X152400000Y-76200000D03*
D13*
X146900000Y-76200000D03*
X157900000Y-76200000D03*
D18*
X152400000Y-82100000D03*
D15*
X148590000Y-73660000D03*
D12*
X157480000Y-76200000D03*
X147320000Y-76200000D03*
%TD*%
D15*
%TO.C,SW11*%
X135890000Y-71120000D03*
G36*
G01*
X135050126Y-70678797D02*
X135050126Y-70678797D01*
G75*
G02*
X135793552Y-69922281I749971J6545D01*
G01*
X138693442Y-69896975D01*
G75*
G02*
X139449958Y-70640401I6545J-749971D01*
G01*
X139449958Y-70640401D01*
G75*
G02*
X138706532Y-71396917I-749971J-6545D01*
G01*
X135806642Y-71422223D01*
G75*
G02*
X135050126Y-70678797I-6545J749971D01*
G01*
G37*
D16*
X128250000Y-80100000D03*
D17*
X133350000Y-76200000D03*
D13*
X127850000Y-76200000D03*
X138850000Y-76200000D03*
D18*
X133350000Y-82100000D03*
D15*
X129540000Y-73660000D03*
D12*
X138430000Y-76200000D03*
X128270000Y-76200000D03*
%TD*%
D15*
%TO.C,SW10*%
X116840000Y-71120000D03*
G36*
G01*
X116000126Y-70678797D02*
X116000126Y-70678797D01*
G75*
G02*
X116743552Y-69922281I749971J6545D01*
G01*
X119643442Y-69896975D01*
G75*
G02*
X120399958Y-70640401I6545J-749971D01*
G01*
X120399958Y-70640401D01*
G75*
G02*
X119656532Y-71396917I-749971J-6545D01*
G01*
X116756642Y-71422223D01*
G75*
G02*
X116000126Y-70678797I-6545J749971D01*
G01*
G37*
D16*
X109200000Y-80100000D03*
D17*
X114300000Y-76200000D03*
D13*
X108800000Y-76200000D03*
X119800000Y-76200000D03*
D18*
X114300000Y-82100000D03*
D15*
X110490000Y-73660000D03*
D12*
X119380000Y-76200000D03*
X109220000Y-76200000D03*
%TD*%
D15*
%TO.C,SW8*%
X78740000Y-71120000D03*
G36*
G01*
X77900126Y-70678797D02*
X77900126Y-70678797D01*
G75*
G02*
X78643552Y-69922281I749971J6545D01*
G01*
X81543442Y-69896975D01*
G75*
G02*
X82299958Y-70640401I6545J-749971D01*
G01*
X82299958Y-70640401D01*
G75*
G02*
X81556532Y-71396917I-749971J-6545D01*
G01*
X78656642Y-71422223D01*
G75*
G02*
X77900126Y-70678797I-6545J749971D01*
G01*
G37*
D16*
X71100000Y-80100000D03*
D17*
X76200000Y-76200000D03*
D13*
X70700000Y-76200000D03*
X81700000Y-76200000D03*
D18*
X76200000Y-82100000D03*
D15*
X72390000Y-73660000D03*
D12*
X81280000Y-76200000D03*
X71120000Y-76200000D03*
%TD*%
D15*
%TO.C,SW7*%
X59690000Y-71120000D03*
G36*
G01*
X58850126Y-70678797D02*
X58850126Y-70678797D01*
G75*
G02*
X59593552Y-69922281I749971J6545D01*
G01*
X62493442Y-69896975D01*
G75*
G02*
X63249958Y-70640401I6545J-749971D01*
G01*
X63249958Y-70640401D01*
G75*
G02*
X62506532Y-71396917I-749971J-6545D01*
G01*
X59606642Y-71422223D01*
G75*
G02*
X58850126Y-70678797I-6545J749971D01*
G01*
G37*
D16*
X52050000Y-80100000D03*
D17*
X57150000Y-76200000D03*
D13*
X51650000Y-76200000D03*
X62650000Y-76200000D03*
D18*
X57150000Y-82100000D03*
D15*
X53340000Y-73660000D03*
D12*
X62230000Y-76200000D03*
X52070000Y-76200000D03*
%TD*%
D15*
%TO.C,SW6*%
X154940000Y-52070000D03*
G36*
G01*
X154100126Y-51628797D02*
X154100126Y-51628797D01*
G75*
G02*
X154843552Y-50872281I749971J6545D01*
G01*
X157743442Y-50846975D01*
G75*
G02*
X158499958Y-51590401I6545J-749971D01*
G01*
X158499958Y-51590401D01*
G75*
G02*
X157756532Y-52346917I-749971J-6545D01*
G01*
X154856642Y-52372223D01*
G75*
G02*
X154100126Y-51628797I-6545J749971D01*
G01*
G37*
D16*
X147300000Y-61050000D03*
D17*
X152400000Y-57150000D03*
D13*
X146900000Y-57150000D03*
X157900000Y-57150000D03*
D18*
X152400000Y-63050000D03*
D15*
X148590000Y-54610000D03*
D12*
X157480000Y-57150000D03*
X147320000Y-57150000D03*
%TD*%
D15*
%TO.C,SW5*%
X135890000Y-52070000D03*
G36*
G01*
X135050126Y-51628797D02*
X135050126Y-51628797D01*
G75*
G02*
X135793552Y-50872281I749971J6545D01*
G01*
X138693442Y-50846975D01*
G75*
G02*
X139449958Y-51590401I6545J-749971D01*
G01*
X139449958Y-51590401D01*
G75*
G02*
X138706532Y-52346917I-749971J-6545D01*
G01*
X135806642Y-52372223D01*
G75*
G02*
X135050126Y-51628797I-6545J749971D01*
G01*
G37*
D16*
X128250000Y-61050000D03*
D17*
X133350000Y-57150000D03*
D13*
X127850000Y-57150000D03*
X138850000Y-57150000D03*
D18*
X133350000Y-63050000D03*
D15*
X129540000Y-54610000D03*
D12*
X138430000Y-57150000D03*
X128270000Y-57150000D03*
%TD*%
D15*
%TO.C,SW4*%
X116840000Y-52070000D03*
G36*
G01*
X116000126Y-51628797D02*
X116000126Y-51628797D01*
G75*
G02*
X116743552Y-50872281I749971J6545D01*
G01*
X119643442Y-50846975D01*
G75*
G02*
X120399958Y-51590401I6545J-749971D01*
G01*
X120399958Y-51590401D01*
G75*
G02*
X119656532Y-52346917I-749971J-6545D01*
G01*
X116756642Y-52372223D01*
G75*
G02*
X116000126Y-51628797I-6545J749971D01*
G01*
G37*
D16*
X109200000Y-61050000D03*
D17*
X114300000Y-57150000D03*
D13*
X108800000Y-57150000D03*
X119800000Y-57150000D03*
D18*
X114300000Y-63050000D03*
D15*
X110490000Y-54610000D03*
D12*
X119380000Y-57150000D03*
X109220000Y-57150000D03*
%TD*%
D15*
%TO.C,SW1*%
X59690000Y-52070000D03*
G36*
G01*
X58850126Y-51628797D02*
X58850126Y-51628797D01*
G75*
G02*
X59593552Y-50872281I749971J6545D01*
G01*
X62493442Y-50846975D01*
G75*
G02*
X63249958Y-51590401I6545J-749971D01*
G01*
X63249958Y-51590401D01*
G75*
G02*
X62506532Y-52346917I-749971J-6545D01*
G01*
X59606642Y-52372223D01*
G75*
G02*
X58850126Y-51628797I-6545J749971D01*
G01*
G37*
D16*
X52050000Y-61050000D03*
D17*
X57150000Y-57150000D03*
D13*
X51650000Y-57150000D03*
X62650000Y-57150000D03*
D18*
X57150000Y-63050000D03*
D15*
X53340000Y-54610000D03*
D12*
X62230000Y-57150000D03*
X52070000Y-57150000D03*
%TD*%
D19*
%TO.C,D36*%
X149095000Y-143510000D03*
X145545000Y-143510000D03*
%TD*%
%TO.C,D35*%
X130045000Y-143510000D03*
X126495000Y-143510000D03*
%TD*%
%TO.C,D34*%
X110995000Y-143510000D03*
X107445000Y-143510000D03*
%TD*%
%TO.C,D33*%
X91945000Y-143510000D03*
X88395000Y-143510000D03*
%TD*%
%TO.C,D32*%
X72895000Y-143510000D03*
X69345000Y-143510000D03*
%TD*%
%TO.C,D31*%
X53845000Y-143510000D03*
X50295000Y-143510000D03*
%TD*%
%TO.C,D30*%
X149095000Y-124460000D03*
X145545000Y-124460000D03*
%TD*%
%TO.C,D29*%
X130045000Y-124460000D03*
X126495000Y-124460000D03*
%TD*%
%TO.C,D28*%
X110995000Y-124460000D03*
X107445000Y-124460000D03*
%TD*%
%TO.C,D27*%
X91945000Y-124460000D03*
X88395000Y-124460000D03*
%TD*%
%TO.C,D26*%
X72895000Y-124460000D03*
X69345000Y-124460000D03*
%TD*%
%TO.C,D25*%
X53845000Y-124460000D03*
X50295000Y-124460000D03*
%TD*%
%TO.C,D24*%
X149095000Y-105410000D03*
X145545000Y-105410000D03*
%TD*%
%TO.C,D23*%
X130045000Y-105410000D03*
X126495000Y-105410000D03*
%TD*%
%TO.C,D22*%
X110995000Y-105410000D03*
X107445000Y-105410000D03*
%TD*%
%TO.C,D21*%
X91945000Y-105410000D03*
X88395000Y-105410000D03*
%TD*%
%TO.C,D20*%
X72895000Y-105410000D03*
X69345000Y-105410000D03*
%TD*%
%TO.C,D19*%
X53845000Y-105410000D03*
X50295000Y-105410000D03*
%TD*%
%TO.C,D18*%
X149095000Y-86360000D03*
X145545000Y-86360000D03*
%TD*%
%TO.C,D17*%
X130045000Y-86360000D03*
X126495000Y-86360000D03*
%TD*%
%TO.C,D16*%
X110995000Y-86360000D03*
X107445000Y-86360000D03*
%TD*%
%TO.C,D15*%
X91945000Y-86360000D03*
X88395000Y-86360000D03*
%TD*%
%TO.C,D14*%
X72895000Y-86360000D03*
X69345000Y-86360000D03*
%TD*%
%TO.C,D13*%
X53845000Y-86360000D03*
X50295000Y-86360000D03*
%TD*%
%TO.C,D12*%
X149095000Y-67310000D03*
X145545000Y-67310000D03*
%TD*%
%TO.C,D11*%
X130045000Y-67310000D03*
X126495000Y-67310000D03*
%TD*%
%TO.C,D10*%
X110995000Y-67310000D03*
X107445000Y-67310000D03*
%TD*%
%TO.C,D9*%
X91945000Y-67310000D03*
X88395000Y-67310000D03*
%TD*%
%TO.C,D8*%
X72895000Y-67310000D03*
X69345000Y-67310000D03*
%TD*%
%TO.C,D7*%
X53845000Y-67310000D03*
X50295000Y-67310000D03*
%TD*%
%TO.C,D5*%
X130045000Y-48260000D03*
X126495000Y-48260000D03*
%TD*%
%TO.C,D4*%
X110995000Y-48260000D03*
X107445000Y-48260000D03*
%TD*%
%TO.C,D1*%
X53845000Y-48260000D03*
X50295000Y-48260000D03*
%TD*%
M02*
