M48
; DRILL file {KiCad (5.1.10-1-10_14)} date Monday, November 08, 2021 at 01:36:28 PM
; FORMAT={-:-/ absolute / inch / decimal}
; #@! TF.CreationDate,2021-11-08T13:36:28+08:00
; #@! TF.GenerationSoftware,Kicad,Pcbnew,(5.1.10-1-10_14)
; #@! TF.FileFunction,Plated,1,2,PTH
FMAT,2
INCH
T1C0.0118
T2C0.0157
T3C0.0315
T4C0.0354
T5C0.0394
T6C0.0472
%
G90
G05
T2
X2.475Y-1.875
X2.5Y-2.625
X2.525Y-3.375
X2.525Y-4.125
X2.55Y-4.875
X2.675Y-1.875
X2.675Y-2.625
X2.675Y-3.375
X2.675Y-4.125
X2.675Y-4.875
T3
X3.55Y-1.625
X3.95Y-1.625
T4
X3.275Y-1.625
X3.375Y-1.625
T5
X2.325Y-1.575
X2.325Y-1.675
X2.425Y-1.575
X2.425Y-1.675
X2.525Y-1.575
X2.525Y-1.675
X2.625Y-1.575
X2.625Y-1.675
X2.725Y-1.575
X2.725Y-1.675
X2.825Y-1.575
X2.825Y-1.675
X2.925Y-1.575
X2.925Y-1.675
T6
X2.1Y-2.15
X2.1Y-2.9
X2.1Y-3.65
X2.1Y-4.4
X2.1Y-5.15
X2.1Y-5.9
X2.35Y-2.05
X2.35Y-2.8
X2.35Y-3.55
X2.35Y-4.3
X2.35Y-5.05
X2.35Y-5.8
X2.85Y-2.15
X2.85Y-2.9
X2.85Y-3.65
X2.85Y-4.4
X2.85Y-5.15
X2.85Y-5.9
X3.1Y-2.05
X3.1Y-2.8
X3.1Y-3.55
X3.1Y-4.3
X3.1Y-5.05
X3.1Y-5.8
X3.6Y-2.15
X3.6Y-2.9
X3.6Y-3.65
X3.6Y-4.4
X3.6Y-5.15
X3.6Y-5.9
X3.85Y-2.05
X3.85Y-2.8
X3.85Y-3.55
X3.85Y-4.3
X3.85Y-5.05
X3.85Y-5.8
X4.35Y-2.15
X4.35Y-2.9
X4.35Y-3.65
X4.35Y-4.4
X4.35Y-5.15
X4.35Y-5.9
X4.6Y-2.05
X4.6Y-2.8
X4.6Y-3.55
X4.6Y-4.3
X4.6Y-5.05
X4.6Y-5.8
X5.1Y-2.15
X5.1Y-2.9
X5.1Y-3.65
X5.1Y-4.4
X5.1Y-5.15
X5.1Y-5.9
X5.35Y-2.05
X5.35Y-2.8
X5.35Y-3.55
X5.35Y-4.3
X5.35Y-5.05
X5.35Y-5.8
X5.85Y-2.15
X5.85Y-2.9
X5.85Y-3.65
X5.85Y-4.4
X5.85Y-5.15
X5.85Y-5.9
X6.1Y-2.05
X6.1Y-2.8
X6.1Y-3.55
X6.1Y-4.3
X6.1Y-5.05
X6.1Y-5.8
T1
G00X2.2362Y-2.4823
M15
G01X2.2638Y-2.4823
M16
G05
G00X2.2362Y-3.2323
M15
G01X2.2638Y-3.2323
M16
G05
G00X2.2362Y-3.9823
M15
G01X2.2638Y-3.9823
M16
G05
G00X2.2362Y-4.7323
M15
G01X2.2638Y-4.7323
M16
G05
G00X2.2362Y-5.4823
M15
G01X2.2638Y-5.4823
M16
G05
G00X2.2362Y-6.2323
M15
G01X2.2638Y-6.2323
M16
G05
G00X2.4331Y-2.0316
M15
G01X2.4606Y-2.0314
M16
G05
G00X2.4331Y-2.7816
M15
G01X2.4606Y-2.7814
M16
G05
G00X2.4331Y-3.5316
M15
G01X2.4606Y-3.5314
M16
G05
G00X2.4331Y-4.2816
M15
G01X2.4606Y-4.2814
M16
G05
G00X2.4331Y-5.0316
M15
G01X2.4606Y-5.0314
M16
G05
G00X2.4331Y-5.7816
M15
G01X2.4606Y-5.7814
M16
G05
G00X2.9862Y-2.4823
M15
G01X3.0138Y-2.4823
M16
G05
G00X2.9862Y-3.2323
M15
G01X3.0138Y-3.2323
M16
G05
G00X2.9862Y-3.9823
M15
G01X3.0138Y-3.9823
M16
G05
G00X2.9862Y-4.7323
M15
G01X3.0138Y-4.7323
M16
G05
G00X2.9862Y-5.4823
M15
G01X3.0138Y-5.4823
M16
G05
G00X2.9862Y-6.2323
M15
G01X3.0138Y-6.2323
M16
G05
G00X3.1831Y-2.0316
M15
G01X3.2106Y-2.0314
M16
G05
G00X3.1831Y-2.7816
M15
G01X3.2106Y-2.7814
M16
G05
G00X3.1831Y-3.5316
M15
G01X3.2106Y-3.5314
M16
G05
G00X3.1831Y-4.2816
M15
G01X3.2106Y-4.2814
M16
G05
G00X3.1831Y-5.0316
M15
G01X3.2106Y-5.0314
M16
G05
G00X3.1831Y-5.7816
M15
G01X3.2106Y-5.7814
M16
G05
G00X3.7362Y-2.4823
M15
G01X3.7638Y-2.4823
M16
G05
G00X3.7362Y-3.2323
M15
G01X3.7638Y-3.2323
M16
G05
G00X3.7362Y-3.9823
M15
G01X3.7638Y-3.9823
M16
G05
G00X3.7362Y-4.7323
M15
G01X3.7638Y-4.7323
M16
G05
G00X3.7362Y-5.4823
M15
G01X3.7638Y-5.4823
M16
G05
G00X3.7362Y-6.2323
M15
G01X3.7638Y-6.2323
M16
G05
G00X3.9331Y-2.0316
M15
G01X3.9606Y-2.0314
M16
G05
G00X3.9331Y-2.7816
M15
G01X3.9606Y-2.7814
M16
G05
G00X3.9331Y-3.5316
M15
G01X3.9606Y-3.5314
M16
G05
G00X3.9331Y-4.2816
M15
G01X3.9606Y-4.2814
M16
G05
G00X3.9331Y-5.0316
M15
G01X3.9606Y-5.0314
M16
G05
G00X3.9331Y-5.7816
M15
G01X3.9606Y-5.7814
M16
G05
G00X4.4862Y-2.4823
M15
G01X4.5138Y-2.4823
M16
G05
G00X4.4862Y-3.2323
M15
G01X4.5138Y-3.2323
M16
G05
G00X4.4862Y-3.9823
M15
G01X4.5138Y-3.9823
M16
G05
G00X4.4862Y-4.7323
M15
G01X4.5138Y-4.7323
M16
G05
G00X4.4862Y-5.4823
M15
G01X4.5138Y-5.4823
M16
G05
G00X4.4862Y-6.2323
M15
G01X4.5138Y-6.2323
M16
G05
G00X4.6831Y-2.0316
M15
G01X4.7106Y-2.0314
M16
G05
G00X4.6831Y-2.7816
M15
G01X4.7106Y-2.7814
M16
G05
G00X4.6831Y-3.5316
M15
G01X4.7106Y-3.5314
M16
G05
G00X4.6831Y-4.2816
M15
G01X4.7106Y-4.2814
M16
G05
G00X4.6831Y-5.0316
M15
G01X4.7106Y-5.0314
M16
G05
G00X4.6831Y-5.7816
M15
G01X4.7106Y-5.7814
M16
G05
G00X5.2362Y-2.4823
M15
G01X5.2638Y-2.4823
M16
G05
G00X5.2362Y-3.2323
M15
G01X5.2638Y-3.2323
M16
G05
G00X5.2362Y-3.9823
M15
G01X5.2638Y-3.9823
M16
G05
G00X5.2362Y-4.7323
M15
G01X5.2638Y-4.7323
M16
G05
G00X5.2362Y-5.4823
M15
G01X5.2638Y-5.4823
M16
G05
G00X5.2362Y-6.2323
M15
G01X5.2638Y-6.2323
M16
G05
G00X5.4331Y-2.0316
M15
G01X5.4606Y-2.0314
M16
G05
G00X5.4331Y-2.7816
M15
G01X5.4606Y-2.7814
M16
G05
G00X5.4331Y-3.5316
M15
G01X5.4606Y-3.5314
M16
G05
G00X5.4331Y-4.2816
M15
G01X5.4606Y-4.2814
M16
G05
G00X5.4331Y-5.0316
M15
G01X5.4606Y-5.0314
M16
G05
G00X5.4331Y-5.7816
M15
G01X5.4606Y-5.7814
M16
G05
G00X5.9862Y-2.4823
M15
G01X6.0138Y-2.4823
M16
G05
G00X5.9862Y-3.2323
M15
G01X6.0138Y-3.2323
M16
G05
G00X5.9862Y-3.9823
M15
G01X6.0138Y-3.9823
M16
G05
G00X5.9862Y-4.7323
M15
G01X6.0138Y-4.7323
M16
G05
G00X5.9862Y-5.4823
M15
G01X6.0138Y-5.4823
M16
G05
G00X5.9862Y-6.2323
M15
G01X6.0138Y-6.2323
M16
G05
G00X6.1831Y-2.0316
M15
G01X6.2106Y-2.0314
M16
G05
G00X6.1831Y-2.7816
M15
G01X6.2106Y-2.7814
M16
G05
G00X6.1831Y-3.5316
M15
G01X6.2106Y-3.5314
M16
G05
G00X6.1831Y-4.2816
M15
G01X6.2106Y-4.2814
M16
G05
G00X6.1831Y-5.0316
M15
G01X6.2106Y-5.0314
M16
G05
G00X6.1831Y-5.7816
M15
G01X6.2106Y-5.7814
M16
G05
T2
G00X2.0374Y-2.4035
M15
G01X2.061Y-2.4035
M16
G05
G00X2.0374Y-3.1535
M15
G01X2.061Y-3.1535
M16
G05
G00X2.0374Y-3.9035
M15
G01X2.061Y-3.9035
M16
G05
G00X2.0374Y-4.6535
M15
G01X2.061Y-4.6535
M16
G05
G00X2.0374Y-5.4035
M15
G01X2.061Y-5.4035
M16
G05
G00X2.0374Y-6.1535
M15
G01X2.061Y-6.1535
M16
G05
G00X2.7874Y-2.4035
M15
G01X2.811Y-2.4035
M16
G05
G00X2.7874Y-3.1535
M15
G01X2.811Y-3.1535
M16
G05
G00X2.7874Y-3.9035
M15
G01X2.811Y-3.9035
M16
G05
G00X2.7874Y-4.6535
M15
G01X2.811Y-4.6535
M16
G05
G00X2.7874Y-5.4035
M15
G01X2.811Y-5.4035
M16
G05
G00X2.7874Y-6.1535
M15
G01X2.811Y-6.1535
M16
G05
G00X3.5374Y-2.4035
M15
G01X3.561Y-2.4035
M16
G05
G00X3.5374Y-3.1535
M15
G01X3.561Y-3.1535
M16
G05
G00X3.5374Y-3.9035
M15
G01X3.561Y-3.9035
M16
G05
G00X3.5374Y-4.6535
M15
G01X3.561Y-4.6535
M16
G05
G00X3.5374Y-5.4035
M15
G01X3.561Y-5.4035
M16
G05
G00X3.5374Y-6.1535
M15
G01X3.561Y-6.1535
M16
G05
G00X4.2874Y-2.4035
M15
G01X4.311Y-2.4035
M16
G05
G00X4.2874Y-3.1535
M15
G01X4.311Y-3.1535
M16
G05
G00X4.2874Y-3.9035
M15
G01X4.311Y-3.9035
M16
G05
G00X4.2874Y-4.6535
M15
G01X4.311Y-4.6535
M16
G05
G00X4.2874Y-5.4035
M15
G01X4.311Y-5.4035
M16
G05
G00X4.2874Y-6.1535
M15
G01X4.311Y-6.1535
M16
G05
G00X5.0374Y-2.4035
M15
G01X5.061Y-2.4035
M16
G05
G00X5.0374Y-3.1535
M15
G01X5.061Y-3.1535
M16
G05
G00X5.0374Y-3.9035
M15
G01X5.061Y-3.9035
M16
G05
G00X5.0374Y-4.6535
M15
G01X5.061Y-4.6535
M16
G05
G00X5.0374Y-5.4035
M15
G01X5.061Y-5.4035
M16
G05
G00X5.0374Y-6.1535
M15
G01X5.061Y-6.1535
M16
G05
G00X5.7874Y-2.4035
M15
G01X5.811Y-2.4035
M16
G05
G00X5.7874Y-3.1535
M15
G01X5.811Y-3.1535
M16
G05
G00X5.7874Y-3.9035
M15
G01X5.811Y-3.9035
M16
G05
G00X5.7874Y-4.6535
M15
G01X5.811Y-4.6535
M16
G05
G00X5.7874Y-5.4035
M15
G01X5.811Y-5.4035
M16
G05
G00X5.7874Y-6.1535
M15
G01X5.811Y-6.1535
M16
G05
T0
M30
