0
SECTION
2
HEADER
9
$INSUNITS
70
4
9
$ACADVER
1
AC1014
9
$HANDSEED
5
FFFF
0
ENDSEC
0
SECTION
2
TABLES
0
TABLE
2
VPORT
5
8
100
AcDbSymbolTable
0
ENDTAB
0
TABLE
2
LTYPE
5
5
100
AcDbSymbolTable
0
LTYPE
5
14
100
AcDbSymbolTableRecord
100
AcDbLinetypeTableRecord
2
BYBLOCK
70
0
0
LTYPE
5
15
100
AcDbSymbolTableRecord
100
AcDbLinetypeTableRecord
2
BYLAYER
70
0
0
ENDTAB
0
TABLE
2
LAYER
5
2
100
AcDbSymbolTable
70
2
0
LAYER
5
50
100
AcDbSymbolTableRecord
100
AcDbLayerTableRecord
2
0
70
0
6
CONTINUOUS
0
ENDTAB
0
TABLE
2
STYLE
5
3
100
AcDbSymbolTable
70
1
0
STYLE
5
11
100
AcDbSymbolTableRecord
100
AcDbTextStyleTableRecord
2
STANDARD
70
0
0
ENDTAB
0
TABLE
2
VIEW
5
6
100
AcDbSymbolTable
70
0
0
ENDTAB
0
TABLE
2
UCS
5
7
100
AcDbSymbolTable
70
0
0
ENDTAB
0
TABLE
2
APPID
5
9
100
AcDbSymbolTable
70
2
0
APPID
5
12
100
AcDbSymbolTableRecord
100
AcDbRegAppTableRecord
2
ACAD
70
0
0
ENDTAB
0
TABLE
2
DIMSTYLE
5
A
100
AcDbSymbolTable
70
1
0
ENDTAB
0
TABLE
2
BLOCK_RECORD
5
1
100
AcDbSymbolTable
70
1
0
BLOCK_RECORD
5
1F
100
AcDbSymbolTableRecord
100
AcDbBlockTableRecord
2
*MODEL_SPACE
0
BLOCK_RECORD
5
1B
100
AcDbSymbolTableRecord
100
AcDbBlockTableRecord
2
*PAPER_SPACE
0
ENDTAB
0
ENDSEC
0
SECTION
2
BLOCKS
0
BLOCK
5
20
100
AcDbEntity
100
AcDbBlockBegin
2
*MODEL_SPACE
0
ENDBLK
5
21
100
AcDbEntity
100
AcDbBlockEnd
0
BLOCK
5
1C
100
AcDbEntity
100
AcDbBlockBegin
2
*PAPER_SPACE
0
ENDBLK
5
1D
100
AcDbEntity
100
AcDbBlockEnd
0
ENDSEC
0
SECTION
2
ENTITIES
0
LWPOLYLINE
5
100
100
AcDbEntity
8
0
100
AcDbPolyline
90
8
70
1
43
0.0
10
9.5250000000000004
20
6.9850000000000101
10
9.5249999999999861
20
-102.23500000000001
42
-0.41421356237310109
10
6.9850000000000101
20
-104.77500000000001
10
-102.23500000000001
20
-104.77500000000001
42
-0.4142135623731073
10
-104.77500000000001
20
-102.23500000000001
10
-104.77500000000001
20
6.9850000000000003
42
-0.41421356237309948
10
-102.23500000000001
20
9.5250000000000004
10
6.9850000000000003
20
9.5250000000000021
42
-0.41421356237309448
0
LWPOLYLINE
5
101
100
AcDbEntity
8
0
100
AcDbPolyline
90
8
70
1
43
0.0
10
-44.800000000000004
20
-6.9999999999999964
42
-0.41421356237309714
10
-45.099999999999994
20
-6.7000000000000002
10
-45.100000000000009
20
6.6999999999999984
42
-0.41421356237309614
10
-44.800000000000004
20
7
10
-31.399999999999999
20
6.9999999999999964
42
-0.41421356237310042
10
-31.099999999999998
20
6.7000000000000011
10
-31.099999999999994
20
-6.7000000000000002
42
-0.41421356237309176
10
-31.399999999999999
20
-7.0000000000000009
0
LWPOLYLINE
5
102
100
AcDbEntity
8
0
100
AcDbPolyline
90
8
70
1
43
0.0
10
-25.75
20
-26.050000000000001
42
-0.41421356237310364
10
-26.050000000000001
20
-25.75
10
-26.050000000000004
20
-12.350000000000001
42
-0.4142135623730907
10
-25.75
20
-12.050000000000001
10
-12.349999999999998
20
-12.049999999999999
42
-0.41421356237310364
10
-12.049999999999999
20
-12.349999999999998
10
-12.050000000000002
20
-25.75
42
-0.41421356237310153
10
-12.349999999999998
20
-26.050000000000001
0
LWPOLYLINE
5
103
100
AcDbEntity
8
0
100
AcDbPolyline
90
8
70
1
43
0.0
10
-6.6999999999999993
20
-26.050000000000004
42
-0.41421356237309176
10
-7
20
-25.75
10
-7.0000000000000009
20
-12.350000000000003
42
-0.41421356237309176
10
-6.6999999999999993
20
-12.050000000000001
10
6.6999999999999993
20
-12.049999999999997
42
-0.41421356237309936
10
7.0000000000000018
20
-12.349999999999998
10
6.9999999999999964
20
-25.75
42
-0.41421356237310042
10
6.7000000000000011
20
-26.050000000000001
0
LWPOLYLINE
5
104
100
AcDbEntity
8
0
100
AcDbPolyline
90
8
70
1
43
0.0
10
-44.800000000000004
20
-26.049999999999997
42
-0.41421356237309509
10
-45.099999999999994
20
-25.75
10
-45.100000000000009
20
-12.350000000000001
42
-0.41421356237309509
10
-44.800000000000004
20
-12.050000000000001
10
-31.399999999999999
20
-12.050000000000002
42
-0.41421356237310153
10
-31.099999999999998
20
-12.349999999999998
10
-31.099999999999998
20
-25.75
42
-0.41421356237310364
10
-31.399999999999999
20
-26.050000000000001
0
LWPOLYLINE
5
105
100
AcDbEntity
8
0
100
AcDbPolyline
90
8
70
1
43
0.0
10
-25.75
20
-6.9999999999999947
42
-0.41421356237310042
10
-26.050000000000001
20
-6.7000000000000002
10
-26.050000000000004
20
6.6999999999999984
42
-0.41421356237309293
10
-25.75
20
7
10
-12.349999999999998
20
7
42
-0.41421356237309714
10
-12.049999999999999
20
6.7000000000000011
10
-12.049999999999999
20
-6.7000000000000002
42
-0.41421356237309936
10
-12.349999999999998
20
-7.0000000000000009
0
LWPOLYLINE
5
106
100
AcDbEntity
8
0
100
AcDbPolyline
90
8
70
1
43
0.0
10
-6.6999999999999993
20
-45.100000000000009
42
-0.41421356237309509
10
-7
20
-44.800000000000004
10
-7.0000000000000009
20
-31.400000000000002
42
-0.41421356237308965
10
-6.6999999999999993
20
-31.100000000000001
10
6.6999999999999993
20
-31.099999999999994
42
-0.41421356237309392
10
7.0000000000000018
20
-31.399999999999999
10
6.9999999999999964
20
-44.800000000000004
42
-0.41421356237309614
10
6.7000000000000011
20
-45.099999999999994
0
LWPOLYLINE
5
107
100
AcDbEntity
8
0
100
AcDbPolyline
90
8
70
1
43
0.0
10
-25.75
20
-45.099999999999994
42
-0.41421356237312101
10
-26.050000000000001
20
-44.800000000000004
10
-26.050000000000001
20
-31.400000000000002
42
-0.41421356237309509
10
-25.75
20
-31.100000000000001
10
-12.349999999999998
20
-31.099999999999994
42
-0.41421356237309293
10
-12.049999999999999
20
-31.399999999999999
10
-12.050000000000011
20
-44.800000000000004
42
-0.41421356237310591
10
-12.349999999999998
20
-45.099999999999994
0
LWPOLYLINE
5
108
100
AcDbEntity
8
0
100
AcDbPolyline
90
8
70
1
43
0.0
10
-7
20
6.6999999999999993
42
-0.4142135623730907
10
-6.6999999999999993
20
7
10
6.6999999999999993
20
7.0000000000000018
42
-0.41421356237309293
10
7.0000000000000018
20
6.7000000000000011
10
7.0000000000000018
20
-6.7000000000000002
42
-0.41421356237309293
10
6.7000000000000011
20
-7.0000000000000009
10
-6.6999999999999993
20
-7.0000000000000009
42
-0.41421356237309293
10
-7
20
-6.7000000000000002
0
LWPOLYLINE
5
109
100
AcDbEntity
8
0
100
AcDbPolyline
90
8
70
1
43
0.0
10
-101.95
20
-6.9999999999999938
42
-0.41421356237312973
10
-102.25
20
-6.7000000000000002
10
-102.24999999999997
20
6.6999999999999984
42
-0.41421356237311241
10
-101.95
20
7
10
-88.550000000000011
20
7.0000000000000213
42
-0.414213562373069
10
-88.25
20
6.7000000000000011
10
-88.250000000000028
20
-6.7000000000000002
42
-0.41421356237311019
10
-88.550000000000011
20
-7.0000000000000009
0
LWPOLYLINE
5
110
100
AcDbEntity
8
0
100
AcDbPolyline
90
8
70
1
43
0.0
10
-63.849999999999994
20
-45.100000000000009
42
-0.41421356237309509
10
-64.150000000000006
20
-44.800000000000004
10
-64.149999999999991
20
-31.400000000000002
42
-0.41421356237311668
10
-63.849999999999994
20
-31.100000000000001
10
-50.450000000000003
20
-31.099999999999991
42
-0.41421356237309936
10
-50.149999999999999
20
-31.399999999999999
10
-50.150000000000006
20
-44.800000000000004
42
-0.41421356237311241
10
-50.450000000000003
20
-45.099999999999994
0
LWPOLYLINE
5
111
100
AcDbEntity
8
0
100
AcDbPolyline
90
8
70
1
43
0.0
10
-44.800000000000004
20
-45.099999999999994
42
-0.41421356237311241
10
-45.099999999999994
20
-44.800000000000004
10
-45.099999999999994
20
-31.400000000000002
42
-0.41421356237311668
10
-44.800000000000004
20
-31.100000000000001
10
-31.399999999999999
20
-31.099999999999998
42
-0.41421356237310364
10
-31.099999999999998
20
-31.399999999999999
10
-31.100000000000001
20
-44.800000000000004
42
-0.41421356237309509
10
-31.399999999999999
20
-45.099999999999994
0
LWPOLYLINE
5
112
100
AcDbEntity
8
0
100
AcDbPolyline
90
8
70
1
43
0.0
10
-82.899999999999991
20
-26.050000000000018
42
-0.41421356237306461
10
-83.200000000000003
20
-25.75
10
-83.19999999999996
20
-12.350000000000001
42
-0.41421356237311241
10
-82.899999999999991
20
-12.050000000000001
10
-69.500000000000014
20
-12.049999999999992
42
-0.41421356237309936
10
-69.200000000000003
20
-12.349999999999998
10
-69.200000000000003
20
-25.75
42
-0.41421356237306461
10
-69.5
20
-26.050000000000001
0
LWPOLYLINE
5
113
100
AcDbEntity
8
0
100
AcDbPolyline
90
8
70
1
43
0.0
10
-101.95
20
-26.04999999999999
42
-0.4142135623731254
10
-102.25
20
-25.75
10
-102.24999999999997
20
-12.350000000000001
42
-0.41421356237311241
10
-101.95
20
-12.050000000000001
10
-88.550000000000011
20
-12.049999999999979
42
-0.414213562373069
10
-88.25
20
-12.349999999999998
10
-88.250000000000014
20
-25.75
42
-0.414213562373134
10
-88.550000000000011
20
-26.050000000000001
0
LWPOLYLINE
5
114
100
AcDbEntity
8
0
100
AcDbPolyline
90
8
70
1
43
0.0
10
-101.95
20
-45.099999999999994
42
-0.41421356237312973
10
-102.25
20
-44.800000000000004
10
-102.25
20
-31.400000000000002
42
-0.41421356237312973
10
-101.95
20
-31.100000000000001
10
-88.550000000000011
20
-31.09999999999998
42
-0.41421356237306461
10
-88.25
20
-31.399999999999999
10
-88.250000000000014
20
-44.800000000000004
42
-0.41421356237312973
10
-88.550000000000011
20
-45.099999999999994
0
LWPOLYLINE
5
115
100
AcDbEntity
8
0
100
AcDbPolyline
90
8
70
1
43
0.0
10
-63.849999999999994
20
-26.050000000000008
42
-0.41421356237309936
10
-64.150000000000006
20
-25.75
10
-64.150000000000006
20
-12.350000000000001
42
-0.41421356237309509
10
-63.849999999999994
20
-12.050000000000001
10
-50.450000000000003
20
-12.049999999999997
42
-0.41421356237309509
10
-50.149999999999999
20
-12.349999999999998
10
-50.150000000000006
20
-25.75
42
-0.41421356237312101
10
-50.450000000000003
20
-26.050000000000001
0
LWPOLYLINE
5
116
100
AcDbEntity
8
0
100
AcDbPolyline
90
8
70
1
43
0.0
10
-82.899999999999991
20
-7.0000000000000204
42
-0.414213562373069
10
-83.200000000000003
20
-6.7000000000000002
10
-83.19999999999996
20
6.6999999999999984
42
-0.41421356237311241
10
-82.899999999999991
20
7
10
-69.5
20
7.0000000000000098
42
-0.41421356237310042
10
-69.200000000000003
20
6.7000000000000011
10
-69.200000000000003
20
-6.7000000000000002
42
-0.41421356237310802
10
-69.5
20
-7.0000000000000009
0
LWPOLYLINE
5
117
100
AcDbEntity
8
0
100
AcDbPolyline
90
8
70
1
43
0.0
10
-63.849999999999994
20
-7.0000000000000027
42
-0.41421356237309509
10
-64.150000000000006
20
-6.7000000000000002
10
-64.150000000000006
20
6.6999999999999984
42
-0.41421356237309614
10
-63.849999999999994
20
7
10
-50.450000000000003
20
7.0000000000000053
42
-0.41421356237309614
10
-50.149999999999999
20
6.7000000000000011
10
-50.149999999999999
20
-6.7000000000000002
42
-0.41421356237309509
10
-50.450000000000003
20
-7.0000000000000009
0
LWPOLYLINE
5
118
100
AcDbEntity
8
0
100
AcDbPolyline
90
8
70
1
43
0.0
10
-44.800000000000004
20
-64.149999999999991
42
-0.41421356237311241
10
-45.099999999999994
20
-63.849999999999994
10
-45.100000000000009
20
-50.450000000000003
42
-0.41421356237309509
10
-44.800000000000004
20
-50.149999999999999
10
-31.399999999999999
20
-50.150000000000006
42
-0.41421356237312101
10
-31.099999999999998
20
-50.450000000000003
10
-31.099999999999991
20
-63.849999999999994
42
-0.41421356237309936
10
-31.399999999999999
20
-64.150000000000006
0
LWPOLYLINE
5
119
100
AcDbEntity
8
0
100
AcDbPolyline
90
8
70
1
43
0.0
10
-25.75
20
-64.149999999999991
42
-0.41421356237312101
10
-26.050000000000001
20
-63.849999999999994
10
-26.050000000000008
20
-50.450000000000003
42
-0.41421356237309936
10
-25.75
20
-50.149999999999999
10
-12.349999999999998
20
-50.150000000000006
42
-0.41421356237309714
10
-12.049999999999999
20
-50.450000000000003
10
-12.049999999999997
20
-63.849999999999994
42
-0.41421356237309509
10
-12.349999999999998
20
-64.150000000000006
0
LWPOLYLINE
5
120
100
AcDbEntity
8
0
100
AcDbPolyline
90
8
70
1
43
0.0
10
-82.899999999999991
20
-64.150000000000006
42
-0.41421356237308637
10
-83.200000000000003
20
-63.849999999999994
10
-83.200000000000003
20
-50.450000000000003
42
-0.41421356237308637
10
-82.899999999999991
20
-50.149999999999999
10
-69.5
20
-50.149999999999991
42
-0.41421356237310364
10
-69.200000000000003
20
-50.450000000000003
10
-69.200000000000003
20
-63.849999999999994
42
-0.41421356237310364
10
-69.5
20
-64.150000000000006
0
LWPOLYLINE
5
121
100
AcDbEntity
8
0
100
AcDbPolyline
90
8
70
1
43
0.0
10
-6.6999999999999993
20
-64.150000000000006
42
-0.41421356237309509
10
-7
20
-63.849999999999994
10
-7.0000000000000027
20
-50.450000000000003
42
-0.41421356237309614
10
-6.6999999999999993
20
-50.149999999999999
10
6.6999999999999993
20
-50.149999999999999
42
-0.41421356237309714
10
7.0000000000000018
20
-50.450000000000003
10
7.0000000000000053
20
-63.849999999999994
42
-0.41421356237309614
10
6.7000000000000011
20
-64.150000000000006
0
LWPOLYLINE
5
122
100
AcDbEntity
8
0
100
AcDbPolyline
90
8
70
1
43
0.0
10
-82.899999999999991
20
-102.25000000000001
42
-0.4142135623730604
10
-83.200000000000003
20
-101.95
10
-83.199999999999989
20
-88.550000000000011
42
-0.41421356237316442
10
-82.899999999999991
20
-88.250000000000014
10
-69.5
20
-88.25
42
-0.41421356237308637
10
-69.200000000000003
20
-88.550000000000011
10
-69.200000000000003
20
-101.95
42
-0.41421356237310364
10
-69.5
20
-102.25
0
LWPOLYLINE
5
123
100
AcDbEntity
8
0
100
AcDbPolyline
90
8
70
1
43
0.0
10
-101.95
20
-64.149999999999991
42
-0.41421356237312973
10
-102.25
20
-63.849999999999994
10
-102.25000000000001
20
-50.450000000000003
42
-0.41421356237308637
10
-101.95
20
-50.149999999999999
10
-88.550000000000011
20
-50.149999999999999
42
-0.41421356237308637
10
-88.25
20
-50.450000000000003
10
-88.25
20
-63.849999999999994
42
-0.41421356237308637
10
-88.550000000000011
20
-64.150000000000006
0
LWPOLYLINE
5
124
100
AcDbEntity
8
0
100
AcDbPolyline
90
8
70
1
43
0.0
10
-82.899999999999991
20
-83.200000000000017
42
-0.4142135623730604
10
-83.200000000000003
20
-82.900000000000006
10
-83.200000000000003
20
-69.5
42
-0.41421356237308637
10
-82.899999999999991
20
-69.200000000000003
10
-69.5
20
-69.200000000000003
42
-0.41421356237311241
10
-69.200000000000003
20
-69.5
10
-69.200000000000003
20
-82.900000000000006
42
-0.41421356237309509
10
-69.5
20
-83.200000000000003
0
LWPOLYLINE
5
125
100
AcDbEntity
8
0
100
AcDbPolyline
90
8
70
1
43
0.0
10
-82.899999999999991
20
-45.100000000000009
42
-0.41421356237308637
10
-83.200000000000003
20
-44.800000000000004
10
-83.199999999999989
20
-31.400000000000002
42
-0.41421356237312973
10
-82.899999999999991
20
-31.100000000000001
10
-69.5
20
-31.099999999999994
42
-0.41421356237311241
10
-69.200000000000003
20
-31.399999999999999
10
-69.200000000000017
20
-44.800000000000004
42
-0.41421356237308637
10
-69.5
20
-45.099999999999994
0
LWPOLYLINE
5
126
100
AcDbEntity
8
0
100
AcDbPolyline
90
8
70
1
43
0.0
10
-63.849999999999994
20
-64.150000000000006
42
-0.41421356237309509
10
-64.150000000000006
20
-63.849999999999994
10
-64.150000000000006
20
-50.450000000000003
42
-0.41421356237309509
10
-63.849999999999994
20
-50.149999999999999
10
-50.450000000000003
20
-50.149999999999999
42
-0.41421356237309509
10
-50.149999999999999
20
-50.450000000000003
10
-50.149999999999999
20
-63.849999999999994
42
-0.41421356237309509
10
-50.450000000000003
20
-64.150000000000006
0
LWPOLYLINE
5
127
100
AcDbEntity
8
0
100
AcDbPolyline
90
8
70
1
43
0.0
10
-101.95
20
-83.200000000000017
42
-0.4142135623731471
10
-102.25
20
-82.900000000000006
10
-102.25000000000001
20
-69.5
42
-0.41421356237308637
10
-101.95
20
-69.200000000000003
10
-88.550000000000011
20
-69.199999999999989
42
-0.41421356237309509
10
-88.25
20
-69.5
10
-88.250000000000028
20
-82.900000000000006
42
-0.4142135623731471
10
-88.550000000000011
20
-83.200000000000003
0
LWPOLYLINE
5
128
100
AcDbEntity
8
0
100
AcDbPolyline
90
8
70
1
43
0.0
10
-63.849999999999994
20
-83.200000000000003
42
-0.41421356237310364
10
-64.150000000000006
20
-82.900000000000006
10
-64.150000000000006
20
-69.5
42
-0.41421356237310364
10
-63.849999999999994
20
-69.200000000000003
10
-50.450000000000003
20
-69.200000000000003
42
-0.41421356237310364
10
-50.149999999999999
20
-69.5
10
-50.150000000000013
20
-82.900000000000006
42
-0.41421356237312101
10
-50.450000000000003
20
-83.200000000000003
0
LWPOLYLINE
5
129
100
AcDbEntity
8
0
100
AcDbPolyline
90
8
70
1
43
0.0
10
-44.800000000000004
20
-83.200000000000003
42
-0.41421356237312101
10
-45.099999999999994
20
-82.900000000000006
10
-45.100000000000016
20
-69.5
42
-0.41421356237310364
10
-44.800000000000004
20
-69.200000000000003
10
-31.399999999999999
20
-69.200000000000003
42
-0.41421356237306461
10
-31.099999999999998
20
-69.5
10
-31.100000000000016
20
-82.900000000000006
42
-0.41421356237311668
10
-31.399999999999999
20
-83.200000000000003
0
LWPOLYLINE
5
130
100
AcDbEntity
8
0
100
AcDbPolyline
90
8
70
1
43
0.0
10
-44.800000000000004
20
-102.25
42
-0.41421356237312973
10
-45.099999999999994
20
-101.95
10
-45.099999999999994
20
-88.550000000000011
42
-0.41421356237312973
10
-44.800000000000004
20
-88.250000000000014
10
-31.399999999999999
20
-88.250000000000014
42
-0.414213562373134
10
-31.099999999999998
20
-88.550000000000011
10
-31.100000000000009
20
-101.95
42
-0.4142135623731254
10
-31.399999999999999
20
-102.25
0
LWPOLYLINE
5
131
100
AcDbEntity
8
0
100
AcDbPolyline
90
8
70
1
43
0.0
10
-6.6999999999999993
20
-83.200000000000003
42
-0.41421356237310264
10
-7
20
-82.900000000000006
10
-7.0000000000000071
20
-69.5
42
-0.41421356237310042
10
-6.6999999999999993
20
-69.200000000000003
10
6.6999999999999993
20
-69.200000000000003
42
-0.41421356237311019
10
7.0000000000000018
20
-69.5
10
6.9999999999999849
20
-82.900000000000006
42
-0.4142135623731199
10
6.7000000000000011
20
-83.200000000000003
0
LWPOLYLINE
5
132
100
AcDbEntity
8
0
100
AcDbPolyline
90
8
70
1
43
0.0
10
-25.75
20
-83.200000000000003
42
-0.4142135623731254
10
-26.050000000000001
20
-82.900000000000006
10
-26.050000000000004
20
-69.5
42
-0.41421356237311241
10
-25.75
20
-69.200000000000003
10
-12.349999999999998
20
-69.200000000000003
42
-0.41421356237311019
10
-12.049999999999999
20
-69.5
10
-12.050000000000015
20
-82.900000000000006
42
-0.41421356237312101
10
-12.349999999999998
20
-83.200000000000003
0
LWPOLYLINE
5
133
100
AcDbEntity
8
0
100
AcDbPolyline
90
8
70
1
43
0.0
10
-101.95
20
-102.25
42
-0.41421356237316442
10
-102.25
20
-101.95
10
-102.25
20
-88.550000000000011
42
-0.41421356237316442
10
-101.95
20
-88.250000000000014
10
-88.550000000000011
20
-88.25
42
-0.4142135623730604
10
-88.25
20
-88.550000000000011
10
-88.250000000000014
20
-101.95
42
-0.41421356237316442
10
-88.550000000000011
20
-102.25
0
LWPOLYLINE
5
134
100
AcDbEntity
8
0
100
AcDbPolyline
90
8
70
1
43
0.0
10
-63.849999999999994
20
-102.25000000000001
42
-0.41421356237308637
10
-64.150000000000006
20
-101.95
10
-64.149999999999991
20
-88.550000000000011
42
-0.41421356237312973
10
-63.849999999999994
20
-88.250000000000014
10
-50.450000000000003
20
-88.25
42
-0.41421356237308637
10
-50.149999999999999
20
-88.550000000000011
10
-50.150000000000006
20
-101.95
42
-0.41421356237312973
10
-50.450000000000003
20
-102.25
0
LWPOLYLINE
5
135
100
AcDbEntity
8
0
100
AcDbPolyline
90
8
70
1
43
0.0
10
-6.6999999999999993
20
-102.24999999999997
42
-0.41421356237311135
10
-7
20
-101.95
10
-6.999999999999992
20
-88.550000000000011
42
-0.41421356237312867
10
-6.6999999999999993
20
-88.250000000000014
10
6.6999999999999993
20
-88.250000000000028
42
-0.41421356237311346
10
7.0000000000000018
20
-88.550000000000011
10
6.9999999999999938
20
-101.95
42
-0.41421356237312867
10
6.7000000000000011
20
-102.25
0
LWPOLYLINE
5
136
100
AcDbEntity
8
0
100
AcDbPolyline
90
8
70
1
43
0.0
10
-25.75
20
-102.25
42
-0.414213562373134
10
-26.050000000000001
20
-101.95
10
-26.04999999999999
20
-88.550000000000011
42
-0.4142135623731254
10
-25.75
20
-88.250000000000014
10
-12.349999999999998
20
-88.250000000000014
42
-0.41421356237312973
10
-12.049999999999999
20
-88.550000000000011
10
-12.050000000000004
20
-101.95
42
-0.41421356237312973
10
-12.349999999999998
20
-102.25
0
ENDSEC
0
SECTION
2
OBJECTS
0
DICTIONARY
5
C
100
AcDbDictionary
3
ACAD_GROUP
350
D
3
ACAD_MLINESTYLE
350
17
0
DICTIONARY
5
D
100
AcDbDictionary
0
DICTIONARY
5
1A
330
C
100
AcDbDictionary
0
DICTIONARY
5
17
100
AcDbDictionary
0
ENDSEC
0
EOF
