M48
; DRILL file {KiCad (7.0.0-0)} date Thursday, March 09, 2023 at 02:48:30 PM
; FORMAT={-:-/ absolute / metric / decimal}
; #@! TF.CreationDate,2023-03-09T14:48:30+08:00
; #@! TF.GenerationSoftware,Kicad,Pcbnew,(7.0.0-0)
; #@! TF.FileFunction,NonPlated,1,2,NPTH
FMAT,2
METRIC
; #@! TA.AperFunction,NonPlated,NPTH,ComponentDrill
T1C1.700
; #@! TA.AperFunction,NonPlated,NPTH,ComponentDrill
T2C3.000
; #@! TA.AperFunction,NonPlated,NPTH,ComponentDrill
T3C3.200
%
G90
G05
T1
X-16.638Y-40.845
X-6.302Y-37.083
X-5.5Y18.0
X-5.5Y0.0
X-5.5Y-18.0
X4.0Y-36.0
X5.5Y18.0
X5.5Y0.0
X5.5Y-18.0
X13.5Y20.0
X13.5Y2.0
X13.5Y-16.0
X15.0Y-36.0
X23.0Y-36.0
X24.5Y20.0
X24.5Y2.0
X24.5Y-16.0
X32.5Y23.0
X32.5Y5.0
X32.5Y-13.0
X34.0Y-36.0
X43.5Y23.0
X43.5Y5.0
X43.5Y-13.0
X51.5Y20.0
X51.5Y2.0
X51.5Y-16.0
X62.5Y20.0
X62.5Y2.0
X62.5Y-16.0
X70.5Y11.0
X70.5Y-7.0
X70.5Y-25.0
X81.5Y11.0
X81.5Y-7.0
X81.5Y-25.0
X89.5Y6.5
X89.5Y-11.5
X89.5Y-29.5
X100.5Y6.5
X100.5Y-11.5
X100.5Y-29.5
T2
X-14.903Y-44.151
X-9.452Y-44.508
X-5.506Y-40.731
X-5.0Y14.3
X-5.0Y-3.7
X-5.0Y-21.7
X0.0Y12.1
X0.0Y-5.9
X0.0Y-23.9
X4.5Y-39.7
X5.0Y14.3
X5.0Y-3.7
X5.0Y-21.7
X9.5Y-41.9
X14.0Y16.3
X14.0Y-1.7
X14.0Y-19.7
X14.5Y-39.7
X19.0Y14.1
X19.0Y-3.9
X19.0Y-21.9
X23.5Y-39.7
X24.0Y16.3
X24.0Y-1.7
X24.0Y-19.7
X28.5Y-41.9
X33.0Y19.3
X33.0Y1.3
X33.0Y-16.7
X33.5Y-39.7
X38.0Y17.1
X38.0Y-0.9
X38.0Y-18.9
X43.0Y19.3
X43.0Y1.3
X43.0Y-16.7
X52.0Y16.3
X52.0Y-1.7
X52.0Y-19.7
X57.0Y14.1
X57.0Y-3.9
X57.0Y-21.9
X62.0Y16.3
X62.0Y-1.7
X62.0Y-19.7
X71.0Y7.3
X71.0Y-10.7
X71.0Y-28.7
X76.0Y5.1
X76.0Y-12.9
X76.0Y-30.9
X81.0Y7.3
X81.0Y-10.7
X81.0Y-28.7
X90.0Y2.8
X90.0Y-15.2
X90.0Y-33.2
X95.0Y0.6
X95.0Y-17.4
X95.0Y-35.4
X100.0Y2.8
X100.0Y-15.2
X100.0Y-33.2
T3
X-11.47Y-38.964
X-9.0Y5.0
X0.0Y18.0
X0.0Y0.0
X0.0Y-18.0
X9.5Y-36.0
X19.0Y20.0
X19.0Y2.0
X19.0Y-16.0
X28.5Y-36.0
X38.0Y23.0
X38.0Y5.0
X38.0Y-13.0
X38.0Y-25.0
X57.0Y20.0
X57.0Y2.0
X57.0Y-16.0
X71.0Y23.0
X76.0Y11.0
X76.0Y-7.0
X76.0Y-25.0
X82.0Y-38.0
X95.0Y6.5
X95.0Y-11.5
X95.0Y-29.5
T0
M30
