%TF.GenerationSoftware,KiCad,Pcbnew,(7.0.0-0)*%
%TF.CreationDate,2023-03-13T10:44:27+08:00*%
%TF.ProjectId,Input,496e7075-742e-46b6-9963-61645f706362,1*%
%TF.SameCoordinates,PX7bfa480PY6052340*%
%TF.FileFunction,Drillmap*%
%TF.FilePolarity,Positive*%
%FSLAX45Y45*%
G04 Gerber Fmt 4.5, Leading zero omitted, Abs format (unit mm)*
G04 Created by KiCad (PCBNEW (7.0.0-0)) date 2023-03-13 10:44:27*
%MOMM*%
%LPD*%
G01*
G04 APERTURE LIST*
%ADD10C,0.100000*%
%ADD11C,0.200000*%
%ADD12C,0.170000*%
%ADD13C,0.300000*%
%ADD14C,0.320000*%
G04 APERTURE END LIST*
D10*
X2900000Y3200000D02*
X1000000Y2900000D01*
X6600000Y2900000D02*
X4700000Y3200000D01*
X-750000Y2900000D02*
X-800000Y2901005D01*
X-900000Y2800000D02*
X-900000Y-2850000D01*
X10325000Y-3860000D02*
G75*
G03*
X10400000Y-3764289I-23570J95711D01*
G01*
X1000000Y2900000D02*
X750000Y2900000D01*
X5650000Y-4500000D02*
X10325000Y-3860000D01*
X-175000Y-4500000D02*
X5650000Y-4500000D01*
X-800000Y2901005D02*
G75*
G03*
X-900000Y2800001I0J-100005D01*
G01*
X-1719107Y-4955972D02*
X-2266339Y-3452464D01*
X-1719110Y-4955973D02*
G75*
G03*
X-1590936Y-5015740I93970J34203D01*
G01*
X10330000Y1575000D02*
X6600000Y2900000D01*
X10400001Y1479289D02*
G75*
G03*
X10330000Y1575000I-100431J1D01*
G01*
X-2206573Y-3324290D02*
G75*
G03*
X-2266339Y-3452464I34203J-93970D01*
G01*
X4700000Y3200000D02*
X2900000Y3200000D01*
X-2206572Y-3324293D02*
X-900000Y-2850000D01*
X-175000Y-4500000D02*
X-1590936Y-5015740D01*
X10400000Y-3764289D02*
X10400000Y1479289D01*
D11*
D12*
X-1748831Y-3999511D02*
X-1578831Y-4169511D01*
X-1578831Y-3999511D02*
X-1748831Y-4169511D01*
X-715169Y-3623289D02*
X-545169Y-3793289D01*
X-545169Y-3623289D02*
X-715169Y-3793289D01*
X-635000Y1885000D02*
X-465000Y1715000D01*
X-465000Y1885000D02*
X-635000Y1715000D01*
X-635000Y85000D02*
X-465000Y-85000D01*
X-465000Y85000D02*
X-635000Y-85000D01*
X-635000Y-1715000D02*
X-465000Y-1885000D01*
X-465000Y-1715000D02*
X-635000Y-1885000D01*
X315000Y-3515000D02*
X485000Y-3685000D01*
X485000Y-3515000D02*
X315000Y-3685000D01*
X465000Y1885000D02*
X635000Y1715000D01*
X635000Y1885000D02*
X465000Y1715000D01*
X465000Y85000D02*
X635000Y-85000D01*
X635000Y85000D02*
X465000Y-85000D01*
X465000Y-1715000D02*
X635000Y-1885000D01*
X635000Y-1715000D02*
X465000Y-1885000D01*
X1265000Y2085000D02*
X1435000Y1915000D01*
X1435000Y2085000D02*
X1265000Y1915000D01*
X1265000Y285000D02*
X1435000Y115000D01*
X1435000Y285000D02*
X1265000Y115000D01*
X1265000Y-1515000D02*
X1435000Y-1685000D01*
X1435000Y-1515000D02*
X1265000Y-1685000D01*
X1415000Y-3515000D02*
X1585000Y-3685000D01*
X1585000Y-3515000D02*
X1415000Y-3685000D01*
X2215000Y-3515000D02*
X2385000Y-3685000D01*
X2385000Y-3515000D02*
X2215000Y-3685000D01*
X2365000Y2085000D02*
X2535000Y1915000D01*
X2535000Y2085000D02*
X2365000Y1915000D01*
X2365000Y285000D02*
X2535000Y115000D01*
X2535000Y285000D02*
X2365000Y115000D01*
X2365000Y-1515000D02*
X2535000Y-1685000D01*
X2535000Y-1515000D02*
X2365000Y-1685000D01*
X3165000Y2385000D02*
X3335000Y2215000D01*
X3335000Y2385000D02*
X3165000Y2215000D01*
X3165000Y585000D02*
X3335000Y415000D01*
X3335000Y585000D02*
X3165000Y415000D01*
X3165000Y-1215000D02*
X3335000Y-1385000D01*
X3335000Y-1215000D02*
X3165000Y-1385000D01*
X3315000Y-3515000D02*
X3485000Y-3685000D01*
X3485000Y-3515000D02*
X3315000Y-3685000D01*
X4265000Y2385000D02*
X4435000Y2215000D01*
X4435000Y2385000D02*
X4265000Y2215000D01*
X4265000Y585000D02*
X4435000Y415000D01*
X4435000Y585000D02*
X4265000Y415000D01*
X4265000Y-1215000D02*
X4435000Y-1385000D01*
X4435000Y-1215000D02*
X4265000Y-1385000D01*
X5065000Y2085000D02*
X5235000Y1915000D01*
X5235000Y2085000D02*
X5065000Y1915000D01*
X5065000Y285000D02*
X5235000Y115000D01*
X5235000Y285000D02*
X5065000Y115000D01*
X5065000Y-1515000D02*
X5235000Y-1685000D01*
X5235000Y-1515000D02*
X5065000Y-1685000D01*
X6165000Y2085000D02*
X6335000Y1915000D01*
X6335000Y2085000D02*
X6165000Y1915000D01*
X6165000Y285000D02*
X6335000Y115000D01*
X6335000Y285000D02*
X6165000Y115000D01*
X6165000Y-1515000D02*
X6335000Y-1685000D01*
X6335000Y-1515000D02*
X6165000Y-1685000D01*
X6965000Y1185000D02*
X7135000Y1015000D01*
X7135000Y1185000D02*
X6965000Y1015000D01*
X6965000Y-615000D02*
X7135000Y-785000D01*
X7135000Y-615000D02*
X6965000Y-785000D01*
X6965000Y-2415000D02*
X7135000Y-2585000D01*
X7135000Y-2415000D02*
X6965000Y-2585000D01*
X8065000Y1185000D02*
X8235000Y1015000D01*
X8235000Y1185000D02*
X8065000Y1015000D01*
X8065000Y-615000D02*
X8235000Y-785000D01*
X8235000Y-615000D02*
X8065000Y-785000D01*
X8065000Y-2415000D02*
X8235000Y-2585000D01*
X8235000Y-2415000D02*
X8065000Y-2585000D01*
X8865000Y735000D02*
X9035000Y565000D01*
X9035000Y735000D02*
X8865000Y565000D01*
X8865000Y-1065000D02*
X9035000Y-1235000D01*
X9035000Y-1065000D02*
X8865000Y-1235000D01*
X8865000Y-2865000D02*
X9035000Y-3035000D01*
X9035000Y-2865000D02*
X8865000Y-3035000D01*
X9965000Y735000D02*
X10135000Y565000D01*
X10135000Y735000D02*
X9965000Y565000D01*
X9965000Y-1065000D02*
X10135000Y-1235000D01*
X10135000Y-1065000D02*
X9965000Y-1235000D01*
X9965000Y-2865000D02*
X10135000Y-3035000D01*
X10135000Y-2865000D02*
X9965000Y-3035000D01*
D13*
X-1340299Y-4415096D02*
G75*
G03*
X-1340299Y-4415096I-150000J0D01*
G01*
X-795208Y-4450819D02*
G75*
G03*
X-795208Y-4450819I-150000J0D01*
G01*
X-400606Y-4073076D02*
G75*
G03*
X-400606Y-4073076I-150000J0D01*
G01*
X-350000Y1430000D02*
G75*
G03*
X-350000Y1430000I-150000J0D01*
G01*
X-350000Y-370000D02*
G75*
G03*
X-350000Y-370000I-150000J0D01*
G01*
X-350000Y-2170000D02*
G75*
G03*
X-350000Y-2170000I-150000J0D01*
G01*
X150000Y1210000D02*
G75*
G03*
X150000Y1210000I-150000J0D01*
G01*
X150000Y-590000D02*
G75*
G03*
X150000Y-590000I-150000J0D01*
G01*
X150000Y-2390000D02*
G75*
G03*
X150000Y-2390000I-150000J0D01*
G01*
X600000Y-3970000D02*
G75*
G03*
X600000Y-3970000I-150000J0D01*
G01*
X650000Y1430000D02*
G75*
G03*
X650000Y1430000I-150000J0D01*
G01*
X650000Y-370000D02*
G75*
G03*
X650000Y-370000I-150000J0D01*
G01*
X650000Y-2170000D02*
G75*
G03*
X650000Y-2170000I-150000J0D01*
G01*
X1100000Y-4190000D02*
G75*
G03*
X1100000Y-4190000I-150000J0D01*
G01*
X1550000Y1630000D02*
G75*
G03*
X1550000Y1630000I-150000J0D01*
G01*
X1550000Y-170000D02*
G75*
G03*
X1550000Y-170000I-150000J0D01*
G01*
X1550000Y-1970000D02*
G75*
G03*
X1550000Y-1970000I-150000J0D01*
G01*
X1600000Y-3970000D02*
G75*
G03*
X1600000Y-3970000I-150000J0D01*
G01*
X2050000Y1410000D02*
G75*
G03*
X2050000Y1410000I-150000J0D01*
G01*
X2050000Y-390000D02*
G75*
G03*
X2050000Y-390000I-150000J0D01*
G01*
X2050000Y-2190000D02*
G75*
G03*
X2050000Y-2190000I-150000J0D01*
G01*
X2500000Y-3970000D02*
G75*
G03*
X2500000Y-3970000I-150000J0D01*
G01*
X2550000Y1630000D02*
G75*
G03*
X2550000Y1630000I-150000J0D01*
G01*
X2550000Y-170000D02*
G75*
G03*
X2550000Y-170000I-150000J0D01*
G01*
X2550000Y-1970000D02*
G75*
G03*
X2550000Y-1970000I-150000J0D01*
G01*
X3000000Y-4190000D02*
G75*
G03*
X3000000Y-4190000I-150000J0D01*
G01*
X3450000Y1930000D02*
G75*
G03*
X3450000Y1930000I-150000J0D01*
G01*
X3450000Y130000D02*
G75*
G03*
X3450000Y130000I-150000J0D01*
G01*
X3450000Y-1670000D02*
G75*
G03*
X3450000Y-1670000I-150000J0D01*
G01*
X3500000Y-3970000D02*
G75*
G03*
X3500000Y-3970000I-150000J0D01*
G01*
X3950000Y1710000D02*
G75*
G03*
X3950000Y1710000I-150000J0D01*
G01*
X3950000Y-90000D02*
G75*
G03*
X3950000Y-90000I-150000J0D01*
G01*
X3950000Y-1890000D02*
G75*
G03*
X3950000Y-1890000I-150000J0D01*
G01*
X4450000Y1930000D02*
G75*
G03*
X4450000Y1930000I-150000J0D01*
G01*
X4450000Y130000D02*
G75*
G03*
X4450000Y130000I-150000J0D01*
G01*
X4450000Y-1670000D02*
G75*
G03*
X4450000Y-1670000I-150000J0D01*
G01*
X5350000Y1630000D02*
G75*
G03*
X5350000Y1630000I-150000J0D01*
G01*
X5350000Y-170000D02*
G75*
G03*
X5350000Y-170000I-150000J0D01*
G01*
X5350000Y-1970000D02*
G75*
G03*
X5350000Y-1970000I-150000J0D01*
G01*
X5850000Y1410000D02*
G75*
G03*
X5850000Y1410000I-150000J0D01*
G01*
X5850000Y-390000D02*
G75*
G03*
X5850000Y-390000I-150000J0D01*
G01*
X5850000Y-2190000D02*
G75*
G03*
X5850000Y-2190000I-150000J0D01*
G01*
X6350000Y1630000D02*
G75*
G03*
X6350000Y1630000I-150000J0D01*
G01*
X6350000Y-170000D02*
G75*
G03*
X6350000Y-170000I-150000J0D01*
G01*
X6350000Y-1970000D02*
G75*
G03*
X6350000Y-1970000I-150000J0D01*
G01*
X7250000Y730000D02*
G75*
G03*
X7250000Y730000I-150000J0D01*
G01*
X7250000Y-1070000D02*
G75*
G03*
X7250000Y-1070000I-150000J0D01*
G01*
X7250000Y-2870000D02*
G75*
G03*
X7250000Y-2870000I-150000J0D01*
G01*
X7750000Y510000D02*
G75*
G03*
X7750000Y510000I-150000J0D01*
G01*
X7750000Y-1290000D02*
G75*
G03*
X7750000Y-1290000I-150000J0D01*
G01*
X7750000Y-3090000D02*
G75*
G03*
X7750000Y-3090000I-150000J0D01*
G01*
X8250000Y730000D02*
G75*
G03*
X8250000Y730000I-150000J0D01*
G01*
X8250000Y-1070000D02*
G75*
G03*
X8250000Y-1070000I-150000J0D01*
G01*
X8250000Y-2870000D02*
G75*
G03*
X8250000Y-2870000I-150000J0D01*
G01*
X9150000Y280000D02*
G75*
G03*
X9150000Y280000I-150000J0D01*
G01*
X9150000Y-1520000D02*
G75*
G03*
X9150000Y-1520000I-150000J0D01*
G01*
X9150000Y-3320000D02*
G75*
G03*
X9150000Y-3320000I-150000J0D01*
G01*
X9650000Y60000D02*
G75*
G03*
X9650000Y60000I-150000J0D01*
G01*
X9650000Y-1740000D02*
G75*
G03*
X9650000Y-1740000I-150000J0D01*
G01*
X9650000Y-3540000D02*
G75*
G03*
X9650000Y-3540000I-150000J0D01*
G01*
X10150000Y280000D02*
G75*
G03*
X10150000Y280000I-150000J0D01*
G01*
X10150000Y-1520000D02*
G75*
G03*
X10150000Y-1520000I-150000J0D01*
G01*
X10150000Y-3320000D02*
G75*
G03*
X10150000Y-3320000I-150000J0D01*
G01*
D14*
X-1147000Y-3736400D02*
X-1147000Y-4056400D01*
X-1307000Y-3896400D02*
X-987000Y-3896400D01*
X-900000Y660000D02*
X-900000Y340000D01*
X-1060000Y500000D02*
X-740000Y500000D01*
X0Y1960000D02*
X0Y1640000D01*
X-160000Y1800000D02*
X160000Y1800000D01*
X0Y160000D02*
X0Y-160000D01*
X-160000Y0D02*
X160000Y0D01*
X0Y-1640000D02*
X0Y-1960000D01*
X-160000Y-1800000D02*
X160000Y-1800000D01*
X950000Y-3440000D02*
X950000Y-3760000D01*
X790000Y-3600000D02*
X1110000Y-3600000D01*
X1900000Y2160000D02*
X1900000Y1840000D01*
X1740000Y2000000D02*
X2060000Y2000000D01*
X1900000Y360000D02*
X1900000Y40000D01*
X1740000Y200000D02*
X2060000Y200000D01*
X1900000Y-1440000D02*
X1900000Y-1760000D01*
X1740000Y-1600000D02*
X2060000Y-1600000D01*
X2850000Y-3440000D02*
X2850000Y-3760000D01*
X2690000Y-3600000D02*
X3010000Y-3600000D01*
X3800000Y2460000D02*
X3800000Y2140000D01*
X3640000Y2300000D02*
X3960000Y2300000D01*
X3800000Y660000D02*
X3800000Y340000D01*
X3640000Y500000D02*
X3960000Y500000D01*
X3800000Y-1140000D02*
X3800000Y-1460000D01*
X3640000Y-1300000D02*
X3960000Y-1300000D01*
X3800000Y-2340000D02*
X3800000Y-2660000D01*
X3640000Y-2500000D02*
X3960000Y-2500000D01*
X5700000Y2160000D02*
X5700000Y1840000D01*
X5540000Y2000000D02*
X5860000Y2000000D01*
X5700000Y360000D02*
X5700000Y40000D01*
X5540000Y200000D02*
X5860000Y200000D01*
X5700000Y-1440000D02*
X5700000Y-1760000D01*
X5540000Y-1600000D02*
X5860000Y-1600000D01*
X7100000Y2460000D02*
X7100000Y2140000D01*
X6940000Y2300000D02*
X7260000Y2300000D01*
X7600000Y1260000D02*
X7600000Y940000D01*
X7440000Y1100000D02*
X7760000Y1100000D01*
X7600000Y-540000D02*
X7600000Y-860000D01*
X7440000Y-700000D02*
X7760000Y-700000D01*
X7600000Y-2340000D02*
X7600000Y-2660000D01*
X7440000Y-2500000D02*
X7760000Y-2500000D01*
X8200000Y-3640000D02*
X8200000Y-3960000D01*
X8040000Y-3800000D02*
X8360000Y-3800000D01*
X9500000Y810000D02*
X9500000Y490000D01*
X9340000Y650000D02*
X9660000Y650000D01*
X9500000Y-990000D02*
X9500000Y-1310000D01*
X9340000Y-1150000D02*
X9660000Y-1150000D01*
X9500000Y-2790000D02*
X9500000Y-3110000D01*
X9340000Y-2950000D02*
X9660000Y-2950000D01*
D11*
X-2029752Y-5320247D02*
X-2029752Y-5120247D01*
X-2029752Y-5120247D02*
X-1982133Y-5120247D01*
X-1982133Y-5120247D02*
X-1953561Y-5129771D01*
X-1953561Y-5129771D02*
X-1934514Y-5148819D01*
X-1934514Y-5148819D02*
X-1924990Y-5167866D01*
X-1924990Y-5167866D02*
X-1915466Y-5205961D01*
X-1915466Y-5205961D02*
X-1915466Y-5234533D01*
X-1915466Y-5234533D02*
X-1924990Y-5272628D01*
X-1924990Y-5272628D02*
X-1934514Y-5291676D01*
X-1934514Y-5291676D02*
X-1953561Y-5310723D01*
X-1953561Y-5310723D02*
X-1982133Y-5320247D01*
X-1982133Y-5320247D02*
X-2029752Y-5320247D01*
X-1829752Y-5320247D02*
X-1829752Y-5186914D01*
X-1829752Y-5225009D02*
X-1820228Y-5205961D01*
X-1820228Y-5205961D02*
X-1810704Y-5196438D01*
X-1810704Y-5196438D02*
X-1791657Y-5186914D01*
X-1791657Y-5186914D02*
X-1772609Y-5186914D01*
X-1705942Y-5320247D02*
X-1705942Y-5186914D01*
X-1705942Y-5120247D02*
X-1715466Y-5129771D01*
X-1715466Y-5129771D02*
X-1705942Y-5139295D01*
X-1705942Y-5139295D02*
X-1696418Y-5129771D01*
X-1696418Y-5129771D02*
X-1705942Y-5120247D01*
X-1705942Y-5120247D02*
X-1705942Y-5139295D01*
X-1582133Y-5320247D02*
X-1601180Y-5310723D01*
X-1601180Y-5310723D02*
X-1610704Y-5291676D01*
X-1610704Y-5291676D02*
X-1610704Y-5120247D01*
X-1477371Y-5320247D02*
X-1496418Y-5310723D01*
X-1496418Y-5310723D02*
X-1505942Y-5291676D01*
X-1505942Y-5291676D02*
X-1505942Y-5120247D01*
X-1281180Y-5320247D02*
X-1281180Y-5120247D01*
X-1281180Y-5120247D02*
X-1214514Y-5263104D01*
X-1214514Y-5263104D02*
X-1147847Y-5120247D01*
X-1147847Y-5120247D02*
X-1147847Y-5320247D01*
X-966895Y-5320247D02*
X-966895Y-5215485D01*
X-966895Y-5215485D02*
X-976418Y-5196438D01*
X-976418Y-5196438D02*
X-995466Y-5186914D01*
X-995466Y-5186914D02*
X-1033561Y-5186914D01*
X-1033561Y-5186914D02*
X-1052609Y-5196438D01*
X-966895Y-5310723D02*
X-985942Y-5320247D01*
X-985942Y-5320247D02*
X-1033561Y-5320247D01*
X-1033561Y-5320247D02*
X-1052609Y-5310723D01*
X-1052609Y-5310723D02*
X-1062133Y-5291676D01*
X-1062133Y-5291676D02*
X-1062133Y-5272628D01*
X-1062133Y-5272628D02*
X-1052609Y-5253580D01*
X-1052609Y-5253580D02*
X-1033561Y-5244057D01*
X-1033561Y-5244057D02*
X-985942Y-5244057D01*
X-985942Y-5244057D02*
X-966895Y-5234533D01*
X-871657Y-5186914D02*
X-871657Y-5386914D01*
X-871657Y-5196438D02*
X-852609Y-5186914D01*
X-852609Y-5186914D02*
X-814514Y-5186914D01*
X-814514Y-5186914D02*
X-795466Y-5196438D01*
X-795466Y-5196438D02*
X-785942Y-5205961D01*
X-785942Y-5205961D02*
X-776418Y-5225009D01*
X-776418Y-5225009D02*
X-776418Y-5282152D01*
X-776418Y-5282152D02*
X-785942Y-5301199D01*
X-785942Y-5301199D02*
X-795466Y-5310723D01*
X-795466Y-5310723D02*
X-814514Y-5320247D01*
X-814514Y-5320247D02*
X-852609Y-5320247D01*
X-852609Y-5320247D02*
X-871657Y-5310723D01*
X-690704Y-5301199D02*
X-681180Y-5310723D01*
X-681180Y-5310723D02*
X-690704Y-5320247D01*
X-690704Y-5320247D02*
X-700228Y-5310723D01*
X-700228Y-5310723D02*
X-690704Y-5301199D01*
X-690704Y-5301199D02*
X-690704Y-5320247D01*
X-690704Y-5196438D02*
X-681180Y-5205961D01*
X-681180Y-5205961D02*
X-690704Y-5215485D01*
X-690704Y-5215485D02*
X-700228Y-5205961D01*
X-700228Y-5205961D02*
X-690704Y-5196438D01*
X-690704Y-5196438D02*
X-690704Y-5215485D01*
D12*
X-2447371Y-5581771D02*
X-2277371Y-5751771D01*
X-2277371Y-5581771D02*
X-2447371Y-5751771D01*
D11*
X-1924990Y-5740247D02*
X-2039276Y-5740247D01*
X-1982133Y-5740247D02*
X-1982133Y-5540247D01*
X-1982133Y-5540247D02*
X-2001180Y-5568819D01*
X-2001180Y-5568819D02*
X-2020228Y-5587866D01*
X-2020228Y-5587866D02*
X-2039276Y-5597390D01*
X-1839276Y-5721199D02*
X-1829752Y-5730723D01*
X-1829752Y-5730723D02*
X-1839276Y-5740247D01*
X-1839276Y-5740247D02*
X-1848799Y-5730723D01*
X-1848799Y-5730723D02*
X-1839276Y-5721199D01*
X-1839276Y-5721199D02*
X-1839276Y-5740247D01*
X-1763085Y-5540247D02*
X-1629752Y-5540247D01*
X-1629752Y-5540247D02*
X-1715466Y-5740247D01*
X-1515466Y-5540247D02*
X-1496418Y-5540247D01*
X-1496418Y-5540247D02*
X-1477371Y-5549771D01*
X-1477371Y-5549771D02*
X-1467847Y-5559295D01*
X-1467847Y-5559295D02*
X-1458323Y-5578342D01*
X-1458323Y-5578342D02*
X-1448799Y-5616437D01*
X-1448799Y-5616437D02*
X-1448799Y-5664057D01*
X-1448799Y-5664057D02*
X-1458323Y-5702152D01*
X-1458323Y-5702152D02*
X-1467847Y-5721199D01*
X-1467847Y-5721199D02*
X-1477371Y-5730723D01*
X-1477371Y-5730723D02*
X-1496418Y-5740247D01*
X-1496418Y-5740247D02*
X-1515466Y-5740247D01*
X-1515466Y-5740247D02*
X-1534514Y-5730723D01*
X-1534514Y-5730723D02*
X-1544037Y-5721199D01*
X-1544037Y-5721199D02*
X-1553561Y-5702152D01*
X-1553561Y-5702152D02*
X-1563085Y-5664057D01*
X-1563085Y-5664057D02*
X-1563085Y-5616437D01*
X-1563085Y-5616437D02*
X-1553561Y-5578342D01*
X-1553561Y-5578342D02*
X-1544037Y-5559295D01*
X-1544037Y-5559295D02*
X-1534514Y-5549771D01*
X-1534514Y-5549771D02*
X-1515466Y-5540247D01*
X-1324990Y-5540247D02*
X-1305942Y-5540247D01*
X-1305942Y-5540247D02*
X-1286895Y-5549771D01*
X-1286895Y-5549771D02*
X-1277371Y-5559295D01*
X-1277371Y-5559295D02*
X-1267847Y-5578342D01*
X-1267847Y-5578342D02*
X-1258323Y-5616437D01*
X-1258323Y-5616437D02*
X-1258323Y-5664057D01*
X-1258323Y-5664057D02*
X-1267847Y-5702152D01*
X-1267847Y-5702152D02*
X-1277371Y-5721199D01*
X-1277371Y-5721199D02*
X-1286895Y-5730723D01*
X-1286895Y-5730723D02*
X-1305942Y-5740247D01*
X-1305942Y-5740247D02*
X-1324990Y-5740247D01*
X-1324990Y-5740247D02*
X-1344038Y-5730723D01*
X-1344038Y-5730723D02*
X-1353561Y-5721199D01*
X-1353561Y-5721199D02*
X-1363085Y-5702152D01*
X-1363085Y-5702152D02*
X-1372609Y-5664057D01*
X-1372609Y-5664057D02*
X-1372609Y-5616437D01*
X-1372609Y-5616437D02*
X-1363085Y-5578342D01*
X-1363085Y-5578342D02*
X-1353561Y-5559295D01*
X-1353561Y-5559295D02*
X-1344038Y-5549771D01*
X-1344038Y-5549771D02*
X-1324990Y-5540247D01*
X-1172609Y-5740247D02*
X-1172609Y-5606914D01*
X-1172609Y-5625961D02*
X-1163085Y-5616437D01*
X-1163085Y-5616437D02*
X-1144038Y-5606914D01*
X-1144038Y-5606914D02*
X-1115466Y-5606914D01*
X-1115466Y-5606914D02*
X-1096418Y-5616437D01*
X-1096418Y-5616437D02*
X-1086895Y-5635485D01*
X-1086895Y-5635485D02*
X-1086895Y-5740247D01*
X-1086895Y-5635485D02*
X-1077371Y-5616437D01*
X-1077371Y-5616437D02*
X-1058323Y-5606914D01*
X-1058323Y-5606914D02*
X-1029752Y-5606914D01*
X-1029752Y-5606914D02*
X-1010704Y-5616437D01*
X-1010704Y-5616437D02*
X-1001180Y-5635485D01*
X-1001180Y-5635485D02*
X-1001180Y-5740247D01*
X-905942Y-5740247D02*
X-905942Y-5606914D01*
X-905942Y-5625961D02*
X-896418Y-5616437D01*
X-896418Y-5616437D02*
X-877371Y-5606914D01*
X-877371Y-5606914D02*
X-848799Y-5606914D01*
X-848799Y-5606914D02*
X-829752Y-5616437D01*
X-829752Y-5616437D02*
X-820228Y-5635485D01*
X-820228Y-5635485D02*
X-820228Y-5740247D01*
X-820228Y-5635485D02*
X-810704Y-5616437D01*
X-810704Y-5616437D02*
X-791656Y-5606914D01*
X-791656Y-5606914D02*
X-763085Y-5606914D01*
X-763085Y-5606914D02*
X-744037Y-5616437D01*
X-744037Y-5616437D02*
X-734514Y-5635485D01*
X-734514Y-5635485D02*
X-734514Y-5740247D01*
X-376418Y-5530723D02*
X-547847Y-5787866D01*
X-151657Y-5540247D02*
X-132609Y-5540247D01*
X-132609Y-5540247D02*
X-113561Y-5549771D01*
X-113561Y-5549771D02*
X-104037Y-5559295D01*
X-104037Y-5559295D02*
X-94514Y-5578342D01*
X-94514Y-5578342D02*
X-84990Y-5616437D01*
X-84990Y-5616437D02*
X-84990Y-5664057D01*
X-84990Y-5664057D02*
X-94514Y-5702152D01*
X-94514Y-5702152D02*
X-104037Y-5721199D01*
X-104037Y-5721199D02*
X-113561Y-5730723D01*
X-113561Y-5730723D02*
X-132609Y-5740247D01*
X-132609Y-5740247D02*
X-151657Y-5740247D01*
X-151657Y-5740247D02*
X-170704Y-5730723D01*
X-170704Y-5730723D02*
X-180228Y-5721199D01*
X-180228Y-5721199D02*
X-189752Y-5702152D01*
X-189752Y-5702152D02*
X-199275Y-5664057D01*
X-199275Y-5664057D02*
X-199275Y-5616437D01*
X-199275Y-5616437D02*
X-189752Y-5578342D01*
X-189752Y-5578342D02*
X-180228Y-5559295D01*
X-180228Y-5559295D02*
X-170704Y-5549771D01*
X-170704Y-5549771D02*
X-151657Y-5540247D01*
X724Y-5721199D02*
X10248Y-5730723D01*
X10248Y-5730723D02*
X724Y-5740247D01*
X724Y-5740247D02*
X-8799Y-5730723D01*
X-8799Y-5730723D02*
X724Y-5721199D01*
X724Y-5721199D02*
X724Y-5740247D01*
X134058Y-5540247D02*
X153106Y-5540247D01*
X153106Y-5540247D02*
X172153Y-5549771D01*
X172153Y-5549771D02*
X181677Y-5559295D01*
X181677Y-5559295D02*
X191201Y-5578342D01*
X191201Y-5578342D02*
X200724Y-5616437D01*
X200724Y-5616437D02*
X200724Y-5664057D01*
X200724Y-5664057D02*
X191201Y-5702152D01*
X191201Y-5702152D02*
X181677Y-5721199D01*
X181677Y-5721199D02*
X172153Y-5730723D01*
X172153Y-5730723D02*
X153106Y-5740247D01*
X153106Y-5740247D02*
X134058Y-5740247D01*
X134058Y-5740247D02*
X115010Y-5730723D01*
X115010Y-5730723D02*
X105486Y-5721199D01*
X105486Y-5721199D02*
X95963Y-5702152D01*
X95963Y-5702152D02*
X86439Y-5664057D01*
X86439Y-5664057D02*
X86439Y-5616437D01*
X86439Y-5616437D02*
X95963Y-5578342D01*
X95963Y-5578342D02*
X105486Y-5559295D01*
X105486Y-5559295D02*
X115010Y-5549771D01*
X115010Y-5549771D02*
X134058Y-5540247D01*
X372153Y-5540247D02*
X334058Y-5540247D01*
X334058Y-5540247D02*
X315010Y-5549771D01*
X315010Y-5549771D02*
X305486Y-5559295D01*
X305486Y-5559295D02*
X286439Y-5587866D01*
X286439Y-5587866D02*
X276915Y-5625961D01*
X276915Y-5625961D02*
X276915Y-5702152D01*
X276915Y-5702152D02*
X286439Y-5721199D01*
X286439Y-5721199D02*
X295963Y-5730723D01*
X295963Y-5730723D02*
X315010Y-5740247D01*
X315010Y-5740247D02*
X353105Y-5740247D01*
X353105Y-5740247D02*
X372153Y-5730723D01*
X372153Y-5730723D02*
X381677Y-5721199D01*
X381677Y-5721199D02*
X391201Y-5702152D01*
X391201Y-5702152D02*
X391201Y-5654533D01*
X391201Y-5654533D02*
X381677Y-5635485D01*
X381677Y-5635485D02*
X372153Y-5625961D01*
X372153Y-5625961D02*
X353105Y-5616437D01*
X353105Y-5616437D02*
X315010Y-5616437D01*
X315010Y-5616437D02*
X295963Y-5625961D01*
X295963Y-5625961D02*
X286439Y-5635485D01*
X286439Y-5635485D02*
X276915Y-5654533D01*
X562629Y-5540247D02*
X524534Y-5540247D01*
X524534Y-5540247D02*
X505486Y-5549771D01*
X505486Y-5549771D02*
X495963Y-5559295D01*
X495963Y-5559295D02*
X476915Y-5587866D01*
X476915Y-5587866D02*
X467391Y-5625961D01*
X467391Y-5625961D02*
X467391Y-5702152D01*
X467391Y-5702152D02*
X476915Y-5721199D01*
X476915Y-5721199D02*
X486439Y-5730723D01*
X486439Y-5730723D02*
X505486Y-5740247D01*
X505486Y-5740247D02*
X543582Y-5740247D01*
X543582Y-5740247D02*
X562629Y-5730723D01*
X562629Y-5730723D02*
X572153Y-5721199D01*
X572153Y-5721199D02*
X581677Y-5702152D01*
X581677Y-5702152D02*
X581677Y-5654533D01*
X581677Y-5654533D02*
X572153Y-5635485D01*
X572153Y-5635485D02*
X562629Y-5625961D01*
X562629Y-5625961D02*
X543582Y-5616437D01*
X543582Y-5616437D02*
X505486Y-5616437D01*
X505486Y-5616437D02*
X486439Y-5625961D01*
X486439Y-5625961D02*
X476915Y-5635485D01*
X476915Y-5635485D02*
X467391Y-5654533D01*
X676915Y-5740247D02*
X715010Y-5740247D01*
X715010Y-5740247D02*
X734058Y-5730723D01*
X734058Y-5730723D02*
X743582Y-5721199D01*
X743582Y-5721199D02*
X762629Y-5692628D01*
X762629Y-5692628D02*
X772153Y-5654533D01*
X772153Y-5654533D02*
X772153Y-5578342D01*
X772153Y-5578342D02*
X762629Y-5559295D01*
X762629Y-5559295D02*
X753105Y-5549771D01*
X753105Y-5549771D02*
X734058Y-5540247D01*
X734058Y-5540247D02*
X695963Y-5540247D01*
X695963Y-5540247D02*
X676915Y-5549771D01*
X676915Y-5549771D02*
X667391Y-5559295D01*
X667391Y-5559295D02*
X657867Y-5578342D01*
X657867Y-5578342D02*
X657867Y-5625961D01*
X657867Y-5625961D02*
X667391Y-5645009D01*
X667391Y-5645009D02*
X676915Y-5654533D01*
X676915Y-5654533D02*
X695963Y-5664057D01*
X695963Y-5664057D02*
X734058Y-5664057D01*
X734058Y-5664057D02*
X753105Y-5654533D01*
X753105Y-5654533D02*
X762629Y-5645009D01*
X762629Y-5645009D02*
X772153Y-5625961D01*
X848344Y-5540247D02*
X848344Y-5578342D01*
X924534Y-5540247D02*
X924534Y-5578342D01*
X1187391Y-5816437D02*
X1177867Y-5806914D01*
X1177867Y-5806914D02*
X1158820Y-5778342D01*
X1158820Y-5778342D02*
X1149296Y-5759295D01*
X1149296Y-5759295D02*
X1139772Y-5730723D01*
X1139772Y-5730723D02*
X1130248Y-5683104D01*
X1130248Y-5683104D02*
X1130248Y-5645009D01*
X1130248Y-5645009D02*
X1139772Y-5597390D01*
X1139772Y-5597390D02*
X1149296Y-5568819D01*
X1149296Y-5568819D02*
X1158820Y-5549771D01*
X1158820Y-5549771D02*
X1177867Y-5521199D01*
X1177867Y-5521199D02*
X1187391Y-5511676D01*
X1349296Y-5606914D02*
X1349296Y-5740247D01*
X1301677Y-5530723D02*
X1254058Y-5673580D01*
X1254058Y-5673580D02*
X1377867Y-5673580D01*
X1444534Y-5559295D02*
X1454058Y-5549771D01*
X1454058Y-5549771D02*
X1473105Y-5540247D01*
X1473105Y-5540247D02*
X1520725Y-5540247D01*
X1520725Y-5540247D02*
X1539772Y-5549771D01*
X1539772Y-5549771D02*
X1549296Y-5559295D01*
X1549296Y-5559295D02*
X1558820Y-5578342D01*
X1558820Y-5578342D02*
X1558820Y-5597390D01*
X1558820Y-5597390D02*
X1549296Y-5625961D01*
X1549296Y-5625961D02*
X1435010Y-5740247D01*
X1435010Y-5740247D02*
X1558820Y-5740247D01*
X1764534Y-5740247D02*
X1764534Y-5540247D01*
X1850248Y-5740247D02*
X1850248Y-5635485D01*
X1850248Y-5635485D02*
X1840725Y-5616437D01*
X1840725Y-5616437D02*
X1821677Y-5606914D01*
X1821677Y-5606914D02*
X1793105Y-5606914D01*
X1793105Y-5606914D02*
X1774058Y-5616437D01*
X1774058Y-5616437D02*
X1764534Y-5625961D01*
X1974058Y-5740247D02*
X1955010Y-5730723D01*
X1955010Y-5730723D02*
X1945486Y-5721199D01*
X1945486Y-5721199D02*
X1935963Y-5702152D01*
X1935963Y-5702152D02*
X1935963Y-5645009D01*
X1935963Y-5645009D02*
X1945486Y-5625961D01*
X1945486Y-5625961D02*
X1955010Y-5616437D01*
X1955010Y-5616437D02*
X1974058Y-5606914D01*
X1974058Y-5606914D02*
X2002629Y-5606914D01*
X2002629Y-5606914D02*
X2021677Y-5616437D01*
X2021677Y-5616437D02*
X2031201Y-5625961D01*
X2031201Y-5625961D02*
X2040725Y-5645009D01*
X2040725Y-5645009D02*
X2040725Y-5702152D01*
X2040725Y-5702152D02*
X2031201Y-5721199D01*
X2031201Y-5721199D02*
X2021677Y-5730723D01*
X2021677Y-5730723D02*
X2002629Y-5740247D01*
X2002629Y-5740247D02*
X1974058Y-5740247D01*
X2155010Y-5740247D02*
X2135963Y-5730723D01*
X2135963Y-5730723D02*
X2126439Y-5711676D01*
X2126439Y-5711676D02*
X2126439Y-5540247D01*
X2307391Y-5730723D02*
X2288344Y-5740247D01*
X2288344Y-5740247D02*
X2250248Y-5740247D01*
X2250248Y-5740247D02*
X2231201Y-5730723D01*
X2231201Y-5730723D02*
X2221677Y-5711676D01*
X2221677Y-5711676D02*
X2221677Y-5635485D01*
X2221677Y-5635485D02*
X2231201Y-5616437D01*
X2231201Y-5616437D02*
X2250248Y-5606914D01*
X2250248Y-5606914D02*
X2288344Y-5606914D01*
X2288344Y-5606914D02*
X2307391Y-5616437D01*
X2307391Y-5616437D02*
X2316915Y-5635485D01*
X2316915Y-5635485D02*
X2316915Y-5654533D01*
X2316915Y-5654533D02*
X2221677Y-5673580D01*
X2393106Y-5730723D02*
X2412153Y-5740247D01*
X2412153Y-5740247D02*
X2450248Y-5740247D01*
X2450248Y-5740247D02*
X2469296Y-5730723D01*
X2469296Y-5730723D02*
X2478820Y-5711676D01*
X2478820Y-5711676D02*
X2478820Y-5702152D01*
X2478820Y-5702152D02*
X2469296Y-5683104D01*
X2469296Y-5683104D02*
X2450248Y-5673580D01*
X2450248Y-5673580D02*
X2421677Y-5673580D01*
X2421677Y-5673580D02*
X2402629Y-5664057D01*
X2402629Y-5664057D02*
X2393106Y-5645009D01*
X2393106Y-5645009D02*
X2393106Y-5635485D01*
X2393106Y-5635485D02*
X2402629Y-5616437D01*
X2402629Y-5616437D02*
X2421677Y-5606914D01*
X2421677Y-5606914D02*
X2450248Y-5606914D01*
X2450248Y-5606914D02*
X2469296Y-5616437D01*
X2545487Y-5816437D02*
X2555010Y-5806914D01*
X2555010Y-5806914D02*
X2574058Y-5778342D01*
X2574058Y-5778342D02*
X2583582Y-5759295D01*
X2583582Y-5759295D02*
X2593106Y-5730723D01*
X2593106Y-5730723D02*
X2602629Y-5683104D01*
X2602629Y-5683104D02*
X2602629Y-5645009D01*
X2602629Y-5645009D02*
X2593106Y-5597390D01*
X2593106Y-5597390D02*
X2583582Y-5568819D01*
X2583582Y-5568819D02*
X2574058Y-5549771D01*
X2574058Y-5549771D02*
X2555010Y-5521199D01*
X2555010Y-5521199D02*
X2545487Y-5511676D01*
X2875010Y-5816437D02*
X2865486Y-5806914D01*
X2865486Y-5806914D02*
X2846439Y-5778342D01*
X2846439Y-5778342D02*
X2836915Y-5759295D01*
X2836915Y-5759295D02*
X2827391Y-5730723D01*
X2827391Y-5730723D02*
X2817867Y-5683104D01*
X2817867Y-5683104D02*
X2817867Y-5645009D01*
X2817867Y-5645009D02*
X2827391Y-5597390D01*
X2827391Y-5597390D02*
X2836915Y-5568819D01*
X2836915Y-5568819D02*
X2846439Y-5549771D01*
X2846439Y-5549771D02*
X2865486Y-5521199D01*
X2865486Y-5521199D02*
X2875010Y-5511676D01*
X2951201Y-5606914D02*
X2951201Y-5740247D01*
X2951201Y-5625961D02*
X2960725Y-5616437D01*
X2960725Y-5616437D02*
X2979772Y-5606914D01*
X2979772Y-5606914D02*
X3008344Y-5606914D01*
X3008344Y-5606914D02*
X3027391Y-5616437D01*
X3027391Y-5616437D02*
X3036915Y-5635485D01*
X3036915Y-5635485D02*
X3036915Y-5740247D01*
X3160725Y-5740247D02*
X3141677Y-5730723D01*
X3141677Y-5730723D02*
X3132153Y-5721199D01*
X3132153Y-5721199D02*
X3122629Y-5702152D01*
X3122629Y-5702152D02*
X3122629Y-5645009D01*
X3122629Y-5645009D02*
X3132153Y-5625961D01*
X3132153Y-5625961D02*
X3141677Y-5616437D01*
X3141677Y-5616437D02*
X3160725Y-5606914D01*
X3160725Y-5606914D02*
X3189296Y-5606914D01*
X3189296Y-5606914D02*
X3208344Y-5616437D01*
X3208344Y-5616437D02*
X3217867Y-5625961D01*
X3217867Y-5625961D02*
X3227391Y-5645009D01*
X3227391Y-5645009D02*
X3227391Y-5702152D01*
X3227391Y-5702152D02*
X3217867Y-5721199D01*
X3217867Y-5721199D02*
X3208344Y-5730723D01*
X3208344Y-5730723D02*
X3189296Y-5740247D01*
X3189296Y-5740247D02*
X3160725Y-5740247D01*
X3284534Y-5606914D02*
X3360725Y-5606914D01*
X3313106Y-5540247D02*
X3313106Y-5711676D01*
X3313106Y-5711676D02*
X3322629Y-5730723D01*
X3322629Y-5730723D02*
X3341677Y-5740247D01*
X3341677Y-5740247D02*
X3360725Y-5740247D01*
X3547391Y-5606914D02*
X3547391Y-5806914D01*
X3547391Y-5616437D02*
X3566439Y-5606914D01*
X3566439Y-5606914D02*
X3604534Y-5606914D01*
X3604534Y-5606914D02*
X3623582Y-5616437D01*
X3623582Y-5616437D02*
X3633106Y-5625961D01*
X3633106Y-5625961D02*
X3642629Y-5645009D01*
X3642629Y-5645009D02*
X3642629Y-5702152D01*
X3642629Y-5702152D02*
X3633106Y-5721199D01*
X3633106Y-5721199D02*
X3623582Y-5730723D01*
X3623582Y-5730723D02*
X3604534Y-5740247D01*
X3604534Y-5740247D02*
X3566439Y-5740247D01*
X3566439Y-5740247D02*
X3547391Y-5730723D01*
X3756915Y-5740247D02*
X3737867Y-5730723D01*
X3737867Y-5730723D02*
X3728344Y-5711676D01*
X3728344Y-5711676D02*
X3728344Y-5540247D01*
X3918820Y-5740247D02*
X3918820Y-5635485D01*
X3918820Y-5635485D02*
X3909296Y-5616437D01*
X3909296Y-5616437D02*
X3890248Y-5606914D01*
X3890248Y-5606914D02*
X3852153Y-5606914D01*
X3852153Y-5606914D02*
X3833106Y-5616437D01*
X3918820Y-5730723D02*
X3899772Y-5740247D01*
X3899772Y-5740247D02*
X3852153Y-5740247D01*
X3852153Y-5740247D02*
X3833106Y-5730723D01*
X3833106Y-5730723D02*
X3823582Y-5711676D01*
X3823582Y-5711676D02*
X3823582Y-5692628D01*
X3823582Y-5692628D02*
X3833106Y-5673580D01*
X3833106Y-5673580D02*
X3852153Y-5664057D01*
X3852153Y-5664057D02*
X3899772Y-5664057D01*
X3899772Y-5664057D02*
X3918820Y-5654533D01*
X3985487Y-5606914D02*
X4061677Y-5606914D01*
X4014058Y-5540247D02*
X4014058Y-5711676D01*
X4014058Y-5711676D02*
X4023582Y-5730723D01*
X4023582Y-5730723D02*
X4042629Y-5740247D01*
X4042629Y-5740247D02*
X4061677Y-5740247D01*
X4204534Y-5730723D02*
X4185487Y-5740247D01*
X4185487Y-5740247D02*
X4147391Y-5740247D01*
X4147391Y-5740247D02*
X4128344Y-5730723D01*
X4128344Y-5730723D02*
X4118820Y-5711676D01*
X4118820Y-5711676D02*
X4118820Y-5635485D01*
X4118820Y-5635485D02*
X4128344Y-5616437D01*
X4128344Y-5616437D02*
X4147391Y-5606914D01*
X4147391Y-5606914D02*
X4185487Y-5606914D01*
X4185487Y-5606914D02*
X4204534Y-5616437D01*
X4204534Y-5616437D02*
X4214058Y-5635485D01*
X4214058Y-5635485D02*
X4214058Y-5654533D01*
X4214058Y-5654533D02*
X4118820Y-5673580D01*
X4385487Y-5740247D02*
X4385487Y-5540247D01*
X4385487Y-5730723D02*
X4366439Y-5740247D01*
X4366439Y-5740247D02*
X4328344Y-5740247D01*
X4328344Y-5740247D02*
X4309296Y-5730723D01*
X4309296Y-5730723D02*
X4299772Y-5721199D01*
X4299772Y-5721199D02*
X4290249Y-5702152D01*
X4290249Y-5702152D02*
X4290249Y-5645009D01*
X4290249Y-5645009D02*
X4299772Y-5625961D01*
X4299772Y-5625961D02*
X4309296Y-5616437D01*
X4309296Y-5616437D02*
X4328344Y-5606914D01*
X4328344Y-5606914D02*
X4366439Y-5606914D01*
X4366439Y-5606914D02*
X4385487Y-5616437D01*
X4461677Y-5816437D02*
X4471201Y-5806914D01*
X4471201Y-5806914D02*
X4490249Y-5778342D01*
X4490249Y-5778342D02*
X4499772Y-5759295D01*
X4499772Y-5759295D02*
X4509296Y-5730723D01*
X4509296Y-5730723D02*
X4518820Y-5683104D01*
X4518820Y-5683104D02*
X4518820Y-5645009D01*
X4518820Y-5645009D02*
X4509296Y-5597390D01*
X4509296Y-5597390D02*
X4499772Y-5568819D01*
X4499772Y-5568819D02*
X4490249Y-5549771D01*
X4490249Y-5549771D02*
X4471201Y-5521199D01*
X4471201Y-5521199D02*
X4461677Y-5511676D01*
X-2277371Y-5956771D02*
G75*
G03*
X-2277371Y-5956771I-100000J0D01*
G01*
X-2048799Y-5830247D02*
X-1924990Y-5830247D01*
X-1924990Y-5830247D02*
X-1991657Y-5906437D01*
X-1991657Y-5906437D02*
X-1963085Y-5906437D01*
X-1963085Y-5906437D02*
X-1944037Y-5915961D01*
X-1944037Y-5915961D02*
X-1934514Y-5925485D01*
X-1934514Y-5925485D02*
X-1924990Y-5944533D01*
X-1924990Y-5944533D02*
X-1924990Y-5992152D01*
X-1924990Y-5992152D02*
X-1934514Y-6011199D01*
X-1934514Y-6011199D02*
X-1944037Y-6020723D01*
X-1944037Y-6020723D02*
X-1963085Y-6030247D01*
X-1963085Y-6030247D02*
X-2020228Y-6030247D01*
X-2020228Y-6030247D02*
X-2039276Y-6020723D01*
X-2039276Y-6020723D02*
X-2048799Y-6011199D01*
X-1839276Y-6011199D02*
X-1829752Y-6020723D01*
X-1829752Y-6020723D02*
X-1839276Y-6030247D01*
X-1839276Y-6030247D02*
X-1848799Y-6020723D01*
X-1848799Y-6020723D02*
X-1839276Y-6011199D01*
X-1839276Y-6011199D02*
X-1839276Y-6030247D01*
X-1705942Y-5830247D02*
X-1686895Y-5830247D01*
X-1686895Y-5830247D02*
X-1667847Y-5839771D01*
X-1667847Y-5839771D02*
X-1658323Y-5849295D01*
X-1658323Y-5849295D02*
X-1648799Y-5868342D01*
X-1648799Y-5868342D02*
X-1639276Y-5906437D01*
X-1639276Y-5906437D02*
X-1639276Y-5954057D01*
X-1639276Y-5954057D02*
X-1648799Y-5992152D01*
X-1648799Y-5992152D02*
X-1658323Y-6011199D01*
X-1658323Y-6011199D02*
X-1667847Y-6020723D01*
X-1667847Y-6020723D02*
X-1686895Y-6030247D01*
X-1686895Y-6030247D02*
X-1705942Y-6030247D01*
X-1705942Y-6030247D02*
X-1724990Y-6020723D01*
X-1724990Y-6020723D02*
X-1734514Y-6011199D01*
X-1734514Y-6011199D02*
X-1744037Y-5992152D01*
X-1744037Y-5992152D02*
X-1753561Y-5954057D01*
X-1753561Y-5954057D02*
X-1753561Y-5906437D01*
X-1753561Y-5906437D02*
X-1744037Y-5868342D01*
X-1744037Y-5868342D02*
X-1734514Y-5849295D01*
X-1734514Y-5849295D02*
X-1724990Y-5839771D01*
X-1724990Y-5839771D02*
X-1705942Y-5830247D01*
X-1515466Y-5830247D02*
X-1496418Y-5830247D01*
X-1496418Y-5830247D02*
X-1477371Y-5839771D01*
X-1477371Y-5839771D02*
X-1467847Y-5849295D01*
X-1467847Y-5849295D02*
X-1458323Y-5868342D01*
X-1458323Y-5868342D02*
X-1448799Y-5906437D01*
X-1448799Y-5906437D02*
X-1448799Y-5954057D01*
X-1448799Y-5954057D02*
X-1458323Y-5992152D01*
X-1458323Y-5992152D02*
X-1467847Y-6011199D01*
X-1467847Y-6011199D02*
X-1477371Y-6020723D01*
X-1477371Y-6020723D02*
X-1496418Y-6030247D01*
X-1496418Y-6030247D02*
X-1515466Y-6030247D01*
X-1515466Y-6030247D02*
X-1534514Y-6020723D01*
X-1534514Y-6020723D02*
X-1544037Y-6011199D01*
X-1544037Y-6011199D02*
X-1553561Y-5992152D01*
X-1553561Y-5992152D02*
X-1563085Y-5954057D01*
X-1563085Y-5954057D02*
X-1563085Y-5906437D01*
X-1563085Y-5906437D02*
X-1553561Y-5868342D01*
X-1553561Y-5868342D02*
X-1544037Y-5849295D01*
X-1544037Y-5849295D02*
X-1534514Y-5839771D01*
X-1534514Y-5839771D02*
X-1515466Y-5830247D01*
X-1324990Y-5830247D02*
X-1305942Y-5830247D01*
X-1305942Y-5830247D02*
X-1286895Y-5839771D01*
X-1286895Y-5839771D02*
X-1277371Y-5849295D01*
X-1277371Y-5849295D02*
X-1267847Y-5868342D01*
X-1267847Y-5868342D02*
X-1258323Y-5906437D01*
X-1258323Y-5906437D02*
X-1258323Y-5954057D01*
X-1258323Y-5954057D02*
X-1267847Y-5992152D01*
X-1267847Y-5992152D02*
X-1277371Y-6011199D01*
X-1277371Y-6011199D02*
X-1286895Y-6020723D01*
X-1286895Y-6020723D02*
X-1305942Y-6030247D01*
X-1305942Y-6030247D02*
X-1324990Y-6030247D01*
X-1324990Y-6030247D02*
X-1344038Y-6020723D01*
X-1344038Y-6020723D02*
X-1353561Y-6011199D01*
X-1353561Y-6011199D02*
X-1363085Y-5992152D01*
X-1363085Y-5992152D02*
X-1372609Y-5954057D01*
X-1372609Y-5954057D02*
X-1372609Y-5906437D01*
X-1372609Y-5906437D02*
X-1363085Y-5868342D01*
X-1363085Y-5868342D02*
X-1353561Y-5849295D01*
X-1353561Y-5849295D02*
X-1344038Y-5839771D01*
X-1344038Y-5839771D02*
X-1324990Y-5830247D01*
X-1172609Y-6030247D02*
X-1172609Y-5896914D01*
X-1172609Y-5915961D02*
X-1163085Y-5906437D01*
X-1163085Y-5906437D02*
X-1144038Y-5896914D01*
X-1144038Y-5896914D02*
X-1115466Y-5896914D01*
X-1115466Y-5896914D02*
X-1096418Y-5906437D01*
X-1096418Y-5906437D02*
X-1086895Y-5925485D01*
X-1086895Y-5925485D02*
X-1086895Y-6030247D01*
X-1086895Y-5925485D02*
X-1077371Y-5906437D01*
X-1077371Y-5906437D02*
X-1058323Y-5896914D01*
X-1058323Y-5896914D02*
X-1029752Y-5896914D01*
X-1029752Y-5896914D02*
X-1010704Y-5906437D01*
X-1010704Y-5906437D02*
X-1001180Y-5925485D01*
X-1001180Y-5925485D02*
X-1001180Y-6030247D01*
X-905942Y-6030247D02*
X-905942Y-5896914D01*
X-905942Y-5915961D02*
X-896418Y-5906437D01*
X-896418Y-5906437D02*
X-877371Y-5896914D01*
X-877371Y-5896914D02*
X-848799Y-5896914D01*
X-848799Y-5896914D02*
X-829752Y-5906437D01*
X-829752Y-5906437D02*
X-820228Y-5925485D01*
X-820228Y-5925485D02*
X-820228Y-6030247D01*
X-820228Y-5925485D02*
X-810704Y-5906437D01*
X-810704Y-5906437D02*
X-791656Y-5896914D01*
X-791656Y-5896914D02*
X-763085Y-5896914D01*
X-763085Y-5896914D02*
X-744037Y-5906437D01*
X-744037Y-5906437D02*
X-734514Y-5925485D01*
X-734514Y-5925485D02*
X-734514Y-6030247D01*
X-376418Y-5820723D02*
X-547847Y-6077866D01*
X-151657Y-5830247D02*
X-132609Y-5830247D01*
X-132609Y-5830247D02*
X-113561Y-5839771D01*
X-113561Y-5839771D02*
X-104037Y-5849295D01*
X-104037Y-5849295D02*
X-94514Y-5868342D01*
X-94514Y-5868342D02*
X-84990Y-5906437D01*
X-84990Y-5906437D02*
X-84990Y-5954057D01*
X-84990Y-5954057D02*
X-94514Y-5992152D01*
X-94514Y-5992152D02*
X-104037Y-6011199D01*
X-104037Y-6011199D02*
X-113561Y-6020723D01*
X-113561Y-6020723D02*
X-132609Y-6030247D01*
X-132609Y-6030247D02*
X-151657Y-6030247D01*
X-151657Y-6030247D02*
X-170704Y-6020723D01*
X-170704Y-6020723D02*
X-180228Y-6011199D01*
X-180228Y-6011199D02*
X-189752Y-5992152D01*
X-189752Y-5992152D02*
X-199275Y-5954057D01*
X-199275Y-5954057D02*
X-199275Y-5906437D01*
X-199275Y-5906437D02*
X-189752Y-5868342D01*
X-189752Y-5868342D02*
X-180228Y-5849295D01*
X-180228Y-5849295D02*
X-170704Y-5839771D01*
X-170704Y-5839771D02*
X-151657Y-5830247D01*
X724Y-6011199D02*
X10248Y-6020723D01*
X10248Y-6020723D02*
X724Y-6030247D01*
X724Y-6030247D02*
X-8799Y-6020723D01*
X-8799Y-6020723D02*
X724Y-6011199D01*
X724Y-6011199D02*
X724Y-6030247D01*
X200724Y-6030247D02*
X86439Y-6030247D01*
X143582Y-6030247D02*
X143582Y-5830247D01*
X143582Y-5830247D02*
X124534Y-5858818D01*
X124534Y-5858818D02*
X105486Y-5877866D01*
X105486Y-5877866D02*
X86439Y-5887390D01*
X391201Y-6030247D02*
X276915Y-6030247D01*
X334058Y-6030247D02*
X334058Y-5830247D01*
X334058Y-5830247D02*
X315010Y-5858818D01*
X315010Y-5858818D02*
X295963Y-5877866D01*
X295963Y-5877866D02*
X276915Y-5887390D01*
X505486Y-5915961D02*
X486439Y-5906437D01*
X486439Y-5906437D02*
X476915Y-5896914D01*
X476915Y-5896914D02*
X467391Y-5877866D01*
X467391Y-5877866D02*
X467391Y-5868342D01*
X467391Y-5868342D02*
X476915Y-5849295D01*
X476915Y-5849295D02*
X486439Y-5839771D01*
X486439Y-5839771D02*
X505486Y-5830247D01*
X505486Y-5830247D02*
X543582Y-5830247D01*
X543582Y-5830247D02*
X562629Y-5839771D01*
X562629Y-5839771D02*
X572153Y-5849295D01*
X572153Y-5849295D02*
X581677Y-5868342D01*
X581677Y-5868342D02*
X581677Y-5877866D01*
X581677Y-5877866D02*
X572153Y-5896914D01*
X572153Y-5896914D02*
X562629Y-5906437D01*
X562629Y-5906437D02*
X543582Y-5915961D01*
X543582Y-5915961D02*
X505486Y-5915961D01*
X505486Y-5915961D02*
X486439Y-5925485D01*
X486439Y-5925485D02*
X476915Y-5935009D01*
X476915Y-5935009D02*
X467391Y-5954057D01*
X467391Y-5954057D02*
X467391Y-5992152D01*
X467391Y-5992152D02*
X476915Y-6011199D01*
X476915Y-6011199D02*
X486439Y-6020723D01*
X486439Y-6020723D02*
X505486Y-6030247D01*
X505486Y-6030247D02*
X543582Y-6030247D01*
X543582Y-6030247D02*
X562629Y-6020723D01*
X562629Y-6020723D02*
X572153Y-6011199D01*
X572153Y-6011199D02*
X581677Y-5992152D01*
X581677Y-5992152D02*
X581677Y-5954057D01*
X581677Y-5954057D02*
X572153Y-5935009D01*
X572153Y-5935009D02*
X562629Y-5925485D01*
X562629Y-5925485D02*
X543582Y-5915961D01*
X772153Y-6030247D02*
X657867Y-6030247D01*
X715010Y-6030247D02*
X715010Y-5830247D01*
X715010Y-5830247D02*
X695963Y-5858818D01*
X695963Y-5858818D02*
X676915Y-5877866D01*
X676915Y-5877866D02*
X657867Y-5887390D01*
X848344Y-5830247D02*
X848344Y-5868342D01*
X924534Y-5830247D02*
X924534Y-5868342D01*
X1187391Y-6106437D02*
X1177867Y-6096914D01*
X1177867Y-6096914D02*
X1158820Y-6068342D01*
X1158820Y-6068342D02*
X1149296Y-6049295D01*
X1149296Y-6049295D02*
X1139772Y-6020723D01*
X1139772Y-6020723D02*
X1130248Y-5973104D01*
X1130248Y-5973104D02*
X1130248Y-5935009D01*
X1130248Y-5935009D02*
X1139772Y-5887390D01*
X1139772Y-5887390D02*
X1149296Y-5858818D01*
X1149296Y-5858818D02*
X1158820Y-5839771D01*
X1158820Y-5839771D02*
X1177867Y-5811199D01*
X1177867Y-5811199D02*
X1187391Y-5801676D01*
X1349296Y-5830247D02*
X1311201Y-5830247D01*
X1311201Y-5830247D02*
X1292153Y-5839771D01*
X1292153Y-5839771D02*
X1282629Y-5849295D01*
X1282629Y-5849295D02*
X1263582Y-5877866D01*
X1263582Y-5877866D02*
X1254058Y-5915961D01*
X1254058Y-5915961D02*
X1254058Y-5992152D01*
X1254058Y-5992152D02*
X1263582Y-6011199D01*
X1263582Y-6011199D02*
X1273106Y-6020723D01*
X1273106Y-6020723D02*
X1292153Y-6030247D01*
X1292153Y-6030247D02*
X1330248Y-6030247D01*
X1330248Y-6030247D02*
X1349296Y-6020723D01*
X1349296Y-6020723D02*
X1358820Y-6011199D01*
X1358820Y-6011199D02*
X1368344Y-5992152D01*
X1368344Y-5992152D02*
X1368344Y-5944533D01*
X1368344Y-5944533D02*
X1358820Y-5925485D01*
X1358820Y-5925485D02*
X1349296Y-5915961D01*
X1349296Y-5915961D02*
X1330248Y-5906437D01*
X1330248Y-5906437D02*
X1292153Y-5906437D01*
X1292153Y-5906437D02*
X1273106Y-5915961D01*
X1273106Y-5915961D02*
X1263582Y-5925485D01*
X1263582Y-5925485D02*
X1254058Y-5944533D01*
X1435010Y-5830247D02*
X1558820Y-5830247D01*
X1558820Y-5830247D02*
X1492153Y-5906437D01*
X1492153Y-5906437D02*
X1520725Y-5906437D01*
X1520725Y-5906437D02*
X1539772Y-5915961D01*
X1539772Y-5915961D02*
X1549296Y-5925485D01*
X1549296Y-5925485D02*
X1558820Y-5944533D01*
X1558820Y-5944533D02*
X1558820Y-5992152D01*
X1558820Y-5992152D02*
X1549296Y-6011199D01*
X1549296Y-6011199D02*
X1539772Y-6020723D01*
X1539772Y-6020723D02*
X1520725Y-6030247D01*
X1520725Y-6030247D02*
X1463582Y-6030247D01*
X1463582Y-6030247D02*
X1444534Y-6020723D01*
X1444534Y-6020723D02*
X1435010Y-6011199D01*
X1764534Y-6030247D02*
X1764534Y-5830247D01*
X1850248Y-6030247D02*
X1850248Y-5925485D01*
X1850248Y-5925485D02*
X1840725Y-5906437D01*
X1840725Y-5906437D02*
X1821677Y-5896914D01*
X1821677Y-5896914D02*
X1793105Y-5896914D01*
X1793105Y-5896914D02*
X1774058Y-5906437D01*
X1774058Y-5906437D02*
X1764534Y-5915961D01*
X1974058Y-6030247D02*
X1955010Y-6020723D01*
X1955010Y-6020723D02*
X1945486Y-6011199D01*
X1945486Y-6011199D02*
X1935963Y-5992152D01*
X1935963Y-5992152D02*
X1935963Y-5935009D01*
X1935963Y-5935009D02*
X1945486Y-5915961D01*
X1945486Y-5915961D02*
X1955010Y-5906437D01*
X1955010Y-5906437D02*
X1974058Y-5896914D01*
X1974058Y-5896914D02*
X2002629Y-5896914D01*
X2002629Y-5896914D02*
X2021677Y-5906437D01*
X2021677Y-5906437D02*
X2031201Y-5915961D01*
X2031201Y-5915961D02*
X2040725Y-5935009D01*
X2040725Y-5935009D02*
X2040725Y-5992152D01*
X2040725Y-5992152D02*
X2031201Y-6011199D01*
X2031201Y-6011199D02*
X2021677Y-6020723D01*
X2021677Y-6020723D02*
X2002629Y-6030247D01*
X2002629Y-6030247D02*
X1974058Y-6030247D01*
X2155010Y-6030247D02*
X2135963Y-6020723D01*
X2135963Y-6020723D02*
X2126439Y-6001676D01*
X2126439Y-6001676D02*
X2126439Y-5830247D01*
X2307391Y-6020723D02*
X2288344Y-6030247D01*
X2288344Y-6030247D02*
X2250248Y-6030247D01*
X2250248Y-6030247D02*
X2231201Y-6020723D01*
X2231201Y-6020723D02*
X2221677Y-6001676D01*
X2221677Y-6001676D02*
X2221677Y-5925485D01*
X2221677Y-5925485D02*
X2231201Y-5906437D01*
X2231201Y-5906437D02*
X2250248Y-5896914D01*
X2250248Y-5896914D02*
X2288344Y-5896914D01*
X2288344Y-5896914D02*
X2307391Y-5906437D01*
X2307391Y-5906437D02*
X2316915Y-5925485D01*
X2316915Y-5925485D02*
X2316915Y-5944533D01*
X2316915Y-5944533D02*
X2221677Y-5963580D01*
X2393106Y-6020723D02*
X2412153Y-6030247D01*
X2412153Y-6030247D02*
X2450248Y-6030247D01*
X2450248Y-6030247D02*
X2469296Y-6020723D01*
X2469296Y-6020723D02*
X2478820Y-6001676D01*
X2478820Y-6001676D02*
X2478820Y-5992152D01*
X2478820Y-5992152D02*
X2469296Y-5973104D01*
X2469296Y-5973104D02*
X2450248Y-5963580D01*
X2450248Y-5963580D02*
X2421677Y-5963580D01*
X2421677Y-5963580D02*
X2402629Y-5954057D01*
X2402629Y-5954057D02*
X2393106Y-5935009D01*
X2393106Y-5935009D02*
X2393106Y-5925485D01*
X2393106Y-5925485D02*
X2402629Y-5906437D01*
X2402629Y-5906437D02*
X2421677Y-5896914D01*
X2421677Y-5896914D02*
X2450248Y-5896914D01*
X2450248Y-5896914D02*
X2469296Y-5906437D01*
X2545487Y-6106437D02*
X2555010Y-6096914D01*
X2555010Y-6096914D02*
X2574058Y-6068342D01*
X2574058Y-6068342D02*
X2583582Y-6049295D01*
X2583582Y-6049295D02*
X2593106Y-6020723D01*
X2593106Y-6020723D02*
X2602629Y-5973104D01*
X2602629Y-5973104D02*
X2602629Y-5935009D01*
X2602629Y-5935009D02*
X2593106Y-5887390D01*
X2593106Y-5887390D02*
X2583582Y-5858818D01*
X2583582Y-5858818D02*
X2574058Y-5839771D01*
X2574058Y-5839771D02*
X2555010Y-5811199D01*
X2555010Y-5811199D02*
X2545487Y-5801676D01*
X2875010Y-6106437D02*
X2865486Y-6096914D01*
X2865486Y-6096914D02*
X2846439Y-6068342D01*
X2846439Y-6068342D02*
X2836915Y-6049295D01*
X2836915Y-6049295D02*
X2827391Y-6020723D01*
X2827391Y-6020723D02*
X2817867Y-5973104D01*
X2817867Y-5973104D02*
X2817867Y-5935009D01*
X2817867Y-5935009D02*
X2827391Y-5887390D01*
X2827391Y-5887390D02*
X2836915Y-5858818D01*
X2836915Y-5858818D02*
X2846439Y-5839771D01*
X2846439Y-5839771D02*
X2865486Y-5811199D01*
X2865486Y-5811199D02*
X2875010Y-5801676D01*
X2951201Y-5896914D02*
X2951201Y-6030247D01*
X2951201Y-5915961D02*
X2960725Y-5906437D01*
X2960725Y-5906437D02*
X2979772Y-5896914D01*
X2979772Y-5896914D02*
X3008344Y-5896914D01*
X3008344Y-5896914D02*
X3027391Y-5906437D01*
X3027391Y-5906437D02*
X3036915Y-5925485D01*
X3036915Y-5925485D02*
X3036915Y-6030247D01*
X3160725Y-6030247D02*
X3141677Y-6020723D01*
X3141677Y-6020723D02*
X3132153Y-6011199D01*
X3132153Y-6011199D02*
X3122629Y-5992152D01*
X3122629Y-5992152D02*
X3122629Y-5935009D01*
X3122629Y-5935009D02*
X3132153Y-5915961D01*
X3132153Y-5915961D02*
X3141677Y-5906437D01*
X3141677Y-5906437D02*
X3160725Y-5896914D01*
X3160725Y-5896914D02*
X3189296Y-5896914D01*
X3189296Y-5896914D02*
X3208344Y-5906437D01*
X3208344Y-5906437D02*
X3217867Y-5915961D01*
X3217867Y-5915961D02*
X3227391Y-5935009D01*
X3227391Y-5935009D02*
X3227391Y-5992152D01*
X3227391Y-5992152D02*
X3217867Y-6011199D01*
X3217867Y-6011199D02*
X3208344Y-6020723D01*
X3208344Y-6020723D02*
X3189296Y-6030247D01*
X3189296Y-6030247D02*
X3160725Y-6030247D01*
X3284534Y-5896914D02*
X3360725Y-5896914D01*
X3313106Y-5830247D02*
X3313106Y-6001676D01*
X3313106Y-6001676D02*
X3322629Y-6020723D01*
X3322629Y-6020723D02*
X3341677Y-6030247D01*
X3341677Y-6030247D02*
X3360725Y-6030247D01*
X3547391Y-5896914D02*
X3547391Y-6096914D01*
X3547391Y-5906437D02*
X3566439Y-5896914D01*
X3566439Y-5896914D02*
X3604534Y-5896914D01*
X3604534Y-5896914D02*
X3623582Y-5906437D01*
X3623582Y-5906437D02*
X3633106Y-5915961D01*
X3633106Y-5915961D02*
X3642629Y-5935009D01*
X3642629Y-5935009D02*
X3642629Y-5992152D01*
X3642629Y-5992152D02*
X3633106Y-6011199D01*
X3633106Y-6011199D02*
X3623582Y-6020723D01*
X3623582Y-6020723D02*
X3604534Y-6030247D01*
X3604534Y-6030247D02*
X3566439Y-6030247D01*
X3566439Y-6030247D02*
X3547391Y-6020723D01*
X3756915Y-6030247D02*
X3737867Y-6020723D01*
X3737867Y-6020723D02*
X3728344Y-6001676D01*
X3728344Y-6001676D02*
X3728344Y-5830247D01*
X3918820Y-6030247D02*
X3918820Y-5925485D01*
X3918820Y-5925485D02*
X3909296Y-5906437D01*
X3909296Y-5906437D02*
X3890248Y-5896914D01*
X3890248Y-5896914D02*
X3852153Y-5896914D01*
X3852153Y-5896914D02*
X3833106Y-5906437D01*
X3918820Y-6020723D02*
X3899772Y-6030247D01*
X3899772Y-6030247D02*
X3852153Y-6030247D01*
X3852153Y-6030247D02*
X3833106Y-6020723D01*
X3833106Y-6020723D02*
X3823582Y-6001676D01*
X3823582Y-6001676D02*
X3823582Y-5982628D01*
X3823582Y-5982628D02*
X3833106Y-5963580D01*
X3833106Y-5963580D02*
X3852153Y-5954057D01*
X3852153Y-5954057D02*
X3899772Y-5954057D01*
X3899772Y-5954057D02*
X3918820Y-5944533D01*
X3985487Y-5896914D02*
X4061677Y-5896914D01*
X4014058Y-5830247D02*
X4014058Y-6001676D01*
X4014058Y-6001676D02*
X4023582Y-6020723D01*
X4023582Y-6020723D02*
X4042629Y-6030247D01*
X4042629Y-6030247D02*
X4061677Y-6030247D01*
X4204534Y-6020723D02*
X4185487Y-6030247D01*
X4185487Y-6030247D02*
X4147391Y-6030247D01*
X4147391Y-6030247D02*
X4128344Y-6020723D01*
X4128344Y-6020723D02*
X4118820Y-6001676D01*
X4118820Y-6001676D02*
X4118820Y-5925485D01*
X4118820Y-5925485D02*
X4128344Y-5906437D01*
X4128344Y-5906437D02*
X4147391Y-5896914D01*
X4147391Y-5896914D02*
X4185487Y-5896914D01*
X4185487Y-5896914D02*
X4204534Y-5906437D01*
X4204534Y-5906437D02*
X4214058Y-5925485D01*
X4214058Y-5925485D02*
X4214058Y-5944533D01*
X4214058Y-5944533D02*
X4118820Y-5963580D01*
X4385487Y-6030247D02*
X4385487Y-5830247D01*
X4385487Y-6020723D02*
X4366439Y-6030247D01*
X4366439Y-6030247D02*
X4328344Y-6030247D01*
X4328344Y-6030247D02*
X4309296Y-6020723D01*
X4309296Y-6020723D02*
X4299772Y-6011199D01*
X4299772Y-6011199D02*
X4290249Y-5992152D01*
X4290249Y-5992152D02*
X4290249Y-5935009D01*
X4290249Y-5935009D02*
X4299772Y-5915961D01*
X4299772Y-5915961D02*
X4309296Y-5906437D01*
X4309296Y-5906437D02*
X4328344Y-5896914D01*
X4328344Y-5896914D02*
X4366439Y-5896914D01*
X4366439Y-5896914D02*
X4385487Y-5906437D01*
X4461677Y-6106437D02*
X4471201Y-6096914D01*
X4471201Y-6096914D02*
X4490249Y-6068342D01*
X4490249Y-6068342D02*
X4499772Y-6049295D01*
X4499772Y-6049295D02*
X4509296Y-6020723D01*
X4509296Y-6020723D02*
X4518820Y-5973104D01*
X4518820Y-5973104D02*
X4518820Y-5935009D01*
X4518820Y-5935009D02*
X4509296Y-5887390D01*
X4509296Y-5887390D02*
X4499772Y-5858818D01*
X4499772Y-5858818D02*
X4490249Y-5839771D01*
X4490249Y-5839771D02*
X4471201Y-5811199D01*
X4471201Y-5811199D02*
X4461677Y-5801676D01*
X-2377371Y-6176771D02*
X-2377371Y-6376771D01*
X-2477371Y-6276771D02*
X-2277371Y-6276771D01*
X-2048799Y-6150247D02*
X-1924990Y-6150247D01*
X-1924990Y-6150247D02*
X-1991657Y-6226437D01*
X-1991657Y-6226437D02*
X-1963085Y-6226437D01*
X-1963085Y-6226437D02*
X-1944037Y-6235961D01*
X-1944037Y-6235961D02*
X-1934514Y-6245485D01*
X-1934514Y-6245485D02*
X-1924990Y-6264533D01*
X-1924990Y-6264533D02*
X-1924990Y-6312152D01*
X-1924990Y-6312152D02*
X-1934514Y-6331199D01*
X-1934514Y-6331199D02*
X-1944037Y-6340723D01*
X-1944037Y-6340723D02*
X-1963085Y-6350247D01*
X-1963085Y-6350247D02*
X-2020228Y-6350247D01*
X-2020228Y-6350247D02*
X-2039276Y-6340723D01*
X-2039276Y-6340723D02*
X-2048799Y-6331199D01*
X-1839276Y-6331199D02*
X-1829752Y-6340723D01*
X-1829752Y-6340723D02*
X-1839276Y-6350247D01*
X-1839276Y-6350247D02*
X-1848799Y-6340723D01*
X-1848799Y-6340723D02*
X-1839276Y-6331199D01*
X-1839276Y-6331199D02*
X-1839276Y-6350247D01*
X-1753561Y-6169295D02*
X-1744037Y-6159771D01*
X-1744037Y-6159771D02*
X-1724990Y-6150247D01*
X-1724990Y-6150247D02*
X-1677371Y-6150247D01*
X-1677371Y-6150247D02*
X-1658323Y-6159771D01*
X-1658323Y-6159771D02*
X-1648799Y-6169295D01*
X-1648799Y-6169295D02*
X-1639276Y-6188342D01*
X-1639276Y-6188342D02*
X-1639276Y-6207390D01*
X-1639276Y-6207390D02*
X-1648799Y-6235961D01*
X-1648799Y-6235961D02*
X-1763085Y-6350247D01*
X-1763085Y-6350247D02*
X-1639276Y-6350247D01*
X-1515466Y-6150247D02*
X-1496418Y-6150247D01*
X-1496418Y-6150247D02*
X-1477371Y-6159771D01*
X-1477371Y-6159771D02*
X-1467847Y-6169295D01*
X-1467847Y-6169295D02*
X-1458323Y-6188342D01*
X-1458323Y-6188342D02*
X-1448799Y-6226437D01*
X-1448799Y-6226437D02*
X-1448799Y-6274057D01*
X-1448799Y-6274057D02*
X-1458323Y-6312152D01*
X-1458323Y-6312152D02*
X-1467847Y-6331199D01*
X-1467847Y-6331199D02*
X-1477371Y-6340723D01*
X-1477371Y-6340723D02*
X-1496418Y-6350247D01*
X-1496418Y-6350247D02*
X-1515466Y-6350247D01*
X-1515466Y-6350247D02*
X-1534514Y-6340723D01*
X-1534514Y-6340723D02*
X-1544037Y-6331199D01*
X-1544037Y-6331199D02*
X-1553561Y-6312152D01*
X-1553561Y-6312152D02*
X-1563085Y-6274057D01*
X-1563085Y-6274057D02*
X-1563085Y-6226437D01*
X-1563085Y-6226437D02*
X-1553561Y-6188342D01*
X-1553561Y-6188342D02*
X-1544037Y-6169295D01*
X-1544037Y-6169295D02*
X-1534514Y-6159771D01*
X-1534514Y-6159771D02*
X-1515466Y-6150247D01*
X-1324990Y-6150247D02*
X-1305942Y-6150247D01*
X-1305942Y-6150247D02*
X-1286895Y-6159771D01*
X-1286895Y-6159771D02*
X-1277371Y-6169295D01*
X-1277371Y-6169295D02*
X-1267847Y-6188342D01*
X-1267847Y-6188342D02*
X-1258323Y-6226437D01*
X-1258323Y-6226437D02*
X-1258323Y-6274057D01*
X-1258323Y-6274057D02*
X-1267847Y-6312152D01*
X-1267847Y-6312152D02*
X-1277371Y-6331199D01*
X-1277371Y-6331199D02*
X-1286895Y-6340723D01*
X-1286895Y-6340723D02*
X-1305942Y-6350247D01*
X-1305942Y-6350247D02*
X-1324990Y-6350247D01*
X-1324990Y-6350247D02*
X-1344038Y-6340723D01*
X-1344038Y-6340723D02*
X-1353561Y-6331199D01*
X-1353561Y-6331199D02*
X-1363085Y-6312152D01*
X-1363085Y-6312152D02*
X-1372609Y-6274057D01*
X-1372609Y-6274057D02*
X-1372609Y-6226437D01*
X-1372609Y-6226437D02*
X-1363085Y-6188342D01*
X-1363085Y-6188342D02*
X-1353561Y-6169295D01*
X-1353561Y-6169295D02*
X-1344038Y-6159771D01*
X-1344038Y-6159771D02*
X-1324990Y-6150247D01*
X-1172609Y-6350247D02*
X-1172609Y-6216914D01*
X-1172609Y-6235961D02*
X-1163085Y-6226437D01*
X-1163085Y-6226437D02*
X-1144038Y-6216914D01*
X-1144038Y-6216914D02*
X-1115466Y-6216914D01*
X-1115466Y-6216914D02*
X-1096418Y-6226437D01*
X-1096418Y-6226437D02*
X-1086895Y-6245485D01*
X-1086895Y-6245485D02*
X-1086895Y-6350247D01*
X-1086895Y-6245485D02*
X-1077371Y-6226437D01*
X-1077371Y-6226437D02*
X-1058323Y-6216914D01*
X-1058323Y-6216914D02*
X-1029752Y-6216914D01*
X-1029752Y-6216914D02*
X-1010704Y-6226437D01*
X-1010704Y-6226437D02*
X-1001180Y-6245485D01*
X-1001180Y-6245485D02*
X-1001180Y-6350247D01*
X-905942Y-6350247D02*
X-905942Y-6216914D01*
X-905942Y-6235961D02*
X-896418Y-6226437D01*
X-896418Y-6226437D02*
X-877371Y-6216914D01*
X-877371Y-6216914D02*
X-848799Y-6216914D01*
X-848799Y-6216914D02*
X-829752Y-6226437D01*
X-829752Y-6226437D02*
X-820228Y-6245485D01*
X-820228Y-6245485D02*
X-820228Y-6350247D01*
X-820228Y-6245485D02*
X-810704Y-6226437D01*
X-810704Y-6226437D02*
X-791656Y-6216914D01*
X-791656Y-6216914D02*
X-763085Y-6216914D01*
X-763085Y-6216914D02*
X-744037Y-6226437D01*
X-744037Y-6226437D02*
X-734514Y-6245485D01*
X-734514Y-6245485D02*
X-734514Y-6350247D01*
X-376418Y-6140723D02*
X-547847Y-6397866D01*
X-151657Y-6150247D02*
X-132609Y-6150247D01*
X-132609Y-6150247D02*
X-113561Y-6159771D01*
X-113561Y-6159771D02*
X-104037Y-6169295D01*
X-104037Y-6169295D02*
X-94514Y-6188342D01*
X-94514Y-6188342D02*
X-84990Y-6226437D01*
X-84990Y-6226437D02*
X-84990Y-6274057D01*
X-84990Y-6274057D02*
X-94514Y-6312152D01*
X-94514Y-6312152D02*
X-104037Y-6331199D01*
X-104037Y-6331199D02*
X-113561Y-6340723D01*
X-113561Y-6340723D02*
X-132609Y-6350247D01*
X-132609Y-6350247D02*
X-151657Y-6350247D01*
X-151657Y-6350247D02*
X-170704Y-6340723D01*
X-170704Y-6340723D02*
X-180228Y-6331199D01*
X-180228Y-6331199D02*
X-189752Y-6312152D01*
X-189752Y-6312152D02*
X-199275Y-6274057D01*
X-199275Y-6274057D02*
X-199275Y-6226437D01*
X-199275Y-6226437D02*
X-189752Y-6188342D01*
X-189752Y-6188342D02*
X-180228Y-6169295D01*
X-180228Y-6169295D02*
X-170704Y-6159771D01*
X-170704Y-6159771D02*
X-151657Y-6150247D01*
X724Y-6331199D02*
X10248Y-6340723D01*
X10248Y-6340723D02*
X724Y-6350247D01*
X724Y-6350247D02*
X-8799Y-6340723D01*
X-8799Y-6340723D02*
X724Y-6331199D01*
X724Y-6331199D02*
X724Y-6350247D01*
X200724Y-6350247D02*
X86439Y-6350247D01*
X143582Y-6350247D02*
X143582Y-6150247D01*
X143582Y-6150247D02*
X124534Y-6178818D01*
X124534Y-6178818D02*
X105486Y-6197866D01*
X105486Y-6197866D02*
X86439Y-6207390D01*
X276915Y-6169295D02*
X286439Y-6159771D01*
X286439Y-6159771D02*
X305486Y-6150247D01*
X305486Y-6150247D02*
X353105Y-6150247D01*
X353105Y-6150247D02*
X372153Y-6159771D01*
X372153Y-6159771D02*
X381677Y-6169295D01*
X381677Y-6169295D02*
X391201Y-6188342D01*
X391201Y-6188342D02*
X391201Y-6207390D01*
X391201Y-6207390D02*
X381677Y-6235961D01*
X381677Y-6235961D02*
X267391Y-6350247D01*
X267391Y-6350247D02*
X391201Y-6350247D01*
X562629Y-6150247D02*
X524534Y-6150247D01*
X524534Y-6150247D02*
X505486Y-6159771D01*
X505486Y-6159771D02*
X495963Y-6169295D01*
X495963Y-6169295D02*
X476915Y-6197866D01*
X476915Y-6197866D02*
X467391Y-6235961D01*
X467391Y-6235961D02*
X467391Y-6312152D01*
X467391Y-6312152D02*
X476915Y-6331199D01*
X476915Y-6331199D02*
X486439Y-6340723D01*
X486439Y-6340723D02*
X505486Y-6350247D01*
X505486Y-6350247D02*
X543582Y-6350247D01*
X543582Y-6350247D02*
X562629Y-6340723D01*
X562629Y-6340723D02*
X572153Y-6331199D01*
X572153Y-6331199D02*
X581677Y-6312152D01*
X581677Y-6312152D02*
X581677Y-6264533D01*
X581677Y-6264533D02*
X572153Y-6245485D01*
X572153Y-6245485D02*
X562629Y-6235961D01*
X562629Y-6235961D02*
X543582Y-6226437D01*
X543582Y-6226437D02*
X505486Y-6226437D01*
X505486Y-6226437D02*
X486439Y-6235961D01*
X486439Y-6235961D02*
X476915Y-6245485D01*
X476915Y-6245485D02*
X467391Y-6264533D01*
X705486Y-6150247D02*
X724534Y-6150247D01*
X724534Y-6150247D02*
X743582Y-6159771D01*
X743582Y-6159771D02*
X753105Y-6169295D01*
X753105Y-6169295D02*
X762629Y-6188342D01*
X762629Y-6188342D02*
X772153Y-6226437D01*
X772153Y-6226437D02*
X772153Y-6274057D01*
X772153Y-6274057D02*
X762629Y-6312152D01*
X762629Y-6312152D02*
X753105Y-6331199D01*
X753105Y-6331199D02*
X743582Y-6340723D01*
X743582Y-6340723D02*
X724534Y-6350247D01*
X724534Y-6350247D02*
X705486Y-6350247D01*
X705486Y-6350247D02*
X686439Y-6340723D01*
X686439Y-6340723D02*
X676915Y-6331199D01*
X676915Y-6331199D02*
X667391Y-6312152D01*
X667391Y-6312152D02*
X657867Y-6274057D01*
X657867Y-6274057D02*
X657867Y-6226437D01*
X657867Y-6226437D02*
X667391Y-6188342D01*
X667391Y-6188342D02*
X676915Y-6169295D01*
X676915Y-6169295D02*
X686439Y-6159771D01*
X686439Y-6159771D02*
X705486Y-6150247D01*
X848344Y-6150247D02*
X848344Y-6188342D01*
X924534Y-6150247D02*
X924534Y-6188342D01*
X1187391Y-6426437D02*
X1177867Y-6416914D01*
X1177867Y-6416914D02*
X1158820Y-6388342D01*
X1158820Y-6388342D02*
X1149296Y-6369295D01*
X1149296Y-6369295D02*
X1139772Y-6340723D01*
X1139772Y-6340723D02*
X1130248Y-6293104D01*
X1130248Y-6293104D02*
X1130248Y-6255009D01*
X1130248Y-6255009D02*
X1139772Y-6207390D01*
X1139772Y-6207390D02*
X1149296Y-6178818D01*
X1149296Y-6178818D02*
X1158820Y-6159771D01*
X1158820Y-6159771D02*
X1177867Y-6131199D01*
X1177867Y-6131199D02*
X1187391Y-6121676D01*
X1254058Y-6169295D02*
X1263582Y-6159771D01*
X1263582Y-6159771D02*
X1282629Y-6150247D01*
X1282629Y-6150247D02*
X1330248Y-6150247D01*
X1330248Y-6150247D02*
X1349296Y-6159771D01*
X1349296Y-6159771D02*
X1358820Y-6169295D01*
X1358820Y-6169295D02*
X1368344Y-6188342D01*
X1368344Y-6188342D02*
X1368344Y-6207390D01*
X1368344Y-6207390D02*
X1358820Y-6235961D01*
X1358820Y-6235961D02*
X1244534Y-6350247D01*
X1244534Y-6350247D02*
X1368344Y-6350247D01*
X1549296Y-6150247D02*
X1454058Y-6150247D01*
X1454058Y-6150247D02*
X1444534Y-6245485D01*
X1444534Y-6245485D02*
X1454058Y-6235961D01*
X1454058Y-6235961D02*
X1473105Y-6226437D01*
X1473105Y-6226437D02*
X1520725Y-6226437D01*
X1520725Y-6226437D02*
X1539772Y-6235961D01*
X1539772Y-6235961D02*
X1549296Y-6245485D01*
X1549296Y-6245485D02*
X1558820Y-6264533D01*
X1558820Y-6264533D02*
X1558820Y-6312152D01*
X1558820Y-6312152D02*
X1549296Y-6331199D01*
X1549296Y-6331199D02*
X1539772Y-6340723D01*
X1539772Y-6340723D02*
X1520725Y-6350247D01*
X1520725Y-6350247D02*
X1473105Y-6350247D01*
X1473105Y-6350247D02*
X1454058Y-6340723D01*
X1454058Y-6340723D02*
X1444534Y-6331199D01*
X1764534Y-6350247D02*
X1764534Y-6150247D01*
X1850248Y-6350247D02*
X1850248Y-6245485D01*
X1850248Y-6245485D02*
X1840725Y-6226437D01*
X1840725Y-6226437D02*
X1821677Y-6216914D01*
X1821677Y-6216914D02*
X1793105Y-6216914D01*
X1793105Y-6216914D02*
X1774058Y-6226437D01*
X1774058Y-6226437D02*
X1764534Y-6235961D01*
X1974058Y-6350247D02*
X1955010Y-6340723D01*
X1955010Y-6340723D02*
X1945486Y-6331199D01*
X1945486Y-6331199D02*
X1935963Y-6312152D01*
X1935963Y-6312152D02*
X1935963Y-6255009D01*
X1935963Y-6255009D02*
X1945486Y-6235961D01*
X1945486Y-6235961D02*
X1955010Y-6226437D01*
X1955010Y-6226437D02*
X1974058Y-6216914D01*
X1974058Y-6216914D02*
X2002629Y-6216914D01*
X2002629Y-6216914D02*
X2021677Y-6226437D01*
X2021677Y-6226437D02*
X2031201Y-6235961D01*
X2031201Y-6235961D02*
X2040725Y-6255009D01*
X2040725Y-6255009D02*
X2040725Y-6312152D01*
X2040725Y-6312152D02*
X2031201Y-6331199D01*
X2031201Y-6331199D02*
X2021677Y-6340723D01*
X2021677Y-6340723D02*
X2002629Y-6350247D01*
X2002629Y-6350247D02*
X1974058Y-6350247D01*
X2155010Y-6350247D02*
X2135963Y-6340723D01*
X2135963Y-6340723D02*
X2126439Y-6321676D01*
X2126439Y-6321676D02*
X2126439Y-6150247D01*
X2307391Y-6340723D02*
X2288344Y-6350247D01*
X2288344Y-6350247D02*
X2250248Y-6350247D01*
X2250248Y-6350247D02*
X2231201Y-6340723D01*
X2231201Y-6340723D02*
X2221677Y-6321676D01*
X2221677Y-6321676D02*
X2221677Y-6245485D01*
X2221677Y-6245485D02*
X2231201Y-6226437D01*
X2231201Y-6226437D02*
X2250248Y-6216914D01*
X2250248Y-6216914D02*
X2288344Y-6216914D01*
X2288344Y-6216914D02*
X2307391Y-6226437D01*
X2307391Y-6226437D02*
X2316915Y-6245485D01*
X2316915Y-6245485D02*
X2316915Y-6264533D01*
X2316915Y-6264533D02*
X2221677Y-6283580D01*
X2393106Y-6340723D02*
X2412153Y-6350247D01*
X2412153Y-6350247D02*
X2450248Y-6350247D01*
X2450248Y-6350247D02*
X2469296Y-6340723D01*
X2469296Y-6340723D02*
X2478820Y-6321676D01*
X2478820Y-6321676D02*
X2478820Y-6312152D01*
X2478820Y-6312152D02*
X2469296Y-6293104D01*
X2469296Y-6293104D02*
X2450248Y-6283580D01*
X2450248Y-6283580D02*
X2421677Y-6283580D01*
X2421677Y-6283580D02*
X2402629Y-6274057D01*
X2402629Y-6274057D02*
X2393106Y-6255009D01*
X2393106Y-6255009D02*
X2393106Y-6245485D01*
X2393106Y-6245485D02*
X2402629Y-6226437D01*
X2402629Y-6226437D02*
X2421677Y-6216914D01*
X2421677Y-6216914D02*
X2450248Y-6216914D01*
X2450248Y-6216914D02*
X2469296Y-6226437D01*
X2545487Y-6426437D02*
X2555010Y-6416914D01*
X2555010Y-6416914D02*
X2574058Y-6388342D01*
X2574058Y-6388342D02*
X2583582Y-6369295D01*
X2583582Y-6369295D02*
X2593106Y-6340723D01*
X2593106Y-6340723D02*
X2602629Y-6293104D01*
X2602629Y-6293104D02*
X2602629Y-6255009D01*
X2602629Y-6255009D02*
X2593106Y-6207390D01*
X2593106Y-6207390D02*
X2583582Y-6178818D01*
X2583582Y-6178818D02*
X2574058Y-6159771D01*
X2574058Y-6159771D02*
X2555010Y-6131199D01*
X2555010Y-6131199D02*
X2545487Y-6121676D01*
X2875010Y-6426437D02*
X2865486Y-6416914D01*
X2865486Y-6416914D02*
X2846439Y-6388342D01*
X2846439Y-6388342D02*
X2836915Y-6369295D01*
X2836915Y-6369295D02*
X2827391Y-6340723D01*
X2827391Y-6340723D02*
X2817867Y-6293104D01*
X2817867Y-6293104D02*
X2817867Y-6255009D01*
X2817867Y-6255009D02*
X2827391Y-6207390D01*
X2827391Y-6207390D02*
X2836915Y-6178818D01*
X2836915Y-6178818D02*
X2846439Y-6159771D01*
X2846439Y-6159771D02*
X2865486Y-6131199D01*
X2865486Y-6131199D02*
X2875010Y-6121676D01*
X2951201Y-6216914D02*
X2951201Y-6350247D01*
X2951201Y-6235961D02*
X2960725Y-6226437D01*
X2960725Y-6226437D02*
X2979772Y-6216914D01*
X2979772Y-6216914D02*
X3008344Y-6216914D01*
X3008344Y-6216914D02*
X3027391Y-6226437D01*
X3027391Y-6226437D02*
X3036915Y-6245485D01*
X3036915Y-6245485D02*
X3036915Y-6350247D01*
X3160725Y-6350247D02*
X3141677Y-6340723D01*
X3141677Y-6340723D02*
X3132153Y-6331199D01*
X3132153Y-6331199D02*
X3122629Y-6312152D01*
X3122629Y-6312152D02*
X3122629Y-6255009D01*
X3122629Y-6255009D02*
X3132153Y-6235961D01*
X3132153Y-6235961D02*
X3141677Y-6226437D01*
X3141677Y-6226437D02*
X3160725Y-6216914D01*
X3160725Y-6216914D02*
X3189296Y-6216914D01*
X3189296Y-6216914D02*
X3208344Y-6226437D01*
X3208344Y-6226437D02*
X3217867Y-6235961D01*
X3217867Y-6235961D02*
X3227391Y-6255009D01*
X3227391Y-6255009D02*
X3227391Y-6312152D01*
X3227391Y-6312152D02*
X3217867Y-6331199D01*
X3217867Y-6331199D02*
X3208344Y-6340723D01*
X3208344Y-6340723D02*
X3189296Y-6350247D01*
X3189296Y-6350247D02*
X3160725Y-6350247D01*
X3284534Y-6216914D02*
X3360725Y-6216914D01*
X3313106Y-6150247D02*
X3313106Y-6321676D01*
X3313106Y-6321676D02*
X3322629Y-6340723D01*
X3322629Y-6340723D02*
X3341677Y-6350247D01*
X3341677Y-6350247D02*
X3360725Y-6350247D01*
X3547391Y-6216914D02*
X3547391Y-6416914D01*
X3547391Y-6226437D02*
X3566439Y-6216914D01*
X3566439Y-6216914D02*
X3604534Y-6216914D01*
X3604534Y-6216914D02*
X3623582Y-6226437D01*
X3623582Y-6226437D02*
X3633106Y-6235961D01*
X3633106Y-6235961D02*
X3642629Y-6255009D01*
X3642629Y-6255009D02*
X3642629Y-6312152D01*
X3642629Y-6312152D02*
X3633106Y-6331199D01*
X3633106Y-6331199D02*
X3623582Y-6340723D01*
X3623582Y-6340723D02*
X3604534Y-6350247D01*
X3604534Y-6350247D02*
X3566439Y-6350247D01*
X3566439Y-6350247D02*
X3547391Y-6340723D01*
X3756915Y-6350247D02*
X3737867Y-6340723D01*
X3737867Y-6340723D02*
X3728344Y-6321676D01*
X3728344Y-6321676D02*
X3728344Y-6150247D01*
X3918820Y-6350247D02*
X3918820Y-6245485D01*
X3918820Y-6245485D02*
X3909296Y-6226437D01*
X3909296Y-6226437D02*
X3890248Y-6216914D01*
X3890248Y-6216914D02*
X3852153Y-6216914D01*
X3852153Y-6216914D02*
X3833106Y-6226437D01*
X3918820Y-6340723D02*
X3899772Y-6350247D01*
X3899772Y-6350247D02*
X3852153Y-6350247D01*
X3852153Y-6350247D02*
X3833106Y-6340723D01*
X3833106Y-6340723D02*
X3823582Y-6321676D01*
X3823582Y-6321676D02*
X3823582Y-6302628D01*
X3823582Y-6302628D02*
X3833106Y-6283580D01*
X3833106Y-6283580D02*
X3852153Y-6274057D01*
X3852153Y-6274057D02*
X3899772Y-6274057D01*
X3899772Y-6274057D02*
X3918820Y-6264533D01*
X3985487Y-6216914D02*
X4061677Y-6216914D01*
X4014058Y-6150247D02*
X4014058Y-6321676D01*
X4014058Y-6321676D02*
X4023582Y-6340723D01*
X4023582Y-6340723D02*
X4042629Y-6350247D01*
X4042629Y-6350247D02*
X4061677Y-6350247D01*
X4204534Y-6340723D02*
X4185487Y-6350247D01*
X4185487Y-6350247D02*
X4147391Y-6350247D01*
X4147391Y-6350247D02*
X4128344Y-6340723D01*
X4128344Y-6340723D02*
X4118820Y-6321676D01*
X4118820Y-6321676D02*
X4118820Y-6245485D01*
X4118820Y-6245485D02*
X4128344Y-6226437D01*
X4128344Y-6226437D02*
X4147391Y-6216914D01*
X4147391Y-6216914D02*
X4185487Y-6216914D01*
X4185487Y-6216914D02*
X4204534Y-6226437D01*
X4204534Y-6226437D02*
X4214058Y-6245485D01*
X4214058Y-6245485D02*
X4214058Y-6264533D01*
X4214058Y-6264533D02*
X4118820Y-6283580D01*
X4385487Y-6350247D02*
X4385487Y-6150247D01*
X4385487Y-6340723D02*
X4366439Y-6350247D01*
X4366439Y-6350247D02*
X4328344Y-6350247D01*
X4328344Y-6350247D02*
X4309296Y-6340723D01*
X4309296Y-6340723D02*
X4299772Y-6331199D01*
X4299772Y-6331199D02*
X4290249Y-6312152D01*
X4290249Y-6312152D02*
X4290249Y-6255009D01*
X4290249Y-6255009D02*
X4299772Y-6235961D01*
X4299772Y-6235961D02*
X4309296Y-6226437D01*
X4309296Y-6226437D02*
X4328344Y-6216914D01*
X4328344Y-6216914D02*
X4366439Y-6216914D01*
X4366439Y-6216914D02*
X4385487Y-6226437D01*
X4461677Y-6426437D02*
X4471201Y-6416914D01*
X4471201Y-6416914D02*
X4490249Y-6388342D01*
X4490249Y-6388342D02*
X4499772Y-6369295D01*
X4499772Y-6369295D02*
X4509296Y-6340723D01*
X4509296Y-6340723D02*
X4518820Y-6293104D01*
X4518820Y-6293104D02*
X4518820Y-6255009D01*
X4518820Y-6255009D02*
X4509296Y-6207390D01*
X4509296Y-6207390D02*
X4499772Y-6178818D01*
X4499772Y-6178818D02*
X4490249Y-6159771D01*
X4490249Y-6159771D02*
X4471201Y-6131199D01*
X4471201Y-6131199D02*
X4461677Y-6121676D01*
M02*
