%FSLAX45Y45*%
G04 Gerber Fmt 4.5, Leading zero omitted, Abs format (unit mm)*
G04 Created by KiCad (PCBNEW (6.0.5-0)) date 2022-06-17 02:12:55*
%MOMM*%
%LPD*%
G01*
G04 APERTURE LIST*
%TA.AperFunction,Profile*%
%ADD10C,0.120000*%
%TD*%
%ADD11C,0.200000*%
%ADD12C,0.250000*%
G04 APERTURE END LIST*
D10*
X-5207000Y-4064000D02*
G75*
G03*
X-5461000Y-4318000I0J-254000D01*
G01*
X-5715000Y2159000D02*
X-4318000Y2159000D01*
X-5715000Y-5016500D02*
G75*
G03*
X-5461000Y-4762500I0J254000D01*
G01*
X-1651000Y2413000D02*
X-1651000Y2857500D01*
X-7874000Y952500D02*
X-7874000Y-4762500D01*
X2159000Y-3302000D02*
G75*
G03*
X2413000Y-3556000I254000J0D01*
G01*
X-1651000Y2413000D02*
G75*
G03*
X-1397000Y2159000I254000J0D01*
G01*
X3111500Y-3810000D02*
G75*
G03*
X2857500Y-3556000I-254000J0D01*
G01*
X-1206500Y-4318000D02*
X-1206500Y-5715000D01*
X-7620000Y-5016500D02*
X-5715000Y-5016500D01*
X2857500Y-3556000D02*
X2413000Y-3556000D01*
X-4064000Y2413000D02*
X-4064000Y2857500D01*
X-5969000Y1905000D02*
X-5969000Y1460500D01*
X-5461000Y-4762500D02*
X-5461000Y-4318000D01*
X2603500Y-5969000D02*
X2857500Y-5969000D01*
X-1460500Y-4064000D02*
X-5207000Y-4064000D01*
X-7620000Y1206500D02*
G75*
G03*
X-7874000Y952500I0J-254000D01*
G01*
X-1651000Y2857500D02*
G75*
G03*
X-1905000Y3111500I-254000J0D01*
G01*
X-7874000Y-4762500D02*
G75*
G03*
X-7620000Y-5016500I254000J0D01*
G01*
X-1206500Y-4318000D02*
G75*
G03*
X-1460500Y-4064000I-254000J0D01*
G01*
X2159000Y1905000D02*
G75*
G03*
X1905000Y2159000I-254000J0D01*
G01*
X-6223000Y1206500D02*
G75*
G03*
X-5969000Y1460500I0J254000D01*
G01*
X-1397000Y2159000D02*
X1905000Y2159000D01*
X3111500Y-4064000D02*
X3111500Y-3810000D01*
X2857500Y-5969000D02*
G75*
G03*
X3111500Y-5715000I0J254000D01*
G01*
X3111500Y-4064000D02*
X3111500Y-5715000D01*
X-1905000Y3111500D02*
X-3810000Y3111500D01*
X2603500Y-5969000D02*
X-952500Y-5969000D01*
X-5715000Y2159000D02*
G75*
G03*
X-5969000Y1905000I0J-254000D01*
G01*
X-3810000Y3111500D02*
G75*
G03*
X-4064000Y2857500I0J-254000D01*
G01*
X-6223000Y1206500D02*
X-7620000Y1206500D01*
X-1206500Y-5715000D02*
G75*
G03*
X-952500Y-5969000I254000J0D01*
G01*
X2159000Y-3302000D02*
X2159000Y1905000D01*
X-4318000Y2159000D02*
G75*
G03*
X-4064000Y2413000I0J254000D01*
G01*
D11*
D12*
X-5928900Y-2732500D02*
X-5678900Y-2982500D01*
X-5678900Y-2732500D02*
X-5928900Y-2982500D01*
X-5751100Y125000D02*
X-5501100Y-125000D01*
X-5501100Y125000D02*
X-5751100Y-125000D01*
X-125000Y125000D02*
X125000Y-125000D01*
X125000Y125000D02*
X-125000Y-125000D01*
X383000Y-3685000D02*
X633000Y-3935000D01*
X633000Y-3685000D02*
X383000Y-3935000D01*
D11*
X-7622381Y-6285476D02*
X-7622381Y-6085476D01*
X-7574762Y-6085476D01*
X-7546190Y-6095000D01*
X-7527143Y-6114048D01*
X-7517619Y-6133095D01*
X-7508095Y-6171190D01*
X-7508095Y-6199762D01*
X-7517619Y-6237857D01*
X-7527143Y-6256905D01*
X-7546190Y-6275952D01*
X-7574762Y-6285476D01*
X-7622381Y-6285476D01*
X-7422381Y-6285476D02*
X-7422381Y-6152143D01*
X-7422381Y-6190238D02*
X-7412857Y-6171190D01*
X-7403333Y-6161667D01*
X-7384286Y-6152143D01*
X-7365238Y-6152143D01*
X-7298571Y-6285476D02*
X-7298571Y-6152143D01*
X-7298571Y-6085476D02*
X-7308095Y-6095000D01*
X-7298571Y-6104524D01*
X-7289048Y-6095000D01*
X-7298571Y-6085476D01*
X-7298571Y-6104524D01*
X-7174762Y-6285476D02*
X-7193810Y-6275952D01*
X-7203333Y-6256905D01*
X-7203333Y-6085476D01*
X-7070000Y-6285476D02*
X-7089048Y-6275952D01*
X-7098571Y-6256905D01*
X-7098571Y-6085476D01*
X-6841429Y-6285476D02*
X-6841429Y-6085476D01*
X-6774762Y-6228333D01*
X-6708095Y-6085476D01*
X-6708095Y-6285476D01*
X-6527143Y-6285476D02*
X-6527143Y-6180714D01*
X-6536667Y-6161667D01*
X-6555714Y-6152143D01*
X-6593810Y-6152143D01*
X-6612857Y-6161667D01*
X-6527143Y-6275952D02*
X-6546190Y-6285476D01*
X-6593810Y-6285476D01*
X-6612857Y-6275952D01*
X-6622381Y-6256905D01*
X-6622381Y-6237857D01*
X-6612857Y-6218809D01*
X-6593810Y-6209286D01*
X-6546190Y-6209286D01*
X-6527143Y-6199762D01*
X-6431905Y-6152143D02*
X-6431905Y-6352143D01*
X-6431905Y-6161667D02*
X-6412857Y-6152143D01*
X-6374762Y-6152143D01*
X-6355714Y-6161667D01*
X-6346190Y-6171190D01*
X-6336667Y-6190238D01*
X-6336667Y-6247381D01*
X-6346190Y-6266428D01*
X-6355714Y-6275952D01*
X-6374762Y-6285476D01*
X-6412857Y-6285476D01*
X-6431905Y-6275952D01*
X-6250952Y-6266428D02*
X-6241429Y-6275952D01*
X-6250952Y-6285476D01*
X-6260476Y-6275952D01*
X-6250952Y-6266428D01*
X-6250952Y-6285476D01*
X-6250952Y-6161667D02*
X-6241429Y-6171190D01*
X-6250952Y-6180714D01*
X-6260476Y-6171190D01*
X-6250952Y-6161667D01*
X-6250952Y-6180714D01*
X-8080000Y-6515000D02*
X-7880000Y-6715000D01*
X-7880000Y-6515000D02*
X-8080000Y-6715000D01*
X-7631905Y-6524524D02*
X-7622381Y-6515000D01*
X-7603333Y-6505476D01*
X-7555714Y-6505476D01*
X-7536667Y-6515000D01*
X-7527143Y-6524524D01*
X-7517619Y-6543571D01*
X-7517619Y-6562619D01*
X-7527143Y-6591190D01*
X-7641429Y-6705476D01*
X-7517619Y-6705476D01*
X-7431905Y-6686428D02*
X-7422381Y-6695952D01*
X-7431905Y-6705476D01*
X-7441429Y-6695952D01*
X-7431905Y-6686428D01*
X-7431905Y-6705476D01*
X-7241429Y-6505476D02*
X-7336667Y-6505476D01*
X-7346190Y-6600714D01*
X-7336667Y-6591190D01*
X-7317619Y-6581667D01*
X-7270000Y-6581667D01*
X-7250952Y-6591190D01*
X-7241429Y-6600714D01*
X-7231905Y-6619762D01*
X-7231905Y-6667381D01*
X-7241429Y-6686428D01*
X-7250952Y-6695952D01*
X-7270000Y-6705476D01*
X-7317619Y-6705476D01*
X-7336667Y-6695952D01*
X-7346190Y-6686428D01*
X-7108095Y-6505476D02*
X-7089048Y-6505476D01*
X-7070000Y-6515000D01*
X-7060476Y-6524524D01*
X-7050952Y-6543571D01*
X-7041429Y-6581667D01*
X-7041429Y-6629286D01*
X-7050952Y-6667381D01*
X-7060476Y-6686428D01*
X-7070000Y-6695952D01*
X-7089048Y-6705476D01*
X-7108095Y-6705476D01*
X-7127143Y-6695952D01*
X-7136667Y-6686428D01*
X-7146190Y-6667381D01*
X-7155714Y-6629286D01*
X-7155714Y-6581667D01*
X-7146190Y-6543571D01*
X-7136667Y-6524524D01*
X-7127143Y-6515000D01*
X-7108095Y-6505476D01*
X-6917619Y-6505476D02*
X-6898571Y-6505476D01*
X-6879524Y-6515000D01*
X-6870000Y-6524524D01*
X-6860476Y-6543571D01*
X-6850952Y-6581667D01*
X-6850952Y-6629286D01*
X-6860476Y-6667381D01*
X-6870000Y-6686428D01*
X-6879524Y-6695952D01*
X-6898571Y-6705476D01*
X-6917619Y-6705476D01*
X-6936667Y-6695952D01*
X-6946190Y-6686428D01*
X-6955714Y-6667381D01*
X-6965238Y-6629286D01*
X-6965238Y-6581667D01*
X-6955714Y-6543571D01*
X-6946190Y-6524524D01*
X-6936667Y-6515000D01*
X-6917619Y-6505476D01*
X-6765238Y-6705476D02*
X-6765238Y-6572143D01*
X-6765238Y-6591190D02*
X-6755714Y-6581667D01*
X-6736667Y-6572143D01*
X-6708095Y-6572143D01*
X-6689048Y-6581667D01*
X-6679524Y-6600714D01*
X-6679524Y-6705476D01*
X-6679524Y-6600714D02*
X-6670000Y-6581667D01*
X-6650952Y-6572143D01*
X-6622381Y-6572143D01*
X-6603333Y-6581667D01*
X-6593810Y-6600714D01*
X-6593810Y-6705476D01*
X-6498571Y-6705476D02*
X-6498571Y-6572143D01*
X-6498571Y-6591190D02*
X-6489048Y-6581667D01*
X-6470000Y-6572143D01*
X-6441429Y-6572143D01*
X-6422381Y-6581667D01*
X-6412857Y-6600714D01*
X-6412857Y-6705476D01*
X-6412857Y-6600714D02*
X-6403333Y-6581667D01*
X-6384286Y-6572143D01*
X-6355714Y-6572143D01*
X-6336667Y-6581667D01*
X-6327143Y-6600714D01*
X-6327143Y-6705476D01*
X-5936667Y-6495952D02*
X-6108095Y-6753095D01*
X-5679524Y-6505476D02*
X-5660476Y-6505476D01*
X-5641429Y-6515000D01*
X-5631905Y-6524524D01*
X-5622381Y-6543571D01*
X-5612857Y-6581667D01*
X-5612857Y-6629286D01*
X-5622381Y-6667381D01*
X-5631905Y-6686428D01*
X-5641429Y-6695952D01*
X-5660476Y-6705476D01*
X-5679524Y-6705476D01*
X-5698571Y-6695952D01*
X-5708095Y-6686428D01*
X-5717619Y-6667381D01*
X-5727143Y-6629286D01*
X-5727143Y-6581667D01*
X-5717619Y-6543571D01*
X-5708095Y-6524524D01*
X-5698571Y-6515000D01*
X-5679524Y-6505476D01*
X-5527143Y-6686428D02*
X-5517619Y-6695952D01*
X-5527143Y-6705476D01*
X-5536667Y-6695952D01*
X-5527143Y-6686428D01*
X-5527143Y-6705476D01*
X-5393810Y-6505476D02*
X-5374762Y-6505476D01*
X-5355714Y-6515000D01*
X-5346191Y-6524524D01*
X-5336667Y-6543571D01*
X-5327143Y-6581667D01*
X-5327143Y-6629286D01*
X-5336667Y-6667381D01*
X-5346191Y-6686428D01*
X-5355714Y-6695952D01*
X-5374762Y-6705476D01*
X-5393810Y-6705476D01*
X-5412857Y-6695952D01*
X-5422381Y-6686428D01*
X-5431905Y-6667381D01*
X-5441429Y-6629286D01*
X-5441429Y-6581667D01*
X-5431905Y-6543571D01*
X-5422381Y-6524524D01*
X-5412857Y-6515000D01*
X-5393810Y-6505476D01*
X-5231905Y-6705476D02*
X-5193810Y-6705476D01*
X-5174762Y-6695952D01*
X-5165238Y-6686428D01*
X-5146191Y-6657857D01*
X-5136667Y-6619762D01*
X-5136667Y-6543571D01*
X-5146191Y-6524524D01*
X-5155714Y-6515000D01*
X-5174762Y-6505476D01*
X-5212857Y-6505476D01*
X-5231905Y-6515000D01*
X-5241429Y-6524524D01*
X-5250952Y-6543571D01*
X-5250952Y-6591190D01*
X-5241429Y-6610238D01*
X-5231905Y-6619762D01*
X-5212857Y-6629286D01*
X-5174762Y-6629286D01*
X-5155714Y-6619762D01*
X-5146191Y-6610238D01*
X-5136667Y-6591190D01*
X-5022381Y-6591190D02*
X-5041429Y-6581667D01*
X-5050952Y-6572143D01*
X-5060476Y-6553095D01*
X-5060476Y-6543571D01*
X-5050952Y-6524524D01*
X-5041429Y-6515000D01*
X-5022381Y-6505476D01*
X-4984286Y-6505476D01*
X-4965238Y-6515000D01*
X-4955714Y-6524524D01*
X-4946191Y-6543571D01*
X-4946191Y-6553095D01*
X-4955714Y-6572143D01*
X-4965238Y-6581667D01*
X-4984286Y-6591190D01*
X-5022381Y-6591190D01*
X-5041429Y-6600714D01*
X-5050952Y-6610238D01*
X-5060476Y-6629286D01*
X-5060476Y-6667381D01*
X-5050952Y-6686428D01*
X-5041429Y-6695952D01*
X-5022381Y-6705476D01*
X-4984286Y-6705476D01*
X-4965238Y-6695952D01*
X-4955714Y-6686428D01*
X-4946191Y-6667381D01*
X-4946191Y-6629286D01*
X-4955714Y-6610238D01*
X-4965238Y-6600714D01*
X-4984286Y-6591190D01*
X-4774762Y-6572143D02*
X-4774762Y-6705476D01*
X-4822381Y-6495952D02*
X-4870000Y-6638809D01*
X-4746191Y-6638809D01*
X-4679524Y-6505476D02*
X-4679524Y-6543571D01*
X-4603333Y-6505476D02*
X-4603333Y-6543571D01*
X-4308095Y-6781667D02*
X-4317619Y-6772143D01*
X-4336667Y-6743571D01*
X-4346191Y-6724524D01*
X-4355714Y-6695952D01*
X-4365238Y-6648333D01*
X-4365238Y-6610238D01*
X-4355714Y-6562619D01*
X-4346191Y-6534048D01*
X-4336667Y-6515000D01*
X-4317619Y-6486428D01*
X-4308095Y-6476905D01*
X-4146190Y-6572143D02*
X-4146190Y-6705476D01*
X-4193810Y-6495952D02*
X-4241429Y-6638809D01*
X-4117619Y-6638809D01*
X-3889048Y-6705476D02*
X-3889048Y-6505476D01*
X-3803333Y-6705476D02*
X-3803333Y-6600714D01*
X-3812857Y-6581667D01*
X-3831905Y-6572143D01*
X-3860476Y-6572143D01*
X-3879524Y-6581667D01*
X-3889048Y-6591190D01*
X-3679524Y-6705476D02*
X-3698571Y-6695952D01*
X-3708095Y-6686428D01*
X-3717619Y-6667381D01*
X-3717619Y-6610238D01*
X-3708095Y-6591190D01*
X-3698571Y-6581667D01*
X-3679524Y-6572143D01*
X-3650952Y-6572143D01*
X-3631905Y-6581667D01*
X-3622381Y-6591190D01*
X-3612857Y-6610238D01*
X-3612857Y-6667381D01*
X-3622381Y-6686428D01*
X-3631905Y-6695952D01*
X-3650952Y-6705476D01*
X-3679524Y-6705476D01*
X-3498571Y-6705476D02*
X-3517619Y-6695952D01*
X-3527143Y-6676905D01*
X-3527143Y-6505476D01*
X-3346190Y-6695952D02*
X-3365238Y-6705476D01*
X-3403333Y-6705476D01*
X-3422381Y-6695952D01*
X-3431905Y-6676905D01*
X-3431905Y-6600714D01*
X-3422381Y-6581667D01*
X-3403333Y-6572143D01*
X-3365238Y-6572143D01*
X-3346190Y-6581667D01*
X-3336667Y-6600714D01*
X-3336667Y-6619762D01*
X-3431905Y-6638809D01*
X-3260476Y-6695952D02*
X-3241429Y-6705476D01*
X-3203333Y-6705476D01*
X-3184286Y-6695952D01*
X-3174762Y-6676905D01*
X-3174762Y-6667381D01*
X-3184286Y-6648333D01*
X-3203333Y-6638809D01*
X-3231905Y-6638809D01*
X-3250952Y-6629286D01*
X-3260476Y-6610238D01*
X-3260476Y-6600714D01*
X-3250952Y-6581667D01*
X-3231905Y-6572143D01*
X-3203333Y-6572143D01*
X-3184286Y-6581667D01*
X-3108095Y-6781667D02*
X-3098571Y-6772143D01*
X-3079524Y-6743571D01*
X-3070000Y-6724524D01*
X-3060476Y-6695952D01*
X-3050952Y-6648333D01*
X-3050952Y-6610238D01*
X-3060476Y-6562619D01*
X-3070000Y-6534048D01*
X-3079524Y-6515000D01*
X-3098571Y-6486428D01*
X-3108095Y-6476905D01*
X-2746191Y-6781667D02*
X-2755714Y-6772143D01*
X-2774762Y-6743571D01*
X-2784286Y-6724524D01*
X-2793810Y-6695952D01*
X-2803333Y-6648333D01*
X-2803333Y-6610238D01*
X-2793810Y-6562619D01*
X-2784286Y-6534048D01*
X-2774762Y-6515000D01*
X-2755714Y-6486428D01*
X-2746191Y-6476905D01*
X-2670000Y-6572143D02*
X-2670000Y-6705476D01*
X-2670000Y-6591190D02*
X-2660476Y-6581667D01*
X-2641429Y-6572143D01*
X-2612857Y-6572143D01*
X-2593810Y-6581667D01*
X-2584286Y-6600714D01*
X-2584286Y-6705476D01*
X-2460476Y-6705476D02*
X-2479524Y-6695952D01*
X-2489048Y-6686428D01*
X-2498572Y-6667381D01*
X-2498572Y-6610238D01*
X-2489048Y-6591190D01*
X-2479524Y-6581667D01*
X-2460476Y-6572143D01*
X-2431905Y-6572143D01*
X-2412857Y-6581667D01*
X-2403333Y-6591190D01*
X-2393810Y-6610238D01*
X-2393810Y-6667381D01*
X-2403333Y-6686428D01*
X-2412857Y-6695952D01*
X-2431905Y-6705476D01*
X-2460476Y-6705476D01*
X-2336667Y-6572143D02*
X-2260476Y-6572143D01*
X-2308095Y-6505476D02*
X-2308095Y-6676905D01*
X-2298572Y-6695952D01*
X-2279524Y-6705476D01*
X-2260476Y-6705476D01*
X-2041429Y-6572143D02*
X-2041429Y-6772143D01*
X-2041429Y-6581667D02*
X-2022381Y-6572143D01*
X-1984286Y-6572143D01*
X-1965238Y-6581667D01*
X-1955714Y-6591190D01*
X-1946190Y-6610238D01*
X-1946190Y-6667381D01*
X-1955714Y-6686428D01*
X-1965238Y-6695952D01*
X-1984286Y-6705476D01*
X-2022381Y-6705476D01*
X-2041429Y-6695952D01*
X-1831905Y-6705476D02*
X-1850952Y-6695952D01*
X-1860476Y-6676905D01*
X-1860476Y-6505476D01*
X-1670000Y-6705476D02*
X-1670000Y-6600714D01*
X-1679524Y-6581667D01*
X-1698571Y-6572143D01*
X-1736667Y-6572143D01*
X-1755714Y-6581667D01*
X-1670000Y-6695952D02*
X-1689048Y-6705476D01*
X-1736667Y-6705476D01*
X-1755714Y-6695952D01*
X-1765238Y-6676905D01*
X-1765238Y-6657857D01*
X-1755714Y-6638809D01*
X-1736667Y-6629286D01*
X-1689048Y-6629286D01*
X-1670000Y-6619762D01*
X-1603333Y-6572143D02*
X-1527143Y-6572143D01*
X-1574762Y-6505476D02*
X-1574762Y-6676905D01*
X-1565238Y-6695952D01*
X-1546190Y-6705476D01*
X-1527143Y-6705476D01*
X-1384286Y-6695952D02*
X-1403333Y-6705476D01*
X-1441429Y-6705476D01*
X-1460476Y-6695952D01*
X-1470000Y-6676905D01*
X-1470000Y-6600714D01*
X-1460476Y-6581667D01*
X-1441429Y-6572143D01*
X-1403333Y-6572143D01*
X-1384286Y-6581667D01*
X-1374762Y-6600714D01*
X-1374762Y-6619762D01*
X-1470000Y-6638809D01*
X-1203333Y-6705476D02*
X-1203333Y-6505476D01*
X-1203333Y-6695952D02*
X-1222381Y-6705476D01*
X-1260476Y-6705476D01*
X-1279524Y-6695952D01*
X-1289048Y-6686428D01*
X-1298572Y-6667381D01*
X-1298572Y-6610238D01*
X-1289048Y-6591190D01*
X-1279524Y-6581667D01*
X-1260476Y-6572143D01*
X-1222381Y-6572143D01*
X-1203333Y-6581667D01*
X-1127143Y-6781667D02*
X-1117619Y-6772143D01*
X-1098572Y-6743571D01*
X-1089048Y-6724524D01*
X-1079524Y-6695952D01*
X-1070000Y-6648333D01*
X-1070000Y-6610238D01*
X-1079524Y-6562619D01*
X-1089048Y-6534048D01*
X-1098572Y-6515000D01*
X-1117619Y-6486428D01*
X-1127143Y-6476905D01*
M02*
