<?xml version="1.0" standalone="no"?>
 <!DOCTYPE svg PUBLIC "-//W3C//DTD SVG 1.1//EN" 
 "http://www.w3.org/Graphics/SVG/1.1/DTD/svg11.dtd"> 
<svg
  xmlns:svg="http://www.w3.org/2000/svg"
  xmlns="http://www.w3.org/2000/svg"
  xmlns:xlink="http://www.w3.org/1999/xlink"
  version="1.1"
  width="29.700220cm" height="21.000720cm" viewBox="0 0 297002200 210007200">
<title>SVG Picture created as Pragmatic-Edge_Cuts.svg date 2022/07/17 23:33:20 </title>
  <desc>Picture generated by PCBNEW </desc>
<g style="fill:#000000; fill-opacity:1.000000;stroke:#000000; stroke-opacity:1.000000;
stroke-linecap:round; stroke-linejoin:round;"
 transform="translate(0 0) scale(1 1)">
</g>
<g style="fill:#000000; fill-opacity:0.0; 
stroke:#000000; stroke-width:0.000000; stroke-opacity:1; 
stroke-linecap:round; stroke-linejoin:round;">
</g>
<g style="fill:#000000; fill-opacity:0.0; 
stroke:#000000; stroke-width:21200.000000; stroke-opacity:1; 
stroke-linecap:round; stroke-linejoin:round;">
</g>
<g style="fill:#000000; fill-opacity:0.0; 
stroke:#000000; stroke-width:150000.000000; stroke-opacity:1; 
stroke-linecap:round; stroke-linejoin:round;">
<rect x="177002200.000000" y="166007200.000000" width="108000000.000000" height="32000000.000000" rx="0.000000" />
</g>
<g style="fill:#000000; fill-opacity:0.0; 
stroke:#000000; stroke-width:21200.000000; stroke-opacity:1; 
stroke-linecap:round; stroke-linejoin:round;">
</g>
<g style="fill:#000000; fill-opacity:0.0; 
stroke:#000000; stroke-width:150000.000000; stroke-opacity:1; 
stroke-linecap:round; stroke-linejoin:round;">
<rect x="10000000.000000" y="10000000.000000" width="277002200.000000" height="190007200.000000" rx="0.000000" />
</g>
<g style="fill:#000000; fill-opacity:0.0; 
stroke:#000000; stroke-width:21200.000000; stroke-opacity:1; 
stroke-linecap:round; stroke-linejoin:round;">
</g>
<g style="fill:#000000; fill-opacity:0.0; 
stroke:#000000; stroke-width:150000.000000; stroke-opacity:1; 
stroke-linecap:round; stroke-linejoin:round;">
<rect x="12000000.000000" y="12000000.000000" width="273002200.000000" height="186007200.000000" rx="0.000000" />
</g>
<g style="fill:#000000; fill-opacity:0.0; 
stroke:#000000; stroke-width:21200.000000; stroke-opacity:1; 
stroke-linecap:round; stroke-linejoin:round;">
</g>
<g style="fill:#000000; fill-opacity:0.0; 
stroke:#000000; stroke-width:150000.000000; stroke-opacity:1; 
stroke-linecap:round; stroke-linejoin:round;">
<path d="M60000000 12000000
L60000000 10000000
" />
</g>
<g style="fill:#000000; fill-opacity:0.0; 
stroke:#000000; stroke-width:21200.000000; stroke-opacity:1; 
stroke-linecap:round; stroke-linejoin:round;">
</g>
<g style="fill:#000000; fill-opacity:0.0; 
stroke:#000000; stroke-width:150000.000000; stroke-opacity:1; 
stroke-linecap:round; stroke-linejoin:round;">
<path d="M110000000 12000000
L110000000 10000000
" />
</g>
<g style="fill:#000000; fill-opacity:0.0; 
stroke:#000000; stroke-width:21200.000000; stroke-opacity:1; 
stroke-linecap:round; stroke-linejoin:round;">
</g>
<g style="fill:#000000; fill-opacity:0.0; 
stroke:#000000; stroke-width:150000.000000; stroke-opacity:1; 
stroke-linecap:round; stroke-linejoin:round;">
<path d="M160000000 12000000
L160000000 10000000
" />
</g>
<g style="fill:#000000; fill-opacity:0.0; 
stroke:#000000; stroke-width:21200.000000; stroke-opacity:1; 
stroke-linecap:round; stroke-linejoin:round;">
</g>
<g style="fill:#000000; fill-opacity:0.0; 
stroke:#000000; stroke-width:150000.000000; stroke-opacity:1; 
stroke-linecap:round; stroke-linejoin:round;">
<path d="M210000000 12000000
L210000000 10000000
" />
</g>
<g style="fill:#000000; fill-opacity:0.0; 
stroke:#000000; stroke-width:21200.000000; stroke-opacity:1; 
stroke-linecap:round; stroke-linejoin:round;">
</g>
<g style="fill:#000000; fill-opacity:0.0; 
stroke:#000000; stroke-width:150000.000000; stroke-opacity:1; 
stroke-linecap:round; stroke-linejoin:round;">
<path d="M260000000 12000000
L260000000 10000000
" />
</g>
<g style="fill:#000000; fill-opacity:0.0; 
stroke:#000000; stroke-width:21200.000000; stroke-opacity:1; 
stroke-linecap:round; stroke-linejoin:round;">
</g>
<g style="fill:#000000; fill-opacity:0.0; 
stroke:#000000; stroke-width:150000.000000; stroke-opacity:1; 
stroke-linecap:round; stroke-linejoin:round;">
<text x="35000000.000000" y="11650000.000000"
textLength="1388095.000000" font-size="1733333.000000" lengthAdjust="spacingAndGlyphs"
text-anchor="start" opacity="0">1</text>
<g class="stroked-text"><desc>1</desc>
<path d="M36065476 11588095
L35322619 11588095
" />
<path d="M35694047 11588095
L35694047 10288095
L35570238 10473809
L35446428 10597619
L35322619 10659523
" />
</g></g>
<g style="fill:#000000; fill-opacity:0.0; 
stroke:#000000; stroke-width:21200.000000; stroke-opacity:1; 
stroke-linecap:round; stroke-linejoin:round;">
</g>
<g style="fill:#000000; fill-opacity:0.0; 
stroke:#000000; stroke-width:150000.000000; stroke-opacity:1; 
stroke-linecap:round; stroke-linejoin:round;">
<text x="85000000.000000" y="11650000.000000"
textLength="1388095.000000" font-size="1733333.000000" lengthAdjust="spacingAndGlyphs"
text-anchor="start" opacity="0">2</text>
<g class="stroked-text"><desc>2</desc>
<path d="M85322619 10411904
L85384523 10350000
L85508333 10288095
L85817857 10288095
L85941666 10350000
L86003571 10411904
L86065476 10535714
L86065476 10659523
L86003571 10845238
L85260714 11588095
L86065476 11588095
" />
</g></g>
<g style="fill:#000000; fill-opacity:0.0; 
stroke:#000000; stroke-width:21200.000000; stroke-opacity:1; 
stroke-linecap:round; stroke-linejoin:round;">
</g>
<g style="fill:#000000; fill-opacity:0.0; 
stroke:#000000; stroke-width:150000.000000; stroke-opacity:1; 
stroke-linecap:round; stroke-linejoin:round;">
<text x="135000000.000000" y="11650000.000000"
textLength="1388095.000000" font-size="1733333.000000" lengthAdjust="spacingAndGlyphs"
text-anchor="start" opacity="0">3</text>
<g class="stroked-text"><desc>3</desc>
<path d="M135260714 10288095
L136065476 10288095
L135632142 10783333
L135817857 10783333
L135941666 10845238
L136003571 10907142
L136065476 11030952
L136065476 11340476
L136003571 11464285
L135941666 11526190
L135817857 11588095
L135446428 11588095
L135322619 11526190
L135260714 11464285
" />
</g></g>
<g style="fill:#000000; fill-opacity:0.0; 
stroke:#000000; stroke-width:21200.000000; stroke-opacity:1; 
stroke-linecap:round; stroke-linejoin:round;">
</g>
<g style="fill:#000000; fill-opacity:0.0; 
stroke:#000000; stroke-width:150000.000000; stroke-opacity:1; 
stroke-linecap:round; stroke-linejoin:round;">
<text x="185000000.000000" y="11650000.000000"
textLength="1388095.000000" font-size="1733333.000000" lengthAdjust="spacingAndGlyphs"
text-anchor="start" opacity="0">4</text>
<g class="stroked-text"><desc>4</desc>
<path d="M185941666 10721428
L185941666 11588095
" />
<path d="M185632142 10226190
L185322619 11154761
L186127380 11154761
" />
</g></g>
<g style="fill:#000000; fill-opacity:0.0; 
stroke:#000000; stroke-width:21200.000000; stroke-opacity:1; 
stroke-linecap:round; stroke-linejoin:round;">
</g>
<g style="fill:#000000; fill-opacity:0.0; 
stroke:#000000; stroke-width:150000.000000; stroke-opacity:1; 
stroke-linecap:round; stroke-linejoin:round;">
<text x="235000000.000000" y="11650000.000000"
textLength="1388095.000000" font-size="1733333.000000" lengthAdjust="spacingAndGlyphs"
text-anchor="start" opacity="0">5</text>
<g class="stroked-text"><desc>5</desc>
<path d="M236003571 10288095
L235384523 10288095
L235322619 10907142
L235384523 10845238
L235508333 10783333
L235817857 10783333
L235941666 10845238
L236003571 10907142
L236065476 11030952
L236065476 11340476
L236003571 11464285
L235941666 11526190
L235817857 11588095
L235508333 11588095
L235384523 11526190
L235322619 11464285
" />
</g></g>
<g style="fill:#000000; fill-opacity:0.0; 
stroke:#000000; stroke-width:21200.000000; stroke-opacity:1; 
stroke-linecap:round; stroke-linejoin:round;">
</g>
<g style="fill:#000000; fill-opacity:0.0; 
stroke:#000000; stroke-width:150000.000000; stroke-opacity:1; 
stroke-linecap:round; stroke-linejoin:round;">
<text x="285000000.000000" y="11650000.000000"
textLength="1388095.000000" font-size="1733333.000000" lengthAdjust="spacingAndGlyphs"
text-anchor="start" opacity="0">6</text>
<g class="stroked-text"><desc>6</desc>
<path d="M285941666 10288095
L285694047 10288095
L285570238 10350000
L285508333 10411904
L285384523 10597619
L285322619 10845238
L285322619 11340476
L285384523 11464285
L285446428 11526190
L285570238 11588095
L285817857 11588095
L285941666 11526190
L286003571 11464285
L286065476 11340476
L286065476 11030952
L286003571 10907142
L285941666 10845238
L285817857 10783333
L285570238 10783333
L285446428 10845238
L285384523 10907142
L285322619 11030952
" />
</g></g>
<g style="fill:#000000; fill-opacity:0.0; 
stroke:#000000; stroke-width:21200.000000; stroke-opacity:1; 
stroke-linecap:round; stroke-linejoin:round;">
</g>
<g style="fill:#000000; fill-opacity:0.0; 
stroke:#000000; stroke-width:150000.000000; stroke-opacity:1; 
stroke-linecap:round; stroke-linejoin:round;">
<path d="M60000000 198007200
L60000000 200007200
" />
</g>
<g style="fill:#000000; fill-opacity:0.0; 
stroke:#000000; stroke-width:21200.000000; stroke-opacity:1; 
stroke-linecap:round; stroke-linejoin:round;">
</g>
<g style="fill:#000000; fill-opacity:0.0; 
stroke:#000000; stroke-width:150000.000000; stroke-opacity:1; 
stroke-linecap:round; stroke-linejoin:round;">
<path d="M110000000 198007200
L110000000 200007200
" />
</g>
<g style="fill:#000000; fill-opacity:0.0; 
stroke:#000000; stroke-width:21200.000000; stroke-opacity:1; 
stroke-linecap:round; stroke-linejoin:round;">
</g>
<g style="fill:#000000; fill-opacity:0.0; 
stroke:#000000; stroke-width:150000.000000; stroke-opacity:1; 
stroke-linecap:round; stroke-linejoin:round;">
<path d="M160000000 198007200
L160000000 200007200
" />
</g>
<g style="fill:#000000; fill-opacity:0.0; 
stroke:#000000; stroke-width:21200.000000; stroke-opacity:1; 
stroke-linecap:round; stroke-linejoin:round;">
</g>
<g style="fill:#000000; fill-opacity:0.0; 
stroke:#000000; stroke-width:150000.000000; stroke-opacity:1; 
stroke-linecap:round; stroke-linejoin:round;">
<path d="M210000000 198007200
L210000000 200007200
" />
</g>
<g style="fill:#000000; fill-opacity:0.0; 
stroke:#000000; stroke-width:21200.000000; stroke-opacity:1; 
stroke-linecap:round; stroke-linejoin:round;">
</g>
<g style="fill:#000000; fill-opacity:0.0; 
stroke:#000000; stroke-width:150000.000000; stroke-opacity:1; 
stroke-linecap:round; stroke-linejoin:round;">
<path d="M260000000 198007200
L260000000 200007200
" />
</g>
<g style="fill:#000000; fill-opacity:0.0; 
stroke:#000000; stroke-width:21200.000000; stroke-opacity:1; 
stroke-linecap:round; stroke-linejoin:round;">
</g>
<g style="fill:#000000; fill-opacity:0.0; 
stroke:#000000; stroke-width:150000.000000; stroke-opacity:1; 
stroke-linecap:round; stroke-linejoin:round;">
<text x="35000000.000000" y="199657200.000000"
textLength="1388095.000000" font-size="1733333.000000" lengthAdjust="spacingAndGlyphs"
text-anchor="start" opacity="0">1</text>
<g class="stroked-text"><desc>1</desc>
<path d="M36065476 199595295
L35322619 199595295
" />
<path d="M35694047 199595295
L35694047 198295295
L35570238 198481009
L35446428 198604819
L35322619 198666723
" />
</g></g>
<g style="fill:#000000; fill-opacity:0.0; 
stroke:#000000; stroke-width:21200.000000; stroke-opacity:1; 
stroke-linecap:round; stroke-linejoin:round;">
</g>
<g style="fill:#000000; fill-opacity:0.0; 
stroke:#000000; stroke-width:150000.000000; stroke-opacity:1; 
stroke-linecap:round; stroke-linejoin:round;">
<text x="85000000.000000" y="199657200.000000"
textLength="1388095.000000" font-size="1733333.000000" lengthAdjust="spacingAndGlyphs"
text-anchor="start" opacity="0">2</text>
<g class="stroked-text"><desc>2</desc>
<path d="M85322619 198419104
L85384523 198357200
L85508333 198295295
L85817857 198295295
L85941666 198357200
L86003571 198419104
L86065476 198542914
L86065476 198666723
L86003571 198852438
L85260714 199595295
L86065476 199595295
" />
</g></g>
<g style="fill:#000000; fill-opacity:0.0; 
stroke:#000000; stroke-width:21200.000000; stroke-opacity:1; 
stroke-linecap:round; stroke-linejoin:round;">
</g>
<g style="fill:#000000; fill-opacity:0.0; 
stroke:#000000; stroke-width:150000.000000; stroke-opacity:1; 
stroke-linecap:round; stroke-linejoin:round;">
<text x="135000000.000000" y="199657200.000000"
textLength="1388095.000000" font-size="1733333.000000" lengthAdjust="spacingAndGlyphs"
text-anchor="start" opacity="0">3</text>
<g class="stroked-text"><desc>3</desc>
<path d="M135260714 198295295
L136065476 198295295
L135632142 198790533
L135817857 198790533
L135941666 198852438
L136003571 198914342
L136065476 199038152
L136065476 199347676
L136003571 199471485
L135941666 199533390
L135817857 199595295
L135446428 199595295
L135322619 199533390
L135260714 199471485
" />
</g></g>
<g style="fill:#000000; fill-opacity:0.0; 
stroke:#000000; stroke-width:21200.000000; stroke-opacity:1; 
stroke-linecap:round; stroke-linejoin:round;">
</g>
<g style="fill:#000000; fill-opacity:0.0; 
stroke:#000000; stroke-width:150000.000000; stroke-opacity:1; 
stroke-linecap:round; stroke-linejoin:round;">
<text x="185000000.000000" y="199657200.000000"
textLength="1388095.000000" font-size="1733333.000000" lengthAdjust="spacingAndGlyphs"
text-anchor="start" opacity="0">4</text>
<g class="stroked-text"><desc>4</desc>
<path d="M185941666 198728628
L185941666 199595295
" />
<path d="M185632142 198233390
L185322619 199161961
L186127380 199161961
" />
</g></g>
<g style="fill:#000000; fill-opacity:0.0; 
stroke:#000000; stroke-width:21200.000000; stroke-opacity:1; 
stroke-linecap:round; stroke-linejoin:round;">
</g>
<g style="fill:#000000; fill-opacity:0.0; 
stroke:#000000; stroke-width:150000.000000; stroke-opacity:1; 
stroke-linecap:round; stroke-linejoin:round;">
<text x="235000000.000000" y="199657200.000000"
textLength="1388095.000000" font-size="1733333.000000" lengthAdjust="spacingAndGlyphs"
text-anchor="start" opacity="0">5</text>
<g class="stroked-text"><desc>5</desc>
<path d="M236003571 198295295
L235384523 198295295
L235322619 198914342
L235384523 198852438
L235508333 198790533
L235817857 198790533
L235941666 198852438
L236003571 198914342
L236065476 199038152
L236065476 199347676
L236003571 199471485
L235941666 199533390
L235817857 199595295
L235508333 199595295
L235384523 199533390
L235322619 199471485
" />
</g></g>
<g style="fill:#000000; fill-opacity:0.0; 
stroke:#000000; stroke-width:21200.000000; stroke-opacity:1; 
stroke-linecap:round; stroke-linejoin:round;">
</g>
<g style="fill:#000000; fill-opacity:0.0; 
stroke:#000000; stroke-width:150000.000000; stroke-opacity:1; 
stroke-linecap:round; stroke-linejoin:round;">
<text x="285000000.000000" y="199657200.000000"
textLength="1388095.000000" font-size="1733333.000000" lengthAdjust="spacingAndGlyphs"
text-anchor="start" opacity="0">6</text>
<g class="stroked-text"><desc>6</desc>
<path d="M285941666 198295295
L285694047 198295295
L285570238 198357200
L285508333 198419104
L285384523 198604819
L285322619 198852438
L285322619 199347676
L285384523 199471485
L285446428 199533390
L285570238 199595295
L285817857 199595295
L285941666 199533390
L286003571 199471485
L286065476 199347676
L286065476 199038152
L286003571 198914342
L285941666 198852438
L285817857 198790533
L285570238 198790533
L285446428 198852438
L285384523 198914342
L285322619 199038152
" />
</g></g>
<g style="fill:#000000; fill-opacity:0.0; 
stroke:#000000; stroke-width:21200.000000; stroke-opacity:1; 
stroke-linecap:round; stroke-linejoin:round;">
</g>
<g style="fill:#000000; fill-opacity:0.0; 
stroke:#000000; stroke-width:150000.000000; stroke-opacity:1; 
stroke-linecap:round; stroke-linejoin:round;">
<path d="M10000000 60000000
L12000000 60000000
" />
</g>
<g style="fill:#000000; fill-opacity:0.0; 
stroke:#000000; stroke-width:21200.000000; stroke-opacity:1; 
stroke-linecap:round; stroke-linejoin:round;">
</g>
<g style="fill:#000000; fill-opacity:0.0; 
stroke:#000000; stroke-width:150000.000000; stroke-opacity:1; 
stroke-linecap:round; stroke-linejoin:round;">
<path d="M10000000 110000000
L12000000 110000000
" />
</g>
<g style="fill:#000000; fill-opacity:0.0; 
stroke:#000000; stroke-width:21200.000000; stroke-opacity:1; 
stroke-linecap:round; stroke-linejoin:round;">
</g>
<g style="fill:#000000; fill-opacity:0.0; 
stroke:#000000; stroke-width:150000.000000; stroke-opacity:1; 
stroke-linecap:round; stroke-linejoin:round;">
<path d="M10000000 160000000
L12000000 160000000
" />
</g>
<g style="fill:#000000; fill-opacity:0.0; 
stroke:#000000; stroke-width:21200.000000; stroke-opacity:1; 
stroke-linecap:round; stroke-linejoin:round;">
</g>
<g style="fill:#000000; fill-opacity:0.0; 
stroke:#000000; stroke-width:150000.000000; stroke-opacity:1; 
stroke-linecap:round; stroke-linejoin:round;">
<text x="11000000.000000" y="35650000.000000"
textLength="1264286.000000" font-size="1733333.000000" lengthAdjust="spacingAndGlyphs"
text-anchor="middle" opacity="0">A</text>
<g class="stroked-text"><desc>A</desc>
<path d="M10690476 35216666
L11309523 35216666
" />
<path d="M10566666 35588095
L11000000 34288095
L11433333 35588095
" />
</g></g>
<g style="fill:#000000; fill-opacity:0.0; 
stroke:#000000; stroke-width:21200.000000; stroke-opacity:1; 
stroke-linecap:round; stroke-linejoin:round;">
</g>
<g style="fill:#000000; fill-opacity:0.0; 
stroke:#000000; stroke-width:150000.000000; stroke-opacity:1; 
stroke-linecap:round; stroke-linejoin:round;">
<text x="11000000.000000" y="85650000.000000"
textLength="1450000.000000" font-size="1733333.000000" lengthAdjust="spacingAndGlyphs"
text-anchor="middle" opacity="0">B</text>
<g class="stroked-text"><desc>B</desc>
<path d="M11092857 84907142
L11278571 84969047
L11340476 85030952
L11402380 85154761
L11402380 85340476
L11340476 85464285
L11278571 85526190
L11154761 85588095
L10659523 85588095
L10659523 84288095
L11092857 84288095
L11216666 84350000
L11278571 84411904
L11340476 84535714
L11340476 84659523
L11278571 84783333
L11216666 84845238
L11092857 84907142
L10659523 84907142
" />
</g></g>
<g style="fill:#000000; fill-opacity:0.0; 
stroke:#000000; stroke-width:21200.000000; stroke-opacity:1; 
stroke-linecap:round; stroke-linejoin:round;">
</g>
<g style="fill:#000000; fill-opacity:0.0; 
stroke:#000000; stroke-width:150000.000000; stroke-opacity:1; 
stroke-linecap:round; stroke-linejoin:round;">
<text x="11000000.000000" y="135650000.000000"
textLength="1450000.000000" font-size="1733333.000000" lengthAdjust="spacingAndGlyphs"
text-anchor="middle" opacity="0">C</text>
<g class="stroked-text"><desc>C</desc>
<path d="M11402380 135464285
L11340476 135526190
L11154761 135588095
L11030952 135588095
L10845238 135526190
L10721428 135402380
L10659523 135278571
L10597619 135030952
L10597619 134845238
L10659523 134597619
L10721428 134473809
L10845238 134350000
L11030952 134288095
L11154761 134288095
L11340476 134350000
L11402380 134411904
" />
</g></g>
<g style="fill:#000000; fill-opacity:0.0; 
stroke:#000000; stroke-width:21200.000000; stroke-opacity:1; 
stroke-linecap:round; stroke-linejoin:round;">
</g>
<g style="fill:#000000; fill-opacity:0.0; 
stroke:#000000; stroke-width:150000.000000; stroke-opacity:1; 
stroke-linecap:round; stroke-linejoin:round;">
<text x="11000000.000000" y="185650000.000000"
textLength="1450000.000000" font-size="1733333.000000" lengthAdjust="spacingAndGlyphs"
text-anchor="middle" opacity="0">D</text>
<g class="stroked-text"><desc>D</desc>
<path d="M10659523 185588095
L10659523 184288095
L10969047 184288095
L11154761 184350000
L11278571 184473809
L11340476 184597619
L11402380 184845238
L11402380 185030952
L11340476 185278571
L11278571 185402380
L11154761 185526190
L10969047 185588095
L10659523 185588095
" />
</g></g>
<g style="fill:#000000; fill-opacity:0.0; 
stroke:#000000; stroke-width:21200.000000; stroke-opacity:1; 
stroke-linecap:round; stroke-linejoin:round;">
</g>
<g style="fill:#000000; fill-opacity:0.0; 
stroke:#000000; stroke-width:150000.000000; stroke-opacity:1; 
stroke-linecap:round; stroke-linejoin:round;">
<path d="M287002200 60000000
L285002200 60000000
" />
</g>
<g style="fill:#000000; fill-opacity:0.0; 
stroke:#000000; stroke-width:21200.000000; stroke-opacity:1; 
stroke-linecap:round; stroke-linejoin:round;">
</g>
<g style="fill:#000000; fill-opacity:0.0; 
stroke:#000000; stroke-width:150000.000000; stroke-opacity:1; 
stroke-linecap:round; stroke-linejoin:round;">
<path d="M287002200 110000000
L285002200 110000000
" />
</g>
<g style="fill:#000000; fill-opacity:0.0; 
stroke:#000000; stroke-width:21200.000000; stroke-opacity:1; 
stroke-linecap:round; stroke-linejoin:round;">
</g>
<g style="fill:#000000; fill-opacity:0.0; 
stroke:#000000; stroke-width:150000.000000; stroke-opacity:1; 
stroke-linecap:round; stroke-linejoin:round;">
<path d="M287002200 160000000
L285002200 160000000
" />
</g>
<g style="fill:#000000; fill-opacity:0.0; 
stroke:#000000; stroke-width:21200.000000; stroke-opacity:1; 
stroke-linecap:round; stroke-linejoin:round;">
</g>
<g style="fill:#000000; fill-opacity:0.0; 
stroke:#000000; stroke-width:150000.000000; stroke-opacity:1; 
stroke-linecap:round; stroke-linejoin:round;">
<text x="286002200.000000" y="35650000.000000"
textLength="1264286.000000" font-size="1733333.000000" lengthAdjust="spacingAndGlyphs"
text-anchor="middle" opacity="0">A</text>
<g class="stroked-text"><desc>A</desc>
<path d="M285692676 35216666
L286311723 35216666
" />
<path d="M285568866 35588095
L286002200 34288095
L286435533 35588095
" />
</g></g>
<g style="fill:#000000; fill-opacity:0.0; 
stroke:#000000; stroke-width:21200.000000; stroke-opacity:1; 
stroke-linecap:round; stroke-linejoin:round;">
</g>
<g style="fill:#000000; fill-opacity:0.0; 
stroke:#000000; stroke-width:150000.000000; stroke-opacity:1; 
stroke-linecap:round; stroke-linejoin:round;">
<text x="286002200.000000" y="85650000.000000"
textLength="1450000.000000" font-size="1733333.000000" lengthAdjust="spacingAndGlyphs"
text-anchor="middle" opacity="0">B</text>
<g class="stroked-text"><desc>B</desc>
<path d="M286095057 84907142
L286280771 84969047
L286342676 85030952
L286404580 85154761
L286404580 85340476
L286342676 85464285
L286280771 85526190
L286156961 85588095
L285661723 85588095
L285661723 84288095
L286095057 84288095
L286218866 84350000
L286280771 84411904
L286342676 84535714
L286342676 84659523
L286280771 84783333
L286218866 84845238
L286095057 84907142
L285661723 84907142
" />
</g></g>
<g style="fill:#000000; fill-opacity:0.0; 
stroke:#000000; stroke-width:21200.000000; stroke-opacity:1; 
stroke-linecap:round; stroke-linejoin:round;">
</g>
<g style="fill:#000000; fill-opacity:0.0; 
stroke:#000000; stroke-width:150000.000000; stroke-opacity:1; 
stroke-linecap:round; stroke-linejoin:round;">
<text x="286002200.000000" y="135650000.000000"
textLength="1450000.000000" font-size="1733333.000000" lengthAdjust="spacingAndGlyphs"
text-anchor="middle" opacity="0">C</text>
<g class="stroked-text"><desc>C</desc>
<path d="M286404580 135464285
L286342676 135526190
L286156961 135588095
L286033152 135588095
L285847438 135526190
L285723628 135402380
L285661723 135278571
L285599819 135030952
L285599819 134845238
L285661723 134597619
L285723628 134473809
L285847438 134350000
L286033152 134288095
L286156961 134288095
L286342676 134350000
L286404580 134411904
" />
</g></g>
<g style="fill:#000000; fill-opacity:0.0; 
stroke:#000000; stroke-width:21200.000000; stroke-opacity:1; 
stroke-linecap:round; stroke-linejoin:round;">
</g>
<g style="fill:#000000; fill-opacity:0.0; 
stroke:#000000; stroke-width:150000.000000; stroke-opacity:1; 
stroke-linecap:round; stroke-linejoin:round;">
<text x="286002200.000000" y="185650000.000000"
textLength="1450000.000000" font-size="1733333.000000" lengthAdjust="spacingAndGlyphs"
text-anchor="middle" opacity="0">D</text>
<g class="stroked-text"><desc>D</desc>
<path d="M285661723 185588095
L285661723 184288095
L285971247 184288095
L286156961 184350000
L286280771 184473809
L286342676 184597619
L286404580 184845238
L286404580 185030952
L286342676 185278571
L286280771 185402380
L286156961 185526190
L285971247 185588095
L285661723 185588095
" />
</g></g>
<g style="fill:#000000; fill-opacity:0.0; 
stroke:#000000; stroke-width:21200.000000; stroke-opacity:1; 
stroke-linecap:round; stroke-linejoin:round;">
</g>
<g style="fill:#000000; fill-opacity:0.0; 
stroke:#000000; stroke-width:150000.000000; stroke-opacity:1; 
stroke-linecap:round; stroke-linejoin:round;">
<text x="200002200.000000" y="193857200.000000"
textLength="22150000.000000" font-size="2000000.000000" lengthAdjust="spacingAndGlyphs"
text-anchor="start" opacity="0">Date: 2022-03-22</text>
<g class="stroked-text"><desc>Date: 2022-03-22</desc>
<path d="M200434342 193785771
L200434342 192285771
L200791485 192285771
L201005771 192357200
L201148628 192500057
L201220057 192642914
L201291485 192928628
L201291485 193142914
L201220057 193428628
L201148628 193571485
L201005771 193714342
L200791485 193785771
L200434342 193785771
" />
<path d="M202577200 193785771
L202577200 193000057
L202505771 192857200
L202362914 192785771
L202077200 192785771
L201934342 192857200
" />
<path d="M202577200 193714342
L202434342 193785771
L202077200 193785771
L201934342 193714342
L201862914 193571485
L201862914 193428628
L201934342 193285771
L202077200 193214342
L202434342 193214342
L202577200 193142914
" />
<path d="M203077200 192785771
L203648628 192785771
" />
<path d="M203291485 192285771
L203291485 193571485
L203362914 193714342
L203505771 193785771
L203648628 193785771
" />
<path d="M204720057 193714342
L204577200 193785771
L204291485 193785771
L204148628 193714342
L204077200 193571485
L204077200 193000057
L204148628 192857200
L204291485 192785771
L204577200 192785771
L204720057 192857200
L204791485 193000057
L204791485 193142914
L204077200 193285771
" />
<path d="M205434342 193642914
L205505771 193714342
L205434342 193785771
L205362914 193714342
L205434342 193642914
L205434342 193785771
" />
<path d="M205434342 192857200
L205505771 192928628
L205434342 193000057
L205362914 192928628
L205434342 192857200
L205434342 193000057
" />
<path d="M207220057 192428628
L207291485 192357200
L207434342 192285771
L207791485 192285771
L207934342 192357200
L208005771 192428628
L208077200 192571485
L208077200 192714342
L208005771 192928628
L207148628 193785771
L208077200 193785771
" />
<path d="M209005771 192285771
L209148628 192285771
L209291485 192357200
L209362914 192428628
L209434342 192571485
L209505771 192857200
L209505771 193214342
L209434342 193500057
L209362914 193642914
L209291485 193714342
L209148628 193785771
L209005771 193785771
L208862914 193714342
L208791485 193642914
L208720057 193500057
L208648628 193214342
L208648628 192857200
L208720057 192571485
L208791485 192428628
L208862914 192357200
L209005771 192285771
" />
<path d="M210077200 192428628
L210148628 192357200
L210291485 192285771
L210648628 192285771
L210791485 192357200
L210862914 192428628
L210934342 192571485
L210934342 192714342
L210862914 192928628
L210005771 193785771
L210934342 193785771
" />
<path d="M211505771 192428628
L211577200 192357200
L211720057 192285771
L212077200 192285771
L212220057 192357200
L212291485 192428628
L212362914 192571485
L212362914 192714342
L212291485 192928628
L211434342 193785771
L212362914 193785771
" />
<path d="M213005771 193214342
L214148628 193214342
" />
<path d="M215148628 192285771
L215291485 192285771
L215434342 192357200
L215505771 192428628
L215577200 192571485
L215648628 192857200
L215648628 193214342
L215577200 193500057
L215505771 193642914
L215434342 193714342
L215291485 193785771
L215148628 193785771
L215005771 193714342
L214934342 193642914
L214862914 193500057
L214791485 193214342
L214791485 192857200
L214862914 192571485
L214934342 192428628
L215005771 192357200
L215148628 192285771
" />
<path d="M216148628 192285771
L217077200 192285771
L216577200 192857200
L216791485 192857200
L216934342 192928628
L217005771 193000057
L217077200 193142914
L217077200 193500057
L217005771 193642914
L216934342 193714342
L216791485 193785771
L216362914 193785771
L216220057 193714342
L216148628 193642914
" />
<path d="M217720057 193214342
L218862914 193214342
" />
<path d="M219505771 192428628
L219577200 192357200
L219720057 192285771
L220077200 192285771
L220220057 192357200
L220291485 192428628
L220362914 192571485
L220362914 192714342
L220291485 192928628
L219434342 193785771
L220362914 193785771
" />
<path d="M220934342 192428628
L221005771 192357200
L221148628 192285771
L221505771 192285771
L221648628 192357200
L221720057 192428628
L221791485 192571485
L221791485 192714342
L221720057 192928628
L220862914 193785771
L221791485 193785771
" />
</g></g>
<g style="fill:#000000; fill-opacity:0.0; 
stroke:#000000; stroke-width:21200.000000; stroke-opacity:1; 
stroke-linecap:round; stroke-linejoin:round;">
</g>
<g style="fill:#000000; fill-opacity:0.0; 
stroke:#000000; stroke-width:150000.000000; stroke-opacity:1; 
stroke-linecap:round; stroke-linejoin:round;">
<path d="M177002200 194507200
L285002200 194507200
" />
</g>
<g style="fill:#000000; fill-opacity:0.0; 
stroke:#000000; stroke-width:21200.000000; stroke-opacity:1; 
stroke-linecap:round; stroke-linejoin:round;">
</g>
<g style="fill:#000000; fill-opacity:0.0; 
stroke:#000000; stroke-width:150000.000000; stroke-opacity:1; 
stroke-linecap:round; stroke-linejoin:round;">
<text x="178002200.000000" y="196657200.000000"
textLength="37650000.000000" font-size="2000000.000000" lengthAdjust="spacingAndGlyphs"
text-anchor="start" opacity="0">KiCad E.D.A.  kicad (6.0.6-1)-1</text>
<g class="stroked-text"><desc>KiCad E.D.A.  kicad (6.0.6-1)-1</desc>
<path d="M178434342 196585771
L178434342 195085771
" />
<path d="M179291485 196585771
L178648628 195728628
" />
<path d="M179291485 195085771
L178434342 195942914
" />
<path d="M179934342 196585771
L179934342 195585771
" />
<path d="M179934342 195085771
L179862914 195157200
L179934342 195228628
L180005771 195157200
L179934342 195085771
L179934342 195228628
" />
<path d="M181505771 196442914
L181434342 196514342
L181220057 196585771
L181077200 196585771
L180862914 196514342
L180720057 196371485
L180648628 196228628
L180577200 195942914
L180577200 195728628
L180648628 195442914
L180720057 195300057
L180862914 195157200
L181077200 195085771
L181220057 195085771
L181434342 195157200
L181505771 195228628
" />
<path d="M182791485 196585771
L182791485 195800057
L182720057 195657200
L182577200 195585771
L182291485 195585771
L182148628 195657200
" />
<path d="M182791485 196514342
L182648628 196585771
L182291485 196585771
L182148628 196514342
L182077200 196371485
L182077200 196228628
L182148628 196085771
L182291485 196014342
L182648628 196014342
L182791485 195942914
" />
<path d="M184148628 196585771
L184148628 195085771
" />
<path d="M184148628 196514342
L184005771 196585771
L183720057 196585771
L183577200 196514342
L183505771 196442914
L183434342 196300057
L183434342 195871485
L183505771 195728628
L183577200 195657200
L183720057 195585771
L184005771 195585771
L184148628 195657200
" />
<path d="M186005771 195800057
L186505771 195800057
" />
<path d="M186720057 196585771
L186005771 196585771
L186005771 195085771
L186720057 195085771
" />
<path d="M187362914 196442914
L187434342 196514342
L187362914 196585771
L187291485 196514342
L187362914 196442914
L187362914 196585771
" />
<path d="M188077200 196585771
L188077200 195085771
L188434342 195085771
L188648628 195157200
L188791485 195300057
L188862914 195442914
L188934342 195728628
L188934342 195942914
L188862914 196228628
L188791485 196371485
L188648628 196514342
L188434342 196585771
L188077200 196585771
" />
<path d="M189577200 196442914
L189648628 196514342
L189577200 196585771
L189505771 196514342
L189577200 196442914
L189577200 196585771
" />
<path d="M190220057 196157200
L190934342 196157200
" />
<path d="M190077200 196585771
L190577200 195085771
L191077200 196585771
" />
<path d="M191577200 196442914
L191648628 196514342
L191577200 196585771
L191505771 196514342
L191577200 196442914
L191577200 196585771
" />
<path d="M194577200 196585771
L194577200 195085771
" />
<path d="M194720057 196014342
L195148628 196585771
" />
<path d="M195148628 195585771
L194577200 196157200
" />
<path d="M195791485 196585771
L195791485 195585771
" />
<path d="M195791485 195085771
L195720057 195157200
L195791485 195228628
L195862914 195157200
L195791485 195085771
L195791485 195228628
" />
<path d="M197148628 196514342
L197005771 196585771
L196720057 196585771
L196577200 196514342
L196505771 196442914
L196434342 196300057
L196434342 195871485
L196505771 195728628
L196577200 195657200
L196720057 195585771
L197005771 195585771
L197148628 195657200
" />
<path d="M198434342 196585771
L198434342 195800057
L198362914 195657200
L198220057 195585771
L197934342 195585771
L197791485 195657200
" />
<path d="M198434342 196514342
L198291485 196585771
L197934342 196585771
L197791485 196514342
L197720057 196371485
L197720057 196228628
L197791485 196085771
L197934342 196014342
L198291485 196014342
L198434342 195942914
" />
<path d="M199791485 196585771
L199791485 195085771
" />
<path d="M199791485 196514342
L199648628 196585771
L199362914 196585771
L199220057 196514342
L199148628 196442914
L199077200 196300057
L199077200 195871485
L199148628 195728628
L199220057 195657200
L199362914 195585771
L199648628 195585771
L199791485 195657200
" />
<path d="M202077200 197157200
L202005771 197085771
L201862914 196871485
L201791485 196728628
L201720057 196514342
L201648628 196157200
L201648628 195871485
L201720057 195514342
L201791485 195300057
L201862914 195157200
L202005771 194942914
L202077200 194871485
" />
<path d="M203291485 195085771
L203005771 195085771
L202862914 195157200
L202791485 195228628
L202648628 195442914
L202577200 195728628
L202577200 196300057
L202648628 196442914
L202720057 196514342
L202862914 196585771
L203148628 196585771
L203291485 196514342
L203362914 196442914
L203434342 196300057
L203434342 195942914
L203362914 195800057
L203291485 195728628
L203148628 195657200
L202862914 195657200
L202720057 195728628
L202648628 195800057
L202577200 195942914
" />
<path d="M204077200 196442914
L204148628 196514342
L204077200 196585771
L204005771 196514342
L204077200 196442914
L204077200 196585771
" />
<path d="M205077200 195085771
L205220057 195085771
L205362914 195157200
L205434342 195228628
L205505771 195371485
L205577200 195657200
L205577200 196014342
L205505771 196300057
L205434342 196442914
L205362914 196514342
L205220057 196585771
L205077200 196585771
L204934342 196514342
L204862914 196442914
L204791485 196300057
L204720057 196014342
L204720057 195657200
L204791485 195371485
L204862914 195228628
L204934342 195157200
L205077200 195085771
" />
<path d="M206220057 196442914
L206291485 196514342
L206220057 196585771
L206148628 196514342
L206220057 196442914
L206220057 196585771
" />
<path d="M207577200 195085771
L207291485 195085771
L207148628 195157200
L207077200 195228628
L206934342 195442914
L206862914 195728628
L206862914 196300057
L206934342 196442914
L207005771 196514342
L207148628 196585771
L207434342 196585771
L207577200 196514342
L207648628 196442914
L207720057 196300057
L207720057 195942914
L207648628 195800057
L207577200 195728628
L207434342 195657200
L207148628 195657200
L207005771 195728628
L206934342 195800057
L206862914 195942914
" />
<path d="M208362914 196014342
L209505771 196014342
" />
<path d="M211005771 196585771
L210148628 196585771
" />
<path d="M210577200 196585771
L210577200 195085771
L210434342 195300057
L210291485 195442914
L210148628 195514342
" />
<path d="M211505771 197157200
L211577200 197085771
L211720057 196871485
L211791485 196728628
L211862914 196514342
L211934342 196157200
L211934342 195871485
L211862914 195514342
L211791485 195300057
L211720057 195157200
L211577200 194942914
L211505771 194871485
" />
<path d="M212648628 196014342
L213791485 196014342
" />
<path d="M215291485 196585771
L214434342 196585771
" />
<path d="M214862914 196585771
L214862914 195085771
L214720057 195300057
L214577200 195442914
L214434342 195514342
" />
</g></g>
<g style="fill:#000000; fill-opacity:0.0; 
stroke:#000000; stroke-width:21200.000000; stroke-opacity:1; 
stroke-linecap:round; stroke-linejoin:round;">
</g>
<g style="fill:#000000; fill-opacity:0.0; 
stroke:#000000; stroke-width:150000.000000; stroke-opacity:1; 
stroke-linecap:round; stroke-linejoin:round;">
<path d="M177002200 191507200
L285002200 191507200
" />
</g>
<g style="fill:#000000; fill-opacity:0.0; 
stroke:#000000; stroke-width:21200.000000; stroke-opacity:1; 
stroke-linecap:round; stroke-linejoin:round;">
</g>
<g style="fill:#000000; fill-opacity:0.0; 
stroke:#000000; stroke-width:300000.000000; stroke-opacity:1; 
stroke-linecap:round; stroke-linejoin:round;">
<text x="263002200.000000" y="193857200.000000"
textLength="7364286.000000" font-size="2000000.000000" lengthAdjust="spacingAndGlyphs"
text-anchor="start" opacity="0">Rev: 3</text>
<g class="stroked-text"><desc>Rev: 3</desc>
<path d="M264411485 193785771
L263911485 193071485
" />
<path d="M263554342 193785771
L263554342 192285771
L264125771 192285771
L264268628 192357200
L264340057 192428628
L264411485 192571485
L264411485 192785771
L264340057 192928628
L264268628 193000057
L264125771 193071485
L263554342 193071485
" />
<path d="M265625771 193714342
L265482914 193785771
L265197200 193785771
L265054342 193714342
L264982914 193571485
L264982914 193000057
L265054342 192857200
L265197200 192785771
L265482914 192785771
L265625771 192857200
L265697200 193000057
L265697200 193142914
L264982914 193285771
" />
<path d="M266197200 192785771
L266554342 193785771
L266911485 192785771
" />
<path d="M267482914 193642914
L267554342 193714342
L267482914 193785771
L267411485 193714342
L267482914 193642914
L267482914 193785771
" />
<path d="M267482914 192857200
L267554342 192928628
L267482914 193000057
L267411485 192928628
L267482914 192857200
L267482914 193000057
" />
<path d="M269197200 192285771
L270125771 192285771
L269625771 192857200
L269840057 192857200
L269982914 192928628
L270054342 193000057
L270125771 193142914
L270125771 193500057
L270054342 193642914
L269982914 193714342
L269840057 193785771
L269411485 193785771
L269268628 193714342
L269197200 193642914
" />
</g></g>
<g style="fill:#000000; fill-opacity:0.0; 
stroke:#000000; stroke-width:21200.000000; stroke-opacity:1; 
stroke-linecap:round; stroke-linejoin:round;">
</g>
<g style="fill:#000000; fill-opacity:0.0; 
stroke:#000000; stroke-width:150000.000000; stroke-opacity:1; 
stroke-linecap:round; stroke-linejoin:round;">
<text x="178002200.000000" y="193857200.000000"
textLength="9604286.000000" font-size="2000000.000000" lengthAdjust="spacingAndGlyphs"
text-anchor="start" opacity="0">Size: A4</text>
<g class="stroked-text"><desc>Size: A4</desc>
<path d="M178362914 193714342
L178577200 193785771
L178934342 193785771
L179077200 193714342
L179148628 193642914
L179220057 193500057
L179220057 193357200
L179148628 193214342
L179077200 193142914
L178934342 193071485
L178648628 193000057
L178505771 192928628
L178434342 192857200
L178362914 192714342
L178362914 192571485
L178434342 192428628
L178505771 192357200
L178648628 192285771
L179005771 192285771
L179220057 192357200
" />
<path d="M179862914 193785771
L179862914 192785771
" />
<path d="M179862914 192285771
L179791485 192357200
L179862914 192428628
L179934342 192357200
L179862914 192285771
L179862914 192428628
" />
<path d="M180434342 192785771
L181220057 192785771
L180434342 193785771
L181220057 193785771
" />
<path d="M182362914 193714342
L182220057 193785771
L181934342 193785771
L181791485 193714342
L181720057 193571485
L181720057 193000057
L181791485 192857200
L181934342 192785771
L182220057 192785771
L182362914 192857200
L182434342 193000057
L182434342 193142914
L181720057 193285771
" />
<path d="M183077200 193642914
L183148628 193714342
L183077200 193785771
L183005771 193714342
L183077200 193642914
L183077200 193785771
" />
<path d="M183077200 192857200
L183148628 192928628
L183077200 193000057
L183005771 192928628
L183077200 192857200
L183077200 193000057
" />
<path d="M184862914 193357200
L185577200 193357200
" />
<path d="M184720057 193785771
L185220057 192285771
L185720057 193785771
" />
<path d="M186862914 192785771
L186862914 193785771
" />
<path d="M186505771 192214342
L186148628 193285771
L187077200 193285771
" />
</g></g>
<g style="fill:#000000; fill-opacity:0.0; 
stroke:#000000; stroke-width:21200.000000; stroke-opacity:1; 
stroke-linecap:round; stroke-linejoin:round;">
</g>
<g style="fill:#000000; fill-opacity:0.0; 
stroke:#000000; stroke-width:150000.000000; stroke-opacity:1; 
stroke-linecap:round; stroke-linejoin:round;">
<text x="263002200.000000" y="196657200.000000"
textLength="8507143.000000" font-size="2000000.000000" lengthAdjust="spacingAndGlyphs"
text-anchor="start" opacity="0">Id: 1/1</text>
<g class="stroked-text"><desc>Id: 1/1</desc>
<path d="M263434342 196585771
L263434342 195085771
" />
<path d="M264791485 196585771
L264791485 195085771
" />
<path d="M264791485 196514342
L264648628 196585771
L264362914 196585771
L264220057 196514342
L264148628 196442914
L264077200 196300057
L264077200 195871485
L264148628 195728628
L264220057 195657200
L264362914 195585771
L264648628 195585771
L264791485 195657200
" />
<path d="M265505771 196442914
L265577200 196514342
L265505771 196585771
L265434342 196514342
L265505771 196442914
L265505771 196585771
" />
<path d="M265505771 195657200
L265577200 195728628
L265505771 195800057
L265434342 195728628
L265505771 195657200
L265505771 195800057
" />
<path d="M268148628 196585771
L267291485 196585771
" />
<path d="M267720057 196585771
L267720057 195085771
L267577200 195300057
L267434342 195442914
L267291485 195514342
" />
<path d="M269862914 195014342
L268577200 196942914
" />
<path d="M271148628 196585771
L270291485 196585771
" />
<path d="M270720057 196585771
L270720057 195085771
L270577200 195300057
L270434342 195442914
L270291485 195514342
" />
</g></g>
<g style="fill:#000000; fill-opacity:0.0; 
stroke:#000000; stroke-width:21200.000000; stroke-opacity:1; 
stroke-linecap:round; stroke-linejoin:round;">
</g>
<g style="fill:#000000; fill-opacity:0.0; 
stroke:#000000; stroke-width:150000.000000; stroke-opacity:1; 
stroke-linecap:round; stroke-linejoin:round;">
<path d="M177002200 187507200
L285002200 187507200
" />
</g>
<g style="fill:#000000; fill-opacity:0.0; 
stroke:#000000; stroke-width:21200.000000; stroke-opacity:1; 
stroke-linecap:round; stroke-linejoin:round;">
</g>
<g style="fill:#000000; fill-opacity:0.0; 
stroke:#000000; stroke-width:400000.000000; stroke-opacity:1; 
stroke-linecap:round; stroke-linejoin:round;">
<text x="178002200.000000" y="190307200.000000"
textLength="52933452.000000" font-size="2666666.000000" lengthAdjust="spacingAndGlyphs"
text-anchor="start" opacity="0">Title: Pragmatic 5x6 input module</text>
<g class="stroked-text"><desc>Title: Pragmatic 5x6 input module</desc>
<path d="M178714580 188211961
L179857438 188211961
" />
<path d="M179036009 190211961
L179286009 188211961
" />
<path d="M180274104 190211961
L180440771 188878628
" />
<path d="M180524104 188211961
L180416961 188307200
L180500295 188402438
L180607438 188307200
L180524104 188211961
L180500295 188402438
" />
<path d="M181107438 188878628
L181869342 188878628
" />
<path d="M181476485 188211961
L181262200 189926247
L181333628 190116723
L181512200 190211961
L181702676 190211961
" />
<path d="M182655057 190211961
L182476485 190116723
L182405057 189926247
L182619342 188211961
" />
<path d="M184190771 190116723
L183988390 190211961
L183607438 190211961
L183428866 190116723
L183357438 189926247
L183452676 189164342
L183571723 188973866
L183774104 188878628
L184155057 188878628
L184333628 188973866
L184405057 189164342
L184381247 189354819
L183405057 189545295
" />
<path d="M185155057 190021485
L185238390 190116723
L185131247 190211961
L185047914 190116723
L185155057 190021485
L185131247 190211961
" />
<path d="M185286009 188973866
L185369342 189069104
L185262200 189164342
L185178866 189069104
L185286009 188973866
L185262200 189164342
" />
<path d="M187607438 190211961
L187857438 188211961
L188619342 188211961
L188797914 188307200
L188881247 188402438
L188952676 188592914
L188916961 188878628
L188797914 189069104
L188690771 189164342
L188488390 189259580
L187726485 189259580
" />
<path d="M189607438 190211961
L189774104 188878628
" />
<path d="M189726485 189259580
L189845533 189069104
L189952676 188973866
L190155057 188878628
L190345533 188878628
" />
<path d="M191702676 190211961
L191833628 189164342
L191762200 188973866
L191583628 188878628
L191202676 188878628
L191000295 188973866
" />
<path d="M191714580 190116723
L191512200 190211961
L191036009 190211961
L190857438 190116723
L190786009 189926247
L190809819 189735771
L190928866 189545295
L191131247 189450057
L191607438 189450057
L191809819 189354819
" />
<path d="M193678866 188878628
L193476485 190497676
L193357438 190688152
L193250295 190783390
L193047914 190878628
L192762200 190878628
L192583628 190783390
" />
<path d="M193524104 190116723
L193321723 190211961
L192940771 190211961
L192762200 190116723
L192678866 190021485
L192607438 189831009
L192678866 189259580
L192797914 189069104
L192905057 188973866
L193107438 188878628
L193488390 188878628
L193666961 188973866
" />
<path d="M194464580 190211961
L194631247 188878628
" />
<path d="M194607438 189069104
L194714580 188973866
L194916961 188878628
L195202676 188878628
L195381247 188973866
L195452676 189164342
L195321723 190211961
" />
<path d="M195452676 189164342
L195571723 188973866
L195774104 188878628
L196059819 188878628
L196238390 188973866
L196309819 189164342
L196178866 190211961
" />
<path d="M197988390 190211961
L198119342 189164342
L198047914 188973866
L197869342 188878628
L197488390 188878628
L197286009 188973866
" />
<path d="M198000295 190116723
L197797914 190211961
L197321723 190211961
L197143152 190116723
L197071723 189926247
L197095533 189735771
L197214580 189545295
L197416961 189450057
L197893152 189450057
L198095533 189354819
" />
<path d="M198821723 188878628
L199583628 188878628
" />
<path d="M199190771 188211961
L198976485 189926247
L199047914 190116723
L199226485 190211961
L199416961 190211961
" />
<path d="M200083628 190211961
L200250295 188878628
" />
<path d="M200333628 188211961
L200226485 188307200
L200309819 188402438
L200416961 188307200
L200333628 188211961
L200309819 188402438
" />
<path d="M201905057 190116723
L201702676 190211961
L201321723 190211961
L201143152 190116723
L201059819 190021485
L200988390 189831009
L201059819 189259580
L201178866 189069104
L201286009 188973866
L201488390 188878628
L201869342 188878628
L202047914 188973866
" />
<path d="M205476485 188211961
L204524104 188211961
L204309819 189164342
L204416961 189069104
L204619342 188973866
L205095533 188973866
L205274104 189069104
L205357438 189164342
L205428866 189354819
L205369342 189831009
L205250295 190021485
L205143152 190116723
L204940771 190211961
L204464580 190211961
L204286009 190116723
L204202676 190021485
" />
<path d="M205988390 190211961
L207202676 188878628
" />
<path d="M206155057 188878628
L207036009 190211961
" />
<path d="M208905057 188211961
L208524104 188211961
L208321723 188307200
L208214580 188402438
L207988390 188688152
L207845533 189069104
L207750295 189831009
L207821723 190021485
L207905057 190116723
L208083628 190211961
L208464580 190211961
L208666961 190116723
L208774104 190021485
L208893152 189831009
L208952676 189354819
L208881247 189164342
L208797914 189069104
L208619342 188973866
L208238390 188973866
L208036009 189069104
L207928866 189164342
L207809819 189354819
" />
<path d="M211226485 190211961
L211393152 188878628
" />
<path d="M211476485 188211961
L211369342 188307200
L211452676 188402438
L211559819 188307200
L211476485 188211961
L211452676 188402438
" />
<path d="M212345533 188878628
L212178866 190211961
" />
<path d="M212321723 189069104
L212428866 188973866
L212631247 188878628
L212916961 188878628
L213095533 188973866
L213166961 189164342
L213036009 190211961
" />
<path d="M214155057 188878628
L213905057 190878628
" />
<path d="M214143152 188973866
L214345533 188878628
L214726485 188878628
L214905057 188973866
L214988390 189069104
L215059819 189259580
L214988390 189831009
L214869342 190021485
L214762200 190116723
L214559819 190211961
L214178866 190211961
L214000295 190116723
" />
<path d="M216821723 188878628
L216655057 190211961
" />
<path d="M215964580 188878628
L215833628 189926247
L215905057 190116723
L216083628 190211961
L216369342 190211961
L216571723 190116723
L216678866 190021485
" />
<path d="M217488390 188878628
L218250295 188878628
" />
<path d="M217857438 188211961
L217643152 189926247
L217714580 190116723
L217893152 190211961
L218083628 190211961
" />
<path d="M220274104 190211961
L220440771 188878628
" />
<path d="M220416961 189069104
L220524104 188973866
L220726485 188878628
L221012199 188878628
L221190771 188973866
L221262199 189164342
L221131247 190211961
" />
<path d="M221262199 189164342
L221381247 188973866
L221583628 188878628
L221869342 188878628
L222047914 188973866
L222119342 189164342
L221988390 190211961
" />
<path d="M223226485 190211961
L223047914 190116723
L222964580 190021485
L222893152 189831009
L222964580 189259580
L223083628 189069104
L223190771 188973866
L223393152 188878628
L223678866 188878628
L223857438 188973866
L223940771 189069104
L224012199 189259580
L223940771 189831009
L223821723 190021485
L223714580 190116723
L223512199 190211961
L223226485 190211961
" />
<path d="M225607438 190211961
L225857438 188211961
" />
<path d="M225619342 190116723
L225416961 190211961
L225036009 190211961
L224857438 190116723
L224774104 190021485
L224702676 189831009
L224774104 189259580
L224893152 189069104
L225000295 188973866
L225202676 188878628
L225583628 188878628
L225762199 188973866
" />
<path d="M227583628 188878628
L227416961 190211961
" />
<path d="M226726485 188878628
L226595533 189926247
L226666961 190116723
L226845533 190211961
L227131247 190211961
L227333628 190116723
L227440771 190021485
" />
<path d="M228655057 190211961
L228476485 190116723
L228405057 189926247
L228619342 188211961
" />
<path d="M230190771 190116723
L229988390 190211961
L229607438 190211961
L229428866 190116723
L229357438 189926247
L229452676 189164342
L229571723 188973866
L229774104 188878628
L230155057 188878628
L230333628 188973866
L230405057 189164342
L230381247 189354819
L229405057 189545295
" />
</g></g>
<g style="fill:#000000; fill-opacity:0.0; 
stroke:#000000; stroke-width:21200.000000; stroke-opacity:1; 
stroke-linecap:round; stroke-linejoin:round;">
</g>
<g style="fill:#000000; fill-opacity:0.0; 
stroke:#000000; stroke-width:150000.000000; stroke-opacity:1; 
stroke-linecap:round; stroke-linejoin:round;">
<text x="178002200.000000" y="186457200.000000"
textLength="29591429.000000" font-size="2000000.000000" lengthAdjust="spacingAndGlyphs"
text-anchor="start" opacity="0">File: Pragmatic.kicad_pcb</text>
<g class="stroked-text"><desc>File: Pragmatic.kicad_pcb</desc>
<path d="M178934342 185600057
L178434342 185600057
" />
<path d="M178434342 186385771
L178434342 184885771
L179148628 184885771
" />
<path d="M179720057 186385771
L179720057 185385771
" />
<path d="M179720057 184885771
L179648628 184957200
L179720057 185028628
L179791485 184957200
L179720057 184885771
L179720057 185028628
" />
<path d="M180648628 186385771
L180505771 186314342
L180434342 186171485
L180434342 184885771
" />
<path d="M181791485 186314342
L181648628 186385771
L181362914 186385771
L181220057 186314342
L181148628 186171485
L181148628 185600057
L181220057 185457200
L181362914 185385771
L181648628 185385771
L181791485 185457200
L181862914 185600057
L181862914 185742914
L181148628 185885771
" />
<path d="M182505771 186242914
L182577200 186314342
L182505771 186385771
L182434342 186314342
L182505771 186242914
L182505771 186385771
" />
<path d="M182505771 185457200
L182577200 185528628
L182505771 185600057
L182434342 185528628
L182505771 185457200
L182505771 185600057
" />
<path d="M184362914 186385771
L184362914 184885771
L184934342 184885771
L185077200 184957200
L185148628 185028628
L185220057 185171485
L185220057 185385771
L185148628 185528628
L185077200 185600057
L184934342 185671485
L184362914 185671485
" />
<path d="M185862914 186385771
L185862914 185385771
" />
<path d="M185862914 185671485
L185934342 185528628
L186005771 185457200
L186148628 185385771
L186291485 185385771
" />
<path d="M187434342 186385771
L187434342 185600057
L187362914 185457200
L187220057 185385771
L186934342 185385771
L186791485 185457200
" />
<path d="M187434342 186314342
L187291485 186385771
L186934342 186385771
L186791485 186314342
L186720057 186171485
L186720057 186028628
L186791485 185885771
L186934342 185814342
L187291485 185814342
L187434342 185742914
" />
<path d="M188791485 185385771
L188791485 186600057
L188720057 186742914
L188648628 186814342
L188505771 186885771
L188291485 186885771
L188148628 186814342
" />
<path d="M188791485 186314342
L188648628 186385771
L188362914 186385771
L188220057 186314342
L188148628 186242914
L188077200 186100057
L188077200 185671485
L188148628 185528628
L188220057 185457200
L188362914 185385771
L188648628 185385771
L188791485 185457200
" />
<path d="M189505771 186385771
L189505771 185385771
" />
<path d="M189505771 185528628
L189577200 185457200
L189720057 185385771
L189934342 185385771
L190077200 185457200
L190148628 185600057
L190148628 186385771
" />
<path d="M190148628 185600057
L190220057 185457200
L190362914 185385771
L190577200 185385771
L190720057 185457200
L190791485 185600057
L190791485 186385771
" />
<path d="M192148628 186385771
L192148628 185600057
L192077200 185457200
L191934342 185385771
L191648628 185385771
L191505771 185457200
" />
<path d="M192148628 186314342
L192005771 186385771
L191648628 186385771
L191505771 186314342
L191434342 186171485
L191434342 186028628
L191505771 185885771
L191648628 185814342
L192005771 185814342
L192148628 185742914
" />
<path d="M192648628 185385771
L193220057 185385771
" />
<path d="M192862914 184885771
L192862914 186171485
L192934342 186314342
L193077200 186385771
L193220057 186385771
" />
<path d="M193720057 186385771
L193720057 185385771
" />
<path d="M193720057 184885771
L193648628 184957200
L193720057 185028628
L193791485 184957200
L193720057 184885771
L193720057 185028628
" />
<path d="M195077200 186314342
L194934342 186385771
L194648628 186385771
L194505771 186314342
L194434342 186242914
L194362914 186100057
L194362914 185671485
L194434342 185528628
L194505771 185457200
L194648628 185385771
L194934342 185385771
L195077200 185457200
" />
<path d="M195720057 186242914
L195791485 186314342
L195720057 186385771
L195648628 186314342
L195720057 186242914
L195720057 186385771
" />
<path d="M196434342 186385771
L196434342 184885771
" />
<path d="M196577200 185814342
L197005771 186385771
" />
<path d="M197005771 185385771
L196434342 185957200
" />
<path d="M197648628 186385771
L197648628 185385771
" />
<path d="M197648628 184885771
L197577200 184957200
L197648628 185028628
L197720057 184957200
L197648628 184885771
L197648628 185028628
" />
<path d="M199005771 186314342
L198862914 186385771
L198577200 186385771
L198434342 186314342
L198362914 186242914
L198291485 186100057
L198291485 185671485
L198362914 185528628
L198434342 185457200
L198577200 185385771
L198862914 185385771
L199005771 185457200
" />
<path d="M200291485 186385771
L200291485 185600057
L200220057 185457200
L200077200 185385771
L199791485 185385771
L199648628 185457200
" />
<path d="M200291485 186314342
L200148628 186385771
L199791485 186385771
L199648628 186314342
L199577200 186171485
L199577200 186028628
L199648628 185885771
L199791485 185814342
L200148628 185814342
L200291485 185742914
" />
<path d="M201648628 186385771
L201648628 184885771
" />
<path d="M201648628 186314342
L201505771 186385771
L201220057 186385771
L201077200 186314342
L201005771 186242914
L200934342 186100057
L200934342 185671485
L201005771 185528628
L201077200 185457200
L201220057 185385771
L201505771 185385771
L201648628 185457200
" />
<path d="M202005771 186528628
L203148628 186528628
" />
<path d="M203505771 185385771
L203505771 186885771
" />
<path d="M203505771 185457200
L203648628 185385771
L203934342 185385771
L204077200 185457200
L204148628 185528628
L204220057 185671485
L204220057 186100057
L204148628 186242914
L204077200 186314342
L203934342 186385771
L203648628 186385771
L203505771 186314342
" />
<path d="M205505771 186314342
L205362914 186385771
L205077200 186385771
L204934342 186314342
L204862914 186242914
L204791485 186100057
L204791485 185671485
L204862914 185528628
L204934342 185457200
L205077200 185385771
L205362914 185385771
L205505771 185457200
" />
<path d="M206148628 186385771
L206148628 184885771
" />
<path d="M206148628 185457200
L206291485 185385771
L206577200 185385771
L206720057 185457200
L206791485 185528628
L206862914 185671485
L206862914 186100057
L206791485 186242914
L206720057 186314342
L206577200 186385771
L206291485 186385771
L206148628 186314342
" />
</g></g>
<g style="fill:#000000; fill-opacity:0.0; 
stroke:#000000; stroke-width:21200.000000; stroke-opacity:1; 
stroke-linecap:round; stroke-linejoin:round;">
</g>
<g style="fill:#000000; fill-opacity:0.0; 
stroke:#000000; stroke-width:150000.000000; stroke-opacity:1; 
stroke-linecap:round; stroke-linejoin:round;">
<path d="M177002200 181507200
L285002200 181507200
" />
</g>
<g style="fill:#000000; fill-opacity:0.0; 
stroke:#000000; stroke-width:21200.000000; stroke-opacity:1; 
stroke-linecap:round; stroke-linejoin:round;">
</g>
<g style="fill:#000000; fill-opacity:0.0; 
stroke:#000000; stroke-width:150000.000000; stroke-opacity:1; 
stroke-linecap:round; stroke-linejoin:round;">
<text x="178002200.000000" y="183757200.000000"
textLength="8221429.000000" font-size="2000000.000000" lengthAdjust="spacingAndGlyphs"
text-anchor="start" opacity="0">Sheet: </text>
<g class="stroked-text"><desc>Sheet: </desc>
<path d="M178362914 183614342
L178577200 183685771
L178934342 183685771
L179077200 183614342
L179148628 183542914
L179220057 183400057
L179220057 183257200
L179148628 183114342
L179077200 183042914
L178934342 182971485
L178648628 182900057
L178505771 182828628
L178434342 182757200
L178362914 182614342
L178362914 182471485
L178434342 182328628
L178505771 182257200
L178648628 182185771
L179005771 182185771
L179220057 182257200
" />
<path d="M179862914 183685771
L179862914 182185771
" />
<path d="M180505771 183685771
L180505771 182900057
L180434342 182757200
L180291485 182685771
L180077200 182685771
L179934342 182757200
L179862914 182828628
" />
<path d="M181791485 183614342
L181648628 183685771
L181362914 183685771
L181220057 183614342
L181148628 183471485
L181148628 182900057
L181220057 182757200
L181362914 182685771
L181648628 182685771
L181791485 182757200
L181862914 182900057
L181862914 183042914
L181148628 183185771
" />
<path d="M183077200 183614342
L182934342 183685771
L182648628 183685771
L182505771 183614342
L182434342 183471485
L182434342 182900057
L182505771 182757200
L182648628 182685771
L182934342 182685771
L183077200 182757200
L183148628 182900057
L183148628 183042914
L182434342 183185771
" />
<path d="M183577200 182685771
L184148628 182685771
" />
<path d="M183791485 182185771
L183791485 183471485
L183862914 183614342
L184005771 183685771
L184148628 183685771
" />
<path d="M184648628 183542914
L184720057 183614342
L184648628 183685771
L184577200 183614342
L184648628 183542914
L184648628 183685771
" />
<path d="M184648628 182757200
L184720057 182828628
L184648628 182900057
L184577200 182828628
L184648628 182757200
L184648628 182900057
" />
</g></g>
<g style="fill:#000000; fill-opacity:0.0; 
stroke:#000000; stroke-width:21200.000000; stroke-opacity:1; 
stroke-linecap:round; stroke-linejoin:round;">
</g>
<g style="fill:#000000; fill-opacity:0.0; 
stroke:#000000; stroke-width:300000.000000; stroke-opacity:1; 
stroke-linecap:round; stroke-linejoin:round;">
<text x="178002200.000000" y="180757200.000000"
textLength="11078571.000000" font-size="2000000.000000" lengthAdjust="spacingAndGlyphs"
text-anchor="start" opacity="0">James Sa</text>
<g class="stroked-text"><desc>James Sa</desc>
<path d="M178982914 179185771
L178982914 180257200
L178911485 180471485
L178768628 180614342
L178554342 180685771
L178411485 180685771
" />
<path d="M180340057 180685771
L180340057 179900057
L180268628 179757200
L180125771 179685771
L179840057 179685771
L179697200 179757200
" />
<path d="M180340057 180614342
L180197200 180685771
L179840057 180685771
L179697200 180614342
L179625771 180471485
L179625771 180328628
L179697200 180185771
L179840057 180114342
L180197200 180114342
L180340057 180042914
" />
<path d="M181054342 180685771
L181054342 179685771
" />
<path d="M181054342 179828628
L181125771 179757200
L181268628 179685771
L181482914 179685771
L181625771 179757200
L181697200 179900057
L181697200 180685771
" />
<path d="M181697200 179900057
L181768628 179757200
L181911485 179685771
L182125771 179685771
L182268628 179757200
L182340057 179900057
L182340057 180685771
" />
<path d="M183625771 180614342
L183482914 180685771
L183197200 180685771
L183054342 180614342
L182982914 180471485
L182982914 179900057
L183054342 179757200
L183197200 179685771
L183482914 179685771
L183625771 179757200
L183697200 179900057
L183697200 180042914
L182982914 180185771
" />
<path d="M184268628 180614342
L184411485 180685771
L184697200 180685771
L184840057 180614342
L184911485 180471485
L184911485 180400057
L184840057 180257200
L184697200 180185771
L184482914 180185771
L184340057 180114342
L184268628 179971485
L184268628 179900057
L184340057 179757200
L184482914 179685771
L184697200 179685771
L184840057 179757200
" />
<path d="M186625771 180614342
L186840057 180685771
L187197200 180685771
L187340057 180614342
L187411485 180542914
L187482914 180400057
L187482914 180257200
L187411485 180114342
L187340057 180042914
L187197200 179971485
L186911485 179900057
L186768628 179828628
L186697200 179757200
L186625771 179614342
L186625771 179471485
L186697200 179328628
L186768628 179257200
L186911485 179185771
L187268628 179185771
L187482914 179257200
" />
<path d="M188768628 180685771
L188768628 179900057
L188697200 179757200
L188554342 179685771
L188268628 179685771
L188125771 179757200
" />
<path d="M188768628 180614342
L188625771 180685771
L188268628 180685771
L188125771 180614342
L188054342 180471485
L188054342 180328628
L188125771 180185771
L188268628 180114342
L188625771 180114342
L188768628 180042914
" />
</g></g>
<g style="fill:#000000; fill-opacity:0.0; 
stroke:#000000; stroke-width:21200.000000; stroke-opacity:1; 
stroke-linecap:round; stroke-linejoin:round;">
</g>
<g style="fill:#000000; fill-opacity:0.0; 
stroke:#000000; stroke-width:150000.000000; stroke-opacity:1; 
stroke-linecap:round; stroke-linejoin:round;">
<text x="178002200.000000" y="177757200.000000"
textLength="390000.000000" font-size="2000000.000000" lengthAdjust="spacingAndGlyphs"
text-anchor="start" opacity="0"></text>
<g class="stroked-text"><desc></desc>
</g></g>
<g style="fill:#000000; fill-opacity:0.0; 
stroke:#000000; stroke-width:21200.000000; stroke-opacity:1; 
stroke-linecap:round; stroke-linejoin:round;">
</g>
<g style="fill:#000000; fill-opacity:0.0; 
stroke:#000000; stroke-width:150000.000000; stroke-opacity:1; 
stroke-linecap:round; stroke-linejoin:round;">
<text x="178002200.000000" y="174757200.000000"
textLength="150000.000000" font-size="2000000.000000" lengthAdjust="spacingAndGlyphs"
text-anchor="start" opacity="0"></text>
<g class="stroked-text"><desc></desc>
</g></g>
<g style="fill:#000000; fill-opacity:0.0; 
stroke:#000000; stroke-width:21200.000000; stroke-opacity:1; 
stroke-linecap:round; stroke-linejoin:round;">
</g>
<g style="fill:#000000; fill-opacity:0.0; 
stroke:#000000; stroke-width:150000.000000; stroke-opacity:1; 
stroke-linecap:round; stroke-linejoin:round;">
<text x="178002200.000000" y="171757200.000000"
textLength="150000.000000" font-size="2000000.000000" lengthAdjust="spacingAndGlyphs"
text-anchor="start" opacity="0"></text>
<g class="stroked-text"><desc></desc>
</g></g>
<g style="fill:#000000; fill-opacity:0.0; 
stroke:#000000; stroke-width:21200.000000; stroke-opacity:1; 
stroke-linecap:round; stroke-linejoin:round;">
</g>
<g style="fill:#000000; fill-opacity:0.0; 
stroke:#000000; stroke-width:150000.000000; stroke-opacity:1; 
stroke-linecap:round; stroke-linejoin:round;">
<text x="178002200.000000" y="168757200.000000"
textLength="150000.000000" font-size="2000000.000000" lengthAdjust="spacingAndGlyphs"
text-anchor="start" opacity="0"></text>
<g class="stroked-text"><desc></desc>
</g></g>
<g style="fill:#000000; fill-opacity:0.0; 
stroke:#000000; stroke-width:21200.000000; stroke-opacity:1; 
stroke-linecap:round; stroke-linejoin:round;">
</g>
<g style="fill:#000000; fill-opacity:0.0; 
stroke:#000000; stroke-width:150000.000000; stroke-opacity:1; 
stroke-linecap:round; stroke-linejoin:round;">
<path d="M197002200 191507200
L197002200 194507200
" />
</g>
<g style="fill:#000000; fill-opacity:0.0; 
stroke:#000000; stroke-width:21200.000000; stroke-opacity:1; 
stroke-linecap:round; stroke-linejoin:round;">
</g>
<g style="fill:#000000; fill-opacity:0.0; 
stroke:#000000; stroke-width:150000.000000; stroke-opacity:1; 
stroke-linecap:round; stroke-linejoin:round;">
<path d="M261002200 191507200
L261002200 198007200
" />
</g>
<g style="fill:#D0D2CD; fill-opacity:0.0; 
stroke:#D0D2CD; stroke-width:150000.000000; stroke-opacity:1; 
stroke-linecap:round; stroke-linejoin:round;">
</g>
<g style="fill:#D0D2CD; fill-opacity:0.0; 
stroke:#D0D2CD; stroke-width:120000.000000; stroke-opacity:1; 
stroke-linecap:round; stroke-linejoin:round;">
<path d="M83185000 45085000
L45085000 64135000
" />
<path d="M95250000 126365000
L114300000 145415000
" />
<path d="M95250000 126365000
L47625000 126365000
" />
<path d="M145415000 114300000
L145415000 57150000
" />
<path d="M154940000 123825000
L145415000 114300000
" />
<path d="M107315000 52070000
L107315000 47625000
" />
<path d="M45085000 64135000
L45085000 123825000
" />
<path d="M107315000.000000 52070000.000000 A2540000.000000 2540000.000000 0.0 0 0 109855000.000000 54610000.000000" />
<path d="M107315000.000000 47625000.000000 A2540000.000000 2540000.000000 0.0 0 0 104775000.000000 45085000.000000" />
<path d="M45085000.000000 123825000.000000 A2540000.000000 2540000.000000 0.0 0 0 47625000.000000 126365000.000000" />
<path d="M145415000.000000 57150000.000000 A2540000.000000 2540000.000000 0.0 0 0 142875000.000000 54610000.000000" />
<path d="M109855000 54610000
L142875000 54610000
" />
<path d="M152400000.000000 145415000.000000 A2540000.000000 2540000.000000 0.0 0 0 154940000.000000 142875000.000000" />
<path d="M154940000 123825000
L154940000 142875000
" />
<path d="M104775000 45085000
L83185000 45085000
" />
<path d="M152400000 145415000
L114300000 145415000
" />
<path d="M51150000 69200000
L63150000 69200000
" />
<path d="M51150000 83200000
L63150000 83200000
" />
<path d="M64150000 82200000
L64150000 70200000
" />
<path d="M50150000 82200000
L50150000 70200000
" />
<path d="M51150000.000000 69200000.000001 A999999.000000 999999.000000 0.0 0 0 50150000.000000 70200000.000000" />
<path d="M64150000.000000 70200000.000000 A1000000.000000 1000000.000000 0.0 0 0 63150000.000000 69200000.000000" />
<path d="M50150000.000000 82200000.000000 A999999.000000 999999.000000 0.0 0 0 51150000.000000 83199999.999999" />
<path d="M63150000.000000 83200000.000000 A1000000.000000 1000000.000000 0.0 0 0 64150000.000000 82200000.000000" />
<path d="M51150000 88250000
L63150000 88250000
" />
<path d="M64150000 101250000
L64150000 89250000
" />
<path d="M50150000 101250000
L50150000 89250000
" />
<path d="M51150000 102250000
L63150000 102250000
" />
<path d="M64150000.000000 89250000.000000 A1000000.000000 1000000.000000 0.0 0 0 63150000.000000 88250000.000000" />
<path d="M50150000.000000 101250000.000000 A999999.000000 999999.000000 0.0 0 0 51150000.000000 102249999.999999" />
<path d="M63150000.000000 102250000.000000 A1000000.000000 1000000.000000 0.0 0 0 64150000.000000 101250000.000000" />
<path d="M51150000.000000 88250000.000001 A999999.000000 999999.000000 0.0 0 0 50150000.000000 89250000.000000" />
<path d="M70200000 78725000
L82200000 78725000
" />
<path d="M83200000 91725000
L83200000 79725000
" />
<path d="M70200000 92725000
L82200000 92725000
" />
<path d="M69200000 91725000
L69200000 79725000
" />
<path d="M69200000.000001 91725000.000000 A999999.000000 999999.000000 0.0 0 0 70200000.000000 92724999.999999" />
<path d="M82200000.000000 92725000.000000 A1000000.000000 1000000.000000 0.0 0 0 83200000.000000 91725000.000000" />
<path d="M70200000.000000 78725000.000001 A999999.000000 999999.000000 0.0 0 0 69200000.000001 79725000.000000" />
<path d="M83200000.000000 79725000.000000 A1000000.000000 1000000.000000 0.0 0 0 82200000.000000 78725000.000000" />
<path d="M70200000 73675000
L82200000 73675000
" />
<path d="M70200000 59675000
L82200000 59675000
" />
<path d="M69200000 72675000
L69200000 60675000
" />
<path d="M83200000 72675000
L83200000 60675000
" />
<path d="M70200000.000000 59675000.000000 A999999.000000 999999.000000 0.0 0 0 69200000.000001 60675000.000000" />
<path d="M69200000.000001 72675000.000000 A999999.000000 999999.000000 0.0 0 0 70200000.000000 73674999.999999" />
<path d="M83200000.000000 60675000.000000 A1000000.000000 1000000.000000 0.0 0 0 82200000.000000 59675000.000000" />
<path d="M82200000.000000 73675000.000000 A1000000.000000 1000000.000000 0.0 0 0 83200000.000000 72675000.000000" />
<path d="M89250000 50150000
L101250000 50150000
" />
<path d="M88250000 63150000
L88250000 51150000
" />
<path d="M102250000 63150000
L102250000 51150000
" />
<path d="M89250000 64150000
L101250000 64150000
" />
<path d="M89250000.000000 50150000.000000 A999999.000000 999999.000000 0.0 0 0 88250000.000001 51150000.000000" />
<path d="M101250000.000000 64150000.000000 A1000000.000000 1000000.000000 0.0 0 0 102250000.000000 63150000.000000" />
<path d="M88250000.000001 63150000.000000 A999999.000000 999999.000000 0.0 0 0 89250000.000000 64150000.000000" />
<path d="M102250000.000000 51150000.000000 A1000000.000000 1000000.000000 0.0 0 0 101250000.000000 50150000.000000" />
<path d="M108300000 59675000
L120300000 59675000
" />
<path d="M108300000 73675000
L120300000 73675000
" />
<path d="M107300000 72675000
L107300000 60675000
" />
<path d="M121300000 72675000
L121300000 60675000
" />
<path d="M108300000.000000 59675000.000000 A999999.000000 999999.000000 0.0 0 0 107300000.000001 60675000.000000" />
<path d="M107300000.000001 72675000.000000 A999999.000000 999999.000000 0.0 0 0 108300000.000000 73674999.999999" />
<path d="M121300000.000000 60675000.000000 A1000000.000000 1000000.000000 0.0 0 0 120300000.000000 59675000.000000" />
<path d="M120300000.000000 73675000.000000 A1000000.000000 1000000.000000 0.0 0 0 121300000.000000 72675000.000000" />
<path d="M127350000 59675000
L139350000 59675000
" />
<path d="M127350000 73675000
L139350000 73675000
" />
<path d="M140350000 72675000
L140350000 60675000
" />
<path d="M126350000 72675000
L126350000 60675000
" />
<path d="M139350000.000000 73675000.000000 A1000000.000000 1000000.000000 0.0 0 0 140350000.000000 72675000.000000" />
<path d="M126350000.000001 72675000.000000 A999999.000000 999999.000000 0.0 0 0 127350000.000000 73674999.999999" />
<path d="M140350000.000000 60675000.000000 A1000000.000000 1000000.000000 0.0 0 0 139350000.000000 59675000.000000" />
<path d="M127350000.000000 59675000.000000 A999999.000000 999999.000000 0.0 0 0 126350000.000001 60675000.000000" />
<path d="M102250000 82200000
L102250000 70200000
" />
<path d="M89250000 69200000
L101250000 69200000
" />
<path d="M89250000 83200000
L101250000 83200000
" />
<path d="M88250000 82200000
L88250000 70200000
" />
<path d="M89250000.000000 69200000.000001 A999999.000000 999999.000000 0.0 0 0 88250000.000001 70200000.000000" />
<path d="M102250000.000000 70200000.000000 A1000000.000000 1000000.000000 0.0 0 0 101250000.000000 69200000.000000" />
<path d="M101250000.000000 83200000.000000 A1000000.000000 1000000.000000 0.0 0 0 102250000.000000 82200000.000000" />
<path d="M88250000.000001 82200000.000000 A999999.000000 999999.000000 0.0 0 0 89250000.000000 83199999.999999" />
<path d="M107300000 91725000
L107300000 79725000
" />
<path d="M108300000 92725000
L120300000 92725000
" />
<path d="M108300000 78725000
L120300000 78725000
" />
<path d="M121300000 91725000
L121300000 79725000
" />
<path d="M107300000.000001 91725000.000000 A999999.000000 999999.000000 0.0 0 0 108300000.000000 92724999.999999" />
<path d="M108300000.000000 78725000.000001 A999999.000000 999999.000000 0.0 0 0 107300000.000001 79725000.000000" />
<path d="M120300000.000000 92725000.000000 A1000000.000000 1000000.000000 0.0 0 0 121300000.000000 91725000.000000" />
<path d="M121300000.000000 79725000.000000 A1000000.000000 1000000.000000 0.0 0 0 120300000.000000 78725000.000000" />
<path d="M126350000 91725000
L126350000 79725000
" />
<path d="M127350000 78725000
L139350000 78725000
" />
<path d="M140350000 91725000
L140350000 79725000
" />
<path d="M127350000 92725000
L139350000 92725000
" />
<path d="M126350000.000001 91725000.000000 A999999.000000 999999.000000 0.0 0 0 127350000.000000 92724999.999999" />
<path d="M127350000.000000 78725000.000001 A999999.000000 999999.000000 0.0 0 0 126350000.000001 79725000.000000" />
<path d="M140350000.000000 79725000.000000 A1000000.000000 1000000.000000 0.0 0 0 139350000.000000 78725000.000000" />
<path d="M139350000.000000 92725000.000000 A1000000.000000 1000000.000000 0.0 0 0 140350000.000000 91725000.000000" />
<path d="M51150000 121300000
L63150000 121300000
" />
<path d="M50150000 120300000
L50150000 108300000
" />
<path d="M51150000 107300000
L63150000 107300000
" />
<path d="M64150000 120300000
L64150000 108300000
" />
<path d="M51150000.000000 107300000.000001 A999999.000000 999999.000000 0.0 0 0 50150000.000000 108300000.000000" />
<path d="M64150000.000000 108300000.000000 A1000000.000000 1000000.000000 0.0 0 0 63150000.000000 107300000.000000" />
<path d="M50150000.000000 120300000.000000 A999999.000000 999999.000000 0.0 0 0 51150000.000000 121299999.999999" />
<path d="M63150000.000000 121300000.000000 A1000000.000000 1000000.000000 0.0 0 0 64150000.000000 120300000.000000" />
<path d="M83200000 110775000
L83200000 98775000
" />
<path d="M69200000 110775000
L69200000 98775000
" />
<path d="M70200000 111775000
L82200000 111775000
" />
<path d="M70200000 97775000
L82200000 97775000
" />
<path d="M82200000.000000 111775000.000000 A1000000.000000 1000000.000000 0.0 0 0 83200000.000000 110775000.000000" />
<path d="M69200000.000001 110775000.000000 A999999.000000 999999.000000 0.0 0 0 70200000.000000 111774999.999999" />
<path d="M70200000.000000 97775000.000001 A999999.000000 999999.000000 0.0 0 0 69200000.000001 98775000.000000" />
<path d="M83200000.000000 98775000.000000 A1000000.000000 1000000.000000 0.0 0 0 82200000.000000 97775000.000000" />
<path d="M89250000 102250000
L101250000 102250000
" />
<path d="M89250000 88250000
L101250000 88250000
" />
<path d="M102250000 101250000
L102250000 89250000
" />
<path d="M88250000 101250000
L88250000 89250000
" />
<path d="M88250000.000001 101250000.000000 A999999.000000 999999.000000 0.0 0 0 89250000.000000 102249999.999999" />
<path d="M101250000.000000 102250000.000000 A1000000.000000 1000000.000000 0.0 0 0 102250000.000000 101250000.000000" />
<path d="M102250000.000000 89250000.000000 A1000000.000000 1000000.000000 0.0 0 0 101250000.000000 88250000.000000" />
<path d="M89250000.000000 88250000.000001 A999999.000000 999999.000000 0.0 0 0 88250000.000001 89250000.000000" />
<path d="M107300000 110775000
L107300000 98775000
" />
<path d="M121300000 110775000
L121300000 98775000
" />
<path d="M108300000 111775000
L120300000 111775000
" />
<path d="M108300000 97775000
L120300000 97775000
" />
<path d="M121300000.000000 98775000.000000 A1000000.000000 1000000.000000 0.0 0 0 120300000.000000 97775000.000000" />
<path d="M107300000.000001 110775000.000000 A999999.000000 999999.000000 0.0 0 0 108300000.000000 111774999.999999" />
<path d="M108300000.000000 97775000.000001 A999999.000000 999999.000000 0.0 0 0 107300000.000001 98775000.000000" />
<path d="M120300000.000000 111775000.000000 A1000000.000000 1000000.000000 0.0 0 0 121300000.000000 110775000.000000" />
<path d="M126350000 110775000
L126350000 98775000
" />
<path d="M127350000 97775000
L139350000 97775000
" />
<path d="M140350000 110775000
L140350000 98775000
" />
<path d="M127350000 111775000
L139350000 111775000
" />
<path d="M127350000.000000 97775000.000001 A999999.000000 999999.000000 0.0 0 0 126350000.000001 98775000.000000" />
<path d="M139350000.000000 111775000.000000 A1000000.000000 1000000.000000 0.0 0 0 140350000.000000 110775000.000000" />
<path d="M140350000.000000 98775000.000000 A1000000.000000 1000000.000000 0.0 0 0 139350000.000000 97775000.000000" />
<path d="M126350000.000001 110775000.000000 A999999.000000 999999.000000 0.0 0 0 127350000.000000 111774999.999999" />
<path d="M117825000 140350000
L129825000 140350000
" />
<path d="M117825000 126350000
L129825000 126350000
" />
<path d="M130825000 139350000
L130825000 127350000
" />
<path d="M116825000 139350000
L116825000 127350000
" />
<path d="M116825000.000001 139350000.000000 A999999.000000 999999.000000 0.0 0 0 117825000.000000 140349999.999999" />
<path d="M129825000.000000 140350000.000000 A1000000.000000 1000000.000000 0.0 0 0 130825000.000000 139350000.000000" />
<path d="M117825000.000000 126350000.000001 A999999.000000 999999.000000 0.0 0 0 116825000.000001 127350000.000000" />
<path d="M130825000.000000 127350000.000000 A1000000.000000 1000000.000000 0.0 0 0 129825000.000000 126350000.000000" />
<path d="M135875000.000001 139350000.000000 A999999.000000 999999.000000 0.0 0 0 136875000.000000 140349999.999999" />
<path d="M148875000.000000 140350000.000000 A1000000.000000 1000000.000000 0.0 0 0 149875000.000000 139350000.000000" />
<path d="M136875000.000000 126350000.000001 A999999.000000 999999.000000 0.0 0 0 135875000.000001 127350000.000000" />
<path d="M149875000.000000 127350000.000000 A1000000.000000 1000000.000000 0.0 0 0 148875000.000000 126350000.000000" />
<path d="M135875000 139350000
L135875000 127350000
" />
<path d="M136875000 126350000
L148875000 126350000
" />
<path d="M149875000 139350000
L149875000 127350000
" />
<path d="M136875000 140350000
L148875000 140350000
" />
<g >
</g>
<g >
</g>
<g >
</g>
<g >
</g>
<g >
</g>
<g >
</g>
<g >
</g>
<g >
</g>
<g >
</g>
<g >
</g>
<g >
</g>
<g >
</g>
<g >
</g>
<g >
</g>
<g >
</g>
<g >
</g>
<g >
</g>
<g >
</g>
<g >
</g>
<g >
</g>
<g >
</g>
<g >
</g>
<g >
</g>
<g >
</g>
<g >
</g>
</g> 
</svg>
