%TF.GenerationSoftware,KiCad,Pcbnew,7.0.2-0*%
%TF.CreationDate,2023-05-11T11:12:18+08:00*%
%TF.ProjectId,Input,496e7075-742e-46b6-9963-61645f706362,1*%
%TF.SameCoordinates,PX7bfa480PY6052340*%
%TF.FileFunction,Soldermask,Top*%
%TF.FilePolarity,Negative*%
%FSLAX46Y46*%
G04 Gerber Fmt 4.6, Leading zero omitted, Abs format (unit mm)*
G04 Created by KiCad (PCBNEW 7.0.2-0) date 2023-05-11 11:12:18*
%MOMM*%
%LPD*%
G01*
G04 APERTURE LIST*
G04 Aperture macros list*
%AMRoundRect*
0 Rectangle with rounded corners*
0 $1 Rounding radius*
0 $2 $3 $4 $5 $6 $7 $8 $9 X,Y pos of 4 corners*
0 Add a 4 corners polygon primitive as box body*
4,1,4,$2,$3,$4,$5,$6,$7,$8,$9,$2,$3,0*
0 Add four circle primitives for the rounded corners*
1,1,$1+$1,$2,$3*
1,1,$1+$1,$4,$5*
1,1,$1+$1,$6,$7*
1,1,$1+$1,$8,$9*
0 Add four rect primitives between the rounded corners*
20,1,$1+$1,$2,$3,$4,$5,0*
20,1,$1+$1,$4,$5,$6,$7,0*
20,1,$1+$1,$6,$7,$8,$9,0*
20,1,$1+$1,$8,$9,$2,$3,0*%
%AMRotRect*
0 Rectangle, with rotation*
0 The origin of the aperture is its center*
0 $1 length*
0 $2 width*
0 $3 Rotation angle, in degrees counterclockwise*
0 Add horizontal line*
21,1,$1,$2,0,0,$3*%
G04 Aperture macros list end*
%ADD10C,1.900000*%
%ADD11C,3.000000*%
%ADD12C,4.000000*%
%ADD13R,2.550000X2.500000*%
%ADD14C,3.200000*%
%ADD15R,1.400000X1.000000*%
%ADD16RotRect,1.400000X1.000000X15.000000*%
%ADD17R,1.270000X3.429000*%
%ADD18RoundRect,0.317500X-0.317500X-1.397000X0.317500X-1.397000X0.317500X1.397000X-0.317500X1.397000X0*%
%ADD19RotRect,2.550000X2.500000X195.000000*%
%ADD20C,1.500000*%
G04 APERTURE END LIST*
D10*
%TO.C,SW20*%
X13920000Y21000000D03*
D11*
X15190000Y23540000D03*
D12*
X19000000Y21000000D03*
D11*
X21540000Y26080000D03*
D10*
X24080000Y21000000D03*
%TD*%
D11*
%TO.C,SW17*%
X16460000Y26080000D03*
X22810000Y23540000D03*
D13*
X13158000Y26080000D03*
X26085000Y23540000D03*
%TD*%
D14*
%TO.C,H1*%
X38000000Y-26000000D03*
%TD*%
D11*
%TO.C,SW29*%
X16460000Y7080000D03*
X22810000Y4540000D03*
D13*
X13158000Y7080000D03*
X26085000Y4540000D03*
%TD*%
D15*
%TO.C,D27*%
X55225000Y-4000000D03*
X58775000Y-4000000D03*
%TD*%
%TO.C,D18*%
X-1775000Y10500000D03*
X1775000Y10500000D03*
%TD*%
D10*
%TO.C,SW22*%
X51920000Y21000000D03*
D11*
X53190000Y23540000D03*
D12*
X57000000Y21000000D03*
D11*
X59540000Y26080000D03*
D10*
X62080000Y21000000D03*
%TD*%
D15*
%TO.C,D21*%
X39775000Y18000000D03*
X36225000Y18000000D03*
%TD*%
D10*
%TO.C,SW44*%
X13920000Y-17000000D03*
D11*
X15190000Y-14460000D03*
D12*
X19000000Y-17000000D03*
D11*
X21540000Y-11920000D03*
D10*
X24080000Y-17000000D03*
%TD*%
D11*
%TO.C,SW15*%
X54460000Y26080000D03*
X60810000Y23540000D03*
D13*
X51158000Y26080000D03*
X64085000Y23540000D03*
%TD*%
D10*
%TO.C,SW36*%
X89920000Y-11500000D03*
D11*
X91190000Y-8960000D03*
D12*
X95000000Y-11500000D03*
D11*
X97540000Y-6420000D03*
D10*
X100080000Y-11500000D03*
%TD*%
D15*
%TO.C,D15*%
X55225000Y13000000D03*
X58775000Y13000000D03*
%TD*%
D10*
%TO.C,SW34*%
X51920000Y2000000D03*
D11*
X53190000Y4540000D03*
D12*
X57000000Y2000000D03*
D11*
X59540000Y7080000D03*
D10*
X62080000Y2000000D03*
%TD*%
D15*
%TO.C,D37*%
X93225000Y-36500000D03*
X96775000Y-36500000D03*
%TD*%
%TO.C,D52*%
X26725016Y-44000000D03*
X30275016Y-44000000D03*
%TD*%
D11*
%TO.C,SW26*%
X73460000Y-1920000D03*
X79810000Y-4460000D03*
D13*
X70158000Y-1920000D03*
X83085000Y-4460000D03*
%TD*%
D11*
%TO.C,SW21*%
X35460000Y29080000D03*
X41810000Y26540000D03*
D13*
X32158000Y29080000D03*
X45085000Y26540000D03*
%TD*%
D10*
%TO.C,SW19*%
X5080000Y19040000D03*
D11*
X3810000Y16500000D03*
D12*
X0Y19040000D03*
D11*
X-2540000Y13960000D03*
D10*
X-5080000Y19040000D03*
%TD*%
%TO.C,SW45*%
X32920000Y-14000000D03*
D11*
X34190000Y-11460000D03*
D12*
X38000000Y-14000000D03*
D11*
X40540000Y-8920000D03*
D10*
X43080000Y-14000000D03*
%TD*%
D11*
%TO.C,SW38*%
X73460000Y-20920000D03*
X79810000Y-23460000D03*
D13*
X70158000Y-20920000D03*
X83085000Y-23460000D03*
%TD*%
D16*
%TO.C,D54*%
X-11714518Y-44959404D03*
X-8285482Y-44040596D03*
%TD*%
D10*
%TO.C,SW33*%
X32920000Y5000000D03*
D11*
X34190000Y7540000D03*
D12*
X38000000Y5000000D03*
D11*
X40540000Y10080000D03*
D10*
X43080000Y5000000D03*
%TD*%
D11*
%TO.C,SW27*%
X54460000Y7080000D03*
X60810000Y4540000D03*
D13*
X51158000Y7080000D03*
X64085000Y4540000D03*
%TD*%
D10*
%TO.C,SW24*%
X89920000Y7500000D03*
D11*
X91190000Y10040000D03*
D12*
X95000000Y7500000D03*
D11*
X97540000Y12580000D03*
D10*
X100080000Y7500000D03*
%TD*%
%TO.C,SW47*%
X70920000Y-26000000D03*
D11*
X72190000Y-23460000D03*
D12*
X76000000Y-26000000D03*
D11*
X78540000Y-20920000D03*
D10*
X81080000Y-26000000D03*
%TD*%
D15*
%TO.C,D53*%
X7725000Y-44000000D03*
X11275000Y-44000000D03*
%TD*%
%TO.C,D39*%
X55225000Y-23000000D03*
X58775000Y-23000000D03*
%TD*%
D11*
%TO.C,SW52*%
X25960000Y-32920000D03*
X32310000Y-35460000D03*
D13*
X22658000Y-32920000D03*
X35585000Y-35460000D03*
%TD*%
D10*
%TO.C,SW32*%
X13920000Y2000000D03*
D11*
X15190000Y4540000D03*
D12*
X19000000Y2000000D03*
D11*
X21540000Y7080000D03*
D10*
X24080000Y2000000D03*
%TD*%
D15*
%TO.C,D42*%
X-1775000Y-25000000D03*
X1775000Y-25000000D03*
%TD*%
%TO.C,D30*%
X-1775000Y-6000000D03*
X1775000Y-6000000D03*
%TD*%
D11*
%TO.C,SW13*%
X92460000Y12580000D03*
X98810000Y10040000D03*
D13*
X89158000Y12580000D03*
X102085000Y10040000D03*
%TD*%
D15*
%TO.C,D28*%
X36225000Y-1000000D03*
X39775000Y-1000000D03*
%TD*%
D10*
%TO.C,SW35*%
X70920000Y-7000000D03*
D11*
X72190000Y-4460000D03*
D12*
X76000000Y-7000000D03*
D11*
X78540000Y-1920000D03*
D10*
X81080000Y-7000000D03*
%TD*%
%TO.C,SW43*%
X-5080000Y-19000000D03*
D11*
X-3810000Y-16460000D03*
D12*
X0Y-19000000D03*
D11*
X2540000Y-13920000D03*
D10*
X5080000Y-19000000D03*
%TD*%
%TO.C,SW31*%
X-5080000Y0D03*
D11*
X-3810000Y2540000D03*
D12*
X0Y0D03*
D11*
X2540000Y5080000D03*
D10*
X5080000Y0D03*
%TD*%
D11*
%TO.C,SW28*%
X35460000Y10080000D03*
X41810000Y7540000D03*
D13*
X32158000Y10080000D03*
X45085000Y7540000D03*
%TD*%
D14*
%TO.C,H2*%
X76000000Y-38000000D03*
%TD*%
D15*
%TO.C,D13*%
X93225000Y2000000D03*
X96775000Y2000000D03*
%TD*%
D11*
%TO.C,SW42*%
X-2540000Y-13920000D03*
X3810000Y-16460000D03*
D13*
X-5842000Y-13920000D03*
X7085000Y-16460000D03*
%TD*%
D11*
%TO.C,SW14*%
X73460000Y17080000D03*
X79810000Y14540000D03*
D13*
X70158000Y17080000D03*
X83085000Y14540000D03*
%TD*%
D11*
%TO.C,SW30*%
X-2540000Y5080000D03*
X3810000Y2540000D03*
D13*
X-5842000Y5080000D03*
X7085000Y2540000D03*
%TD*%
D14*
%TO.C,H3*%
X71000000Y23500000D03*
%TD*%
D17*
%TO.C,J1*%
X-3810000Y28722000D03*
D18*
X-1270000Y28849000D03*
X1270000Y28849000D03*
X3810000Y28849000D03*
%TD*%
D15*
%TO.C,D26*%
X74225000Y-13000000D03*
X77775000Y-13000000D03*
%TD*%
D11*
%TO.C,SW53*%
X6960000Y-32920000D03*
X13310000Y-35460000D03*
D13*
X3658000Y-32920000D03*
X16585000Y-35460000D03*
%TD*%
D14*
%TO.C,H4*%
X-9500000Y9500000D03*
%TD*%
D11*
%TO.C,SW18*%
X2540000Y13960000D03*
X-3810000Y16500000D03*
D13*
X5842000Y13960000D03*
X-7085000Y16500000D03*
%TD*%
D10*
%TO.C,SW23*%
X70920000Y12000000D03*
D11*
X72190000Y14540000D03*
D12*
X76000000Y12000000D03*
D11*
X78540000Y17080000D03*
D10*
X81080000Y12000000D03*
%TD*%
D11*
%TO.C,SW40*%
X35460000Y-8920000D03*
X41810000Y-11460000D03*
D13*
X32158000Y-8920000D03*
X45085000Y-11460000D03*
%TD*%
D11*
%TO.C,SW41*%
X16460000Y-11920000D03*
X22810000Y-14460000D03*
D13*
X13158000Y-11920000D03*
X26085000Y-14460000D03*
%TD*%
D10*
%TO.C,SW48*%
X89920000Y-30500000D03*
D11*
X91190000Y-27960000D03*
D12*
X95000000Y-30500000D03*
D11*
X97540000Y-25420000D03*
D10*
X100080000Y-30500000D03*
%TD*%
D15*
%TO.C,D14*%
X74225000Y6000000D03*
X77775000Y6000000D03*
%TD*%
%TO.C,D17*%
X17225000Y15000000D03*
X20775000Y15000000D03*
%TD*%
D11*
%TO.C,SW39*%
X54460000Y-11920000D03*
X60810000Y-14460000D03*
D13*
X51158000Y-11920000D03*
X64085000Y-14460000D03*
%TD*%
D15*
%TO.C,D40*%
X36225000Y-20000000D03*
X39775000Y-20000000D03*
%TD*%
D10*
%TO.C,SW46*%
X51920000Y-17000000D03*
D11*
X53190000Y-14460000D03*
D12*
X57000000Y-17000000D03*
D11*
X59540000Y-11920000D03*
D10*
X62080000Y-17000000D03*
%TD*%
D11*
%TO.C,SW25*%
X92460000Y-6420000D03*
X98810000Y-8960000D03*
D13*
X89158000Y-6420000D03*
X102085000Y-8960000D03*
%TD*%
D15*
%TO.C,D29*%
X17225000Y-4000000D03*
X20775000Y-4000000D03*
%TD*%
%TO.C,D25*%
X93225000Y-17500000D03*
X96775000Y-17500000D03*
%TD*%
D10*
%TO.C,SW16*%
X32920000Y24000000D03*
D11*
X34190000Y26540000D03*
D12*
X38000000Y24000000D03*
D11*
X40540000Y29080000D03*
D10*
X43080000Y24000000D03*
%TD*%
D11*
%TO.C,SW54*%
X-15403348Y-35885597D03*
X-8612319Y-36695548D03*
D19*
X-18592835Y-36740218D03*
X-5448912Y-35847915D03*
%TD*%
D11*
%TO.C,SW37*%
X92460000Y-25420000D03*
X98810000Y-27960000D03*
D13*
X89158000Y-25420000D03*
X102085000Y-27960000D03*
%TD*%
D15*
%TO.C,D38*%
X74225000Y-32000000D03*
X77775000Y-32000000D03*
%TD*%
%TO.C,D41*%
X17225000Y-23000000D03*
X20775000Y-23000000D03*
%TD*%
D10*
%TO.C,SW55*%
X-6728193Y-38820299D03*
D20*
X-7288430Y-38970414D03*
D11*
X-10496445Y-34570796D03*
D12*
X-11635096Y-40135100D03*
D11*
X-15972674Y-38667749D03*
D20*
X-15981762Y-41299786D03*
D10*
X-16541999Y-41449901D03*
%TD*%
%TO.C,SW56*%
X14580004Y-38000000D03*
D20*
X14000004Y-38000000D03*
D11*
X12040004Y-32920000D03*
D12*
X9500004Y-38000000D03*
D11*
X5690004Y-35460000D03*
D20*
X5000004Y-38000000D03*
D10*
X4420004Y-38000000D03*
%TD*%
%TO.C,SW57*%
X33580000Y-38000000D03*
D20*
X33000000Y-38000000D03*
D11*
X31040000Y-32920000D03*
D12*
X28500000Y-38000000D03*
D11*
X24690000Y-35460000D03*
D20*
X24000000Y-38000000D03*
D10*
X23420000Y-38000000D03*
%TD*%
M02*
