%TF.GenerationSoftware,KiCad,Pcbnew,7.0.1-0*%
%TF.CreationDate,2023-04-06T16:29:40+08:00*%
%TF.ProjectId,Input,496e7075-742e-46b6-9963-61645f706362,2*%
%TF.SameCoordinates,PX7bfa480PY6052340*%
%TF.FileFunction,Drillmap*%
%TF.FilePolarity,Positive*%
%FSLAX45Y45*%
G04 Gerber Fmt 4.5, Leading zero omitted, Abs format (unit mm)*
G04 Created by KiCad (PCBNEW 7.0.1-0) date 2023-04-06 16:29:40*
%MOMM*%
%LPD*%
G01*
G04 APERTURE LIST*
%ADD10C,0.100000*%
%ADD11C,0.200000*%
%ADD12C,0.170000*%
%ADD13C,0.300000*%
%ADD14C,0.320000*%
G04 APERTURE END LIST*
D10*
X2900000Y5000000D02*
X1000000Y4700000D01*
X-2162589Y-3310789D02*
G75*
G03*
X-2282123Y-3567134I68409J-187941D01*
G01*
X6600000Y4700000D02*
X4700000Y5000000D01*
X-750000Y4700000D02*
X-750000Y4700000D01*
X-950000Y4500000D02*
X-950000Y-2900000D01*
X1000000Y4700000D02*
X750000Y4700000D01*
X5650000Y-4500000D02*
X10450000Y-3850000D01*
X-200000Y-4500000D02*
X5650000Y-4500000D01*
X-750000Y4700000D02*
G75*
G03*
X-950000Y4500000I0J-200000D01*
G01*
X-1803299Y-4882706D02*
G75*
G03*
X-1546952Y-5002239I187939J68406D01*
G01*
X-1546952Y-5002239D02*
X-200000Y-4500000D01*
X-2162588Y-3310792D02*
X-950000Y-2900000D01*
X10450000Y3350000D02*
X6600000Y4700000D01*
X4700000Y5000000D02*
X2900000Y5000000D01*
X10450000Y-3850000D02*
X10450000Y3350000D01*
X-2282123Y-3567134D02*
X-1803294Y-4882704D01*
D11*
D12*
X-1751831Y-4003111D02*
X-1581831Y-4173111D01*
X-1581831Y-4003111D02*
X-1751831Y-4173111D01*
X-718169Y-3626889D02*
X-548170Y-3796889D01*
X-548170Y-3626889D02*
X-718169Y-3796889D01*
X-635000Y3685000D02*
X-465000Y3515000D01*
X-465000Y3685000D02*
X-635000Y3515000D01*
X-635000Y1885000D02*
X-465000Y1715000D01*
X-465000Y1885000D02*
X-635000Y1715000D01*
X-635000Y85000D02*
X-465000Y-85000D01*
X-465000Y85000D02*
X-635000Y-85000D01*
X-635000Y-1715000D02*
X-465000Y-1885000D01*
X-465000Y-1715000D02*
X-635000Y-1885000D01*
X315000Y-3515000D02*
X485000Y-3685000D01*
X485000Y-3515000D02*
X315000Y-3685000D01*
X465000Y3685000D02*
X635000Y3515000D01*
X635000Y3685000D02*
X465000Y3515000D01*
X465000Y1885000D02*
X635000Y1715000D01*
X635000Y1885000D02*
X465000Y1715000D01*
X465000Y85000D02*
X635000Y-85000D01*
X635000Y85000D02*
X465000Y-85000D01*
X465000Y-1715000D02*
X635000Y-1885000D01*
X635000Y-1715000D02*
X465000Y-1885000D01*
X1265000Y3885000D02*
X1435000Y3715000D01*
X1435000Y3885000D02*
X1265000Y3715000D01*
X1265000Y2085000D02*
X1435000Y1915000D01*
X1435000Y2085000D02*
X1265000Y1915000D01*
X1265000Y285000D02*
X1435000Y115000D01*
X1435000Y285000D02*
X1265000Y115000D01*
X1265000Y-1515000D02*
X1435000Y-1685000D01*
X1435000Y-1515000D02*
X1265000Y-1685000D01*
X1415000Y-3515000D02*
X1585000Y-3685000D01*
X1585000Y-3515000D02*
X1415000Y-3685000D01*
X2215000Y-3515000D02*
X2385000Y-3685000D01*
X2385000Y-3515000D02*
X2215000Y-3685000D01*
X2365000Y3885000D02*
X2535000Y3715000D01*
X2535000Y3885000D02*
X2365000Y3715000D01*
X2365000Y2085000D02*
X2535000Y1915000D01*
X2535000Y2085000D02*
X2365000Y1915000D01*
X2365000Y285000D02*
X2535000Y115000D01*
X2535000Y285000D02*
X2365000Y115000D01*
X2365000Y-1515000D02*
X2535000Y-1685000D01*
X2535000Y-1515000D02*
X2365000Y-1685000D01*
X3165000Y4185000D02*
X3335000Y4015000D01*
X3335000Y4185000D02*
X3165000Y4015000D01*
X3165000Y2385000D02*
X3335000Y2215000D01*
X3335000Y2385000D02*
X3165000Y2215000D01*
X3165000Y585000D02*
X3335000Y415000D01*
X3335000Y585000D02*
X3165000Y415000D01*
X3165000Y-1215000D02*
X3335000Y-1385000D01*
X3335000Y-1215000D02*
X3165000Y-1385000D01*
X3315000Y-3515000D02*
X3485000Y-3685000D01*
X3485000Y-3515000D02*
X3315000Y-3685000D01*
X4115000Y-3515000D02*
X4285000Y-3685000D01*
X4285000Y-3515000D02*
X4115000Y-3685000D01*
X4265000Y4185000D02*
X4435000Y4015000D01*
X4435000Y4185000D02*
X4265000Y4015000D01*
X4265000Y2385000D02*
X4435000Y2215000D01*
X4435000Y2385000D02*
X4265000Y2215000D01*
X4265000Y585000D02*
X4435000Y415000D01*
X4435000Y585000D02*
X4265000Y415000D01*
X4265000Y-1215000D02*
X4435000Y-1385000D01*
X4435000Y-1215000D02*
X4265000Y-1385000D01*
X5065000Y3885000D02*
X5235000Y3715000D01*
X5235000Y3885000D02*
X5065000Y3715000D01*
X5065000Y2085000D02*
X5235000Y1915000D01*
X5235000Y2085000D02*
X5065000Y1915000D01*
X5065000Y285000D02*
X5235000Y115000D01*
X5235000Y285000D02*
X5065000Y115000D01*
X5065000Y-1515000D02*
X5235000Y-1685000D01*
X5235000Y-1515000D02*
X5065000Y-1685000D01*
X5215000Y-3515000D02*
X5385000Y-3685000D01*
X5385000Y-3515000D02*
X5215000Y-3685000D01*
X6165000Y3885000D02*
X6335000Y3715000D01*
X6335000Y3885000D02*
X6165000Y3715000D01*
X6165000Y2085000D02*
X6335000Y1915000D01*
X6335000Y2085000D02*
X6165000Y1915000D01*
X6165000Y285000D02*
X6335000Y115000D01*
X6335000Y285000D02*
X6165000Y115000D01*
X6165000Y-1515000D02*
X6335000Y-1685000D01*
X6335000Y-1515000D02*
X6165000Y-1685000D01*
X6965000Y2985000D02*
X7135000Y2815000D01*
X7135000Y2985000D02*
X6965000Y2815000D01*
X6965000Y1185000D02*
X7135000Y1015000D01*
X7135000Y1185000D02*
X6965000Y1015000D01*
X6965000Y-615000D02*
X7135000Y-785000D01*
X7135000Y-615000D02*
X6965000Y-785000D01*
X6965000Y-2415000D02*
X7135000Y-2585000D01*
X7135000Y-2415000D02*
X6965000Y-2585000D01*
X8065000Y2985000D02*
X8235000Y2815000D01*
X8235000Y2985000D02*
X8065000Y2815000D01*
X8065000Y1185000D02*
X8235000Y1015000D01*
X8235000Y1185000D02*
X8065000Y1015000D01*
X8065000Y-615000D02*
X8235000Y-785000D01*
X8235000Y-615000D02*
X8065000Y-785000D01*
X8065000Y-2415000D02*
X8235000Y-2585000D01*
X8235000Y-2415000D02*
X8065000Y-2585000D01*
X8865000Y2535000D02*
X9035000Y2365000D01*
X9035000Y2535000D02*
X8865000Y2365000D01*
X8865000Y735000D02*
X9035000Y565000D01*
X9035000Y735000D02*
X8865000Y565000D01*
X8865000Y-1065000D02*
X9035000Y-1235000D01*
X9035000Y-1065000D02*
X8865000Y-1235000D01*
X8865000Y-2865000D02*
X9035000Y-3035000D01*
X9035000Y-2865000D02*
X8865000Y-3035000D01*
X9965000Y2535000D02*
X10135000Y2365000D01*
X10135000Y2535000D02*
X9965000Y2365000D01*
X9965000Y735000D02*
X10135000Y565000D01*
X10135000Y735000D02*
X9965000Y565000D01*
X9965000Y-1065000D02*
X10135000Y-1235000D01*
X10135000Y-1065000D02*
X9965000Y-1235000D01*
X9965000Y-2865000D02*
X10135000Y-3035000D01*
X10135000Y-2865000D02*
X9965000Y-3035000D01*
D13*
X-1343299Y-4418696D02*
G75*
G03*
X-1343299Y-4418696I-150000J0D01*
G01*
X-798208Y-4454419D02*
G75*
G03*
X-798208Y-4454419I-150000J0D01*
G01*
X-403607Y-4076676D02*
G75*
G03*
X-403607Y-4076676I-150000J0D01*
G01*
X-350000Y3230000D02*
G75*
G03*
X-350000Y3230000I-150000J0D01*
G01*
X-350000Y1430000D02*
G75*
G03*
X-350000Y1430000I-150000J0D01*
G01*
X-350000Y-370000D02*
G75*
G03*
X-350000Y-370000I-150000J0D01*
G01*
X-350000Y-2170000D02*
G75*
G03*
X-350000Y-2170000I-150000J0D01*
G01*
X150000Y3010000D02*
G75*
G03*
X150000Y3010000I-150000J0D01*
G01*
X150000Y1210000D02*
G75*
G03*
X150000Y1210000I-150000J0D01*
G01*
X150000Y-590000D02*
G75*
G03*
X150000Y-590000I-150000J0D01*
G01*
X150000Y-2390000D02*
G75*
G03*
X150000Y-2390000I-150000J0D01*
G01*
X600000Y-3970000D02*
G75*
G03*
X600000Y-3970000I-150000J0D01*
G01*
X650000Y3230000D02*
G75*
G03*
X650000Y3230000I-150000J0D01*
G01*
X650000Y1430000D02*
G75*
G03*
X650000Y1430000I-150000J0D01*
G01*
X650000Y-370000D02*
G75*
G03*
X650000Y-370000I-150000J0D01*
G01*
X650000Y-2170000D02*
G75*
G03*
X650000Y-2170000I-150000J0D01*
G01*
X1100000Y-4190000D02*
G75*
G03*
X1100000Y-4190000I-150000J0D01*
G01*
X1550000Y3430000D02*
G75*
G03*
X1550000Y3430000I-150000J0D01*
G01*
X1550000Y1630000D02*
G75*
G03*
X1550000Y1630000I-150000J0D01*
G01*
X1550000Y-170000D02*
G75*
G03*
X1550000Y-170000I-150000J0D01*
G01*
X1550000Y-1970000D02*
G75*
G03*
X1550000Y-1970000I-150000J0D01*
G01*
X1600000Y-3970000D02*
G75*
G03*
X1600000Y-3970000I-150000J0D01*
G01*
X2050000Y3210000D02*
G75*
G03*
X2050000Y3210000I-150000J0D01*
G01*
X2050000Y1410000D02*
G75*
G03*
X2050000Y1410000I-150000J0D01*
G01*
X2050000Y-390000D02*
G75*
G03*
X2050000Y-390000I-150000J0D01*
G01*
X2050000Y-2190000D02*
G75*
G03*
X2050000Y-2190000I-150000J0D01*
G01*
X2500000Y-3970000D02*
G75*
G03*
X2500000Y-3970000I-150000J0D01*
G01*
X2550000Y3430000D02*
G75*
G03*
X2550000Y3430000I-150000J0D01*
G01*
X2550000Y1630000D02*
G75*
G03*
X2550000Y1630000I-150000J0D01*
G01*
X2550000Y-170000D02*
G75*
G03*
X2550000Y-170000I-150000J0D01*
G01*
X2550000Y-1970000D02*
G75*
G03*
X2550000Y-1970000I-150000J0D01*
G01*
X3000000Y-4190000D02*
G75*
G03*
X3000000Y-4190000I-150000J0D01*
G01*
X3450000Y3730000D02*
G75*
G03*
X3450000Y3730000I-150000J0D01*
G01*
X3450000Y1930000D02*
G75*
G03*
X3450000Y1930000I-150000J0D01*
G01*
X3450000Y130000D02*
G75*
G03*
X3450000Y130000I-150000J0D01*
G01*
X3450000Y-1670000D02*
G75*
G03*
X3450000Y-1670000I-150000J0D01*
G01*
X3500000Y-3970000D02*
G75*
G03*
X3500000Y-3970000I-150000J0D01*
G01*
X3950000Y3510000D02*
G75*
G03*
X3950000Y3510000I-150000J0D01*
G01*
X3950000Y1710000D02*
G75*
G03*
X3950000Y1710000I-150000J0D01*
G01*
X3950000Y-90000D02*
G75*
G03*
X3950000Y-90000I-150000J0D01*
G01*
X3950000Y-1890000D02*
G75*
G03*
X3950000Y-1890000I-150000J0D01*
G01*
X4400000Y-3970000D02*
G75*
G03*
X4400000Y-3970000I-150000J0D01*
G01*
X4450000Y3730000D02*
G75*
G03*
X4450000Y3730000I-150000J0D01*
G01*
X4450000Y1930000D02*
G75*
G03*
X4450000Y1930000I-150000J0D01*
G01*
X4450000Y130000D02*
G75*
G03*
X4450000Y130000I-150000J0D01*
G01*
X4450000Y-1670000D02*
G75*
G03*
X4450000Y-1670000I-150000J0D01*
G01*
X4900000Y-4190000D02*
G75*
G03*
X4900000Y-4190000I-150000J0D01*
G01*
X5350000Y3430000D02*
G75*
G03*
X5350000Y3430000I-150000J0D01*
G01*
X5350000Y1630000D02*
G75*
G03*
X5350000Y1630000I-150000J0D01*
G01*
X5350000Y-170000D02*
G75*
G03*
X5350000Y-170000I-150000J0D01*
G01*
X5350000Y-1970000D02*
G75*
G03*
X5350000Y-1970000I-150000J0D01*
G01*
X5400000Y-3970000D02*
G75*
G03*
X5400000Y-3970000I-150000J0D01*
G01*
X5850000Y3210000D02*
G75*
G03*
X5850000Y3210000I-150000J0D01*
G01*
X5850000Y1410000D02*
G75*
G03*
X5850000Y1410000I-150000J0D01*
G01*
X5850000Y-390000D02*
G75*
G03*
X5850000Y-390000I-150000J0D01*
G01*
X5850000Y-2190000D02*
G75*
G03*
X5850000Y-2190000I-150000J0D01*
G01*
X6350000Y3430000D02*
G75*
G03*
X6350000Y3430000I-150000J0D01*
G01*
X6350000Y1630000D02*
G75*
G03*
X6350000Y1630000I-150000J0D01*
G01*
X6350000Y-170000D02*
G75*
G03*
X6350000Y-170000I-150000J0D01*
G01*
X6350000Y-1970000D02*
G75*
G03*
X6350000Y-1970000I-150000J0D01*
G01*
X7250000Y2530000D02*
G75*
G03*
X7250000Y2530000I-150000J0D01*
G01*
X7250000Y730000D02*
G75*
G03*
X7250000Y730000I-150000J0D01*
G01*
X7250000Y-1070000D02*
G75*
G03*
X7250000Y-1070000I-150000J0D01*
G01*
X7250000Y-2870000D02*
G75*
G03*
X7250000Y-2870000I-150000J0D01*
G01*
X7750000Y2310000D02*
G75*
G03*
X7750000Y2310000I-150000J0D01*
G01*
X7750000Y510000D02*
G75*
G03*
X7750000Y510000I-150000J0D01*
G01*
X7750000Y-1290000D02*
G75*
G03*
X7750000Y-1290000I-150000J0D01*
G01*
X7750000Y-3090000D02*
G75*
G03*
X7750000Y-3090000I-150000J0D01*
G01*
X8250000Y2530000D02*
G75*
G03*
X8250000Y2530000I-150000J0D01*
G01*
X8250000Y730000D02*
G75*
G03*
X8250000Y730000I-150000J0D01*
G01*
X8250000Y-1070000D02*
G75*
G03*
X8250000Y-1070000I-150000J0D01*
G01*
X8250000Y-2870000D02*
G75*
G03*
X8250000Y-2870000I-150000J0D01*
G01*
X9150000Y2080000D02*
G75*
G03*
X9150000Y2080000I-150000J0D01*
G01*
X9150000Y280000D02*
G75*
G03*
X9150000Y280000I-150000J0D01*
G01*
X9150000Y-1520000D02*
G75*
G03*
X9150000Y-1520000I-150000J0D01*
G01*
X9150000Y-3320000D02*
G75*
G03*
X9150000Y-3320000I-150000J0D01*
G01*
X9650000Y1860000D02*
G75*
G03*
X9650000Y1860000I-150000J0D01*
G01*
X9650000Y60000D02*
G75*
G03*
X9650000Y60000I-150000J0D01*
G01*
X9650000Y-1740000D02*
G75*
G03*
X9650000Y-1740000I-150000J0D01*
G01*
X9650000Y-3540000D02*
G75*
G03*
X9650000Y-3540000I-150000J0D01*
G01*
X10150000Y2080000D02*
G75*
G03*
X10150000Y2080000I-150000J0D01*
G01*
X10150000Y280000D02*
G75*
G03*
X10150000Y280000I-150000J0D01*
G01*
X10150000Y-1520000D02*
G75*
G03*
X10150000Y-1520000I-150000J0D01*
G01*
X10150000Y-3320000D02*
G75*
G03*
X10150000Y-3320000I-150000J0D01*
G01*
D14*
X-1150000Y-3740000D02*
X-1150000Y-4060000D01*
X-1310000Y-3900000D02*
X-990000Y-3900000D01*
X-950000Y760000D02*
X-950000Y440000D01*
X-1110000Y600000D02*
X-790000Y600000D01*
X0Y3760000D02*
X0Y3440000D01*
X-160000Y3600000D02*
X160000Y3600000D01*
X0Y1960000D02*
X0Y1640000D01*
X-160000Y1800000D02*
X160000Y1800000D01*
X0Y160000D02*
X0Y-160000D01*
X-160000Y0D02*
X160000Y0D01*
X0Y-1640000D02*
X0Y-1960000D01*
X-160000Y-1800000D02*
X160000Y-1800000D01*
X950000Y-3440000D02*
X950000Y-3760000D01*
X790000Y-3600000D02*
X1110000Y-3600000D01*
X1900000Y3960000D02*
X1900000Y3640000D01*
X1740000Y3800000D02*
X2060000Y3800000D01*
X1900000Y2160000D02*
X1900000Y1840000D01*
X1740000Y2000000D02*
X2060000Y2000000D01*
X1900000Y360000D02*
X1900000Y40000D01*
X1740000Y200000D02*
X2060000Y200000D01*
X1900000Y-1440000D02*
X1900000Y-1760000D01*
X1740000Y-1600000D02*
X2060000Y-1600000D01*
X2850000Y-3440000D02*
X2850000Y-3760000D01*
X2690000Y-3600000D02*
X3010000Y-3600000D01*
X3800000Y4260000D02*
X3800000Y3940000D01*
X3640000Y4100000D02*
X3960000Y4100000D01*
X3800000Y2460000D02*
X3800000Y2140000D01*
X3640000Y2300000D02*
X3960000Y2300000D01*
X3800000Y660000D02*
X3800000Y340000D01*
X3640000Y500000D02*
X3960000Y500000D01*
X3800000Y-1140000D02*
X3800000Y-1460000D01*
X3640000Y-1300000D02*
X3960000Y-1300000D01*
X3800000Y-2340000D02*
X3800000Y-2660000D01*
X3640000Y-2500000D02*
X3960000Y-2500000D01*
X4750000Y-3440000D02*
X4750000Y-3760000D01*
X4590000Y-3600000D02*
X4910000Y-3600000D01*
X5700000Y3960000D02*
X5700000Y3640000D01*
X5540000Y3800000D02*
X5860000Y3800000D01*
X5700000Y2160000D02*
X5700000Y1840000D01*
X5540000Y2000000D02*
X5860000Y2000000D01*
X5700000Y360000D02*
X5700000Y40000D01*
X5540000Y200000D02*
X5860000Y200000D01*
X5700000Y-1440000D02*
X5700000Y-1760000D01*
X5540000Y-1600000D02*
X5860000Y-1600000D01*
X7100000Y4260000D02*
X7100000Y3940000D01*
X6940000Y4100000D02*
X7260000Y4100000D01*
X7600000Y3060000D02*
X7600000Y2740000D01*
X7440000Y2900000D02*
X7760000Y2900000D01*
X7600000Y1260000D02*
X7600000Y940000D01*
X7440000Y1100000D02*
X7760000Y1100000D01*
X7600000Y-540000D02*
X7600000Y-860000D01*
X7440000Y-700000D02*
X7760000Y-700000D01*
X7600000Y-2340000D02*
X7600000Y-2660000D01*
X7440000Y-2500000D02*
X7760000Y-2500000D01*
X8200000Y-3640000D02*
X8200000Y-3960000D01*
X8040000Y-3800000D02*
X8360000Y-3800000D01*
X9500000Y2610000D02*
X9500000Y2290000D01*
X9340000Y2450000D02*
X9660000Y2450000D01*
X9500000Y810000D02*
X9500000Y490000D01*
X9340000Y650000D02*
X9660000Y650000D01*
X9500000Y-990000D02*
X9500000Y-1310000D01*
X9340000Y-1150000D02*
X9660000Y-1150000D01*
X9500000Y-2790000D02*
X9500000Y-3110000D01*
X9340000Y-2950000D02*
X9660000Y-2950000D01*
D11*
X-2051565Y-5331825D02*
X-2051565Y-5131825D01*
X-2051565Y-5131825D02*
X-2003946Y-5131825D01*
X-2003946Y-5131825D02*
X-1975374Y-5141349D01*
X-1975374Y-5141349D02*
X-1956327Y-5160397D01*
X-1956327Y-5160397D02*
X-1946803Y-5179444D01*
X-1946803Y-5179444D02*
X-1937279Y-5217539D01*
X-1937279Y-5217539D02*
X-1937279Y-5246111D01*
X-1937279Y-5246111D02*
X-1946803Y-5284206D01*
X-1946803Y-5284206D02*
X-1956327Y-5303254D01*
X-1956327Y-5303254D02*
X-1975374Y-5322301D01*
X-1975374Y-5322301D02*
X-2003946Y-5331825D01*
X-2003946Y-5331825D02*
X-2051565Y-5331825D01*
X-1851565Y-5331825D02*
X-1851565Y-5198492D01*
X-1851565Y-5236587D02*
X-1842041Y-5217539D01*
X-1842041Y-5217539D02*
X-1832517Y-5208016D01*
X-1832517Y-5208016D02*
X-1813470Y-5198492D01*
X-1813470Y-5198492D02*
X-1794422Y-5198492D01*
X-1727755Y-5331825D02*
X-1727755Y-5198492D01*
X-1727755Y-5131825D02*
X-1737279Y-5141349D01*
X-1737279Y-5141349D02*
X-1727755Y-5150873D01*
X-1727755Y-5150873D02*
X-1718231Y-5141349D01*
X-1718231Y-5141349D02*
X-1727755Y-5131825D01*
X-1727755Y-5131825D02*
X-1727755Y-5150873D01*
X-1603946Y-5331825D02*
X-1622993Y-5322301D01*
X-1622993Y-5322301D02*
X-1632517Y-5303254D01*
X-1632517Y-5303254D02*
X-1632517Y-5131825D01*
X-1499184Y-5331825D02*
X-1518231Y-5322301D01*
X-1518231Y-5322301D02*
X-1527755Y-5303254D01*
X-1527755Y-5303254D02*
X-1527755Y-5131825D01*
X-1270612Y-5331825D02*
X-1270612Y-5131825D01*
X-1270612Y-5131825D02*
X-1203946Y-5274682D01*
X-1203946Y-5274682D02*
X-1137279Y-5131825D01*
X-1137279Y-5131825D02*
X-1137279Y-5331825D01*
X-956327Y-5331825D02*
X-956327Y-5227063D01*
X-956327Y-5227063D02*
X-965850Y-5208016D01*
X-965850Y-5208016D02*
X-984898Y-5198492D01*
X-984898Y-5198492D02*
X-1022993Y-5198492D01*
X-1022993Y-5198492D02*
X-1042041Y-5208016D01*
X-956327Y-5322301D02*
X-975374Y-5331825D01*
X-975374Y-5331825D02*
X-1022993Y-5331825D01*
X-1022993Y-5331825D02*
X-1042041Y-5322301D01*
X-1042041Y-5322301D02*
X-1051565Y-5303254D01*
X-1051565Y-5303254D02*
X-1051565Y-5284206D01*
X-1051565Y-5284206D02*
X-1042041Y-5265159D01*
X-1042041Y-5265159D02*
X-1022993Y-5255635D01*
X-1022993Y-5255635D02*
X-975374Y-5255635D01*
X-975374Y-5255635D02*
X-956327Y-5246111D01*
X-861089Y-5198492D02*
X-861089Y-5398492D01*
X-861089Y-5208016D02*
X-842041Y-5198492D01*
X-842041Y-5198492D02*
X-803946Y-5198492D01*
X-803946Y-5198492D02*
X-784898Y-5208016D01*
X-784898Y-5208016D02*
X-775374Y-5217539D01*
X-775374Y-5217539D02*
X-765850Y-5236587D01*
X-765850Y-5236587D02*
X-765850Y-5293730D01*
X-765850Y-5293730D02*
X-775374Y-5312778D01*
X-775374Y-5312778D02*
X-784898Y-5322301D01*
X-784898Y-5322301D02*
X-803946Y-5331825D01*
X-803946Y-5331825D02*
X-842041Y-5331825D01*
X-842041Y-5331825D02*
X-861089Y-5322301D01*
X-680136Y-5312778D02*
X-670612Y-5322301D01*
X-670612Y-5322301D02*
X-680136Y-5331825D01*
X-680136Y-5331825D02*
X-689660Y-5322301D01*
X-689660Y-5322301D02*
X-680136Y-5312778D01*
X-680136Y-5312778D02*
X-680136Y-5331825D01*
X-680136Y-5208016D02*
X-670612Y-5217539D01*
X-670612Y-5217539D02*
X-680136Y-5227063D01*
X-680136Y-5227063D02*
X-689660Y-5217539D01*
X-689660Y-5217539D02*
X-680136Y-5208016D01*
X-680136Y-5208016D02*
X-680136Y-5227063D01*
D12*
X-2469184Y-5574301D02*
X-2299184Y-5744301D01*
X-2299184Y-5574301D02*
X-2469184Y-5744301D01*
D11*
X-1946803Y-5751825D02*
X-2061089Y-5751825D01*
X-2003946Y-5751825D02*
X-2003946Y-5551825D01*
X-2003946Y-5551825D02*
X-2022993Y-5580397D01*
X-2022993Y-5580397D02*
X-2042041Y-5599444D01*
X-2042041Y-5599444D02*
X-2061089Y-5608968D01*
X-1861089Y-5732777D02*
X-1851565Y-5742301D01*
X-1851565Y-5742301D02*
X-1861089Y-5751825D01*
X-1861089Y-5751825D02*
X-1870612Y-5742301D01*
X-1870612Y-5742301D02*
X-1861089Y-5732777D01*
X-1861089Y-5732777D02*
X-1861089Y-5751825D01*
X-1784898Y-5551825D02*
X-1651565Y-5551825D01*
X-1651565Y-5551825D02*
X-1737279Y-5751825D01*
X-1537279Y-5551825D02*
X-1518231Y-5551825D01*
X-1518231Y-5551825D02*
X-1499184Y-5561349D01*
X-1499184Y-5561349D02*
X-1489660Y-5570873D01*
X-1489660Y-5570873D02*
X-1480136Y-5589920D01*
X-1480136Y-5589920D02*
X-1470612Y-5628016D01*
X-1470612Y-5628016D02*
X-1470612Y-5675635D01*
X-1470612Y-5675635D02*
X-1480136Y-5713730D01*
X-1480136Y-5713730D02*
X-1489660Y-5732777D01*
X-1489660Y-5732777D02*
X-1499184Y-5742301D01*
X-1499184Y-5742301D02*
X-1518231Y-5751825D01*
X-1518231Y-5751825D02*
X-1537279Y-5751825D01*
X-1537279Y-5751825D02*
X-1556327Y-5742301D01*
X-1556327Y-5742301D02*
X-1565850Y-5732777D01*
X-1565850Y-5732777D02*
X-1575374Y-5713730D01*
X-1575374Y-5713730D02*
X-1584898Y-5675635D01*
X-1584898Y-5675635D02*
X-1584898Y-5628016D01*
X-1584898Y-5628016D02*
X-1575374Y-5589920D01*
X-1575374Y-5589920D02*
X-1565850Y-5570873D01*
X-1565850Y-5570873D02*
X-1556327Y-5561349D01*
X-1556327Y-5561349D02*
X-1537279Y-5551825D01*
X-1346803Y-5551825D02*
X-1327755Y-5551825D01*
X-1327755Y-5551825D02*
X-1308708Y-5561349D01*
X-1308708Y-5561349D02*
X-1299184Y-5570873D01*
X-1299184Y-5570873D02*
X-1289660Y-5589920D01*
X-1289660Y-5589920D02*
X-1280136Y-5628016D01*
X-1280136Y-5628016D02*
X-1280136Y-5675635D01*
X-1280136Y-5675635D02*
X-1289660Y-5713730D01*
X-1289660Y-5713730D02*
X-1299184Y-5732777D01*
X-1299184Y-5732777D02*
X-1308708Y-5742301D01*
X-1308708Y-5742301D02*
X-1327755Y-5751825D01*
X-1327755Y-5751825D02*
X-1346803Y-5751825D01*
X-1346803Y-5751825D02*
X-1365851Y-5742301D01*
X-1365851Y-5742301D02*
X-1375374Y-5732777D01*
X-1375374Y-5732777D02*
X-1384898Y-5713730D01*
X-1384898Y-5713730D02*
X-1394422Y-5675635D01*
X-1394422Y-5675635D02*
X-1394422Y-5628016D01*
X-1394422Y-5628016D02*
X-1384898Y-5589920D01*
X-1384898Y-5589920D02*
X-1375374Y-5570873D01*
X-1375374Y-5570873D02*
X-1365851Y-5561349D01*
X-1365851Y-5561349D02*
X-1346803Y-5551825D01*
X-1194422Y-5751825D02*
X-1194422Y-5618492D01*
X-1194422Y-5637539D02*
X-1184898Y-5628016D01*
X-1184898Y-5628016D02*
X-1165851Y-5618492D01*
X-1165851Y-5618492D02*
X-1137279Y-5618492D01*
X-1137279Y-5618492D02*
X-1118231Y-5628016D01*
X-1118231Y-5628016D02*
X-1108708Y-5647063D01*
X-1108708Y-5647063D02*
X-1108708Y-5751825D01*
X-1108708Y-5647063D02*
X-1099184Y-5628016D01*
X-1099184Y-5628016D02*
X-1080136Y-5618492D01*
X-1080136Y-5618492D02*
X-1051565Y-5618492D01*
X-1051565Y-5618492D02*
X-1032517Y-5628016D01*
X-1032517Y-5628016D02*
X-1022993Y-5647063D01*
X-1022993Y-5647063D02*
X-1022993Y-5751825D01*
X-927755Y-5751825D02*
X-927755Y-5618492D01*
X-927755Y-5637539D02*
X-918231Y-5628016D01*
X-918231Y-5628016D02*
X-899184Y-5618492D01*
X-899184Y-5618492D02*
X-870612Y-5618492D01*
X-870612Y-5618492D02*
X-851565Y-5628016D01*
X-851565Y-5628016D02*
X-842041Y-5647063D01*
X-842041Y-5647063D02*
X-842041Y-5751825D01*
X-842041Y-5647063D02*
X-832517Y-5628016D01*
X-832517Y-5628016D02*
X-813469Y-5618492D01*
X-813469Y-5618492D02*
X-784898Y-5618492D01*
X-784898Y-5618492D02*
X-765850Y-5628016D01*
X-765850Y-5628016D02*
X-756327Y-5647063D01*
X-756327Y-5647063D02*
X-756327Y-5751825D01*
X-365850Y-5542301D02*
X-537279Y-5799444D01*
X-108707Y-5551825D02*
X-89660Y-5551825D01*
X-89660Y-5551825D02*
X-70612Y-5561349D01*
X-70612Y-5561349D02*
X-61088Y-5570873D01*
X-61088Y-5570873D02*
X-51565Y-5589920D01*
X-51565Y-5589920D02*
X-42041Y-5628016D01*
X-42041Y-5628016D02*
X-42041Y-5675635D01*
X-42041Y-5675635D02*
X-51565Y-5713730D01*
X-51565Y-5713730D02*
X-61088Y-5732777D01*
X-61088Y-5732777D02*
X-70612Y-5742301D01*
X-70612Y-5742301D02*
X-89660Y-5751825D01*
X-89660Y-5751825D02*
X-108707Y-5751825D01*
X-108707Y-5751825D02*
X-127755Y-5742301D01*
X-127755Y-5742301D02*
X-137279Y-5732777D01*
X-137279Y-5732777D02*
X-146803Y-5713730D01*
X-146803Y-5713730D02*
X-156327Y-5675635D01*
X-156327Y-5675635D02*
X-156327Y-5628016D01*
X-156327Y-5628016D02*
X-146803Y-5589920D01*
X-146803Y-5589920D02*
X-137279Y-5570873D01*
X-137279Y-5570873D02*
X-127755Y-5561349D01*
X-127755Y-5561349D02*
X-108707Y-5551825D01*
X43674Y-5732777D02*
X53197Y-5742301D01*
X53197Y-5742301D02*
X43674Y-5751825D01*
X43674Y-5751825D02*
X34150Y-5742301D01*
X34150Y-5742301D02*
X43674Y-5732777D01*
X43674Y-5732777D02*
X43674Y-5751825D01*
X177007Y-5551825D02*
X196054Y-5551825D01*
X196054Y-5551825D02*
X215102Y-5561349D01*
X215102Y-5561349D02*
X224626Y-5570873D01*
X224626Y-5570873D02*
X234150Y-5589920D01*
X234150Y-5589920D02*
X243673Y-5628016D01*
X243673Y-5628016D02*
X243673Y-5675635D01*
X243673Y-5675635D02*
X234150Y-5713730D01*
X234150Y-5713730D02*
X224626Y-5732777D01*
X224626Y-5732777D02*
X215102Y-5742301D01*
X215102Y-5742301D02*
X196054Y-5751825D01*
X196054Y-5751825D02*
X177007Y-5751825D01*
X177007Y-5751825D02*
X157959Y-5742301D01*
X157959Y-5742301D02*
X148435Y-5732777D01*
X148435Y-5732777D02*
X138912Y-5713730D01*
X138912Y-5713730D02*
X129388Y-5675635D01*
X129388Y-5675635D02*
X129388Y-5628016D01*
X129388Y-5628016D02*
X138912Y-5589920D01*
X138912Y-5589920D02*
X148435Y-5570873D01*
X148435Y-5570873D02*
X157959Y-5561349D01*
X157959Y-5561349D02*
X177007Y-5551825D01*
X415102Y-5551825D02*
X377007Y-5551825D01*
X377007Y-5551825D02*
X357959Y-5561349D01*
X357959Y-5561349D02*
X348435Y-5570873D01*
X348435Y-5570873D02*
X329388Y-5599444D01*
X329388Y-5599444D02*
X319864Y-5637539D01*
X319864Y-5637539D02*
X319864Y-5713730D01*
X319864Y-5713730D02*
X329388Y-5732777D01*
X329388Y-5732777D02*
X338912Y-5742301D01*
X338912Y-5742301D02*
X357959Y-5751825D01*
X357959Y-5751825D02*
X396054Y-5751825D01*
X396054Y-5751825D02*
X415102Y-5742301D01*
X415102Y-5742301D02*
X424626Y-5732777D01*
X424626Y-5732777D02*
X434150Y-5713730D01*
X434150Y-5713730D02*
X434150Y-5666111D01*
X434150Y-5666111D02*
X424626Y-5647063D01*
X424626Y-5647063D02*
X415102Y-5637539D01*
X415102Y-5637539D02*
X396054Y-5628016D01*
X396054Y-5628016D02*
X357959Y-5628016D01*
X357959Y-5628016D02*
X338912Y-5637539D01*
X338912Y-5637539D02*
X329388Y-5647063D01*
X329388Y-5647063D02*
X319864Y-5666111D01*
X605578Y-5551825D02*
X567483Y-5551825D01*
X567483Y-5551825D02*
X548435Y-5561349D01*
X548435Y-5561349D02*
X538912Y-5570873D01*
X538912Y-5570873D02*
X519864Y-5599444D01*
X519864Y-5599444D02*
X510340Y-5637539D01*
X510340Y-5637539D02*
X510340Y-5713730D01*
X510340Y-5713730D02*
X519864Y-5732777D01*
X519864Y-5732777D02*
X529388Y-5742301D01*
X529388Y-5742301D02*
X548435Y-5751825D01*
X548435Y-5751825D02*
X586531Y-5751825D01*
X586531Y-5751825D02*
X605578Y-5742301D01*
X605578Y-5742301D02*
X615102Y-5732777D01*
X615102Y-5732777D02*
X624626Y-5713730D01*
X624626Y-5713730D02*
X624626Y-5666111D01*
X624626Y-5666111D02*
X615102Y-5647063D01*
X615102Y-5647063D02*
X605578Y-5637539D01*
X605578Y-5637539D02*
X586531Y-5628016D01*
X586531Y-5628016D02*
X548435Y-5628016D01*
X548435Y-5628016D02*
X529388Y-5637539D01*
X529388Y-5637539D02*
X519864Y-5647063D01*
X519864Y-5647063D02*
X510340Y-5666111D01*
X719864Y-5751825D02*
X757959Y-5751825D01*
X757959Y-5751825D02*
X777007Y-5742301D01*
X777007Y-5742301D02*
X786531Y-5732777D01*
X786531Y-5732777D02*
X805578Y-5704206D01*
X805578Y-5704206D02*
X815102Y-5666111D01*
X815102Y-5666111D02*
X815102Y-5589920D01*
X815102Y-5589920D02*
X805578Y-5570873D01*
X805578Y-5570873D02*
X796054Y-5561349D01*
X796054Y-5561349D02*
X777007Y-5551825D01*
X777007Y-5551825D02*
X738912Y-5551825D01*
X738912Y-5551825D02*
X719864Y-5561349D01*
X719864Y-5561349D02*
X710340Y-5570873D01*
X710340Y-5570873D02*
X700816Y-5589920D01*
X700816Y-5589920D02*
X700816Y-5637539D01*
X700816Y-5637539D02*
X710340Y-5656587D01*
X710340Y-5656587D02*
X719864Y-5666111D01*
X719864Y-5666111D02*
X738912Y-5675635D01*
X738912Y-5675635D02*
X777007Y-5675635D01*
X777007Y-5675635D02*
X796054Y-5666111D01*
X796054Y-5666111D02*
X805578Y-5656587D01*
X805578Y-5656587D02*
X815102Y-5637539D01*
X891293Y-5551825D02*
X891293Y-5589920D01*
X967483Y-5551825D02*
X967483Y-5589920D01*
X1262721Y-5828016D02*
X1253197Y-5818492D01*
X1253197Y-5818492D02*
X1234150Y-5789920D01*
X1234150Y-5789920D02*
X1224626Y-5770873D01*
X1224626Y-5770873D02*
X1215102Y-5742301D01*
X1215102Y-5742301D02*
X1205578Y-5694682D01*
X1205578Y-5694682D02*
X1205578Y-5656587D01*
X1205578Y-5656587D02*
X1215102Y-5608968D01*
X1215102Y-5608968D02*
X1224626Y-5580397D01*
X1224626Y-5580397D02*
X1234150Y-5561349D01*
X1234150Y-5561349D02*
X1253197Y-5532778D01*
X1253197Y-5532778D02*
X1262721Y-5523254D01*
X1434150Y-5551825D02*
X1338912Y-5551825D01*
X1338912Y-5551825D02*
X1329388Y-5647063D01*
X1329388Y-5647063D02*
X1338912Y-5637539D01*
X1338912Y-5637539D02*
X1357959Y-5628016D01*
X1357959Y-5628016D02*
X1405578Y-5628016D01*
X1405578Y-5628016D02*
X1424626Y-5637539D01*
X1424626Y-5637539D02*
X1434150Y-5647063D01*
X1434150Y-5647063D02*
X1443674Y-5666111D01*
X1443674Y-5666111D02*
X1443674Y-5713730D01*
X1443674Y-5713730D02*
X1434150Y-5732777D01*
X1434150Y-5732777D02*
X1424626Y-5742301D01*
X1424626Y-5742301D02*
X1405578Y-5751825D01*
X1405578Y-5751825D02*
X1357959Y-5751825D01*
X1357959Y-5751825D02*
X1338912Y-5742301D01*
X1338912Y-5742301D02*
X1329388Y-5732777D01*
X1615102Y-5551825D02*
X1577007Y-5551825D01*
X1577007Y-5551825D02*
X1557959Y-5561349D01*
X1557959Y-5561349D02*
X1548435Y-5570873D01*
X1548435Y-5570873D02*
X1529388Y-5599444D01*
X1529388Y-5599444D02*
X1519864Y-5637539D01*
X1519864Y-5637539D02*
X1519864Y-5713730D01*
X1519864Y-5713730D02*
X1529388Y-5732777D01*
X1529388Y-5732777D02*
X1538912Y-5742301D01*
X1538912Y-5742301D02*
X1557959Y-5751825D01*
X1557959Y-5751825D02*
X1596055Y-5751825D01*
X1596055Y-5751825D02*
X1615102Y-5742301D01*
X1615102Y-5742301D02*
X1624626Y-5732777D01*
X1624626Y-5732777D02*
X1634150Y-5713730D01*
X1634150Y-5713730D02*
X1634150Y-5666111D01*
X1634150Y-5666111D02*
X1624626Y-5647063D01*
X1624626Y-5647063D02*
X1615102Y-5637539D01*
X1615102Y-5637539D02*
X1596055Y-5628016D01*
X1596055Y-5628016D02*
X1557959Y-5628016D01*
X1557959Y-5628016D02*
X1538912Y-5637539D01*
X1538912Y-5637539D02*
X1529388Y-5647063D01*
X1529388Y-5647063D02*
X1519864Y-5666111D01*
X1872245Y-5751825D02*
X1872245Y-5551825D01*
X1957959Y-5751825D02*
X1957959Y-5647063D01*
X1957959Y-5647063D02*
X1948436Y-5628016D01*
X1948436Y-5628016D02*
X1929388Y-5618492D01*
X1929388Y-5618492D02*
X1900816Y-5618492D01*
X1900816Y-5618492D02*
X1881769Y-5628016D01*
X1881769Y-5628016D02*
X1872245Y-5637539D01*
X2081769Y-5751825D02*
X2062721Y-5742301D01*
X2062721Y-5742301D02*
X2053197Y-5732777D01*
X2053197Y-5732777D02*
X2043674Y-5713730D01*
X2043674Y-5713730D02*
X2043674Y-5656587D01*
X2043674Y-5656587D02*
X2053197Y-5637539D01*
X2053197Y-5637539D02*
X2062721Y-5628016D01*
X2062721Y-5628016D02*
X2081769Y-5618492D01*
X2081769Y-5618492D02*
X2110340Y-5618492D01*
X2110340Y-5618492D02*
X2129388Y-5628016D01*
X2129388Y-5628016D02*
X2138912Y-5637539D01*
X2138912Y-5637539D02*
X2148436Y-5656587D01*
X2148436Y-5656587D02*
X2148436Y-5713730D01*
X2148436Y-5713730D02*
X2138912Y-5732777D01*
X2138912Y-5732777D02*
X2129388Y-5742301D01*
X2129388Y-5742301D02*
X2110340Y-5751825D01*
X2110340Y-5751825D02*
X2081769Y-5751825D01*
X2262721Y-5751825D02*
X2243674Y-5742301D01*
X2243674Y-5742301D02*
X2234150Y-5723254D01*
X2234150Y-5723254D02*
X2234150Y-5551825D01*
X2415102Y-5742301D02*
X2396055Y-5751825D01*
X2396055Y-5751825D02*
X2357959Y-5751825D01*
X2357959Y-5751825D02*
X2338912Y-5742301D01*
X2338912Y-5742301D02*
X2329388Y-5723254D01*
X2329388Y-5723254D02*
X2329388Y-5647063D01*
X2329388Y-5647063D02*
X2338912Y-5628016D01*
X2338912Y-5628016D02*
X2357959Y-5618492D01*
X2357959Y-5618492D02*
X2396055Y-5618492D01*
X2396055Y-5618492D02*
X2415102Y-5628016D01*
X2415102Y-5628016D02*
X2424626Y-5647063D01*
X2424626Y-5647063D02*
X2424626Y-5666111D01*
X2424626Y-5666111D02*
X2329388Y-5685158D01*
X2500817Y-5742301D02*
X2519864Y-5751825D01*
X2519864Y-5751825D02*
X2557959Y-5751825D01*
X2557959Y-5751825D02*
X2577007Y-5742301D01*
X2577007Y-5742301D02*
X2586531Y-5723254D01*
X2586531Y-5723254D02*
X2586531Y-5713730D01*
X2586531Y-5713730D02*
X2577007Y-5694682D01*
X2577007Y-5694682D02*
X2557959Y-5685158D01*
X2557959Y-5685158D02*
X2529388Y-5685158D01*
X2529388Y-5685158D02*
X2510340Y-5675635D01*
X2510340Y-5675635D02*
X2500817Y-5656587D01*
X2500817Y-5656587D02*
X2500817Y-5647063D01*
X2500817Y-5647063D02*
X2510340Y-5628016D01*
X2510340Y-5628016D02*
X2529388Y-5618492D01*
X2529388Y-5618492D02*
X2557959Y-5618492D01*
X2557959Y-5618492D02*
X2577007Y-5628016D01*
X2653198Y-5828016D02*
X2662721Y-5818492D01*
X2662721Y-5818492D02*
X2681769Y-5789920D01*
X2681769Y-5789920D02*
X2691293Y-5770873D01*
X2691293Y-5770873D02*
X2700817Y-5742301D01*
X2700817Y-5742301D02*
X2710340Y-5694682D01*
X2710340Y-5694682D02*
X2710340Y-5656587D01*
X2710340Y-5656587D02*
X2700817Y-5608968D01*
X2700817Y-5608968D02*
X2691293Y-5580397D01*
X2691293Y-5580397D02*
X2681769Y-5561349D01*
X2681769Y-5561349D02*
X2662721Y-5532778D01*
X2662721Y-5532778D02*
X2653198Y-5523254D01*
X3015102Y-5828016D02*
X3005578Y-5818492D01*
X3005578Y-5818492D02*
X2986531Y-5789920D01*
X2986531Y-5789920D02*
X2977007Y-5770873D01*
X2977007Y-5770873D02*
X2967483Y-5742301D01*
X2967483Y-5742301D02*
X2957959Y-5694682D01*
X2957959Y-5694682D02*
X2957959Y-5656587D01*
X2957959Y-5656587D02*
X2967483Y-5608968D01*
X2967483Y-5608968D02*
X2977007Y-5580397D01*
X2977007Y-5580397D02*
X2986531Y-5561349D01*
X2986531Y-5561349D02*
X3005578Y-5532778D01*
X3005578Y-5532778D02*
X3015102Y-5523254D01*
X3091293Y-5618492D02*
X3091293Y-5751825D01*
X3091293Y-5637539D02*
X3100817Y-5628016D01*
X3100817Y-5628016D02*
X3119864Y-5618492D01*
X3119864Y-5618492D02*
X3148436Y-5618492D01*
X3148436Y-5618492D02*
X3167483Y-5628016D01*
X3167483Y-5628016D02*
X3177007Y-5647063D01*
X3177007Y-5647063D02*
X3177007Y-5751825D01*
X3300817Y-5751825D02*
X3281769Y-5742301D01*
X3281769Y-5742301D02*
X3272245Y-5732777D01*
X3272245Y-5732777D02*
X3262721Y-5713730D01*
X3262721Y-5713730D02*
X3262721Y-5656587D01*
X3262721Y-5656587D02*
X3272245Y-5637539D01*
X3272245Y-5637539D02*
X3281769Y-5628016D01*
X3281769Y-5628016D02*
X3300817Y-5618492D01*
X3300817Y-5618492D02*
X3329388Y-5618492D01*
X3329388Y-5618492D02*
X3348436Y-5628016D01*
X3348436Y-5628016D02*
X3357959Y-5637539D01*
X3357959Y-5637539D02*
X3367483Y-5656587D01*
X3367483Y-5656587D02*
X3367483Y-5713730D01*
X3367483Y-5713730D02*
X3357959Y-5732777D01*
X3357959Y-5732777D02*
X3348436Y-5742301D01*
X3348436Y-5742301D02*
X3329388Y-5751825D01*
X3329388Y-5751825D02*
X3300817Y-5751825D01*
X3424626Y-5618492D02*
X3500817Y-5618492D01*
X3453198Y-5551825D02*
X3453198Y-5723254D01*
X3453198Y-5723254D02*
X3462721Y-5742301D01*
X3462721Y-5742301D02*
X3481769Y-5751825D01*
X3481769Y-5751825D02*
X3500817Y-5751825D01*
X3719864Y-5618492D02*
X3719864Y-5818492D01*
X3719864Y-5628016D02*
X3738912Y-5618492D01*
X3738912Y-5618492D02*
X3777007Y-5618492D01*
X3777007Y-5618492D02*
X3796055Y-5628016D01*
X3796055Y-5628016D02*
X3805579Y-5637539D01*
X3805579Y-5637539D02*
X3815102Y-5656587D01*
X3815102Y-5656587D02*
X3815102Y-5713730D01*
X3815102Y-5713730D02*
X3805579Y-5732777D01*
X3805579Y-5732777D02*
X3796055Y-5742301D01*
X3796055Y-5742301D02*
X3777007Y-5751825D01*
X3777007Y-5751825D02*
X3738912Y-5751825D01*
X3738912Y-5751825D02*
X3719864Y-5742301D01*
X3929388Y-5751825D02*
X3910340Y-5742301D01*
X3910340Y-5742301D02*
X3900817Y-5723254D01*
X3900817Y-5723254D02*
X3900817Y-5551825D01*
X4091293Y-5751825D02*
X4091293Y-5647063D01*
X4091293Y-5647063D02*
X4081769Y-5628016D01*
X4081769Y-5628016D02*
X4062721Y-5618492D01*
X4062721Y-5618492D02*
X4024626Y-5618492D01*
X4024626Y-5618492D02*
X4005579Y-5628016D01*
X4091293Y-5742301D02*
X4072245Y-5751825D01*
X4072245Y-5751825D02*
X4024626Y-5751825D01*
X4024626Y-5751825D02*
X4005579Y-5742301D01*
X4005579Y-5742301D02*
X3996055Y-5723254D01*
X3996055Y-5723254D02*
X3996055Y-5704206D01*
X3996055Y-5704206D02*
X4005579Y-5685158D01*
X4005579Y-5685158D02*
X4024626Y-5675635D01*
X4024626Y-5675635D02*
X4072245Y-5675635D01*
X4072245Y-5675635D02*
X4091293Y-5666111D01*
X4157960Y-5618492D02*
X4234150Y-5618492D01*
X4186531Y-5551825D02*
X4186531Y-5723254D01*
X4186531Y-5723254D02*
X4196055Y-5742301D01*
X4196055Y-5742301D02*
X4215102Y-5751825D01*
X4215102Y-5751825D02*
X4234150Y-5751825D01*
X4377007Y-5742301D02*
X4357960Y-5751825D01*
X4357960Y-5751825D02*
X4319864Y-5751825D01*
X4319864Y-5751825D02*
X4300817Y-5742301D01*
X4300817Y-5742301D02*
X4291293Y-5723254D01*
X4291293Y-5723254D02*
X4291293Y-5647063D01*
X4291293Y-5647063D02*
X4300817Y-5628016D01*
X4300817Y-5628016D02*
X4319864Y-5618492D01*
X4319864Y-5618492D02*
X4357960Y-5618492D01*
X4357960Y-5618492D02*
X4377007Y-5628016D01*
X4377007Y-5628016D02*
X4386531Y-5647063D01*
X4386531Y-5647063D02*
X4386531Y-5666111D01*
X4386531Y-5666111D02*
X4291293Y-5685158D01*
X4557960Y-5751825D02*
X4557960Y-5551825D01*
X4557960Y-5742301D02*
X4538912Y-5751825D01*
X4538912Y-5751825D02*
X4500817Y-5751825D01*
X4500817Y-5751825D02*
X4481769Y-5742301D01*
X4481769Y-5742301D02*
X4472245Y-5732777D01*
X4472245Y-5732777D02*
X4462722Y-5713730D01*
X4462722Y-5713730D02*
X4462722Y-5656587D01*
X4462722Y-5656587D02*
X4472245Y-5637539D01*
X4472245Y-5637539D02*
X4481769Y-5628016D01*
X4481769Y-5628016D02*
X4500817Y-5618492D01*
X4500817Y-5618492D02*
X4538912Y-5618492D01*
X4538912Y-5618492D02*
X4557960Y-5628016D01*
X4634150Y-5828016D02*
X4643674Y-5818492D01*
X4643674Y-5818492D02*
X4662722Y-5789920D01*
X4662722Y-5789920D02*
X4672245Y-5770873D01*
X4672245Y-5770873D02*
X4681769Y-5742301D01*
X4681769Y-5742301D02*
X4691293Y-5694682D01*
X4691293Y-5694682D02*
X4691293Y-5656587D01*
X4691293Y-5656587D02*
X4681769Y-5608968D01*
X4681769Y-5608968D02*
X4672245Y-5580397D01*
X4672245Y-5580397D02*
X4662722Y-5561349D01*
X4662722Y-5561349D02*
X4643674Y-5532778D01*
X4643674Y-5532778D02*
X4634150Y-5523254D01*
X-2299184Y-5949301D02*
G75*
G03*
X-2299184Y-5949301I-100000J0D01*
G01*
X-2070612Y-5841825D02*
X-1946803Y-5841825D01*
X-1946803Y-5841825D02*
X-2013470Y-5918016D01*
X-2013470Y-5918016D02*
X-1984898Y-5918016D01*
X-1984898Y-5918016D02*
X-1965850Y-5927539D01*
X-1965850Y-5927539D02*
X-1956327Y-5937063D01*
X-1956327Y-5937063D02*
X-1946803Y-5956111D01*
X-1946803Y-5956111D02*
X-1946803Y-6003730D01*
X-1946803Y-6003730D02*
X-1956327Y-6022777D01*
X-1956327Y-6022777D02*
X-1965850Y-6032301D01*
X-1965850Y-6032301D02*
X-1984898Y-6041825D01*
X-1984898Y-6041825D02*
X-2042041Y-6041825D01*
X-2042041Y-6041825D02*
X-2061089Y-6032301D01*
X-2061089Y-6032301D02*
X-2070612Y-6022777D01*
X-1861089Y-6022777D02*
X-1851565Y-6032301D01*
X-1851565Y-6032301D02*
X-1861089Y-6041825D01*
X-1861089Y-6041825D02*
X-1870612Y-6032301D01*
X-1870612Y-6032301D02*
X-1861089Y-6022777D01*
X-1861089Y-6022777D02*
X-1861089Y-6041825D01*
X-1727755Y-5841825D02*
X-1708708Y-5841825D01*
X-1708708Y-5841825D02*
X-1689660Y-5851349D01*
X-1689660Y-5851349D02*
X-1680136Y-5860873D01*
X-1680136Y-5860873D02*
X-1670612Y-5879920D01*
X-1670612Y-5879920D02*
X-1661089Y-5918016D01*
X-1661089Y-5918016D02*
X-1661089Y-5965635D01*
X-1661089Y-5965635D02*
X-1670612Y-6003730D01*
X-1670612Y-6003730D02*
X-1680136Y-6022777D01*
X-1680136Y-6022777D02*
X-1689660Y-6032301D01*
X-1689660Y-6032301D02*
X-1708708Y-6041825D01*
X-1708708Y-6041825D02*
X-1727755Y-6041825D01*
X-1727755Y-6041825D02*
X-1746803Y-6032301D01*
X-1746803Y-6032301D02*
X-1756327Y-6022777D01*
X-1756327Y-6022777D02*
X-1765850Y-6003730D01*
X-1765850Y-6003730D02*
X-1775374Y-5965635D01*
X-1775374Y-5965635D02*
X-1775374Y-5918016D01*
X-1775374Y-5918016D02*
X-1765850Y-5879920D01*
X-1765850Y-5879920D02*
X-1756327Y-5860873D01*
X-1756327Y-5860873D02*
X-1746803Y-5851349D01*
X-1746803Y-5851349D02*
X-1727755Y-5841825D01*
X-1537279Y-5841825D02*
X-1518231Y-5841825D01*
X-1518231Y-5841825D02*
X-1499184Y-5851349D01*
X-1499184Y-5851349D02*
X-1489660Y-5860873D01*
X-1489660Y-5860873D02*
X-1480136Y-5879920D01*
X-1480136Y-5879920D02*
X-1470612Y-5918016D01*
X-1470612Y-5918016D02*
X-1470612Y-5965635D01*
X-1470612Y-5965635D02*
X-1480136Y-6003730D01*
X-1480136Y-6003730D02*
X-1489660Y-6022777D01*
X-1489660Y-6022777D02*
X-1499184Y-6032301D01*
X-1499184Y-6032301D02*
X-1518231Y-6041825D01*
X-1518231Y-6041825D02*
X-1537279Y-6041825D01*
X-1537279Y-6041825D02*
X-1556327Y-6032301D01*
X-1556327Y-6032301D02*
X-1565850Y-6022777D01*
X-1565850Y-6022777D02*
X-1575374Y-6003730D01*
X-1575374Y-6003730D02*
X-1584898Y-5965635D01*
X-1584898Y-5965635D02*
X-1584898Y-5918016D01*
X-1584898Y-5918016D02*
X-1575374Y-5879920D01*
X-1575374Y-5879920D02*
X-1565850Y-5860873D01*
X-1565850Y-5860873D02*
X-1556327Y-5851349D01*
X-1556327Y-5851349D02*
X-1537279Y-5841825D01*
X-1346803Y-5841825D02*
X-1327755Y-5841825D01*
X-1327755Y-5841825D02*
X-1308708Y-5851349D01*
X-1308708Y-5851349D02*
X-1299184Y-5860873D01*
X-1299184Y-5860873D02*
X-1289660Y-5879920D01*
X-1289660Y-5879920D02*
X-1280136Y-5918016D01*
X-1280136Y-5918016D02*
X-1280136Y-5965635D01*
X-1280136Y-5965635D02*
X-1289660Y-6003730D01*
X-1289660Y-6003730D02*
X-1299184Y-6022777D01*
X-1299184Y-6022777D02*
X-1308708Y-6032301D01*
X-1308708Y-6032301D02*
X-1327755Y-6041825D01*
X-1327755Y-6041825D02*
X-1346803Y-6041825D01*
X-1346803Y-6041825D02*
X-1365851Y-6032301D01*
X-1365851Y-6032301D02*
X-1375374Y-6022777D01*
X-1375374Y-6022777D02*
X-1384898Y-6003730D01*
X-1384898Y-6003730D02*
X-1394422Y-5965635D01*
X-1394422Y-5965635D02*
X-1394422Y-5918016D01*
X-1394422Y-5918016D02*
X-1384898Y-5879920D01*
X-1384898Y-5879920D02*
X-1375374Y-5860873D01*
X-1375374Y-5860873D02*
X-1365851Y-5851349D01*
X-1365851Y-5851349D02*
X-1346803Y-5841825D01*
X-1194422Y-6041825D02*
X-1194422Y-5908492D01*
X-1194422Y-5927539D02*
X-1184898Y-5918016D01*
X-1184898Y-5918016D02*
X-1165851Y-5908492D01*
X-1165851Y-5908492D02*
X-1137279Y-5908492D01*
X-1137279Y-5908492D02*
X-1118231Y-5918016D01*
X-1118231Y-5918016D02*
X-1108708Y-5937063D01*
X-1108708Y-5937063D02*
X-1108708Y-6041825D01*
X-1108708Y-5937063D02*
X-1099184Y-5918016D01*
X-1099184Y-5918016D02*
X-1080136Y-5908492D01*
X-1080136Y-5908492D02*
X-1051565Y-5908492D01*
X-1051565Y-5908492D02*
X-1032517Y-5918016D01*
X-1032517Y-5918016D02*
X-1022993Y-5937063D01*
X-1022993Y-5937063D02*
X-1022993Y-6041825D01*
X-927755Y-6041825D02*
X-927755Y-5908492D01*
X-927755Y-5927539D02*
X-918231Y-5918016D01*
X-918231Y-5918016D02*
X-899184Y-5908492D01*
X-899184Y-5908492D02*
X-870612Y-5908492D01*
X-870612Y-5908492D02*
X-851565Y-5918016D01*
X-851565Y-5918016D02*
X-842041Y-5937063D01*
X-842041Y-5937063D02*
X-842041Y-6041825D01*
X-842041Y-5937063D02*
X-832517Y-5918016D01*
X-832517Y-5918016D02*
X-813469Y-5908492D01*
X-813469Y-5908492D02*
X-784898Y-5908492D01*
X-784898Y-5908492D02*
X-765850Y-5918016D01*
X-765850Y-5918016D02*
X-756327Y-5937063D01*
X-756327Y-5937063D02*
X-756327Y-6041825D01*
X-365850Y-5832301D02*
X-537279Y-6089444D01*
X-108707Y-5841825D02*
X-89660Y-5841825D01*
X-89660Y-5841825D02*
X-70612Y-5851349D01*
X-70612Y-5851349D02*
X-61088Y-5860873D01*
X-61088Y-5860873D02*
X-51565Y-5879920D01*
X-51565Y-5879920D02*
X-42041Y-5918016D01*
X-42041Y-5918016D02*
X-42041Y-5965635D01*
X-42041Y-5965635D02*
X-51565Y-6003730D01*
X-51565Y-6003730D02*
X-61088Y-6022777D01*
X-61088Y-6022777D02*
X-70612Y-6032301D01*
X-70612Y-6032301D02*
X-89660Y-6041825D01*
X-89660Y-6041825D02*
X-108707Y-6041825D01*
X-108707Y-6041825D02*
X-127755Y-6032301D01*
X-127755Y-6032301D02*
X-137279Y-6022777D01*
X-137279Y-6022777D02*
X-146803Y-6003730D01*
X-146803Y-6003730D02*
X-156327Y-5965635D01*
X-156327Y-5965635D02*
X-156327Y-5918016D01*
X-156327Y-5918016D02*
X-146803Y-5879920D01*
X-146803Y-5879920D02*
X-137279Y-5860873D01*
X-137279Y-5860873D02*
X-127755Y-5851349D01*
X-127755Y-5851349D02*
X-108707Y-5841825D01*
X43674Y-6022777D02*
X53197Y-6032301D01*
X53197Y-6032301D02*
X43674Y-6041825D01*
X43674Y-6041825D02*
X34150Y-6032301D01*
X34150Y-6032301D02*
X43674Y-6022777D01*
X43674Y-6022777D02*
X43674Y-6041825D01*
X243673Y-6041825D02*
X129388Y-6041825D01*
X186531Y-6041825D02*
X186531Y-5841825D01*
X186531Y-5841825D02*
X167483Y-5870397D01*
X167483Y-5870397D02*
X148435Y-5889444D01*
X148435Y-5889444D02*
X129388Y-5898968D01*
X434150Y-6041825D02*
X319864Y-6041825D01*
X377007Y-6041825D02*
X377007Y-5841825D01*
X377007Y-5841825D02*
X357959Y-5870397D01*
X357959Y-5870397D02*
X338912Y-5889444D01*
X338912Y-5889444D02*
X319864Y-5898968D01*
X548435Y-5927539D02*
X529388Y-5918016D01*
X529388Y-5918016D02*
X519864Y-5908492D01*
X519864Y-5908492D02*
X510340Y-5889444D01*
X510340Y-5889444D02*
X510340Y-5879920D01*
X510340Y-5879920D02*
X519864Y-5860873D01*
X519864Y-5860873D02*
X529388Y-5851349D01*
X529388Y-5851349D02*
X548435Y-5841825D01*
X548435Y-5841825D02*
X586531Y-5841825D01*
X586531Y-5841825D02*
X605578Y-5851349D01*
X605578Y-5851349D02*
X615102Y-5860873D01*
X615102Y-5860873D02*
X624626Y-5879920D01*
X624626Y-5879920D02*
X624626Y-5889444D01*
X624626Y-5889444D02*
X615102Y-5908492D01*
X615102Y-5908492D02*
X605578Y-5918016D01*
X605578Y-5918016D02*
X586531Y-5927539D01*
X586531Y-5927539D02*
X548435Y-5927539D01*
X548435Y-5927539D02*
X529388Y-5937063D01*
X529388Y-5937063D02*
X519864Y-5946587D01*
X519864Y-5946587D02*
X510340Y-5965635D01*
X510340Y-5965635D02*
X510340Y-6003730D01*
X510340Y-6003730D02*
X519864Y-6022777D01*
X519864Y-6022777D02*
X529388Y-6032301D01*
X529388Y-6032301D02*
X548435Y-6041825D01*
X548435Y-6041825D02*
X586531Y-6041825D01*
X586531Y-6041825D02*
X605578Y-6032301D01*
X605578Y-6032301D02*
X615102Y-6022777D01*
X615102Y-6022777D02*
X624626Y-6003730D01*
X624626Y-6003730D02*
X624626Y-5965635D01*
X624626Y-5965635D02*
X615102Y-5946587D01*
X615102Y-5946587D02*
X605578Y-5937063D01*
X605578Y-5937063D02*
X586531Y-5927539D01*
X815102Y-6041825D02*
X700816Y-6041825D01*
X757959Y-6041825D02*
X757959Y-5841825D01*
X757959Y-5841825D02*
X738912Y-5870397D01*
X738912Y-5870397D02*
X719864Y-5889444D01*
X719864Y-5889444D02*
X700816Y-5898968D01*
X891293Y-5841825D02*
X891293Y-5879920D01*
X967483Y-5841825D02*
X967483Y-5879920D01*
X1262721Y-6118016D02*
X1253197Y-6108492D01*
X1253197Y-6108492D02*
X1234150Y-6079920D01*
X1234150Y-6079920D02*
X1224626Y-6060873D01*
X1224626Y-6060873D02*
X1215102Y-6032301D01*
X1215102Y-6032301D02*
X1205578Y-5984682D01*
X1205578Y-5984682D02*
X1205578Y-5946587D01*
X1205578Y-5946587D02*
X1215102Y-5898968D01*
X1215102Y-5898968D02*
X1224626Y-5870397D01*
X1224626Y-5870397D02*
X1234150Y-5851349D01*
X1234150Y-5851349D02*
X1253197Y-5822777D01*
X1253197Y-5822777D02*
X1262721Y-5813254D01*
X1367483Y-5927539D02*
X1348436Y-5918016D01*
X1348436Y-5918016D02*
X1338912Y-5908492D01*
X1338912Y-5908492D02*
X1329388Y-5889444D01*
X1329388Y-5889444D02*
X1329388Y-5879920D01*
X1329388Y-5879920D02*
X1338912Y-5860873D01*
X1338912Y-5860873D02*
X1348436Y-5851349D01*
X1348436Y-5851349D02*
X1367483Y-5841825D01*
X1367483Y-5841825D02*
X1405578Y-5841825D01*
X1405578Y-5841825D02*
X1424626Y-5851349D01*
X1424626Y-5851349D02*
X1434150Y-5860873D01*
X1434150Y-5860873D02*
X1443674Y-5879920D01*
X1443674Y-5879920D02*
X1443674Y-5889444D01*
X1443674Y-5889444D02*
X1434150Y-5908492D01*
X1434150Y-5908492D02*
X1424626Y-5918016D01*
X1424626Y-5918016D02*
X1405578Y-5927539D01*
X1405578Y-5927539D02*
X1367483Y-5927539D01*
X1367483Y-5927539D02*
X1348436Y-5937063D01*
X1348436Y-5937063D02*
X1338912Y-5946587D01*
X1338912Y-5946587D02*
X1329388Y-5965635D01*
X1329388Y-5965635D02*
X1329388Y-6003730D01*
X1329388Y-6003730D02*
X1338912Y-6022777D01*
X1338912Y-6022777D02*
X1348436Y-6032301D01*
X1348436Y-6032301D02*
X1367483Y-6041825D01*
X1367483Y-6041825D02*
X1405578Y-6041825D01*
X1405578Y-6041825D02*
X1424626Y-6032301D01*
X1424626Y-6032301D02*
X1434150Y-6022777D01*
X1434150Y-6022777D02*
X1443674Y-6003730D01*
X1443674Y-6003730D02*
X1443674Y-5965635D01*
X1443674Y-5965635D02*
X1434150Y-5946587D01*
X1434150Y-5946587D02*
X1424626Y-5937063D01*
X1424626Y-5937063D02*
X1405578Y-5927539D01*
X1615102Y-5908492D02*
X1615102Y-6041825D01*
X1567483Y-5832301D02*
X1519864Y-5975158D01*
X1519864Y-5975158D02*
X1643674Y-5975158D01*
X1872245Y-6041825D02*
X1872245Y-5841825D01*
X1957959Y-6041825D02*
X1957959Y-5937063D01*
X1957959Y-5937063D02*
X1948436Y-5918016D01*
X1948436Y-5918016D02*
X1929388Y-5908492D01*
X1929388Y-5908492D02*
X1900816Y-5908492D01*
X1900816Y-5908492D02*
X1881769Y-5918016D01*
X1881769Y-5918016D02*
X1872245Y-5927539D01*
X2081769Y-6041825D02*
X2062721Y-6032301D01*
X2062721Y-6032301D02*
X2053197Y-6022777D01*
X2053197Y-6022777D02*
X2043674Y-6003730D01*
X2043674Y-6003730D02*
X2043674Y-5946587D01*
X2043674Y-5946587D02*
X2053197Y-5927539D01*
X2053197Y-5927539D02*
X2062721Y-5918016D01*
X2062721Y-5918016D02*
X2081769Y-5908492D01*
X2081769Y-5908492D02*
X2110340Y-5908492D01*
X2110340Y-5908492D02*
X2129388Y-5918016D01*
X2129388Y-5918016D02*
X2138912Y-5927539D01*
X2138912Y-5927539D02*
X2148436Y-5946587D01*
X2148436Y-5946587D02*
X2148436Y-6003730D01*
X2148436Y-6003730D02*
X2138912Y-6022777D01*
X2138912Y-6022777D02*
X2129388Y-6032301D01*
X2129388Y-6032301D02*
X2110340Y-6041825D01*
X2110340Y-6041825D02*
X2081769Y-6041825D01*
X2262721Y-6041825D02*
X2243674Y-6032301D01*
X2243674Y-6032301D02*
X2234150Y-6013254D01*
X2234150Y-6013254D02*
X2234150Y-5841825D01*
X2415102Y-6032301D02*
X2396055Y-6041825D01*
X2396055Y-6041825D02*
X2357959Y-6041825D01*
X2357959Y-6041825D02*
X2338912Y-6032301D01*
X2338912Y-6032301D02*
X2329388Y-6013254D01*
X2329388Y-6013254D02*
X2329388Y-5937063D01*
X2329388Y-5937063D02*
X2338912Y-5918016D01*
X2338912Y-5918016D02*
X2357959Y-5908492D01*
X2357959Y-5908492D02*
X2396055Y-5908492D01*
X2396055Y-5908492D02*
X2415102Y-5918016D01*
X2415102Y-5918016D02*
X2424626Y-5937063D01*
X2424626Y-5937063D02*
X2424626Y-5956111D01*
X2424626Y-5956111D02*
X2329388Y-5975158D01*
X2500817Y-6032301D02*
X2519864Y-6041825D01*
X2519864Y-6041825D02*
X2557959Y-6041825D01*
X2557959Y-6041825D02*
X2577007Y-6032301D01*
X2577007Y-6032301D02*
X2586531Y-6013254D01*
X2586531Y-6013254D02*
X2586531Y-6003730D01*
X2586531Y-6003730D02*
X2577007Y-5984682D01*
X2577007Y-5984682D02*
X2557959Y-5975158D01*
X2557959Y-5975158D02*
X2529388Y-5975158D01*
X2529388Y-5975158D02*
X2510340Y-5965635D01*
X2510340Y-5965635D02*
X2500817Y-5946587D01*
X2500817Y-5946587D02*
X2500817Y-5937063D01*
X2500817Y-5937063D02*
X2510340Y-5918016D01*
X2510340Y-5918016D02*
X2529388Y-5908492D01*
X2529388Y-5908492D02*
X2557959Y-5908492D01*
X2557959Y-5908492D02*
X2577007Y-5918016D01*
X2653198Y-6118016D02*
X2662721Y-6108492D01*
X2662721Y-6108492D02*
X2681769Y-6079920D01*
X2681769Y-6079920D02*
X2691293Y-6060873D01*
X2691293Y-6060873D02*
X2700817Y-6032301D01*
X2700817Y-6032301D02*
X2710340Y-5984682D01*
X2710340Y-5984682D02*
X2710340Y-5946587D01*
X2710340Y-5946587D02*
X2700817Y-5898968D01*
X2700817Y-5898968D02*
X2691293Y-5870397D01*
X2691293Y-5870397D02*
X2681769Y-5851349D01*
X2681769Y-5851349D02*
X2662721Y-5822777D01*
X2662721Y-5822777D02*
X2653198Y-5813254D01*
X3015102Y-6118016D02*
X3005578Y-6108492D01*
X3005578Y-6108492D02*
X2986531Y-6079920D01*
X2986531Y-6079920D02*
X2977007Y-6060873D01*
X2977007Y-6060873D02*
X2967483Y-6032301D01*
X2967483Y-6032301D02*
X2957959Y-5984682D01*
X2957959Y-5984682D02*
X2957959Y-5946587D01*
X2957959Y-5946587D02*
X2967483Y-5898968D01*
X2967483Y-5898968D02*
X2977007Y-5870397D01*
X2977007Y-5870397D02*
X2986531Y-5851349D01*
X2986531Y-5851349D02*
X3005578Y-5822777D01*
X3005578Y-5822777D02*
X3015102Y-5813254D01*
X3091293Y-5908492D02*
X3091293Y-6041825D01*
X3091293Y-5927539D02*
X3100817Y-5918016D01*
X3100817Y-5918016D02*
X3119864Y-5908492D01*
X3119864Y-5908492D02*
X3148436Y-5908492D01*
X3148436Y-5908492D02*
X3167483Y-5918016D01*
X3167483Y-5918016D02*
X3177007Y-5937063D01*
X3177007Y-5937063D02*
X3177007Y-6041825D01*
X3300817Y-6041825D02*
X3281769Y-6032301D01*
X3281769Y-6032301D02*
X3272245Y-6022777D01*
X3272245Y-6022777D02*
X3262721Y-6003730D01*
X3262721Y-6003730D02*
X3262721Y-5946587D01*
X3262721Y-5946587D02*
X3272245Y-5927539D01*
X3272245Y-5927539D02*
X3281769Y-5918016D01*
X3281769Y-5918016D02*
X3300817Y-5908492D01*
X3300817Y-5908492D02*
X3329388Y-5908492D01*
X3329388Y-5908492D02*
X3348436Y-5918016D01*
X3348436Y-5918016D02*
X3357959Y-5927539D01*
X3357959Y-5927539D02*
X3367483Y-5946587D01*
X3367483Y-5946587D02*
X3367483Y-6003730D01*
X3367483Y-6003730D02*
X3357959Y-6022777D01*
X3357959Y-6022777D02*
X3348436Y-6032301D01*
X3348436Y-6032301D02*
X3329388Y-6041825D01*
X3329388Y-6041825D02*
X3300817Y-6041825D01*
X3424626Y-5908492D02*
X3500817Y-5908492D01*
X3453198Y-5841825D02*
X3453198Y-6013254D01*
X3453198Y-6013254D02*
X3462721Y-6032301D01*
X3462721Y-6032301D02*
X3481769Y-6041825D01*
X3481769Y-6041825D02*
X3500817Y-6041825D01*
X3719864Y-5908492D02*
X3719864Y-6108492D01*
X3719864Y-5918016D02*
X3738912Y-5908492D01*
X3738912Y-5908492D02*
X3777007Y-5908492D01*
X3777007Y-5908492D02*
X3796055Y-5918016D01*
X3796055Y-5918016D02*
X3805579Y-5927539D01*
X3805579Y-5927539D02*
X3815102Y-5946587D01*
X3815102Y-5946587D02*
X3815102Y-6003730D01*
X3815102Y-6003730D02*
X3805579Y-6022777D01*
X3805579Y-6022777D02*
X3796055Y-6032301D01*
X3796055Y-6032301D02*
X3777007Y-6041825D01*
X3777007Y-6041825D02*
X3738912Y-6041825D01*
X3738912Y-6041825D02*
X3719864Y-6032301D01*
X3929388Y-6041825D02*
X3910340Y-6032301D01*
X3910340Y-6032301D02*
X3900817Y-6013254D01*
X3900817Y-6013254D02*
X3900817Y-5841825D01*
X4091293Y-6041825D02*
X4091293Y-5937063D01*
X4091293Y-5937063D02*
X4081769Y-5918016D01*
X4081769Y-5918016D02*
X4062721Y-5908492D01*
X4062721Y-5908492D02*
X4024626Y-5908492D01*
X4024626Y-5908492D02*
X4005579Y-5918016D01*
X4091293Y-6032301D02*
X4072245Y-6041825D01*
X4072245Y-6041825D02*
X4024626Y-6041825D01*
X4024626Y-6041825D02*
X4005579Y-6032301D01*
X4005579Y-6032301D02*
X3996055Y-6013254D01*
X3996055Y-6013254D02*
X3996055Y-5994206D01*
X3996055Y-5994206D02*
X4005579Y-5975158D01*
X4005579Y-5975158D02*
X4024626Y-5965635D01*
X4024626Y-5965635D02*
X4072245Y-5965635D01*
X4072245Y-5965635D02*
X4091293Y-5956111D01*
X4157960Y-5908492D02*
X4234150Y-5908492D01*
X4186531Y-5841825D02*
X4186531Y-6013254D01*
X4186531Y-6013254D02*
X4196055Y-6032301D01*
X4196055Y-6032301D02*
X4215102Y-6041825D01*
X4215102Y-6041825D02*
X4234150Y-6041825D01*
X4377007Y-6032301D02*
X4357960Y-6041825D01*
X4357960Y-6041825D02*
X4319864Y-6041825D01*
X4319864Y-6041825D02*
X4300817Y-6032301D01*
X4300817Y-6032301D02*
X4291293Y-6013254D01*
X4291293Y-6013254D02*
X4291293Y-5937063D01*
X4291293Y-5937063D02*
X4300817Y-5918016D01*
X4300817Y-5918016D02*
X4319864Y-5908492D01*
X4319864Y-5908492D02*
X4357960Y-5908492D01*
X4357960Y-5908492D02*
X4377007Y-5918016D01*
X4377007Y-5918016D02*
X4386531Y-5937063D01*
X4386531Y-5937063D02*
X4386531Y-5956111D01*
X4386531Y-5956111D02*
X4291293Y-5975158D01*
X4557960Y-6041825D02*
X4557960Y-5841825D01*
X4557960Y-6032301D02*
X4538912Y-6041825D01*
X4538912Y-6041825D02*
X4500817Y-6041825D01*
X4500817Y-6041825D02*
X4481769Y-6032301D01*
X4481769Y-6032301D02*
X4472245Y-6022777D01*
X4472245Y-6022777D02*
X4462722Y-6003730D01*
X4462722Y-6003730D02*
X4462722Y-5946587D01*
X4462722Y-5946587D02*
X4472245Y-5927539D01*
X4472245Y-5927539D02*
X4481769Y-5918016D01*
X4481769Y-5918016D02*
X4500817Y-5908492D01*
X4500817Y-5908492D02*
X4538912Y-5908492D01*
X4538912Y-5908492D02*
X4557960Y-5918016D01*
X4634150Y-6118016D02*
X4643674Y-6108492D01*
X4643674Y-6108492D02*
X4662722Y-6079920D01*
X4662722Y-6079920D02*
X4672245Y-6060873D01*
X4672245Y-6060873D02*
X4681769Y-6032301D01*
X4681769Y-6032301D02*
X4691293Y-5984682D01*
X4691293Y-5984682D02*
X4691293Y-5946587D01*
X4691293Y-5946587D02*
X4681769Y-5898968D01*
X4681769Y-5898968D02*
X4672245Y-5870397D01*
X4672245Y-5870397D02*
X4662722Y-5851349D01*
X4662722Y-5851349D02*
X4643674Y-5822777D01*
X4643674Y-5822777D02*
X4634150Y-5813254D01*
X-2399184Y-6169301D02*
X-2399184Y-6369301D01*
X-2499184Y-6269301D02*
X-2299184Y-6269301D01*
X-2070612Y-6161825D02*
X-1946803Y-6161825D01*
X-1946803Y-6161825D02*
X-2013470Y-6238016D01*
X-2013470Y-6238016D02*
X-1984898Y-6238016D01*
X-1984898Y-6238016D02*
X-1965850Y-6247539D01*
X-1965850Y-6247539D02*
X-1956327Y-6257063D01*
X-1956327Y-6257063D02*
X-1946803Y-6276111D01*
X-1946803Y-6276111D02*
X-1946803Y-6323730D01*
X-1946803Y-6323730D02*
X-1956327Y-6342777D01*
X-1956327Y-6342777D02*
X-1965850Y-6352301D01*
X-1965850Y-6352301D02*
X-1984898Y-6361825D01*
X-1984898Y-6361825D02*
X-2042041Y-6361825D01*
X-2042041Y-6361825D02*
X-2061089Y-6352301D01*
X-2061089Y-6352301D02*
X-2070612Y-6342777D01*
X-1861089Y-6342777D02*
X-1851565Y-6352301D01*
X-1851565Y-6352301D02*
X-1861089Y-6361825D01*
X-1861089Y-6361825D02*
X-1870612Y-6352301D01*
X-1870612Y-6352301D02*
X-1861089Y-6342777D01*
X-1861089Y-6342777D02*
X-1861089Y-6361825D01*
X-1775374Y-6180873D02*
X-1765850Y-6171349D01*
X-1765850Y-6171349D02*
X-1746803Y-6161825D01*
X-1746803Y-6161825D02*
X-1699184Y-6161825D01*
X-1699184Y-6161825D02*
X-1680136Y-6171349D01*
X-1680136Y-6171349D02*
X-1670612Y-6180873D01*
X-1670612Y-6180873D02*
X-1661089Y-6199920D01*
X-1661089Y-6199920D02*
X-1661089Y-6218968D01*
X-1661089Y-6218968D02*
X-1670612Y-6247539D01*
X-1670612Y-6247539D02*
X-1784898Y-6361825D01*
X-1784898Y-6361825D02*
X-1661089Y-6361825D01*
X-1537279Y-6161825D02*
X-1518231Y-6161825D01*
X-1518231Y-6161825D02*
X-1499184Y-6171349D01*
X-1499184Y-6171349D02*
X-1489660Y-6180873D01*
X-1489660Y-6180873D02*
X-1480136Y-6199920D01*
X-1480136Y-6199920D02*
X-1470612Y-6238016D01*
X-1470612Y-6238016D02*
X-1470612Y-6285635D01*
X-1470612Y-6285635D02*
X-1480136Y-6323730D01*
X-1480136Y-6323730D02*
X-1489660Y-6342777D01*
X-1489660Y-6342777D02*
X-1499184Y-6352301D01*
X-1499184Y-6352301D02*
X-1518231Y-6361825D01*
X-1518231Y-6361825D02*
X-1537279Y-6361825D01*
X-1537279Y-6361825D02*
X-1556327Y-6352301D01*
X-1556327Y-6352301D02*
X-1565850Y-6342777D01*
X-1565850Y-6342777D02*
X-1575374Y-6323730D01*
X-1575374Y-6323730D02*
X-1584898Y-6285635D01*
X-1584898Y-6285635D02*
X-1584898Y-6238016D01*
X-1584898Y-6238016D02*
X-1575374Y-6199920D01*
X-1575374Y-6199920D02*
X-1565850Y-6180873D01*
X-1565850Y-6180873D02*
X-1556327Y-6171349D01*
X-1556327Y-6171349D02*
X-1537279Y-6161825D01*
X-1346803Y-6161825D02*
X-1327755Y-6161825D01*
X-1327755Y-6161825D02*
X-1308708Y-6171349D01*
X-1308708Y-6171349D02*
X-1299184Y-6180873D01*
X-1299184Y-6180873D02*
X-1289660Y-6199920D01*
X-1289660Y-6199920D02*
X-1280136Y-6238016D01*
X-1280136Y-6238016D02*
X-1280136Y-6285635D01*
X-1280136Y-6285635D02*
X-1289660Y-6323730D01*
X-1289660Y-6323730D02*
X-1299184Y-6342777D01*
X-1299184Y-6342777D02*
X-1308708Y-6352301D01*
X-1308708Y-6352301D02*
X-1327755Y-6361825D01*
X-1327755Y-6361825D02*
X-1346803Y-6361825D01*
X-1346803Y-6361825D02*
X-1365851Y-6352301D01*
X-1365851Y-6352301D02*
X-1375374Y-6342777D01*
X-1375374Y-6342777D02*
X-1384898Y-6323730D01*
X-1384898Y-6323730D02*
X-1394422Y-6285635D01*
X-1394422Y-6285635D02*
X-1394422Y-6238016D01*
X-1394422Y-6238016D02*
X-1384898Y-6199920D01*
X-1384898Y-6199920D02*
X-1375374Y-6180873D01*
X-1375374Y-6180873D02*
X-1365851Y-6171349D01*
X-1365851Y-6171349D02*
X-1346803Y-6161825D01*
X-1194422Y-6361825D02*
X-1194422Y-6228492D01*
X-1194422Y-6247539D02*
X-1184898Y-6238016D01*
X-1184898Y-6238016D02*
X-1165851Y-6228492D01*
X-1165851Y-6228492D02*
X-1137279Y-6228492D01*
X-1137279Y-6228492D02*
X-1118231Y-6238016D01*
X-1118231Y-6238016D02*
X-1108708Y-6257063D01*
X-1108708Y-6257063D02*
X-1108708Y-6361825D01*
X-1108708Y-6257063D02*
X-1099184Y-6238016D01*
X-1099184Y-6238016D02*
X-1080136Y-6228492D01*
X-1080136Y-6228492D02*
X-1051565Y-6228492D01*
X-1051565Y-6228492D02*
X-1032517Y-6238016D01*
X-1032517Y-6238016D02*
X-1022993Y-6257063D01*
X-1022993Y-6257063D02*
X-1022993Y-6361825D01*
X-927755Y-6361825D02*
X-927755Y-6228492D01*
X-927755Y-6247539D02*
X-918231Y-6238016D01*
X-918231Y-6238016D02*
X-899184Y-6228492D01*
X-899184Y-6228492D02*
X-870612Y-6228492D01*
X-870612Y-6228492D02*
X-851565Y-6238016D01*
X-851565Y-6238016D02*
X-842041Y-6257063D01*
X-842041Y-6257063D02*
X-842041Y-6361825D01*
X-842041Y-6257063D02*
X-832517Y-6238016D01*
X-832517Y-6238016D02*
X-813469Y-6228492D01*
X-813469Y-6228492D02*
X-784898Y-6228492D01*
X-784898Y-6228492D02*
X-765850Y-6238016D01*
X-765850Y-6238016D02*
X-756327Y-6257063D01*
X-756327Y-6257063D02*
X-756327Y-6361825D01*
X-365850Y-6152301D02*
X-537279Y-6409444D01*
X-108707Y-6161825D02*
X-89660Y-6161825D01*
X-89660Y-6161825D02*
X-70612Y-6171349D01*
X-70612Y-6171349D02*
X-61088Y-6180873D01*
X-61088Y-6180873D02*
X-51565Y-6199920D01*
X-51565Y-6199920D02*
X-42041Y-6238016D01*
X-42041Y-6238016D02*
X-42041Y-6285635D01*
X-42041Y-6285635D02*
X-51565Y-6323730D01*
X-51565Y-6323730D02*
X-61088Y-6342777D01*
X-61088Y-6342777D02*
X-70612Y-6352301D01*
X-70612Y-6352301D02*
X-89660Y-6361825D01*
X-89660Y-6361825D02*
X-108707Y-6361825D01*
X-108707Y-6361825D02*
X-127755Y-6352301D01*
X-127755Y-6352301D02*
X-137279Y-6342777D01*
X-137279Y-6342777D02*
X-146803Y-6323730D01*
X-146803Y-6323730D02*
X-156327Y-6285635D01*
X-156327Y-6285635D02*
X-156327Y-6238016D01*
X-156327Y-6238016D02*
X-146803Y-6199920D01*
X-146803Y-6199920D02*
X-137279Y-6180873D01*
X-137279Y-6180873D02*
X-127755Y-6171349D01*
X-127755Y-6171349D02*
X-108707Y-6161825D01*
X43674Y-6342777D02*
X53197Y-6352301D01*
X53197Y-6352301D02*
X43674Y-6361825D01*
X43674Y-6361825D02*
X34150Y-6352301D01*
X34150Y-6352301D02*
X43674Y-6342777D01*
X43674Y-6342777D02*
X43674Y-6361825D01*
X243673Y-6361825D02*
X129388Y-6361825D01*
X186531Y-6361825D02*
X186531Y-6161825D01*
X186531Y-6161825D02*
X167483Y-6190397D01*
X167483Y-6190397D02*
X148435Y-6209444D01*
X148435Y-6209444D02*
X129388Y-6218968D01*
X319864Y-6180873D02*
X329388Y-6171349D01*
X329388Y-6171349D02*
X348435Y-6161825D01*
X348435Y-6161825D02*
X396054Y-6161825D01*
X396054Y-6161825D02*
X415102Y-6171349D01*
X415102Y-6171349D02*
X424626Y-6180873D01*
X424626Y-6180873D02*
X434150Y-6199920D01*
X434150Y-6199920D02*
X434150Y-6218968D01*
X434150Y-6218968D02*
X424626Y-6247539D01*
X424626Y-6247539D02*
X310340Y-6361825D01*
X310340Y-6361825D02*
X434150Y-6361825D01*
X605578Y-6161825D02*
X567483Y-6161825D01*
X567483Y-6161825D02*
X548435Y-6171349D01*
X548435Y-6171349D02*
X538912Y-6180873D01*
X538912Y-6180873D02*
X519864Y-6209444D01*
X519864Y-6209444D02*
X510340Y-6247539D01*
X510340Y-6247539D02*
X510340Y-6323730D01*
X510340Y-6323730D02*
X519864Y-6342777D01*
X519864Y-6342777D02*
X529388Y-6352301D01*
X529388Y-6352301D02*
X548435Y-6361825D01*
X548435Y-6361825D02*
X586531Y-6361825D01*
X586531Y-6361825D02*
X605578Y-6352301D01*
X605578Y-6352301D02*
X615102Y-6342777D01*
X615102Y-6342777D02*
X624626Y-6323730D01*
X624626Y-6323730D02*
X624626Y-6276111D01*
X624626Y-6276111D02*
X615102Y-6257063D01*
X615102Y-6257063D02*
X605578Y-6247539D01*
X605578Y-6247539D02*
X586531Y-6238016D01*
X586531Y-6238016D02*
X548435Y-6238016D01*
X548435Y-6238016D02*
X529388Y-6247539D01*
X529388Y-6247539D02*
X519864Y-6257063D01*
X519864Y-6257063D02*
X510340Y-6276111D01*
X748435Y-6161825D02*
X767483Y-6161825D01*
X767483Y-6161825D02*
X786531Y-6171349D01*
X786531Y-6171349D02*
X796054Y-6180873D01*
X796054Y-6180873D02*
X805578Y-6199920D01*
X805578Y-6199920D02*
X815102Y-6238016D01*
X815102Y-6238016D02*
X815102Y-6285635D01*
X815102Y-6285635D02*
X805578Y-6323730D01*
X805578Y-6323730D02*
X796054Y-6342777D01*
X796054Y-6342777D02*
X786531Y-6352301D01*
X786531Y-6352301D02*
X767483Y-6361825D01*
X767483Y-6361825D02*
X748435Y-6361825D01*
X748435Y-6361825D02*
X729388Y-6352301D01*
X729388Y-6352301D02*
X719864Y-6342777D01*
X719864Y-6342777D02*
X710340Y-6323730D01*
X710340Y-6323730D02*
X700816Y-6285635D01*
X700816Y-6285635D02*
X700816Y-6238016D01*
X700816Y-6238016D02*
X710340Y-6199920D01*
X710340Y-6199920D02*
X719864Y-6180873D01*
X719864Y-6180873D02*
X729388Y-6171349D01*
X729388Y-6171349D02*
X748435Y-6161825D01*
X891293Y-6161825D02*
X891293Y-6199920D01*
X967483Y-6161825D02*
X967483Y-6199920D01*
X1262721Y-6438016D02*
X1253197Y-6428492D01*
X1253197Y-6428492D02*
X1234150Y-6399920D01*
X1234150Y-6399920D02*
X1224626Y-6380873D01*
X1224626Y-6380873D02*
X1215102Y-6352301D01*
X1215102Y-6352301D02*
X1205578Y-6304682D01*
X1205578Y-6304682D02*
X1205578Y-6266587D01*
X1205578Y-6266587D02*
X1215102Y-6218968D01*
X1215102Y-6218968D02*
X1224626Y-6190397D01*
X1224626Y-6190397D02*
X1234150Y-6171349D01*
X1234150Y-6171349D02*
X1253197Y-6142777D01*
X1253197Y-6142777D02*
X1262721Y-6133254D01*
X1319864Y-6161825D02*
X1443674Y-6161825D01*
X1443674Y-6161825D02*
X1377007Y-6238016D01*
X1377007Y-6238016D02*
X1405578Y-6238016D01*
X1405578Y-6238016D02*
X1424626Y-6247539D01*
X1424626Y-6247539D02*
X1434150Y-6257063D01*
X1434150Y-6257063D02*
X1443674Y-6276111D01*
X1443674Y-6276111D02*
X1443674Y-6323730D01*
X1443674Y-6323730D02*
X1434150Y-6342777D01*
X1434150Y-6342777D02*
X1424626Y-6352301D01*
X1424626Y-6352301D02*
X1405578Y-6361825D01*
X1405578Y-6361825D02*
X1348436Y-6361825D01*
X1348436Y-6361825D02*
X1329388Y-6352301D01*
X1329388Y-6352301D02*
X1319864Y-6342777D01*
X1519864Y-6180873D02*
X1529388Y-6171349D01*
X1529388Y-6171349D02*
X1548435Y-6161825D01*
X1548435Y-6161825D02*
X1596055Y-6161825D01*
X1596055Y-6161825D02*
X1615102Y-6171349D01*
X1615102Y-6171349D02*
X1624626Y-6180873D01*
X1624626Y-6180873D02*
X1634150Y-6199920D01*
X1634150Y-6199920D02*
X1634150Y-6218968D01*
X1634150Y-6218968D02*
X1624626Y-6247539D01*
X1624626Y-6247539D02*
X1510340Y-6361825D01*
X1510340Y-6361825D02*
X1634150Y-6361825D01*
X1872245Y-6361825D02*
X1872245Y-6161825D01*
X1957959Y-6361825D02*
X1957959Y-6257063D01*
X1957959Y-6257063D02*
X1948436Y-6238016D01*
X1948436Y-6238016D02*
X1929388Y-6228492D01*
X1929388Y-6228492D02*
X1900816Y-6228492D01*
X1900816Y-6228492D02*
X1881769Y-6238016D01*
X1881769Y-6238016D02*
X1872245Y-6247539D01*
X2081769Y-6361825D02*
X2062721Y-6352301D01*
X2062721Y-6352301D02*
X2053197Y-6342777D01*
X2053197Y-6342777D02*
X2043674Y-6323730D01*
X2043674Y-6323730D02*
X2043674Y-6266587D01*
X2043674Y-6266587D02*
X2053197Y-6247539D01*
X2053197Y-6247539D02*
X2062721Y-6238016D01*
X2062721Y-6238016D02*
X2081769Y-6228492D01*
X2081769Y-6228492D02*
X2110340Y-6228492D01*
X2110340Y-6228492D02*
X2129388Y-6238016D01*
X2129388Y-6238016D02*
X2138912Y-6247539D01*
X2138912Y-6247539D02*
X2148436Y-6266587D01*
X2148436Y-6266587D02*
X2148436Y-6323730D01*
X2148436Y-6323730D02*
X2138912Y-6342777D01*
X2138912Y-6342777D02*
X2129388Y-6352301D01*
X2129388Y-6352301D02*
X2110340Y-6361825D01*
X2110340Y-6361825D02*
X2081769Y-6361825D01*
X2262721Y-6361825D02*
X2243674Y-6352301D01*
X2243674Y-6352301D02*
X2234150Y-6333254D01*
X2234150Y-6333254D02*
X2234150Y-6161825D01*
X2415102Y-6352301D02*
X2396055Y-6361825D01*
X2396055Y-6361825D02*
X2357959Y-6361825D01*
X2357959Y-6361825D02*
X2338912Y-6352301D01*
X2338912Y-6352301D02*
X2329388Y-6333254D01*
X2329388Y-6333254D02*
X2329388Y-6257063D01*
X2329388Y-6257063D02*
X2338912Y-6238016D01*
X2338912Y-6238016D02*
X2357959Y-6228492D01*
X2357959Y-6228492D02*
X2396055Y-6228492D01*
X2396055Y-6228492D02*
X2415102Y-6238016D01*
X2415102Y-6238016D02*
X2424626Y-6257063D01*
X2424626Y-6257063D02*
X2424626Y-6276111D01*
X2424626Y-6276111D02*
X2329388Y-6295158D01*
X2500817Y-6352301D02*
X2519864Y-6361825D01*
X2519864Y-6361825D02*
X2557959Y-6361825D01*
X2557959Y-6361825D02*
X2577007Y-6352301D01*
X2577007Y-6352301D02*
X2586531Y-6333254D01*
X2586531Y-6333254D02*
X2586531Y-6323730D01*
X2586531Y-6323730D02*
X2577007Y-6304682D01*
X2577007Y-6304682D02*
X2557959Y-6295158D01*
X2557959Y-6295158D02*
X2529388Y-6295158D01*
X2529388Y-6295158D02*
X2510340Y-6285635D01*
X2510340Y-6285635D02*
X2500817Y-6266587D01*
X2500817Y-6266587D02*
X2500817Y-6257063D01*
X2500817Y-6257063D02*
X2510340Y-6238016D01*
X2510340Y-6238016D02*
X2529388Y-6228492D01*
X2529388Y-6228492D02*
X2557959Y-6228492D01*
X2557959Y-6228492D02*
X2577007Y-6238016D01*
X2653198Y-6438016D02*
X2662721Y-6428492D01*
X2662721Y-6428492D02*
X2681769Y-6399920D01*
X2681769Y-6399920D02*
X2691293Y-6380873D01*
X2691293Y-6380873D02*
X2700817Y-6352301D01*
X2700817Y-6352301D02*
X2710340Y-6304682D01*
X2710340Y-6304682D02*
X2710340Y-6266587D01*
X2710340Y-6266587D02*
X2700817Y-6218968D01*
X2700817Y-6218968D02*
X2691293Y-6190397D01*
X2691293Y-6190397D02*
X2681769Y-6171349D01*
X2681769Y-6171349D02*
X2662721Y-6142777D01*
X2662721Y-6142777D02*
X2653198Y-6133254D01*
X3015102Y-6438016D02*
X3005578Y-6428492D01*
X3005578Y-6428492D02*
X2986531Y-6399920D01*
X2986531Y-6399920D02*
X2977007Y-6380873D01*
X2977007Y-6380873D02*
X2967483Y-6352301D01*
X2967483Y-6352301D02*
X2957959Y-6304682D01*
X2957959Y-6304682D02*
X2957959Y-6266587D01*
X2957959Y-6266587D02*
X2967483Y-6218968D01*
X2967483Y-6218968D02*
X2977007Y-6190397D01*
X2977007Y-6190397D02*
X2986531Y-6171349D01*
X2986531Y-6171349D02*
X3005578Y-6142777D01*
X3005578Y-6142777D02*
X3015102Y-6133254D01*
X3091293Y-6228492D02*
X3091293Y-6361825D01*
X3091293Y-6247539D02*
X3100817Y-6238016D01*
X3100817Y-6238016D02*
X3119864Y-6228492D01*
X3119864Y-6228492D02*
X3148436Y-6228492D01*
X3148436Y-6228492D02*
X3167483Y-6238016D01*
X3167483Y-6238016D02*
X3177007Y-6257063D01*
X3177007Y-6257063D02*
X3177007Y-6361825D01*
X3300817Y-6361825D02*
X3281769Y-6352301D01*
X3281769Y-6352301D02*
X3272245Y-6342777D01*
X3272245Y-6342777D02*
X3262721Y-6323730D01*
X3262721Y-6323730D02*
X3262721Y-6266587D01*
X3262721Y-6266587D02*
X3272245Y-6247539D01*
X3272245Y-6247539D02*
X3281769Y-6238016D01*
X3281769Y-6238016D02*
X3300817Y-6228492D01*
X3300817Y-6228492D02*
X3329388Y-6228492D01*
X3329388Y-6228492D02*
X3348436Y-6238016D01*
X3348436Y-6238016D02*
X3357959Y-6247539D01*
X3357959Y-6247539D02*
X3367483Y-6266587D01*
X3367483Y-6266587D02*
X3367483Y-6323730D01*
X3367483Y-6323730D02*
X3357959Y-6342777D01*
X3357959Y-6342777D02*
X3348436Y-6352301D01*
X3348436Y-6352301D02*
X3329388Y-6361825D01*
X3329388Y-6361825D02*
X3300817Y-6361825D01*
X3424626Y-6228492D02*
X3500817Y-6228492D01*
X3453198Y-6161825D02*
X3453198Y-6333254D01*
X3453198Y-6333254D02*
X3462721Y-6352301D01*
X3462721Y-6352301D02*
X3481769Y-6361825D01*
X3481769Y-6361825D02*
X3500817Y-6361825D01*
X3719864Y-6228492D02*
X3719864Y-6428492D01*
X3719864Y-6238016D02*
X3738912Y-6228492D01*
X3738912Y-6228492D02*
X3777007Y-6228492D01*
X3777007Y-6228492D02*
X3796055Y-6238016D01*
X3796055Y-6238016D02*
X3805579Y-6247539D01*
X3805579Y-6247539D02*
X3815102Y-6266587D01*
X3815102Y-6266587D02*
X3815102Y-6323730D01*
X3815102Y-6323730D02*
X3805579Y-6342777D01*
X3805579Y-6342777D02*
X3796055Y-6352301D01*
X3796055Y-6352301D02*
X3777007Y-6361825D01*
X3777007Y-6361825D02*
X3738912Y-6361825D01*
X3738912Y-6361825D02*
X3719864Y-6352301D01*
X3929388Y-6361825D02*
X3910340Y-6352301D01*
X3910340Y-6352301D02*
X3900817Y-6333254D01*
X3900817Y-6333254D02*
X3900817Y-6161825D01*
X4091293Y-6361825D02*
X4091293Y-6257063D01*
X4091293Y-6257063D02*
X4081769Y-6238016D01*
X4081769Y-6238016D02*
X4062721Y-6228492D01*
X4062721Y-6228492D02*
X4024626Y-6228492D01*
X4024626Y-6228492D02*
X4005579Y-6238016D01*
X4091293Y-6352301D02*
X4072245Y-6361825D01*
X4072245Y-6361825D02*
X4024626Y-6361825D01*
X4024626Y-6361825D02*
X4005579Y-6352301D01*
X4005579Y-6352301D02*
X3996055Y-6333254D01*
X3996055Y-6333254D02*
X3996055Y-6314206D01*
X3996055Y-6314206D02*
X4005579Y-6295158D01*
X4005579Y-6295158D02*
X4024626Y-6285635D01*
X4024626Y-6285635D02*
X4072245Y-6285635D01*
X4072245Y-6285635D02*
X4091293Y-6276111D01*
X4157960Y-6228492D02*
X4234150Y-6228492D01*
X4186531Y-6161825D02*
X4186531Y-6333254D01*
X4186531Y-6333254D02*
X4196055Y-6352301D01*
X4196055Y-6352301D02*
X4215102Y-6361825D01*
X4215102Y-6361825D02*
X4234150Y-6361825D01*
X4377007Y-6352301D02*
X4357960Y-6361825D01*
X4357960Y-6361825D02*
X4319864Y-6361825D01*
X4319864Y-6361825D02*
X4300817Y-6352301D01*
X4300817Y-6352301D02*
X4291293Y-6333254D01*
X4291293Y-6333254D02*
X4291293Y-6257063D01*
X4291293Y-6257063D02*
X4300817Y-6238016D01*
X4300817Y-6238016D02*
X4319864Y-6228492D01*
X4319864Y-6228492D02*
X4357960Y-6228492D01*
X4357960Y-6228492D02*
X4377007Y-6238016D01*
X4377007Y-6238016D02*
X4386531Y-6257063D01*
X4386531Y-6257063D02*
X4386531Y-6276111D01*
X4386531Y-6276111D02*
X4291293Y-6295158D01*
X4557960Y-6361825D02*
X4557960Y-6161825D01*
X4557960Y-6352301D02*
X4538912Y-6361825D01*
X4538912Y-6361825D02*
X4500817Y-6361825D01*
X4500817Y-6361825D02*
X4481769Y-6352301D01*
X4481769Y-6352301D02*
X4472245Y-6342777D01*
X4472245Y-6342777D02*
X4462722Y-6323730D01*
X4462722Y-6323730D02*
X4462722Y-6266587D01*
X4462722Y-6266587D02*
X4472245Y-6247539D01*
X4472245Y-6247539D02*
X4481769Y-6238016D01*
X4481769Y-6238016D02*
X4500817Y-6228492D01*
X4500817Y-6228492D02*
X4538912Y-6228492D01*
X4538912Y-6228492D02*
X4557960Y-6238016D01*
X4634150Y-6438016D02*
X4643674Y-6428492D01*
X4643674Y-6428492D02*
X4662722Y-6399920D01*
X4662722Y-6399920D02*
X4672245Y-6380873D01*
X4672245Y-6380873D02*
X4681769Y-6352301D01*
X4681769Y-6352301D02*
X4691293Y-6304682D01*
X4691293Y-6304682D02*
X4691293Y-6266587D01*
X4691293Y-6266587D02*
X4681769Y-6218968D01*
X4681769Y-6218968D02*
X4672245Y-6190397D01*
X4672245Y-6190397D02*
X4662722Y-6171349D01*
X4662722Y-6171349D02*
X4643674Y-6142777D01*
X4643674Y-6142777D02*
X4634150Y-6133254D01*
M02*
