M48
; DRILL file {KiCad (5.1.12-1-10_14)} date 2021 December 06, Monday 09:49:11
; FORMAT={-:-/ absolute / metric / decimal}
; #@! TF.CreationDate,2021-12-06T09:49:11+08:00
; #@! TF.GenerationSoftware,Kicad,Pcbnew,(5.1.12-1-10_14)
; #@! TF.FileFunction,Plated,1,2,PTH
FMAT,2
METRIC
T1C1.000
T2C1.092
T3C1.100
%
G90
G05
T1
X119.38Y-49.53
X121.92Y-49.53
X121.92Y-58.42
X121.92Y-60.96
X121.92Y-63.5
X121.92Y-66.04
X121.92Y-68.58
X121.92Y-71.12
X121.92Y-73.66
X124.46Y-49.53
X124.46Y-58.42
X124.46Y-60.96
X124.46Y-63.5
X124.46Y-66.04
X124.46Y-68.58
X124.46Y-71.12
X124.46Y-73.66
X127.0Y-49.53
X154.94Y-58.42
X154.94Y-60.96
X154.94Y-63.5
X154.94Y-66.04
X154.94Y-68.58
X154.94Y-71.12
X154.94Y-73.66
X157.48Y-58.42
X157.48Y-60.96
X157.48Y-63.5
X157.48Y-66.04
X157.48Y-68.58
X157.48Y-71.12
X157.48Y-73.66
T2
X132.08Y-49.53
X132.08Y-52.07
X132.08Y-54.61
X132.08Y-57.15
X132.08Y-59.69
X132.08Y-62.23
X132.08Y-64.77
X132.08Y-67.31
X132.08Y-69.85
X132.08Y-72.39
X132.08Y-74.93
X132.08Y-77.47
X147.32Y-49.53
X147.32Y-52.07
X147.32Y-54.61
X147.32Y-57.15
X147.32Y-59.69
X147.32Y-62.23
X147.32Y-64.77
X147.32Y-67.31
X147.32Y-69.85
X147.32Y-72.39
X147.32Y-74.93
X147.32Y-77.47
T3
X152.885Y-46.3
X152.885Y-50.8
X159.385Y-46.3
X159.385Y-50.8
T0
M30
