%TF.GenerationSoftware,KiCad,Pcbnew,(6.0.7-1)-1*%
%TF.CreationDate,2022-08-07T10:56:06+08:00*%
%TF.ProjectId,Input,496e7075-742e-46b6-9963-61645f706362,2*%
%TF.SameCoordinates,PX7616b68PY48ab840*%
%TF.FileFunction,Drillmap*%
%TF.FilePolarity,Positive*%
%FSLAX45Y45*%
G04 Gerber Fmt 4.5, Leading zero omitted, Abs format (unit mm)*
G04 Created by KiCad (PCBNEW (6.0.7-1)-1) date 2022-08-07 10:56:06*
%MOMM*%
%LPD*%
G01*
G04 APERTURE LIST*
%ADD10C,0.120000*%
%ADD11C,0.200000*%
%ADD12C,0.190000*%
%ADD13C,0.250000*%
%ADD14C,0.300000*%
%ADD15C,0.400000*%
G04 APERTURE END LIST*
D10*
X14351000Y-6921500D02*
X8382000Y-6921500D01*
X2159003Y-3619500D02*
G75*
G03*
X2286000Y-3937000I417557J-17130D01*
G01*
X8382000Y-7048500D02*
X8382000Y-6921500D01*
X-762000Y-7048500D02*
X-1905000Y-7048500D01*
X-7874000Y-6921500D02*
X-7874000Y-7429500D01*
X3111497Y-4953000D02*
G75*
G03*
X2984500Y-4635500I-417557J17130D01*
G01*
X14351000Y3619500D02*
X14351000Y3111500D01*
X9525000Y-5016503D02*
G75*
G03*
X9207500Y-5143500I-17130J-417557D01*
G01*
X12446000Y1460500D02*
G75*
G03*
X12700000Y1206500I254000J0D01*
G01*
X14097000Y1206500D02*
X12700000Y1206500D01*
X-7874000Y952500D02*
X-7874000Y-4762500D01*
X4191002Y-3937002D02*
G75*
G03*
X4318000Y-3619500I-290562J300372D01*
G01*
X-3810000Y3111500D02*
X-3810000Y3238500D01*
X14097000Y-5016500D02*
G75*
G03*
X14351000Y-4762500I0J254000D01*
G01*
X1905000Y3238500D02*
X4572000Y3238500D01*
X14351000Y-4762500D02*
X14351000Y952500D01*
X-7620000Y1206500D02*
G75*
G03*
X-7874000Y952500I0J-254000D01*
G01*
X10541000Y2413000D02*
X10541000Y2857500D01*
X-1079502Y-6794502D02*
G75*
G03*
X-762000Y-6921500I300372J290562D01*
G01*
X14351000Y3619500D02*
X-7874000Y3619500D01*
X-762000Y-6921500D02*
X-762000Y-7048500D01*
X-2730498Y-5143498D02*
G75*
G03*
X-3048000Y-5016500I-300372J-290562D01*
G01*
X9207500Y-5143500D02*
X7556500Y-6794500D01*
X-4762500Y3238500D02*
X-4762500Y3111500D01*
X-7874000Y3111500D02*
X-7874000Y3619500D01*
X2857500Y-7048500D02*
X3619500Y-7048500D01*
X-6223000Y1206500D02*
G75*
G03*
X-5969000Y1460500I0J254000D01*
G01*
X-4318000Y2159000D02*
X-5715000Y2159000D01*
X10541000Y2857500D02*
G75*
G03*
X10287000Y3111500I-254000J0D01*
G01*
X9525000Y-5016500D02*
X14097000Y-5016500D01*
X11239500Y3238500D02*
X10287000Y3238500D01*
X-1079500Y-6794500D02*
X-2730500Y-5143500D01*
X-7874000Y-4762500D02*
G75*
G03*
X-7620000Y-5016500I254000J0D01*
G01*
X-4318000Y2159000D02*
G75*
G03*
X-4064000Y2413000I0J254000D01*
G01*
X-5715000Y2159000D02*
G75*
G03*
X-5969000Y1905000I0J-254000D01*
G01*
X4572000Y3238500D02*
X4572000Y3111500D01*
X3365500Y-6667500D02*
G75*
G03*
X3619500Y-6921500I254000J0D01*
G01*
X-6223000Y1206500D02*
X-7620000Y1206500D01*
X-7620000Y-5016500D02*
X-3048000Y-5016500D01*
X14351000Y952500D02*
G75*
G03*
X14097000Y1206500I-254000J0D01*
G01*
X-1905000Y-6921500D02*
X-1905000Y-7048500D01*
X12446000Y1905000D02*
G75*
G03*
X12192000Y2159000I-254000J0D01*
G01*
X10287000Y3238500D02*
X10287000Y3111500D01*
X-3810000Y3111500D02*
G75*
G03*
X-4064000Y2857500I0J-254000D01*
G01*
X3492498Y-4635498D02*
G75*
G03*
X3365500Y-4953000I290562J-300372D01*
G01*
X14351000Y3111500D02*
X11239500Y3111500D01*
X3365500Y-6667500D02*
X3365500Y-4953000D01*
X-3810000Y3238500D02*
X-4762500Y3238500D01*
X2984500Y-4635500D02*
X2286000Y-3937000D01*
X2857500Y-6921500D02*
X2857500Y-7048500D01*
X7239000Y-6921497D02*
G75*
G03*
X7556500Y-6794500I17130J417557D01*
G01*
X-4064000Y2857500D02*
X-4064000Y2413000D01*
X4318000Y2857500D02*
X4318000Y-3619500D01*
X-1905000Y-6921500D02*
X-7874000Y-6921500D01*
X3619500Y-7048500D02*
X3619500Y-6921500D01*
X7239000Y-7048500D02*
X7239000Y-6921500D01*
X4191000Y-3937000D02*
X3492500Y-4635500D01*
X10541000Y2413000D02*
G75*
G03*
X10795000Y2159000I254000J0D01*
G01*
X2857500Y-6921500D02*
G75*
G03*
X3111500Y-6667500I0J254000D01*
G01*
X3111500Y-4953000D02*
X3111500Y-6667500D01*
X14351000Y-7429500D02*
X-7874000Y-7429500D01*
X14351000Y-7429500D02*
X14351000Y-6921500D01*
X11239500Y3111500D02*
X11239500Y3238500D01*
X-4762500Y3111500D02*
X-7874000Y3111500D01*
X4572000Y3111500D02*
G75*
G03*
X4318000Y2857500I0J-254000D01*
G01*
X1905000Y3111500D02*
X1905000Y3238500D01*
X12192000Y2159000D02*
X10795000Y2159000D01*
X-5969000Y1905000D02*
X-5969000Y1460500D01*
X12446000Y1460500D02*
X12446000Y1905000D01*
X2159000Y-3619500D02*
X2159000Y2857500D01*
X2159000Y2857500D02*
G75*
G03*
X1905000Y3111500I-254000J0D01*
G01*
X8382000Y-7048500D02*
X7239000Y-7048500D01*
D11*
D12*
X-7270500Y95000D02*
X-7080500Y-95000D01*
X-7080500Y95000D02*
X-7270500Y-95000D01*
X-7270500Y-1810000D02*
X-7080500Y-2000000D01*
X-7080500Y-1810000D02*
X-7270500Y-2000000D01*
X-7270500Y-3715000D02*
X-7080500Y-3905000D01*
X-7080500Y-3715000D02*
X-7270500Y-3905000D01*
X-6254500Y95000D02*
X-6064500Y-95000D01*
X-6064500Y95000D02*
X-6254500Y-95000D01*
X-6254500Y-1810000D02*
X-6064500Y-2000000D01*
X-6064500Y-1810000D02*
X-6254500Y-2000000D01*
X-6254500Y-3715000D02*
X-6064500Y-3905000D01*
X-6064500Y-3715000D02*
X-6254500Y-3905000D01*
X-5365500Y1047500D02*
X-5175500Y857500D01*
X-5175500Y1047500D02*
X-5365500Y857500D01*
X-5365500Y-857500D02*
X-5175500Y-1047500D01*
X-5175500Y-857500D02*
X-5365500Y-1047500D01*
X-5365500Y-2762500D02*
X-5175500Y-2952500D01*
X-5175500Y-2762500D02*
X-5365500Y-2952500D01*
X-4349500Y1047500D02*
X-4159500Y857500D01*
X-4159500Y1047500D02*
X-4349500Y857500D01*
X-4349500Y-857500D02*
X-4159500Y-1047500D01*
X-4159500Y-857500D02*
X-4349500Y-1047500D01*
X-4349500Y-2762500D02*
X-4159500Y-2952500D01*
X-4159500Y-2762500D02*
X-4349500Y-2952500D01*
X-3460500Y2000000D02*
X-3270500Y1810000D01*
X-3270500Y2000000D02*
X-3460500Y1810000D01*
X-3460500Y95000D02*
X-3270500Y-95000D01*
X-3270500Y95000D02*
X-3460500Y-95000D01*
X-3460500Y-1810000D02*
X-3270500Y-2000000D01*
X-3270500Y-1810000D02*
X-3460500Y-2000000D01*
X-2444500Y2000000D02*
X-2254500Y1810000D01*
X-2254500Y2000000D02*
X-2444500Y1810000D01*
X-2444500Y95000D02*
X-2254500Y-95000D01*
X-2254500Y95000D02*
X-2444500Y-95000D01*
X-2444500Y-1810000D02*
X-2254500Y-2000000D01*
X-2254500Y-1810000D02*
X-2444500Y-2000000D01*
X-1555500Y1047500D02*
X-1365500Y857500D01*
X-1365500Y1047500D02*
X-1555500Y857500D01*
X-1555500Y-857500D02*
X-1365500Y-1047500D01*
X-1365500Y-857500D02*
X-1555500Y-1047500D01*
X-1555500Y-2762500D02*
X-1365500Y-2952500D01*
X-1365500Y-2762500D02*
X-1555500Y-2952500D01*
X-603000Y-5620000D02*
X-413000Y-5810000D01*
X-413000Y-5620000D02*
X-603000Y-5810000D01*
X-539500Y1047500D02*
X-349500Y857500D01*
X-349500Y1047500D02*
X-539500Y857500D01*
X-539500Y-857500D02*
X-349500Y-1047500D01*
X-349500Y-857500D02*
X-539500Y-1047500D01*
X-539500Y-2762500D02*
X-349500Y-2952500D01*
X-349500Y-2762500D02*
X-539500Y-2952500D01*
X349500Y1047500D02*
X539500Y857500D01*
X539500Y1047500D02*
X349500Y857500D01*
X349500Y-857500D02*
X539500Y-1047500D01*
X539500Y-857500D02*
X349500Y-1047500D01*
X349500Y-2762500D02*
X539500Y-2952500D01*
X539500Y-2762500D02*
X349500Y-2952500D01*
X413000Y-5620000D02*
X603000Y-5810000D01*
X603000Y-5620000D02*
X413000Y-5810000D01*
X1302000Y-5620000D02*
X1492000Y-5810000D01*
X1492000Y-5620000D02*
X1302000Y-5810000D01*
X1365500Y1047500D02*
X1555500Y857500D01*
X1555500Y1047500D02*
X1365500Y857500D01*
X1365500Y-857500D02*
X1555500Y-1047500D01*
X1555500Y-857500D02*
X1365500Y-1047500D01*
X1365500Y-2762500D02*
X1555500Y-2952500D01*
X1555500Y-2762500D02*
X1365500Y-2952500D01*
X2318000Y-5620000D02*
X2508000Y-5810000D01*
X2508000Y-5620000D02*
X2318000Y-5810000D01*
X3969000Y-5620000D02*
X4159000Y-5810000D01*
X4159000Y-5620000D02*
X3969000Y-5810000D01*
X4921500Y1047500D02*
X5111500Y857500D01*
X5111500Y1047500D02*
X4921500Y857500D01*
X4921500Y-857500D02*
X5111500Y-1047500D01*
X5111500Y-857500D02*
X4921500Y-1047500D01*
X4921500Y-2762500D02*
X5111500Y-2952500D01*
X5111500Y-2762500D02*
X4921500Y-2952500D01*
X4985000Y-5620000D02*
X5175000Y-5810000D01*
X5175000Y-5620000D02*
X4985000Y-5810000D01*
X5874000Y-5620000D02*
X6064000Y-5810000D01*
X6064000Y-5620000D02*
X5874000Y-5810000D01*
X5937500Y1047500D02*
X6127500Y857500D01*
X6127500Y1047500D02*
X5937500Y857500D01*
X5937500Y-857500D02*
X6127500Y-1047500D01*
X6127500Y-857500D02*
X5937500Y-1047500D01*
X5937500Y-2762500D02*
X6127500Y-2952500D01*
X6127500Y-2762500D02*
X5937500Y-2952500D01*
X6826500Y1047500D02*
X7016500Y857500D01*
X7016500Y1047500D02*
X6826500Y857500D01*
X6826500Y-857500D02*
X7016500Y-1047500D01*
X7016500Y-857500D02*
X6826500Y-1047500D01*
X6826500Y-2762500D02*
X7016500Y-2952500D01*
X7016500Y-2762500D02*
X6826500Y-2952500D01*
X6890000Y-5620000D02*
X7080000Y-5810000D01*
X7080000Y-5620000D02*
X6890000Y-5810000D01*
X7842500Y1047500D02*
X8032500Y857500D01*
X8032500Y1047500D02*
X7842500Y857500D01*
X7842500Y-857500D02*
X8032500Y-1047500D01*
X8032500Y-857500D02*
X7842500Y-1047500D01*
X7842500Y-2762500D02*
X8032500Y-2952500D01*
X8032500Y-2762500D02*
X7842500Y-2952500D01*
X8731500Y2000000D02*
X8921500Y1810000D01*
X8921500Y2000000D02*
X8731500Y1810000D01*
X8731500Y95000D02*
X8921500Y-95000D01*
X8921500Y95000D02*
X8731500Y-95000D01*
X8731500Y-1810000D02*
X8921500Y-2000000D01*
X8921500Y-1810000D02*
X8731500Y-2000000D01*
X9747500Y2000000D02*
X9937500Y1810000D01*
X9937500Y2000000D02*
X9747500Y1810000D01*
X9747500Y95000D02*
X9937500Y-95000D01*
X9937500Y95000D02*
X9747500Y-95000D01*
X9747500Y-1810000D02*
X9937500Y-2000000D01*
X9937500Y-1810000D02*
X9747500Y-2000000D01*
X10636500Y1047500D02*
X10826500Y857500D01*
X10826500Y1047500D02*
X10636500Y857500D01*
X10636500Y-857500D02*
X10826500Y-1047500D01*
X10826500Y-857500D02*
X10636500Y-1047500D01*
X10636500Y-2762500D02*
X10826500Y-2952500D01*
X10826500Y-2762500D02*
X10636500Y-2952500D01*
X11652500Y1047500D02*
X11842500Y857500D01*
X11842500Y1047500D02*
X11652500Y857500D01*
X11652500Y-857500D02*
X11842500Y-1047500D01*
X11842500Y-857500D02*
X11652500Y-1047500D01*
X11652500Y-2762500D02*
X11842500Y-2952500D01*
X11842500Y-2762500D02*
X11652500Y-2952500D01*
X12541500Y95000D02*
X12731500Y-95000D01*
X12731500Y95000D02*
X12541500Y-95000D01*
X12541500Y-1810000D02*
X12731500Y-2000000D01*
X12731500Y-1810000D02*
X12541500Y-2000000D01*
X12541500Y-3715000D02*
X12731500Y-3905000D01*
X12731500Y-3715000D02*
X12541500Y-3905000D01*
X13557500Y95000D02*
X13747500Y-95000D01*
X13747500Y95000D02*
X13557500Y-95000D01*
X13557500Y-1810000D02*
X13747500Y-2000000D01*
X13747500Y-1810000D02*
X13557500Y-2000000D01*
X13557500Y-3715000D02*
X13747500Y-3905000D01*
X13747500Y-3715000D02*
X13557500Y-3905000D01*
D13*
X-5678900Y-2857500D02*
G75*
G03*
X-5678900Y-2857500I-125000J0D01*
G01*
X-5501100Y0D02*
G75*
G03*
X-5501100Y0I-125000J0D01*
G01*
X125000Y0D02*
G75*
G03*
X125000Y0I-125000J0D01*
G01*
X1077500Y-4762500D02*
G75*
G03*
X1077500Y-4762500I-125000J0D01*
G01*
X5649500Y-4752340D02*
G75*
G03*
X5649500Y-4752340I-125000J0D01*
G01*
X6602000Y0D02*
G75*
G03*
X6602000Y0I-125000J0D01*
G01*
X12228100Y0D02*
G75*
G03*
X12228100Y0I-125000J0D01*
G01*
X12405900Y-2857500D02*
G75*
G03*
X12405900Y-2857500I-125000J0D01*
G01*
D14*
X-7048500Y404000D02*
X-7048500Y104000D01*
X-7198500Y254000D02*
X-6898500Y254000D01*
X-7048500Y-1501000D02*
X-7048500Y-1801000D01*
X-7198500Y-1651000D02*
X-6898500Y-1651000D01*
X-7048500Y-3406000D02*
X-7048500Y-3706000D01*
X-7198500Y-3556000D02*
X-6898500Y-3556000D01*
X-6413500Y658000D02*
X-6413500Y358000D01*
X-6563500Y508000D02*
X-6263500Y508000D01*
X-6413500Y-1247000D02*
X-6413500Y-1547000D01*
X-6563500Y-1397000D02*
X-6263500Y-1397000D01*
X-6413500Y-3152000D02*
X-6413500Y-3452000D01*
X-6563500Y-3302000D02*
X-6263500Y-3302000D01*
X-5143500Y1356500D02*
X-5143500Y1056500D01*
X-5293500Y1206500D02*
X-4993500Y1206500D01*
X-5143500Y-548500D02*
X-5143500Y-848500D01*
X-5293500Y-698500D02*
X-4993500Y-698500D01*
X-5143500Y-2453500D02*
X-5143500Y-2753500D01*
X-5293500Y-2603500D02*
X-4993500Y-2603500D01*
X-4508500Y1610500D02*
X-4508500Y1310500D01*
X-4658500Y1460500D02*
X-4358500Y1460500D01*
X-4508500Y-294500D02*
X-4508500Y-594500D01*
X-4658500Y-444500D02*
X-4358500Y-444500D01*
X-4508500Y-2199500D02*
X-4508500Y-2499500D01*
X-4658500Y-2349500D02*
X-4358500Y-2349500D01*
X-3238500Y2309000D02*
X-3238500Y2009000D01*
X-3388500Y2159000D02*
X-3088500Y2159000D01*
X-3238500Y404000D02*
X-3238500Y104000D01*
X-3388500Y254000D02*
X-3088500Y254000D01*
X-3238500Y-1501000D02*
X-3238500Y-1801000D01*
X-3388500Y-1651000D02*
X-3088500Y-1651000D01*
X-2603500Y2563000D02*
X-2603500Y2263000D01*
X-2753500Y2413000D02*
X-2453500Y2413000D01*
X-2603500Y658000D02*
X-2603500Y358000D01*
X-2753500Y508000D02*
X-2453500Y508000D01*
X-2603500Y-1247000D02*
X-2603500Y-1547000D01*
X-2753500Y-1397000D02*
X-2453500Y-1397000D01*
X-1333500Y1356500D02*
X-1333500Y1056500D01*
X-1483500Y1206500D02*
X-1183500Y1206500D01*
X-1333500Y-548500D02*
X-1333500Y-848500D01*
X-1483500Y-698500D02*
X-1183500Y-698500D01*
X-1333500Y-2453500D02*
X-1333500Y-2753500D01*
X-1483500Y-2603500D02*
X-1183500Y-2603500D01*
X-698500Y1610500D02*
X-698500Y1310500D01*
X-848500Y1460500D02*
X-548500Y1460500D01*
X-698500Y-294500D02*
X-698500Y-594500D01*
X-848500Y-444500D02*
X-548500Y-444500D01*
X-698500Y-2199500D02*
X-698500Y-2499500D01*
X-848500Y-2349500D02*
X-548500Y-2349500D01*
X-381000Y-5311000D02*
X-381000Y-5611000D01*
X-531000Y-5461000D02*
X-231000Y-5461000D01*
X254000Y-5057000D02*
X254000Y-5357000D01*
X104000Y-5207000D02*
X404000Y-5207000D01*
X571500Y1356500D02*
X571500Y1056500D01*
X421500Y1206500D02*
X721500Y1206500D01*
X571500Y-548500D02*
X571500Y-848500D01*
X421500Y-698500D02*
X721500Y-698500D01*
X571500Y-2453500D02*
X571500Y-2753500D01*
X421500Y-2603500D02*
X721500Y-2603500D01*
X1206500Y1610500D02*
X1206500Y1310500D01*
X1056500Y1460500D02*
X1356500Y1460500D01*
X1206500Y-294500D02*
X1206500Y-594500D01*
X1056500Y-444500D02*
X1356500Y-444500D01*
X1206500Y-2199500D02*
X1206500Y-2499500D01*
X1056500Y-2349500D02*
X1356500Y-2349500D01*
X1524000Y-5311000D02*
X1524000Y-5611000D01*
X1374000Y-5461000D02*
X1674000Y-5461000D01*
X2159000Y-5057000D02*
X2159000Y-5357000D01*
X2009000Y-5207000D02*
X2309000Y-5207000D01*
X4191000Y-5311000D02*
X4191000Y-5611000D01*
X4041000Y-5461000D02*
X4341000Y-5461000D01*
X4826000Y-5057000D02*
X4826000Y-5357000D01*
X4676000Y-5207000D02*
X4976000Y-5207000D01*
X5143500Y1356500D02*
X5143500Y1056500D01*
X4993500Y1206500D02*
X5293500Y1206500D01*
X5143500Y-548500D02*
X5143500Y-848500D01*
X4993500Y-698500D02*
X5293500Y-698500D01*
X5143500Y-2453500D02*
X5143500Y-2753500D01*
X4993500Y-2603500D02*
X5293500Y-2603500D01*
X5778500Y1610500D02*
X5778500Y1310500D01*
X5628500Y1460500D02*
X5928500Y1460500D01*
X5778500Y-294500D02*
X5778500Y-594500D01*
X5628500Y-444500D02*
X5928500Y-444500D01*
X5778500Y-2199500D02*
X5778500Y-2499500D01*
X5628500Y-2349500D02*
X5928500Y-2349500D01*
X6096000Y-5311000D02*
X6096000Y-5611000D01*
X5946000Y-5461000D02*
X6246000Y-5461000D01*
X6731000Y-5057000D02*
X6731000Y-5357000D01*
X6581000Y-5207000D02*
X6881000Y-5207000D01*
X7048500Y1356500D02*
X7048500Y1056500D01*
X6898500Y1206500D02*
X7198500Y1206500D01*
X7048500Y-548500D02*
X7048500Y-848500D01*
X6898500Y-698500D02*
X7198500Y-698500D01*
X7048500Y-2453500D02*
X7048500Y-2753500D01*
X6898500Y-2603500D02*
X7198500Y-2603500D01*
X7683500Y1610500D02*
X7683500Y1310500D01*
X7533500Y1460500D02*
X7833500Y1460500D01*
X7683500Y-294500D02*
X7683500Y-594500D01*
X7533500Y-444500D02*
X7833500Y-444500D01*
X7683500Y-2199500D02*
X7683500Y-2499500D01*
X7533500Y-2349500D02*
X7833500Y-2349500D01*
X8953500Y2309000D02*
X8953500Y2009000D01*
X8803500Y2159000D02*
X9103500Y2159000D01*
X8953500Y404000D02*
X8953500Y104000D01*
X8803500Y254000D02*
X9103500Y254000D01*
X8953500Y-1501000D02*
X8953500Y-1801000D01*
X8803500Y-1651000D02*
X9103500Y-1651000D01*
X9588500Y2563000D02*
X9588500Y2263000D01*
X9438500Y2413000D02*
X9738500Y2413000D01*
X9588500Y658000D02*
X9588500Y358000D01*
X9438500Y508000D02*
X9738500Y508000D01*
X9588500Y-1247000D02*
X9588500Y-1547000D01*
X9438500Y-1397000D02*
X9738500Y-1397000D01*
X10858500Y1356500D02*
X10858500Y1056500D01*
X10708500Y1206500D02*
X11008500Y1206500D01*
X10858500Y-548500D02*
X10858500Y-848500D01*
X10708500Y-698500D02*
X11008500Y-698500D01*
X10858500Y-2453500D02*
X10858500Y-2753500D01*
X10708500Y-2603500D02*
X11008500Y-2603500D01*
X11493500Y1610500D02*
X11493500Y1310500D01*
X11343500Y1460500D02*
X11643500Y1460500D01*
X11493500Y-294500D02*
X11493500Y-594500D01*
X11343500Y-444500D02*
X11643500Y-444500D01*
X11493500Y-2199500D02*
X11493500Y-2499500D01*
X11343500Y-2349500D02*
X11643500Y-2349500D01*
X12763500Y404000D02*
X12763500Y104000D01*
X12613500Y254000D02*
X12913500Y254000D01*
X12763500Y-1501000D02*
X12763500Y-1801000D01*
X12613500Y-1651000D02*
X12913500Y-1651000D01*
X12763500Y-3406000D02*
X12763500Y-3706000D01*
X12613500Y-3556000D02*
X12913500Y-3556000D01*
X13398500Y658000D02*
X13398500Y358000D01*
X13248500Y508000D02*
X13548500Y508000D01*
X13398500Y-1247000D02*
X13398500Y-1547000D01*
X13248500Y-1397000D02*
X13548500Y-1397000D01*
X13398500Y-3152000D02*
X13398500Y-3452000D01*
X13248500Y-3302000D02*
X13548500Y-3302000D01*
D15*
X-6526077Y-141423D02*
X-6526077Y141423D01*
X-6808923Y141423D01*
X-6808923Y-141423D01*
X-6526077Y-141423D01*
X-6526077Y-2046423D02*
X-6526077Y-1763577D01*
X-6808923Y-1763577D01*
X-6808923Y-2046423D01*
X-6526077Y-2046423D01*
X-6526077Y-3951423D02*
X-6526077Y-3668577D01*
X-6808923Y-3668577D01*
X-6808923Y-3951423D01*
X-6526077Y-3951423D01*
X-4621077Y811077D02*
X-4621077Y1093923D01*
X-4903923Y1093923D01*
X-4903923Y811077D01*
X-4621077Y811077D01*
X-4621077Y-1093923D02*
X-4621077Y-811077D01*
X-4903923Y-811077D01*
X-4903923Y-1093923D01*
X-4621077Y-1093923D01*
X-4621077Y-2998923D02*
X-4621077Y-2716077D01*
X-4903923Y-2716077D01*
X-4903923Y-2998923D01*
X-4621077Y-2998923D01*
X-2716077Y1763577D02*
X-2716077Y2046423D01*
X-2998923Y2046423D01*
X-2998923Y1763577D01*
X-2716077Y1763577D01*
X-2716077Y-141423D02*
X-2716077Y141423D01*
X-2998923Y141423D01*
X-2998923Y-141423D01*
X-2716077Y-141423D01*
X-2716077Y-2046423D02*
X-2716077Y-1763577D01*
X-2998923Y-1763577D01*
X-2998923Y-2046423D01*
X-2716077Y-2046423D01*
X-811077Y811077D02*
X-811077Y1093923D01*
X-1093923Y1093923D01*
X-1093923Y811077D01*
X-811077Y811077D01*
X-811077Y-1093923D02*
X-811077Y-811077D01*
X-1093923Y-811077D01*
X-1093923Y-1093923D01*
X-811077Y-1093923D01*
X-811077Y-2998923D02*
X-811077Y-2716077D01*
X-1093923Y-2716077D01*
X-1093923Y-2998923D01*
X-811077Y-2998923D01*
X141423Y-5856423D02*
X141423Y-5573577D01*
X-141423Y-5573577D01*
X-141423Y-5856423D01*
X141423Y-5856423D01*
X1093923Y811077D02*
X1093923Y1093923D01*
X811077Y1093923D01*
X811077Y811077D01*
X1093923Y811077D01*
X1093923Y-1093923D02*
X1093923Y-811077D01*
X811077Y-811077D01*
X811077Y-1093923D01*
X1093923Y-1093923D01*
X1093923Y-2998923D02*
X1093923Y-2716077D01*
X811077Y-2716077D01*
X811077Y-2998923D01*
X1093923Y-2998923D01*
X2046423Y-5856423D02*
X2046423Y-5573577D01*
X1763577Y-5573577D01*
X1763577Y-5856423D01*
X2046423Y-5856423D01*
X4713423Y-5856423D02*
X4713423Y-5573577D01*
X4430577Y-5573577D01*
X4430577Y-5856423D01*
X4713423Y-5856423D01*
X5665923Y811077D02*
X5665923Y1093923D01*
X5383077Y1093923D01*
X5383077Y811077D01*
X5665923Y811077D01*
X5665923Y-1093923D02*
X5665923Y-811077D01*
X5383077Y-811077D01*
X5383077Y-1093923D01*
X5665923Y-1093923D01*
X5665923Y-2998923D02*
X5665923Y-2716077D01*
X5383077Y-2716077D01*
X5383077Y-2998923D01*
X5665923Y-2998923D01*
X6618423Y-5856423D02*
X6618423Y-5573577D01*
X6335577Y-5573577D01*
X6335577Y-5856423D01*
X6618423Y-5856423D01*
X7570923Y811077D02*
X7570923Y1093923D01*
X7288077Y1093923D01*
X7288077Y811077D01*
X7570923Y811077D01*
X7570923Y-1093923D02*
X7570923Y-811077D01*
X7288077Y-811077D01*
X7288077Y-1093923D01*
X7570923Y-1093923D01*
X7570923Y-2998923D02*
X7570923Y-2716077D01*
X7288077Y-2716077D01*
X7288077Y-2998923D01*
X7570923Y-2998923D01*
X9475923Y1763577D02*
X9475923Y2046423D01*
X9193077Y2046423D01*
X9193077Y1763577D01*
X9475923Y1763577D01*
X9475923Y-141423D02*
X9475923Y141423D01*
X9193077Y141423D01*
X9193077Y-141423D01*
X9475923Y-141423D01*
X9475923Y-2046423D02*
X9475923Y-1763577D01*
X9193077Y-1763577D01*
X9193077Y-2046423D01*
X9475923Y-2046423D01*
X11380923Y811077D02*
X11380923Y1093923D01*
X11098077Y1093923D01*
X11098077Y811077D01*
X11380923Y811077D01*
X11380923Y-1093923D02*
X11380923Y-811077D01*
X11098077Y-811077D01*
X11098077Y-1093923D01*
X11380923Y-1093923D01*
X11380923Y-2998923D02*
X11380923Y-2716077D01*
X11098077Y-2716077D01*
X11098077Y-2998923D01*
X11380923Y-2998923D01*
X13285923Y-141423D02*
X13285923Y141423D01*
X13003077Y141423D01*
X13003077Y-141423D01*
X13285923Y-141423D01*
X13285923Y-2046423D02*
X13285923Y-1763577D01*
X13003077Y-1763577D01*
X13003077Y-2046423D01*
X13285923Y-2046423D01*
X13285923Y-3951423D02*
X13285923Y-3668577D01*
X13003077Y-3668577D01*
X13003077Y-3951423D01*
X13285923Y-3951423D01*
D11*
X-7622381Y-7745976D02*
X-7622381Y-7545976D01*
X-7574762Y-7545976D01*
X-7546190Y-7555500D01*
X-7527143Y-7574548D01*
X-7517619Y-7593595D01*
X-7508095Y-7631690D01*
X-7508095Y-7660262D01*
X-7517619Y-7698357D01*
X-7527143Y-7717405D01*
X-7546190Y-7736452D01*
X-7574762Y-7745976D01*
X-7622381Y-7745976D01*
X-7422381Y-7745976D02*
X-7422381Y-7612643D01*
X-7422381Y-7650738D02*
X-7412857Y-7631690D01*
X-7403333Y-7622167D01*
X-7384286Y-7612643D01*
X-7365238Y-7612643D01*
X-7298571Y-7745976D02*
X-7298571Y-7612643D01*
X-7298571Y-7545976D02*
X-7308095Y-7555500D01*
X-7298571Y-7565024D01*
X-7289048Y-7555500D01*
X-7298571Y-7545976D01*
X-7298571Y-7565024D01*
X-7174762Y-7745976D02*
X-7193810Y-7736452D01*
X-7203333Y-7717405D01*
X-7203333Y-7545976D01*
X-7070000Y-7745976D02*
X-7089048Y-7736452D01*
X-7098571Y-7717405D01*
X-7098571Y-7545976D01*
X-6841429Y-7745976D02*
X-6841429Y-7545976D01*
X-6774762Y-7688833D01*
X-6708095Y-7545976D01*
X-6708095Y-7745976D01*
X-6527143Y-7745976D02*
X-6527143Y-7641214D01*
X-6536667Y-7622167D01*
X-6555714Y-7612643D01*
X-6593810Y-7612643D01*
X-6612857Y-7622167D01*
X-6527143Y-7736452D02*
X-6546190Y-7745976D01*
X-6593810Y-7745976D01*
X-6612857Y-7736452D01*
X-6622381Y-7717405D01*
X-6622381Y-7698357D01*
X-6612857Y-7679309D01*
X-6593810Y-7669786D01*
X-6546190Y-7669786D01*
X-6527143Y-7660262D01*
X-6431905Y-7612643D02*
X-6431905Y-7812643D01*
X-6431905Y-7622167D02*
X-6412857Y-7612643D01*
X-6374762Y-7612643D01*
X-6355714Y-7622167D01*
X-6346190Y-7631690D01*
X-6336667Y-7650738D01*
X-6336667Y-7707881D01*
X-6346190Y-7726928D01*
X-6355714Y-7736452D01*
X-6374762Y-7745976D01*
X-6412857Y-7745976D01*
X-6431905Y-7736452D01*
X-6250952Y-7726928D02*
X-6241429Y-7736452D01*
X-6250952Y-7745976D01*
X-6260476Y-7736452D01*
X-6250952Y-7726928D01*
X-6250952Y-7745976D01*
X-6250952Y-7622167D02*
X-6241429Y-7631690D01*
X-6250952Y-7641214D01*
X-6260476Y-7631690D01*
X-6250952Y-7622167D01*
X-6250952Y-7641214D01*
D12*
X-8070000Y-7980500D02*
X-7880000Y-8170500D01*
X-7880000Y-7980500D02*
X-8070000Y-8170500D01*
D11*
X-7517619Y-8165976D02*
X-7631905Y-8165976D01*
X-7574762Y-8165976D02*
X-7574762Y-7965976D01*
X-7593810Y-7994548D01*
X-7612857Y-8013595D01*
X-7631905Y-8023119D01*
X-7431905Y-8146928D02*
X-7422381Y-8156452D01*
X-7431905Y-8165976D01*
X-7441429Y-8156452D01*
X-7431905Y-8146928D01*
X-7431905Y-8165976D01*
X-7327143Y-8165976D02*
X-7289048Y-8165976D01*
X-7270000Y-8156452D01*
X-7260476Y-8146928D01*
X-7241429Y-8118357D01*
X-7231905Y-8080262D01*
X-7231905Y-8004071D01*
X-7241429Y-7985024D01*
X-7250952Y-7975500D01*
X-7270000Y-7965976D01*
X-7308095Y-7965976D01*
X-7327143Y-7975500D01*
X-7336667Y-7985024D01*
X-7346190Y-8004071D01*
X-7346190Y-8051690D01*
X-7336667Y-8070738D01*
X-7327143Y-8080262D01*
X-7308095Y-8089786D01*
X-7270000Y-8089786D01*
X-7250952Y-8080262D01*
X-7241429Y-8070738D01*
X-7231905Y-8051690D01*
X-7108095Y-7965976D02*
X-7089048Y-7965976D01*
X-7070000Y-7975500D01*
X-7060476Y-7985024D01*
X-7050952Y-8004071D01*
X-7041429Y-8042167D01*
X-7041429Y-8089786D01*
X-7050952Y-8127881D01*
X-7060476Y-8146928D01*
X-7070000Y-8156452D01*
X-7089048Y-8165976D01*
X-7108095Y-8165976D01*
X-7127143Y-8156452D01*
X-7136667Y-8146928D01*
X-7146190Y-8127881D01*
X-7155714Y-8089786D01*
X-7155714Y-8042167D01*
X-7146190Y-8004071D01*
X-7136667Y-7985024D01*
X-7127143Y-7975500D01*
X-7108095Y-7965976D01*
X-6917619Y-7965976D02*
X-6898571Y-7965976D01*
X-6879524Y-7975500D01*
X-6870000Y-7985024D01*
X-6860476Y-8004071D01*
X-6850952Y-8042167D01*
X-6850952Y-8089786D01*
X-6860476Y-8127881D01*
X-6870000Y-8146928D01*
X-6879524Y-8156452D01*
X-6898571Y-8165976D01*
X-6917619Y-8165976D01*
X-6936667Y-8156452D01*
X-6946190Y-8146928D01*
X-6955714Y-8127881D01*
X-6965238Y-8089786D01*
X-6965238Y-8042167D01*
X-6955714Y-8004071D01*
X-6946190Y-7985024D01*
X-6936667Y-7975500D01*
X-6917619Y-7965976D01*
X-6765238Y-8165976D02*
X-6765238Y-8032643D01*
X-6765238Y-8051690D02*
X-6755714Y-8042167D01*
X-6736667Y-8032643D01*
X-6708095Y-8032643D01*
X-6689048Y-8042167D01*
X-6679524Y-8061214D01*
X-6679524Y-8165976D01*
X-6679524Y-8061214D02*
X-6670000Y-8042167D01*
X-6650952Y-8032643D01*
X-6622381Y-8032643D01*
X-6603333Y-8042167D01*
X-6593810Y-8061214D01*
X-6593810Y-8165976D01*
X-6498571Y-8165976D02*
X-6498571Y-8032643D01*
X-6498571Y-8051690D02*
X-6489048Y-8042167D01*
X-6470000Y-8032643D01*
X-6441429Y-8032643D01*
X-6422381Y-8042167D01*
X-6412857Y-8061214D01*
X-6412857Y-8165976D01*
X-6412857Y-8061214D02*
X-6403333Y-8042167D01*
X-6384286Y-8032643D01*
X-6355714Y-8032643D01*
X-6336667Y-8042167D01*
X-6327143Y-8061214D01*
X-6327143Y-8165976D01*
X-5936667Y-7956452D02*
X-6108095Y-8213595D01*
X-5679524Y-7965976D02*
X-5660476Y-7965976D01*
X-5641429Y-7975500D01*
X-5631905Y-7985024D01*
X-5622381Y-8004071D01*
X-5612857Y-8042167D01*
X-5612857Y-8089786D01*
X-5622381Y-8127881D01*
X-5631905Y-8146928D01*
X-5641429Y-8156452D01*
X-5660476Y-8165976D01*
X-5679524Y-8165976D01*
X-5698571Y-8156452D01*
X-5708095Y-8146928D01*
X-5717619Y-8127881D01*
X-5727143Y-8089786D01*
X-5727143Y-8042167D01*
X-5717619Y-8004071D01*
X-5708095Y-7985024D01*
X-5698571Y-7975500D01*
X-5679524Y-7965976D01*
X-5527143Y-8146928D02*
X-5517619Y-8156452D01*
X-5527143Y-8165976D01*
X-5536667Y-8156452D01*
X-5527143Y-8146928D01*
X-5527143Y-8165976D01*
X-5393810Y-7965976D02*
X-5374762Y-7965976D01*
X-5355714Y-7975500D01*
X-5346191Y-7985024D01*
X-5336667Y-8004071D01*
X-5327143Y-8042167D01*
X-5327143Y-8089786D01*
X-5336667Y-8127881D01*
X-5346191Y-8146928D01*
X-5355714Y-8156452D01*
X-5374762Y-8165976D01*
X-5393810Y-8165976D01*
X-5412857Y-8156452D01*
X-5422381Y-8146928D01*
X-5431905Y-8127881D01*
X-5441429Y-8089786D01*
X-5441429Y-8042167D01*
X-5431905Y-8004071D01*
X-5422381Y-7985024D01*
X-5412857Y-7975500D01*
X-5393810Y-7965976D01*
X-5260476Y-7965976D02*
X-5127143Y-7965976D01*
X-5212857Y-8165976D01*
X-4965238Y-8032643D02*
X-4965238Y-8165976D01*
X-5012857Y-7956452D02*
X-5060476Y-8099309D01*
X-4936667Y-8099309D01*
X-4831905Y-8051690D02*
X-4850952Y-8042167D01*
X-4860476Y-8032643D01*
X-4870000Y-8013595D01*
X-4870000Y-8004071D01*
X-4860476Y-7985024D01*
X-4850952Y-7975500D01*
X-4831905Y-7965976D01*
X-4793810Y-7965976D01*
X-4774762Y-7975500D01*
X-4765238Y-7985024D01*
X-4755714Y-8004071D01*
X-4755714Y-8013595D01*
X-4765238Y-8032643D01*
X-4774762Y-8042167D01*
X-4793810Y-8051690D01*
X-4831905Y-8051690D01*
X-4850952Y-8061214D01*
X-4860476Y-8070738D01*
X-4870000Y-8089786D01*
X-4870000Y-8127881D01*
X-4860476Y-8146928D01*
X-4850952Y-8156452D01*
X-4831905Y-8165976D01*
X-4793810Y-8165976D01*
X-4774762Y-8156452D01*
X-4765238Y-8146928D01*
X-4755714Y-8127881D01*
X-4755714Y-8089786D01*
X-4765238Y-8070738D01*
X-4774762Y-8061214D01*
X-4793810Y-8051690D01*
X-4679524Y-7965976D02*
X-4679524Y-8004071D01*
X-4603333Y-7965976D02*
X-4603333Y-8004071D01*
X-4308095Y-8242167D02*
X-4317619Y-8232643D01*
X-4336667Y-8204071D01*
X-4346191Y-8185024D01*
X-4355714Y-8156452D01*
X-4365238Y-8108833D01*
X-4365238Y-8070738D01*
X-4355714Y-8023119D01*
X-4346191Y-7994548D01*
X-4336667Y-7975500D01*
X-4317619Y-7946928D01*
X-4308095Y-7937405D01*
X-4146190Y-7965976D02*
X-4184286Y-7965976D01*
X-4203333Y-7975500D01*
X-4212857Y-7985024D01*
X-4231905Y-8013595D01*
X-4241429Y-8051690D01*
X-4241429Y-8127881D01*
X-4231905Y-8146928D01*
X-4222381Y-8156452D01*
X-4203333Y-8165976D01*
X-4165238Y-8165976D01*
X-4146190Y-8156452D01*
X-4136667Y-8146928D01*
X-4127143Y-8127881D01*
X-4127143Y-8080262D01*
X-4136667Y-8061214D01*
X-4146190Y-8051690D01*
X-4165238Y-8042167D01*
X-4203333Y-8042167D01*
X-4222381Y-8051690D01*
X-4231905Y-8061214D01*
X-4241429Y-8080262D01*
X-4012857Y-8051690D02*
X-4031905Y-8042167D01*
X-4041429Y-8032643D01*
X-4050952Y-8013595D01*
X-4050952Y-8004071D01*
X-4041429Y-7985024D01*
X-4031905Y-7975500D01*
X-4012857Y-7965976D01*
X-3974762Y-7965976D01*
X-3955714Y-7975500D01*
X-3946190Y-7985024D01*
X-3936667Y-8004071D01*
X-3936667Y-8013595D01*
X-3946190Y-8032643D01*
X-3955714Y-8042167D01*
X-3974762Y-8051690D01*
X-4012857Y-8051690D01*
X-4031905Y-8061214D01*
X-4041429Y-8070738D01*
X-4050952Y-8089786D01*
X-4050952Y-8127881D01*
X-4041429Y-8146928D01*
X-4031905Y-8156452D01*
X-4012857Y-8165976D01*
X-3974762Y-8165976D01*
X-3955714Y-8156452D01*
X-3946190Y-8146928D01*
X-3936667Y-8127881D01*
X-3936667Y-8089786D01*
X-3946190Y-8070738D01*
X-3955714Y-8061214D01*
X-3974762Y-8051690D01*
X-3698571Y-8165976D02*
X-3698571Y-7965976D01*
X-3612857Y-8165976D02*
X-3612857Y-8061214D01*
X-3622381Y-8042167D01*
X-3641429Y-8032643D01*
X-3670000Y-8032643D01*
X-3689048Y-8042167D01*
X-3698571Y-8051690D01*
X-3489048Y-8165976D02*
X-3508095Y-8156452D01*
X-3517619Y-8146928D01*
X-3527143Y-8127881D01*
X-3527143Y-8070738D01*
X-3517619Y-8051690D01*
X-3508095Y-8042167D01*
X-3489048Y-8032643D01*
X-3460476Y-8032643D01*
X-3441429Y-8042167D01*
X-3431905Y-8051690D01*
X-3422381Y-8070738D01*
X-3422381Y-8127881D01*
X-3431905Y-8146928D01*
X-3441429Y-8156452D01*
X-3460476Y-8165976D01*
X-3489048Y-8165976D01*
X-3308095Y-8165976D02*
X-3327143Y-8156452D01*
X-3336667Y-8137405D01*
X-3336667Y-7965976D01*
X-3155714Y-8156452D02*
X-3174762Y-8165976D01*
X-3212857Y-8165976D01*
X-3231905Y-8156452D01*
X-3241429Y-8137405D01*
X-3241429Y-8061214D01*
X-3231905Y-8042167D01*
X-3212857Y-8032643D01*
X-3174762Y-8032643D01*
X-3155714Y-8042167D01*
X-3146190Y-8061214D01*
X-3146190Y-8080262D01*
X-3241429Y-8099309D01*
X-3070000Y-8156452D02*
X-3050952Y-8165976D01*
X-3012857Y-8165976D01*
X-2993810Y-8156452D01*
X-2984286Y-8137405D01*
X-2984286Y-8127881D01*
X-2993810Y-8108833D01*
X-3012857Y-8099309D01*
X-3041429Y-8099309D01*
X-3060476Y-8089786D01*
X-3070000Y-8070738D01*
X-3070000Y-8061214D01*
X-3060476Y-8042167D01*
X-3041429Y-8032643D01*
X-3012857Y-8032643D01*
X-2993810Y-8042167D01*
X-2917619Y-8242167D02*
X-2908095Y-8232643D01*
X-2889048Y-8204071D01*
X-2879524Y-8185024D01*
X-2870000Y-8156452D01*
X-2860476Y-8108833D01*
X-2860476Y-8070738D01*
X-2870000Y-8023119D01*
X-2879524Y-7994548D01*
X-2889048Y-7975500D01*
X-2908095Y-7946928D01*
X-2917619Y-7937405D01*
X-2555714Y-8242167D02*
X-2565238Y-8232643D01*
X-2584286Y-8204071D01*
X-2593810Y-8185024D01*
X-2603333Y-8156452D01*
X-2612857Y-8108833D01*
X-2612857Y-8070738D01*
X-2603333Y-8023119D01*
X-2593810Y-7994548D01*
X-2584286Y-7975500D01*
X-2565238Y-7946928D01*
X-2555714Y-7937405D01*
X-2479524Y-8032643D02*
X-2479524Y-8165976D01*
X-2479524Y-8051690D02*
X-2470000Y-8042167D01*
X-2450952Y-8032643D01*
X-2422381Y-8032643D01*
X-2403333Y-8042167D01*
X-2393810Y-8061214D01*
X-2393810Y-8165976D01*
X-2270000Y-8165976D02*
X-2289048Y-8156452D01*
X-2298572Y-8146928D01*
X-2308095Y-8127881D01*
X-2308095Y-8070738D01*
X-2298572Y-8051690D01*
X-2289048Y-8042167D01*
X-2270000Y-8032643D01*
X-2241429Y-8032643D01*
X-2222381Y-8042167D01*
X-2212857Y-8051690D01*
X-2203333Y-8070738D01*
X-2203333Y-8127881D01*
X-2212857Y-8146928D01*
X-2222381Y-8156452D01*
X-2241429Y-8165976D01*
X-2270000Y-8165976D01*
X-2146191Y-8032643D02*
X-2070000Y-8032643D01*
X-2117619Y-7965976D02*
X-2117619Y-8137405D01*
X-2108095Y-8156452D01*
X-2089048Y-8165976D01*
X-2070000Y-8165976D01*
X-1850952Y-8032643D02*
X-1850952Y-8232643D01*
X-1850952Y-8042167D02*
X-1831905Y-8032643D01*
X-1793810Y-8032643D01*
X-1774762Y-8042167D01*
X-1765238Y-8051690D01*
X-1755714Y-8070738D01*
X-1755714Y-8127881D01*
X-1765238Y-8146928D01*
X-1774762Y-8156452D01*
X-1793810Y-8165976D01*
X-1831905Y-8165976D01*
X-1850952Y-8156452D01*
X-1641429Y-8165976D02*
X-1660476Y-8156452D01*
X-1670000Y-8137405D01*
X-1670000Y-7965976D01*
X-1479524Y-8165976D02*
X-1479524Y-8061214D01*
X-1489048Y-8042167D01*
X-1508095Y-8032643D01*
X-1546190Y-8032643D01*
X-1565238Y-8042167D01*
X-1479524Y-8156452D02*
X-1498571Y-8165976D01*
X-1546190Y-8165976D01*
X-1565238Y-8156452D01*
X-1574762Y-8137405D01*
X-1574762Y-8118357D01*
X-1565238Y-8099309D01*
X-1546190Y-8089786D01*
X-1498571Y-8089786D01*
X-1479524Y-8080262D01*
X-1412857Y-8032643D02*
X-1336667Y-8032643D01*
X-1384286Y-7965976D02*
X-1384286Y-8137405D01*
X-1374762Y-8156452D01*
X-1355714Y-8165976D01*
X-1336667Y-8165976D01*
X-1193810Y-8156452D02*
X-1212857Y-8165976D01*
X-1250952Y-8165976D01*
X-1270000Y-8156452D01*
X-1279524Y-8137405D01*
X-1279524Y-8061214D01*
X-1270000Y-8042167D01*
X-1250952Y-8032643D01*
X-1212857Y-8032643D01*
X-1193810Y-8042167D01*
X-1184286Y-8061214D01*
X-1184286Y-8080262D01*
X-1279524Y-8099309D01*
X-1012857Y-8165976D02*
X-1012857Y-7965976D01*
X-1012857Y-8156452D02*
X-1031905Y-8165976D01*
X-1070000Y-8165976D01*
X-1089048Y-8156452D01*
X-1098572Y-8146928D01*
X-1108095Y-8127881D01*
X-1108095Y-8070738D01*
X-1098572Y-8051690D01*
X-1089048Y-8042167D01*
X-1070000Y-8032643D01*
X-1031905Y-8032643D01*
X-1012857Y-8042167D01*
X-936667Y-8242167D02*
X-927143Y-8232643D01*
X-908095Y-8204071D01*
X-898571Y-8185024D01*
X-889048Y-8156452D01*
X-879524Y-8108833D01*
X-879524Y-8070738D01*
X-889048Y-8023119D01*
X-898571Y-7994548D01*
X-908095Y-7975500D01*
X-927143Y-7946928D01*
X-936667Y-7937405D01*
X-7880000Y-8385500D02*
G75*
G03*
X-7880000Y-8385500I-100000J0D01*
G01*
X-7631905Y-8295024D02*
X-7622381Y-8285500D01*
X-7603333Y-8275976D01*
X-7555714Y-8275976D01*
X-7536667Y-8285500D01*
X-7527143Y-8295024D01*
X-7517619Y-8314071D01*
X-7517619Y-8333119D01*
X-7527143Y-8361690D01*
X-7641429Y-8475976D01*
X-7517619Y-8475976D01*
X-7431905Y-8456929D02*
X-7422381Y-8466452D01*
X-7431905Y-8475976D01*
X-7441429Y-8466452D01*
X-7431905Y-8456929D01*
X-7431905Y-8475976D01*
X-7241429Y-8275976D02*
X-7336667Y-8275976D01*
X-7346190Y-8371214D01*
X-7336667Y-8361690D01*
X-7317619Y-8352167D01*
X-7270000Y-8352167D01*
X-7250952Y-8361690D01*
X-7241429Y-8371214D01*
X-7231905Y-8390262D01*
X-7231905Y-8437881D01*
X-7241429Y-8456929D01*
X-7250952Y-8466452D01*
X-7270000Y-8475976D01*
X-7317619Y-8475976D01*
X-7336667Y-8466452D01*
X-7346190Y-8456929D01*
X-7108095Y-8275976D02*
X-7089048Y-8275976D01*
X-7070000Y-8285500D01*
X-7060476Y-8295024D01*
X-7050952Y-8314071D01*
X-7041429Y-8352167D01*
X-7041429Y-8399786D01*
X-7050952Y-8437881D01*
X-7060476Y-8456929D01*
X-7070000Y-8466452D01*
X-7089048Y-8475976D01*
X-7108095Y-8475976D01*
X-7127143Y-8466452D01*
X-7136667Y-8456929D01*
X-7146190Y-8437881D01*
X-7155714Y-8399786D01*
X-7155714Y-8352167D01*
X-7146190Y-8314071D01*
X-7136667Y-8295024D01*
X-7127143Y-8285500D01*
X-7108095Y-8275976D01*
X-6917619Y-8275976D02*
X-6898571Y-8275976D01*
X-6879524Y-8285500D01*
X-6870000Y-8295024D01*
X-6860476Y-8314071D01*
X-6850952Y-8352167D01*
X-6850952Y-8399786D01*
X-6860476Y-8437881D01*
X-6870000Y-8456929D01*
X-6879524Y-8466452D01*
X-6898571Y-8475976D01*
X-6917619Y-8475976D01*
X-6936667Y-8466452D01*
X-6946190Y-8456929D01*
X-6955714Y-8437881D01*
X-6965238Y-8399786D01*
X-6965238Y-8352167D01*
X-6955714Y-8314071D01*
X-6946190Y-8295024D01*
X-6936667Y-8285500D01*
X-6917619Y-8275976D01*
X-6765238Y-8475976D02*
X-6765238Y-8342643D01*
X-6765238Y-8361690D02*
X-6755714Y-8352167D01*
X-6736667Y-8342643D01*
X-6708095Y-8342643D01*
X-6689048Y-8352167D01*
X-6679524Y-8371214D01*
X-6679524Y-8475976D01*
X-6679524Y-8371214D02*
X-6670000Y-8352167D01*
X-6650952Y-8342643D01*
X-6622381Y-8342643D01*
X-6603333Y-8352167D01*
X-6593810Y-8371214D01*
X-6593810Y-8475976D01*
X-6498571Y-8475976D02*
X-6498571Y-8342643D01*
X-6498571Y-8361690D02*
X-6489048Y-8352167D01*
X-6470000Y-8342643D01*
X-6441429Y-8342643D01*
X-6422381Y-8352167D01*
X-6412857Y-8371214D01*
X-6412857Y-8475976D01*
X-6412857Y-8371214D02*
X-6403333Y-8352167D01*
X-6384286Y-8342643D01*
X-6355714Y-8342643D01*
X-6336667Y-8352167D01*
X-6327143Y-8371214D01*
X-6327143Y-8475976D01*
X-5936667Y-8266452D02*
X-6108095Y-8523595D01*
X-5679524Y-8275976D02*
X-5660476Y-8275976D01*
X-5641429Y-8285500D01*
X-5631905Y-8295024D01*
X-5622381Y-8314071D01*
X-5612857Y-8352167D01*
X-5612857Y-8399786D01*
X-5622381Y-8437881D01*
X-5631905Y-8456929D01*
X-5641429Y-8466452D01*
X-5660476Y-8475976D01*
X-5679524Y-8475976D01*
X-5698571Y-8466452D01*
X-5708095Y-8456929D01*
X-5717619Y-8437881D01*
X-5727143Y-8399786D01*
X-5727143Y-8352167D01*
X-5717619Y-8314071D01*
X-5708095Y-8295024D01*
X-5698571Y-8285500D01*
X-5679524Y-8275976D01*
X-5527143Y-8456929D02*
X-5517619Y-8466452D01*
X-5527143Y-8475976D01*
X-5536667Y-8466452D01*
X-5527143Y-8456929D01*
X-5527143Y-8475976D01*
X-5393810Y-8275976D02*
X-5374762Y-8275976D01*
X-5355714Y-8285500D01*
X-5346191Y-8295024D01*
X-5336667Y-8314071D01*
X-5327143Y-8352167D01*
X-5327143Y-8399786D01*
X-5336667Y-8437881D01*
X-5346191Y-8456929D01*
X-5355714Y-8466452D01*
X-5374762Y-8475976D01*
X-5393810Y-8475976D01*
X-5412857Y-8466452D01*
X-5422381Y-8456929D01*
X-5431905Y-8437881D01*
X-5441429Y-8399786D01*
X-5441429Y-8352167D01*
X-5431905Y-8314071D01*
X-5422381Y-8295024D01*
X-5412857Y-8285500D01*
X-5393810Y-8275976D01*
X-5231905Y-8475976D02*
X-5193810Y-8475976D01*
X-5174762Y-8466452D01*
X-5165238Y-8456929D01*
X-5146191Y-8428357D01*
X-5136667Y-8390262D01*
X-5136667Y-8314071D01*
X-5146191Y-8295024D01*
X-5155714Y-8285500D01*
X-5174762Y-8275976D01*
X-5212857Y-8275976D01*
X-5231905Y-8285500D01*
X-5241429Y-8295024D01*
X-5250952Y-8314071D01*
X-5250952Y-8361690D01*
X-5241429Y-8380738D01*
X-5231905Y-8390262D01*
X-5212857Y-8399786D01*
X-5174762Y-8399786D01*
X-5155714Y-8390262D01*
X-5146191Y-8380738D01*
X-5136667Y-8361690D01*
X-5022381Y-8361690D02*
X-5041429Y-8352167D01*
X-5050952Y-8342643D01*
X-5060476Y-8323595D01*
X-5060476Y-8314071D01*
X-5050952Y-8295024D01*
X-5041429Y-8285500D01*
X-5022381Y-8275976D01*
X-4984286Y-8275976D01*
X-4965238Y-8285500D01*
X-4955714Y-8295024D01*
X-4946191Y-8314071D01*
X-4946191Y-8323595D01*
X-4955714Y-8342643D01*
X-4965238Y-8352167D01*
X-4984286Y-8361690D01*
X-5022381Y-8361690D01*
X-5041429Y-8371214D01*
X-5050952Y-8380738D01*
X-5060476Y-8399786D01*
X-5060476Y-8437881D01*
X-5050952Y-8456929D01*
X-5041429Y-8466452D01*
X-5022381Y-8475976D01*
X-4984286Y-8475976D01*
X-4965238Y-8466452D01*
X-4955714Y-8456929D01*
X-4946191Y-8437881D01*
X-4946191Y-8399786D01*
X-4955714Y-8380738D01*
X-4965238Y-8371214D01*
X-4984286Y-8361690D01*
X-4774762Y-8342643D02*
X-4774762Y-8475976D01*
X-4822381Y-8266452D02*
X-4870000Y-8409310D01*
X-4746191Y-8409310D01*
X-4679524Y-8275976D02*
X-4679524Y-8314071D01*
X-4603333Y-8275976D02*
X-4603333Y-8314071D01*
X-4308095Y-8552167D02*
X-4317619Y-8542643D01*
X-4336667Y-8514071D01*
X-4346191Y-8495024D01*
X-4355714Y-8466452D01*
X-4365238Y-8418833D01*
X-4365238Y-8380738D01*
X-4355714Y-8333119D01*
X-4346191Y-8304548D01*
X-4336667Y-8285500D01*
X-4317619Y-8256928D01*
X-4308095Y-8247405D01*
X-4203333Y-8361690D02*
X-4222381Y-8352167D01*
X-4231905Y-8342643D01*
X-4241429Y-8323595D01*
X-4241429Y-8314071D01*
X-4231905Y-8295024D01*
X-4222381Y-8285500D01*
X-4203333Y-8275976D01*
X-4165238Y-8275976D01*
X-4146190Y-8285500D01*
X-4136667Y-8295024D01*
X-4127143Y-8314071D01*
X-4127143Y-8323595D01*
X-4136667Y-8342643D01*
X-4146190Y-8352167D01*
X-4165238Y-8361690D01*
X-4203333Y-8361690D01*
X-4222381Y-8371214D01*
X-4231905Y-8380738D01*
X-4241429Y-8399786D01*
X-4241429Y-8437881D01*
X-4231905Y-8456929D01*
X-4222381Y-8466452D01*
X-4203333Y-8475976D01*
X-4165238Y-8475976D01*
X-4146190Y-8466452D01*
X-4136667Y-8456929D01*
X-4127143Y-8437881D01*
X-4127143Y-8399786D01*
X-4136667Y-8380738D01*
X-4146190Y-8371214D01*
X-4165238Y-8361690D01*
X-3889048Y-8475976D02*
X-3889048Y-8275976D01*
X-3803333Y-8475976D02*
X-3803333Y-8371214D01*
X-3812857Y-8352167D01*
X-3831905Y-8342643D01*
X-3860476Y-8342643D01*
X-3879524Y-8352167D01*
X-3889048Y-8361690D01*
X-3679524Y-8475976D02*
X-3698571Y-8466452D01*
X-3708095Y-8456929D01*
X-3717619Y-8437881D01*
X-3717619Y-8380738D01*
X-3708095Y-8361690D01*
X-3698571Y-8352167D01*
X-3679524Y-8342643D01*
X-3650952Y-8342643D01*
X-3631905Y-8352167D01*
X-3622381Y-8361690D01*
X-3612857Y-8380738D01*
X-3612857Y-8437881D01*
X-3622381Y-8456929D01*
X-3631905Y-8466452D01*
X-3650952Y-8475976D01*
X-3679524Y-8475976D01*
X-3498571Y-8475976D02*
X-3517619Y-8466452D01*
X-3527143Y-8447405D01*
X-3527143Y-8275976D01*
X-3346190Y-8466452D02*
X-3365238Y-8475976D01*
X-3403333Y-8475976D01*
X-3422381Y-8466452D01*
X-3431905Y-8447405D01*
X-3431905Y-8371214D01*
X-3422381Y-8352167D01*
X-3403333Y-8342643D01*
X-3365238Y-8342643D01*
X-3346190Y-8352167D01*
X-3336667Y-8371214D01*
X-3336667Y-8390262D01*
X-3431905Y-8409310D01*
X-3260476Y-8466452D02*
X-3241429Y-8475976D01*
X-3203333Y-8475976D01*
X-3184286Y-8466452D01*
X-3174762Y-8447405D01*
X-3174762Y-8437881D01*
X-3184286Y-8418833D01*
X-3203333Y-8409310D01*
X-3231905Y-8409310D01*
X-3250952Y-8399786D01*
X-3260476Y-8380738D01*
X-3260476Y-8371214D01*
X-3250952Y-8352167D01*
X-3231905Y-8342643D01*
X-3203333Y-8342643D01*
X-3184286Y-8352167D01*
X-3108095Y-8552167D02*
X-3098571Y-8542643D01*
X-3079524Y-8514071D01*
X-3070000Y-8495024D01*
X-3060476Y-8466452D01*
X-3050952Y-8418833D01*
X-3050952Y-8380738D01*
X-3060476Y-8333119D01*
X-3070000Y-8304548D01*
X-3079524Y-8285500D01*
X-3098571Y-8256928D01*
X-3108095Y-8247405D01*
X-2746191Y-8552167D02*
X-2755714Y-8542643D01*
X-2774762Y-8514071D01*
X-2784286Y-8495024D01*
X-2793810Y-8466452D01*
X-2803333Y-8418833D01*
X-2803333Y-8380738D01*
X-2793810Y-8333119D01*
X-2784286Y-8304548D01*
X-2774762Y-8285500D01*
X-2755714Y-8256928D01*
X-2746191Y-8247405D01*
X-2670000Y-8342643D02*
X-2670000Y-8475976D01*
X-2670000Y-8361690D02*
X-2660476Y-8352167D01*
X-2641429Y-8342643D01*
X-2612857Y-8342643D01*
X-2593810Y-8352167D01*
X-2584286Y-8371214D01*
X-2584286Y-8475976D01*
X-2460476Y-8475976D02*
X-2479524Y-8466452D01*
X-2489048Y-8456929D01*
X-2498572Y-8437881D01*
X-2498572Y-8380738D01*
X-2489048Y-8361690D01*
X-2479524Y-8352167D01*
X-2460476Y-8342643D01*
X-2431905Y-8342643D01*
X-2412857Y-8352167D01*
X-2403333Y-8361690D01*
X-2393810Y-8380738D01*
X-2393810Y-8437881D01*
X-2403333Y-8456929D01*
X-2412857Y-8466452D01*
X-2431905Y-8475976D01*
X-2460476Y-8475976D01*
X-2336667Y-8342643D02*
X-2260476Y-8342643D01*
X-2308095Y-8275976D02*
X-2308095Y-8447405D01*
X-2298572Y-8466452D01*
X-2279524Y-8475976D01*
X-2260476Y-8475976D01*
X-2041429Y-8342643D02*
X-2041429Y-8542643D01*
X-2041429Y-8352167D02*
X-2022381Y-8342643D01*
X-1984286Y-8342643D01*
X-1965238Y-8352167D01*
X-1955714Y-8361690D01*
X-1946190Y-8380738D01*
X-1946190Y-8437881D01*
X-1955714Y-8456929D01*
X-1965238Y-8466452D01*
X-1984286Y-8475976D01*
X-2022381Y-8475976D01*
X-2041429Y-8466452D01*
X-1831905Y-8475976D02*
X-1850952Y-8466452D01*
X-1860476Y-8447405D01*
X-1860476Y-8275976D01*
X-1670000Y-8475976D02*
X-1670000Y-8371214D01*
X-1679524Y-8352167D01*
X-1698571Y-8342643D01*
X-1736667Y-8342643D01*
X-1755714Y-8352167D01*
X-1670000Y-8466452D02*
X-1689048Y-8475976D01*
X-1736667Y-8475976D01*
X-1755714Y-8466452D01*
X-1765238Y-8447405D01*
X-1765238Y-8428357D01*
X-1755714Y-8409310D01*
X-1736667Y-8399786D01*
X-1689048Y-8399786D01*
X-1670000Y-8390262D01*
X-1603333Y-8342643D02*
X-1527143Y-8342643D01*
X-1574762Y-8275976D02*
X-1574762Y-8447405D01*
X-1565238Y-8466452D01*
X-1546190Y-8475976D01*
X-1527143Y-8475976D01*
X-1384286Y-8466452D02*
X-1403333Y-8475976D01*
X-1441429Y-8475976D01*
X-1460476Y-8466452D01*
X-1470000Y-8447405D01*
X-1470000Y-8371214D01*
X-1460476Y-8352167D01*
X-1441429Y-8342643D01*
X-1403333Y-8342643D01*
X-1384286Y-8352167D01*
X-1374762Y-8371214D01*
X-1374762Y-8390262D01*
X-1470000Y-8409310D01*
X-1203333Y-8475976D02*
X-1203333Y-8275976D01*
X-1203333Y-8466452D02*
X-1222381Y-8475976D01*
X-1260476Y-8475976D01*
X-1279524Y-8466452D01*
X-1289048Y-8456929D01*
X-1298572Y-8437881D01*
X-1298572Y-8380738D01*
X-1289048Y-8361690D01*
X-1279524Y-8352167D01*
X-1260476Y-8342643D01*
X-1222381Y-8342643D01*
X-1203333Y-8352167D01*
X-1127143Y-8552167D02*
X-1117619Y-8542643D01*
X-1098572Y-8514071D01*
X-1089048Y-8495024D01*
X-1079524Y-8466452D01*
X-1070000Y-8418833D01*
X-1070000Y-8380738D01*
X-1079524Y-8333119D01*
X-1089048Y-8304548D01*
X-1098572Y-8285500D01*
X-1117619Y-8256928D01*
X-1127143Y-8247405D01*
X-7980000Y-8605500D02*
X-7980000Y-8805500D01*
X-8080000Y-8705500D02*
X-7880000Y-8705500D01*
X-7641429Y-8595976D02*
X-7517619Y-8595976D01*
X-7584286Y-8672167D01*
X-7555714Y-8672167D01*
X-7536667Y-8681690D01*
X-7527143Y-8691214D01*
X-7517619Y-8710262D01*
X-7517619Y-8757881D01*
X-7527143Y-8776929D01*
X-7536667Y-8786452D01*
X-7555714Y-8795976D01*
X-7612857Y-8795976D01*
X-7631905Y-8786452D01*
X-7641429Y-8776929D01*
X-7431905Y-8776929D02*
X-7422381Y-8786452D01*
X-7431905Y-8795976D01*
X-7441429Y-8786452D01*
X-7431905Y-8776929D01*
X-7431905Y-8795976D01*
X-7298571Y-8595976D02*
X-7279524Y-8595976D01*
X-7260476Y-8605500D01*
X-7250952Y-8615024D01*
X-7241429Y-8634071D01*
X-7231905Y-8672167D01*
X-7231905Y-8719786D01*
X-7241429Y-8757881D01*
X-7250952Y-8776929D01*
X-7260476Y-8786452D01*
X-7279524Y-8795976D01*
X-7298571Y-8795976D01*
X-7317619Y-8786452D01*
X-7327143Y-8776929D01*
X-7336667Y-8757881D01*
X-7346190Y-8719786D01*
X-7346190Y-8672167D01*
X-7336667Y-8634071D01*
X-7327143Y-8615024D01*
X-7317619Y-8605500D01*
X-7298571Y-8595976D01*
X-7108095Y-8595976D02*
X-7089048Y-8595976D01*
X-7070000Y-8605500D01*
X-7060476Y-8615024D01*
X-7050952Y-8634071D01*
X-7041429Y-8672167D01*
X-7041429Y-8719786D01*
X-7050952Y-8757881D01*
X-7060476Y-8776929D01*
X-7070000Y-8786452D01*
X-7089048Y-8795976D01*
X-7108095Y-8795976D01*
X-7127143Y-8786452D01*
X-7136667Y-8776929D01*
X-7146190Y-8757881D01*
X-7155714Y-8719786D01*
X-7155714Y-8672167D01*
X-7146190Y-8634071D01*
X-7136667Y-8615024D01*
X-7127143Y-8605500D01*
X-7108095Y-8595976D01*
X-6917619Y-8595976D02*
X-6898571Y-8595976D01*
X-6879524Y-8605500D01*
X-6870000Y-8615024D01*
X-6860476Y-8634071D01*
X-6850952Y-8672167D01*
X-6850952Y-8719786D01*
X-6860476Y-8757881D01*
X-6870000Y-8776929D01*
X-6879524Y-8786452D01*
X-6898571Y-8795976D01*
X-6917619Y-8795976D01*
X-6936667Y-8786452D01*
X-6946190Y-8776929D01*
X-6955714Y-8757881D01*
X-6965238Y-8719786D01*
X-6965238Y-8672167D01*
X-6955714Y-8634071D01*
X-6946190Y-8615024D01*
X-6936667Y-8605500D01*
X-6917619Y-8595976D01*
X-6765238Y-8795976D02*
X-6765238Y-8662643D01*
X-6765238Y-8681690D02*
X-6755714Y-8672167D01*
X-6736667Y-8662643D01*
X-6708095Y-8662643D01*
X-6689048Y-8672167D01*
X-6679524Y-8691214D01*
X-6679524Y-8795976D01*
X-6679524Y-8691214D02*
X-6670000Y-8672167D01*
X-6650952Y-8662643D01*
X-6622381Y-8662643D01*
X-6603333Y-8672167D01*
X-6593810Y-8691214D01*
X-6593810Y-8795976D01*
X-6498571Y-8795976D02*
X-6498571Y-8662643D01*
X-6498571Y-8681690D02*
X-6489048Y-8672167D01*
X-6470000Y-8662643D01*
X-6441429Y-8662643D01*
X-6422381Y-8672167D01*
X-6412857Y-8691214D01*
X-6412857Y-8795976D01*
X-6412857Y-8691214D02*
X-6403333Y-8672167D01*
X-6384286Y-8662643D01*
X-6355714Y-8662643D01*
X-6336667Y-8672167D01*
X-6327143Y-8691214D01*
X-6327143Y-8795976D01*
X-5936667Y-8586452D02*
X-6108095Y-8843595D01*
X-5679524Y-8595976D02*
X-5660476Y-8595976D01*
X-5641429Y-8605500D01*
X-5631905Y-8615024D01*
X-5622381Y-8634071D01*
X-5612857Y-8672167D01*
X-5612857Y-8719786D01*
X-5622381Y-8757881D01*
X-5631905Y-8776929D01*
X-5641429Y-8786452D01*
X-5660476Y-8795976D01*
X-5679524Y-8795976D01*
X-5698571Y-8786452D01*
X-5708095Y-8776929D01*
X-5717619Y-8757881D01*
X-5727143Y-8719786D01*
X-5727143Y-8672167D01*
X-5717619Y-8634071D01*
X-5708095Y-8615024D01*
X-5698571Y-8605500D01*
X-5679524Y-8595976D01*
X-5527143Y-8776929D02*
X-5517619Y-8786452D01*
X-5527143Y-8795976D01*
X-5536667Y-8786452D01*
X-5527143Y-8776929D01*
X-5527143Y-8795976D01*
X-5327143Y-8795976D02*
X-5441429Y-8795976D01*
X-5384286Y-8795976D02*
X-5384286Y-8595976D01*
X-5403333Y-8624548D01*
X-5422381Y-8643595D01*
X-5441429Y-8653119D01*
X-5136667Y-8795976D02*
X-5250952Y-8795976D01*
X-5193810Y-8795976D02*
X-5193810Y-8595976D01*
X-5212857Y-8624548D01*
X-5231905Y-8643595D01*
X-5250952Y-8653119D01*
X-5022381Y-8681690D02*
X-5041429Y-8672167D01*
X-5050952Y-8662643D01*
X-5060476Y-8643595D01*
X-5060476Y-8634071D01*
X-5050952Y-8615024D01*
X-5041429Y-8605500D01*
X-5022381Y-8595976D01*
X-4984286Y-8595976D01*
X-4965238Y-8605500D01*
X-4955714Y-8615024D01*
X-4946191Y-8634071D01*
X-4946191Y-8643595D01*
X-4955714Y-8662643D01*
X-4965238Y-8672167D01*
X-4984286Y-8681690D01*
X-5022381Y-8681690D01*
X-5041429Y-8691214D01*
X-5050952Y-8700738D01*
X-5060476Y-8719786D01*
X-5060476Y-8757881D01*
X-5050952Y-8776929D01*
X-5041429Y-8786452D01*
X-5022381Y-8795976D01*
X-4984286Y-8795976D01*
X-4965238Y-8786452D01*
X-4955714Y-8776929D01*
X-4946191Y-8757881D01*
X-4946191Y-8719786D01*
X-4955714Y-8700738D01*
X-4965238Y-8691214D01*
X-4984286Y-8681690D01*
X-4755714Y-8795976D02*
X-4870000Y-8795976D01*
X-4812857Y-8795976D02*
X-4812857Y-8595976D01*
X-4831905Y-8624548D01*
X-4850952Y-8643595D01*
X-4870000Y-8653119D01*
X-4679524Y-8595976D02*
X-4679524Y-8634071D01*
X-4603333Y-8595976D02*
X-4603333Y-8634071D01*
X-4308095Y-8872167D02*
X-4317619Y-8862643D01*
X-4336667Y-8834071D01*
X-4346191Y-8815024D01*
X-4355714Y-8786452D01*
X-4365238Y-8738833D01*
X-4365238Y-8700738D01*
X-4355714Y-8653119D01*
X-4346191Y-8624548D01*
X-4336667Y-8605500D01*
X-4317619Y-8576929D01*
X-4308095Y-8567405D01*
X-4146190Y-8595976D02*
X-4184286Y-8595976D01*
X-4203333Y-8605500D01*
X-4212857Y-8615024D01*
X-4231905Y-8643595D01*
X-4241429Y-8681690D01*
X-4241429Y-8757881D01*
X-4231905Y-8776929D01*
X-4222381Y-8786452D01*
X-4203333Y-8795976D01*
X-4165238Y-8795976D01*
X-4146190Y-8786452D01*
X-4136667Y-8776929D01*
X-4127143Y-8757881D01*
X-4127143Y-8710262D01*
X-4136667Y-8691214D01*
X-4146190Y-8681690D01*
X-4165238Y-8672167D01*
X-4203333Y-8672167D01*
X-4222381Y-8681690D01*
X-4231905Y-8691214D01*
X-4241429Y-8710262D01*
X-4012857Y-8681690D02*
X-4031905Y-8672167D01*
X-4041429Y-8662643D01*
X-4050952Y-8643595D01*
X-4050952Y-8634071D01*
X-4041429Y-8615024D01*
X-4031905Y-8605500D01*
X-4012857Y-8595976D01*
X-3974762Y-8595976D01*
X-3955714Y-8605500D01*
X-3946190Y-8615024D01*
X-3936667Y-8634071D01*
X-3936667Y-8643595D01*
X-3946190Y-8662643D01*
X-3955714Y-8672167D01*
X-3974762Y-8681690D01*
X-4012857Y-8681690D01*
X-4031905Y-8691214D01*
X-4041429Y-8700738D01*
X-4050952Y-8719786D01*
X-4050952Y-8757881D01*
X-4041429Y-8776929D01*
X-4031905Y-8786452D01*
X-4012857Y-8795976D01*
X-3974762Y-8795976D01*
X-3955714Y-8786452D01*
X-3946190Y-8776929D01*
X-3936667Y-8757881D01*
X-3936667Y-8719786D01*
X-3946190Y-8700738D01*
X-3955714Y-8691214D01*
X-3974762Y-8681690D01*
X-3698571Y-8795976D02*
X-3698571Y-8595976D01*
X-3612857Y-8795976D02*
X-3612857Y-8691214D01*
X-3622381Y-8672167D01*
X-3641429Y-8662643D01*
X-3670000Y-8662643D01*
X-3689048Y-8672167D01*
X-3698571Y-8681690D01*
X-3489048Y-8795976D02*
X-3508095Y-8786452D01*
X-3517619Y-8776929D01*
X-3527143Y-8757881D01*
X-3527143Y-8700738D01*
X-3517619Y-8681690D01*
X-3508095Y-8672167D01*
X-3489048Y-8662643D01*
X-3460476Y-8662643D01*
X-3441429Y-8672167D01*
X-3431905Y-8681690D01*
X-3422381Y-8700738D01*
X-3422381Y-8757881D01*
X-3431905Y-8776929D01*
X-3441429Y-8786452D01*
X-3460476Y-8795976D01*
X-3489048Y-8795976D01*
X-3308095Y-8795976D02*
X-3327143Y-8786452D01*
X-3336667Y-8767405D01*
X-3336667Y-8595976D01*
X-3155714Y-8786452D02*
X-3174762Y-8795976D01*
X-3212857Y-8795976D01*
X-3231905Y-8786452D01*
X-3241429Y-8767405D01*
X-3241429Y-8691214D01*
X-3231905Y-8672167D01*
X-3212857Y-8662643D01*
X-3174762Y-8662643D01*
X-3155714Y-8672167D01*
X-3146190Y-8691214D01*
X-3146190Y-8710262D01*
X-3241429Y-8729310D01*
X-3070000Y-8786452D02*
X-3050952Y-8795976D01*
X-3012857Y-8795976D01*
X-2993810Y-8786452D01*
X-2984286Y-8767405D01*
X-2984286Y-8757881D01*
X-2993810Y-8738833D01*
X-3012857Y-8729310D01*
X-3041429Y-8729310D01*
X-3060476Y-8719786D01*
X-3070000Y-8700738D01*
X-3070000Y-8691214D01*
X-3060476Y-8672167D01*
X-3041429Y-8662643D01*
X-3012857Y-8662643D01*
X-2993810Y-8672167D01*
X-2917619Y-8872167D02*
X-2908095Y-8862643D01*
X-2889048Y-8834071D01*
X-2879524Y-8815024D01*
X-2870000Y-8786452D01*
X-2860476Y-8738833D01*
X-2860476Y-8700738D01*
X-2870000Y-8653119D01*
X-2879524Y-8624548D01*
X-2889048Y-8605500D01*
X-2908095Y-8576929D01*
X-2917619Y-8567405D01*
X-2555714Y-8872167D02*
X-2565238Y-8862643D01*
X-2584286Y-8834071D01*
X-2593810Y-8815024D01*
X-2603333Y-8786452D01*
X-2612857Y-8738833D01*
X-2612857Y-8700738D01*
X-2603333Y-8653119D01*
X-2593810Y-8624548D01*
X-2584286Y-8605500D01*
X-2565238Y-8576929D01*
X-2555714Y-8567405D01*
X-2479524Y-8662643D02*
X-2479524Y-8795976D01*
X-2479524Y-8681690D02*
X-2470000Y-8672167D01*
X-2450952Y-8662643D01*
X-2422381Y-8662643D01*
X-2403333Y-8672167D01*
X-2393810Y-8691214D01*
X-2393810Y-8795976D01*
X-2270000Y-8795976D02*
X-2289048Y-8786452D01*
X-2298572Y-8776929D01*
X-2308095Y-8757881D01*
X-2308095Y-8700738D01*
X-2298572Y-8681690D01*
X-2289048Y-8672167D01*
X-2270000Y-8662643D01*
X-2241429Y-8662643D01*
X-2222381Y-8672167D01*
X-2212857Y-8681690D01*
X-2203333Y-8700738D01*
X-2203333Y-8757881D01*
X-2212857Y-8776929D01*
X-2222381Y-8786452D01*
X-2241429Y-8795976D01*
X-2270000Y-8795976D01*
X-2146191Y-8662643D02*
X-2070000Y-8662643D01*
X-2117619Y-8595976D02*
X-2117619Y-8767405D01*
X-2108095Y-8786452D01*
X-2089048Y-8795976D01*
X-2070000Y-8795976D01*
X-1850952Y-8662643D02*
X-1850952Y-8862643D01*
X-1850952Y-8672167D02*
X-1831905Y-8662643D01*
X-1793810Y-8662643D01*
X-1774762Y-8672167D01*
X-1765238Y-8681690D01*
X-1755714Y-8700738D01*
X-1755714Y-8757881D01*
X-1765238Y-8776929D01*
X-1774762Y-8786452D01*
X-1793810Y-8795976D01*
X-1831905Y-8795976D01*
X-1850952Y-8786452D01*
X-1641429Y-8795976D02*
X-1660476Y-8786452D01*
X-1670000Y-8767405D01*
X-1670000Y-8595976D01*
X-1479524Y-8795976D02*
X-1479524Y-8691214D01*
X-1489048Y-8672167D01*
X-1508095Y-8662643D01*
X-1546190Y-8662643D01*
X-1565238Y-8672167D01*
X-1479524Y-8786452D02*
X-1498571Y-8795976D01*
X-1546190Y-8795976D01*
X-1565238Y-8786452D01*
X-1574762Y-8767405D01*
X-1574762Y-8748357D01*
X-1565238Y-8729310D01*
X-1546190Y-8719786D01*
X-1498571Y-8719786D01*
X-1479524Y-8710262D01*
X-1412857Y-8662643D02*
X-1336667Y-8662643D01*
X-1384286Y-8595976D02*
X-1384286Y-8767405D01*
X-1374762Y-8786452D01*
X-1355714Y-8795976D01*
X-1336667Y-8795976D01*
X-1193810Y-8786452D02*
X-1212857Y-8795976D01*
X-1250952Y-8795976D01*
X-1270000Y-8786452D01*
X-1279524Y-8767405D01*
X-1279524Y-8691214D01*
X-1270000Y-8672167D01*
X-1250952Y-8662643D01*
X-1212857Y-8662643D01*
X-1193810Y-8672167D01*
X-1184286Y-8691214D01*
X-1184286Y-8710262D01*
X-1279524Y-8729310D01*
X-1012857Y-8795976D02*
X-1012857Y-8595976D01*
X-1012857Y-8786452D02*
X-1031905Y-8795976D01*
X-1070000Y-8795976D01*
X-1089048Y-8786452D01*
X-1098572Y-8776929D01*
X-1108095Y-8757881D01*
X-1108095Y-8700738D01*
X-1098572Y-8681690D01*
X-1089048Y-8672167D01*
X-1070000Y-8662643D01*
X-1031905Y-8662643D01*
X-1012857Y-8672167D01*
X-936667Y-8872167D02*
X-927143Y-8862643D01*
X-908095Y-8834071D01*
X-898571Y-8815024D01*
X-889048Y-8786452D01*
X-879524Y-8738833D01*
X-879524Y-8700738D01*
X-889048Y-8653119D01*
X-898571Y-8624548D01*
X-908095Y-8605500D01*
X-927143Y-8576929D01*
X-936667Y-8567405D01*
X-7909289Y-9096211D02*
X-7909289Y-8954789D01*
X-8050711Y-8954789D01*
X-8050711Y-9096211D01*
X-7909289Y-9096211D01*
X-7536667Y-8982643D02*
X-7536667Y-9115976D01*
X-7584286Y-8906452D02*
X-7631905Y-9049310D01*
X-7508095Y-9049310D01*
X-7431905Y-9096929D02*
X-7422381Y-9106452D01*
X-7431905Y-9115976D01*
X-7441429Y-9106452D01*
X-7431905Y-9096929D01*
X-7431905Y-9115976D01*
X-7298571Y-8915976D02*
X-7279524Y-8915976D01*
X-7260476Y-8925500D01*
X-7250952Y-8935024D01*
X-7241429Y-8954071D01*
X-7231905Y-8992167D01*
X-7231905Y-9039786D01*
X-7241429Y-9077881D01*
X-7250952Y-9096929D01*
X-7260476Y-9106452D01*
X-7279524Y-9115976D01*
X-7298571Y-9115976D01*
X-7317619Y-9106452D01*
X-7327143Y-9096929D01*
X-7336667Y-9077881D01*
X-7346190Y-9039786D01*
X-7346190Y-8992167D01*
X-7336667Y-8954071D01*
X-7327143Y-8935024D01*
X-7317619Y-8925500D01*
X-7298571Y-8915976D01*
X-7108095Y-8915976D02*
X-7089048Y-8915976D01*
X-7070000Y-8925500D01*
X-7060476Y-8935024D01*
X-7050952Y-8954071D01*
X-7041429Y-8992167D01*
X-7041429Y-9039786D01*
X-7050952Y-9077881D01*
X-7060476Y-9096929D01*
X-7070000Y-9106452D01*
X-7089048Y-9115976D01*
X-7108095Y-9115976D01*
X-7127143Y-9106452D01*
X-7136667Y-9096929D01*
X-7146190Y-9077881D01*
X-7155714Y-9039786D01*
X-7155714Y-8992167D01*
X-7146190Y-8954071D01*
X-7136667Y-8935024D01*
X-7127143Y-8925500D01*
X-7108095Y-8915976D01*
X-6917619Y-8915976D02*
X-6898571Y-8915976D01*
X-6879524Y-8925500D01*
X-6870000Y-8935024D01*
X-6860476Y-8954071D01*
X-6850952Y-8992167D01*
X-6850952Y-9039786D01*
X-6860476Y-9077881D01*
X-6870000Y-9096929D01*
X-6879524Y-9106452D01*
X-6898571Y-9115976D01*
X-6917619Y-9115976D01*
X-6936667Y-9106452D01*
X-6946190Y-9096929D01*
X-6955714Y-9077881D01*
X-6965238Y-9039786D01*
X-6965238Y-8992167D01*
X-6955714Y-8954071D01*
X-6946190Y-8935024D01*
X-6936667Y-8925500D01*
X-6917619Y-8915976D01*
X-6765238Y-9115976D02*
X-6765238Y-8982643D01*
X-6765238Y-9001690D02*
X-6755714Y-8992167D01*
X-6736667Y-8982643D01*
X-6708095Y-8982643D01*
X-6689048Y-8992167D01*
X-6679524Y-9011214D01*
X-6679524Y-9115976D01*
X-6679524Y-9011214D02*
X-6670000Y-8992167D01*
X-6650952Y-8982643D01*
X-6622381Y-8982643D01*
X-6603333Y-8992167D01*
X-6593810Y-9011214D01*
X-6593810Y-9115976D01*
X-6498571Y-9115976D02*
X-6498571Y-8982643D01*
X-6498571Y-9001690D02*
X-6489048Y-8992167D01*
X-6470000Y-8982643D01*
X-6441429Y-8982643D01*
X-6422381Y-8992167D01*
X-6412857Y-9011214D01*
X-6412857Y-9115976D01*
X-6412857Y-9011214D02*
X-6403333Y-8992167D01*
X-6384286Y-8982643D01*
X-6355714Y-8982643D01*
X-6336667Y-8992167D01*
X-6327143Y-9011214D01*
X-6327143Y-9115976D01*
X-5936667Y-8906452D02*
X-6108095Y-9163595D01*
X-5679524Y-8915976D02*
X-5660476Y-8915976D01*
X-5641429Y-8925500D01*
X-5631905Y-8935024D01*
X-5622381Y-8954071D01*
X-5612857Y-8992167D01*
X-5612857Y-9039786D01*
X-5622381Y-9077881D01*
X-5631905Y-9096929D01*
X-5641429Y-9106452D01*
X-5660476Y-9115976D01*
X-5679524Y-9115976D01*
X-5698571Y-9106452D01*
X-5708095Y-9096929D01*
X-5717619Y-9077881D01*
X-5727143Y-9039786D01*
X-5727143Y-8992167D01*
X-5717619Y-8954071D01*
X-5708095Y-8935024D01*
X-5698571Y-8925500D01*
X-5679524Y-8915976D01*
X-5527143Y-9096929D02*
X-5517619Y-9106452D01*
X-5527143Y-9115976D01*
X-5536667Y-9106452D01*
X-5527143Y-9096929D01*
X-5527143Y-9115976D01*
X-5327143Y-9115976D02*
X-5441429Y-9115976D01*
X-5384286Y-9115976D02*
X-5384286Y-8915976D01*
X-5403333Y-8944548D01*
X-5422381Y-8963595D01*
X-5441429Y-8973119D01*
X-5146191Y-8915976D02*
X-5241429Y-8915976D01*
X-5250952Y-9011214D01*
X-5241429Y-9001690D01*
X-5222381Y-8992167D01*
X-5174762Y-8992167D01*
X-5155714Y-9001690D01*
X-5146191Y-9011214D01*
X-5136667Y-9030262D01*
X-5136667Y-9077881D01*
X-5146191Y-9096929D01*
X-5155714Y-9106452D01*
X-5174762Y-9115976D01*
X-5222381Y-9115976D01*
X-5241429Y-9106452D01*
X-5250952Y-9096929D01*
X-5070000Y-8915976D02*
X-4936667Y-8915976D01*
X-5022381Y-9115976D01*
X-4765238Y-8915976D02*
X-4860476Y-8915976D01*
X-4870000Y-9011214D01*
X-4860476Y-9001690D01*
X-4841429Y-8992167D01*
X-4793810Y-8992167D01*
X-4774762Y-9001690D01*
X-4765238Y-9011214D01*
X-4755714Y-9030262D01*
X-4755714Y-9077881D01*
X-4765238Y-9096929D01*
X-4774762Y-9106452D01*
X-4793810Y-9115976D01*
X-4841429Y-9115976D01*
X-4860476Y-9106452D01*
X-4870000Y-9096929D01*
X-4679524Y-8915976D02*
X-4679524Y-8954071D01*
X-4603333Y-8915976D02*
X-4603333Y-8954071D01*
X-4308095Y-9192167D02*
X-4317619Y-9182643D01*
X-4336667Y-9154071D01*
X-4346191Y-9135024D01*
X-4355714Y-9106452D01*
X-4365238Y-9058833D01*
X-4365238Y-9020738D01*
X-4355714Y-8973119D01*
X-4346191Y-8944548D01*
X-4336667Y-8925500D01*
X-4317619Y-8896929D01*
X-4308095Y-8887405D01*
X-4250952Y-8915976D02*
X-4127143Y-8915976D01*
X-4193810Y-8992167D01*
X-4165238Y-8992167D01*
X-4146190Y-9001690D01*
X-4136667Y-9011214D01*
X-4127143Y-9030262D01*
X-4127143Y-9077881D01*
X-4136667Y-9096929D01*
X-4146190Y-9106452D01*
X-4165238Y-9115976D01*
X-4222381Y-9115976D01*
X-4241429Y-9106452D01*
X-4250952Y-9096929D01*
X-3955714Y-8982643D02*
X-3955714Y-9115976D01*
X-4003333Y-8906452D02*
X-4050952Y-9049310D01*
X-3927143Y-9049310D01*
X-3698571Y-9115976D02*
X-3698571Y-8915976D01*
X-3612857Y-9115976D02*
X-3612857Y-9011214D01*
X-3622381Y-8992167D01*
X-3641429Y-8982643D01*
X-3670000Y-8982643D01*
X-3689048Y-8992167D01*
X-3698571Y-9001690D01*
X-3489048Y-9115976D02*
X-3508095Y-9106452D01*
X-3517619Y-9096929D01*
X-3527143Y-9077881D01*
X-3527143Y-9020738D01*
X-3517619Y-9001690D01*
X-3508095Y-8992167D01*
X-3489048Y-8982643D01*
X-3460476Y-8982643D01*
X-3441429Y-8992167D01*
X-3431905Y-9001690D01*
X-3422381Y-9020738D01*
X-3422381Y-9077881D01*
X-3431905Y-9096929D01*
X-3441429Y-9106452D01*
X-3460476Y-9115976D01*
X-3489048Y-9115976D01*
X-3308095Y-9115976D02*
X-3327143Y-9106452D01*
X-3336667Y-9087405D01*
X-3336667Y-8915976D01*
X-3155714Y-9106452D02*
X-3174762Y-9115976D01*
X-3212857Y-9115976D01*
X-3231905Y-9106452D01*
X-3241429Y-9087405D01*
X-3241429Y-9011214D01*
X-3231905Y-8992167D01*
X-3212857Y-8982643D01*
X-3174762Y-8982643D01*
X-3155714Y-8992167D01*
X-3146190Y-9011214D01*
X-3146190Y-9030262D01*
X-3241429Y-9049310D01*
X-3070000Y-9106452D02*
X-3050952Y-9115976D01*
X-3012857Y-9115976D01*
X-2993810Y-9106452D01*
X-2984286Y-9087405D01*
X-2984286Y-9077881D01*
X-2993810Y-9058833D01*
X-3012857Y-9049310D01*
X-3041429Y-9049310D01*
X-3060476Y-9039786D01*
X-3070000Y-9020738D01*
X-3070000Y-9011214D01*
X-3060476Y-8992167D01*
X-3041429Y-8982643D01*
X-3012857Y-8982643D01*
X-2993810Y-8992167D01*
X-2917619Y-9192167D02*
X-2908095Y-9182643D01*
X-2889048Y-9154071D01*
X-2879524Y-9135024D01*
X-2870000Y-9106452D01*
X-2860476Y-9058833D01*
X-2860476Y-9020738D01*
X-2870000Y-8973119D01*
X-2879524Y-8944548D01*
X-2889048Y-8925500D01*
X-2908095Y-8896929D01*
X-2917619Y-8887405D01*
X-2555714Y-9192167D02*
X-2565238Y-9182643D01*
X-2584286Y-9154071D01*
X-2593810Y-9135024D01*
X-2603333Y-9106452D01*
X-2612857Y-9058833D01*
X-2612857Y-9020738D01*
X-2603333Y-8973119D01*
X-2593810Y-8944548D01*
X-2584286Y-8925500D01*
X-2565238Y-8896929D01*
X-2555714Y-8887405D01*
X-2479524Y-8982643D02*
X-2479524Y-9115976D01*
X-2479524Y-9001690D02*
X-2470000Y-8992167D01*
X-2450952Y-8982643D01*
X-2422381Y-8982643D01*
X-2403333Y-8992167D01*
X-2393810Y-9011214D01*
X-2393810Y-9115976D01*
X-2270000Y-9115976D02*
X-2289048Y-9106452D01*
X-2298572Y-9096929D01*
X-2308095Y-9077881D01*
X-2308095Y-9020738D01*
X-2298572Y-9001690D01*
X-2289048Y-8992167D01*
X-2270000Y-8982643D01*
X-2241429Y-8982643D01*
X-2222381Y-8992167D01*
X-2212857Y-9001690D01*
X-2203333Y-9020738D01*
X-2203333Y-9077881D01*
X-2212857Y-9096929D01*
X-2222381Y-9106452D01*
X-2241429Y-9115976D01*
X-2270000Y-9115976D01*
X-2146191Y-8982643D02*
X-2070000Y-8982643D01*
X-2117619Y-8915976D02*
X-2117619Y-9087405D01*
X-2108095Y-9106452D01*
X-2089048Y-9115976D01*
X-2070000Y-9115976D01*
X-1850952Y-8982643D02*
X-1850952Y-9182643D01*
X-1850952Y-8992167D02*
X-1831905Y-8982643D01*
X-1793810Y-8982643D01*
X-1774762Y-8992167D01*
X-1765238Y-9001690D01*
X-1755714Y-9020738D01*
X-1755714Y-9077881D01*
X-1765238Y-9096929D01*
X-1774762Y-9106452D01*
X-1793810Y-9115976D01*
X-1831905Y-9115976D01*
X-1850952Y-9106452D01*
X-1641429Y-9115976D02*
X-1660476Y-9106452D01*
X-1670000Y-9087405D01*
X-1670000Y-8915976D01*
X-1479524Y-9115976D02*
X-1479524Y-9011214D01*
X-1489048Y-8992167D01*
X-1508095Y-8982643D01*
X-1546190Y-8982643D01*
X-1565238Y-8992167D01*
X-1479524Y-9106452D02*
X-1498571Y-9115976D01*
X-1546190Y-9115976D01*
X-1565238Y-9106452D01*
X-1574762Y-9087405D01*
X-1574762Y-9068357D01*
X-1565238Y-9049310D01*
X-1546190Y-9039786D01*
X-1498571Y-9039786D01*
X-1479524Y-9030262D01*
X-1412857Y-8982643D02*
X-1336667Y-8982643D01*
X-1384286Y-8915976D02*
X-1384286Y-9087405D01*
X-1374762Y-9106452D01*
X-1355714Y-9115976D01*
X-1336667Y-9115976D01*
X-1193810Y-9106452D02*
X-1212857Y-9115976D01*
X-1250952Y-9115976D01*
X-1270000Y-9106452D01*
X-1279524Y-9087405D01*
X-1279524Y-9011214D01*
X-1270000Y-8992167D01*
X-1250952Y-8982643D01*
X-1212857Y-8982643D01*
X-1193810Y-8992167D01*
X-1184286Y-9011214D01*
X-1184286Y-9030262D01*
X-1279524Y-9049310D01*
X-1012857Y-9115976D02*
X-1012857Y-8915976D01*
X-1012857Y-9106452D02*
X-1031905Y-9115976D01*
X-1070000Y-9115976D01*
X-1089048Y-9106452D01*
X-1098572Y-9096929D01*
X-1108095Y-9077881D01*
X-1108095Y-9020738D01*
X-1098572Y-9001690D01*
X-1089048Y-8992167D01*
X-1070000Y-8982643D01*
X-1031905Y-8982643D01*
X-1012857Y-8992167D01*
X-936667Y-9192167D02*
X-927143Y-9182643D01*
X-908095Y-9154071D01*
X-898571Y-9135024D01*
X-889048Y-9106452D01*
X-879524Y-9058833D01*
X-879524Y-9020738D01*
X-889048Y-8973119D01*
X-898571Y-8944548D01*
X-908095Y-8925500D01*
X-927143Y-8896929D01*
X-936667Y-8887405D01*
M02*
