M48
; DRILL file {KiCad (6.0.7-1)-1} date 2022 August 07, Sunday 12:05:24
; FORMAT={-:-/ absolute / metric / decimal}
; #@! TF.CreationDate,2022-08-07T12:05:24+08:00
; #@! TF.GenerationSoftware,Kicad,Pcbnew,(6.0.7-1)-1
; #@! TF.FileFunction,NonPlated,1,2,NPTH
FMAT,2
METRIC
; #@! TA.AperFunction,NonPlated,NPTH,ComponentDrill
T1C1.900
; #@! TA.AperFunction,NonPlated,NPTH,ComponentDrill
T2C2.500
; #@! TA.AperFunction,NonPlated,NPTH,ComponentDrill
T3C3.000
; #@! TA.AperFunction,NonPlated,NPTH,ComponentDrill
T4C4.000
%
G90
G05
T1
X-71.755Y0.0
X-71.755Y-19.05
X-71.755Y-38.1
X-61.595Y0.0
X-61.595Y-19.05
X-61.595Y-38.1
X-52.705Y9.525
X-52.705Y-9.525
X-52.705Y-28.575
X-42.545Y9.525
X-42.545Y-9.525
X-42.545Y-28.575
X-33.655Y19.05
X-33.655Y0.0
X-33.655Y-19.05
X-23.495Y19.05
X-23.495Y0.0
X-23.495Y-19.05
X-14.605Y9.525
X-14.605Y-9.525
X-14.605Y-28.575
X-5.08Y-57.15
X-4.445Y9.525
X-4.445Y-9.525
X-4.445Y-28.575
X4.445Y9.525
X4.445Y-9.525
X4.445Y-28.575
X5.08Y-57.15
X13.97Y-57.15
X14.605Y9.525
X14.605Y-9.525
X14.605Y-28.575
X24.13Y-57.15
X40.64Y-57.15
X50.165Y9.525
X50.165Y-9.525
X50.165Y-28.575
X50.8Y-57.15
X59.69Y-57.15
X60.325Y9.525
X60.325Y-9.525
X60.325Y-28.575
X69.215Y9.525
X69.215Y-9.525
X69.215Y-28.575
X69.85Y-57.15
X79.375Y9.525
X79.375Y-9.525
X79.375Y-28.575
X88.265Y19.05
X88.265Y0.0
X88.265Y-19.05
X98.425Y19.05
X98.425Y0.0
X98.425Y-19.05
X107.315Y9.525
X107.315Y-9.525
X107.315Y-28.575
X117.475Y9.525
X117.475Y-9.525
X117.475Y-28.575
X126.365Y0.0
X126.365Y-19.05
X126.365Y-38.1
X136.525Y0.0
X136.525Y-19.05
X136.525Y-38.1
T2
X-58.039Y-28.575
X-56.261Y0.0
X0.0Y0.0
X9.525Y-47.625
X55.245Y-47.523
X64.77Y0.0
X121.031Y0.0
X122.809Y-28.575
T3
X-70.485Y-16.51
X-70.485Y-35.56
X-69.215Y-5.08
X-64.135Y-13.97
X-64.135Y-33.02
X-62.865Y-2.54
X-51.435Y12.065
X-51.435Y-6.985
X-51.435Y-26.035
X-45.085Y14.605
X-45.085Y-4.445
X-45.085Y-23.495
X-32.385Y21.59
X-32.385Y2.54
X-32.385Y-16.51
X-26.035Y24.13
X-26.035Y5.08
X-26.035Y-13.97
X-13.335Y12.065
X-13.335Y-6.985
X-13.335Y-26.035
X-6.985Y14.605
X-6.985Y-4.445
X-6.985Y-23.495
X-3.81Y-54.61
X2.54Y-52.07
X5.715Y12.065
X5.715Y-6.985
X5.715Y-26.035
X12.065Y14.605
X12.065Y-4.445
X12.065Y-23.495
X15.24Y-54.61
X21.59Y-52.07
X41.91Y-54.61
X48.26Y-52.07
X51.435Y12.065
X51.435Y-6.985
X51.435Y-26.035
X57.785Y14.605
X57.785Y-4.445
X57.785Y-23.495
X60.96Y-54.61
X67.31Y-52.07
X70.485Y12.065
X70.485Y-6.985
X70.485Y-26.035
X76.835Y14.605
X76.835Y-4.445
X76.835Y-23.495
X89.535Y21.59
X89.535Y2.54
X89.535Y-16.51
X95.885Y24.13
X95.885Y5.08
X95.885Y-13.97
X108.585Y12.065
X108.585Y-6.985
X108.585Y-26.035
X114.935Y14.605
X114.935Y-4.445
X114.935Y-23.495
X127.635Y-16.51
X127.635Y-35.56
X128.905Y-5.08
X133.985Y-13.97
X133.985Y-33.02
X135.255Y-2.54
T4
X-66.675Y0.0
X-66.675Y-19.05
X-66.675Y-38.1
X-47.625Y9.525
X-47.625Y-9.525
X-47.625Y-28.575
X-28.575Y19.05
X-28.575Y0.0
X-28.575Y-19.05
X-9.525Y9.525
X-9.525Y-9.525
X-9.525Y-28.575
X0.0Y-57.15
X9.525Y9.525
X9.525Y-9.525
X9.525Y-28.575
X19.05Y-57.15
X45.72Y-57.15
X55.245Y9.525
X55.245Y-9.525
X55.245Y-28.575
X64.77Y-57.15
X74.295Y9.525
X74.295Y-9.525
X74.295Y-28.575
X93.345Y19.05
X93.345Y0.0
X93.345Y-19.05
X112.395Y9.525
X112.395Y-9.525
X112.395Y-28.575
X131.445Y0.0
X131.445Y-19.05
X131.445Y-38.1
T0
M30
