M48
; DRILL file {KiCad (5.1.10-1-10_14)} date Monday, November 08, 2021 at 01:35:55 PM
; FORMAT={-:-/ absolute / inch / decimal}
; #@! TF.CreationDate,2021-11-08T13:35:55+08:00
; #@! TF.GenerationSoftware,Kicad,Pcbnew,(5.1.10-1-10_14)
; #@! TF.FileFunction,Plated,1,2,PTH
FMAT,2
INCH
T1C0.0320
T2C0.0394
T3C0.0433
%
G90
G05
T1
X5.2Y-1.95
X5.2Y-2.05
X5.2Y-2.15
X5.2Y-2.25
X5.2Y-2.35
X5.2Y-2.45
X5.2Y-2.55
X5.2Y-2.65
X5.2Y-2.75
X5.2Y-2.85
X5.2Y-2.95
X5.2Y-3.05
X5.7992Y-1.95
X5.7992Y-2.05
X5.7992Y-2.15
X5.7992Y-2.25
X5.7992Y-2.35
X5.7992Y-2.45
X5.7992Y-2.55
X5.7992Y-2.65
X5.7992Y-2.75
X5.7992Y-2.85
X5.7992Y-2.95
X5.7992Y-3.05
T2
X4.8Y-2.35
X4.8Y-2.45
X4.8Y-2.55
X4.8Y-2.65
X4.8Y-2.75
X4.8Y-2.85
X4.8Y-2.95
X4.9Y-2.35
X4.9Y-2.45
X4.9Y-2.55
X4.9Y-2.65
X4.9Y-2.75
X4.9Y-2.85
X4.9Y-2.95
X6.0Y-2.0
X6.1Y-2.0
X6.1Y-2.35
X6.1Y-2.45
X6.1Y-2.55
X6.1Y-2.65
X6.1Y-2.75
X6.1Y-2.85
X6.1Y-2.95
X6.2Y-2.0
X6.2Y-2.35
X6.2Y-2.45
X6.2Y-2.55
X6.2Y-2.65
X6.2Y-2.75
X6.2Y-2.85
X6.2Y-2.95
X6.3Y-2.0
T3
X4.7441Y-1.8728
X4.7441Y-2.05
X5.0Y-1.8728
X5.0Y-2.05
T0
M30
