%TF.GenerationSoftware,KiCad,Pcbnew,(6.0.1-0)*%
%TF.CreationDate,2022-02-07T11:31:32+08:00*%
%TF.ProjectId,Pragmatic,50726167-6d61-4746-9963-2e6b69636164,V2*%
%TF.SameCoordinates,Original*%
%TF.FileFunction,Legend,Top*%
%TF.FilePolarity,Positive*%
%FSLAX46Y46*%
G04 Gerber Fmt 4.6, Leading zero omitted, Abs format (unit mm)*
G04 Created by KiCad (PCBNEW (6.0.1-0)) date 2022-02-07 11:31:32*
%MOMM*%
%LPD*%
G01*
G04 APERTURE LIST*
G04 Aperture macros list*
%AMRoundRect*
0 Rectangle with rounded corners*
0 $1 Rounding radius*
0 $2 $3 $4 $5 $6 $7 $8 $9 X,Y pos of 4 corners*
0 Add a 4 corners polygon primitive as box body*
4,1,4,$2,$3,$4,$5,$6,$7,$8,$9,$2,$3,0*
0 Add four circle primitives for the rounded corners*
1,1,$1+$1,$2,$3*
1,1,$1+$1,$4,$5*
1,1,$1+$1,$6,$7*
1,1,$1+$1,$8,$9*
0 Add four rect primitives between the rounded corners*
20,1,$1+$1,$2,$3,$4,$5,0*
20,1,$1+$1,$4,$5,$6,$7,0*
20,1,$1+$1,$6,$7,$8,$9,0*
20,1,$1+$1,$8,$9,$2,$3,0*%
G04 Aperture macros list end*
%ADD10C,0.150000*%
%ADD11C,0.200000*%
%ADD12C,0.177800*%
%ADD13C,0.120000*%
%ADD14R,1.752600X1.752600*%
%ADD15C,1.752600*%
%ADD16C,0.203200*%
%ADD17RoundRect,0.250000X-0.600000X-0.600000X0.600000X-0.600000X0.600000X0.600000X-0.600000X0.600000X0*%
%ADD18C,1.700000*%
%ADD19RoundRect,0.250000X0.600000X0.600000X-0.600000X0.600000X-0.600000X-0.600000X0.600000X-0.600000X0*%
%ADD20C,2.000000*%
%ADD21C,6.400000*%
%ADD22RoundRect,0.250000X0.600000X-0.600000X0.600000X0.600000X-0.600000X0.600000X-0.600000X-0.600000X0*%
G04 APERTURE END LIST*
D10*
X136676190Y-58702380D02*
X136676190Y-57702380D01*
X137057142Y-57702380D01*
X137152380Y-57750000D01*
X137200000Y-57797619D01*
X137247619Y-57892857D01*
X137247619Y-58035714D01*
X137200000Y-58130952D01*
X137152380Y-58178571D01*
X137057142Y-58226190D01*
X136676190Y-58226190D01*
X137676190Y-58702380D02*
X137676190Y-58035714D01*
X137676190Y-58226190D02*
X137723809Y-58130952D01*
X137771428Y-58083333D01*
X137866666Y-58035714D01*
X137961904Y-58035714D01*
X138438095Y-58702380D02*
X138342857Y-58654761D01*
X138295238Y-58607142D01*
X138247619Y-58511904D01*
X138247619Y-58226190D01*
X138295238Y-58130952D01*
X138342857Y-58083333D01*
X138438095Y-58035714D01*
X138580952Y-58035714D01*
X138676190Y-58083333D01*
X138723809Y-58130952D01*
X138771428Y-58226190D01*
X138771428Y-58511904D01*
X138723809Y-58607142D01*
X138676190Y-58654761D01*
X138580952Y-58702380D01*
X138438095Y-58702380D01*
X139200000Y-58702380D02*
X139200000Y-57702380D01*
X139533333Y-58416666D01*
X139866666Y-57702380D01*
X139866666Y-58702380D01*
X140342857Y-58702380D02*
X140342857Y-58035714D01*
X140342857Y-57702380D02*
X140295238Y-57750000D01*
X140342857Y-57797619D01*
X140390476Y-57750000D01*
X140342857Y-57702380D01*
X140342857Y-57797619D01*
X141247619Y-58654761D02*
X141152380Y-58702380D01*
X140961904Y-58702380D01*
X140866666Y-58654761D01*
X140819047Y-58607142D01*
X140771428Y-58511904D01*
X140771428Y-58226190D01*
X140819047Y-58130952D01*
X140866666Y-58083333D01*
X140961904Y-58035714D01*
X141152380Y-58035714D01*
X141247619Y-58083333D01*
X141676190Y-58702380D02*
X141676190Y-58035714D01*
X141676190Y-58226190D02*
X141723809Y-58130952D01*
X141771428Y-58083333D01*
X141866666Y-58035714D01*
X141961904Y-58035714D01*
X142438095Y-58702380D02*
X142342857Y-58654761D01*
X142295238Y-58607142D01*
X142247619Y-58511904D01*
X142247619Y-58226190D01*
X142295238Y-58130952D01*
X142342857Y-58083333D01*
X142438095Y-58035714D01*
X142580952Y-58035714D01*
X142676190Y-58083333D01*
X142723809Y-58130952D01*
X142771428Y-58226190D01*
X142771428Y-58511904D01*
X142723809Y-58607142D01*
X142676190Y-58654761D01*
X142580952Y-58702380D01*
X142438095Y-58702380D01*
X137771428Y-59788571D02*
X138104761Y-59788571D01*
X138247619Y-60312380D02*
X137771428Y-60312380D01*
X137771428Y-59312380D01*
X138247619Y-59312380D01*
X138819047Y-60312380D02*
X138723809Y-60264761D01*
X138676190Y-60169523D01*
X138676190Y-59312380D01*
X139200000Y-60312380D02*
X139200000Y-59645714D01*
X139200000Y-59312380D02*
X139152380Y-59360000D01*
X139200000Y-59407619D01*
X139247619Y-59360000D01*
X139200000Y-59312380D01*
X139200000Y-59407619D01*
X139533333Y-59645714D02*
X139914285Y-59645714D01*
X139676190Y-59312380D02*
X139676190Y-60169523D01*
X139723809Y-60264761D01*
X139819047Y-60312380D01*
X139914285Y-60312380D01*
X140628571Y-60264761D02*
X140533333Y-60312380D01*
X140342857Y-60312380D01*
X140247619Y-60264761D01*
X140200000Y-60169523D01*
X140200000Y-59788571D01*
X140247619Y-59693333D01*
X140342857Y-59645714D01*
X140533333Y-59645714D01*
X140628571Y-59693333D01*
X140676190Y-59788571D01*
X140676190Y-59883809D01*
X140200000Y-59979047D01*
X141676190Y-60217142D02*
X141628571Y-60264761D01*
X141485714Y-60312380D01*
X141390476Y-60312380D01*
X141247619Y-60264761D01*
X141152380Y-60169523D01*
X141104761Y-60074285D01*
X141057142Y-59883809D01*
X141057142Y-59740952D01*
X141104761Y-59550476D01*
X141152380Y-59455238D01*
X141247619Y-59360000D01*
X141390476Y-59312380D01*
X141485714Y-59312380D01*
X141628571Y-59360000D01*
X141676190Y-59407619D01*
D11*
%TO.C,J1*%
X123654285Y-81196571D02*
X122940000Y-81196571D01*
X122940000Y-79696571D01*
%TO.C,J2*%
X156674285Y-81323571D02*
X156174285Y-80609285D01*
X155817142Y-81323571D02*
X155817142Y-79823571D01*
X156388571Y-79823571D01*
X156531428Y-79895000D01*
X156602857Y-79966428D01*
X156674285Y-80109285D01*
X156674285Y-80323571D01*
X156602857Y-80466428D01*
X156531428Y-80537857D01*
X156388571Y-80609285D01*
X155817142Y-80609285D01*
D12*
%TO.C,SW1*%
X153047095Y-50370619D02*
X152708428Y-49886809D01*
X152466523Y-50370619D02*
X152466523Y-49354619D01*
X152853571Y-49354619D01*
X152950333Y-49403000D01*
X152998714Y-49451380D01*
X153047095Y-49548142D01*
X153047095Y-49693285D01*
X152998714Y-49790047D01*
X152950333Y-49838428D01*
X152853571Y-49886809D01*
X152466523Y-49886809D01*
X153869571Y-50322238D02*
X153772809Y-50370619D01*
X153579285Y-50370619D01*
X153482523Y-50322238D01*
X153434142Y-50225476D01*
X153434142Y-49838428D01*
X153482523Y-49741666D01*
X153579285Y-49693285D01*
X153772809Y-49693285D01*
X153869571Y-49741666D01*
X153917952Y-49838428D01*
X153917952Y-49935190D01*
X153434142Y-50031952D01*
X154305000Y-50322238D02*
X154401761Y-50370619D01*
X154595285Y-50370619D01*
X154692047Y-50322238D01*
X154740428Y-50225476D01*
X154740428Y-50177095D01*
X154692047Y-50080333D01*
X154595285Y-50031952D01*
X154450142Y-50031952D01*
X154353380Y-49983571D01*
X154305000Y-49886809D01*
X154305000Y-49838428D01*
X154353380Y-49741666D01*
X154450142Y-49693285D01*
X154595285Y-49693285D01*
X154692047Y-49741666D01*
X155562904Y-50322238D02*
X155466142Y-50370619D01*
X155272619Y-50370619D01*
X155175857Y-50322238D01*
X155127476Y-50225476D01*
X155127476Y-49838428D01*
X155175857Y-49741666D01*
X155272619Y-49693285D01*
X155466142Y-49693285D01*
X155562904Y-49741666D01*
X155611285Y-49838428D01*
X155611285Y-49935190D01*
X155127476Y-50031952D01*
X155901571Y-49693285D02*
X156288619Y-49693285D01*
X156046714Y-49354619D02*
X156046714Y-50225476D01*
X156095095Y-50322238D01*
X156191857Y-50370619D01*
X156288619Y-50370619D01*
D10*
%TO.C,U1*%
X133464991Y-76435702D02*
X133417851Y-76341421D01*
X133417851Y-76294280D01*
X133441421Y-76223570D01*
X133512132Y-76152859D01*
X133582842Y-76129289D01*
X133629983Y-76129289D01*
X133700693Y-76152859D01*
X133889255Y-76341421D01*
X133394280Y-76836396D01*
X133229289Y-76671404D01*
X133205719Y-76600693D01*
X133205719Y-76553553D01*
X133229289Y-76482842D01*
X133276429Y-76435702D01*
X133347140Y-76412132D01*
X133394280Y-76412132D01*
X133464991Y-76435702D01*
X133629983Y-76600693D01*
X132663603Y-76105719D02*
X132899306Y-76341421D01*
X133158578Y-76129289D01*
X133111438Y-76129289D01*
X133040727Y-76105719D01*
X132922876Y-75987867D01*
X132899306Y-75917157D01*
X132899306Y-75870016D01*
X132922876Y-75799306D01*
X133040727Y-75681455D01*
X133111438Y-75657884D01*
X133158578Y-75657884D01*
X133229289Y-75681455D01*
X133347140Y-75799306D01*
X133370710Y-75870016D01*
X133370710Y-75917157D01*
X144894333Y-64712857D02*
X144627666Y-64712857D01*
X144627666Y-65131904D02*
X144627666Y-64331904D01*
X145008619Y-64331904D01*
X145656238Y-64331904D02*
X145503857Y-64331904D01*
X145427666Y-64370000D01*
X145389571Y-64408095D01*
X145313380Y-64522380D01*
X145275285Y-64674761D01*
X145275285Y-64979523D01*
X145313380Y-65055714D01*
X145351476Y-65093809D01*
X145427666Y-65131904D01*
X145580047Y-65131904D01*
X145656238Y-65093809D01*
X145694333Y-65055714D01*
X145732428Y-64979523D01*
X145732428Y-64789047D01*
X145694333Y-64712857D01*
X145656238Y-64674761D01*
X145580047Y-64636666D01*
X145427666Y-64636666D01*
X145351476Y-64674761D01*
X145313380Y-64712857D01*
X145275285Y-64789047D01*
X133686619Y-72332857D02*
X133953285Y-72332857D01*
X134067571Y-72751904D02*
X133686619Y-72751904D01*
X133686619Y-71951904D01*
X134067571Y-71951904D01*
X134753285Y-71951904D02*
X134600904Y-71951904D01*
X134524714Y-71990000D01*
X134486619Y-72028095D01*
X134410428Y-72142380D01*
X134372333Y-72294761D01*
X134372333Y-72599523D01*
X134410428Y-72675714D01*
X134448523Y-72713809D01*
X134524714Y-72751904D01*
X134677095Y-72751904D01*
X134753285Y-72713809D01*
X134791380Y-72675714D01*
X134829476Y-72599523D01*
X134829476Y-72409047D01*
X134791380Y-72332857D01*
X134753285Y-72294761D01*
X134677095Y-72256666D01*
X134524714Y-72256666D01*
X134448523Y-72294761D01*
X134410428Y-72332857D01*
X134372333Y-72409047D01*
X139566666Y-76185714D02*
X139528571Y-76223809D01*
X139414285Y-76261904D01*
X139338095Y-76261904D01*
X139223809Y-76223809D01*
X139147619Y-76147619D01*
X139109523Y-76071428D01*
X139071428Y-75919047D01*
X139071428Y-75804761D01*
X139109523Y-75652380D01*
X139147619Y-75576190D01*
X139223809Y-75500000D01*
X139338095Y-75461904D01*
X139414285Y-75461904D01*
X139528571Y-75500000D01*
X139566666Y-75538095D01*
X139833333Y-75461904D02*
X140366666Y-75461904D01*
X140023809Y-76261904D01*
X134105666Y-67595714D02*
X134067571Y-67633809D01*
X133953285Y-67671904D01*
X133877095Y-67671904D01*
X133762809Y-67633809D01*
X133686619Y-67557619D01*
X133648523Y-67481428D01*
X133610428Y-67329047D01*
X133610428Y-67214761D01*
X133648523Y-67062380D01*
X133686619Y-66986190D01*
X133762809Y-66910000D01*
X133877095Y-66871904D01*
X133953285Y-66871904D01*
X134067571Y-66910000D01*
X134105666Y-66948095D01*
X134791380Y-66871904D02*
X134639000Y-66871904D01*
X134562809Y-66910000D01*
X134524714Y-66948095D01*
X134448523Y-67062380D01*
X134410428Y-67214761D01*
X134410428Y-67519523D01*
X134448523Y-67595714D01*
X134486619Y-67633809D01*
X134562809Y-67671904D01*
X134715190Y-67671904D01*
X134791380Y-67633809D01*
X134829476Y-67595714D01*
X134867571Y-67519523D01*
X134867571Y-67329047D01*
X134829476Y-67252857D01*
X134791380Y-67214761D01*
X134715190Y-67176666D01*
X134562809Y-67176666D01*
X134486619Y-67214761D01*
X134448523Y-67252857D01*
X134410428Y-67329047D01*
X143966666Y-76050000D02*
X143733333Y-76050000D01*
X143733333Y-76416666D02*
X143733333Y-75716666D01*
X144066666Y-75716666D01*
X144466666Y-75716666D02*
X144533333Y-75716666D01*
X144600000Y-75750000D01*
X144633333Y-75783333D01*
X144666666Y-75850000D01*
X144700000Y-75983333D01*
X144700000Y-76150000D01*
X144666666Y-76283333D01*
X144633333Y-76350000D01*
X144600000Y-76383333D01*
X144533333Y-76416666D01*
X144466666Y-76416666D01*
X144400000Y-76383333D01*
X144366666Y-76350000D01*
X144333333Y-76283333D01*
X144300000Y-76150000D01*
X144300000Y-75983333D01*
X144333333Y-75850000D01*
X144366666Y-75783333D01*
X144400000Y-75750000D01*
X144466666Y-75716666D01*
X144094333Y-56711904D02*
X144361000Y-57511904D01*
X144627666Y-56711904D01*
X145351476Y-57435714D02*
X145313380Y-57473809D01*
X145199095Y-57511904D01*
X145122904Y-57511904D01*
X145008619Y-57473809D01*
X144932428Y-57397619D01*
X144894333Y-57321428D01*
X144856238Y-57169047D01*
X144856238Y-57054761D01*
X144894333Y-56902380D01*
X144932428Y-56826190D01*
X145008619Y-56750000D01*
X145122904Y-56711904D01*
X145199095Y-56711904D01*
X145313380Y-56750000D01*
X145351476Y-56788095D01*
X146151476Y-57435714D02*
X146113380Y-57473809D01*
X145999095Y-57511904D01*
X145922904Y-57511904D01*
X145808619Y-57473809D01*
X145732428Y-57397619D01*
X145694333Y-57321428D01*
X145656238Y-57169047D01*
X145656238Y-57054761D01*
X145694333Y-56902380D01*
X145732428Y-56826190D01*
X145808619Y-56750000D01*
X145922904Y-56711904D01*
X145999095Y-56711904D01*
X146113380Y-56750000D01*
X146151476Y-56788095D01*
X136569523Y-76261904D02*
X136569523Y-75461904D01*
X136760000Y-75461904D01*
X136874285Y-75500000D01*
X136950476Y-75576190D01*
X136988571Y-75652380D01*
X137026666Y-75804761D01*
X137026666Y-75919047D01*
X136988571Y-76071428D01*
X136950476Y-76147619D01*
X136874285Y-76223809D01*
X136760000Y-76261904D01*
X136569523Y-76261904D01*
X137750476Y-75461904D02*
X137369523Y-75461904D01*
X137331428Y-75842857D01*
X137369523Y-75804761D01*
X137445714Y-75766666D01*
X137636190Y-75766666D01*
X137712380Y-75804761D01*
X137750476Y-75842857D01*
X137788571Y-75919047D01*
X137788571Y-76109523D01*
X137750476Y-76185714D01*
X137712380Y-76223809D01*
X137636190Y-76261904D01*
X137445714Y-76261904D01*
X137369523Y-76223809D01*
X137331428Y-76185714D01*
X144894333Y-59632857D02*
X144627666Y-59632857D01*
X144627666Y-60051904D02*
X144627666Y-59251904D01*
X145008619Y-59251904D01*
X145656238Y-59518571D02*
X145656238Y-60051904D01*
X145465761Y-59213809D02*
X145275285Y-59785238D01*
X145770523Y-59785238D01*
X144894333Y-67252857D02*
X144627666Y-67252857D01*
X144627666Y-67671904D02*
X144627666Y-66871904D01*
X145008619Y-66871904D01*
X145237190Y-66871904D02*
X145770523Y-66871904D01*
X145427666Y-67671904D01*
X144899786Y-54903809D02*
X145014072Y-54941904D01*
X145204548Y-54941904D01*
X145280739Y-54903809D01*
X145318834Y-54865714D01*
X145356929Y-54789523D01*
X145356929Y-54713333D01*
X145318834Y-54637142D01*
X145280739Y-54599047D01*
X145204548Y-54560952D01*
X145052167Y-54522857D01*
X144975977Y-54484761D01*
X144937881Y-54446666D01*
X144899786Y-54370476D01*
X144899786Y-54294285D01*
X144937881Y-54218095D01*
X144975977Y-54180000D01*
X145052167Y-54141904D01*
X145242643Y-54141904D01*
X145356929Y-54180000D01*
X145585500Y-54141904D02*
X146042643Y-54141904D01*
X145814072Y-54941904D02*
X145814072Y-54141904D01*
X144551476Y-51670000D02*
X144475285Y-51631904D01*
X144361000Y-51631904D01*
X144246714Y-51670000D01*
X144170523Y-51746190D01*
X144132428Y-51822380D01*
X144094333Y-51974761D01*
X144094333Y-52089047D01*
X144132428Y-52241428D01*
X144170523Y-52317619D01*
X144246714Y-52393809D01*
X144361000Y-52431904D01*
X144437190Y-52431904D01*
X144551476Y-52393809D01*
X144589571Y-52355714D01*
X144589571Y-52089047D01*
X144437190Y-52089047D01*
X144932428Y-52431904D02*
X144932428Y-51631904D01*
X145389571Y-52431904D01*
X145389571Y-51631904D01*
X145770523Y-52431904D02*
X145770523Y-51631904D01*
X145961000Y-51631904D01*
X146075285Y-51670000D01*
X146151476Y-51746190D01*
X146189571Y-51822380D01*
X146227666Y-51974761D01*
X146227666Y-52089047D01*
X146189571Y-52241428D01*
X146151476Y-52317619D01*
X146075285Y-52393809D01*
X145961000Y-52431904D01*
X145770523Y-52431904D01*
X133648523Y-52431904D02*
X133648523Y-51631904D01*
X133839000Y-51631904D01*
X133953285Y-51670000D01*
X134029476Y-51746190D01*
X134067571Y-51822380D01*
X134105666Y-51974761D01*
X134105666Y-52089047D01*
X134067571Y-52241428D01*
X134029476Y-52317619D01*
X133953285Y-52393809D01*
X133839000Y-52431904D01*
X133648523Y-52431904D01*
X134410428Y-51708095D02*
X134448523Y-51670000D01*
X134524714Y-51631904D01*
X134715190Y-51631904D01*
X134791380Y-51670000D01*
X134829476Y-51708095D01*
X134867571Y-51784285D01*
X134867571Y-51860476D01*
X134829476Y-51974761D01*
X134372333Y-52431904D01*
X134867571Y-52431904D01*
X144837190Y-49472857D02*
X144951476Y-49510952D01*
X144989571Y-49549047D01*
X145027666Y-49625238D01*
X145027666Y-49739523D01*
X144989571Y-49815714D01*
X144951476Y-49853809D01*
X144875285Y-49891904D01*
X144570523Y-49891904D01*
X144570523Y-49091904D01*
X144837190Y-49091904D01*
X144913380Y-49130000D01*
X144951476Y-49168095D01*
X144989571Y-49244285D01*
X144989571Y-49320476D01*
X144951476Y-49396666D01*
X144913380Y-49434761D01*
X144837190Y-49472857D01*
X144570523Y-49472857D01*
X145522904Y-49091904D02*
X145599095Y-49091904D01*
X145675285Y-49130000D01*
X145713380Y-49168095D01*
X145751476Y-49244285D01*
X145789571Y-49396666D01*
X145789571Y-49587142D01*
X145751476Y-49739523D01*
X145713380Y-49815714D01*
X145675285Y-49853809D01*
X145599095Y-49891904D01*
X145522904Y-49891904D01*
X145446714Y-49853809D01*
X145408619Y-49815714D01*
X145370523Y-49739523D01*
X145332428Y-49587142D01*
X145332428Y-49396666D01*
X145370523Y-49244285D01*
X145408619Y-49168095D01*
X145446714Y-49130000D01*
X145522904Y-49091904D01*
X144837190Y-72332857D02*
X144951476Y-72370952D01*
X144989571Y-72409047D01*
X145027666Y-72485238D01*
X145027666Y-72599523D01*
X144989571Y-72675714D01*
X144951476Y-72713809D01*
X144875285Y-72751904D01*
X144570523Y-72751904D01*
X144570523Y-71951904D01*
X144837190Y-71951904D01*
X144913380Y-71990000D01*
X144951476Y-72028095D01*
X144989571Y-72104285D01*
X144989571Y-72180476D01*
X144951476Y-72256666D01*
X144913380Y-72294761D01*
X144837190Y-72332857D01*
X144570523Y-72332857D01*
X145294333Y-71951904D02*
X145789571Y-71951904D01*
X145522904Y-72256666D01*
X145637190Y-72256666D01*
X145713380Y-72294761D01*
X145751476Y-72332857D01*
X145789571Y-72409047D01*
X145789571Y-72599523D01*
X145751476Y-72675714D01*
X145713380Y-72713809D01*
X145637190Y-72751904D01*
X145408619Y-72751904D01*
X145332428Y-72713809D01*
X145294333Y-72675714D01*
X133648523Y-60051904D02*
X133648523Y-59251904D01*
X133839000Y-59251904D01*
X133953285Y-59290000D01*
X134029476Y-59366190D01*
X134067571Y-59442380D01*
X134105666Y-59594761D01*
X134105666Y-59709047D01*
X134067571Y-59861428D01*
X134029476Y-59937619D01*
X133953285Y-60013809D01*
X133839000Y-60051904D01*
X133648523Y-60051904D01*
X134867571Y-60051904D02*
X134410428Y-60051904D01*
X134639000Y-60051904D02*
X134639000Y-59251904D01*
X134562809Y-59366190D01*
X134486619Y-59442380D01*
X134410428Y-59480476D01*
X133629476Y-54210000D02*
X133553285Y-54171904D01*
X133439000Y-54171904D01*
X133324714Y-54210000D01*
X133248523Y-54286190D01*
X133210428Y-54362380D01*
X133172333Y-54514761D01*
X133172333Y-54629047D01*
X133210428Y-54781428D01*
X133248523Y-54857619D01*
X133324714Y-54933809D01*
X133439000Y-54971904D01*
X133515190Y-54971904D01*
X133629476Y-54933809D01*
X133667571Y-54895714D01*
X133667571Y-54629047D01*
X133515190Y-54629047D01*
X134010428Y-54971904D02*
X134010428Y-54171904D01*
X134467571Y-54971904D01*
X134467571Y-54171904D01*
X134848523Y-54971904D02*
X134848523Y-54171904D01*
X135039000Y-54171904D01*
X135153285Y-54210000D01*
X135229476Y-54286190D01*
X135267571Y-54362380D01*
X135305666Y-54514761D01*
X135305666Y-54629047D01*
X135267571Y-54781428D01*
X135229476Y-54857619D01*
X135153285Y-54933809D01*
X135039000Y-54971904D01*
X134848523Y-54971904D01*
X133648523Y-65131904D02*
X133648523Y-64331904D01*
X133839000Y-64331904D01*
X133953285Y-64370000D01*
X134029476Y-64446190D01*
X134067571Y-64522380D01*
X134105666Y-64674761D01*
X134105666Y-64789047D01*
X134067571Y-64941428D01*
X134029476Y-65017619D01*
X133953285Y-65093809D01*
X133839000Y-65131904D01*
X133648523Y-65131904D01*
X134791380Y-64598571D02*
X134791380Y-65131904D01*
X134600904Y-64293809D02*
X134410428Y-64865238D01*
X134905666Y-64865238D01*
X144894333Y-62172857D02*
X144627666Y-62172857D01*
X144627666Y-62591904D02*
X144627666Y-61791904D01*
X145008619Y-61791904D01*
X145694333Y-61791904D02*
X145313380Y-61791904D01*
X145275285Y-62172857D01*
X145313380Y-62134761D01*
X145389571Y-62096666D01*
X145580047Y-62096666D01*
X145656238Y-62134761D01*
X145694333Y-62172857D01*
X145732428Y-62249047D01*
X145732428Y-62439523D01*
X145694333Y-62515714D01*
X145656238Y-62553809D01*
X145580047Y-62591904D01*
X145389571Y-62591904D01*
X145313380Y-62553809D01*
X145275285Y-62515714D01*
X133648523Y-70211904D02*
X133648523Y-69411904D01*
X133839000Y-69411904D01*
X133953285Y-69450000D01*
X134029476Y-69526190D01*
X134067571Y-69602380D01*
X134105666Y-69754761D01*
X134105666Y-69869047D01*
X134067571Y-70021428D01*
X134029476Y-70097619D01*
X133953285Y-70173809D01*
X133839000Y-70211904D01*
X133648523Y-70211904D01*
X134372333Y-69411904D02*
X134905666Y-69411904D01*
X134562809Y-70211904D01*
X144837190Y-74872857D02*
X144951476Y-74910952D01*
X144989571Y-74949047D01*
X145027666Y-75025238D01*
X145027666Y-75139523D01*
X144989571Y-75215714D01*
X144951476Y-75253809D01*
X144875285Y-75291904D01*
X144570523Y-75291904D01*
X144570523Y-74491904D01*
X144837190Y-74491904D01*
X144913380Y-74530000D01*
X144951476Y-74568095D01*
X144989571Y-74644285D01*
X144989571Y-74720476D01*
X144951476Y-74796666D01*
X144913380Y-74834761D01*
X144837190Y-74872857D01*
X144570523Y-74872857D01*
X145332428Y-74568095D02*
X145370523Y-74530000D01*
X145446714Y-74491904D01*
X145637190Y-74491904D01*
X145713380Y-74530000D01*
X145751476Y-74568095D01*
X145789571Y-74644285D01*
X145789571Y-74720476D01*
X145751476Y-74834761D01*
X145294333Y-75291904D01*
X145789571Y-75291904D01*
X145864297Y-76364991D02*
X145958578Y-76317851D01*
X146005719Y-76317851D01*
X146076429Y-76341421D01*
X146147140Y-76412132D01*
X146170710Y-76482842D01*
X146170710Y-76529983D01*
X146147140Y-76600693D01*
X145958578Y-76789255D01*
X145463603Y-76294280D01*
X145628595Y-76129289D01*
X145699306Y-76105719D01*
X145746446Y-76105719D01*
X145817157Y-76129289D01*
X145864297Y-76176429D01*
X145887867Y-76247140D01*
X145887867Y-76294280D01*
X145864297Y-76364991D01*
X145699306Y-76529983D01*
X146170710Y-75587174D02*
X146076429Y-75681455D01*
X146052859Y-75752165D01*
X146052859Y-75799306D01*
X146076429Y-75917157D01*
X146147140Y-76035008D01*
X146335702Y-76223570D01*
X146406412Y-76247140D01*
X146453553Y-76247140D01*
X146524264Y-76223570D01*
X146618544Y-76129289D01*
X146642115Y-76058578D01*
X146642115Y-76011438D01*
X146618544Y-75940727D01*
X146500693Y-75822876D01*
X146429983Y-75799306D01*
X146382842Y-75799306D01*
X146312132Y-75822876D01*
X146217851Y-75917157D01*
X146194280Y-75987867D01*
X146194280Y-76035008D01*
X146217851Y-76105719D01*
X141973333Y-75842857D02*
X141706666Y-75842857D01*
X141706666Y-76261904D02*
X141706666Y-75461904D01*
X142087619Y-75461904D01*
X142811428Y-76261904D02*
X142354285Y-76261904D01*
X142582857Y-76261904D02*
X142582857Y-75461904D01*
X142506666Y-75576190D01*
X142430476Y-75652380D01*
X142354285Y-75690476D01*
X133629476Y-56750000D02*
X133553285Y-56711904D01*
X133439000Y-56711904D01*
X133324714Y-56750000D01*
X133248523Y-56826190D01*
X133210428Y-56902380D01*
X133172333Y-57054761D01*
X133172333Y-57169047D01*
X133210428Y-57321428D01*
X133248523Y-57397619D01*
X133324714Y-57473809D01*
X133439000Y-57511904D01*
X133515190Y-57511904D01*
X133629476Y-57473809D01*
X133667571Y-57435714D01*
X133667571Y-57169047D01*
X133515190Y-57169047D01*
X134010428Y-57511904D02*
X134010428Y-56711904D01*
X134467571Y-57511904D01*
X134467571Y-56711904D01*
X134848523Y-57511904D02*
X134848523Y-56711904D01*
X135039000Y-56711904D01*
X135153285Y-56750000D01*
X135229476Y-56826190D01*
X135267571Y-56902380D01*
X135305666Y-57054761D01*
X135305666Y-57169047D01*
X135267571Y-57321428D01*
X135229476Y-57397619D01*
X135153285Y-57473809D01*
X135039000Y-57511904D01*
X134848523Y-57511904D01*
X133648523Y-62591904D02*
X133648523Y-61791904D01*
X133839000Y-61791904D01*
X133953285Y-61830000D01*
X134029476Y-61906190D01*
X134067571Y-61982380D01*
X134105666Y-62134761D01*
X134105666Y-62249047D01*
X134067571Y-62401428D01*
X134029476Y-62477619D01*
X133953285Y-62553809D01*
X133839000Y-62591904D01*
X133648523Y-62591904D01*
X134600904Y-61791904D02*
X134677095Y-61791904D01*
X134753285Y-61830000D01*
X134791380Y-61868095D01*
X134829476Y-61944285D01*
X134867571Y-62096666D01*
X134867571Y-62287142D01*
X134829476Y-62439523D01*
X134791380Y-62515714D01*
X134753285Y-62553809D01*
X134677095Y-62591904D01*
X134600904Y-62591904D01*
X134524714Y-62553809D01*
X134486619Y-62515714D01*
X134448523Y-62439523D01*
X134410428Y-62287142D01*
X134410428Y-62096666D01*
X134448523Y-61944285D01*
X134486619Y-61868095D01*
X134524714Y-61830000D01*
X134600904Y-61791904D01*
X144837190Y-69792857D02*
X144951476Y-69830952D01*
X144989571Y-69869047D01*
X145027666Y-69945238D01*
X145027666Y-70059523D01*
X144989571Y-70135714D01*
X144951476Y-70173809D01*
X144875285Y-70211904D01*
X144570523Y-70211904D01*
X144570523Y-69411904D01*
X144837190Y-69411904D01*
X144913380Y-69450000D01*
X144951476Y-69488095D01*
X144989571Y-69564285D01*
X144989571Y-69640476D01*
X144951476Y-69716666D01*
X144913380Y-69754761D01*
X144837190Y-69792857D01*
X144570523Y-69792857D01*
X145789571Y-70211904D02*
X145332428Y-70211904D01*
X145561000Y-70211904D02*
X145561000Y-69411904D01*
X145484809Y-69526190D01*
X145408619Y-69602380D01*
X145332428Y-69640476D01*
X134916666Y-76050000D02*
X135016666Y-76083333D01*
X135050000Y-76116666D01*
X135083333Y-76183333D01*
X135083333Y-76283333D01*
X135050000Y-76350000D01*
X135016666Y-76383333D01*
X134950000Y-76416666D01*
X134683333Y-76416666D01*
X134683333Y-75716666D01*
X134916666Y-75716666D01*
X134983333Y-75750000D01*
X135016666Y-75783333D01*
X135050000Y-75850000D01*
X135050000Y-75916666D01*
X135016666Y-75983333D01*
X134983333Y-76016666D01*
X134916666Y-76050000D01*
X134683333Y-76050000D01*
X135316666Y-75716666D02*
X135783333Y-75716666D01*
X135483333Y-76416666D01*
X133915190Y-74872857D02*
X134029476Y-74910952D01*
X134067571Y-74949047D01*
X134105666Y-75025238D01*
X134105666Y-75139523D01*
X134067571Y-75215714D01*
X134029476Y-75253809D01*
X133953285Y-75291904D01*
X133648523Y-75291904D01*
X133648523Y-74491904D01*
X133915190Y-74491904D01*
X133991380Y-74530000D01*
X134029476Y-74568095D01*
X134067571Y-74644285D01*
X134067571Y-74720476D01*
X134029476Y-74796666D01*
X133991380Y-74834761D01*
X133915190Y-74872857D01*
X133648523Y-74872857D01*
X134791380Y-74758571D02*
X134791380Y-75291904D01*
X134600904Y-74453809D02*
X134410428Y-75025238D01*
X134905666Y-75025238D01*
X133445523Y-49091904D02*
X133902666Y-49091904D01*
X133674095Y-49891904D02*
X133674095Y-49091904D01*
X134093142Y-49091904D02*
X134626476Y-49891904D01*
X134626476Y-49091904D02*
X134093142Y-49891904D01*
X135083619Y-49091904D02*
X135159809Y-49091904D01*
X135236000Y-49130000D01*
X135274095Y-49168095D01*
X135312190Y-49244285D01*
X135350285Y-49396666D01*
X135350285Y-49587142D01*
X135312190Y-49739523D01*
X135274095Y-49815714D01*
X135236000Y-49853809D01*
X135159809Y-49891904D01*
X135083619Y-49891904D01*
X135007428Y-49853809D01*
X134969333Y-49815714D01*
X134931238Y-49739523D01*
X134893142Y-49587142D01*
X134893142Y-49396666D01*
X134931238Y-49244285D01*
X134969333Y-49168095D01*
X135007428Y-49130000D01*
X135083619Y-49091904D01*
X136264571Y-49053809D02*
X135578857Y-50082380D01*
X136531238Y-49891904D02*
X136531238Y-49091904D01*
X136721714Y-49091904D01*
X136836000Y-49130000D01*
X136912190Y-49206190D01*
X136950285Y-49282380D01*
X136988380Y-49434761D01*
X136988380Y-49549047D01*
X136950285Y-49701428D01*
X136912190Y-49777619D01*
X136836000Y-49853809D01*
X136721714Y-49891904D01*
X136531238Y-49891904D01*
X137255047Y-49091904D02*
X137750285Y-49091904D01*
X137483619Y-49396666D01*
X137597904Y-49396666D01*
X137674095Y-49434761D01*
X137712190Y-49472857D01*
X137750285Y-49549047D01*
X137750285Y-49739523D01*
X137712190Y-49815714D01*
X137674095Y-49853809D01*
X137597904Y-49891904D01*
X137369333Y-49891904D01*
X137293142Y-49853809D01*
X137255047Y-49815714D01*
%TO.C,L1*%
X136004761Y-46551904D02*
X136004761Y-47123333D01*
X135966666Y-47237619D01*
X135890476Y-47313809D01*
X135776190Y-47351904D01*
X135700000Y-47351904D01*
X136766666Y-47351904D02*
X136385714Y-47351904D01*
X136385714Y-46551904D01*
X137490476Y-47275714D02*
X137452380Y-47313809D01*
X137338095Y-47351904D01*
X137261904Y-47351904D01*
X137147619Y-47313809D01*
X137071428Y-47237619D01*
X137033333Y-47161428D01*
X136995238Y-47009047D01*
X136995238Y-46894761D01*
X137033333Y-46742380D01*
X137071428Y-46666190D01*
X137147619Y-46590000D01*
X137261904Y-46551904D01*
X137338095Y-46551904D01*
X137452380Y-46590000D01*
X137490476Y-46628095D01*
X138061904Y-46551904D02*
X138061904Y-47123333D01*
X138023809Y-47237619D01*
X137947619Y-47313809D01*
X137833333Y-47351904D01*
X137757142Y-47351904D01*
X138823809Y-47351904D02*
X138442857Y-47351904D01*
X138442857Y-46551904D01*
X139547619Y-47275714D02*
X139509523Y-47313809D01*
X139395238Y-47351904D01*
X139319047Y-47351904D01*
X139204761Y-47313809D01*
X139128571Y-47237619D01*
X139090476Y-47161428D01*
X139052380Y-47009047D01*
X139052380Y-46894761D01*
X139090476Y-46742380D01*
X139128571Y-46666190D01*
X139204761Y-46590000D01*
X139319047Y-46551904D01*
X139395238Y-46551904D01*
X139509523Y-46590000D01*
X139547619Y-46628095D01*
X140119047Y-46551904D02*
X140119047Y-47123333D01*
X140080952Y-47237619D01*
X140004761Y-47313809D01*
X139890476Y-47351904D01*
X139814285Y-47351904D01*
X140880952Y-47351904D02*
X140500000Y-47351904D01*
X140500000Y-46551904D01*
X141604761Y-47275714D02*
X141566666Y-47313809D01*
X141452380Y-47351904D01*
X141376190Y-47351904D01*
X141261904Y-47313809D01*
X141185714Y-47237619D01*
X141147619Y-47161428D01*
X141109523Y-47009047D01*
X141109523Y-46894761D01*
X141147619Y-46742380D01*
X141185714Y-46666190D01*
X141261904Y-46590000D01*
X141376190Y-46551904D01*
X141452380Y-46551904D01*
X141566666Y-46590000D01*
X141604761Y-46628095D01*
X142176190Y-46551904D02*
X142176190Y-47123333D01*
X142138095Y-47237619D01*
X142061904Y-47313809D01*
X141947619Y-47351904D01*
X141871428Y-47351904D01*
X142938095Y-47351904D02*
X142557142Y-47351904D01*
X142557142Y-46551904D01*
X143661904Y-47275714D02*
X143623809Y-47313809D01*
X143509523Y-47351904D01*
X143433333Y-47351904D01*
X143319047Y-47313809D01*
X143242857Y-47237619D01*
X143204761Y-47161428D01*
X143166666Y-47009047D01*
X143166666Y-46894761D01*
X143204761Y-46742380D01*
X143242857Y-46666190D01*
X143319047Y-46590000D01*
X143433333Y-46551904D01*
X143509523Y-46551904D01*
X143623809Y-46590000D01*
X143661904Y-46628095D01*
D13*
%TO.C,J1*%
X119940000Y-63990000D02*
X119940000Y-54510000D01*
X119940000Y-68090000D02*
X119940000Y-68090000D01*
X119940000Y-54510000D02*
X126440000Y-54510000D01*
X119940000Y-77570000D02*
X119940000Y-68090000D01*
X119940000Y-68090000D02*
X118630000Y-68090000D01*
X126440000Y-77570000D02*
X119940000Y-77570000D01*
X118630000Y-63990000D02*
X119940000Y-63990000D01*
X126440000Y-54510000D02*
X126440000Y-77570000D01*
%TO.C,J2*%
X152960000Y-54510000D02*
X159460000Y-54510000D01*
X152960000Y-77570000D02*
X152960000Y-54510000D01*
X159460000Y-63990000D02*
X160770000Y-63990000D01*
X159460000Y-54510000D02*
X159460000Y-63990000D01*
X160770000Y-68090000D02*
X159460000Y-68090000D01*
X159460000Y-63990000D02*
X159460000Y-63990000D01*
X159460000Y-77570000D02*
X152960000Y-77570000D01*
X159460000Y-68090000D02*
X159460000Y-77570000D01*
%TO.C,SW1*%
X156480000Y-46570000D02*
X151980000Y-46570000D01*
X150730000Y-49070000D02*
X150730000Y-50570000D01*
X157730000Y-50570000D02*
X157730000Y-49070000D01*
X151980000Y-53070000D02*
X156480000Y-53070000D01*
D10*
%TO.C,U1*%
X130810000Y-48260000D02*
X130810000Y-78740000D01*
X148590000Y-78740000D02*
X148590000Y-45720000D01*
X148590000Y-45720000D02*
X130810000Y-45720000D01*
X130810000Y-45720000D02*
X130810000Y-48260000D01*
X130810000Y-78740000D02*
X148590000Y-78740000D01*
X144631568Y-54139360D02*
X144631568Y-54239360D01*
X144631568Y-54239360D02*
X144131568Y-54239360D01*
X144131568Y-54239360D02*
X144131568Y-54139360D01*
X144131568Y-54139360D02*
X144631568Y-54139360D01*
G36*
X144631568Y-54239360D02*
G01*
X144131568Y-54239360D01*
X144131568Y-54139360D01*
X144631568Y-54139360D01*
X144631568Y-54239360D01*
G37*
X144631568Y-54239360D02*
X144131568Y-54239360D01*
X144131568Y-54139360D01*
X144631568Y-54139360D01*
X144631568Y-54239360D01*
X144231568Y-54139360D02*
X144231568Y-54939360D01*
X144231568Y-54939360D02*
X144131568Y-54939360D01*
X144131568Y-54939360D02*
X144131568Y-54139360D01*
X144131568Y-54139360D02*
X144231568Y-54139360D01*
G36*
X144231568Y-54939360D02*
G01*
X144131568Y-54939360D01*
X144131568Y-54139360D01*
X144231568Y-54139360D01*
X144231568Y-54939360D01*
G37*
X144231568Y-54939360D02*
X144131568Y-54939360D01*
X144131568Y-54139360D01*
X144231568Y-54139360D01*
X144231568Y-54939360D01*
X144631568Y-54739360D02*
X144631568Y-54939360D01*
X144631568Y-54939360D02*
X144531568Y-54939360D01*
X144531568Y-54939360D02*
X144531568Y-54739360D01*
X144531568Y-54739360D02*
X144631568Y-54739360D01*
G36*
X144631568Y-54939360D02*
G01*
X144531568Y-54939360D01*
X144531568Y-54739360D01*
X144631568Y-54739360D01*
X144631568Y-54939360D01*
G37*
X144631568Y-54939360D02*
X144531568Y-54939360D01*
X144531568Y-54739360D01*
X144631568Y-54739360D01*
X144631568Y-54939360D01*
X144431568Y-54539360D02*
X144431568Y-54639360D01*
X144431568Y-54639360D02*
X144331568Y-54639360D01*
X144331568Y-54639360D02*
X144331568Y-54539360D01*
X144331568Y-54539360D02*
X144431568Y-54539360D01*
G36*
X144431568Y-54639360D02*
G01*
X144331568Y-54639360D01*
X144331568Y-54539360D01*
X144431568Y-54539360D01*
X144431568Y-54639360D01*
G37*
X144431568Y-54639360D02*
X144331568Y-54639360D01*
X144331568Y-54539360D01*
X144431568Y-54539360D01*
X144431568Y-54639360D01*
X144631568Y-54139360D02*
X144631568Y-54439360D01*
X144631568Y-54439360D02*
X144531568Y-54439360D01*
X144531568Y-54439360D02*
X144531568Y-54139360D01*
X144531568Y-54139360D02*
X144631568Y-54139360D01*
G36*
X144631568Y-54439360D02*
G01*
X144531568Y-54439360D01*
X144531568Y-54139360D01*
X144631568Y-54139360D01*
X144631568Y-54439360D01*
G37*
X144631568Y-54439360D02*
X144531568Y-54439360D01*
X144531568Y-54139360D01*
X144631568Y-54139360D01*
X144631568Y-54439360D01*
%TD*%
D14*
%TO.C,U1*%
X132080000Y-49530000D03*
D15*
X132080000Y-52070000D03*
X132080000Y-54610000D03*
X132080000Y-57150000D03*
X132080000Y-59690000D03*
X132080000Y-62230000D03*
X132080000Y-64770000D03*
X132080000Y-67310000D03*
X132080000Y-69850000D03*
X132080000Y-72390000D03*
X132080000Y-74930000D03*
X132080000Y-77470000D03*
X147320000Y-77470000D03*
X147320000Y-74930000D03*
X147320000Y-72390000D03*
X147320000Y-69850000D03*
X147320000Y-67310000D03*
X147320000Y-64770000D03*
X147320000Y-62230000D03*
X147320000Y-59690000D03*
X147320000Y-57150000D03*
X147320000Y-54610000D03*
X147320000Y-52070000D03*
X147320000Y-49530000D03*
X134620000Y-77470000D03*
X137160000Y-77470000D03*
X139700000Y-77470000D03*
X142240000Y-77470000D03*
X144780000Y-77470000D03*
%TD*%
%LPC*%
D16*
X120759431Y-48719619D02*
X120886431Y-47703619D01*
X121273479Y-47703619D01*
X121364193Y-47752000D01*
X121406526Y-47800380D01*
X121442812Y-47897142D01*
X121424669Y-48042285D01*
X121364193Y-48139047D01*
X121309765Y-48187428D01*
X121206955Y-48235809D01*
X120819907Y-48235809D01*
X121775431Y-48719619D02*
X121860098Y-48042285D01*
X121835907Y-48235809D02*
X121896384Y-48139047D01*
X121950812Y-48090666D01*
X122053622Y-48042285D01*
X122150384Y-48042285D01*
X122839812Y-48719619D02*
X122906336Y-48187428D01*
X122870050Y-48090666D01*
X122779336Y-48042285D01*
X122585812Y-48042285D01*
X122483003Y-48090666D01*
X122845860Y-48671238D02*
X122743050Y-48719619D01*
X122501145Y-48719619D01*
X122410431Y-48671238D01*
X122374145Y-48574476D01*
X122386241Y-48477714D01*
X122446717Y-48380952D01*
X122549526Y-48332571D01*
X122791431Y-48332571D01*
X122894241Y-48284190D01*
X123843717Y-48042285D02*
X123740907Y-48864761D01*
X123680431Y-48961523D01*
X123626003Y-49009904D01*
X123523193Y-49058285D01*
X123378050Y-49058285D01*
X123287336Y-49009904D01*
X123765098Y-48671238D02*
X123662288Y-48719619D01*
X123468765Y-48719619D01*
X123378050Y-48671238D01*
X123335717Y-48622857D01*
X123299431Y-48526095D01*
X123335717Y-48235809D01*
X123396193Y-48139047D01*
X123450622Y-48090666D01*
X123553431Y-48042285D01*
X123746955Y-48042285D01*
X123837669Y-48090666D01*
X124242860Y-48719619D02*
X124327526Y-48042285D01*
X124315431Y-48139047D02*
X124369860Y-48090666D01*
X124472669Y-48042285D01*
X124617812Y-48042285D01*
X124708526Y-48090666D01*
X124744812Y-48187428D01*
X124678288Y-48719619D01*
X124744812Y-48187428D02*
X124805288Y-48090666D01*
X124908098Y-48042285D01*
X125053241Y-48042285D01*
X125143955Y-48090666D01*
X125180241Y-48187428D01*
X125113717Y-48719619D01*
X126032955Y-48719619D02*
X126099479Y-48187428D01*
X126063193Y-48090666D01*
X125972479Y-48042285D01*
X125778955Y-48042285D01*
X125676145Y-48090666D01*
X126039003Y-48671238D02*
X125936193Y-48719619D01*
X125694288Y-48719619D01*
X125603574Y-48671238D01*
X125567288Y-48574476D01*
X125579384Y-48477714D01*
X125639860Y-48380952D01*
X125742669Y-48332571D01*
X125984574Y-48332571D01*
X126087384Y-48284190D01*
X126456288Y-48042285D02*
X126843336Y-48042285D01*
X126643765Y-47703619D02*
X126534907Y-48574476D01*
X126571193Y-48671238D01*
X126661907Y-48719619D01*
X126758669Y-48719619D01*
X127097336Y-48719619D02*
X127182003Y-48042285D01*
X127224336Y-47703619D02*
X127169907Y-47752000D01*
X127212241Y-47800380D01*
X127266669Y-47752000D01*
X127224336Y-47703619D01*
X127212241Y-47800380D01*
X128022622Y-48671238D02*
X127919812Y-48719619D01*
X127726288Y-48719619D01*
X127635574Y-48671238D01*
X127593241Y-48622857D01*
X127556955Y-48526095D01*
X127593241Y-48235809D01*
X127653717Y-48139047D01*
X127708145Y-48090666D01*
X127810955Y-48042285D01*
X128004479Y-48042285D01*
X128095193Y-48090666D01*
D17*
%TO.C,J1*%
X121920000Y-58420000D03*
D18*
X124460000Y-58420000D03*
X121920000Y-60960000D03*
X124460000Y-60960000D03*
X121920000Y-63500000D03*
X124460000Y-63500000D03*
X121920000Y-66040000D03*
X124460000Y-66040000D03*
X121920000Y-68580000D03*
X124460000Y-68580000D03*
X121920000Y-71120000D03*
X124460000Y-71120000D03*
X121920000Y-73660000D03*
X124460000Y-73660000D03*
%TD*%
D19*
%TO.C,J2*%
X157480000Y-73660000D03*
D18*
X154940000Y-73660000D03*
X157480000Y-71120000D03*
X154940000Y-71120000D03*
X157480000Y-68580000D03*
X154940000Y-68580000D03*
X157480000Y-66040000D03*
X154940000Y-66040000D03*
X157480000Y-63500000D03*
X154940000Y-63500000D03*
X157480000Y-60960000D03*
X154940000Y-60960000D03*
X157480000Y-58420000D03*
X154940000Y-58420000D03*
%TD*%
D20*
%TO.C,SW1*%
X157480000Y-52070000D03*
X157480000Y-47570000D03*
X150980000Y-52070000D03*
X150980000Y-47570000D03*
%TD*%
D14*
%TO.C,U1*%
X132080000Y-49530000D03*
D15*
X132080000Y-52070000D03*
X132080000Y-54610000D03*
X132080000Y-57150000D03*
X132080000Y-59690000D03*
X132080000Y-62230000D03*
X132080000Y-64770000D03*
X132080000Y-67310000D03*
X132080000Y-69850000D03*
X132080000Y-72390000D03*
X132080000Y-74930000D03*
X132080000Y-77470000D03*
X147320000Y-77470000D03*
X147320000Y-74930000D03*
X147320000Y-72390000D03*
X147320000Y-69850000D03*
X147320000Y-67310000D03*
X147320000Y-64770000D03*
X147320000Y-62230000D03*
X147320000Y-59690000D03*
X147320000Y-57150000D03*
X147320000Y-54610000D03*
X147320000Y-52070000D03*
X147320000Y-49530000D03*
X134620000Y-77470000D03*
X137160000Y-77470000D03*
X139700000Y-77470000D03*
X142240000Y-77470000D03*
X144780000Y-77470000D03*
%TD*%
D21*
%TO.C,M2*%
X156210000Y-86360000D03*
%TD*%
D22*
%TO.C,J3*%
X132080000Y-87630000D03*
D18*
X132080000Y-85090000D03*
X134620000Y-87630000D03*
X134620000Y-85090000D03*
X137160000Y-87630000D03*
X137160000Y-85090000D03*
X139700000Y-87630000D03*
X139700000Y-85090000D03*
X142240000Y-87630000D03*
X142240000Y-85090000D03*
X144780000Y-87630000D03*
X144780000Y-85090000D03*
X147320000Y-87630000D03*
X147320000Y-85090000D03*
%TD*%
D21*
%TO.C,M1*%
X123190000Y-86360000D03*
%TD*%
M02*
