%TF.GenerationSoftware,KiCad,Pcbnew,(6.0.5-0)*%
%TF.CreationDate,2022-06-17T01:25:01+08:00*%
%TF.ProjectId,Pragmatic,50726167-6d61-4746-9963-2e6b69636164,V3*%
%TF.SameCoordinates,PX7df6180PY32de760*%
%TF.FileFunction,Soldermask,Top*%
%TF.FilePolarity,Negative*%
%FSLAX46Y46*%
G04 Gerber Fmt 4.6, Leading zero omitted, Abs format (unit mm)*
G04 Created by KiCad (PCBNEW (6.0.5-0)) date 2022-06-17 01:25:01*
%MOMM*%
%LPD*%
G01*
G04 APERTURE LIST*
G04 Aperture macros list*
%AMRoundRect*
0 Rectangle with rounded corners*
0 $1 Rounding radius*
0 $2 $3 $4 $5 $6 $7 $8 $9 X,Y pos of 4 corners*
0 Add a 4 corners polygon primitive as box body*
4,1,4,$2,$3,$4,$5,$6,$7,$8,$9,$2,$3,0*
0 Add four circle primitives for the rounded corners*
1,1,$1+$1,$2,$3*
1,1,$1+$1,$4,$5*
1,1,$1+$1,$6,$7*
1,1,$1+$1,$8,$9*
0 Add four rect primitives between the rounded corners*
20,1,$1+$1,$2,$3,$4,$5,0*
20,1,$1+$1,$4,$5,$6,$7,0*
20,1,$1+$1,$6,$7,$8,$9,0*
20,1,$1+$1,$8,$9,$2,$3,0*%
G04 Aperture macros list end*
%ADD10C,0.381000*%
%ADD11C,0.010000*%
%ADD12R,1.752600X1.752600*%
%ADD13C,1.752600*%
%ADD14RoundRect,0.250000X-0.600000X-0.600000X0.600000X-0.600000X0.600000X0.600000X-0.600000X0.600000X0*%
%ADD15C,1.700000*%
%ADD16RoundRect,0.250000X0.600000X0.600000X-0.600000X0.600000X-0.600000X-0.600000X0.600000X-0.600000X0*%
%ADD17C,2.000000*%
%ADD18R,1.700000X1.700000*%
%ADD19O,1.700000X1.700000*%
G04 APERTURE END LIST*
D10*
X-1631421Y-37344047D02*
X-1313921Y-34804047D01*
X-346302Y-34804047D01*
X-119517Y-34925000D01*
X-13683Y-35045952D01*
X77031Y-35287857D01*
X31674Y-35650714D01*
X-119517Y-35892619D01*
X-255588Y-36013571D01*
X-512612Y-36134523D01*
X-1480231Y-36134523D01*
X908579Y-37344047D02*
X1120245Y-35650714D01*
X1059769Y-36134523D02*
X1210960Y-35892619D01*
X1347031Y-35771666D01*
X1604055Y-35650714D01*
X1845960Y-35650714D01*
X3569531Y-37344047D02*
X3735841Y-36013571D01*
X3645126Y-35771666D01*
X3418341Y-35650714D01*
X2934531Y-35650714D01*
X2677507Y-35771666D01*
X3584650Y-37223095D02*
X3327626Y-37344047D01*
X2722864Y-37344047D01*
X2496079Y-37223095D01*
X2405364Y-36981190D01*
X2435602Y-36739285D01*
X2586793Y-36497380D01*
X2843817Y-36376428D01*
X3448579Y-36376428D01*
X3705602Y-36255476D01*
X6079293Y-35650714D02*
X5822269Y-37706904D01*
X5671079Y-37948809D01*
X5535007Y-38069761D01*
X5277983Y-38190714D01*
X4915126Y-38190714D01*
X4688341Y-38069761D01*
X5882745Y-37223095D02*
X5625722Y-37344047D01*
X5141912Y-37344047D01*
X4915126Y-37223095D01*
X4809293Y-37102142D01*
X4718579Y-36860238D01*
X4809293Y-36134523D01*
X4960483Y-35892619D01*
X5096555Y-35771666D01*
X5353579Y-35650714D01*
X5837388Y-35650714D01*
X6064174Y-35771666D01*
X7077150Y-37344047D02*
X7288817Y-35650714D01*
X7258579Y-35892619D02*
X7394650Y-35771666D01*
X7651674Y-35650714D01*
X8014531Y-35650714D01*
X8241317Y-35771666D01*
X8332031Y-36013571D01*
X8165722Y-37344047D01*
X8332031Y-36013571D02*
X8483222Y-35771666D01*
X8740245Y-35650714D01*
X9103102Y-35650714D01*
X9329888Y-35771666D01*
X9420602Y-36013571D01*
X9254293Y-37344047D01*
X11552388Y-37344047D02*
X11718698Y-36013571D01*
X11627983Y-35771666D01*
X11401198Y-35650714D01*
X10917388Y-35650714D01*
X10660364Y-35771666D01*
X11567507Y-37223095D02*
X11310483Y-37344047D01*
X10705722Y-37344047D01*
X10478936Y-37223095D01*
X10388222Y-36981190D01*
X10418460Y-36739285D01*
X10569650Y-36497380D01*
X10826674Y-36376428D01*
X11431436Y-36376428D01*
X11688460Y-36255476D01*
X12610722Y-35650714D02*
X13578341Y-35650714D01*
X13079412Y-34804047D02*
X12807269Y-36981190D01*
X12897983Y-37223095D01*
X13124769Y-37344047D01*
X13366674Y-37344047D01*
X14213341Y-37344047D02*
X14425007Y-35650714D01*
X14530841Y-34804047D02*
X14394769Y-34925000D01*
X14500602Y-35045952D01*
X14636674Y-34925000D01*
X14530841Y-34804047D01*
X14500602Y-35045952D01*
X16526555Y-37223095D02*
X16269531Y-37344047D01*
X15785722Y-37344047D01*
X15558936Y-37223095D01*
X15453102Y-37102142D01*
X15362388Y-36860238D01*
X15453102Y-36134523D01*
X15604293Y-35892619D01*
X15740364Y-35771666D01*
X15997388Y-35650714D01*
X16481198Y-35650714D01*
X16707983Y-35771666D01*
%TO.C,Logo1*%
G36*
X-5205167Y-688663D02*
G01*
X-5202952Y-726850D01*
X-5201216Y-784886D01*
X-5200101Y-858180D01*
X-5199743Y-935055D01*
X-5199743Y-1195196D01*
X-5245674Y-1241127D01*
X-5277325Y-1269429D01*
X-5305110Y-1280893D01*
X-5343085Y-1280168D01*
X-5358160Y-1278321D01*
X-5405274Y-1272948D01*
X-5444244Y-1269869D01*
X-5453743Y-1269585D01*
X-5485767Y-1271445D01*
X-5531568Y-1276114D01*
X-5549326Y-1278321D01*
X-5592943Y-1281735D01*
X-5622255Y-1274320D01*
X-5651320Y-1251427D01*
X-5661812Y-1241127D01*
X-5707743Y-1195196D01*
X-5707743Y-708602D01*
X-5670774Y-691758D01*
X-5638941Y-679282D01*
X-5620317Y-674914D01*
X-5615542Y-688718D01*
X-5611079Y-727286D01*
X-5607225Y-786356D01*
X-5604278Y-861663D01*
X-5602857Y-925286D01*
X-5598886Y-1175657D01*
X-5564241Y-1180556D01*
X-5532732Y-1177131D01*
X-5517292Y-1166041D01*
X-5512977Y-1145308D01*
X-5509292Y-1101145D01*
X-5506531Y-1039146D01*
X-5504988Y-964909D01*
X-5504765Y-926706D01*
X-5504543Y-706783D01*
X-5458834Y-690849D01*
X-5426482Y-680015D01*
X-5408885Y-674962D01*
X-5408377Y-674914D01*
X-5406612Y-688648D01*
X-5404671Y-726730D01*
X-5402718Y-784482D01*
X-5400916Y-857227D01*
X-5399657Y-925286D01*
X-5395686Y-1175657D01*
X-5308600Y-1175657D01*
X-5304604Y-947240D01*
X-5300608Y-718822D01*
X-5258153Y-696868D01*
X-5226808Y-681793D01*
X-5208256Y-674951D01*
X-5207721Y-674914D01*
X-5205167Y-688663D01*
G37*
D11*
X-5205167Y-688663D02*
X-5202952Y-726850D01*
X-5201216Y-784886D01*
X-5200101Y-858180D01*
X-5199743Y-935055D01*
X-5199743Y-1195196D01*
X-5245674Y-1241127D01*
X-5277325Y-1269429D01*
X-5305110Y-1280893D01*
X-5343085Y-1280168D01*
X-5358160Y-1278321D01*
X-5405274Y-1272948D01*
X-5444244Y-1269869D01*
X-5453743Y-1269585D01*
X-5485767Y-1271445D01*
X-5531568Y-1276114D01*
X-5549326Y-1278321D01*
X-5592943Y-1281735D01*
X-5622255Y-1274320D01*
X-5651320Y-1251427D01*
X-5661812Y-1241127D01*
X-5707743Y-1195196D01*
X-5707743Y-708602D01*
X-5670774Y-691758D01*
X-5638941Y-679282D01*
X-5620317Y-674914D01*
X-5615542Y-688718D01*
X-5611079Y-727286D01*
X-5607225Y-786356D01*
X-5604278Y-861663D01*
X-5602857Y-925286D01*
X-5598886Y-1175657D01*
X-5564241Y-1180556D01*
X-5532732Y-1177131D01*
X-5517292Y-1166041D01*
X-5512977Y-1145308D01*
X-5509292Y-1101145D01*
X-5506531Y-1039146D01*
X-5504988Y-964909D01*
X-5504765Y-926706D01*
X-5504543Y-706783D01*
X-5458834Y-690849D01*
X-5426482Y-680015D01*
X-5408885Y-674962D01*
X-5408377Y-674914D01*
X-5406612Y-688648D01*
X-5404671Y-726730D01*
X-5402718Y-784482D01*
X-5400916Y-857227D01*
X-5399657Y-925286D01*
X-5395686Y-1175657D01*
X-5308600Y-1175657D01*
X-5304604Y-947240D01*
X-5300608Y-718822D01*
X-5258153Y-696868D01*
X-5226808Y-681793D01*
X-5208256Y-674951D01*
X-5207721Y-674914D01*
X-5205167Y-688663D01*
G36*
X-6881090Y4027652D02*
G01*
X-6802546Y4027222D01*
X-6745702Y4026058D01*
X-6706895Y4023793D01*
X-6682462Y4020060D01*
X-6668738Y4014494D01*
X-6662060Y4006727D01*
X-6658764Y3996395D01*
X-6658444Y3995057D01*
X-6653438Y3970921D01*
X-6644171Y3923299D01*
X-6631608Y3857259D01*
X-6616713Y3777872D01*
X-6600449Y3690204D01*
X-6599881Y3687125D01*
X-6583590Y3601211D01*
X-6568348Y3525304D01*
X-6555139Y3463955D01*
X-6544946Y3421718D01*
X-6538752Y3403145D01*
X-6538457Y3402816D01*
X-6520212Y3393747D01*
X-6482595Y3378633D01*
X-6433729Y3360738D01*
X-6433457Y3360642D01*
X-6371907Y3337507D01*
X-6299343Y3308035D01*
X-6230943Y3278403D01*
X-6227706Y3276938D01*
X-6116298Y3226374D01*
X-5869601Y3394840D01*
X-5793923Y3446197D01*
X-5725369Y3492111D01*
X-5667912Y3529970D01*
X-5625524Y3557163D01*
X-5602175Y3571079D01*
X-5599958Y3572111D01*
X-5582990Y3567516D01*
X-5551299Y3545345D01*
X-5503648Y3504553D01*
X-5438802Y3444095D01*
X-5372603Y3379773D01*
X-5308786Y3316388D01*
X-5251671Y3258549D01*
X-5204695Y3209825D01*
X-5171297Y3173790D01*
X-5154915Y3154016D01*
X-5154306Y3152998D01*
X-5152495Y3139428D01*
X-5159317Y3117267D01*
X-5176460Y3083522D01*
X-5205607Y3035200D01*
X-5248445Y2969308D01*
X-5305552Y2884483D01*
X-5356234Y2809823D01*
X-5401539Y2742860D01*
X-5438850Y2687484D01*
X-5465548Y2647580D01*
X-5479015Y2627038D01*
X-5479863Y2625644D01*
X-5478219Y2605962D01*
X-5465755Y2567707D01*
X-5444952Y2518111D01*
X-5437538Y2502272D01*
X-5405186Y2431710D01*
X-5370672Y2351647D01*
X-5342635Y2282371D01*
X-5322432Y2230955D01*
X-5306385Y2191881D01*
X-5297112Y2171459D01*
X-5295959Y2169886D01*
X-5278904Y2167279D01*
X-5238702Y2160137D01*
X-5180698Y2149477D01*
X-5110237Y2136315D01*
X-5032665Y2121667D01*
X-4953328Y2106551D01*
X-4877569Y2091982D01*
X-4810736Y2078978D01*
X-4758172Y2068555D01*
X-4725224Y2061730D01*
X-4717143Y2059801D01*
X-4708795Y2055038D01*
X-4702494Y2044282D01*
X-4697955Y2023902D01*
X-4694896Y1990266D01*
X-4693033Y1939745D01*
X-4692082Y1868708D01*
X-4691760Y1773524D01*
X-4691743Y1734508D01*
X-4691743Y1417201D01*
X-4767943Y1402161D01*
X-4810337Y1394005D01*
X-4873600Y1382101D01*
X-4950038Y1367884D01*
X-5031957Y1352790D01*
X-5054600Y1348645D01*
X-5130194Y1333947D01*
X-5196047Y1319495D01*
X-5246634Y1306625D01*
X-5276426Y1296678D01*
X-5281388Y1293713D01*
X-5293574Y1272717D01*
X-5311047Y1232033D01*
X-5330423Y1179678D01*
X-5334266Y1168400D01*
X-5359661Y1098477D01*
X-5391183Y1019582D01*
X-5422031Y948734D01*
X-5422183Y948405D01*
X-5473553Y837267D01*
X-5304601Y588747D01*
X-5135648Y340228D01*
X-5352571Y122942D01*
X-5418181Y58274D01*
X-5478021Y1267D01*
X-5528733Y-45033D01*
X-5566954Y-77584D01*
X-5589325Y-93343D01*
X-5592534Y-94343D01*
X-5611374Y-86469D01*
X-5649820Y-64578D01*
X-5703670Y-31267D01*
X-5768724Y10869D01*
X-5839060Y58057D01*
X-5910445Y106190D01*
X-5974092Y148072D01*
X-6025959Y181129D01*
X-6062005Y202782D01*
X-6078133Y210457D01*
X-6097811Y203963D01*
X-6135125Y186850D01*
X-6182379Y162674D01*
X-6187388Y159987D01*
X-6251023Y128073D01*
X-6294659Y112421D01*
X-6321798Y112255D01*
X-6335943Y126796D01*
X-6336025Y127000D01*
X-6343095Y144221D01*
X-6359958Y185101D01*
X-6385305Y246475D01*
X-6417829Y325181D01*
X-6456222Y418053D01*
X-6499178Y521928D01*
X-6540778Y622498D01*
X-6586496Y733484D01*
X-6628474Y836297D01*
X-6665452Y927785D01*
X-6696173Y1004799D01*
X-6719378Y1064185D01*
X-6733810Y1102791D01*
X-6738257Y1117200D01*
X-6727104Y1133728D01*
X-6697931Y1160070D01*
X-6659029Y1189113D01*
X-6548243Y1280961D01*
X-6461649Y1386241D01*
X-6400284Y1502734D01*
X-6365185Y1628224D01*
X-6357392Y1760493D01*
X-6363057Y1821543D01*
X-6393922Y1948205D01*
X-6447080Y2060059D01*
X-6519233Y2155999D01*
X-6607083Y2234924D01*
X-6707335Y2295730D01*
X-6816690Y2337313D01*
X-6931853Y2358572D01*
X-7049525Y2358401D01*
X-7166410Y2335699D01*
X-7279211Y2289362D01*
X-7384631Y2218287D01*
X-7428632Y2178089D01*
X-7513021Y2074871D01*
X-7571778Y1962075D01*
X-7605296Y1842990D01*
X-7613965Y1720905D01*
X-7598177Y1599107D01*
X-7558322Y1480884D01*
X-7494793Y1369525D01*
X-7407979Y1268316D01*
X-7310971Y1189113D01*
X-7270563Y1158838D01*
X-7242018Y1132781D01*
X-7231743Y1117175D01*
X-7237123Y1100157D01*
X-7252425Y1059500D01*
X-7276388Y998358D01*
X-7307756Y919881D01*
X-7345268Y827220D01*
X-7387667Y723528D01*
X-7429337Y622474D01*
X-7475310Y511393D01*
X-7517893Y408459D01*
X-7555779Y316835D01*
X-7587660Y239684D01*
X-7612229Y180169D01*
X-7628180Y141456D01*
X-7634090Y127000D01*
X-7648052Y112315D01*
X-7675060Y112358D01*
X-7718587Y127901D01*
X-7782110Y159716D01*
X-7782612Y159987D01*
X-7830440Y184677D01*
X-7869103Y202662D01*
X-7890905Y210386D01*
X-7891867Y210457D01*
X-7908279Y202622D01*
X-7944513Y180835D01*
X-7996526Y147672D01*
X-8060275Y105709D01*
X-8130940Y58057D01*
X-8202884Y9809D01*
X-8267726Y-32151D01*
X-8321265Y-65227D01*
X-8359303Y-86821D01*
X-8377467Y-94343D01*
X-8394192Y-84457D01*
X-8427820Y-56826D01*
X-8474990Y-14495D01*
X-8532342Y39495D01*
X-8596516Y102101D01*
X-8617503Y123017D01*
X-8834501Y340377D01*
X-8669332Y582780D01*
X-8619136Y657219D01*
X-8575081Y724028D01*
X-8539638Y779335D01*
X-8515281Y819271D01*
X-8504478Y839964D01*
X-8504162Y841437D01*
X-8509857Y860942D01*
X-8525174Y900178D01*
X-8547463Y952570D01*
X-8563107Y987645D01*
X-8592359Y1054799D01*
X-8619906Y1122642D01*
X-8641263Y1179966D01*
X-8647065Y1197428D01*
X-8663548Y1244062D01*
X-8679660Y1280095D01*
X-8688510Y1293713D01*
X-8708040Y1302048D01*
X-8750666Y1313863D01*
X-8810855Y1327819D01*
X-8883078Y1342578D01*
X-8915400Y1348645D01*
X-8997478Y1363727D01*
X-9076205Y1378331D01*
X-9143891Y1391020D01*
X-9192840Y1400358D01*
X-9202057Y1402161D01*
X-9278257Y1417201D01*
X-9278257Y1734508D01*
X-9278086Y1838846D01*
X-9277384Y1917787D01*
X-9275866Y1974962D01*
X-9273251Y2014001D01*
X-9269254Y2038535D01*
X-9263591Y2052195D01*
X-9255980Y2058611D01*
X-9252857Y2059801D01*
X-9234022Y2064020D01*
X-9192412Y2072438D01*
X-9133370Y2084039D01*
X-9062243Y2097805D01*
X-8984375Y2112720D01*
X-8905113Y2127768D01*
X-8829802Y2141931D01*
X-8763787Y2154194D01*
X-8712413Y2163539D01*
X-8681025Y2168950D01*
X-8674041Y2169886D01*
X-8667715Y2182404D01*
X-8653710Y2215754D01*
X-8634645Y2263623D01*
X-8627366Y2282371D01*
X-8598004Y2354805D01*
X-8563429Y2434830D01*
X-8532463Y2502272D01*
X-8509677Y2553841D01*
X-8494518Y2596215D01*
X-8489458Y2622166D01*
X-8490264Y2625644D01*
X-8500959Y2642064D01*
X-8525380Y2678583D01*
X-8560905Y2731313D01*
X-8604913Y2796365D01*
X-8654783Y2869849D01*
X-8664644Y2884355D01*
X-8722508Y2970296D01*
X-8765044Y3035739D01*
X-8793946Y3083696D01*
X-8810910Y3117180D01*
X-8817633Y3139205D01*
X-8815810Y3152783D01*
X-8815764Y3152869D01*
X-8801414Y3170703D01*
X-8769677Y3205183D01*
X-8723990Y3252732D01*
X-8667796Y3309778D01*
X-8604532Y3372745D01*
X-8597398Y3379773D01*
X-8517670Y3456980D01*
X-8456143Y3513670D01*
X-8411579Y3550890D01*
X-8382743Y3569685D01*
X-8370042Y3572111D01*
X-8351506Y3561529D01*
X-8313039Y3537084D01*
X-8258614Y3501388D01*
X-8192202Y3457053D01*
X-8117775Y3406689D01*
X-8100399Y3394840D01*
X-7853703Y3226374D01*
X-7742294Y3276938D01*
X-7674543Y3306405D01*
X-7601817Y3336041D01*
X-7539297Y3359670D01*
X-7536543Y3360642D01*
X-7487640Y3378543D01*
X-7449943Y3393680D01*
X-7431575Y3402790D01*
X-7431544Y3402816D01*
X-7425715Y3419283D01*
X-7415808Y3459781D01*
X-7402805Y3519758D01*
X-7387691Y3594660D01*
X-7371448Y3679936D01*
X-7370119Y3687125D01*
X-7353825Y3774986D01*
X-7338867Y3854740D01*
X-7326209Y3921319D01*
X-7316814Y3969653D01*
X-7311646Y3994675D01*
X-7311556Y3995057D01*
X-7308411Y4005701D01*
X-7302296Y4013738D01*
X-7289547Y4019533D01*
X-7266500Y4023453D01*
X-7229491Y4025865D01*
X-7174856Y4027135D01*
X-7098933Y4027629D01*
X-6998056Y4027714D01*
X-6985000Y4027714D01*
X-6881090Y4027652D01*
G37*
X-6881090Y4027652D02*
X-6802546Y4027222D01*
X-6745702Y4026058D01*
X-6706895Y4023793D01*
X-6682462Y4020060D01*
X-6668738Y4014494D01*
X-6662060Y4006727D01*
X-6658764Y3996395D01*
X-6658444Y3995057D01*
X-6653438Y3970921D01*
X-6644171Y3923299D01*
X-6631608Y3857259D01*
X-6616713Y3777872D01*
X-6600449Y3690204D01*
X-6599881Y3687125D01*
X-6583590Y3601211D01*
X-6568348Y3525304D01*
X-6555139Y3463955D01*
X-6544946Y3421718D01*
X-6538752Y3403145D01*
X-6538457Y3402816D01*
X-6520212Y3393747D01*
X-6482595Y3378633D01*
X-6433729Y3360738D01*
X-6433457Y3360642D01*
X-6371907Y3337507D01*
X-6299343Y3308035D01*
X-6230943Y3278403D01*
X-6227706Y3276938D01*
X-6116298Y3226374D01*
X-5869601Y3394840D01*
X-5793923Y3446197D01*
X-5725369Y3492111D01*
X-5667912Y3529970D01*
X-5625524Y3557163D01*
X-5602175Y3571079D01*
X-5599958Y3572111D01*
X-5582990Y3567516D01*
X-5551299Y3545345D01*
X-5503648Y3504553D01*
X-5438802Y3444095D01*
X-5372603Y3379773D01*
X-5308786Y3316388D01*
X-5251671Y3258549D01*
X-5204695Y3209825D01*
X-5171297Y3173790D01*
X-5154915Y3154016D01*
X-5154306Y3152998D01*
X-5152495Y3139428D01*
X-5159317Y3117267D01*
X-5176460Y3083522D01*
X-5205607Y3035200D01*
X-5248445Y2969308D01*
X-5305552Y2884483D01*
X-5356234Y2809823D01*
X-5401539Y2742860D01*
X-5438850Y2687484D01*
X-5465548Y2647580D01*
X-5479015Y2627038D01*
X-5479863Y2625644D01*
X-5478219Y2605962D01*
X-5465755Y2567707D01*
X-5444952Y2518111D01*
X-5437538Y2502272D01*
X-5405186Y2431710D01*
X-5370672Y2351647D01*
X-5342635Y2282371D01*
X-5322432Y2230955D01*
X-5306385Y2191881D01*
X-5297112Y2171459D01*
X-5295959Y2169886D01*
X-5278904Y2167279D01*
X-5238702Y2160137D01*
X-5180698Y2149477D01*
X-5110237Y2136315D01*
X-5032665Y2121667D01*
X-4953328Y2106551D01*
X-4877569Y2091982D01*
X-4810736Y2078978D01*
X-4758172Y2068555D01*
X-4725224Y2061730D01*
X-4717143Y2059801D01*
X-4708795Y2055038D01*
X-4702494Y2044282D01*
X-4697955Y2023902D01*
X-4694896Y1990266D01*
X-4693033Y1939745D01*
X-4692082Y1868708D01*
X-4691760Y1773524D01*
X-4691743Y1734508D01*
X-4691743Y1417201D01*
X-4767943Y1402161D01*
X-4810337Y1394005D01*
X-4873600Y1382101D01*
X-4950038Y1367884D01*
X-5031957Y1352790D01*
X-5054600Y1348645D01*
X-5130194Y1333947D01*
X-5196047Y1319495D01*
X-5246634Y1306625D01*
X-5276426Y1296678D01*
X-5281388Y1293713D01*
X-5293574Y1272717D01*
X-5311047Y1232033D01*
X-5330423Y1179678D01*
X-5334266Y1168400D01*
X-5359661Y1098477D01*
X-5391183Y1019582D01*
X-5422031Y948734D01*
X-5422183Y948405D01*
X-5473553Y837267D01*
X-5304601Y588747D01*
X-5135648Y340228D01*
X-5352571Y122942D01*
X-5418181Y58274D01*
X-5478021Y1267D01*
X-5528733Y-45033D01*
X-5566954Y-77584D01*
X-5589325Y-93343D01*
X-5592534Y-94343D01*
X-5611374Y-86469D01*
X-5649820Y-64578D01*
X-5703670Y-31267D01*
X-5768724Y10869D01*
X-5839060Y58057D01*
X-5910445Y106190D01*
X-5974092Y148072D01*
X-6025959Y181129D01*
X-6062005Y202782D01*
X-6078133Y210457D01*
X-6097811Y203963D01*
X-6135125Y186850D01*
X-6182379Y162674D01*
X-6187388Y159987D01*
X-6251023Y128073D01*
X-6294659Y112421D01*
X-6321798Y112255D01*
X-6335943Y126796D01*
X-6336025Y127000D01*
X-6343095Y144221D01*
X-6359958Y185101D01*
X-6385305Y246475D01*
X-6417829Y325181D01*
X-6456222Y418053D01*
X-6499178Y521928D01*
X-6540778Y622498D01*
X-6586496Y733484D01*
X-6628474Y836297D01*
X-6665452Y927785D01*
X-6696173Y1004799D01*
X-6719378Y1064185D01*
X-6733810Y1102791D01*
X-6738257Y1117200D01*
X-6727104Y1133728D01*
X-6697931Y1160070D01*
X-6659029Y1189113D01*
X-6548243Y1280961D01*
X-6461649Y1386241D01*
X-6400284Y1502734D01*
X-6365185Y1628224D01*
X-6357392Y1760493D01*
X-6363057Y1821543D01*
X-6393922Y1948205D01*
X-6447080Y2060059D01*
X-6519233Y2155999D01*
X-6607083Y2234924D01*
X-6707335Y2295730D01*
X-6816690Y2337313D01*
X-6931853Y2358572D01*
X-7049525Y2358401D01*
X-7166410Y2335699D01*
X-7279211Y2289362D01*
X-7384631Y2218287D01*
X-7428632Y2178089D01*
X-7513021Y2074871D01*
X-7571778Y1962075D01*
X-7605296Y1842990D01*
X-7613965Y1720905D01*
X-7598177Y1599107D01*
X-7558322Y1480884D01*
X-7494793Y1369525D01*
X-7407979Y1268316D01*
X-7310971Y1189113D01*
X-7270563Y1158838D01*
X-7242018Y1132781D01*
X-7231743Y1117175D01*
X-7237123Y1100157D01*
X-7252425Y1059500D01*
X-7276388Y998358D01*
X-7307756Y919881D01*
X-7345268Y827220D01*
X-7387667Y723528D01*
X-7429337Y622474D01*
X-7475310Y511393D01*
X-7517893Y408459D01*
X-7555779Y316835D01*
X-7587660Y239684D01*
X-7612229Y180169D01*
X-7628180Y141456D01*
X-7634090Y127000D01*
X-7648052Y112315D01*
X-7675060Y112358D01*
X-7718587Y127901D01*
X-7782110Y159716D01*
X-7782612Y159987D01*
X-7830440Y184677D01*
X-7869103Y202662D01*
X-7890905Y210386D01*
X-7891867Y210457D01*
X-7908279Y202622D01*
X-7944513Y180835D01*
X-7996526Y147672D01*
X-8060275Y105709D01*
X-8130940Y58057D01*
X-8202884Y9809D01*
X-8267726Y-32151D01*
X-8321265Y-65227D01*
X-8359303Y-86821D01*
X-8377467Y-94343D01*
X-8394192Y-84457D01*
X-8427820Y-56826D01*
X-8474990Y-14495D01*
X-8532342Y39495D01*
X-8596516Y102101D01*
X-8617503Y123017D01*
X-8834501Y340377D01*
X-8669332Y582780D01*
X-8619136Y657219D01*
X-8575081Y724028D01*
X-8539638Y779335D01*
X-8515281Y819271D01*
X-8504478Y839964D01*
X-8504162Y841437D01*
X-8509857Y860942D01*
X-8525174Y900178D01*
X-8547463Y952570D01*
X-8563107Y987645D01*
X-8592359Y1054799D01*
X-8619906Y1122642D01*
X-8641263Y1179966D01*
X-8647065Y1197428D01*
X-8663548Y1244062D01*
X-8679660Y1280095D01*
X-8688510Y1293713D01*
X-8708040Y1302048D01*
X-8750666Y1313863D01*
X-8810855Y1327819D01*
X-8883078Y1342578D01*
X-8915400Y1348645D01*
X-8997478Y1363727D01*
X-9076205Y1378331D01*
X-9143891Y1391020D01*
X-9192840Y1400358D01*
X-9202057Y1402161D01*
X-9278257Y1417201D01*
X-9278257Y1734508D01*
X-9278086Y1838846D01*
X-9277384Y1917787D01*
X-9275866Y1974962D01*
X-9273251Y2014001D01*
X-9269254Y2038535D01*
X-9263591Y2052195D01*
X-9255980Y2058611D01*
X-9252857Y2059801D01*
X-9234022Y2064020D01*
X-9192412Y2072438D01*
X-9133370Y2084039D01*
X-9062243Y2097805D01*
X-8984375Y2112720D01*
X-8905113Y2127768D01*
X-8829802Y2141931D01*
X-8763787Y2154194D01*
X-8712413Y2163539D01*
X-8681025Y2168950D01*
X-8674041Y2169886D01*
X-8667715Y2182404D01*
X-8653710Y2215754D01*
X-8634645Y2263623D01*
X-8627366Y2282371D01*
X-8598004Y2354805D01*
X-8563429Y2434830D01*
X-8532463Y2502272D01*
X-8509677Y2553841D01*
X-8494518Y2596215D01*
X-8489458Y2622166D01*
X-8490264Y2625644D01*
X-8500959Y2642064D01*
X-8525380Y2678583D01*
X-8560905Y2731313D01*
X-8604913Y2796365D01*
X-8654783Y2869849D01*
X-8664644Y2884355D01*
X-8722508Y2970296D01*
X-8765044Y3035739D01*
X-8793946Y3083696D01*
X-8810910Y3117180D01*
X-8817633Y3139205D01*
X-8815810Y3152783D01*
X-8815764Y3152869D01*
X-8801414Y3170703D01*
X-8769677Y3205183D01*
X-8723990Y3252732D01*
X-8667796Y3309778D01*
X-8604532Y3372745D01*
X-8597398Y3379773D01*
X-8517670Y3456980D01*
X-8456143Y3513670D01*
X-8411579Y3550890D01*
X-8382743Y3569685D01*
X-8370042Y3572111D01*
X-8351506Y3561529D01*
X-8313039Y3537084D01*
X-8258614Y3501388D01*
X-8192202Y3457053D01*
X-8117775Y3406689D01*
X-8100399Y3394840D01*
X-7853703Y3226374D01*
X-7742294Y3276938D01*
X-7674543Y3306405D01*
X-7601817Y3336041D01*
X-7539297Y3359670D01*
X-7536543Y3360642D01*
X-7487640Y3378543D01*
X-7449943Y3393680D01*
X-7431575Y3402790D01*
X-7431544Y3402816D01*
X-7425715Y3419283D01*
X-7415808Y3459781D01*
X-7402805Y3519758D01*
X-7387691Y3594660D01*
X-7371448Y3679936D01*
X-7370119Y3687125D01*
X-7353825Y3774986D01*
X-7338867Y3854740D01*
X-7326209Y3921319D01*
X-7316814Y3969653D01*
X-7311646Y3994675D01*
X-7311556Y3995057D01*
X-7308411Y4005701D01*
X-7302296Y4013738D01*
X-7289547Y4019533D01*
X-7266500Y4023453D01*
X-7229491Y4025865D01*
X-7174856Y4027135D01*
X-7098933Y4027629D01*
X-6998056Y4027714D01*
X-6985000Y4027714D01*
X-6881090Y4027652D01*
G36*
X-4116804Y-825384D02*
G01*
X-4103116Y-776695D01*
X-4080904Y-740849D01*
X-4048426Y-712513D01*
X-4034267Y-703355D01*
X-3969947Y-679507D01*
X-3899527Y-678006D01*
X-3831405Y-696966D01*
X-3773979Y-734497D01*
X-3746281Y-768096D01*
X-3724338Y-829064D01*
X-3722595Y-877308D01*
X-3726543Y-941816D01*
X-3875314Y-1006934D01*
X-3947651Y-1040202D01*
X-3994916Y-1066964D01*
X-4019493Y-1090144D01*
X-4023763Y-1112667D01*
X-4010111Y-1137455D01*
X-3995057Y-1153886D01*
X-3951254Y-1180235D01*
X-3903611Y-1182081D01*
X-3859855Y-1161546D01*
X-3827711Y-1120752D01*
X-3821962Y-1106347D01*
X-3794424Y-1061356D01*
X-3762742Y-1042182D01*
X-3719286Y-1025779D01*
X-3719286Y-1087966D01*
X-3723128Y-1130283D01*
X-3738177Y-1165969D01*
X-3769720Y-1206943D01*
X-3774408Y-1212267D01*
X-3809494Y-1248720D01*
X-3839653Y-1268283D01*
X-3877385Y-1277283D01*
X-3908665Y-1280230D01*
X-3964615Y-1280965D01*
X-4004445Y-1271660D01*
X-4029292Y-1257846D01*
X-4068344Y-1227467D01*
X-4095375Y-1194613D01*
X-4112483Y-1153294D01*
X-4121762Y-1097521D01*
X-4125307Y-1021305D01*
X-4125590Y-982622D01*
X-4124628Y-936247D01*
X-4036993Y-936247D01*
X-4035977Y-961126D01*
X-4033444Y-965200D01*
X-4016726Y-959665D01*
X-3980751Y-945017D01*
X-3932669Y-924190D01*
X-3922614Y-919714D01*
X-3861848Y-888814D01*
X-3828368Y-861657D01*
X-3821010Y-836220D01*
X-3838609Y-810481D01*
X-3853144Y-799109D01*
X-3905590Y-776364D01*
X-3954678Y-780122D01*
X-3995773Y-807884D01*
X-4024242Y-857152D01*
X-4033369Y-896257D01*
X-4036993Y-936247D01*
X-4124628Y-936247D01*
X-4123715Y-892249D01*
X-4116804Y-825384D01*
G37*
X-4116804Y-825384D02*
X-4103116Y-776695D01*
X-4080904Y-740849D01*
X-4048426Y-712513D01*
X-4034267Y-703355D01*
X-3969947Y-679507D01*
X-3899527Y-678006D01*
X-3831405Y-696966D01*
X-3773979Y-734497D01*
X-3746281Y-768096D01*
X-3724338Y-829064D01*
X-3722595Y-877308D01*
X-3726543Y-941816D01*
X-3875314Y-1006934D01*
X-3947651Y-1040202D01*
X-3994916Y-1066964D01*
X-4019493Y-1090144D01*
X-4023763Y-1112667D01*
X-4010111Y-1137455D01*
X-3995057Y-1153886D01*
X-3951254Y-1180235D01*
X-3903611Y-1182081D01*
X-3859855Y-1161546D01*
X-3827711Y-1120752D01*
X-3821962Y-1106347D01*
X-3794424Y-1061356D01*
X-3762742Y-1042182D01*
X-3719286Y-1025779D01*
X-3719286Y-1087966D01*
X-3723128Y-1130283D01*
X-3738177Y-1165969D01*
X-3769720Y-1206943D01*
X-3774408Y-1212267D01*
X-3809494Y-1248720D01*
X-3839653Y-1268283D01*
X-3877385Y-1277283D01*
X-3908665Y-1280230D01*
X-3964615Y-1280965D01*
X-4004445Y-1271660D01*
X-4029292Y-1257846D01*
X-4068344Y-1227467D01*
X-4095375Y-1194613D01*
X-4112483Y-1153294D01*
X-4121762Y-1097521D01*
X-4125307Y-1021305D01*
X-4125590Y-982622D01*
X-4124628Y-936247D01*
X-4036993Y-936247D01*
X-4035977Y-961126D01*
X-4033444Y-965200D01*
X-4016726Y-959665D01*
X-3980751Y-945017D01*
X-3932669Y-924190D01*
X-3922614Y-919714D01*
X-3861848Y-888814D01*
X-3828368Y-861657D01*
X-3821010Y-836220D01*
X-3838609Y-810481D01*
X-3853144Y-799109D01*
X-3905590Y-776364D01*
X-3954678Y-780122D01*
X-3995773Y-807884D01*
X-4024242Y-857152D01*
X-4033369Y-896257D01*
X-4036993Y-936247D01*
X-4124628Y-936247D01*
X-4123715Y-892249D01*
X-4116804Y-825384D01*
G36*
X-4840124Y-686335D02*
G01*
X-4798333Y-705344D01*
X-4765531Y-728378D01*
X-4741497Y-754133D01*
X-4724903Y-787358D01*
X-4714423Y-832800D01*
X-4708729Y-895207D01*
X-4706493Y-979327D01*
X-4706257Y-1034721D01*
X-4706257Y-1250826D01*
X-4743226Y-1267670D01*
X-4772344Y-1279981D01*
X-4786769Y-1284514D01*
X-4789528Y-1271025D01*
X-4791718Y-1234653D01*
X-4793058Y-1181542D01*
X-4793343Y-1139372D01*
X-4794566Y-1078447D01*
X-4797864Y-1030115D01*
X-4802679Y-1000518D01*
X-4806504Y-994229D01*
X-4832217Y-1000652D01*
X-4872582Y-1017125D01*
X-4919321Y-1039458D01*
X-4964155Y-1063457D01*
X-4998807Y-1084930D01*
X-5014998Y-1099685D01*
X-5015062Y-1099845D01*
X-5013670Y-1127152D01*
X-5001182Y-1153219D01*
X-4979257Y-1174392D01*
X-4947257Y-1181474D01*
X-4919908Y-1180649D01*
X-4881174Y-1180042D01*
X-4860842Y-1189116D01*
X-4848631Y-1213092D01*
X-4847091Y-1217613D01*
X-4841797Y-1251806D01*
X-4855953Y-1272568D01*
X-4892852Y-1282462D01*
X-4932711Y-1284292D01*
X-5004438Y-1270727D01*
X-5041568Y-1251355D01*
X-5087424Y-1205845D01*
X-5111744Y-1149983D01*
X-5113927Y-1090957D01*
X-5093371Y-1035953D01*
X-5062451Y-1001486D01*
X-5031580Y-982189D01*
X-4983058Y-957759D01*
X-4926515Y-932985D01*
X-4917090Y-929199D01*
X-4854981Y-901791D01*
X-4819178Y-877634D01*
X-4807663Y-853619D01*
X-4818420Y-826635D01*
X-4836886Y-805543D01*
X-4880531Y-779572D01*
X-4928554Y-777624D01*
X-4972594Y-797637D01*
X-5004291Y-837551D01*
X-5008451Y-847848D01*
X-5032673Y-885724D01*
X-5068035Y-913842D01*
X-5112657Y-936917D01*
X-5112657Y-871485D01*
X-5110031Y-831506D01*
X-5098770Y-799997D01*
X-5073801Y-766378D01*
X-5049831Y-740484D01*
X-5012559Y-703817D01*
X-4983599Y-684121D01*
X-4952495Y-676220D01*
X-4917287Y-674914D01*
X-4840124Y-686335D01*
G37*
X-4840124Y-686335D02*
X-4798333Y-705344D01*
X-4765531Y-728378D01*
X-4741497Y-754133D01*
X-4724903Y-787358D01*
X-4714423Y-832800D01*
X-4708729Y-895207D01*
X-4706493Y-979327D01*
X-4706257Y-1034721D01*
X-4706257Y-1250826D01*
X-4743226Y-1267670D01*
X-4772344Y-1279981D01*
X-4786769Y-1284514D01*
X-4789528Y-1271025D01*
X-4791718Y-1234653D01*
X-4793058Y-1181542D01*
X-4793343Y-1139372D01*
X-4794566Y-1078447D01*
X-4797864Y-1030115D01*
X-4802679Y-1000518D01*
X-4806504Y-994229D01*
X-4832217Y-1000652D01*
X-4872582Y-1017125D01*
X-4919321Y-1039458D01*
X-4964155Y-1063457D01*
X-4998807Y-1084930D01*
X-5014998Y-1099685D01*
X-5015062Y-1099845D01*
X-5013670Y-1127152D01*
X-5001182Y-1153219D01*
X-4979257Y-1174392D01*
X-4947257Y-1181474D01*
X-4919908Y-1180649D01*
X-4881174Y-1180042D01*
X-4860842Y-1189116D01*
X-4848631Y-1213092D01*
X-4847091Y-1217613D01*
X-4841797Y-1251806D01*
X-4855953Y-1272568D01*
X-4892852Y-1282462D01*
X-4932711Y-1284292D01*
X-5004438Y-1270727D01*
X-5041568Y-1251355D01*
X-5087424Y-1205845D01*
X-5111744Y-1149983D01*
X-5113927Y-1090957D01*
X-5093371Y-1035953D01*
X-5062451Y-1001486D01*
X-5031580Y-982189D01*
X-4983058Y-957759D01*
X-4926515Y-932985D01*
X-4917090Y-929199D01*
X-4854981Y-901791D01*
X-4819178Y-877634D01*
X-4807663Y-853619D01*
X-4818420Y-826635D01*
X-4836886Y-805543D01*
X-4880531Y-779572D01*
X-4928554Y-777624D01*
X-4972594Y-797637D01*
X-5004291Y-837551D01*
X-5008451Y-847848D01*
X-5032673Y-885724D01*
X-5068035Y-913842D01*
X-5112657Y-936917D01*
X-5112657Y-871485D01*
X-5110031Y-831506D01*
X-5098770Y-799997D01*
X-5073801Y-766378D01*
X-5049831Y-740484D01*
X-5012559Y-703817D01*
X-4983599Y-684121D01*
X-4952495Y-676220D01*
X-4917287Y-674914D01*
X-4840124Y-686335D01*
G36*
X-4332400Y-688752D02*
G01*
X-4315052Y-696334D01*
X-4273644Y-729128D01*
X-4238235Y-776547D01*
X-4216336Y-827151D01*
X-4212771Y-852098D01*
X-4224721Y-886927D01*
X-4250933Y-905357D01*
X-4279036Y-916516D01*
X-4291905Y-918572D01*
X-4298171Y-903649D01*
X-4310544Y-871175D01*
X-4315972Y-856502D01*
X-4346410Y-805744D01*
X-4390480Y-780427D01*
X-4446990Y-781206D01*
X-4451175Y-782203D01*
X-4481345Y-796507D01*
X-4503524Y-824393D01*
X-4518673Y-869287D01*
X-4527750Y-934615D01*
X-4531714Y-1023804D01*
X-4532086Y-1071261D01*
X-4532270Y-1146071D01*
X-4533478Y-1197069D01*
X-4536691Y-1229471D01*
X-4542891Y-1248495D01*
X-4553060Y-1259356D01*
X-4568181Y-1267272D01*
X-4569054Y-1267670D01*
X-4598172Y-1279981D01*
X-4612597Y-1284514D01*
X-4614814Y-1270809D01*
X-4616711Y-1232925D01*
X-4618153Y-1175715D01*
X-4619002Y-1104027D01*
X-4619171Y-1051565D01*
X-4618308Y-950047D01*
X-4614930Y-873032D01*
X-4607858Y-816023D01*
X-4595912Y-774526D01*
X-4577910Y-744043D01*
X-4552673Y-720080D01*
X-4527753Y-703355D01*
X-4467829Y-681097D01*
X-4398089Y-676076D01*
X-4332400Y-688752D01*
G37*
X-4332400Y-688752D02*
X-4315052Y-696334D01*
X-4273644Y-729128D01*
X-4238235Y-776547D01*
X-4216336Y-827151D01*
X-4212771Y-852098D01*
X-4224721Y-886927D01*
X-4250933Y-905357D01*
X-4279036Y-916516D01*
X-4291905Y-918572D01*
X-4298171Y-903649D01*
X-4310544Y-871175D01*
X-4315972Y-856502D01*
X-4346410Y-805744D01*
X-4390480Y-780427D01*
X-4446990Y-781206D01*
X-4451175Y-782203D01*
X-4481345Y-796507D01*
X-4503524Y-824393D01*
X-4518673Y-869287D01*
X-4527750Y-934615D01*
X-4531714Y-1023804D01*
X-4532086Y-1071261D01*
X-4532270Y-1146071D01*
X-4533478Y-1197069D01*
X-4536691Y-1229471D01*
X-4542891Y-1248495D01*
X-4553060Y-1259356D01*
X-4568181Y-1267272D01*
X-4569054Y-1267670D01*
X-4598172Y-1279981D01*
X-4612597Y-1284514D01*
X-4614814Y-1270809D01*
X-4616711Y-1232925D01*
X-4618153Y-1175715D01*
X-4619002Y-1104027D01*
X-4619171Y-1051565D01*
X-4618308Y-950047D01*
X-4614930Y-873032D01*
X-4607858Y-816023D01*
X-4595912Y-774526D01*
X-4577910Y-744043D01*
X-4552673Y-720080D01*
X-4527753Y-703355D01*
X-4467829Y-681097D01*
X-4398089Y-676076D01*
X-4332400Y-688752D01*
G36*
X-6200274Y-820086D02*
G01*
X-6177865Y-768600D01*
X-6142876Y-728443D01*
X-6115625Y-707861D01*
X-6066093Y-685625D01*
X-6008684Y-675304D01*
X-5955318Y-678067D01*
X-5925457Y-689212D01*
X-5913739Y-692383D01*
X-5905963Y-680557D01*
X-5900535Y-648866D01*
X-5896429Y-600593D01*
X-5891933Y-546829D01*
X-5885687Y-514482D01*
X-5874324Y-495985D01*
X-5854472Y-483770D01*
X-5842000Y-478362D01*
X-5794829Y-458601D01*
X-5794883Y-795358D01*
X-5795067Y-903837D01*
X-5795781Y-987287D01*
X-5797325Y-1049704D01*
X-5799999Y-1095085D01*
X-5804106Y-1127429D01*
X-5809945Y-1150733D01*
X-5817818Y-1168995D01*
X-5823779Y-1179418D01*
X-5873145Y-1235945D01*
X-5935736Y-1271377D01*
X-6004987Y-1284090D01*
X-6074332Y-1272463D01*
X-6115625Y-1251568D01*
X-6158975Y-1215422D01*
X-6188519Y-1171276D01*
X-6206345Y-1113462D01*
X-6214537Y-1036313D01*
X-6215698Y-979714D01*
X-6215542Y-975647D01*
X-6114143Y-975647D01*
X-6113524Y-1040550D01*
X-6110686Y-1083514D01*
X-6104160Y-1111622D01*
X-6092477Y-1131953D01*
X-6078517Y-1147288D01*
X-6031635Y-1176890D01*
X-5981299Y-1179419D01*
X-5933724Y-1154705D01*
X-5930021Y-1151356D01*
X-5914217Y-1133935D01*
X-5904307Y-1113209D01*
X-5898942Y-1082362D01*
X-5896772Y-1034577D01*
X-5896429Y-981748D01*
X-5897173Y-915381D01*
X-5900252Y-871106D01*
X-5906939Y-842009D01*
X-5918504Y-821173D01*
X-5927987Y-810107D01*
X-5972040Y-782198D01*
X-6022776Y-778843D01*
X-6071204Y-800159D01*
X-6080550Y-808073D01*
X-6096460Y-825647D01*
X-6106390Y-846587D01*
X-6111722Y-877782D01*
X-6113837Y-926122D01*
X-6114143Y-975647D01*
X-6215542Y-975647D01*
X-6212190Y-888568D01*
X-6200274Y-820086D01*
G37*
X-6200274Y-820086D02*
X-6177865Y-768600D01*
X-6142876Y-728443D01*
X-6115625Y-707861D01*
X-6066093Y-685625D01*
X-6008684Y-675304D01*
X-5955318Y-678067D01*
X-5925457Y-689212D01*
X-5913739Y-692383D01*
X-5905963Y-680557D01*
X-5900535Y-648866D01*
X-5896429Y-600593D01*
X-5891933Y-546829D01*
X-5885687Y-514482D01*
X-5874324Y-495985D01*
X-5854472Y-483770D01*
X-5842000Y-478362D01*
X-5794829Y-458601D01*
X-5794883Y-795358D01*
X-5795067Y-903837D01*
X-5795781Y-987287D01*
X-5797325Y-1049704D01*
X-5799999Y-1095085D01*
X-5804106Y-1127429D01*
X-5809945Y-1150733D01*
X-5817818Y-1168995D01*
X-5823779Y-1179418D01*
X-5873145Y-1235945D01*
X-5935736Y-1271377D01*
X-6004987Y-1284090D01*
X-6074332Y-1272463D01*
X-6115625Y-1251568D01*
X-6158975Y-1215422D01*
X-6188519Y-1171276D01*
X-6206345Y-1113462D01*
X-6214537Y-1036313D01*
X-6215698Y-979714D01*
X-6215542Y-975647D01*
X-6114143Y-975647D01*
X-6113524Y-1040550D01*
X-6110686Y-1083514D01*
X-6104160Y-1111622D01*
X-6092477Y-1131953D01*
X-6078517Y-1147288D01*
X-6031635Y-1176890D01*
X-5981299Y-1179419D01*
X-5933724Y-1154705D01*
X-5930021Y-1151356D01*
X-5914217Y-1133935D01*
X-5904307Y-1113209D01*
X-5898942Y-1082362D01*
X-5896772Y-1034577D01*
X-5896429Y-981748D01*
X-5897173Y-915381D01*
X-5900252Y-871106D01*
X-5906939Y-842009D01*
X-5918504Y-821173D01*
X-5927987Y-810107D01*
X-5972040Y-782198D01*
X-6022776Y-778843D01*
X-6071204Y-800159D01*
X-6080550Y-808073D01*
X-6096460Y-825647D01*
X-6106390Y-846587D01*
X-6111722Y-877782D01*
X-6113837Y-926122D01*
X-6114143Y-975647D01*
X-6215542Y-975647D01*
X-6212190Y-888568D01*
X-6200274Y-820086D01*
G36*
X-6455074Y-679755D02*
G01*
X-6389142Y-704084D01*
X-6335727Y-747117D01*
X-6314836Y-777409D01*
X-6292061Y-832994D01*
X-6292534Y-873186D01*
X-6316438Y-900217D01*
X-6325283Y-904813D01*
X-6363470Y-919144D01*
X-6382972Y-915472D01*
X-6389578Y-891407D01*
X-6389914Y-878114D01*
X-6402008Y-829210D01*
X-6433529Y-794999D01*
X-6477341Y-778476D01*
X-6526305Y-782634D01*
X-6566106Y-804227D01*
X-6579550Y-816544D01*
X-6589079Y-831487D01*
X-6595515Y-854075D01*
X-6599683Y-889328D01*
X-6602403Y-942266D01*
X-6604498Y-1017907D01*
X-6605040Y-1041857D01*
X-6607019Y-1123790D01*
X-6609269Y-1181455D01*
X-6612643Y-1219608D01*
X-6617994Y-1243004D01*
X-6626176Y-1256398D01*
X-6638041Y-1264545D01*
X-6645638Y-1268144D01*
X-6677898Y-1280452D01*
X-6696889Y-1284514D01*
X-6703164Y-1270948D01*
X-6706994Y-1229934D01*
X-6708400Y-1160999D01*
X-6707402Y-1063669D01*
X-6707092Y-1048657D01*
X-6704899Y-959859D01*
X-6702307Y-895019D01*
X-6698618Y-849067D01*
X-6693136Y-816935D01*
X-6685165Y-793553D01*
X-6674007Y-773852D01*
X-6668170Y-765410D01*
X-6634704Y-728057D01*
X-6597273Y-699003D01*
X-6592691Y-696467D01*
X-6525574Y-676443D01*
X-6455074Y-679755D01*
G37*
X-6455074Y-679755D02*
X-6389142Y-704084D01*
X-6335727Y-747117D01*
X-6314836Y-777409D01*
X-6292061Y-832994D01*
X-6292534Y-873186D01*
X-6316438Y-900217D01*
X-6325283Y-904813D01*
X-6363470Y-919144D01*
X-6382972Y-915472D01*
X-6389578Y-891407D01*
X-6389914Y-878114D01*
X-6402008Y-829210D01*
X-6433529Y-794999D01*
X-6477341Y-778476D01*
X-6526305Y-782634D01*
X-6566106Y-804227D01*
X-6579550Y-816544D01*
X-6589079Y-831487D01*
X-6595515Y-854075D01*
X-6599683Y-889328D01*
X-6602403Y-942266D01*
X-6604498Y-1017907D01*
X-6605040Y-1041857D01*
X-6607019Y-1123790D01*
X-6609269Y-1181455D01*
X-6612643Y-1219608D01*
X-6617994Y-1243004D01*
X-6626176Y-1256398D01*
X-6638041Y-1264545D01*
X-6645638Y-1268144D01*
X-6677898Y-1280452D01*
X-6696889Y-1284514D01*
X-6703164Y-1270948D01*
X-6706994Y-1229934D01*
X-6708400Y-1160999D01*
X-6707402Y-1063669D01*
X-6707092Y-1048657D01*
X-6704899Y-959859D01*
X-6702307Y-895019D01*
X-6698618Y-849067D01*
X-6693136Y-816935D01*
X-6685165Y-793553D01*
X-6674007Y-773852D01*
X-6668170Y-765410D01*
X-6634704Y-728057D01*
X-6597273Y-699003D01*
X-6592691Y-696467D01*
X-6525574Y-676443D01*
X-6455074Y-679755D01*
G36*
X-6945256Y-680968D02*
G01*
X-6888384Y-702087D01*
X-6887733Y-702493D01*
X-6852560Y-728380D01*
X-6826593Y-758633D01*
X-6808330Y-798058D01*
X-6796268Y-851462D01*
X-6788904Y-923651D01*
X-6784736Y-1019432D01*
X-6784371Y-1033078D01*
X-6779124Y-1238842D01*
X-6823284Y-1261678D01*
X-6855237Y-1277110D01*
X-6874530Y-1284423D01*
X-6875422Y-1284514D01*
X-6878761Y-1271022D01*
X-6881413Y-1234626D01*
X-6883044Y-1181452D01*
X-6883400Y-1138393D01*
X-6883408Y-1068641D01*
X-6886597Y-1024837D01*
X-6897712Y-1003944D01*
X-6921499Y-1002925D01*
X-6962704Y-1018741D01*
X-7024914Y-1047815D01*
X-7070659Y-1071963D01*
X-7094187Y-1092913D01*
X-7101104Y-1115747D01*
X-7101114Y-1116877D01*
X-7089701Y-1156212D01*
X-7055908Y-1177462D01*
X-7004191Y-1180539D01*
X-6966939Y-1180006D01*
X-6947297Y-1190735D01*
X-6935048Y-1216505D01*
X-6927998Y-1249337D01*
X-6938158Y-1267966D01*
X-6941983Y-1270632D01*
X-6977999Y-1281340D01*
X-7028434Y-1282856D01*
X-7080374Y-1275759D01*
X-7117178Y-1262788D01*
X-7168062Y-1219585D01*
X-7196986Y-1159446D01*
X-7202714Y-1112462D01*
X-7198343Y-1070082D01*
X-7182525Y-1035488D01*
X-7151203Y-1004763D01*
X-7100322Y-973990D01*
X-7025824Y-939252D01*
X-7021286Y-937288D01*
X-6954179Y-906287D01*
X-6912768Y-880862D01*
X-6895019Y-858014D01*
X-6898893Y-834745D01*
X-6922357Y-808056D01*
X-6929373Y-801914D01*
X-6976370Y-778100D01*
X-7025067Y-779103D01*
X-7067478Y-802451D01*
X-7095616Y-845675D01*
X-7098231Y-854160D01*
X-7123692Y-895308D01*
X-7155999Y-915128D01*
X-7202714Y-934770D01*
X-7202714Y-883950D01*
X-7188504Y-810082D01*
X-7146325Y-742327D01*
X-7124376Y-719661D01*
X-7074483Y-690569D01*
X-7011033Y-677400D01*
X-6945256Y-680968D01*
G37*
X-6945256Y-680968D02*
X-6888384Y-702087D01*
X-6887733Y-702493D01*
X-6852560Y-728380D01*
X-6826593Y-758633D01*
X-6808330Y-798058D01*
X-6796268Y-851462D01*
X-6788904Y-923651D01*
X-6784736Y-1019432D01*
X-6784371Y-1033078D01*
X-6779124Y-1238842D01*
X-6823284Y-1261678D01*
X-6855237Y-1277110D01*
X-6874530Y-1284423D01*
X-6875422Y-1284514D01*
X-6878761Y-1271022D01*
X-6881413Y-1234626D01*
X-6883044Y-1181452D01*
X-6883400Y-1138393D01*
X-6883408Y-1068641D01*
X-6886597Y-1024837D01*
X-6897712Y-1003944D01*
X-6921499Y-1002925D01*
X-6962704Y-1018741D01*
X-7024914Y-1047815D01*
X-7070659Y-1071963D01*
X-7094187Y-1092913D01*
X-7101104Y-1115747D01*
X-7101114Y-1116877D01*
X-7089701Y-1156212D01*
X-7055908Y-1177462D01*
X-7004191Y-1180539D01*
X-6966939Y-1180006D01*
X-6947297Y-1190735D01*
X-6935048Y-1216505D01*
X-6927998Y-1249337D01*
X-6938158Y-1267966D01*
X-6941983Y-1270632D01*
X-6977999Y-1281340D01*
X-7028434Y-1282856D01*
X-7080374Y-1275759D01*
X-7117178Y-1262788D01*
X-7168062Y-1219585D01*
X-7196986Y-1159446D01*
X-7202714Y-1112462D01*
X-7198343Y-1070082D01*
X-7182525Y-1035488D01*
X-7151203Y-1004763D01*
X-7100322Y-973990D01*
X-7025824Y-939252D01*
X-7021286Y-937288D01*
X-6954179Y-906287D01*
X-6912768Y-880862D01*
X-6895019Y-858014D01*
X-6898893Y-834745D01*
X-6922357Y-808056D01*
X-6929373Y-801914D01*
X-6976370Y-778100D01*
X-7025067Y-779103D01*
X-7067478Y-802451D01*
X-7095616Y-845675D01*
X-7098231Y-854160D01*
X-7123692Y-895308D01*
X-7155999Y-915128D01*
X-7202714Y-934770D01*
X-7202714Y-883950D01*
X-7188504Y-810082D01*
X-7146325Y-742327D01*
X-7124376Y-719661D01*
X-7074483Y-690569D01*
X-7011033Y-677400D01*
X-6945256Y-680968D01*
G36*
X-10247904Y-838159D02*
G01*
X-10242932Y-801949D01*
X-10234287Y-775299D01*
X-10220995Y-751722D01*
X-10218057Y-747338D01*
X-10168687Y-688249D01*
X-10114891Y-653947D01*
X-10049398Y-640331D01*
X-10027158Y-639665D01*
X-9943885Y-651962D01*
X-9875855Y-687733D01*
X-9825649Y-745301D01*
X-9807815Y-782312D01*
X-9793937Y-837882D01*
X-9786833Y-908096D01*
X-9786160Y-984727D01*
X-9791573Y-1059552D01*
X-9802730Y-1124342D01*
X-9819286Y-1170873D01*
X-9824374Y-1178887D01*
X-9884645Y-1238707D01*
X-9956231Y-1274535D01*
X-10033908Y-1285020D01*
X-10112452Y-1268810D01*
X-10134311Y-1259092D01*
X-10176878Y-1229143D01*
X-10214237Y-1189433D01*
X-10217768Y-1184397D01*
X-10232119Y-1160124D01*
X-10241606Y-1134178D01*
X-10247210Y-1100022D01*
X-10249914Y-1051119D01*
X-10250701Y-980935D01*
X-10250714Y-965200D01*
X-10250678Y-960192D01*
X-10105571Y-960192D01*
X-10104727Y-1026430D01*
X-10101404Y-1070386D01*
X-10094417Y-1098779D01*
X-10082584Y-1118325D01*
X-10076543Y-1124857D01*
X-10041814Y-1149680D01*
X-10008097Y-1148548D01*
X-9974005Y-1127016D01*
X-9953671Y-1104029D01*
X-9941629Y-1070478D01*
X-9934866Y-1017569D01*
X-9934402Y-1011399D01*
X-9933248Y-915513D01*
X-9945312Y-844299D01*
X-9970430Y-798194D01*
X-10008440Y-777635D01*
X-10022008Y-776514D01*
X-10057636Y-782152D01*
X-10082006Y-801686D01*
X-10096907Y-839042D01*
X-10104125Y-898150D01*
X-10105571Y-960192D01*
X-10250678Y-960192D01*
X-10250174Y-890413D01*
X-10247904Y-838159D01*
G37*
X-10247904Y-838159D02*
X-10242932Y-801949D01*
X-10234287Y-775299D01*
X-10220995Y-751722D01*
X-10218057Y-747338D01*
X-10168687Y-688249D01*
X-10114891Y-653947D01*
X-10049398Y-640331D01*
X-10027158Y-639665D01*
X-9943885Y-651962D01*
X-9875855Y-687733D01*
X-9825649Y-745301D01*
X-9807815Y-782312D01*
X-9793937Y-837882D01*
X-9786833Y-908096D01*
X-9786160Y-984727D01*
X-9791573Y-1059552D01*
X-9802730Y-1124342D01*
X-9819286Y-1170873D01*
X-9824374Y-1178887D01*
X-9884645Y-1238707D01*
X-9956231Y-1274535D01*
X-10033908Y-1285020D01*
X-10112452Y-1268810D01*
X-10134311Y-1259092D01*
X-10176878Y-1229143D01*
X-10214237Y-1189433D01*
X-10217768Y-1184397D01*
X-10232119Y-1160124D01*
X-10241606Y-1134178D01*
X-10247210Y-1100022D01*
X-10249914Y-1051119D01*
X-10250701Y-980935D01*
X-10250714Y-965200D01*
X-10250678Y-960192D01*
X-10105571Y-960192D01*
X-10104727Y-1026430D01*
X-10101404Y-1070386D01*
X-10094417Y-1098779D01*
X-10082584Y-1118325D01*
X-10076543Y-1124857D01*
X-10041814Y-1149680D01*
X-10008097Y-1148548D01*
X-9974005Y-1127016D01*
X-9953671Y-1104029D01*
X-9941629Y-1070478D01*
X-9934866Y-1017569D01*
X-9934402Y-1011399D01*
X-9933248Y-915513D01*
X-9945312Y-844299D01*
X-9970430Y-798194D01*
X-10008440Y-777635D01*
X-10022008Y-776514D01*
X-10057636Y-782152D01*
X-10082006Y-801686D01*
X-10096907Y-839042D01*
X-10104125Y-898150D01*
X-10105571Y-960192D01*
X-10250678Y-960192D01*
X-10250174Y-890413D01*
X-10247904Y-838159D01*
G36*
X-7609114Y-581289D02*
G01*
X-7604861Y-640613D01*
X-7599975Y-675572D01*
X-7593205Y-690820D01*
X-7583298Y-691015D01*
X-7580086Y-689195D01*
X-7537356Y-676015D01*
X-7481773Y-676785D01*
X-7425263Y-690333D01*
X-7389918Y-707861D01*
X-7353679Y-735861D01*
X-7327187Y-767549D01*
X-7309001Y-807813D01*
X-7297678Y-861543D01*
X-7291778Y-933626D01*
X-7289857Y-1028951D01*
X-7289823Y-1047237D01*
X-7289800Y-1252646D01*
X-7335509Y-1268580D01*
X-7367973Y-1279420D01*
X-7385785Y-1284468D01*
X-7386309Y-1284514D01*
X-7388063Y-1270828D01*
X-7389556Y-1233076D01*
X-7390674Y-1176224D01*
X-7391303Y-1105234D01*
X-7391400Y-1062073D01*
X-7391602Y-976973D01*
X-7392642Y-915981D01*
X-7395169Y-874177D01*
X-7399836Y-846642D01*
X-7407293Y-828456D01*
X-7418189Y-814698D01*
X-7424993Y-808073D01*
X-7471728Y-781375D01*
X-7522728Y-779375D01*
X-7568999Y-801955D01*
X-7577556Y-810107D01*
X-7590107Y-825436D01*
X-7598812Y-843618D01*
X-7604369Y-869909D01*
X-7607474Y-909562D01*
X-7608824Y-967832D01*
X-7609114Y-1048173D01*
X-7609114Y-1252646D01*
X-7654823Y-1268580D01*
X-7687287Y-1279420D01*
X-7705099Y-1284468D01*
X-7705623Y-1284514D01*
X-7706963Y-1270623D01*
X-7708172Y-1231439D01*
X-7709199Y-1170700D01*
X-7709998Y-1092141D01*
X-7710519Y-999498D01*
X-7710714Y-896509D01*
X-7710714Y-499342D01*
X-7663543Y-479444D01*
X-7616371Y-459547D01*
X-7609114Y-581289D01*
G37*
X-7609114Y-581289D02*
X-7604861Y-640613D01*
X-7599975Y-675572D01*
X-7593205Y-690820D01*
X-7583298Y-691015D01*
X-7580086Y-689195D01*
X-7537356Y-676015D01*
X-7481773Y-676785D01*
X-7425263Y-690333D01*
X-7389918Y-707861D01*
X-7353679Y-735861D01*
X-7327187Y-767549D01*
X-7309001Y-807813D01*
X-7297678Y-861543D01*
X-7291778Y-933626D01*
X-7289857Y-1028951D01*
X-7289823Y-1047237D01*
X-7289800Y-1252646D01*
X-7335509Y-1268580D01*
X-7367973Y-1279420D01*
X-7385785Y-1284468D01*
X-7386309Y-1284514D01*
X-7388063Y-1270828D01*
X-7389556Y-1233076D01*
X-7390674Y-1176224D01*
X-7391303Y-1105234D01*
X-7391400Y-1062073D01*
X-7391602Y-976973D01*
X-7392642Y-915981D01*
X-7395169Y-874177D01*
X-7399836Y-846642D01*
X-7407293Y-828456D01*
X-7418189Y-814698D01*
X-7424993Y-808073D01*
X-7471728Y-781375D01*
X-7522728Y-779375D01*
X-7568999Y-801955D01*
X-7577556Y-810107D01*
X-7590107Y-825436D01*
X-7598812Y-843618D01*
X-7604369Y-869909D01*
X-7607474Y-909562D01*
X-7608824Y-967832D01*
X-7609114Y-1048173D01*
X-7609114Y-1252646D01*
X-7654823Y-1268580D01*
X-7687287Y-1279420D01*
X-7705099Y-1284468D01*
X-7705623Y-1284514D01*
X-7706963Y-1270623D01*
X-7708172Y-1231439D01*
X-7709199Y-1170700D01*
X-7709998Y-1092141D01*
X-7710519Y-999498D01*
X-7710714Y-896509D01*
X-7710714Y-499342D01*
X-7663543Y-479444D01*
X-7616371Y-459547D01*
X-7609114Y-581289D01*
G36*
X-9113450Y-766212D02*
G01*
X-9079544Y-717302D01*
X-9018347Y-667878D01*
X-8950937Y-643359D01*
X-8882120Y-641797D01*
X-8816697Y-661239D01*
X-8759473Y-699735D01*
X-8715251Y-755335D01*
X-8688833Y-826086D01*
X-8683490Y-878162D01*
X-8684097Y-899893D01*
X-8689178Y-916531D01*
X-8703145Y-931437D01*
X-8730411Y-947973D01*
X-8775388Y-969498D01*
X-8842489Y-999374D01*
X-8842829Y-999524D01*
X-8904593Y-1027813D01*
X-8955241Y-1052933D01*
X-8989596Y-1072179D01*
X-9002482Y-1082848D01*
X-9002486Y-1082934D01*
X-8991128Y-1106166D01*
X-8964569Y-1131774D01*
X-8934077Y-1150221D01*
X-8918630Y-1153886D01*
X-8876485Y-1141212D01*
X-8840192Y-1109471D01*
X-8822483Y-1074572D01*
X-8805448Y-1048845D01*
X-8772078Y-1019546D01*
X-8732851Y-994235D01*
X-8698244Y-980471D01*
X-8691007Y-979714D01*
X-8682861Y-992160D01*
X-8682370Y-1023972D01*
X-8688357Y-1066866D01*
X-8699643Y-1112558D01*
X-8715050Y-1152761D01*
X-8715829Y-1154322D01*
X-8762196Y-1219062D01*
X-8822289Y-1263097D01*
X-8890535Y-1284711D01*
X-8961362Y-1282185D01*
X-9029196Y-1253804D01*
X-9032212Y-1251808D01*
X-9085573Y-1203448D01*
X-9120660Y-1140352D01*
X-9140078Y-1057387D01*
X-9142684Y-1034078D01*
X-9147299Y-924055D01*
X-9141767Y-872748D01*
X-9002486Y-872748D01*
X-9000676Y-904753D01*
X-8990778Y-914093D01*
X-8966102Y-907105D01*
X-8927205Y-890587D01*
X-8883725Y-869881D01*
X-8882644Y-869333D01*
X-8845791Y-849949D01*
X-8831000Y-837013D01*
X-8834647Y-823451D01*
X-8850005Y-805632D01*
X-8889077Y-779845D01*
X-8931154Y-777950D01*
X-8968897Y-796717D01*
X-8994966Y-832915D01*
X-9002486Y-872748D01*
X-9141767Y-872748D01*
X-9137806Y-836027D01*
X-9113450Y-766212D01*
G37*
X-9113450Y-766212D02*
X-9079544Y-717302D01*
X-9018347Y-667878D01*
X-8950937Y-643359D01*
X-8882120Y-641797D01*
X-8816697Y-661239D01*
X-8759473Y-699735D01*
X-8715251Y-755335D01*
X-8688833Y-826086D01*
X-8683490Y-878162D01*
X-8684097Y-899893D01*
X-8689178Y-916531D01*
X-8703145Y-931437D01*
X-8730411Y-947973D01*
X-8775388Y-969498D01*
X-8842489Y-999374D01*
X-8842829Y-999524D01*
X-8904593Y-1027813D01*
X-8955241Y-1052933D01*
X-8989596Y-1072179D01*
X-9002482Y-1082848D01*
X-9002486Y-1082934D01*
X-8991128Y-1106166D01*
X-8964569Y-1131774D01*
X-8934077Y-1150221D01*
X-8918630Y-1153886D01*
X-8876485Y-1141212D01*
X-8840192Y-1109471D01*
X-8822483Y-1074572D01*
X-8805448Y-1048845D01*
X-8772078Y-1019546D01*
X-8732851Y-994235D01*
X-8698244Y-980471D01*
X-8691007Y-979714D01*
X-8682861Y-992160D01*
X-8682370Y-1023972D01*
X-8688357Y-1066866D01*
X-8699643Y-1112558D01*
X-8715050Y-1152761D01*
X-8715829Y-1154322D01*
X-8762196Y-1219062D01*
X-8822289Y-1263097D01*
X-8890535Y-1284711D01*
X-8961362Y-1282185D01*
X-9029196Y-1253804D01*
X-9032212Y-1251808D01*
X-9085573Y-1203448D01*
X-9120660Y-1140352D01*
X-9140078Y-1057387D01*
X-9142684Y-1034078D01*
X-9147299Y-924055D01*
X-9141767Y-872748D01*
X-9002486Y-872748D01*
X-9000676Y-904753D01*
X-8990778Y-914093D01*
X-8966102Y-907105D01*
X-8927205Y-890587D01*
X-8883725Y-869881D01*
X-8882644Y-869333D01*
X-8845791Y-849949D01*
X-8831000Y-837013D01*
X-8834647Y-823451D01*
X-8850005Y-805632D01*
X-8889077Y-779845D01*
X-8931154Y-777950D01*
X-8968897Y-796717D01*
X-8994966Y-832915D01*
X-9002486Y-872748D01*
X-9141767Y-872748D01*
X-9137806Y-836027D01*
X-9113450Y-766212D01*
G36*
X-8268907Y-657780D02*
G01*
X-8222328Y-684723D01*
X-8189943Y-711466D01*
X-8166258Y-739484D01*
X-8149941Y-773748D01*
X-8139661Y-819227D01*
X-8134086Y-880892D01*
X-8131884Y-963711D01*
X-8131629Y-1023246D01*
X-8131629Y-1242391D01*
X-8193314Y-1270044D01*
X-8255000Y-1297697D01*
X-8262257Y-1057670D01*
X-8265256Y-968028D01*
X-8268402Y-902962D01*
X-8272299Y-858026D01*
X-8277553Y-828770D01*
X-8284769Y-810748D01*
X-8294550Y-799511D01*
X-8297688Y-797079D01*
X-8345239Y-778083D01*
X-8393303Y-785600D01*
X-8421914Y-805543D01*
X-8433553Y-819675D01*
X-8441609Y-838220D01*
X-8446729Y-866334D01*
X-8449559Y-909173D01*
X-8450744Y-971895D01*
X-8450943Y-1037261D01*
X-8450982Y-1119268D01*
X-8452386Y-1177316D01*
X-8457086Y-1216465D01*
X-8467013Y-1241780D01*
X-8484097Y-1258323D01*
X-8510268Y-1271156D01*
X-8545225Y-1284491D01*
X-8583404Y-1299007D01*
X-8578859Y-1041389D01*
X-8577029Y-948519D01*
X-8574888Y-879889D01*
X-8571819Y-830711D01*
X-8567206Y-796198D01*
X-8560432Y-771562D01*
X-8550881Y-752016D01*
X-8539366Y-734770D01*
X-8483810Y-679680D01*
X-8416020Y-647822D01*
X-8342287Y-640191D01*
X-8268907Y-657780D01*
G37*
X-8268907Y-657780D02*
X-8222328Y-684723D01*
X-8189943Y-711466D01*
X-8166258Y-739484D01*
X-8149941Y-773748D01*
X-8139661Y-819227D01*
X-8134086Y-880892D01*
X-8131884Y-963711D01*
X-8131629Y-1023246D01*
X-8131629Y-1242391D01*
X-8193314Y-1270044D01*
X-8255000Y-1297697D01*
X-8262257Y-1057670D01*
X-8265256Y-968028D01*
X-8268402Y-902962D01*
X-8272299Y-858026D01*
X-8277553Y-828770D01*
X-8284769Y-810748D01*
X-8294550Y-799511D01*
X-8297688Y-797079D01*
X-8345239Y-778083D01*
X-8393303Y-785600D01*
X-8421914Y-805543D01*
X-8433553Y-819675D01*
X-8441609Y-838220D01*
X-8446729Y-866334D01*
X-8449559Y-909173D01*
X-8450744Y-971895D01*
X-8450943Y-1037261D01*
X-8450982Y-1119268D01*
X-8452386Y-1177316D01*
X-8457086Y-1216465D01*
X-8467013Y-1241780D01*
X-8484097Y-1258323D01*
X-8510268Y-1271156D01*
X-8545225Y-1284491D01*
X-8583404Y-1299007D01*
X-8578859Y-1041389D01*
X-8577029Y-948519D01*
X-8574888Y-879889D01*
X-8571819Y-830711D01*
X-8567206Y-796198D01*
X-8560432Y-771562D01*
X-8550881Y-752016D01*
X-8539366Y-734770D01*
X-8483810Y-679680D01*
X-8416020Y-647822D01*
X-8342287Y-640191D01*
X-8268907Y-657780D01*
G36*
X-9691323Y-880333D02*
G01*
X-9688550Y-832958D01*
X-9684612Y-799290D01*
X-9679151Y-775498D01*
X-9671808Y-757753D01*
X-9662223Y-742224D01*
X-9658113Y-736381D01*
X-9603595Y-681185D01*
X-9534664Y-649890D01*
X-9454928Y-641165D01*
X-9385256Y-649918D01*
X-9329799Y-677568D01*
X-9280852Y-728480D01*
X-9267371Y-747338D01*
X-9252686Y-772015D01*
X-9243158Y-798816D01*
X-9237707Y-834587D01*
X-9235253Y-886169D01*
X-9234714Y-954267D01*
X-9237148Y-1047588D01*
X-9245606Y-1117657D01*
X-9261826Y-1169931D01*
X-9287546Y-1209869D01*
X-9324503Y-1242929D01*
X-9327218Y-1244886D01*
X-9363640Y-1264908D01*
X-9407498Y-1274815D01*
X-9463276Y-1277257D01*
X-9553952Y-1277257D01*
X-9553990Y-1365283D01*
X-9554834Y-1414308D01*
X-9559976Y-1443065D01*
X-9573413Y-1460311D01*
X-9599142Y-1474808D01*
X-9605321Y-1477769D01*
X-9634236Y-1491648D01*
X-9656624Y-1500414D01*
X-9673271Y-1501171D01*
X-9684964Y-1491023D01*
X-9692490Y-1467073D01*
X-9696634Y-1426426D01*
X-9698185Y-1366186D01*
X-9697929Y-1283455D01*
X-9696651Y-1175339D01*
X-9696252Y-1143000D01*
X-9694815Y-1031524D01*
X-9693528Y-958603D01*
X-9554029Y-958603D01*
X-9553245Y-1020499D01*
X-9549760Y-1060997D01*
X-9541876Y-1087708D01*
X-9527895Y-1108244D01*
X-9518403Y-1118260D01*
X-9479596Y-1147567D01*
X-9445237Y-1149952D01*
X-9409784Y-1125750D01*
X-9408886Y-1124857D01*
X-9394461Y-1106153D01*
X-9385687Y-1080732D01*
X-9381261Y-1041584D01*
X-9379882Y-981697D01*
X-9379857Y-968430D01*
X-9383188Y-885901D01*
X-9394031Y-828691D01*
X-9413660Y-793766D01*
X-9443350Y-778094D01*
X-9460509Y-776514D01*
X-9501234Y-783926D01*
X-9529168Y-808330D01*
X-9545983Y-852980D01*
X-9553350Y-921130D01*
X-9554029Y-958603D01*
X-9693528Y-958603D01*
X-9693292Y-945245D01*
X-9691323Y-880333D01*
G37*
X-9691323Y-880333D02*
X-9688550Y-832958D01*
X-9684612Y-799290D01*
X-9679151Y-775498D01*
X-9671808Y-757753D01*
X-9662223Y-742224D01*
X-9658113Y-736381D01*
X-9603595Y-681185D01*
X-9534664Y-649890D01*
X-9454928Y-641165D01*
X-9385256Y-649918D01*
X-9329799Y-677568D01*
X-9280852Y-728480D01*
X-9267371Y-747338D01*
X-9252686Y-772015D01*
X-9243158Y-798816D01*
X-9237707Y-834587D01*
X-9235253Y-886169D01*
X-9234714Y-954267D01*
X-9237148Y-1047588D01*
X-9245606Y-1117657D01*
X-9261826Y-1169931D01*
X-9287546Y-1209869D01*
X-9324503Y-1242929D01*
X-9327218Y-1244886D01*
X-9363640Y-1264908D01*
X-9407498Y-1274815D01*
X-9463276Y-1277257D01*
X-9553952Y-1277257D01*
X-9553990Y-1365283D01*
X-9554834Y-1414308D01*
X-9559976Y-1443065D01*
X-9573413Y-1460311D01*
X-9599142Y-1474808D01*
X-9605321Y-1477769D01*
X-9634236Y-1491648D01*
X-9656624Y-1500414D01*
X-9673271Y-1501171D01*
X-9684964Y-1491023D01*
X-9692490Y-1467073D01*
X-9696634Y-1426426D01*
X-9698185Y-1366186D01*
X-9697929Y-1283455D01*
X-9696651Y-1175339D01*
X-9696252Y-1143000D01*
X-9694815Y-1031524D01*
X-9693528Y-958603D01*
X-9554029Y-958603D01*
X-9553245Y-1020499D01*
X-9549760Y-1060997D01*
X-9541876Y-1087708D01*
X-9527895Y-1108244D01*
X-9518403Y-1118260D01*
X-9479596Y-1147567D01*
X-9445237Y-1149952D01*
X-9409784Y-1125750D01*
X-9408886Y-1124857D01*
X-9394461Y-1106153D01*
X-9385687Y-1080732D01*
X-9381261Y-1041584D01*
X-9379882Y-981697D01*
X-9379857Y-968430D01*
X-9383188Y-885901D01*
X-9394031Y-828691D01*
X-9413660Y-793766D01*
X-9443350Y-778094D01*
X-9460509Y-776514D01*
X-9501234Y-783926D01*
X-9529168Y-808330D01*
X-9545983Y-852980D01*
X-9553350Y-921130D01*
X-9554029Y-958603D01*
X-9693528Y-958603D01*
X-9693292Y-945245D01*
X-9691323Y-880333D01*
%TD*%
D12*
%TO.C,U1*%
X0Y0D03*
D13*
X0Y-2540000D03*
X0Y-5080000D03*
X0Y-7620000D03*
X0Y-10160000D03*
X0Y-12700000D03*
X0Y-15240000D03*
X0Y-17780000D03*
X0Y-20320000D03*
X0Y-22860000D03*
X0Y-25400000D03*
X0Y-27940000D03*
X15240000Y-27940000D03*
X15240000Y-25400000D03*
X15240000Y-22860000D03*
X15240000Y-20320000D03*
X15240000Y-17780000D03*
X15240000Y-15240000D03*
X15240000Y-12700000D03*
X15240000Y-10160000D03*
X15240000Y-7620000D03*
X15240000Y-5080000D03*
X15240000Y-2540000D03*
X15240000Y0D03*
%TD*%
D14*
%TO.C,J1*%
X-10160000Y-8890000D03*
D15*
X-7620000Y-8890000D03*
X-10160000Y-11430000D03*
X-7620000Y-11430000D03*
X-10160000Y-13970000D03*
X-7620000Y-13970000D03*
X-10160000Y-16510000D03*
X-7620000Y-16510000D03*
X-10160000Y-19050000D03*
X-7620000Y-19050000D03*
X-10160000Y-21590000D03*
X-7620000Y-21590000D03*
X-10160000Y-24130000D03*
X-7620000Y-24130000D03*
%TD*%
D16*
%TO.C,J2*%
X25400000Y-24130000D03*
D15*
X22860000Y-24130000D03*
X25400000Y-21590000D03*
X22860000Y-21590000D03*
X25400000Y-19050000D03*
X22860000Y-19050000D03*
X25400000Y-16510000D03*
X22860000Y-16510000D03*
X25400000Y-13970000D03*
X22860000Y-13970000D03*
X25400000Y-11430000D03*
X22860000Y-11430000D03*
X25400000Y-8890000D03*
X22860000Y-8890000D03*
%TD*%
D17*
%TO.C,SW1*%
X19610000Y3520000D03*
X19610000Y-980000D03*
X26110000Y3520000D03*
X26110000Y-980000D03*
%TD*%
D18*
%TO.C,J3*%
X-10160000Y-32395000D03*
D19*
X-10160000Y-34935000D03*
X-10160000Y-37475000D03*
X-10160000Y-40015000D03*
%TD*%
D18*
%TO.C,J4*%
X25400000Y-40005000D03*
D19*
X25400000Y-37465000D03*
X25400000Y-34925000D03*
X25400000Y-32385000D03*
%TD*%
M02*
