%FSLAX45Y45*%
G04 Gerber Fmt 4.5, Leading zero omitted, Abs format (unit mm)*
G04 Created by KiCad (PCBNEW (5.1.12-1-10_14)) date 2021-11-21 00:24:22*
%MOMM*%
%LPD*%
G01*
G04 APERTURE LIST*
%TA.AperFunction,Profile*%
%ADD10C,0.120000*%
%TD*%
%ADD11C,0.200000*%
%ADD12C,0.300000*%
G04 APERTURE END LIST*
D10*
X16002000Y-4508500D02*
G75*
G02*
X16065500Y-4572000I0J-63500D01*
G01*
X16065500Y-7874000D02*
G75*
G02*
X16002000Y-7937500I-63500J0D01*
G01*
X11874500Y-4572000D02*
G75*
G02*
X11938000Y-4508500I63500J0D01*
G01*
X11938000Y-7937500D02*
G75*
G02*
X11874500Y-7874000I0J63500D01*
G01*
X11874500Y-7874000D02*
X11874500Y-4572000D01*
X16002000Y-7937500D02*
X11938000Y-7937500D01*
X16065500Y-4572000D02*
X16065500Y-7874000D01*
X11938000Y-4508500D02*
X16002000Y-4508500D01*
D11*
X12743500Y-5441000D02*
X12783500Y-5481000D01*
X12783500Y-5441000D02*
X12743500Y-5481000D01*
X12934000Y-5441000D02*
X12974000Y-5481000D01*
X12974000Y-5441000D02*
X12934000Y-5481000D01*
X14966000Y-5314000D02*
X15006000Y-5354000D01*
X15006000Y-5314000D02*
X14966000Y-5354000D01*
X15083999Y-5695000D02*
X15123999Y-5735000D01*
X15123999Y-5695000D02*
X15083999Y-5735000D01*
X15093000Y-5314000D02*
X15133000Y-5354000D01*
X15133000Y-5314000D02*
X15093000Y-5354000D01*
X15156496Y-5822000D02*
X15196496Y-5862000D01*
X15196496Y-5822000D02*
X15156496Y-5862000D01*
X15220000Y-5314000D02*
X15260000Y-5354000D01*
X15260000Y-5314000D02*
X15220000Y-5354000D01*
X12305500Y-5461000D02*
G75*
G03*
X12305500Y-5461000I-50000J0D01*
G01*
X12305500Y-5715000D02*
G75*
G03*
X12305500Y-5715000I-50000J0D01*
G01*
X12305500Y-5969000D02*
G75*
G03*
X12305500Y-5969000I-50000J0D01*
G01*
X12305500Y-6223000D02*
G75*
G03*
X12305500Y-6223000I-50000J0D01*
G01*
X12305500Y-6477000D02*
G75*
G03*
X12305500Y-6477000I-50000J0D01*
G01*
X12305500Y-6731000D02*
G75*
G03*
X12305500Y-6731000I-50000J0D01*
G01*
X12305500Y-6985000D02*
G75*
G03*
X12305500Y-6985000I-50000J0D01*
G01*
X12305500Y-7239000D02*
G75*
G03*
X12305500Y-7239000I-50000J0D01*
G01*
X12305500Y-7493000D02*
G75*
G03*
X12305500Y-7493000I-50000J0D01*
G01*
X12559500Y-5461000D02*
G75*
G03*
X12559500Y-5461000I-50000J0D01*
G01*
X12559500Y-5715000D02*
G75*
G03*
X12559500Y-5715000I-50000J0D01*
G01*
X12559500Y-5969000D02*
G75*
G03*
X12559500Y-5969000I-50000J0D01*
G01*
X12559500Y-6223000D02*
G75*
G03*
X12559500Y-6223000I-50000J0D01*
G01*
X12559500Y-6477000D02*
G75*
G03*
X12559500Y-6477000I-50000J0D01*
G01*
X12559500Y-6731000D02*
G75*
G03*
X12559500Y-6731000I-50000J0D01*
G01*
X12559500Y-6985000D02*
G75*
G03*
X12559500Y-6985000I-50000J0D01*
G01*
X12559500Y-7239000D02*
G75*
G03*
X12559500Y-7239000I-50000J0D01*
G01*
X12559500Y-7493000D02*
G75*
G03*
X12559500Y-7493000I-50000J0D01*
G01*
X15163000Y-4699000D02*
G75*
G03*
X15163000Y-4699000I-50000J0D01*
G01*
X15417000Y-4699000D02*
G75*
G03*
X15417000Y-4699000I-50000J0D01*
G01*
X15480500Y-5461000D02*
G75*
G03*
X15480500Y-5461000I-50000J0D01*
G01*
X15480500Y-5715000D02*
G75*
G03*
X15480500Y-5715000I-50000J0D01*
G01*
X15480500Y-5969000D02*
G75*
G03*
X15480500Y-5969000I-50000J0D01*
G01*
X15480500Y-6223000D02*
G75*
G03*
X15480500Y-6223000I-50000J0D01*
G01*
X15480500Y-6477000D02*
G75*
G03*
X15480500Y-6477000I-50000J0D01*
G01*
X15480500Y-6731000D02*
G75*
G03*
X15480500Y-6731000I-50000J0D01*
G01*
X15480500Y-6985000D02*
G75*
G03*
X15480500Y-6985000I-50000J0D01*
G01*
X15480500Y-7239000D02*
G75*
G03*
X15480500Y-7239000I-50000J0D01*
G01*
X15480500Y-7493000D02*
G75*
G03*
X15480500Y-7493000I-50000J0D01*
G01*
X15671000Y-4699000D02*
G75*
G03*
X15671000Y-4699000I-50000J0D01*
G01*
X15734500Y-5461000D02*
G75*
G03*
X15734500Y-5461000I-50000J0D01*
G01*
X15734500Y-5715000D02*
G75*
G03*
X15734500Y-5715000I-50000J0D01*
G01*
X15734500Y-5969000D02*
G75*
G03*
X15734500Y-5969000I-50000J0D01*
G01*
X15734500Y-6223000D02*
G75*
G03*
X15734500Y-6223000I-50000J0D01*
G01*
X15734500Y-6477000D02*
G75*
G03*
X15734500Y-6477000I-50000J0D01*
G01*
X15734500Y-6731000D02*
G75*
G03*
X15734500Y-6731000I-50000J0D01*
G01*
X15734500Y-6985000D02*
G75*
G03*
X15734500Y-6985000I-50000J0D01*
G01*
X15734500Y-7239000D02*
G75*
G03*
X15734500Y-7239000I-50000J0D01*
G01*
X15734500Y-7493000D02*
G75*
G03*
X15734500Y-7493000I-50000J0D01*
G01*
X15925000Y-4699000D02*
G75*
G03*
X15925000Y-4699000I-50000J0D01*
G01*
X13208000Y-4898390D02*
X13208000Y-5007610D01*
X13153390Y-4953000D02*
X13262610Y-4953000D01*
X13208000Y-5152390D02*
X13208000Y-5261610D01*
X13153390Y-5207000D02*
X13262610Y-5207000D01*
X13208000Y-5406390D02*
X13208000Y-5515610D01*
X13153390Y-5461000D02*
X13262610Y-5461000D01*
X13208000Y-5660390D02*
X13208000Y-5769610D01*
X13153390Y-5715000D02*
X13262610Y-5715000D01*
X13208000Y-5914390D02*
X13208000Y-6023610D01*
X13153390Y-5969000D02*
X13262610Y-5969000D01*
X13208000Y-6168390D02*
X13208000Y-6277610D01*
X13153390Y-6223000D02*
X13262610Y-6223000D01*
X13208000Y-6422390D02*
X13208000Y-6531610D01*
X13153390Y-6477000D02*
X13262610Y-6477000D01*
X13208000Y-6676390D02*
X13208000Y-6785610D01*
X13153390Y-6731000D02*
X13262610Y-6731000D01*
X13208000Y-6930390D02*
X13208000Y-7039610D01*
X13153390Y-6985000D02*
X13262610Y-6985000D01*
X13208000Y-7184390D02*
X13208000Y-7293610D01*
X13153390Y-7239000D02*
X13262610Y-7239000D01*
X13208000Y-7438390D02*
X13208000Y-7547610D01*
X13153390Y-7493000D02*
X13262610Y-7493000D01*
X13208000Y-7692390D02*
X13208000Y-7801610D01*
X13153390Y-7747000D02*
X13262610Y-7747000D01*
X13462000Y-7692390D02*
X13462000Y-7801610D01*
X13407390Y-7747000D02*
X13516610Y-7747000D01*
X13716000Y-7692390D02*
X13716000Y-7801610D01*
X13661390Y-7747000D02*
X13770610Y-7747000D01*
X13970000Y-7692390D02*
X13970000Y-7801610D01*
X13915390Y-7747000D02*
X14024610Y-7747000D01*
X14224000Y-7692390D02*
X14224000Y-7801610D01*
X14169390Y-7747000D02*
X14278610Y-7747000D01*
X14478000Y-7692390D02*
X14478000Y-7801610D01*
X14423390Y-7747000D02*
X14532610Y-7747000D01*
X14732000Y-4898390D02*
X14732000Y-5007610D01*
X14677390Y-4953000D02*
X14786610Y-4953000D01*
X14732000Y-5152390D02*
X14732000Y-5261610D01*
X14677390Y-5207000D02*
X14786610Y-5207000D01*
X14732000Y-5406390D02*
X14732000Y-5515610D01*
X14677390Y-5461000D02*
X14786610Y-5461000D01*
X14732000Y-5660390D02*
X14732000Y-5769610D01*
X14677390Y-5715000D02*
X14786610Y-5715000D01*
X14732000Y-5914390D02*
X14732000Y-6023610D01*
X14677390Y-5969000D02*
X14786610Y-5969000D01*
X14732000Y-6168390D02*
X14732000Y-6277610D01*
X14677390Y-6223000D02*
X14786610Y-6223000D01*
X14732000Y-6422390D02*
X14732000Y-6531610D01*
X14677390Y-6477000D02*
X14786610Y-6477000D01*
X14732000Y-6676390D02*
X14732000Y-6785610D01*
X14677390Y-6731000D02*
X14786610Y-6731000D01*
X14732000Y-6930390D02*
X14732000Y-7039610D01*
X14677390Y-6985000D02*
X14786610Y-6985000D01*
X14732000Y-7184390D02*
X14732000Y-7293610D01*
X14677390Y-7239000D02*
X14786610Y-7239000D01*
X14732000Y-7438390D02*
X14732000Y-7547610D01*
X14677390Y-7493000D02*
X14786610Y-7493000D01*
X14732000Y-7692390D02*
X14732000Y-7801610D01*
X14677390Y-7747000D02*
X14786610Y-7747000D01*
D12*
X12154928Y-8409214D02*
X12154928Y-8109214D01*
X12226357Y-8109214D01*
X12269214Y-8123500D01*
X12297786Y-8152071D01*
X12312071Y-8180643D01*
X12326357Y-8237786D01*
X12326357Y-8280643D01*
X12312071Y-8337786D01*
X12297786Y-8366357D01*
X12269214Y-8394929D01*
X12226357Y-8409214D01*
X12154928Y-8409214D01*
X12454928Y-8409214D02*
X12454928Y-8209214D01*
X12454928Y-8266357D02*
X12469214Y-8237786D01*
X12483500Y-8223500D01*
X12512071Y-8209214D01*
X12540643Y-8209214D01*
X12640643Y-8409214D02*
X12640643Y-8209214D01*
X12640643Y-8109214D02*
X12626357Y-8123500D01*
X12640643Y-8137786D01*
X12654928Y-8123500D01*
X12640643Y-8109214D01*
X12640643Y-8137786D01*
X12826357Y-8409214D02*
X12797786Y-8394929D01*
X12783500Y-8366357D01*
X12783500Y-8109214D01*
X12983500Y-8409214D02*
X12954928Y-8394929D01*
X12940643Y-8366357D01*
X12940643Y-8109214D01*
X13326357Y-8409214D02*
X13326357Y-8109214D01*
X13426357Y-8323500D01*
X13526357Y-8109214D01*
X13526357Y-8409214D01*
X13797786Y-8409214D02*
X13797786Y-8252071D01*
X13783500Y-8223500D01*
X13754928Y-8209214D01*
X13697786Y-8209214D01*
X13669214Y-8223500D01*
X13797786Y-8394929D02*
X13769214Y-8409214D01*
X13697786Y-8409214D01*
X13669214Y-8394929D01*
X13654928Y-8366357D01*
X13654928Y-8337786D01*
X13669214Y-8309214D01*
X13697786Y-8294929D01*
X13769214Y-8294929D01*
X13797786Y-8280643D01*
X13940643Y-8209214D02*
X13940643Y-8509214D01*
X13940643Y-8223500D02*
X13969214Y-8209214D01*
X14026357Y-8209214D01*
X14054928Y-8223500D01*
X14069214Y-8237786D01*
X14083500Y-8266357D01*
X14083500Y-8352071D01*
X14069214Y-8380643D01*
X14054928Y-8394929D01*
X14026357Y-8409214D01*
X13969214Y-8409214D01*
X13940643Y-8394929D01*
X14212071Y-8380643D02*
X14226357Y-8394929D01*
X14212071Y-8409214D01*
X14197786Y-8394929D01*
X14212071Y-8380643D01*
X14212071Y-8409214D01*
X14212071Y-8223500D02*
X14226357Y-8237786D01*
X14212071Y-8252071D01*
X14197786Y-8237786D01*
X14212071Y-8223500D01*
X14212071Y-8252071D01*
X11828500Y-8883500D02*
X11868500Y-8923500D01*
X11868500Y-8883500D02*
X11828500Y-8923500D01*
X12212071Y-8739214D02*
X12240643Y-8739214D01*
X12269214Y-8753500D01*
X12283500Y-8767786D01*
X12297786Y-8796357D01*
X12312071Y-8853500D01*
X12312071Y-8924929D01*
X12297786Y-8982072D01*
X12283500Y-9010643D01*
X12269214Y-9024929D01*
X12240643Y-9039214D01*
X12212071Y-9039214D01*
X12183500Y-9024929D01*
X12169214Y-9010643D01*
X12154928Y-8982072D01*
X12140643Y-8924929D01*
X12140643Y-8853500D01*
X12154928Y-8796357D01*
X12169214Y-8767786D01*
X12183500Y-8753500D01*
X12212071Y-8739214D01*
X12440643Y-9010643D02*
X12454928Y-9024929D01*
X12440643Y-9039214D01*
X12426357Y-9024929D01*
X12440643Y-9010643D01*
X12440643Y-9039214D01*
X12712071Y-8839214D02*
X12712071Y-9039214D01*
X12640643Y-8724929D02*
X12569214Y-8939214D01*
X12754928Y-8939214D01*
X12926357Y-8739214D02*
X12954928Y-8739214D01*
X12983500Y-8753500D01*
X12997786Y-8767786D01*
X13012071Y-8796357D01*
X13026357Y-8853500D01*
X13026357Y-8924929D01*
X13012071Y-8982072D01*
X12997786Y-9010643D01*
X12983500Y-9024929D01*
X12954928Y-9039214D01*
X12926357Y-9039214D01*
X12897786Y-9024929D01*
X12883500Y-9010643D01*
X12869214Y-8982072D01*
X12854928Y-8924929D01*
X12854928Y-8853500D01*
X12869214Y-8796357D01*
X12883500Y-8767786D01*
X12897786Y-8753500D01*
X12926357Y-8739214D01*
X13212071Y-8739214D02*
X13240643Y-8739214D01*
X13269214Y-8753500D01*
X13283500Y-8767786D01*
X13297786Y-8796357D01*
X13312071Y-8853500D01*
X13312071Y-8924929D01*
X13297786Y-8982072D01*
X13283500Y-9010643D01*
X13269214Y-9024929D01*
X13240643Y-9039214D01*
X13212071Y-9039214D01*
X13183500Y-9024929D01*
X13169214Y-9010643D01*
X13154928Y-8982072D01*
X13140643Y-8924929D01*
X13140643Y-8853500D01*
X13154928Y-8796357D01*
X13169214Y-8767786D01*
X13183500Y-8753500D01*
X13212071Y-8739214D01*
X13440643Y-9039214D02*
X13440643Y-8839214D01*
X13440643Y-8867786D02*
X13454928Y-8853500D01*
X13483500Y-8839214D01*
X13526357Y-8839214D01*
X13554928Y-8853500D01*
X13569214Y-8882072D01*
X13569214Y-9039214D01*
X13569214Y-8882072D02*
X13583500Y-8853500D01*
X13612071Y-8839214D01*
X13654928Y-8839214D01*
X13683500Y-8853500D01*
X13697786Y-8882072D01*
X13697786Y-9039214D01*
X13840643Y-9039214D02*
X13840643Y-8839214D01*
X13840643Y-8867786D02*
X13854928Y-8853500D01*
X13883500Y-8839214D01*
X13926357Y-8839214D01*
X13954928Y-8853500D01*
X13969214Y-8882072D01*
X13969214Y-9039214D01*
X13969214Y-8882072D02*
X13983500Y-8853500D01*
X14012071Y-8839214D01*
X14054928Y-8839214D01*
X14083500Y-8853500D01*
X14097786Y-8882072D01*
X14097786Y-9039214D01*
X14683500Y-8724929D02*
X14426357Y-9110643D01*
X15069214Y-8739214D02*
X15097786Y-8739214D01*
X15126357Y-8753500D01*
X15140643Y-8767786D01*
X15154928Y-8796357D01*
X15169214Y-8853500D01*
X15169214Y-8924929D01*
X15154928Y-8982072D01*
X15140643Y-9010643D01*
X15126357Y-9024929D01*
X15097786Y-9039214D01*
X15069214Y-9039214D01*
X15040643Y-9024929D01*
X15026357Y-9010643D01*
X15012071Y-8982072D01*
X14997786Y-8924929D01*
X14997786Y-8853500D01*
X15012071Y-8796357D01*
X15026357Y-8767786D01*
X15040643Y-8753500D01*
X15069214Y-8739214D01*
X15297786Y-9010643D02*
X15312071Y-9024929D01*
X15297786Y-9039214D01*
X15283500Y-9024929D01*
X15297786Y-9010643D01*
X15297786Y-9039214D01*
X15497786Y-8739214D02*
X15526357Y-8739214D01*
X15554928Y-8753500D01*
X15569214Y-8767786D01*
X15583500Y-8796357D01*
X15597786Y-8853500D01*
X15597786Y-8924929D01*
X15583500Y-8982072D01*
X15569214Y-9010643D01*
X15554928Y-9024929D01*
X15526357Y-9039214D01*
X15497786Y-9039214D01*
X15469214Y-9024929D01*
X15454928Y-9010643D01*
X15440643Y-8982072D01*
X15426357Y-8924929D01*
X15426357Y-8853500D01*
X15440643Y-8796357D01*
X15454928Y-8767786D01*
X15469214Y-8753500D01*
X15497786Y-8739214D01*
X15883500Y-9039214D02*
X15712071Y-9039214D01*
X15797786Y-9039214D02*
X15797786Y-8739214D01*
X15769214Y-8782072D01*
X15740643Y-8810643D01*
X15712071Y-8824929D01*
X16154928Y-8739214D02*
X16012071Y-8739214D01*
X15997786Y-8882072D01*
X16012071Y-8867786D01*
X16040643Y-8853500D01*
X16112071Y-8853500D01*
X16140643Y-8867786D01*
X16154928Y-8882072D01*
X16169214Y-8910643D01*
X16169214Y-8982072D01*
X16154928Y-9010643D01*
X16140643Y-9024929D01*
X16112071Y-9039214D01*
X16040643Y-9039214D01*
X16012071Y-9024929D01*
X15997786Y-9010643D01*
X16269214Y-8739214D02*
X16469214Y-8739214D01*
X16340643Y-9039214D01*
X16569214Y-8739214D02*
X16569214Y-8796357D01*
X16683500Y-8739214D02*
X16683500Y-8796357D01*
X17126357Y-9153500D02*
X17112071Y-9139214D01*
X17083500Y-9096357D01*
X17069214Y-9067786D01*
X17054928Y-9024929D01*
X17040643Y-8953500D01*
X17040643Y-8896357D01*
X17054928Y-8824929D01*
X17069214Y-8782072D01*
X17083500Y-8753500D01*
X17112071Y-8710643D01*
X17126357Y-8696357D01*
X17212071Y-8739214D02*
X17412071Y-8739214D01*
X17283500Y-9039214D01*
X17754928Y-9039214D02*
X17754928Y-8739214D01*
X17883500Y-9039214D02*
X17883500Y-8882072D01*
X17869214Y-8853500D01*
X17840643Y-8839214D01*
X17797786Y-8839214D01*
X17769214Y-8853500D01*
X17754928Y-8867786D01*
X18069214Y-9039214D02*
X18040643Y-9024929D01*
X18026357Y-9010643D01*
X18012071Y-8982072D01*
X18012071Y-8896357D01*
X18026357Y-8867786D01*
X18040643Y-8853500D01*
X18069214Y-8839214D01*
X18112071Y-8839214D01*
X18140643Y-8853500D01*
X18154928Y-8867786D01*
X18169214Y-8896357D01*
X18169214Y-8982072D01*
X18154928Y-9010643D01*
X18140643Y-9024929D01*
X18112071Y-9039214D01*
X18069214Y-9039214D01*
X18340643Y-9039214D02*
X18312071Y-9024929D01*
X18297786Y-8996357D01*
X18297786Y-8739214D01*
X18569214Y-9024929D02*
X18540643Y-9039214D01*
X18483500Y-9039214D01*
X18454928Y-9024929D01*
X18440643Y-8996357D01*
X18440643Y-8882072D01*
X18454928Y-8853500D01*
X18483500Y-8839214D01*
X18540643Y-8839214D01*
X18569214Y-8853500D01*
X18583500Y-8882072D01*
X18583500Y-8910643D01*
X18440643Y-8939214D01*
X18697786Y-9024929D02*
X18726357Y-9039214D01*
X18783500Y-9039214D01*
X18812071Y-9024929D01*
X18826357Y-8996357D01*
X18826357Y-8982072D01*
X18812071Y-8953500D01*
X18783500Y-8939214D01*
X18740643Y-8939214D01*
X18712071Y-8924929D01*
X18697786Y-8896357D01*
X18697786Y-8882072D01*
X18712071Y-8853500D01*
X18740643Y-8839214D01*
X18783500Y-8839214D01*
X18812071Y-8853500D01*
X18926357Y-9153500D02*
X18940643Y-9139214D01*
X18969214Y-9096357D01*
X18983500Y-9067786D01*
X18997786Y-9024929D01*
X19012071Y-8953500D01*
X19012071Y-8896357D01*
X18997786Y-8824929D01*
X18983500Y-8782072D01*
X18969214Y-8753500D01*
X18940643Y-8710643D01*
X18926357Y-8696357D01*
X11868500Y-9299500D02*
G75*
G03*
X11868500Y-9299500I-50000J0D01*
G01*
X12312071Y-9435214D02*
X12140643Y-9435214D01*
X12226357Y-9435214D02*
X12226357Y-9135214D01*
X12197786Y-9178072D01*
X12169214Y-9206643D01*
X12140643Y-9220929D01*
X12440643Y-9406643D02*
X12454928Y-9420929D01*
X12440643Y-9435214D01*
X12426357Y-9420929D01*
X12440643Y-9406643D01*
X12440643Y-9435214D01*
X12640643Y-9135214D02*
X12669214Y-9135214D01*
X12697786Y-9149500D01*
X12712071Y-9163786D01*
X12726357Y-9192357D01*
X12740643Y-9249500D01*
X12740643Y-9320929D01*
X12726357Y-9378072D01*
X12712071Y-9406643D01*
X12697786Y-9420929D01*
X12669214Y-9435214D01*
X12640643Y-9435214D01*
X12612071Y-9420929D01*
X12597786Y-9406643D01*
X12583500Y-9378072D01*
X12569214Y-9320929D01*
X12569214Y-9249500D01*
X12583500Y-9192357D01*
X12597786Y-9163786D01*
X12612071Y-9149500D01*
X12640643Y-9135214D01*
X12926357Y-9135214D02*
X12954928Y-9135214D01*
X12983500Y-9149500D01*
X12997786Y-9163786D01*
X13012071Y-9192357D01*
X13026357Y-9249500D01*
X13026357Y-9320929D01*
X13012071Y-9378072D01*
X12997786Y-9406643D01*
X12983500Y-9420929D01*
X12954928Y-9435214D01*
X12926357Y-9435214D01*
X12897786Y-9420929D01*
X12883500Y-9406643D01*
X12869214Y-9378072D01*
X12854928Y-9320929D01*
X12854928Y-9249500D01*
X12869214Y-9192357D01*
X12883500Y-9163786D01*
X12897786Y-9149500D01*
X12926357Y-9135214D01*
X13212071Y-9135214D02*
X13240643Y-9135214D01*
X13269214Y-9149500D01*
X13283500Y-9163786D01*
X13297786Y-9192357D01*
X13312071Y-9249500D01*
X13312071Y-9320929D01*
X13297786Y-9378072D01*
X13283500Y-9406643D01*
X13269214Y-9420929D01*
X13240643Y-9435214D01*
X13212071Y-9435214D01*
X13183500Y-9420929D01*
X13169214Y-9406643D01*
X13154928Y-9378072D01*
X13140643Y-9320929D01*
X13140643Y-9249500D01*
X13154928Y-9192357D01*
X13169214Y-9163786D01*
X13183500Y-9149500D01*
X13212071Y-9135214D01*
X13440643Y-9435214D02*
X13440643Y-9235214D01*
X13440643Y-9263786D02*
X13454928Y-9249500D01*
X13483500Y-9235214D01*
X13526357Y-9235214D01*
X13554928Y-9249500D01*
X13569214Y-9278072D01*
X13569214Y-9435214D01*
X13569214Y-9278072D02*
X13583500Y-9249500D01*
X13612071Y-9235214D01*
X13654928Y-9235214D01*
X13683500Y-9249500D01*
X13697786Y-9278072D01*
X13697786Y-9435214D01*
X13840643Y-9435214D02*
X13840643Y-9235214D01*
X13840643Y-9263786D02*
X13854928Y-9249500D01*
X13883500Y-9235214D01*
X13926357Y-9235214D01*
X13954928Y-9249500D01*
X13969214Y-9278072D01*
X13969214Y-9435214D01*
X13969214Y-9278072D02*
X13983500Y-9249500D01*
X14012071Y-9235214D01*
X14054928Y-9235214D01*
X14083500Y-9249500D01*
X14097786Y-9278072D01*
X14097786Y-9435214D01*
X14683500Y-9120929D02*
X14426357Y-9506643D01*
X15069214Y-9135214D02*
X15097786Y-9135214D01*
X15126357Y-9149500D01*
X15140643Y-9163786D01*
X15154928Y-9192357D01*
X15169214Y-9249500D01*
X15169214Y-9320929D01*
X15154928Y-9378072D01*
X15140643Y-9406643D01*
X15126357Y-9420929D01*
X15097786Y-9435214D01*
X15069214Y-9435214D01*
X15040643Y-9420929D01*
X15026357Y-9406643D01*
X15012071Y-9378072D01*
X14997786Y-9320929D01*
X14997786Y-9249500D01*
X15012071Y-9192357D01*
X15026357Y-9163786D01*
X15040643Y-9149500D01*
X15069214Y-9135214D01*
X15297786Y-9406643D02*
X15312071Y-9420929D01*
X15297786Y-9435214D01*
X15283500Y-9420929D01*
X15297786Y-9406643D01*
X15297786Y-9435214D01*
X15497786Y-9135214D02*
X15526357Y-9135214D01*
X15554928Y-9149500D01*
X15569214Y-9163786D01*
X15583500Y-9192357D01*
X15597786Y-9249500D01*
X15597786Y-9320929D01*
X15583500Y-9378072D01*
X15569214Y-9406643D01*
X15554928Y-9420929D01*
X15526357Y-9435214D01*
X15497786Y-9435214D01*
X15469214Y-9420929D01*
X15454928Y-9406643D01*
X15440643Y-9378072D01*
X15426357Y-9320929D01*
X15426357Y-9249500D01*
X15440643Y-9192357D01*
X15454928Y-9163786D01*
X15469214Y-9149500D01*
X15497786Y-9135214D01*
X15697786Y-9135214D02*
X15883500Y-9135214D01*
X15783500Y-9249500D01*
X15826357Y-9249500D01*
X15854928Y-9263786D01*
X15869214Y-9278072D01*
X15883500Y-9306643D01*
X15883500Y-9378072D01*
X15869214Y-9406643D01*
X15854928Y-9420929D01*
X15826357Y-9435214D01*
X15740643Y-9435214D01*
X15712071Y-9420929D01*
X15697786Y-9406643D01*
X16026357Y-9435214D02*
X16083500Y-9435214D01*
X16112071Y-9420929D01*
X16126357Y-9406643D01*
X16154928Y-9363786D01*
X16169214Y-9306643D01*
X16169214Y-9192357D01*
X16154928Y-9163786D01*
X16140643Y-9149500D01*
X16112071Y-9135214D01*
X16054928Y-9135214D01*
X16026357Y-9149500D01*
X16012071Y-9163786D01*
X15997786Y-9192357D01*
X15997786Y-9263786D01*
X16012071Y-9292357D01*
X16026357Y-9306643D01*
X16054928Y-9320929D01*
X16112071Y-9320929D01*
X16140643Y-9306643D01*
X16154928Y-9292357D01*
X16169214Y-9263786D01*
X16426357Y-9235214D02*
X16426357Y-9435214D01*
X16354928Y-9120929D02*
X16283500Y-9335214D01*
X16469214Y-9335214D01*
X16569214Y-9135214D02*
X16569214Y-9192357D01*
X16683500Y-9135214D02*
X16683500Y-9192357D01*
X17126357Y-9549500D02*
X17112071Y-9535214D01*
X17083500Y-9492357D01*
X17069214Y-9463786D01*
X17054928Y-9420929D01*
X17040643Y-9349500D01*
X17040643Y-9292357D01*
X17054928Y-9220929D01*
X17069214Y-9178072D01*
X17083500Y-9149500D01*
X17112071Y-9106643D01*
X17126357Y-9092357D01*
X17369214Y-9235214D02*
X17369214Y-9435214D01*
X17297786Y-9120929D02*
X17226357Y-9335214D01*
X17412071Y-9335214D01*
X17583500Y-9135214D02*
X17612071Y-9135214D01*
X17640643Y-9149500D01*
X17654928Y-9163786D01*
X17669214Y-9192357D01*
X17683500Y-9249500D01*
X17683500Y-9320929D01*
X17669214Y-9378072D01*
X17654928Y-9406643D01*
X17640643Y-9420929D01*
X17612071Y-9435214D01*
X17583500Y-9435214D01*
X17554928Y-9420929D01*
X17540643Y-9406643D01*
X17526357Y-9378072D01*
X17512071Y-9320929D01*
X17512071Y-9249500D01*
X17526357Y-9192357D01*
X17540643Y-9163786D01*
X17554928Y-9149500D01*
X17583500Y-9135214D01*
X18040643Y-9435214D02*
X18040643Y-9135214D01*
X18169214Y-9435214D02*
X18169214Y-9278072D01*
X18154928Y-9249500D01*
X18126357Y-9235214D01*
X18083500Y-9235214D01*
X18054928Y-9249500D01*
X18040643Y-9263786D01*
X18354928Y-9435214D02*
X18326357Y-9420929D01*
X18312071Y-9406643D01*
X18297786Y-9378072D01*
X18297786Y-9292357D01*
X18312071Y-9263786D01*
X18326357Y-9249500D01*
X18354928Y-9235214D01*
X18397786Y-9235214D01*
X18426357Y-9249500D01*
X18440643Y-9263786D01*
X18454928Y-9292357D01*
X18454928Y-9378072D01*
X18440643Y-9406643D01*
X18426357Y-9420929D01*
X18397786Y-9435214D01*
X18354928Y-9435214D01*
X18626357Y-9435214D02*
X18597786Y-9420929D01*
X18583500Y-9392357D01*
X18583500Y-9135214D01*
X18854928Y-9420929D02*
X18826357Y-9435214D01*
X18769214Y-9435214D01*
X18740643Y-9420929D01*
X18726357Y-9392357D01*
X18726357Y-9278072D01*
X18740643Y-9249500D01*
X18769214Y-9235214D01*
X18826357Y-9235214D01*
X18854928Y-9249500D01*
X18869214Y-9278072D01*
X18869214Y-9306643D01*
X18726357Y-9335214D01*
X18983500Y-9420929D02*
X19012071Y-9435214D01*
X19069214Y-9435214D01*
X19097786Y-9420929D01*
X19112071Y-9392357D01*
X19112071Y-9378072D01*
X19097786Y-9349500D01*
X19069214Y-9335214D01*
X19026357Y-9335214D01*
X18997786Y-9320929D01*
X18983500Y-9292357D01*
X18983500Y-9278072D01*
X18997786Y-9249500D01*
X19026357Y-9235214D01*
X19069214Y-9235214D01*
X19097786Y-9249500D01*
X19212071Y-9549500D02*
X19226357Y-9535214D01*
X19254928Y-9492357D01*
X19269214Y-9463786D01*
X19283500Y-9420929D01*
X19297786Y-9349500D01*
X19297786Y-9292357D01*
X19283500Y-9220929D01*
X19269214Y-9178072D01*
X19254928Y-9149500D01*
X19226357Y-9106643D01*
X19212071Y-9092357D01*
X11813890Y-9640890D02*
X11813890Y-9750110D01*
X11759280Y-9695500D02*
X11868500Y-9695500D01*
X12312071Y-9831214D02*
X12140643Y-9831214D01*
X12226357Y-9831214D02*
X12226357Y-9531214D01*
X12197786Y-9574072D01*
X12169214Y-9602643D01*
X12140643Y-9616929D01*
X12440643Y-9802643D02*
X12454928Y-9816929D01*
X12440643Y-9831214D01*
X12426357Y-9816929D01*
X12440643Y-9802643D01*
X12440643Y-9831214D01*
X12640643Y-9531214D02*
X12669214Y-9531214D01*
X12697786Y-9545500D01*
X12712071Y-9559786D01*
X12726357Y-9588357D01*
X12740643Y-9645500D01*
X12740643Y-9716929D01*
X12726357Y-9774072D01*
X12712071Y-9802643D01*
X12697786Y-9816929D01*
X12669214Y-9831214D01*
X12640643Y-9831214D01*
X12612071Y-9816929D01*
X12597786Y-9802643D01*
X12583500Y-9774072D01*
X12569214Y-9716929D01*
X12569214Y-9645500D01*
X12583500Y-9588357D01*
X12597786Y-9559786D01*
X12612071Y-9545500D01*
X12640643Y-9531214D01*
X12883500Y-9831214D02*
X12940643Y-9831214D01*
X12969214Y-9816929D01*
X12983500Y-9802643D01*
X13012071Y-9759786D01*
X13026357Y-9702643D01*
X13026357Y-9588357D01*
X13012071Y-9559786D01*
X12997786Y-9545500D01*
X12969214Y-9531214D01*
X12912071Y-9531214D01*
X12883500Y-9545500D01*
X12869214Y-9559786D01*
X12854928Y-9588357D01*
X12854928Y-9659786D01*
X12869214Y-9688357D01*
X12883500Y-9702643D01*
X12912071Y-9716929D01*
X12969214Y-9716929D01*
X12997786Y-9702643D01*
X13012071Y-9688357D01*
X13026357Y-9659786D01*
X13140643Y-9559786D02*
X13154928Y-9545500D01*
X13183500Y-9531214D01*
X13254928Y-9531214D01*
X13283500Y-9545500D01*
X13297786Y-9559786D01*
X13312071Y-9588357D01*
X13312071Y-9616929D01*
X13297786Y-9659786D01*
X13126357Y-9831214D01*
X13312071Y-9831214D01*
X13440643Y-9831214D02*
X13440643Y-9631214D01*
X13440643Y-9659786D02*
X13454928Y-9645500D01*
X13483500Y-9631214D01*
X13526357Y-9631214D01*
X13554928Y-9645500D01*
X13569214Y-9674072D01*
X13569214Y-9831214D01*
X13569214Y-9674072D02*
X13583500Y-9645500D01*
X13612071Y-9631214D01*
X13654928Y-9631214D01*
X13683500Y-9645500D01*
X13697786Y-9674072D01*
X13697786Y-9831214D01*
X13840643Y-9831214D02*
X13840643Y-9631214D01*
X13840643Y-9659786D02*
X13854928Y-9645500D01*
X13883500Y-9631214D01*
X13926357Y-9631214D01*
X13954928Y-9645500D01*
X13969214Y-9674072D01*
X13969214Y-9831214D01*
X13969214Y-9674072D02*
X13983500Y-9645500D01*
X14012071Y-9631214D01*
X14054928Y-9631214D01*
X14083500Y-9645500D01*
X14097786Y-9674072D01*
X14097786Y-9831214D01*
X14683500Y-9516929D02*
X14426357Y-9902643D01*
X15069214Y-9531214D02*
X15097786Y-9531214D01*
X15126357Y-9545500D01*
X15140643Y-9559786D01*
X15154928Y-9588357D01*
X15169214Y-9645500D01*
X15169214Y-9716929D01*
X15154928Y-9774072D01*
X15140643Y-9802643D01*
X15126357Y-9816929D01*
X15097786Y-9831214D01*
X15069214Y-9831214D01*
X15040643Y-9816929D01*
X15026357Y-9802643D01*
X15012071Y-9774072D01*
X14997786Y-9716929D01*
X14997786Y-9645500D01*
X15012071Y-9588357D01*
X15026357Y-9559786D01*
X15040643Y-9545500D01*
X15069214Y-9531214D01*
X15297786Y-9802643D02*
X15312071Y-9816929D01*
X15297786Y-9831214D01*
X15283500Y-9816929D01*
X15297786Y-9802643D01*
X15297786Y-9831214D01*
X15497786Y-9531214D02*
X15526357Y-9531214D01*
X15554928Y-9545500D01*
X15569214Y-9559786D01*
X15583500Y-9588357D01*
X15597786Y-9645500D01*
X15597786Y-9716929D01*
X15583500Y-9774072D01*
X15569214Y-9802643D01*
X15554928Y-9816929D01*
X15526357Y-9831214D01*
X15497786Y-9831214D01*
X15469214Y-9816929D01*
X15454928Y-9802643D01*
X15440643Y-9774072D01*
X15426357Y-9716929D01*
X15426357Y-9645500D01*
X15440643Y-9588357D01*
X15454928Y-9559786D01*
X15469214Y-9545500D01*
X15497786Y-9531214D01*
X15854928Y-9631214D02*
X15854928Y-9831214D01*
X15783500Y-9516929D02*
X15712071Y-9731214D01*
X15897786Y-9731214D01*
X15983500Y-9531214D02*
X16169214Y-9531214D01*
X16069214Y-9645500D01*
X16112071Y-9645500D01*
X16140643Y-9659786D01*
X16154928Y-9674072D01*
X16169214Y-9702643D01*
X16169214Y-9774072D01*
X16154928Y-9802643D01*
X16140643Y-9816929D01*
X16112071Y-9831214D01*
X16026357Y-9831214D01*
X15997786Y-9816929D01*
X15983500Y-9802643D01*
X16354928Y-9531214D02*
X16383500Y-9531214D01*
X16412071Y-9545500D01*
X16426357Y-9559786D01*
X16440643Y-9588357D01*
X16454928Y-9645500D01*
X16454928Y-9716929D01*
X16440643Y-9774072D01*
X16426357Y-9802643D01*
X16412071Y-9816929D01*
X16383500Y-9831214D01*
X16354928Y-9831214D01*
X16326357Y-9816929D01*
X16312071Y-9802643D01*
X16297786Y-9774072D01*
X16283500Y-9716929D01*
X16283500Y-9645500D01*
X16297786Y-9588357D01*
X16312071Y-9559786D01*
X16326357Y-9545500D01*
X16354928Y-9531214D01*
X16569214Y-9531214D02*
X16569214Y-9588357D01*
X16683500Y-9531214D02*
X16683500Y-9588357D01*
X17126357Y-9945500D02*
X17112071Y-9931214D01*
X17083500Y-9888357D01*
X17069214Y-9859786D01*
X17054928Y-9816929D01*
X17040643Y-9745500D01*
X17040643Y-9688357D01*
X17054928Y-9616929D01*
X17069214Y-9574072D01*
X17083500Y-9545500D01*
X17112071Y-9502643D01*
X17126357Y-9488357D01*
X17226357Y-9559786D02*
X17240643Y-9545500D01*
X17269214Y-9531214D01*
X17340643Y-9531214D01*
X17369214Y-9545500D01*
X17383500Y-9559786D01*
X17397786Y-9588357D01*
X17397786Y-9616929D01*
X17383500Y-9659786D01*
X17212071Y-9831214D01*
X17397786Y-9831214D01*
X17540643Y-9831214D02*
X17597786Y-9831214D01*
X17626357Y-9816929D01*
X17640643Y-9802643D01*
X17669214Y-9759786D01*
X17683500Y-9702643D01*
X17683500Y-9588357D01*
X17669214Y-9559786D01*
X17654928Y-9545500D01*
X17626357Y-9531214D01*
X17569214Y-9531214D01*
X17540643Y-9545500D01*
X17526357Y-9559786D01*
X17512071Y-9588357D01*
X17512071Y-9659786D01*
X17526357Y-9688357D01*
X17540643Y-9702643D01*
X17569214Y-9716929D01*
X17626357Y-9716929D01*
X17654928Y-9702643D01*
X17669214Y-9688357D01*
X17683500Y-9659786D01*
X18040643Y-9831214D02*
X18040643Y-9531214D01*
X18169214Y-9831214D02*
X18169214Y-9674072D01*
X18154928Y-9645500D01*
X18126357Y-9631214D01*
X18083500Y-9631214D01*
X18054928Y-9645500D01*
X18040643Y-9659786D01*
X18354928Y-9831214D02*
X18326357Y-9816929D01*
X18312071Y-9802643D01*
X18297786Y-9774072D01*
X18297786Y-9688357D01*
X18312071Y-9659786D01*
X18326357Y-9645500D01*
X18354928Y-9631214D01*
X18397786Y-9631214D01*
X18426357Y-9645500D01*
X18440643Y-9659786D01*
X18454928Y-9688357D01*
X18454928Y-9774072D01*
X18440643Y-9802643D01*
X18426357Y-9816929D01*
X18397786Y-9831214D01*
X18354928Y-9831214D01*
X18626357Y-9831214D02*
X18597786Y-9816929D01*
X18583500Y-9788357D01*
X18583500Y-9531214D01*
X18854928Y-9816929D02*
X18826357Y-9831214D01*
X18769214Y-9831214D01*
X18740643Y-9816929D01*
X18726357Y-9788357D01*
X18726357Y-9674072D01*
X18740643Y-9645500D01*
X18769214Y-9631214D01*
X18826357Y-9631214D01*
X18854928Y-9645500D01*
X18869214Y-9674072D01*
X18869214Y-9702643D01*
X18726357Y-9731214D01*
X18983500Y-9816929D02*
X19012071Y-9831214D01*
X19069214Y-9831214D01*
X19097786Y-9816929D01*
X19112071Y-9788357D01*
X19112071Y-9774072D01*
X19097786Y-9745500D01*
X19069214Y-9731214D01*
X19026357Y-9731214D01*
X18997786Y-9716929D01*
X18983500Y-9688357D01*
X18983500Y-9674072D01*
X18997786Y-9645500D01*
X19026357Y-9631214D01*
X19069214Y-9631214D01*
X19097786Y-9645500D01*
X19212071Y-9945500D02*
X19226357Y-9931214D01*
X19254928Y-9888357D01*
X19269214Y-9859786D01*
X19283500Y-9816929D01*
X19297786Y-9745500D01*
X19297786Y-9688357D01*
X19283500Y-9616929D01*
X19269214Y-9574072D01*
X19254928Y-9545500D01*
X19226357Y-9502643D01*
X19212071Y-9488357D01*
M02*
