%TF.GenerationSoftware,KiCad,Pcbnew,(6.0.5-0)*%
%TF.CreationDate,2022-06-17T01:32:23+08:00*%
%TF.ProjectId,Plate,506c6174-652e-46b6-9963-61645f706362,rev?*%
%TF.SameCoordinates,PX4bb2a98PY4bb2a98*%
%TF.FileFunction,Copper,L1,Top*%
%TF.FilePolarity,Positive*%
%FSLAX46Y46*%
G04 Gerber Fmt 4.6, Leading zero omitted, Abs format (unit mm)*
G04 Created by KiCad (PCBNEW (6.0.5-0)) date 2022-06-17 01:32:23*
%MOMM*%
%LPD*%
G01*
G04 APERTURE LIST*
G04 APERTURE END LIST*
%TA.AperFunction,NonConductor*%
G36*
X57120018Y59180000D02*
G01*
X57134851Y59177690D01*
X57134855Y59177690D01*
X57143724Y59176309D01*
X57152626Y59177473D01*
X57152629Y59177473D01*
X57160012Y59178439D01*
X57184591Y59179233D01*
X57211442Y59177473D01*
X57406922Y59164660D01*
X57423262Y59162509D01*
X57545477Y59138199D01*
X57667696Y59113888D01*
X57683606Y59109625D01*
X57919600Y59029516D01*
X57934826Y59023209D01*
X58158342Y58912984D01*
X58172616Y58904743D01*
X58379829Y58766287D01*
X58392905Y58756254D01*
X58580278Y58591932D01*
X58591932Y58580278D01*
X58756254Y58392905D01*
X58766287Y58379829D01*
X58904743Y58172616D01*
X58912984Y58158342D01*
X59023209Y57934826D01*
X59029515Y57919602D01*
X59109625Y57683606D01*
X59113889Y57667693D01*
X59162509Y57423262D01*
X59164660Y57406922D01*
X59178763Y57191764D01*
X59177733Y57168650D01*
X59177690Y57165146D01*
X59176309Y57156276D01*
X59177473Y57147374D01*
X59177473Y57147372D01*
X59180436Y57124717D01*
X59181500Y57108379D01*
X59181500Y-38050633D01*
X59180000Y-38070018D01*
X59177690Y-38084851D01*
X59177690Y-38084855D01*
X59176309Y-38093724D01*
X59177473Y-38102626D01*
X59177473Y-38102629D01*
X59178439Y-38110012D01*
X59179233Y-38134591D01*
X59164660Y-38356922D01*
X59162509Y-38373262D01*
X59113889Y-38617693D01*
X59109625Y-38633606D01*
X59075312Y-38734689D01*
X59029516Y-38869600D01*
X59023209Y-38884826D01*
X58912984Y-39108342D01*
X58904743Y-39122616D01*
X58766287Y-39329829D01*
X58756254Y-39342905D01*
X58591932Y-39530278D01*
X58580278Y-39541932D01*
X58392905Y-39706254D01*
X58379829Y-39716287D01*
X58172616Y-39854743D01*
X58158342Y-39862984D01*
X57934826Y-39973209D01*
X57919602Y-39979515D01*
X57683606Y-40059625D01*
X57667696Y-40063888D01*
X57545478Y-40088199D01*
X57423262Y-40112509D01*
X57406922Y-40114660D01*
X57258134Y-40124413D01*
X57191763Y-40128763D01*
X57168650Y-40127733D01*
X57165146Y-40127690D01*
X57156276Y-40126309D01*
X57147374Y-40127473D01*
X57147372Y-40127473D01*
X57133915Y-40129233D01*
X57124714Y-40130436D01*
X57108379Y-40131500D01*
X-57100633Y-40131500D01*
X-57120018Y-40130000D01*
X-57134851Y-40127690D01*
X-57134855Y-40127690D01*
X-57143724Y-40126309D01*
X-57152626Y-40127473D01*
X-57152629Y-40127473D01*
X-57160012Y-40128439D01*
X-57184591Y-40129233D01*
X-57229201Y-40126309D01*
X-57406922Y-40114660D01*
X-57423262Y-40112509D01*
X-57545478Y-40088199D01*
X-57667696Y-40063888D01*
X-57683606Y-40059625D01*
X-57919602Y-39979515D01*
X-57934826Y-39973209D01*
X-58158342Y-39862984D01*
X-58172616Y-39854743D01*
X-58379829Y-39716287D01*
X-58392905Y-39706254D01*
X-58580278Y-39541932D01*
X-58591932Y-39530278D01*
X-58756254Y-39342905D01*
X-58766287Y-39329829D01*
X-58904743Y-39122616D01*
X-58912984Y-39108342D01*
X-59023209Y-38884826D01*
X-59029516Y-38869600D01*
X-59075312Y-38734689D01*
X-59109625Y-38633606D01*
X-59113889Y-38617693D01*
X-59162509Y-38373262D01*
X-59164660Y-38356922D01*
X-59178524Y-38145407D01*
X-59177350Y-38122232D01*
X-59177666Y-38122204D01*
X-59177230Y-38117344D01*
X-59176424Y-38112552D01*
X-59176271Y-38100000D01*
X-59180227Y-38072376D01*
X-59181500Y-38054514D01*
X-59181500Y-34568724D01*
X-55138691Y-34568724D01*
X-55137208Y-34580062D01*
X-55136465Y-34587406D01*
X-55121959Y-34790230D01*
X-55076092Y-35001079D01*
X-55074520Y-35005294D01*
X-55074519Y-35005297D01*
X-55052657Y-35063910D01*
X-55000685Y-35203254D01*
X-54897272Y-35392640D01*
X-54767960Y-35565381D01*
X-54615381Y-35717960D01*
X-54442640Y-35847272D01*
X-54253254Y-35950685D01*
X-54152167Y-35988388D01*
X-54055297Y-36024519D01*
X-54055294Y-36024520D01*
X-54051079Y-36026092D01*
X-54046689Y-36027047D01*
X-54046682Y-36027049D01*
X-53891771Y-36060747D01*
X-53840230Y-36071959D01*
X-53665465Y-36084459D01*
X-53653554Y-36085884D01*
X-53642352Y-36087769D01*
X-53642345Y-36087770D01*
X-53637552Y-36088576D01*
X-53631276Y-36088652D01*
X-53629860Y-36088670D01*
X-53629857Y-36088670D01*
X-53625000Y-36088729D01*
X-53597376Y-36084773D01*
X-53579514Y-36083500D01*
X-41678250Y-36083500D01*
X-41657345Y-36085246D01*
X-41642344Y-36087770D01*
X-41642341Y-36087770D01*
X-41637552Y-36088576D01*
X-41631313Y-36088652D01*
X-41629860Y-36088670D01*
X-41629857Y-36088670D01*
X-41625000Y-36088729D01*
X-41610210Y-36086611D01*
X-41601357Y-36085662D01*
X-41414258Y-36072280D01*
X-41409770Y-36071959D01*
X-41358229Y-36060747D01*
X-41203318Y-36027049D01*
X-41203311Y-36027047D01*
X-41198921Y-36026092D01*
X-41194706Y-36024520D01*
X-41194703Y-36024519D01*
X-41097833Y-35988388D01*
X-40996746Y-35950685D01*
X-40807360Y-35847272D01*
X-40634619Y-35717960D01*
X-40482040Y-35565381D01*
X-40352728Y-35392640D01*
X-40249315Y-35203254D01*
X-40197343Y-35063910D01*
X-40175481Y-35005297D01*
X-40175480Y-35005294D01*
X-40173908Y-35001079D01*
X-40128041Y-34790230D01*
X-40115541Y-34615465D01*
X-40114116Y-34603554D01*
X-40112231Y-34592352D01*
X-40112230Y-34592345D01*
X-40111424Y-34587552D01*
X-40111347Y-34581276D01*
X-40111330Y-34579860D01*
X-40111330Y-34579857D01*
X-40111271Y-34575000D01*
X-40112170Y-34568724D01*
X-36088691Y-34568724D01*
X-36087208Y-34580062D01*
X-36086465Y-34587406D01*
X-36071959Y-34790230D01*
X-36026092Y-35001079D01*
X-36024520Y-35005294D01*
X-36024519Y-35005297D01*
X-36002657Y-35063910D01*
X-35950685Y-35203254D01*
X-35847272Y-35392640D01*
X-35717960Y-35565381D01*
X-35565381Y-35717960D01*
X-35392640Y-35847272D01*
X-35203254Y-35950685D01*
X-35102167Y-35988388D01*
X-35005297Y-36024519D01*
X-35005294Y-36024520D01*
X-35001079Y-36026092D01*
X-34996689Y-36027047D01*
X-34996682Y-36027049D01*
X-34841771Y-36060747D01*
X-34790230Y-36071959D01*
X-34615465Y-36084459D01*
X-34603554Y-36085884D01*
X-34592352Y-36087769D01*
X-34592345Y-36087770D01*
X-34587552Y-36088576D01*
X-34581276Y-36088652D01*
X-34579860Y-36088670D01*
X-34579857Y-36088670D01*
X-34575000Y-36088729D01*
X-34547376Y-36084773D01*
X-34529514Y-36083500D01*
X-22628250Y-36083500D01*
X-22607345Y-36085246D01*
X-22592344Y-36087770D01*
X-22592341Y-36087770D01*
X-22587552Y-36088576D01*
X-22581313Y-36088652D01*
X-22579860Y-36088670D01*
X-22579857Y-36088670D01*
X-22575000Y-36088729D01*
X-22560210Y-36086611D01*
X-22551357Y-36085662D01*
X-22364258Y-36072280D01*
X-22359770Y-36071959D01*
X-22308229Y-36060747D01*
X-22153318Y-36027049D01*
X-22153311Y-36027047D01*
X-22148921Y-36026092D01*
X-22144706Y-36024520D01*
X-22144703Y-36024519D01*
X-22047833Y-35988388D01*
X-21946746Y-35950685D01*
X-21757360Y-35847272D01*
X-21584619Y-35717960D01*
X-21432040Y-35565381D01*
X-21302728Y-35392640D01*
X-21199315Y-35203254D01*
X-21147343Y-35063910D01*
X-21125481Y-35005297D01*
X-21125480Y-35005294D01*
X-21123908Y-35001079D01*
X-21078041Y-34790230D01*
X-21065541Y-34615465D01*
X-21064116Y-34603554D01*
X-21062231Y-34592352D01*
X-21062230Y-34592345D01*
X-21061424Y-34587552D01*
X-21061347Y-34581276D01*
X-21061330Y-34579860D01*
X-21061330Y-34579857D01*
X-21061271Y-34575000D01*
X-21062170Y-34568724D01*
X-17038691Y-34568724D01*
X-17037208Y-34580062D01*
X-17036465Y-34587406D01*
X-17021959Y-34790230D01*
X-16976092Y-35001079D01*
X-16974520Y-35005294D01*
X-16974519Y-35005297D01*
X-16952657Y-35063910D01*
X-16900685Y-35203254D01*
X-16797272Y-35392640D01*
X-16667960Y-35565381D01*
X-16515381Y-35717960D01*
X-16342640Y-35847272D01*
X-16153254Y-35950685D01*
X-16052167Y-35988388D01*
X-15955297Y-36024519D01*
X-15955294Y-36024520D01*
X-15951079Y-36026092D01*
X-15946689Y-36027047D01*
X-15946682Y-36027049D01*
X-15791771Y-36060747D01*
X-15740230Y-36071959D01*
X-15565465Y-36084459D01*
X-15553554Y-36085884D01*
X-15542352Y-36087769D01*
X-15542345Y-36087770D01*
X-15537552Y-36088576D01*
X-15531276Y-36088652D01*
X-15529860Y-36088670D01*
X-15529857Y-36088670D01*
X-15525000Y-36088729D01*
X-15497376Y-36084773D01*
X-15479514Y-36083500D01*
X-3578250Y-36083500D01*
X-3557345Y-36085246D01*
X-3542344Y-36087770D01*
X-3542341Y-36087770D01*
X-3537552Y-36088576D01*
X-3531313Y-36088652D01*
X-3529860Y-36088670D01*
X-3529857Y-36088670D01*
X-3525000Y-36088729D01*
X-3510210Y-36086611D01*
X-3501357Y-36085662D01*
X-3314258Y-36072280D01*
X-3309770Y-36071959D01*
X-3258229Y-36060747D01*
X-3103318Y-36027049D01*
X-3103311Y-36027047D01*
X-3098921Y-36026092D01*
X-3094706Y-36024520D01*
X-3094703Y-36024519D01*
X-2997833Y-35988388D01*
X-2896746Y-35950685D01*
X-2707360Y-35847272D01*
X-2534619Y-35717960D01*
X-2382040Y-35565381D01*
X-2252728Y-35392640D01*
X-2149315Y-35203254D01*
X-2097343Y-35063910D01*
X-2075481Y-35005297D01*
X-2075480Y-35005294D01*
X-2073908Y-35001079D01*
X-2028041Y-34790230D01*
X-2015541Y-34615465D01*
X-2014116Y-34603554D01*
X-2012231Y-34592352D01*
X-2012230Y-34592345D01*
X-2011424Y-34587552D01*
X-2011348Y-34581276D01*
X-2011330Y-34579860D01*
X-2011330Y-34579857D01*
X-2011271Y-34575000D01*
X-2012170Y-34568724D01*
X2011309Y-34568724D01*
X2012792Y-34580062D01*
X2013535Y-34587406D01*
X2028041Y-34790230D01*
X2073908Y-35001079D01*
X2075480Y-35005294D01*
X2075481Y-35005297D01*
X2097343Y-35063910D01*
X2149315Y-35203254D01*
X2252728Y-35392640D01*
X2382040Y-35565381D01*
X2534619Y-35717960D01*
X2707360Y-35847272D01*
X2896746Y-35950685D01*
X2997833Y-35988388D01*
X3094703Y-36024519D01*
X3094706Y-36024520D01*
X3098921Y-36026092D01*
X3103311Y-36027047D01*
X3103318Y-36027049D01*
X3258229Y-36060747D01*
X3309770Y-36071959D01*
X3484535Y-36084459D01*
X3496446Y-36085884D01*
X3507648Y-36087769D01*
X3507655Y-36087770D01*
X3512448Y-36088576D01*
X3518724Y-36088652D01*
X3520140Y-36088670D01*
X3520143Y-36088670D01*
X3525000Y-36088729D01*
X3552624Y-36084773D01*
X3570486Y-36083500D01*
X15471750Y-36083500D01*
X15492655Y-36085246D01*
X15507656Y-36087770D01*
X15507659Y-36087770D01*
X15512448Y-36088576D01*
X15518687Y-36088652D01*
X15520140Y-36088670D01*
X15520143Y-36088670D01*
X15525000Y-36088729D01*
X15539790Y-36086611D01*
X15548643Y-36085662D01*
X15735742Y-36072280D01*
X15740230Y-36071959D01*
X15791771Y-36060747D01*
X15946682Y-36027049D01*
X15946689Y-36027047D01*
X15951079Y-36026092D01*
X15955294Y-36024520D01*
X15955297Y-36024519D01*
X16052167Y-35988388D01*
X16153254Y-35950685D01*
X16342640Y-35847272D01*
X16515381Y-35717960D01*
X16667960Y-35565381D01*
X16797272Y-35392640D01*
X16900685Y-35203254D01*
X16952657Y-35063910D01*
X16974519Y-35005297D01*
X16974520Y-35005294D01*
X16976092Y-35001079D01*
X17021959Y-34790230D01*
X17034459Y-34615465D01*
X17035884Y-34603554D01*
X17037769Y-34592352D01*
X17037770Y-34592345D01*
X17038576Y-34587552D01*
X17038652Y-34581276D01*
X17038670Y-34579860D01*
X17038670Y-34579857D01*
X17038729Y-34575000D01*
X17037830Y-34568724D01*
X21061309Y-34568724D01*
X21062792Y-34580062D01*
X21063535Y-34587406D01*
X21078041Y-34790230D01*
X21123908Y-35001079D01*
X21125480Y-35005294D01*
X21125481Y-35005297D01*
X21147343Y-35063910D01*
X21199315Y-35203254D01*
X21302728Y-35392640D01*
X21432040Y-35565381D01*
X21584619Y-35717960D01*
X21757360Y-35847272D01*
X21946746Y-35950685D01*
X22047833Y-35988388D01*
X22144703Y-36024519D01*
X22144706Y-36024520D01*
X22148921Y-36026092D01*
X22153311Y-36027047D01*
X22153318Y-36027049D01*
X22308229Y-36060747D01*
X22359770Y-36071959D01*
X22534535Y-36084459D01*
X22546446Y-36085884D01*
X22557648Y-36087769D01*
X22557655Y-36087770D01*
X22562448Y-36088576D01*
X22568724Y-36088652D01*
X22570140Y-36088670D01*
X22570143Y-36088670D01*
X22575000Y-36088729D01*
X22602624Y-36084773D01*
X22620486Y-36083500D01*
X34521750Y-36083500D01*
X34542655Y-36085246D01*
X34557656Y-36087770D01*
X34557659Y-36087770D01*
X34562448Y-36088576D01*
X34568687Y-36088652D01*
X34570140Y-36088670D01*
X34570143Y-36088670D01*
X34575000Y-36088729D01*
X34589790Y-36086611D01*
X34598643Y-36085662D01*
X34785742Y-36072280D01*
X34790230Y-36071959D01*
X34841771Y-36060747D01*
X34996682Y-36027049D01*
X34996689Y-36027047D01*
X35001079Y-36026092D01*
X35005294Y-36024520D01*
X35005297Y-36024519D01*
X35102167Y-35988388D01*
X35203254Y-35950685D01*
X35392640Y-35847272D01*
X35565381Y-35717960D01*
X35717960Y-35565381D01*
X35847272Y-35392640D01*
X35950685Y-35203254D01*
X36002657Y-35063910D01*
X36024519Y-35005297D01*
X36024520Y-35005294D01*
X36026092Y-35001079D01*
X36071959Y-34790230D01*
X36084459Y-34615465D01*
X36085884Y-34603554D01*
X36087769Y-34592352D01*
X36087770Y-34592345D01*
X36088576Y-34587552D01*
X36088652Y-34581276D01*
X36088670Y-34579860D01*
X36088670Y-34579857D01*
X36088729Y-34575000D01*
X36087830Y-34568724D01*
X40111309Y-34568724D01*
X40112792Y-34580062D01*
X40113535Y-34587406D01*
X40128041Y-34790230D01*
X40173908Y-35001079D01*
X40175480Y-35005294D01*
X40175481Y-35005297D01*
X40197343Y-35063910D01*
X40249315Y-35203254D01*
X40352728Y-35392640D01*
X40482040Y-35565381D01*
X40634619Y-35717960D01*
X40807360Y-35847272D01*
X40996746Y-35950685D01*
X41097833Y-35988388D01*
X41194703Y-36024519D01*
X41194706Y-36024520D01*
X41198921Y-36026092D01*
X41203311Y-36027047D01*
X41203318Y-36027049D01*
X41358229Y-36060747D01*
X41409770Y-36071959D01*
X41584535Y-36084459D01*
X41596446Y-36085884D01*
X41607648Y-36087769D01*
X41607655Y-36087770D01*
X41612448Y-36088576D01*
X41618724Y-36088652D01*
X41620140Y-36088670D01*
X41620143Y-36088670D01*
X41625000Y-36088729D01*
X41652624Y-36084773D01*
X41670486Y-36083500D01*
X53571750Y-36083500D01*
X53592655Y-36085246D01*
X53607656Y-36087770D01*
X53607659Y-36087770D01*
X53612448Y-36088576D01*
X53618687Y-36088652D01*
X53620140Y-36088670D01*
X53620143Y-36088670D01*
X53625000Y-36088729D01*
X53639790Y-36086611D01*
X53648643Y-36085662D01*
X53835742Y-36072280D01*
X53840230Y-36071959D01*
X53891771Y-36060747D01*
X54046682Y-36027049D01*
X54046689Y-36027047D01*
X54051079Y-36026092D01*
X54055294Y-36024520D01*
X54055297Y-36024519D01*
X54152167Y-35988388D01*
X54253254Y-35950685D01*
X54442640Y-35847272D01*
X54615381Y-35717960D01*
X54767960Y-35565381D01*
X54897272Y-35392640D01*
X55000685Y-35203254D01*
X55052657Y-35063910D01*
X55074519Y-35005297D01*
X55074520Y-35005294D01*
X55076092Y-35001079D01*
X55121959Y-34790230D01*
X55134459Y-34615465D01*
X55135884Y-34603554D01*
X55137769Y-34592352D01*
X55137770Y-34592345D01*
X55138576Y-34587552D01*
X55138652Y-34581276D01*
X55138670Y-34579860D01*
X55138670Y-34579857D01*
X55138729Y-34575000D01*
X55134773Y-34547376D01*
X55133500Y-34529514D01*
X55133500Y-22628250D01*
X55135246Y-22607345D01*
X55137770Y-22592344D01*
X55137770Y-22592341D01*
X55138576Y-22587552D01*
X55138729Y-22575000D01*
X55136611Y-22560210D01*
X55135662Y-22551357D01*
X55122280Y-22364258D01*
X55121959Y-22359770D01*
X55076092Y-22148921D01*
X55053628Y-22088691D01*
X55002258Y-21950964D01*
X55000685Y-21946746D01*
X54897272Y-21757360D01*
X54767960Y-21584619D01*
X54615381Y-21432040D01*
X54442640Y-21302728D01*
X54253254Y-21199315D01*
X54152166Y-21161611D01*
X54055297Y-21125481D01*
X54055294Y-21125480D01*
X54051079Y-21123908D01*
X54046689Y-21122953D01*
X54046682Y-21122951D01*
X53891771Y-21089253D01*
X53840230Y-21078041D01*
X53665465Y-21065541D01*
X53653554Y-21064116D01*
X53642352Y-21062231D01*
X53642345Y-21062230D01*
X53637552Y-21061424D01*
X53631276Y-21061347D01*
X53629860Y-21061330D01*
X53629857Y-21061330D01*
X53625000Y-21061271D01*
X53605134Y-21064116D01*
X53597376Y-21065227D01*
X53579514Y-21066500D01*
X41678250Y-21066500D01*
X41657345Y-21064754D01*
X41642344Y-21062230D01*
X41642341Y-21062230D01*
X41637552Y-21061424D01*
X41631313Y-21061348D01*
X41629860Y-21061330D01*
X41629857Y-21061330D01*
X41625000Y-21061271D01*
X41610210Y-21063389D01*
X41601357Y-21064338D01*
X41414258Y-21077720D01*
X41409770Y-21078041D01*
X41358229Y-21089253D01*
X41203318Y-21122951D01*
X41203311Y-21122953D01*
X41198921Y-21123908D01*
X41194706Y-21125480D01*
X41194703Y-21125481D01*
X41097834Y-21161611D01*
X40996746Y-21199315D01*
X40807360Y-21302728D01*
X40634619Y-21432040D01*
X40482040Y-21584619D01*
X40352728Y-21757360D01*
X40249315Y-21946746D01*
X40247742Y-21950964D01*
X40196373Y-22088691D01*
X40173908Y-22148921D01*
X40128041Y-22359770D01*
X40120470Y-22465631D01*
X40114988Y-22542275D01*
X40113808Y-22552675D01*
X40112690Y-22559851D01*
X40112690Y-22559855D01*
X40111309Y-22568724D01*
X40112473Y-22577626D01*
X40112473Y-22577628D01*
X40115436Y-22600283D01*
X40116500Y-22616621D01*
X40116500Y-34525633D01*
X40115000Y-34545018D01*
X40112690Y-34559851D01*
X40112690Y-34559855D01*
X40111309Y-34568724D01*
X36087830Y-34568724D01*
X36084773Y-34547376D01*
X36083500Y-34529514D01*
X36083500Y-22628250D01*
X36085246Y-22607345D01*
X36087770Y-22592344D01*
X36087770Y-22592341D01*
X36088576Y-22587552D01*
X36088729Y-22575000D01*
X36086611Y-22560210D01*
X36085662Y-22551357D01*
X36072280Y-22364258D01*
X36071959Y-22359770D01*
X36026092Y-22148921D01*
X36003628Y-22088691D01*
X35952258Y-21950964D01*
X35950685Y-21946746D01*
X35847272Y-21757360D01*
X35717960Y-21584619D01*
X35565381Y-21432040D01*
X35392640Y-21302728D01*
X35203254Y-21199315D01*
X35102166Y-21161611D01*
X35005297Y-21125481D01*
X35005294Y-21125480D01*
X35001079Y-21123908D01*
X34996689Y-21122953D01*
X34996682Y-21122951D01*
X34841771Y-21089253D01*
X34790230Y-21078041D01*
X34615465Y-21065541D01*
X34603554Y-21064116D01*
X34592352Y-21062231D01*
X34592345Y-21062230D01*
X34587552Y-21061424D01*
X34581276Y-21061347D01*
X34579860Y-21061330D01*
X34579857Y-21061330D01*
X34575000Y-21061271D01*
X34555134Y-21064116D01*
X34547376Y-21065227D01*
X34529514Y-21066500D01*
X22628250Y-21066500D01*
X22607345Y-21064754D01*
X22592344Y-21062230D01*
X22592341Y-21062230D01*
X22587552Y-21061424D01*
X22581313Y-21061348D01*
X22579860Y-21061330D01*
X22579857Y-21061330D01*
X22575000Y-21061271D01*
X22560210Y-21063389D01*
X22551357Y-21064338D01*
X22364258Y-21077720D01*
X22359770Y-21078041D01*
X22308229Y-21089253D01*
X22153318Y-21122951D01*
X22153311Y-21122953D01*
X22148921Y-21123908D01*
X22144706Y-21125480D01*
X22144703Y-21125481D01*
X22047834Y-21161611D01*
X21946746Y-21199315D01*
X21757360Y-21302728D01*
X21584619Y-21432040D01*
X21432040Y-21584619D01*
X21302728Y-21757360D01*
X21199315Y-21946746D01*
X21197742Y-21950964D01*
X21146373Y-22088691D01*
X21123908Y-22148921D01*
X21078041Y-22359770D01*
X21070470Y-22465631D01*
X21064988Y-22542275D01*
X21063808Y-22552675D01*
X21062690Y-22559851D01*
X21062690Y-22559855D01*
X21061309Y-22568724D01*
X21062473Y-22577626D01*
X21062473Y-22577628D01*
X21065436Y-22600283D01*
X21066500Y-22616621D01*
X21066500Y-34525633D01*
X21065000Y-34545018D01*
X21062690Y-34559851D01*
X21062690Y-34559855D01*
X21061309Y-34568724D01*
X17037830Y-34568724D01*
X17034773Y-34547376D01*
X17033500Y-34529514D01*
X17033500Y-22628250D01*
X17035246Y-22607345D01*
X17037770Y-22592344D01*
X17037770Y-22592341D01*
X17038576Y-22587552D01*
X17038729Y-22575000D01*
X17036611Y-22560210D01*
X17035662Y-22551357D01*
X17022280Y-22364258D01*
X17021959Y-22359770D01*
X16976092Y-22148921D01*
X16953628Y-22088691D01*
X16902258Y-21950964D01*
X16900685Y-21946746D01*
X16797272Y-21757360D01*
X16667960Y-21584619D01*
X16515381Y-21432040D01*
X16342640Y-21302728D01*
X16153254Y-21199315D01*
X16052166Y-21161611D01*
X15955297Y-21125481D01*
X15955294Y-21125480D01*
X15951079Y-21123908D01*
X15946689Y-21122953D01*
X15946682Y-21122951D01*
X15791771Y-21089253D01*
X15740230Y-21078041D01*
X15565465Y-21065541D01*
X15553554Y-21064116D01*
X15542352Y-21062231D01*
X15542345Y-21062230D01*
X15537552Y-21061424D01*
X15531276Y-21061347D01*
X15529860Y-21061330D01*
X15529857Y-21061330D01*
X15525000Y-21061271D01*
X15505134Y-21064116D01*
X15497376Y-21065227D01*
X15479514Y-21066500D01*
X3578250Y-21066500D01*
X3557345Y-21064754D01*
X3542344Y-21062230D01*
X3542341Y-21062230D01*
X3537552Y-21061424D01*
X3531313Y-21061348D01*
X3529860Y-21061330D01*
X3529857Y-21061330D01*
X3525000Y-21061271D01*
X3510210Y-21063389D01*
X3501357Y-21064338D01*
X3314258Y-21077720D01*
X3309770Y-21078041D01*
X3258229Y-21089253D01*
X3103318Y-21122951D01*
X3103311Y-21122953D01*
X3098921Y-21123908D01*
X3094706Y-21125480D01*
X3094703Y-21125481D01*
X2997834Y-21161611D01*
X2896746Y-21199315D01*
X2707360Y-21302728D01*
X2534619Y-21432040D01*
X2382040Y-21584619D01*
X2252728Y-21757360D01*
X2149315Y-21946746D01*
X2147742Y-21950964D01*
X2096373Y-22088691D01*
X2073908Y-22148921D01*
X2028041Y-22359770D01*
X2020470Y-22465631D01*
X2014988Y-22542275D01*
X2013808Y-22552675D01*
X2012690Y-22559851D01*
X2012690Y-22559855D01*
X2011309Y-22568724D01*
X2012473Y-22577626D01*
X2012473Y-22577628D01*
X2015436Y-22600283D01*
X2016500Y-22616621D01*
X2016500Y-34525633D01*
X2015000Y-34545018D01*
X2012690Y-34559851D01*
X2012690Y-34559855D01*
X2011309Y-34568724D01*
X-2012170Y-34568724D01*
X-2015227Y-34547376D01*
X-2016500Y-34529514D01*
X-2016500Y-22628250D01*
X-2014754Y-22607345D01*
X-2012230Y-22592344D01*
X-2012230Y-22592341D01*
X-2011424Y-22587552D01*
X-2011271Y-22575000D01*
X-2013389Y-22560210D01*
X-2014338Y-22551357D01*
X-2027720Y-22364258D01*
X-2028041Y-22359770D01*
X-2073908Y-22148921D01*
X-2096372Y-22088691D01*
X-2147742Y-21950964D01*
X-2149315Y-21946746D01*
X-2252728Y-21757360D01*
X-2382040Y-21584619D01*
X-2534619Y-21432040D01*
X-2707360Y-21302728D01*
X-2896746Y-21199315D01*
X-2997834Y-21161611D01*
X-3094703Y-21125481D01*
X-3094706Y-21125480D01*
X-3098921Y-21123908D01*
X-3103311Y-21122953D01*
X-3103318Y-21122951D01*
X-3258229Y-21089253D01*
X-3309770Y-21078041D01*
X-3484535Y-21065541D01*
X-3496446Y-21064116D01*
X-3507648Y-21062231D01*
X-3507655Y-21062230D01*
X-3512448Y-21061424D01*
X-3518724Y-21061347D01*
X-3520140Y-21061330D01*
X-3520143Y-21061330D01*
X-3525000Y-21061271D01*
X-3544866Y-21064116D01*
X-3552624Y-21065227D01*
X-3570486Y-21066500D01*
X-15471750Y-21066500D01*
X-15492655Y-21064754D01*
X-15507656Y-21062230D01*
X-15507659Y-21062230D01*
X-15512448Y-21061424D01*
X-15518687Y-21061348D01*
X-15520140Y-21061330D01*
X-15520143Y-21061330D01*
X-15525000Y-21061271D01*
X-15539790Y-21063389D01*
X-15548643Y-21064338D01*
X-15735742Y-21077720D01*
X-15740230Y-21078041D01*
X-15791771Y-21089253D01*
X-15946682Y-21122951D01*
X-15946689Y-21122953D01*
X-15951079Y-21123908D01*
X-15955294Y-21125480D01*
X-15955297Y-21125481D01*
X-16052166Y-21161611D01*
X-16153254Y-21199315D01*
X-16342640Y-21302728D01*
X-16515381Y-21432040D01*
X-16667960Y-21584619D01*
X-16797272Y-21757360D01*
X-16900685Y-21946746D01*
X-16902258Y-21950964D01*
X-16953627Y-22088691D01*
X-16976092Y-22148921D01*
X-17021959Y-22359770D01*
X-17029530Y-22465631D01*
X-17035012Y-22542275D01*
X-17036192Y-22552675D01*
X-17037310Y-22559851D01*
X-17037310Y-22559855D01*
X-17038691Y-22568724D01*
X-17037527Y-22577626D01*
X-17037527Y-22577628D01*
X-17034564Y-22600283D01*
X-17033500Y-22616621D01*
X-17033500Y-34525633D01*
X-17035000Y-34545018D01*
X-17037310Y-34559851D01*
X-17037310Y-34559855D01*
X-17038691Y-34568724D01*
X-21062170Y-34568724D01*
X-21065227Y-34547376D01*
X-21066500Y-34529514D01*
X-21066500Y-22628250D01*
X-21064754Y-22607345D01*
X-21062230Y-22592344D01*
X-21062230Y-22592341D01*
X-21061424Y-22587552D01*
X-21061271Y-22575000D01*
X-21063389Y-22560210D01*
X-21064338Y-22551357D01*
X-21077720Y-22364258D01*
X-21078041Y-22359770D01*
X-21123908Y-22148921D01*
X-21146372Y-22088691D01*
X-21197742Y-21950964D01*
X-21199315Y-21946746D01*
X-21302728Y-21757360D01*
X-21432040Y-21584619D01*
X-21584619Y-21432040D01*
X-21757360Y-21302728D01*
X-21946746Y-21199315D01*
X-22047834Y-21161611D01*
X-22144703Y-21125481D01*
X-22144706Y-21125480D01*
X-22148921Y-21123908D01*
X-22153311Y-21122953D01*
X-22153318Y-21122951D01*
X-22308229Y-21089253D01*
X-22359770Y-21078041D01*
X-22534535Y-21065541D01*
X-22546446Y-21064116D01*
X-22557648Y-21062231D01*
X-22557655Y-21062230D01*
X-22562448Y-21061424D01*
X-22568724Y-21061347D01*
X-22570140Y-21061330D01*
X-22570143Y-21061330D01*
X-22575000Y-21061271D01*
X-22594866Y-21064116D01*
X-22602624Y-21065227D01*
X-22620486Y-21066500D01*
X-34521750Y-21066500D01*
X-34542655Y-21064754D01*
X-34557656Y-21062230D01*
X-34557659Y-21062230D01*
X-34562448Y-21061424D01*
X-34568687Y-21061348D01*
X-34570140Y-21061330D01*
X-34570143Y-21061330D01*
X-34575000Y-21061271D01*
X-34589790Y-21063389D01*
X-34598643Y-21064338D01*
X-34785742Y-21077720D01*
X-34790230Y-21078041D01*
X-34841771Y-21089253D01*
X-34996682Y-21122951D01*
X-34996689Y-21122953D01*
X-35001079Y-21123908D01*
X-35005294Y-21125480D01*
X-35005297Y-21125481D01*
X-35102166Y-21161611D01*
X-35203254Y-21199315D01*
X-35392640Y-21302728D01*
X-35565381Y-21432040D01*
X-35717960Y-21584619D01*
X-35847272Y-21757360D01*
X-35950685Y-21946746D01*
X-35952258Y-21950964D01*
X-36003627Y-22088691D01*
X-36026092Y-22148921D01*
X-36071959Y-22359770D01*
X-36079530Y-22465631D01*
X-36085012Y-22542275D01*
X-36086192Y-22552675D01*
X-36087310Y-22559851D01*
X-36087310Y-22559855D01*
X-36088691Y-22568724D01*
X-36087527Y-22577626D01*
X-36087527Y-22577628D01*
X-36084564Y-22600283D01*
X-36083500Y-22616621D01*
X-36083500Y-34525633D01*
X-36085000Y-34545018D01*
X-36087310Y-34559851D01*
X-36087310Y-34559855D01*
X-36088691Y-34568724D01*
X-40112170Y-34568724D01*
X-40115227Y-34547376D01*
X-40116500Y-34529514D01*
X-40116500Y-22628250D01*
X-40114754Y-22607345D01*
X-40112230Y-22592344D01*
X-40112230Y-22592341D01*
X-40111424Y-22587552D01*
X-40111271Y-22575000D01*
X-40113389Y-22560210D01*
X-40114338Y-22551357D01*
X-40127720Y-22364258D01*
X-40128041Y-22359770D01*
X-40173908Y-22148921D01*
X-40196372Y-22088691D01*
X-40247742Y-21950964D01*
X-40249315Y-21946746D01*
X-40352728Y-21757360D01*
X-40482040Y-21584619D01*
X-40634619Y-21432040D01*
X-40807360Y-21302728D01*
X-40996746Y-21199315D01*
X-41097834Y-21161611D01*
X-41194703Y-21125481D01*
X-41194706Y-21125480D01*
X-41198921Y-21123908D01*
X-41203311Y-21122953D01*
X-41203318Y-21122951D01*
X-41358229Y-21089253D01*
X-41409770Y-21078041D01*
X-41584535Y-21065541D01*
X-41596446Y-21064116D01*
X-41607648Y-21062231D01*
X-41607655Y-21062230D01*
X-41612448Y-21061424D01*
X-41618724Y-21061347D01*
X-41620140Y-21061330D01*
X-41620143Y-21061330D01*
X-41625000Y-21061271D01*
X-41644866Y-21064116D01*
X-41652624Y-21065227D01*
X-41670486Y-21066500D01*
X-53571750Y-21066500D01*
X-53592655Y-21064754D01*
X-53607656Y-21062230D01*
X-53607659Y-21062230D01*
X-53612448Y-21061424D01*
X-53618687Y-21061348D01*
X-53620140Y-21061330D01*
X-53620143Y-21061330D01*
X-53625000Y-21061271D01*
X-53639790Y-21063389D01*
X-53648643Y-21064338D01*
X-53835742Y-21077720D01*
X-53840230Y-21078041D01*
X-53891771Y-21089253D01*
X-54046682Y-21122951D01*
X-54046689Y-21122953D01*
X-54051079Y-21123908D01*
X-54055294Y-21125480D01*
X-54055297Y-21125481D01*
X-54152166Y-21161611D01*
X-54253254Y-21199315D01*
X-54442640Y-21302728D01*
X-54615381Y-21432040D01*
X-54767960Y-21584619D01*
X-54897272Y-21757360D01*
X-55000685Y-21946746D01*
X-55002258Y-21950964D01*
X-55053627Y-22088691D01*
X-55076092Y-22148921D01*
X-55121959Y-22359770D01*
X-55129530Y-22465631D01*
X-55135012Y-22542275D01*
X-55136192Y-22552675D01*
X-55137310Y-22559851D01*
X-55137310Y-22559855D01*
X-55138691Y-22568724D01*
X-55137527Y-22577626D01*
X-55137527Y-22577628D01*
X-55134564Y-22600283D01*
X-55133500Y-22616621D01*
X-55133500Y-34525633D01*
X-55135000Y-34545018D01*
X-55137310Y-34559851D01*
X-55137310Y-34559855D01*
X-55138691Y-34568724D01*
X-59181500Y-34568724D01*
X-59181500Y-19092277D01*
X-39962991Y-19092277D01*
X-39937375Y-19360769D01*
X-39936290Y-19365203D01*
X-39936289Y-19365209D01*
X-39874355Y-19618312D01*
X-39873269Y-19622750D01*
X-39772015Y-19872733D01*
X-39635735Y-20105482D01*
X-39632882Y-20109049D01*
X-39515314Y-20256060D01*
X-39467284Y-20316119D01*
X-39270191Y-20500234D01*
X-39048584Y-20653968D01*
X-39044501Y-20655999D01*
X-39044498Y-20656001D01*
X-38928987Y-20713466D01*
X-38807106Y-20774101D01*
X-38802772Y-20775522D01*
X-38802769Y-20775523D01*
X-38555147Y-20856698D01*
X-38555141Y-20856699D01*
X-38550814Y-20858118D01*
X-38546323Y-20858898D01*
X-38546322Y-20858898D01*
X-38288860Y-20903601D01*
X-38288852Y-20903602D01*
X-38285079Y-20904257D01*
X-38281242Y-20904448D01*
X-38201422Y-20908422D01*
X-38201414Y-20908422D01*
X-38199851Y-20908500D01*
X-38031488Y-20908500D01*
X-38029220Y-20908335D01*
X-38029208Y-20908335D01*
X-37898116Y-20898823D01*
X-37830996Y-20893953D01*
X-37826541Y-20892969D01*
X-37826538Y-20892969D01*
X-37572088Y-20836791D01*
X-37572084Y-20836790D01*
X-37567628Y-20835806D01*
X-37441520Y-20788028D01*
X-37319682Y-20741868D01*
X-37319679Y-20741867D01*
X-37315412Y-20740250D01*
X-37079632Y-20609286D01*
X-36865227Y-20445657D01*
X-36676688Y-20252792D01*
X-36517966Y-20034730D01*
X-36434810Y-19876676D01*
X-36394510Y-19800079D01*
X-36394507Y-19800073D01*
X-36392385Y-19796039D01*
X-36329622Y-19618312D01*
X-36304098Y-19546033D01*
X-36304098Y-19546032D01*
X-36302575Y-19541720D01*
X-36250419Y-19277100D01*
X-36241218Y-19092277D01*
X36237009Y-19092277D01*
X36262625Y-19360769D01*
X36263710Y-19365203D01*
X36263711Y-19365209D01*
X36325645Y-19618312D01*
X36326731Y-19622750D01*
X36427985Y-19872733D01*
X36564265Y-20105482D01*
X36567118Y-20109049D01*
X36684686Y-20256060D01*
X36732716Y-20316119D01*
X36929809Y-20500234D01*
X37151416Y-20653968D01*
X37155499Y-20655999D01*
X37155502Y-20656001D01*
X37271013Y-20713466D01*
X37392894Y-20774101D01*
X37397228Y-20775522D01*
X37397231Y-20775523D01*
X37644853Y-20856698D01*
X37644859Y-20856699D01*
X37649186Y-20858118D01*
X37653677Y-20858898D01*
X37653678Y-20858898D01*
X37911140Y-20903601D01*
X37911148Y-20903602D01*
X37914921Y-20904257D01*
X37918758Y-20904448D01*
X37998578Y-20908422D01*
X37998586Y-20908422D01*
X38000149Y-20908500D01*
X38168512Y-20908500D01*
X38170780Y-20908335D01*
X38170792Y-20908335D01*
X38301884Y-20898823D01*
X38369004Y-20893953D01*
X38373459Y-20892969D01*
X38373462Y-20892969D01*
X38627912Y-20836791D01*
X38627916Y-20836790D01*
X38632372Y-20835806D01*
X38758480Y-20788028D01*
X38880318Y-20741868D01*
X38880321Y-20741867D01*
X38884588Y-20740250D01*
X39120368Y-20609286D01*
X39334773Y-20445657D01*
X39523312Y-20252792D01*
X39682034Y-20034730D01*
X39765190Y-19876676D01*
X39805490Y-19800079D01*
X39805493Y-19800073D01*
X39807615Y-19796039D01*
X39870378Y-19618312D01*
X39895902Y-19546033D01*
X39895902Y-19546032D01*
X39897425Y-19541720D01*
X39949581Y-19277100D01*
X39958782Y-19092277D01*
X39962764Y-19012292D01*
X39962764Y-19012286D01*
X39962991Y-19007723D01*
X39937375Y-18739231D01*
X39892042Y-18553967D01*
X39874355Y-18481688D01*
X39873269Y-18477250D01*
X39772015Y-18227267D01*
X39635735Y-17994518D01*
X39517928Y-17847208D01*
X39470136Y-17787447D01*
X39470135Y-17787445D01*
X39467284Y-17783881D01*
X39270191Y-17599766D01*
X39048584Y-17446032D01*
X39044501Y-17444001D01*
X39044498Y-17443999D01*
X38879606Y-17361967D01*
X38807106Y-17325899D01*
X38802772Y-17324478D01*
X38802769Y-17324477D01*
X38555147Y-17243302D01*
X38555141Y-17243301D01*
X38550814Y-17241882D01*
X38546322Y-17241102D01*
X38288860Y-17196399D01*
X38288852Y-17196398D01*
X38285079Y-17195743D01*
X38273817Y-17195182D01*
X38201422Y-17191578D01*
X38201414Y-17191578D01*
X38199851Y-17191500D01*
X38031488Y-17191500D01*
X38029220Y-17191665D01*
X38029208Y-17191665D01*
X37898116Y-17201177D01*
X37830996Y-17206047D01*
X37826541Y-17207031D01*
X37826538Y-17207031D01*
X37572088Y-17263209D01*
X37572084Y-17263210D01*
X37567628Y-17264194D01*
X37441520Y-17311972D01*
X37319682Y-17358132D01*
X37319679Y-17358133D01*
X37315412Y-17359750D01*
X37079632Y-17490714D01*
X36865227Y-17654343D01*
X36676688Y-17847208D01*
X36517966Y-18065270D01*
X36515844Y-18069304D01*
X36394510Y-18299921D01*
X36394507Y-18299927D01*
X36392385Y-18303961D01*
X36390865Y-18308266D01*
X36390863Y-18308270D01*
X36304098Y-18553967D01*
X36302575Y-18558280D01*
X36250419Y-18822900D01*
X36250192Y-18827453D01*
X36250192Y-18827456D01*
X36240991Y-19012292D01*
X36237009Y-19092277D01*
X-36241218Y-19092277D01*
X-36237236Y-19012292D01*
X-36237236Y-19012286D01*
X-36237009Y-19007723D01*
X-36262625Y-18739231D01*
X-36307958Y-18553967D01*
X-36325645Y-18481688D01*
X-36326731Y-18477250D01*
X-36427985Y-18227267D01*
X-36564265Y-17994518D01*
X-36682072Y-17847208D01*
X-36729864Y-17787447D01*
X-36729865Y-17787445D01*
X-36732716Y-17783881D01*
X-36929809Y-17599766D01*
X-37151416Y-17446032D01*
X-37155499Y-17444001D01*
X-37155502Y-17443999D01*
X-37320394Y-17361967D01*
X-37392894Y-17325899D01*
X-37397228Y-17324478D01*
X-37397231Y-17324477D01*
X-37644853Y-17243302D01*
X-37644859Y-17243301D01*
X-37649186Y-17241882D01*
X-37653678Y-17241102D01*
X-37911140Y-17196399D01*
X-37911148Y-17196398D01*
X-37914921Y-17195743D01*
X-37926183Y-17195182D01*
X-37998578Y-17191578D01*
X-37998586Y-17191578D01*
X-38000149Y-17191500D01*
X-38168512Y-17191500D01*
X-38170780Y-17191665D01*
X-38170792Y-17191665D01*
X-38301884Y-17201177D01*
X-38369004Y-17206047D01*
X-38373459Y-17207031D01*
X-38373462Y-17207031D01*
X-38627912Y-17263209D01*
X-38627916Y-17263210D01*
X-38632372Y-17264194D01*
X-38758480Y-17311972D01*
X-38880318Y-17358132D01*
X-38880321Y-17358133D01*
X-38884588Y-17359750D01*
X-39120368Y-17490714D01*
X-39334773Y-17654343D01*
X-39523312Y-17847208D01*
X-39682034Y-18065270D01*
X-39684156Y-18069304D01*
X-39805490Y-18299921D01*
X-39805493Y-18299927D01*
X-39807615Y-18303961D01*
X-39809135Y-18308266D01*
X-39809137Y-18308270D01*
X-39895902Y-18553967D01*
X-39897425Y-18558280D01*
X-39949581Y-18822900D01*
X-39949808Y-18827453D01*
X-39949808Y-18827456D01*
X-39959009Y-19012292D01*
X-39962991Y-19092277D01*
X-59181500Y-19092277D01*
X-59181500Y-15518724D01*
X-55138691Y-15518724D01*
X-55137208Y-15530062D01*
X-55136465Y-15537406D01*
X-55121959Y-15740230D01*
X-55076092Y-15951079D01*
X-55074520Y-15955294D01*
X-55074519Y-15955297D01*
X-55052657Y-16013910D01*
X-55000685Y-16153254D01*
X-54897272Y-16342640D01*
X-54767960Y-16515381D01*
X-54615381Y-16667960D01*
X-54442640Y-16797272D01*
X-54253254Y-16900685D01*
X-54152166Y-16938389D01*
X-54055297Y-16974519D01*
X-54055294Y-16974520D01*
X-54051079Y-16976092D01*
X-54046689Y-16977047D01*
X-54046682Y-16977049D01*
X-53891771Y-17010747D01*
X-53840230Y-17021959D01*
X-53665465Y-17034459D01*
X-53653554Y-17035884D01*
X-53642352Y-17037769D01*
X-53642345Y-17037770D01*
X-53637552Y-17038576D01*
X-53631276Y-17038652D01*
X-53629860Y-17038670D01*
X-53629857Y-17038670D01*
X-53625000Y-17038729D01*
X-53597376Y-17034773D01*
X-53579514Y-17033500D01*
X-41678250Y-17033500D01*
X-41657345Y-17035246D01*
X-41642344Y-17037770D01*
X-41642341Y-17037770D01*
X-41637552Y-17038576D01*
X-41631313Y-17038652D01*
X-41629860Y-17038670D01*
X-41629857Y-17038670D01*
X-41625000Y-17038729D01*
X-41610210Y-17036611D01*
X-41601357Y-17035662D01*
X-41414258Y-17022280D01*
X-41409770Y-17021959D01*
X-41358229Y-17010747D01*
X-41203318Y-16977049D01*
X-41203311Y-16977047D01*
X-41198921Y-16976092D01*
X-41194706Y-16974520D01*
X-41194703Y-16974519D01*
X-41097834Y-16938389D01*
X-40996746Y-16900685D01*
X-40807360Y-16797272D01*
X-40634619Y-16667960D01*
X-40482040Y-16515381D01*
X-40352728Y-16342640D01*
X-40249315Y-16153254D01*
X-40197343Y-16013910D01*
X-40175481Y-15955297D01*
X-40175480Y-15955294D01*
X-40173908Y-15951079D01*
X-40128041Y-15740230D01*
X-40115541Y-15565465D01*
X-40114116Y-15553554D01*
X-40112231Y-15542352D01*
X-40112230Y-15542345D01*
X-40111424Y-15537552D01*
X-40111348Y-15531276D01*
X-40111330Y-15529860D01*
X-40111330Y-15529857D01*
X-40111271Y-15525000D01*
X-40112170Y-15518724D01*
X-36088691Y-15518724D01*
X-36087208Y-15530062D01*
X-36086465Y-15537406D01*
X-36071959Y-15740230D01*
X-36026092Y-15951079D01*
X-36024520Y-15955294D01*
X-36024519Y-15955297D01*
X-36002657Y-16013910D01*
X-35950685Y-16153254D01*
X-35847272Y-16342640D01*
X-35717960Y-16515381D01*
X-35565381Y-16667960D01*
X-35392640Y-16797272D01*
X-35203254Y-16900685D01*
X-35102166Y-16938389D01*
X-35005297Y-16974519D01*
X-35005294Y-16974520D01*
X-35001079Y-16976092D01*
X-34996689Y-16977047D01*
X-34996682Y-16977049D01*
X-34841771Y-17010747D01*
X-34790230Y-17021959D01*
X-34615465Y-17034459D01*
X-34603554Y-17035884D01*
X-34592352Y-17037769D01*
X-34592345Y-17037770D01*
X-34587552Y-17038576D01*
X-34581276Y-17038652D01*
X-34579860Y-17038670D01*
X-34579857Y-17038670D01*
X-34575000Y-17038729D01*
X-34547376Y-17034773D01*
X-34529514Y-17033500D01*
X-22628250Y-17033500D01*
X-22607345Y-17035246D01*
X-22592344Y-17037770D01*
X-22592341Y-17037770D01*
X-22587552Y-17038576D01*
X-22581313Y-17038652D01*
X-22579860Y-17038670D01*
X-22579857Y-17038670D01*
X-22575000Y-17038729D01*
X-22560210Y-17036611D01*
X-22551357Y-17035662D01*
X-22364258Y-17022280D01*
X-22359770Y-17021959D01*
X-22308229Y-17010747D01*
X-22153318Y-16977049D01*
X-22153311Y-16977047D01*
X-22148921Y-16976092D01*
X-22144706Y-16974520D01*
X-22144703Y-16974519D01*
X-22047834Y-16938389D01*
X-21946746Y-16900685D01*
X-21757360Y-16797272D01*
X-21584619Y-16667960D01*
X-21432040Y-16515381D01*
X-21302728Y-16342640D01*
X-21199315Y-16153254D01*
X-21147343Y-16013910D01*
X-21125481Y-15955297D01*
X-21125480Y-15955294D01*
X-21123908Y-15951079D01*
X-21078041Y-15740230D01*
X-21065541Y-15565465D01*
X-21064116Y-15553554D01*
X-21062231Y-15542352D01*
X-21062230Y-15542345D01*
X-21061424Y-15537552D01*
X-21061348Y-15531276D01*
X-21061330Y-15529860D01*
X-21061330Y-15529857D01*
X-21061271Y-15525000D01*
X-21062170Y-15518724D01*
X-17038691Y-15518724D01*
X-17037208Y-15530062D01*
X-17036465Y-15537406D01*
X-17021959Y-15740230D01*
X-16976092Y-15951079D01*
X-16974520Y-15955294D01*
X-16974519Y-15955297D01*
X-16952657Y-16013910D01*
X-16900685Y-16153254D01*
X-16797272Y-16342640D01*
X-16667960Y-16515381D01*
X-16515381Y-16667960D01*
X-16342640Y-16797272D01*
X-16153254Y-16900685D01*
X-16052166Y-16938389D01*
X-15955297Y-16974519D01*
X-15955294Y-16974520D01*
X-15951079Y-16976092D01*
X-15946689Y-16977047D01*
X-15946682Y-16977049D01*
X-15791771Y-17010747D01*
X-15740230Y-17021959D01*
X-15565465Y-17034459D01*
X-15553554Y-17035884D01*
X-15542352Y-17037769D01*
X-15542345Y-17037770D01*
X-15537552Y-17038576D01*
X-15531276Y-17038652D01*
X-15529860Y-17038670D01*
X-15529857Y-17038670D01*
X-15525000Y-17038729D01*
X-15497376Y-17034773D01*
X-15479514Y-17033500D01*
X-3578250Y-17033500D01*
X-3557345Y-17035246D01*
X-3542344Y-17037770D01*
X-3542341Y-17037770D01*
X-3537552Y-17038576D01*
X-3531313Y-17038652D01*
X-3529860Y-17038670D01*
X-3529857Y-17038670D01*
X-3525000Y-17038729D01*
X-3510210Y-17036611D01*
X-3501357Y-17035662D01*
X-3314258Y-17022280D01*
X-3309770Y-17021959D01*
X-3258229Y-17010747D01*
X-3103318Y-16977049D01*
X-3103311Y-16977047D01*
X-3098921Y-16976092D01*
X-3094706Y-16974520D01*
X-3094703Y-16974519D01*
X-2997834Y-16938389D01*
X-2896746Y-16900685D01*
X-2707360Y-16797272D01*
X-2534619Y-16667960D01*
X-2382040Y-16515381D01*
X-2252728Y-16342640D01*
X-2149315Y-16153254D01*
X-2097343Y-16013910D01*
X-2075481Y-15955297D01*
X-2075480Y-15955294D01*
X-2073908Y-15951079D01*
X-2028041Y-15740230D01*
X-2015541Y-15565465D01*
X-2014116Y-15553554D01*
X-2012231Y-15542352D01*
X-2012230Y-15542345D01*
X-2011424Y-15537552D01*
X-2011347Y-15531276D01*
X-2011330Y-15529860D01*
X-2011330Y-15529857D01*
X-2011271Y-15525000D01*
X-2012170Y-15518724D01*
X2011309Y-15518724D01*
X2012792Y-15530062D01*
X2013535Y-15537406D01*
X2028041Y-15740230D01*
X2073908Y-15951079D01*
X2075480Y-15955294D01*
X2075481Y-15955297D01*
X2097343Y-16013910D01*
X2149315Y-16153254D01*
X2252728Y-16342640D01*
X2382040Y-16515381D01*
X2534619Y-16667960D01*
X2707360Y-16797272D01*
X2896746Y-16900685D01*
X2997834Y-16938389D01*
X3094703Y-16974519D01*
X3094706Y-16974520D01*
X3098921Y-16976092D01*
X3103311Y-16977047D01*
X3103318Y-16977049D01*
X3258229Y-17010747D01*
X3309770Y-17021959D01*
X3484535Y-17034459D01*
X3496446Y-17035884D01*
X3507648Y-17037769D01*
X3507655Y-17037770D01*
X3512448Y-17038576D01*
X3518724Y-17038652D01*
X3520140Y-17038670D01*
X3520143Y-17038670D01*
X3525000Y-17038729D01*
X3552624Y-17034773D01*
X3570486Y-17033500D01*
X15471750Y-17033500D01*
X15492655Y-17035246D01*
X15507656Y-17037770D01*
X15507659Y-17037770D01*
X15512448Y-17038576D01*
X15518687Y-17038652D01*
X15520140Y-17038670D01*
X15520143Y-17038670D01*
X15525000Y-17038729D01*
X15539790Y-17036611D01*
X15548643Y-17035662D01*
X15735742Y-17022280D01*
X15740230Y-17021959D01*
X15791771Y-17010747D01*
X15946682Y-16977049D01*
X15946689Y-16977047D01*
X15951079Y-16976092D01*
X15955294Y-16974520D01*
X15955297Y-16974519D01*
X16052166Y-16938389D01*
X16153254Y-16900685D01*
X16342640Y-16797272D01*
X16515381Y-16667960D01*
X16667960Y-16515381D01*
X16797272Y-16342640D01*
X16900685Y-16153254D01*
X16952657Y-16013910D01*
X16974519Y-15955297D01*
X16974520Y-15955294D01*
X16976092Y-15951079D01*
X17021959Y-15740230D01*
X17034459Y-15565465D01*
X17035884Y-15553554D01*
X17037769Y-15542352D01*
X17037770Y-15542345D01*
X17038576Y-15537552D01*
X17038653Y-15531276D01*
X17038670Y-15529860D01*
X17038670Y-15529857D01*
X17038729Y-15525000D01*
X17037830Y-15518724D01*
X21061309Y-15518724D01*
X21062792Y-15530062D01*
X21063535Y-15537406D01*
X21078041Y-15740230D01*
X21123908Y-15951079D01*
X21125480Y-15955294D01*
X21125481Y-15955297D01*
X21147343Y-16013910D01*
X21199315Y-16153254D01*
X21302728Y-16342640D01*
X21432040Y-16515381D01*
X21584619Y-16667960D01*
X21757360Y-16797272D01*
X21946746Y-16900685D01*
X22047834Y-16938389D01*
X22144703Y-16974519D01*
X22144706Y-16974520D01*
X22148921Y-16976092D01*
X22153311Y-16977047D01*
X22153318Y-16977049D01*
X22308229Y-17010747D01*
X22359770Y-17021959D01*
X22534535Y-17034459D01*
X22546446Y-17035884D01*
X22557648Y-17037769D01*
X22557655Y-17037770D01*
X22562448Y-17038576D01*
X22568724Y-17038652D01*
X22570140Y-17038670D01*
X22570143Y-17038670D01*
X22575000Y-17038729D01*
X22602624Y-17034773D01*
X22620486Y-17033500D01*
X34521750Y-17033500D01*
X34542655Y-17035246D01*
X34557656Y-17037770D01*
X34557659Y-17037770D01*
X34562448Y-17038576D01*
X34568687Y-17038652D01*
X34570140Y-17038670D01*
X34570143Y-17038670D01*
X34575000Y-17038729D01*
X34589790Y-17036611D01*
X34598643Y-17035662D01*
X34785742Y-17022280D01*
X34790230Y-17021959D01*
X34841771Y-17010747D01*
X34996682Y-16977049D01*
X34996689Y-16977047D01*
X35001079Y-16976092D01*
X35005294Y-16974520D01*
X35005297Y-16974519D01*
X35102166Y-16938389D01*
X35203254Y-16900685D01*
X35392640Y-16797272D01*
X35565381Y-16667960D01*
X35717960Y-16515381D01*
X35847272Y-16342640D01*
X35950685Y-16153254D01*
X36002657Y-16013910D01*
X36024519Y-15955297D01*
X36024520Y-15955294D01*
X36026092Y-15951079D01*
X36071959Y-15740230D01*
X36084459Y-15565465D01*
X36085884Y-15553554D01*
X36087769Y-15542352D01*
X36087770Y-15542345D01*
X36088576Y-15537552D01*
X36088653Y-15531276D01*
X36088670Y-15529860D01*
X36088670Y-15529857D01*
X36088729Y-15525000D01*
X36087830Y-15518724D01*
X40111309Y-15518724D01*
X40112792Y-15530062D01*
X40113535Y-15537406D01*
X40128041Y-15740230D01*
X40173908Y-15951079D01*
X40175480Y-15955294D01*
X40175481Y-15955297D01*
X40197343Y-16013910D01*
X40249315Y-16153254D01*
X40352728Y-16342640D01*
X40482040Y-16515381D01*
X40634619Y-16667960D01*
X40807360Y-16797272D01*
X40996746Y-16900685D01*
X41097834Y-16938389D01*
X41194703Y-16974519D01*
X41194706Y-16974520D01*
X41198921Y-16976092D01*
X41203311Y-16977047D01*
X41203318Y-16977049D01*
X41358229Y-17010747D01*
X41409770Y-17021959D01*
X41584535Y-17034459D01*
X41596446Y-17035884D01*
X41607648Y-17037769D01*
X41607655Y-17037770D01*
X41612448Y-17038576D01*
X41618724Y-17038652D01*
X41620140Y-17038670D01*
X41620143Y-17038670D01*
X41625000Y-17038729D01*
X41652624Y-17034773D01*
X41670486Y-17033500D01*
X53571750Y-17033500D01*
X53592655Y-17035246D01*
X53607656Y-17037770D01*
X53607659Y-17037770D01*
X53612448Y-17038576D01*
X53618687Y-17038652D01*
X53620140Y-17038670D01*
X53620143Y-17038670D01*
X53625000Y-17038729D01*
X53639790Y-17036611D01*
X53648643Y-17035662D01*
X53835742Y-17022280D01*
X53840230Y-17021959D01*
X53891771Y-17010747D01*
X54046682Y-16977049D01*
X54046689Y-16977047D01*
X54051079Y-16976092D01*
X54055294Y-16974520D01*
X54055297Y-16974519D01*
X54152166Y-16938389D01*
X54253254Y-16900685D01*
X54442640Y-16797272D01*
X54615381Y-16667960D01*
X54767960Y-16515381D01*
X54897272Y-16342640D01*
X55000685Y-16153254D01*
X55052657Y-16013910D01*
X55074519Y-15955297D01*
X55074520Y-15955294D01*
X55076092Y-15951079D01*
X55121959Y-15740230D01*
X55134459Y-15565465D01*
X55135884Y-15553554D01*
X55137769Y-15542352D01*
X55137770Y-15542345D01*
X55138576Y-15537552D01*
X55138653Y-15531276D01*
X55138670Y-15529860D01*
X55138670Y-15529857D01*
X55138729Y-15525000D01*
X55134773Y-15497376D01*
X55133500Y-15479514D01*
X55133500Y-3578250D01*
X55135246Y-3557345D01*
X55137770Y-3542344D01*
X55137770Y-3542341D01*
X55138576Y-3537552D01*
X55138729Y-3525000D01*
X55136611Y-3510210D01*
X55135662Y-3501357D01*
X55122280Y-3314258D01*
X55121959Y-3309770D01*
X55076092Y-3098921D01*
X55053628Y-3038691D01*
X55002258Y-2900964D01*
X55000685Y-2896746D01*
X54897272Y-2707360D01*
X54767960Y-2534619D01*
X54615381Y-2382040D01*
X54442640Y-2252728D01*
X54253254Y-2149315D01*
X54152166Y-2111611D01*
X54055297Y-2075481D01*
X54055294Y-2075480D01*
X54051079Y-2073908D01*
X54046689Y-2072953D01*
X54046682Y-2072951D01*
X53891771Y-2039253D01*
X53840230Y-2028041D01*
X53665465Y-2015541D01*
X53653554Y-2014116D01*
X53642352Y-2012231D01*
X53642345Y-2012230D01*
X53637552Y-2011424D01*
X53631276Y-2011348D01*
X53629860Y-2011330D01*
X53629857Y-2011330D01*
X53625000Y-2011271D01*
X53605134Y-2014116D01*
X53597376Y-2015227D01*
X53579514Y-2016500D01*
X41678250Y-2016500D01*
X41657345Y-2014754D01*
X41642344Y-2012230D01*
X41642341Y-2012230D01*
X41637552Y-2011424D01*
X41631313Y-2011348D01*
X41629860Y-2011330D01*
X41629857Y-2011330D01*
X41625000Y-2011271D01*
X41610210Y-2013389D01*
X41601357Y-2014338D01*
X41414258Y-2027720D01*
X41409770Y-2028041D01*
X41358229Y-2039253D01*
X41203318Y-2072951D01*
X41203311Y-2072953D01*
X41198921Y-2073908D01*
X41194706Y-2075480D01*
X41194703Y-2075481D01*
X41097833Y-2111612D01*
X40996746Y-2149315D01*
X40807360Y-2252728D01*
X40634619Y-2382040D01*
X40482040Y-2534619D01*
X40352728Y-2707360D01*
X40249315Y-2896746D01*
X40247742Y-2900964D01*
X40196373Y-3038691D01*
X40173908Y-3098921D01*
X40128041Y-3309770D01*
X40120470Y-3415631D01*
X40114988Y-3492275D01*
X40113808Y-3502675D01*
X40112690Y-3509851D01*
X40112690Y-3509855D01*
X40111309Y-3518724D01*
X40112473Y-3527626D01*
X40112473Y-3527628D01*
X40115436Y-3550283D01*
X40116500Y-3566621D01*
X40116500Y-15475633D01*
X40115000Y-15495018D01*
X40112690Y-15509851D01*
X40112690Y-15509855D01*
X40111309Y-15518724D01*
X36087830Y-15518724D01*
X36084773Y-15497376D01*
X36083500Y-15479514D01*
X36083500Y-3578250D01*
X36085246Y-3557345D01*
X36087770Y-3542344D01*
X36087770Y-3542341D01*
X36088576Y-3537552D01*
X36088729Y-3525000D01*
X36086611Y-3510210D01*
X36085662Y-3501357D01*
X36072280Y-3314258D01*
X36071959Y-3309770D01*
X36026092Y-3098921D01*
X36003628Y-3038691D01*
X35952258Y-2900964D01*
X35950685Y-2896746D01*
X35847272Y-2707360D01*
X35717960Y-2534619D01*
X35565381Y-2382040D01*
X35392640Y-2252728D01*
X35203254Y-2149315D01*
X35102166Y-2111611D01*
X35005297Y-2075481D01*
X35005294Y-2075480D01*
X35001079Y-2073908D01*
X34996689Y-2072953D01*
X34996682Y-2072951D01*
X34841771Y-2039253D01*
X34790230Y-2028041D01*
X34615465Y-2015541D01*
X34603554Y-2014116D01*
X34592352Y-2012231D01*
X34592345Y-2012230D01*
X34587552Y-2011424D01*
X34581276Y-2011348D01*
X34579860Y-2011330D01*
X34579857Y-2011330D01*
X34575000Y-2011271D01*
X34555134Y-2014116D01*
X34547376Y-2015227D01*
X34529514Y-2016500D01*
X22628250Y-2016500D01*
X22607345Y-2014754D01*
X22592344Y-2012230D01*
X22592341Y-2012230D01*
X22587552Y-2011424D01*
X22581313Y-2011348D01*
X22579860Y-2011330D01*
X22579857Y-2011330D01*
X22575000Y-2011271D01*
X22560210Y-2013389D01*
X22551357Y-2014338D01*
X22364258Y-2027720D01*
X22359770Y-2028041D01*
X22308229Y-2039253D01*
X22153318Y-2072951D01*
X22153311Y-2072953D01*
X22148921Y-2073908D01*
X22144706Y-2075480D01*
X22144703Y-2075481D01*
X22047833Y-2111612D01*
X21946746Y-2149315D01*
X21757360Y-2252728D01*
X21584619Y-2382040D01*
X21432040Y-2534619D01*
X21302728Y-2707360D01*
X21199315Y-2896746D01*
X21197742Y-2900964D01*
X21146373Y-3038691D01*
X21123908Y-3098921D01*
X21078041Y-3309770D01*
X21070470Y-3415631D01*
X21064988Y-3492275D01*
X21063808Y-3502675D01*
X21062690Y-3509851D01*
X21062690Y-3509855D01*
X21061309Y-3518724D01*
X21062473Y-3527626D01*
X21062473Y-3527628D01*
X21065436Y-3550283D01*
X21066500Y-3566621D01*
X21066500Y-15475633D01*
X21065000Y-15495018D01*
X21062690Y-15509851D01*
X21062690Y-15509855D01*
X21061309Y-15518724D01*
X17037830Y-15518724D01*
X17034773Y-15497376D01*
X17033500Y-15479514D01*
X17033500Y-3578250D01*
X17035246Y-3557345D01*
X17037770Y-3542344D01*
X17037770Y-3542341D01*
X17038576Y-3537552D01*
X17038729Y-3525000D01*
X17036611Y-3510210D01*
X17035662Y-3501357D01*
X17022280Y-3314258D01*
X17021959Y-3309770D01*
X16976092Y-3098921D01*
X16953628Y-3038691D01*
X16902258Y-2900964D01*
X16900685Y-2896746D01*
X16797272Y-2707360D01*
X16667960Y-2534619D01*
X16515381Y-2382040D01*
X16342640Y-2252728D01*
X16153254Y-2149315D01*
X16052166Y-2111611D01*
X15955297Y-2075481D01*
X15955294Y-2075480D01*
X15951079Y-2073908D01*
X15946689Y-2072953D01*
X15946682Y-2072951D01*
X15791771Y-2039253D01*
X15740230Y-2028041D01*
X15565465Y-2015541D01*
X15553554Y-2014116D01*
X15542352Y-2012231D01*
X15542345Y-2012230D01*
X15537552Y-2011424D01*
X15531276Y-2011348D01*
X15529860Y-2011330D01*
X15529857Y-2011330D01*
X15525000Y-2011271D01*
X15505134Y-2014116D01*
X15497376Y-2015227D01*
X15479514Y-2016500D01*
X3578250Y-2016500D01*
X3557345Y-2014754D01*
X3542344Y-2012230D01*
X3542341Y-2012230D01*
X3537552Y-2011424D01*
X3531313Y-2011348D01*
X3529860Y-2011330D01*
X3529857Y-2011330D01*
X3525000Y-2011271D01*
X3510210Y-2013389D01*
X3501357Y-2014338D01*
X3314258Y-2027720D01*
X3309770Y-2028041D01*
X3258229Y-2039253D01*
X3103318Y-2072951D01*
X3103311Y-2072953D01*
X3098921Y-2073908D01*
X3094706Y-2075480D01*
X3094703Y-2075481D01*
X2997833Y-2111612D01*
X2896746Y-2149315D01*
X2707360Y-2252728D01*
X2534619Y-2382040D01*
X2382040Y-2534619D01*
X2252728Y-2707360D01*
X2149315Y-2896746D01*
X2147742Y-2900964D01*
X2096373Y-3038691D01*
X2073908Y-3098921D01*
X2028041Y-3309770D01*
X2020470Y-3415631D01*
X2014988Y-3492275D01*
X2013808Y-3502675D01*
X2012690Y-3509851D01*
X2012690Y-3509855D01*
X2011309Y-3518724D01*
X2012473Y-3527626D01*
X2012473Y-3527628D01*
X2015436Y-3550283D01*
X2016500Y-3566621D01*
X2016500Y-15475633D01*
X2015000Y-15495018D01*
X2012690Y-15509851D01*
X2012690Y-15509855D01*
X2011309Y-15518724D01*
X-2012170Y-15518724D01*
X-2015227Y-15497376D01*
X-2016500Y-15479514D01*
X-2016500Y-3578250D01*
X-2014754Y-3557345D01*
X-2012230Y-3542344D01*
X-2012230Y-3542341D01*
X-2011424Y-3537552D01*
X-2011271Y-3525000D01*
X-2013389Y-3510210D01*
X-2014338Y-3501357D01*
X-2027720Y-3314258D01*
X-2028041Y-3309770D01*
X-2073908Y-3098921D01*
X-2096372Y-3038691D01*
X-2147742Y-2900964D01*
X-2149315Y-2896746D01*
X-2252728Y-2707360D01*
X-2382040Y-2534619D01*
X-2534619Y-2382040D01*
X-2707360Y-2252728D01*
X-2896746Y-2149315D01*
X-2997834Y-2111611D01*
X-3094703Y-2075481D01*
X-3094706Y-2075480D01*
X-3098921Y-2073908D01*
X-3103311Y-2072953D01*
X-3103318Y-2072951D01*
X-3258229Y-2039253D01*
X-3309770Y-2028041D01*
X-3484535Y-2015541D01*
X-3496446Y-2014116D01*
X-3507648Y-2012231D01*
X-3507655Y-2012230D01*
X-3512448Y-2011424D01*
X-3518724Y-2011348D01*
X-3520140Y-2011330D01*
X-3520143Y-2011330D01*
X-3525000Y-2011271D01*
X-3544866Y-2014116D01*
X-3552624Y-2015227D01*
X-3570486Y-2016500D01*
X-15471750Y-2016500D01*
X-15492655Y-2014754D01*
X-15507656Y-2012230D01*
X-15507659Y-2012230D01*
X-15512448Y-2011424D01*
X-15518687Y-2011348D01*
X-15520140Y-2011330D01*
X-15520143Y-2011330D01*
X-15525000Y-2011271D01*
X-15539790Y-2013389D01*
X-15548643Y-2014338D01*
X-15735742Y-2027720D01*
X-15740230Y-2028041D01*
X-15791771Y-2039253D01*
X-15946682Y-2072951D01*
X-15946689Y-2072953D01*
X-15951079Y-2073908D01*
X-15955294Y-2075480D01*
X-15955297Y-2075481D01*
X-16052167Y-2111612D01*
X-16153254Y-2149315D01*
X-16342640Y-2252728D01*
X-16515381Y-2382040D01*
X-16667960Y-2534619D01*
X-16797272Y-2707360D01*
X-16900685Y-2896746D01*
X-16902258Y-2900964D01*
X-16953627Y-3038691D01*
X-16976092Y-3098921D01*
X-17021959Y-3309770D01*
X-17029530Y-3415631D01*
X-17035012Y-3492275D01*
X-17036192Y-3502675D01*
X-17037310Y-3509851D01*
X-17037310Y-3509855D01*
X-17038691Y-3518724D01*
X-17037527Y-3527626D01*
X-17037527Y-3527628D01*
X-17034564Y-3550283D01*
X-17033500Y-3566621D01*
X-17033500Y-15475633D01*
X-17035000Y-15495018D01*
X-17037310Y-15509851D01*
X-17037310Y-15509855D01*
X-17038691Y-15518724D01*
X-21062170Y-15518724D01*
X-21065227Y-15497376D01*
X-21066500Y-15479514D01*
X-21066500Y-3578250D01*
X-21064754Y-3557345D01*
X-21062230Y-3542344D01*
X-21062230Y-3542341D01*
X-21061424Y-3537552D01*
X-21061271Y-3525000D01*
X-21063389Y-3510210D01*
X-21064338Y-3501357D01*
X-21077720Y-3314258D01*
X-21078041Y-3309770D01*
X-21123908Y-3098921D01*
X-21146372Y-3038691D01*
X-21197742Y-2900964D01*
X-21199315Y-2896746D01*
X-21302728Y-2707360D01*
X-21432040Y-2534619D01*
X-21584619Y-2382040D01*
X-21757360Y-2252728D01*
X-21946746Y-2149315D01*
X-22047834Y-2111611D01*
X-22144703Y-2075481D01*
X-22144706Y-2075480D01*
X-22148921Y-2073908D01*
X-22153311Y-2072953D01*
X-22153318Y-2072951D01*
X-22308229Y-2039253D01*
X-22359770Y-2028041D01*
X-22534535Y-2015541D01*
X-22546446Y-2014116D01*
X-22557648Y-2012231D01*
X-22557655Y-2012230D01*
X-22562448Y-2011424D01*
X-22568724Y-2011348D01*
X-22570140Y-2011330D01*
X-22570143Y-2011330D01*
X-22575000Y-2011271D01*
X-22594866Y-2014116D01*
X-22602624Y-2015227D01*
X-22620486Y-2016500D01*
X-34521750Y-2016500D01*
X-34542655Y-2014754D01*
X-34557656Y-2012230D01*
X-34557659Y-2012230D01*
X-34562448Y-2011424D01*
X-34568687Y-2011348D01*
X-34570140Y-2011330D01*
X-34570143Y-2011330D01*
X-34575000Y-2011271D01*
X-34589790Y-2013389D01*
X-34598643Y-2014338D01*
X-34785742Y-2027720D01*
X-34790230Y-2028041D01*
X-34841771Y-2039253D01*
X-34996682Y-2072951D01*
X-34996689Y-2072953D01*
X-35001079Y-2073908D01*
X-35005294Y-2075480D01*
X-35005297Y-2075481D01*
X-35102166Y-2111611D01*
X-35203254Y-2149315D01*
X-35392640Y-2252728D01*
X-35565381Y-2382040D01*
X-35717960Y-2534619D01*
X-35847272Y-2707360D01*
X-35950685Y-2896746D01*
X-35952258Y-2900964D01*
X-36003627Y-3038691D01*
X-36026092Y-3098921D01*
X-36071959Y-3309770D01*
X-36079530Y-3415631D01*
X-36085012Y-3492275D01*
X-36086192Y-3502675D01*
X-36087310Y-3509851D01*
X-36087310Y-3509855D01*
X-36088691Y-3518724D01*
X-36087527Y-3527626D01*
X-36087527Y-3527628D01*
X-36084564Y-3550283D01*
X-36083500Y-3566621D01*
X-36083500Y-15475633D01*
X-36085000Y-15495018D01*
X-36087310Y-15509851D01*
X-36087310Y-15509855D01*
X-36088691Y-15518724D01*
X-40112170Y-15518724D01*
X-40115227Y-15497376D01*
X-40116500Y-15479514D01*
X-40116500Y-3578250D01*
X-40114754Y-3557345D01*
X-40112230Y-3542344D01*
X-40112230Y-3542341D01*
X-40111424Y-3537552D01*
X-40111271Y-3525000D01*
X-40113389Y-3510210D01*
X-40114338Y-3501357D01*
X-40127720Y-3314258D01*
X-40128041Y-3309770D01*
X-40173908Y-3098921D01*
X-40196372Y-3038691D01*
X-40247742Y-2900964D01*
X-40249315Y-2896746D01*
X-40352728Y-2707360D01*
X-40482040Y-2534619D01*
X-40634619Y-2382040D01*
X-40807360Y-2252728D01*
X-40996746Y-2149315D01*
X-41097834Y-2111611D01*
X-41194703Y-2075481D01*
X-41194706Y-2075480D01*
X-41198921Y-2073908D01*
X-41203311Y-2072953D01*
X-41203318Y-2072951D01*
X-41358229Y-2039253D01*
X-41409770Y-2028041D01*
X-41584535Y-2015541D01*
X-41596446Y-2014116D01*
X-41607648Y-2012231D01*
X-41607655Y-2012230D01*
X-41612448Y-2011424D01*
X-41618724Y-2011348D01*
X-41620140Y-2011330D01*
X-41620143Y-2011330D01*
X-41625000Y-2011271D01*
X-41644866Y-2014116D01*
X-41652624Y-2015227D01*
X-41670486Y-2016500D01*
X-53571750Y-2016500D01*
X-53592655Y-2014754D01*
X-53607656Y-2012230D01*
X-53607659Y-2012230D01*
X-53612448Y-2011424D01*
X-53618687Y-2011348D01*
X-53620140Y-2011330D01*
X-53620143Y-2011330D01*
X-53625000Y-2011271D01*
X-53639790Y-2013389D01*
X-53648643Y-2014338D01*
X-53835742Y-2027720D01*
X-53840230Y-2028041D01*
X-53891771Y-2039253D01*
X-54046682Y-2072951D01*
X-54046689Y-2072953D01*
X-54051079Y-2073908D01*
X-54055294Y-2075480D01*
X-54055297Y-2075481D01*
X-54152166Y-2111611D01*
X-54253254Y-2149315D01*
X-54442640Y-2252728D01*
X-54615381Y-2382040D01*
X-54767960Y-2534619D01*
X-54897272Y-2707360D01*
X-55000685Y-2896746D01*
X-55002258Y-2900964D01*
X-55053627Y-3038691D01*
X-55076092Y-3098921D01*
X-55121959Y-3309770D01*
X-55129530Y-3415631D01*
X-55135012Y-3492275D01*
X-55136192Y-3502675D01*
X-55137310Y-3509851D01*
X-55137310Y-3509855D01*
X-55138691Y-3518724D01*
X-55137527Y-3527626D01*
X-55137527Y-3527628D01*
X-55134564Y-3550283D01*
X-55133500Y-3566621D01*
X-55133500Y-15475633D01*
X-55135000Y-15495018D01*
X-55137310Y-15509851D01*
X-55137310Y-15509855D01*
X-55138691Y-15518724D01*
X-59181500Y-15518724D01*
X-59181500Y-42277D01*
X-1862991Y-42277D01*
X-1837375Y-310769D01*
X-1836290Y-315203D01*
X-1836289Y-315209D01*
X-1774355Y-568312D01*
X-1773269Y-572750D01*
X-1672015Y-822733D01*
X-1535735Y-1055482D01*
X-1532882Y-1059049D01*
X-1415314Y-1206060D01*
X-1367284Y-1266119D01*
X-1170191Y-1450234D01*
X-948584Y-1603968D01*
X-944501Y-1605999D01*
X-944498Y-1606001D01*
X-828987Y-1663466D01*
X-707106Y-1724101D01*
X-702772Y-1725522D01*
X-702769Y-1725523D01*
X-455147Y-1806698D01*
X-455141Y-1806699D01*
X-450814Y-1808118D01*
X-446323Y-1808898D01*
X-446322Y-1808898D01*
X-188860Y-1853601D01*
X-188852Y-1853602D01*
X-185079Y-1854257D01*
X-181242Y-1854448D01*
X-101422Y-1858422D01*
X-101414Y-1858422D01*
X-99851Y-1858500D01*
X68512Y-1858500D01*
X70780Y-1858335D01*
X70792Y-1858335D01*
X201884Y-1848823D01*
X269004Y-1843953D01*
X273459Y-1842969D01*
X273462Y-1842969D01*
X527912Y-1786791D01*
X527916Y-1786790D01*
X532372Y-1785806D01*
X658480Y-1738028D01*
X780318Y-1691868D01*
X780321Y-1691867D01*
X784588Y-1690250D01*
X1020368Y-1559286D01*
X1234773Y-1395657D01*
X1423312Y-1202792D01*
X1582034Y-984730D01*
X1665190Y-826676D01*
X1705490Y-750079D01*
X1705493Y-750073D01*
X1707615Y-746039D01*
X1770378Y-568312D01*
X1795902Y-496033D01*
X1795902Y-496032D01*
X1797425Y-491720D01*
X1849581Y-227100D01*
X1858782Y-42277D01*
X1862764Y37708D01*
X1862764Y37714D01*
X1862991Y42277D01*
X1837375Y310769D01*
X1792042Y496033D01*
X1774355Y568312D01*
X1773269Y572750D01*
X1672015Y822733D01*
X1535735Y1055482D01*
X1417928Y1202792D01*
X1370136Y1262553D01*
X1370135Y1262555D01*
X1367284Y1266119D01*
X1170191Y1450234D01*
X948584Y1603968D01*
X944501Y1605999D01*
X944498Y1606001D01*
X779606Y1688033D01*
X707106Y1724101D01*
X702772Y1725522D01*
X702769Y1725523D01*
X455147Y1806698D01*
X455141Y1806699D01*
X450814Y1808118D01*
X446322Y1808898D01*
X188860Y1853601D01*
X188852Y1853602D01*
X185079Y1854257D01*
X173817Y1854818D01*
X101422Y1858422D01*
X101414Y1858422D01*
X99851Y1858500D01*
X-68512Y1858500D01*
X-70780Y1858335D01*
X-70792Y1858335D01*
X-201884Y1848823D01*
X-269004Y1843953D01*
X-273459Y1842969D01*
X-273462Y1842969D01*
X-527912Y1786791D01*
X-527916Y1786790D01*
X-532372Y1785806D01*
X-658480Y1738028D01*
X-780318Y1691868D01*
X-780321Y1691867D01*
X-784588Y1690250D01*
X-1020368Y1559286D01*
X-1234773Y1395657D01*
X-1423312Y1202792D01*
X-1582034Y984730D01*
X-1584156Y980696D01*
X-1705490Y750079D01*
X-1705493Y750073D01*
X-1707615Y746039D01*
X-1709135Y741734D01*
X-1709137Y741730D01*
X-1795902Y496033D01*
X-1797425Y491720D01*
X-1849581Y227100D01*
X-1849808Y222547D01*
X-1849808Y222544D01*
X-1859009Y37708D01*
X-1862991Y-42277D01*
X-59181500Y-42277D01*
X-59181500Y3531276D01*
X-55138691Y3531276D01*
X-55137208Y3519938D01*
X-55136465Y3512594D01*
X-55121959Y3309770D01*
X-55076092Y3098921D01*
X-55074520Y3094706D01*
X-55074519Y3094703D01*
X-55052657Y3036090D01*
X-55000685Y2896746D01*
X-54897272Y2707360D01*
X-54767960Y2534619D01*
X-54615381Y2382040D01*
X-54442640Y2252728D01*
X-54253254Y2149315D01*
X-54152166Y2111611D01*
X-54055297Y2075481D01*
X-54055294Y2075480D01*
X-54051079Y2073908D01*
X-54046689Y2072953D01*
X-54046682Y2072951D01*
X-53891771Y2039253D01*
X-53840230Y2028041D01*
X-53665465Y2015541D01*
X-53653554Y2014116D01*
X-53642352Y2012231D01*
X-53642345Y2012230D01*
X-53637552Y2011424D01*
X-53631276Y2011348D01*
X-53629860Y2011330D01*
X-53629857Y2011330D01*
X-53625000Y2011271D01*
X-53597376Y2015227D01*
X-53579514Y2016500D01*
X-41678250Y2016500D01*
X-41657345Y2014754D01*
X-41642344Y2012230D01*
X-41642341Y2012230D01*
X-41637552Y2011424D01*
X-41631313Y2011348D01*
X-41629860Y2011330D01*
X-41629857Y2011330D01*
X-41625000Y2011271D01*
X-41610210Y2013389D01*
X-41601357Y2014338D01*
X-41414258Y2027720D01*
X-41409770Y2028041D01*
X-41358229Y2039253D01*
X-41203318Y2072951D01*
X-41203311Y2072953D01*
X-41198921Y2073908D01*
X-41194706Y2075480D01*
X-41194703Y2075481D01*
X-41097834Y2111611D01*
X-40996746Y2149315D01*
X-40807360Y2252728D01*
X-40634619Y2382040D01*
X-40482040Y2534619D01*
X-40352728Y2707360D01*
X-40249315Y2896746D01*
X-40197343Y3036090D01*
X-40175481Y3094703D01*
X-40175480Y3094706D01*
X-40173908Y3098921D01*
X-40128041Y3309770D01*
X-40115541Y3484535D01*
X-40114116Y3496446D01*
X-40112231Y3507648D01*
X-40112230Y3507655D01*
X-40111424Y3512448D01*
X-40111348Y3518724D01*
X-40111330Y3520140D01*
X-40111330Y3520143D01*
X-40111271Y3525000D01*
X-40112170Y3531276D01*
X-36088691Y3531276D01*
X-36087208Y3519938D01*
X-36086465Y3512594D01*
X-36071959Y3309770D01*
X-36026092Y3098921D01*
X-36024520Y3094706D01*
X-36024519Y3094703D01*
X-36002657Y3036090D01*
X-35950685Y2896746D01*
X-35847272Y2707360D01*
X-35717960Y2534619D01*
X-35565381Y2382040D01*
X-35392640Y2252728D01*
X-35203254Y2149315D01*
X-35102166Y2111611D01*
X-35005297Y2075481D01*
X-35005294Y2075480D01*
X-35001079Y2073908D01*
X-34996689Y2072953D01*
X-34996682Y2072951D01*
X-34841771Y2039253D01*
X-34790230Y2028041D01*
X-34615465Y2015541D01*
X-34603554Y2014116D01*
X-34592352Y2012231D01*
X-34592345Y2012230D01*
X-34587552Y2011424D01*
X-34581276Y2011348D01*
X-34579860Y2011330D01*
X-34579857Y2011330D01*
X-34575000Y2011271D01*
X-34547376Y2015227D01*
X-34529514Y2016500D01*
X-22628250Y2016500D01*
X-22607345Y2014754D01*
X-22592344Y2012230D01*
X-22592341Y2012230D01*
X-22587552Y2011424D01*
X-22581313Y2011348D01*
X-22579860Y2011330D01*
X-22579857Y2011330D01*
X-22575000Y2011271D01*
X-22560210Y2013389D01*
X-22551357Y2014338D01*
X-22364258Y2027720D01*
X-22359770Y2028041D01*
X-22308229Y2039253D01*
X-22153318Y2072951D01*
X-22153311Y2072953D01*
X-22148921Y2073908D01*
X-22144706Y2075480D01*
X-22144703Y2075481D01*
X-22047834Y2111611D01*
X-21946746Y2149315D01*
X-21757360Y2252728D01*
X-21584619Y2382040D01*
X-21432040Y2534619D01*
X-21302728Y2707360D01*
X-21199315Y2896746D01*
X-21147343Y3036090D01*
X-21125481Y3094703D01*
X-21125480Y3094706D01*
X-21123908Y3098921D01*
X-21078041Y3309770D01*
X-21065541Y3484535D01*
X-21064116Y3496446D01*
X-21062231Y3507648D01*
X-21062230Y3507655D01*
X-21061424Y3512448D01*
X-21061348Y3518724D01*
X-21061330Y3520140D01*
X-21061330Y3520143D01*
X-21061271Y3525000D01*
X-21062170Y3531276D01*
X-17038691Y3531276D01*
X-17037208Y3519938D01*
X-17036465Y3512594D01*
X-17021959Y3309770D01*
X-16976092Y3098921D01*
X-16974520Y3094706D01*
X-16974519Y3094703D01*
X-16952657Y3036090D01*
X-16900685Y2896746D01*
X-16797272Y2707360D01*
X-16667960Y2534619D01*
X-16515381Y2382040D01*
X-16342640Y2252728D01*
X-16153254Y2149315D01*
X-16052166Y2111611D01*
X-15955297Y2075481D01*
X-15955294Y2075480D01*
X-15951079Y2073908D01*
X-15946689Y2072953D01*
X-15946682Y2072951D01*
X-15791771Y2039253D01*
X-15740230Y2028041D01*
X-15565465Y2015541D01*
X-15553554Y2014116D01*
X-15542352Y2012231D01*
X-15542345Y2012230D01*
X-15537552Y2011424D01*
X-15531276Y2011348D01*
X-15529860Y2011330D01*
X-15529857Y2011330D01*
X-15525000Y2011271D01*
X-15497376Y2015227D01*
X-15479514Y2016500D01*
X-3578250Y2016500D01*
X-3557345Y2014754D01*
X-3542344Y2012230D01*
X-3542341Y2012230D01*
X-3537552Y2011424D01*
X-3531313Y2011348D01*
X-3529860Y2011330D01*
X-3529857Y2011330D01*
X-3525000Y2011271D01*
X-3510210Y2013389D01*
X-3501357Y2014338D01*
X-3314258Y2027720D01*
X-3309770Y2028041D01*
X-3258229Y2039253D01*
X-3103318Y2072951D01*
X-3103311Y2072953D01*
X-3098921Y2073908D01*
X-3094706Y2075480D01*
X-3094703Y2075481D01*
X-2997833Y2111612D01*
X-2896746Y2149315D01*
X-2707360Y2252728D01*
X-2534619Y2382040D01*
X-2382040Y2534619D01*
X-2252728Y2707360D01*
X-2149315Y2896746D01*
X-2097343Y3036090D01*
X-2075481Y3094703D01*
X-2075480Y3094706D01*
X-2073908Y3098921D01*
X-2028041Y3309770D01*
X-2015541Y3484535D01*
X-2014116Y3496446D01*
X-2012231Y3507648D01*
X-2012230Y3507655D01*
X-2011424Y3512448D01*
X-2011348Y3518724D01*
X-2011330Y3520140D01*
X-2011330Y3520143D01*
X-2011271Y3525000D01*
X-2012170Y3531276D01*
X2011309Y3531276D01*
X2012792Y3519938D01*
X2013535Y3512594D01*
X2028041Y3309770D01*
X2073908Y3098921D01*
X2075480Y3094706D01*
X2075481Y3094703D01*
X2097343Y3036090D01*
X2149315Y2896746D01*
X2252728Y2707360D01*
X2382040Y2534619D01*
X2534619Y2382040D01*
X2707360Y2252728D01*
X2896746Y2149315D01*
X2997834Y2111611D01*
X3094703Y2075481D01*
X3094706Y2075480D01*
X3098921Y2073908D01*
X3103311Y2072953D01*
X3103318Y2072951D01*
X3258229Y2039253D01*
X3309770Y2028041D01*
X3484535Y2015541D01*
X3496446Y2014116D01*
X3507648Y2012231D01*
X3507655Y2012230D01*
X3512448Y2011424D01*
X3518724Y2011348D01*
X3520140Y2011330D01*
X3520143Y2011330D01*
X3525000Y2011271D01*
X3552624Y2015227D01*
X3570486Y2016500D01*
X15471750Y2016500D01*
X15492655Y2014754D01*
X15507656Y2012230D01*
X15507659Y2012230D01*
X15512448Y2011424D01*
X15518687Y2011348D01*
X15520140Y2011330D01*
X15520143Y2011330D01*
X15525000Y2011271D01*
X15539790Y2013389D01*
X15548643Y2014338D01*
X15735742Y2027720D01*
X15740230Y2028041D01*
X15791771Y2039253D01*
X15946682Y2072951D01*
X15946689Y2072953D01*
X15951079Y2073908D01*
X15955294Y2075480D01*
X15955297Y2075481D01*
X16052167Y2111612D01*
X16153254Y2149315D01*
X16342640Y2252728D01*
X16515381Y2382040D01*
X16667960Y2534619D01*
X16797272Y2707360D01*
X16900685Y2896746D01*
X16952657Y3036090D01*
X16974519Y3094703D01*
X16974520Y3094706D01*
X16976092Y3098921D01*
X17021959Y3309770D01*
X17034459Y3484535D01*
X17035884Y3496446D01*
X17037769Y3507648D01*
X17037770Y3507655D01*
X17038576Y3512448D01*
X17038652Y3518724D01*
X17038670Y3520140D01*
X17038670Y3520143D01*
X17038729Y3525000D01*
X17037830Y3531276D01*
X21061309Y3531276D01*
X21062792Y3519938D01*
X21063535Y3512594D01*
X21078041Y3309770D01*
X21123908Y3098921D01*
X21125480Y3094706D01*
X21125481Y3094703D01*
X21147343Y3036090D01*
X21199315Y2896746D01*
X21302728Y2707360D01*
X21432040Y2534619D01*
X21584619Y2382040D01*
X21757360Y2252728D01*
X21946746Y2149315D01*
X22047834Y2111611D01*
X22144703Y2075481D01*
X22144706Y2075480D01*
X22148921Y2073908D01*
X22153311Y2072953D01*
X22153318Y2072951D01*
X22308229Y2039253D01*
X22359770Y2028041D01*
X22534535Y2015541D01*
X22546446Y2014116D01*
X22557648Y2012231D01*
X22557655Y2012230D01*
X22562448Y2011424D01*
X22568724Y2011348D01*
X22570140Y2011330D01*
X22570143Y2011330D01*
X22575000Y2011271D01*
X22602624Y2015227D01*
X22620486Y2016500D01*
X34521750Y2016500D01*
X34542655Y2014754D01*
X34557656Y2012230D01*
X34557659Y2012230D01*
X34562448Y2011424D01*
X34568687Y2011348D01*
X34570140Y2011330D01*
X34570143Y2011330D01*
X34575000Y2011271D01*
X34589790Y2013389D01*
X34598643Y2014338D01*
X34785742Y2027720D01*
X34790230Y2028041D01*
X34841771Y2039253D01*
X34996682Y2072951D01*
X34996689Y2072953D01*
X35001079Y2073908D01*
X35005294Y2075480D01*
X35005297Y2075481D01*
X35102167Y2111612D01*
X35203254Y2149315D01*
X35392640Y2252728D01*
X35565381Y2382040D01*
X35717960Y2534619D01*
X35847272Y2707360D01*
X35950685Y2896746D01*
X36002657Y3036090D01*
X36024519Y3094703D01*
X36024520Y3094706D01*
X36026092Y3098921D01*
X36071959Y3309770D01*
X36084459Y3484535D01*
X36085884Y3496446D01*
X36087769Y3507648D01*
X36087770Y3507655D01*
X36088576Y3512448D01*
X36088652Y3518724D01*
X36088670Y3520140D01*
X36088670Y3520143D01*
X36088729Y3525000D01*
X36087830Y3531276D01*
X40111309Y3531276D01*
X40112792Y3519938D01*
X40113535Y3512594D01*
X40128041Y3309770D01*
X40173908Y3098921D01*
X40175480Y3094706D01*
X40175481Y3094703D01*
X40197343Y3036090D01*
X40249315Y2896746D01*
X40352728Y2707360D01*
X40482040Y2534619D01*
X40634619Y2382040D01*
X40807360Y2252728D01*
X40996746Y2149315D01*
X41097834Y2111611D01*
X41194703Y2075481D01*
X41194706Y2075480D01*
X41198921Y2073908D01*
X41203311Y2072953D01*
X41203318Y2072951D01*
X41358229Y2039253D01*
X41409770Y2028041D01*
X41584535Y2015541D01*
X41596446Y2014116D01*
X41607648Y2012231D01*
X41607655Y2012230D01*
X41612448Y2011424D01*
X41618724Y2011348D01*
X41620140Y2011330D01*
X41620143Y2011330D01*
X41625000Y2011271D01*
X41652624Y2015227D01*
X41670486Y2016500D01*
X53571750Y2016500D01*
X53592655Y2014754D01*
X53607656Y2012230D01*
X53607659Y2012230D01*
X53612448Y2011424D01*
X53618687Y2011348D01*
X53620140Y2011330D01*
X53620143Y2011330D01*
X53625000Y2011271D01*
X53639790Y2013389D01*
X53648643Y2014338D01*
X53835742Y2027720D01*
X53840230Y2028041D01*
X53891771Y2039253D01*
X54046682Y2072951D01*
X54046689Y2072953D01*
X54051079Y2073908D01*
X54055294Y2075480D01*
X54055297Y2075481D01*
X54152167Y2111612D01*
X54253254Y2149315D01*
X54442640Y2252728D01*
X54615381Y2382040D01*
X54767960Y2534619D01*
X54897272Y2707360D01*
X55000685Y2896746D01*
X55052657Y3036090D01*
X55074519Y3094703D01*
X55074520Y3094706D01*
X55076092Y3098921D01*
X55121959Y3309770D01*
X55134459Y3484535D01*
X55135884Y3496446D01*
X55137769Y3507648D01*
X55137770Y3507655D01*
X55138576Y3512448D01*
X55138652Y3518724D01*
X55138670Y3520140D01*
X55138670Y3520143D01*
X55138729Y3525000D01*
X55134773Y3552624D01*
X55133500Y3570486D01*
X55133500Y15471750D01*
X55135246Y15492655D01*
X55137770Y15507656D01*
X55137770Y15507659D01*
X55138576Y15512448D01*
X55138729Y15525000D01*
X55136611Y15539790D01*
X55135662Y15548643D01*
X55122280Y15735742D01*
X55121959Y15740230D01*
X55076092Y15951079D01*
X55053628Y16011309D01*
X55002258Y16149036D01*
X55000685Y16153254D01*
X54897272Y16342640D01*
X54767960Y16515381D01*
X54615381Y16667960D01*
X54442640Y16797272D01*
X54253254Y16900685D01*
X54152167Y16938388D01*
X54055297Y16974519D01*
X54055294Y16974520D01*
X54051079Y16976092D01*
X54046689Y16977047D01*
X54046682Y16977049D01*
X53891771Y17010747D01*
X53840230Y17021959D01*
X53665465Y17034459D01*
X53653554Y17035884D01*
X53642352Y17037769D01*
X53642345Y17037770D01*
X53637552Y17038576D01*
X53631276Y17038653D01*
X53629860Y17038670D01*
X53629857Y17038670D01*
X53625000Y17038729D01*
X53605134Y17035884D01*
X53597376Y17034773D01*
X53579514Y17033500D01*
X41678250Y17033500D01*
X41657345Y17035246D01*
X41642344Y17037770D01*
X41642341Y17037770D01*
X41637552Y17038576D01*
X41631313Y17038652D01*
X41629860Y17038670D01*
X41629857Y17038670D01*
X41625000Y17038729D01*
X41610210Y17036611D01*
X41601357Y17035662D01*
X41414258Y17022280D01*
X41409770Y17021959D01*
X41358229Y17010747D01*
X41203318Y16977049D01*
X41203311Y16977047D01*
X41198921Y16976092D01*
X41194706Y16974520D01*
X41194703Y16974519D01*
X41097833Y16938388D01*
X40996746Y16900685D01*
X40807360Y16797272D01*
X40634619Y16667960D01*
X40482040Y16515381D01*
X40352728Y16342640D01*
X40249315Y16153254D01*
X40247742Y16149036D01*
X40196373Y16011309D01*
X40173908Y15951079D01*
X40128041Y15740230D01*
X40120470Y15634369D01*
X40114988Y15557725D01*
X40113808Y15547325D01*
X40112690Y15540149D01*
X40112690Y15540145D01*
X40111309Y15531276D01*
X40112473Y15522374D01*
X40112473Y15522372D01*
X40115436Y15499717D01*
X40116500Y15483379D01*
X40116500Y3574367D01*
X40115000Y3554982D01*
X40112690Y3540149D01*
X40112690Y3540145D01*
X40111309Y3531276D01*
X36087830Y3531276D01*
X36084773Y3552624D01*
X36083500Y3570486D01*
X36083500Y15471750D01*
X36085246Y15492655D01*
X36087770Y15507656D01*
X36087770Y15507659D01*
X36088576Y15512448D01*
X36088729Y15525000D01*
X36086611Y15539790D01*
X36085662Y15548643D01*
X36072280Y15735742D01*
X36071959Y15740230D01*
X36026092Y15951079D01*
X36003628Y16011309D01*
X35952258Y16149036D01*
X35950685Y16153254D01*
X35847272Y16342640D01*
X35717960Y16515381D01*
X35565381Y16667960D01*
X35392640Y16797272D01*
X35203254Y16900685D01*
X35102167Y16938388D01*
X35005297Y16974519D01*
X35005294Y16974520D01*
X35001079Y16976092D01*
X34996689Y16977047D01*
X34996682Y16977049D01*
X34841771Y17010747D01*
X34790230Y17021959D01*
X34615465Y17034459D01*
X34603554Y17035884D01*
X34592352Y17037769D01*
X34592345Y17037770D01*
X34587552Y17038576D01*
X34581276Y17038653D01*
X34579860Y17038670D01*
X34579857Y17038670D01*
X34575000Y17038729D01*
X34555134Y17035884D01*
X34547376Y17034773D01*
X34529514Y17033500D01*
X22628250Y17033500D01*
X22607345Y17035246D01*
X22592344Y17037770D01*
X22592341Y17037770D01*
X22587552Y17038576D01*
X22581313Y17038652D01*
X22579860Y17038670D01*
X22579857Y17038670D01*
X22575000Y17038729D01*
X22560210Y17036611D01*
X22551357Y17035662D01*
X22364258Y17022280D01*
X22359770Y17021959D01*
X22308229Y17010747D01*
X22153318Y16977049D01*
X22153311Y16977047D01*
X22148921Y16976092D01*
X22144706Y16974520D01*
X22144703Y16974519D01*
X22047833Y16938388D01*
X21946746Y16900685D01*
X21757360Y16797272D01*
X21584619Y16667960D01*
X21432040Y16515381D01*
X21302728Y16342640D01*
X21199315Y16153254D01*
X21197742Y16149036D01*
X21146373Y16011309D01*
X21123908Y15951079D01*
X21078041Y15740230D01*
X21070470Y15634369D01*
X21064988Y15557725D01*
X21063808Y15547325D01*
X21062690Y15540149D01*
X21062690Y15540145D01*
X21061309Y15531276D01*
X21062473Y15522374D01*
X21062473Y15522372D01*
X21065436Y15499717D01*
X21066500Y15483379D01*
X21066500Y3574367D01*
X21065000Y3554982D01*
X21062690Y3540149D01*
X21062690Y3540145D01*
X21061309Y3531276D01*
X17037830Y3531276D01*
X17034773Y3552624D01*
X17033500Y3570486D01*
X17033500Y15471750D01*
X17035246Y15492655D01*
X17037770Y15507656D01*
X17037770Y15507659D01*
X17038576Y15512448D01*
X17038729Y15525000D01*
X17036611Y15539790D01*
X17035662Y15548643D01*
X17022280Y15735742D01*
X17021959Y15740230D01*
X16976092Y15951079D01*
X16953628Y16011309D01*
X16902258Y16149036D01*
X16900685Y16153254D01*
X16797272Y16342640D01*
X16667960Y16515381D01*
X16515381Y16667960D01*
X16342640Y16797272D01*
X16153254Y16900685D01*
X16052167Y16938388D01*
X15955297Y16974519D01*
X15955294Y16974520D01*
X15951079Y16976092D01*
X15946689Y16977047D01*
X15946682Y16977049D01*
X15791771Y17010747D01*
X15740230Y17021959D01*
X15565465Y17034459D01*
X15553554Y17035884D01*
X15542352Y17037769D01*
X15542345Y17037770D01*
X15537552Y17038576D01*
X15531276Y17038653D01*
X15529860Y17038670D01*
X15529857Y17038670D01*
X15525000Y17038729D01*
X15505134Y17035884D01*
X15497376Y17034773D01*
X15479514Y17033500D01*
X3578250Y17033500D01*
X3557345Y17035246D01*
X3542344Y17037770D01*
X3542341Y17037770D01*
X3537552Y17038576D01*
X3531313Y17038652D01*
X3529860Y17038670D01*
X3529857Y17038670D01*
X3525000Y17038729D01*
X3510210Y17036611D01*
X3501357Y17035662D01*
X3314258Y17022280D01*
X3309770Y17021959D01*
X3258229Y17010747D01*
X3103318Y16977049D01*
X3103311Y16977047D01*
X3098921Y16976092D01*
X3094706Y16974520D01*
X3094703Y16974519D01*
X2997833Y16938388D01*
X2896746Y16900685D01*
X2707360Y16797272D01*
X2534619Y16667960D01*
X2382040Y16515381D01*
X2252728Y16342640D01*
X2149315Y16153254D01*
X2147742Y16149036D01*
X2096373Y16011309D01*
X2073908Y15951079D01*
X2028041Y15740230D01*
X2020470Y15634369D01*
X2014988Y15557725D01*
X2013808Y15547325D01*
X2012690Y15540149D01*
X2012690Y15540145D01*
X2011309Y15531276D01*
X2012473Y15522374D01*
X2012473Y15522372D01*
X2015436Y15499717D01*
X2016500Y15483379D01*
X2016500Y3574367D01*
X2015000Y3554982D01*
X2012690Y3540149D01*
X2012690Y3540145D01*
X2011309Y3531276D01*
X-2012170Y3531276D01*
X-2015227Y3552624D01*
X-2016500Y3570486D01*
X-2016500Y15471750D01*
X-2014754Y15492655D01*
X-2012230Y15507656D01*
X-2012230Y15507659D01*
X-2011424Y15512448D01*
X-2011271Y15525000D01*
X-2013389Y15539790D01*
X-2014338Y15548643D01*
X-2027720Y15735742D01*
X-2028041Y15740230D01*
X-2073908Y15951079D01*
X-2096372Y16011309D01*
X-2147742Y16149036D01*
X-2149315Y16153254D01*
X-2252728Y16342640D01*
X-2382040Y16515381D01*
X-2534619Y16667960D01*
X-2707360Y16797272D01*
X-2896746Y16900685D01*
X-2997833Y16938388D01*
X-3094703Y16974519D01*
X-3094706Y16974520D01*
X-3098921Y16976092D01*
X-3103311Y16977047D01*
X-3103318Y16977049D01*
X-3258229Y17010747D01*
X-3309770Y17021959D01*
X-3484535Y17034459D01*
X-3496446Y17035884D01*
X-3507648Y17037769D01*
X-3507655Y17037770D01*
X-3512448Y17038576D01*
X-3518724Y17038653D01*
X-3520140Y17038670D01*
X-3520143Y17038670D01*
X-3525000Y17038729D01*
X-3544866Y17035884D01*
X-3552624Y17034773D01*
X-3570486Y17033500D01*
X-15471750Y17033500D01*
X-15492655Y17035246D01*
X-15507656Y17037770D01*
X-15507659Y17037770D01*
X-15512448Y17038576D01*
X-15518687Y17038652D01*
X-15520140Y17038670D01*
X-15520143Y17038670D01*
X-15525000Y17038729D01*
X-15539790Y17036611D01*
X-15548643Y17035662D01*
X-15735742Y17022280D01*
X-15740230Y17021959D01*
X-15791771Y17010747D01*
X-15946682Y16977049D01*
X-15946689Y16977047D01*
X-15951079Y16976092D01*
X-15955294Y16974520D01*
X-15955297Y16974519D01*
X-16052167Y16938388D01*
X-16153254Y16900685D01*
X-16342640Y16797272D01*
X-16515381Y16667960D01*
X-16667960Y16515381D01*
X-16797272Y16342640D01*
X-16900685Y16153254D01*
X-16902258Y16149036D01*
X-16953627Y16011309D01*
X-16976092Y15951079D01*
X-17021959Y15740230D01*
X-17029530Y15634369D01*
X-17035012Y15557725D01*
X-17036192Y15547325D01*
X-17037310Y15540149D01*
X-17037310Y15540145D01*
X-17038691Y15531276D01*
X-17037527Y15522374D01*
X-17037527Y15522372D01*
X-17034564Y15499717D01*
X-17033500Y15483379D01*
X-17033500Y3574367D01*
X-17035000Y3554982D01*
X-17037310Y3540149D01*
X-17037310Y3540145D01*
X-17038691Y3531276D01*
X-21062170Y3531276D01*
X-21065227Y3552624D01*
X-21066500Y3570486D01*
X-21066500Y15471750D01*
X-21064754Y15492655D01*
X-21062230Y15507656D01*
X-21062230Y15507659D01*
X-21061424Y15512448D01*
X-21061271Y15525000D01*
X-21063389Y15539790D01*
X-21064338Y15548643D01*
X-21077720Y15735742D01*
X-21078041Y15740230D01*
X-21123908Y15951079D01*
X-21146372Y16011309D01*
X-21197742Y16149036D01*
X-21199315Y16153254D01*
X-21302728Y16342640D01*
X-21432040Y16515381D01*
X-21584619Y16667960D01*
X-21757360Y16797272D01*
X-21946746Y16900685D01*
X-22047833Y16938388D01*
X-22144703Y16974519D01*
X-22144706Y16974520D01*
X-22148921Y16976092D01*
X-22153311Y16977047D01*
X-22153318Y16977049D01*
X-22308229Y17010747D01*
X-22359770Y17021959D01*
X-22534535Y17034459D01*
X-22546446Y17035884D01*
X-22557648Y17037769D01*
X-22557655Y17037770D01*
X-22562448Y17038576D01*
X-22568724Y17038653D01*
X-22570140Y17038670D01*
X-22570143Y17038670D01*
X-22575000Y17038729D01*
X-22594866Y17035884D01*
X-22602624Y17034773D01*
X-22620486Y17033500D01*
X-34521750Y17033500D01*
X-34542655Y17035246D01*
X-34557656Y17037770D01*
X-34557659Y17037770D01*
X-34562448Y17038576D01*
X-34568687Y17038652D01*
X-34570140Y17038670D01*
X-34570143Y17038670D01*
X-34575000Y17038729D01*
X-34589790Y17036611D01*
X-34598643Y17035662D01*
X-34785742Y17022280D01*
X-34790230Y17021959D01*
X-34841771Y17010747D01*
X-34996682Y16977049D01*
X-34996689Y16977047D01*
X-35001079Y16976092D01*
X-35005294Y16974520D01*
X-35005297Y16974519D01*
X-35102167Y16938388D01*
X-35203254Y16900685D01*
X-35392640Y16797272D01*
X-35565381Y16667960D01*
X-35717960Y16515381D01*
X-35847272Y16342640D01*
X-35950685Y16153254D01*
X-35952258Y16149036D01*
X-36003627Y16011309D01*
X-36026092Y15951079D01*
X-36071959Y15740230D01*
X-36079530Y15634369D01*
X-36085012Y15557725D01*
X-36086192Y15547325D01*
X-36087310Y15540149D01*
X-36087310Y15540145D01*
X-36088691Y15531276D01*
X-36087527Y15522374D01*
X-36087527Y15522372D01*
X-36084564Y15499717D01*
X-36083500Y15483379D01*
X-36083500Y3574367D01*
X-36085000Y3554982D01*
X-36087310Y3540149D01*
X-36087310Y3540145D01*
X-36088691Y3531276D01*
X-40112170Y3531276D01*
X-40115227Y3552624D01*
X-40116500Y3570486D01*
X-40116500Y15471750D01*
X-40114754Y15492655D01*
X-40112230Y15507656D01*
X-40112230Y15507659D01*
X-40111424Y15512448D01*
X-40111271Y15525000D01*
X-40113389Y15539790D01*
X-40114338Y15548643D01*
X-40127720Y15735742D01*
X-40128041Y15740230D01*
X-40173908Y15951079D01*
X-40196372Y16011309D01*
X-40247742Y16149036D01*
X-40249315Y16153254D01*
X-40352728Y16342640D01*
X-40482040Y16515381D01*
X-40634619Y16667960D01*
X-40807360Y16797272D01*
X-40996746Y16900685D01*
X-41097833Y16938388D01*
X-41194703Y16974519D01*
X-41194706Y16974520D01*
X-41198921Y16976092D01*
X-41203311Y16977047D01*
X-41203318Y16977049D01*
X-41358229Y17010747D01*
X-41409770Y17021959D01*
X-41584535Y17034459D01*
X-41596446Y17035884D01*
X-41607648Y17037769D01*
X-41607655Y17037770D01*
X-41612448Y17038576D01*
X-41618724Y17038653D01*
X-41620140Y17038670D01*
X-41620143Y17038670D01*
X-41625000Y17038729D01*
X-41644866Y17035884D01*
X-41652624Y17034773D01*
X-41670486Y17033500D01*
X-53571750Y17033500D01*
X-53592655Y17035246D01*
X-53607656Y17037770D01*
X-53607659Y17037770D01*
X-53612448Y17038576D01*
X-53618687Y17038652D01*
X-53620140Y17038670D01*
X-53620143Y17038670D01*
X-53625000Y17038729D01*
X-53639790Y17036611D01*
X-53648643Y17035662D01*
X-53835742Y17022280D01*
X-53840230Y17021959D01*
X-53891771Y17010747D01*
X-54046682Y16977049D01*
X-54046689Y16977047D01*
X-54051079Y16976092D01*
X-54055294Y16974520D01*
X-54055297Y16974519D01*
X-54152167Y16938388D01*
X-54253254Y16900685D01*
X-54442640Y16797272D01*
X-54615381Y16667960D01*
X-54767960Y16515381D01*
X-54897272Y16342640D01*
X-55000685Y16153254D01*
X-55002258Y16149036D01*
X-55053627Y16011309D01*
X-55076092Y15951079D01*
X-55121959Y15740230D01*
X-55129530Y15634369D01*
X-55135012Y15557725D01*
X-55136192Y15547325D01*
X-55137310Y15540149D01*
X-55137310Y15540145D01*
X-55138691Y15531276D01*
X-55137527Y15522374D01*
X-55137527Y15522372D01*
X-55134564Y15499717D01*
X-55133500Y15483379D01*
X-55133500Y3574367D01*
X-55135000Y3554982D01*
X-55137310Y3540149D01*
X-55137310Y3540145D01*
X-55138691Y3531276D01*
X-59181500Y3531276D01*
X-59181500Y22581276D01*
X-55138691Y22581276D01*
X-55137208Y22569938D01*
X-55136465Y22562594D01*
X-55121959Y22359770D01*
X-55076092Y22148921D01*
X-55074520Y22144706D01*
X-55074519Y22144703D01*
X-55052657Y22086090D01*
X-55000685Y21946746D01*
X-54897272Y21757360D01*
X-54767960Y21584619D01*
X-54615381Y21432040D01*
X-54442640Y21302728D01*
X-54253254Y21199315D01*
X-54152167Y21161612D01*
X-54055297Y21125481D01*
X-54055294Y21125480D01*
X-54051079Y21123908D01*
X-54046689Y21122953D01*
X-54046682Y21122951D01*
X-53891771Y21089253D01*
X-53840230Y21078041D01*
X-53665465Y21065541D01*
X-53653554Y21064116D01*
X-53642352Y21062231D01*
X-53642345Y21062230D01*
X-53637552Y21061424D01*
X-53631276Y21061348D01*
X-53629860Y21061330D01*
X-53629857Y21061330D01*
X-53625000Y21061271D01*
X-53597376Y21065227D01*
X-53579514Y21066500D01*
X-41678250Y21066500D01*
X-41657345Y21064754D01*
X-41642344Y21062230D01*
X-41642341Y21062230D01*
X-41637552Y21061424D01*
X-41631313Y21061348D01*
X-41629860Y21061330D01*
X-41629857Y21061330D01*
X-41625000Y21061271D01*
X-41610210Y21063389D01*
X-41601357Y21064338D01*
X-41414258Y21077720D01*
X-41409770Y21078041D01*
X-41358229Y21089253D01*
X-41203318Y21122951D01*
X-41203311Y21122953D01*
X-41198921Y21123908D01*
X-41194706Y21125480D01*
X-41194703Y21125481D01*
X-41097833Y21161612D01*
X-40996746Y21199315D01*
X-40807360Y21302728D01*
X-40634619Y21432040D01*
X-40482040Y21584619D01*
X-40352728Y21757360D01*
X-40249315Y21946746D01*
X-40197343Y22086090D01*
X-40175481Y22144703D01*
X-40175480Y22144706D01*
X-40173908Y22148921D01*
X-40128041Y22359770D01*
X-40115541Y22534535D01*
X-40114116Y22546446D01*
X-40112231Y22557648D01*
X-40112230Y22557655D01*
X-40111424Y22562448D01*
X-40111347Y22568724D01*
X-40111330Y22570140D01*
X-40111330Y22570143D01*
X-40111271Y22575000D01*
X-40112170Y22581276D01*
X-36088691Y22581276D01*
X-36087208Y22569938D01*
X-36086465Y22562594D01*
X-36071959Y22359770D01*
X-36026092Y22148921D01*
X-36024520Y22144706D01*
X-36024519Y22144703D01*
X-36002657Y22086090D01*
X-35950685Y21946746D01*
X-35847272Y21757360D01*
X-35717960Y21584619D01*
X-35565381Y21432040D01*
X-35392640Y21302728D01*
X-35203254Y21199315D01*
X-35102167Y21161612D01*
X-35005297Y21125481D01*
X-35005294Y21125480D01*
X-35001079Y21123908D01*
X-34996689Y21122953D01*
X-34996682Y21122951D01*
X-34841771Y21089253D01*
X-34790230Y21078041D01*
X-34615465Y21065541D01*
X-34603554Y21064116D01*
X-34592352Y21062231D01*
X-34592345Y21062230D01*
X-34587552Y21061424D01*
X-34581276Y21061348D01*
X-34579860Y21061330D01*
X-34579857Y21061330D01*
X-34575000Y21061271D01*
X-34547376Y21065227D01*
X-34529514Y21066500D01*
X-22628250Y21066500D01*
X-22607345Y21064754D01*
X-22592344Y21062230D01*
X-22592341Y21062230D01*
X-22587552Y21061424D01*
X-22581313Y21061348D01*
X-22579860Y21061330D01*
X-22579857Y21061330D01*
X-22575000Y21061271D01*
X-22560210Y21063389D01*
X-22551357Y21064338D01*
X-22364258Y21077720D01*
X-22359770Y21078041D01*
X-22308229Y21089253D01*
X-22153318Y21122951D01*
X-22153311Y21122953D01*
X-22148921Y21123908D01*
X-22144706Y21125480D01*
X-22144703Y21125481D01*
X-22047833Y21161612D01*
X-21946746Y21199315D01*
X-21757360Y21302728D01*
X-21584619Y21432040D01*
X-21432040Y21584619D01*
X-21302728Y21757360D01*
X-21199315Y21946746D01*
X-21147343Y22086090D01*
X-21125481Y22144703D01*
X-21125480Y22144706D01*
X-21123908Y22148921D01*
X-21078041Y22359770D01*
X-21065541Y22534535D01*
X-21064116Y22546446D01*
X-21062231Y22557648D01*
X-21062230Y22557655D01*
X-21061424Y22562448D01*
X-21061347Y22568724D01*
X-21061330Y22570140D01*
X-21061330Y22570143D01*
X-21061271Y22575000D01*
X-21062170Y22581276D01*
X-17038691Y22581276D01*
X-17037208Y22569938D01*
X-17036465Y22562594D01*
X-17021959Y22359770D01*
X-16976092Y22148921D01*
X-16974520Y22144706D01*
X-16974519Y22144703D01*
X-16952657Y22086090D01*
X-16900685Y21946746D01*
X-16797272Y21757360D01*
X-16667960Y21584619D01*
X-16515381Y21432040D01*
X-16342640Y21302728D01*
X-16153254Y21199315D01*
X-16052167Y21161612D01*
X-15955297Y21125481D01*
X-15955294Y21125480D01*
X-15951079Y21123908D01*
X-15946689Y21122953D01*
X-15946682Y21122951D01*
X-15791771Y21089253D01*
X-15740230Y21078041D01*
X-15565465Y21065541D01*
X-15553554Y21064116D01*
X-15542352Y21062231D01*
X-15542345Y21062230D01*
X-15537552Y21061424D01*
X-15531276Y21061348D01*
X-15529860Y21061330D01*
X-15529857Y21061330D01*
X-15525000Y21061271D01*
X-15497376Y21065227D01*
X-15479514Y21066500D01*
X-3578250Y21066500D01*
X-3557345Y21064754D01*
X-3542344Y21062230D01*
X-3542341Y21062230D01*
X-3537552Y21061424D01*
X-3531313Y21061348D01*
X-3529860Y21061330D01*
X-3529857Y21061330D01*
X-3525000Y21061271D01*
X-3510210Y21063389D01*
X-3501357Y21064338D01*
X-3314258Y21077720D01*
X-3309770Y21078041D01*
X-3258229Y21089253D01*
X-3103318Y21122951D01*
X-3103311Y21122953D01*
X-3098921Y21123908D01*
X-3094706Y21125480D01*
X-3094703Y21125481D01*
X-2997833Y21161612D01*
X-2896746Y21199315D01*
X-2707360Y21302728D01*
X-2534619Y21432040D01*
X-2382040Y21584619D01*
X-2252728Y21757360D01*
X-2149315Y21946746D01*
X-2097343Y22086090D01*
X-2075481Y22144703D01*
X-2075480Y22144706D01*
X-2073908Y22148921D01*
X-2028041Y22359770D01*
X-2015541Y22534535D01*
X-2014116Y22546446D01*
X-2012231Y22557648D01*
X-2012230Y22557655D01*
X-2011424Y22562448D01*
X-2011348Y22568724D01*
X-2011330Y22570140D01*
X-2011330Y22570143D01*
X-2011271Y22575000D01*
X-2012170Y22581276D01*
X2011309Y22581276D01*
X2012792Y22569938D01*
X2013535Y22562594D01*
X2028041Y22359770D01*
X2073908Y22148921D01*
X2075480Y22144706D01*
X2075481Y22144703D01*
X2097343Y22086090D01*
X2149315Y21946746D01*
X2252728Y21757360D01*
X2382040Y21584619D01*
X2534619Y21432040D01*
X2707360Y21302728D01*
X2896746Y21199315D01*
X2997833Y21161612D01*
X3094703Y21125481D01*
X3094706Y21125480D01*
X3098921Y21123908D01*
X3103311Y21122953D01*
X3103318Y21122951D01*
X3258229Y21089253D01*
X3309770Y21078041D01*
X3484535Y21065541D01*
X3496446Y21064116D01*
X3507648Y21062231D01*
X3507655Y21062230D01*
X3512448Y21061424D01*
X3518724Y21061348D01*
X3520140Y21061330D01*
X3520143Y21061330D01*
X3525000Y21061271D01*
X3552624Y21065227D01*
X3570486Y21066500D01*
X15471750Y21066500D01*
X15492655Y21064754D01*
X15507656Y21062230D01*
X15507659Y21062230D01*
X15512448Y21061424D01*
X15518687Y21061348D01*
X15520140Y21061330D01*
X15520143Y21061330D01*
X15525000Y21061271D01*
X15539790Y21063389D01*
X15548643Y21064338D01*
X15735742Y21077720D01*
X15740230Y21078041D01*
X15791771Y21089253D01*
X15946682Y21122951D01*
X15946689Y21122953D01*
X15951079Y21123908D01*
X15955294Y21125480D01*
X15955297Y21125481D01*
X16052167Y21161612D01*
X16153254Y21199315D01*
X16342640Y21302728D01*
X16515381Y21432040D01*
X16667960Y21584619D01*
X16797272Y21757360D01*
X16900685Y21946746D01*
X16952657Y22086090D01*
X16974519Y22144703D01*
X16974520Y22144706D01*
X16976092Y22148921D01*
X17021959Y22359770D01*
X17034459Y22534535D01*
X17035884Y22546446D01*
X17037769Y22557648D01*
X17037770Y22557655D01*
X17038576Y22562448D01*
X17038652Y22568724D01*
X17038670Y22570140D01*
X17038670Y22570143D01*
X17038729Y22575000D01*
X17037830Y22581276D01*
X21061309Y22581276D01*
X21062792Y22569938D01*
X21063535Y22562594D01*
X21078041Y22359770D01*
X21123908Y22148921D01*
X21125480Y22144706D01*
X21125481Y22144703D01*
X21147343Y22086090D01*
X21199315Y21946746D01*
X21302728Y21757360D01*
X21432040Y21584619D01*
X21584619Y21432040D01*
X21757360Y21302728D01*
X21946746Y21199315D01*
X22047833Y21161612D01*
X22144703Y21125481D01*
X22144706Y21125480D01*
X22148921Y21123908D01*
X22153311Y21122953D01*
X22153318Y21122951D01*
X22308229Y21089253D01*
X22359770Y21078041D01*
X22534535Y21065541D01*
X22546446Y21064116D01*
X22557648Y21062231D01*
X22557655Y21062230D01*
X22562448Y21061424D01*
X22568724Y21061348D01*
X22570140Y21061330D01*
X22570143Y21061330D01*
X22575000Y21061271D01*
X22602624Y21065227D01*
X22620486Y21066500D01*
X34521750Y21066500D01*
X34542655Y21064754D01*
X34557656Y21062230D01*
X34557659Y21062230D01*
X34562448Y21061424D01*
X34568687Y21061348D01*
X34570140Y21061330D01*
X34570143Y21061330D01*
X34575000Y21061271D01*
X34589790Y21063389D01*
X34598643Y21064338D01*
X34785742Y21077720D01*
X34790230Y21078041D01*
X34841771Y21089253D01*
X34996682Y21122951D01*
X34996689Y21122953D01*
X35001079Y21123908D01*
X35005294Y21125480D01*
X35005297Y21125481D01*
X35102166Y21161611D01*
X35203254Y21199315D01*
X35392640Y21302728D01*
X35565381Y21432040D01*
X35717960Y21584619D01*
X35847272Y21757360D01*
X35950685Y21946746D01*
X36002657Y22086090D01*
X36024519Y22144703D01*
X36024520Y22144706D01*
X36026092Y22148921D01*
X36071959Y22359770D01*
X36084459Y22534535D01*
X36085884Y22546446D01*
X36087769Y22557648D01*
X36087770Y22557655D01*
X36088576Y22562448D01*
X36088652Y22568724D01*
X36088670Y22570140D01*
X36088670Y22570143D01*
X36088729Y22575000D01*
X36087830Y22581276D01*
X40111309Y22581276D01*
X40112792Y22569938D01*
X40113535Y22562594D01*
X40128041Y22359770D01*
X40173908Y22148921D01*
X40175480Y22144706D01*
X40175481Y22144703D01*
X40197343Y22086090D01*
X40249315Y21946746D01*
X40352728Y21757360D01*
X40482040Y21584619D01*
X40634619Y21432040D01*
X40807360Y21302728D01*
X40996746Y21199315D01*
X41097833Y21161612D01*
X41194703Y21125481D01*
X41194706Y21125480D01*
X41198921Y21123908D01*
X41203311Y21122953D01*
X41203318Y21122951D01*
X41358229Y21089253D01*
X41409770Y21078041D01*
X41584535Y21065541D01*
X41596446Y21064116D01*
X41607648Y21062231D01*
X41607655Y21062230D01*
X41612448Y21061424D01*
X41618724Y21061348D01*
X41620140Y21061330D01*
X41620143Y21061330D01*
X41625000Y21061271D01*
X41652624Y21065227D01*
X41670486Y21066500D01*
X53571750Y21066500D01*
X53592655Y21064754D01*
X53607656Y21062230D01*
X53607659Y21062230D01*
X53612448Y21061424D01*
X53618687Y21061348D01*
X53620140Y21061330D01*
X53620143Y21061330D01*
X53625000Y21061271D01*
X53639790Y21063389D01*
X53648643Y21064338D01*
X53835742Y21077720D01*
X53840230Y21078041D01*
X53891771Y21089253D01*
X54046682Y21122951D01*
X54046689Y21122953D01*
X54051079Y21123908D01*
X54055294Y21125480D01*
X54055297Y21125481D01*
X54152166Y21161611D01*
X54253254Y21199315D01*
X54442640Y21302728D01*
X54615381Y21432040D01*
X54767960Y21584619D01*
X54897272Y21757360D01*
X55000685Y21946746D01*
X55052657Y22086090D01*
X55074519Y22144703D01*
X55074520Y22144706D01*
X55076092Y22148921D01*
X55121959Y22359770D01*
X55134459Y22534535D01*
X55135884Y22546446D01*
X55137769Y22557648D01*
X55137770Y22557655D01*
X55138576Y22562448D01*
X55138653Y22568724D01*
X55138670Y22570140D01*
X55138670Y22570143D01*
X55138729Y22575000D01*
X55134773Y22602624D01*
X55133500Y22620486D01*
X55133500Y34521750D01*
X55135246Y34542655D01*
X55137770Y34557656D01*
X55137770Y34557659D01*
X55138576Y34562448D01*
X55138729Y34575000D01*
X55136611Y34589790D01*
X55135662Y34598643D01*
X55122280Y34785742D01*
X55121959Y34790230D01*
X55076092Y35001079D01*
X55053628Y35061309D01*
X55002258Y35199036D01*
X55000685Y35203254D01*
X54897272Y35392640D01*
X54767960Y35565381D01*
X54615381Y35717960D01*
X54442640Y35847272D01*
X54253254Y35950685D01*
X54152166Y35988389D01*
X54055297Y36024519D01*
X54055294Y36024520D01*
X54051079Y36026092D01*
X54046689Y36027047D01*
X54046682Y36027049D01*
X53891771Y36060747D01*
X53840230Y36071959D01*
X53665465Y36084459D01*
X53653554Y36085884D01*
X53642352Y36087769D01*
X53642345Y36087770D01*
X53637552Y36088576D01*
X53631276Y36088653D01*
X53629860Y36088670D01*
X53629857Y36088670D01*
X53625000Y36088729D01*
X53605134Y36085884D01*
X53597376Y36084773D01*
X53579514Y36083500D01*
X41678250Y36083500D01*
X41657345Y36085246D01*
X41642344Y36087770D01*
X41642341Y36087770D01*
X41637552Y36088576D01*
X41631313Y36088652D01*
X41629860Y36088670D01*
X41629857Y36088670D01*
X41625000Y36088729D01*
X41610210Y36086611D01*
X41601357Y36085662D01*
X41414258Y36072280D01*
X41409770Y36071959D01*
X41358229Y36060747D01*
X41203318Y36027049D01*
X41203311Y36027047D01*
X41198921Y36026092D01*
X41194706Y36024520D01*
X41194703Y36024519D01*
X41097834Y35988389D01*
X40996746Y35950685D01*
X40807360Y35847272D01*
X40634619Y35717960D01*
X40482040Y35565381D01*
X40352728Y35392640D01*
X40249315Y35203254D01*
X40247742Y35199036D01*
X40196373Y35061309D01*
X40173908Y35001079D01*
X40128041Y34790230D01*
X40120470Y34684369D01*
X40114988Y34607725D01*
X40113808Y34597325D01*
X40112690Y34590149D01*
X40112690Y34590145D01*
X40111309Y34581276D01*
X40112473Y34572374D01*
X40112473Y34572372D01*
X40115436Y34549717D01*
X40116500Y34533379D01*
X40116500Y22624367D01*
X40115000Y22604982D01*
X40112690Y22590149D01*
X40112690Y22590145D01*
X40111309Y22581276D01*
X36087830Y22581276D01*
X36084773Y22602624D01*
X36083500Y22620486D01*
X36083500Y34521750D01*
X36085246Y34542655D01*
X36087770Y34557656D01*
X36087770Y34557659D01*
X36088576Y34562448D01*
X36088729Y34575000D01*
X36086611Y34589790D01*
X36085662Y34598643D01*
X36072280Y34785742D01*
X36071959Y34790230D01*
X36026092Y35001079D01*
X36003628Y35061309D01*
X35952258Y35199036D01*
X35950685Y35203254D01*
X35847272Y35392640D01*
X35717960Y35565381D01*
X35565381Y35717960D01*
X35392640Y35847272D01*
X35203254Y35950685D01*
X35102166Y35988389D01*
X35005297Y36024519D01*
X35005294Y36024520D01*
X35001079Y36026092D01*
X34996689Y36027047D01*
X34996682Y36027049D01*
X34841771Y36060747D01*
X34790230Y36071959D01*
X34615465Y36084459D01*
X34603554Y36085884D01*
X34592352Y36087769D01*
X34592345Y36087770D01*
X34587552Y36088576D01*
X34581276Y36088653D01*
X34579860Y36088670D01*
X34579857Y36088670D01*
X34575000Y36088729D01*
X34555134Y36085884D01*
X34547376Y36084773D01*
X34529514Y36083500D01*
X22628250Y36083500D01*
X22607345Y36085246D01*
X22592344Y36087770D01*
X22592341Y36087770D01*
X22587552Y36088576D01*
X22581313Y36088652D01*
X22579860Y36088670D01*
X22579857Y36088670D01*
X22575000Y36088729D01*
X22560210Y36086611D01*
X22551357Y36085662D01*
X22364258Y36072280D01*
X22359770Y36071959D01*
X22308229Y36060747D01*
X22153318Y36027049D01*
X22153311Y36027047D01*
X22148921Y36026092D01*
X22144706Y36024520D01*
X22144703Y36024519D01*
X22047834Y35988389D01*
X21946746Y35950685D01*
X21757360Y35847272D01*
X21584619Y35717960D01*
X21432040Y35565381D01*
X21302728Y35392640D01*
X21199315Y35203254D01*
X21197742Y35199036D01*
X21146373Y35061309D01*
X21123908Y35001079D01*
X21078041Y34790230D01*
X21070470Y34684369D01*
X21064988Y34607725D01*
X21063808Y34597325D01*
X21062690Y34590149D01*
X21062690Y34590145D01*
X21061309Y34581276D01*
X21062473Y34572374D01*
X21062473Y34572372D01*
X21065436Y34549717D01*
X21066500Y34533379D01*
X21066500Y22624367D01*
X21065000Y22604982D01*
X21062690Y22590149D01*
X21062690Y22590145D01*
X21061309Y22581276D01*
X17037830Y22581276D01*
X17034773Y22602624D01*
X17033500Y22620486D01*
X17033500Y34521750D01*
X17035246Y34542655D01*
X17037770Y34557656D01*
X17037770Y34557659D01*
X17038576Y34562448D01*
X17038729Y34575000D01*
X17036611Y34589790D01*
X17035662Y34598643D01*
X17022280Y34785742D01*
X17021959Y34790230D01*
X16976092Y35001079D01*
X16953628Y35061309D01*
X16902258Y35199036D01*
X16900685Y35203254D01*
X16797272Y35392640D01*
X16667960Y35565381D01*
X16515381Y35717960D01*
X16342640Y35847272D01*
X16153254Y35950685D01*
X16052166Y35988389D01*
X15955297Y36024519D01*
X15955294Y36024520D01*
X15951079Y36026092D01*
X15946689Y36027047D01*
X15946682Y36027049D01*
X15791771Y36060747D01*
X15740230Y36071959D01*
X15565465Y36084459D01*
X15553554Y36085884D01*
X15542352Y36087769D01*
X15542345Y36087770D01*
X15537552Y36088576D01*
X15531276Y36088653D01*
X15529860Y36088670D01*
X15529857Y36088670D01*
X15525000Y36088729D01*
X15505134Y36085884D01*
X15497376Y36084773D01*
X15479514Y36083500D01*
X3578250Y36083500D01*
X3557345Y36085246D01*
X3542344Y36087770D01*
X3542341Y36087770D01*
X3537552Y36088576D01*
X3531313Y36088652D01*
X3529860Y36088670D01*
X3529857Y36088670D01*
X3525000Y36088729D01*
X3510210Y36086611D01*
X3501357Y36085662D01*
X3314258Y36072280D01*
X3309770Y36071959D01*
X3258229Y36060747D01*
X3103318Y36027049D01*
X3103311Y36027047D01*
X3098921Y36026092D01*
X3094706Y36024520D01*
X3094703Y36024519D01*
X2997834Y35988389D01*
X2896746Y35950685D01*
X2707360Y35847272D01*
X2534619Y35717960D01*
X2382040Y35565381D01*
X2252728Y35392640D01*
X2149315Y35203254D01*
X2147742Y35199036D01*
X2096373Y35061309D01*
X2073908Y35001079D01*
X2028041Y34790230D01*
X2020470Y34684369D01*
X2014988Y34607725D01*
X2013808Y34597325D01*
X2012690Y34590149D01*
X2012690Y34590145D01*
X2011309Y34581276D01*
X2012473Y34572374D01*
X2012473Y34572372D01*
X2015436Y34549717D01*
X2016500Y34533379D01*
X2016500Y22624367D01*
X2015000Y22604982D01*
X2012690Y22590149D01*
X2012690Y22590145D01*
X2011309Y22581276D01*
X-2012170Y22581276D01*
X-2015227Y22602624D01*
X-2016500Y22620486D01*
X-2016500Y34521750D01*
X-2014754Y34542655D01*
X-2012230Y34557656D01*
X-2012230Y34557659D01*
X-2011424Y34562448D01*
X-2011271Y34575000D01*
X-2013389Y34589790D01*
X-2014338Y34598643D01*
X-2027720Y34785742D01*
X-2028041Y34790230D01*
X-2073908Y35001079D01*
X-2096372Y35061309D01*
X-2147742Y35199036D01*
X-2149315Y35203254D01*
X-2252728Y35392640D01*
X-2382040Y35565381D01*
X-2534619Y35717960D01*
X-2707360Y35847272D01*
X-2896746Y35950685D01*
X-2997834Y35988389D01*
X-3094703Y36024519D01*
X-3094706Y36024520D01*
X-3098921Y36026092D01*
X-3103311Y36027047D01*
X-3103318Y36027049D01*
X-3258229Y36060747D01*
X-3309770Y36071959D01*
X-3484535Y36084459D01*
X-3496446Y36085884D01*
X-3507648Y36087769D01*
X-3507655Y36087770D01*
X-3512448Y36088576D01*
X-3518724Y36088653D01*
X-3520140Y36088670D01*
X-3520143Y36088670D01*
X-3525000Y36088729D01*
X-3544866Y36085884D01*
X-3552624Y36084773D01*
X-3570486Y36083500D01*
X-15471750Y36083500D01*
X-15492655Y36085246D01*
X-15507656Y36087770D01*
X-15507659Y36087770D01*
X-15512448Y36088576D01*
X-15518687Y36088652D01*
X-15520140Y36088670D01*
X-15520143Y36088670D01*
X-15525000Y36088729D01*
X-15539790Y36086611D01*
X-15548643Y36085662D01*
X-15735742Y36072280D01*
X-15740230Y36071959D01*
X-15791771Y36060747D01*
X-15946682Y36027049D01*
X-15946689Y36027047D01*
X-15951079Y36026092D01*
X-15955294Y36024520D01*
X-15955297Y36024519D01*
X-16052166Y35988389D01*
X-16153254Y35950685D01*
X-16342640Y35847272D01*
X-16515381Y35717960D01*
X-16667960Y35565381D01*
X-16797272Y35392640D01*
X-16900685Y35203254D01*
X-16902258Y35199036D01*
X-16953627Y35061309D01*
X-16976092Y35001079D01*
X-17021959Y34790230D01*
X-17029530Y34684369D01*
X-17035012Y34607725D01*
X-17036192Y34597325D01*
X-17037310Y34590149D01*
X-17037310Y34590145D01*
X-17038691Y34581276D01*
X-17037527Y34572374D01*
X-17037527Y34572372D01*
X-17034564Y34549717D01*
X-17033500Y34533379D01*
X-17033500Y22624367D01*
X-17035000Y22604982D01*
X-17037310Y22590149D01*
X-17037310Y22590145D01*
X-17038691Y22581276D01*
X-21062170Y22581276D01*
X-21065227Y22602624D01*
X-21066500Y22620486D01*
X-21066500Y34521750D01*
X-21064754Y34542655D01*
X-21062230Y34557656D01*
X-21062230Y34557659D01*
X-21061424Y34562448D01*
X-21061271Y34575000D01*
X-21063389Y34589790D01*
X-21064338Y34598643D01*
X-21077720Y34785742D01*
X-21078041Y34790230D01*
X-21123908Y35001079D01*
X-21146372Y35061309D01*
X-21197742Y35199036D01*
X-21199315Y35203254D01*
X-21302728Y35392640D01*
X-21432040Y35565381D01*
X-21584619Y35717960D01*
X-21757360Y35847272D01*
X-21946746Y35950685D01*
X-22047834Y35988389D01*
X-22144703Y36024519D01*
X-22144706Y36024520D01*
X-22148921Y36026092D01*
X-22153311Y36027047D01*
X-22153318Y36027049D01*
X-22308229Y36060747D01*
X-22359770Y36071959D01*
X-22534535Y36084459D01*
X-22546446Y36085884D01*
X-22557648Y36087769D01*
X-22557655Y36087770D01*
X-22562448Y36088576D01*
X-22568724Y36088653D01*
X-22570140Y36088670D01*
X-22570143Y36088670D01*
X-22575000Y36088729D01*
X-22594866Y36085884D01*
X-22602624Y36084773D01*
X-22620486Y36083500D01*
X-34521750Y36083500D01*
X-34542655Y36085246D01*
X-34557656Y36087770D01*
X-34557659Y36087770D01*
X-34562448Y36088576D01*
X-34568687Y36088652D01*
X-34570140Y36088670D01*
X-34570143Y36088670D01*
X-34575000Y36088729D01*
X-34589790Y36086611D01*
X-34598643Y36085662D01*
X-34785742Y36072280D01*
X-34790230Y36071959D01*
X-34841771Y36060747D01*
X-34996682Y36027049D01*
X-34996689Y36027047D01*
X-35001079Y36026092D01*
X-35005294Y36024520D01*
X-35005297Y36024519D01*
X-35102166Y35988389D01*
X-35203254Y35950685D01*
X-35392640Y35847272D01*
X-35565381Y35717960D01*
X-35717960Y35565381D01*
X-35847272Y35392640D01*
X-35950685Y35203254D01*
X-35952258Y35199036D01*
X-36003627Y35061309D01*
X-36026092Y35001079D01*
X-36071959Y34790230D01*
X-36079530Y34684369D01*
X-36085012Y34607725D01*
X-36086192Y34597325D01*
X-36087310Y34590149D01*
X-36087310Y34590145D01*
X-36088691Y34581276D01*
X-36087527Y34572374D01*
X-36087527Y34572372D01*
X-36084564Y34549717D01*
X-36083500Y34533379D01*
X-36083500Y22624367D01*
X-36085000Y22604982D01*
X-36087310Y22590149D01*
X-36087310Y22590145D01*
X-36088691Y22581276D01*
X-40112170Y22581276D01*
X-40115227Y22602624D01*
X-40116500Y22620486D01*
X-40116500Y34521750D01*
X-40114754Y34542655D01*
X-40112230Y34557656D01*
X-40112230Y34557659D01*
X-40111424Y34562448D01*
X-40111271Y34575000D01*
X-40113389Y34589790D01*
X-40114338Y34598643D01*
X-40127720Y34785742D01*
X-40128041Y34790230D01*
X-40173908Y35001079D01*
X-40196372Y35061309D01*
X-40247742Y35199036D01*
X-40249315Y35203254D01*
X-40352728Y35392640D01*
X-40482040Y35565381D01*
X-40634619Y35717960D01*
X-40807360Y35847272D01*
X-40996746Y35950685D01*
X-41097834Y35988389D01*
X-41194703Y36024519D01*
X-41194706Y36024520D01*
X-41198921Y36026092D01*
X-41203311Y36027047D01*
X-41203318Y36027049D01*
X-41358229Y36060747D01*
X-41409770Y36071959D01*
X-41584535Y36084459D01*
X-41596446Y36085884D01*
X-41607648Y36087769D01*
X-41607655Y36087770D01*
X-41612448Y36088576D01*
X-41618724Y36088653D01*
X-41620140Y36088670D01*
X-41620143Y36088670D01*
X-41625000Y36088729D01*
X-41644866Y36085884D01*
X-41652624Y36084773D01*
X-41670486Y36083500D01*
X-53571750Y36083500D01*
X-53592655Y36085246D01*
X-53607656Y36087770D01*
X-53607659Y36087770D01*
X-53612448Y36088576D01*
X-53618687Y36088652D01*
X-53620140Y36088670D01*
X-53620143Y36088670D01*
X-53625000Y36088729D01*
X-53639790Y36086611D01*
X-53648643Y36085662D01*
X-53835742Y36072280D01*
X-53840230Y36071959D01*
X-53891771Y36060747D01*
X-54046682Y36027049D01*
X-54046689Y36027047D01*
X-54051079Y36026092D01*
X-54055294Y36024520D01*
X-54055297Y36024519D01*
X-54152166Y35988389D01*
X-54253254Y35950685D01*
X-54442640Y35847272D01*
X-54615381Y35717960D01*
X-54767960Y35565381D01*
X-54897272Y35392640D01*
X-55000685Y35203254D01*
X-55002258Y35199036D01*
X-55053627Y35061309D01*
X-55076092Y35001079D01*
X-55121959Y34790230D01*
X-55129530Y34684369D01*
X-55135012Y34607725D01*
X-55136192Y34597325D01*
X-55137310Y34590149D01*
X-55137310Y34590145D01*
X-55138691Y34581276D01*
X-55137527Y34572374D01*
X-55137527Y34572372D01*
X-55134564Y34549717D01*
X-55133500Y34533379D01*
X-55133500Y22624367D01*
X-55135000Y22604982D01*
X-55137310Y22590149D01*
X-55137310Y22590145D01*
X-55138691Y22581276D01*
X-59181500Y22581276D01*
X-59181500Y38057723D01*
X-39962991Y38057723D01*
X-39937375Y37789231D01*
X-39936290Y37784797D01*
X-39936289Y37784791D01*
X-39874355Y37531688D01*
X-39873269Y37527250D01*
X-39772015Y37277267D01*
X-39635735Y37044518D01*
X-39632882Y37040951D01*
X-39515314Y36893940D01*
X-39467284Y36833881D01*
X-39270191Y36649766D01*
X-39048584Y36496032D01*
X-39044501Y36494001D01*
X-39044498Y36493999D01*
X-38928987Y36436534D01*
X-38807106Y36375899D01*
X-38802772Y36374478D01*
X-38802769Y36374477D01*
X-38555147Y36293302D01*
X-38555141Y36293301D01*
X-38550814Y36291882D01*
X-38546323Y36291102D01*
X-38546322Y36291102D01*
X-38288860Y36246399D01*
X-38288852Y36246398D01*
X-38285079Y36245743D01*
X-38281242Y36245552D01*
X-38201422Y36241578D01*
X-38201414Y36241578D01*
X-38199851Y36241500D01*
X-38031488Y36241500D01*
X-38029220Y36241665D01*
X-38029208Y36241665D01*
X-37898116Y36251177D01*
X-37830996Y36256047D01*
X-37826541Y36257031D01*
X-37826538Y36257031D01*
X-37572088Y36313209D01*
X-37572084Y36313210D01*
X-37567628Y36314194D01*
X-37441520Y36361972D01*
X-37319682Y36408132D01*
X-37319679Y36408133D01*
X-37315412Y36409750D01*
X-37079632Y36540714D01*
X-36865227Y36704343D01*
X-36676688Y36897208D01*
X-36517966Y37115270D01*
X-36434810Y37273324D01*
X-36394510Y37349921D01*
X-36394507Y37349927D01*
X-36392385Y37353961D01*
X-36329622Y37531688D01*
X-36304098Y37603967D01*
X-36304098Y37603968D01*
X-36302575Y37608280D01*
X-36250419Y37872900D01*
X-36241218Y38057723D01*
X36237009Y38057723D01*
X36262625Y37789231D01*
X36263710Y37784797D01*
X36263711Y37784791D01*
X36325645Y37531688D01*
X36326731Y37527250D01*
X36427985Y37277267D01*
X36564265Y37044518D01*
X36567118Y37040951D01*
X36684686Y36893940D01*
X36732716Y36833881D01*
X36929809Y36649766D01*
X37151416Y36496032D01*
X37155499Y36494001D01*
X37155502Y36493999D01*
X37271013Y36436534D01*
X37392894Y36375899D01*
X37397228Y36374478D01*
X37397231Y36374477D01*
X37644853Y36293302D01*
X37644859Y36293301D01*
X37649186Y36291882D01*
X37653677Y36291102D01*
X37653678Y36291102D01*
X37911140Y36246399D01*
X37911148Y36246398D01*
X37914921Y36245743D01*
X37918758Y36245552D01*
X37998578Y36241578D01*
X37998586Y36241578D01*
X38000149Y36241500D01*
X38168512Y36241500D01*
X38170780Y36241665D01*
X38170792Y36241665D01*
X38301884Y36251177D01*
X38369004Y36256047D01*
X38373459Y36257031D01*
X38373462Y36257031D01*
X38627912Y36313209D01*
X38627916Y36313210D01*
X38632372Y36314194D01*
X38758480Y36361972D01*
X38880318Y36408132D01*
X38880321Y36408133D01*
X38884588Y36409750D01*
X39120368Y36540714D01*
X39334773Y36704343D01*
X39523312Y36897208D01*
X39682034Y37115270D01*
X39765190Y37273324D01*
X39805490Y37349921D01*
X39805493Y37349927D01*
X39807615Y37353961D01*
X39870378Y37531688D01*
X39895902Y37603967D01*
X39895902Y37603968D01*
X39897425Y37608280D01*
X39949581Y37872900D01*
X39958782Y38057723D01*
X39962764Y38137708D01*
X39962764Y38137714D01*
X39962991Y38142277D01*
X39937375Y38410769D01*
X39892042Y38596033D01*
X39874355Y38668312D01*
X39873269Y38672750D01*
X39772015Y38922733D01*
X39635735Y39155482D01*
X39517928Y39302792D01*
X39470136Y39362553D01*
X39470135Y39362555D01*
X39467284Y39366119D01*
X39270191Y39550234D01*
X39048584Y39703968D01*
X39044501Y39705999D01*
X39044498Y39706001D01*
X38879606Y39788033D01*
X38807106Y39824101D01*
X38802772Y39825522D01*
X38802769Y39825523D01*
X38555147Y39906698D01*
X38555141Y39906699D01*
X38550814Y39908118D01*
X38546322Y39908898D01*
X38288860Y39953601D01*
X38288852Y39953602D01*
X38285079Y39954257D01*
X38273817Y39954818D01*
X38201422Y39958422D01*
X38201414Y39958422D01*
X38199851Y39958500D01*
X38031488Y39958500D01*
X38029220Y39958335D01*
X38029208Y39958335D01*
X37898116Y39948823D01*
X37830996Y39943953D01*
X37826541Y39942969D01*
X37826538Y39942969D01*
X37572088Y39886791D01*
X37572084Y39886790D01*
X37567628Y39885806D01*
X37441520Y39838028D01*
X37319682Y39791868D01*
X37319679Y39791867D01*
X37315412Y39790250D01*
X37079632Y39659286D01*
X36865227Y39495657D01*
X36676688Y39302792D01*
X36517966Y39084730D01*
X36515844Y39080696D01*
X36394510Y38850079D01*
X36394507Y38850073D01*
X36392385Y38846039D01*
X36390865Y38841734D01*
X36390863Y38841730D01*
X36304098Y38596033D01*
X36302575Y38591720D01*
X36250419Y38327100D01*
X36250192Y38322547D01*
X36250192Y38322544D01*
X36240991Y38137708D01*
X36237009Y38057723D01*
X-36241218Y38057723D01*
X-36237236Y38137708D01*
X-36237236Y38137714D01*
X-36237009Y38142277D01*
X-36262625Y38410769D01*
X-36307958Y38596033D01*
X-36325645Y38668312D01*
X-36326731Y38672750D01*
X-36427985Y38922733D01*
X-36564265Y39155482D01*
X-36682072Y39302792D01*
X-36729864Y39362553D01*
X-36729865Y39362555D01*
X-36732716Y39366119D01*
X-36929809Y39550234D01*
X-37151416Y39703968D01*
X-37155499Y39705999D01*
X-37155502Y39706001D01*
X-37320394Y39788033D01*
X-37392894Y39824101D01*
X-37397228Y39825522D01*
X-37397231Y39825523D01*
X-37644853Y39906698D01*
X-37644859Y39906699D01*
X-37649186Y39908118D01*
X-37653678Y39908898D01*
X-37911140Y39953601D01*
X-37911148Y39953602D01*
X-37914921Y39954257D01*
X-37926183Y39954818D01*
X-37998578Y39958422D01*
X-37998586Y39958422D01*
X-38000149Y39958500D01*
X-38168512Y39958500D01*
X-38170780Y39958335D01*
X-38170792Y39958335D01*
X-38301884Y39948823D01*
X-38369004Y39943953D01*
X-38373459Y39942969D01*
X-38373462Y39942969D01*
X-38627912Y39886791D01*
X-38627916Y39886790D01*
X-38632372Y39885806D01*
X-38758480Y39838028D01*
X-38880318Y39791868D01*
X-38880321Y39791867D01*
X-38884588Y39790250D01*
X-39120368Y39659286D01*
X-39334773Y39495657D01*
X-39523312Y39302792D01*
X-39682034Y39084730D01*
X-39684156Y39080696D01*
X-39805490Y38850079D01*
X-39805493Y38850073D01*
X-39807615Y38846039D01*
X-39809135Y38841734D01*
X-39809137Y38841730D01*
X-39895902Y38596033D01*
X-39897425Y38591720D01*
X-39949581Y38327100D01*
X-39949808Y38322547D01*
X-39949808Y38322544D01*
X-39959009Y38137708D01*
X-39962991Y38057723D01*
X-59181500Y38057723D01*
X-59181500Y41631276D01*
X-55138691Y41631276D01*
X-55137208Y41619938D01*
X-55136465Y41612594D01*
X-55121959Y41409770D01*
X-55076092Y41198921D01*
X-55074520Y41194706D01*
X-55074519Y41194703D01*
X-55052657Y41136090D01*
X-55000685Y40996746D01*
X-54897272Y40807360D01*
X-54767960Y40634619D01*
X-54615381Y40482040D01*
X-54442640Y40352728D01*
X-54253254Y40249315D01*
X-54152166Y40211611D01*
X-54055297Y40175481D01*
X-54055294Y40175480D01*
X-54051079Y40173908D01*
X-54046689Y40172953D01*
X-54046682Y40172951D01*
X-53891771Y40139253D01*
X-53840230Y40128041D01*
X-53665465Y40115541D01*
X-53653554Y40114116D01*
X-53642352Y40112231D01*
X-53642345Y40112230D01*
X-53637552Y40111424D01*
X-53631276Y40111347D01*
X-53629860Y40111330D01*
X-53629857Y40111330D01*
X-53625000Y40111271D01*
X-53597376Y40115227D01*
X-53579514Y40116500D01*
X-41678250Y40116500D01*
X-41657345Y40114754D01*
X-41642344Y40112230D01*
X-41642341Y40112230D01*
X-41637552Y40111424D01*
X-41631313Y40111348D01*
X-41629860Y40111330D01*
X-41629857Y40111330D01*
X-41625000Y40111271D01*
X-41610210Y40113389D01*
X-41601357Y40114338D01*
X-41414258Y40127720D01*
X-41409770Y40128041D01*
X-41358229Y40139253D01*
X-41203318Y40172951D01*
X-41203311Y40172953D01*
X-41198921Y40173908D01*
X-41194706Y40175480D01*
X-41194703Y40175481D01*
X-41097834Y40211611D01*
X-40996746Y40249315D01*
X-40807360Y40352728D01*
X-40634619Y40482040D01*
X-40482040Y40634619D01*
X-40352728Y40807360D01*
X-40249315Y40996746D01*
X-40197343Y41136090D01*
X-40175481Y41194703D01*
X-40175480Y41194706D01*
X-40173908Y41198921D01*
X-40128041Y41409770D01*
X-40115541Y41584535D01*
X-40114116Y41596446D01*
X-40112231Y41607648D01*
X-40112230Y41607655D01*
X-40111424Y41612448D01*
X-40111347Y41618724D01*
X-40111330Y41620140D01*
X-40111330Y41620143D01*
X-40111271Y41625000D01*
X-40112170Y41631276D01*
X-36088691Y41631276D01*
X-36087208Y41619938D01*
X-36086465Y41612594D01*
X-36071959Y41409770D01*
X-36026092Y41198921D01*
X-36024520Y41194706D01*
X-36024519Y41194703D01*
X-36002657Y41136090D01*
X-35950685Y40996746D01*
X-35847272Y40807360D01*
X-35717960Y40634619D01*
X-35565381Y40482040D01*
X-35392640Y40352728D01*
X-35203254Y40249315D01*
X-35102166Y40211611D01*
X-35005297Y40175481D01*
X-35005294Y40175480D01*
X-35001079Y40173908D01*
X-34996689Y40172953D01*
X-34996682Y40172951D01*
X-34841771Y40139253D01*
X-34790230Y40128041D01*
X-34615465Y40115541D01*
X-34603554Y40114116D01*
X-34592352Y40112231D01*
X-34592345Y40112230D01*
X-34587552Y40111424D01*
X-34581276Y40111347D01*
X-34579860Y40111330D01*
X-34579857Y40111330D01*
X-34575000Y40111271D01*
X-34547376Y40115227D01*
X-34529514Y40116500D01*
X-22628250Y40116500D01*
X-22607345Y40114754D01*
X-22592344Y40112230D01*
X-22592341Y40112230D01*
X-22587552Y40111424D01*
X-22581313Y40111348D01*
X-22579860Y40111330D01*
X-22579857Y40111330D01*
X-22575000Y40111271D01*
X-22560210Y40113389D01*
X-22551357Y40114338D01*
X-22364258Y40127720D01*
X-22359770Y40128041D01*
X-22308229Y40139253D01*
X-22153318Y40172951D01*
X-22153311Y40172953D01*
X-22148921Y40173908D01*
X-22144706Y40175480D01*
X-22144703Y40175481D01*
X-22047834Y40211611D01*
X-21946746Y40249315D01*
X-21757360Y40352728D01*
X-21584619Y40482040D01*
X-21432040Y40634619D01*
X-21302728Y40807360D01*
X-21199315Y40996746D01*
X-21147343Y41136090D01*
X-21125481Y41194703D01*
X-21125480Y41194706D01*
X-21123908Y41198921D01*
X-21078041Y41409770D01*
X-21065541Y41584535D01*
X-21064116Y41596446D01*
X-21062231Y41607648D01*
X-21062230Y41607655D01*
X-21061424Y41612448D01*
X-21061347Y41618724D01*
X-21061330Y41620140D01*
X-21061330Y41620143D01*
X-21061271Y41625000D01*
X-21062170Y41631276D01*
X-17038691Y41631276D01*
X-17037208Y41619938D01*
X-17036465Y41612594D01*
X-17021959Y41409770D01*
X-16976092Y41198921D01*
X-16974520Y41194706D01*
X-16974519Y41194703D01*
X-16952657Y41136090D01*
X-16900685Y40996746D01*
X-16797272Y40807360D01*
X-16667960Y40634619D01*
X-16515381Y40482040D01*
X-16342640Y40352728D01*
X-16153254Y40249315D01*
X-16052166Y40211611D01*
X-15955297Y40175481D01*
X-15955294Y40175480D01*
X-15951079Y40173908D01*
X-15946689Y40172953D01*
X-15946682Y40172951D01*
X-15791771Y40139253D01*
X-15740230Y40128041D01*
X-15565465Y40115541D01*
X-15553554Y40114116D01*
X-15542352Y40112231D01*
X-15542345Y40112230D01*
X-15537552Y40111424D01*
X-15531276Y40111347D01*
X-15529860Y40111330D01*
X-15529857Y40111330D01*
X-15525000Y40111271D01*
X-15497376Y40115227D01*
X-15479514Y40116500D01*
X-3578250Y40116500D01*
X-3557345Y40114754D01*
X-3542344Y40112230D01*
X-3542341Y40112230D01*
X-3537552Y40111424D01*
X-3531313Y40111348D01*
X-3529860Y40111330D01*
X-3529857Y40111330D01*
X-3525000Y40111271D01*
X-3510210Y40113389D01*
X-3501357Y40114338D01*
X-3314258Y40127720D01*
X-3309770Y40128041D01*
X-3258229Y40139253D01*
X-3103318Y40172951D01*
X-3103311Y40172953D01*
X-3098921Y40173908D01*
X-3094706Y40175480D01*
X-3094703Y40175481D01*
X-2997834Y40211611D01*
X-2896746Y40249315D01*
X-2707360Y40352728D01*
X-2534619Y40482040D01*
X-2382040Y40634619D01*
X-2252728Y40807360D01*
X-2149315Y40996746D01*
X-2097343Y41136090D01*
X-2075481Y41194703D01*
X-2075480Y41194706D01*
X-2073908Y41198921D01*
X-2028041Y41409770D01*
X-2015541Y41584535D01*
X-2014116Y41596446D01*
X-2012231Y41607648D01*
X-2012230Y41607655D01*
X-2011424Y41612448D01*
X-2011348Y41618724D01*
X-2011330Y41620140D01*
X-2011330Y41620143D01*
X-2011271Y41625000D01*
X-2012170Y41631276D01*
X2011309Y41631276D01*
X2012792Y41619938D01*
X2013535Y41612594D01*
X2028041Y41409770D01*
X2073908Y41198921D01*
X2075480Y41194706D01*
X2075481Y41194703D01*
X2097343Y41136090D01*
X2149315Y40996746D01*
X2252728Y40807360D01*
X2382040Y40634619D01*
X2534619Y40482040D01*
X2707360Y40352728D01*
X2896746Y40249315D01*
X2997834Y40211611D01*
X3094703Y40175481D01*
X3094706Y40175480D01*
X3098921Y40173908D01*
X3103311Y40172953D01*
X3103318Y40172951D01*
X3258229Y40139253D01*
X3309770Y40128041D01*
X3484535Y40115541D01*
X3496446Y40114116D01*
X3507648Y40112231D01*
X3507655Y40112230D01*
X3512448Y40111424D01*
X3518724Y40111347D01*
X3520140Y40111330D01*
X3520143Y40111330D01*
X3525000Y40111271D01*
X3552624Y40115227D01*
X3570486Y40116500D01*
X15471750Y40116500D01*
X15492655Y40114754D01*
X15507656Y40112230D01*
X15507659Y40112230D01*
X15512448Y40111424D01*
X15518687Y40111348D01*
X15520140Y40111330D01*
X15520143Y40111330D01*
X15525000Y40111271D01*
X15539790Y40113389D01*
X15548643Y40114338D01*
X15735742Y40127720D01*
X15740230Y40128041D01*
X15791771Y40139253D01*
X15946682Y40172951D01*
X15946689Y40172953D01*
X15951079Y40173908D01*
X15955294Y40175480D01*
X15955297Y40175481D01*
X16052166Y40211611D01*
X16153254Y40249315D01*
X16342640Y40352728D01*
X16515381Y40482040D01*
X16667960Y40634619D01*
X16797272Y40807360D01*
X16900685Y40996746D01*
X16952657Y41136090D01*
X16974519Y41194703D01*
X16974520Y41194706D01*
X16976092Y41198921D01*
X17021959Y41409770D01*
X17034459Y41584535D01*
X17035884Y41596446D01*
X17037769Y41607648D01*
X17037770Y41607655D01*
X17038576Y41612448D01*
X17038652Y41618724D01*
X17038670Y41620140D01*
X17038670Y41620143D01*
X17038729Y41625000D01*
X17037830Y41631276D01*
X21061309Y41631276D01*
X21062792Y41619938D01*
X21063535Y41612594D01*
X21078041Y41409770D01*
X21123908Y41198921D01*
X21125480Y41194706D01*
X21125481Y41194703D01*
X21147343Y41136090D01*
X21199315Y40996746D01*
X21302728Y40807360D01*
X21432040Y40634619D01*
X21584619Y40482040D01*
X21757360Y40352728D01*
X21946746Y40249315D01*
X22047834Y40211611D01*
X22144703Y40175481D01*
X22144706Y40175480D01*
X22148921Y40173908D01*
X22153311Y40172953D01*
X22153318Y40172951D01*
X22308229Y40139253D01*
X22359770Y40128041D01*
X22534535Y40115541D01*
X22546446Y40114116D01*
X22557648Y40112231D01*
X22557655Y40112230D01*
X22562448Y40111424D01*
X22568724Y40111347D01*
X22570140Y40111330D01*
X22570143Y40111330D01*
X22575000Y40111271D01*
X22602624Y40115227D01*
X22620486Y40116500D01*
X34521750Y40116500D01*
X34542655Y40114754D01*
X34557656Y40112230D01*
X34557659Y40112230D01*
X34562448Y40111424D01*
X34568687Y40111348D01*
X34570140Y40111330D01*
X34570143Y40111330D01*
X34575000Y40111271D01*
X34589790Y40113389D01*
X34598643Y40114338D01*
X34785742Y40127720D01*
X34790230Y40128041D01*
X34841771Y40139253D01*
X34996682Y40172951D01*
X34996689Y40172953D01*
X35001079Y40173908D01*
X35005294Y40175480D01*
X35005297Y40175481D01*
X35102166Y40211611D01*
X35203254Y40249315D01*
X35392640Y40352728D01*
X35565381Y40482040D01*
X35717960Y40634619D01*
X35847272Y40807360D01*
X35950685Y40996746D01*
X36002657Y41136090D01*
X36024519Y41194703D01*
X36024520Y41194706D01*
X36026092Y41198921D01*
X36071959Y41409770D01*
X36084459Y41584535D01*
X36085884Y41596446D01*
X36087769Y41607648D01*
X36087770Y41607655D01*
X36088576Y41612448D01*
X36088652Y41618724D01*
X36088670Y41620140D01*
X36088670Y41620143D01*
X36088729Y41625000D01*
X36087830Y41631276D01*
X40111309Y41631276D01*
X40112792Y41619938D01*
X40113535Y41612594D01*
X40128041Y41409770D01*
X40173908Y41198921D01*
X40175480Y41194706D01*
X40175481Y41194703D01*
X40197343Y41136090D01*
X40249315Y40996746D01*
X40352728Y40807360D01*
X40482040Y40634619D01*
X40634619Y40482040D01*
X40807360Y40352728D01*
X40996746Y40249315D01*
X41097834Y40211611D01*
X41194703Y40175481D01*
X41194706Y40175480D01*
X41198921Y40173908D01*
X41203311Y40172953D01*
X41203318Y40172951D01*
X41358229Y40139253D01*
X41409770Y40128041D01*
X41584535Y40115541D01*
X41596446Y40114116D01*
X41607648Y40112231D01*
X41607655Y40112230D01*
X41612448Y40111424D01*
X41618724Y40111347D01*
X41620140Y40111330D01*
X41620143Y40111330D01*
X41625000Y40111271D01*
X41652624Y40115227D01*
X41670486Y40116500D01*
X53571750Y40116500D01*
X53592655Y40114754D01*
X53607656Y40112230D01*
X53607659Y40112230D01*
X53612448Y40111424D01*
X53618687Y40111348D01*
X53620140Y40111330D01*
X53620143Y40111330D01*
X53625000Y40111271D01*
X53639790Y40113389D01*
X53648643Y40114338D01*
X53835742Y40127720D01*
X53840230Y40128041D01*
X53891771Y40139253D01*
X54046682Y40172951D01*
X54046689Y40172953D01*
X54051079Y40173908D01*
X54055294Y40175480D01*
X54055297Y40175481D01*
X54152166Y40211611D01*
X54253254Y40249315D01*
X54442640Y40352728D01*
X54615381Y40482040D01*
X54767960Y40634619D01*
X54897272Y40807360D01*
X55000685Y40996746D01*
X55052657Y41136090D01*
X55074519Y41194703D01*
X55074520Y41194706D01*
X55076092Y41198921D01*
X55121959Y41409770D01*
X55134459Y41584535D01*
X55135884Y41596446D01*
X55137769Y41607648D01*
X55137770Y41607655D01*
X55138576Y41612448D01*
X55138653Y41618724D01*
X55138670Y41620140D01*
X55138670Y41620143D01*
X55138729Y41625000D01*
X55134773Y41652624D01*
X55133500Y41670486D01*
X55133500Y53571750D01*
X55135246Y53592655D01*
X55137770Y53607656D01*
X55137770Y53607659D01*
X55138576Y53612448D01*
X55138729Y53625000D01*
X55136611Y53639790D01*
X55135662Y53648643D01*
X55122280Y53835742D01*
X55121959Y53840230D01*
X55076092Y54051079D01*
X55053628Y54111309D01*
X55002258Y54249036D01*
X55000685Y54253254D01*
X54897272Y54442640D01*
X54767960Y54615381D01*
X54615381Y54767960D01*
X54442640Y54897272D01*
X54253254Y55000685D01*
X54152166Y55038389D01*
X54055297Y55074519D01*
X54055294Y55074520D01*
X54051079Y55076092D01*
X54046689Y55077047D01*
X54046682Y55077049D01*
X53891771Y55110747D01*
X53840230Y55121959D01*
X53665465Y55134459D01*
X53653554Y55135884D01*
X53642352Y55137769D01*
X53642345Y55137770D01*
X53637552Y55138576D01*
X53631276Y55138652D01*
X53629860Y55138670D01*
X53629857Y55138670D01*
X53625000Y55138729D01*
X53605134Y55135884D01*
X53597376Y55134773D01*
X53579514Y55133500D01*
X41678250Y55133500D01*
X41657345Y55135246D01*
X41642344Y55137770D01*
X41642341Y55137770D01*
X41637552Y55138576D01*
X41631313Y55138652D01*
X41629860Y55138670D01*
X41629857Y55138670D01*
X41625000Y55138729D01*
X41610210Y55136611D01*
X41601357Y55135662D01*
X41414258Y55122280D01*
X41409770Y55121959D01*
X41358229Y55110747D01*
X41203318Y55077049D01*
X41203311Y55077047D01*
X41198921Y55076092D01*
X41194706Y55074520D01*
X41194703Y55074519D01*
X41097834Y55038389D01*
X40996746Y55000685D01*
X40807360Y54897272D01*
X40634619Y54767960D01*
X40482040Y54615381D01*
X40352728Y54442640D01*
X40249315Y54253254D01*
X40247742Y54249036D01*
X40196373Y54111309D01*
X40173908Y54051079D01*
X40128041Y53840230D01*
X40120470Y53734369D01*
X40114988Y53657725D01*
X40113808Y53647325D01*
X40112690Y53640149D01*
X40112690Y53640145D01*
X40111309Y53631276D01*
X40112473Y53622374D01*
X40112473Y53622372D01*
X40115436Y53599717D01*
X40116500Y53583379D01*
X40116500Y41674367D01*
X40115000Y41654982D01*
X40112690Y41640149D01*
X40112690Y41640145D01*
X40111309Y41631276D01*
X36087830Y41631276D01*
X36084773Y41652624D01*
X36083500Y41670486D01*
X36083500Y53571750D01*
X36085246Y53592655D01*
X36087770Y53607656D01*
X36087770Y53607659D01*
X36088576Y53612448D01*
X36088729Y53625000D01*
X36086611Y53639790D01*
X36085662Y53648643D01*
X36072280Y53835742D01*
X36071959Y53840230D01*
X36026092Y54051079D01*
X36003628Y54111309D01*
X35952258Y54249036D01*
X35950685Y54253254D01*
X35847272Y54442640D01*
X35717960Y54615381D01*
X35565381Y54767960D01*
X35392640Y54897272D01*
X35203254Y55000685D01*
X35102166Y55038389D01*
X35005297Y55074519D01*
X35005294Y55074520D01*
X35001079Y55076092D01*
X34996689Y55077047D01*
X34996682Y55077049D01*
X34841771Y55110747D01*
X34790230Y55121959D01*
X34615465Y55134459D01*
X34603554Y55135884D01*
X34592352Y55137769D01*
X34592345Y55137770D01*
X34587552Y55138576D01*
X34581276Y55138652D01*
X34579860Y55138670D01*
X34579857Y55138670D01*
X34575000Y55138729D01*
X34555134Y55135884D01*
X34547376Y55134773D01*
X34529514Y55133500D01*
X22628250Y55133500D01*
X22607345Y55135246D01*
X22592344Y55137770D01*
X22592341Y55137770D01*
X22587552Y55138576D01*
X22581313Y55138652D01*
X22579860Y55138670D01*
X22579857Y55138670D01*
X22575000Y55138729D01*
X22560210Y55136611D01*
X22551357Y55135662D01*
X22364258Y55122280D01*
X22359770Y55121959D01*
X22308229Y55110747D01*
X22153318Y55077049D01*
X22153311Y55077047D01*
X22148921Y55076092D01*
X22144706Y55074520D01*
X22144703Y55074519D01*
X22047834Y55038389D01*
X21946746Y55000685D01*
X21757360Y54897272D01*
X21584619Y54767960D01*
X21432040Y54615381D01*
X21302728Y54442640D01*
X21199315Y54253254D01*
X21197742Y54249036D01*
X21146373Y54111309D01*
X21123908Y54051079D01*
X21078041Y53840230D01*
X21070470Y53734369D01*
X21064988Y53657725D01*
X21063808Y53647325D01*
X21062690Y53640149D01*
X21062690Y53640145D01*
X21061309Y53631276D01*
X21062473Y53622374D01*
X21062473Y53622372D01*
X21065436Y53599717D01*
X21066500Y53583379D01*
X21066500Y41674367D01*
X21065000Y41654982D01*
X21062690Y41640149D01*
X21062690Y41640145D01*
X21061309Y41631276D01*
X17037830Y41631276D01*
X17034773Y41652624D01*
X17033500Y41670486D01*
X17033500Y53571750D01*
X17035246Y53592655D01*
X17037770Y53607656D01*
X17037770Y53607659D01*
X17038576Y53612448D01*
X17038729Y53625000D01*
X17036611Y53639790D01*
X17035662Y53648643D01*
X17022280Y53835742D01*
X17021959Y53840230D01*
X16976092Y54051079D01*
X16953628Y54111309D01*
X16902258Y54249036D01*
X16900685Y54253254D01*
X16797272Y54442640D01*
X16667960Y54615381D01*
X16515381Y54767960D01*
X16342640Y54897272D01*
X16153254Y55000685D01*
X16052166Y55038389D01*
X15955297Y55074519D01*
X15955294Y55074520D01*
X15951079Y55076092D01*
X15946689Y55077047D01*
X15946682Y55077049D01*
X15791771Y55110747D01*
X15740230Y55121959D01*
X15565465Y55134459D01*
X15553554Y55135884D01*
X15542352Y55137769D01*
X15542345Y55137770D01*
X15537552Y55138576D01*
X15531276Y55138652D01*
X15529860Y55138670D01*
X15529857Y55138670D01*
X15525000Y55138729D01*
X15505134Y55135884D01*
X15497376Y55134773D01*
X15479514Y55133500D01*
X3578250Y55133500D01*
X3557345Y55135246D01*
X3542344Y55137770D01*
X3542341Y55137770D01*
X3537552Y55138576D01*
X3531313Y55138652D01*
X3529860Y55138670D01*
X3529857Y55138670D01*
X3525000Y55138729D01*
X3510210Y55136611D01*
X3501357Y55135662D01*
X3314258Y55122280D01*
X3309770Y55121959D01*
X3258229Y55110747D01*
X3103318Y55077049D01*
X3103311Y55077047D01*
X3098921Y55076092D01*
X3094706Y55074520D01*
X3094703Y55074519D01*
X2997834Y55038389D01*
X2896746Y55000685D01*
X2707360Y54897272D01*
X2534619Y54767960D01*
X2382040Y54615381D01*
X2252728Y54442640D01*
X2149315Y54253254D01*
X2147742Y54249036D01*
X2096373Y54111309D01*
X2073908Y54051079D01*
X2028041Y53840230D01*
X2020470Y53734369D01*
X2014988Y53657725D01*
X2013808Y53647325D01*
X2012690Y53640149D01*
X2012690Y53640145D01*
X2011309Y53631276D01*
X2012473Y53622374D01*
X2012473Y53622372D01*
X2015436Y53599717D01*
X2016500Y53583379D01*
X2016500Y41674367D01*
X2015000Y41654982D01*
X2012690Y41640149D01*
X2012690Y41640145D01*
X2011309Y41631276D01*
X-2012170Y41631276D01*
X-2015227Y41652624D01*
X-2016500Y41670486D01*
X-2016500Y53571750D01*
X-2014754Y53592655D01*
X-2012230Y53607656D01*
X-2012230Y53607659D01*
X-2011424Y53612448D01*
X-2011271Y53625000D01*
X-2013389Y53639790D01*
X-2014338Y53648643D01*
X-2027720Y53835742D01*
X-2028041Y53840230D01*
X-2073908Y54051079D01*
X-2096372Y54111309D01*
X-2147742Y54249036D01*
X-2149315Y54253254D01*
X-2252728Y54442640D01*
X-2382040Y54615381D01*
X-2534619Y54767960D01*
X-2707360Y54897272D01*
X-2896746Y55000685D01*
X-2997834Y55038389D01*
X-3094703Y55074519D01*
X-3094706Y55074520D01*
X-3098921Y55076092D01*
X-3103311Y55077047D01*
X-3103318Y55077049D01*
X-3258229Y55110747D01*
X-3309770Y55121959D01*
X-3484535Y55134459D01*
X-3496446Y55135884D01*
X-3507648Y55137769D01*
X-3507655Y55137770D01*
X-3512448Y55138576D01*
X-3518724Y55138652D01*
X-3520140Y55138670D01*
X-3520143Y55138670D01*
X-3525000Y55138729D01*
X-3544866Y55135884D01*
X-3552624Y55134773D01*
X-3570486Y55133500D01*
X-15471750Y55133500D01*
X-15492655Y55135246D01*
X-15507656Y55137770D01*
X-15507659Y55137770D01*
X-15512448Y55138576D01*
X-15518687Y55138652D01*
X-15520140Y55138670D01*
X-15520143Y55138670D01*
X-15525000Y55138729D01*
X-15539790Y55136611D01*
X-15548643Y55135662D01*
X-15735742Y55122280D01*
X-15740230Y55121959D01*
X-15791771Y55110747D01*
X-15946682Y55077049D01*
X-15946689Y55077047D01*
X-15951079Y55076092D01*
X-15955294Y55074520D01*
X-15955297Y55074519D01*
X-16052166Y55038389D01*
X-16153254Y55000685D01*
X-16342640Y54897272D01*
X-16515381Y54767960D01*
X-16667960Y54615381D01*
X-16797272Y54442640D01*
X-16900685Y54253254D01*
X-16902258Y54249036D01*
X-16953627Y54111309D01*
X-16976092Y54051079D01*
X-17021959Y53840230D01*
X-17029530Y53734369D01*
X-17035012Y53657725D01*
X-17036192Y53647325D01*
X-17037310Y53640149D01*
X-17037310Y53640145D01*
X-17038691Y53631276D01*
X-17037527Y53622374D01*
X-17037527Y53622372D01*
X-17034564Y53599717D01*
X-17033500Y53583379D01*
X-17033500Y41674367D01*
X-17035000Y41654982D01*
X-17037310Y41640149D01*
X-17037310Y41640145D01*
X-17038691Y41631276D01*
X-21062170Y41631276D01*
X-21065227Y41652624D01*
X-21066500Y41670486D01*
X-21066500Y53571750D01*
X-21064754Y53592655D01*
X-21062230Y53607656D01*
X-21062230Y53607659D01*
X-21061424Y53612448D01*
X-21061271Y53625000D01*
X-21063389Y53639790D01*
X-21064338Y53648643D01*
X-21077720Y53835742D01*
X-21078041Y53840230D01*
X-21123908Y54051079D01*
X-21146372Y54111309D01*
X-21197742Y54249036D01*
X-21199315Y54253254D01*
X-21302728Y54442640D01*
X-21432040Y54615381D01*
X-21584619Y54767960D01*
X-21757360Y54897272D01*
X-21946746Y55000685D01*
X-22047834Y55038389D01*
X-22144703Y55074519D01*
X-22144706Y55074520D01*
X-22148921Y55076092D01*
X-22153311Y55077047D01*
X-22153318Y55077049D01*
X-22308229Y55110747D01*
X-22359770Y55121959D01*
X-22534535Y55134459D01*
X-22546446Y55135884D01*
X-22557648Y55137769D01*
X-22557655Y55137770D01*
X-22562448Y55138576D01*
X-22568724Y55138652D01*
X-22570140Y55138670D01*
X-22570143Y55138670D01*
X-22575000Y55138729D01*
X-22594866Y55135884D01*
X-22602624Y55134773D01*
X-22620486Y55133500D01*
X-34521750Y55133500D01*
X-34542655Y55135246D01*
X-34557656Y55137770D01*
X-34557659Y55137770D01*
X-34562448Y55138576D01*
X-34568687Y55138652D01*
X-34570140Y55138670D01*
X-34570143Y55138670D01*
X-34575000Y55138729D01*
X-34589790Y55136611D01*
X-34598643Y55135662D01*
X-34785742Y55122280D01*
X-34790230Y55121959D01*
X-34841771Y55110747D01*
X-34996682Y55077049D01*
X-34996689Y55077047D01*
X-35001079Y55076092D01*
X-35005294Y55074520D01*
X-35005297Y55074519D01*
X-35102166Y55038389D01*
X-35203254Y55000685D01*
X-35392640Y54897272D01*
X-35565381Y54767960D01*
X-35717960Y54615381D01*
X-35847272Y54442640D01*
X-35950685Y54253254D01*
X-35952258Y54249036D01*
X-36003627Y54111309D01*
X-36026092Y54051079D01*
X-36071959Y53840230D01*
X-36079530Y53734369D01*
X-36085012Y53657725D01*
X-36086192Y53647325D01*
X-36087310Y53640149D01*
X-36087310Y53640145D01*
X-36088691Y53631276D01*
X-36087527Y53622374D01*
X-36087527Y53622372D01*
X-36084564Y53599717D01*
X-36083500Y53583379D01*
X-36083500Y41674367D01*
X-36085000Y41654982D01*
X-36087310Y41640149D01*
X-36087310Y41640145D01*
X-36088691Y41631276D01*
X-40112170Y41631276D01*
X-40115227Y41652624D01*
X-40116500Y41670486D01*
X-40116500Y53571750D01*
X-40114754Y53592655D01*
X-40112230Y53607656D01*
X-40112230Y53607659D01*
X-40111424Y53612448D01*
X-40111271Y53625000D01*
X-40113389Y53639790D01*
X-40114338Y53648643D01*
X-40127720Y53835742D01*
X-40128041Y53840230D01*
X-40173908Y54051079D01*
X-40196372Y54111309D01*
X-40247742Y54249036D01*
X-40249315Y54253254D01*
X-40352728Y54442640D01*
X-40482040Y54615381D01*
X-40634619Y54767960D01*
X-40807360Y54897272D01*
X-40996746Y55000685D01*
X-41097834Y55038389D01*
X-41194703Y55074519D01*
X-41194706Y55074520D01*
X-41198921Y55076092D01*
X-41203311Y55077047D01*
X-41203318Y55077049D01*
X-41358229Y55110747D01*
X-41409770Y55121959D01*
X-41584535Y55134459D01*
X-41596446Y55135884D01*
X-41607648Y55137769D01*
X-41607655Y55137770D01*
X-41612448Y55138576D01*
X-41618724Y55138652D01*
X-41620140Y55138670D01*
X-41620143Y55138670D01*
X-41625000Y55138729D01*
X-41644866Y55135884D01*
X-41652624Y55134773D01*
X-41670486Y55133500D01*
X-53571750Y55133500D01*
X-53592655Y55135246D01*
X-53607656Y55137770D01*
X-53607659Y55137770D01*
X-53612448Y55138576D01*
X-53618687Y55138652D01*
X-53620140Y55138670D01*
X-53620143Y55138670D01*
X-53625000Y55138729D01*
X-53639790Y55136611D01*
X-53648643Y55135662D01*
X-53835742Y55122280D01*
X-53840230Y55121959D01*
X-53891771Y55110747D01*
X-54046682Y55077049D01*
X-54046689Y55077047D01*
X-54051079Y55076092D01*
X-54055294Y55074520D01*
X-54055297Y55074519D01*
X-54152166Y55038389D01*
X-54253254Y55000685D01*
X-54442640Y54897272D01*
X-54615381Y54767960D01*
X-54767960Y54615381D01*
X-54897272Y54442640D01*
X-55000685Y54253254D01*
X-55002258Y54249036D01*
X-55053627Y54111309D01*
X-55076092Y54051079D01*
X-55121959Y53840230D01*
X-55129530Y53734369D01*
X-55135012Y53657725D01*
X-55136192Y53647325D01*
X-55137310Y53640149D01*
X-55137310Y53640145D01*
X-55138691Y53631276D01*
X-55137527Y53622374D01*
X-55137527Y53622372D01*
X-55134564Y53599717D01*
X-55133500Y53583379D01*
X-55133500Y41674367D01*
X-55135000Y41654982D01*
X-55137310Y41640149D01*
X-55137310Y41640145D01*
X-55138691Y41631276D01*
X-59181500Y41631276D01*
X-59181500Y57096750D01*
X-59179754Y57117655D01*
X-59177230Y57132656D01*
X-59177230Y57132659D01*
X-59176424Y57137448D01*
X-59176271Y57150000D01*
X-59177997Y57162053D01*
X-59178999Y57188155D01*
X-59164660Y57406922D01*
X-59162509Y57423262D01*
X-59113889Y57667693D01*
X-59109625Y57683606D01*
X-59029515Y57919602D01*
X-59023209Y57934826D01*
X-58912984Y58158342D01*
X-58904743Y58172616D01*
X-58766287Y58379829D01*
X-58756254Y58392905D01*
X-58591932Y58580278D01*
X-58580278Y58591932D01*
X-58392905Y58756254D01*
X-58379829Y58766287D01*
X-58172616Y58904743D01*
X-58158342Y58912984D01*
X-57934826Y59023209D01*
X-57919600Y59029516D01*
X-57683606Y59109625D01*
X-57667696Y59113888D01*
X-57545477Y59138199D01*
X-57423262Y59162509D01*
X-57406922Y59164660D01*
X-57258134Y59174413D01*
X-57191763Y59178763D01*
X-57168650Y59177733D01*
X-57165146Y59177690D01*
X-57156276Y59176309D01*
X-57147374Y59177473D01*
X-57147372Y59177473D01*
X-57130551Y59179673D01*
X-57124714Y59180436D01*
X-57108379Y59181500D01*
X57100633Y59181500D01*
X57120018Y59180000D01*
G37*
%TD.AperFunction*%
M02*
