%FSLAX45Y45*%
G04 Gerber Fmt 4.5, Leading zero omitted, Abs format (unit mm)*
G04 Created by KiCad (PCBNEW (6.0.5-0)) date 2022-06-17 01:30:07*
%MOMM*%
%LPD*%
G01*
G04 APERTURE LIST*
%TA.AperFunction,Profile*%
%ADD10C,0.100000*%
%TD*%
%ADD11C,0.200000*%
%ADD12C,0.270000*%
G04 APERTURE END LIST*
D10*
X-5969000Y-3810000D02*
X-5969000Y5715000D01*
X-5715000Y5969000D02*
X5715000Y5969000D01*
X5715000Y-4064000D02*
X-5715000Y-4064000D01*
X-5715000Y5969000D02*
G75*
G03*
X-5969000Y5715000I0J-254000D01*
G01*
X5715000Y-4064000D02*
G75*
G03*
X5969000Y-3810000I0J254000D01*
G01*
X5969000Y5715000D02*
G75*
G03*
X5715000Y5969000I-254000J0D01*
G01*
X5969000Y5715000D02*
X5969000Y-3810000D01*
X-5969000Y-3810000D02*
G75*
G03*
X-5715000Y-4064000I254000J0D01*
G01*
D11*
D12*
X-3945000Y3945000D02*
X-3675000Y3675000D01*
X-3675000Y3945000D02*
X-3945000Y3675000D01*
X-3945000Y-1770000D02*
X-3675000Y-2040000D01*
X-3675000Y-1770000D02*
X-3945000Y-2040000D01*
X-135000Y135000D02*
X135000Y-135000D01*
X135000Y135000D02*
X-135000Y-135000D01*
X3675000Y3945000D02*
X3945000Y3675000D01*
X3945000Y3945000D02*
X3675000Y3675000D01*
X3675000Y-1770000D02*
X3945000Y-2040000D01*
X3945000Y-1770000D02*
X3675000Y-2040000D01*
D11*
X-5716381Y-4379476D02*
X-5716381Y-4179476D01*
X-5668762Y-4179476D01*
X-5640190Y-4189000D01*
X-5621143Y-4208048D01*
X-5611619Y-4227095D01*
X-5602095Y-4265190D01*
X-5602095Y-4293762D01*
X-5611619Y-4331857D01*
X-5621143Y-4350905D01*
X-5640190Y-4369952D01*
X-5668762Y-4379476D01*
X-5716381Y-4379476D01*
X-5516381Y-4379476D02*
X-5516381Y-4246143D01*
X-5516381Y-4284238D02*
X-5506857Y-4265190D01*
X-5497333Y-4255667D01*
X-5478286Y-4246143D01*
X-5459238Y-4246143D01*
X-5392572Y-4379476D02*
X-5392572Y-4246143D01*
X-5392572Y-4179476D02*
X-5402095Y-4189000D01*
X-5392572Y-4198524D01*
X-5383048Y-4189000D01*
X-5392572Y-4179476D01*
X-5392572Y-4198524D01*
X-5268762Y-4379476D02*
X-5287810Y-4369952D01*
X-5297333Y-4350905D01*
X-5297333Y-4179476D01*
X-5164000Y-4379476D02*
X-5183048Y-4369952D01*
X-5192572Y-4350905D01*
X-5192572Y-4179476D01*
X-4935429Y-4379476D02*
X-4935429Y-4179476D01*
X-4868762Y-4322333D01*
X-4802095Y-4179476D01*
X-4802095Y-4379476D01*
X-4621143Y-4379476D02*
X-4621143Y-4274714D01*
X-4630667Y-4255667D01*
X-4649714Y-4246143D01*
X-4687810Y-4246143D01*
X-4706857Y-4255667D01*
X-4621143Y-4369952D02*
X-4640191Y-4379476D01*
X-4687810Y-4379476D01*
X-4706857Y-4369952D01*
X-4716381Y-4350905D01*
X-4716381Y-4331857D01*
X-4706857Y-4312810D01*
X-4687810Y-4303286D01*
X-4640191Y-4303286D01*
X-4621143Y-4293762D01*
X-4525905Y-4246143D02*
X-4525905Y-4446143D01*
X-4525905Y-4255667D02*
X-4506857Y-4246143D01*
X-4468762Y-4246143D01*
X-4449714Y-4255667D01*
X-4440191Y-4265190D01*
X-4430667Y-4284238D01*
X-4430667Y-4341381D01*
X-4440191Y-4360429D01*
X-4449714Y-4369952D01*
X-4468762Y-4379476D01*
X-4506857Y-4379476D01*
X-4525905Y-4369952D01*
X-4344952Y-4360429D02*
X-4335429Y-4369952D01*
X-4344952Y-4379476D01*
X-4354476Y-4369952D01*
X-4344952Y-4360429D01*
X-4344952Y-4379476D01*
X-4344952Y-4255667D02*
X-4335429Y-4265190D01*
X-4344952Y-4274714D01*
X-4354476Y-4265190D01*
X-4344952Y-4255667D01*
X-4344952Y-4274714D01*
X-6174000Y-4609000D02*
X-5974000Y-4809000D01*
X-5974000Y-4609000D02*
X-6174000Y-4809000D01*
X-5725905Y-4618524D02*
X-5716381Y-4609000D01*
X-5697333Y-4599476D01*
X-5649714Y-4599476D01*
X-5630667Y-4609000D01*
X-5621143Y-4618524D01*
X-5611619Y-4637571D01*
X-5611619Y-4656619D01*
X-5621143Y-4685190D01*
X-5735429Y-4799476D01*
X-5611619Y-4799476D01*
X-5525905Y-4780429D02*
X-5516381Y-4789952D01*
X-5525905Y-4799476D01*
X-5535429Y-4789952D01*
X-5525905Y-4780429D01*
X-5525905Y-4799476D01*
X-5449714Y-4599476D02*
X-5316381Y-4599476D01*
X-5402095Y-4799476D01*
X-5202095Y-4599476D02*
X-5183048Y-4599476D01*
X-5164000Y-4609000D01*
X-5154476Y-4618524D01*
X-5144952Y-4637571D01*
X-5135429Y-4675667D01*
X-5135429Y-4723286D01*
X-5144952Y-4761381D01*
X-5154476Y-4780429D01*
X-5164000Y-4789952D01*
X-5183048Y-4799476D01*
X-5202095Y-4799476D01*
X-5221143Y-4789952D01*
X-5230667Y-4780429D01*
X-5240191Y-4761381D01*
X-5249714Y-4723286D01*
X-5249714Y-4675667D01*
X-5240191Y-4637571D01*
X-5230667Y-4618524D01*
X-5221143Y-4609000D01*
X-5202095Y-4599476D01*
X-5011619Y-4599476D02*
X-4992572Y-4599476D01*
X-4973524Y-4609000D01*
X-4964000Y-4618524D01*
X-4954476Y-4637571D01*
X-4944952Y-4675667D01*
X-4944952Y-4723286D01*
X-4954476Y-4761381D01*
X-4964000Y-4780429D01*
X-4973524Y-4789952D01*
X-4992572Y-4799476D01*
X-5011619Y-4799476D01*
X-5030667Y-4789952D01*
X-5040191Y-4780429D01*
X-5049714Y-4761381D01*
X-5059238Y-4723286D01*
X-5059238Y-4675667D01*
X-5049714Y-4637571D01*
X-5040191Y-4618524D01*
X-5030667Y-4609000D01*
X-5011619Y-4599476D01*
X-4859238Y-4799476D02*
X-4859238Y-4666143D01*
X-4859238Y-4685190D02*
X-4849714Y-4675667D01*
X-4830667Y-4666143D01*
X-4802095Y-4666143D01*
X-4783048Y-4675667D01*
X-4773524Y-4694714D01*
X-4773524Y-4799476D01*
X-4773524Y-4694714D02*
X-4764000Y-4675667D01*
X-4744952Y-4666143D01*
X-4716381Y-4666143D01*
X-4697333Y-4675667D01*
X-4687810Y-4694714D01*
X-4687810Y-4799476D01*
X-4592572Y-4799476D02*
X-4592572Y-4666143D01*
X-4592572Y-4685190D02*
X-4583048Y-4675667D01*
X-4564000Y-4666143D01*
X-4535429Y-4666143D01*
X-4516381Y-4675667D01*
X-4506857Y-4694714D01*
X-4506857Y-4799476D01*
X-4506857Y-4694714D02*
X-4497333Y-4675667D01*
X-4478286Y-4666143D01*
X-4449714Y-4666143D01*
X-4430667Y-4675667D01*
X-4421143Y-4694714D01*
X-4421143Y-4799476D01*
X-4030667Y-4589952D02*
X-4202095Y-4847095D01*
X-3773524Y-4599476D02*
X-3754476Y-4599476D01*
X-3735429Y-4609000D01*
X-3725905Y-4618524D01*
X-3716381Y-4637571D01*
X-3706857Y-4675667D01*
X-3706857Y-4723286D01*
X-3716381Y-4761381D01*
X-3725905Y-4780429D01*
X-3735429Y-4789952D01*
X-3754476Y-4799476D01*
X-3773524Y-4799476D01*
X-3792571Y-4789952D01*
X-3802095Y-4780429D01*
X-3811619Y-4761381D01*
X-3821143Y-4723286D01*
X-3821143Y-4675667D01*
X-3811619Y-4637571D01*
X-3802095Y-4618524D01*
X-3792571Y-4609000D01*
X-3773524Y-4599476D01*
X-3621143Y-4780429D02*
X-3611619Y-4789952D01*
X-3621143Y-4799476D01*
X-3630667Y-4789952D01*
X-3621143Y-4780429D01*
X-3621143Y-4799476D01*
X-3421143Y-4799476D02*
X-3535429Y-4799476D01*
X-3478286Y-4799476D02*
X-3478286Y-4599476D01*
X-3497333Y-4628048D01*
X-3516381Y-4647095D01*
X-3535429Y-4656619D01*
X-3297333Y-4599476D02*
X-3278286Y-4599476D01*
X-3259238Y-4609000D01*
X-3249714Y-4618524D01*
X-3240190Y-4637571D01*
X-3230667Y-4675667D01*
X-3230667Y-4723286D01*
X-3240190Y-4761381D01*
X-3249714Y-4780429D01*
X-3259238Y-4789952D01*
X-3278286Y-4799476D01*
X-3297333Y-4799476D01*
X-3316381Y-4789952D01*
X-3325905Y-4780429D01*
X-3335429Y-4761381D01*
X-3344952Y-4723286D01*
X-3344952Y-4675667D01*
X-3335429Y-4637571D01*
X-3325905Y-4618524D01*
X-3316381Y-4609000D01*
X-3297333Y-4599476D01*
X-3059238Y-4599476D02*
X-3097333Y-4599476D01*
X-3116381Y-4609000D01*
X-3125905Y-4618524D01*
X-3144952Y-4647095D01*
X-3154476Y-4685190D01*
X-3154476Y-4761381D01*
X-3144952Y-4780429D01*
X-3135429Y-4789952D01*
X-3116381Y-4799476D01*
X-3078286Y-4799476D01*
X-3059238Y-4789952D01*
X-3049714Y-4780429D01*
X-3040190Y-4761381D01*
X-3040190Y-4713762D01*
X-3049714Y-4694714D01*
X-3059238Y-4685190D01*
X-3078286Y-4675667D01*
X-3116381Y-4675667D01*
X-3135429Y-4685190D01*
X-3144952Y-4694714D01*
X-3154476Y-4713762D01*
X-2973524Y-4599476D02*
X-2849714Y-4599476D01*
X-2916381Y-4675667D01*
X-2887810Y-4675667D01*
X-2868762Y-4685190D01*
X-2859238Y-4694714D01*
X-2849714Y-4713762D01*
X-2849714Y-4761381D01*
X-2859238Y-4780429D01*
X-2868762Y-4789952D01*
X-2887810Y-4799476D01*
X-2944952Y-4799476D01*
X-2964000Y-4789952D01*
X-2973524Y-4780429D01*
X-2773524Y-4599476D02*
X-2773524Y-4637571D01*
X-2697333Y-4599476D02*
X-2697333Y-4637571D01*
X-2402095Y-4875667D02*
X-2411619Y-4866143D01*
X-2430667Y-4837571D01*
X-2440191Y-4818524D01*
X-2449714Y-4789952D01*
X-2459238Y-4742333D01*
X-2459238Y-4704238D01*
X-2449714Y-4656619D01*
X-2440191Y-4628048D01*
X-2430667Y-4609000D01*
X-2411619Y-4580429D01*
X-2402095Y-4570905D01*
X-2230667Y-4599476D02*
X-2325905Y-4599476D01*
X-2335429Y-4694714D01*
X-2325905Y-4685190D01*
X-2306857Y-4675667D01*
X-2259238Y-4675667D01*
X-2240191Y-4685190D01*
X-2230667Y-4694714D01*
X-2221143Y-4713762D01*
X-2221143Y-4761381D01*
X-2230667Y-4780429D01*
X-2240191Y-4789952D01*
X-2259238Y-4799476D01*
X-2306857Y-4799476D01*
X-2325905Y-4789952D01*
X-2335429Y-4780429D01*
X-1983048Y-4799476D02*
X-1983048Y-4599476D01*
X-1897333Y-4799476D02*
X-1897333Y-4694714D01*
X-1906857Y-4675667D01*
X-1925905Y-4666143D01*
X-1954476Y-4666143D01*
X-1973524Y-4675667D01*
X-1983048Y-4685190D01*
X-1773524Y-4799476D02*
X-1792571Y-4789952D01*
X-1802095Y-4780429D01*
X-1811619Y-4761381D01*
X-1811619Y-4704238D01*
X-1802095Y-4685190D01*
X-1792571Y-4675667D01*
X-1773524Y-4666143D01*
X-1744952Y-4666143D01*
X-1725905Y-4675667D01*
X-1716381Y-4685190D01*
X-1706857Y-4704238D01*
X-1706857Y-4761381D01*
X-1716381Y-4780429D01*
X-1725905Y-4789952D01*
X-1744952Y-4799476D01*
X-1773524Y-4799476D01*
X-1592571Y-4799476D02*
X-1611619Y-4789952D01*
X-1621143Y-4770905D01*
X-1621143Y-4599476D01*
X-1440190Y-4789952D02*
X-1459238Y-4799476D01*
X-1497333Y-4799476D01*
X-1516381Y-4789952D01*
X-1525905Y-4770905D01*
X-1525905Y-4694714D01*
X-1516381Y-4675667D01*
X-1497333Y-4666143D01*
X-1459238Y-4666143D01*
X-1440190Y-4675667D01*
X-1430667Y-4694714D01*
X-1430667Y-4713762D01*
X-1525905Y-4732810D01*
X-1354476Y-4789952D02*
X-1335429Y-4799476D01*
X-1297333Y-4799476D01*
X-1278286Y-4789952D01*
X-1268762Y-4770905D01*
X-1268762Y-4761381D01*
X-1278286Y-4742333D01*
X-1297333Y-4732810D01*
X-1325905Y-4732810D01*
X-1344952Y-4723286D01*
X-1354476Y-4704238D01*
X-1354476Y-4694714D01*
X-1344952Y-4675667D01*
X-1325905Y-4666143D01*
X-1297333Y-4666143D01*
X-1278286Y-4675667D01*
X-1202095Y-4875667D02*
X-1192572Y-4866143D01*
X-1173524Y-4837571D01*
X-1164000Y-4818524D01*
X-1154476Y-4789952D01*
X-1144952Y-4742333D01*
X-1144952Y-4704238D01*
X-1154476Y-4656619D01*
X-1164000Y-4628048D01*
X-1173524Y-4609000D01*
X-1192572Y-4580429D01*
X-1202095Y-4570905D01*
X-840190Y-4875667D02*
X-849714Y-4866143D01*
X-868762Y-4837571D01*
X-878286Y-4818524D01*
X-887810Y-4789952D01*
X-897333Y-4742333D01*
X-897333Y-4704238D01*
X-887810Y-4656619D01*
X-878286Y-4628048D01*
X-868762Y-4609000D01*
X-849714Y-4580429D01*
X-840190Y-4570905D01*
X-764000Y-4666143D02*
X-764000Y-4799476D01*
X-764000Y-4685190D02*
X-754476Y-4675667D01*
X-735429Y-4666143D01*
X-706857Y-4666143D01*
X-687810Y-4675667D01*
X-678286Y-4694714D01*
X-678286Y-4799476D01*
X-554476Y-4799476D02*
X-573524Y-4789952D01*
X-583048Y-4780429D01*
X-592572Y-4761381D01*
X-592572Y-4704238D01*
X-583048Y-4685190D01*
X-573524Y-4675667D01*
X-554476Y-4666143D01*
X-525905Y-4666143D01*
X-506857Y-4675667D01*
X-497333Y-4685190D01*
X-487810Y-4704238D01*
X-487810Y-4761381D01*
X-497333Y-4780429D01*
X-506857Y-4789952D01*
X-525905Y-4799476D01*
X-554476Y-4799476D01*
X-430667Y-4666143D02*
X-354476Y-4666143D01*
X-402095Y-4599476D02*
X-402095Y-4770905D01*
X-392571Y-4789952D01*
X-373524Y-4799476D01*
X-354476Y-4799476D01*
X-135429Y-4666143D02*
X-135429Y-4866143D01*
X-135429Y-4675667D02*
X-116381Y-4666143D01*
X-78286Y-4666143D01*
X-59238Y-4675667D01*
X-49714Y-4685190D01*
X-40191Y-4704238D01*
X-40191Y-4761381D01*
X-49714Y-4780429D01*
X-59238Y-4789952D01*
X-78286Y-4799476D01*
X-116381Y-4799476D01*
X-135429Y-4789952D01*
X74095Y-4799476D02*
X55048Y-4789952D01*
X45524Y-4770905D01*
X45524Y-4599476D01*
X236000Y-4799476D02*
X236000Y-4694714D01*
X226476Y-4675667D01*
X207428Y-4666143D01*
X169333Y-4666143D01*
X150286Y-4675667D01*
X236000Y-4789952D02*
X216952Y-4799476D01*
X169333Y-4799476D01*
X150286Y-4789952D01*
X140762Y-4770905D01*
X140762Y-4751857D01*
X150286Y-4732810D01*
X169333Y-4723286D01*
X216952Y-4723286D01*
X236000Y-4713762D01*
X302667Y-4666143D02*
X378857Y-4666143D01*
X331238Y-4599476D02*
X331238Y-4770905D01*
X340762Y-4789952D01*
X359809Y-4799476D01*
X378857Y-4799476D01*
X521714Y-4789952D02*
X502667Y-4799476D01*
X464571Y-4799476D01*
X445524Y-4789952D01*
X436000Y-4770905D01*
X436000Y-4694714D01*
X445524Y-4675667D01*
X464571Y-4666143D01*
X502667Y-4666143D01*
X521714Y-4675667D01*
X531238Y-4694714D01*
X531238Y-4713762D01*
X436000Y-4732810D01*
X702667Y-4799476D02*
X702667Y-4599476D01*
X702667Y-4789952D02*
X683619Y-4799476D01*
X645524Y-4799476D01*
X626476Y-4789952D01*
X616952Y-4780429D01*
X607429Y-4761381D01*
X607429Y-4704238D01*
X616952Y-4685190D01*
X626476Y-4675667D01*
X645524Y-4666143D01*
X683619Y-4666143D01*
X702667Y-4675667D01*
X778857Y-4875667D02*
X788381Y-4866143D01*
X807428Y-4837571D01*
X816952Y-4818524D01*
X826476Y-4789952D01*
X836000Y-4742333D01*
X836000Y-4704238D01*
X826476Y-4656619D01*
X816952Y-4628048D01*
X807428Y-4609000D01*
X788381Y-4580429D01*
X778857Y-4570905D01*
M02*
