%TF.GenerationSoftware,KiCad,Pcbnew,(5.1.12-1-10_14)*%
%TF.CreationDate,2021-11-18T22:14:17+08:00*%
%TF.ProjectId,Pragmatic,50726167-6d61-4746-9963-2e6b69636164,0.1*%
%TF.SameCoordinates,Original*%
%TF.FileFunction,Soldermask,Bot*%
%TF.FilePolarity,Negative*%
%FSLAX46Y46*%
G04 Gerber Fmt 4.6, Leading zero omitted, Abs format (unit mm)*
G04 Created by KiCad (PCBNEW (5.1.12-1-10_14)) date 2021-11-18 22:14:17*
%MOMM*%
%LPD*%
G01*
G04 APERTURE LIST*
%ADD10O,1.700000X1.700000*%
%ADD11R,1.700000X1.700000*%
%ADD12C,2.400000*%
%ADD13O,2.200000X1.600000*%
%ADD14C,4.900000*%
%ADD15C,1.800000*%
%ADD16O,2.200000X1.500000*%
%ADD17C,1.700000*%
%ADD18R,1.400000X1.000000*%
G04 APERTURE END LIST*
D10*
X101600000Y-41275000D03*
X99060000Y-41275000D03*
X96520000Y-41275000D03*
D11*
X93980000Y-41275000D03*
G36*
G01*
X86030000Y-42995400D02*
X86030000Y-42094600D01*
G75*
G02*
X86279600Y-41845000I249600J0D01*
G01*
X86980400Y-41845000D01*
G75*
G02*
X87230000Y-42094600I0J-249600D01*
G01*
X87230000Y-42995400D01*
G75*
G02*
X86980400Y-43245000I-249600J0D01*
G01*
X86279600Y-43245000D01*
G75*
G02*
X86030000Y-42995400I0J249600D01*
G01*
G37*
G36*
G01*
X88030000Y-42995400D02*
X88030000Y-42094600D01*
G75*
G02*
X88279600Y-41845000I249600J0D01*
G01*
X88980400Y-41845000D01*
G75*
G02*
X89230000Y-42094600I0J-249600D01*
G01*
X89230000Y-42995400D01*
G75*
G02*
X88980400Y-43245000I-249600J0D01*
G01*
X88279600Y-43245000D01*
G75*
G02*
X88030000Y-42995400I0J249600D01*
G01*
G37*
G36*
G01*
X88080000Y-40455450D02*
X88080000Y-39554550D01*
G75*
G02*
X88329550Y-39305000I249550J0D01*
G01*
X88980450Y-39305000D01*
G75*
G02*
X89230000Y-39554550I0J-249550D01*
G01*
X89230000Y-40455450D01*
G75*
G02*
X88980450Y-40705000I-249550J0D01*
G01*
X88329550Y-40705000D01*
G75*
G02*
X88080000Y-40455450I0J249550D01*
G01*
G37*
G36*
G01*
X86030000Y-40455450D02*
X86030000Y-39554550D01*
G75*
G02*
X86279550Y-39305000I249550J0D01*
G01*
X86930450Y-39305000D01*
G75*
G02*
X87180000Y-39554550I0J-249550D01*
G01*
X87180000Y-40455450D01*
G75*
G02*
X86930450Y-40705000I-249550J0D01*
G01*
X86279550Y-40705000D01*
G75*
G02*
X86030000Y-40455450I0J249550D01*
G01*
G37*
D12*
X148590000Y-149860000D03*
D13*
X147300000Y-156300000D03*
D12*
X154940000Y-147320000D03*
X154940000Y-147320000D03*
D13*
X147300000Y-156300000D03*
D14*
X152400000Y-152400000D03*
D15*
X146900000Y-152400000D03*
X157900000Y-152400000D03*
D16*
X152400000Y-158300000D03*
D12*
X148590000Y-149860000D03*
D17*
X157480000Y-152400000D03*
X147320000Y-152400000D03*
D12*
X129540000Y-149860000D03*
D13*
X128250000Y-156300000D03*
D12*
X135890000Y-147320000D03*
X135890000Y-147320000D03*
D13*
X128250000Y-156300000D03*
D14*
X133350000Y-152400000D03*
D15*
X127850000Y-152400000D03*
X138850000Y-152400000D03*
D16*
X133350000Y-158300000D03*
D12*
X129540000Y-149860000D03*
D17*
X138430000Y-152400000D03*
X128270000Y-152400000D03*
D12*
X110490000Y-149860000D03*
D13*
X109200000Y-156300000D03*
D12*
X116840000Y-147320000D03*
X116840000Y-147320000D03*
D13*
X109200000Y-156300000D03*
D14*
X114300000Y-152400000D03*
D15*
X108800000Y-152400000D03*
X119800000Y-152400000D03*
D16*
X114300000Y-158300000D03*
D12*
X110490000Y-149860000D03*
D17*
X119380000Y-152400000D03*
X109220000Y-152400000D03*
D12*
X91440000Y-149860000D03*
D13*
X90150000Y-156300000D03*
D12*
X97790000Y-147320000D03*
X97790000Y-147320000D03*
D13*
X90150000Y-156300000D03*
D14*
X95250000Y-152400000D03*
D15*
X89750000Y-152400000D03*
X100750000Y-152400000D03*
D16*
X95250000Y-158300000D03*
D12*
X91440000Y-149860000D03*
D17*
X100330000Y-152400000D03*
X90170000Y-152400000D03*
D12*
X72390000Y-149860000D03*
D13*
X71100000Y-156300000D03*
D12*
X78740000Y-147320000D03*
X78740000Y-147320000D03*
D13*
X71100000Y-156300000D03*
D14*
X76200000Y-152400000D03*
D15*
X70700000Y-152400000D03*
X81700000Y-152400000D03*
D16*
X76200000Y-158300000D03*
D12*
X72390000Y-149860000D03*
D17*
X81280000Y-152400000D03*
X71120000Y-152400000D03*
D12*
X53340000Y-149860000D03*
D13*
X52050000Y-156300000D03*
D12*
X59690000Y-147320000D03*
X59690000Y-147320000D03*
D13*
X52050000Y-156300000D03*
D14*
X57150000Y-152400000D03*
D15*
X51650000Y-152400000D03*
X62650000Y-152400000D03*
D16*
X57150000Y-158300000D03*
D12*
X53340000Y-149860000D03*
D17*
X62230000Y-152400000D03*
X52070000Y-152400000D03*
D12*
X148590000Y-130810000D03*
D13*
X147300000Y-137250000D03*
D12*
X154940000Y-128270000D03*
X154940000Y-128270000D03*
D13*
X147300000Y-137250000D03*
D14*
X152400000Y-133350000D03*
D15*
X146900000Y-133350000D03*
X157900000Y-133350000D03*
D16*
X152400000Y-139250000D03*
D12*
X148590000Y-130810000D03*
D17*
X157480000Y-133350000D03*
X147320000Y-133350000D03*
D12*
X129540000Y-130810000D03*
D13*
X128250000Y-137250000D03*
D12*
X135890000Y-128270000D03*
X135890000Y-128270000D03*
D13*
X128250000Y-137250000D03*
D14*
X133350000Y-133350000D03*
D15*
X127850000Y-133350000D03*
X138850000Y-133350000D03*
D16*
X133350000Y-139250000D03*
D12*
X129540000Y-130810000D03*
D17*
X138430000Y-133350000D03*
X128270000Y-133350000D03*
D12*
X110490000Y-130810000D03*
D13*
X109200000Y-137250000D03*
D12*
X116840000Y-128270000D03*
X116840000Y-128270000D03*
D13*
X109200000Y-137250000D03*
D14*
X114300000Y-133350000D03*
D15*
X108800000Y-133350000D03*
X119800000Y-133350000D03*
D16*
X114300000Y-139250000D03*
D12*
X110490000Y-130810000D03*
D17*
X119380000Y-133350000D03*
X109220000Y-133350000D03*
D12*
X91440000Y-130810000D03*
D13*
X90150000Y-137250000D03*
D12*
X97790000Y-128270000D03*
X97790000Y-128270000D03*
D13*
X90150000Y-137250000D03*
D14*
X95250000Y-133350000D03*
D15*
X89750000Y-133350000D03*
X100750000Y-133350000D03*
D16*
X95250000Y-139250000D03*
D12*
X91440000Y-130810000D03*
D17*
X100330000Y-133350000D03*
X90170000Y-133350000D03*
D12*
X72390000Y-130810000D03*
D13*
X71100000Y-137250000D03*
D12*
X78740000Y-128270000D03*
X78740000Y-128270000D03*
D13*
X71100000Y-137250000D03*
D14*
X76200000Y-133350000D03*
D15*
X70700000Y-133350000D03*
X81700000Y-133350000D03*
D16*
X76200000Y-139250000D03*
D12*
X72390000Y-130810000D03*
D17*
X81280000Y-133350000D03*
X71120000Y-133350000D03*
D12*
X53340000Y-130810000D03*
D13*
X52050000Y-137250000D03*
D12*
X59690000Y-128270000D03*
X59690000Y-128270000D03*
D13*
X52050000Y-137250000D03*
D14*
X57150000Y-133350000D03*
D15*
X51650000Y-133350000D03*
X62650000Y-133350000D03*
D16*
X57150000Y-139250000D03*
D12*
X53340000Y-130810000D03*
D17*
X62230000Y-133350000D03*
X52070000Y-133350000D03*
D12*
X148590000Y-111760000D03*
D13*
X147300000Y-118200000D03*
D12*
X154940000Y-109220000D03*
X154940000Y-109220000D03*
D13*
X147300000Y-118200000D03*
D14*
X152400000Y-114300000D03*
D15*
X146900000Y-114300000D03*
X157900000Y-114300000D03*
D16*
X152400000Y-120200000D03*
D12*
X148590000Y-111760000D03*
D17*
X157480000Y-114300000D03*
X147320000Y-114300000D03*
D12*
X129540000Y-111760000D03*
D13*
X128250000Y-118200000D03*
D12*
X135890000Y-109220000D03*
X135890000Y-109220000D03*
D13*
X128250000Y-118200000D03*
D14*
X133350000Y-114300000D03*
D15*
X127850000Y-114300000D03*
X138850000Y-114300000D03*
D16*
X133350000Y-120200000D03*
D12*
X129540000Y-111760000D03*
D17*
X138430000Y-114300000D03*
X128270000Y-114300000D03*
D12*
X110490000Y-111760000D03*
D13*
X109200000Y-118200000D03*
D12*
X116840000Y-109220000D03*
X116840000Y-109220000D03*
D13*
X109200000Y-118200000D03*
D14*
X114300000Y-114300000D03*
D15*
X108800000Y-114300000D03*
X119800000Y-114300000D03*
D16*
X114300000Y-120200000D03*
D12*
X110490000Y-111760000D03*
D17*
X119380000Y-114300000D03*
X109220000Y-114300000D03*
D12*
X91440000Y-111760000D03*
D13*
X90150000Y-118200000D03*
D12*
X97790000Y-109220000D03*
X97790000Y-109220000D03*
D13*
X90150000Y-118200000D03*
D14*
X95250000Y-114300000D03*
D15*
X89750000Y-114300000D03*
X100750000Y-114300000D03*
D16*
X95250000Y-120200000D03*
D12*
X91440000Y-111760000D03*
D17*
X100330000Y-114300000D03*
X90170000Y-114300000D03*
D12*
X72390000Y-111760000D03*
D13*
X71100000Y-118200000D03*
D12*
X78740000Y-109220000D03*
X78740000Y-109220000D03*
D13*
X71100000Y-118200000D03*
D14*
X76200000Y-114300000D03*
D15*
X70700000Y-114300000D03*
X81700000Y-114300000D03*
D16*
X76200000Y-120200000D03*
D12*
X72390000Y-111760000D03*
D17*
X81280000Y-114300000D03*
X71120000Y-114300000D03*
D12*
X53340000Y-111760000D03*
D13*
X52050000Y-118200000D03*
D12*
X59690000Y-109220000D03*
X59690000Y-109220000D03*
D13*
X52050000Y-118200000D03*
D14*
X57150000Y-114300000D03*
D15*
X51650000Y-114300000D03*
X62650000Y-114300000D03*
D16*
X57150000Y-120200000D03*
D12*
X53340000Y-111760000D03*
D17*
X62230000Y-114300000D03*
X52070000Y-114300000D03*
D12*
X148590000Y-92710000D03*
D13*
X147300000Y-99150000D03*
D12*
X154940000Y-90170000D03*
X154940000Y-90170000D03*
D13*
X147300000Y-99150000D03*
D14*
X152400000Y-95250000D03*
D15*
X146900000Y-95250000D03*
X157900000Y-95250000D03*
D16*
X152400000Y-101150000D03*
D12*
X148590000Y-92710000D03*
D17*
X157480000Y-95250000D03*
X147320000Y-95250000D03*
D12*
X129540000Y-92710000D03*
D13*
X128250000Y-99150000D03*
D12*
X135890000Y-90170000D03*
X135890000Y-90170000D03*
D13*
X128250000Y-99150000D03*
D14*
X133350000Y-95250000D03*
D15*
X127850000Y-95250000D03*
X138850000Y-95250000D03*
D16*
X133350000Y-101150000D03*
D12*
X129540000Y-92710000D03*
D17*
X138430000Y-95250000D03*
X128270000Y-95250000D03*
D12*
X110490000Y-92710000D03*
D13*
X109200000Y-99150000D03*
D12*
X116840000Y-90170000D03*
X116840000Y-90170000D03*
D13*
X109200000Y-99150000D03*
D14*
X114300000Y-95250000D03*
D15*
X108800000Y-95250000D03*
X119800000Y-95250000D03*
D16*
X114300000Y-101150000D03*
D12*
X110490000Y-92710000D03*
D17*
X119380000Y-95250000D03*
X109220000Y-95250000D03*
D12*
X91440000Y-92710000D03*
D13*
X90150000Y-99150000D03*
D12*
X97790000Y-90170000D03*
X97790000Y-90170000D03*
D13*
X90150000Y-99150000D03*
D14*
X95250000Y-95250000D03*
D15*
X89750000Y-95250000D03*
X100750000Y-95250000D03*
D16*
X95250000Y-101150000D03*
D12*
X91440000Y-92710000D03*
D17*
X100330000Y-95250000D03*
X90170000Y-95250000D03*
D12*
X72390000Y-92710000D03*
D13*
X71100000Y-99150000D03*
D12*
X78740000Y-90170000D03*
X78740000Y-90170000D03*
D13*
X71100000Y-99150000D03*
D14*
X76200000Y-95250000D03*
D15*
X70700000Y-95250000D03*
X81700000Y-95250000D03*
D16*
X76200000Y-101150000D03*
D12*
X72390000Y-92710000D03*
D17*
X81280000Y-95250000D03*
X71120000Y-95250000D03*
D12*
X53340000Y-92710000D03*
D13*
X52050000Y-99150000D03*
D12*
X59690000Y-90170000D03*
X59690000Y-90170000D03*
D13*
X52050000Y-99150000D03*
D14*
X57150000Y-95250000D03*
D15*
X51650000Y-95250000D03*
X62650000Y-95250000D03*
D16*
X57150000Y-101150000D03*
D12*
X53340000Y-92710000D03*
D17*
X62230000Y-95250000D03*
X52070000Y-95250000D03*
D12*
X148590000Y-73660000D03*
D13*
X147300000Y-80100000D03*
D12*
X154940000Y-71120000D03*
X154940000Y-71120000D03*
D13*
X147300000Y-80100000D03*
D14*
X152400000Y-76200000D03*
D15*
X146900000Y-76200000D03*
X157900000Y-76200000D03*
D16*
X152400000Y-82100000D03*
D12*
X148590000Y-73660000D03*
D17*
X157480000Y-76200000D03*
X147320000Y-76200000D03*
D12*
X129540000Y-73660000D03*
D13*
X128250000Y-80100000D03*
D12*
X135890000Y-71120000D03*
X135890000Y-71120000D03*
D13*
X128250000Y-80100000D03*
D14*
X133350000Y-76200000D03*
D15*
X127850000Y-76200000D03*
X138850000Y-76200000D03*
D16*
X133350000Y-82100000D03*
D12*
X129540000Y-73660000D03*
D17*
X138430000Y-76200000D03*
X128270000Y-76200000D03*
D12*
X110490000Y-73660000D03*
D13*
X109200000Y-80100000D03*
D12*
X116840000Y-71120000D03*
X116840000Y-71120000D03*
D13*
X109200000Y-80100000D03*
D14*
X114300000Y-76200000D03*
D15*
X108800000Y-76200000D03*
X119800000Y-76200000D03*
D16*
X114300000Y-82100000D03*
D12*
X110490000Y-73660000D03*
D17*
X119380000Y-76200000D03*
X109220000Y-76200000D03*
D12*
X91440000Y-73660000D03*
D13*
X90150000Y-80100000D03*
D12*
X97790000Y-71120000D03*
X97790000Y-71120000D03*
D13*
X90150000Y-80100000D03*
D14*
X95250000Y-76200000D03*
D15*
X89750000Y-76200000D03*
X100750000Y-76200000D03*
D16*
X95250000Y-82100000D03*
D12*
X91440000Y-73660000D03*
D17*
X100330000Y-76200000D03*
X90170000Y-76200000D03*
D12*
X148590000Y-54610000D03*
D13*
X147300000Y-61050000D03*
D12*
X154940000Y-52070000D03*
X154940000Y-52070000D03*
D13*
X147300000Y-61050000D03*
D14*
X152400000Y-57150000D03*
D15*
X146900000Y-57150000D03*
X157900000Y-57150000D03*
D16*
X152400000Y-63050000D03*
D12*
X148590000Y-54610000D03*
D17*
X157480000Y-57150000D03*
X147320000Y-57150000D03*
D12*
X129540000Y-54610000D03*
D13*
X128250000Y-61050000D03*
D12*
X135890000Y-52070000D03*
X135890000Y-52070000D03*
D13*
X128250000Y-61050000D03*
D14*
X133350000Y-57150000D03*
D15*
X127850000Y-57150000D03*
X138850000Y-57150000D03*
D16*
X133350000Y-63050000D03*
D12*
X129540000Y-54610000D03*
D17*
X138430000Y-57150000D03*
X128270000Y-57150000D03*
D12*
X110490000Y-54610000D03*
D13*
X109200000Y-61050000D03*
D12*
X116840000Y-52070000D03*
X116840000Y-52070000D03*
D13*
X109200000Y-61050000D03*
D14*
X114300000Y-57150000D03*
D15*
X108800000Y-57150000D03*
X119800000Y-57150000D03*
D16*
X114300000Y-63050000D03*
D12*
X110490000Y-54610000D03*
D17*
X119380000Y-57150000D03*
X109220000Y-57150000D03*
D12*
X91440000Y-54610000D03*
D13*
X90150000Y-61050000D03*
D12*
X97790000Y-52070000D03*
X97790000Y-52070000D03*
D13*
X90150000Y-61050000D03*
D14*
X95250000Y-57150000D03*
D15*
X89750000Y-57150000D03*
X100750000Y-57150000D03*
D16*
X95250000Y-63050000D03*
D12*
X91440000Y-54610000D03*
D17*
X100330000Y-57150000D03*
X90170000Y-57150000D03*
D18*
X150625000Y-144145000D03*
X154175000Y-144145000D03*
X132210000Y-144145000D03*
X135760000Y-144145000D03*
X112525000Y-144145000D03*
X116075000Y-144145000D03*
X93475000Y-144145000D03*
X97025000Y-144145000D03*
X74425000Y-144145000D03*
X77975000Y-144145000D03*
X55375000Y-144145000D03*
X58925000Y-144145000D03*
X150625000Y-125095000D03*
X154175000Y-125095000D03*
X131575000Y-125095000D03*
X135125000Y-125095000D03*
X112525000Y-125095000D03*
X116075000Y-125095000D03*
X93475000Y-125095000D03*
X97025000Y-125095000D03*
X74425000Y-125095000D03*
X77975000Y-125095000D03*
X55375000Y-125095000D03*
X58925000Y-125095000D03*
X150625000Y-106045000D03*
X154175000Y-106045000D03*
X131575000Y-106045000D03*
X135125000Y-106045000D03*
X112525000Y-106045000D03*
X116075000Y-106045000D03*
X93475000Y-106045000D03*
X97025000Y-106045000D03*
X74425000Y-106045000D03*
X77975000Y-106045000D03*
X55375000Y-106045000D03*
X58925000Y-106045000D03*
X150625000Y-86995000D03*
X154175000Y-86995000D03*
X131575000Y-86995000D03*
X135125000Y-86995000D03*
X112525000Y-86995000D03*
X116075000Y-86995000D03*
X93475000Y-86995000D03*
X97025000Y-86995000D03*
X74425000Y-86995000D03*
X77975000Y-86995000D03*
X55375000Y-86995000D03*
X58925000Y-86995000D03*
X150625000Y-67945000D03*
X154175000Y-67945000D03*
X131575000Y-67945000D03*
X135125000Y-67945000D03*
X112525000Y-67945000D03*
X116075000Y-67945000D03*
X93475000Y-67945000D03*
X97025000Y-67945000D03*
X150625000Y-48895000D03*
X154175000Y-48895000D03*
X131705000Y-48895000D03*
X135255000Y-48895000D03*
X112655000Y-48895000D03*
X116205000Y-48895000D03*
X93475000Y-48895000D03*
X97025000Y-48895000D03*
D12*
X72390000Y-73660000D03*
D13*
X71100000Y-80100000D03*
D12*
X78740000Y-71120000D03*
X78740000Y-71120000D03*
D13*
X71100000Y-80100000D03*
D14*
X76200000Y-76200000D03*
D15*
X70700000Y-76200000D03*
X81700000Y-76200000D03*
D16*
X76200000Y-82100000D03*
D12*
X72390000Y-73660000D03*
D17*
X81280000Y-76200000D03*
X71120000Y-76200000D03*
D12*
X53340000Y-73660000D03*
D13*
X52050000Y-80100000D03*
D12*
X59690000Y-71120000D03*
X59690000Y-71120000D03*
D13*
X52050000Y-80100000D03*
D14*
X57150000Y-76200000D03*
D15*
X51650000Y-76200000D03*
X62650000Y-76200000D03*
D16*
X57150000Y-82100000D03*
D12*
X53340000Y-73660000D03*
D17*
X62230000Y-76200000D03*
X52070000Y-76200000D03*
D12*
X72390000Y-54610000D03*
D13*
X71100000Y-61050000D03*
D12*
X78740000Y-52070000D03*
X78740000Y-52070000D03*
D13*
X71100000Y-61050000D03*
D14*
X76200000Y-57150000D03*
D15*
X70700000Y-57150000D03*
X81700000Y-57150000D03*
D16*
X76200000Y-63050000D03*
D12*
X72390000Y-54610000D03*
D17*
X81280000Y-57150000D03*
X71120000Y-57150000D03*
D12*
X53340000Y-54610000D03*
D13*
X52050000Y-61050000D03*
D12*
X59690000Y-52070000D03*
X59690000Y-52070000D03*
D13*
X52050000Y-61050000D03*
D14*
X57150000Y-57150000D03*
D15*
X51650000Y-57150000D03*
X62650000Y-57150000D03*
D16*
X57150000Y-63050000D03*
D12*
X53340000Y-54610000D03*
D17*
X62230000Y-57150000D03*
X52070000Y-57150000D03*
D18*
X74425000Y-67945000D03*
X77975000Y-67945000D03*
X55375000Y-67945000D03*
X58925000Y-67945000D03*
X74425000Y-48895000D03*
X77975000Y-48895000D03*
X55375000Y-48895000D03*
X58925000Y-48895000D03*
D17*
X75565000Y-40005000D03*
X73025000Y-40005000D03*
X70485000Y-40005000D03*
X67945000Y-40005000D03*
X65405000Y-40005000D03*
X62865000Y-40005000D03*
X60325000Y-40005000D03*
X57785000Y-40005000D03*
X75565000Y-42545000D03*
X73025000Y-42545000D03*
X70485000Y-42545000D03*
X67945000Y-42545000D03*
X65405000Y-42545000D03*
X62865000Y-42545000D03*
X60325000Y-42545000D03*
G36*
G01*
X58385000Y-43395000D02*
X57185000Y-43395000D01*
G75*
G02*
X56935000Y-43145000I0J250000D01*
G01*
X56935000Y-41945000D01*
G75*
G02*
X57185000Y-41695000I250000J0D01*
G01*
X58385000Y-41695000D01*
G75*
G02*
X58635000Y-41945000I0J-250000D01*
G01*
X58635000Y-43145000D01*
G75*
G02*
X58385000Y-43395000I-250000J0D01*
G01*
G37*
M02*
