M48
; DRILL file {KiCad (5.1.12-1-10_14)} date 2021 November 18, Thursday 12:13:58
; FORMAT={-:-/ absolute / metric / decimal}
; #@! TF.CreationDate,2021-11-18T12:13:58+08:00
; #@! TF.GenerationSoftware,Kicad,Pcbnew,(5.1.12-1-10_14)
; #@! TF.FileFunction,Plated,1,2,PTH
FMAT,2
METRIC
T1C0.300
T2C0.400
T3C0.813
T4C1.000
T5C1.200
%
G90
G05
T2
X62.865Y-47.625
X65.405Y-66.675
X80.328Y-66.675
X80.455Y-48.07
X83.82Y-40.005
X83.82Y-42.545
X88.655Y-40.005
X91.44Y-40.005
T3
X95.25Y-37.465
X95.25Y-40.005
X95.25Y-42.545
X95.25Y-45.085
T4
X57.785Y-40.005
X57.785Y-42.545
X60.325Y-40.005
X60.325Y-42.545
X62.865Y-40.005
X62.865Y-42.545
X65.405Y-40.005
X65.405Y-42.545
X67.945Y-40.005
X67.945Y-42.545
X70.485Y-40.005
X70.485Y-42.545
X73.025Y-40.005
X73.025Y-42.545
X75.565Y-40.005
X75.565Y-42.545
T5
X53.34Y-54.61
X53.34Y-54.61
X53.34Y-73.66
X53.34Y-73.66
X54.61Y-52.07
X54.61Y-71.12
X59.69Y-52.07
X59.69Y-52.07
X59.69Y-71.12
X59.69Y-71.12
X60.96Y-54.61
X60.96Y-73.66
X72.39Y-54.61
X72.39Y-54.61
X72.39Y-73.66
X72.39Y-73.66
X73.66Y-52.07
X73.66Y-71.12
X78.74Y-52.07
X78.74Y-52.07
X78.74Y-71.12
X78.74Y-71.12
X80.01Y-54.61
X80.01Y-73.66
T1
X51.8Y-51.597G85X52.5Y-51.603
G05
X51.8Y-70.647G85X52.5Y-70.653
G05
X56.8Y-63.05G85X57.5Y-63.05
G05
X56.8Y-82.1G85X57.5Y-82.1
G05
X61.8Y-51.603G85X62.5Y-51.597
G05
X61.8Y-51.603G85X62.5Y-51.597
G05
X61.8Y-70.653G85X62.5Y-70.647
G05
X61.8Y-70.653G85X62.5Y-70.647
G05
X70.85Y-51.597G85X71.55Y-51.603
G05
X70.85Y-70.647G85X71.55Y-70.653
G05
X75.85Y-63.05G85X76.55Y-63.05
G05
X75.85Y-82.1G85X76.55Y-82.1
G05
X80.85Y-51.603G85X81.55Y-51.597
G05
X80.85Y-51.603G85X81.55Y-51.597
G05
X80.85Y-70.653G85X81.55Y-70.647
G05
X80.85Y-70.653G85X81.55Y-70.647
G05
T2
X51.75Y-61.05G85X52.35Y-61.05
G05
X51.75Y-61.05G85X52.35Y-61.05
G05
X51.75Y-80.1G85X52.35Y-80.1
G05
X51.75Y-80.1G85X52.35Y-80.1
G05
X61.95Y-61.05G85X62.55Y-61.05
G05
X61.95Y-80.1G85X62.55Y-80.1
G05
X70.8Y-61.05G85X71.4Y-61.05
G05
X70.8Y-61.05G85X71.4Y-61.05
G05
X70.8Y-80.1G85X71.4Y-80.1
G05
X70.8Y-80.1G85X71.4Y-80.1
G05
X81.0Y-61.05G85X81.6Y-61.05
G05
X81.0Y-80.1G85X81.6Y-80.1
G05
T0
M30
