%FSLAX45Y45*%
G04 Gerber Fmt 4.5, Leading zero omitted, Abs format (unit mm)*
G04 Created by KiCad (PCBNEW (5.1.12-1-10_14)) date 2021-11-19 19:24:20*
%MOMM*%
%LPD*%
G01*
G04 APERTURE LIST*
%TA.AperFunction,Profile*%
%ADD10C,0.120000*%
%TD*%
%ADD11C,0.200000*%
%ADD12C,0.300000*%
G04 APERTURE END LIST*
D10*
X16129000Y-3492500D02*
G75*
G02*
X16192500Y-3556000I0J-63500D01*
G01*
X16192500Y-16129000D02*
G75*
G02*
X16129000Y-16192500I-63500J0D01*
G01*
X4826000Y-16192500D02*
X16129000Y-16192500D01*
X4826000Y-16192500D02*
G75*
G02*
X4762500Y-16129000I0J63500D01*
G01*
X16192500Y-3556000D02*
X16192500Y-16129000D01*
X4762500Y-3619500D02*
G75*
G02*
X4889500Y-3492500I127000J0D01*
G01*
X16129000Y-3492500D02*
X4889500Y-3492500D01*
X4762500Y-3619500D02*
X4762500Y-16129000D01*
D11*
X5122000Y-5630000D02*
X5292000Y-5800000D01*
X5292000Y-5630000D02*
X5122000Y-5800000D01*
X5122000Y-7535000D02*
X5292000Y-7705000D01*
X5292000Y-7535000D02*
X5122000Y-7705000D01*
X5122000Y-9440000D02*
X5292000Y-9610000D01*
X5292000Y-9440000D02*
X5122000Y-9610000D01*
X5122000Y-11345000D02*
X5292000Y-11515000D01*
X5292000Y-11345000D02*
X5122000Y-11515000D01*
X5122000Y-13250000D02*
X5292000Y-13420000D01*
X5292000Y-13250000D02*
X5122000Y-13420000D01*
X5122000Y-15155000D02*
X5292000Y-15325000D01*
X5292000Y-15155000D02*
X5122000Y-15325000D01*
X6138000Y-5630000D02*
X6308000Y-5800000D01*
X6308000Y-5630000D02*
X6138000Y-5800000D01*
X6138000Y-7535000D02*
X6308000Y-7705000D01*
X6308000Y-7535000D02*
X6138000Y-7705000D01*
X6138000Y-9440000D02*
X6308000Y-9610000D01*
X6308000Y-9440000D02*
X6138000Y-9610000D01*
X6138000Y-11345000D02*
X6308000Y-11515000D01*
X6308000Y-11345000D02*
X6138000Y-11515000D01*
X6138000Y-13250000D02*
X6308000Y-13420000D01*
X6308000Y-13250000D02*
X6138000Y-13420000D01*
X6138000Y-15155000D02*
X6308000Y-15325000D01*
X6308000Y-15155000D02*
X6138000Y-15325000D01*
X7027000Y-5630000D02*
X7197000Y-5800000D01*
X7197000Y-5630000D02*
X7027000Y-5800000D01*
X7027000Y-7535000D02*
X7197000Y-7705000D01*
X7197000Y-7535000D02*
X7027000Y-7705000D01*
X7027000Y-9440000D02*
X7197000Y-9610000D01*
X7197000Y-9440000D02*
X7027000Y-9610000D01*
X7027000Y-11345000D02*
X7197000Y-11515000D01*
X7197000Y-11345000D02*
X7027000Y-11515000D01*
X7027000Y-13250000D02*
X7197000Y-13420000D01*
X7197000Y-13250000D02*
X7027000Y-13420000D01*
X7027000Y-15155000D02*
X7197000Y-15325000D01*
X7197000Y-15155000D02*
X7027000Y-15325000D01*
X8043000Y-5630000D02*
X8213000Y-5800000D01*
X8213000Y-5630000D02*
X8043000Y-5800000D01*
X8043000Y-7535000D02*
X8213000Y-7705000D01*
X8213000Y-7535000D02*
X8043000Y-7705000D01*
X8043000Y-9440000D02*
X8213000Y-9610000D01*
X8213000Y-9440000D02*
X8043000Y-9610000D01*
X8043000Y-11345000D02*
X8213000Y-11515000D01*
X8213000Y-11345000D02*
X8043000Y-11515000D01*
X8043000Y-13250000D02*
X8213000Y-13420000D01*
X8213000Y-13250000D02*
X8043000Y-13420000D01*
X8043000Y-15155000D02*
X8213000Y-15325000D01*
X8213000Y-15155000D02*
X8043000Y-15325000D01*
X8932000Y-5630000D02*
X9102000Y-5800000D01*
X9102000Y-5630000D02*
X8932000Y-5800000D01*
X8932000Y-7535000D02*
X9102000Y-7705000D01*
X9102000Y-7535000D02*
X8932000Y-7705000D01*
X8932000Y-9440000D02*
X9102000Y-9610000D01*
X9102000Y-9440000D02*
X8932000Y-9610000D01*
X8932000Y-11345000D02*
X9102000Y-11515000D01*
X9102000Y-11345000D02*
X8932000Y-11515000D01*
X8932000Y-13250000D02*
X9102000Y-13420000D01*
X9102000Y-13250000D02*
X8932000Y-13420000D01*
X8932000Y-15155000D02*
X9102000Y-15325000D01*
X9102000Y-15155000D02*
X8932000Y-15325000D01*
X9948000Y-5630000D02*
X10118000Y-5800000D01*
X10118000Y-5630000D02*
X9948000Y-5800000D01*
X9948000Y-7535000D02*
X10118000Y-7705000D01*
X10118000Y-7535000D02*
X9948000Y-7705000D01*
X9948000Y-9440000D02*
X10118000Y-9610000D01*
X10118000Y-9440000D02*
X9948000Y-9610000D01*
X9948000Y-11345000D02*
X10118000Y-11515000D01*
X10118000Y-11345000D02*
X9948000Y-11515000D01*
X9948000Y-13250000D02*
X10118000Y-13420000D01*
X10118000Y-13250000D02*
X9948000Y-13420000D01*
X9948000Y-15155000D02*
X10118000Y-15325000D01*
X10118000Y-15155000D02*
X9948000Y-15325000D01*
X10837000Y-5630000D02*
X11007000Y-5800000D01*
X11007000Y-5630000D02*
X10837000Y-5800000D01*
X10837000Y-7535000D02*
X11007000Y-7705000D01*
X11007000Y-7535000D02*
X10837000Y-7705000D01*
X10837000Y-9440000D02*
X11007000Y-9610000D01*
X11007000Y-9440000D02*
X10837000Y-9610000D01*
X10837000Y-11345000D02*
X11007000Y-11515000D01*
X11007000Y-11345000D02*
X10837000Y-11515000D01*
X10837000Y-13250000D02*
X11007000Y-13420000D01*
X11007000Y-13250000D02*
X10837000Y-13420000D01*
X10837000Y-15155000D02*
X11007000Y-15325000D01*
X11007000Y-15155000D02*
X10837000Y-15325000D01*
X11853000Y-5630000D02*
X12023000Y-5800000D01*
X12023000Y-5630000D02*
X11853000Y-5800000D01*
X11853000Y-7535000D02*
X12023000Y-7705000D01*
X12023000Y-7535000D02*
X11853000Y-7705000D01*
X11853000Y-9440000D02*
X12023000Y-9610000D01*
X12023000Y-9440000D02*
X11853000Y-9610000D01*
X11853000Y-11345000D02*
X12023000Y-11515000D01*
X12023000Y-11345000D02*
X11853000Y-11515000D01*
X11853000Y-13250000D02*
X12023000Y-13420000D01*
X12023000Y-13250000D02*
X11853000Y-13420000D01*
X11853000Y-15155000D02*
X12023000Y-15325000D01*
X12023000Y-15155000D02*
X11853000Y-15325000D01*
X12742000Y-5630000D02*
X12912000Y-5800000D01*
X12912000Y-5630000D02*
X12742000Y-5800000D01*
X12742000Y-7535000D02*
X12912000Y-7705000D01*
X12912000Y-7535000D02*
X12742000Y-7705000D01*
X12742000Y-9440000D02*
X12912000Y-9610000D01*
X12912000Y-9440000D02*
X12742000Y-9610000D01*
X12742000Y-11345000D02*
X12912000Y-11515000D01*
X12912000Y-11345000D02*
X12742000Y-11515000D01*
X12742000Y-13250000D02*
X12912000Y-13420000D01*
X12912000Y-13250000D02*
X12742000Y-13420000D01*
X12742000Y-15155000D02*
X12912000Y-15325000D01*
X12912000Y-15155000D02*
X12742000Y-15325000D01*
X13758000Y-5630000D02*
X13928000Y-5800000D01*
X13928000Y-5630000D02*
X13758000Y-5800000D01*
X13758000Y-7535000D02*
X13928000Y-7705000D01*
X13928000Y-7535000D02*
X13758000Y-7705000D01*
X13758000Y-9440000D02*
X13928000Y-9610000D01*
X13928000Y-9440000D02*
X13758000Y-9610000D01*
X13758000Y-11345000D02*
X13928000Y-11515000D01*
X13928000Y-11345000D02*
X13758000Y-11515000D01*
X13758000Y-13250000D02*
X13928000Y-13420000D01*
X13928000Y-13250000D02*
X13758000Y-13420000D01*
X13758000Y-15155000D02*
X13928000Y-15325000D01*
X13928000Y-15155000D02*
X13758000Y-15325000D01*
X14647000Y-5630000D02*
X14817000Y-5800000D01*
X14817000Y-5630000D02*
X14647000Y-5800000D01*
X14647000Y-7535000D02*
X14817000Y-7705000D01*
X14817000Y-7535000D02*
X14647000Y-7705000D01*
X14647000Y-9440000D02*
X14817000Y-9610000D01*
X14817000Y-9440000D02*
X14647000Y-9610000D01*
X14647000Y-11345000D02*
X14817000Y-11515000D01*
X14817000Y-11345000D02*
X14647000Y-11515000D01*
X14647000Y-13250000D02*
X14817000Y-13420000D01*
X14817000Y-13250000D02*
X14647000Y-13420000D01*
X14647000Y-15155000D02*
X14817000Y-15325000D01*
X14817000Y-15155000D02*
X14647000Y-15325000D01*
X15663000Y-5630000D02*
X15833000Y-5800000D01*
X15833000Y-5630000D02*
X15663000Y-5800000D01*
X15663000Y-7535000D02*
X15833000Y-7705000D01*
X15833000Y-7535000D02*
X15663000Y-7705000D01*
X15663000Y-9440000D02*
X15833000Y-9610000D01*
X15833000Y-9440000D02*
X15663000Y-9610000D01*
X15663000Y-11345000D02*
X15833000Y-11515000D01*
X15833000Y-11345000D02*
X15663000Y-11515000D01*
X15663000Y-13250000D02*
X15833000Y-13420000D01*
X15833000Y-13250000D02*
X15663000Y-13420000D01*
X15663000Y-15155000D02*
X15833000Y-15325000D01*
X15833000Y-15155000D02*
X15663000Y-15325000D01*
X5255000Y-5715000D02*
G75*
G03*
X5255000Y-5715000I-90000J0D01*
G01*
X5255000Y-7620000D02*
G75*
G03*
X5255000Y-7620000I-90000J0D01*
G01*
X5255000Y-9525000D02*
G75*
G03*
X5255000Y-9525000I-90000J0D01*
G01*
X5255000Y-11430000D02*
G75*
G03*
X5255000Y-11430000I-90000J0D01*
G01*
X5255000Y-13335000D02*
G75*
G03*
X5255000Y-13335000I-90000J0D01*
G01*
X5255000Y-15240000D02*
G75*
G03*
X5255000Y-15240000I-90000J0D01*
G01*
X6355000Y-5715000D02*
G75*
G03*
X6355000Y-5715000I-90000J0D01*
G01*
X6355000Y-7620000D02*
G75*
G03*
X6355000Y-7620000I-90000J0D01*
G01*
X6355000Y-9525000D02*
G75*
G03*
X6355000Y-9525000I-90000J0D01*
G01*
X6355000Y-11430000D02*
G75*
G03*
X6355000Y-11430000I-90000J0D01*
G01*
X6355000Y-13335000D02*
G75*
G03*
X6355000Y-13335000I-90000J0D01*
G01*
X6355000Y-15240000D02*
G75*
G03*
X6355000Y-15240000I-90000J0D01*
G01*
X7160000Y-5715000D02*
G75*
G03*
X7160000Y-5715000I-90000J0D01*
G01*
X7160000Y-7620000D02*
G75*
G03*
X7160000Y-7620000I-90000J0D01*
G01*
X7160000Y-9525000D02*
G75*
G03*
X7160000Y-9525000I-90000J0D01*
G01*
X7160000Y-11430000D02*
G75*
G03*
X7160000Y-11430000I-90000J0D01*
G01*
X7160000Y-13335000D02*
G75*
G03*
X7160000Y-13335000I-90000J0D01*
G01*
X7160000Y-15240000D02*
G75*
G03*
X7160000Y-15240000I-90000J0D01*
G01*
X8260000Y-5715000D02*
G75*
G03*
X8260000Y-5715000I-90000J0D01*
G01*
X8260000Y-7620000D02*
G75*
G03*
X8260000Y-7620000I-90000J0D01*
G01*
X8260000Y-9525000D02*
G75*
G03*
X8260000Y-9525000I-90000J0D01*
G01*
X8260000Y-11430000D02*
G75*
G03*
X8260000Y-11430000I-90000J0D01*
G01*
X8260000Y-13335000D02*
G75*
G03*
X8260000Y-13335000I-90000J0D01*
G01*
X8260000Y-15240000D02*
G75*
G03*
X8260000Y-15240000I-90000J0D01*
G01*
X9065000Y-5715000D02*
G75*
G03*
X9065000Y-5715000I-90000J0D01*
G01*
X9065000Y-7620000D02*
G75*
G03*
X9065000Y-7620000I-90000J0D01*
G01*
X9065000Y-9525000D02*
G75*
G03*
X9065000Y-9525000I-90000J0D01*
G01*
X9065000Y-11430000D02*
G75*
G03*
X9065000Y-11430000I-90000J0D01*
G01*
X9065000Y-13335000D02*
G75*
G03*
X9065000Y-13335000I-90000J0D01*
G01*
X9065000Y-15240000D02*
G75*
G03*
X9065000Y-15240000I-90000J0D01*
G01*
X10165000Y-5715000D02*
G75*
G03*
X10165000Y-5715000I-90000J0D01*
G01*
X10165000Y-7620000D02*
G75*
G03*
X10165000Y-7620000I-90000J0D01*
G01*
X10165000Y-9525000D02*
G75*
G03*
X10165000Y-9525000I-90000J0D01*
G01*
X10165000Y-11430000D02*
G75*
G03*
X10165000Y-11430000I-90000J0D01*
G01*
X10165000Y-13335000D02*
G75*
G03*
X10165000Y-13335000I-90000J0D01*
G01*
X10165000Y-15240000D02*
G75*
G03*
X10165000Y-15240000I-90000J0D01*
G01*
X10970000Y-5715000D02*
G75*
G03*
X10970000Y-5715000I-90000J0D01*
G01*
X10970000Y-7620000D02*
G75*
G03*
X10970000Y-7620000I-90000J0D01*
G01*
X10970000Y-9525000D02*
G75*
G03*
X10970000Y-9525000I-90000J0D01*
G01*
X10970000Y-11430000D02*
G75*
G03*
X10970000Y-11430000I-90000J0D01*
G01*
X10970000Y-13335000D02*
G75*
G03*
X10970000Y-13335000I-90000J0D01*
G01*
X10970000Y-15240000D02*
G75*
G03*
X10970000Y-15240000I-90000J0D01*
G01*
X12070000Y-5715000D02*
G75*
G03*
X12070000Y-5715000I-90000J0D01*
G01*
X12070000Y-7620000D02*
G75*
G03*
X12070000Y-7620000I-90000J0D01*
G01*
X12070000Y-9525000D02*
G75*
G03*
X12070000Y-9525000I-90000J0D01*
G01*
X12070000Y-11430000D02*
G75*
G03*
X12070000Y-11430000I-90000J0D01*
G01*
X12070000Y-13335000D02*
G75*
G03*
X12070000Y-13335000I-90000J0D01*
G01*
X12070000Y-15240000D02*
G75*
G03*
X12070000Y-15240000I-90000J0D01*
G01*
X12875000Y-5715000D02*
G75*
G03*
X12875000Y-5715000I-90000J0D01*
G01*
X12875000Y-7620000D02*
G75*
G03*
X12875000Y-7620000I-90000J0D01*
G01*
X12875000Y-9525000D02*
G75*
G03*
X12875000Y-9525000I-90000J0D01*
G01*
X12875000Y-11430000D02*
G75*
G03*
X12875000Y-11430000I-90000J0D01*
G01*
X12875000Y-13335000D02*
G75*
G03*
X12875000Y-13335000I-90000J0D01*
G01*
X12875000Y-15240000D02*
G75*
G03*
X12875000Y-15240000I-90000J0D01*
G01*
X13975000Y-5715000D02*
G75*
G03*
X13975000Y-5715000I-90000J0D01*
G01*
X13975000Y-7620000D02*
G75*
G03*
X13975000Y-7620000I-90000J0D01*
G01*
X13975000Y-9525000D02*
G75*
G03*
X13975000Y-9525000I-90000J0D01*
G01*
X13975000Y-11430000D02*
G75*
G03*
X13975000Y-11430000I-90000J0D01*
G01*
X13975000Y-13335000D02*
G75*
G03*
X13975000Y-13335000I-90000J0D01*
G01*
X13975000Y-15240000D02*
G75*
G03*
X13975000Y-15240000I-90000J0D01*
G01*
X14780000Y-5715000D02*
G75*
G03*
X14780000Y-5715000I-90000J0D01*
G01*
X14780000Y-7620000D02*
G75*
G03*
X14780000Y-7620000I-90000J0D01*
G01*
X14780000Y-9525000D02*
G75*
G03*
X14780000Y-9525000I-90000J0D01*
G01*
X14780000Y-11430000D02*
G75*
G03*
X14780000Y-11430000I-90000J0D01*
G01*
X14780000Y-13335000D02*
G75*
G03*
X14780000Y-13335000I-90000J0D01*
G01*
X14780000Y-15240000D02*
G75*
G03*
X14780000Y-15240000I-90000J0D01*
G01*
X15880000Y-5715000D02*
G75*
G03*
X15880000Y-5715000I-90000J0D01*
G01*
X15880000Y-7620000D02*
G75*
G03*
X15880000Y-7620000I-90000J0D01*
G01*
X15880000Y-9525000D02*
G75*
G03*
X15880000Y-9525000I-90000J0D01*
G01*
X15880000Y-11430000D02*
G75*
G03*
X15880000Y-11430000I-90000J0D01*
G01*
X15880000Y-13335000D02*
G75*
G03*
X15880000Y-13335000I-90000J0D01*
G01*
X15880000Y-15240000D02*
G75*
G03*
X15880000Y-15240000I-90000J0D01*
G01*
X5715000Y-5470000D02*
X5715000Y-5960000D01*
X5470000Y-5715000D02*
X5960000Y-5715000D01*
X5715000Y-7375000D02*
X5715000Y-7865000D01*
X5470000Y-7620000D02*
X5960000Y-7620000D01*
X5715000Y-9280000D02*
X5715000Y-9770000D01*
X5470000Y-9525000D02*
X5960000Y-9525000D01*
X5715000Y-11185000D02*
X5715000Y-11675000D01*
X5470000Y-11430000D02*
X5960000Y-11430000D01*
X5715000Y-13090000D02*
X5715000Y-13580000D01*
X5470000Y-13335000D02*
X5960000Y-13335000D01*
X5715000Y-14995000D02*
X5715000Y-15485000D01*
X5470000Y-15240000D02*
X5960000Y-15240000D01*
X7620000Y-5470000D02*
X7620000Y-5960000D01*
X7375000Y-5715000D02*
X7865000Y-5715000D01*
X7620000Y-7375000D02*
X7620000Y-7865000D01*
X7375000Y-7620000D02*
X7865000Y-7620000D01*
X7620000Y-9280000D02*
X7620000Y-9770000D01*
X7375000Y-9525000D02*
X7865000Y-9525000D01*
X7620000Y-11185000D02*
X7620000Y-11675000D01*
X7375000Y-11430000D02*
X7865000Y-11430000D01*
X7620000Y-13090000D02*
X7620000Y-13580000D01*
X7375000Y-13335000D02*
X7865000Y-13335000D01*
X7620000Y-14995000D02*
X7620000Y-15485000D01*
X7375000Y-15240000D02*
X7865000Y-15240000D01*
X9525000Y-5470000D02*
X9525000Y-5960000D01*
X9280000Y-5715000D02*
X9770000Y-5715000D01*
X9525000Y-7375000D02*
X9525000Y-7865000D01*
X9280000Y-7620000D02*
X9770000Y-7620000D01*
X9525000Y-9280000D02*
X9525000Y-9770000D01*
X9280000Y-9525000D02*
X9770000Y-9525000D01*
X9525000Y-11185000D02*
X9525000Y-11675000D01*
X9280000Y-11430000D02*
X9770000Y-11430000D01*
X9525000Y-13090000D02*
X9525000Y-13580000D01*
X9280000Y-13335000D02*
X9770000Y-13335000D01*
X9525000Y-14995000D02*
X9525000Y-15485000D01*
X9280000Y-15240000D02*
X9770000Y-15240000D01*
X11430000Y-5470000D02*
X11430000Y-5960000D01*
X11185000Y-5715000D02*
X11675000Y-5715000D01*
X11430000Y-7375000D02*
X11430000Y-7865000D01*
X11185000Y-7620000D02*
X11675000Y-7620000D01*
X11430000Y-9280000D02*
X11430000Y-9770000D01*
X11185000Y-9525000D02*
X11675000Y-9525000D01*
X11430000Y-11185000D02*
X11430000Y-11675000D01*
X11185000Y-11430000D02*
X11675000Y-11430000D01*
X11430000Y-13090000D02*
X11430000Y-13580000D01*
X11185000Y-13335000D02*
X11675000Y-13335000D01*
X11430000Y-14995000D02*
X11430000Y-15485000D01*
X11185000Y-15240000D02*
X11675000Y-15240000D01*
X13335000Y-5470000D02*
X13335000Y-5960000D01*
X13090000Y-5715000D02*
X13580000Y-5715000D01*
X13335000Y-7375000D02*
X13335000Y-7865000D01*
X13090000Y-7620000D02*
X13580000Y-7620000D01*
X13335000Y-9280000D02*
X13335000Y-9770000D01*
X13090000Y-9525000D02*
X13580000Y-9525000D01*
X13335000Y-11185000D02*
X13335000Y-11675000D01*
X13090000Y-11430000D02*
X13580000Y-11430000D01*
X13335000Y-13090000D02*
X13335000Y-13580000D01*
X13090000Y-13335000D02*
X13580000Y-13335000D01*
X13335000Y-14995000D02*
X13335000Y-15485000D01*
X13090000Y-15240000D02*
X13580000Y-15240000D01*
X15240000Y-5470000D02*
X15240000Y-5960000D01*
X14995000Y-5715000D02*
X15485000Y-5715000D01*
X15240000Y-7375000D02*
X15240000Y-7865000D01*
X14995000Y-7620000D02*
X15485000Y-7620000D01*
X15240000Y-9280000D02*
X15240000Y-9770000D01*
X14995000Y-9525000D02*
X15485000Y-9525000D01*
X15240000Y-11185000D02*
X15240000Y-11675000D01*
X14995000Y-11430000D02*
X15485000Y-11430000D01*
X15240000Y-13090000D02*
X15240000Y-13580000D01*
X14995000Y-13335000D02*
X15485000Y-13335000D01*
X15240000Y-14995000D02*
X15240000Y-15485000D01*
X14995000Y-15240000D02*
X15485000Y-15240000D01*
D12*
X5042928Y-16664214D02*
X5042928Y-16364214D01*
X5114357Y-16364214D01*
X5157214Y-16378500D01*
X5185786Y-16407071D01*
X5200071Y-16435643D01*
X5214357Y-16492786D01*
X5214357Y-16535643D01*
X5200071Y-16592786D01*
X5185786Y-16621357D01*
X5157214Y-16649929D01*
X5114357Y-16664214D01*
X5042928Y-16664214D01*
X5342928Y-16664214D02*
X5342928Y-16464214D01*
X5342928Y-16521357D02*
X5357214Y-16492786D01*
X5371500Y-16478500D01*
X5400071Y-16464214D01*
X5428643Y-16464214D01*
X5528643Y-16664214D02*
X5528643Y-16464214D01*
X5528643Y-16364214D02*
X5514357Y-16378500D01*
X5528643Y-16392786D01*
X5542928Y-16378500D01*
X5528643Y-16364214D01*
X5528643Y-16392786D01*
X5714357Y-16664214D02*
X5685786Y-16649929D01*
X5671500Y-16621357D01*
X5671500Y-16364214D01*
X5871500Y-16664214D02*
X5842928Y-16649929D01*
X5828643Y-16621357D01*
X5828643Y-16364214D01*
X6214357Y-16664214D02*
X6214357Y-16364214D01*
X6314357Y-16578500D01*
X6414357Y-16364214D01*
X6414357Y-16664214D01*
X6685786Y-16664214D02*
X6685786Y-16507071D01*
X6671500Y-16478500D01*
X6642928Y-16464214D01*
X6585786Y-16464214D01*
X6557214Y-16478500D01*
X6685786Y-16649929D02*
X6657214Y-16664214D01*
X6585786Y-16664214D01*
X6557214Y-16649929D01*
X6542928Y-16621357D01*
X6542928Y-16592786D01*
X6557214Y-16564214D01*
X6585786Y-16549929D01*
X6657214Y-16549929D01*
X6685786Y-16535643D01*
X6828643Y-16464214D02*
X6828643Y-16764214D01*
X6828643Y-16478500D02*
X6857214Y-16464214D01*
X6914357Y-16464214D01*
X6942928Y-16478500D01*
X6957214Y-16492786D01*
X6971500Y-16521357D01*
X6971500Y-16607071D01*
X6957214Y-16635643D01*
X6942928Y-16649929D01*
X6914357Y-16664214D01*
X6857214Y-16664214D01*
X6828643Y-16649929D01*
X7100071Y-16635643D02*
X7114357Y-16649929D01*
X7100071Y-16664214D01*
X7085786Y-16649929D01*
X7100071Y-16635643D01*
X7100071Y-16664214D01*
X7100071Y-16478500D02*
X7114357Y-16492786D01*
X7100071Y-16507071D01*
X7085786Y-16492786D01*
X7100071Y-16478500D01*
X7100071Y-16507071D01*
X4586500Y-17073500D02*
X4756500Y-17243500D01*
X4756500Y-17073500D02*
X4586500Y-17243500D01*
X5200071Y-17294214D02*
X5028643Y-17294214D01*
X5114357Y-17294214D02*
X5114357Y-16994214D01*
X5085786Y-17037072D01*
X5057214Y-17065643D01*
X5028643Y-17079929D01*
X5328643Y-17265643D02*
X5342928Y-17279929D01*
X5328643Y-17294214D01*
X5314357Y-17279929D01*
X5328643Y-17265643D01*
X5328643Y-17294214D01*
X5442928Y-16994214D02*
X5642928Y-16994214D01*
X5514357Y-17294214D01*
X5814357Y-16994214D02*
X5842928Y-16994214D01*
X5871500Y-17008500D01*
X5885786Y-17022786D01*
X5900071Y-17051357D01*
X5914357Y-17108500D01*
X5914357Y-17179929D01*
X5900071Y-17237072D01*
X5885786Y-17265643D01*
X5871500Y-17279929D01*
X5842928Y-17294214D01*
X5814357Y-17294214D01*
X5785786Y-17279929D01*
X5771500Y-17265643D01*
X5757214Y-17237072D01*
X5742928Y-17179929D01*
X5742928Y-17108500D01*
X5757214Y-17051357D01*
X5771500Y-17022786D01*
X5785786Y-17008500D01*
X5814357Y-16994214D01*
X6100071Y-16994214D02*
X6128643Y-16994214D01*
X6157214Y-17008500D01*
X6171500Y-17022786D01*
X6185786Y-17051357D01*
X6200071Y-17108500D01*
X6200071Y-17179929D01*
X6185786Y-17237072D01*
X6171500Y-17265643D01*
X6157214Y-17279929D01*
X6128643Y-17294214D01*
X6100071Y-17294214D01*
X6071500Y-17279929D01*
X6057214Y-17265643D01*
X6042928Y-17237072D01*
X6028643Y-17179929D01*
X6028643Y-17108500D01*
X6042928Y-17051357D01*
X6057214Y-17022786D01*
X6071500Y-17008500D01*
X6100071Y-16994214D01*
X6328643Y-17294214D02*
X6328643Y-17094214D01*
X6328643Y-17122786D02*
X6342928Y-17108500D01*
X6371500Y-17094214D01*
X6414357Y-17094214D01*
X6442928Y-17108500D01*
X6457214Y-17137072D01*
X6457214Y-17294214D01*
X6457214Y-17137072D02*
X6471500Y-17108500D01*
X6500071Y-17094214D01*
X6542928Y-17094214D01*
X6571500Y-17108500D01*
X6585786Y-17137072D01*
X6585786Y-17294214D01*
X6728643Y-17294214D02*
X6728643Y-17094214D01*
X6728643Y-17122786D02*
X6742928Y-17108500D01*
X6771500Y-17094214D01*
X6814357Y-17094214D01*
X6842928Y-17108500D01*
X6857214Y-17137072D01*
X6857214Y-17294214D01*
X6857214Y-17137072D02*
X6871500Y-17108500D01*
X6900071Y-17094214D01*
X6942928Y-17094214D01*
X6971500Y-17108500D01*
X6985786Y-17137072D01*
X6985786Y-17294214D01*
X7571500Y-16979929D02*
X7314357Y-17365643D01*
X7957214Y-16994214D02*
X7985786Y-16994214D01*
X8014357Y-17008500D01*
X8028643Y-17022786D01*
X8042928Y-17051357D01*
X8057214Y-17108500D01*
X8057214Y-17179929D01*
X8042928Y-17237072D01*
X8028643Y-17265643D01*
X8014357Y-17279929D01*
X7985786Y-17294214D01*
X7957214Y-17294214D01*
X7928643Y-17279929D01*
X7914357Y-17265643D01*
X7900071Y-17237072D01*
X7885786Y-17179929D01*
X7885786Y-17108500D01*
X7900071Y-17051357D01*
X7914357Y-17022786D01*
X7928643Y-17008500D01*
X7957214Y-16994214D01*
X8185786Y-17265643D02*
X8200071Y-17279929D01*
X8185786Y-17294214D01*
X8171500Y-17279929D01*
X8185786Y-17265643D01*
X8185786Y-17294214D01*
X8385786Y-16994214D02*
X8414357Y-16994214D01*
X8442928Y-17008500D01*
X8457214Y-17022786D01*
X8471500Y-17051357D01*
X8485786Y-17108500D01*
X8485786Y-17179929D01*
X8471500Y-17237072D01*
X8457214Y-17265643D01*
X8442928Y-17279929D01*
X8414357Y-17294214D01*
X8385786Y-17294214D01*
X8357214Y-17279929D01*
X8342928Y-17265643D01*
X8328643Y-17237072D01*
X8314357Y-17179929D01*
X8314357Y-17108500D01*
X8328643Y-17051357D01*
X8342928Y-17022786D01*
X8357214Y-17008500D01*
X8385786Y-16994214D01*
X8742928Y-16994214D02*
X8685786Y-16994214D01*
X8657214Y-17008500D01*
X8642928Y-17022786D01*
X8614357Y-17065643D01*
X8600071Y-17122786D01*
X8600071Y-17237072D01*
X8614357Y-17265643D01*
X8628643Y-17279929D01*
X8657214Y-17294214D01*
X8714357Y-17294214D01*
X8742928Y-17279929D01*
X8757214Y-17265643D01*
X8771500Y-17237072D01*
X8771500Y-17165643D01*
X8757214Y-17137072D01*
X8742928Y-17122786D01*
X8714357Y-17108500D01*
X8657214Y-17108500D01*
X8628643Y-17122786D01*
X8614357Y-17137072D01*
X8600071Y-17165643D01*
X9028643Y-16994214D02*
X8971500Y-16994214D01*
X8942928Y-17008500D01*
X8928643Y-17022786D01*
X8900071Y-17065643D01*
X8885786Y-17122786D01*
X8885786Y-17237072D01*
X8900071Y-17265643D01*
X8914357Y-17279929D01*
X8942928Y-17294214D01*
X9000071Y-17294214D01*
X9028643Y-17279929D01*
X9042928Y-17265643D01*
X9057214Y-17237072D01*
X9057214Y-17165643D01*
X9042928Y-17137072D01*
X9028643Y-17122786D01*
X9000071Y-17108500D01*
X8942928Y-17108500D01*
X8914357Y-17122786D01*
X8900071Y-17137072D01*
X8885786Y-17165643D01*
X9200071Y-17294214D02*
X9257214Y-17294214D01*
X9285786Y-17279929D01*
X9300071Y-17265643D01*
X9328643Y-17222786D01*
X9342928Y-17165643D01*
X9342928Y-17051357D01*
X9328643Y-17022786D01*
X9314357Y-17008500D01*
X9285786Y-16994214D01*
X9228643Y-16994214D01*
X9200071Y-17008500D01*
X9185786Y-17022786D01*
X9171500Y-17051357D01*
X9171500Y-17122786D01*
X9185786Y-17151357D01*
X9200071Y-17165643D01*
X9228643Y-17179929D01*
X9285786Y-17179929D01*
X9314357Y-17165643D01*
X9328643Y-17151357D01*
X9342928Y-17122786D01*
X9457214Y-16994214D02*
X9457214Y-17051357D01*
X9571500Y-16994214D02*
X9571500Y-17051357D01*
X10014357Y-17408500D02*
X10000071Y-17394214D01*
X9971500Y-17351357D01*
X9957214Y-17322786D01*
X9942928Y-17279929D01*
X9928643Y-17208500D01*
X9928643Y-17151357D01*
X9942928Y-17079929D01*
X9957214Y-17037072D01*
X9971500Y-17008500D01*
X10000071Y-16965643D01*
X10014357Y-16951357D01*
X10100071Y-16994214D02*
X10300071Y-16994214D01*
X10171500Y-17294214D01*
X10400071Y-17022786D02*
X10414357Y-17008500D01*
X10442928Y-16994214D01*
X10514357Y-16994214D01*
X10542928Y-17008500D01*
X10557214Y-17022786D01*
X10571500Y-17051357D01*
X10571500Y-17079929D01*
X10557214Y-17122786D01*
X10385786Y-17294214D01*
X10571500Y-17294214D01*
X10928643Y-17294214D02*
X10928643Y-16994214D01*
X11057214Y-17294214D02*
X11057214Y-17137072D01*
X11042928Y-17108500D01*
X11014357Y-17094214D01*
X10971500Y-17094214D01*
X10942928Y-17108500D01*
X10928643Y-17122786D01*
X11242928Y-17294214D02*
X11214357Y-17279929D01*
X11200071Y-17265643D01*
X11185786Y-17237072D01*
X11185786Y-17151357D01*
X11200071Y-17122786D01*
X11214357Y-17108500D01*
X11242928Y-17094214D01*
X11285786Y-17094214D01*
X11314357Y-17108500D01*
X11328643Y-17122786D01*
X11342928Y-17151357D01*
X11342928Y-17237072D01*
X11328643Y-17265643D01*
X11314357Y-17279929D01*
X11285786Y-17294214D01*
X11242928Y-17294214D01*
X11514357Y-17294214D02*
X11485786Y-17279929D01*
X11471500Y-17251357D01*
X11471500Y-16994214D01*
X11742928Y-17279929D02*
X11714357Y-17294214D01*
X11657214Y-17294214D01*
X11628643Y-17279929D01*
X11614357Y-17251357D01*
X11614357Y-17137072D01*
X11628643Y-17108500D01*
X11657214Y-17094214D01*
X11714357Y-17094214D01*
X11742928Y-17108500D01*
X11757214Y-17137072D01*
X11757214Y-17165643D01*
X11614357Y-17194214D01*
X11871500Y-17279929D02*
X11900071Y-17294214D01*
X11957214Y-17294214D01*
X11985786Y-17279929D01*
X12000071Y-17251357D01*
X12000071Y-17237072D01*
X11985786Y-17208500D01*
X11957214Y-17194214D01*
X11914357Y-17194214D01*
X11885786Y-17179929D01*
X11871500Y-17151357D01*
X11871500Y-17137072D01*
X11885786Y-17108500D01*
X11914357Y-17094214D01*
X11957214Y-17094214D01*
X11985786Y-17108500D01*
X12100071Y-17408500D02*
X12114357Y-17394214D01*
X12142928Y-17351357D01*
X12157214Y-17322786D01*
X12171500Y-17279929D01*
X12185786Y-17208500D01*
X12185786Y-17151357D01*
X12171500Y-17079929D01*
X12157214Y-17037072D01*
X12142928Y-17008500D01*
X12114357Y-16965643D01*
X12100071Y-16951357D01*
X12642928Y-17408500D02*
X12628643Y-17394214D01*
X12600071Y-17351357D01*
X12585786Y-17322786D01*
X12571500Y-17279929D01*
X12557214Y-17208500D01*
X12557214Y-17151357D01*
X12571500Y-17079929D01*
X12585786Y-17037072D01*
X12600071Y-17008500D01*
X12628643Y-16965643D01*
X12642928Y-16951357D01*
X12757214Y-17094214D02*
X12757214Y-17294214D01*
X12757214Y-17122786D02*
X12771500Y-17108500D01*
X12800071Y-17094214D01*
X12842928Y-17094214D01*
X12871500Y-17108500D01*
X12885786Y-17137072D01*
X12885786Y-17294214D01*
X13071500Y-17294214D02*
X13042928Y-17279929D01*
X13028643Y-17265643D01*
X13014357Y-17237072D01*
X13014357Y-17151357D01*
X13028643Y-17122786D01*
X13042928Y-17108500D01*
X13071500Y-17094214D01*
X13114357Y-17094214D01*
X13142928Y-17108500D01*
X13157214Y-17122786D01*
X13171500Y-17151357D01*
X13171500Y-17237072D01*
X13157214Y-17265643D01*
X13142928Y-17279929D01*
X13114357Y-17294214D01*
X13071500Y-17294214D01*
X13257214Y-17094214D02*
X13371500Y-17094214D01*
X13300071Y-16994214D02*
X13300071Y-17251357D01*
X13314357Y-17279929D01*
X13342928Y-17294214D01*
X13371500Y-17294214D01*
X13700071Y-17094214D02*
X13700071Y-17394214D01*
X13700071Y-17108500D02*
X13728643Y-17094214D01*
X13785786Y-17094214D01*
X13814357Y-17108500D01*
X13828643Y-17122786D01*
X13842928Y-17151357D01*
X13842928Y-17237072D01*
X13828643Y-17265643D01*
X13814357Y-17279929D01*
X13785786Y-17294214D01*
X13728643Y-17294214D01*
X13700071Y-17279929D01*
X14014357Y-17294214D02*
X13985786Y-17279929D01*
X13971500Y-17251357D01*
X13971500Y-16994214D01*
X14257214Y-17294214D02*
X14257214Y-17137072D01*
X14242928Y-17108500D01*
X14214357Y-17094214D01*
X14157214Y-17094214D01*
X14128643Y-17108500D01*
X14257214Y-17279929D02*
X14228643Y-17294214D01*
X14157214Y-17294214D01*
X14128643Y-17279929D01*
X14114357Y-17251357D01*
X14114357Y-17222786D01*
X14128643Y-17194214D01*
X14157214Y-17179929D01*
X14228643Y-17179929D01*
X14257214Y-17165643D01*
X14357214Y-17094214D02*
X14471500Y-17094214D01*
X14400071Y-16994214D02*
X14400071Y-17251357D01*
X14414357Y-17279929D01*
X14442928Y-17294214D01*
X14471500Y-17294214D01*
X14685786Y-17279929D02*
X14657214Y-17294214D01*
X14600071Y-17294214D01*
X14571500Y-17279929D01*
X14557214Y-17251357D01*
X14557214Y-17137072D01*
X14571500Y-17108500D01*
X14600071Y-17094214D01*
X14657214Y-17094214D01*
X14685786Y-17108500D01*
X14700071Y-17137072D01*
X14700071Y-17165643D01*
X14557214Y-17194214D01*
X14957214Y-17294214D02*
X14957214Y-16994214D01*
X14957214Y-17279929D02*
X14928643Y-17294214D01*
X14871500Y-17294214D01*
X14842928Y-17279929D01*
X14828643Y-17265643D01*
X14814357Y-17237072D01*
X14814357Y-17151357D01*
X14828643Y-17122786D01*
X14842928Y-17108500D01*
X14871500Y-17094214D01*
X14928643Y-17094214D01*
X14957214Y-17108500D01*
X15071500Y-17408500D02*
X15085786Y-17394214D01*
X15114357Y-17351357D01*
X15128643Y-17322786D01*
X15142928Y-17279929D01*
X15157214Y-17208500D01*
X15157214Y-17151357D01*
X15142928Y-17079929D01*
X15128643Y-17037072D01*
X15114357Y-17008500D01*
X15085786Y-16965643D01*
X15071500Y-16951357D01*
X4756500Y-17554500D02*
G75*
G03*
X4756500Y-17554500I-90000J0D01*
G01*
X5200071Y-17690214D02*
X5028643Y-17690214D01*
X5114357Y-17690214D02*
X5114357Y-17390214D01*
X5085786Y-17433072D01*
X5057214Y-17461643D01*
X5028643Y-17475929D01*
X5328643Y-17661643D02*
X5342928Y-17675929D01*
X5328643Y-17690214D01*
X5314357Y-17675929D01*
X5328643Y-17661643D01*
X5328643Y-17690214D01*
X5514357Y-17518786D02*
X5485786Y-17504500D01*
X5471500Y-17490214D01*
X5457214Y-17461643D01*
X5457214Y-17447357D01*
X5471500Y-17418786D01*
X5485786Y-17404500D01*
X5514357Y-17390214D01*
X5571500Y-17390214D01*
X5600071Y-17404500D01*
X5614357Y-17418786D01*
X5628643Y-17447357D01*
X5628643Y-17461643D01*
X5614357Y-17490214D01*
X5600071Y-17504500D01*
X5571500Y-17518786D01*
X5514357Y-17518786D01*
X5485786Y-17533072D01*
X5471500Y-17547357D01*
X5457214Y-17575929D01*
X5457214Y-17633072D01*
X5471500Y-17661643D01*
X5485786Y-17675929D01*
X5514357Y-17690214D01*
X5571500Y-17690214D01*
X5600071Y-17675929D01*
X5614357Y-17661643D01*
X5628643Y-17633072D01*
X5628643Y-17575929D01*
X5614357Y-17547357D01*
X5600071Y-17533072D01*
X5571500Y-17518786D01*
X5814357Y-17390214D02*
X5842928Y-17390214D01*
X5871500Y-17404500D01*
X5885786Y-17418786D01*
X5900071Y-17447357D01*
X5914357Y-17504500D01*
X5914357Y-17575929D01*
X5900071Y-17633072D01*
X5885786Y-17661643D01*
X5871500Y-17675929D01*
X5842928Y-17690214D01*
X5814357Y-17690214D01*
X5785786Y-17675929D01*
X5771500Y-17661643D01*
X5757214Y-17633072D01*
X5742928Y-17575929D01*
X5742928Y-17504500D01*
X5757214Y-17447357D01*
X5771500Y-17418786D01*
X5785786Y-17404500D01*
X5814357Y-17390214D01*
X6100071Y-17390214D02*
X6128643Y-17390214D01*
X6157214Y-17404500D01*
X6171500Y-17418786D01*
X6185786Y-17447357D01*
X6200071Y-17504500D01*
X6200071Y-17575929D01*
X6185786Y-17633072D01*
X6171500Y-17661643D01*
X6157214Y-17675929D01*
X6128643Y-17690214D01*
X6100071Y-17690214D01*
X6071500Y-17675929D01*
X6057214Y-17661643D01*
X6042928Y-17633072D01*
X6028643Y-17575929D01*
X6028643Y-17504500D01*
X6042928Y-17447357D01*
X6057214Y-17418786D01*
X6071500Y-17404500D01*
X6100071Y-17390214D01*
X6328643Y-17690214D02*
X6328643Y-17490214D01*
X6328643Y-17518786D02*
X6342928Y-17504500D01*
X6371500Y-17490214D01*
X6414357Y-17490214D01*
X6442928Y-17504500D01*
X6457214Y-17533072D01*
X6457214Y-17690214D01*
X6457214Y-17533072D02*
X6471500Y-17504500D01*
X6500071Y-17490214D01*
X6542928Y-17490214D01*
X6571500Y-17504500D01*
X6585786Y-17533072D01*
X6585786Y-17690214D01*
X6728643Y-17690214D02*
X6728643Y-17490214D01*
X6728643Y-17518786D02*
X6742928Y-17504500D01*
X6771500Y-17490214D01*
X6814357Y-17490214D01*
X6842928Y-17504500D01*
X6857214Y-17533072D01*
X6857214Y-17690214D01*
X6857214Y-17533072D02*
X6871500Y-17504500D01*
X6900071Y-17490214D01*
X6942928Y-17490214D01*
X6971500Y-17504500D01*
X6985786Y-17533072D01*
X6985786Y-17690214D01*
X7571500Y-17375929D02*
X7314357Y-17761643D01*
X7957214Y-17390214D02*
X7985786Y-17390214D01*
X8014357Y-17404500D01*
X8028643Y-17418786D01*
X8042928Y-17447357D01*
X8057214Y-17504500D01*
X8057214Y-17575929D01*
X8042928Y-17633072D01*
X8028643Y-17661643D01*
X8014357Y-17675929D01*
X7985786Y-17690214D01*
X7957214Y-17690214D01*
X7928643Y-17675929D01*
X7914357Y-17661643D01*
X7900071Y-17633072D01*
X7885786Y-17575929D01*
X7885786Y-17504500D01*
X7900071Y-17447357D01*
X7914357Y-17418786D01*
X7928643Y-17404500D01*
X7957214Y-17390214D01*
X8185786Y-17661643D02*
X8200071Y-17675929D01*
X8185786Y-17690214D01*
X8171500Y-17675929D01*
X8185786Y-17661643D01*
X8185786Y-17690214D01*
X8385786Y-17390214D02*
X8414357Y-17390214D01*
X8442928Y-17404500D01*
X8457214Y-17418786D01*
X8471500Y-17447357D01*
X8485786Y-17504500D01*
X8485786Y-17575929D01*
X8471500Y-17633072D01*
X8457214Y-17661643D01*
X8442928Y-17675929D01*
X8414357Y-17690214D01*
X8385786Y-17690214D01*
X8357214Y-17675929D01*
X8342928Y-17661643D01*
X8328643Y-17633072D01*
X8314357Y-17575929D01*
X8314357Y-17504500D01*
X8328643Y-17447357D01*
X8342928Y-17418786D01*
X8357214Y-17404500D01*
X8385786Y-17390214D01*
X8585786Y-17390214D02*
X8785786Y-17390214D01*
X8657214Y-17690214D01*
X8957214Y-17390214D02*
X8985786Y-17390214D01*
X9014357Y-17404500D01*
X9028643Y-17418786D01*
X9042928Y-17447357D01*
X9057214Y-17504500D01*
X9057214Y-17575929D01*
X9042928Y-17633072D01*
X9028643Y-17661643D01*
X9014357Y-17675929D01*
X8985786Y-17690214D01*
X8957214Y-17690214D01*
X8928643Y-17675929D01*
X8914357Y-17661643D01*
X8900071Y-17633072D01*
X8885786Y-17575929D01*
X8885786Y-17504500D01*
X8900071Y-17447357D01*
X8914357Y-17418786D01*
X8928643Y-17404500D01*
X8957214Y-17390214D01*
X9200071Y-17690214D02*
X9257214Y-17690214D01*
X9285786Y-17675929D01*
X9300071Y-17661643D01*
X9328643Y-17618786D01*
X9342928Y-17561643D01*
X9342928Y-17447357D01*
X9328643Y-17418786D01*
X9314357Y-17404500D01*
X9285786Y-17390214D01*
X9228643Y-17390214D01*
X9200071Y-17404500D01*
X9185786Y-17418786D01*
X9171500Y-17447357D01*
X9171500Y-17518786D01*
X9185786Y-17547357D01*
X9200071Y-17561643D01*
X9228643Y-17575929D01*
X9285786Y-17575929D01*
X9314357Y-17561643D01*
X9328643Y-17547357D01*
X9342928Y-17518786D01*
X9457214Y-17390214D02*
X9457214Y-17447357D01*
X9571500Y-17390214D02*
X9571500Y-17447357D01*
X10014357Y-17804500D02*
X10000071Y-17790214D01*
X9971500Y-17747357D01*
X9957214Y-17718786D01*
X9942928Y-17675929D01*
X9928643Y-17604500D01*
X9928643Y-17547357D01*
X9942928Y-17475929D01*
X9957214Y-17433072D01*
X9971500Y-17404500D01*
X10000071Y-17361643D01*
X10014357Y-17347357D01*
X10100071Y-17390214D02*
X10300071Y-17390214D01*
X10171500Y-17690214D01*
X10400071Y-17418786D02*
X10414357Y-17404500D01*
X10442928Y-17390214D01*
X10514357Y-17390214D01*
X10542928Y-17404500D01*
X10557214Y-17418786D01*
X10571500Y-17447357D01*
X10571500Y-17475929D01*
X10557214Y-17518786D01*
X10385786Y-17690214D01*
X10571500Y-17690214D01*
X10928643Y-17690214D02*
X10928643Y-17390214D01*
X11057214Y-17690214D02*
X11057214Y-17533072D01*
X11042928Y-17504500D01*
X11014357Y-17490214D01*
X10971500Y-17490214D01*
X10942928Y-17504500D01*
X10928643Y-17518786D01*
X11242928Y-17690214D02*
X11214357Y-17675929D01*
X11200071Y-17661643D01*
X11185786Y-17633072D01*
X11185786Y-17547357D01*
X11200071Y-17518786D01*
X11214357Y-17504500D01*
X11242928Y-17490214D01*
X11285786Y-17490214D01*
X11314357Y-17504500D01*
X11328643Y-17518786D01*
X11342928Y-17547357D01*
X11342928Y-17633072D01*
X11328643Y-17661643D01*
X11314357Y-17675929D01*
X11285786Y-17690214D01*
X11242928Y-17690214D01*
X11514357Y-17690214D02*
X11485786Y-17675929D01*
X11471500Y-17647357D01*
X11471500Y-17390214D01*
X11742928Y-17675929D02*
X11714357Y-17690214D01*
X11657214Y-17690214D01*
X11628643Y-17675929D01*
X11614357Y-17647357D01*
X11614357Y-17533072D01*
X11628643Y-17504500D01*
X11657214Y-17490214D01*
X11714357Y-17490214D01*
X11742928Y-17504500D01*
X11757214Y-17533072D01*
X11757214Y-17561643D01*
X11614357Y-17590214D01*
X11871500Y-17675929D02*
X11900071Y-17690214D01*
X11957214Y-17690214D01*
X11985786Y-17675929D01*
X12000071Y-17647357D01*
X12000071Y-17633072D01*
X11985786Y-17604500D01*
X11957214Y-17590214D01*
X11914357Y-17590214D01*
X11885786Y-17575929D01*
X11871500Y-17547357D01*
X11871500Y-17533072D01*
X11885786Y-17504500D01*
X11914357Y-17490214D01*
X11957214Y-17490214D01*
X11985786Y-17504500D01*
X12100071Y-17804500D02*
X12114357Y-17790214D01*
X12142928Y-17747357D01*
X12157214Y-17718786D01*
X12171500Y-17675929D01*
X12185786Y-17604500D01*
X12185786Y-17547357D01*
X12171500Y-17475929D01*
X12157214Y-17433072D01*
X12142928Y-17404500D01*
X12114357Y-17361643D01*
X12100071Y-17347357D01*
X12642928Y-17804500D02*
X12628643Y-17790214D01*
X12600071Y-17747357D01*
X12585786Y-17718786D01*
X12571500Y-17675929D01*
X12557214Y-17604500D01*
X12557214Y-17547357D01*
X12571500Y-17475929D01*
X12585786Y-17433072D01*
X12600071Y-17404500D01*
X12628643Y-17361643D01*
X12642928Y-17347357D01*
X12757214Y-17490214D02*
X12757214Y-17690214D01*
X12757214Y-17518786D02*
X12771500Y-17504500D01*
X12800071Y-17490214D01*
X12842928Y-17490214D01*
X12871500Y-17504500D01*
X12885786Y-17533072D01*
X12885786Y-17690214D01*
X13071500Y-17690214D02*
X13042928Y-17675929D01*
X13028643Y-17661643D01*
X13014357Y-17633072D01*
X13014357Y-17547357D01*
X13028643Y-17518786D01*
X13042928Y-17504500D01*
X13071500Y-17490214D01*
X13114357Y-17490214D01*
X13142928Y-17504500D01*
X13157214Y-17518786D01*
X13171500Y-17547357D01*
X13171500Y-17633072D01*
X13157214Y-17661643D01*
X13142928Y-17675929D01*
X13114357Y-17690214D01*
X13071500Y-17690214D01*
X13257214Y-17490214D02*
X13371500Y-17490214D01*
X13300071Y-17390214D02*
X13300071Y-17647357D01*
X13314357Y-17675929D01*
X13342928Y-17690214D01*
X13371500Y-17690214D01*
X13700071Y-17490214D02*
X13700071Y-17790214D01*
X13700071Y-17504500D02*
X13728643Y-17490214D01*
X13785786Y-17490214D01*
X13814357Y-17504500D01*
X13828643Y-17518786D01*
X13842928Y-17547357D01*
X13842928Y-17633072D01*
X13828643Y-17661643D01*
X13814357Y-17675929D01*
X13785786Y-17690214D01*
X13728643Y-17690214D01*
X13700071Y-17675929D01*
X14014357Y-17690214D02*
X13985786Y-17675929D01*
X13971500Y-17647357D01*
X13971500Y-17390214D01*
X14257214Y-17690214D02*
X14257214Y-17533072D01*
X14242928Y-17504500D01*
X14214357Y-17490214D01*
X14157214Y-17490214D01*
X14128643Y-17504500D01*
X14257214Y-17675929D02*
X14228643Y-17690214D01*
X14157214Y-17690214D01*
X14128643Y-17675929D01*
X14114357Y-17647357D01*
X14114357Y-17618786D01*
X14128643Y-17590214D01*
X14157214Y-17575929D01*
X14228643Y-17575929D01*
X14257214Y-17561643D01*
X14357214Y-17490214D02*
X14471500Y-17490214D01*
X14400071Y-17390214D02*
X14400071Y-17647357D01*
X14414357Y-17675929D01*
X14442928Y-17690214D01*
X14471500Y-17690214D01*
X14685786Y-17675929D02*
X14657214Y-17690214D01*
X14600071Y-17690214D01*
X14571500Y-17675929D01*
X14557214Y-17647357D01*
X14557214Y-17533072D01*
X14571500Y-17504500D01*
X14600071Y-17490214D01*
X14657214Y-17490214D01*
X14685786Y-17504500D01*
X14700071Y-17533072D01*
X14700071Y-17561643D01*
X14557214Y-17590214D01*
X14957214Y-17690214D02*
X14957214Y-17390214D01*
X14957214Y-17675929D02*
X14928643Y-17690214D01*
X14871500Y-17690214D01*
X14842928Y-17675929D01*
X14828643Y-17661643D01*
X14814357Y-17633072D01*
X14814357Y-17547357D01*
X14828643Y-17518786D01*
X14842928Y-17504500D01*
X14871500Y-17490214D01*
X14928643Y-17490214D01*
X14957214Y-17504500D01*
X15071500Y-17804500D02*
X15085786Y-17790214D01*
X15114357Y-17747357D01*
X15128643Y-17718786D01*
X15142928Y-17675929D01*
X15157214Y-17604500D01*
X15157214Y-17547357D01*
X15142928Y-17475929D01*
X15128643Y-17433072D01*
X15114357Y-17404500D01*
X15085786Y-17361643D01*
X15071500Y-17347357D01*
X4511500Y-17705500D02*
X4511500Y-18195500D01*
X4266500Y-17950500D02*
X4756500Y-17950500D01*
X5171500Y-17886214D02*
X5171500Y-18086214D01*
X5100071Y-17771929D02*
X5028643Y-17986214D01*
X5214357Y-17986214D01*
X5328643Y-18057643D02*
X5342928Y-18071929D01*
X5328643Y-18086214D01*
X5314357Y-18071929D01*
X5328643Y-18057643D01*
X5328643Y-18086214D01*
X5485786Y-18086214D02*
X5542928Y-18086214D01*
X5571500Y-18071929D01*
X5585786Y-18057643D01*
X5614357Y-18014786D01*
X5628643Y-17957643D01*
X5628643Y-17843357D01*
X5614357Y-17814786D01*
X5600071Y-17800500D01*
X5571500Y-17786214D01*
X5514357Y-17786214D01*
X5485786Y-17800500D01*
X5471500Y-17814786D01*
X5457214Y-17843357D01*
X5457214Y-17914786D01*
X5471500Y-17943357D01*
X5485786Y-17957643D01*
X5514357Y-17971929D01*
X5571500Y-17971929D01*
X5600071Y-17957643D01*
X5614357Y-17943357D01*
X5628643Y-17914786D01*
X5814357Y-17786214D02*
X5842928Y-17786214D01*
X5871500Y-17800500D01*
X5885786Y-17814786D01*
X5900071Y-17843357D01*
X5914357Y-17900500D01*
X5914357Y-17971929D01*
X5900071Y-18029072D01*
X5885786Y-18057643D01*
X5871500Y-18071929D01*
X5842928Y-18086214D01*
X5814357Y-18086214D01*
X5785786Y-18071929D01*
X5771500Y-18057643D01*
X5757214Y-18029072D01*
X5742928Y-17971929D01*
X5742928Y-17900500D01*
X5757214Y-17843357D01*
X5771500Y-17814786D01*
X5785786Y-17800500D01*
X5814357Y-17786214D01*
X6100071Y-17786214D02*
X6128643Y-17786214D01*
X6157214Y-17800500D01*
X6171500Y-17814786D01*
X6185786Y-17843357D01*
X6200071Y-17900500D01*
X6200071Y-17971929D01*
X6185786Y-18029072D01*
X6171500Y-18057643D01*
X6157214Y-18071929D01*
X6128643Y-18086214D01*
X6100071Y-18086214D01*
X6071500Y-18071929D01*
X6057214Y-18057643D01*
X6042928Y-18029072D01*
X6028643Y-17971929D01*
X6028643Y-17900500D01*
X6042928Y-17843357D01*
X6057214Y-17814786D01*
X6071500Y-17800500D01*
X6100071Y-17786214D01*
X6328643Y-18086214D02*
X6328643Y-17886214D01*
X6328643Y-17914786D02*
X6342928Y-17900500D01*
X6371500Y-17886214D01*
X6414357Y-17886214D01*
X6442928Y-17900500D01*
X6457214Y-17929072D01*
X6457214Y-18086214D01*
X6457214Y-17929072D02*
X6471500Y-17900500D01*
X6500071Y-17886214D01*
X6542928Y-17886214D01*
X6571500Y-17900500D01*
X6585786Y-17929072D01*
X6585786Y-18086214D01*
X6728643Y-18086214D02*
X6728643Y-17886214D01*
X6728643Y-17914786D02*
X6742928Y-17900500D01*
X6771500Y-17886214D01*
X6814357Y-17886214D01*
X6842928Y-17900500D01*
X6857214Y-17929072D01*
X6857214Y-18086214D01*
X6857214Y-17929072D02*
X6871500Y-17900500D01*
X6900071Y-17886214D01*
X6942928Y-17886214D01*
X6971500Y-17900500D01*
X6985786Y-17929072D01*
X6985786Y-18086214D01*
X7571500Y-17771929D02*
X7314357Y-18157643D01*
X7957214Y-17786214D02*
X7985786Y-17786214D01*
X8014357Y-17800500D01*
X8028643Y-17814786D01*
X8042928Y-17843357D01*
X8057214Y-17900500D01*
X8057214Y-17971929D01*
X8042928Y-18029072D01*
X8028643Y-18057643D01*
X8014357Y-18071929D01*
X7985786Y-18086214D01*
X7957214Y-18086214D01*
X7928643Y-18071929D01*
X7914357Y-18057643D01*
X7900071Y-18029072D01*
X7885786Y-17971929D01*
X7885786Y-17900500D01*
X7900071Y-17843357D01*
X7914357Y-17814786D01*
X7928643Y-17800500D01*
X7957214Y-17786214D01*
X8185786Y-18057643D02*
X8200071Y-18071929D01*
X8185786Y-18086214D01*
X8171500Y-18071929D01*
X8185786Y-18057643D01*
X8185786Y-18086214D01*
X8485786Y-18086214D02*
X8314357Y-18086214D01*
X8400071Y-18086214D02*
X8400071Y-17786214D01*
X8371500Y-17829072D01*
X8342928Y-17857643D01*
X8314357Y-17871929D01*
X8628643Y-18086214D02*
X8685786Y-18086214D01*
X8714357Y-18071929D01*
X8728643Y-18057643D01*
X8757214Y-18014786D01*
X8771500Y-17957643D01*
X8771500Y-17843357D01*
X8757214Y-17814786D01*
X8742928Y-17800500D01*
X8714357Y-17786214D01*
X8657214Y-17786214D01*
X8628643Y-17800500D01*
X8614357Y-17814786D01*
X8600071Y-17843357D01*
X8600071Y-17914786D01*
X8614357Y-17943357D01*
X8628643Y-17957643D01*
X8657214Y-17971929D01*
X8714357Y-17971929D01*
X8742928Y-17957643D01*
X8757214Y-17943357D01*
X8771500Y-17914786D01*
X8885786Y-17814786D02*
X8900071Y-17800500D01*
X8928643Y-17786214D01*
X9000071Y-17786214D01*
X9028643Y-17800500D01*
X9042928Y-17814786D01*
X9057214Y-17843357D01*
X9057214Y-17871929D01*
X9042928Y-17914786D01*
X8871500Y-18086214D01*
X9057214Y-18086214D01*
X9200071Y-18086214D02*
X9257214Y-18086214D01*
X9285786Y-18071929D01*
X9300071Y-18057643D01*
X9328643Y-18014786D01*
X9342928Y-17957643D01*
X9342928Y-17843357D01*
X9328643Y-17814786D01*
X9314357Y-17800500D01*
X9285786Y-17786214D01*
X9228643Y-17786214D01*
X9200071Y-17800500D01*
X9185786Y-17814786D01*
X9171500Y-17843357D01*
X9171500Y-17914786D01*
X9185786Y-17943357D01*
X9200071Y-17957643D01*
X9228643Y-17971929D01*
X9285786Y-17971929D01*
X9314357Y-17957643D01*
X9328643Y-17943357D01*
X9342928Y-17914786D01*
X9457214Y-17786214D02*
X9457214Y-17843357D01*
X9571500Y-17786214D02*
X9571500Y-17843357D01*
X10014357Y-18200500D02*
X10000071Y-18186214D01*
X9971500Y-18143357D01*
X9957214Y-18114786D01*
X9942928Y-18071929D01*
X9928643Y-18000500D01*
X9928643Y-17943357D01*
X9942928Y-17871929D01*
X9957214Y-17829072D01*
X9971500Y-17800500D01*
X10000071Y-17757643D01*
X10014357Y-17743357D01*
X10100071Y-17786214D02*
X10285786Y-17786214D01*
X10185786Y-17900500D01*
X10228643Y-17900500D01*
X10257214Y-17914786D01*
X10271500Y-17929072D01*
X10285786Y-17957643D01*
X10285786Y-18029072D01*
X10271500Y-18057643D01*
X10257214Y-18071929D01*
X10228643Y-18086214D01*
X10142928Y-18086214D01*
X10114357Y-18071929D01*
X10100071Y-18057643D01*
X10542928Y-17786214D02*
X10485786Y-17786214D01*
X10457214Y-17800500D01*
X10442928Y-17814786D01*
X10414357Y-17857643D01*
X10400071Y-17914786D01*
X10400071Y-18029072D01*
X10414357Y-18057643D01*
X10428643Y-18071929D01*
X10457214Y-18086214D01*
X10514357Y-18086214D01*
X10542928Y-18071929D01*
X10557214Y-18057643D01*
X10571500Y-18029072D01*
X10571500Y-17957643D01*
X10557214Y-17929072D01*
X10542928Y-17914786D01*
X10514357Y-17900500D01*
X10457214Y-17900500D01*
X10428643Y-17914786D01*
X10414357Y-17929072D01*
X10400071Y-17957643D01*
X10928643Y-18086214D02*
X10928643Y-17786214D01*
X11057214Y-18086214D02*
X11057214Y-17929072D01*
X11042928Y-17900500D01*
X11014357Y-17886214D01*
X10971500Y-17886214D01*
X10942928Y-17900500D01*
X10928643Y-17914786D01*
X11242928Y-18086214D02*
X11214357Y-18071929D01*
X11200071Y-18057643D01*
X11185786Y-18029072D01*
X11185786Y-17943357D01*
X11200071Y-17914786D01*
X11214357Y-17900500D01*
X11242928Y-17886214D01*
X11285786Y-17886214D01*
X11314357Y-17900500D01*
X11328643Y-17914786D01*
X11342928Y-17943357D01*
X11342928Y-18029072D01*
X11328643Y-18057643D01*
X11314357Y-18071929D01*
X11285786Y-18086214D01*
X11242928Y-18086214D01*
X11514357Y-18086214D02*
X11485786Y-18071929D01*
X11471500Y-18043357D01*
X11471500Y-17786214D01*
X11742928Y-18071929D02*
X11714357Y-18086214D01*
X11657214Y-18086214D01*
X11628643Y-18071929D01*
X11614357Y-18043357D01*
X11614357Y-17929072D01*
X11628643Y-17900500D01*
X11657214Y-17886214D01*
X11714357Y-17886214D01*
X11742928Y-17900500D01*
X11757214Y-17929072D01*
X11757214Y-17957643D01*
X11614357Y-17986214D01*
X11871500Y-18071929D02*
X11900071Y-18086214D01*
X11957214Y-18086214D01*
X11985786Y-18071929D01*
X12000071Y-18043357D01*
X12000071Y-18029072D01*
X11985786Y-18000500D01*
X11957214Y-17986214D01*
X11914357Y-17986214D01*
X11885786Y-17971929D01*
X11871500Y-17943357D01*
X11871500Y-17929072D01*
X11885786Y-17900500D01*
X11914357Y-17886214D01*
X11957214Y-17886214D01*
X11985786Y-17900500D01*
X12100071Y-18200500D02*
X12114357Y-18186214D01*
X12142928Y-18143357D01*
X12157214Y-18114786D01*
X12171500Y-18071929D01*
X12185786Y-18000500D01*
X12185786Y-17943357D01*
X12171500Y-17871929D01*
X12157214Y-17829072D01*
X12142928Y-17800500D01*
X12114357Y-17757643D01*
X12100071Y-17743357D01*
X12642928Y-18200500D02*
X12628643Y-18186214D01*
X12600071Y-18143357D01*
X12585786Y-18114786D01*
X12571500Y-18071929D01*
X12557214Y-18000500D01*
X12557214Y-17943357D01*
X12571500Y-17871929D01*
X12585786Y-17829072D01*
X12600071Y-17800500D01*
X12628643Y-17757643D01*
X12642928Y-17743357D01*
X12757214Y-17886214D02*
X12757214Y-18086214D01*
X12757214Y-17914786D02*
X12771500Y-17900500D01*
X12800071Y-17886214D01*
X12842928Y-17886214D01*
X12871500Y-17900500D01*
X12885786Y-17929072D01*
X12885786Y-18086214D01*
X13071500Y-18086214D02*
X13042928Y-18071929D01*
X13028643Y-18057643D01*
X13014357Y-18029072D01*
X13014357Y-17943357D01*
X13028643Y-17914786D01*
X13042928Y-17900500D01*
X13071500Y-17886214D01*
X13114357Y-17886214D01*
X13142928Y-17900500D01*
X13157214Y-17914786D01*
X13171500Y-17943357D01*
X13171500Y-18029072D01*
X13157214Y-18057643D01*
X13142928Y-18071929D01*
X13114357Y-18086214D01*
X13071500Y-18086214D01*
X13257214Y-17886214D02*
X13371500Y-17886214D01*
X13300071Y-17786214D02*
X13300071Y-18043357D01*
X13314357Y-18071929D01*
X13342928Y-18086214D01*
X13371500Y-18086214D01*
X13700071Y-17886214D02*
X13700071Y-18186214D01*
X13700071Y-17900500D02*
X13728643Y-17886214D01*
X13785786Y-17886214D01*
X13814357Y-17900500D01*
X13828643Y-17914786D01*
X13842928Y-17943357D01*
X13842928Y-18029072D01*
X13828643Y-18057643D01*
X13814357Y-18071929D01*
X13785786Y-18086214D01*
X13728643Y-18086214D01*
X13700071Y-18071929D01*
X14014357Y-18086214D02*
X13985786Y-18071929D01*
X13971500Y-18043357D01*
X13971500Y-17786214D01*
X14257214Y-18086214D02*
X14257214Y-17929072D01*
X14242928Y-17900500D01*
X14214357Y-17886214D01*
X14157214Y-17886214D01*
X14128643Y-17900500D01*
X14257214Y-18071929D02*
X14228643Y-18086214D01*
X14157214Y-18086214D01*
X14128643Y-18071929D01*
X14114357Y-18043357D01*
X14114357Y-18014786D01*
X14128643Y-17986214D01*
X14157214Y-17971929D01*
X14228643Y-17971929D01*
X14257214Y-17957643D01*
X14357214Y-17886214D02*
X14471500Y-17886214D01*
X14400071Y-17786214D02*
X14400071Y-18043357D01*
X14414357Y-18071929D01*
X14442928Y-18086214D01*
X14471500Y-18086214D01*
X14685786Y-18071929D02*
X14657214Y-18086214D01*
X14600071Y-18086214D01*
X14571500Y-18071929D01*
X14557214Y-18043357D01*
X14557214Y-17929072D01*
X14571500Y-17900500D01*
X14600071Y-17886214D01*
X14657214Y-17886214D01*
X14685786Y-17900500D01*
X14700071Y-17929072D01*
X14700071Y-17957643D01*
X14557214Y-17986214D01*
X14957214Y-18086214D02*
X14957214Y-17786214D01*
X14957214Y-18071929D02*
X14928643Y-18086214D01*
X14871500Y-18086214D01*
X14842928Y-18071929D01*
X14828643Y-18057643D01*
X14814357Y-18029072D01*
X14814357Y-17943357D01*
X14828643Y-17914786D01*
X14842928Y-17900500D01*
X14871500Y-17886214D01*
X14928643Y-17886214D01*
X14957214Y-17900500D01*
X15071500Y-18200500D02*
X15085786Y-18186214D01*
X15114357Y-18143357D01*
X15128643Y-18114786D01*
X15142928Y-18071929D01*
X15157214Y-18000500D01*
X15157214Y-17943357D01*
X15142928Y-17871929D01*
X15128643Y-17829072D01*
X15114357Y-17800500D01*
X15085786Y-17757643D01*
X15071500Y-17743357D01*
M02*
