%TF.GenerationSoftware,KiCad,Pcbnew,(5.1.12-1-10_14)*%
%TF.CreationDate,2021-11-19T19:24:17+08:00*%
%TF.ProjectId,Pragmatic,50726167-6d61-4746-9963-2e6b69636164,0.2*%
%TF.SameCoordinates,Original*%
%TF.FileFunction,Legend,Top*%
%TF.FilePolarity,Positive*%
%FSLAX46Y46*%
G04 Gerber Fmt 4.6, Leading zero omitted, Abs format (unit mm)*
G04 Created by KiCad (PCBNEW (5.1.12-1-10_14)) date 2021-11-19 19:24:17*
%MOMM*%
%LPD*%
G01*
G04 APERTURE LIST*
%ADD10C,0.152400*%
%ADD11C,0.203200*%
%ADD12C,0.120000*%
%ADD13C,0.150000*%
%ADD14C,0.304800*%
%ADD15C,0.381000*%
%ADD16C,2.400000*%
%ADD17O,2.200000X1.600000*%
%ADD18C,4.900000*%
%ADD19C,1.800000*%
%ADD20O,2.200000X1.500000*%
%ADD21C,1.700000*%
%ADD22C,5.600000*%
%ADD23C,3.600000*%
%ADD24O,1.700000X1.700000*%
%ADD25R,1.700000X1.700000*%
%ADD26R,1.400000X1.000000*%
G04 APERTURE END LIST*
D10*
X118106250Y-83898619D02*
X118106250Y-84624333D01*
X118057869Y-84769476D01*
X117961107Y-84866238D01*
X117815964Y-84914619D01*
X117719202Y-84914619D01*
X119073869Y-84914619D02*
X118590060Y-84914619D01*
X118590060Y-83898619D01*
X119993107Y-84817857D02*
X119944726Y-84866238D01*
X119799583Y-84914619D01*
X119702821Y-84914619D01*
X119557679Y-84866238D01*
X119460917Y-84769476D01*
X119412536Y-84672714D01*
X119364155Y-84479190D01*
X119364155Y-84334047D01*
X119412536Y-84140523D01*
X119460917Y-84043761D01*
X119557679Y-83947000D01*
X119702821Y-83898619D01*
X119799583Y-83898619D01*
X119944726Y-83947000D01*
X119993107Y-83995380D01*
X120718821Y-83898619D02*
X120718821Y-84624333D01*
X120670440Y-84769476D01*
X120573679Y-84866238D01*
X120428536Y-84914619D01*
X120331774Y-84914619D01*
X121686440Y-84914619D02*
X121202631Y-84914619D01*
X121202631Y-83898619D01*
X122605679Y-84817857D02*
X122557298Y-84866238D01*
X122412155Y-84914619D01*
X122315393Y-84914619D01*
X122170250Y-84866238D01*
X122073488Y-84769476D01*
X122025107Y-84672714D01*
X121976726Y-84479190D01*
X121976726Y-84334047D01*
X122025107Y-84140523D01*
X122073488Y-84043761D01*
X122170250Y-83947000D01*
X122315393Y-83898619D01*
X122412155Y-83898619D01*
X122557298Y-83947000D01*
X122605679Y-83995380D01*
X123331393Y-83898619D02*
X123331393Y-84624333D01*
X123283012Y-84769476D01*
X123186250Y-84866238D01*
X123041107Y-84914619D01*
X122944345Y-84914619D01*
X124299012Y-84914619D02*
X123815202Y-84914619D01*
X123815202Y-83898619D01*
X125218250Y-84817857D02*
X125169869Y-84866238D01*
X125024726Y-84914619D01*
X124927964Y-84914619D01*
X124782821Y-84866238D01*
X124686060Y-84769476D01*
X124637679Y-84672714D01*
X124589298Y-84479190D01*
X124589298Y-84334047D01*
X124637679Y-84140523D01*
X124686060Y-84043761D01*
X124782821Y-83947000D01*
X124927964Y-83898619D01*
X125024726Y-83898619D01*
X125169869Y-83947000D01*
X125218250Y-83995380D01*
X125943964Y-83898619D02*
X125943964Y-84624333D01*
X125895583Y-84769476D01*
X125798821Y-84866238D01*
X125653679Y-84914619D01*
X125556917Y-84914619D01*
X126911583Y-84914619D02*
X126427774Y-84914619D01*
X126427774Y-83898619D01*
X127830821Y-84817857D02*
X127782440Y-84866238D01*
X127637298Y-84914619D01*
X127540536Y-84914619D01*
X127395393Y-84866238D01*
X127298631Y-84769476D01*
X127250250Y-84672714D01*
X127201869Y-84479190D01*
X127201869Y-84334047D01*
X127250250Y-84140523D01*
X127298631Y-84043761D01*
X127395393Y-83947000D01*
X127540536Y-83898619D01*
X127637298Y-83898619D01*
X127782440Y-83947000D01*
X127830821Y-83995380D01*
X67015964Y-84914619D02*
X67015964Y-83898619D01*
X67403012Y-83898619D01*
X67499774Y-83947000D01*
X67548155Y-83995380D01*
X67596536Y-84092142D01*
X67596536Y-84237285D01*
X67548155Y-84334047D01*
X67499774Y-84382428D01*
X67403012Y-84430809D01*
X67015964Y-84430809D01*
X68031964Y-84914619D02*
X68031964Y-84237285D01*
X68031964Y-84430809D02*
X68080345Y-84334047D01*
X68128726Y-84285666D01*
X68225488Y-84237285D01*
X68322250Y-84237285D01*
X69096345Y-84914619D02*
X69096345Y-84382428D01*
X69047964Y-84285666D01*
X68951202Y-84237285D01*
X68757679Y-84237285D01*
X68660917Y-84285666D01*
X69096345Y-84866238D02*
X68999583Y-84914619D01*
X68757679Y-84914619D01*
X68660917Y-84866238D01*
X68612536Y-84769476D01*
X68612536Y-84672714D01*
X68660917Y-84575952D01*
X68757679Y-84527571D01*
X68999583Y-84527571D01*
X69096345Y-84479190D01*
X70015583Y-84237285D02*
X70015583Y-85059761D01*
X69967202Y-85156523D01*
X69918821Y-85204904D01*
X69822060Y-85253285D01*
X69676917Y-85253285D01*
X69580155Y-85204904D01*
X70015583Y-84866238D02*
X69918821Y-84914619D01*
X69725298Y-84914619D01*
X69628536Y-84866238D01*
X69580155Y-84817857D01*
X69531774Y-84721095D01*
X69531774Y-84430809D01*
X69580155Y-84334047D01*
X69628536Y-84285666D01*
X69725298Y-84237285D01*
X69918821Y-84237285D01*
X70015583Y-84285666D01*
X70499393Y-84914619D02*
X70499393Y-84237285D01*
X70499393Y-84334047D02*
X70547774Y-84285666D01*
X70644536Y-84237285D01*
X70789679Y-84237285D01*
X70886440Y-84285666D01*
X70934821Y-84382428D01*
X70934821Y-84914619D01*
X70934821Y-84382428D02*
X70983202Y-84285666D01*
X71079964Y-84237285D01*
X71225107Y-84237285D01*
X71321869Y-84285666D01*
X71370250Y-84382428D01*
X71370250Y-84914619D01*
X72289488Y-84914619D02*
X72289488Y-84382428D01*
X72241107Y-84285666D01*
X72144345Y-84237285D01*
X71950821Y-84237285D01*
X71854060Y-84285666D01*
X72289488Y-84866238D02*
X72192726Y-84914619D01*
X71950821Y-84914619D01*
X71854060Y-84866238D01*
X71805679Y-84769476D01*
X71805679Y-84672714D01*
X71854060Y-84575952D01*
X71950821Y-84527571D01*
X72192726Y-84527571D01*
X72289488Y-84479190D01*
X72628155Y-84237285D02*
X73015202Y-84237285D01*
X72773298Y-83898619D02*
X72773298Y-84769476D01*
X72821679Y-84866238D01*
X72918440Y-84914619D01*
X73015202Y-84914619D01*
X73353869Y-84914619D02*
X73353869Y-84237285D01*
X73353869Y-83898619D02*
X73305488Y-83947000D01*
X73353869Y-83995380D01*
X73402250Y-83947000D01*
X73353869Y-83898619D01*
X73353869Y-83995380D01*
X74273107Y-84866238D02*
X74176345Y-84914619D01*
X73982821Y-84914619D01*
X73886060Y-84866238D01*
X73837679Y-84817857D01*
X73789298Y-84721095D01*
X73789298Y-84430809D01*
X73837679Y-84334047D01*
X73886060Y-84285666D01*
X73982821Y-84237285D01*
X74176345Y-84237285D01*
X74273107Y-84285666D01*
X75482631Y-84914619D02*
X75482631Y-83898619D01*
X75482631Y-84382428D02*
X76063202Y-84382428D01*
X76063202Y-84914619D02*
X76063202Y-83898619D01*
X76982440Y-84914619D02*
X76982440Y-84382428D01*
X76934060Y-84285666D01*
X76837298Y-84237285D01*
X76643774Y-84237285D01*
X76547012Y-84285666D01*
X76982440Y-84866238D02*
X76885679Y-84914619D01*
X76643774Y-84914619D01*
X76547012Y-84866238D01*
X76498631Y-84769476D01*
X76498631Y-84672714D01*
X76547012Y-84575952D01*
X76643774Y-84527571D01*
X76885679Y-84527571D01*
X76982440Y-84479190D01*
X77466250Y-84237285D02*
X77466250Y-84914619D01*
X77466250Y-84334047D02*
X77514631Y-84285666D01*
X77611393Y-84237285D01*
X77756536Y-84237285D01*
X77853298Y-84285666D01*
X77901679Y-84382428D01*
X77901679Y-84914619D01*
X78820917Y-84914619D02*
X78820917Y-83898619D01*
X78820917Y-84866238D02*
X78724155Y-84914619D01*
X78530631Y-84914619D01*
X78433869Y-84866238D01*
X78385488Y-84817857D01*
X78337107Y-84721095D01*
X78337107Y-84430809D01*
X78385488Y-84334047D01*
X78433869Y-84285666D01*
X78530631Y-84237285D01*
X78724155Y-84237285D01*
X78820917Y-84285666D01*
X80078821Y-84914619D02*
X80078821Y-83898619D01*
X80417488Y-84624333D01*
X80756155Y-83898619D01*
X80756155Y-84914619D01*
X81385107Y-84914619D02*
X81288345Y-84866238D01*
X81239964Y-84817857D01*
X81191583Y-84721095D01*
X81191583Y-84430809D01*
X81239964Y-84334047D01*
X81288345Y-84285666D01*
X81385107Y-84237285D01*
X81530250Y-84237285D01*
X81627012Y-84285666D01*
X81675393Y-84334047D01*
X81723774Y-84430809D01*
X81723774Y-84721095D01*
X81675393Y-84817857D01*
X81627012Y-84866238D01*
X81530250Y-84914619D01*
X81385107Y-84914619D01*
X82594631Y-84914619D02*
X82594631Y-83898619D01*
X82594631Y-84866238D02*
X82497869Y-84914619D01*
X82304345Y-84914619D01*
X82207583Y-84866238D01*
X82159202Y-84817857D01*
X82110821Y-84721095D01*
X82110821Y-84430809D01*
X82159202Y-84334047D01*
X82207583Y-84285666D01*
X82304345Y-84237285D01*
X82497869Y-84237285D01*
X82594631Y-84285666D01*
X83513869Y-84237285D02*
X83513869Y-84914619D01*
X83078440Y-84237285D02*
X83078440Y-84769476D01*
X83126821Y-84866238D01*
X83223583Y-84914619D01*
X83368726Y-84914619D01*
X83465488Y-84866238D01*
X83513869Y-84817857D01*
X84142821Y-84914619D02*
X84046060Y-84866238D01*
X83997679Y-84769476D01*
X83997679Y-83898619D01*
X84916917Y-84866238D02*
X84820155Y-84914619D01*
X84626631Y-84914619D01*
X84529869Y-84866238D01*
X84481488Y-84769476D01*
X84481488Y-84382428D01*
X84529869Y-84285666D01*
X84626631Y-84237285D01*
X84820155Y-84237285D01*
X84916917Y-84285666D01*
X84965298Y-84382428D01*
X84965298Y-84479190D01*
X84481488Y-84575952D01*
X86029679Y-83898619D02*
X86368345Y-84914619D01*
X86707012Y-83898619D01*
X87239202Y-83898619D02*
X87335964Y-83898619D01*
X87432726Y-83947000D01*
X87481107Y-83995380D01*
X87529488Y-84092142D01*
X87577869Y-84285666D01*
X87577869Y-84527571D01*
X87529488Y-84721095D01*
X87481107Y-84817857D01*
X87432726Y-84866238D01*
X87335964Y-84914619D01*
X87239202Y-84914619D01*
X87142440Y-84866238D01*
X87094060Y-84817857D01*
X87045679Y-84721095D01*
X86997298Y-84527571D01*
X86997298Y-84285666D01*
X87045679Y-84092142D01*
X87094060Y-83995380D01*
X87142440Y-83947000D01*
X87239202Y-83898619D01*
X88013298Y-84817857D02*
X88061679Y-84866238D01*
X88013298Y-84914619D01*
X87964917Y-84866238D01*
X88013298Y-84817857D01*
X88013298Y-84914619D01*
X88448726Y-83995380D02*
X88497107Y-83947000D01*
X88593869Y-83898619D01*
X88835774Y-83898619D01*
X88932536Y-83947000D01*
X88980917Y-83995380D01*
X89029298Y-84092142D01*
X89029298Y-84188904D01*
X88980917Y-84334047D01*
X88400345Y-84914619D01*
X89029298Y-84914619D01*
X90674250Y-84914619D02*
X90674250Y-83898619D01*
X90674250Y-84866238D02*
X90577488Y-84914619D01*
X90383964Y-84914619D01*
X90287202Y-84866238D01*
X90238821Y-84817857D01*
X90190440Y-84721095D01*
X90190440Y-84430809D01*
X90238821Y-84334047D01*
X90287202Y-84285666D01*
X90383964Y-84237285D01*
X90577488Y-84237285D01*
X90674250Y-84285666D01*
X91545107Y-84866238D02*
X91448345Y-84914619D01*
X91254821Y-84914619D01*
X91158060Y-84866238D01*
X91109679Y-84769476D01*
X91109679Y-84382428D01*
X91158060Y-84285666D01*
X91254821Y-84237285D01*
X91448345Y-84237285D01*
X91545107Y-84285666D01*
X91593488Y-84382428D01*
X91593488Y-84479190D01*
X91109679Y-84575952D01*
X91980536Y-84866238D02*
X92077298Y-84914619D01*
X92270821Y-84914619D01*
X92367583Y-84866238D01*
X92415964Y-84769476D01*
X92415964Y-84721095D01*
X92367583Y-84624333D01*
X92270821Y-84575952D01*
X92125679Y-84575952D01*
X92028917Y-84527571D01*
X91980536Y-84430809D01*
X91980536Y-84382428D01*
X92028917Y-84285666D01*
X92125679Y-84237285D01*
X92270821Y-84237285D01*
X92367583Y-84285666D01*
X92851393Y-84914619D02*
X92851393Y-84237285D01*
X92851393Y-83898619D02*
X92803012Y-83947000D01*
X92851393Y-83995380D01*
X92899774Y-83947000D01*
X92851393Y-83898619D01*
X92851393Y-83995380D01*
X93770631Y-84237285D02*
X93770631Y-85059761D01*
X93722250Y-85156523D01*
X93673869Y-85204904D01*
X93577107Y-85253285D01*
X93431964Y-85253285D01*
X93335202Y-85204904D01*
X93770631Y-84866238D02*
X93673869Y-84914619D01*
X93480345Y-84914619D01*
X93383583Y-84866238D01*
X93335202Y-84817857D01*
X93286821Y-84721095D01*
X93286821Y-84430809D01*
X93335202Y-84334047D01*
X93383583Y-84285666D01*
X93480345Y-84237285D01*
X93673869Y-84237285D01*
X93770631Y-84285666D01*
X94254440Y-84237285D02*
X94254440Y-84914619D01*
X94254440Y-84334047D02*
X94302821Y-84285666D01*
X94399583Y-84237285D01*
X94544726Y-84237285D01*
X94641488Y-84285666D01*
X94689869Y-84382428D01*
X94689869Y-84914619D01*
X95947774Y-84914619D02*
X95947774Y-83898619D01*
X95947774Y-84285666D02*
X96044536Y-84237285D01*
X96238060Y-84237285D01*
X96334821Y-84285666D01*
X96383202Y-84334047D01*
X96431583Y-84430809D01*
X96431583Y-84721095D01*
X96383202Y-84817857D01*
X96334821Y-84866238D01*
X96238060Y-84914619D01*
X96044536Y-84914619D01*
X95947774Y-84866238D01*
X96770250Y-84237285D02*
X97012155Y-84914619D01*
X97254060Y-84237285D02*
X97012155Y-84914619D01*
X96915393Y-85156523D01*
X96867012Y-85204904D01*
X96770250Y-85253285D01*
X98705488Y-83898619D02*
X98705488Y-84624333D01*
X98657107Y-84769476D01*
X98560345Y-84866238D01*
X98415202Y-84914619D01*
X98318440Y-84914619D01*
X99624726Y-84914619D02*
X99624726Y-84382428D01*
X99576345Y-84285666D01*
X99479583Y-84237285D01*
X99286060Y-84237285D01*
X99189298Y-84285666D01*
X99624726Y-84866238D02*
X99527964Y-84914619D01*
X99286060Y-84914619D01*
X99189298Y-84866238D01*
X99140917Y-84769476D01*
X99140917Y-84672714D01*
X99189298Y-84575952D01*
X99286060Y-84527571D01*
X99527964Y-84527571D01*
X99624726Y-84479190D01*
X100108536Y-84914619D02*
X100108536Y-84237285D01*
X100108536Y-84334047D02*
X100156917Y-84285666D01*
X100253679Y-84237285D01*
X100398821Y-84237285D01*
X100495583Y-84285666D01*
X100543964Y-84382428D01*
X100543964Y-84914619D01*
X100543964Y-84382428D02*
X100592345Y-84285666D01*
X100689107Y-84237285D01*
X100834250Y-84237285D01*
X100931012Y-84285666D01*
X100979393Y-84382428D01*
X100979393Y-84914619D01*
X101850250Y-84866238D02*
X101753488Y-84914619D01*
X101559964Y-84914619D01*
X101463202Y-84866238D01*
X101414821Y-84769476D01*
X101414821Y-84382428D01*
X101463202Y-84285666D01*
X101559964Y-84237285D01*
X101753488Y-84237285D01*
X101850250Y-84285666D01*
X101898631Y-84382428D01*
X101898631Y-84479190D01*
X101414821Y-84575952D01*
X102285679Y-84866238D02*
X102382440Y-84914619D01*
X102575964Y-84914619D01*
X102672726Y-84866238D01*
X102721107Y-84769476D01*
X102721107Y-84721095D01*
X102672726Y-84624333D01*
X102575964Y-84575952D01*
X102430821Y-84575952D01*
X102334060Y-84527571D01*
X102285679Y-84430809D01*
X102285679Y-84382428D01*
X102334060Y-84285666D01*
X102430821Y-84237285D01*
X102575964Y-84237285D01*
X102672726Y-84285666D01*
X103882250Y-84866238D02*
X104027393Y-84914619D01*
X104269298Y-84914619D01*
X104366060Y-84866238D01*
X104414440Y-84817857D01*
X104462821Y-84721095D01*
X104462821Y-84624333D01*
X104414440Y-84527571D01*
X104366060Y-84479190D01*
X104269298Y-84430809D01*
X104075774Y-84382428D01*
X103979012Y-84334047D01*
X103930631Y-84285666D01*
X103882250Y-84188904D01*
X103882250Y-84092142D01*
X103930631Y-83995380D01*
X103979012Y-83947000D01*
X104075774Y-83898619D01*
X104317679Y-83898619D01*
X104462821Y-83947000D01*
X105333679Y-84914619D02*
X105333679Y-84382428D01*
X105285298Y-84285666D01*
X105188536Y-84237285D01*
X104995012Y-84237285D01*
X104898250Y-84285666D01*
X105333679Y-84866238D02*
X105236917Y-84914619D01*
X104995012Y-84914619D01*
X104898250Y-84866238D01*
X104849869Y-84769476D01*
X104849869Y-84672714D01*
X104898250Y-84575952D01*
X104995012Y-84527571D01*
X105236917Y-84527571D01*
X105333679Y-84479190D01*
X106543202Y-83995380D02*
X106591583Y-83947000D01*
X106688345Y-83898619D01*
X106930250Y-83898619D01*
X107027012Y-83947000D01*
X107075393Y-83995380D01*
X107123774Y-84092142D01*
X107123774Y-84188904D01*
X107075393Y-84334047D01*
X106494821Y-84914619D01*
X107123774Y-84914619D01*
X107752726Y-83898619D02*
X107849488Y-83898619D01*
X107946250Y-83947000D01*
X107994631Y-83995380D01*
X108043012Y-84092142D01*
X108091393Y-84285666D01*
X108091393Y-84527571D01*
X108043012Y-84721095D01*
X107994631Y-84817857D01*
X107946250Y-84866238D01*
X107849488Y-84914619D01*
X107752726Y-84914619D01*
X107655964Y-84866238D01*
X107607583Y-84817857D01*
X107559202Y-84721095D01*
X107510821Y-84527571D01*
X107510821Y-84285666D01*
X107559202Y-84092142D01*
X107607583Y-83995380D01*
X107655964Y-83947000D01*
X107752726Y-83898619D01*
X108478440Y-83995380D02*
X108526821Y-83947000D01*
X108623583Y-83898619D01*
X108865488Y-83898619D01*
X108962250Y-83947000D01*
X109010631Y-83995380D01*
X109059012Y-84092142D01*
X109059012Y-84188904D01*
X109010631Y-84334047D01*
X108430060Y-84914619D01*
X109059012Y-84914619D01*
X110026631Y-84914619D02*
X109446060Y-84914619D01*
X109736345Y-84914619D02*
X109736345Y-83898619D01*
X109639583Y-84043761D01*
X109542821Y-84140523D01*
X109446060Y-84188904D01*
X110462060Y-84527571D02*
X111236155Y-84527571D01*
X112252155Y-84914619D02*
X111671583Y-84914619D01*
X111961869Y-84914619D02*
X111961869Y-83898619D01*
X111865107Y-84043761D01*
X111768345Y-84140523D01*
X111671583Y-84188904D01*
X113219774Y-84914619D02*
X112639202Y-84914619D01*
X112929488Y-84914619D02*
X112929488Y-83898619D01*
X112832726Y-84043761D01*
X112735964Y-84140523D01*
X112639202Y-84188904D01*
X113655202Y-84527571D02*
X114429298Y-84527571D01*
X115445298Y-84914619D02*
X114864726Y-84914619D01*
X115155012Y-84914619D02*
X115155012Y-83898619D01*
X115058250Y-84043761D01*
X114961488Y-84140523D01*
X114864726Y-84188904D01*
X115929107Y-84914619D02*
X116122631Y-84914619D01*
X116219393Y-84866238D01*
X116267774Y-84817857D01*
X116364536Y-84672714D01*
X116412917Y-84479190D01*
X116412917Y-84092142D01*
X116364536Y-83995380D01*
X116316155Y-83947000D01*
X116219393Y-83898619D01*
X116025869Y-83898619D01*
X115929107Y-83947000D01*
X115880726Y-83995380D01*
X115832345Y-84092142D01*
X115832345Y-84334047D01*
X115880726Y-84430809D01*
X115929107Y-84479190D01*
X116025869Y-84527571D01*
X116219393Y-84527571D01*
X116316155Y-84479190D01*
X116364536Y-84430809D01*
X116412917Y-84334047D01*
D11*
X76260476Y-123069047D02*
X76260476Y-123129523D01*
X76200000Y-123250476D01*
X76139523Y-123310952D01*
X76200000Y-122343333D02*
X76260476Y-122403809D01*
X76200000Y-122464285D01*
X76139523Y-122403809D01*
X76200000Y-122343333D01*
X76200000Y-122464285D01*
X76139523Y-142058571D02*
X76200000Y-142119047D01*
X76139523Y-142179523D01*
X76079047Y-142119047D01*
X76139523Y-142058571D01*
X76139523Y-142179523D01*
X75897619Y-140970000D02*
X76018571Y-140909523D01*
X76320952Y-140909523D01*
X76441904Y-140970000D01*
X76502380Y-141090952D01*
X76502380Y-141211904D01*
X76441904Y-141332857D01*
X76381428Y-141393333D01*
X76260476Y-141453809D01*
X76200000Y-141514285D01*
X76139523Y-141635238D01*
X76139523Y-141695714D01*
X95250000Y-142058571D02*
X95310476Y-142119047D01*
X95250000Y-142179523D01*
X95189523Y-142119047D01*
X95250000Y-142058571D01*
X95250000Y-142179523D01*
X114360476Y-142119047D02*
X114360476Y-142179523D01*
X114300000Y-142300476D01*
X114239523Y-142360952D01*
X131475238Y-142179523D02*
X131475238Y-140909523D01*
X131898571Y-141816666D01*
X132321904Y-140909523D01*
X132321904Y-142179523D01*
X133470952Y-142179523D02*
X133470952Y-141514285D01*
X133410476Y-141393333D01*
X133289523Y-141332857D01*
X133047619Y-141332857D01*
X132926666Y-141393333D01*
X133470952Y-142119047D02*
X133350000Y-142179523D01*
X133047619Y-142179523D01*
X132926666Y-142119047D01*
X132866190Y-141998095D01*
X132866190Y-141877142D01*
X132926666Y-141756190D01*
X133047619Y-141695714D01*
X133350000Y-141695714D01*
X133470952Y-141635238D01*
X134075714Y-142179523D02*
X134075714Y-141332857D01*
X134075714Y-141574761D02*
X134136190Y-141453809D01*
X134196666Y-141393333D01*
X134317619Y-141332857D01*
X134438571Y-141332857D01*
X134740952Y-141332857D02*
X135043333Y-142179523D01*
X135345714Y-141332857D02*
X135043333Y-142179523D01*
X134922380Y-142481904D01*
X134861904Y-142542380D01*
X134740952Y-142602857D01*
X152037142Y-142179523D02*
X152037142Y-140909523D01*
X152762857Y-142179523D01*
X152762857Y-140909523D01*
X95643095Y-123129523D02*
X95038333Y-123129523D01*
X95038333Y-121859523D01*
X113090476Y-123129523D02*
X113090476Y-121859523D01*
X113816190Y-123129523D02*
X113271904Y-122403809D01*
X113816190Y-121859523D02*
X113090476Y-122585238D01*
X114904761Y-123129523D02*
X114904761Y-122464285D01*
X114844285Y-122343333D01*
X114723333Y-122282857D01*
X114481428Y-122282857D01*
X114360476Y-122343333D01*
X114904761Y-123069047D02*
X114783809Y-123129523D01*
X114481428Y-123129523D01*
X114360476Y-123069047D01*
X114300000Y-122948095D01*
X114300000Y-122827142D01*
X114360476Y-122706190D01*
X114481428Y-122645714D01*
X114783809Y-122645714D01*
X114904761Y-122585238D01*
X115509523Y-123129523D02*
X115509523Y-122282857D01*
X115509523Y-121859523D02*
X115449047Y-121920000D01*
X115509523Y-121980476D01*
X115570000Y-121920000D01*
X115509523Y-121859523D01*
X115509523Y-121980476D01*
X133531428Y-121859523D02*
X133531428Y-122766666D01*
X133470952Y-122948095D01*
X133350000Y-123069047D01*
X133168571Y-123129523D01*
X133047619Y-123129523D01*
X149739047Y-123129523D02*
X149739047Y-121859523D01*
X149739047Y-122464285D02*
X150464761Y-122464285D01*
X150464761Y-123129523D02*
X150464761Y-121859523D01*
X151613809Y-123129523D02*
X151613809Y-122464285D01*
X151553333Y-122343333D01*
X151432380Y-122282857D01*
X151190476Y-122282857D01*
X151069523Y-122343333D01*
X151613809Y-123069047D02*
X151492857Y-123129523D01*
X151190476Y-123129523D01*
X151069523Y-123069047D01*
X151009047Y-122948095D01*
X151009047Y-122827142D01*
X151069523Y-122706190D01*
X151190476Y-122645714D01*
X151492857Y-122645714D01*
X151613809Y-122585238D01*
X152097619Y-122282857D02*
X152339523Y-123129523D01*
X152581428Y-122524761D01*
X152823333Y-123129523D01*
X153065238Y-122282857D01*
X154093333Y-123129523D02*
X154093333Y-122464285D01*
X154032857Y-122343333D01*
X153911904Y-122282857D01*
X153670000Y-122282857D01*
X153549047Y-122343333D01*
X154093333Y-123069047D02*
X153972380Y-123129523D01*
X153670000Y-123129523D01*
X153549047Y-123069047D01*
X153488571Y-122948095D01*
X153488571Y-122827142D01*
X153549047Y-122706190D01*
X153670000Y-122645714D01*
X153972380Y-122645714D01*
X154093333Y-122585238D01*
X154577142Y-122282857D02*
X154879523Y-123129523D01*
X155181904Y-122282857D02*
X154879523Y-123129523D01*
X154758571Y-123431904D01*
X154698095Y-123492380D01*
X154577142Y-123552857D01*
X75867380Y-104079523D02*
X75867380Y-102809523D01*
X76351190Y-102809523D01*
X76472142Y-102870000D01*
X76532619Y-102930476D01*
X76593095Y-103051428D01*
X76593095Y-103232857D01*
X76532619Y-103353809D01*
X76472142Y-103414285D01*
X76351190Y-103474761D01*
X75867380Y-103474761D01*
X95129047Y-102809523D02*
X95370952Y-102809523D01*
X95491904Y-102870000D01*
X95612857Y-102990952D01*
X95673333Y-103232857D01*
X95673333Y-103656190D01*
X95612857Y-103898095D01*
X95491904Y-104019047D01*
X95370952Y-104079523D01*
X95129047Y-104079523D01*
X95008095Y-104019047D01*
X94887142Y-103898095D01*
X94826666Y-103656190D01*
X94826666Y-103232857D01*
X94887142Y-102990952D01*
X95008095Y-102870000D01*
X95129047Y-102809523D01*
X114300000Y-104079523D02*
X114300000Y-102809523D01*
X132987142Y-102809523D02*
X132987142Y-103837619D01*
X133047619Y-103958571D01*
X133108095Y-104019047D01*
X133229047Y-104079523D01*
X133470952Y-104079523D01*
X133591904Y-104019047D01*
X133652380Y-103958571D01*
X133712857Y-103837619D01*
X133712857Y-102809523D01*
X152400000Y-103474761D02*
X152400000Y-104079523D01*
X151976666Y-102809523D02*
X152400000Y-103474761D01*
X152823333Y-102809523D01*
D12*
X52575000Y-45835000D02*
X52575000Y-36715000D01*
X52575000Y-36715000D02*
X80775000Y-36715000D01*
X80775000Y-36715000D02*
X80775000Y-45835000D01*
X80775000Y-45835000D02*
X52575000Y-45835000D01*
X64625000Y-45835000D02*
X64625000Y-44525000D01*
X64625000Y-44525000D02*
X53875000Y-44525000D01*
X53875000Y-44525000D02*
X53875000Y-38025000D01*
X53875000Y-38025000D02*
X79475000Y-38025000D01*
X79475000Y-38025000D02*
X79475000Y-44525000D01*
X79475000Y-44525000D02*
X68725000Y-44525000D01*
X68725000Y-44525000D02*
X68725000Y-44525000D01*
X68725000Y-44525000D02*
X68725000Y-45835000D01*
X57785000Y-46225000D02*
X57285000Y-47225000D01*
X57285000Y-47225000D02*
X58285000Y-47225000D01*
X58285000Y-47225000D02*
X57785000Y-46225000D01*
X92650000Y-41275000D02*
X92650000Y-39945000D01*
X92650000Y-39945000D02*
X93980000Y-39945000D01*
X95250000Y-39945000D02*
X102930000Y-39945000D01*
X102930000Y-42605000D02*
X102930000Y-39945000D01*
X95250000Y-42605000D02*
X102930000Y-42605000D01*
X95250000Y-42605000D02*
X95250000Y-39945000D01*
X87402936Y-43280000D02*
X87857064Y-43280000D01*
X87402936Y-41810000D02*
X87857064Y-41810000D01*
X88630000Y-39045000D02*
X85770000Y-39045000D01*
X85770000Y-39045000D02*
X85770000Y-40965000D01*
X85770000Y-40965000D02*
X88630000Y-40965000D01*
D13*
X152900000Y-144645000D02*
X152900000Y-143645000D01*
X152800000Y-144145000D02*
X151900000Y-144645000D01*
X151900000Y-143645000D02*
X152800000Y-144145000D01*
X151900000Y-144645000D02*
X151900000Y-143645000D01*
X149700000Y-144895000D02*
X149700000Y-143395000D01*
X155100000Y-144895000D02*
X155100000Y-143395000D01*
X149700000Y-144895000D02*
X155100000Y-144895000D01*
X155100000Y-143395000D02*
X149700000Y-143395000D01*
X133850000Y-144645000D02*
X133850000Y-143645000D01*
X133750000Y-144145000D02*
X132850000Y-144645000D01*
X132850000Y-143645000D02*
X133750000Y-144145000D01*
X132850000Y-144645000D02*
X132850000Y-143645000D01*
X130650000Y-144895000D02*
X130650000Y-143395000D01*
X136050000Y-144895000D02*
X136050000Y-143395000D01*
X130650000Y-144895000D02*
X136050000Y-144895000D01*
X136050000Y-143395000D02*
X130650000Y-143395000D01*
X114800000Y-144645000D02*
X114800000Y-143645000D01*
X114700000Y-144145000D02*
X113800000Y-144645000D01*
X113800000Y-143645000D02*
X114700000Y-144145000D01*
X113800000Y-144645000D02*
X113800000Y-143645000D01*
X111600000Y-144895000D02*
X111600000Y-143395000D01*
X117000000Y-144895000D02*
X117000000Y-143395000D01*
X111600000Y-144895000D02*
X117000000Y-144895000D01*
X117000000Y-143395000D02*
X111600000Y-143395000D01*
X95750000Y-144645000D02*
X95750000Y-143645000D01*
X95650000Y-144145000D02*
X94750000Y-144645000D01*
X94750000Y-143645000D02*
X95650000Y-144145000D01*
X94750000Y-144645000D02*
X94750000Y-143645000D01*
X92550000Y-144895000D02*
X92550000Y-143395000D01*
X97950000Y-144895000D02*
X97950000Y-143395000D01*
X92550000Y-144895000D02*
X97950000Y-144895000D01*
X97950000Y-143395000D02*
X92550000Y-143395000D01*
X76700000Y-144645000D02*
X76700000Y-143645000D01*
X76600000Y-144145000D02*
X75700000Y-144645000D01*
X75700000Y-143645000D02*
X76600000Y-144145000D01*
X75700000Y-144645000D02*
X75700000Y-143645000D01*
X73500000Y-144895000D02*
X73500000Y-143395000D01*
X78900000Y-144895000D02*
X78900000Y-143395000D01*
X73500000Y-144895000D02*
X78900000Y-144895000D01*
X78900000Y-143395000D02*
X73500000Y-143395000D01*
X57650000Y-144645000D02*
X57650000Y-143645000D01*
X57550000Y-144145000D02*
X56650000Y-144645000D01*
X56650000Y-143645000D02*
X57550000Y-144145000D01*
X56650000Y-144645000D02*
X56650000Y-143645000D01*
X54450000Y-144895000D02*
X54450000Y-143395000D01*
X59850000Y-144895000D02*
X59850000Y-143395000D01*
X54450000Y-144895000D02*
X59850000Y-144895000D01*
X59850000Y-143395000D02*
X54450000Y-143395000D01*
X152900000Y-125595000D02*
X152900000Y-124595000D01*
X152800000Y-125095000D02*
X151900000Y-125595000D01*
X151900000Y-124595000D02*
X152800000Y-125095000D01*
X151900000Y-125595000D02*
X151900000Y-124595000D01*
X149700000Y-125845000D02*
X149700000Y-124345000D01*
X155100000Y-125845000D02*
X155100000Y-124345000D01*
X149700000Y-125845000D02*
X155100000Y-125845000D01*
X155100000Y-124345000D02*
X149700000Y-124345000D01*
X133850000Y-125595000D02*
X133850000Y-124595000D01*
X133750000Y-125095000D02*
X132850000Y-125595000D01*
X132850000Y-124595000D02*
X133750000Y-125095000D01*
X132850000Y-125595000D02*
X132850000Y-124595000D01*
X130650000Y-125845000D02*
X130650000Y-124345000D01*
X136050000Y-125845000D02*
X136050000Y-124345000D01*
X130650000Y-125845000D02*
X136050000Y-125845000D01*
X136050000Y-124345000D02*
X130650000Y-124345000D01*
X114800000Y-125595000D02*
X114800000Y-124595000D01*
X114700000Y-125095000D02*
X113800000Y-125595000D01*
X113800000Y-124595000D02*
X114700000Y-125095000D01*
X113800000Y-125595000D02*
X113800000Y-124595000D01*
X111600000Y-125845000D02*
X111600000Y-124345000D01*
X117000000Y-125845000D02*
X117000000Y-124345000D01*
X111600000Y-125845000D02*
X117000000Y-125845000D01*
X117000000Y-124345000D02*
X111600000Y-124345000D01*
X95750000Y-125595000D02*
X95750000Y-124595000D01*
X95650000Y-125095000D02*
X94750000Y-125595000D01*
X94750000Y-124595000D02*
X95650000Y-125095000D01*
X94750000Y-125595000D02*
X94750000Y-124595000D01*
X92550000Y-125845000D02*
X92550000Y-124345000D01*
X97950000Y-125845000D02*
X97950000Y-124345000D01*
X92550000Y-125845000D02*
X97950000Y-125845000D01*
X97950000Y-124345000D02*
X92550000Y-124345000D01*
X76700000Y-125595000D02*
X76700000Y-124595000D01*
X76600000Y-125095000D02*
X75700000Y-125595000D01*
X75700000Y-124595000D02*
X76600000Y-125095000D01*
X75700000Y-125595000D02*
X75700000Y-124595000D01*
X73500000Y-125845000D02*
X73500000Y-124345000D01*
X78900000Y-125845000D02*
X78900000Y-124345000D01*
X73500000Y-125845000D02*
X78900000Y-125845000D01*
X78900000Y-124345000D02*
X73500000Y-124345000D01*
X57650000Y-125595000D02*
X57650000Y-124595000D01*
X57550000Y-125095000D02*
X56650000Y-125595000D01*
X56650000Y-124595000D02*
X57550000Y-125095000D01*
X56650000Y-125595000D02*
X56650000Y-124595000D01*
X54450000Y-125845000D02*
X54450000Y-124345000D01*
X59850000Y-125845000D02*
X59850000Y-124345000D01*
X54450000Y-125845000D02*
X59850000Y-125845000D01*
X59850000Y-124345000D02*
X54450000Y-124345000D01*
X152900000Y-106545000D02*
X152900000Y-105545000D01*
X152800000Y-106045000D02*
X151900000Y-106545000D01*
X151900000Y-105545000D02*
X152800000Y-106045000D01*
X151900000Y-106545000D02*
X151900000Y-105545000D01*
X149700000Y-106795000D02*
X149700000Y-105295000D01*
X155100000Y-106795000D02*
X155100000Y-105295000D01*
X149700000Y-106795000D02*
X155100000Y-106795000D01*
X155100000Y-105295000D02*
X149700000Y-105295000D01*
X133850000Y-106545000D02*
X133850000Y-105545000D01*
X133750000Y-106045000D02*
X132850000Y-106545000D01*
X132850000Y-105545000D02*
X133750000Y-106045000D01*
X132850000Y-106545000D02*
X132850000Y-105545000D01*
X130650000Y-106795000D02*
X130650000Y-105295000D01*
X136050000Y-106795000D02*
X136050000Y-105295000D01*
X130650000Y-106795000D02*
X136050000Y-106795000D01*
X136050000Y-105295000D02*
X130650000Y-105295000D01*
X114800000Y-106545000D02*
X114800000Y-105545000D01*
X114700000Y-106045000D02*
X113800000Y-106545000D01*
X113800000Y-105545000D02*
X114700000Y-106045000D01*
X113800000Y-106545000D02*
X113800000Y-105545000D01*
X111600000Y-106795000D02*
X111600000Y-105295000D01*
X117000000Y-106795000D02*
X117000000Y-105295000D01*
X111600000Y-106795000D02*
X117000000Y-106795000D01*
X117000000Y-105295000D02*
X111600000Y-105295000D01*
X95750000Y-106545000D02*
X95750000Y-105545000D01*
X95650000Y-106045000D02*
X94750000Y-106545000D01*
X94750000Y-105545000D02*
X95650000Y-106045000D01*
X94750000Y-106545000D02*
X94750000Y-105545000D01*
X92550000Y-106795000D02*
X92550000Y-105295000D01*
X97950000Y-106795000D02*
X97950000Y-105295000D01*
X92550000Y-106795000D02*
X97950000Y-106795000D01*
X97950000Y-105295000D02*
X92550000Y-105295000D01*
X76700000Y-106545000D02*
X76700000Y-105545000D01*
X76600000Y-106045000D02*
X75700000Y-106545000D01*
X75700000Y-105545000D02*
X76600000Y-106045000D01*
X75700000Y-106545000D02*
X75700000Y-105545000D01*
X73500000Y-106795000D02*
X73500000Y-105295000D01*
X78900000Y-106795000D02*
X78900000Y-105295000D01*
X73500000Y-106795000D02*
X78900000Y-106795000D01*
X78900000Y-105295000D02*
X73500000Y-105295000D01*
X57650000Y-106545000D02*
X57650000Y-105545000D01*
X57550000Y-106045000D02*
X56650000Y-106545000D01*
X56650000Y-105545000D02*
X57550000Y-106045000D01*
X56650000Y-106545000D02*
X56650000Y-105545000D01*
X54450000Y-106795000D02*
X54450000Y-105295000D01*
X59850000Y-106795000D02*
X59850000Y-105295000D01*
X54450000Y-106795000D02*
X59850000Y-106795000D01*
X59850000Y-105295000D02*
X54450000Y-105295000D01*
X152900000Y-87495000D02*
X152900000Y-86495000D01*
X152800000Y-86995000D02*
X151900000Y-87495000D01*
X151900000Y-86495000D02*
X152800000Y-86995000D01*
X151900000Y-87495000D02*
X151900000Y-86495000D01*
X149700000Y-87745000D02*
X149700000Y-86245000D01*
X155100000Y-87745000D02*
X155100000Y-86245000D01*
X149700000Y-87745000D02*
X155100000Y-87745000D01*
X155100000Y-86245000D02*
X149700000Y-86245000D01*
X133850000Y-87495000D02*
X133850000Y-86495000D01*
X133750000Y-86995000D02*
X132850000Y-87495000D01*
X132850000Y-86495000D02*
X133750000Y-86995000D01*
X132850000Y-87495000D02*
X132850000Y-86495000D01*
X130650000Y-87745000D02*
X130650000Y-86245000D01*
X136050000Y-87745000D02*
X136050000Y-86245000D01*
X130650000Y-87745000D02*
X136050000Y-87745000D01*
X136050000Y-86245000D02*
X130650000Y-86245000D01*
X114800000Y-87495000D02*
X114800000Y-86495000D01*
X114700000Y-86995000D02*
X113800000Y-87495000D01*
X113800000Y-86495000D02*
X114700000Y-86995000D01*
X113800000Y-87495000D02*
X113800000Y-86495000D01*
X111600000Y-87745000D02*
X111600000Y-86245000D01*
X117000000Y-87745000D02*
X117000000Y-86245000D01*
X111600000Y-87745000D02*
X117000000Y-87745000D01*
X117000000Y-86245000D02*
X111600000Y-86245000D01*
X95750000Y-87495000D02*
X95750000Y-86495000D01*
X95650000Y-86995000D02*
X94750000Y-87495000D01*
X94750000Y-86495000D02*
X95650000Y-86995000D01*
X94750000Y-87495000D02*
X94750000Y-86495000D01*
X92550000Y-87745000D02*
X92550000Y-86245000D01*
X97950000Y-87745000D02*
X97950000Y-86245000D01*
X92550000Y-87745000D02*
X97950000Y-87745000D01*
X97950000Y-86245000D02*
X92550000Y-86245000D01*
X76700000Y-87495000D02*
X76700000Y-86495000D01*
X76600000Y-86995000D02*
X75700000Y-87495000D01*
X75700000Y-86495000D02*
X76600000Y-86995000D01*
X75700000Y-87495000D02*
X75700000Y-86495000D01*
X73500000Y-87745000D02*
X73500000Y-86245000D01*
X78900000Y-87745000D02*
X78900000Y-86245000D01*
X73500000Y-87745000D02*
X78900000Y-87745000D01*
X78900000Y-86245000D02*
X73500000Y-86245000D01*
X57650000Y-87495000D02*
X57650000Y-86495000D01*
X57550000Y-86995000D02*
X56650000Y-87495000D01*
X56650000Y-86495000D02*
X57550000Y-86995000D01*
X56650000Y-87495000D02*
X56650000Y-86495000D01*
X54450000Y-87745000D02*
X54450000Y-86245000D01*
X59850000Y-87745000D02*
X59850000Y-86245000D01*
X54450000Y-87745000D02*
X59850000Y-87745000D01*
X59850000Y-86245000D02*
X54450000Y-86245000D01*
X152900000Y-68445000D02*
X152900000Y-67445000D01*
X152800000Y-67945000D02*
X151900000Y-68445000D01*
X151900000Y-67445000D02*
X152800000Y-67945000D01*
X151900000Y-68445000D02*
X151900000Y-67445000D01*
X149700000Y-68695000D02*
X149700000Y-67195000D01*
X155100000Y-68695000D02*
X155100000Y-67195000D01*
X149700000Y-68695000D02*
X155100000Y-68695000D01*
X155100000Y-67195000D02*
X149700000Y-67195000D01*
X133850000Y-68445000D02*
X133850000Y-67445000D01*
X133750000Y-67945000D02*
X132850000Y-68445000D01*
X132850000Y-67445000D02*
X133750000Y-67945000D01*
X132850000Y-68445000D02*
X132850000Y-67445000D01*
X130650000Y-68695000D02*
X130650000Y-67195000D01*
X136050000Y-68695000D02*
X136050000Y-67195000D01*
X130650000Y-68695000D02*
X136050000Y-68695000D01*
X136050000Y-67195000D02*
X130650000Y-67195000D01*
X114800000Y-68445000D02*
X114800000Y-67445000D01*
X114700000Y-67945000D02*
X113800000Y-68445000D01*
X113800000Y-67445000D02*
X114700000Y-67945000D01*
X113800000Y-68445000D02*
X113800000Y-67445000D01*
X111600000Y-68695000D02*
X111600000Y-67195000D01*
X117000000Y-68695000D02*
X117000000Y-67195000D01*
X111600000Y-68695000D02*
X117000000Y-68695000D01*
X117000000Y-67195000D02*
X111600000Y-67195000D01*
X95750000Y-68445000D02*
X95750000Y-67445000D01*
X95650000Y-67945000D02*
X94750000Y-68445000D01*
X94750000Y-67445000D02*
X95650000Y-67945000D01*
X94750000Y-68445000D02*
X94750000Y-67445000D01*
X92550000Y-68695000D02*
X92550000Y-67195000D01*
X97950000Y-68695000D02*
X97950000Y-67195000D01*
X92550000Y-68695000D02*
X97950000Y-68695000D01*
X97950000Y-67195000D02*
X92550000Y-67195000D01*
X152900000Y-49395000D02*
X152900000Y-48395000D01*
X152800000Y-48895000D02*
X151900000Y-49395000D01*
X151900000Y-48395000D02*
X152800000Y-48895000D01*
X151900000Y-49395000D02*
X151900000Y-48395000D01*
X149700000Y-49645000D02*
X149700000Y-48145000D01*
X155100000Y-49645000D02*
X155100000Y-48145000D01*
X149700000Y-49645000D02*
X155100000Y-49645000D01*
X155100000Y-48145000D02*
X149700000Y-48145000D01*
X133850000Y-49395000D02*
X133850000Y-48395000D01*
X133750000Y-48895000D02*
X132850000Y-49395000D01*
X132850000Y-48395000D02*
X133750000Y-48895000D01*
X132850000Y-49395000D02*
X132850000Y-48395000D01*
X130650000Y-49645000D02*
X130650000Y-48145000D01*
X136050000Y-49645000D02*
X136050000Y-48145000D01*
X130650000Y-49645000D02*
X136050000Y-49645000D01*
X136050000Y-48145000D02*
X130650000Y-48145000D01*
X114800000Y-49395000D02*
X114800000Y-48395000D01*
X114700000Y-48895000D02*
X113800000Y-49395000D01*
X113800000Y-48395000D02*
X114700000Y-48895000D01*
X113800000Y-49395000D02*
X113800000Y-48395000D01*
X111600000Y-49645000D02*
X111600000Y-48145000D01*
X117000000Y-49645000D02*
X117000000Y-48145000D01*
X111600000Y-49645000D02*
X117000000Y-49645000D01*
X117000000Y-48145000D02*
X111600000Y-48145000D01*
X95750000Y-49395000D02*
X95750000Y-48395000D01*
X95650000Y-48895000D02*
X94750000Y-49395000D01*
X94750000Y-48395000D02*
X95650000Y-48895000D01*
X94750000Y-49395000D02*
X94750000Y-48395000D01*
X92550000Y-49645000D02*
X92550000Y-48145000D01*
X97950000Y-49645000D02*
X97950000Y-48145000D01*
X92550000Y-49645000D02*
X97950000Y-49645000D01*
X97950000Y-48145000D02*
X92550000Y-48145000D01*
X76700000Y-68445000D02*
X76700000Y-67445000D01*
X76600000Y-67945000D02*
X75700000Y-68445000D01*
X75700000Y-67445000D02*
X76600000Y-67945000D01*
X75700000Y-68445000D02*
X75700000Y-67445000D01*
X73500000Y-68695000D02*
X73500000Y-67195000D01*
X78900000Y-68695000D02*
X78900000Y-67195000D01*
X73500000Y-68695000D02*
X78900000Y-68695000D01*
X78900000Y-67195000D02*
X73500000Y-67195000D01*
X57650000Y-68445000D02*
X57650000Y-67445000D01*
X57550000Y-67945000D02*
X56650000Y-68445000D01*
X56650000Y-67445000D02*
X57550000Y-67945000D01*
X56650000Y-68445000D02*
X56650000Y-67445000D01*
X54450000Y-68695000D02*
X54450000Y-67195000D01*
X59850000Y-68695000D02*
X59850000Y-67195000D01*
X54450000Y-68695000D02*
X59850000Y-68695000D01*
X59850000Y-67195000D02*
X54450000Y-67195000D01*
X76700000Y-49395000D02*
X76700000Y-48395000D01*
X76600000Y-48895000D02*
X75700000Y-49395000D01*
X75700000Y-48395000D02*
X76600000Y-48895000D01*
X75700000Y-49395000D02*
X75700000Y-48395000D01*
X73500000Y-49645000D02*
X73500000Y-48145000D01*
X78900000Y-49645000D02*
X78900000Y-48145000D01*
X73500000Y-49645000D02*
X78900000Y-49645000D01*
X78900000Y-48145000D02*
X73500000Y-48145000D01*
X57650000Y-49395000D02*
X57650000Y-48395000D01*
X57550000Y-48895000D02*
X56650000Y-49395000D01*
X56650000Y-48395000D02*
X57550000Y-48895000D01*
X56650000Y-49395000D02*
X56650000Y-48395000D01*
X54450000Y-49645000D02*
X54450000Y-48145000D01*
X59850000Y-49645000D02*
X59850000Y-48145000D01*
X54450000Y-49645000D02*
X59850000Y-49645000D01*
X59850000Y-48145000D02*
X54450000Y-48145000D01*
X87939523Y-44647380D02*
X87606190Y-44171190D01*
X87368095Y-44647380D02*
X87368095Y-43647380D01*
X87749047Y-43647380D01*
X87844285Y-43695000D01*
X87891904Y-43742619D01*
X87939523Y-43837857D01*
X87939523Y-43980714D01*
X87891904Y-44075952D01*
X87844285Y-44123571D01*
X87749047Y-44171190D01*
X87368095Y-44171190D01*
X86987142Y-38552380D02*
X86510952Y-38552380D01*
X86510952Y-37552380D01*
X87320476Y-38028571D02*
X87653809Y-38028571D01*
X87796666Y-38552380D02*
X87320476Y-38552380D01*
X87320476Y-37552380D01*
X87796666Y-37552380D01*
X88225238Y-38552380D02*
X88225238Y-37552380D01*
X88463333Y-37552380D01*
X88606190Y-37600000D01*
X88701428Y-37695238D01*
X88749047Y-37790476D01*
X88796666Y-37980952D01*
X88796666Y-38123809D01*
X88749047Y-38314285D01*
X88701428Y-38409523D01*
X88606190Y-38504761D01*
X88463333Y-38552380D01*
X88225238Y-38552380D01*
%LPC*%
D14*
X50824190Y-42424047D02*
X49614666Y-42424047D01*
X49614666Y-39884047D01*
D15*
X124085085Y-42424047D02*
X124402585Y-39884047D01*
X125370204Y-39884047D01*
X125596990Y-40005000D01*
X125702823Y-40125952D01*
X125793537Y-40367857D01*
X125748180Y-40730714D01*
X125596990Y-40972619D01*
X125460918Y-41093571D01*
X125203894Y-41214523D01*
X124236275Y-41214523D01*
X126625085Y-42424047D02*
X126836752Y-40730714D01*
X126776275Y-41214523D02*
X126927466Y-40972619D01*
X127063537Y-40851666D01*
X127320561Y-40730714D01*
X127562466Y-40730714D01*
X129286037Y-42424047D02*
X129452347Y-41093571D01*
X129361633Y-40851666D01*
X129134847Y-40730714D01*
X128651037Y-40730714D01*
X128394013Y-40851666D01*
X129301156Y-42303095D02*
X129044133Y-42424047D01*
X128439371Y-42424047D01*
X128212585Y-42303095D01*
X128121871Y-42061190D01*
X128152109Y-41819285D01*
X128303299Y-41577380D01*
X128560323Y-41456428D01*
X129165085Y-41456428D01*
X129422109Y-41335476D01*
X131795799Y-40730714D02*
X131538775Y-42786904D01*
X131387585Y-43028809D01*
X131251513Y-43149761D01*
X130994490Y-43270714D01*
X130631633Y-43270714D01*
X130404847Y-43149761D01*
X131599252Y-42303095D02*
X131342228Y-42424047D01*
X130858418Y-42424047D01*
X130631633Y-42303095D01*
X130525799Y-42182142D01*
X130435085Y-41940238D01*
X130525799Y-41214523D01*
X130676990Y-40972619D01*
X130813061Y-40851666D01*
X131070085Y-40730714D01*
X131553894Y-40730714D01*
X131780680Y-40851666D01*
X132793656Y-42424047D02*
X133005323Y-40730714D01*
X132975085Y-40972619D02*
X133111156Y-40851666D01*
X133368180Y-40730714D01*
X133731037Y-40730714D01*
X133957823Y-40851666D01*
X134048537Y-41093571D01*
X133882228Y-42424047D01*
X134048537Y-41093571D02*
X134199728Y-40851666D01*
X134456752Y-40730714D01*
X134819609Y-40730714D01*
X135046394Y-40851666D01*
X135137109Y-41093571D01*
X134970799Y-42424047D01*
X137268894Y-42424047D02*
X137435204Y-41093571D01*
X137344490Y-40851666D01*
X137117704Y-40730714D01*
X136633894Y-40730714D01*
X136376871Y-40851666D01*
X137284013Y-42303095D02*
X137026990Y-42424047D01*
X136422228Y-42424047D01*
X136195442Y-42303095D01*
X136104728Y-42061190D01*
X136134966Y-41819285D01*
X136286156Y-41577380D01*
X136543180Y-41456428D01*
X137147942Y-41456428D01*
X137404966Y-41335476D01*
X138327228Y-40730714D02*
X139294847Y-40730714D01*
X138795918Y-39884047D02*
X138523775Y-42061190D01*
X138614490Y-42303095D01*
X138841275Y-42424047D01*
X139083180Y-42424047D01*
X139929847Y-42424047D02*
X140141513Y-40730714D01*
X140247347Y-39884047D02*
X140111275Y-40005000D01*
X140217109Y-40125952D01*
X140353180Y-40005000D01*
X140247347Y-39884047D01*
X140217109Y-40125952D01*
X142243061Y-42303095D02*
X141986037Y-42424047D01*
X141502228Y-42424047D01*
X141275442Y-42303095D01*
X141169609Y-42182142D01*
X141078894Y-41940238D01*
X141169609Y-41214523D01*
X141320799Y-40972619D01*
X141456871Y-40851666D01*
X141713894Y-40730714D01*
X142197704Y-40730714D01*
X142424490Y-40851666D01*
D16*
X60960000Y-54610000D03*
D17*
X62250000Y-61050000D03*
D16*
X54610000Y-52070000D03*
D18*
X57150000Y-57150000D03*
D19*
X51650000Y-57150000D03*
X62650000Y-57150000D03*
D20*
X57150000Y-63050000D03*
D21*
X62230000Y-57150000D03*
X52070000Y-57150000D03*
D22*
X142875000Y-142875000D03*
D23*
X142875000Y-142875000D03*
D22*
X142875000Y-66675000D03*
D23*
X142875000Y-66675000D03*
D22*
X66040000Y-142240000D03*
D23*
X66040000Y-142240000D03*
D22*
X66675000Y-66675000D03*
D23*
X66675000Y-66675000D03*
D21*
X75565000Y-40005000D03*
X73025000Y-40005000D03*
X70485000Y-40005000D03*
X67945000Y-40005000D03*
X65405000Y-40005000D03*
X62865000Y-40005000D03*
X60325000Y-40005000D03*
X57785000Y-40005000D03*
X75565000Y-42545000D03*
X73025000Y-42545000D03*
X70485000Y-42545000D03*
X67945000Y-42545000D03*
X65405000Y-42545000D03*
X62865000Y-42545000D03*
X60325000Y-42545000D03*
G36*
G01*
X58385000Y-43395000D02*
X57185000Y-43395000D01*
G75*
G02*
X56935000Y-43145000I0J250000D01*
G01*
X56935000Y-41945000D01*
G75*
G02*
X57185000Y-41695000I250000J0D01*
G01*
X58385000Y-41695000D01*
G75*
G02*
X58635000Y-41945000I0J-250000D01*
G01*
X58635000Y-43145000D01*
G75*
G02*
X58385000Y-43395000I-250000J0D01*
G01*
G37*
D24*
X101600000Y-41275000D03*
X99060000Y-41275000D03*
X96520000Y-41275000D03*
D25*
X93980000Y-41275000D03*
G36*
G01*
X88030000Y-42995001D02*
X88030000Y-42094999D01*
G75*
G02*
X88279999Y-41845000I249999J0D01*
G01*
X88980001Y-41845000D01*
G75*
G02*
X89230000Y-42094999I0J-249999D01*
G01*
X89230000Y-42995001D01*
G75*
G02*
X88980001Y-43245000I-249999J0D01*
G01*
X88279999Y-43245000D01*
G75*
G02*
X88030000Y-42995001I0J249999D01*
G01*
G37*
G36*
G01*
X86030000Y-42995001D02*
X86030000Y-42094999D01*
G75*
G02*
X86279999Y-41845000I249999J0D01*
G01*
X86980001Y-41845000D01*
G75*
G02*
X87230000Y-42094999I0J-249999D01*
G01*
X87230000Y-42995001D01*
G75*
G02*
X86980001Y-43245000I-249999J0D01*
G01*
X86279999Y-43245000D01*
G75*
G02*
X86030000Y-42995001I0J249999D01*
G01*
G37*
G36*
G01*
X88080000Y-40455001D02*
X88080000Y-39554999D01*
G75*
G02*
X88329999Y-39305000I249999J0D01*
G01*
X88980001Y-39305000D01*
G75*
G02*
X89230000Y-39554999I0J-249999D01*
G01*
X89230000Y-40455001D01*
G75*
G02*
X88980001Y-40705000I-249999J0D01*
G01*
X88329999Y-40705000D01*
G75*
G02*
X88080000Y-40455001I0J249999D01*
G01*
G37*
G36*
G01*
X86030000Y-40455001D02*
X86030000Y-39554999D01*
G75*
G02*
X86279999Y-39305000I249999J0D01*
G01*
X86930001Y-39305000D01*
G75*
G02*
X87180000Y-39554999I0J-249999D01*
G01*
X87180000Y-40455001D01*
G75*
G02*
X86930001Y-40705000I-249999J0D01*
G01*
X86279999Y-40705000D01*
G75*
G02*
X86030000Y-40455001I0J249999D01*
G01*
G37*
D16*
X156210000Y-149860000D03*
D17*
X157500000Y-156300000D03*
D16*
X149860000Y-147320000D03*
D18*
X152400000Y-152400000D03*
D19*
X146900000Y-152400000D03*
X157900000Y-152400000D03*
D20*
X152400000Y-158300000D03*
D21*
X157480000Y-152400000D03*
X147320000Y-152400000D03*
D16*
X137160000Y-149860000D03*
D17*
X138450000Y-156300000D03*
D16*
X130810000Y-147320000D03*
D18*
X133350000Y-152400000D03*
D19*
X127850000Y-152400000D03*
X138850000Y-152400000D03*
D20*
X133350000Y-158300000D03*
D21*
X138430000Y-152400000D03*
X128270000Y-152400000D03*
D16*
X118110000Y-149860000D03*
D17*
X119400000Y-156300000D03*
D16*
X111760000Y-147320000D03*
D18*
X114300000Y-152400000D03*
D19*
X108800000Y-152400000D03*
X119800000Y-152400000D03*
D20*
X114300000Y-158300000D03*
D21*
X119380000Y-152400000D03*
X109220000Y-152400000D03*
D16*
X99060000Y-149860000D03*
D17*
X100350000Y-156300000D03*
D16*
X92710000Y-147320000D03*
D18*
X95250000Y-152400000D03*
D19*
X89750000Y-152400000D03*
X100750000Y-152400000D03*
D20*
X95250000Y-158300000D03*
D21*
X100330000Y-152400000D03*
X90170000Y-152400000D03*
D16*
X80010000Y-149860000D03*
D17*
X81300000Y-156300000D03*
D16*
X73660000Y-147320000D03*
D18*
X76200000Y-152400000D03*
D19*
X70700000Y-152400000D03*
X81700000Y-152400000D03*
D20*
X76200000Y-158300000D03*
D21*
X81280000Y-152400000D03*
X71120000Y-152400000D03*
D16*
X60960000Y-149860000D03*
D17*
X62250000Y-156300000D03*
D16*
X54610000Y-147320000D03*
D18*
X57150000Y-152400000D03*
D19*
X51650000Y-152400000D03*
X62650000Y-152400000D03*
D20*
X57150000Y-158300000D03*
D21*
X62230000Y-152400000D03*
X52070000Y-152400000D03*
D16*
X156210000Y-130810000D03*
D17*
X157500000Y-137250000D03*
D16*
X149860000Y-128270000D03*
D18*
X152400000Y-133350000D03*
D19*
X146900000Y-133350000D03*
X157900000Y-133350000D03*
D20*
X152400000Y-139250000D03*
D21*
X157480000Y-133350000D03*
X147320000Y-133350000D03*
D16*
X137160000Y-130810000D03*
D17*
X138450000Y-137250000D03*
D16*
X130810000Y-128270000D03*
D18*
X133350000Y-133350000D03*
D19*
X127850000Y-133350000D03*
X138850000Y-133350000D03*
D20*
X133350000Y-139250000D03*
D21*
X138430000Y-133350000D03*
X128270000Y-133350000D03*
D16*
X118110000Y-130810000D03*
D17*
X119400000Y-137250000D03*
D16*
X111760000Y-128270000D03*
D18*
X114300000Y-133350000D03*
D19*
X108800000Y-133350000D03*
X119800000Y-133350000D03*
D20*
X114300000Y-139250000D03*
D21*
X119380000Y-133350000D03*
X109220000Y-133350000D03*
D16*
X99060000Y-130810000D03*
D17*
X100350000Y-137250000D03*
D16*
X92710000Y-128270000D03*
D18*
X95250000Y-133350000D03*
D19*
X89750000Y-133350000D03*
X100750000Y-133350000D03*
D20*
X95250000Y-139250000D03*
D21*
X100330000Y-133350000D03*
X90170000Y-133350000D03*
D16*
X80010000Y-130810000D03*
D17*
X81300000Y-137250000D03*
D16*
X73660000Y-128270000D03*
D18*
X76200000Y-133350000D03*
D19*
X70700000Y-133350000D03*
X81700000Y-133350000D03*
D20*
X76200000Y-139250000D03*
D21*
X81280000Y-133350000D03*
X71120000Y-133350000D03*
D16*
X60960000Y-130810000D03*
D17*
X62250000Y-137250000D03*
D16*
X54610000Y-128270000D03*
D18*
X57150000Y-133350000D03*
D19*
X51650000Y-133350000D03*
X62650000Y-133350000D03*
D20*
X57150000Y-139250000D03*
D21*
X62230000Y-133350000D03*
X52070000Y-133350000D03*
D16*
X156210000Y-111760000D03*
D17*
X157500000Y-118200000D03*
D16*
X149860000Y-109220000D03*
D18*
X152400000Y-114300000D03*
D19*
X146900000Y-114300000D03*
X157900000Y-114300000D03*
D20*
X152400000Y-120200000D03*
D21*
X157480000Y-114300000D03*
X147320000Y-114300000D03*
D16*
X137160000Y-111760000D03*
D17*
X138450000Y-118200000D03*
D16*
X130810000Y-109220000D03*
D18*
X133350000Y-114300000D03*
D19*
X127850000Y-114300000D03*
X138850000Y-114300000D03*
D20*
X133350000Y-120200000D03*
D21*
X138430000Y-114300000D03*
X128270000Y-114300000D03*
D16*
X118110000Y-111760000D03*
D17*
X119400000Y-118200000D03*
D16*
X111760000Y-109220000D03*
D18*
X114300000Y-114300000D03*
D19*
X108800000Y-114300000D03*
X119800000Y-114300000D03*
D20*
X114300000Y-120200000D03*
D21*
X119380000Y-114300000D03*
X109220000Y-114300000D03*
D16*
X99060000Y-111760000D03*
D17*
X100350000Y-118200000D03*
D16*
X92710000Y-109220000D03*
D18*
X95250000Y-114300000D03*
D19*
X89750000Y-114300000D03*
X100750000Y-114300000D03*
D20*
X95250000Y-120200000D03*
D21*
X100330000Y-114300000D03*
X90170000Y-114300000D03*
D16*
X80010000Y-111760000D03*
D17*
X81300000Y-118200000D03*
D16*
X73660000Y-109220000D03*
D18*
X76200000Y-114300000D03*
D19*
X70700000Y-114300000D03*
X81700000Y-114300000D03*
D20*
X76200000Y-120200000D03*
D21*
X81280000Y-114300000D03*
X71120000Y-114300000D03*
D16*
X60960000Y-111760000D03*
D17*
X62250000Y-118200000D03*
D16*
X54610000Y-109220000D03*
D18*
X57150000Y-114300000D03*
D19*
X51650000Y-114300000D03*
X62650000Y-114300000D03*
D20*
X57150000Y-120200000D03*
D21*
X62230000Y-114300000D03*
X52070000Y-114300000D03*
D16*
X156210000Y-92710000D03*
D17*
X157500000Y-99150000D03*
D16*
X149860000Y-90170000D03*
D18*
X152400000Y-95250000D03*
D19*
X146900000Y-95250000D03*
X157900000Y-95250000D03*
D20*
X152400000Y-101150000D03*
D21*
X157480000Y-95250000D03*
X147320000Y-95250000D03*
D16*
X137160000Y-92710000D03*
D17*
X138450000Y-99150000D03*
D16*
X130810000Y-90170000D03*
D18*
X133350000Y-95250000D03*
D19*
X127850000Y-95250000D03*
X138850000Y-95250000D03*
D20*
X133350000Y-101150000D03*
D21*
X138430000Y-95250000D03*
X128270000Y-95250000D03*
D16*
X118110000Y-92710000D03*
D17*
X119400000Y-99150000D03*
D16*
X111760000Y-90170000D03*
D18*
X114300000Y-95250000D03*
D19*
X108800000Y-95250000D03*
X119800000Y-95250000D03*
D20*
X114300000Y-101150000D03*
D21*
X119380000Y-95250000D03*
X109220000Y-95250000D03*
D16*
X99060000Y-92710000D03*
D17*
X100350000Y-99150000D03*
D16*
X92710000Y-90170000D03*
D18*
X95250000Y-95250000D03*
D19*
X89750000Y-95250000D03*
X100750000Y-95250000D03*
D20*
X95250000Y-101150000D03*
D21*
X100330000Y-95250000D03*
X90170000Y-95250000D03*
D16*
X80010000Y-92710000D03*
D17*
X81300000Y-99150000D03*
D16*
X73660000Y-90170000D03*
D18*
X76200000Y-95250000D03*
D19*
X70700000Y-95250000D03*
X81700000Y-95250000D03*
D20*
X76200000Y-101150000D03*
D21*
X81280000Y-95250000D03*
X71120000Y-95250000D03*
D16*
X60960000Y-92710000D03*
D17*
X62250000Y-99150000D03*
D16*
X54610000Y-90170000D03*
D18*
X57150000Y-95250000D03*
D19*
X51650000Y-95250000D03*
X62650000Y-95250000D03*
D20*
X57150000Y-101150000D03*
D21*
X62230000Y-95250000D03*
X52070000Y-95250000D03*
D16*
X156210000Y-73660000D03*
D17*
X157500000Y-80100000D03*
D16*
X149860000Y-71120000D03*
D18*
X152400000Y-76200000D03*
D19*
X146900000Y-76200000D03*
X157900000Y-76200000D03*
D20*
X152400000Y-82100000D03*
D21*
X157480000Y-76200000D03*
X147320000Y-76200000D03*
D16*
X137160000Y-73660000D03*
D17*
X138450000Y-80100000D03*
D16*
X130810000Y-71120000D03*
D18*
X133350000Y-76200000D03*
D19*
X127850000Y-76200000D03*
X138850000Y-76200000D03*
D20*
X133350000Y-82100000D03*
D21*
X138430000Y-76200000D03*
X128270000Y-76200000D03*
D16*
X118110000Y-73660000D03*
D17*
X119400000Y-80100000D03*
D16*
X111760000Y-71120000D03*
D18*
X114300000Y-76200000D03*
D19*
X108800000Y-76200000D03*
X119800000Y-76200000D03*
D20*
X114300000Y-82100000D03*
D21*
X119380000Y-76200000D03*
X109220000Y-76200000D03*
D16*
X99060000Y-73660000D03*
D17*
X100350000Y-80100000D03*
D16*
X92710000Y-71120000D03*
D18*
X95250000Y-76200000D03*
D19*
X89750000Y-76200000D03*
X100750000Y-76200000D03*
D20*
X95250000Y-82100000D03*
D21*
X100330000Y-76200000D03*
X90170000Y-76200000D03*
D16*
X156210000Y-54610000D03*
D17*
X157500000Y-61050000D03*
D16*
X149860000Y-52070000D03*
D18*
X152400000Y-57150000D03*
D19*
X146900000Y-57150000D03*
X157900000Y-57150000D03*
D20*
X152400000Y-63050000D03*
D21*
X157480000Y-57150000D03*
X147320000Y-57150000D03*
D16*
X137160000Y-54610000D03*
D17*
X138450000Y-61050000D03*
D16*
X130810000Y-52070000D03*
D18*
X133350000Y-57150000D03*
D19*
X127850000Y-57150000D03*
X138850000Y-57150000D03*
D20*
X133350000Y-63050000D03*
D21*
X138430000Y-57150000D03*
X128270000Y-57150000D03*
D16*
X118110000Y-54610000D03*
D17*
X119400000Y-61050000D03*
D16*
X111760000Y-52070000D03*
D18*
X114300000Y-57150000D03*
D19*
X108800000Y-57150000D03*
X119800000Y-57150000D03*
D20*
X114300000Y-63050000D03*
D21*
X119380000Y-57150000D03*
X109220000Y-57150000D03*
D16*
X99060000Y-54610000D03*
D17*
X100350000Y-61050000D03*
D16*
X92710000Y-52070000D03*
D18*
X95250000Y-57150000D03*
D19*
X89750000Y-57150000D03*
X100750000Y-57150000D03*
D20*
X95250000Y-63050000D03*
D21*
X100330000Y-57150000D03*
X90170000Y-57150000D03*
D26*
X150625000Y-144145000D03*
X154175000Y-144145000D03*
X131575000Y-144145000D03*
X135125000Y-144145000D03*
X112525000Y-144145000D03*
X116075000Y-144145000D03*
X93475000Y-144145000D03*
X97025000Y-144145000D03*
X74425000Y-144145000D03*
X77975000Y-144145000D03*
X55375000Y-144145000D03*
X58925000Y-144145000D03*
X150625000Y-125095000D03*
X154175000Y-125095000D03*
X131575000Y-125095000D03*
X135125000Y-125095000D03*
X112525000Y-125095000D03*
X116075000Y-125095000D03*
X93475000Y-125095000D03*
X97025000Y-125095000D03*
X74425000Y-125095000D03*
X77975000Y-125095000D03*
X55375000Y-125095000D03*
X58925000Y-125095000D03*
X150625000Y-106045000D03*
X154175000Y-106045000D03*
X131575000Y-106045000D03*
X135125000Y-106045000D03*
X112525000Y-106045000D03*
X116075000Y-106045000D03*
X93475000Y-106045000D03*
X97025000Y-106045000D03*
X74425000Y-106045000D03*
X77975000Y-106045000D03*
X55375000Y-106045000D03*
X58925000Y-106045000D03*
X150625000Y-86995000D03*
X154175000Y-86995000D03*
X131575000Y-86995000D03*
X135125000Y-86995000D03*
X112525000Y-86995000D03*
X116075000Y-86995000D03*
X93475000Y-86995000D03*
X97025000Y-86995000D03*
X74425000Y-86995000D03*
X77975000Y-86995000D03*
X55375000Y-86995000D03*
X58925000Y-86995000D03*
X150625000Y-67945000D03*
X154175000Y-67945000D03*
X131575000Y-67945000D03*
X135125000Y-67945000D03*
X112525000Y-67945000D03*
X116075000Y-67945000D03*
X93475000Y-67945000D03*
X97025000Y-67945000D03*
X150625000Y-48895000D03*
X154175000Y-48895000D03*
X131575000Y-48895000D03*
X135125000Y-48895000D03*
X112525000Y-48895000D03*
X116075000Y-48895000D03*
X93475000Y-48895000D03*
X97025000Y-48895000D03*
D16*
X80010000Y-73660000D03*
D17*
X81300000Y-80100000D03*
D16*
X73660000Y-71120000D03*
D18*
X76200000Y-76200000D03*
D19*
X70700000Y-76200000D03*
X81700000Y-76200000D03*
D20*
X76200000Y-82100000D03*
D21*
X81280000Y-76200000D03*
X71120000Y-76200000D03*
D16*
X60960000Y-73660000D03*
D17*
X62250000Y-80100000D03*
D16*
X54610000Y-71120000D03*
D18*
X57150000Y-76200000D03*
D19*
X51650000Y-76200000D03*
X62650000Y-76200000D03*
D20*
X57150000Y-82100000D03*
D21*
X62230000Y-76200000D03*
X52070000Y-76200000D03*
D16*
X80010000Y-54610000D03*
D17*
X81300000Y-61050000D03*
D16*
X73660000Y-52070000D03*
D18*
X76200000Y-57150000D03*
D19*
X70700000Y-57150000D03*
X81700000Y-57150000D03*
D20*
X76200000Y-63050000D03*
D21*
X81280000Y-57150000D03*
X71120000Y-57150000D03*
D26*
X74425000Y-67945000D03*
X77975000Y-67945000D03*
X55375000Y-67945000D03*
X58925000Y-67945000D03*
X74425000Y-48895000D03*
X77975000Y-48895000D03*
X55375000Y-48895000D03*
X58925000Y-48895000D03*
M02*
