%FSLAX45Y45*%
G04 Gerber Fmt 4.5, Leading zero omitted, Abs format (unit mm)*
G04 Created by KiCad (PCBNEW (5.1.12-1-10_14)) date 2021-11-18 12:14:01*
%MOMM*%
%LPD*%
G01*
G04 APERTURE LIST*
%TA.AperFunction,Profile*%
%ADD10C,0.120000*%
%TD*%
%ADD11C,0.200000*%
%ADD12C,0.300000*%
G04 APERTURE END LIST*
D10*
X9652000Y-3556000D02*
G75*
G02*
X9779000Y-3683000I0J-127000D01*
G01*
X4699000Y-3683000D02*
G75*
G02*
X4826000Y-3556000I127000J0D01*
G01*
X4826000Y-8636000D02*
G75*
G02*
X4699000Y-8509000I0J127000D01*
G01*
X9779000Y-8509000D02*
G75*
G02*
X9652000Y-8636000I-127000J0D01*
G01*
X9652000Y-3556000D02*
X4826000Y-3556000D01*
X9779000Y-8509000D02*
X9779000Y-3683000D01*
X4826000Y-8636000D02*
X9652000Y-8636000D01*
X4699000Y-3683000D02*
X4699000Y-8509000D01*
D11*
X5200000Y-5145000D02*
X5230000Y-5175000D01*
X5230000Y-5145000D02*
X5200000Y-5175000D01*
X5179958Y-5164694D02*
X5249955Y-5165305D01*
X5180045Y-5154695D02*
X5250042Y-5155306D01*
X5249955Y-5165305D02*
G75*
G03*
X5250042Y-5155306I44J5000D01*
G01*
X5180045Y-5154695D02*
G75*
G03*
X5179958Y-5164694I-44J-5000D01*
G01*
X5200000Y-7050000D02*
X5230000Y-7080000D01*
X5230000Y-7050000D02*
X5200000Y-7080000D01*
X5179958Y-7069694D02*
X5249955Y-7070305D01*
X5180045Y-7059695D02*
X5250042Y-7060306D01*
X5249955Y-7070305D02*
G75*
G03*
X5250042Y-7060306I44J5000D01*
G01*
X5180045Y-7059695D02*
G75*
G03*
X5179958Y-7069694I-44J-5000D01*
G01*
X5700000Y-6290000D02*
X5730000Y-6320000D01*
X5730000Y-6290000D02*
X5700000Y-6320000D01*
X5680000Y-6310000D02*
X5750000Y-6310000D01*
X5680000Y-6300000D02*
X5750000Y-6300000D01*
X5750000Y-6310000D02*
G75*
G03*
X5750000Y-6300000I0J5000D01*
G01*
X5680000Y-6300000D02*
G75*
G03*
X5680000Y-6310000I0J-5000D01*
G01*
X5700000Y-8195000D02*
X5730000Y-8225000D01*
X5730000Y-8195000D02*
X5700000Y-8225000D01*
X5680000Y-8215000D02*
X5750000Y-8215000D01*
X5680000Y-8205000D02*
X5750000Y-8205000D01*
X5750000Y-8215000D02*
G75*
G03*
X5750000Y-8205000I0J5000D01*
G01*
X5680000Y-8205000D02*
G75*
G03*
X5680000Y-8215000I0J-5000D01*
G01*
X6200000Y-5145000D02*
X6230000Y-5175000D01*
X6230000Y-5145000D02*
X6200000Y-5175000D01*
X6180045Y-5165305D02*
X6250042Y-5164694D01*
X6179958Y-5155306D02*
X6249955Y-5154695D01*
X6250042Y-5164694D02*
G75*
G03*
X6249955Y-5154695I-44J5000D01*
G01*
X6179958Y-5155306D02*
G75*
G03*
X6180045Y-5165305I44J-5000D01*
G01*
X6200000Y-5145000D02*
X6230000Y-5175000D01*
X6230000Y-5145000D02*
X6200000Y-5175000D01*
X6180045Y-5165305D02*
X6250042Y-5164694D01*
X6179958Y-5155306D02*
X6249955Y-5154695D01*
X6250042Y-5164694D02*
G75*
G03*
X6249955Y-5154695I-44J5000D01*
G01*
X6179958Y-5155306D02*
G75*
G03*
X6180045Y-5165305I44J-5000D01*
G01*
X6200000Y-7050000D02*
X6230000Y-7080000D01*
X6230000Y-7050000D02*
X6200000Y-7080000D01*
X6180045Y-7070305D02*
X6250042Y-7069694D01*
X6179958Y-7060306D02*
X6249955Y-7059695D01*
X6250042Y-7069694D02*
G75*
G03*
X6249955Y-7059695I-44J5000D01*
G01*
X6179958Y-7060306D02*
G75*
G03*
X6180045Y-7070305I44J-5000D01*
G01*
X6200000Y-7050000D02*
X6230000Y-7080000D01*
X6230000Y-7050000D02*
X6200000Y-7080000D01*
X6180045Y-7070305D02*
X6250042Y-7069694D01*
X6179958Y-7060306D02*
X6249955Y-7059695D01*
X6250042Y-7069694D02*
G75*
G03*
X6249955Y-7059695I-44J5000D01*
G01*
X6179958Y-7060306D02*
G75*
G03*
X6180045Y-7070305I44J-5000D01*
G01*
X7105000Y-5145000D02*
X7135000Y-5175000D01*
X7135000Y-5145000D02*
X7105000Y-5175000D01*
X7084958Y-5164694D02*
X7154955Y-5165305D01*
X7085045Y-5154695D02*
X7155042Y-5155306D01*
X7154955Y-5165305D02*
G75*
G03*
X7155042Y-5155306I44J5000D01*
G01*
X7085045Y-5154695D02*
G75*
G03*
X7084958Y-5164694I-44J-5000D01*
G01*
X7105000Y-7050000D02*
X7135000Y-7080000D01*
X7135000Y-7050000D02*
X7105000Y-7080000D01*
X7084958Y-7069694D02*
X7154955Y-7070305D01*
X7085045Y-7059695D02*
X7155042Y-7060306D01*
X7154955Y-7070305D02*
G75*
G03*
X7155042Y-7060306I44J5000D01*
G01*
X7085045Y-7059695D02*
G75*
G03*
X7084958Y-7069694I-44J-5000D01*
G01*
X7605000Y-6290000D02*
X7635000Y-6320000D01*
X7635000Y-6290000D02*
X7605000Y-6320000D01*
X7585000Y-6310000D02*
X7655000Y-6310000D01*
X7585000Y-6300000D02*
X7655000Y-6300000D01*
X7655000Y-6310000D02*
G75*
G03*
X7655000Y-6300000I0J5000D01*
G01*
X7585000Y-6300000D02*
G75*
G03*
X7585000Y-6310000I0J-5000D01*
G01*
X7605000Y-8195000D02*
X7635000Y-8225000D01*
X7635000Y-8195000D02*
X7605000Y-8225000D01*
X7585000Y-8215000D02*
X7655000Y-8215000D01*
X7585000Y-8205000D02*
X7655000Y-8205000D01*
X7655000Y-8215000D02*
G75*
G03*
X7655000Y-8205000I0J5000D01*
G01*
X7585000Y-8205000D02*
G75*
G03*
X7585000Y-8215000I0J-5000D01*
G01*
X8105000Y-5145000D02*
X8135000Y-5175000D01*
X8135000Y-5145000D02*
X8105000Y-5175000D01*
X8085045Y-5165305D02*
X8155042Y-5164694D01*
X8084958Y-5155306D02*
X8154955Y-5154695D01*
X8155042Y-5164694D02*
G75*
G03*
X8154955Y-5154695I-44J5000D01*
G01*
X8084958Y-5155306D02*
G75*
G03*
X8085045Y-5165305I44J-5000D01*
G01*
X8105000Y-5145000D02*
X8135000Y-5175000D01*
X8135000Y-5145000D02*
X8105000Y-5175000D01*
X8085045Y-5165305D02*
X8155042Y-5164694D01*
X8084958Y-5155306D02*
X8154955Y-5154695D01*
X8155042Y-5164694D02*
G75*
G03*
X8154955Y-5154695I-44J5000D01*
G01*
X8084958Y-5155306D02*
G75*
G03*
X8085045Y-5165305I44J-5000D01*
G01*
X8105000Y-7050000D02*
X8135000Y-7080000D01*
X8135000Y-7050000D02*
X8105000Y-7080000D01*
X8085045Y-7070305D02*
X8155042Y-7069694D01*
X8084958Y-7060306D02*
X8154955Y-7059695D01*
X8155042Y-7069694D02*
G75*
G03*
X8154955Y-7059695I-44J5000D01*
G01*
X8084958Y-7060306D02*
G75*
G03*
X8085045Y-7070305I44J-5000D01*
G01*
X8105000Y-7050000D02*
X8135000Y-7080000D01*
X8135000Y-7050000D02*
X8105000Y-7080000D01*
X8085045Y-7070305D02*
X8155042Y-7069694D01*
X8084958Y-7060306D02*
X8154955Y-7059695D01*
X8155042Y-7069694D02*
G75*
G03*
X8154955Y-7059695I-44J5000D01*
G01*
X8084958Y-7060306D02*
G75*
G03*
X8085045Y-7070305I44J-5000D01*
G01*
X5225000Y-6105000D02*
G75*
G03*
X5225000Y-6105000I-20000J0D01*
G01*
X5175000Y-6115000D02*
X5235000Y-6115000D01*
X5175000Y-6095000D02*
X5235000Y-6095000D01*
X5235000Y-6115000D02*
G75*
G03*
X5235000Y-6095000I0J10000D01*
G01*
X5175000Y-6095000D02*
G75*
G03*
X5175000Y-6115000I0J-10000D01*
G01*
X5225000Y-6105000D02*
G75*
G03*
X5225000Y-6105000I-20000J0D01*
G01*
X5175000Y-6115000D02*
X5235000Y-6115000D01*
X5175000Y-6095000D02*
X5235000Y-6095000D01*
X5235000Y-6115000D02*
G75*
G03*
X5235000Y-6095000I0J10000D01*
G01*
X5175000Y-6095000D02*
G75*
G03*
X5175000Y-6115000I0J-10000D01*
G01*
X5225000Y-8010000D02*
G75*
G03*
X5225000Y-8010000I-20000J0D01*
G01*
X5175000Y-8020000D02*
X5235000Y-8020000D01*
X5175000Y-8000000D02*
X5235000Y-8000000D01*
X5235000Y-8020000D02*
G75*
G03*
X5235000Y-8000000I0J10000D01*
G01*
X5175000Y-8000000D02*
G75*
G03*
X5175000Y-8020000I0J-10000D01*
G01*
X5225000Y-8010000D02*
G75*
G03*
X5225000Y-8010000I-20000J0D01*
G01*
X5175000Y-8020000D02*
X5235000Y-8020000D01*
X5175000Y-8000000D02*
X5235000Y-8000000D01*
X5235000Y-8020000D02*
G75*
G03*
X5235000Y-8000000I0J10000D01*
G01*
X5175000Y-8000000D02*
G75*
G03*
X5175000Y-8020000I0J-10000D01*
G01*
X6245000Y-6105000D02*
G75*
G03*
X6245000Y-6105000I-20000J0D01*
G01*
X6195000Y-6115000D02*
X6255000Y-6115000D01*
X6195000Y-6095000D02*
X6255000Y-6095000D01*
X6255000Y-6115000D02*
G75*
G03*
X6255000Y-6095000I0J10000D01*
G01*
X6195000Y-6095000D02*
G75*
G03*
X6195000Y-6115000I0J-10000D01*
G01*
X6245000Y-8010000D02*
G75*
G03*
X6245000Y-8010000I-20000J0D01*
G01*
X6195000Y-8020000D02*
X6255000Y-8020000D01*
X6195000Y-8000000D02*
X6255000Y-8000000D01*
X6255000Y-8020000D02*
G75*
G03*
X6255000Y-8000000I0J10000D01*
G01*
X6195000Y-8000000D02*
G75*
G03*
X6195000Y-8020000I0J-10000D01*
G01*
X6306500Y-4762500D02*
G75*
G03*
X6306500Y-4762500I-20000J0D01*
G01*
X6560500Y-6667500D02*
G75*
G03*
X6560500Y-6667500I-20000J0D01*
G01*
X7130000Y-6105000D02*
G75*
G03*
X7130000Y-6105000I-20000J0D01*
G01*
X7080000Y-6115000D02*
X7140000Y-6115000D01*
X7080000Y-6095000D02*
X7140000Y-6095000D01*
X7140000Y-6115000D02*
G75*
G03*
X7140000Y-6095000I0J10000D01*
G01*
X7080000Y-6095000D02*
G75*
G03*
X7080000Y-6115000I0J-10000D01*
G01*
X7130000Y-6105000D02*
G75*
G03*
X7130000Y-6105000I-20000J0D01*
G01*
X7080000Y-6115000D02*
X7140000Y-6115000D01*
X7080000Y-6095000D02*
X7140000Y-6095000D01*
X7140000Y-6115000D02*
G75*
G03*
X7140000Y-6095000I0J10000D01*
G01*
X7080000Y-6095000D02*
G75*
G03*
X7080000Y-6115000I0J-10000D01*
G01*
X7130000Y-8010000D02*
G75*
G03*
X7130000Y-8010000I-20000J0D01*
G01*
X7080000Y-8020000D02*
X7140000Y-8020000D01*
X7080000Y-8000000D02*
X7140000Y-8000000D01*
X7140000Y-8020000D02*
G75*
G03*
X7140000Y-8000000I0J10000D01*
G01*
X7080000Y-8000000D02*
G75*
G03*
X7080000Y-8020000I0J-10000D01*
G01*
X7130000Y-8010000D02*
G75*
G03*
X7130000Y-8010000I-20000J0D01*
G01*
X7080000Y-8020000D02*
X7140000Y-8020000D01*
X7080000Y-8000000D02*
X7140000Y-8000000D01*
X7140000Y-8020000D02*
G75*
G03*
X7140000Y-8000000I0J10000D01*
G01*
X7080000Y-8000000D02*
G75*
G03*
X7080000Y-8020000I0J-10000D01*
G01*
X8052801Y-6667500D02*
G75*
G03*
X8052801Y-6667500I-20000J0D01*
G01*
X8065500Y-4807000D02*
G75*
G03*
X8065500Y-4807000I-20000J0D01*
G01*
X8150000Y-6105000D02*
G75*
G03*
X8150000Y-6105000I-20000J0D01*
G01*
X8100000Y-6115000D02*
X8160000Y-6115000D01*
X8100000Y-6095000D02*
X8160000Y-6095000D01*
X8160000Y-6115000D02*
G75*
G03*
X8160000Y-6095000I0J10000D01*
G01*
X8100000Y-6095000D02*
G75*
G03*
X8100000Y-6115000I0J-10000D01*
G01*
X8150000Y-8010000D02*
G75*
G03*
X8150000Y-8010000I-20000J0D01*
G01*
X8100000Y-8020000D02*
X8160000Y-8020000D01*
X8100000Y-8000000D02*
X8160000Y-8000000D01*
X8160000Y-8020000D02*
G75*
G03*
X8160000Y-8000000I0J10000D01*
G01*
X8100000Y-8000000D02*
G75*
G03*
X8100000Y-8020000I0J-10000D01*
G01*
X8402000Y-4000500D02*
G75*
G03*
X8402000Y-4000500I-20000J0D01*
G01*
X8402000Y-4254500D02*
G75*
G03*
X8402000Y-4254500I-20000J0D01*
G01*
X8885500Y-4000500D02*
G75*
G03*
X8885500Y-4000500I-20000J0D01*
G01*
X9164000Y-4000502D02*
G75*
G03*
X9164000Y-4000502I-20000J0D01*
G01*
X9525000Y-3705860D02*
X9525000Y-3787140D01*
X9484360Y-3746500D02*
X9565640Y-3746500D01*
X9525000Y-3959860D02*
X9525000Y-4041140D01*
X9484360Y-4000500D02*
X9565640Y-4000500D01*
X9525000Y-4213860D02*
X9525000Y-4295140D01*
X9484360Y-4254500D02*
X9565640Y-4254500D01*
X9525000Y-4467860D02*
X9525000Y-4549140D01*
X9484360Y-4508500D02*
X9565640Y-4508500D01*
X5813856Y-4035856D02*
X5813856Y-3965144D01*
X5743144Y-3965144D01*
X5743144Y-4035856D01*
X5813856Y-4035856D01*
X5813856Y-4289856D02*
X5813856Y-4219144D01*
X5743144Y-4219144D01*
X5743144Y-4289856D01*
X5813856Y-4289856D01*
X6067856Y-4035856D02*
X6067856Y-3965144D01*
X5997144Y-3965144D01*
X5997144Y-4035856D01*
X6067856Y-4035856D01*
X6067856Y-4289856D02*
X6067856Y-4219144D01*
X5997144Y-4219144D01*
X5997144Y-4289856D01*
X6067856Y-4289856D01*
X6321856Y-4035856D02*
X6321856Y-3965144D01*
X6251144Y-3965144D01*
X6251144Y-4035856D01*
X6321856Y-4035856D01*
X6321856Y-4289856D02*
X6321856Y-4219144D01*
X6251144Y-4219144D01*
X6251144Y-4289856D01*
X6321856Y-4289856D01*
X6575856Y-4035856D02*
X6575856Y-3965144D01*
X6505144Y-3965144D01*
X6505144Y-4035856D01*
X6575856Y-4035856D01*
X6575856Y-4289856D02*
X6575856Y-4219144D01*
X6505144Y-4219144D01*
X6505144Y-4289856D01*
X6575856Y-4289856D01*
X6829856Y-4035856D02*
X6829856Y-3965144D01*
X6759144Y-3965144D01*
X6759144Y-4035856D01*
X6829856Y-4035856D01*
X6829856Y-4289856D02*
X6829856Y-4219144D01*
X6759144Y-4219144D01*
X6759144Y-4289856D01*
X6829856Y-4289856D01*
X7083856Y-4035856D02*
X7083856Y-3965144D01*
X7013144Y-3965144D01*
X7013144Y-4035856D01*
X7083856Y-4035856D01*
X7083856Y-4289856D02*
X7083856Y-4219144D01*
X7013144Y-4219144D01*
X7013144Y-4289856D01*
X7083856Y-4289856D01*
X7337856Y-4035856D02*
X7337856Y-3965144D01*
X7267144Y-3965144D01*
X7267144Y-4035856D01*
X7337856Y-4035856D01*
X7337856Y-4289856D02*
X7337856Y-4219144D01*
X7267144Y-4219144D01*
X7267144Y-4289856D01*
X7337856Y-4289856D01*
X7591856Y-4035856D02*
X7591856Y-3965144D01*
X7521144Y-3965144D01*
X7521144Y-4035856D01*
X7591856Y-4035856D01*
X7591856Y-4289856D02*
X7591856Y-4219144D01*
X7521144Y-4219144D01*
X7521144Y-4289856D01*
X7591856Y-4289856D01*
X5334000Y-5521000D02*
X5394000Y-5461000D01*
X5334000Y-5401000D01*
X5274000Y-5461000D01*
X5334000Y-5521000D01*
X5334000Y-5521000D02*
X5394000Y-5461000D01*
X5334000Y-5401000D01*
X5274000Y-5461000D01*
X5334000Y-5521000D01*
X5334000Y-7426000D02*
X5394000Y-7366000D01*
X5334000Y-7306000D01*
X5274000Y-7366000D01*
X5334000Y-7426000D01*
X5334000Y-7426000D02*
X5394000Y-7366000D01*
X5334000Y-7306000D01*
X5274000Y-7366000D01*
X5334000Y-7426000D01*
X5461000Y-5267000D02*
X5521000Y-5207000D01*
X5461000Y-5147000D01*
X5401000Y-5207000D01*
X5461000Y-5267000D01*
X5461000Y-7172000D02*
X5521000Y-7112000D01*
X5461000Y-7052000D01*
X5401000Y-7112000D01*
X5461000Y-7172000D01*
X5969000Y-5267000D02*
X6029000Y-5207000D01*
X5969000Y-5147000D01*
X5909000Y-5207000D01*
X5969000Y-5267000D01*
X5969000Y-5267000D02*
X6029000Y-5207000D01*
X5969000Y-5147000D01*
X5909000Y-5207000D01*
X5969000Y-5267000D01*
X5969000Y-7172000D02*
X6029000Y-7112000D01*
X5969000Y-7052000D01*
X5909000Y-7112000D01*
X5969000Y-7172000D01*
X5969000Y-7172000D02*
X6029000Y-7112000D01*
X5969000Y-7052000D01*
X5909000Y-7112000D01*
X5969000Y-7172000D01*
X6096000Y-5521000D02*
X6156000Y-5461000D01*
X6096000Y-5401000D01*
X6036000Y-5461000D01*
X6096000Y-5521000D01*
X6096000Y-7426000D02*
X6156000Y-7366000D01*
X6096000Y-7306000D01*
X6036000Y-7366000D01*
X6096000Y-7426000D01*
X7239000Y-5521000D02*
X7299000Y-5461000D01*
X7239000Y-5401000D01*
X7179000Y-5461000D01*
X7239000Y-5521000D01*
X7239000Y-5521000D02*
X7299000Y-5461000D01*
X7239000Y-5401000D01*
X7179000Y-5461000D01*
X7239000Y-5521000D01*
X7239000Y-7426000D02*
X7299000Y-7366000D01*
X7239000Y-7306000D01*
X7179000Y-7366000D01*
X7239000Y-7426000D01*
X7239000Y-7426000D02*
X7299000Y-7366000D01*
X7239000Y-7306000D01*
X7179000Y-7366000D01*
X7239000Y-7426000D01*
X7366000Y-5267000D02*
X7426000Y-5207000D01*
X7366000Y-5147000D01*
X7306000Y-5207000D01*
X7366000Y-5267000D01*
X7366000Y-7172000D02*
X7426000Y-7112000D01*
X7366000Y-7052000D01*
X7306000Y-7112000D01*
X7366000Y-7172000D01*
X7874000Y-5267000D02*
X7934000Y-5207000D01*
X7874000Y-5147000D01*
X7814000Y-5207000D01*
X7874000Y-5267000D01*
X7874000Y-5267000D02*
X7934000Y-5207000D01*
X7874000Y-5147000D01*
X7814000Y-5207000D01*
X7874000Y-5267000D01*
X7874000Y-7172000D02*
X7934000Y-7112000D01*
X7874000Y-7052000D01*
X7814000Y-7112000D01*
X7874000Y-7172000D01*
X7874000Y-7172000D02*
X7934000Y-7112000D01*
X7874000Y-7052000D01*
X7814000Y-7112000D01*
X7874000Y-7172000D01*
X8001000Y-5521000D02*
X8061000Y-5461000D01*
X8001000Y-5401000D01*
X7941000Y-5461000D01*
X8001000Y-5521000D01*
X8001000Y-7426000D02*
X8061000Y-7366000D01*
X8001000Y-7306000D01*
X7941000Y-7366000D01*
X8001000Y-7426000D01*
D12*
X4979428Y-9107714D02*
X4979428Y-8807714D01*
X5050857Y-8807714D01*
X5093714Y-8822000D01*
X5122286Y-8850572D01*
X5136571Y-8879143D01*
X5150857Y-8936286D01*
X5150857Y-8979143D01*
X5136571Y-9036286D01*
X5122286Y-9064857D01*
X5093714Y-9093429D01*
X5050857Y-9107714D01*
X4979428Y-9107714D01*
X5279428Y-9107714D02*
X5279428Y-8907714D01*
X5279428Y-8964857D02*
X5293714Y-8936286D01*
X5308000Y-8922000D01*
X5336571Y-8907714D01*
X5365143Y-8907714D01*
X5465143Y-9107714D02*
X5465143Y-8907714D01*
X5465143Y-8807714D02*
X5450857Y-8822000D01*
X5465143Y-8836286D01*
X5479428Y-8822000D01*
X5465143Y-8807714D01*
X5465143Y-8836286D01*
X5650857Y-9107714D02*
X5622286Y-9093429D01*
X5608000Y-9064857D01*
X5608000Y-8807714D01*
X5808000Y-9107714D02*
X5779428Y-9093429D01*
X5765143Y-9064857D01*
X5765143Y-8807714D01*
X6150857Y-9107714D02*
X6150857Y-8807714D01*
X6250857Y-9022000D01*
X6350857Y-8807714D01*
X6350857Y-9107714D01*
X6622286Y-9107714D02*
X6622286Y-8950572D01*
X6608000Y-8922000D01*
X6579428Y-8907714D01*
X6522286Y-8907714D01*
X6493714Y-8922000D01*
X6622286Y-9093429D02*
X6593714Y-9107714D01*
X6522286Y-9107714D01*
X6493714Y-9093429D01*
X6479428Y-9064857D01*
X6479428Y-9036286D01*
X6493714Y-9007714D01*
X6522286Y-8993429D01*
X6593714Y-8993429D01*
X6622286Y-8979143D01*
X6765143Y-8907714D02*
X6765143Y-9207714D01*
X6765143Y-8922000D02*
X6793714Y-8907714D01*
X6850857Y-8907714D01*
X6879428Y-8922000D01*
X6893714Y-8936286D01*
X6908000Y-8964857D01*
X6908000Y-9050572D01*
X6893714Y-9079143D01*
X6879428Y-9093429D01*
X6850857Y-9107714D01*
X6793714Y-9107714D01*
X6765143Y-9093429D01*
X7036571Y-9079143D02*
X7050857Y-9093429D01*
X7036571Y-9107714D01*
X7022286Y-9093429D01*
X7036571Y-9079143D01*
X7036571Y-9107714D01*
X7036571Y-8922000D02*
X7050857Y-8936286D01*
X7036571Y-8950572D01*
X7022286Y-8936286D01*
X7036571Y-8922000D01*
X7036571Y-8950572D01*
X4663000Y-9587000D02*
X4693000Y-9617000D01*
X4693000Y-9587000D02*
X4663000Y-9617000D01*
X5036571Y-9437714D02*
X5065143Y-9437714D01*
X5093714Y-9452000D01*
X5108000Y-9466286D01*
X5122286Y-9494857D01*
X5136571Y-9552000D01*
X5136571Y-9623429D01*
X5122286Y-9680572D01*
X5108000Y-9709143D01*
X5093714Y-9723429D01*
X5065143Y-9737714D01*
X5036571Y-9737714D01*
X5008000Y-9723429D01*
X4993714Y-9709143D01*
X4979428Y-9680572D01*
X4965143Y-9623429D01*
X4965143Y-9552000D01*
X4979428Y-9494857D01*
X4993714Y-9466286D01*
X5008000Y-9452000D01*
X5036571Y-9437714D01*
X5265143Y-9709143D02*
X5279428Y-9723429D01*
X5265143Y-9737714D01*
X5250857Y-9723429D01*
X5265143Y-9709143D01*
X5265143Y-9737714D01*
X5379428Y-9437714D02*
X5565143Y-9437714D01*
X5465143Y-9552000D01*
X5508000Y-9552000D01*
X5536571Y-9566286D01*
X5550857Y-9580572D01*
X5565143Y-9609143D01*
X5565143Y-9680572D01*
X5550857Y-9709143D01*
X5536571Y-9723429D01*
X5508000Y-9737714D01*
X5422286Y-9737714D01*
X5393714Y-9723429D01*
X5379428Y-9709143D01*
X5750857Y-9437714D02*
X5779428Y-9437714D01*
X5808000Y-9452000D01*
X5822286Y-9466286D01*
X5836571Y-9494857D01*
X5850857Y-9552000D01*
X5850857Y-9623429D01*
X5836571Y-9680572D01*
X5822286Y-9709143D01*
X5808000Y-9723429D01*
X5779428Y-9737714D01*
X5750857Y-9737714D01*
X5722286Y-9723429D01*
X5708000Y-9709143D01*
X5693714Y-9680572D01*
X5679428Y-9623429D01*
X5679428Y-9552000D01*
X5693714Y-9494857D01*
X5708000Y-9466286D01*
X5722286Y-9452000D01*
X5750857Y-9437714D01*
X6036571Y-9437714D02*
X6065143Y-9437714D01*
X6093714Y-9452000D01*
X6108000Y-9466286D01*
X6122286Y-9494857D01*
X6136571Y-9552000D01*
X6136571Y-9623429D01*
X6122286Y-9680572D01*
X6108000Y-9709143D01*
X6093714Y-9723429D01*
X6065143Y-9737714D01*
X6036571Y-9737714D01*
X6008000Y-9723429D01*
X5993714Y-9709143D01*
X5979428Y-9680572D01*
X5965143Y-9623429D01*
X5965143Y-9552000D01*
X5979428Y-9494857D01*
X5993714Y-9466286D01*
X6008000Y-9452000D01*
X6036571Y-9437714D01*
X6265143Y-9737714D02*
X6265143Y-9537714D01*
X6265143Y-9566286D02*
X6279428Y-9552000D01*
X6308000Y-9537714D01*
X6350857Y-9537714D01*
X6379428Y-9552000D01*
X6393714Y-9580572D01*
X6393714Y-9737714D01*
X6393714Y-9580572D02*
X6408000Y-9552000D01*
X6436571Y-9537714D01*
X6479428Y-9537714D01*
X6508000Y-9552000D01*
X6522286Y-9580572D01*
X6522286Y-9737714D01*
X6665143Y-9737714D02*
X6665143Y-9537714D01*
X6665143Y-9566286D02*
X6679428Y-9552000D01*
X6708000Y-9537714D01*
X6750857Y-9537714D01*
X6779428Y-9552000D01*
X6793714Y-9580572D01*
X6793714Y-9737714D01*
X6793714Y-9580572D02*
X6808000Y-9552000D01*
X6836571Y-9537714D01*
X6879428Y-9537714D01*
X6908000Y-9552000D01*
X6922286Y-9580572D01*
X6922286Y-9737714D01*
X7508000Y-9423429D02*
X7250857Y-9809143D01*
X7893714Y-9437714D02*
X7922286Y-9437714D01*
X7950857Y-9452000D01*
X7965143Y-9466286D01*
X7979428Y-9494857D01*
X7993714Y-9552000D01*
X7993714Y-9623429D01*
X7979428Y-9680572D01*
X7965143Y-9709143D01*
X7950857Y-9723429D01*
X7922286Y-9737714D01*
X7893714Y-9737714D01*
X7865143Y-9723429D01*
X7850857Y-9709143D01*
X7836571Y-9680572D01*
X7822286Y-9623429D01*
X7822286Y-9552000D01*
X7836571Y-9494857D01*
X7850857Y-9466286D01*
X7865143Y-9452000D01*
X7893714Y-9437714D01*
X8122286Y-9709143D02*
X8136571Y-9723429D01*
X8122286Y-9737714D01*
X8108000Y-9723429D01*
X8122286Y-9709143D01*
X8122286Y-9737714D01*
X8322286Y-9437714D02*
X8350857Y-9437714D01*
X8379428Y-9452000D01*
X8393714Y-9466286D01*
X8408000Y-9494857D01*
X8422286Y-9552000D01*
X8422286Y-9623429D01*
X8408000Y-9680572D01*
X8393714Y-9709143D01*
X8379428Y-9723429D01*
X8350857Y-9737714D01*
X8322286Y-9737714D01*
X8293714Y-9723429D01*
X8279428Y-9709143D01*
X8265143Y-9680572D01*
X8250857Y-9623429D01*
X8250857Y-9552000D01*
X8265143Y-9494857D01*
X8279428Y-9466286D01*
X8293714Y-9452000D01*
X8322286Y-9437714D01*
X8708000Y-9737714D02*
X8536571Y-9737714D01*
X8622286Y-9737714D02*
X8622286Y-9437714D01*
X8593714Y-9480572D01*
X8565143Y-9509143D01*
X8536571Y-9523429D01*
X8993714Y-9737714D02*
X8822286Y-9737714D01*
X8908000Y-9737714D02*
X8908000Y-9437714D01*
X8879428Y-9480572D01*
X8850857Y-9509143D01*
X8822286Y-9523429D01*
X9165143Y-9566286D02*
X9136571Y-9552000D01*
X9122286Y-9537714D01*
X9108000Y-9509143D01*
X9108000Y-9494857D01*
X9122286Y-9466286D01*
X9136571Y-9452000D01*
X9165143Y-9437714D01*
X9222286Y-9437714D01*
X9250857Y-9452000D01*
X9265143Y-9466286D01*
X9279428Y-9494857D01*
X9279428Y-9509143D01*
X9265143Y-9537714D01*
X9250857Y-9552000D01*
X9222286Y-9566286D01*
X9165143Y-9566286D01*
X9136571Y-9580572D01*
X9122286Y-9594857D01*
X9108000Y-9623429D01*
X9108000Y-9680572D01*
X9122286Y-9709143D01*
X9136571Y-9723429D01*
X9165143Y-9737714D01*
X9222286Y-9737714D01*
X9250857Y-9723429D01*
X9265143Y-9709143D01*
X9279428Y-9680572D01*
X9279428Y-9623429D01*
X9265143Y-9594857D01*
X9250857Y-9580572D01*
X9222286Y-9566286D01*
X9393714Y-9437714D02*
X9393714Y-9494857D01*
X9508000Y-9437714D02*
X9508000Y-9494857D01*
X9950857Y-9852000D02*
X9936571Y-9837714D01*
X9908000Y-9794857D01*
X9893714Y-9766286D01*
X9879428Y-9723429D01*
X9865143Y-9652000D01*
X9865143Y-9594857D01*
X9879428Y-9523429D01*
X9893714Y-9480572D01*
X9908000Y-9452000D01*
X9936571Y-9409143D01*
X9950857Y-9394857D01*
X10122286Y-9437714D02*
X10150857Y-9437714D01*
X10179428Y-9452000D01*
X10193714Y-9466286D01*
X10208000Y-9494857D01*
X10222286Y-9552000D01*
X10222286Y-9623429D01*
X10208000Y-9680572D01*
X10193714Y-9709143D01*
X10179428Y-9723429D01*
X10150857Y-9737714D01*
X10122286Y-9737714D01*
X10093714Y-9723429D01*
X10079428Y-9709143D01*
X10065143Y-9680572D01*
X10050857Y-9623429D01*
X10050857Y-9552000D01*
X10065143Y-9494857D01*
X10079428Y-9466286D01*
X10093714Y-9452000D01*
X10122286Y-9437714D01*
X10579428Y-9737714D02*
X10579428Y-9437714D01*
X10708000Y-9737714D02*
X10708000Y-9580572D01*
X10693714Y-9552000D01*
X10665143Y-9537714D01*
X10622286Y-9537714D01*
X10593714Y-9552000D01*
X10579428Y-9566286D01*
X10893714Y-9737714D02*
X10865143Y-9723429D01*
X10850857Y-9709143D01*
X10836571Y-9680572D01*
X10836571Y-9594857D01*
X10850857Y-9566286D01*
X10865143Y-9552000D01*
X10893714Y-9537714D01*
X10936571Y-9537714D01*
X10965143Y-9552000D01*
X10979428Y-9566286D01*
X10993714Y-9594857D01*
X10993714Y-9680572D01*
X10979428Y-9709143D01*
X10965143Y-9723429D01*
X10936571Y-9737714D01*
X10893714Y-9737714D01*
X11165143Y-9737714D02*
X11136571Y-9723429D01*
X11122286Y-9694857D01*
X11122286Y-9437714D01*
X11393714Y-9723429D02*
X11365143Y-9737714D01*
X11308000Y-9737714D01*
X11279428Y-9723429D01*
X11265143Y-9694857D01*
X11265143Y-9580572D01*
X11279428Y-9552000D01*
X11308000Y-9537714D01*
X11365143Y-9537714D01*
X11393714Y-9552000D01*
X11408000Y-9580572D01*
X11408000Y-9609143D01*
X11265143Y-9637714D01*
X11522286Y-9723429D02*
X11550857Y-9737714D01*
X11608000Y-9737714D01*
X11636571Y-9723429D01*
X11650857Y-9694857D01*
X11650857Y-9680572D01*
X11636571Y-9652000D01*
X11608000Y-9637714D01*
X11565143Y-9637714D01*
X11536571Y-9623429D01*
X11522286Y-9594857D01*
X11522286Y-9580572D01*
X11536571Y-9552000D01*
X11565143Y-9537714D01*
X11608000Y-9537714D01*
X11636571Y-9552000D01*
X12008000Y-9623429D02*
X12236571Y-9623429D01*
X12122286Y-9737714D02*
X12122286Y-9509143D01*
X12765143Y-9737714D02*
X12593714Y-9737714D01*
X12679428Y-9737714D02*
X12679428Y-9437714D01*
X12650857Y-9480572D01*
X12622286Y-9509143D01*
X12593714Y-9523429D01*
X13022286Y-9437714D02*
X12965143Y-9437714D01*
X12936571Y-9452000D01*
X12922286Y-9466286D01*
X12893714Y-9509143D01*
X12879428Y-9566286D01*
X12879428Y-9680572D01*
X12893714Y-9709143D01*
X12908000Y-9723429D01*
X12936571Y-9737714D01*
X12993714Y-9737714D01*
X13022286Y-9723429D01*
X13036571Y-9709143D01*
X13050857Y-9680572D01*
X13050857Y-9609143D01*
X13036571Y-9580572D01*
X13022286Y-9566286D01*
X12993714Y-9552000D01*
X12936571Y-9552000D01*
X12908000Y-9566286D01*
X12893714Y-9580572D01*
X12879428Y-9609143D01*
X13393714Y-9723429D02*
X13422286Y-9737714D01*
X13479428Y-9737714D01*
X13508000Y-9723429D01*
X13522286Y-9694857D01*
X13522286Y-9680572D01*
X13508000Y-9652000D01*
X13479428Y-9637714D01*
X13436571Y-9637714D01*
X13408000Y-9623429D01*
X13393714Y-9594857D01*
X13393714Y-9580572D01*
X13408000Y-9552000D01*
X13436571Y-9537714D01*
X13479428Y-9537714D01*
X13508000Y-9552000D01*
X13693714Y-9737714D02*
X13665143Y-9723429D01*
X13650857Y-9694857D01*
X13650857Y-9437714D01*
X13850857Y-9737714D02*
X13822286Y-9723429D01*
X13808000Y-9709143D01*
X13793714Y-9680572D01*
X13793714Y-9594857D01*
X13808000Y-9566286D01*
X13822286Y-9552000D01*
X13850857Y-9537714D01*
X13893714Y-9537714D01*
X13922286Y-9552000D01*
X13936571Y-9566286D01*
X13950857Y-9594857D01*
X13950857Y-9680572D01*
X13936571Y-9709143D01*
X13922286Y-9723429D01*
X13893714Y-9737714D01*
X13850857Y-9737714D01*
X14036571Y-9537714D02*
X14150857Y-9537714D01*
X14079428Y-9437714D02*
X14079428Y-9694857D01*
X14093714Y-9723429D01*
X14122286Y-9737714D01*
X14150857Y-9737714D01*
X14236571Y-9723429D02*
X14265143Y-9737714D01*
X14322286Y-9737714D01*
X14350857Y-9723429D01*
X14365143Y-9694857D01*
X14365143Y-9680572D01*
X14350857Y-9652000D01*
X14322286Y-9637714D01*
X14279428Y-9637714D01*
X14250857Y-9623429D01*
X14236571Y-9594857D01*
X14236571Y-9580572D01*
X14250857Y-9552000D01*
X14279428Y-9537714D01*
X14322286Y-9537714D01*
X14350857Y-9552000D01*
X14465143Y-9852000D02*
X14479428Y-9837714D01*
X14508000Y-9794857D01*
X14522286Y-9766286D01*
X14536571Y-9723429D01*
X14550857Y-9652000D01*
X14550857Y-9594857D01*
X14536571Y-9523429D01*
X14522286Y-9480572D01*
X14508000Y-9452000D01*
X14479428Y-9409143D01*
X14465143Y-9394857D01*
X4693000Y-9998000D02*
G75*
G03*
X4693000Y-9998000I-20000J0D01*
G01*
X5036571Y-9833714D02*
X5065143Y-9833714D01*
X5093714Y-9848000D01*
X5108000Y-9862286D01*
X5122286Y-9890857D01*
X5136571Y-9948000D01*
X5136571Y-10019429D01*
X5122286Y-10076572D01*
X5108000Y-10105143D01*
X5093714Y-10119429D01*
X5065143Y-10133714D01*
X5036571Y-10133714D01*
X5008000Y-10119429D01*
X4993714Y-10105143D01*
X4979428Y-10076572D01*
X4965143Y-10019429D01*
X4965143Y-9948000D01*
X4979428Y-9890857D01*
X4993714Y-9862286D01*
X5008000Y-9848000D01*
X5036571Y-9833714D01*
X5265143Y-10105143D02*
X5279428Y-10119429D01*
X5265143Y-10133714D01*
X5250857Y-10119429D01*
X5265143Y-10105143D01*
X5265143Y-10133714D01*
X5536571Y-9933714D02*
X5536571Y-10133714D01*
X5465143Y-9819429D02*
X5393714Y-10033714D01*
X5579428Y-10033714D01*
X5750857Y-9833714D02*
X5779428Y-9833714D01*
X5808000Y-9848000D01*
X5822286Y-9862286D01*
X5836571Y-9890857D01*
X5850857Y-9948000D01*
X5850857Y-10019429D01*
X5836571Y-10076572D01*
X5822286Y-10105143D01*
X5808000Y-10119429D01*
X5779428Y-10133714D01*
X5750857Y-10133714D01*
X5722286Y-10119429D01*
X5708000Y-10105143D01*
X5693714Y-10076572D01*
X5679428Y-10019429D01*
X5679428Y-9948000D01*
X5693714Y-9890857D01*
X5708000Y-9862286D01*
X5722286Y-9848000D01*
X5750857Y-9833714D01*
X6036571Y-9833714D02*
X6065143Y-9833714D01*
X6093714Y-9848000D01*
X6108000Y-9862286D01*
X6122286Y-9890857D01*
X6136571Y-9948000D01*
X6136571Y-10019429D01*
X6122286Y-10076572D01*
X6108000Y-10105143D01*
X6093714Y-10119429D01*
X6065143Y-10133714D01*
X6036571Y-10133714D01*
X6008000Y-10119429D01*
X5993714Y-10105143D01*
X5979428Y-10076572D01*
X5965143Y-10019429D01*
X5965143Y-9948000D01*
X5979428Y-9890857D01*
X5993714Y-9862286D01*
X6008000Y-9848000D01*
X6036571Y-9833714D01*
X6265143Y-10133714D02*
X6265143Y-9933714D01*
X6265143Y-9962286D02*
X6279428Y-9948000D01*
X6308000Y-9933714D01*
X6350857Y-9933714D01*
X6379428Y-9948000D01*
X6393714Y-9976572D01*
X6393714Y-10133714D01*
X6393714Y-9976572D02*
X6408000Y-9948000D01*
X6436571Y-9933714D01*
X6479428Y-9933714D01*
X6508000Y-9948000D01*
X6522286Y-9976572D01*
X6522286Y-10133714D01*
X6665143Y-10133714D02*
X6665143Y-9933714D01*
X6665143Y-9962286D02*
X6679428Y-9948000D01*
X6708000Y-9933714D01*
X6750857Y-9933714D01*
X6779428Y-9948000D01*
X6793714Y-9976572D01*
X6793714Y-10133714D01*
X6793714Y-9976572D02*
X6808000Y-9948000D01*
X6836571Y-9933714D01*
X6879428Y-9933714D01*
X6908000Y-9948000D01*
X6922286Y-9976572D01*
X6922286Y-10133714D01*
X7508000Y-9819429D02*
X7250857Y-10205143D01*
X7893714Y-9833714D02*
X7922286Y-9833714D01*
X7950857Y-9848000D01*
X7965143Y-9862286D01*
X7979428Y-9890857D01*
X7993714Y-9948000D01*
X7993714Y-10019429D01*
X7979428Y-10076572D01*
X7965143Y-10105143D01*
X7950857Y-10119429D01*
X7922286Y-10133714D01*
X7893714Y-10133714D01*
X7865143Y-10119429D01*
X7850857Y-10105143D01*
X7836571Y-10076572D01*
X7822286Y-10019429D01*
X7822286Y-9948000D01*
X7836571Y-9890857D01*
X7850857Y-9862286D01*
X7865143Y-9848000D01*
X7893714Y-9833714D01*
X8122286Y-10105143D02*
X8136571Y-10119429D01*
X8122286Y-10133714D01*
X8108000Y-10119429D01*
X8122286Y-10105143D01*
X8122286Y-10133714D01*
X8322286Y-9833714D02*
X8350857Y-9833714D01*
X8379428Y-9848000D01*
X8393714Y-9862286D01*
X8408000Y-9890857D01*
X8422286Y-9948000D01*
X8422286Y-10019429D01*
X8408000Y-10076572D01*
X8393714Y-10105143D01*
X8379428Y-10119429D01*
X8350857Y-10133714D01*
X8322286Y-10133714D01*
X8293714Y-10119429D01*
X8279428Y-10105143D01*
X8265143Y-10076572D01*
X8250857Y-10019429D01*
X8250857Y-9948000D01*
X8265143Y-9890857D01*
X8279428Y-9862286D01*
X8293714Y-9848000D01*
X8322286Y-9833714D01*
X8708000Y-10133714D02*
X8536571Y-10133714D01*
X8622286Y-10133714D02*
X8622286Y-9833714D01*
X8593714Y-9876572D01*
X8565143Y-9905143D01*
X8536571Y-9919429D01*
X8979428Y-9833714D02*
X8836571Y-9833714D01*
X8822286Y-9976572D01*
X8836571Y-9962286D01*
X8865143Y-9948000D01*
X8936571Y-9948000D01*
X8965143Y-9962286D01*
X8979428Y-9976572D01*
X8993714Y-10005143D01*
X8993714Y-10076572D01*
X8979428Y-10105143D01*
X8965143Y-10119429D01*
X8936571Y-10133714D01*
X8865143Y-10133714D01*
X8836571Y-10119429D01*
X8822286Y-10105143D01*
X9093714Y-9833714D02*
X9293714Y-9833714D01*
X9165143Y-10133714D01*
X9393714Y-9833714D02*
X9393714Y-9890857D01*
X9508000Y-9833714D02*
X9508000Y-9890857D01*
X9950857Y-10248000D02*
X9936571Y-10233714D01*
X9908000Y-10190857D01*
X9893714Y-10162286D01*
X9879428Y-10119429D01*
X9865143Y-10048000D01*
X9865143Y-9990857D01*
X9879428Y-9919429D01*
X9893714Y-9876572D01*
X9908000Y-9848000D01*
X9936571Y-9805143D01*
X9950857Y-9790857D01*
X10108000Y-9962286D02*
X10079428Y-9948000D01*
X10065143Y-9933714D01*
X10050857Y-9905143D01*
X10050857Y-9890857D01*
X10065143Y-9862286D01*
X10079428Y-9848000D01*
X10108000Y-9833714D01*
X10165143Y-9833714D01*
X10193714Y-9848000D01*
X10208000Y-9862286D01*
X10222286Y-9890857D01*
X10222286Y-9905143D01*
X10208000Y-9933714D01*
X10193714Y-9948000D01*
X10165143Y-9962286D01*
X10108000Y-9962286D01*
X10079428Y-9976572D01*
X10065143Y-9990857D01*
X10050857Y-10019429D01*
X10050857Y-10076572D01*
X10065143Y-10105143D01*
X10079428Y-10119429D01*
X10108000Y-10133714D01*
X10165143Y-10133714D01*
X10193714Y-10119429D01*
X10208000Y-10105143D01*
X10222286Y-10076572D01*
X10222286Y-10019429D01*
X10208000Y-9990857D01*
X10193714Y-9976572D01*
X10165143Y-9962286D01*
X10579428Y-10133714D02*
X10579428Y-9833714D01*
X10708000Y-10133714D02*
X10708000Y-9976572D01*
X10693714Y-9948000D01*
X10665143Y-9933714D01*
X10622286Y-9933714D01*
X10593714Y-9948000D01*
X10579428Y-9962286D01*
X10893714Y-10133714D02*
X10865143Y-10119429D01*
X10850857Y-10105143D01*
X10836571Y-10076572D01*
X10836571Y-9990857D01*
X10850857Y-9962286D01*
X10865143Y-9948000D01*
X10893714Y-9933714D01*
X10936571Y-9933714D01*
X10965143Y-9948000D01*
X10979428Y-9962286D01*
X10993714Y-9990857D01*
X10993714Y-10076572D01*
X10979428Y-10105143D01*
X10965143Y-10119429D01*
X10936571Y-10133714D01*
X10893714Y-10133714D01*
X11165143Y-10133714D02*
X11136571Y-10119429D01*
X11122286Y-10090857D01*
X11122286Y-9833714D01*
X11393714Y-10119429D02*
X11365143Y-10133714D01*
X11308000Y-10133714D01*
X11279428Y-10119429D01*
X11265143Y-10090857D01*
X11265143Y-9976572D01*
X11279428Y-9948000D01*
X11308000Y-9933714D01*
X11365143Y-9933714D01*
X11393714Y-9948000D01*
X11408000Y-9976572D01*
X11408000Y-10005143D01*
X11265143Y-10033714D01*
X11522286Y-10119429D02*
X11550857Y-10133714D01*
X11608000Y-10133714D01*
X11636571Y-10119429D01*
X11650857Y-10090857D01*
X11650857Y-10076572D01*
X11636571Y-10048000D01*
X11608000Y-10033714D01*
X11565143Y-10033714D01*
X11536571Y-10019429D01*
X11522286Y-9990857D01*
X11522286Y-9976572D01*
X11536571Y-9948000D01*
X11565143Y-9933714D01*
X11608000Y-9933714D01*
X11636571Y-9948000D01*
X12008000Y-10019429D02*
X12236571Y-10019429D01*
X12122286Y-10133714D02*
X12122286Y-9905143D01*
X12765143Y-10133714D02*
X12593714Y-10133714D01*
X12679428Y-10133714D02*
X12679428Y-9833714D01*
X12650857Y-9876572D01*
X12622286Y-9905143D01*
X12593714Y-9919429D01*
X12879428Y-9862286D02*
X12893714Y-9848000D01*
X12922286Y-9833714D01*
X12993714Y-9833714D01*
X13022286Y-9848000D01*
X13036571Y-9862286D01*
X13050857Y-9890857D01*
X13050857Y-9919429D01*
X13036571Y-9962286D01*
X12865143Y-10133714D01*
X13050857Y-10133714D01*
X13393714Y-10119429D02*
X13422286Y-10133714D01*
X13479428Y-10133714D01*
X13508000Y-10119429D01*
X13522286Y-10090857D01*
X13522286Y-10076572D01*
X13508000Y-10048000D01*
X13479428Y-10033714D01*
X13436571Y-10033714D01*
X13408000Y-10019429D01*
X13393714Y-9990857D01*
X13393714Y-9976572D01*
X13408000Y-9948000D01*
X13436571Y-9933714D01*
X13479428Y-9933714D01*
X13508000Y-9948000D01*
X13693714Y-10133714D02*
X13665143Y-10119429D01*
X13650857Y-10090857D01*
X13650857Y-9833714D01*
X13850857Y-10133714D02*
X13822286Y-10119429D01*
X13808000Y-10105143D01*
X13793714Y-10076572D01*
X13793714Y-9990857D01*
X13808000Y-9962286D01*
X13822286Y-9948000D01*
X13850857Y-9933714D01*
X13893714Y-9933714D01*
X13922286Y-9948000D01*
X13936571Y-9962286D01*
X13950857Y-9990857D01*
X13950857Y-10076572D01*
X13936571Y-10105143D01*
X13922286Y-10119429D01*
X13893714Y-10133714D01*
X13850857Y-10133714D01*
X14036571Y-9933714D02*
X14150857Y-9933714D01*
X14079428Y-9833714D02*
X14079428Y-10090857D01*
X14093714Y-10119429D01*
X14122286Y-10133714D01*
X14150857Y-10133714D01*
X14236571Y-10119429D02*
X14265143Y-10133714D01*
X14322286Y-10133714D01*
X14350857Y-10119429D01*
X14365143Y-10090857D01*
X14365143Y-10076572D01*
X14350857Y-10048000D01*
X14322286Y-10033714D01*
X14279428Y-10033714D01*
X14250857Y-10019429D01*
X14236571Y-9990857D01*
X14236571Y-9976572D01*
X14250857Y-9948000D01*
X14279428Y-9933714D01*
X14322286Y-9933714D01*
X14350857Y-9948000D01*
X14465143Y-10248000D02*
X14479428Y-10233714D01*
X14508000Y-10190857D01*
X14522286Y-10162286D01*
X14536571Y-10119429D01*
X14550857Y-10048000D01*
X14550857Y-9990857D01*
X14536571Y-9919429D01*
X14522286Y-9876572D01*
X14508000Y-9848000D01*
X14479428Y-9805143D01*
X14465143Y-9790857D01*
X4652360Y-10353360D02*
X4652360Y-10434640D01*
X4611720Y-10394000D02*
X4693000Y-10394000D01*
X5036571Y-10229714D02*
X5065143Y-10229714D01*
X5093714Y-10244000D01*
X5108000Y-10258286D01*
X5122286Y-10286857D01*
X5136571Y-10344000D01*
X5136571Y-10415429D01*
X5122286Y-10472572D01*
X5108000Y-10501143D01*
X5093714Y-10515429D01*
X5065143Y-10529714D01*
X5036571Y-10529714D01*
X5008000Y-10515429D01*
X4993714Y-10501143D01*
X4979428Y-10472572D01*
X4965143Y-10415429D01*
X4965143Y-10344000D01*
X4979428Y-10286857D01*
X4993714Y-10258286D01*
X5008000Y-10244000D01*
X5036571Y-10229714D01*
X5265143Y-10501143D02*
X5279428Y-10515429D01*
X5265143Y-10529714D01*
X5250857Y-10515429D01*
X5265143Y-10501143D01*
X5265143Y-10529714D01*
X5450857Y-10358286D02*
X5422286Y-10344000D01*
X5408000Y-10329714D01*
X5393714Y-10301143D01*
X5393714Y-10286857D01*
X5408000Y-10258286D01*
X5422286Y-10244000D01*
X5450857Y-10229714D01*
X5508000Y-10229714D01*
X5536571Y-10244000D01*
X5550857Y-10258286D01*
X5565143Y-10286857D01*
X5565143Y-10301143D01*
X5550857Y-10329714D01*
X5536571Y-10344000D01*
X5508000Y-10358286D01*
X5450857Y-10358286D01*
X5422286Y-10372572D01*
X5408000Y-10386857D01*
X5393714Y-10415429D01*
X5393714Y-10472572D01*
X5408000Y-10501143D01*
X5422286Y-10515429D01*
X5450857Y-10529714D01*
X5508000Y-10529714D01*
X5536571Y-10515429D01*
X5550857Y-10501143D01*
X5565143Y-10472572D01*
X5565143Y-10415429D01*
X5550857Y-10386857D01*
X5536571Y-10372572D01*
X5508000Y-10358286D01*
X5850857Y-10529714D02*
X5679428Y-10529714D01*
X5765143Y-10529714D02*
X5765143Y-10229714D01*
X5736571Y-10272572D01*
X5708000Y-10301143D01*
X5679428Y-10315429D01*
X5950857Y-10229714D02*
X6136571Y-10229714D01*
X6036571Y-10344000D01*
X6079428Y-10344000D01*
X6108000Y-10358286D01*
X6122286Y-10372572D01*
X6136571Y-10401143D01*
X6136571Y-10472572D01*
X6122286Y-10501143D01*
X6108000Y-10515429D01*
X6079428Y-10529714D01*
X5993714Y-10529714D01*
X5965143Y-10515429D01*
X5950857Y-10501143D01*
X6265143Y-10529714D02*
X6265143Y-10329714D01*
X6265143Y-10358286D02*
X6279428Y-10344000D01*
X6308000Y-10329714D01*
X6350857Y-10329714D01*
X6379428Y-10344000D01*
X6393714Y-10372572D01*
X6393714Y-10529714D01*
X6393714Y-10372572D02*
X6408000Y-10344000D01*
X6436571Y-10329714D01*
X6479428Y-10329714D01*
X6508000Y-10344000D01*
X6522286Y-10372572D01*
X6522286Y-10529714D01*
X6665143Y-10529714D02*
X6665143Y-10329714D01*
X6665143Y-10358286D02*
X6679428Y-10344000D01*
X6708000Y-10329714D01*
X6750857Y-10329714D01*
X6779428Y-10344000D01*
X6793714Y-10372572D01*
X6793714Y-10529714D01*
X6793714Y-10372572D02*
X6808000Y-10344000D01*
X6836571Y-10329714D01*
X6879428Y-10329714D01*
X6908000Y-10344000D01*
X6922286Y-10372572D01*
X6922286Y-10529714D01*
X7508000Y-10215429D02*
X7250857Y-10601143D01*
X7893714Y-10229714D02*
X7922286Y-10229714D01*
X7950857Y-10244000D01*
X7965143Y-10258286D01*
X7979428Y-10286857D01*
X7993714Y-10344000D01*
X7993714Y-10415429D01*
X7979428Y-10472572D01*
X7965143Y-10501143D01*
X7950857Y-10515429D01*
X7922286Y-10529714D01*
X7893714Y-10529714D01*
X7865143Y-10515429D01*
X7850857Y-10501143D01*
X7836571Y-10472572D01*
X7822286Y-10415429D01*
X7822286Y-10344000D01*
X7836571Y-10286857D01*
X7850857Y-10258286D01*
X7865143Y-10244000D01*
X7893714Y-10229714D01*
X8122286Y-10501143D02*
X8136571Y-10515429D01*
X8122286Y-10529714D01*
X8108000Y-10515429D01*
X8122286Y-10501143D01*
X8122286Y-10529714D01*
X8322286Y-10229714D02*
X8350857Y-10229714D01*
X8379428Y-10244000D01*
X8393714Y-10258286D01*
X8408000Y-10286857D01*
X8422286Y-10344000D01*
X8422286Y-10415429D01*
X8408000Y-10472572D01*
X8393714Y-10501143D01*
X8379428Y-10515429D01*
X8350857Y-10529714D01*
X8322286Y-10529714D01*
X8293714Y-10515429D01*
X8279428Y-10501143D01*
X8265143Y-10472572D01*
X8250857Y-10415429D01*
X8250857Y-10344000D01*
X8265143Y-10286857D01*
X8279428Y-10258286D01*
X8293714Y-10244000D01*
X8322286Y-10229714D01*
X8522286Y-10229714D02*
X8708000Y-10229714D01*
X8608000Y-10344000D01*
X8650857Y-10344000D01*
X8679428Y-10358286D01*
X8693714Y-10372572D01*
X8708000Y-10401143D01*
X8708000Y-10472572D01*
X8693714Y-10501143D01*
X8679428Y-10515429D01*
X8650857Y-10529714D01*
X8565143Y-10529714D01*
X8536571Y-10515429D01*
X8522286Y-10501143D01*
X8822286Y-10258286D02*
X8836571Y-10244000D01*
X8865143Y-10229714D01*
X8936571Y-10229714D01*
X8965143Y-10244000D01*
X8979428Y-10258286D01*
X8993714Y-10286857D01*
X8993714Y-10315429D01*
X8979428Y-10358286D01*
X8808000Y-10529714D01*
X8993714Y-10529714D01*
X9179428Y-10229714D02*
X9208000Y-10229714D01*
X9236571Y-10244000D01*
X9250857Y-10258286D01*
X9265143Y-10286857D01*
X9279428Y-10344000D01*
X9279428Y-10415429D01*
X9265143Y-10472572D01*
X9250857Y-10501143D01*
X9236571Y-10515429D01*
X9208000Y-10529714D01*
X9179428Y-10529714D01*
X9150857Y-10515429D01*
X9136571Y-10501143D01*
X9122286Y-10472572D01*
X9108000Y-10415429D01*
X9108000Y-10344000D01*
X9122286Y-10286857D01*
X9136571Y-10258286D01*
X9150857Y-10244000D01*
X9179428Y-10229714D01*
X9393714Y-10229714D02*
X9393714Y-10286857D01*
X9508000Y-10229714D02*
X9508000Y-10286857D01*
X9950857Y-10644000D02*
X9936571Y-10629714D01*
X9908000Y-10586857D01*
X9893714Y-10558286D01*
X9879428Y-10515429D01*
X9865143Y-10444000D01*
X9865143Y-10386857D01*
X9879428Y-10315429D01*
X9893714Y-10272572D01*
X9908000Y-10244000D01*
X9936571Y-10201143D01*
X9950857Y-10186857D01*
X10193714Y-10329714D02*
X10193714Y-10529714D01*
X10122286Y-10215429D02*
X10050857Y-10429714D01*
X10236571Y-10429714D01*
X10579428Y-10529714D02*
X10579428Y-10229714D01*
X10708000Y-10529714D02*
X10708000Y-10372572D01*
X10693714Y-10344000D01*
X10665143Y-10329714D01*
X10622286Y-10329714D01*
X10593714Y-10344000D01*
X10579428Y-10358286D01*
X10893714Y-10529714D02*
X10865143Y-10515429D01*
X10850857Y-10501143D01*
X10836571Y-10472572D01*
X10836571Y-10386857D01*
X10850857Y-10358286D01*
X10865143Y-10344000D01*
X10893714Y-10329714D01*
X10936571Y-10329714D01*
X10965143Y-10344000D01*
X10979428Y-10358286D01*
X10993714Y-10386857D01*
X10993714Y-10472572D01*
X10979428Y-10501143D01*
X10965143Y-10515429D01*
X10936571Y-10529714D01*
X10893714Y-10529714D01*
X11165143Y-10529714D02*
X11136571Y-10515429D01*
X11122286Y-10486857D01*
X11122286Y-10229714D01*
X11393714Y-10515429D02*
X11365143Y-10529714D01*
X11308000Y-10529714D01*
X11279428Y-10515429D01*
X11265143Y-10486857D01*
X11265143Y-10372572D01*
X11279428Y-10344000D01*
X11308000Y-10329714D01*
X11365143Y-10329714D01*
X11393714Y-10344000D01*
X11408000Y-10372572D01*
X11408000Y-10401143D01*
X11265143Y-10429714D01*
X11522286Y-10515429D02*
X11550857Y-10529714D01*
X11608000Y-10529714D01*
X11636571Y-10515429D01*
X11650857Y-10486857D01*
X11650857Y-10472572D01*
X11636571Y-10444000D01*
X11608000Y-10429714D01*
X11565143Y-10429714D01*
X11536571Y-10415429D01*
X11522286Y-10386857D01*
X11522286Y-10372572D01*
X11536571Y-10344000D01*
X11565143Y-10329714D01*
X11608000Y-10329714D01*
X11636571Y-10344000D01*
X11750857Y-10644000D02*
X11765143Y-10629714D01*
X11793714Y-10586857D01*
X11808000Y-10558286D01*
X11822286Y-10515429D01*
X11836571Y-10444000D01*
X11836571Y-10386857D01*
X11822286Y-10315429D01*
X11808000Y-10272572D01*
X11793714Y-10244000D01*
X11765143Y-10201143D01*
X11750857Y-10186857D01*
X4678356Y-10825356D02*
X4678356Y-10754644D01*
X4607644Y-10754644D01*
X4607644Y-10825356D01*
X4678356Y-10825356D01*
X5136571Y-10925714D02*
X4965143Y-10925714D01*
X5050857Y-10925714D02*
X5050857Y-10625714D01*
X5022286Y-10668572D01*
X4993714Y-10697143D01*
X4965143Y-10711429D01*
X5265143Y-10897143D02*
X5279428Y-10911429D01*
X5265143Y-10925714D01*
X5250857Y-10911429D01*
X5265143Y-10897143D01*
X5265143Y-10925714D01*
X5465143Y-10625714D02*
X5493714Y-10625714D01*
X5522286Y-10640000D01*
X5536571Y-10654286D01*
X5550857Y-10682857D01*
X5565143Y-10740000D01*
X5565143Y-10811429D01*
X5550857Y-10868572D01*
X5536571Y-10897143D01*
X5522286Y-10911429D01*
X5493714Y-10925714D01*
X5465143Y-10925714D01*
X5436571Y-10911429D01*
X5422286Y-10897143D01*
X5408000Y-10868572D01*
X5393714Y-10811429D01*
X5393714Y-10740000D01*
X5408000Y-10682857D01*
X5422286Y-10654286D01*
X5436571Y-10640000D01*
X5465143Y-10625714D01*
X5750857Y-10625714D02*
X5779428Y-10625714D01*
X5808000Y-10640000D01*
X5822286Y-10654286D01*
X5836571Y-10682857D01*
X5850857Y-10740000D01*
X5850857Y-10811429D01*
X5836571Y-10868572D01*
X5822286Y-10897143D01*
X5808000Y-10911429D01*
X5779428Y-10925714D01*
X5750857Y-10925714D01*
X5722286Y-10911429D01*
X5708000Y-10897143D01*
X5693714Y-10868572D01*
X5679428Y-10811429D01*
X5679428Y-10740000D01*
X5693714Y-10682857D01*
X5708000Y-10654286D01*
X5722286Y-10640000D01*
X5750857Y-10625714D01*
X6036571Y-10625714D02*
X6065143Y-10625714D01*
X6093714Y-10640000D01*
X6108000Y-10654286D01*
X6122286Y-10682857D01*
X6136571Y-10740000D01*
X6136571Y-10811429D01*
X6122286Y-10868572D01*
X6108000Y-10897143D01*
X6093714Y-10911429D01*
X6065143Y-10925714D01*
X6036571Y-10925714D01*
X6008000Y-10911429D01*
X5993714Y-10897143D01*
X5979428Y-10868572D01*
X5965143Y-10811429D01*
X5965143Y-10740000D01*
X5979428Y-10682857D01*
X5993714Y-10654286D01*
X6008000Y-10640000D01*
X6036571Y-10625714D01*
X6265143Y-10925714D02*
X6265143Y-10725714D01*
X6265143Y-10754286D02*
X6279428Y-10740000D01*
X6308000Y-10725714D01*
X6350857Y-10725714D01*
X6379428Y-10740000D01*
X6393714Y-10768572D01*
X6393714Y-10925714D01*
X6393714Y-10768572D02*
X6408000Y-10740000D01*
X6436571Y-10725714D01*
X6479428Y-10725714D01*
X6508000Y-10740000D01*
X6522286Y-10768572D01*
X6522286Y-10925714D01*
X6665143Y-10925714D02*
X6665143Y-10725714D01*
X6665143Y-10754286D02*
X6679428Y-10740000D01*
X6708000Y-10725714D01*
X6750857Y-10725714D01*
X6779428Y-10740000D01*
X6793714Y-10768572D01*
X6793714Y-10925714D01*
X6793714Y-10768572D02*
X6808000Y-10740000D01*
X6836571Y-10725714D01*
X6879428Y-10725714D01*
X6908000Y-10740000D01*
X6922286Y-10768572D01*
X6922286Y-10925714D01*
X7508000Y-10611429D02*
X7250857Y-10997143D01*
X7893714Y-10625714D02*
X7922286Y-10625714D01*
X7950857Y-10640000D01*
X7965143Y-10654286D01*
X7979428Y-10682857D01*
X7993714Y-10740000D01*
X7993714Y-10811429D01*
X7979428Y-10868572D01*
X7965143Y-10897143D01*
X7950857Y-10911429D01*
X7922286Y-10925714D01*
X7893714Y-10925714D01*
X7865143Y-10911429D01*
X7850857Y-10897143D01*
X7836571Y-10868572D01*
X7822286Y-10811429D01*
X7822286Y-10740000D01*
X7836571Y-10682857D01*
X7850857Y-10654286D01*
X7865143Y-10640000D01*
X7893714Y-10625714D01*
X8122286Y-10897143D02*
X8136571Y-10911429D01*
X8122286Y-10925714D01*
X8108000Y-10911429D01*
X8122286Y-10897143D01*
X8122286Y-10925714D01*
X8322286Y-10625714D02*
X8350857Y-10625714D01*
X8379428Y-10640000D01*
X8393714Y-10654286D01*
X8408000Y-10682857D01*
X8422286Y-10740000D01*
X8422286Y-10811429D01*
X8408000Y-10868572D01*
X8393714Y-10897143D01*
X8379428Y-10911429D01*
X8350857Y-10925714D01*
X8322286Y-10925714D01*
X8293714Y-10911429D01*
X8279428Y-10897143D01*
X8265143Y-10868572D01*
X8250857Y-10811429D01*
X8250857Y-10740000D01*
X8265143Y-10682857D01*
X8279428Y-10654286D01*
X8293714Y-10640000D01*
X8322286Y-10625714D01*
X8522286Y-10625714D02*
X8708000Y-10625714D01*
X8608000Y-10740000D01*
X8650857Y-10740000D01*
X8679428Y-10754286D01*
X8693714Y-10768572D01*
X8708000Y-10797143D01*
X8708000Y-10868572D01*
X8693714Y-10897143D01*
X8679428Y-10911429D01*
X8650857Y-10925714D01*
X8565143Y-10925714D01*
X8536571Y-10911429D01*
X8522286Y-10897143D01*
X8850857Y-10925714D02*
X8908000Y-10925714D01*
X8936571Y-10911429D01*
X8950857Y-10897143D01*
X8979428Y-10854286D01*
X8993714Y-10797143D01*
X8993714Y-10682857D01*
X8979428Y-10654286D01*
X8965143Y-10640000D01*
X8936571Y-10625714D01*
X8879428Y-10625714D01*
X8850857Y-10640000D01*
X8836571Y-10654286D01*
X8822286Y-10682857D01*
X8822286Y-10754286D01*
X8836571Y-10782857D01*
X8850857Y-10797143D01*
X8879428Y-10811429D01*
X8936571Y-10811429D01*
X8965143Y-10797143D01*
X8979428Y-10782857D01*
X8993714Y-10754286D01*
X9250857Y-10725714D02*
X9250857Y-10925714D01*
X9179428Y-10611429D02*
X9108000Y-10825714D01*
X9293714Y-10825714D01*
X9393714Y-10625714D02*
X9393714Y-10682857D01*
X9508000Y-10625714D02*
X9508000Y-10682857D01*
X9950857Y-11040000D02*
X9936571Y-11025714D01*
X9908000Y-10982857D01*
X9893714Y-10954286D01*
X9879428Y-10911429D01*
X9865143Y-10840000D01*
X9865143Y-10782857D01*
X9879428Y-10711429D01*
X9893714Y-10668572D01*
X9908000Y-10640000D01*
X9936571Y-10597143D01*
X9950857Y-10582857D01*
X10222286Y-10925714D02*
X10050857Y-10925714D01*
X10136571Y-10925714D02*
X10136571Y-10625714D01*
X10108000Y-10668572D01*
X10079428Y-10697143D01*
X10050857Y-10711429D01*
X10479428Y-10625714D02*
X10422286Y-10625714D01*
X10393714Y-10640000D01*
X10379428Y-10654286D01*
X10350857Y-10697143D01*
X10336571Y-10754286D01*
X10336571Y-10868572D01*
X10350857Y-10897143D01*
X10365143Y-10911429D01*
X10393714Y-10925714D01*
X10450857Y-10925714D01*
X10479428Y-10911429D01*
X10493714Y-10897143D01*
X10508000Y-10868572D01*
X10508000Y-10797143D01*
X10493714Y-10768572D01*
X10479428Y-10754286D01*
X10450857Y-10740000D01*
X10393714Y-10740000D01*
X10365143Y-10754286D01*
X10350857Y-10768572D01*
X10336571Y-10797143D01*
X10865143Y-10925714D02*
X10865143Y-10625714D01*
X10993714Y-10925714D02*
X10993714Y-10768572D01*
X10979428Y-10740000D01*
X10950857Y-10725714D01*
X10908000Y-10725714D01*
X10879428Y-10740000D01*
X10865143Y-10754286D01*
X11179428Y-10925714D02*
X11150857Y-10911429D01*
X11136571Y-10897143D01*
X11122286Y-10868572D01*
X11122286Y-10782857D01*
X11136571Y-10754286D01*
X11150857Y-10740000D01*
X11179428Y-10725714D01*
X11222286Y-10725714D01*
X11250857Y-10740000D01*
X11265143Y-10754286D01*
X11279428Y-10782857D01*
X11279428Y-10868572D01*
X11265143Y-10897143D01*
X11250857Y-10911429D01*
X11222286Y-10925714D01*
X11179428Y-10925714D01*
X11450857Y-10925714D02*
X11422286Y-10911429D01*
X11408000Y-10882857D01*
X11408000Y-10625714D01*
X11679428Y-10911429D02*
X11650857Y-10925714D01*
X11593714Y-10925714D01*
X11565143Y-10911429D01*
X11550857Y-10882857D01*
X11550857Y-10768572D01*
X11565143Y-10740000D01*
X11593714Y-10725714D01*
X11650857Y-10725714D01*
X11679428Y-10740000D01*
X11693714Y-10768572D01*
X11693714Y-10797143D01*
X11550857Y-10825714D01*
X11808000Y-10911429D02*
X11836571Y-10925714D01*
X11893714Y-10925714D01*
X11922286Y-10911429D01*
X11936571Y-10882857D01*
X11936571Y-10868572D01*
X11922286Y-10840000D01*
X11893714Y-10825714D01*
X11850857Y-10825714D01*
X11822286Y-10811429D01*
X11808000Y-10782857D01*
X11808000Y-10768572D01*
X11822286Y-10740000D01*
X11850857Y-10725714D01*
X11893714Y-10725714D01*
X11922286Y-10740000D01*
X12036571Y-11040000D02*
X12050857Y-11025714D01*
X12079428Y-10982857D01*
X12093714Y-10954286D01*
X12108000Y-10911429D01*
X12122286Y-10840000D01*
X12122286Y-10782857D01*
X12108000Y-10711429D01*
X12093714Y-10668572D01*
X12079428Y-10640000D01*
X12050857Y-10597143D01*
X12036571Y-10582857D01*
X4633000Y-11246000D02*
X4693000Y-11186000D01*
X4633000Y-11126000D01*
X4573000Y-11186000D01*
X4633000Y-11246000D01*
X5136571Y-11321714D02*
X4965143Y-11321714D01*
X5050857Y-11321714D02*
X5050857Y-11021714D01*
X5022286Y-11064572D01*
X4993714Y-11093143D01*
X4965143Y-11107429D01*
X5265143Y-11293143D02*
X5279428Y-11307429D01*
X5265143Y-11321714D01*
X5250857Y-11307429D01*
X5265143Y-11293143D01*
X5265143Y-11321714D01*
X5393714Y-11050286D02*
X5408000Y-11036000D01*
X5436571Y-11021714D01*
X5508000Y-11021714D01*
X5536571Y-11036000D01*
X5550857Y-11050286D01*
X5565143Y-11078857D01*
X5565143Y-11107429D01*
X5550857Y-11150286D01*
X5379428Y-11321714D01*
X5565143Y-11321714D01*
X5750857Y-11021714D02*
X5779428Y-11021714D01*
X5808000Y-11036000D01*
X5822286Y-11050286D01*
X5836571Y-11078857D01*
X5850857Y-11136000D01*
X5850857Y-11207429D01*
X5836571Y-11264571D01*
X5822286Y-11293143D01*
X5808000Y-11307429D01*
X5779428Y-11321714D01*
X5750857Y-11321714D01*
X5722286Y-11307429D01*
X5708000Y-11293143D01*
X5693714Y-11264571D01*
X5679428Y-11207429D01*
X5679428Y-11136000D01*
X5693714Y-11078857D01*
X5708000Y-11050286D01*
X5722286Y-11036000D01*
X5750857Y-11021714D01*
X6036571Y-11021714D02*
X6065143Y-11021714D01*
X6093714Y-11036000D01*
X6108000Y-11050286D01*
X6122286Y-11078857D01*
X6136571Y-11136000D01*
X6136571Y-11207429D01*
X6122286Y-11264571D01*
X6108000Y-11293143D01*
X6093714Y-11307429D01*
X6065143Y-11321714D01*
X6036571Y-11321714D01*
X6008000Y-11307429D01*
X5993714Y-11293143D01*
X5979428Y-11264571D01*
X5965143Y-11207429D01*
X5965143Y-11136000D01*
X5979428Y-11078857D01*
X5993714Y-11050286D01*
X6008000Y-11036000D01*
X6036571Y-11021714D01*
X6265143Y-11321714D02*
X6265143Y-11121714D01*
X6265143Y-11150286D02*
X6279428Y-11136000D01*
X6308000Y-11121714D01*
X6350857Y-11121714D01*
X6379428Y-11136000D01*
X6393714Y-11164572D01*
X6393714Y-11321714D01*
X6393714Y-11164572D02*
X6408000Y-11136000D01*
X6436571Y-11121714D01*
X6479428Y-11121714D01*
X6508000Y-11136000D01*
X6522286Y-11164572D01*
X6522286Y-11321714D01*
X6665143Y-11321714D02*
X6665143Y-11121714D01*
X6665143Y-11150286D02*
X6679428Y-11136000D01*
X6708000Y-11121714D01*
X6750857Y-11121714D01*
X6779428Y-11136000D01*
X6793714Y-11164572D01*
X6793714Y-11321714D01*
X6793714Y-11164572D02*
X6808000Y-11136000D01*
X6836571Y-11121714D01*
X6879428Y-11121714D01*
X6908000Y-11136000D01*
X6922286Y-11164572D01*
X6922286Y-11321714D01*
X7508000Y-11007429D02*
X7250857Y-11393143D01*
X7893714Y-11021714D02*
X7922286Y-11021714D01*
X7950857Y-11036000D01*
X7965143Y-11050286D01*
X7979428Y-11078857D01*
X7993714Y-11136000D01*
X7993714Y-11207429D01*
X7979428Y-11264571D01*
X7965143Y-11293143D01*
X7950857Y-11307429D01*
X7922286Y-11321714D01*
X7893714Y-11321714D01*
X7865143Y-11307429D01*
X7850857Y-11293143D01*
X7836571Y-11264571D01*
X7822286Y-11207429D01*
X7822286Y-11136000D01*
X7836571Y-11078857D01*
X7850857Y-11050286D01*
X7865143Y-11036000D01*
X7893714Y-11021714D01*
X8122286Y-11293143D02*
X8136571Y-11307429D01*
X8122286Y-11321714D01*
X8108000Y-11307429D01*
X8122286Y-11293143D01*
X8122286Y-11321714D01*
X8322286Y-11021714D02*
X8350857Y-11021714D01*
X8379428Y-11036000D01*
X8393714Y-11050286D01*
X8408000Y-11078857D01*
X8422286Y-11136000D01*
X8422286Y-11207429D01*
X8408000Y-11264571D01*
X8393714Y-11293143D01*
X8379428Y-11307429D01*
X8350857Y-11321714D01*
X8322286Y-11321714D01*
X8293714Y-11307429D01*
X8279428Y-11293143D01*
X8265143Y-11264571D01*
X8250857Y-11207429D01*
X8250857Y-11136000D01*
X8265143Y-11078857D01*
X8279428Y-11050286D01*
X8293714Y-11036000D01*
X8322286Y-11021714D01*
X8679428Y-11121714D02*
X8679428Y-11321714D01*
X8608000Y-11007429D02*
X8536571Y-11221714D01*
X8722286Y-11221714D01*
X8808000Y-11021714D02*
X9008000Y-11021714D01*
X8879428Y-11321714D01*
X9108000Y-11050286D02*
X9122286Y-11036000D01*
X9150857Y-11021714D01*
X9222286Y-11021714D01*
X9250857Y-11036000D01*
X9265143Y-11050286D01*
X9279428Y-11078857D01*
X9279428Y-11107429D01*
X9265143Y-11150286D01*
X9093714Y-11321714D01*
X9279428Y-11321714D01*
X9393714Y-11021714D02*
X9393714Y-11078857D01*
X9508000Y-11021714D02*
X9508000Y-11078857D01*
X9950857Y-11436000D02*
X9936571Y-11421714D01*
X9908000Y-11378857D01*
X9893714Y-11350286D01*
X9879428Y-11307429D01*
X9865143Y-11236000D01*
X9865143Y-11178857D01*
X9879428Y-11107429D01*
X9893714Y-11064572D01*
X9908000Y-11036000D01*
X9936571Y-10993143D01*
X9950857Y-10978857D01*
X10050857Y-11050286D02*
X10065143Y-11036000D01*
X10093714Y-11021714D01*
X10165143Y-11021714D01*
X10193714Y-11036000D01*
X10208000Y-11050286D01*
X10222286Y-11078857D01*
X10222286Y-11107429D01*
X10208000Y-11150286D01*
X10036571Y-11321714D01*
X10222286Y-11321714D01*
X10479428Y-11121714D02*
X10479428Y-11321714D01*
X10408000Y-11007429D02*
X10336571Y-11221714D01*
X10522286Y-11221714D01*
X10865143Y-11321714D02*
X10865143Y-11021714D01*
X10993714Y-11321714D02*
X10993714Y-11164572D01*
X10979428Y-11136000D01*
X10950857Y-11121714D01*
X10908000Y-11121714D01*
X10879428Y-11136000D01*
X10865143Y-11150286D01*
X11179428Y-11321714D02*
X11150857Y-11307429D01*
X11136571Y-11293143D01*
X11122286Y-11264571D01*
X11122286Y-11178857D01*
X11136571Y-11150286D01*
X11150857Y-11136000D01*
X11179428Y-11121714D01*
X11222286Y-11121714D01*
X11250857Y-11136000D01*
X11265143Y-11150286D01*
X11279428Y-11178857D01*
X11279428Y-11264571D01*
X11265143Y-11293143D01*
X11250857Y-11307429D01*
X11222286Y-11321714D01*
X11179428Y-11321714D01*
X11450857Y-11321714D02*
X11422286Y-11307429D01*
X11408000Y-11278857D01*
X11408000Y-11021714D01*
X11679428Y-11307429D02*
X11650857Y-11321714D01*
X11593714Y-11321714D01*
X11565143Y-11307429D01*
X11550857Y-11278857D01*
X11550857Y-11164572D01*
X11565143Y-11136000D01*
X11593714Y-11121714D01*
X11650857Y-11121714D01*
X11679428Y-11136000D01*
X11693714Y-11164572D01*
X11693714Y-11193143D01*
X11550857Y-11221714D01*
X11808000Y-11307429D02*
X11836571Y-11321714D01*
X11893714Y-11321714D01*
X11922286Y-11307429D01*
X11936571Y-11278857D01*
X11936571Y-11264571D01*
X11922286Y-11236000D01*
X11893714Y-11221714D01*
X11850857Y-11221714D01*
X11822286Y-11207429D01*
X11808000Y-11178857D01*
X11808000Y-11164572D01*
X11822286Y-11136000D01*
X11850857Y-11121714D01*
X11893714Y-11121714D01*
X11922286Y-11136000D01*
X12036571Y-11436000D02*
X12050857Y-11421714D01*
X12079428Y-11378857D01*
X12093714Y-11350286D01*
X12108000Y-11307429D01*
X12122286Y-11236000D01*
X12122286Y-11178857D01*
X12108000Y-11107429D01*
X12093714Y-11064572D01*
X12079428Y-11036000D01*
X12050857Y-10993143D01*
X12036571Y-10978857D01*
M02*
