%TF.GenerationSoftware,KiCad,Pcbnew,(5.1.12-1-10_14)*%
%TF.CreationDate,2021-11-18T12:52:19+08:00*%
%TF.ProjectId,Pragmatic,50726167-6d61-4746-9963-2e6b69636164,0.1*%
%TF.SameCoordinates,Original*%
%TF.FileFunction,Legend,Top*%
%TF.FilePolarity,Positive*%
%FSLAX46Y46*%
G04 Gerber Fmt 4.6, Leading zero omitted, Abs format (unit mm)*
G04 Created by KiCad (PCBNEW (5.1.12-1-10_14)) date 2021-11-18 12:52:19*
%MOMM*%
%LPD*%
G01*
G04 APERTURE LIST*
%ADD10C,0.120000*%
%ADD11C,0.150000*%
%ADD12C,2.400000*%
%ADD13O,2.200000X1.600000*%
%ADD14C,4.900000*%
%ADD15C,1.800000*%
%ADD16O,2.200000X1.500000*%
%ADD17C,1.700000*%
%ADD18R,1.400000X1.000000*%
%ADD19C,1.397000*%
G04 APERTURE END LIST*
D10*
X87402936Y-43280000D02*
X87857064Y-43280000D01*
X87402936Y-41810000D02*
X87857064Y-41810000D01*
X85770000Y-40965000D02*
X88630000Y-40965000D01*
X85770000Y-39045000D02*
X85770000Y-40965000D01*
X88630000Y-39045000D02*
X85770000Y-39045000D01*
D11*
X78900000Y-67195000D02*
X73500000Y-67195000D01*
X73500000Y-68695000D02*
X78900000Y-68695000D01*
X78900000Y-68695000D02*
X78900000Y-67195000D01*
X73500000Y-68695000D02*
X73500000Y-67195000D01*
X75700000Y-68445000D02*
X75700000Y-67445000D01*
X75700000Y-67445000D02*
X76600000Y-67945000D01*
X76600000Y-67945000D02*
X75700000Y-68445000D01*
X76700000Y-68445000D02*
X76700000Y-67445000D01*
X59850000Y-67195000D02*
X54450000Y-67195000D01*
X54450000Y-68695000D02*
X59850000Y-68695000D01*
X59850000Y-68695000D02*
X59850000Y-67195000D01*
X54450000Y-68695000D02*
X54450000Y-67195000D01*
X56650000Y-68445000D02*
X56650000Y-67445000D01*
X56650000Y-67445000D02*
X57550000Y-67945000D01*
X57550000Y-67945000D02*
X56650000Y-68445000D01*
X57650000Y-68445000D02*
X57650000Y-67445000D01*
X78900000Y-48145000D02*
X73500000Y-48145000D01*
X73500000Y-49645000D02*
X78900000Y-49645000D01*
X78900000Y-49645000D02*
X78900000Y-48145000D01*
X73500000Y-49645000D02*
X73500000Y-48145000D01*
X75700000Y-49395000D02*
X75700000Y-48395000D01*
X75700000Y-48395000D02*
X76600000Y-48895000D01*
X76600000Y-48895000D02*
X75700000Y-49395000D01*
X76700000Y-49395000D02*
X76700000Y-48395000D01*
X59850000Y-48145000D02*
X54450000Y-48145000D01*
X54450000Y-49645000D02*
X59850000Y-49645000D01*
X59850000Y-49645000D02*
X59850000Y-48145000D01*
X54450000Y-49645000D02*
X54450000Y-48145000D01*
X56650000Y-49395000D02*
X56650000Y-48395000D01*
X56650000Y-48395000D02*
X57550000Y-48895000D01*
X57550000Y-48895000D02*
X56650000Y-49395000D01*
X57650000Y-49395000D02*
X57650000Y-48395000D01*
X93980000Y-36195000D02*
X93980000Y-46355000D01*
X96520000Y-36195000D02*
X96520000Y-46355000D01*
X96520000Y-46355000D02*
X93980000Y-46355000D01*
X93980000Y-36195000D02*
X96520000Y-36195000D01*
D10*
X52575000Y-45835000D02*
X52575000Y-36715000D01*
X52575000Y-36715000D02*
X80775000Y-36715000D01*
X80775000Y-36715000D02*
X80775000Y-45835000D01*
X80775000Y-45835000D02*
X52575000Y-45835000D01*
X64625000Y-45835000D02*
X64625000Y-44525000D01*
X64625000Y-44525000D02*
X53875000Y-44525000D01*
X53875000Y-44525000D02*
X53875000Y-38025000D01*
X53875000Y-38025000D02*
X79475000Y-38025000D01*
X79475000Y-38025000D02*
X79475000Y-44525000D01*
X79475000Y-44525000D02*
X68725000Y-44525000D01*
X68725000Y-44525000D02*
X68725000Y-44525000D01*
X68725000Y-44525000D02*
X68725000Y-45835000D01*
X57785000Y-46225000D02*
X57285000Y-47225000D01*
X57285000Y-47225000D02*
X58285000Y-47225000D01*
X58285000Y-47225000D02*
X57785000Y-46225000D01*
D11*
X87463333Y-41347380D02*
X87130000Y-40871190D01*
X86891904Y-41347380D02*
X86891904Y-40347380D01*
X87272857Y-40347380D01*
X87368095Y-40395000D01*
X87415714Y-40442619D01*
X87463333Y-40537857D01*
X87463333Y-40680714D01*
X87415714Y-40775952D01*
X87368095Y-40823571D01*
X87272857Y-40871190D01*
X86891904Y-40871190D01*
X88415714Y-41347380D02*
X87844285Y-41347380D01*
X88130000Y-41347380D02*
X88130000Y-40347380D01*
X88034761Y-40490238D01*
X87939523Y-40585476D01*
X87844285Y-40633095D01*
X86415714Y-38807380D02*
X86415714Y-37807380D01*
X86653809Y-37807380D01*
X86796666Y-37855000D01*
X86891904Y-37950238D01*
X86939523Y-38045476D01*
X86987142Y-38235952D01*
X86987142Y-38378809D01*
X86939523Y-38569285D01*
X86891904Y-38664523D01*
X86796666Y-38759761D01*
X86653809Y-38807380D01*
X86415714Y-38807380D01*
X87320476Y-37807380D02*
X87939523Y-37807380D01*
X87606190Y-38188333D01*
X87749047Y-38188333D01*
X87844285Y-38235952D01*
X87891904Y-38283571D01*
X87939523Y-38378809D01*
X87939523Y-38616904D01*
X87891904Y-38712142D01*
X87844285Y-38759761D01*
X87749047Y-38807380D01*
X87463333Y-38807380D01*
X87368095Y-38759761D01*
X87320476Y-38712142D01*
X88272857Y-37807380D02*
X88939523Y-37807380D01*
X88510952Y-38807380D01*
X96802380Y-42717380D02*
X96802380Y-42526904D01*
X96850000Y-42431666D01*
X96945238Y-42336428D01*
X97135714Y-42288809D01*
X97469047Y-42288809D01*
X97659523Y-42336428D01*
X97754761Y-42431666D01*
X97802380Y-42526904D01*
X97802380Y-42717380D01*
X97754761Y-42812619D01*
X97659523Y-42907857D01*
X97469047Y-42955476D01*
X97135714Y-42955476D01*
X96945238Y-42907857D01*
X96850000Y-42812619D01*
X96802380Y-42717380D01*
X97802380Y-41384047D02*
X97802380Y-41860238D01*
X96802380Y-41860238D01*
X97278571Y-41050714D02*
X97278571Y-40717380D01*
X97802380Y-40574523D02*
X97802380Y-41050714D01*
X96802380Y-41050714D01*
X96802380Y-40574523D01*
X97802380Y-40145952D02*
X96802380Y-40145952D01*
X96802380Y-39907857D01*
X96850000Y-39765000D01*
X96945238Y-39669761D01*
X97040476Y-39622142D01*
X97230952Y-39574523D01*
X97373809Y-39574523D01*
X97564285Y-39622142D01*
X97659523Y-39669761D01*
X97754761Y-39765000D01*
X97802380Y-39907857D01*
X97802380Y-40145952D01*
X51137380Y-41608333D02*
X51851666Y-41608333D01*
X51994523Y-41655952D01*
X52089761Y-41751190D01*
X52137380Y-41894047D01*
X52137380Y-41989285D01*
X52137380Y-40608333D02*
X52137380Y-41179761D01*
X52137380Y-40894047D02*
X51137380Y-40894047D01*
X51280238Y-40989285D01*
X51375476Y-41084523D01*
X51423095Y-41179761D01*
%LPC*%
D12*
X80010000Y-73660000D03*
D13*
X81300000Y-80100000D03*
G36*
G01*
X70100043Y-70640401D02*
X70100043Y-70640401D01*
G75*
G02*
X70856559Y-69896975I749971J-6545D01*
G01*
X73756447Y-69922281D01*
G75*
G02*
X74499873Y-70678797I-6545J-749971D01*
G01*
X74499873Y-70678797D01*
G75*
G02*
X73743357Y-71422223I-749971J6545D01*
G01*
X70843469Y-71396917D01*
G75*
G02*
X70100043Y-70640401I6545J749971D01*
G01*
G37*
D12*
X73660000Y-71120000D03*
D14*
X76200000Y-76200000D03*
D15*
X70700000Y-76200000D03*
X81700000Y-76200000D03*
D16*
X76200000Y-82100000D03*
D17*
X81280000Y-76200000D03*
X71120000Y-76200000D03*
G36*
G01*
X88030000Y-42995001D02*
X88030000Y-42094999D01*
G75*
G02*
X88279999Y-41845000I249999J0D01*
G01*
X88980001Y-41845000D01*
G75*
G02*
X89230000Y-42094999I0J-249999D01*
G01*
X89230000Y-42995001D01*
G75*
G02*
X88980001Y-43245000I-249999J0D01*
G01*
X88279999Y-43245000D01*
G75*
G02*
X88030000Y-42995001I0J249999D01*
G01*
G37*
G36*
G01*
X86030000Y-42995001D02*
X86030000Y-42094999D01*
G75*
G02*
X86279999Y-41845000I249999J0D01*
G01*
X86980001Y-41845000D01*
G75*
G02*
X87230000Y-42094999I0J-249999D01*
G01*
X87230000Y-42995001D01*
G75*
G02*
X86980001Y-43245000I-249999J0D01*
G01*
X86279999Y-43245000D01*
G75*
G02*
X86030000Y-42995001I0J249999D01*
G01*
G37*
G36*
G01*
X88080000Y-40455001D02*
X88080000Y-39554999D01*
G75*
G02*
X88329999Y-39305000I249999J0D01*
G01*
X88980001Y-39305000D01*
G75*
G02*
X89230000Y-39554999I0J-249999D01*
G01*
X89230000Y-40455001D01*
G75*
G02*
X88980001Y-40705000I-249999J0D01*
G01*
X88329999Y-40705000D01*
G75*
G02*
X88080000Y-40455001I0J249999D01*
G01*
G37*
G36*
G01*
X86030000Y-40455001D02*
X86030000Y-39554999D01*
G75*
G02*
X86279999Y-39305000I249999J0D01*
G01*
X86930001Y-39305000D01*
G75*
G02*
X87180000Y-39554999I0J-249999D01*
G01*
X87180000Y-40455001D01*
G75*
G02*
X86930001Y-40705000I-249999J0D01*
G01*
X86279999Y-40705000D01*
G75*
G02*
X86030000Y-40455001I0J249999D01*
G01*
G37*
D12*
X60960000Y-73660000D03*
D13*
X62250000Y-80100000D03*
G36*
G01*
X51050043Y-70640401D02*
X51050043Y-70640401D01*
G75*
G02*
X51806559Y-69896975I749971J-6545D01*
G01*
X54706447Y-69922281D01*
G75*
G02*
X55449873Y-70678797I-6545J-749971D01*
G01*
X55449873Y-70678797D01*
G75*
G02*
X54693357Y-71422223I-749971J6545D01*
G01*
X51793469Y-71396917D01*
G75*
G02*
X51050043Y-70640401I6545J749971D01*
G01*
G37*
D12*
X54610000Y-71120000D03*
D14*
X57150000Y-76200000D03*
D15*
X51650000Y-76200000D03*
X62650000Y-76200000D03*
D16*
X57150000Y-82100000D03*
D17*
X62230000Y-76200000D03*
X52070000Y-76200000D03*
D12*
X80010000Y-54610000D03*
D13*
X81300000Y-61050000D03*
G36*
G01*
X70100043Y-51590401D02*
X70100043Y-51590401D01*
G75*
G02*
X70856559Y-50846975I749971J-6545D01*
G01*
X73756447Y-50872281D01*
G75*
G02*
X74499873Y-51628797I-6545J-749971D01*
G01*
X74499873Y-51628797D01*
G75*
G02*
X73743357Y-52372223I-749971J6545D01*
G01*
X70843469Y-52346917D01*
G75*
G02*
X70100043Y-51590401I6545J749971D01*
G01*
G37*
D12*
X73660000Y-52070000D03*
D14*
X76200000Y-57150000D03*
D15*
X70700000Y-57150000D03*
X81700000Y-57150000D03*
D16*
X76200000Y-63050000D03*
D17*
X81280000Y-57150000D03*
X71120000Y-57150000D03*
D12*
X60960000Y-54610000D03*
D13*
X62250000Y-61050000D03*
G36*
G01*
X51050043Y-51590401D02*
X51050043Y-51590401D01*
G75*
G02*
X51806559Y-50846975I749971J-6545D01*
G01*
X54706447Y-50872281D01*
G75*
G02*
X55449873Y-51628797I-6545J-749971D01*
G01*
X55449873Y-51628797D01*
G75*
G02*
X54693357Y-52372223I-749971J6545D01*
G01*
X51793469Y-52346917D01*
G75*
G02*
X51050043Y-51590401I6545J749971D01*
G01*
G37*
D12*
X54610000Y-52070000D03*
D14*
X57150000Y-57150000D03*
D15*
X51650000Y-57150000D03*
X62650000Y-57150000D03*
D16*
X57150000Y-63050000D03*
D17*
X62230000Y-57150000D03*
X52070000Y-57150000D03*
D18*
X74425000Y-67945000D03*
X77975000Y-67945000D03*
X55375000Y-67945000D03*
X58925000Y-67945000D03*
X74425000Y-48895000D03*
X77975000Y-48895000D03*
X55375000Y-48895000D03*
X58925000Y-48895000D03*
D19*
X95250000Y-45085000D03*
X95250000Y-42545000D03*
X95250000Y-40005000D03*
X95250000Y-37465000D03*
D17*
X75565000Y-40005000D03*
X73025000Y-40005000D03*
X70485000Y-40005000D03*
X67945000Y-40005000D03*
X65405000Y-40005000D03*
X62865000Y-40005000D03*
X60325000Y-40005000D03*
X57785000Y-40005000D03*
X75565000Y-42545000D03*
X73025000Y-42545000D03*
X70485000Y-42545000D03*
X67945000Y-42545000D03*
X65405000Y-42545000D03*
X62865000Y-42545000D03*
X60325000Y-42545000D03*
G36*
G01*
X58385000Y-43395000D02*
X57185000Y-43395000D01*
G75*
G02*
X56935000Y-43145000I0J250000D01*
G01*
X56935000Y-41945000D01*
G75*
G02*
X57185000Y-41695000I250000J0D01*
G01*
X58385000Y-41695000D01*
G75*
G02*
X58635000Y-41945000I0J-250000D01*
G01*
X58635000Y-43145000D01*
G75*
G02*
X58385000Y-43395000I-250000J0D01*
G01*
G37*
M02*
