%TF.GenerationSoftware,KiCad,Pcbnew,(5.1.12-1-10_14)*%
%TF.CreationDate,2021-11-18T12:52:19+08:00*%
%TF.ProjectId,Pragmatic,50726167-6d61-4746-9963-2e6b69636164,0.1*%
%TF.SameCoordinates,Original*%
%TF.FileFunction,Legend,Bot*%
%TF.FilePolarity,Positive*%
%FSLAX46Y46*%
G04 Gerber Fmt 4.6, Leading zero omitted, Abs format (unit mm)*
G04 Created by KiCad (PCBNEW (5.1.12-1-10_14)) date 2021-11-18 12:52:19*
%MOMM*%
%LPD*%
G01*
G04 APERTURE LIST*
%ADD10C,0.120000*%
%ADD11C,0.150000*%
%ADD12C,2.400000*%
%ADD13O,2.200000X1.600000*%
%ADD14C,4.900000*%
%ADD15C,1.800000*%
%ADD16O,2.200000X1.500000*%
%ADD17C,1.700000*%
%ADD18R,1.400000X1.000000*%
%ADD19C,1.397000*%
G04 APERTURE END LIST*
D10*
X87402936Y-43280000D02*
X87857064Y-43280000D01*
X87402936Y-41810000D02*
X87857064Y-41810000D01*
X85770000Y-40965000D02*
X88630000Y-40965000D01*
X85770000Y-39045000D02*
X85770000Y-40965000D01*
X88630000Y-39045000D02*
X85770000Y-39045000D01*
D11*
X76600000Y-67945000D02*
X75700000Y-67445000D01*
X76700000Y-67445000D02*
X76700000Y-68445000D01*
X78900000Y-67195000D02*
X78900000Y-68695000D01*
X73500000Y-67195000D02*
X73500000Y-68695000D01*
X75700000Y-67445000D02*
X75700000Y-68445000D01*
X75700000Y-68445000D02*
X76600000Y-67945000D01*
X78900000Y-68695000D02*
X73500000Y-68695000D01*
X73500000Y-67195000D02*
X78900000Y-67195000D01*
X57550000Y-67945000D02*
X56650000Y-67445000D01*
X57650000Y-67445000D02*
X57650000Y-68445000D01*
X59850000Y-67195000D02*
X59850000Y-68695000D01*
X54450000Y-67195000D02*
X54450000Y-68695000D01*
X56650000Y-67445000D02*
X56650000Y-68445000D01*
X56650000Y-68445000D02*
X57550000Y-67945000D01*
X59850000Y-68695000D02*
X54450000Y-68695000D01*
X54450000Y-67195000D02*
X59850000Y-67195000D01*
X76600000Y-48895000D02*
X75700000Y-48395000D01*
X76700000Y-48395000D02*
X76700000Y-49395000D01*
X78900000Y-48145000D02*
X78900000Y-49645000D01*
X73500000Y-48145000D02*
X73500000Y-49645000D01*
X75700000Y-48395000D02*
X75700000Y-49395000D01*
X75700000Y-49395000D02*
X76600000Y-48895000D01*
X78900000Y-49645000D02*
X73500000Y-49645000D01*
X73500000Y-48145000D02*
X78900000Y-48145000D01*
X57550000Y-48895000D02*
X56650000Y-48395000D01*
X57650000Y-48395000D02*
X57650000Y-49395000D01*
X59850000Y-48145000D02*
X59850000Y-49645000D01*
X54450000Y-48145000D02*
X54450000Y-49645000D01*
X56650000Y-48395000D02*
X56650000Y-49395000D01*
X56650000Y-49395000D02*
X57550000Y-48895000D01*
X59850000Y-49645000D02*
X54450000Y-49645000D01*
X54450000Y-48145000D02*
X59850000Y-48145000D01*
X96520000Y-36195000D02*
X96520000Y-46355000D01*
X96520000Y-46355000D02*
X93980000Y-46355000D01*
X93980000Y-46355000D02*
X93980000Y-36195000D01*
X93980000Y-36195000D02*
X96520000Y-36195000D01*
X96802380Y-39762619D02*
X96802380Y-39953095D01*
X96850000Y-40048333D01*
X96945238Y-40143571D01*
X97135714Y-40191190D01*
X97469047Y-40191190D01*
X97659523Y-40143571D01*
X97754761Y-40048333D01*
X97802380Y-39953095D01*
X97802380Y-39762619D01*
X97754761Y-39667380D01*
X97659523Y-39572142D01*
X97469047Y-39524523D01*
X97135714Y-39524523D01*
X96945238Y-39572142D01*
X96850000Y-39667380D01*
X96802380Y-39762619D01*
X97802380Y-41095952D02*
X97802380Y-40619761D01*
X96802380Y-40619761D01*
X97278571Y-41429285D02*
X97278571Y-41762619D01*
X97802380Y-41905476D02*
X97802380Y-41429285D01*
X96802380Y-41429285D01*
X96802380Y-41905476D01*
X97802380Y-42334047D02*
X96802380Y-42334047D01*
X96802380Y-42572142D01*
X96850000Y-42715000D01*
X96945238Y-42810238D01*
X97040476Y-42857857D01*
X97230952Y-42905476D01*
X97373809Y-42905476D01*
X97564285Y-42857857D01*
X97659523Y-42810238D01*
X97754761Y-42715000D01*
X97802380Y-42572142D01*
X97802380Y-42334047D01*
%LPC*%
D12*
X72390000Y-73660000D03*
D13*
X71100000Y-80100000D03*
G36*
G01*
X77900126Y-70678797D02*
X77900126Y-70678797D01*
G75*
G02*
X78643552Y-69922281I749971J6545D01*
G01*
X81543442Y-69896975D01*
G75*
G02*
X82299958Y-70640401I6545J-749971D01*
G01*
X82299958Y-70640401D01*
G75*
G02*
X81556532Y-71396917I-749971J-6545D01*
G01*
X78656642Y-71422223D01*
G75*
G02*
X77900126Y-70678797I-6545J749971D01*
G01*
G37*
D12*
X78740000Y-71120000D03*
X78740000Y-71120000D03*
G36*
G01*
X77900126Y-70678797D02*
X77900126Y-70678797D01*
G75*
G02*
X78643552Y-69922281I749971J6545D01*
G01*
X81543442Y-69896975D01*
G75*
G02*
X82299958Y-70640401I6545J-749971D01*
G01*
X82299958Y-70640401D01*
G75*
G02*
X81556532Y-71396917I-749971J-6545D01*
G01*
X78656642Y-71422223D01*
G75*
G02*
X77900126Y-70678797I-6545J749971D01*
G01*
G37*
D13*
X71100000Y-80100000D03*
D14*
X76200000Y-76200000D03*
D15*
X70700000Y-76200000D03*
X81700000Y-76200000D03*
D16*
X76200000Y-82100000D03*
D12*
X72390000Y-73660000D03*
D17*
X81280000Y-76200000D03*
X71120000Y-76200000D03*
G36*
G01*
X86030000Y-42995400D02*
X86030000Y-42094600D01*
G75*
G02*
X86279600Y-41845000I249600J0D01*
G01*
X86980400Y-41845000D01*
G75*
G02*
X87230000Y-42094600I0J-249600D01*
G01*
X87230000Y-42995400D01*
G75*
G02*
X86980400Y-43245000I-249600J0D01*
G01*
X86279600Y-43245000D01*
G75*
G02*
X86030000Y-42995400I0J249600D01*
G01*
G37*
G36*
G01*
X88030000Y-42995400D02*
X88030000Y-42094600D01*
G75*
G02*
X88279600Y-41845000I249600J0D01*
G01*
X88980400Y-41845000D01*
G75*
G02*
X89230000Y-42094600I0J-249600D01*
G01*
X89230000Y-42995400D01*
G75*
G02*
X88980400Y-43245000I-249600J0D01*
G01*
X88279600Y-43245000D01*
G75*
G02*
X88030000Y-42995400I0J249600D01*
G01*
G37*
G36*
G01*
X88080000Y-40455450D02*
X88080000Y-39554550D01*
G75*
G02*
X88329550Y-39305000I249550J0D01*
G01*
X88980450Y-39305000D01*
G75*
G02*
X89230000Y-39554550I0J-249550D01*
G01*
X89230000Y-40455450D01*
G75*
G02*
X88980450Y-40705000I-249550J0D01*
G01*
X88329550Y-40705000D01*
G75*
G02*
X88080000Y-40455450I0J249550D01*
G01*
G37*
G36*
G01*
X86030000Y-40455450D02*
X86030000Y-39554550D01*
G75*
G02*
X86279550Y-39305000I249550J0D01*
G01*
X86930450Y-39305000D01*
G75*
G02*
X87180000Y-39554550I0J-249550D01*
G01*
X87180000Y-40455450D01*
G75*
G02*
X86930450Y-40705000I-249550J0D01*
G01*
X86279550Y-40705000D01*
G75*
G02*
X86030000Y-40455450I0J249550D01*
G01*
G37*
D12*
X53340000Y-73660000D03*
D13*
X52050000Y-80100000D03*
G36*
G01*
X58850126Y-70678797D02*
X58850126Y-70678797D01*
G75*
G02*
X59593552Y-69922281I749971J6545D01*
G01*
X62493442Y-69896975D01*
G75*
G02*
X63249958Y-70640401I6545J-749971D01*
G01*
X63249958Y-70640401D01*
G75*
G02*
X62506532Y-71396917I-749971J-6545D01*
G01*
X59606642Y-71422223D01*
G75*
G02*
X58850126Y-70678797I-6545J749971D01*
G01*
G37*
D12*
X59690000Y-71120000D03*
X59690000Y-71120000D03*
G36*
G01*
X58850126Y-70678797D02*
X58850126Y-70678797D01*
G75*
G02*
X59593552Y-69922281I749971J6545D01*
G01*
X62493442Y-69896975D01*
G75*
G02*
X63249958Y-70640401I6545J-749971D01*
G01*
X63249958Y-70640401D01*
G75*
G02*
X62506532Y-71396917I-749971J-6545D01*
G01*
X59606642Y-71422223D01*
G75*
G02*
X58850126Y-70678797I-6545J749971D01*
G01*
G37*
D13*
X52050000Y-80100000D03*
D14*
X57150000Y-76200000D03*
D15*
X51650000Y-76200000D03*
X62650000Y-76200000D03*
D16*
X57150000Y-82100000D03*
D12*
X53340000Y-73660000D03*
D17*
X62230000Y-76200000D03*
X52070000Y-76200000D03*
D12*
X72390000Y-54610000D03*
D13*
X71100000Y-61050000D03*
G36*
G01*
X77900126Y-51628797D02*
X77900126Y-51628797D01*
G75*
G02*
X78643552Y-50872281I749971J6545D01*
G01*
X81543442Y-50846975D01*
G75*
G02*
X82299958Y-51590401I6545J-749971D01*
G01*
X82299958Y-51590401D01*
G75*
G02*
X81556532Y-52346917I-749971J-6545D01*
G01*
X78656642Y-52372223D01*
G75*
G02*
X77900126Y-51628797I-6545J749971D01*
G01*
G37*
D12*
X78740000Y-52070000D03*
X78740000Y-52070000D03*
G36*
G01*
X77900126Y-51628797D02*
X77900126Y-51628797D01*
G75*
G02*
X78643552Y-50872281I749971J6545D01*
G01*
X81543442Y-50846975D01*
G75*
G02*
X82299958Y-51590401I6545J-749971D01*
G01*
X82299958Y-51590401D01*
G75*
G02*
X81556532Y-52346917I-749971J-6545D01*
G01*
X78656642Y-52372223D01*
G75*
G02*
X77900126Y-51628797I-6545J749971D01*
G01*
G37*
D13*
X71100000Y-61050000D03*
D14*
X76200000Y-57150000D03*
D15*
X70700000Y-57150000D03*
X81700000Y-57150000D03*
D16*
X76200000Y-63050000D03*
D12*
X72390000Y-54610000D03*
D17*
X81280000Y-57150000D03*
X71120000Y-57150000D03*
D12*
X53340000Y-54610000D03*
D13*
X52050000Y-61050000D03*
G36*
G01*
X58850126Y-51628797D02*
X58850126Y-51628797D01*
G75*
G02*
X59593552Y-50872281I749971J6545D01*
G01*
X62493442Y-50846975D01*
G75*
G02*
X63249958Y-51590401I6545J-749971D01*
G01*
X63249958Y-51590401D01*
G75*
G02*
X62506532Y-52346917I-749971J-6545D01*
G01*
X59606642Y-52372223D01*
G75*
G02*
X58850126Y-51628797I-6545J749971D01*
G01*
G37*
D12*
X59690000Y-52070000D03*
X59690000Y-52070000D03*
G36*
G01*
X58850126Y-51628797D02*
X58850126Y-51628797D01*
G75*
G02*
X59593552Y-50872281I749971J6545D01*
G01*
X62493442Y-50846975D01*
G75*
G02*
X63249958Y-51590401I6545J-749971D01*
G01*
X63249958Y-51590401D01*
G75*
G02*
X62506532Y-52346917I-749971J-6545D01*
G01*
X59606642Y-52372223D01*
G75*
G02*
X58850126Y-51628797I-6545J749971D01*
G01*
G37*
D13*
X52050000Y-61050000D03*
D14*
X57150000Y-57150000D03*
D15*
X51650000Y-57150000D03*
X62650000Y-57150000D03*
D16*
X57150000Y-63050000D03*
D12*
X53340000Y-54610000D03*
D17*
X62230000Y-57150000D03*
X52070000Y-57150000D03*
D18*
X74425000Y-67945000D03*
X77975000Y-67945000D03*
X55375000Y-67945000D03*
X58925000Y-67945000D03*
X74425000Y-48895000D03*
X77975000Y-48895000D03*
X55375000Y-48895000D03*
X58925000Y-48895000D03*
D19*
X95250000Y-45085000D03*
X95250000Y-42545000D03*
X95250000Y-40005000D03*
X95250000Y-37465000D03*
D17*
X75565000Y-40005000D03*
X73025000Y-40005000D03*
X70485000Y-40005000D03*
X67945000Y-40005000D03*
X65405000Y-40005000D03*
X62865000Y-40005000D03*
X60325000Y-40005000D03*
X57785000Y-40005000D03*
X75565000Y-42545000D03*
X73025000Y-42545000D03*
X70485000Y-42545000D03*
X67945000Y-42545000D03*
X65405000Y-42545000D03*
X62865000Y-42545000D03*
X60325000Y-42545000D03*
G36*
G01*
X58385000Y-43395000D02*
X57185000Y-43395000D01*
G75*
G02*
X56935000Y-43145000I0J250000D01*
G01*
X56935000Y-41945000D01*
G75*
G02*
X57185000Y-41695000I250000J0D01*
G01*
X58385000Y-41695000D01*
G75*
G02*
X58635000Y-41945000I0J-250000D01*
G01*
X58635000Y-43145000D01*
G75*
G02*
X58385000Y-43395000I-250000J0D01*
G01*
G37*
M02*
