%TF.GenerationSoftware,KiCad,Pcbnew,(6.0.10-0)*%
%TF.CreationDate,2023-01-12T22:41:03+08:00*%
%TF.ProjectId,Control,436f6e74-726f-46c2-9e6b-696361645f70,V3.2.2*%
%TF.SameCoordinates,PX7df6180PY32de760*%
%TF.FileFunction,Soldermask,Bot*%
%TF.FilePolarity,Negative*%
%FSLAX46Y46*%
G04 Gerber Fmt 4.6, Leading zero omitted, Abs format (unit mm)*
G04 Created by KiCad (PCBNEW (6.0.10-0)) date 2023-01-12 22:41:03*
%MOMM*%
%LPD*%
G01*
G04 APERTURE LIST*
G04 Aperture macros list*
%AMRoundRect*
0 Rectangle with rounded corners*
0 $1 Rounding radius*
0 $2 $3 $4 $5 $6 $7 $8 $9 X,Y pos of 4 corners*
0 Add a 4 corners polygon primitive as box body*
4,1,4,$2,$3,$4,$5,$6,$7,$8,$9,$2,$3,0*
0 Add four circle primitives for the rounded corners*
1,1,$1+$1,$2,$3*
1,1,$1+$1,$4,$5*
1,1,$1+$1,$6,$7*
1,1,$1+$1,$8,$9*
0 Add four rect primitives between the rounded corners*
20,1,$1+$1,$2,$3,$4,$5,0*
20,1,$1+$1,$4,$5,$6,$7,0*
20,1,$1+$1,$6,$7,$8,$9,0*
20,1,$1+$1,$8,$9,$2,$3,0*%
G04 Aperture macros list end*
%ADD10C,1.700000*%
%ADD11R,1.700000X1.700000*%
%ADD12RoundRect,0.250000X-0.600000X-0.600000X0.600000X-0.600000X0.600000X0.600000X-0.600000X0.600000X0*%
%ADD13RoundRect,0.250000X0.600000X0.600000X-0.600000X0.600000X-0.600000X-0.600000X0.600000X-0.600000X0*%
%ADD14C,2.000000*%
G04 APERTURE END LIST*
D10*
%TO.C,U1*%
X0Y0D03*
X0Y-2540000D03*
X0Y-5080000D03*
X0Y-7620000D03*
X0Y-10160000D03*
X0Y-12700000D03*
X0Y-15240000D03*
X0Y-17780000D03*
X0Y-20320000D03*
X0Y-22860000D03*
X0Y-25400000D03*
X0Y-27940000D03*
X15240000Y-27940000D03*
X15240000Y-25400000D03*
X15240000Y-22860000D03*
X15240000Y-20320000D03*
X15240000Y-17780000D03*
X15240000Y-15240000D03*
X15240000Y-12700000D03*
X15240000Y-10160000D03*
X15240000Y-7620000D03*
X15240000Y-5080000D03*
X15240000Y-2540000D03*
D11*
X15240000Y0D03*
%TD*%
D12*
%TO.C,J1*%
X-10160000Y-8890000D03*
D10*
X-7620000Y-8890000D03*
X-10160000Y-11430000D03*
X-7620000Y-11430000D03*
X-10160000Y-13970000D03*
X-7620000Y-13970000D03*
X-10160000Y-16510000D03*
X-7620000Y-16510000D03*
X-10160000Y-19050000D03*
X-7620000Y-19050000D03*
X-10160000Y-21590000D03*
X-7620000Y-21590000D03*
X-10160000Y-24130000D03*
X-7620000Y-24130000D03*
%TD*%
D13*
%TO.C,J2*%
X25400000Y-24130000D03*
D10*
X22860000Y-24130000D03*
X25400000Y-21590000D03*
X22860000Y-21590000D03*
X25400000Y-19050000D03*
X22860000Y-19050000D03*
X25400000Y-16510000D03*
X22860000Y-16510000D03*
X25400000Y-13970000D03*
X22860000Y-13970000D03*
X25400000Y-11430000D03*
X22860000Y-11430000D03*
X25400000Y-8890000D03*
X22860000Y-8890000D03*
%TD*%
D14*
%TO.C,SW1*%
X-10945000Y3230000D03*
X-10945000Y-1270000D03*
X-4445000Y3230000D03*
X-4445000Y-1270000D03*
%TD*%
M02*
