%TF.GenerationSoftware,KiCad,Pcbnew,(6.0.10-0)*%
%TF.CreationDate,2023-01-12T22:41:03+08:00*%
%TF.ProjectId,Control,436f6e74-726f-46c2-9e6b-696361645f70,V3.2.2*%
%TF.SameCoordinates,PX7df6180PY32de760*%
%TF.FileFunction,Copper,L2,Bot*%
%TF.FilePolarity,Positive*%
%FSLAX46Y46*%
G04 Gerber Fmt 4.6, Leading zero omitted, Abs format (unit mm)*
G04 Created by KiCad (PCBNEW (6.0.10-0)) date 2023-01-12 22:41:03*
%MOMM*%
%LPD*%
G01*
G04 APERTURE LIST*
G04 Aperture macros list*
%AMRoundRect*
0 Rectangle with rounded corners*
0 $1 Rounding radius*
0 $2 $3 $4 $5 $6 $7 $8 $9 X,Y pos of 4 corners*
0 Add a 4 corners polygon primitive as box body*
4,1,4,$2,$3,$4,$5,$6,$7,$8,$9,$2,$3,0*
0 Add four circle primitives for the rounded corners*
1,1,$1+$1,$2,$3*
1,1,$1+$1,$4,$5*
1,1,$1+$1,$6,$7*
1,1,$1+$1,$8,$9*
0 Add four rect primitives between the rounded corners*
20,1,$1+$1,$2,$3,$4,$5,0*
20,1,$1+$1,$4,$5,$6,$7,0*
20,1,$1+$1,$6,$7,$8,$9,0*
20,1,$1+$1,$8,$9,$2,$3,0*%
G04 Aperture macros list end*
%TA.AperFunction,ComponentPad*%
%ADD10C,1.700000*%
%TD*%
%TA.AperFunction,ComponentPad*%
%ADD11R,1.700000X1.700000*%
%TD*%
%TA.AperFunction,ComponentPad*%
%ADD12RoundRect,0.250000X-0.600000X-0.600000X0.600000X-0.600000X0.600000X0.600000X-0.600000X0.600000X0*%
%TD*%
%TA.AperFunction,ComponentPad*%
%ADD13RoundRect,0.250000X0.600000X0.600000X-0.600000X0.600000X-0.600000X-0.600000X0.600000X-0.600000X0*%
%TD*%
%TA.AperFunction,ComponentPad*%
%ADD14C,2.000000*%
%TD*%
%TA.AperFunction,ViaPad*%
%ADD15C,0.800000*%
%TD*%
%TA.AperFunction,Conductor*%
%ADD16C,0.250000*%
%TD*%
G04 APERTURE END LIST*
D10*
%TO.P,U1,24,RAW*%
%TO.N,unconnected-(U1-Pad24)*%
X0Y0D03*
%TO.P,U1,23,GND*%
%TO.N,GND*%
X0Y-2540000D03*
%TO.P,U1,22,RST*%
%TO.N,Reset*%
X0Y-5080000D03*
%TO.P,U1,21,VCC*%
%TO.N,VCC*%
X0Y-7620000D03*
%TO.P,U1,20,A3/PF4*%
%TO.N,Col12*%
X0Y-10160000D03*
%TO.P,U1,19,A2/PF5*%
%TO.N,Col11*%
X0Y-12700000D03*
%TO.P,U1,18,A1/PF6*%
%TO.N,Row3*%
X0Y-15240000D03*
%TO.P,U1,17,A0/PF7*%
%TO.N,Col10*%
X0Y-17780000D03*
%TO.P,U1,16,15/PB1*%
%TO.N,Col9*%
X0Y-20320000D03*
%TO.P,U1,15,14/PB3*%
%TO.N,Col8*%
X0Y-22860000D03*
%TO.P,U1,14,16/PB2*%
%TO.N,Row6*%
X0Y-25400000D03*
%TO.P,U1,13,10/PB6*%
%TO.N,Col7*%
X0Y-27940000D03*
%TO.P,U1,12,9/PB5*%
%TO.N,Col6*%
X15240000Y-27940000D03*
%TO.P,U1,11,8/PB4*%
%TO.N,Col5*%
X15240000Y-25400000D03*
%TO.P,U1,10,7/PE6*%
%TO.N,Row5*%
X15240000Y-22860000D03*
%TO.P,U1,9,6/PD7*%
%TO.N,Col4*%
X15240000Y-20320000D03*
%TO.P,U1,8,5/PC6*%
%TO.N,Row4*%
X15240000Y-17780000D03*
%TO.P,U1,7,4/PD4*%
%TO.N,Col3*%
X15240000Y-15240000D03*
%TO.P,U1,6,3/PD0*%
%TO.N,Row2*%
X15240000Y-12700000D03*
%TO.P,U1,5,2/PD1*%
%TO.N,Row1*%
X15240000Y-10160000D03*
%TO.P,U1,4,GND*%
%TO.N,GND*%
X15240000Y-7620000D03*
%TO.P,U1,3,GND*%
X15240000Y-5080000D03*
%TO.P,U1,2,RX1/PD2*%
%TO.N,Col2*%
X15240000Y-2540000D03*
D11*
%TO.P,U1,1,TX0/PD3*%
%TO.N,Col1*%
X15240000Y0D03*
%TD*%
D12*
%TO.P,J1,1,Pin_1*%
%TO.N,VCC*%
X-10160000Y-8890000D03*
D10*
%TO.P,J1,2,Pin_2*%
%TO.N,GND*%
X-7620000Y-8890000D03*
%TO.P,J1,3,Pin_3*%
%TO.N,Row1*%
X-10160000Y-11430000D03*
%TO.P,J1,4,Pin_4*%
%TO.N,Col1*%
X-7620000Y-11430000D03*
%TO.P,J1,5,Pin_5*%
%TO.N,Row2*%
X-10160000Y-13970000D03*
%TO.P,J1,6,Pin_6*%
%TO.N,Col2*%
X-7620000Y-13970000D03*
%TO.P,J1,7,Pin_7*%
%TO.N,Row3*%
X-10160000Y-16510000D03*
%TO.P,J1,8,Pin_8*%
%TO.N,Col3*%
X-7620000Y-16510000D03*
%TO.P,J1,9,Pin_9*%
%TO.N,Row4*%
X-10160000Y-19050000D03*
%TO.P,J1,10,Pin_10*%
%TO.N,Col4*%
X-7620000Y-19050000D03*
%TO.P,J1,11,Pin_11*%
%TO.N,Row5*%
X-10160000Y-21590000D03*
%TO.P,J1,12,Pin_12*%
%TO.N,Col5*%
X-7620000Y-21590000D03*
%TO.P,J1,13,Pin_13*%
%TO.N,Row6*%
X-10160000Y-24130000D03*
%TO.P,J1,14,Pin_14*%
%TO.N,Col6*%
X-7620000Y-24130000D03*
%TD*%
D13*
%TO.P,J2,1,Pin_1*%
%TO.N,VCC*%
X25400000Y-24130000D03*
D10*
%TO.P,J2,2,Pin_2*%
%TO.N,GND*%
X22860000Y-24130000D03*
%TO.P,J2,3,Pin_3*%
%TO.N,Row1*%
X25400000Y-21590000D03*
%TO.P,J2,4,Pin_4*%
%TO.N,Col7*%
X22860000Y-21590000D03*
%TO.P,J2,5,Pin_5*%
%TO.N,Row2*%
X25400000Y-19050000D03*
%TO.P,J2,6,Pin_6*%
%TO.N,Col8*%
X22860000Y-19050000D03*
%TO.P,J2,7,Pin_7*%
%TO.N,Row3*%
X25400000Y-16510000D03*
%TO.P,J2,8,Pin_8*%
%TO.N,Col9*%
X22860000Y-16510000D03*
%TO.P,J2,9,Pin_9*%
%TO.N,Row4*%
X25400000Y-13970000D03*
%TO.P,J2,10,Pin_10*%
%TO.N,Col10*%
X22860000Y-13970000D03*
%TO.P,J2,11,Pin_11*%
%TO.N,Row5*%
X25400000Y-11430000D03*
%TO.P,J2,12,Pin_12*%
%TO.N,Col11*%
X22860000Y-11430000D03*
%TO.P,J2,13,Pin_13*%
%TO.N,Row6*%
X25400000Y-8890000D03*
%TO.P,J2,14,Pin_14*%
%TO.N,Col12*%
X22860000Y-8890000D03*
%TD*%
D14*
%TO.P,SW1,*%
%TO.N,*%
X-10945000Y3230000D03*
X-10945000Y-1270000D03*
%TO.P,SW1,1,1*%
%TO.N,Reset*%
X-4445000Y3230000D03*
%TO.P,SW1,2,2*%
%TO.N,GND*%
X-4445000Y-1270000D03*
%TD*%
D15*
%TO.N,Row5*%
X19169511Y-22314500D03*
%TO.N,Row4*%
X20955000Y-16510000D03*
%TO.N,Col10*%
X20955000Y-15240000D03*
%TD*%
D16*
%TO.N,Col1*%
X15240000Y0D02*
X13462000Y-1778000D01*
X13462000Y-3937000D02*
X11049000Y-6350000D01*
X13462000Y-1778000D02*
X13462000Y-3937000D01*
X11049000Y-6350000D02*
X-2540000Y-6350000D01*
X-2540000Y-6350000D02*
X-7620000Y-11430000D01*
%TO.N,Col2*%
X2418005Y-7620000D02*
X1148005Y-8890000D01*
X1148005Y-8890000D02*
X-2540000Y-8890000D01*
X15240000Y-2921000D02*
X10541000Y-7620000D01*
X15240000Y-2540000D02*
X15240000Y-2921000D01*
X10541000Y-7620000D02*
X2418005Y-7620000D01*
X-2540000Y-8890000D02*
X-7620000Y-13970000D01*
%TO.N,Row1*%
X15240000Y-10160000D02*
X25791010Y-10160000D01*
X27305000Y-19685000D02*
X25400000Y-21590000D01*
X25791010Y-10160000D02*
X27305000Y-11673990D01*
X27305000Y-11673990D02*
X27305000Y-19685000D01*
%TO.N,Col9*%
X12700000Y-20320000D02*
X0Y-20320000D01*
X13970000Y-19050000D02*
X12700000Y-20320000D01*
X20320000Y-19050000D02*
X13970000Y-19050000D01*
X22860000Y-16510000D02*
X20320000Y-19050000D01*
%TO.N,Col8*%
X0Y-22860000D02*
X12700000Y-22860000D01*
X12700000Y-22860000D02*
X13970000Y-21590000D01*
X20320000Y-21590000D02*
X22860000Y-19050000D01*
X13970000Y-21590000D02*
X20320000Y-21590000D01*
%TO.N,Col7*%
X1200811Y-29140811D02*
X15737393Y-29140811D01*
X22860000Y-22018204D02*
X22860000Y-21590000D01*
X0Y-27940000D02*
X1200811Y-29140811D01*
X15737393Y-29140811D02*
X22860000Y-22018204D01*
%TO.N,Row3*%
X0Y-15240000D02*
X-8890000Y-15240000D01*
X24130000Y-15240000D02*
X25400000Y-16510000D01*
X22225000Y-15240000D02*
X24130000Y-15240000D01*
X1905000Y-15240000D02*
X3175000Y-13970000D01*
X-8890000Y-15240000D02*
X-10160000Y-16510000D01*
X20955000Y-13970000D02*
X22225000Y-15240000D01*
X0Y-15240000D02*
X1905000Y-15240000D01*
X3175000Y-13970000D02*
X20955000Y-13970000D01*
%TO.N,Row5*%
X15240000Y-22860000D02*
X18624011Y-22860000D01*
X18624011Y-22860000D02*
X19169511Y-22314500D01*
%TO.N,Row4*%
X19685000Y-17780000D02*
X20955000Y-16510000D01*
X15240000Y-17780000D02*
X19685000Y-17780000D01*
%TO.N,Col6*%
X14605000Y-27940000D02*
X13335000Y-26670000D01*
X13335000Y-26670000D02*
X-5080000Y-26670000D01*
X15240000Y-27940000D02*
X14605000Y-27940000D01*
X-5080000Y-26670000D02*
X-7620000Y-24130000D01*
%TO.N,Col5*%
X-5080000Y-24130000D02*
X-7620000Y-21590000D01*
X15240000Y-25400000D02*
X1970124Y-25400000D01*
X700124Y-24130000D02*
X-5080000Y-24130000D01*
X1970124Y-25400000D02*
X700124Y-24130000D01*
%TO.N,Col3*%
X15240000Y-15240000D02*
X3175000Y-15240000D01*
X3175000Y-15240000D02*
X1905000Y-16510000D01*
X1905000Y-16510000D02*
X-7620000Y-16510000D01*
%TO.N,Row2*%
X15240000Y-12700000D02*
X25791010Y-12700000D01*
X26670000Y-13578990D02*
X26670000Y-17780000D01*
X26670000Y-17780000D02*
X25400000Y-19050000D01*
X25791010Y-12700000D02*
X26670000Y-13578990D01*
%TO.N,Reset*%
X0Y-5080000D02*
X-2540000Y-2540000D01*
X-2540000Y-2540000D02*
X-2540000Y928000D01*
X-2540000Y928000D02*
X-4700200Y3088200D01*
%TO.N,Col12*%
X635000Y-9525000D02*
X13335000Y-9525000D01*
X13970000Y-8890000D02*
X22860000Y-8890000D01*
X13335000Y-9525000D02*
X13970000Y-8890000D01*
X0Y-10160000D02*
X635000Y-9525000D01*
%TO.N,Col11*%
X1270000Y-12700000D02*
X2540000Y-11430000D01*
X0Y-12700000D02*
X1270000Y-12700000D01*
X2540000Y-11430000D02*
X22860000Y-11430000D01*
%TO.N,Col10*%
X13970000Y-16510000D02*
X19685000Y-16510000D01*
X0Y-17780000D02*
X12700000Y-17780000D01*
X12700000Y-17780000D02*
X13970000Y-16510000D01*
X19685000Y-16510000D02*
X20955000Y-15240000D01*
%TD*%
%TA.AperFunction,NonConductor*%
G36*
X10789105Y-6695502D02*
G01*
X10835598Y-6749158D01*
X10845702Y-6819432D01*
X10816208Y-6884012D01*
X10810079Y-6890595D01*
X10443079Y-7257595D01*
X10380767Y-7291621D01*
X10353984Y-7294500D01*
X2437718Y-7294500D01*
X2426737Y-7294021D01*
X2400175Y-7291697D01*
X2400173Y-7291697D01*
X2389198Y-7290737D01*
X2352788Y-7300492D01*
X2342081Y-7302866D01*
X2304960Y-7309412D01*
X2295416Y-7314922D01*
X2292140Y-7316114D01*
X2288969Y-7317593D01*
X2278321Y-7320446D01*
X2269292Y-7326768D01*
X2247454Y-7342059D01*
X2238184Y-7347964D01*
X2215097Y-7361293D01*
X2215093Y-7361296D01*
X2205550Y-7366806D01*
X2198465Y-7375250D01*
X2181325Y-7395676D01*
X2173899Y-7403779D01*
X1602258Y-7975421D01*
X1050084Y-8527595D01*
X987772Y-8561620D01*
X960989Y-8564500D01*
X847722Y-8564500D01*
X779601Y-8544498D01*
X733108Y-8490842D01*
X723004Y-8420568D01*
X752340Y-8356169D01*
X858540Y-8233134D01*
X858540Y-8233133D01*
X862564Y-8228472D01*
X871764Y-8212278D01*
X912515Y-8140543D01*
X964323Y-8049344D01*
X1029351Y-7853863D01*
X1055171Y-7649474D01*
X1055583Y-7620000D01*
X1035480Y-7414970D01*
X975935Y-7217749D01*
X879218Y-7035849D01*
X785688Y-6921170D01*
X753037Y-6881136D01*
X725483Y-6815704D01*
X737678Y-6745763D01*
X785751Y-6693518D01*
X850680Y-6675500D01*
X10720984Y-6675500D01*
X10789105Y-6695502D01*
G37*
%TD.AperFunction*%
%TA.AperFunction,NonConductor*%
G36*
X21837332Y-9235502D02*
G01*
X21881278Y-9283906D01*
X21949268Y-9416200D01*
X21972712Y-9461818D01*
X22100677Y-9623270D01*
X22100550Y-9623370D01*
X22132227Y-9683870D01*
X22125927Y-9754586D01*
X22082395Y-9810671D01*
X22008658Y-9834500D01*
X16331269Y-9834500D01*
X16263148Y-9814498D01*
X16216008Y-9757991D01*
X16215935Y-9757749D01*
X16119218Y-9575849D01*
X15993037Y-9421136D01*
X15965483Y-9355704D01*
X15977678Y-9285763D01*
X16025751Y-9233518D01*
X16090680Y-9215500D01*
X21769211Y-9215500D01*
X21837332Y-9235502D01*
G37*
%TD.AperFunction*%
%TA.AperFunction,NonConductor*%
G36*
X22079054Y-10505502D02*
G01*
X22125547Y-10559158D01*
X22135651Y-10629432D01*
X22107454Y-10692491D01*
X21989024Y-10833630D01*
X21986056Y-10839028D01*
X21986053Y-10839033D01*
X21922922Y-10953870D01*
X21889776Y-11014162D01*
X21887914Y-11020031D01*
X21885485Y-11025699D01*
X21883458Y-11024830D01*
X21849342Y-11075481D01*
X21784140Y-11103575D01*
X21768901Y-11104500D01*
X16087722Y-11104500D01*
X16019601Y-11084498D01*
X15973108Y-11030842D01*
X15963004Y-10960568D01*
X15992340Y-10896169D01*
X16098540Y-10773134D01*
X16098540Y-10773133D01*
X16102564Y-10768472D01*
X16123387Y-10731818D01*
X16181550Y-10629432D01*
X16204323Y-10589344D01*
X16210184Y-10571726D01*
X16250666Y-10513403D01*
X16316254Y-10486224D01*
X16329741Y-10485500D01*
X22010933Y-10485500D01*
X22079054Y-10505502D01*
G37*
%TD.AperFunction*%
%TA.AperFunction,NonConductor*%
G36*
X21837332Y-11775502D02*
G01*
X21881278Y-11823906D01*
X21951722Y-11960975D01*
X21972712Y-12001818D01*
X22100677Y-12163270D01*
X22100550Y-12163370D01*
X22132227Y-12223870D01*
X22125927Y-12294586D01*
X22082395Y-12350671D01*
X22008658Y-12374500D01*
X16331269Y-12374500D01*
X16263148Y-12354498D01*
X16216008Y-12297991D01*
X16215935Y-12297749D01*
X16119218Y-12115849D01*
X15993037Y-11961136D01*
X15965483Y-11895704D01*
X15977678Y-11825763D01*
X16025751Y-11773518D01*
X16090680Y-11755500D01*
X21769211Y-11755500D01*
X21837332Y-11775502D01*
G37*
%TD.AperFunction*%
%TA.AperFunction,NonConductor*%
G36*
X24619054Y-10505502D02*
G01*
X24665547Y-10559158D01*
X24675651Y-10629432D01*
X24647454Y-10692491D01*
X24529024Y-10833630D01*
X24526056Y-10839028D01*
X24526053Y-10839033D01*
X24462287Y-10955024D01*
X24429776Y-11014162D01*
X24367484Y-11210532D01*
X24366798Y-11216649D01*
X24366797Y-11216653D01*
X24345207Y-11409137D01*
X24344520Y-11415262D01*
X24345036Y-11421406D01*
X24360325Y-11603471D01*
X24361759Y-11620553D01*
X24363458Y-11626478D01*
X24415743Y-11808817D01*
X24418544Y-11818586D01*
X24421359Y-11824063D01*
X24421360Y-11824066D01*
X24491804Y-11961136D01*
X24512712Y-12001818D01*
X24640677Y-12163270D01*
X24640550Y-12163370D01*
X24672227Y-12223870D01*
X24665927Y-12294586D01*
X24622395Y-12350671D01*
X24548658Y-12374500D01*
X23707722Y-12374500D01*
X23639601Y-12354498D01*
X23593108Y-12300842D01*
X23583004Y-12230568D01*
X23612340Y-12166169D01*
X23718540Y-12043134D01*
X23718540Y-12043133D01*
X23722564Y-12038472D01*
X23743387Y-12001818D01*
X23772515Y-11950543D01*
X23824323Y-11859344D01*
X23889351Y-11663863D01*
X23915171Y-11459474D01*
X23915583Y-11430000D01*
X23895480Y-11224970D01*
X23835935Y-11027749D01*
X23739218Y-10845849D01*
X23613037Y-10691136D01*
X23585483Y-10625704D01*
X23597678Y-10555763D01*
X23645751Y-10503518D01*
X23710680Y-10485500D01*
X24550933Y-10485500D01*
X24619054Y-10505502D01*
G37*
%TD.AperFunction*%
%TA.AperFunction,NonConductor*%
G36*
X26656663Y-11485980D02*
G01*
X26942595Y-11771912D01*
X26976621Y-11834224D01*
X26979500Y-11861007D01*
X26979500Y-13123974D01*
X26959498Y-13192095D01*
X26905842Y-13238588D01*
X26835568Y-13248692D01*
X26770988Y-13219198D01*
X26764405Y-13213069D01*
X26035121Y-12483785D01*
X26027694Y-12475681D01*
X26008712Y-12453059D01*
X25980248Y-12388018D01*
X25991465Y-12317914D01*
X26027659Y-12272780D01*
X26127951Y-12194424D01*
X26262564Y-12038472D01*
X26283387Y-12001818D01*
X26312515Y-11950543D01*
X26364323Y-11859344D01*
X26429351Y-11663863D01*
X26442563Y-11559280D01*
X26470943Y-11494207D01*
X26530003Y-11454805D01*
X26600989Y-11453588D01*
X26656663Y-11485980D01*
G37*
%TD.AperFunction*%
%TA.AperFunction,NonConductor*%
G36*
X22079054Y-13045502D02*
G01*
X22125547Y-13099158D01*
X22135651Y-13169432D01*
X22107454Y-13232491D01*
X21989024Y-13373630D01*
X21986056Y-13379028D01*
X21986053Y-13379033D01*
X21922287Y-13495024D01*
X21889776Y-13554162D01*
X21827484Y-13750532D01*
X21826798Y-13756649D01*
X21826797Y-13756653D01*
X21805207Y-13949137D01*
X21804520Y-13955262D01*
X21805036Y-13961406D01*
X21805036Y-13961407D01*
X21812737Y-14053120D01*
X21798505Y-14122675D01*
X21748928Y-14173495D01*
X21679746Y-14189444D01*
X21612924Y-14165458D01*
X21598084Y-14152758D01*
X21199111Y-13753785D01*
X21191684Y-13745681D01*
X21174541Y-13725251D01*
X21174540Y-13725250D01*
X21167455Y-13716806D01*
X21157906Y-13711293D01*
X21134815Y-13697961D01*
X21125544Y-13692055D01*
X21116611Y-13685800D01*
X21094684Y-13670446D01*
X21084034Y-13667592D01*
X21080866Y-13666115D01*
X21077590Y-13664923D01*
X21068045Y-13659412D01*
X21034301Y-13653462D01*
X21030942Y-13652870D01*
X21020215Y-13650492D01*
X20983807Y-13640736D01*
X20972822Y-13641697D01*
X20972820Y-13641697D01*
X20946272Y-13644020D01*
X20935290Y-13644500D01*
X16087722Y-13644500D01*
X16019601Y-13624498D01*
X15973108Y-13570842D01*
X15963004Y-13500568D01*
X15992340Y-13436169D01*
X16098540Y-13313134D01*
X16098540Y-13313133D01*
X16102564Y-13308472D01*
X16123387Y-13271818D01*
X16155201Y-13215815D01*
X16204323Y-13129344D01*
X16210184Y-13111726D01*
X16250666Y-13053403D01*
X16316254Y-13026224D01*
X16329741Y-13025500D01*
X22010933Y-13025500D01*
X22079054Y-13045502D01*
G37*
%TD.AperFunction*%
%TA.AperFunction,NonConductor*%
G36*
X-780946Y-9235502D02*
G01*
X-734453Y-9289158D01*
X-724349Y-9359432D01*
X-752546Y-9422491D01*
X-870976Y-9563630D01*
X-873944Y-9569028D01*
X-873947Y-9569033D01*
X-940761Y-9690568D01*
X-970224Y-9744162D01*
X-1032516Y-9940532D01*
X-1033202Y-9946649D01*
X-1033203Y-9946653D01*
X-1037930Y-9988795D01*
X-1055480Y-10145262D01*
X-1038241Y-10350553D01*
X-1036542Y-10356478D01*
X-1007747Y-10456897D01*
X-981456Y-10548586D01*
X-978641Y-10554063D01*
X-978640Y-10554066D01*
X-908196Y-10691136D01*
X-887288Y-10731818D01*
X-759323Y-10893270D01*
X-754630Y-10897264D01*
X-754629Y-10897265D01*
X-610374Y-11020035D01*
X-602436Y-11026791D01*
X-422602Y-11127297D01*
X-328219Y-11157964D01*
X-232529Y-11189056D01*
X-232525Y-11189057D01*
X-226671Y-11190959D01*
X-22106Y-11215351D01*
X-15971Y-11214879D01*
X-15969Y-11214879D01*
X40523Y-11210532D01*
X183300Y-11199546D01*
X189230Y-11197890D01*
X189232Y-11197890D01*
X375797Y-11145800D01*
X375796Y-11145800D01*
X381725Y-11144145D01*
X387214Y-11141372D01*
X387220Y-11141370D01*
X560116Y-11054033D01*
X565610Y-11051258D01*
X591742Y-11030842D01*
X646780Y-10987841D01*
X727951Y-10924424D01*
X862564Y-10768472D01*
X883387Y-10731818D01*
X912515Y-10680543D01*
X964323Y-10589344D01*
X1029351Y-10393863D01*
X1055171Y-10189474D01*
X1055583Y-10160000D01*
X1038797Y-9988795D01*
X1052057Y-9919047D01*
X1100920Y-9867541D01*
X1164196Y-9850500D01*
X13315290Y-9850500D01*
X13326272Y-9850980D01*
X13352820Y-9853303D01*
X13352822Y-9853303D01*
X13363807Y-9854264D01*
X13400215Y-9844508D01*
X13410942Y-9842130D01*
X13414301Y-9841538D01*
X13448045Y-9835588D01*
X13457590Y-9830077D01*
X13460866Y-9828885D01*
X13464034Y-9827408D01*
X13474684Y-9824554D01*
X13505544Y-9802945D01*
X13514815Y-9797039D01*
X13537906Y-9783707D01*
X13547455Y-9778194D01*
X13571685Y-9749317D01*
X13579111Y-9741215D01*
X14067921Y-9252405D01*
X14130233Y-9218379D01*
X14157016Y-9215500D01*
X14390933Y-9215500D01*
X14459054Y-9235502D01*
X14505547Y-9289158D01*
X14515651Y-9359432D01*
X14487454Y-9422491D01*
X14369024Y-9563630D01*
X14366056Y-9569028D01*
X14366053Y-9569033D01*
X14299239Y-9690568D01*
X14269776Y-9744162D01*
X14207484Y-9940532D01*
X14206798Y-9946649D01*
X14206797Y-9946653D01*
X14202070Y-9988795D01*
X14184520Y-10145262D01*
X14201759Y-10350553D01*
X14203458Y-10356478D01*
X14232253Y-10456897D01*
X14258544Y-10548586D01*
X14261359Y-10554063D01*
X14261360Y-10554066D01*
X14331804Y-10691136D01*
X14352712Y-10731818D01*
X14480677Y-10893270D01*
X14480550Y-10893370D01*
X14512227Y-10953870D01*
X14505927Y-11024586D01*
X14462395Y-11080671D01*
X14388658Y-11104500D01*
X2559713Y-11104500D01*
X2548732Y-11104021D01*
X2522170Y-11101697D01*
X2522168Y-11101697D01*
X2511193Y-11100737D01*
X2474783Y-11110492D01*
X2464076Y-11112866D01*
X2426955Y-11119412D01*
X2417411Y-11124922D01*
X2414135Y-11126114D01*
X2410964Y-11127593D01*
X2400316Y-11130446D01*
X2391287Y-11136768D01*
X2369449Y-11152059D01*
X2360179Y-11157964D01*
X2337092Y-11171293D01*
X2337088Y-11171296D01*
X2327545Y-11176806D01*
X2309853Y-11197890D01*
X2303320Y-11205676D01*
X2295894Y-11213779D01*
X1734172Y-11775502D01*
X1177946Y-12331728D01*
X1115634Y-12365753D01*
X1044819Y-12360689D01*
X987983Y-12318142D01*
X976287Y-12297562D01*
X975935Y-12297749D01*
X882111Y-12121290D01*
X879218Y-12115849D01*
X786216Y-12001818D01*
X752906Y-11960975D01*
X752903Y-11960972D01*
X749011Y-11956200D01*
X731786Y-11941950D01*
X595025Y-11828811D01*
X595021Y-11828809D01*
X590275Y-11824882D01*
X409055Y-11726897D01*
X212254Y-11665977D01*
X206129Y-11665333D01*
X206128Y-11665333D01*
X13498Y-11645087D01*
X13496Y-11645087D01*
X7369Y-11644443D01*
X-79471Y-11652346D01*
X-191658Y-11662555D01*
X-191661Y-11662556D01*
X-197797Y-11663114D01*
X-395428Y-11721280D01*
X-577998Y-11816726D01*
X-582799Y-11820586D01*
X-582802Y-11820588D01*
X-680864Y-11899432D01*
X-738553Y-11945815D01*
X-870976Y-12103630D01*
X-873944Y-12109028D01*
X-873947Y-12109033D01*
X-940761Y-12230568D01*
X-970224Y-12284162D01*
X-1032516Y-12480532D01*
X-1055480Y-12685262D01*
X-1038241Y-12890553D01*
X-1036542Y-12896478D01*
X-998466Y-13029264D01*
X-981456Y-13088586D01*
X-978641Y-13094063D01*
X-978640Y-13094066D01*
X-908196Y-13231136D01*
X-887288Y-13271818D01*
X-759323Y-13433270D01*
X-754630Y-13437264D01*
X-754629Y-13437265D01*
X-610374Y-13560035D01*
X-602436Y-13566791D01*
X-422602Y-13667297D01*
X-328228Y-13697961D01*
X-232529Y-13729056D01*
X-232525Y-13729057D01*
X-226671Y-13730959D01*
X-22106Y-13755351D01*
X-15971Y-13754879D01*
X-15969Y-13754879D01*
X40523Y-13750532D01*
X183300Y-13739546D01*
X189230Y-13737890D01*
X189232Y-13737890D01*
X342080Y-13695214D01*
X381725Y-13684145D01*
X387214Y-13681372D01*
X387220Y-13681370D01*
X560116Y-13594033D01*
X565610Y-13591258D01*
X591742Y-13570842D01*
X646780Y-13527841D01*
X727951Y-13464424D01*
X780163Y-13403936D01*
X858540Y-13313134D01*
X858540Y-13313133D01*
X862564Y-13308472D01*
X883387Y-13271818D01*
X915201Y-13215815D01*
X964323Y-13129344D01*
X970184Y-13111726D01*
X1010666Y-13053403D01*
X1076254Y-13026224D01*
X1089741Y-13025500D01*
X1250290Y-13025500D01*
X1261272Y-13025980D01*
X1287820Y-13028303D01*
X1287822Y-13028303D01*
X1298807Y-13029264D01*
X1335215Y-13019508D01*
X1345942Y-13017130D01*
X1349301Y-13016538D01*
X1383045Y-13010588D01*
X1392590Y-13005077D01*
X1395866Y-13003885D01*
X1399034Y-13002408D01*
X1409684Y-12999554D01*
X1440544Y-12977945D01*
X1449815Y-12972039D01*
X1472910Y-12958705D01*
X1472911Y-12958704D01*
X1482455Y-12953194D01*
X1506685Y-12924319D01*
X1514110Y-12916217D01*
X2637922Y-11792405D01*
X2700234Y-11758379D01*
X2727017Y-11755500D01*
X14390933Y-11755500D01*
X14459054Y-11775502D01*
X14505547Y-11829158D01*
X14515651Y-11899432D01*
X14487454Y-11962491D01*
X14369024Y-12103630D01*
X14366056Y-12109028D01*
X14366053Y-12109033D01*
X14299239Y-12230568D01*
X14269776Y-12284162D01*
X14207484Y-12480532D01*
X14184520Y-12685262D01*
X14201759Y-12890553D01*
X14203458Y-12896478D01*
X14241534Y-13029264D01*
X14258544Y-13088586D01*
X14261359Y-13094063D01*
X14261360Y-13094066D01*
X14331804Y-13231136D01*
X14352712Y-13271818D01*
X14480677Y-13433270D01*
X14480550Y-13433370D01*
X14512227Y-13493870D01*
X14505927Y-13564586D01*
X14462395Y-13620671D01*
X14388658Y-13644500D01*
X3194713Y-13644500D01*
X3183732Y-13644021D01*
X3157170Y-13641697D01*
X3157168Y-13641697D01*
X3146193Y-13640737D01*
X3109783Y-13650492D01*
X3099076Y-13652866D01*
X3061955Y-13659412D01*
X3052411Y-13664922D01*
X3049135Y-13666114D01*
X3045964Y-13667593D01*
X3035316Y-13670446D01*
X3026287Y-13676768D01*
X3004449Y-13692059D01*
X2995179Y-13697964D01*
X2972092Y-13711293D01*
X2972088Y-13711296D01*
X2962545Y-13716806D01*
X2944853Y-13737890D01*
X2938320Y-13745676D01*
X2930894Y-13753779D01*
X1807079Y-14877595D01*
X1744767Y-14911620D01*
X1717984Y-14914500D01*
X1091269Y-14914500D01*
X1023148Y-14894498D01*
X976008Y-14837991D01*
X975935Y-14837749D01*
X879218Y-14655849D01*
X786216Y-14541818D01*
X752906Y-14500975D01*
X752903Y-14500972D01*
X749011Y-14496200D01*
X744262Y-14492271D01*
X595025Y-14368811D01*
X595021Y-14368809D01*
X590275Y-14364882D01*
X409055Y-14266897D01*
X212254Y-14205977D01*
X206129Y-14205333D01*
X206128Y-14205333D01*
X13498Y-14185087D01*
X13496Y-14185087D01*
X7369Y-14184443D01*
X-79471Y-14192346D01*
X-191658Y-14202555D01*
X-191661Y-14202556D01*
X-197797Y-14203114D01*
X-395428Y-14261280D01*
X-577998Y-14356726D01*
X-582799Y-14360586D01*
X-582802Y-14360588D01*
X-680864Y-14439432D01*
X-738553Y-14485815D01*
X-870976Y-14643630D01*
X-873944Y-14649028D01*
X-873947Y-14649033D01*
X-937078Y-14763870D01*
X-970224Y-14824162D01*
X-972086Y-14830031D01*
X-974515Y-14835699D01*
X-976542Y-14834830D01*
X-1010658Y-14885481D01*
X-1075860Y-14913575D01*
X-1091099Y-14914500D01*
X-6772278Y-14914500D01*
X-6840399Y-14894498D01*
X-6886892Y-14840842D01*
X-6896996Y-14770568D01*
X-6867660Y-14706169D01*
X-6761460Y-14583134D01*
X-6761460Y-14583133D01*
X-6757436Y-14578472D01*
X-6736613Y-14541818D01*
X-6707485Y-14490543D01*
X-6655677Y-14399344D01*
X-6590649Y-14203863D01*
X-6564829Y-13999474D01*
X-6564417Y-13970000D01*
X-6584520Y-13764970D01*
X-6644065Y-13567749D01*
X-6645688Y-13564696D01*
X-6653056Y-13495024D01*
X-6618192Y-13428518D01*
X-2442079Y-9252405D01*
X-2379767Y-9218379D01*
X-2352984Y-9215500D01*
X-849067Y-9215500D01*
X-780946Y-9235502D01*
G37*
%TD.AperFunction*%
%TA.AperFunction,NonConductor*%
G36*
X14459054Y-14315502D02*
G01*
X14505547Y-14369158D01*
X14515651Y-14439432D01*
X14487454Y-14502491D01*
X14369024Y-14643630D01*
X14366056Y-14649028D01*
X14366053Y-14649033D01*
X14302922Y-14763870D01*
X14269776Y-14824162D01*
X14267914Y-14830031D01*
X14265485Y-14835699D01*
X14263458Y-14834830D01*
X14229342Y-14885481D01*
X14164140Y-14913575D01*
X14148901Y-14914500D01*
X3194713Y-14914500D01*
X3183732Y-14914021D01*
X3157170Y-14911697D01*
X3157168Y-14911697D01*
X3146193Y-14910737D01*
X3109783Y-14920492D01*
X3099076Y-14922866D01*
X3061955Y-14929412D01*
X3052411Y-14934922D01*
X3049135Y-14936114D01*
X3045964Y-14937593D01*
X3035316Y-14940446D01*
X3026287Y-14946768D01*
X3004449Y-14962059D01*
X2995179Y-14967964D01*
X2977417Y-14978219D01*
X2908422Y-14994957D01*
X2841330Y-14971737D01*
X2797443Y-14915930D01*
X2790694Y-14845255D01*
X2825322Y-14780005D01*
X3272922Y-14332405D01*
X3335234Y-14298379D01*
X3362017Y-14295500D01*
X14390933Y-14295500D01*
X14459054Y-14315502D01*
G37*
%TD.AperFunction*%
%TA.AperFunction,NonConductor*%
G36*
X24619054Y-13045502D02*
G01*
X24665547Y-13099158D01*
X24675651Y-13169432D01*
X24647454Y-13232491D01*
X24529024Y-13373630D01*
X24526056Y-13379028D01*
X24526053Y-13379033D01*
X24462287Y-13495024D01*
X24429776Y-13554162D01*
X24367484Y-13750532D01*
X24366798Y-13756649D01*
X24366797Y-13756653D01*
X24345207Y-13949137D01*
X24344520Y-13955262D01*
X24361759Y-14160553D01*
X24363458Y-14166478D01*
X24411037Y-14332405D01*
X24418544Y-14358586D01*
X24421359Y-14364063D01*
X24421360Y-14364066D01*
X24491804Y-14501136D01*
X24512712Y-14541818D01*
X24640677Y-14703270D01*
X24645370Y-14707264D01*
X24645371Y-14707265D01*
X24730841Y-14780005D01*
X24797564Y-14836791D01*
X24802942Y-14839797D01*
X24802944Y-14839798D01*
X24834563Y-14857469D01*
X24977398Y-14937297D01*
X25069987Y-14967381D01*
X25167471Y-14999056D01*
X25167475Y-14999057D01*
X25173329Y-15000959D01*
X25377894Y-15025351D01*
X25384029Y-15024879D01*
X25384031Y-15024879D01*
X25440039Y-15020569D01*
X25583300Y-15009546D01*
X25589230Y-15007890D01*
X25589232Y-15007890D01*
X25742080Y-14965214D01*
X25781725Y-14954145D01*
X25787214Y-14951372D01*
X25787220Y-14951370D01*
X25960116Y-14864033D01*
X25965610Y-14861258D01*
X25991742Y-14840842D01*
X26123095Y-14738218D01*
X26123096Y-14738217D01*
X26127951Y-14734424D01*
X26131726Y-14730051D01*
X26194732Y-14697619D01*
X26265403Y-14704412D01*
X26321183Y-14748334D01*
X26344500Y-14821357D01*
X26344500Y-15660159D01*
X26324498Y-15728280D01*
X26270842Y-15774773D01*
X26200568Y-15784877D01*
X26138186Y-15757245D01*
X25990275Y-15634882D01*
X25809055Y-15536897D01*
X25612254Y-15475977D01*
X25606129Y-15475333D01*
X25606128Y-15475333D01*
X25413498Y-15455087D01*
X25413496Y-15455087D01*
X25407369Y-15454443D01*
X25320529Y-15462346D01*
X25208342Y-15472555D01*
X25208339Y-15472556D01*
X25202203Y-15473114D01*
X25004572Y-15531280D01*
X24999112Y-15534134D01*
X24994779Y-15535885D01*
X24924126Y-15542858D01*
X24858483Y-15508156D01*
X24374105Y-15023779D01*
X24366678Y-15015674D01*
X24361536Y-15009546D01*
X24342455Y-14986806D01*
X24327582Y-14978219D01*
X24309815Y-14967961D01*
X24300544Y-14962055D01*
X24291611Y-14955800D01*
X24269684Y-14940446D01*
X24259034Y-14937592D01*
X24255866Y-14936115D01*
X24252590Y-14934923D01*
X24243045Y-14929412D01*
X24209301Y-14923462D01*
X24205942Y-14922870D01*
X24195215Y-14920492D01*
X24158807Y-14910736D01*
X24147822Y-14911697D01*
X24147820Y-14911697D01*
X24121272Y-14914020D01*
X24110290Y-14914500D01*
X23707722Y-14914500D01*
X23639601Y-14894498D01*
X23593108Y-14840842D01*
X23583004Y-14770568D01*
X23612340Y-14706169D01*
X23718540Y-14583134D01*
X23718540Y-14583133D01*
X23722564Y-14578472D01*
X23743387Y-14541818D01*
X23772515Y-14490543D01*
X23824323Y-14399344D01*
X23889351Y-14203863D01*
X23915171Y-13999474D01*
X23915583Y-13970000D01*
X23895480Y-13764970D01*
X23835935Y-13567749D01*
X23739218Y-13385849D01*
X23627355Y-13248692D01*
X23613037Y-13231136D01*
X23585483Y-13165704D01*
X23597678Y-13095763D01*
X23645751Y-13043518D01*
X23710680Y-13025500D01*
X24550933Y-13025500D01*
X24619054Y-13045502D01*
G37*
%TD.AperFunction*%
%TA.AperFunction,NonConductor*%
G36*
X-1022668Y-15585502D02*
G01*
X-978722Y-15633906D01*
X-906326Y-15774773D01*
X-887288Y-15811818D01*
X-759323Y-15973270D01*
X-759450Y-15973370D01*
X-727773Y-16033870D01*
X-734073Y-16104586D01*
X-777605Y-16160671D01*
X-851342Y-16184500D01*
X-6528731Y-16184500D01*
X-6596852Y-16164498D01*
X-6643992Y-16107991D01*
X-6644065Y-16107749D01*
X-6740782Y-15925849D01*
X-6866963Y-15771136D01*
X-6894517Y-15705704D01*
X-6882322Y-15635763D01*
X-6834249Y-15583518D01*
X-6769320Y-15565500D01*
X-1090789Y-15565500D01*
X-1022668Y-15585502D01*
G37*
%TD.AperFunction*%
%TA.AperFunction,NonConductor*%
G36*
X2238670Y-15508260D02*
G01*
X2282558Y-15564066D01*
X2289309Y-15634741D01*
X2254681Y-15699992D01*
X1807078Y-16147596D01*
X1744767Y-16181620D01*
X1717984Y-16184500D01*
X847722Y-16184500D01*
X779601Y-16164498D01*
X733108Y-16110842D01*
X723004Y-16040568D01*
X752340Y-15976169D01*
X858540Y-15853134D01*
X858540Y-15853133D01*
X862564Y-15848472D01*
X883387Y-15811818D01*
X930843Y-15728280D01*
X964323Y-15669344D01*
X970184Y-15651726D01*
X1010666Y-15593403D01*
X1076254Y-15566224D01*
X1089741Y-15565500D01*
X1885290Y-15565500D01*
X1896272Y-15565980D01*
X1922820Y-15568303D01*
X1922822Y-15568303D01*
X1933807Y-15569264D01*
X1970215Y-15559508D01*
X1980942Y-15557130D01*
X1984301Y-15556538D01*
X2018045Y-15550588D01*
X2027590Y-15545077D01*
X2030866Y-15543885D01*
X2034034Y-15542408D01*
X2044684Y-15539554D01*
X2075550Y-15517941D01*
X2084813Y-15512040D01*
X2102583Y-15501780D01*
X2171578Y-15485041D01*
X2238670Y-15508260D01*
G37*
%TD.AperFunction*%
%TA.AperFunction,NonConductor*%
G36*
X20836104Y-14315502D02*
G01*
X20857078Y-14332405D01*
X20954592Y-14429919D01*
X20988618Y-14492231D01*
X20983553Y-14563046D01*
X20941006Y-14619882D01*
X20881943Y-14643936D01*
X20827732Y-14651073D01*
X20798238Y-14654956D01*
X20652159Y-14715464D01*
X20526718Y-14811718D01*
X20521695Y-14818264D01*
X20504370Y-14840842D01*
X20430464Y-14937159D01*
X20369956Y-15083238D01*
X20349318Y-15240000D01*
X20358118Y-15306841D01*
X20347179Y-15376988D01*
X20322292Y-15412381D01*
X19587079Y-16147595D01*
X19524766Y-16181620D01*
X19497983Y-16184500D01*
X16087722Y-16184500D01*
X16019601Y-16164498D01*
X15973108Y-16110842D01*
X15963004Y-16040568D01*
X15992340Y-15976169D01*
X16098540Y-15853134D01*
X16098540Y-15853133D01*
X16102564Y-15848472D01*
X16123387Y-15811818D01*
X16154389Y-15757244D01*
X16204323Y-15669344D01*
X16269351Y-15473863D01*
X16295171Y-15269474D01*
X16295583Y-15240000D01*
X16275480Y-15034970D01*
X16215935Y-14837749D01*
X16119218Y-14655849D01*
X15993037Y-14501136D01*
X15965483Y-14435704D01*
X15977678Y-14365763D01*
X16025751Y-14313518D01*
X16090680Y-14295500D01*
X20767983Y-14295500D01*
X20836104Y-14315502D01*
G37*
%TD.AperFunction*%
%TA.AperFunction,NonConductor*%
G36*
X20018672Y-16778265D02*
G01*
X20062558Y-16834072D01*
X20069306Y-16904748D01*
X20034678Y-16969995D01*
X19587078Y-17417595D01*
X19524766Y-17451621D01*
X19497983Y-17454500D01*
X16331269Y-17454500D01*
X16263148Y-17434498D01*
X16216008Y-17377991D01*
X16215935Y-17377749D01*
X16119218Y-17195849D01*
X15993037Y-17041136D01*
X15965483Y-16975704D01*
X15977678Y-16905763D01*
X16025751Y-16853518D01*
X16090680Y-16835500D01*
X19665290Y-16835500D01*
X19676272Y-16835980D01*
X19702820Y-16838303D01*
X19702822Y-16838303D01*
X19713807Y-16839264D01*
X19750215Y-16829508D01*
X19760942Y-16827130D01*
X19764301Y-16826538D01*
X19798045Y-16820588D01*
X19807590Y-16815077D01*
X19810866Y-16813885D01*
X19814034Y-16812408D01*
X19824684Y-16809554D01*
X19855544Y-16787945D01*
X19864817Y-16782038D01*
X19882585Y-16771780D01*
X19951580Y-16755043D01*
X20018672Y-16778265D01*
G37*
%TD.AperFunction*%
%TA.AperFunction,NonConductor*%
G36*
X14217332Y-15585502D02*
G01*
X14261278Y-15633906D01*
X14333674Y-15774773D01*
X14352712Y-15811818D01*
X14480677Y-15973270D01*
X14480550Y-15973370D01*
X14512227Y-16033870D01*
X14505927Y-16104586D01*
X14462395Y-16160671D01*
X14388658Y-16184500D01*
X13989713Y-16184500D01*
X13978732Y-16184021D01*
X13952170Y-16181697D01*
X13952168Y-16181697D01*
X13941193Y-16180737D01*
X13904783Y-16190492D01*
X13894076Y-16192866D01*
X13856955Y-16199412D01*
X13847411Y-16204922D01*
X13844135Y-16206114D01*
X13840964Y-16207593D01*
X13830316Y-16210446D01*
X13821287Y-16216768D01*
X13799449Y-16232059D01*
X13790179Y-16237964D01*
X13767092Y-16251293D01*
X13767088Y-16251296D01*
X13757545Y-16256806D01*
X13750460Y-16265250D01*
X13733320Y-16285676D01*
X13725894Y-16293779D01*
X13156271Y-16863403D01*
X12602079Y-17417595D01*
X12539767Y-17451620D01*
X12512984Y-17454500D01*
X1091269Y-17454500D01*
X1023148Y-17434498D01*
X976008Y-17377991D01*
X975935Y-17377749D01*
X879218Y-17195849D01*
X753037Y-17041136D01*
X725483Y-16975704D01*
X737678Y-16905763D01*
X785751Y-16853518D01*
X850680Y-16835500D01*
X1885290Y-16835500D01*
X1896272Y-16835980D01*
X1922820Y-16838303D01*
X1922822Y-16838303D01*
X1933807Y-16839264D01*
X1970215Y-16829508D01*
X1980942Y-16827130D01*
X1984301Y-16826538D01*
X2018045Y-16820588D01*
X2027590Y-16815077D01*
X2030866Y-16813885D01*
X2034034Y-16812408D01*
X2044684Y-16809554D01*
X2075544Y-16787945D01*
X2084815Y-16782039D01*
X2107910Y-16768705D01*
X2107911Y-16768704D01*
X2117455Y-16763194D01*
X2141685Y-16734319D01*
X2149110Y-16726217D01*
X3272922Y-15602405D01*
X3335234Y-15568379D01*
X3362017Y-15565500D01*
X14149211Y-15565500D01*
X14217332Y-15585502D01*
G37*
%TD.AperFunction*%
%TA.AperFunction,NonConductor*%
G36*
X21765081Y-15240408D02*
G01*
X21980895Y-15456222D01*
X21988321Y-15464325D01*
X22012545Y-15493194D01*
X22022088Y-15498704D01*
X22022092Y-15498707D01*
X22045179Y-15512036D01*
X22054448Y-15517940D01*
X22085316Y-15539554D01*
X22095960Y-15542406D01*
X22096626Y-15542717D01*
X22149911Y-15589634D01*
X22169371Y-15657912D01*
X22148829Y-15725872D01*
X22129843Y-15746809D01*
X22130656Y-15747639D01*
X22126254Y-15751950D01*
X22121447Y-15755815D01*
X21989024Y-15913630D01*
X21986056Y-15919028D01*
X21986053Y-15919033D01*
X21896617Y-16081718D01*
X21889776Y-16094162D01*
X21827484Y-16290532D01*
X21826798Y-16296649D01*
X21826797Y-16296653D01*
X21806671Y-16476089D01*
X21794954Y-16504012D01*
X21807102Y-16529796D01*
X21808165Y-16538668D01*
X21816544Y-16638445D01*
X21821759Y-16700553D01*
X21823458Y-16706478D01*
X21871037Y-16872405D01*
X21878544Y-16898586D01*
X21881362Y-16904068D01*
X21881363Y-16904072D01*
X21881541Y-16904419D01*
X21881579Y-16904619D01*
X21883630Y-16909799D01*
X21882645Y-16910189D01*
X21894887Y-16974150D01*
X21868414Y-17040027D01*
X21858568Y-17051105D01*
X20222079Y-18687595D01*
X20159767Y-18721620D01*
X20132984Y-18724500D01*
X16087722Y-18724500D01*
X16019601Y-18704498D01*
X15973108Y-18650842D01*
X15963004Y-18580568D01*
X15992340Y-18516169D01*
X16098540Y-18393134D01*
X16098540Y-18393133D01*
X16102564Y-18388472D01*
X16123387Y-18351818D01*
X16157396Y-18291950D01*
X16204323Y-18209344D01*
X16210184Y-18191726D01*
X16250666Y-18133403D01*
X16316254Y-18106224D01*
X16329741Y-18105500D01*
X19665290Y-18105500D01*
X19676272Y-18105980D01*
X19702820Y-18108303D01*
X19702822Y-18108303D01*
X19713807Y-18109264D01*
X19750215Y-18099508D01*
X19760942Y-18097130D01*
X19764301Y-18096538D01*
X19798045Y-18090588D01*
X19807590Y-18085077D01*
X19810866Y-18083885D01*
X19814034Y-18082408D01*
X19824684Y-18079554D01*
X19855544Y-18057945D01*
X19864815Y-18052039D01*
X19887910Y-18038705D01*
X19887911Y-18038704D01*
X19897455Y-18033194D01*
X19921685Y-18004319D01*
X19929110Y-17996217D01*
X20782618Y-17142709D01*
X20844930Y-17108683D01*
X20888158Y-17106882D01*
X20955000Y-17115682D01*
X20963188Y-17114604D01*
X21103574Y-17096122D01*
X21111762Y-17095044D01*
X21257841Y-17034536D01*
X21383282Y-16938282D01*
X21479536Y-16812841D01*
X21540044Y-16666762D01*
X21557685Y-16532765D01*
X21569473Y-16506118D01*
X21556534Y-16478491D01*
X21541122Y-16361426D01*
X21540044Y-16353238D01*
X21479536Y-16207159D01*
X21383282Y-16081718D01*
X21257841Y-15985464D01*
X21252550Y-15983272D01*
X21204364Y-15932738D01*
X21190926Y-15863025D01*
X21217312Y-15797114D01*
X21252224Y-15766863D01*
X21257841Y-15764536D01*
X21383282Y-15668282D01*
X21479536Y-15542841D01*
X21540044Y-15396762D01*
X21551064Y-15313057D01*
X21579786Y-15248129D01*
X21639052Y-15209038D01*
X21710043Y-15208193D01*
X21765081Y-15240408D01*
G37*
%TD.AperFunction*%
%TA.AperFunction,NonConductor*%
G36*
X18564354Y-21935502D02*
G01*
X18610847Y-21989158D01*
X18620951Y-22059432D01*
X18612642Y-22089717D01*
X18584467Y-22157738D01*
X18563829Y-22314500D01*
X18564907Y-22322688D01*
X18572629Y-22381342D01*
X18561690Y-22451490D01*
X18536802Y-22486883D01*
X18526090Y-22497595D01*
X18463778Y-22531621D01*
X18436995Y-22534500D01*
X16331269Y-22534500D01*
X16263148Y-22514498D01*
X16216008Y-22457991D01*
X16215935Y-22457749D01*
X16119218Y-22275849D01*
X16016667Y-22150109D01*
X15993037Y-22121136D01*
X15965483Y-22055704D01*
X15977678Y-21985763D01*
X16025751Y-21933518D01*
X16090680Y-21915500D01*
X18496233Y-21915500D01*
X18564354Y-21935502D01*
G37*
%TD.AperFunction*%
%TA.AperFunction,NonConductor*%
G36*
X13216105Y-27015502D02*
G01*
X13237075Y-27032401D01*
X14156921Y-27952248D01*
X14190945Y-28014558D01*
X14193382Y-28030797D01*
X14201759Y-28130553D01*
X14258544Y-28328586D01*
X14261359Y-28334063D01*
X14261360Y-28334066D01*
X14304535Y-28418076D01*
X14352712Y-28511818D01*
X14392916Y-28562543D01*
X14431359Y-28611046D01*
X14457997Y-28676857D01*
X14444826Y-28746621D01*
X14396029Y-28798190D01*
X14332614Y-28815311D01*
X1387829Y-28815311D01*
X1319708Y-28795309D01*
X1298734Y-28778407D01*
X1000715Y-28480389D01*
X966690Y-28418076D01*
X970252Y-28351521D01*
X1027404Y-28179715D01*
X1029351Y-28173863D01*
X1055171Y-27969474D01*
X1055583Y-27940000D01*
X1035480Y-27734970D01*
X975935Y-27537749D01*
X879218Y-27355849D01*
X753037Y-27201136D01*
X725483Y-27135704D01*
X737678Y-27065763D01*
X785751Y-27013518D01*
X850680Y-26995500D01*
X13147984Y-26995500D01*
X13216105Y-27015502D01*
G37*
%TD.AperFunction*%
%TA.AperFunction,NonConductor*%
G36*
X1257965Y5017312D02*
G01*
X1261762Y5017927D01*
X1270000Y5014515D01*
X1279839Y5018590D01*
X1300494Y5016370D01*
X1304493Y5016785D01*
X1449322Y5005387D01*
X1468849Y5002294D01*
X1634120Y4962616D01*
X1652914Y4956510D01*
X1809945Y4891465D01*
X1827556Y4882491D01*
X1972475Y4793684D01*
X1988470Y4782063D01*
X2117705Y4671686D01*
X2131686Y4657705D01*
X2242063Y4528470D01*
X2253684Y4512475D01*
X2342491Y4367556D01*
X2351465Y4349945D01*
X2371675Y4301155D01*
X2416508Y4192919D01*
X2422616Y4174120D01*
X2450036Y4059910D01*
X2462294Y4008850D01*
X2465387Y3989321D01*
X2478642Y3820894D01*
X2478628Y3819930D01*
X2474515Y3810000D01*
X2478354Y3800733D01*
X2478308Y3797543D01*
X2477583Y3790801D01*
X2479500Y3777469D01*
X2479500Y-3797965D01*
X2477312Y-3797965D01*
X2477927Y-3801762D01*
X2474515Y-3810000D01*
X2479500Y-3822035D01*
X2493695Y-3856305D01*
X2516397Y-3865709D01*
X2523264Y-3868553D01*
X2523265Y-3868553D01*
X2540000Y-3875485D01*
X2549839Y-3871410D01*
X2559203Y-3872416D01*
X2572531Y-3870500D01*
X12687965Y-3870500D01*
X12687965Y-3872688D01*
X12691762Y-3872073D01*
X12700000Y-3875485D01*
X12709838Y-3871410D01*
X12709840Y-3871410D01*
X12734776Y-3861081D01*
X12748681Y-3859586D01*
X12751081Y-3844776D01*
X12758552Y-3826738D01*
X12760500Y-3822035D01*
X12765485Y-3810000D01*
X12761409Y-3800160D01*
X12762416Y-3790797D01*
X12760500Y-3777469D01*
X12760500Y3797965D01*
X12762688Y3797965D01*
X12762073Y3801762D01*
X12765485Y3810000D01*
X12761410Y3819839D01*
X12763630Y3840494D01*
X12763215Y3844493D01*
X12774613Y3989322D01*
X12777706Y4008850D01*
X12789964Y4059910D01*
X12817384Y4174120D01*
X12823492Y4192919D01*
X12868325Y4301155D01*
X12888535Y4349945D01*
X12897509Y4367556D01*
X12986316Y4512475D01*
X12997937Y4528470D01*
X13108314Y4657705D01*
X13122295Y4671686D01*
X13251530Y4782063D01*
X13267525Y4793684D01*
X13412444Y4882491D01*
X13430055Y4891465D01*
X13587086Y4956510D01*
X13605880Y4962616D01*
X13771151Y5002294D01*
X13790679Y5005387D01*
X13959106Y5018642D01*
X13960070Y5018628D01*
X13970000Y5014515D01*
X13979267Y5018354D01*
X13982457Y5018308D01*
X13989199Y5017583D01*
X14002531Y5019500D01*
X27292965Y5019500D01*
X27292965Y5017312D01*
X27296762Y5017927D01*
X27305000Y5014515D01*
X27314839Y5018590D01*
X27335494Y5016370D01*
X27339493Y5016785D01*
X27484322Y5005387D01*
X27503849Y5002294D01*
X27669120Y4962616D01*
X27687914Y4956510D01*
X27844945Y4891465D01*
X27862556Y4882491D01*
X28007475Y4793684D01*
X28023470Y4782063D01*
X28152705Y4671686D01*
X28166686Y4657705D01*
X28277063Y4528470D01*
X28288684Y4512475D01*
X28377491Y4367556D01*
X28386465Y4349945D01*
X28406675Y4301155D01*
X28451508Y4192919D01*
X28457616Y4174120D01*
X28485036Y4059910D01*
X28497294Y4008850D01*
X28500387Y3989321D01*
X28513642Y3820894D01*
X28513628Y3819930D01*
X28509515Y3810000D01*
X28513354Y3800733D01*
X28513308Y3797543D01*
X28512583Y3790801D01*
X28514500Y3777469D01*
X28514500Y-28562965D01*
X28512312Y-28562965D01*
X28512927Y-28566762D01*
X28509515Y-28575000D01*
X28513590Y-28584839D01*
X28511370Y-28605494D01*
X28511785Y-28609493D01*
X28500387Y-28754322D01*
X28497294Y-28773849D01*
X28460815Y-28925800D01*
X28457618Y-28939115D01*
X28451510Y-28957914D01*
X28386465Y-29114945D01*
X28377491Y-29132556D01*
X28288684Y-29277475D01*
X28277063Y-29293470D01*
X28166686Y-29422705D01*
X28152705Y-29436686D01*
X28023470Y-29547063D01*
X28007475Y-29558684D01*
X27862556Y-29647491D01*
X27844945Y-29656465D01*
X27687914Y-29721510D01*
X27669120Y-29727616D01*
X27516946Y-29764150D01*
X27503850Y-29767294D01*
X27484321Y-29770387D01*
X27315894Y-29783642D01*
X27314930Y-29783628D01*
X27305000Y-29779515D01*
X27295733Y-29783354D01*
X27292543Y-29783308D01*
X27285801Y-29782583D01*
X27272469Y-29784500D01*
X-12052965Y-29784500D01*
X-12052965Y-29782312D01*
X-12056762Y-29782927D01*
X-12065000Y-29779515D01*
X-12074839Y-29783590D01*
X-12095494Y-29781370D01*
X-12099493Y-29781785D01*
X-12244322Y-29770387D01*
X-12263850Y-29767294D01*
X-12276946Y-29764150D01*
X-12429120Y-29727616D01*
X-12447914Y-29721510D01*
X-12604945Y-29656465D01*
X-12622556Y-29647491D01*
X-12767475Y-29558684D01*
X-12783470Y-29547063D01*
X-12912705Y-29436686D01*
X-12926686Y-29422705D01*
X-13037063Y-29293470D01*
X-13048684Y-29277475D01*
X-13137491Y-29132556D01*
X-13146465Y-29114945D01*
X-13211510Y-28957914D01*
X-13217618Y-28939115D01*
X-13220814Y-28925800D01*
X-13257294Y-28773849D01*
X-13260387Y-28754321D01*
X-13273642Y-28585894D01*
X-13273628Y-28584930D01*
X-13269515Y-28575000D01*
X-13273354Y-28565733D01*
X-13273308Y-28562543D01*
X-13272583Y-28555801D01*
X-13274500Y-28542469D01*
X-13274500Y-24115262D01*
X-11215480Y-24115262D01*
X-11198241Y-24320553D01*
X-11196542Y-24326478D01*
X-11167747Y-24426897D01*
X-11141456Y-24518586D01*
X-11138641Y-24524063D01*
X-11138640Y-24524066D01*
X-11067499Y-24662491D01*
X-11047288Y-24701818D01*
X-10919323Y-24863270D01*
X-10914630Y-24867264D01*
X-10914629Y-24867265D01*
X-10770374Y-24990035D01*
X-10762436Y-24996791D01*
X-10582602Y-25097297D01*
X-10507648Y-25121651D01*
X-10392529Y-25159056D01*
X-10392525Y-25159057D01*
X-10386671Y-25160959D01*
X-10182106Y-25185351D01*
X-10175971Y-25184879D01*
X-10175969Y-25184879D01*
X-10115435Y-25180221D01*
X-9976700Y-25169546D01*
X-9970770Y-25167890D01*
X-9970768Y-25167890D01*
X-9838471Y-25130952D01*
X-9778275Y-25114145D01*
X-9772786Y-25111372D01*
X-9772780Y-25111370D01*
X-9599884Y-25024033D01*
X-9594390Y-25021258D01*
X-9560563Y-24994830D01*
X-9436899Y-24898213D01*
X-9432049Y-24894424D01*
X-9370066Y-24822616D01*
X-9301460Y-24743134D01*
X-9301460Y-24743133D01*
X-9297436Y-24738472D01*
X-9276613Y-24701818D01*
X-9247485Y-24650543D01*
X-9195677Y-24559344D01*
X-9130649Y-24363863D01*
X-9104829Y-24159474D01*
X-9104417Y-24130000D01*
X-9124520Y-23924970D01*
X-9184065Y-23727749D01*
X-9280782Y-23545849D01*
X-9373784Y-23431818D01*
X-9407094Y-23390975D01*
X-9407097Y-23390972D01*
X-9410989Y-23386200D01*
X-9484122Y-23325699D01*
X-9564975Y-23258811D01*
X-9564979Y-23258809D01*
X-9569725Y-23254882D01*
X-9750945Y-23156897D01*
X-9947746Y-23095977D01*
X-9953871Y-23095333D01*
X-9953872Y-23095333D01*
X-10146502Y-23075087D01*
X-10146504Y-23075087D01*
X-10152631Y-23074443D01*
X-10233012Y-23081758D01*
X-10351658Y-23092555D01*
X-10351661Y-23092556D01*
X-10357797Y-23093114D01*
X-10555428Y-23151280D01*
X-10560893Y-23154137D01*
X-10622269Y-23186224D01*
X-10737998Y-23246726D01*
X-10742799Y-23250586D01*
X-10742802Y-23250588D01*
X-10797677Y-23294709D01*
X-10898553Y-23375815D01*
X-11030976Y-23533630D01*
X-11033944Y-23539028D01*
X-11033947Y-23539033D01*
X-11098099Y-23655727D01*
X-11130224Y-23714162D01*
X-11192516Y-23910532D01*
X-11193202Y-23916649D01*
X-11193203Y-23916653D01*
X-11214793Y-24109137D01*
X-11215480Y-24115262D01*
X-13274500Y-24115262D01*
X-13274500Y-21575262D01*
X-11215480Y-21575262D01*
X-11198241Y-21780553D01*
X-11196542Y-21786478D01*
X-11148963Y-21952405D01*
X-11141456Y-21978586D01*
X-11138641Y-21984063D01*
X-11138640Y-21984066D01*
X-11068196Y-22121136D01*
X-11047288Y-22161818D01*
X-10919323Y-22323270D01*
X-10914630Y-22327264D01*
X-10914629Y-22327265D01*
X-10770374Y-22450035D01*
X-10762436Y-22456791D01*
X-10757058Y-22459797D01*
X-10757056Y-22459798D01*
X-10725437Y-22477469D01*
X-10582602Y-22557297D01*
X-10507648Y-22581651D01*
X-10392529Y-22619056D01*
X-10392525Y-22619057D01*
X-10386671Y-22620959D01*
X-10182106Y-22645351D01*
X-10175971Y-22644879D01*
X-10175969Y-22644879D01*
X-10119477Y-22640532D01*
X-9976700Y-22629546D01*
X-9970770Y-22627890D01*
X-9970768Y-22627890D01*
X-9784203Y-22575800D01*
X-9784204Y-22575800D01*
X-9778275Y-22574145D01*
X-9772786Y-22571372D01*
X-9772780Y-22571370D01*
X-9599884Y-22484033D01*
X-9594390Y-22481258D01*
X-9581595Y-22471262D01*
X-9436899Y-22358213D01*
X-9432049Y-22354424D01*
X-9383099Y-22297715D01*
X-9301460Y-22203134D01*
X-9301460Y-22203133D01*
X-9297436Y-22198472D01*
X-9276613Y-22161818D01*
X-9247485Y-22110543D01*
X-9195677Y-22019344D01*
X-9130649Y-21823863D01*
X-9104829Y-21619474D01*
X-9104417Y-21590000D01*
X-9124520Y-21384970D01*
X-9184065Y-21187749D01*
X-9280782Y-21005849D01*
X-9373784Y-20891818D01*
X-9407094Y-20850975D01*
X-9407097Y-20850972D01*
X-9410989Y-20846200D01*
X-9521582Y-20754709D01*
X-9564975Y-20718811D01*
X-9564979Y-20718809D01*
X-9569725Y-20714882D01*
X-9750945Y-20616897D01*
X-9947746Y-20555977D01*
X-9953871Y-20555333D01*
X-9953872Y-20555333D01*
X-10146502Y-20535087D01*
X-10146504Y-20535087D01*
X-10152631Y-20534443D01*
X-10239471Y-20542346D01*
X-10351658Y-20552555D01*
X-10351661Y-20552556D01*
X-10357797Y-20553114D01*
X-10555428Y-20611280D01*
X-10560893Y-20614137D01*
X-10622269Y-20646224D01*
X-10737998Y-20706726D01*
X-10742799Y-20710586D01*
X-10742802Y-20710588D01*
X-10797675Y-20754707D01*
X-10898553Y-20835815D01*
X-11030976Y-20993630D01*
X-11033944Y-20999028D01*
X-11033947Y-20999033D01*
X-11097713Y-21115024D01*
X-11130224Y-21174162D01*
X-11192516Y-21370532D01*
X-11193202Y-21376649D01*
X-11193203Y-21376653D01*
X-11214793Y-21569137D01*
X-11215480Y-21575262D01*
X-13274500Y-21575262D01*
X-13274500Y-19035262D01*
X-11215480Y-19035262D01*
X-11198241Y-19240553D01*
X-11196542Y-19246478D01*
X-11148963Y-19412405D01*
X-11141456Y-19438586D01*
X-11138641Y-19444063D01*
X-11138640Y-19444066D01*
X-11063072Y-19591105D01*
X-11047288Y-19621818D01*
X-10919323Y-19783270D01*
X-10914630Y-19787264D01*
X-10914629Y-19787265D01*
X-10770374Y-19910035D01*
X-10762436Y-19916791D01*
X-10582602Y-20017297D01*
X-10487762Y-20048113D01*
X-10392529Y-20079056D01*
X-10392525Y-20079057D01*
X-10386671Y-20080959D01*
X-10182106Y-20105351D01*
X-10175971Y-20104879D01*
X-10175969Y-20104879D01*
X-10119477Y-20100532D01*
X-9976700Y-20089546D01*
X-9970770Y-20087890D01*
X-9970768Y-20087890D01*
X-9784203Y-20035800D01*
X-9784204Y-20035800D01*
X-9778275Y-20034145D01*
X-9772786Y-20031372D01*
X-9772780Y-20031370D01*
X-9599884Y-19944033D01*
X-9594390Y-19941258D01*
X-9573854Y-19925214D01*
X-9490453Y-19860054D01*
X-9432049Y-19814424D01*
X-9297436Y-19658472D01*
X-9276613Y-19621818D01*
X-9244964Y-19566105D01*
X-9195677Y-19479344D01*
X-9130649Y-19283863D01*
X-9104829Y-19079474D01*
X-9104417Y-19050000D01*
X-9105862Y-19035262D01*
X-8675480Y-19035262D01*
X-8658241Y-19240553D01*
X-8656542Y-19246478D01*
X-8608963Y-19412405D01*
X-8601456Y-19438586D01*
X-8598641Y-19444063D01*
X-8598640Y-19444066D01*
X-8523072Y-19591105D01*
X-8507288Y-19621818D01*
X-8379323Y-19783270D01*
X-8374630Y-19787264D01*
X-8374629Y-19787265D01*
X-8230374Y-19910035D01*
X-8222436Y-19916791D01*
X-8042602Y-20017297D01*
X-7947762Y-20048113D01*
X-7852529Y-20079056D01*
X-7852525Y-20079057D01*
X-7846671Y-20080959D01*
X-7642106Y-20105351D01*
X-7635971Y-20104879D01*
X-7635969Y-20104879D01*
X-7579477Y-20100532D01*
X-7436700Y-20089546D01*
X-7430770Y-20087890D01*
X-7430768Y-20087890D01*
X-7244203Y-20035800D01*
X-7244204Y-20035800D01*
X-7238275Y-20034145D01*
X-7232786Y-20031372D01*
X-7232780Y-20031370D01*
X-7059884Y-19944033D01*
X-7054390Y-19941258D01*
X-7033854Y-19925214D01*
X-6950453Y-19860054D01*
X-6892049Y-19814424D01*
X-6757436Y-19658472D01*
X-6736613Y-19621818D01*
X-6704964Y-19566105D01*
X-6655677Y-19479344D01*
X-6590649Y-19283863D01*
X-6564829Y-19079474D01*
X-6564417Y-19050000D01*
X-6584520Y-18844970D01*
X-6644065Y-18647749D01*
X-6740782Y-18465849D01*
X-6833784Y-18351818D01*
X-6867094Y-18310975D01*
X-6867097Y-18310972D01*
X-6870989Y-18306200D01*
X-6981582Y-18214709D01*
X-7024975Y-18178811D01*
X-7024979Y-18178809D01*
X-7029725Y-18174882D01*
X-7210945Y-18076897D01*
X-7407746Y-18015977D01*
X-7413871Y-18015333D01*
X-7413872Y-18015333D01*
X-7606502Y-17995087D01*
X-7606504Y-17995087D01*
X-7612631Y-17994443D01*
X-7699471Y-18002346D01*
X-7811658Y-18012555D01*
X-7811661Y-18012556D01*
X-7817797Y-18013114D01*
X-8015428Y-18071280D01*
X-8020893Y-18074137D01*
X-8082269Y-18106224D01*
X-8197998Y-18166726D01*
X-8202799Y-18170586D01*
X-8202802Y-18170588D01*
X-8353746Y-18291950D01*
X-8358553Y-18295815D01*
X-8490976Y-18453630D01*
X-8493944Y-18459028D01*
X-8493947Y-18459033D01*
X-8557715Y-18575028D01*
X-8590224Y-18634162D01*
X-8652516Y-18830532D01*
X-8653202Y-18836649D01*
X-8653203Y-18836653D01*
X-8674793Y-19029137D01*
X-8675480Y-19035262D01*
X-9105862Y-19035262D01*
X-9124520Y-18844970D01*
X-9184065Y-18647749D01*
X-9280782Y-18465849D01*
X-9373784Y-18351818D01*
X-9407094Y-18310975D01*
X-9407097Y-18310972D01*
X-9410989Y-18306200D01*
X-9521582Y-18214709D01*
X-9564975Y-18178811D01*
X-9564979Y-18178809D01*
X-9569725Y-18174882D01*
X-9750945Y-18076897D01*
X-9947746Y-18015977D01*
X-9953871Y-18015333D01*
X-9953872Y-18015333D01*
X-10146502Y-17995087D01*
X-10146504Y-17995087D01*
X-10152631Y-17994443D01*
X-10239471Y-18002346D01*
X-10351658Y-18012555D01*
X-10351661Y-18012556D01*
X-10357797Y-18013114D01*
X-10555428Y-18071280D01*
X-10560893Y-18074137D01*
X-10622269Y-18106224D01*
X-10737998Y-18166726D01*
X-10742799Y-18170586D01*
X-10742802Y-18170588D01*
X-10893746Y-18291950D01*
X-10898553Y-18295815D01*
X-11030976Y-18453630D01*
X-11033944Y-18459028D01*
X-11033947Y-18459033D01*
X-11097715Y-18575028D01*
X-11130224Y-18634162D01*
X-11192516Y-18830532D01*
X-11193202Y-18836649D01*
X-11193203Y-18836653D01*
X-11214793Y-19029137D01*
X-11215480Y-19035262D01*
X-13274500Y-19035262D01*
X-13274500Y-16495262D01*
X-11215480Y-16495262D01*
X-11214964Y-16501406D01*
X-11203456Y-16638445D01*
X-11198241Y-16700553D01*
X-11196542Y-16706478D01*
X-11148963Y-16872405D01*
X-11141456Y-16898586D01*
X-11138641Y-16904063D01*
X-11138640Y-16904066D01*
X-11069964Y-17037696D01*
X-11047288Y-17081818D01*
X-10919323Y-17243270D01*
X-10914630Y-17247264D01*
X-10914629Y-17247265D01*
X-10770374Y-17370035D01*
X-10762436Y-17376791D01*
X-10582602Y-17477297D01*
X-10487762Y-17508113D01*
X-10392529Y-17539056D01*
X-10392525Y-17539057D01*
X-10386671Y-17540959D01*
X-10182106Y-17565351D01*
X-10175971Y-17564879D01*
X-10175969Y-17564879D01*
X-10119477Y-17560532D01*
X-9976700Y-17549546D01*
X-9970770Y-17547890D01*
X-9970768Y-17547890D01*
X-9784203Y-17495800D01*
X-9784204Y-17495800D01*
X-9778275Y-17494145D01*
X-9772786Y-17491372D01*
X-9772780Y-17491370D01*
X-9599884Y-17404033D01*
X-9594390Y-17401258D01*
X-9557340Y-17372312D01*
X-9436899Y-17278213D01*
X-9432049Y-17274424D01*
X-9406143Y-17244412D01*
X-9301460Y-17123134D01*
X-9301460Y-17123133D01*
X-9297436Y-17118472D01*
X-9276613Y-17081818D01*
X-9246898Y-17029509D01*
X-9195677Y-16939344D01*
X-9130649Y-16743863D01*
X-9104829Y-16539474D01*
X-9104417Y-16510000D01*
X-9124520Y-16304970D01*
X-9184065Y-16107749D01*
X-9185688Y-16104697D01*
X-9193056Y-16035028D01*
X-9158192Y-15968519D01*
X-8792078Y-15602405D01*
X-8729766Y-15568379D01*
X-8702983Y-15565500D01*
X-8469067Y-15565500D01*
X-8400946Y-15585502D01*
X-8354453Y-15639158D01*
X-8344349Y-15709432D01*
X-8372546Y-15772491D01*
X-8490976Y-15913630D01*
X-8493944Y-15919028D01*
X-8493947Y-15919033D01*
X-8583383Y-16081718D01*
X-8590224Y-16094162D01*
X-8652516Y-16290532D01*
X-8653202Y-16296649D01*
X-8653203Y-16296653D01*
X-8658694Y-16345609D01*
X-8675480Y-16495262D01*
X-8674964Y-16501406D01*
X-8663456Y-16638445D01*
X-8658241Y-16700553D01*
X-8656542Y-16706478D01*
X-8608963Y-16872405D01*
X-8601456Y-16898586D01*
X-8598641Y-16904063D01*
X-8598640Y-16904066D01*
X-8529964Y-17037696D01*
X-8507288Y-17081818D01*
X-8379323Y-17243270D01*
X-8374630Y-17247264D01*
X-8374629Y-17247265D01*
X-8230374Y-17370035D01*
X-8222436Y-17376791D01*
X-8042602Y-17477297D01*
X-7947762Y-17508113D01*
X-7852529Y-17539056D01*
X-7852525Y-17539057D01*
X-7846671Y-17540959D01*
X-7642106Y-17565351D01*
X-7635971Y-17564879D01*
X-7635969Y-17564879D01*
X-7579477Y-17560532D01*
X-7436700Y-17549546D01*
X-7430770Y-17547890D01*
X-7430768Y-17547890D01*
X-7244203Y-17495800D01*
X-7244204Y-17495800D01*
X-7238275Y-17494145D01*
X-7232786Y-17491372D01*
X-7232780Y-17491370D01*
X-7059884Y-17404033D01*
X-7054390Y-17401258D01*
X-7017340Y-17372312D01*
X-6896899Y-17278213D01*
X-6892049Y-17274424D01*
X-6866143Y-17244412D01*
X-6761460Y-17123134D01*
X-6761460Y-17123133D01*
X-6757436Y-17118472D01*
X-6736613Y-17081818D01*
X-6678450Y-16979432D01*
X-6655677Y-16939344D01*
X-6649816Y-16921726D01*
X-6609334Y-16863403D01*
X-6543746Y-16836224D01*
X-6530259Y-16835500D01*
X-849067Y-16835500D01*
X-780946Y-16855502D01*
X-734453Y-16909158D01*
X-724349Y-16979432D01*
X-752546Y-17042491D01*
X-870976Y-17183630D01*
X-873944Y-17189028D01*
X-873947Y-17189033D01*
X-967257Y-17358765D01*
X-970224Y-17364162D01*
X-1032516Y-17560532D01*
X-1033202Y-17566649D01*
X-1033203Y-17566653D01*
X-1054793Y-17759137D01*
X-1055480Y-17765262D01*
X-1054964Y-17771406D01*
X-1044591Y-17894929D01*
X-1038241Y-17970553D01*
X-1036542Y-17976478D01*
X-998466Y-18109264D01*
X-981456Y-18168586D01*
X-978641Y-18174063D01*
X-978640Y-18174066D01*
X-890103Y-18346341D01*
X-887288Y-18351818D01*
X-759323Y-18513270D01*
X-754630Y-18517264D01*
X-754629Y-18517265D01*
X-610374Y-18640035D01*
X-602436Y-18646791D01*
X-422602Y-18747297D01*
X-328219Y-18777964D01*
X-232529Y-18809056D01*
X-232525Y-18809057D01*
X-226671Y-18810959D01*
X-22106Y-18835351D01*
X-15971Y-18834879D01*
X-15969Y-18834879D01*
X40523Y-18830532D01*
X183300Y-18819546D01*
X189230Y-18817890D01*
X189232Y-18817890D01*
X375797Y-18765800D01*
X375796Y-18765800D01*
X381725Y-18764145D01*
X387214Y-18761372D01*
X387220Y-18761370D01*
X560116Y-18674033D01*
X565610Y-18671258D01*
X588144Y-18653653D01*
X646780Y-18607841D01*
X727951Y-18544424D01*
X862564Y-18388472D01*
X883387Y-18351818D01*
X917396Y-18291950D01*
X964323Y-18209344D01*
X970184Y-18191726D01*
X1010666Y-18133403D01*
X1076254Y-18106224D01*
X1089741Y-18105500D01*
X12680290Y-18105500D01*
X12691272Y-18105980D01*
X12717820Y-18108303D01*
X12717822Y-18108303D01*
X12728807Y-18109264D01*
X12765215Y-18099508D01*
X12775942Y-18097130D01*
X12779301Y-18096538D01*
X12813045Y-18090588D01*
X12822590Y-18085077D01*
X12825866Y-18083885D01*
X12829034Y-18082408D01*
X12839684Y-18079554D01*
X12870544Y-18057945D01*
X12879815Y-18052039D01*
X12902910Y-18038705D01*
X12902911Y-18038704D01*
X12912455Y-18033194D01*
X12936685Y-18004319D01*
X12944110Y-17996217D01*
X14067922Y-16872405D01*
X14130234Y-16838379D01*
X14157017Y-16835500D01*
X14390933Y-16835500D01*
X14459054Y-16855502D01*
X14505547Y-16909158D01*
X14515651Y-16979432D01*
X14487454Y-17042491D01*
X14369024Y-17183630D01*
X14366056Y-17189028D01*
X14366053Y-17189033D01*
X14272743Y-17358765D01*
X14269776Y-17364162D01*
X14207484Y-17560532D01*
X14206798Y-17566649D01*
X14206797Y-17566653D01*
X14185207Y-17759137D01*
X14184520Y-17765262D01*
X14185036Y-17771406D01*
X14195409Y-17894929D01*
X14201759Y-17970553D01*
X14203458Y-17976478D01*
X14241534Y-18109264D01*
X14258544Y-18168586D01*
X14261359Y-18174063D01*
X14261360Y-18174066D01*
X14349897Y-18346341D01*
X14352712Y-18351818D01*
X14480677Y-18513270D01*
X14480550Y-18513370D01*
X14512227Y-18573870D01*
X14505927Y-18644586D01*
X14462395Y-18700671D01*
X14388658Y-18724500D01*
X13989713Y-18724500D01*
X13978732Y-18724021D01*
X13952170Y-18721697D01*
X13952168Y-18721697D01*
X13941193Y-18720737D01*
X13904783Y-18730492D01*
X13894076Y-18732866D01*
X13856955Y-18739412D01*
X13847411Y-18744922D01*
X13844135Y-18746114D01*
X13840964Y-18747593D01*
X13830316Y-18750446D01*
X13821287Y-18756768D01*
X13799449Y-18772059D01*
X13790179Y-18777964D01*
X13767092Y-18791293D01*
X13767088Y-18791296D01*
X13757545Y-18796806D01*
X13739853Y-18817890D01*
X13733320Y-18825676D01*
X13725894Y-18833779D01*
X12602079Y-19957595D01*
X12539767Y-19991620D01*
X12512984Y-19994500D01*
X1091269Y-19994500D01*
X1023148Y-19974498D01*
X976008Y-19917991D01*
X975935Y-19917749D01*
X879218Y-19735849D01*
X786216Y-19621818D01*
X752906Y-19580975D01*
X752903Y-19580972D01*
X749011Y-19576200D01*
X742173Y-19570543D01*
X595025Y-19448811D01*
X595021Y-19448809D01*
X590275Y-19444882D01*
X409055Y-19346897D01*
X212254Y-19285977D01*
X206129Y-19285333D01*
X206128Y-19285333D01*
X13498Y-19265087D01*
X13496Y-19265087D01*
X7369Y-19264443D01*
X-79471Y-19272346D01*
X-191658Y-19282555D01*
X-191661Y-19282556D01*
X-197797Y-19283114D01*
X-395428Y-19341280D01*
X-400893Y-19344137D01*
X-462625Y-19376410D01*
X-577998Y-19436726D01*
X-582799Y-19440586D01*
X-582802Y-19440588D01*
X-733746Y-19561950D01*
X-738553Y-19565815D01*
X-870976Y-19723630D01*
X-873944Y-19729028D01*
X-873947Y-19729033D01*
X-948593Y-19864815D01*
X-970224Y-19904162D01*
X-1032516Y-20100532D01*
X-1033202Y-20106649D01*
X-1033203Y-20106653D01*
X-1054793Y-20299137D01*
X-1055480Y-20305262D01*
X-1038241Y-20510553D01*
X-1036542Y-20516478D01*
X-998466Y-20649264D01*
X-981456Y-20708586D01*
X-978641Y-20714063D01*
X-978640Y-20714066D01*
X-890103Y-20886341D01*
X-887288Y-20891818D01*
X-759323Y-21053270D01*
X-754630Y-21057264D01*
X-754629Y-21057265D01*
X-610374Y-21180035D01*
X-602436Y-21186791D01*
X-422602Y-21287297D01*
X-328219Y-21317964D01*
X-232529Y-21349056D01*
X-232525Y-21349057D01*
X-226671Y-21350959D01*
X-22106Y-21375351D01*
X-15971Y-21374879D01*
X-15969Y-21374879D01*
X40523Y-21370532D01*
X183300Y-21359546D01*
X189230Y-21357890D01*
X189232Y-21357890D01*
X375797Y-21305800D01*
X375796Y-21305800D01*
X381725Y-21304145D01*
X387214Y-21301372D01*
X387220Y-21301370D01*
X560116Y-21214033D01*
X565610Y-21211258D01*
X591742Y-21190842D01*
X646780Y-21147841D01*
X727951Y-21084424D01*
X862564Y-20928472D01*
X883387Y-20891818D01*
X961275Y-20754709D01*
X961276Y-20754707D01*
X964323Y-20749344D01*
X970184Y-20731726D01*
X1010666Y-20673403D01*
X1076254Y-20646224D01*
X1089741Y-20645500D01*
X12680290Y-20645500D01*
X12691272Y-20645980D01*
X12717820Y-20648303D01*
X12717822Y-20648303D01*
X12728807Y-20649264D01*
X12765215Y-20639508D01*
X12775942Y-20637130D01*
X12779301Y-20636538D01*
X12813045Y-20630588D01*
X12822590Y-20625077D01*
X12825866Y-20623885D01*
X12829034Y-20622408D01*
X12839684Y-20619554D01*
X12870544Y-20597945D01*
X12879815Y-20592039D01*
X12902910Y-20578705D01*
X12902911Y-20578704D01*
X12912455Y-20573194D01*
X12936685Y-20544319D01*
X12944110Y-20536217D01*
X14067922Y-19412405D01*
X14130234Y-19378379D01*
X14157017Y-19375500D01*
X14390933Y-19375500D01*
X14459054Y-19395502D01*
X14505547Y-19449158D01*
X14515651Y-19519432D01*
X14487454Y-19582491D01*
X14369024Y-19723630D01*
X14366056Y-19729028D01*
X14366053Y-19729033D01*
X14291407Y-19864815D01*
X14269776Y-19904162D01*
X14207484Y-20100532D01*
X14206798Y-20106649D01*
X14206797Y-20106653D01*
X14185207Y-20299137D01*
X14184520Y-20305262D01*
X14201759Y-20510553D01*
X14203458Y-20516478D01*
X14241534Y-20649264D01*
X14258544Y-20708586D01*
X14261359Y-20714063D01*
X14261360Y-20714066D01*
X14349897Y-20886341D01*
X14352712Y-20891818D01*
X14480677Y-21053270D01*
X14480550Y-21053370D01*
X14512227Y-21113870D01*
X14505927Y-21184586D01*
X14462395Y-21240671D01*
X14388658Y-21264500D01*
X13989713Y-21264500D01*
X13978732Y-21264021D01*
X13952170Y-21261697D01*
X13952168Y-21261697D01*
X13941193Y-21260737D01*
X13904783Y-21270492D01*
X13894076Y-21272866D01*
X13856955Y-21279412D01*
X13847411Y-21284922D01*
X13844135Y-21286114D01*
X13840964Y-21287593D01*
X13830316Y-21290446D01*
X13821287Y-21296768D01*
X13799449Y-21312059D01*
X13790179Y-21317964D01*
X13767092Y-21331293D01*
X13767088Y-21331296D01*
X13757545Y-21336806D01*
X13739853Y-21357890D01*
X13733320Y-21365676D01*
X13725894Y-21373779D01*
X12602079Y-22497595D01*
X12539767Y-22531620D01*
X12512984Y-22534500D01*
X1091269Y-22534500D01*
X1023148Y-22514498D01*
X976008Y-22457991D01*
X975935Y-22457749D01*
X879218Y-22275849D01*
X782889Y-22157738D01*
X752906Y-22120975D01*
X752903Y-22120972D01*
X749011Y-22116200D01*
X717000Y-22089718D01*
X595025Y-21988811D01*
X595021Y-21988809D01*
X590275Y-21984882D01*
X409055Y-21886897D01*
X212254Y-21825977D01*
X206129Y-21825333D01*
X206128Y-21825333D01*
X13498Y-21805087D01*
X13496Y-21805087D01*
X7369Y-21804443D01*
X-79471Y-21812346D01*
X-191658Y-21822555D01*
X-191661Y-21822556D01*
X-197797Y-21823114D01*
X-395428Y-21881280D01*
X-400893Y-21884137D01*
X-462625Y-21916410D01*
X-577998Y-21976726D01*
X-582799Y-21980586D01*
X-582802Y-21980588D01*
X-680864Y-22059432D01*
X-738553Y-22105815D01*
X-870976Y-22263630D01*
X-873944Y-22269028D01*
X-873947Y-22269033D01*
X-928068Y-22367480D01*
X-970224Y-22444162D01*
X-1032516Y-22640532D01*
X-1055480Y-22845262D01*
X-1054964Y-22851406D01*
X-1046329Y-22954232D01*
X-1038241Y-23050553D01*
X-1036542Y-23056478D01*
X-994740Y-23202258D01*
X-981456Y-23248586D01*
X-978641Y-23254063D01*
X-978640Y-23254066D01*
X-890103Y-23426341D01*
X-887288Y-23431818D01*
X-759323Y-23593270D01*
X-759450Y-23593370D01*
X-727773Y-23653870D01*
X-734073Y-23724586D01*
X-777605Y-23780671D01*
X-851342Y-23804500D01*
X-4892983Y-23804500D01*
X-4961104Y-23784498D01*
X-4982078Y-23767595D01*
X-5795441Y-22954232D01*
X-6619285Y-22130389D01*
X-6653310Y-22068077D01*
X-6649748Y-22001522D01*
X-6604263Y-21864787D01*
X-6590649Y-21823863D01*
X-6564829Y-21619474D01*
X-6564417Y-21590000D01*
X-6584520Y-21384970D01*
X-6644065Y-21187749D01*
X-6740782Y-21005849D01*
X-6833784Y-20891818D01*
X-6867094Y-20850975D01*
X-6867097Y-20850972D01*
X-6870989Y-20846200D01*
X-6981582Y-20754709D01*
X-7024975Y-20718811D01*
X-7024979Y-20718809D01*
X-7029725Y-20714882D01*
X-7210945Y-20616897D01*
X-7407746Y-20555977D01*
X-7413871Y-20555333D01*
X-7413872Y-20555333D01*
X-7606502Y-20535087D01*
X-7606504Y-20535087D01*
X-7612631Y-20534443D01*
X-7699471Y-20542346D01*
X-7811658Y-20552555D01*
X-7811661Y-20552556D01*
X-7817797Y-20553114D01*
X-8015428Y-20611280D01*
X-8020893Y-20614137D01*
X-8082269Y-20646224D01*
X-8197998Y-20706726D01*
X-8202799Y-20710586D01*
X-8202802Y-20710588D01*
X-8257675Y-20754707D01*
X-8358553Y-20835815D01*
X-8490976Y-20993630D01*
X-8493944Y-20999028D01*
X-8493947Y-20999033D01*
X-8557713Y-21115024D01*
X-8590224Y-21174162D01*
X-8652516Y-21370532D01*
X-8653202Y-21376649D01*
X-8653203Y-21376653D01*
X-8674793Y-21569137D01*
X-8675480Y-21575262D01*
X-8658241Y-21780553D01*
X-8656542Y-21786478D01*
X-8608963Y-21952405D01*
X-8601456Y-21978586D01*
X-8598641Y-21984063D01*
X-8598640Y-21984066D01*
X-8528196Y-22121136D01*
X-8507288Y-22161818D01*
X-8379323Y-22323270D01*
X-8374630Y-22327264D01*
X-8374629Y-22327265D01*
X-8230374Y-22450035D01*
X-8222436Y-22456791D01*
X-8217058Y-22459797D01*
X-8217056Y-22459798D01*
X-8185437Y-22477469D01*
X-8042602Y-22557297D01*
X-7967648Y-22581651D01*
X-7852529Y-22619056D01*
X-7852525Y-22619057D01*
X-7846671Y-22620959D01*
X-7642106Y-22645351D01*
X-7635971Y-22644879D01*
X-7635969Y-22644879D01*
X-7579477Y-22640532D01*
X-7436700Y-22629546D01*
X-7430770Y-22627890D01*
X-7430768Y-22627890D01*
X-7244203Y-22575800D01*
X-7244204Y-22575800D01*
X-7238275Y-22574145D01*
X-7232779Y-22571369D01*
X-7225278Y-22567580D01*
X-7155456Y-22554721D01*
X-7089765Y-22581651D01*
X-7079374Y-22590952D01*
X-6197193Y-23473134D01*
X-5324105Y-24346222D01*
X-5316679Y-24354325D01*
X-5292455Y-24383194D01*
X-5259816Y-24402038D01*
X-5250548Y-24407942D01*
X-5219684Y-24429553D01*
X-5209038Y-24432406D01*
X-5205870Y-24433883D01*
X-5202593Y-24435076D01*
X-5193045Y-24440588D01*
X-5163492Y-24445799D01*
X-5155931Y-24447132D01*
X-5145197Y-24449512D01*
X-5108807Y-24459263D01*
X-5097831Y-24458303D01*
X-5097828Y-24458303D01*
X-5071269Y-24455979D01*
X-5060288Y-24455500D01*
X-849067Y-24455500D01*
X-780946Y-24475502D01*
X-734453Y-24529158D01*
X-724349Y-24599432D01*
X-752546Y-24662491D01*
X-870976Y-24803630D01*
X-873944Y-24809028D01*
X-873947Y-24809033D01*
X-942813Y-24934301D01*
X-970224Y-24984162D01*
X-1032516Y-25180532D01*
X-1033202Y-25186649D01*
X-1033203Y-25186653D01*
X-1054793Y-25379137D01*
X-1055480Y-25385262D01*
X-1038241Y-25590553D01*
X-1036542Y-25596478D01*
X-999284Y-25726411D01*
X-981456Y-25788586D01*
X-978641Y-25794063D01*
X-978640Y-25794066D01*
X-957753Y-25834707D01*
X-887288Y-25971818D01*
X-759323Y-26133270D01*
X-759450Y-26133370D01*
X-727773Y-26193870D01*
X-734073Y-26264586D01*
X-777605Y-26320671D01*
X-851342Y-26344500D01*
X-4892983Y-26344500D01*
X-4961104Y-26324498D01*
X-4982078Y-26307595D01*
X-6619285Y-24670389D01*
X-6653310Y-24608077D01*
X-6649748Y-24541522D01*
X-6609170Y-24419540D01*
X-6590649Y-24363863D01*
X-6564829Y-24159474D01*
X-6564417Y-24130000D01*
X-6584520Y-23924970D01*
X-6644065Y-23727749D01*
X-6740782Y-23545849D01*
X-6833784Y-23431818D01*
X-6867094Y-23390975D01*
X-6867097Y-23390972D01*
X-6870989Y-23386200D01*
X-6944122Y-23325699D01*
X-7024975Y-23258811D01*
X-7024979Y-23258809D01*
X-7029725Y-23254882D01*
X-7210945Y-23156897D01*
X-7407746Y-23095977D01*
X-7413871Y-23095333D01*
X-7413872Y-23095333D01*
X-7606502Y-23075087D01*
X-7606504Y-23075087D01*
X-7612631Y-23074443D01*
X-7693012Y-23081758D01*
X-7811658Y-23092555D01*
X-7811661Y-23092556D01*
X-7817797Y-23093114D01*
X-8015428Y-23151280D01*
X-8020893Y-23154137D01*
X-8082269Y-23186224D01*
X-8197998Y-23246726D01*
X-8202799Y-23250586D01*
X-8202802Y-23250588D01*
X-8257677Y-23294709D01*
X-8358553Y-23375815D01*
X-8490976Y-23533630D01*
X-8493944Y-23539028D01*
X-8493947Y-23539033D01*
X-8558099Y-23655727D01*
X-8590224Y-23714162D01*
X-8652516Y-23910532D01*
X-8653202Y-23916649D01*
X-8653203Y-23916653D01*
X-8674793Y-24109137D01*
X-8675480Y-24115262D01*
X-8658241Y-24320553D01*
X-8656542Y-24326478D01*
X-8627747Y-24426897D01*
X-8601456Y-24518586D01*
X-8598641Y-24524063D01*
X-8598640Y-24524066D01*
X-8527499Y-24662491D01*
X-8507288Y-24701818D01*
X-8379323Y-24863270D01*
X-8374630Y-24867264D01*
X-8374629Y-24867265D01*
X-8230374Y-24990035D01*
X-8222436Y-24996791D01*
X-8042602Y-25097297D01*
X-7967648Y-25121651D01*
X-7852529Y-25159056D01*
X-7852525Y-25159057D01*
X-7846671Y-25160959D01*
X-7642106Y-25185351D01*
X-7635971Y-25184879D01*
X-7635969Y-25184879D01*
X-7575435Y-25180221D01*
X-7436700Y-25169546D01*
X-7430770Y-25167890D01*
X-7430768Y-25167890D01*
X-7298471Y-25130952D01*
X-7238275Y-25114145D01*
X-7232779Y-25111369D01*
X-7225278Y-25107580D01*
X-7155456Y-25094721D01*
X-7089765Y-25121651D01*
X-7079374Y-25130952D01*
X-6197193Y-26013134D01*
X-5324105Y-26886222D01*
X-5316679Y-26894325D01*
X-5292455Y-26923194D01*
X-5259816Y-26942038D01*
X-5250548Y-26947942D01*
X-5219684Y-26969553D01*
X-5209038Y-26972406D01*
X-5205870Y-26973883D01*
X-5202593Y-26975076D01*
X-5193045Y-26980588D01*
X-5163492Y-26985799D01*
X-5155931Y-26987132D01*
X-5145197Y-26989512D01*
X-5108807Y-26999263D01*
X-5097831Y-26998303D01*
X-5097828Y-26998303D01*
X-5071269Y-26995979D01*
X-5060288Y-26995500D01*
X-849067Y-26995500D01*
X-780946Y-27015502D01*
X-734453Y-27069158D01*
X-724349Y-27139432D01*
X-752546Y-27202491D01*
X-870976Y-27343630D01*
X-873944Y-27349028D01*
X-873947Y-27349033D01*
X-880685Y-27361290D01*
X-970224Y-27524162D01*
X-1032516Y-27720532D01*
X-1033202Y-27726649D01*
X-1033203Y-27726653D01*
X-1045999Y-27840733D01*
X-1055480Y-27925262D01*
X-1038241Y-28130553D01*
X-981456Y-28328586D01*
X-978641Y-28334063D01*
X-978640Y-28334066D01*
X-935465Y-28418076D01*
X-887288Y-28511818D01*
X-759323Y-28673270D01*
X-754630Y-28677264D01*
X-754629Y-28677265D01*
X-615927Y-28795309D01*
X-602436Y-28806791D01*
X-597058Y-28809797D01*
X-597056Y-28809798D01*
X-512519Y-28857044D01*
X-422602Y-28907297D01*
X-347654Y-28931649D01*
X-232529Y-28969056D01*
X-232525Y-28969057D01*
X-226671Y-28970959D01*
X-22106Y-28995351D01*
X-15971Y-28994879D01*
X-15969Y-28994879D01*
X40039Y-28990569D01*
X183300Y-28979546D01*
X189230Y-28977890D01*
X189232Y-28977890D01*
X328108Y-28939115D01*
X381725Y-28924145D01*
X394717Y-28917582D01*
X464540Y-28904720D01*
X530231Y-28931649D01*
X540625Y-28940951D01*
X780575Y-29180902D01*
X956712Y-29357039D01*
X964138Y-29365142D01*
X988356Y-29394005D01*
X997899Y-29399515D01*
X997903Y-29399518D01*
X1020990Y-29412847D01*
X1030259Y-29418751D01*
X1061127Y-29440365D01*
X1071775Y-29443218D01*
X1074946Y-29444697D01*
X1078222Y-29445889D01*
X1087766Y-29451399D01*
X1124887Y-29457945D01*
X1135594Y-29460319D01*
X1172004Y-29470074D01*
X1182979Y-29469114D01*
X1182981Y-29469114D01*
X1209542Y-29466790D01*
X1220523Y-29466311D01*
X15717683Y-29466311D01*
X15728665Y-29466791D01*
X15755213Y-29469114D01*
X15755215Y-29469114D01*
X15766200Y-29470075D01*
X15802608Y-29460319D01*
X15813335Y-29457941D01*
X15816694Y-29457349D01*
X15850438Y-29451399D01*
X15859983Y-29445888D01*
X15863259Y-29444696D01*
X15866427Y-29443219D01*
X15877077Y-29440365D01*
X15907943Y-29418752D01*
X15917208Y-29412850D01*
X15940299Y-29399518D01*
X15949848Y-29394005D01*
X15974078Y-29365128D01*
X15981504Y-29357026D01*
X21647601Y-23690930D01*
X21709913Y-23656904D01*
X21780728Y-23661969D01*
X21837564Y-23704516D01*
X21862375Y-23771036D01*
X21856798Y-23818121D01*
X21827484Y-23910532D01*
X21826798Y-23916649D01*
X21826797Y-23916653D01*
X21805207Y-24109137D01*
X21804520Y-24115262D01*
X21821759Y-24320553D01*
X21823458Y-24326478D01*
X21852253Y-24426897D01*
X21878544Y-24518586D01*
X21881359Y-24524063D01*
X21881360Y-24524066D01*
X21952501Y-24662491D01*
X21972712Y-24701818D01*
X22100677Y-24863270D01*
X22105370Y-24867264D01*
X22105371Y-24867265D01*
X22249626Y-24990035D01*
X22257564Y-24996791D01*
X22437398Y-25097297D01*
X22512352Y-25121651D01*
X22627471Y-25159056D01*
X22627475Y-25159057D01*
X22633329Y-25160959D01*
X22837894Y-25185351D01*
X22844029Y-25184879D01*
X22844031Y-25184879D01*
X22904565Y-25180221D01*
X23043300Y-25169546D01*
X23049230Y-25167890D01*
X23049232Y-25167890D01*
X23181529Y-25130952D01*
X23241725Y-25114145D01*
X23247214Y-25111372D01*
X23247220Y-25111370D01*
X23420116Y-25024033D01*
X23425610Y-25021258D01*
X23459437Y-24994830D01*
X23583101Y-24898213D01*
X23587951Y-24894424D01*
X23649934Y-24822616D01*
X23683409Y-24783834D01*
X24349500Y-24783834D01*
X24352481Y-24815369D01*
X24397366Y-24943184D01*
X24402958Y-24950754D01*
X24402959Y-24950757D01*
X24439182Y-24999798D01*
X24477850Y-25052150D01*
X24485421Y-25057742D01*
X24579243Y-25127041D01*
X24579246Y-25127042D01*
X24586816Y-25132634D01*
X24714631Y-25177519D01*
X24722277Y-25178242D01*
X24722278Y-25178242D01*
X24728248Y-25178806D01*
X24746166Y-25180500D01*
X26053834Y-25180500D01*
X26071752Y-25178806D01*
X26077722Y-25178242D01*
X26077723Y-25178242D01*
X26085369Y-25177519D01*
X26213184Y-25132634D01*
X26220754Y-25127042D01*
X26220757Y-25127041D01*
X26314579Y-25057742D01*
X26322150Y-25052150D01*
X26360818Y-24999798D01*
X26397041Y-24950757D01*
X26397042Y-24950754D01*
X26402634Y-24943184D01*
X26447519Y-24815369D01*
X26450500Y-24783834D01*
X26450500Y-23476166D01*
X26447519Y-23444631D01*
X26402634Y-23316816D01*
X26397042Y-23309246D01*
X26397041Y-23309243D01*
X26327742Y-23215421D01*
X26322150Y-23207850D01*
X26271702Y-23170588D01*
X26220757Y-23132959D01*
X26220754Y-23132958D01*
X26213184Y-23127366D01*
X26085369Y-23082481D01*
X26077723Y-23081758D01*
X26077722Y-23081758D01*
X26071752Y-23081194D01*
X26053834Y-23079500D01*
X24746166Y-23079500D01*
X24728248Y-23081194D01*
X24722278Y-23081758D01*
X24722277Y-23081758D01*
X24714631Y-23082481D01*
X24586816Y-23127366D01*
X24579246Y-23132958D01*
X24579243Y-23132959D01*
X24528298Y-23170588D01*
X24477850Y-23207850D01*
X24472258Y-23215421D01*
X24402959Y-23309243D01*
X24402958Y-23309246D01*
X24397366Y-23316816D01*
X24352481Y-23444631D01*
X24349500Y-23476166D01*
X24349500Y-24783834D01*
X23683409Y-24783834D01*
X23718540Y-24743134D01*
X23718540Y-24743133D01*
X23722564Y-24738472D01*
X23743387Y-24701818D01*
X23772515Y-24650543D01*
X23824323Y-24559344D01*
X23889351Y-24363863D01*
X23915171Y-24159474D01*
X23915583Y-24130000D01*
X23895480Y-23924970D01*
X23835935Y-23727749D01*
X23739218Y-23545849D01*
X23646216Y-23431818D01*
X23612906Y-23390975D01*
X23612903Y-23390972D01*
X23609011Y-23386200D01*
X23535878Y-23325699D01*
X23455025Y-23258811D01*
X23455021Y-23258809D01*
X23450275Y-23254882D01*
X23269055Y-23156897D01*
X23072254Y-23095977D01*
X23066129Y-23095333D01*
X23066128Y-23095333D01*
X22873498Y-23075087D01*
X22873496Y-23075087D01*
X22867369Y-23074443D01*
X22786988Y-23081758D01*
X22668342Y-23092555D01*
X22668339Y-23092556D01*
X22662203Y-23093114D01*
X22656292Y-23094854D01*
X22656285Y-23094855D01*
X22545795Y-23127374D01*
X22474799Y-23127420D01*
X22415048Y-23089074D01*
X22385514Y-23024512D01*
X22395573Y-22954232D01*
X22421125Y-22917406D01*
X22665334Y-22673197D01*
X22727646Y-22639171D01*
X22769347Y-22637178D01*
X22817392Y-22642906D01*
X22837894Y-22645351D01*
X22844029Y-22644879D01*
X22844031Y-22644879D01*
X22900523Y-22640532D01*
X23043300Y-22629546D01*
X23049230Y-22627890D01*
X23049232Y-22627890D01*
X23235797Y-22575800D01*
X23235796Y-22575800D01*
X23241725Y-22574145D01*
X23247214Y-22571372D01*
X23247220Y-22571370D01*
X23420116Y-22484033D01*
X23425610Y-22481258D01*
X23438405Y-22471262D01*
X23583101Y-22358213D01*
X23587951Y-22354424D01*
X23636901Y-22297715D01*
X23718540Y-22203134D01*
X23718540Y-22203133D01*
X23722564Y-22198472D01*
X23743387Y-22161818D01*
X23772515Y-22110543D01*
X23824323Y-22019344D01*
X23889351Y-21823863D01*
X23915171Y-21619474D01*
X23915583Y-21590000D01*
X23895480Y-21384970D01*
X23835935Y-21187749D01*
X23739218Y-21005849D01*
X23646216Y-20891818D01*
X23612906Y-20850975D01*
X23612903Y-20850972D01*
X23609011Y-20846200D01*
X23498418Y-20754709D01*
X23455025Y-20718811D01*
X23455021Y-20718809D01*
X23450275Y-20714882D01*
X23269055Y-20616897D01*
X23072254Y-20555977D01*
X23066129Y-20555333D01*
X23066128Y-20555333D01*
X22873498Y-20535087D01*
X22873496Y-20535087D01*
X22867369Y-20534443D01*
X22780529Y-20542346D01*
X22668342Y-20552555D01*
X22668339Y-20552556D01*
X22662203Y-20553114D01*
X22464572Y-20611280D01*
X22459107Y-20614137D01*
X22397731Y-20646224D01*
X22282002Y-20706726D01*
X22277201Y-20710586D01*
X22277198Y-20710588D01*
X22222325Y-20754707D01*
X22121447Y-20835815D01*
X21989024Y-20993630D01*
X21986056Y-20999028D01*
X21986053Y-20999033D01*
X21922287Y-21115024D01*
X21889776Y-21174162D01*
X21827484Y-21370532D01*
X21826798Y-21376649D01*
X21826797Y-21376653D01*
X21805207Y-21569137D01*
X21804520Y-21575262D01*
X21821759Y-21780553D01*
X21823458Y-21786478D01*
X21871037Y-21952405D01*
X21878544Y-21978586D01*
X21881359Y-21984063D01*
X21881360Y-21984066D01*
X21951804Y-22121136D01*
X21972712Y-22161818D01*
X21976539Y-22166646D01*
X21976540Y-22166648D01*
X22028262Y-22231905D01*
X22054900Y-22297715D01*
X22041729Y-22367480D01*
X22018612Y-22399265D01*
X16500344Y-27917533D01*
X16438032Y-27951559D01*
X16367217Y-27946494D01*
X16310381Y-27903947D01*
X16285850Y-27840733D01*
X16276081Y-27741103D01*
X16275480Y-27734970D01*
X16215935Y-27537749D01*
X16119218Y-27355849D01*
X16013746Y-27226528D01*
X15992906Y-27200975D01*
X15992903Y-27200972D01*
X15989011Y-27196200D01*
X15971793Y-27181956D01*
X15835025Y-27068811D01*
X15835021Y-27068809D01*
X15830275Y-27064882D01*
X15649055Y-26966897D01*
X15452254Y-26905977D01*
X15446129Y-26905333D01*
X15446128Y-26905333D01*
X15253498Y-26885087D01*
X15253496Y-26885087D01*
X15247369Y-26884443D01*
X15160529Y-26892346D01*
X15048342Y-26902555D01*
X15048339Y-26902556D01*
X15042203Y-26903114D01*
X14844572Y-26961280D01*
X14662002Y-27056726D01*
X14657201Y-27060586D01*
X14657198Y-27060588D01*
X14506246Y-27181956D01*
X14506243Y-27181959D01*
X14501447Y-27185815D01*
X14497491Y-27190530D01*
X14494807Y-27193158D01*
X14432141Y-27226528D01*
X14361382Y-27220720D01*
X14317556Y-27192229D01*
X13579105Y-26453779D01*
X13571678Y-26445674D01*
X13566536Y-26439546D01*
X13547455Y-26416806D01*
X13537906Y-26411293D01*
X13514815Y-26397961D01*
X13505544Y-26392055D01*
X13496611Y-26385800D01*
X13474684Y-26370446D01*
X13464034Y-26367592D01*
X13460866Y-26366115D01*
X13457590Y-26364923D01*
X13448045Y-26359412D01*
X13414301Y-26353462D01*
X13410942Y-26352870D01*
X13400215Y-26350492D01*
X13363807Y-26340736D01*
X13352822Y-26341697D01*
X13352820Y-26341697D01*
X13326272Y-26344020D01*
X13315290Y-26344500D01*
X847722Y-26344500D01*
X779601Y-26324498D01*
X733108Y-26270842D01*
X723004Y-26200568D01*
X752340Y-26136169D01*
X858540Y-26013134D01*
X858540Y-26013133D01*
X862564Y-26008472D01*
X883387Y-25971818D01*
X961276Y-25834707D01*
X964323Y-25829344D01*
X1029351Y-25633863D01*
X1055171Y-25429474D01*
X1055583Y-25400000D01*
X1040545Y-25246631D01*
X1053804Y-25176885D01*
X1102667Y-25125378D01*
X1171620Y-25108465D01*
X1238770Y-25131515D01*
X1255039Y-25145242D01*
X1726019Y-25616222D01*
X1733445Y-25624325D01*
X1757669Y-25653194D01*
X1767212Y-25658704D01*
X1767216Y-25658707D01*
X1790303Y-25672036D01*
X1799572Y-25677940D01*
X1830440Y-25699554D01*
X1841088Y-25702407D01*
X1844259Y-25703886D01*
X1847535Y-25705078D01*
X1857079Y-25710588D01*
X1894200Y-25717134D01*
X1904907Y-25719508D01*
X1941317Y-25729263D01*
X1952292Y-25728303D01*
X1952294Y-25728303D01*
X1978855Y-25725979D01*
X1989836Y-25725500D01*
X14149211Y-25725500D01*
X14217332Y-25745502D01*
X14261278Y-25793906D01*
X14352712Y-25971818D01*
X14480677Y-26133270D01*
X14637564Y-26266791D01*
X14817398Y-26367297D01*
X14911772Y-26397961D01*
X15007471Y-26429056D01*
X15007475Y-26429057D01*
X15013329Y-26430959D01*
X15217894Y-26455351D01*
X15224029Y-26454879D01*
X15224031Y-26454879D01*
X15280039Y-26450569D01*
X15423300Y-26439546D01*
X15429230Y-26437890D01*
X15429232Y-26437890D01*
X15572241Y-26397961D01*
X15621725Y-26384145D01*
X15627214Y-26381372D01*
X15627220Y-26381370D01*
X15800116Y-26294033D01*
X15805610Y-26291258D01*
X15831742Y-26270842D01*
X15886780Y-26227841D01*
X15967951Y-26164424D01*
X16102564Y-26008472D01*
X16123387Y-25971818D01*
X16201276Y-25834707D01*
X16204323Y-25829344D01*
X16269351Y-25633863D01*
X16295171Y-25429474D01*
X16295583Y-25400000D01*
X16275480Y-25194970D01*
X16215935Y-24997749D01*
X16119218Y-24815849D01*
X16026216Y-24701818D01*
X15992906Y-24660975D01*
X15992903Y-24660972D01*
X15989011Y-24656200D01*
X15971786Y-24641950D01*
X15835025Y-24528811D01*
X15835021Y-24528809D01*
X15830275Y-24524882D01*
X15649055Y-24426897D01*
X15452254Y-24365977D01*
X15446129Y-24365333D01*
X15446128Y-24365333D01*
X15253498Y-24345087D01*
X15253496Y-24345087D01*
X15247369Y-24344443D01*
X15160529Y-24352346D01*
X15048342Y-24362555D01*
X15048339Y-24362556D01*
X15042203Y-24363114D01*
X14844572Y-24421280D01*
X14662002Y-24516726D01*
X14657201Y-24520586D01*
X14657198Y-24520588D01*
X14602325Y-24564707D01*
X14501447Y-24645815D01*
X14369024Y-24803630D01*
X14366056Y-24809028D01*
X14366053Y-24809033D01*
X14297187Y-24934301D01*
X14269776Y-24984162D01*
X14267914Y-24990031D01*
X14265485Y-24995699D01*
X14263458Y-24994830D01*
X14229342Y-25045481D01*
X14164140Y-25073575D01*
X14148901Y-25074500D01*
X2157141Y-25074500D01*
X2089020Y-25054498D01*
X2068046Y-25037595D01*
X944234Y-23913784D01*
X936807Y-23905680D01*
X931660Y-23899546D01*
X912579Y-23876806D01*
X903030Y-23871293D01*
X879939Y-23857961D01*
X870668Y-23852055D01*
X861735Y-23845800D01*
X839808Y-23830446D01*
X829158Y-23827592D01*
X825990Y-23826115D01*
X822713Y-23824922D01*
X813169Y-23819412D01*
X802315Y-23817498D01*
X791953Y-23813727D01*
X793284Y-23810070D01*
X747950Y-23787602D01*
X711481Y-23726688D01*
X713733Y-23655727D01*
X738060Y-23612712D01*
X751394Y-23597265D01*
X862564Y-23468472D01*
X871764Y-23452278D01*
X961275Y-23294709D01*
X964323Y-23289344D01*
X970184Y-23271726D01*
X1010666Y-23213403D01*
X1076254Y-23186224D01*
X1089741Y-23185500D01*
X12680290Y-23185500D01*
X12691272Y-23185980D01*
X12717820Y-23188303D01*
X12717822Y-23188303D01*
X12728807Y-23189264D01*
X12765215Y-23179508D01*
X12775942Y-23177130D01*
X12779301Y-23176538D01*
X12813045Y-23170588D01*
X12822590Y-23165077D01*
X12825866Y-23163885D01*
X12829034Y-23162408D01*
X12839684Y-23159554D01*
X12870544Y-23137945D01*
X12879815Y-23132039D01*
X12902910Y-23118705D01*
X12902911Y-23118704D01*
X12912455Y-23113194D01*
X12919539Y-23104752D01*
X12936685Y-23084319D01*
X12944110Y-23076217D01*
X14067922Y-21952405D01*
X14130234Y-21918379D01*
X14157017Y-21915500D01*
X14390933Y-21915500D01*
X14459054Y-21935502D01*
X14505547Y-21989158D01*
X14515651Y-22059432D01*
X14487454Y-22122491D01*
X14369024Y-22263630D01*
X14366056Y-22269028D01*
X14366053Y-22269033D01*
X14311932Y-22367480D01*
X14269776Y-22444162D01*
X14207484Y-22640532D01*
X14184520Y-22845262D01*
X14185036Y-22851406D01*
X14193671Y-22954232D01*
X14201759Y-23050553D01*
X14203458Y-23056478D01*
X14245260Y-23202258D01*
X14258544Y-23248586D01*
X14261359Y-23254063D01*
X14261360Y-23254066D01*
X14349897Y-23426341D01*
X14352712Y-23431818D01*
X14480677Y-23593270D01*
X14485370Y-23597264D01*
X14485371Y-23597265D01*
X14629626Y-23720035D01*
X14637564Y-23726791D01*
X14817398Y-23827297D01*
X14911772Y-23857961D01*
X15007471Y-23889056D01*
X15007475Y-23889057D01*
X15013329Y-23890959D01*
X15217894Y-23915351D01*
X15224029Y-23914879D01*
X15224031Y-23914879D01*
X15280523Y-23910532D01*
X15423300Y-23899546D01*
X15429230Y-23897890D01*
X15429232Y-23897890D01*
X15572241Y-23857961D01*
X15621725Y-23844145D01*
X15627214Y-23841372D01*
X15627220Y-23841370D01*
X15800116Y-23754033D01*
X15805610Y-23751258D01*
X15837059Y-23726688D01*
X15927885Y-23655727D01*
X15967951Y-23624424D01*
X15978061Y-23612712D01*
X16098540Y-23473134D01*
X16098540Y-23473133D01*
X16102564Y-23468472D01*
X16111764Y-23452278D01*
X16201275Y-23294709D01*
X16204323Y-23289344D01*
X16210184Y-23271726D01*
X16250666Y-23213403D01*
X16316254Y-23186224D01*
X16329741Y-23185500D01*
X18604301Y-23185500D01*
X18615283Y-23185980D01*
X18641831Y-23188303D01*
X18641833Y-23188303D01*
X18652818Y-23189264D01*
X18689226Y-23179508D01*
X18699953Y-23177130D01*
X18703312Y-23176538D01*
X18737056Y-23170588D01*
X18746601Y-23165077D01*
X18749877Y-23163885D01*
X18753045Y-23162408D01*
X18763695Y-23159554D01*
X18794555Y-23137945D01*
X18803826Y-23132039D01*
X18826917Y-23118707D01*
X18836466Y-23113194D01*
X18860696Y-23084318D01*
X18868122Y-23076215D01*
X18997128Y-22947209D01*
X19059440Y-22913183D01*
X19102668Y-22911382D01*
X19169511Y-22920182D01*
X19177699Y-22919104D01*
X19318085Y-22900622D01*
X19326273Y-22899544D01*
X19472352Y-22839036D01*
X19597793Y-22742782D01*
X19694047Y-22617341D01*
X19754555Y-22471262D01*
X19775193Y-22314500D01*
X19754555Y-22157738D01*
X19726380Y-22089718D01*
X19718791Y-22019129D01*
X19750570Y-21955642D01*
X19811628Y-21919414D01*
X19842789Y-21915500D01*
X20300290Y-21915500D01*
X20311272Y-21915980D01*
X20337820Y-21918303D01*
X20337822Y-21918303D01*
X20348807Y-21919264D01*
X20385215Y-21909508D01*
X20395942Y-21907130D01*
X20399301Y-21906538D01*
X20433045Y-21900588D01*
X20442590Y-21895077D01*
X20445866Y-21893885D01*
X20449034Y-21892408D01*
X20459684Y-21889554D01*
X20490544Y-21867945D01*
X20499815Y-21862039D01*
X20522906Y-21848707D01*
X20532455Y-21843194D01*
X20556685Y-21814317D01*
X20564111Y-21806215D01*
X22319122Y-20051205D01*
X22381434Y-20017179D01*
X22447153Y-20020467D01*
X22627471Y-20079056D01*
X22627475Y-20079057D01*
X22633329Y-20080959D01*
X22837894Y-20105351D01*
X22844029Y-20104879D01*
X22844031Y-20104879D01*
X22900523Y-20100532D01*
X23043300Y-20089546D01*
X23049230Y-20087890D01*
X23049232Y-20087890D01*
X23235797Y-20035800D01*
X23235796Y-20035800D01*
X23241725Y-20034145D01*
X23247214Y-20031372D01*
X23247220Y-20031370D01*
X23420116Y-19944033D01*
X23425610Y-19941258D01*
X23446146Y-19925214D01*
X23529547Y-19860054D01*
X23587951Y-19814424D01*
X23722564Y-19658472D01*
X23743387Y-19621818D01*
X23775036Y-19566105D01*
X23824323Y-19479344D01*
X23889351Y-19283863D01*
X23915171Y-19079474D01*
X23915583Y-19050000D01*
X23895480Y-18844970D01*
X23835935Y-18647749D01*
X23739218Y-18465849D01*
X23646216Y-18351818D01*
X23612906Y-18310975D01*
X23612903Y-18310972D01*
X23609011Y-18306200D01*
X23498418Y-18214709D01*
X23455025Y-18178811D01*
X23455021Y-18178809D01*
X23450275Y-18174882D01*
X23269055Y-18076897D01*
X23072254Y-18015977D01*
X23066129Y-18015333D01*
X23066128Y-18015333D01*
X22873498Y-17995087D01*
X22873496Y-17995087D01*
X22867369Y-17994443D01*
X22780529Y-18002346D01*
X22668342Y-18012555D01*
X22668339Y-18012556D01*
X22662203Y-18013114D01*
X22464572Y-18071280D01*
X22459107Y-18074137D01*
X22397731Y-18106224D01*
X22282002Y-18166726D01*
X22277201Y-18170586D01*
X22277198Y-18170588D01*
X22126254Y-18291950D01*
X22121447Y-18295815D01*
X21989024Y-18453630D01*
X21986056Y-18459028D01*
X21986053Y-18459033D01*
X21922285Y-18575028D01*
X21889776Y-18634162D01*
X21827484Y-18830532D01*
X21826798Y-18836649D01*
X21826797Y-18836653D01*
X21805207Y-19029137D01*
X21804520Y-19035262D01*
X21821759Y-19240553D01*
X21823458Y-19246478D01*
X21871037Y-19412405D01*
X21878544Y-19438586D01*
X21881362Y-19444068D01*
X21881363Y-19444072D01*
X21881541Y-19444419D01*
X21881579Y-19444619D01*
X21883630Y-19449799D01*
X21882645Y-19450189D01*
X21894887Y-19514150D01*
X21868414Y-19580027D01*
X21858568Y-19591105D01*
X20222079Y-21227595D01*
X20159767Y-21261620D01*
X20132984Y-21264500D01*
X16087722Y-21264500D01*
X16019601Y-21244498D01*
X15973108Y-21190842D01*
X15963004Y-21120568D01*
X15992340Y-21056169D01*
X16098540Y-20933134D01*
X16098540Y-20933133D01*
X16102564Y-20928472D01*
X16123387Y-20891818D01*
X16152515Y-20840543D01*
X16204323Y-20749344D01*
X16269351Y-20553863D01*
X16295171Y-20349474D01*
X16295583Y-20320000D01*
X16275480Y-20114970D01*
X16215935Y-19917749D01*
X16119218Y-19735849D01*
X15993037Y-19581136D01*
X15965483Y-19515704D01*
X15977678Y-19445763D01*
X16025751Y-19393518D01*
X16090680Y-19375500D01*
X20300290Y-19375500D01*
X20311272Y-19375980D01*
X20337820Y-19378303D01*
X20337822Y-19378303D01*
X20348807Y-19379264D01*
X20385215Y-19369508D01*
X20395942Y-19367130D01*
X20399301Y-19366538D01*
X20433045Y-19360588D01*
X20442590Y-19355077D01*
X20445866Y-19353885D01*
X20449034Y-19352408D01*
X20459684Y-19349554D01*
X20490544Y-19327945D01*
X20499815Y-19322039D01*
X20522906Y-19308707D01*
X20532455Y-19303194D01*
X20556685Y-19274317D01*
X20564111Y-19266215D01*
X22319122Y-17511205D01*
X22381434Y-17477179D01*
X22447153Y-17480467D01*
X22627471Y-17539056D01*
X22627475Y-17539057D01*
X22633329Y-17540959D01*
X22837894Y-17565351D01*
X22844029Y-17564879D01*
X22844031Y-17564879D01*
X22900523Y-17560532D01*
X23043300Y-17549546D01*
X23049230Y-17547890D01*
X23049232Y-17547890D01*
X23235797Y-17495800D01*
X23235796Y-17495800D01*
X23241725Y-17494145D01*
X23247214Y-17491372D01*
X23247220Y-17491370D01*
X23420116Y-17404033D01*
X23425610Y-17401258D01*
X23462660Y-17372312D01*
X23583101Y-17278213D01*
X23587951Y-17274424D01*
X23613857Y-17244412D01*
X23718540Y-17123134D01*
X23718540Y-17123133D01*
X23722564Y-17118472D01*
X23743387Y-17081818D01*
X23773102Y-17029509D01*
X23824323Y-16939344D01*
X23889351Y-16743863D01*
X23915171Y-16539474D01*
X23915583Y-16510000D01*
X23895480Y-16304970D01*
X23835935Y-16107749D01*
X23739218Y-15925849D01*
X23613037Y-15771136D01*
X23585483Y-15705704D01*
X23597678Y-15635763D01*
X23645751Y-15583518D01*
X23710680Y-15565500D01*
X23942983Y-15565500D01*
X24011104Y-15585502D01*
X24032078Y-15602405D01*
X24398257Y-15968584D01*
X24432283Y-16030896D01*
X24429264Y-16095776D01*
X24367484Y-16290532D01*
X24366798Y-16296649D01*
X24366797Y-16296653D01*
X24361306Y-16345609D01*
X24344520Y-16495262D01*
X24345036Y-16501406D01*
X24356544Y-16638445D01*
X24361759Y-16700553D01*
X24363458Y-16706478D01*
X24411037Y-16872405D01*
X24418544Y-16898586D01*
X24421359Y-16904063D01*
X24421360Y-16904066D01*
X24490036Y-17037696D01*
X24512712Y-17081818D01*
X24640677Y-17243270D01*
X24645370Y-17247264D01*
X24645371Y-17247265D01*
X24789626Y-17370035D01*
X24797564Y-17376791D01*
X24977398Y-17477297D01*
X25072238Y-17508113D01*
X25167471Y-17539056D01*
X25167475Y-17539057D01*
X25173329Y-17540959D01*
X25377894Y-17565351D01*
X25384029Y-17564879D01*
X25384031Y-17564879D01*
X25440523Y-17560532D01*
X25583300Y-17549546D01*
X25589230Y-17547890D01*
X25589232Y-17547890D01*
X25775797Y-17495800D01*
X25775796Y-17495800D01*
X25781725Y-17494145D01*
X25787214Y-17491372D01*
X25787220Y-17491370D01*
X25960116Y-17404033D01*
X25965610Y-17401258D01*
X25995701Y-17377749D01*
X26123095Y-17278218D01*
X26123096Y-17278217D01*
X26127951Y-17274424D01*
X26131726Y-17270051D01*
X26194732Y-17237619D01*
X26265403Y-17244412D01*
X26321183Y-17288334D01*
X26344500Y-17361357D01*
X26344500Y-17592983D01*
X26324498Y-17661104D01*
X26307595Y-17682078D01*
X25941490Y-18048183D01*
X25879178Y-18082209D01*
X25809400Y-18075781D01*
X25809055Y-18076897D01*
X25803776Y-18075263D01*
X25803777Y-18075263D01*
X25612254Y-18015977D01*
X25606129Y-18015333D01*
X25606128Y-18015333D01*
X25413498Y-17995087D01*
X25413496Y-17995087D01*
X25407369Y-17994443D01*
X25320529Y-18002346D01*
X25208342Y-18012555D01*
X25208339Y-18012556D01*
X25202203Y-18013114D01*
X25004572Y-18071280D01*
X24999107Y-18074137D01*
X24937731Y-18106224D01*
X24822002Y-18166726D01*
X24817201Y-18170586D01*
X24817198Y-18170588D01*
X24666254Y-18291950D01*
X24661447Y-18295815D01*
X24529024Y-18453630D01*
X24526056Y-18459028D01*
X24526053Y-18459033D01*
X24462285Y-18575028D01*
X24429776Y-18634162D01*
X24367484Y-18830532D01*
X24366798Y-18836649D01*
X24366797Y-18836653D01*
X24345207Y-19029137D01*
X24344520Y-19035262D01*
X24361759Y-19240553D01*
X24363458Y-19246478D01*
X24411037Y-19412405D01*
X24418544Y-19438586D01*
X24421359Y-19444063D01*
X24421360Y-19444066D01*
X24496928Y-19591105D01*
X24512712Y-19621818D01*
X24640677Y-19783270D01*
X24645370Y-19787264D01*
X24645371Y-19787265D01*
X24789626Y-19910035D01*
X24797564Y-19916791D01*
X24977398Y-20017297D01*
X25072238Y-20048113D01*
X25167471Y-20079056D01*
X25167475Y-20079057D01*
X25173329Y-20080959D01*
X25377894Y-20105351D01*
X25384029Y-20104879D01*
X25384031Y-20104879D01*
X25440523Y-20100532D01*
X25583300Y-20089546D01*
X25589230Y-20087890D01*
X25589232Y-20087890D01*
X25775797Y-20035800D01*
X25775796Y-20035800D01*
X25781725Y-20034145D01*
X25787214Y-20031372D01*
X25787220Y-20031370D01*
X25960116Y-19944033D01*
X25965610Y-19941258D01*
X25986146Y-19925214D01*
X26069547Y-19860054D01*
X26127951Y-19814424D01*
X26262564Y-19658472D01*
X26283387Y-19621818D01*
X26315036Y-19566105D01*
X26364323Y-19479344D01*
X26429351Y-19283863D01*
X26455171Y-19079474D01*
X26455583Y-19050000D01*
X26435480Y-18844970D01*
X26375935Y-18647749D01*
X26374312Y-18644697D01*
X26366944Y-18575028D01*
X26401808Y-18508519D01*
X26764405Y-18145922D01*
X26826717Y-18111896D01*
X26897532Y-18116961D01*
X26954368Y-18159508D01*
X26979179Y-18226028D01*
X26979500Y-18235017D01*
X26979500Y-19497984D01*
X26959498Y-19566105D01*
X26942595Y-19587079D01*
X25941491Y-20588183D01*
X25879179Y-20622209D01*
X25809400Y-20615783D01*
X25809055Y-20616897D01*
X25803786Y-20615266D01*
X25612254Y-20555977D01*
X25606129Y-20555333D01*
X25606128Y-20555333D01*
X25413498Y-20535087D01*
X25413496Y-20535087D01*
X25407369Y-20534443D01*
X25320529Y-20542346D01*
X25208342Y-20552555D01*
X25208339Y-20552556D01*
X25202203Y-20553114D01*
X25004572Y-20611280D01*
X24999107Y-20614137D01*
X24937731Y-20646224D01*
X24822002Y-20706726D01*
X24817201Y-20710586D01*
X24817198Y-20710588D01*
X24762325Y-20754707D01*
X24661447Y-20835815D01*
X24529024Y-20993630D01*
X24526056Y-20999028D01*
X24526053Y-20999033D01*
X24462287Y-21115024D01*
X24429776Y-21174162D01*
X24367484Y-21370532D01*
X24366798Y-21376649D01*
X24366797Y-21376653D01*
X24345207Y-21569137D01*
X24344520Y-21575262D01*
X24361759Y-21780553D01*
X24363458Y-21786478D01*
X24411037Y-21952405D01*
X24418544Y-21978586D01*
X24421359Y-21984063D01*
X24421360Y-21984066D01*
X24491804Y-22121136D01*
X24512712Y-22161818D01*
X24640677Y-22323270D01*
X24645370Y-22327264D01*
X24645371Y-22327265D01*
X24789626Y-22450035D01*
X24797564Y-22456791D01*
X24802942Y-22459797D01*
X24802944Y-22459798D01*
X24834563Y-22477469D01*
X24977398Y-22557297D01*
X25052352Y-22581651D01*
X25167471Y-22619056D01*
X25167475Y-22619057D01*
X25173329Y-22620959D01*
X25377894Y-22645351D01*
X25384029Y-22644879D01*
X25384031Y-22644879D01*
X25440523Y-22640532D01*
X25583300Y-22629546D01*
X25589230Y-22627890D01*
X25589232Y-22627890D01*
X25775797Y-22575800D01*
X25775796Y-22575800D01*
X25781725Y-22574145D01*
X25787214Y-22571372D01*
X25787220Y-22571370D01*
X25960116Y-22484033D01*
X25965610Y-22481258D01*
X25978405Y-22471262D01*
X26123101Y-22358213D01*
X26127951Y-22354424D01*
X26176901Y-22297715D01*
X26258540Y-22203134D01*
X26258540Y-22203133D01*
X26262564Y-22198472D01*
X26283387Y-22161818D01*
X26312515Y-22110543D01*
X26364323Y-22019344D01*
X26429351Y-21823863D01*
X26455171Y-21619474D01*
X26455583Y-21590000D01*
X26435480Y-21384970D01*
X26375935Y-21187749D01*
X26374312Y-21184696D01*
X26366944Y-21115024D01*
X26401808Y-21048518D01*
X27521215Y-19929111D01*
X27529319Y-19921684D01*
X27549749Y-19904541D01*
X27558194Y-19897455D01*
X27563707Y-19887906D01*
X27577039Y-19864815D01*
X27582945Y-19855544D01*
X27598230Y-19833715D01*
X27604554Y-19824684D01*
X27607408Y-19814034D01*
X27608885Y-19810866D01*
X27610077Y-19807590D01*
X27615588Y-19798045D01*
X27622130Y-19760942D01*
X27624509Y-19750210D01*
X27629637Y-19731073D01*
X27634264Y-19713807D01*
X27630979Y-19676257D01*
X27630500Y-19665276D01*
X27630500Y-11693703D01*
X27630979Y-11682722D01*
X27633303Y-11656160D01*
X27633303Y-11656158D01*
X27634263Y-11645183D01*
X27624508Y-11608773D01*
X27622133Y-11598062D01*
X27617501Y-11571796D01*
X27615588Y-11560945D01*
X27610078Y-11551401D01*
X27608886Y-11548125D01*
X27607407Y-11544954D01*
X27604554Y-11534306D01*
X27582940Y-11503438D01*
X27577036Y-11494169D01*
X27563707Y-11471082D01*
X27563704Y-11471078D01*
X27558194Y-11461535D01*
X27529324Y-11437310D01*
X27521221Y-11429884D01*
X26035120Y-9943784D01*
X26027693Y-9935680D01*
X26008712Y-9913059D01*
X25980248Y-9848018D01*
X25991466Y-9777913D01*
X26027659Y-9732780D01*
X26127951Y-9654424D01*
X26189934Y-9582616D01*
X26258540Y-9503134D01*
X26258540Y-9503133D01*
X26262564Y-9498472D01*
X26283387Y-9461818D01*
X26309301Y-9416200D01*
X26364323Y-9319344D01*
X26429351Y-9123863D01*
X26455171Y-8919474D01*
X26455583Y-8890000D01*
X26435480Y-8684970D01*
X26375935Y-8487749D01*
X26279218Y-8305849D01*
X26186216Y-8191818D01*
X26152906Y-8150975D01*
X26152903Y-8150972D01*
X26149011Y-8146200D01*
X26075878Y-8085699D01*
X25995025Y-8018811D01*
X25995021Y-8018809D01*
X25990275Y-8014882D01*
X25809055Y-7916897D01*
X25612254Y-7855977D01*
X25606129Y-7855333D01*
X25606128Y-7855333D01*
X25413498Y-7835087D01*
X25413496Y-7835087D01*
X25407369Y-7834443D01*
X25326988Y-7841758D01*
X25208342Y-7852555D01*
X25208339Y-7852556D01*
X25202203Y-7853114D01*
X25004572Y-7911280D01*
X24999107Y-7914137D01*
X24937375Y-7946410D01*
X24822002Y-8006726D01*
X24817201Y-8010586D01*
X24817198Y-8010588D01*
X24762325Y-8054707D01*
X24661447Y-8135815D01*
X24529024Y-8293630D01*
X24526056Y-8299028D01*
X24526053Y-8299033D01*
X24459239Y-8420568D01*
X24429776Y-8474162D01*
X24367484Y-8670532D01*
X24366798Y-8676649D01*
X24366797Y-8676653D01*
X24345207Y-8869137D01*
X24344520Y-8875262D01*
X24361759Y-9080553D01*
X24363458Y-9086478D01*
X24411037Y-9252405D01*
X24418544Y-9278586D01*
X24421359Y-9284063D01*
X24421360Y-9284066D01*
X24491804Y-9421136D01*
X24512712Y-9461818D01*
X24640677Y-9623270D01*
X24640550Y-9623370D01*
X24672227Y-9683870D01*
X24665927Y-9754586D01*
X24622395Y-9810671D01*
X24548658Y-9834500D01*
X23707722Y-9834500D01*
X23639601Y-9814498D01*
X23593108Y-9760842D01*
X23583004Y-9690568D01*
X23612340Y-9626169D01*
X23718540Y-9503134D01*
X23718540Y-9503133D01*
X23722564Y-9498472D01*
X23743387Y-9461818D01*
X23769301Y-9416200D01*
X23824323Y-9319344D01*
X23889351Y-9123863D01*
X23915171Y-8919474D01*
X23915583Y-8890000D01*
X23895480Y-8684970D01*
X23835935Y-8487749D01*
X23739218Y-8305849D01*
X23646216Y-8191818D01*
X23612906Y-8150975D01*
X23612903Y-8150972D01*
X23609011Y-8146200D01*
X23535878Y-8085699D01*
X23455025Y-8018811D01*
X23455021Y-8018809D01*
X23450275Y-8014882D01*
X23269055Y-7916897D01*
X23072254Y-7855977D01*
X23066129Y-7855333D01*
X23066128Y-7855333D01*
X22873498Y-7835087D01*
X22873496Y-7835087D01*
X22867369Y-7834443D01*
X22786988Y-7841758D01*
X22668342Y-7852555D01*
X22668339Y-7852556D01*
X22662203Y-7853114D01*
X22464572Y-7911280D01*
X22459107Y-7914137D01*
X22397375Y-7946410D01*
X22282002Y-8006726D01*
X22277201Y-8010586D01*
X22277198Y-8010588D01*
X22222325Y-8054707D01*
X22121447Y-8135815D01*
X21989024Y-8293630D01*
X21986056Y-8299028D01*
X21986053Y-8299033D01*
X21922922Y-8413870D01*
X21889776Y-8474162D01*
X21887914Y-8480031D01*
X21885485Y-8485699D01*
X21883458Y-8484830D01*
X21849342Y-8535481D01*
X21784140Y-8563575D01*
X21768901Y-8564500D01*
X16087722Y-8564500D01*
X16019601Y-8544498D01*
X15973108Y-8490842D01*
X15963004Y-8420568D01*
X15992340Y-8356169D01*
X16098540Y-8233134D01*
X16098540Y-8233133D01*
X16102564Y-8228472D01*
X16111764Y-8212278D01*
X16152515Y-8140543D01*
X16204323Y-8049344D01*
X16269351Y-7853863D01*
X16295171Y-7649474D01*
X16295583Y-7620000D01*
X16275480Y-7414970D01*
X16215935Y-7217749D01*
X16119218Y-7035849D01*
X16045859Y-6945902D01*
X15992906Y-6880975D01*
X15992903Y-6880972D01*
X15989011Y-6876200D01*
X15971786Y-6861950D01*
X15835025Y-6748811D01*
X15835021Y-6748809D01*
X15830275Y-6744882D01*
X15649055Y-6646897D01*
X15452254Y-6585977D01*
X15446129Y-6585333D01*
X15446128Y-6585333D01*
X15253498Y-6565087D01*
X15253496Y-6565087D01*
X15247369Y-6564443D01*
X15160529Y-6572346D01*
X15048342Y-6582555D01*
X15048339Y-6582556D01*
X15042203Y-6583114D01*
X14844572Y-6641280D01*
X14662002Y-6736726D01*
X14657201Y-6740586D01*
X14657198Y-6740588D01*
X14559136Y-6819432D01*
X14501447Y-6865815D01*
X14369024Y-7023630D01*
X14366056Y-7029028D01*
X14366053Y-7029033D01*
X14359315Y-7041290D01*
X14269776Y-7204162D01*
X14207484Y-7400532D01*
X14206798Y-7406649D01*
X14206797Y-7406653D01*
X14185207Y-7599137D01*
X14184520Y-7605262D01*
X14201759Y-7810553D01*
X14203458Y-7816478D01*
X14251037Y-7982405D01*
X14258544Y-8008586D01*
X14261359Y-8014063D01*
X14261360Y-8014066D01*
X14349897Y-8186341D01*
X14352712Y-8191818D01*
X14480677Y-8353270D01*
X14480550Y-8353370D01*
X14512227Y-8413870D01*
X14505927Y-8484586D01*
X14462395Y-8540671D01*
X14388658Y-8564500D01*
X13989710Y-8564500D01*
X13978728Y-8564020D01*
X13952180Y-8561697D01*
X13952178Y-8561697D01*
X13941193Y-8560736D01*
X13904785Y-8570492D01*
X13894058Y-8572870D01*
X13890699Y-8573462D01*
X13856955Y-8579412D01*
X13847410Y-8584923D01*
X13844134Y-8586115D01*
X13840966Y-8587592D01*
X13830316Y-8590446D01*
X13821285Y-8596770D01*
X13799456Y-8612055D01*
X13790185Y-8617961D01*
X13767094Y-8631293D01*
X13757545Y-8636806D01*
X13750459Y-8645251D01*
X13733315Y-8665682D01*
X13725889Y-8673785D01*
X13237079Y-9162595D01*
X13174767Y-9196621D01*
X13147984Y-9199500D01*
X1603022Y-9199500D01*
X1534901Y-9179498D01*
X1488408Y-9125842D01*
X1478304Y-9055568D01*
X1507798Y-8990988D01*
X1513927Y-8984405D01*
X2515927Y-7982405D01*
X2578239Y-7948379D01*
X2605022Y-7945500D01*
X10521290Y-7945500D01*
X10532272Y-7945980D01*
X10558820Y-7948303D01*
X10558822Y-7948303D01*
X10569807Y-7949264D01*
X10606215Y-7939508D01*
X10616942Y-7937130D01*
X10620301Y-7936538D01*
X10654045Y-7930588D01*
X10663590Y-7925077D01*
X10666866Y-7923885D01*
X10670034Y-7922408D01*
X10680684Y-7919554D01*
X10711544Y-7897945D01*
X10720815Y-7892039D01*
X10743906Y-7878707D01*
X10753455Y-7873194D01*
X10777685Y-7844317D01*
X10785111Y-7836215D01*
X14049532Y-4571794D01*
X14111844Y-4537768D01*
X14182659Y-4542833D01*
X14239495Y-4585380D01*
X14264306Y-4651900D01*
X14258729Y-4698986D01*
X14207484Y-4860532D01*
X14206798Y-4866649D01*
X14206797Y-4866653D01*
X14185207Y-5059137D01*
X14184520Y-5065262D01*
X14201759Y-5270553D01*
X14258544Y-5468586D01*
X14261359Y-5474063D01*
X14261360Y-5474066D01*
X14282247Y-5514707D01*
X14352712Y-5651818D01*
X14480677Y-5813270D01*
X14637564Y-5946791D01*
X14817398Y-6047297D01*
X14911772Y-6077961D01*
X15007471Y-6109056D01*
X15007475Y-6109057D01*
X15013329Y-6110959D01*
X15217894Y-6135351D01*
X15224029Y-6134879D01*
X15224031Y-6134879D01*
X15280039Y-6130569D01*
X15423300Y-6119546D01*
X15429230Y-6117890D01*
X15429232Y-6117890D01*
X15572241Y-6077961D01*
X15621725Y-6064145D01*
X15627214Y-6061372D01*
X15627220Y-6061370D01*
X15800116Y-5974033D01*
X15805610Y-5971258D01*
X15831742Y-5950842D01*
X15886780Y-5907841D01*
X15967951Y-5844424D01*
X16102564Y-5688472D01*
X16123387Y-5651818D01*
X16201276Y-5514707D01*
X16204323Y-5509344D01*
X16269351Y-5313863D01*
X16295171Y-5109474D01*
X16295583Y-5080000D01*
X16275480Y-4874970D01*
X16215935Y-4677749D01*
X16119218Y-4495849D01*
X16045859Y-4405902D01*
X15992906Y-4340975D01*
X15992903Y-4340972D01*
X15989011Y-4336200D01*
X15976458Y-4325815D01*
X15835025Y-4208811D01*
X15835021Y-4208809D01*
X15830275Y-4204882D01*
X15649055Y-4106897D01*
X15452254Y-4045977D01*
X15446129Y-4045333D01*
X15446128Y-4045333D01*
X15253498Y-4025087D01*
X15253496Y-4025087D01*
X15247369Y-4024443D01*
X15160529Y-4032346D01*
X15048342Y-4042555D01*
X15048339Y-4042556D01*
X15042203Y-4043114D01*
X14940941Y-4072917D01*
X14858903Y-4097062D01*
X14787906Y-4097107D01*
X14728156Y-4058761D01*
X14698622Y-3994199D01*
X14708681Y-3923918D01*
X14734233Y-3887093D01*
X15003158Y-3618168D01*
X15065470Y-3584142D01*
X15107171Y-3582149D01*
X15186932Y-3591659D01*
X15217894Y-3595351D01*
X15224029Y-3594879D01*
X15224031Y-3594879D01*
X15280039Y-3590569D01*
X15423300Y-3579546D01*
X15429230Y-3577890D01*
X15429232Y-3577890D01*
X15615797Y-3525800D01*
X15615796Y-3525800D01*
X15621725Y-3524145D01*
X15627214Y-3521372D01*
X15627220Y-3521370D01*
X15800116Y-3434033D01*
X15805610Y-3431258D01*
X15967951Y-3304424D01*
X16102564Y-3148472D01*
X16123387Y-3111818D01*
X16201276Y-2974707D01*
X16204323Y-2969344D01*
X16269351Y-2773863D01*
X16295171Y-2569474D01*
X16295583Y-2540000D01*
X16275480Y-2334970D01*
X16215935Y-2137749D01*
X16119218Y-1955849D01*
X16045859Y-1865902D01*
X15992906Y-1800975D01*
X15992903Y-1800972D01*
X15989011Y-1796200D01*
X15982173Y-1790543D01*
X15835025Y-1668811D01*
X15835021Y-1668809D01*
X15830275Y-1664882D01*
X15649055Y-1566897D01*
X15452254Y-1505977D01*
X15446129Y-1505333D01*
X15446128Y-1505333D01*
X15253498Y-1485087D01*
X15253496Y-1485087D01*
X15247369Y-1484443D01*
X15160529Y-1492346D01*
X15048342Y-1502555D01*
X15048339Y-1502556D01*
X15042203Y-1503114D01*
X14844572Y-1561280D01*
X14662002Y-1656726D01*
X14657201Y-1660586D01*
X14657198Y-1660588D01*
X14533083Y-1760379D01*
X14501447Y-1785815D01*
X14369024Y-1943630D01*
X14366056Y-1949028D01*
X14366053Y-1949033D01*
X14273116Y-2118086D01*
X14269776Y-2124162D01*
X14207484Y-2320532D01*
X14206798Y-2326649D01*
X14206797Y-2326653D01*
X14191217Y-2465556D01*
X14184520Y-2525262D01*
X14185036Y-2531406D01*
X14191234Y-2605210D01*
X14201759Y-2730553D01*
X14258544Y-2928586D01*
X14261359Y-2934063D01*
X14261360Y-2934066D01*
X14282247Y-2974707D01*
X14352712Y-3111818D01*
X14356537Y-3116644D01*
X14356539Y-3116647D01*
X14387392Y-3155574D01*
X14414029Y-3221384D01*
X14400858Y-3291149D01*
X14377741Y-3322933D01*
X14002595Y-3698079D01*
X13940283Y-3732105D01*
X13869468Y-3727040D01*
X13812632Y-3684493D01*
X13787821Y-3617973D01*
X13787500Y-3608984D01*
X13787500Y-1965016D01*
X13807502Y-1896895D01*
X13824405Y-1875921D01*
X14612921Y-1087405D01*
X14675233Y-1053379D01*
X14702016Y-1050500D01*
X16109748Y-1050500D01*
X16115816Y-1049293D01*
X16156061Y-1041288D01*
X16156062Y-1041288D01*
X16168231Y-1038867D01*
X16234552Y-994552D01*
X16278867Y-928231D01*
X16285670Y-894033D01*
X16289293Y-875816D01*
X16290500Y-869748D01*
X16290500Y869748D01*
X16278867Y928231D01*
X16234552Y994552D01*
X16168231Y1038867D01*
X16156062Y1041288D01*
X16156061Y1041288D01*
X16115816Y1049293D01*
X16109748Y1050500D01*
X14370252Y1050500D01*
X14364184Y1049293D01*
X14323939Y1041288D01*
X14323938Y1041288D01*
X14311769Y1038867D01*
X14245448Y994552D01*
X14201133Y928231D01*
X14189500Y869748D01*
X14189500Y-537984D01*
X14169498Y-606105D01*
X14152595Y-627079D01*
X13245785Y-1533889D01*
X13237681Y-1541316D01*
X13208806Y-1565545D01*
X13203293Y-1575094D01*
X13189961Y-1598185D01*
X13184055Y-1607456D01*
X13162446Y-1638316D01*
X13159592Y-1648966D01*
X13158115Y-1652134D01*
X13156923Y-1655410D01*
X13151412Y-1664955D01*
X13149166Y-1677695D01*
X13144870Y-1702058D01*
X13142492Y-1712785D01*
X13132736Y-1749193D01*
X13133697Y-1760178D01*
X13133697Y-1760180D01*
X13136020Y-1786728D01*
X13136500Y-1797710D01*
X13136500Y-3749983D01*
X13116498Y-3818104D01*
X13099595Y-3839078D01*
X12956585Y-3982088D01*
X12902752Y-4011484D01*
X12902545Y-4017282D01*
X12872088Y-4066585D01*
X10951079Y-5987595D01*
X10888767Y-6021620D01*
X10861984Y-6024500D01*
X847722Y-6024500D01*
X779601Y-6004498D01*
X733108Y-5950842D01*
X723004Y-5880568D01*
X752340Y-5816169D01*
X858540Y-5693134D01*
X858540Y-5693133D01*
X862564Y-5688472D01*
X883387Y-5651818D01*
X961276Y-5514707D01*
X964323Y-5509344D01*
X1029351Y-5313863D01*
X1055171Y-5109474D01*
X1055583Y-5080000D01*
X1035480Y-4874970D01*
X975935Y-4677749D01*
X879218Y-4495849D01*
X805859Y-4405902D01*
X752906Y-4340975D01*
X752903Y-4340972D01*
X749011Y-4336200D01*
X736458Y-4325815D01*
X595025Y-4208811D01*
X595021Y-4208809D01*
X590275Y-4204882D01*
X409055Y-4106897D01*
X212254Y-4045977D01*
X206129Y-4045333D01*
X206128Y-4045333D01*
X13498Y-4025087D01*
X13496Y-4025087D01*
X7369Y-4024443D01*
X-79471Y-4032346D01*
X-191658Y-4042555D01*
X-191661Y-4042556D01*
X-197797Y-4043114D01*
X-395428Y-4101280D01*
X-400887Y-4104134D01*
X-405224Y-4105886D01*
X-475877Y-4112858D01*
X-541518Y-4078155D01*
X-2094412Y-2525262D01*
X-1055480Y-2525262D01*
X-1054964Y-2531406D01*
X-1048766Y-2605210D01*
X-1038241Y-2730553D01*
X-981456Y-2928586D01*
X-978641Y-2934063D01*
X-978640Y-2934066D01*
X-957753Y-2974707D01*
X-887288Y-3111818D01*
X-759323Y-3273270D01*
X-602436Y-3406791D01*
X-422602Y-3507297D01*
X-327762Y-3538113D01*
X-232529Y-3569056D01*
X-232525Y-3569057D01*
X-226671Y-3570959D01*
X-22106Y-3595351D01*
X-15971Y-3594879D01*
X-15969Y-3594879D01*
X40039Y-3590569D01*
X183300Y-3579546D01*
X189230Y-3577890D01*
X189232Y-3577890D01*
X375797Y-3525800D01*
X375796Y-3525800D01*
X381725Y-3524145D01*
X387214Y-3521372D01*
X387220Y-3521370D01*
X560116Y-3434033D01*
X565610Y-3431258D01*
X727951Y-3304424D01*
X862564Y-3148472D01*
X883387Y-3111818D01*
X961276Y-2974707D01*
X964323Y-2969344D01*
X1029351Y-2773863D01*
X1055171Y-2569474D01*
X1055583Y-2540000D01*
X1035480Y-2334970D01*
X975935Y-2137749D01*
X879218Y-1955849D01*
X805859Y-1865902D01*
X752906Y-1800975D01*
X752903Y-1800972D01*
X749011Y-1796200D01*
X742173Y-1790543D01*
X595025Y-1668811D01*
X595021Y-1668809D01*
X590275Y-1664882D01*
X409055Y-1566897D01*
X212254Y-1505977D01*
X206129Y-1505333D01*
X206128Y-1505333D01*
X13498Y-1485087D01*
X13496Y-1485087D01*
X7369Y-1484443D01*
X-79471Y-1492346D01*
X-191658Y-1502555D01*
X-191661Y-1502556D01*
X-197797Y-1503114D01*
X-395428Y-1561280D01*
X-577998Y-1656726D01*
X-582799Y-1660586D01*
X-582802Y-1660588D01*
X-706917Y-1760379D01*
X-738553Y-1785815D01*
X-870976Y-1943630D01*
X-873944Y-1949028D01*
X-873947Y-1949033D01*
X-966884Y-2118086D01*
X-970224Y-2124162D01*
X-1032516Y-2320532D01*
X-1033202Y-2326649D01*
X-1033203Y-2326653D01*
X-1048783Y-2465556D01*
X-1055480Y-2525262D01*
X-2094412Y-2525262D01*
X-2177595Y-2442079D01*
X-2211620Y-2379767D01*
X-2214500Y-2352984D01*
X-2214500Y14738D01*
X-1055480Y14738D01*
X-1054964Y8594D01*
X-1039143Y-179806D01*
X-1038241Y-190553D01*
X-981456Y-388586D01*
X-978641Y-394063D01*
X-978640Y-394066D01*
X-940699Y-467891D01*
X-887288Y-571818D01*
X-759323Y-733270D01*
X-602436Y-866791D01*
X-422602Y-967297D01*
X-338720Y-994552D01*
X-232529Y-1029056D01*
X-232525Y-1029057D01*
X-226671Y-1030959D01*
X-22106Y-1055351D01*
X-15971Y-1054879D01*
X-15969Y-1054879D01*
X56625Y-1049293D01*
X183300Y-1039546D01*
X189230Y-1037890D01*
X189232Y-1037890D01*
X375797Y-985800D01*
X375796Y-985800D01*
X381725Y-984145D01*
X387214Y-981372D01*
X387220Y-981370D01*
X560116Y-894033D01*
X565610Y-891258D01*
X727951Y-764424D01*
X862564Y-608472D01*
X883387Y-571818D01*
X945052Y-463267D01*
X964323Y-429344D01*
X1029351Y-233863D01*
X1055171Y-29474D01*
X1055583Y0D01*
X1035480Y205030D01*
X975935Y402251D01*
X879218Y584151D01*
X805859Y674098D01*
X752906Y739025D01*
X752903Y739028D01*
X749011Y743800D01*
X720040Y767767D01*
X595025Y871189D01*
X595021Y871191D01*
X590275Y875118D01*
X409055Y973103D01*
X212254Y1034023D01*
X206129Y1034667D01*
X206128Y1034667D01*
X13498Y1054913D01*
X13496Y1054913D01*
X7369Y1055557D01*
X-79471Y1047654D01*
X-191658Y1037445D01*
X-191661Y1037444D01*
X-197797Y1036886D01*
X-395428Y978720D01*
X-577998Y883274D01*
X-582799Y879414D01*
X-582802Y879412D01*
X-721660Y767767D01*
X-738553Y754185D01*
X-870976Y596370D01*
X-873944Y590972D01*
X-873947Y590967D01*
X-880685Y578710D01*
X-970224Y415838D01*
X-1032516Y219468D01*
X-1033202Y213351D01*
X-1033203Y213347D01*
X-1054793Y20863D01*
X-1055480Y14738D01*
X-2214500Y14738D01*
X-2214500Y908287D01*
X-2214021Y919268D01*
X-2211697Y945830D01*
X-2211697Y945832D01*
X-2210737Y956807D01*
X-2220492Y993217D01*
X-2222867Y1003928D01*
X-2227499Y1030194D01*
X-2229412Y1041045D01*
X-2234921Y1050588D01*
X-2236112Y1053860D01*
X-2237592Y1057033D01*
X-2240446Y1067684D01*
X-2262055Y1098544D01*
X-2267961Y1107815D01*
X-2281293Y1130906D01*
X-2286806Y1140455D01*
X-2315683Y1164685D01*
X-2323785Y1172111D01*
X-3482444Y2330770D01*
X-3516470Y2393082D01*
X-3511405Y2463897D01*
X-3490223Y2500434D01*
X-3455096Y2542670D01*
X-3451398Y2547116D01*
X-3343590Y2739621D01*
X-3341734Y2745088D01*
X-3341732Y2745093D01*
X-3274525Y2943079D01*
X-3274524Y2943084D01*
X-3272669Y2948548D01*
X-3271841Y2954257D01*
X-3271840Y2954262D01*
X-3241542Y3163228D01*
X-3241009Y3166902D01*
X-3239357Y3230000D01*
X-3259546Y3449711D01*
X-3319435Y3662064D01*
X-3417020Y3859947D01*
X-3549033Y4036733D01*
X-3711051Y4186501D01*
X-3897650Y4304236D01*
X-4102579Y4385994D01*
X-4108239Y4387120D01*
X-4108243Y4387121D01*
X-4313309Y4427911D01*
X-4313312Y4427911D01*
X-4318976Y4429038D01*
X-4324751Y4429114D01*
X-4324755Y4429114D01*
X-4435496Y4430563D01*
X-4539594Y4431926D01*
X-4545291Y4430947D01*
X-4545292Y4430947D01*
X-4751346Y4395541D01*
X-4751347Y4395541D01*
X-4757043Y4394562D01*
X-4964043Y4318196D01*
X-5153659Y4205386D01*
X-5319543Y4059910D01*
X-5456137Y3886640D01*
X-5558869Y3691380D01*
X-5624297Y3480667D01*
X-5650230Y3261560D01*
X-5635800Y3041396D01*
X-5634379Y3035800D01*
X-5634378Y3035795D01*
X-5582910Y2833143D01*
X-5581489Y2827548D01*
X-5579072Y2822306D01*
X-5579072Y2822305D01*
X-5540954Y2739621D01*
X-5489117Y2627179D01*
X-5361778Y2446998D01*
X-5203736Y2293039D01*
X-5198940Y2289834D01*
X-5198937Y2289832D01*
X-5114739Y2233573D01*
X-5020283Y2170460D01*
X-5014980Y2168182D01*
X-5014977Y2168180D01*
X-4822871Y2085645D01*
X-4817564Y2083365D01*
X-4741582Y2066172D01*
X-4608005Y2035946D01*
X-4607999Y2035945D01*
X-4602368Y2034671D01*
X-4596597Y2034444D01*
X-4596595Y2034444D01*
X-4528789Y2031780D01*
X-4381902Y2026009D01*
X-4265863Y2042834D01*
X-4196754Y2052854D01*
X-4126468Y2042834D01*
X-4089579Y2017253D01*
X-2902405Y830079D01*
X-2868379Y767767D01*
X-2865500Y740984D01*
X-2865500Y-2520290D01*
X-2865980Y-2531272D01*
X-2869264Y-2568807D01*
X-2866410Y-2579456D01*
X-2859509Y-2605210D01*
X-2857130Y-2615942D01*
X-2850588Y-2653045D01*
X-2845077Y-2662590D01*
X-2843885Y-2665866D01*
X-2842408Y-2669034D01*
X-2839554Y-2679684D01*
X-2833230Y-2688715D01*
X-2817945Y-2710544D01*
X-2812039Y-2719815D01*
X-2809385Y-2724411D01*
X-2793194Y-2752455D01*
X-2784749Y-2759541D01*
X-2764318Y-2776685D01*
X-2756215Y-2784111D01*
X-1001743Y-4538584D01*
X-967717Y-4600896D01*
X-970736Y-4665776D01*
X-1032516Y-4860532D01*
X-1033202Y-4866649D01*
X-1033203Y-4866653D01*
X-1054793Y-5059137D01*
X-1055480Y-5065262D01*
X-1038241Y-5270553D01*
X-981456Y-5468586D01*
X-978641Y-5474063D01*
X-978640Y-5474066D01*
X-957753Y-5514707D01*
X-887288Y-5651818D01*
X-759323Y-5813270D01*
X-759450Y-5813370D01*
X-727773Y-5873870D01*
X-734073Y-5944586D01*
X-777605Y-6000671D01*
X-851342Y-6024500D01*
X-2520290Y-6024500D01*
X-2531272Y-6024020D01*
X-2557820Y-6021697D01*
X-2557822Y-6021697D01*
X-2568807Y-6020736D01*
X-2605215Y-6030492D01*
X-2615942Y-6032870D01*
X-2619301Y-6033462D01*
X-2653045Y-6039412D01*
X-2662590Y-6044923D01*
X-2665866Y-6046115D01*
X-2669034Y-6047592D01*
X-2679684Y-6050446D01*
X-2701611Y-6065800D01*
X-2710544Y-6072055D01*
X-2719815Y-6077961D01*
X-2742906Y-6091293D01*
X-2752455Y-6096806D01*
X-2770147Y-6117890D01*
X-2776685Y-6125682D01*
X-2784111Y-6133785D01*
X-7078509Y-10428183D01*
X-7140821Y-10462209D01*
X-7210600Y-10455783D01*
X-7210945Y-10456897D01*
X-7216214Y-10455266D01*
X-7407746Y-10395977D01*
X-7413871Y-10395333D01*
X-7413872Y-10395333D01*
X-7606502Y-10375087D01*
X-7606504Y-10375087D01*
X-7612631Y-10374443D01*
X-7699471Y-10382346D01*
X-7811658Y-10392555D01*
X-7811661Y-10392556D01*
X-7817797Y-10393114D01*
X-8015428Y-10451280D01*
X-8020893Y-10454137D01*
X-8024041Y-10455783D01*
X-8197998Y-10546726D01*
X-8202799Y-10550586D01*
X-8202802Y-10550588D01*
X-8300864Y-10629432D01*
X-8358553Y-10675815D01*
X-8490976Y-10833630D01*
X-8493944Y-10839028D01*
X-8493947Y-10839033D01*
X-8557713Y-10955024D01*
X-8590224Y-11014162D01*
X-8652516Y-11210532D01*
X-8653202Y-11216649D01*
X-8653203Y-11216653D01*
X-8674793Y-11409137D01*
X-8675480Y-11415262D01*
X-8674964Y-11421406D01*
X-8659675Y-11603471D01*
X-8658241Y-11620553D01*
X-8656542Y-11626478D01*
X-8604257Y-11808817D01*
X-8601456Y-11818586D01*
X-8598641Y-11824063D01*
X-8598640Y-11824066D01*
X-8528196Y-11961136D01*
X-8507288Y-12001818D01*
X-8379323Y-12163270D01*
X-8374630Y-12167264D01*
X-8374629Y-12167265D01*
X-8230374Y-12290035D01*
X-8222436Y-12296791D01*
X-8042602Y-12397297D01*
X-7947762Y-12428113D01*
X-7852529Y-12459056D01*
X-7852525Y-12459057D01*
X-7846671Y-12460959D01*
X-7642106Y-12485351D01*
X-7635971Y-12484879D01*
X-7635969Y-12484879D01*
X-7579477Y-12480532D01*
X-7436700Y-12469546D01*
X-7430770Y-12467890D01*
X-7430768Y-12467890D01*
X-7306896Y-12433304D01*
X-7238275Y-12414145D01*
X-7232786Y-12411372D01*
X-7232780Y-12411370D01*
X-7059884Y-12324033D01*
X-7054390Y-12321258D01*
X-7028258Y-12300842D01*
X-6973220Y-12257841D01*
X-6892049Y-12194424D01*
X-6757436Y-12038472D01*
X-6736613Y-12001818D01*
X-6707485Y-11950543D01*
X-6655677Y-11859344D01*
X-6590649Y-11663863D01*
X-6564829Y-11459474D01*
X-6564417Y-11430000D01*
X-6584520Y-11224970D01*
X-6644065Y-11027749D01*
X-6645688Y-11024696D01*
X-6653056Y-10955024D01*
X-6618192Y-10888518D01*
X-2442079Y-6712405D01*
X-2379767Y-6678379D01*
X-2352984Y-6675500D01*
X-849067Y-6675500D01*
X-780946Y-6695502D01*
X-734453Y-6749158D01*
X-724349Y-6819432D01*
X-752546Y-6882491D01*
X-870976Y-7023630D01*
X-873944Y-7029028D01*
X-873947Y-7029033D01*
X-880685Y-7041290D01*
X-970224Y-7204162D01*
X-1032516Y-7400532D01*
X-1033202Y-7406649D01*
X-1033203Y-7406653D01*
X-1054793Y-7599137D01*
X-1055480Y-7605262D01*
X-1038241Y-7810553D01*
X-1036542Y-7816478D01*
X-988963Y-7982405D01*
X-981456Y-8008586D01*
X-978641Y-8014063D01*
X-978640Y-8014066D01*
X-890103Y-8186341D01*
X-887288Y-8191818D01*
X-759323Y-8353270D01*
X-759450Y-8353370D01*
X-727773Y-8413870D01*
X-734073Y-8484586D01*
X-777605Y-8540671D01*
X-851342Y-8564500D01*
X-2520290Y-8564500D01*
X-2531272Y-8564020D01*
X-2557820Y-8561697D01*
X-2557822Y-8561697D01*
X-2568807Y-8560736D01*
X-2605215Y-8570492D01*
X-2615942Y-8572870D01*
X-2619301Y-8573462D01*
X-2653045Y-8579412D01*
X-2662590Y-8584923D01*
X-2665866Y-8586115D01*
X-2669034Y-8587592D01*
X-2679684Y-8590446D01*
X-2688715Y-8596770D01*
X-2710544Y-8612055D01*
X-2719815Y-8617961D01*
X-2742906Y-8631293D01*
X-2752455Y-8636806D01*
X-2759541Y-8645251D01*
X-2776685Y-8665682D01*
X-2784111Y-8673785D01*
X-7078509Y-12968183D01*
X-7140821Y-13002209D01*
X-7210600Y-12995783D01*
X-7210945Y-12996897D01*
X-7216214Y-12995266D01*
X-7407746Y-12935977D01*
X-7413871Y-12935333D01*
X-7413872Y-12935333D01*
X-7606502Y-12915087D01*
X-7606504Y-12915087D01*
X-7612631Y-12914443D01*
X-7699471Y-12922346D01*
X-7811658Y-12932555D01*
X-7811661Y-12932556D01*
X-7817797Y-12933114D01*
X-8015428Y-12991280D01*
X-8020893Y-12994137D01*
X-8082269Y-13026224D01*
X-8197998Y-13086726D01*
X-8202799Y-13090586D01*
X-8202802Y-13090588D01*
X-8300864Y-13169432D01*
X-8358553Y-13215815D01*
X-8490976Y-13373630D01*
X-8493944Y-13379028D01*
X-8493947Y-13379033D01*
X-8557713Y-13495024D01*
X-8590224Y-13554162D01*
X-8652516Y-13750532D01*
X-8653202Y-13756649D01*
X-8653203Y-13756653D01*
X-8674793Y-13949137D01*
X-8675480Y-13955262D01*
X-8658241Y-14160553D01*
X-8656542Y-14166478D01*
X-8608963Y-14332405D01*
X-8601456Y-14358586D01*
X-8598641Y-14364063D01*
X-8598640Y-14364066D01*
X-8528196Y-14501136D01*
X-8507288Y-14541818D01*
X-8379323Y-14703270D01*
X-8379450Y-14703370D01*
X-8347773Y-14763870D01*
X-8354073Y-14834586D01*
X-8397605Y-14890671D01*
X-8471342Y-14914500D01*
X-8870287Y-14914500D01*
X-8881268Y-14914021D01*
X-8907830Y-14911697D01*
X-8907832Y-14911697D01*
X-8918807Y-14910737D01*
X-8955217Y-14920492D01*
X-8965924Y-14922866D01*
X-9003045Y-14929412D01*
X-9012589Y-14934922D01*
X-9015865Y-14936114D01*
X-9019036Y-14937593D01*
X-9029684Y-14940446D01*
X-9038713Y-14946768D01*
X-9060551Y-14962059D01*
X-9069821Y-14967964D01*
X-9092908Y-14981293D01*
X-9092912Y-14981296D01*
X-9102455Y-14986806D01*
X-9120147Y-15007890D01*
X-9126680Y-15015676D01*
X-9134106Y-15023779D01*
X-9618510Y-15508183D01*
X-9680822Y-15542209D01*
X-9750600Y-15535781D01*
X-9750945Y-15536897D01*
X-9756224Y-15535263D01*
X-9756223Y-15535263D01*
X-9947746Y-15475977D01*
X-9953871Y-15475333D01*
X-9953872Y-15475333D01*
X-10146502Y-15455087D01*
X-10146504Y-15455087D01*
X-10152631Y-15454443D01*
X-10239471Y-15462346D01*
X-10351658Y-15472555D01*
X-10351661Y-15472556D01*
X-10357797Y-15473114D01*
X-10555428Y-15531280D01*
X-10560893Y-15534137D01*
X-10622269Y-15566224D01*
X-10737998Y-15626726D01*
X-10742799Y-15630586D01*
X-10742802Y-15630588D01*
X-10840864Y-15709432D01*
X-10898553Y-15755815D01*
X-11030976Y-15913630D01*
X-11033944Y-15919028D01*
X-11033947Y-15919033D01*
X-11123383Y-16081718D01*
X-11130224Y-16094162D01*
X-11192516Y-16290532D01*
X-11193202Y-16296649D01*
X-11193203Y-16296653D01*
X-11198694Y-16345609D01*
X-11215480Y-16495262D01*
X-13274500Y-16495262D01*
X-13274500Y-13955262D01*
X-11215480Y-13955262D01*
X-11198241Y-14160553D01*
X-11196542Y-14166478D01*
X-11148963Y-14332405D01*
X-11141456Y-14358586D01*
X-11138641Y-14364063D01*
X-11138640Y-14364066D01*
X-11068196Y-14501136D01*
X-11047288Y-14541818D01*
X-10919323Y-14703270D01*
X-10914630Y-14707264D01*
X-10914629Y-14707265D01*
X-10829159Y-14780005D01*
X-10762436Y-14836791D01*
X-10757058Y-14839797D01*
X-10757056Y-14839798D01*
X-10725437Y-14857469D01*
X-10582602Y-14937297D01*
X-10490013Y-14967381D01*
X-10392529Y-14999056D01*
X-10392525Y-14999057D01*
X-10386671Y-15000959D01*
X-10182106Y-15025351D01*
X-10175971Y-15024879D01*
X-10175969Y-15024879D01*
X-10119961Y-15020569D01*
X-9976700Y-15009546D01*
X-9970770Y-15007890D01*
X-9970768Y-15007890D01*
X-9817920Y-14965214D01*
X-9778275Y-14954145D01*
X-9772786Y-14951372D01*
X-9772780Y-14951370D01*
X-9599884Y-14864033D01*
X-9594390Y-14861258D01*
X-9568258Y-14840842D01*
X-9490390Y-14780005D01*
X-9432049Y-14734424D01*
X-9412955Y-14712304D01*
X-9301460Y-14583134D01*
X-9301460Y-14583133D01*
X-9297436Y-14578472D01*
X-9276613Y-14541818D01*
X-9247485Y-14490543D01*
X-9195677Y-14399344D01*
X-9130649Y-14203863D01*
X-9104829Y-13999474D01*
X-9104417Y-13970000D01*
X-9124520Y-13764970D01*
X-9184065Y-13567749D01*
X-9280782Y-13385849D01*
X-9373784Y-13271818D01*
X-9407094Y-13230975D01*
X-9407097Y-13230972D01*
X-9410989Y-13226200D01*
X-9423542Y-13215815D01*
X-9564975Y-13098811D01*
X-9564979Y-13098809D01*
X-9569725Y-13094882D01*
X-9750945Y-12996897D01*
X-9947746Y-12935977D01*
X-9953871Y-12935333D01*
X-9953872Y-12935333D01*
X-10146502Y-12915087D01*
X-10146504Y-12915087D01*
X-10152631Y-12914443D01*
X-10239471Y-12922346D01*
X-10351658Y-12932555D01*
X-10351661Y-12932556D01*
X-10357797Y-12933114D01*
X-10555428Y-12991280D01*
X-10560893Y-12994137D01*
X-10622269Y-13026224D01*
X-10737998Y-13086726D01*
X-10742799Y-13090586D01*
X-10742802Y-13090588D01*
X-10840864Y-13169432D01*
X-10898553Y-13215815D01*
X-11030976Y-13373630D01*
X-11033944Y-13379028D01*
X-11033947Y-13379033D01*
X-11097713Y-13495024D01*
X-11130224Y-13554162D01*
X-11192516Y-13750532D01*
X-11193202Y-13756649D01*
X-11193203Y-13756653D01*
X-11214793Y-13949137D01*
X-11215480Y-13955262D01*
X-13274500Y-13955262D01*
X-13274500Y-11415262D01*
X-11215480Y-11415262D01*
X-11214964Y-11421406D01*
X-11199675Y-11603471D01*
X-11198241Y-11620553D01*
X-11196542Y-11626478D01*
X-11144257Y-11808817D01*
X-11141456Y-11818586D01*
X-11138641Y-11824063D01*
X-11138640Y-11824066D01*
X-11068196Y-11961136D01*
X-11047288Y-12001818D01*
X-10919323Y-12163270D01*
X-10914630Y-12167264D01*
X-10914629Y-12167265D01*
X-10770374Y-12290035D01*
X-10762436Y-12296791D01*
X-10582602Y-12397297D01*
X-10487762Y-12428113D01*
X-10392529Y-12459056D01*
X-10392525Y-12459057D01*
X-10386671Y-12460959D01*
X-10182106Y-12485351D01*
X-10175971Y-12484879D01*
X-10175969Y-12484879D01*
X-10119477Y-12480532D01*
X-9976700Y-12469546D01*
X-9970770Y-12467890D01*
X-9970768Y-12467890D01*
X-9846896Y-12433304D01*
X-9778275Y-12414145D01*
X-9772786Y-12411372D01*
X-9772780Y-12411370D01*
X-9599884Y-12324033D01*
X-9594390Y-12321258D01*
X-9568258Y-12300842D01*
X-9513220Y-12257841D01*
X-9432049Y-12194424D01*
X-9297436Y-12038472D01*
X-9276613Y-12001818D01*
X-9247485Y-11950543D01*
X-9195677Y-11859344D01*
X-9130649Y-11663863D01*
X-9104829Y-11459474D01*
X-9104417Y-11430000D01*
X-9124520Y-11224970D01*
X-9184065Y-11027749D01*
X-9280782Y-10845849D01*
X-9373784Y-10731818D01*
X-9407094Y-10690975D01*
X-9407097Y-10690972D01*
X-9410989Y-10686200D01*
X-9428214Y-10671950D01*
X-9564975Y-10558811D01*
X-9564979Y-10558809D01*
X-9569725Y-10554882D01*
X-9750945Y-10456897D01*
X-9947746Y-10395977D01*
X-9953871Y-10395333D01*
X-9953872Y-10395333D01*
X-10146502Y-10375087D01*
X-10146504Y-10375087D01*
X-10152631Y-10374443D01*
X-10239471Y-10382346D01*
X-10351658Y-10392555D01*
X-10351661Y-10392556D01*
X-10357797Y-10393114D01*
X-10555428Y-10451280D01*
X-10560893Y-10454137D01*
X-10564041Y-10455783D01*
X-10737998Y-10546726D01*
X-10742799Y-10550586D01*
X-10742802Y-10550588D01*
X-10840864Y-10629432D01*
X-10898553Y-10675815D01*
X-11030976Y-10833630D01*
X-11033944Y-10839028D01*
X-11033947Y-10839033D01*
X-11097713Y-10955024D01*
X-11130224Y-11014162D01*
X-11192516Y-11210532D01*
X-11193202Y-11216649D01*
X-11193203Y-11216653D01*
X-11214793Y-11409137D01*
X-11215480Y-11415262D01*
X-13274500Y-11415262D01*
X-13274500Y-9543834D01*
X-11210500Y-9543834D01*
X-11207519Y-9575369D01*
X-11162634Y-9703184D01*
X-11157042Y-9710754D01*
X-11157041Y-9710757D01*
X-11102918Y-9784033D01*
X-11082150Y-9812150D01*
X-11074579Y-9817742D01*
X-10980757Y-9887041D01*
X-10980754Y-9887042D01*
X-10973184Y-9892634D01*
X-10845369Y-9937519D01*
X-10837723Y-9938242D01*
X-10837722Y-9938242D01*
X-10831752Y-9938806D01*
X-10813834Y-9940500D01*
X-9506166Y-9940500D01*
X-9488248Y-9938806D01*
X-9482278Y-9938242D01*
X-9482277Y-9938242D01*
X-9474631Y-9937519D01*
X-9346816Y-9892634D01*
X-9339246Y-9887042D01*
X-9339243Y-9887041D01*
X-9245421Y-9817742D01*
X-9237850Y-9812150D01*
X-9217082Y-9784033D01*
X-9162959Y-9710757D01*
X-9162958Y-9710754D01*
X-9157366Y-9703184D01*
X-9112481Y-9575369D01*
X-9109500Y-9543834D01*
X-9109500Y-8875262D01*
X-8675480Y-8875262D01*
X-8658241Y-9080553D01*
X-8656542Y-9086478D01*
X-8608963Y-9252405D01*
X-8601456Y-9278586D01*
X-8598641Y-9284063D01*
X-8598640Y-9284066D01*
X-8528196Y-9421136D01*
X-8507288Y-9461818D01*
X-8379323Y-9623270D01*
X-8374630Y-9627264D01*
X-8374629Y-9627265D01*
X-8230374Y-9750035D01*
X-8222436Y-9756791D01*
X-8217058Y-9759797D01*
X-8217056Y-9759798D01*
X-8185437Y-9777469D01*
X-8042602Y-9857297D01*
X-7951060Y-9887041D01*
X-7852529Y-9919056D01*
X-7852525Y-9919057D01*
X-7846671Y-9920959D01*
X-7642106Y-9945351D01*
X-7635971Y-9944879D01*
X-7635969Y-9944879D01*
X-7575435Y-9940221D01*
X-7436700Y-9929546D01*
X-7430770Y-9927890D01*
X-7430768Y-9927890D01*
X-7304495Y-9892634D01*
X-7238275Y-9874145D01*
X-7232786Y-9871372D01*
X-7232780Y-9871370D01*
X-7059884Y-9784033D01*
X-7054390Y-9781258D01*
X-7028258Y-9760842D01*
X-6943090Y-9694301D01*
X-6892049Y-9654424D01*
X-6830066Y-9582616D01*
X-6761460Y-9503134D01*
X-6761460Y-9503133D01*
X-6757436Y-9498472D01*
X-6736613Y-9461818D01*
X-6710699Y-9416200D01*
X-6655677Y-9319344D01*
X-6590649Y-9123863D01*
X-6564829Y-8919474D01*
X-6564417Y-8890000D01*
X-6584520Y-8684970D01*
X-6644065Y-8487749D01*
X-6740782Y-8305849D01*
X-6833784Y-8191818D01*
X-6867094Y-8150975D01*
X-6867097Y-8150972D01*
X-6870989Y-8146200D01*
X-6944122Y-8085699D01*
X-7024975Y-8018811D01*
X-7024979Y-8018809D01*
X-7029725Y-8014882D01*
X-7210945Y-7916897D01*
X-7407746Y-7855977D01*
X-7413871Y-7855333D01*
X-7413872Y-7855333D01*
X-7606502Y-7835087D01*
X-7606504Y-7835087D01*
X-7612631Y-7834443D01*
X-7693012Y-7841758D01*
X-7811658Y-7852555D01*
X-7811661Y-7852556D01*
X-7817797Y-7853114D01*
X-8015428Y-7911280D01*
X-8020893Y-7914137D01*
X-8082625Y-7946410D01*
X-8197998Y-8006726D01*
X-8202799Y-8010586D01*
X-8202802Y-8010588D01*
X-8257675Y-8054707D01*
X-8358553Y-8135815D01*
X-8490976Y-8293630D01*
X-8493944Y-8299028D01*
X-8493947Y-8299033D01*
X-8560761Y-8420568D01*
X-8590224Y-8474162D01*
X-8652516Y-8670532D01*
X-8653202Y-8676649D01*
X-8653203Y-8676653D01*
X-8674793Y-8869137D01*
X-8675480Y-8875262D01*
X-9109500Y-8875262D01*
X-9109500Y-8236166D01*
X-9112481Y-8204631D01*
X-9157366Y-8076816D01*
X-9162958Y-8069246D01*
X-9162959Y-8069243D01*
X-9232258Y-7975421D01*
X-9237850Y-7967850D01*
X-9288298Y-7930588D01*
X-9339243Y-7892959D01*
X-9339246Y-7892958D01*
X-9346816Y-7887366D01*
X-9474631Y-7842481D01*
X-9482277Y-7841758D01*
X-9482278Y-7841758D01*
X-9488248Y-7841194D01*
X-9506166Y-7839500D01*
X-10813834Y-7839500D01*
X-10831752Y-7841194D01*
X-10837722Y-7841758D01*
X-10837723Y-7841758D01*
X-10845369Y-7842481D01*
X-10973184Y-7887366D01*
X-10980754Y-7892958D01*
X-10980757Y-7892959D01*
X-11031702Y-7930588D01*
X-11082150Y-7967850D01*
X-11087742Y-7975421D01*
X-11157041Y-8069243D01*
X-11157042Y-8069246D01*
X-11162634Y-8076816D01*
X-11207519Y-8204631D01*
X-11210500Y-8236166D01*
X-11210500Y-9543834D01*
X-13274500Y-9543834D01*
X-13274500Y-1238440D01*
X-12150230Y-1238440D01*
X-12135800Y-1458604D01*
X-12134379Y-1464200D01*
X-12134378Y-1464205D01*
X-12097996Y-1607456D01*
X-12081489Y-1672452D01*
X-12079072Y-1677694D01*
X-12079072Y-1677695D01*
X-12041046Y-1760180D01*
X-11989117Y-1872821D01*
X-11861778Y-2053002D01*
X-11703736Y-2206961D01*
X-11698940Y-2210166D01*
X-11698937Y-2210168D01*
X-11614739Y-2266427D01*
X-11520283Y-2329540D01*
X-11514980Y-2331818D01*
X-11514977Y-2331820D01*
X-11403377Y-2379767D01*
X-11317564Y-2416635D01*
X-11237912Y-2434658D01*
X-11108005Y-2464054D01*
X-11107999Y-2464055D01*
X-11102368Y-2465329D01*
X-11096597Y-2465556D01*
X-11096595Y-2465556D01*
X-11028789Y-2468220D01*
X-10881902Y-2473991D01*
X-10772725Y-2458161D01*
X-10669262Y-2443160D01*
X-10669257Y-2443159D01*
X-10663548Y-2442331D01*
X-10658084Y-2440476D01*
X-10658079Y-2440475D01*
X-10460093Y-2373268D01*
X-10460088Y-2373266D01*
X-10454621Y-2371410D01*
X-10262116Y-2263602D01*
X-10092482Y-2122518D01*
X-9951398Y-1952884D01*
X-9843590Y-1760379D01*
X-9841734Y-1754912D01*
X-9841732Y-1754907D01*
X-9774525Y-1556921D01*
X-9774524Y-1556916D01*
X-9772669Y-1551452D01*
X-9771841Y-1545743D01*
X-9771840Y-1545738D01*
X-9741542Y-1336772D01*
X-9741009Y-1333098D01*
X-9739357Y-1270000D01*
X-9742257Y-1238440D01*
X-5650230Y-1238440D01*
X-5635800Y-1458604D01*
X-5634379Y-1464200D01*
X-5634378Y-1464205D01*
X-5597996Y-1607456D01*
X-5581489Y-1672452D01*
X-5579072Y-1677694D01*
X-5579072Y-1677695D01*
X-5541046Y-1760180D01*
X-5489117Y-1872821D01*
X-5361778Y-2053002D01*
X-5203736Y-2206961D01*
X-5198940Y-2210166D01*
X-5198937Y-2210168D01*
X-5114739Y-2266427D01*
X-5020283Y-2329540D01*
X-5014980Y-2331818D01*
X-5014977Y-2331820D01*
X-4903377Y-2379767D01*
X-4817564Y-2416635D01*
X-4737912Y-2434658D01*
X-4608005Y-2464054D01*
X-4607999Y-2464055D01*
X-4602368Y-2465329D01*
X-4596597Y-2465556D01*
X-4596595Y-2465556D01*
X-4528789Y-2468220D01*
X-4381902Y-2473991D01*
X-4272725Y-2458161D01*
X-4169262Y-2443160D01*
X-4169257Y-2443159D01*
X-4163548Y-2442331D01*
X-4158084Y-2440476D01*
X-4158079Y-2440475D01*
X-3960093Y-2373268D01*
X-3960088Y-2373266D01*
X-3954621Y-2371410D01*
X-3762116Y-2263602D01*
X-3592482Y-2122518D01*
X-3451398Y-1952884D01*
X-3343590Y-1760379D01*
X-3341734Y-1754912D01*
X-3341732Y-1754907D01*
X-3274525Y-1556921D01*
X-3274524Y-1556916D01*
X-3272669Y-1551452D01*
X-3271841Y-1545743D01*
X-3271840Y-1545738D01*
X-3241542Y-1336772D01*
X-3241009Y-1333098D01*
X-3239357Y-1270000D01*
X-3259546Y-1050289D01*
X-3262084Y-1041288D01*
X-3291060Y-938547D01*
X-3319435Y-837936D01*
X-3417020Y-640053D01*
X-3454266Y-590174D01*
X-3545580Y-467891D01*
X-3545580Y-467890D01*
X-3549033Y-463267D01*
X-3711051Y-313499D01*
X-3897650Y-195764D01*
X-4102579Y-114006D01*
X-4108239Y-112880D01*
X-4108243Y-112879D01*
X-4313309Y-72089D01*
X-4313312Y-72089D01*
X-4318976Y-70962D01*
X-4324751Y-70886D01*
X-4324755Y-70886D01*
X-4435496Y-69437D01*
X-4539594Y-68074D01*
X-4545291Y-69053D01*
X-4545292Y-69053D01*
X-4751346Y-104459D01*
X-4751347Y-104459D01*
X-4757043Y-105438D01*
X-4964043Y-181804D01*
X-4969004Y-184756D01*
X-4969005Y-184756D01*
X-5061382Y-239715D01*
X-5153659Y-294614D01*
X-5319543Y-440090D01*
X-5456137Y-613360D01*
X-5558869Y-808620D01*
X-5624297Y-1019333D01*
X-5650230Y-1238440D01*
X-9742257Y-1238440D01*
X-9759546Y-1050289D01*
X-9762084Y-1041288D01*
X-9791060Y-938547D01*
X-9819435Y-837936D01*
X-9917020Y-640053D01*
X-9954266Y-590174D01*
X-10045580Y-467891D01*
X-10045580Y-467890D01*
X-10049033Y-463267D01*
X-10211051Y-313499D01*
X-10397650Y-195764D01*
X-10602579Y-114006D01*
X-10608239Y-112880D01*
X-10608243Y-112879D01*
X-10813309Y-72089D01*
X-10813312Y-72089D01*
X-10818976Y-70962D01*
X-10824751Y-70886D01*
X-10824755Y-70886D01*
X-10935496Y-69437D01*
X-11039594Y-68074D01*
X-11045291Y-69053D01*
X-11045292Y-69053D01*
X-11251346Y-104459D01*
X-11251347Y-104459D01*
X-11257043Y-105438D01*
X-11464043Y-181804D01*
X-11469004Y-184756D01*
X-11469005Y-184756D01*
X-11561382Y-239715D01*
X-11653659Y-294614D01*
X-11819543Y-440090D01*
X-11956137Y-613360D01*
X-12058869Y-808620D01*
X-12124297Y-1019333D01*
X-12150230Y-1238440D01*
X-13274500Y-1238440D01*
X-13274500Y3261560D01*
X-12150230Y3261560D01*
X-12135800Y3041396D01*
X-12134379Y3035800D01*
X-12134378Y3035795D01*
X-12082910Y2833143D01*
X-12081489Y2827548D01*
X-12079072Y2822306D01*
X-12079072Y2822305D01*
X-12040954Y2739621D01*
X-11989117Y2627179D01*
X-11861778Y2446998D01*
X-11703736Y2293039D01*
X-11698940Y2289834D01*
X-11698937Y2289832D01*
X-11614739Y2233573D01*
X-11520283Y2170460D01*
X-11514980Y2168182D01*
X-11514977Y2168180D01*
X-11322871Y2085645D01*
X-11317564Y2083365D01*
X-11241582Y2066172D01*
X-11108005Y2035946D01*
X-11107999Y2035945D01*
X-11102368Y2034671D01*
X-11096597Y2034444D01*
X-11096595Y2034444D01*
X-11028789Y2031780D01*
X-10881902Y2026009D01*
X-10772725Y2041839D01*
X-10669262Y2056840D01*
X-10669257Y2056841D01*
X-10663548Y2057669D01*
X-10658084Y2059524D01*
X-10658079Y2059525D01*
X-10460093Y2126732D01*
X-10460088Y2126734D01*
X-10454621Y2128590D01*
X-10262116Y2236398D01*
X-10092482Y2377482D01*
X-9990223Y2500434D01*
X-9955092Y2542674D01*
X-9955090Y2542677D01*
X-9951398Y2547116D01*
X-9843590Y2739621D01*
X-9841734Y2745088D01*
X-9841732Y2745093D01*
X-9774525Y2943079D01*
X-9774524Y2943084D01*
X-9772669Y2948548D01*
X-9771841Y2954257D01*
X-9771840Y2954262D01*
X-9741542Y3163228D01*
X-9741009Y3166902D01*
X-9739357Y3230000D01*
X-9759546Y3449711D01*
X-9819435Y3662064D01*
X-9917020Y3859947D01*
X-10049033Y4036733D01*
X-10211051Y4186501D01*
X-10397650Y4304236D01*
X-10602579Y4385994D01*
X-10608239Y4387120D01*
X-10608243Y4387121D01*
X-10813309Y4427911D01*
X-10813312Y4427911D01*
X-10818976Y4429038D01*
X-10824751Y4429114D01*
X-10824755Y4429114D01*
X-10935496Y4430563D01*
X-11039594Y4431926D01*
X-11045291Y4430947D01*
X-11045292Y4430947D01*
X-11251346Y4395541D01*
X-11251347Y4395541D01*
X-11257043Y4394562D01*
X-11464043Y4318196D01*
X-11653659Y4205386D01*
X-11819543Y4059910D01*
X-11956137Y3886640D01*
X-12058869Y3691380D01*
X-12124297Y3480667D01*
X-12150230Y3261560D01*
X-13274500Y3261560D01*
X-13274500Y3797965D01*
X-13272312Y3797965D01*
X-13272927Y3801762D01*
X-13269515Y3810000D01*
X-13273590Y3819839D01*
X-13271370Y3840494D01*
X-13271785Y3844493D01*
X-13260387Y3989322D01*
X-13257294Y4008850D01*
X-13245036Y4059910D01*
X-13217616Y4174120D01*
X-13211508Y4192919D01*
X-13166675Y4301155D01*
X-13146465Y4349945D01*
X-13137491Y4367556D01*
X-13048684Y4512475D01*
X-13037063Y4528470D01*
X-12926686Y4657705D01*
X-12912705Y4671686D01*
X-12783470Y4782063D01*
X-12767475Y4793684D01*
X-12622556Y4882491D01*
X-12604945Y4891465D01*
X-12447914Y4956510D01*
X-12429120Y4962616D01*
X-12263849Y5002294D01*
X-12244321Y5005387D01*
X-12075894Y5018642D01*
X-12074930Y5018628D01*
X-12065000Y5014515D01*
X-12055733Y5018354D01*
X-12052543Y5018308D01*
X-12045801Y5017583D01*
X-12032469Y5019500D01*
X1257965Y5019500D01*
X1257965Y5017312D01*
G37*
%TD.AperFunction*%
M02*
