%TF.GenerationSoftware,KiCad,Pcbnew,(6.0.10-0)*%
%TF.CreationDate,2023-01-12T22:41:01+08:00*%
%TF.ProjectId,Control,436f6e74-726f-46c2-9e6b-696361645f70,V3.2.2*%
%TF.SameCoordinates,PX7df6180PY32de760*%
%TF.FileFunction,Drillmap*%
%TF.FilePolarity,Positive*%
%FSLAX45Y45*%
G04 Gerber Fmt 4.5, Leading zero omitted, Abs format (unit mm)*
G04 Created by KiCad (PCBNEW (6.0.10-0)) date 2023-01-12 22:41:01*
%MOMM*%
%LPD*%
G01*
G04 APERTURE LIST*
%ADD10C,0.120000*%
%ADD11C,0.200000*%
G04 APERTURE END LIST*
D10*
X1270000Y-381000D02*
X254000Y-381000D01*
X2730500Y-2984500D02*
X-1206500Y-2984500D01*
X-1333500Y-2857500D02*
X-1333500Y381000D01*
X1397000Y508000D02*
G75*
G03*
X1270000Y381000I0J-127000D01*
G01*
X2857500Y381000D02*
G75*
G03*
X2730500Y508000I-127000J0D01*
G01*
X-1333500Y-2857500D02*
G75*
G03*
X-1206500Y-2984500I127000J0D01*
G01*
X1270000Y381000D02*
X1270000Y-381000D01*
X2730500Y-2984500D02*
G75*
G03*
X2857500Y-2857500I0J127000D01*
G01*
X-1206500Y508000D02*
G75*
G03*
X-1333500Y381000I0J-127000D01*
G01*
X254000Y-381000D02*
X254000Y381000D01*
X1397000Y508000D02*
X2730500Y508000D01*
X2857500Y381000D02*
X2857500Y-2857500D01*
X254000Y381000D02*
G75*
G03*
X127000Y508000I-127000J0D01*
G01*
X127000Y508000D02*
X-1206500Y508000D01*
D11*
X-1081881Y-3300976D02*
X-1081881Y-3100976D01*
X-1034262Y-3100976D01*
X-1005690Y-3110500D01*
X-986643Y-3129548D01*
X-977119Y-3148595D01*
X-967595Y-3186690D01*
X-967595Y-3215262D01*
X-977119Y-3253357D01*
X-986643Y-3272405D01*
X-1005690Y-3291452D01*
X-1034262Y-3300976D01*
X-1081881Y-3300976D01*
X-881881Y-3300976D02*
X-881881Y-3167643D01*
X-881881Y-3205738D02*
X-872357Y-3186690D01*
X-862833Y-3177167D01*
X-843786Y-3167643D01*
X-824738Y-3167643D01*
X-758071Y-3300976D02*
X-758071Y-3167643D01*
X-758071Y-3100976D02*
X-767595Y-3110500D01*
X-758071Y-3120024D01*
X-748548Y-3110500D01*
X-758071Y-3100976D01*
X-758071Y-3120024D01*
X-634262Y-3300976D02*
X-653310Y-3291452D01*
X-662833Y-3272405D01*
X-662833Y-3100976D01*
X-529500Y-3300976D02*
X-548548Y-3291452D01*
X-558072Y-3272405D01*
X-558072Y-3100976D01*
X-300929Y-3300976D02*
X-300929Y-3100976D01*
X-234262Y-3243833D01*
X-167595Y-3100976D01*
X-167595Y-3300976D01*
X13357Y-3300976D02*
X13357Y-3196214D01*
X3833Y-3177167D01*
X-15214Y-3167643D01*
X-53310Y-3167643D01*
X-72357Y-3177167D01*
X13357Y-3291452D02*
X-5690Y-3300976D01*
X-53310Y-3300976D01*
X-72357Y-3291452D01*
X-81881Y-3272405D01*
X-81881Y-3253357D01*
X-72357Y-3234309D01*
X-53310Y-3224786D01*
X-5690Y-3224786D01*
X13357Y-3215262D01*
X108595Y-3167643D02*
X108595Y-3367643D01*
X108595Y-3177167D02*
X127643Y-3167643D01*
X165738Y-3167643D01*
X184786Y-3177167D01*
X194309Y-3186690D01*
X203833Y-3205738D01*
X203833Y-3262881D01*
X194309Y-3281928D01*
X184786Y-3291452D01*
X165738Y-3300976D01*
X127643Y-3300976D01*
X108595Y-3291452D01*
X289548Y-3281928D02*
X299071Y-3291452D01*
X289548Y-3300976D01*
X280024Y-3291452D01*
X289548Y-3281928D01*
X289548Y-3300976D01*
X289548Y-3177167D02*
X299071Y-3186690D01*
X289548Y-3196214D01*
X280024Y-3186690D01*
X289548Y-3177167D01*
X289548Y-3196214D01*
M02*
