%FSLAX45Y45*%
G04 Gerber Fmt 4.5, Leading zero omitted, Abs format (unit mm)*
G04 Created by KiCad (PCBNEW (6.0.5-0)) date 2022-06-17 00:43:15*
%MOMM*%
%LPD*%
G01*
G04 APERTURE LIST*
%TA.AperFunction,Profile*%
%ADD10C,0.120000*%
%TD*%
%ADD11C,0.200000*%
%ADD12C,0.040000*%
%ADD13C,0.050000*%
%ADD14C,0.080000*%
%ADD15C,0.100000*%
G04 APERTURE END LIST*
D10*
X-10477500Y-8826500D02*
X952500Y-8826500D01*
X952500Y-8826500D02*
G75*
G03*
X1206500Y-8572500I0J254000D01*
G01*
X1206500Y1905000D02*
G75*
G03*
X952500Y2159000I-254000J0D01*
G01*
X1206500Y1905000D02*
X1206500Y-8572500D01*
X-10731500Y-8572500D02*
G75*
G03*
X-10477500Y-8826500I254000J0D01*
G01*
X952500Y2159000D02*
X-10477500Y2159000D01*
X-10477500Y2159000D02*
G75*
G03*
X-10731500Y1905000I0J-254000D01*
G01*
X-10731500Y1905000D02*
X-10731500Y-8572500D01*
D11*
D12*
X-8973500Y-1377000D02*
X-8933500Y-1417000D01*
X-8933500Y-1377000D02*
X-8973500Y-1417000D01*
X-8960800Y528000D02*
X-8920800Y488000D01*
X-8920800Y528000D02*
X-8960800Y488000D01*
X-8960800Y-3282000D02*
X-8920800Y-3322000D01*
X-8920800Y-3282000D02*
X-8960800Y-3322000D01*
X-8960800Y-5187000D02*
X-8920800Y-5227000D01*
X-8920800Y-5187000D02*
X-8960800Y-5227000D01*
X-8960800Y-7092000D02*
X-8920800Y-7132000D01*
X-8920800Y-7092000D02*
X-8960800Y-7132000D01*
X-7055800Y528000D02*
X-7015800Y488000D01*
X-7015800Y528000D02*
X-7055800Y488000D01*
X-7055800Y-1377000D02*
X-7015800Y-1417000D01*
X-7015800Y-1377000D02*
X-7055800Y-1417000D01*
X-7055800Y-3282000D02*
X-7015800Y-3322000D01*
X-7015800Y-3282000D02*
X-7055800Y-3322000D01*
X-7055800Y-5187000D02*
X-7015800Y-5227000D01*
X-7015800Y-5187000D02*
X-7055800Y-5227000D01*
X-7055800Y-7092000D02*
X-7015800Y-7132000D01*
X-7015800Y-7092000D02*
X-7055800Y-7132000D01*
X-5354000Y909000D02*
X-5314000Y869000D01*
X-5314000Y909000D02*
X-5354000Y869000D01*
X-5150800Y528000D02*
X-5110800Y488000D01*
X-5110800Y528000D02*
X-5150800Y488000D01*
X-5150800Y-1377000D02*
X-5110800Y-1417000D01*
X-5110800Y-1377000D02*
X-5150800Y-1417000D01*
X-5150800Y-3282000D02*
X-5110800Y-3322000D01*
X-5110800Y-3282000D02*
X-5150800Y-3322000D01*
X-5150800Y-5187000D02*
X-5110800Y-5227000D01*
X-5110800Y-5187000D02*
X-5150800Y-5227000D01*
X-5150800Y-7092000D02*
X-5110800Y-7132000D01*
X-5110800Y-7092000D02*
X-5150800Y-7132000D01*
X-4782500Y-2710500D02*
X-4742500Y-2750500D01*
X-4742500Y-2710500D02*
X-4782500Y-2750500D01*
X-4719000Y-869000D02*
X-4679000Y-909000D01*
X-4679000Y-869000D02*
X-4719000Y-909000D01*
X-3258500Y528000D02*
X-3218500Y488000D01*
X-3218500Y528000D02*
X-3258500Y488000D01*
X-3245800Y-1377000D02*
X-3205800Y-1417000D01*
X-3205800Y-1377000D02*
X-3245800Y-1417000D01*
X-3245800Y-3282000D02*
X-3205800Y-3322000D01*
X-3205800Y-3282000D02*
X-3245800Y-3322000D01*
X-3245800Y-5187000D02*
X-3205800Y-5227000D01*
X-3205800Y-5187000D02*
X-3245800Y-5227000D01*
X-3245800Y-7092000D02*
X-3205800Y-7132000D01*
X-3205800Y-7092000D02*
X-3245800Y-7132000D01*
X-3004500Y-4679000D02*
X-2964500Y-4719000D01*
X-2964500Y-4679000D02*
X-3004500Y-4719000D01*
X-2750500Y-6584000D02*
X-2710500Y-6624000D01*
X-2710500Y-6584000D02*
X-2750500Y-6624000D01*
X-1340800Y528000D02*
X-1300800Y488000D01*
X-1300800Y528000D02*
X-1340800Y488000D01*
X-1340800Y-1377000D02*
X-1300800Y-1417000D01*
X-1300800Y-1377000D02*
X-1340800Y-1417000D01*
X-1340800Y-3282000D02*
X-1300800Y-3322000D01*
X-1300800Y-3282000D02*
X-1340800Y-3322000D01*
X-1340800Y-5187000D02*
X-1300800Y-5227000D01*
X-1300800Y-5187000D02*
X-1340800Y-5227000D01*
X-1340800Y-7092000D02*
X-1300800Y-7132000D01*
X-1300800Y-7092000D02*
X-1340800Y-7132000D01*
X564200Y528000D02*
X604200Y488000D01*
X604200Y528000D02*
X564200Y488000D01*
X564200Y-1377000D02*
X604200Y-1417000D01*
X604200Y-1377000D02*
X564200Y-1417000D01*
X564200Y-3282000D02*
X604200Y-3322000D01*
X604200Y-3282000D02*
X564200Y-3322000D01*
X564200Y-5187000D02*
X604200Y-5227000D01*
X604200Y-5187000D02*
X564200Y-5227000D01*
X564200Y-7092000D02*
X604200Y-7132000D01*
X604200Y-7092000D02*
X564200Y-7132000D01*
D13*
X-10000000Y-380000D02*
G75*
G03*
X-10000000Y-380000I-25000J0D01*
G01*
D11*
X-9990000Y-365000D02*
X-10060000Y-365000D01*
X-9990000Y-395000D02*
X-10060000Y-395000D01*
X-10060000Y-365000D02*
G75*
G03*
X-10060000Y-395000I0J-15000D01*
G01*
X-9990000Y-395000D02*
G75*
G03*
X-9990000Y-365000I0J15000D01*
G01*
D13*
X-10000000Y-2285000D02*
G75*
G03*
X-10000000Y-2285000I-25000J0D01*
G01*
D11*
X-9990000Y-2270000D02*
X-10060000Y-2270000D01*
X-9990000Y-2300000D02*
X-10060000Y-2300000D01*
X-10060000Y-2270000D02*
G75*
G03*
X-10060000Y-2300000I0J-15000D01*
G01*
X-9990000Y-2300000D02*
G75*
G03*
X-9990000Y-2270000I0J15000D01*
G01*
D13*
X-10000000Y-4190000D02*
G75*
G03*
X-10000000Y-4190000I-25000J0D01*
G01*
D11*
X-9990000Y-4175000D02*
X-10060000Y-4175000D01*
X-9990000Y-4205000D02*
X-10060000Y-4205000D01*
X-10060000Y-4175000D02*
G75*
G03*
X-10060000Y-4205000I0J-15000D01*
G01*
X-9990000Y-4205000D02*
G75*
G03*
X-9990000Y-4175000I0J15000D01*
G01*
D13*
X-10000000Y-6095000D02*
G75*
G03*
X-10000000Y-6095000I-25000J0D01*
G01*
D11*
X-9990000Y-6080000D02*
X-10060000Y-6080000D01*
X-9990000Y-6110000D02*
X-10060000Y-6110000D01*
X-10060000Y-6080000D02*
G75*
G03*
X-10060000Y-6110000I0J-15000D01*
G01*
X-9990000Y-6110000D02*
G75*
G03*
X-9990000Y-6080000I0J15000D01*
G01*
D13*
X-10000000Y-8000000D02*
G75*
G03*
X-10000000Y-8000000I-25000J0D01*
G01*
D11*
X-9990000Y-7985000D02*
X-10060000Y-7985000D01*
X-9990000Y-8015000D02*
X-10060000Y-8015000D01*
X-10060000Y-7985000D02*
G75*
G03*
X-10060000Y-8015000I0J-15000D01*
G01*
X-9990000Y-8015000D02*
G75*
G03*
X-9990000Y-7985000I0J15000D01*
G01*
D13*
X-9500000Y-590000D02*
G75*
G03*
X-9500000Y-590000I-25000J0D01*
G01*
D11*
X-9490000Y-575000D02*
X-9560000Y-575000D01*
X-9490000Y-605000D02*
X-9560000Y-605000D01*
X-9560000Y-575000D02*
G75*
G03*
X-9560000Y-605000I0J-15000D01*
G01*
X-9490000Y-605000D02*
G75*
G03*
X-9490000Y-575000I0J15000D01*
G01*
D13*
X-9500000Y-2495000D02*
G75*
G03*
X-9500000Y-2495000I-25000J0D01*
G01*
D11*
X-9490000Y-2480000D02*
X-9560000Y-2480000D01*
X-9490000Y-2510000D02*
X-9560000Y-2510000D01*
X-9560000Y-2480000D02*
G75*
G03*
X-9560000Y-2510000I0J-15000D01*
G01*
X-9490000Y-2510000D02*
G75*
G03*
X-9490000Y-2480000I0J15000D01*
G01*
D13*
X-9500000Y-4400000D02*
G75*
G03*
X-9500000Y-4400000I-25000J0D01*
G01*
D11*
X-9490000Y-4385000D02*
X-9560000Y-4385000D01*
X-9490000Y-4415000D02*
X-9560000Y-4415000D01*
X-9560000Y-4385000D02*
G75*
G03*
X-9560000Y-4415000I0J-15000D01*
G01*
X-9490000Y-4415000D02*
G75*
G03*
X-9490000Y-4385000I0J15000D01*
G01*
D13*
X-9500000Y-6305000D02*
G75*
G03*
X-9500000Y-6305000I-25000J0D01*
G01*
D11*
X-9490000Y-6290000D02*
X-9560000Y-6290000D01*
X-9490000Y-6320000D02*
X-9560000Y-6320000D01*
X-9560000Y-6290000D02*
G75*
G03*
X-9560000Y-6320000I0J-15000D01*
G01*
X-9490000Y-6320000D02*
G75*
G03*
X-9490000Y-6290000I0J15000D01*
G01*
D13*
X-9500000Y-8210000D02*
G75*
G03*
X-9500000Y-8210000I-25000J0D01*
G01*
D11*
X-9490000Y-8195000D02*
X-9560000Y-8195000D01*
X-9490000Y-8225000D02*
X-9560000Y-8225000D01*
X-9560000Y-8195000D02*
G75*
G03*
X-9560000Y-8225000I0J-15000D01*
G01*
X-9490000Y-8225000D02*
G75*
G03*
X-9490000Y-8195000I0J15000D01*
G01*
D13*
X-8095000Y-380000D02*
G75*
G03*
X-8095000Y-380000I-25000J0D01*
G01*
D11*
X-8085000Y-365000D02*
X-8155000Y-365000D01*
X-8085000Y-395000D02*
X-8155000Y-395000D01*
X-8155000Y-365000D02*
G75*
G03*
X-8155000Y-395000I0J-15000D01*
G01*
X-8085000Y-395000D02*
G75*
G03*
X-8085000Y-365000I0J15000D01*
G01*
D13*
X-8095000Y-2285000D02*
G75*
G03*
X-8095000Y-2285000I-25000J0D01*
G01*
D11*
X-8085000Y-2270000D02*
X-8155000Y-2270000D01*
X-8085000Y-2300000D02*
X-8155000Y-2300000D01*
X-8155000Y-2270000D02*
G75*
G03*
X-8155000Y-2300000I0J-15000D01*
G01*
X-8085000Y-2300000D02*
G75*
G03*
X-8085000Y-2270000I0J15000D01*
G01*
D13*
X-8095000Y-4190000D02*
G75*
G03*
X-8095000Y-4190000I-25000J0D01*
G01*
D11*
X-8085000Y-4175000D02*
X-8155000Y-4175000D01*
X-8085000Y-4205000D02*
X-8155000Y-4205000D01*
X-8155000Y-4175000D02*
G75*
G03*
X-8155000Y-4205000I0J-15000D01*
G01*
X-8085000Y-4205000D02*
G75*
G03*
X-8085000Y-4175000I0J15000D01*
G01*
D13*
X-8095000Y-6095000D02*
G75*
G03*
X-8095000Y-6095000I-25000J0D01*
G01*
D11*
X-8085000Y-6080000D02*
X-8155000Y-6080000D01*
X-8085000Y-6110000D02*
X-8155000Y-6110000D01*
X-8155000Y-6080000D02*
G75*
G03*
X-8155000Y-6110000I0J-15000D01*
G01*
X-8085000Y-6110000D02*
G75*
G03*
X-8085000Y-6080000I0J15000D01*
G01*
D13*
X-8095000Y-8000000D02*
G75*
G03*
X-8095000Y-8000000I-25000J0D01*
G01*
D11*
X-8085000Y-7985000D02*
X-8155000Y-7985000D01*
X-8085000Y-8015000D02*
X-8155000Y-8015000D01*
X-8155000Y-7985000D02*
G75*
G03*
X-8155000Y-8015000I0J-15000D01*
G01*
X-8085000Y-8015000D02*
G75*
G03*
X-8085000Y-7985000I0J15000D01*
G01*
D13*
X-7595000Y-590000D02*
G75*
G03*
X-7595000Y-590000I-25000J0D01*
G01*
D11*
X-7585000Y-575000D02*
X-7655000Y-575000D01*
X-7585000Y-605000D02*
X-7655000Y-605000D01*
X-7655000Y-575000D02*
G75*
G03*
X-7655000Y-605000I0J-15000D01*
G01*
X-7585000Y-605000D02*
G75*
G03*
X-7585000Y-575000I0J15000D01*
G01*
D13*
X-7595000Y-2495000D02*
G75*
G03*
X-7595000Y-2495000I-25000J0D01*
G01*
D11*
X-7585000Y-2480000D02*
X-7655000Y-2480000D01*
X-7585000Y-2510000D02*
X-7655000Y-2510000D01*
X-7655000Y-2480000D02*
G75*
G03*
X-7655000Y-2510000I0J-15000D01*
G01*
X-7585000Y-2510000D02*
G75*
G03*
X-7585000Y-2480000I0J15000D01*
G01*
D13*
X-7595000Y-4400000D02*
G75*
G03*
X-7595000Y-4400000I-25000J0D01*
G01*
D11*
X-7585000Y-4385000D02*
X-7655000Y-4385000D01*
X-7585000Y-4415000D02*
X-7655000Y-4415000D01*
X-7655000Y-4385000D02*
G75*
G03*
X-7655000Y-4415000I0J-15000D01*
G01*
X-7585000Y-4415000D02*
G75*
G03*
X-7585000Y-4385000I0J15000D01*
G01*
D13*
X-7595000Y-6305000D02*
G75*
G03*
X-7595000Y-6305000I-25000J0D01*
G01*
D11*
X-7585000Y-6290000D02*
X-7655000Y-6290000D01*
X-7585000Y-6320000D02*
X-7655000Y-6320000D01*
X-7655000Y-6290000D02*
G75*
G03*
X-7655000Y-6320000I0J-15000D01*
G01*
X-7585000Y-6320000D02*
G75*
G03*
X-7585000Y-6290000I0J15000D01*
G01*
D13*
X-7595000Y-8210000D02*
G75*
G03*
X-7595000Y-8210000I-25000J0D01*
G01*
D11*
X-7585000Y-8195000D02*
X-7655000Y-8195000D01*
X-7585000Y-8225000D02*
X-7655000Y-8225000D01*
X-7655000Y-8195000D02*
G75*
G03*
X-7655000Y-8225000I0J-15000D01*
G01*
X-7585000Y-8225000D02*
G75*
G03*
X-7585000Y-8195000I0J15000D01*
G01*
D13*
X-6190000Y-380000D02*
G75*
G03*
X-6190000Y-380000I-25000J0D01*
G01*
D11*
X-6180000Y-365000D02*
X-6250000Y-365000D01*
X-6180000Y-395000D02*
X-6250000Y-395000D01*
X-6250000Y-365000D02*
G75*
G03*
X-6250000Y-395000I0J-15000D01*
G01*
X-6180000Y-395000D02*
G75*
G03*
X-6180000Y-365000I0J15000D01*
G01*
D13*
X-6190000Y-2285000D02*
G75*
G03*
X-6190000Y-2285000I-25000J0D01*
G01*
D11*
X-6180000Y-2270000D02*
X-6250000Y-2270000D01*
X-6180000Y-2300000D02*
X-6250000Y-2300000D01*
X-6250000Y-2270000D02*
G75*
G03*
X-6250000Y-2300000I0J-15000D01*
G01*
X-6180000Y-2300000D02*
G75*
G03*
X-6180000Y-2270000I0J15000D01*
G01*
D13*
X-6190000Y-4190000D02*
G75*
G03*
X-6190000Y-4190000I-25000J0D01*
G01*
D11*
X-6180000Y-4175000D02*
X-6250000Y-4175000D01*
X-6180000Y-4205000D02*
X-6250000Y-4205000D01*
X-6250000Y-4175000D02*
G75*
G03*
X-6250000Y-4205000I0J-15000D01*
G01*
X-6180000Y-4205000D02*
G75*
G03*
X-6180000Y-4175000I0J15000D01*
G01*
D13*
X-6190000Y-6095000D02*
G75*
G03*
X-6190000Y-6095000I-25000J0D01*
G01*
D11*
X-6180000Y-6080000D02*
X-6250000Y-6080000D01*
X-6180000Y-6110000D02*
X-6250000Y-6110000D01*
X-6250000Y-6080000D02*
G75*
G03*
X-6250000Y-6110000I0J-15000D01*
G01*
X-6180000Y-6110000D02*
G75*
G03*
X-6180000Y-6080000I0J15000D01*
G01*
D13*
X-6190000Y-8000000D02*
G75*
G03*
X-6190000Y-8000000I-25000J0D01*
G01*
D11*
X-6180000Y-7985000D02*
X-6250000Y-7985000D01*
X-6180000Y-8015000D02*
X-6250000Y-8015000D01*
X-6250000Y-7985000D02*
G75*
G03*
X-6250000Y-8015000I0J-15000D01*
G01*
X-6180000Y-8015000D02*
G75*
G03*
X-6180000Y-7985000I0J15000D01*
G01*
D13*
X-5690000Y-590000D02*
G75*
G03*
X-5690000Y-590000I-25000J0D01*
G01*
D11*
X-5680000Y-575000D02*
X-5750000Y-575000D01*
X-5680000Y-605000D02*
X-5750000Y-605000D01*
X-5750000Y-575000D02*
G75*
G03*
X-5750000Y-605000I0J-15000D01*
G01*
X-5680000Y-605000D02*
G75*
G03*
X-5680000Y-575000I0J15000D01*
G01*
D13*
X-5690000Y-2495000D02*
G75*
G03*
X-5690000Y-2495000I-25000J0D01*
G01*
D11*
X-5680000Y-2480000D02*
X-5750000Y-2480000D01*
X-5680000Y-2510000D02*
X-5750000Y-2510000D01*
X-5750000Y-2480000D02*
G75*
G03*
X-5750000Y-2510000I0J-15000D01*
G01*
X-5680000Y-2510000D02*
G75*
G03*
X-5680000Y-2480000I0J15000D01*
G01*
D13*
X-5690000Y-4400000D02*
G75*
G03*
X-5690000Y-4400000I-25000J0D01*
G01*
D11*
X-5680000Y-4385000D02*
X-5750000Y-4385000D01*
X-5680000Y-4415000D02*
X-5750000Y-4415000D01*
X-5750000Y-4385000D02*
G75*
G03*
X-5750000Y-4415000I0J-15000D01*
G01*
X-5680000Y-4415000D02*
G75*
G03*
X-5680000Y-4385000I0J15000D01*
G01*
D13*
X-5690000Y-6305000D02*
G75*
G03*
X-5690000Y-6305000I-25000J0D01*
G01*
D11*
X-5680000Y-6290000D02*
X-5750000Y-6290000D01*
X-5680000Y-6320000D02*
X-5750000Y-6320000D01*
X-5750000Y-6290000D02*
G75*
G03*
X-5750000Y-6320000I0J-15000D01*
G01*
X-5680000Y-6320000D02*
G75*
G03*
X-5680000Y-6290000I0J15000D01*
G01*
D13*
X-5690000Y-8210000D02*
G75*
G03*
X-5690000Y-8210000I-25000J0D01*
G01*
D11*
X-5680000Y-8195000D02*
X-5750000Y-8195000D01*
X-5680000Y-8225000D02*
X-5750000Y-8225000D01*
X-5750000Y-8195000D02*
G75*
G03*
X-5750000Y-8225000I0J-15000D01*
G01*
X-5680000Y-8225000D02*
G75*
G03*
X-5680000Y-8195000I0J15000D01*
G01*
D13*
X-4285000Y-380000D02*
G75*
G03*
X-4285000Y-380000I-25000J0D01*
G01*
D11*
X-4275000Y-365000D02*
X-4345000Y-365000D01*
X-4275000Y-395000D02*
X-4345000Y-395000D01*
X-4345000Y-365000D02*
G75*
G03*
X-4345000Y-395000I0J-15000D01*
G01*
X-4275000Y-395000D02*
G75*
G03*
X-4275000Y-365000I0J15000D01*
G01*
D13*
X-4285000Y-2285000D02*
G75*
G03*
X-4285000Y-2285000I-25000J0D01*
G01*
D11*
X-4275000Y-2270000D02*
X-4345000Y-2270000D01*
X-4275000Y-2300000D02*
X-4345000Y-2300000D01*
X-4345000Y-2270000D02*
G75*
G03*
X-4345000Y-2300000I0J-15000D01*
G01*
X-4275000Y-2300000D02*
G75*
G03*
X-4275000Y-2270000I0J15000D01*
G01*
D13*
X-4285000Y-4190000D02*
G75*
G03*
X-4285000Y-4190000I-25000J0D01*
G01*
D11*
X-4275000Y-4175000D02*
X-4345000Y-4175000D01*
X-4275000Y-4205000D02*
X-4345000Y-4205000D01*
X-4345000Y-4175000D02*
G75*
G03*
X-4345000Y-4205000I0J-15000D01*
G01*
X-4275000Y-4205000D02*
G75*
G03*
X-4275000Y-4175000I0J15000D01*
G01*
D13*
X-4285000Y-6095000D02*
G75*
G03*
X-4285000Y-6095000I-25000J0D01*
G01*
D11*
X-4275000Y-6080000D02*
X-4345000Y-6080000D01*
X-4275000Y-6110000D02*
X-4345000Y-6110000D01*
X-4345000Y-6080000D02*
G75*
G03*
X-4345000Y-6110000I0J-15000D01*
G01*
X-4275000Y-6110000D02*
G75*
G03*
X-4275000Y-6080000I0J15000D01*
G01*
D13*
X-4285000Y-8000000D02*
G75*
G03*
X-4285000Y-8000000I-25000J0D01*
G01*
D11*
X-4275000Y-7985000D02*
X-4345000Y-7985000D01*
X-4275000Y-8015000D02*
X-4345000Y-8015000D01*
X-4345000Y-7985000D02*
G75*
G03*
X-4345000Y-8015000I0J-15000D01*
G01*
X-4275000Y-8015000D02*
G75*
G03*
X-4275000Y-7985000I0J15000D01*
G01*
D13*
X-3785000Y-590000D02*
G75*
G03*
X-3785000Y-590000I-25000J0D01*
G01*
D11*
X-3775000Y-575000D02*
X-3845000Y-575000D01*
X-3775000Y-605000D02*
X-3845000Y-605000D01*
X-3845000Y-575000D02*
G75*
G03*
X-3845000Y-605000I0J-15000D01*
G01*
X-3775000Y-605000D02*
G75*
G03*
X-3775000Y-575000I0J15000D01*
G01*
D13*
X-3785000Y-2495000D02*
G75*
G03*
X-3785000Y-2495000I-25000J0D01*
G01*
D11*
X-3775000Y-2480000D02*
X-3845000Y-2480000D01*
X-3775000Y-2510000D02*
X-3845000Y-2510000D01*
X-3845000Y-2480000D02*
G75*
G03*
X-3845000Y-2510000I0J-15000D01*
G01*
X-3775000Y-2510000D02*
G75*
G03*
X-3775000Y-2480000I0J15000D01*
G01*
D13*
X-3785000Y-4400000D02*
G75*
G03*
X-3785000Y-4400000I-25000J0D01*
G01*
D11*
X-3775000Y-4385000D02*
X-3845000Y-4385000D01*
X-3775000Y-4415000D02*
X-3845000Y-4415000D01*
X-3845000Y-4385000D02*
G75*
G03*
X-3845000Y-4415000I0J-15000D01*
G01*
X-3775000Y-4415000D02*
G75*
G03*
X-3775000Y-4385000I0J15000D01*
G01*
D13*
X-3785000Y-6305000D02*
G75*
G03*
X-3785000Y-6305000I-25000J0D01*
G01*
D11*
X-3775000Y-6290000D02*
X-3845000Y-6290000D01*
X-3775000Y-6320000D02*
X-3845000Y-6320000D01*
X-3845000Y-6290000D02*
G75*
G03*
X-3845000Y-6320000I0J-15000D01*
G01*
X-3775000Y-6320000D02*
G75*
G03*
X-3775000Y-6290000I0J15000D01*
G01*
D13*
X-3785000Y-8210000D02*
G75*
G03*
X-3785000Y-8210000I-25000J0D01*
G01*
D11*
X-3775000Y-8195000D02*
X-3845000Y-8195000D01*
X-3775000Y-8225000D02*
X-3845000Y-8225000D01*
X-3845000Y-8195000D02*
G75*
G03*
X-3845000Y-8225000I0J-15000D01*
G01*
X-3775000Y-8225000D02*
G75*
G03*
X-3775000Y-8195000I0J15000D01*
G01*
D13*
X-2380000Y-380000D02*
G75*
G03*
X-2380000Y-380000I-25000J0D01*
G01*
D11*
X-2370000Y-365000D02*
X-2440000Y-365000D01*
X-2370000Y-395000D02*
X-2440000Y-395000D01*
X-2440000Y-365000D02*
G75*
G03*
X-2440000Y-395000I0J-15000D01*
G01*
X-2370000Y-395000D02*
G75*
G03*
X-2370000Y-365000I0J15000D01*
G01*
D13*
X-2380000Y-2285000D02*
G75*
G03*
X-2380000Y-2285000I-25000J0D01*
G01*
D11*
X-2370000Y-2270000D02*
X-2440000Y-2270000D01*
X-2370000Y-2300000D02*
X-2440000Y-2300000D01*
X-2440000Y-2270000D02*
G75*
G03*
X-2440000Y-2300000I0J-15000D01*
G01*
X-2370000Y-2300000D02*
G75*
G03*
X-2370000Y-2270000I0J15000D01*
G01*
D13*
X-2380000Y-4190000D02*
G75*
G03*
X-2380000Y-4190000I-25000J0D01*
G01*
D11*
X-2370000Y-4175000D02*
X-2440000Y-4175000D01*
X-2370000Y-4205000D02*
X-2440000Y-4205000D01*
X-2440000Y-4175000D02*
G75*
G03*
X-2440000Y-4205000I0J-15000D01*
G01*
X-2370000Y-4205000D02*
G75*
G03*
X-2370000Y-4175000I0J15000D01*
G01*
D13*
X-2380000Y-6095000D02*
G75*
G03*
X-2380000Y-6095000I-25000J0D01*
G01*
D11*
X-2370000Y-6080000D02*
X-2440000Y-6080000D01*
X-2370000Y-6110000D02*
X-2440000Y-6110000D01*
X-2440000Y-6080000D02*
G75*
G03*
X-2440000Y-6110000I0J-15000D01*
G01*
X-2370000Y-6110000D02*
G75*
G03*
X-2370000Y-6080000I0J15000D01*
G01*
D13*
X-2380000Y-8000000D02*
G75*
G03*
X-2380000Y-8000000I-25000J0D01*
G01*
D11*
X-2370000Y-7985000D02*
X-2440000Y-7985000D01*
X-2370000Y-8015000D02*
X-2440000Y-8015000D01*
X-2440000Y-7985000D02*
G75*
G03*
X-2440000Y-8015000I0J-15000D01*
G01*
X-2370000Y-8015000D02*
G75*
G03*
X-2370000Y-7985000I0J15000D01*
G01*
D13*
X-1880000Y-590000D02*
G75*
G03*
X-1880000Y-590000I-25000J0D01*
G01*
D11*
X-1870000Y-575000D02*
X-1940000Y-575000D01*
X-1870000Y-605000D02*
X-1940000Y-605000D01*
X-1940000Y-575000D02*
G75*
G03*
X-1940000Y-605000I0J-15000D01*
G01*
X-1870000Y-605000D02*
G75*
G03*
X-1870000Y-575000I0J15000D01*
G01*
D13*
X-1880000Y-2495000D02*
G75*
G03*
X-1880000Y-2495000I-25000J0D01*
G01*
D11*
X-1870000Y-2480000D02*
X-1940000Y-2480000D01*
X-1870000Y-2510000D02*
X-1940000Y-2510000D01*
X-1940000Y-2480000D02*
G75*
G03*
X-1940000Y-2510000I0J-15000D01*
G01*
X-1870000Y-2510000D02*
G75*
G03*
X-1870000Y-2480000I0J15000D01*
G01*
D13*
X-1880000Y-4400000D02*
G75*
G03*
X-1880000Y-4400000I-25000J0D01*
G01*
D11*
X-1870000Y-4385000D02*
X-1940000Y-4385000D01*
X-1870000Y-4415000D02*
X-1940000Y-4415000D01*
X-1940000Y-4385000D02*
G75*
G03*
X-1940000Y-4415000I0J-15000D01*
G01*
X-1870000Y-4415000D02*
G75*
G03*
X-1870000Y-4385000I0J15000D01*
G01*
D13*
X-1880000Y-6305000D02*
G75*
G03*
X-1880000Y-6305000I-25000J0D01*
G01*
D11*
X-1870000Y-6290000D02*
X-1940000Y-6290000D01*
X-1870000Y-6320000D02*
X-1940000Y-6320000D01*
X-1940000Y-6290000D02*
G75*
G03*
X-1940000Y-6320000I0J-15000D01*
G01*
X-1870000Y-6320000D02*
G75*
G03*
X-1870000Y-6290000I0J15000D01*
G01*
D13*
X-1880000Y-8210000D02*
G75*
G03*
X-1880000Y-8210000I-25000J0D01*
G01*
D11*
X-1870000Y-8195000D02*
X-1940000Y-8195000D01*
X-1870000Y-8225000D02*
X-1940000Y-8225000D01*
X-1940000Y-8195000D02*
G75*
G03*
X-1940000Y-8225000I0J-15000D01*
G01*
X-1870000Y-8225000D02*
G75*
G03*
X-1870000Y-8195000I0J15000D01*
G01*
D13*
X-475000Y-380000D02*
G75*
G03*
X-475000Y-380000I-25000J0D01*
G01*
D11*
X-465000Y-365000D02*
X-535000Y-365000D01*
X-465000Y-395000D02*
X-535000Y-395000D01*
X-535000Y-365000D02*
G75*
G03*
X-535000Y-395000I0J-15000D01*
G01*
X-465000Y-395000D02*
G75*
G03*
X-465000Y-365000I0J15000D01*
G01*
D13*
X-475000Y-2285000D02*
G75*
G03*
X-475000Y-2285000I-25000J0D01*
G01*
D11*
X-465000Y-2270000D02*
X-535000Y-2270000D01*
X-465000Y-2300000D02*
X-535000Y-2300000D01*
X-535000Y-2270000D02*
G75*
G03*
X-535000Y-2300000I0J-15000D01*
G01*
X-465000Y-2300000D02*
G75*
G03*
X-465000Y-2270000I0J15000D01*
G01*
D13*
X-475000Y-4190000D02*
G75*
G03*
X-475000Y-4190000I-25000J0D01*
G01*
D11*
X-465000Y-4175000D02*
X-535000Y-4175000D01*
X-465000Y-4205000D02*
X-535000Y-4205000D01*
X-535000Y-4175000D02*
G75*
G03*
X-535000Y-4205000I0J-15000D01*
G01*
X-465000Y-4205000D02*
G75*
G03*
X-465000Y-4175000I0J15000D01*
G01*
D13*
X-475000Y-6095000D02*
G75*
G03*
X-475000Y-6095000I-25000J0D01*
G01*
D11*
X-465000Y-6080000D02*
X-535000Y-6080000D01*
X-465000Y-6110000D02*
X-535000Y-6110000D01*
X-535000Y-6080000D02*
G75*
G03*
X-535000Y-6110000I0J-15000D01*
G01*
X-465000Y-6110000D02*
G75*
G03*
X-465000Y-6080000I0J15000D01*
G01*
D13*
X-475000Y-8000000D02*
G75*
G03*
X-475000Y-8000000I-25000J0D01*
G01*
D11*
X-465000Y-7985000D02*
X-535000Y-7985000D01*
X-465000Y-8015000D02*
X-535000Y-8015000D01*
X-535000Y-7985000D02*
G75*
G03*
X-535000Y-8015000I0J-15000D01*
G01*
X-465000Y-8015000D02*
G75*
G03*
X-465000Y-7985000I0J15000D01*
G01*
D13*
X25000Y-590000D02*
G75*
G03*
X25000Y-590000I-25000J0D01*
G01*
D11*
X35000Y-575000D02*
X-35000Y-575000D01*
X35000Y-605000D02*
X-35000Y-605000D01*
X-35000Y-575000D02*
G75*
G03*
X-35000Y-605000I0J-15000D01*
G01*
X35000Y-605000D02*
G75*
G03*
X35000Y-575000I0J15000D01*
G01*
D13*
X25000Y-2495000D02*
G75*
G03*
X25000Y-2495000I-25000J0D01*
G01*
D11*
X35000Y-2480000D02*
X-35000Y-2480000D01*
X35000Y-2510000D02*
X-35000Y-2510000D01*
X-35000Y-2480000D02*
G75*
G03*
X-35000Y-2510000I0J-15000D01*
G01*
X35000Y-2510000D02*
G75*
G03*
X35000Y-2480000I0J15000D01*
G01*
D13*
X25000Y-4400000D02*
G75*
G03*
X25000Y-4400000I-25000J0D01*
G01*
D11*
X35000Y-4385000D02*
X-35000Y-4385000D01*
X35000Y-4415000D02*
X-35000Y-4415000D01*
X-35000Y-4385000D02*
G75*
G03*
X-35000Y-4415000I0J-15000D01*
G01*
X35000Y-4415000D02*
G75*
G03*
X35000Y-4385000I0J15000D01*
G01*
D13*
X25000Y-6305000D02*
G75*
G03*
X25000Y-6305000I-25000J0D01*
G01*
D11*
X35000Y-6290000D02*
X-35000Y-6290000D01*
X35000Y-6320000D02*
X-35000Y-6320000D01*
X-35000Y-6290000D02*
G75*
G03*
X-35000Y-6320000I0J-15000D01*
G01*
X35000Y-6320000D02*
G75*
G03*
X35000Y-6290000I0J15000D01*
G01*
D13*
X25000Y-8210000D02*
G75*
G03*
X25000Y-8210000I-25000J0D01*
G01*
D11*
X35000Y-8195000D02*
X-35000Y-8195000D01*
X35000Y-8225000D02*
X-35000Y-8225000D01*
X-35000Y-8195000D02*
G75*
G03*
X-35000Y-8225000I0J-15000D01*
G01*
X35000Y-8225000D02*
G75*
G03*
X35000Y-8195000I0J15000D01*
G01*
D14*
X-9779000Y-468000D02*
X-9779000Y-548000D01*
X-9819000Y-508000D02*
X-9739000Y-508000D01*
D11*
X-9799000Y-538000D02*
X-9759000Y-538000D01*
X-9799000Y-478000D02*
X-9759000Y-478000D01*
X-9759000Y-538000D02*
G75*
G03*
X-9759000Y-478000I0J30000D01*
G01*
X-9799000Y-478000D02*
G75*
G03*
X-9799000Y-538000I0J-30000D01*
G01*
D14*
X-9779000Y-2373000D02*
X-9779000Y-2453000D01*
X-9819000Y-2413000D02*
X-9739000Y-2413000D01*
D11*
X-9799000Y-2443000D02*
X-9759000Y-2443000D01*
X-9799000Y-2383000D02*
X-9759000Y-2383000D01*
X-9759000Y-2443000D02*
G75*
G03*
X-9759000Y-2383000I0J30000D01*
G01*
X-9799000Y-2383000D02*
G75*
G03*
X-9799000Y-2443000I0J-30000D01*
G01*
D14*
X-9779000Y-4278000D02*
X-9779000Y-4358000D01*
X-9819000Y-4318000D02*
X-9739000Y-4318000D01*
D11*
X-9799000Y-4348000D02*
X-9759000Y-4348000D01*
X-9799000Y-4288000D02*
X-9759000Y-4288000D01*
X-9759000Y-4348000D02*
G75*
G03*
X-9759000Y-4288000I0J30000D01*
G01*
X-9799000Y-4288000D02*
G75*
G03*
X-9799000Y-4348000I0J-30000D01*
G01*
D14*
X-9779000Y-6183000D02*
X-9779000Y-6263000D01*
X-9819000Y-6223000D02*
X-9739000Y-6223000D01*
D11*
X-9799000Y-6253000D02*
X-9759000Y-6253000D01*
X-9799000Y-6193000D02*
X-9759000Y-6193000D01*
X-9759000Y-6253000D02*
G75*
G03*
X-9759000Y-6193000I0J30000D01*
G01*
X-9799000Y-6193000D02*
G75*
G03*
X-9799000Y-6253000I0J-30000D01*
G01*
D14*
X-9779000Y-8088000D02*
X-9779000Y-8168000D01*
X-9819000Y-8128000D02*
X-9739000Y-8128000D01*
D11*
X-9799000Y-8158000D02*
X-9759000Y-8158000D01*
X-9799000Y-8098000D02*
X-9759000Y-8098000D01*
X-9759000Y-8158000D02*
G75*
G03*
X-9759000Y-8098000I0J30000D01*
G01*
X-9799000Y-8098000D02*
G75*
G03*
X-9799000Y-8158000I0J-30000D01*
G01*
D14*
X-9144000Y-214000D02*
X-9144000Y-294000D01*
X-9184000Y-254000D02*
X-9104000Y-254000D01*
D11*
X-9164000Y-284000D02*
X-9124000Y-284000D01*
X-9164000Y-224000D02*
X-9124000Y-224000D01*
X-9124000Y-284000D02*
G75*
G03*
X-9124000Y-224000I0J30000D01*
G01*
X-9164000Y-224000D02*
G75*
G03*
X-9164000Y-284000I0J-30000D01*
G01*
D14*
X-9144000Y-2119000D02*
X-9144000Y-2199000D01*
X-9184000Y-2159000D02*
X-9104000Y-2159000D01*
D11*
X-9164000Y-2189000D02*
X-9124000Y-2189000D01*
X-9164000Y-2129000D02*
X-9124000Y-2129000D01*
X-9124000Y-2189000D02*
G75*
G03*
X-9124000Y-2129000I0J30000D01*
G01*
X-9164000Y-2129000D02*
G75*
G03*
X-9164000Y-2189000I0J-30000D01*
G01*
D14*
X-9144000Y-4024000D02*
X-9144000Y-4104000D01*
X-9184000Y-4064000D02*
X-9104000Y-4064000D01*
D11*
X-9164000Y-4094000D02*
X-9124000Y-4094000D01*
X-9164000Y-4034000D02*
X-9124000Y-4034000D01*
X-9124000Y-4094000D02*
G75*
G03*
X-9124000Y-4034000I0J30000D01*
G01*
X-9164000Y-4034000D02*
G75*
G03*
X-9164000Y-4094000I0J-30000D01*
G01*
D14*
X-9144000Y-5929000D02*
X-9144000Y-6009000D01*
X-9184000Y-5969000D02*
X-9104000Y-5969000D01*
D11*
X-9164000Y-5999000D02*
X-9124000Y-5999000D01*
X-9164000Y-5939000D02*
X-9124000Y-5939000D01*
X-9124000Y-5999000D02*
G75*
G03*
X-9124000Y-5939000I0J30000D01*
G01*
X-9164000Y-5939000D02*
G75*
G03*
X-9164000Y-5999000I0J-30000D01*
G01*
D14*
X-9144000Y-7834000D02*
X-9144000Y-7914000D01*
X-9184000Y-7874000D02*
X-9104000Y-7874000D01*
D11*
X-9164000Y-7904000D02*
X-9124000Y-7904000D01*
X-9164000Y-7844000D02*
X-9124000Y-7844000D01*
X-9124000Y-7904000D02*
G75*
G03*
X-9124000Y-7844000I0J30000D01*
G01*
X-9164000Y-7844000D02*
G75*
G03*
X-9164000Y-7904000I0J-30000D01*
G01*
D14*
X-7874000Y-468000D02*
X-7874000Y-548000D01*
X-7914000Y-508000D02*
X-7834000Y-508000D01*
D11*
X-7894000Y-538000D02*
X-7854000Y-538000D01*
X-7894000Y-478000D02*
X-7854000Y-478000D01*
X-7854000Y-538000D02*
G75*
G03*
X-7854000Y-478000I0J30000D01*
G01*
X-7894000Y-478000D02*
G75*
G03*
X-7894000Y-538000I0J-30000D01*
G01*
D14*
X-7874000Y-2373000D02*
X-7874000Y-2453000D01*
X-7914000Y-2413000D02*
X-7834000Y-2413000D01*
D11*
X-7894000Y-2443000D02*
X-7854000Y-2443000D01*
X-7894000Y-2383000D02*
X-7854000Y-2383000D01*
X-7854000Y-2443000D02*
G75*
G03*
X-7854000Y-2383000I0J30000D01*
G01*
X-7894000Y-2383000D02*
G75*
G03*
X-7894000Y-2443000I0J-30000D01*
G01*
D14*
X-7874000Y-4278000D02*
X-7874000Y-4358000D01*
X-7914000Y-4318000D02*
X-7834000Y-4318000D01*
D11*
X-7894000Y-4348000D02*
X-7854000Y-4348000D01*
X-7894000Y-4288000D02*
X-7854000Y-4288000D01*
X-7854000Y-4348000D02*
G75*
G03*
X-7854000Y-4288000I0J30000D01*
G01*
X-7894000Y-4288000D02*
G75*
G03*
X-7894000Y-4348000I0J-30000D01*
G01*
D14*
X-7874000Y-6183000D02*
X-7874000Y-6263000D01*
X-7914000Y-6223000D02*
X-7834000Y-6223000D01*
D11*
X-7894000Y-6253000D02*
X-7854000Y-6253000D01*
X-7894000Y-6193000D02*
X-7854000Y-6193000D01*
X-7854000Y-6253000D02*
G75*
G03*
X-7854000Y-6193000I0J30000D01*
G01*
X-7894000Y-6193000D02*
G75*
G03*
X-7894000Y-6253000I0J-30000D01*
G01*
D14*
X-7874000Y-8088000D02*
X-7874000Y-8168000D01*
X-7914000Y-8128000D02*
X-7834000Y-8128000D01*
D11*
X-7894000Y-8158000D02*
X-7854000Y-8158000D01*
X-7894000Y-8098000D02*
X-7854000Y-8098000D01*
X-7854000Y-8158000D02*
G75*
G03*
X-7854000Y-8098000I0J30000D01*
G01*
X-7894000Y-8098000D02*
G75*
G03*
X-7894000Y-8158000I0J-30000D01*
G01*
D14*
X-7239000Y-214000D02*
X-7239000Y-294000D01*
X-7279000Y-254000D02*
X-7199000Y-254000D01*
D11*
X-7259000Y-284000D02*
X-7219000Y-284000D01*
X-7259000Y-224000D02*
X-7219000Y-224000D01*
X-7219000Y-284000D02*
G75*
G03*
X-7219000Y-224000I0J30000D01*
G01*
X-7259000Y-224000D02*
G75*
G03*
X-7259000Y-284000I0J-30000D01*
G01*
D14*
X-7239000Y-2119000D02*
X-7239000Y-2199000D01*
X-7279000Y-2159000D02*
X-7199000Y-2159000D01*
D11*
X-7259000Y-2189000D02*
X-7219000Y-2189000D01*
X-7259000Y-2129000D02*
X-7219000Y-2129000D01*
X-7219000Y-2189000D02*
G75*
G03*
X-7219000Y-2129000I0J30000D01*
G01*
X-7259000Y-2129000D02*
G75*
G03*
X-7259000Y-2189000I0J-30000D01*
G01*
D14*
X-7239000Y-4024000D02*
X-7239000Y-4104000D01*
X-7279000Y-4064000D02*
X-7199000Y-4064000D01*
D11*
X-7259000Y-4094000D02*
X-7219000Y-4094000D01*
X-7259000Y-4034000D02*
X-7219000Y-4034000D01*
X-7219000Y-4094000D02*
G75*
G03*
X-7219000Y-4034000I0J30000D01*
G01*
X-7259000Y-4034000D02*
G75*
G03*
X-7259000Y-4094000I0J-30000D01*
G01*
D14*
X-7239000Y-5929000D02*
X-7239000Y-6009000D01*
X-7279000Y-5969000D02*
X-7199000Y-5969000D01*
D11*
X-7259000Y-5999000D02*
X-7219000Y-5999000D01*
X-7259000Y-5939000D02*
X-7219000Y-5939000D01*
X-7219000Y-5999000D02*
G75*
G03*
X-7219000Y-5939000I0J30000D01*
G01*
X-7259000Y-5939000D02*
G75*
G03*
X-7259000Y-5999000I0J-30000D01*
G01*
D14*
X-7239000Y-7834000D02*
X-7239000Y-7914000D01*
X-7279000Y-7874000D02*
X-7199000Y-7874000D01*
D11*
X-7259000Y-7904000D02*
X-7219000Y-7904000D01*
X-7259000Y-7844000D02*
X-7219000Y-7844000D01*
X-7219000Y-7904000D02*
G75*
G03*
X-7219000Y-7844000I0J30000D01*
G01*
X-7259000Y-7844000D02*
G75*
G03*
X-7259000Y-7904000I0J-30000D01*
G01*
D14*
X-5969000Y-468000D02*
X-5969000Y-548000D01*
X-6009000Y-508000D02*
X-5929000Y-508000D01*
D11*
X-5989000Y-538000D02*
X-5949000Y-538000D01*
X-5989000Y-478000D02*
X-5949000Y-478000D01*
X-5949000Y-538000D02*
G75*
G03*
X-5949000Y-478000I0J30000D01*
G01*
X-5989000Y-478000D02*
G75*
G03*
X-5989000Y-538000I0J-30000D01*
G01*
D14*
X-5969000Y-2373000D02*
X-5969000Y-2453000D01*
X-6009000Y-2413000D02*
X-5929000Y-2413000D01*
D11*
X-5989000Y-2443000D02*
X-5949000Y-2443000D01*
X-5989000Y-2383000D02*
X-5949000Y-2383000D01*
X-5949000Y-2443000D02*
G75*
G03*
X-5949000Y-2383000I0J30000D01*
G01*
X-5989000Y-2383000D02*
G75*
G03*
X-5989000Y-2443000I0J-30000D01*
G01*
D14*
X-5969000Y-4278000D02*
X-5969000Y-4358000D01*
X-6009000Y-4318000D02*
X-5929000Y-4318000D01*
D11*
X-5989000Y-4348000D02*
X-5949000Y-4348000D01*
X-5989000Y-4288000D02*
X-5949000Y-4288000D01*
X-5949000Y-4348000D02*
G75*
G03*
X-5949000Y-4288000I0J30000D01*
G01*
X-5989000Y-4288000D02*
G75*
G03*
X-5989000Y-4348000I0J-30000D01*
G01*
D14*
X-5969000Y-6183000D02*
X-5969000Y-6263000D01*
X-6009000Y-6223000D02*
X-5929000Y-6223000D01*
D11*
X-5989000Y-6253000D02*
X-5949000Y-6253000D01*
X-5989000Y-6193000D02*
X-5949000Y-6193000D01*
X-5949000Y-6253000D02*
G75*
G03*
X-5949000Y-6193000I0J30000D01*
G01*
X-5989000Y-6193000D02*
G75*
G03*
X-5989000Y-6253000I0J-30000D01*
G01*
D14*
X-5969000Y-8088000D02*
X-5969000Y-8168000D01*
X-6009000Y-8128000D02*
X-5929000Y-8128000D01*
D11*
X-5989000Y-8158000D02*
X-5949000Y-8158000D01*
X-5989000Y-8098000D02*
X-5949000Y-8098000D01*
X-5949000Y-8158000D02*
G75*
G03*
X-5949000Y-8098000I0J30000D01*
G01*
X-5989000Y-8098000D02*
G75*
G03*
X-5989000Y-8158000I0J-30000D01*
G01*
D14*
X-5334000Y-214000D02*
X-5334000Y-294000D01*
X-5374000Y-254000D02*
X-5294000Y-254000D01*
D11*
X-5354000Y-284000D02*
X-5314000Y-284000D01*
X-5354000Y-224000D02*
X-5314000Y-224000D01*
X-5314000Y-284000D02*
G75*
G03*
X-5314000Y-224000I0J30000D01*
G01*
X-5354000Y-224000D02*
G75*
G03*
X-5354000Y-284000I0J-30000D01*
G01*
D14*
X-5334000Y-2119000D02*
X-5334000Y-2199000D01*
X-5374000Y-2159000D02*
X-5294000Y-2159000D01*
D11*
X-5354000Y-2189000D02*
X-5314000Y-2189000D01*
X-5354000Y-2129000D02*
X-5314000Y-2129000D01*
X-5314000Y-2189000D02*
G75*
G03*
X-5314000Y-2129000I0J30000D01*
G01*
X-5354000Y-2129000D02*
G75*
G03*
X-5354000Y-2189000I0J-30000D01*
G01*
D14*
X-5334000Y-4024000D02*
X-5334000Y-4104000D01*
X-5374000Y-4064000D02*
X-5294000Y-4064000D01*
D11*
X-5354000Y-4094000D02*
X-5314000Y-4094000D01*
X-5354000Y-4034000D02*
X-5314000Y-4034000D01*
X-5314000Y-4094000D02*
G75*
G03*
X-5314000Y-4034000I0J30000D01*
G01*
X-5354000Y-4034000D02*
G75*
G03*
X-5354000Y-4094000I0J-30000D01*
G01*
D14*
X-5334000Y-5929000D02*
X-5334000Y-6009000D01*
X-5374000Y-5969000D02*
X-5294000Y-5969000D01*
D11*
X-5354000Y-5999000D02*
X-5314000Y-5999000D01*
X-5354000Y-5939000D02*
X-5314000Y-5939000D01*
X-5314000Y-5999000D02*
G75*
G03*
X-5314000Y-5939000I0J30000D01*
G01*
X-5354000Y-5939000D02*
G75*
G03*
X-5354000Y-5999000I0J-30000D01*
G01*
D14*
X-5334000Y-7834000D02*
X-5334000Y-7914000D01*
X-5374000Y-7874000D02*
X-5294000Y-7874000D01*
D11*
X-5354000Y-7904000D02*
X-5314000Y-7904000D01*
X-5354000Y-7844000D02*
X-5314000Y-7844000D01*
X-5314000Y-7904000D02*
G75*
G03*
X-5314000Y-7844000I0J30000D01*
G01*
X-5354000Y-7844000D02*
G75*
G03*
X-5354000Y-7904000I0J-30000D01*
G01*
D14*
X-4064000Y-468000D02*
X-4064000Y-548000D01*
X-4104000Y-508000D02*
X-4024000Y-508000D01*
D11*
X-4084000Y-538000D02*
X-4044000Y-538000D01*
X-4084000Y-478000D02*
X-4044000Y-478000D01*
X-4044000Y-538000D02*
G75*
G03*
X-4044000Y-478000I0J30000D01*
G01*
X-4084000Y-478000D02*
G75*
G03*
X-4084000Y-538000I0J-30000D01*
G01*
D14*
X-4064000Y-2373000D02*
X-4064000Y-2453000D01*
X-4104000Y-2413000D02*
X-4024000Y-2413000D01*
D11*
X-4084000Y-2443000D02*
X-4044000Y-2443000D01*
X-4084000Y-2383000D02*
X-4044000Y-2383000D01*
X-4044000Y-2443000D02*
G75*
G03*
X-4044000Y-2383000I0J30000D01*
G01*
X-4084000Y-2383000D02*
G75*
G03*
X-4084000Y-2443000I0J-30000D01*
G01*
D14*
X-4064000Y-4278000D02*
X-4064000Y-4358000D01*
X-4104000Y-4318000D02*
X-4024000Y-4318000D01*
D11*
X-4084000Y-4348000D02*
X-4044000Y-4348000D01*
X-4084000Y-4288000D02*
X-4044000Y-4288000D01*
X-4044000Y-4348000D02*
G75*
G03*
X-4044000Y-4288000I0J30000D01*
G01*
X-4084000Y-4288000D02*
G75*
G03*
X-4084000Y-4348000I0J-30000D01*
G01*
D14*
X-4064000Y-6183000D02*
X-4064000Y-6263000D01*
X-4104000Y-6223000D02*
X-4024000Y-6223000D01*
D11*
X-4084000Y-6253000D02*
X-4044000Y-6253000D01*
X-4084000Y-6193000D02*
X-4044000Y-6193000D01*
X-4044000Y-6253000D02*
G75*
G03*
X-4044000Y-6193000I0J30000D01*
G01*
X-4084000Y-6193000D02*
G75*
G03*
X-4084000Y-6253000I0J-30000D01*
G01*
D14*
X-4064000Y-8088000D02*
X-4064000Y-8168000D01*
X-4104000Y-8128000D02*
X-4024000Y-8128000D01*
D11*
X-4084000Y-8158000D02*
X-4044000Y-8158000D01*
X-4084000Y-8098000D02*
X-4044000Y-8098000D01*
X-4044000Y-8158000D02*
G75*
G03*
X-4044000Y-8098000I0J30000D01*
G01*
X-4084000Y-8098000D02*
G75*
G03*
X-4084000Y-8158000I0J-30000D01*
G01*
D14*
X-3429000Y-214000D02*
X-3429000Y-294000D01*
X-3469000Y-254000D02*
X-3389000Y-254000D01*
D11*
X-3449000Y-284000D02*
X-3409000Y-284000D01*
X-3449000Y-224000D02*
X-3409000Y-224000D01*
X-3409000Y-284000D02*
G75*
G03*
X-3409000Y-224000I0J30000D01*
G01*
X-3449000Y-224000D02*
G75*
G03*
X-3449000Y-284000I0J-30000D01*
G01*
D14*
X-3429000Y-2119000D02*
X-3429000Y-2199000D01*
X-3469000Y-2159000D02*
X-3389000Y-2159000D01*
D11*
X-3449000Y-2189000D02*
X-3409000Y-2189000D01*
X-3449000Y-2129000D02*
X-3409000Y-2129000D01*
X-3409000Y-2189000D02*
G75*
G03*
X-3409000Y-2129000I0J30000D01*
G01*
X-3449000Y-2129000D02*
G75*
G03*
X-3449000Y-2189000I0J-30000D01*
G01*
D14*
X-3429000Y-4024000D02*
X-3429000Y-4104000D01*
X-3469000Y-4064000D02*
X-3389000Y-4064000D01*
D11*
X-3449000Y-4094000D02*
X-3409000Y-4094000D01*
X-3449000Y-4034000D02*
X-3409000Y-4034000D01*
X-3409000Y-4094000D02*
G75*
G03*
X-3409000Y-4034000I0J30000D01*
G01*
X-3449000Y-4034000D02*
G75*
G03*
X-3449000Y-4094000I0J-30000D01*
G01*
D14*
X-3429000Y-5929000D02*
X-3429000Y-6009000D01*
X-3469000Y-5969000D02*
X-3389000Y-5969000D01*
D11*
X-3449000Y-5999000D02*
X-3409000Y-5999000D01*
X-3449000Y-5939000D02*
X-3409000Y-5939000D01*
X-3409000Y-5999000D02*
G75*
G03*
X-3409000Y-5939000I0J30000D01*
G01*
X-3449000Y-5939000D02*
G75*
G03*
X-3449000Y-5999000I0J-30000D01*
G01*
D14*
X-3429000Y-7834000D02*
X-3429000Y-7914000D01*
X-3469000Y-7874000D02*
X-3389000Y-7874000D01*
D11*
X-3449000Y-7904000D02*
X-3409000Y-7904000D01*
X-3449000Y-7844000D02*
X-3409000Y-7844000D01*
X-3409000Y-7904000D02*
G75*
G03*
X-3409000Y-7844000I0J30000D01*
G01*
X-3449000Y-7844000D02*
G75*
G03*
X-3449000Y-7904000I0J-30000D01*
G01*
D14*
X-2159000Y-468000D02*
X-2159000Y-548000D01*
X-2199000Y-508000D02*
X-2119000Y-508000D01*
D11*
X-2179000Y-538000D02*
X-2139000Y-538000D01*
X-2179000Y-478000D02*
X-2139000Y-478000D01*
X-2139000Y-538000D02*
G75*
G03*
X-2139000Y-478000I0J30000D01*
G01*
X-2179000Y-478000D02*
G75*
G03*
X-2179000Y-538000I0J-30000D01*
G01*
D14*
X-2159000Y-2373000D02*
X-2159000Y-2453000D01*
X-2199000Y-2413000D02*
X-2119000Y-2413000D01*
D11*
X-2179000Y-2443000D02*
X-2139000Y-2443000D01*
X-2179000Y-2383000D02*
X-2139000Y-2383000D01*
X-2139000Y-2443000D02*
G75*
G03*
X-2139000Y-2383000I0J30000D01*
G01*
X-2179000Y-2383000D02*
G75*
G03*
X-2179000Y-2443000I0J-30000D01*
G01*
D14*
X-2159000Y-4278000D02*
X-2159000Y-4358000D01*
X-2199000Y-4318000D02*
X-2119000Y-4318000D01*
D11*
X-2179000Y-4348000D02*
X-2139000Y-4348000D01*
X-2179000Y-4288000D02*
X-2139000Y-4288000D01*
X-2139000Y-4348000D02*
G75*
G03*
X-2139000Y-4288000I0J30000D01*
G01*
X-2179000Y-4288000D02*
G75*
G03*
X-2179000Y-4348000I0J-30000D01*
G01*
D14*
X-2159000Y-6183000D02*
X-2159000Y-6263000D01*
X-2199000Y-6223000D02*
X-2119000Y-6223000D01*
D11*
X-2179000Y-6253000D02*
X-2139000Y-6253000D01*
X-2179000Y-6193000D02*
X-2139000Y-6193000D01*
X-2139000Y-6253000D02*
G75*
G03*
X-2139000Y-6193000I0J30000D01*
G01*
X-2179000Y-6193000D02*
G75*
G03*
X-2179000Y-6253000I0J-30000D01*
G01*
D14*
X-2159000Y-8088000D02*
X-2159000Y-8168000D01*
X-2199000Y-8128000D02*
X-2119000Y-8128000D01*
D11*
X-2179000Y-8158000D02*
X-2139000Y-8158000D01*
X-2179000Y-8098000D02*
X-2139000Y-8098000D01*
X-2139000Y-8158000D02*
G75*
G03*
X-2139000Y-8098000I0J30000D01*
G01*
X-2179000Y-8098000D02*
G75*
G03*
X-2179000Y-8158000I0J-30000D01*
G01*
D14*
X-1524000Y-214000D02*
X-1524000Y-294000D01*
X-1564000Y-254000D02*
X-1484000Y-254000D01*
D11*
X-1544000Y-284000D02*
X-1504000Y-284000D01*
X-1544000Y-224000D02*
X-1504000Y-224000D01*
X-1504000Y-284000D02*
G75*
G03*
X-1504000Y-224000I0J30000D01*
G01*
X-1544000Y-224000D02*
G75*
G03*
X-1544000Y-284000I0J-30000D01*
G01*
D14*
X-1524000Y-2119000D02*
X-1524000Y-2199000D01*
X-1564000Y-2159000D02*
X-1484000Y-2159000D01*
D11*
X-1544000Y-2189000D02*
X-1504000Y-2189000D01*
X-1544000Y-2129000D02*
X-1504000Y-2129000D01*
X-1504000Y-2189000D02*
G75*
G03*
X-1504000Y-2129000I0J30000D01*
G01*
X-1544000Y-2129000D02*
G75*
G03*
X-1544000Y-2189000I0J-30000D01*
G01*
D14*
X-1524000Y-4024000D02*
X-1524000Y-4104000D01*
X-1564000Y-4064000D02*
X-1484000Y-4064000D01*
D11*
X-1544000Y-4094000D02*
X-1504000Y-4094000D01*
X-1544000Y-4034000D02*
X-1504000Y-4034000D01*
X-1504000Y-4094000D02*
G75*
G03*
X-1504000Y-4034000I0J30000D01*
G01*
X-1544000Y-4034000D02*
G75*
G03*
X-1544000Y-4094000I0J-30000D01*
G01*
D14*
X-1524000Y-5929000D02*
X-1524000Y-6009000D01*
X-1564000Y-5969000D02*
X-1484000Y-5969000D01*
D11*
X-1544000Y-5999000D02*
X-1504000Y-5999000D01*
X-1544000Y-5939000D02*
X-1504000Y-5939000D01*
X-1504000Y-5999000D02*
G75*
G03*
X-1504000Y-5939000I0J30000D01*
G01*
X-1544000Y-5939000D02*
G75*
G03*
X-1544000Y-5999000I0J-30000D01*
G01*
D14*
X-1524000Y-7834000D02*
X-1524000Y-7914000D01*
X-1564000Y-7874000D02*
X-1484000Y-7874000D01*
D11*
X-1544000Y-7904000D02*
X-1504000Y-7904000D01*
X-1544000Y-7844000D02*
X-1504000Y-7844000D01*
X-1504000Y-7904000D02*
G75*
G03*
X-1504000Y-7844000I0J30000D01*
G01*
X-1544000Y-7844000D02*
G75*
G03*
X-1544000Y-7904000I0J-30000D01*
G01*
D14*
X-254000Y-468000D02*
X-254000Y-548000D01*
X-294000Y-508000D02*
X-214000Y-508000D01*
D11*
X-274000Y-538000D02*
X-234000Y-538000D01*
X-274000Y-478000D02*
X-234000Y-478000D01*
X-234000Y-538000D02*
G75*
G03*
X-234000Y-478000I0J30000D01*
G01*
X-274000Y-478000D02*
G75*
G03*
X-274000Y-538000I0J-30000D01*
G01*
D14*
X-254000Y-2373000D02*
X-254000Y-2453000D01*
X-294000Y-2413000D02*
X-214000Y-2413000D01*
D11*
X-274000Y-2443000D02*
X-234000Y-2443000D01*
X-274000Y-2383000D02*
X-234000Y-2383000D01*
X-234000Y-2443000D02*
G75*
G03*
X-234000Y-2383000I0J30000D01*
G01*
X-274000Y-2383000D02*
G75*
G03*
X-274000Y-2443000I0J-30000D01*
G01*
D14*
X-254000Y-4278000D02*
X-254000Y-4358000D01*
X-294000Y-4318000D02*
X-214000Y-4318000D01*
D11*
X-274000Y-4348000D02*
X-234000Y-4348000D01*
X-274000Y-4288000D02*
X-234000Y-4288000D01*
X-234000Y-4348000D02*
G75*
G03*
X-234000Y-4288000I0J30000D01*
G01*
X-274000Y-4288000D02*
G75*
G03*
X-274000Y-4348000I0J-30000D01*
G01*
D14*
X-254000Y-6183000D02*
X-254000Y-6263000D01*
X-294000Y-6223000D02*
X-214000Y-6223000D01*
D11*
X-274000Y-6253000D02*
X-234000Y-6253000D01*
X-274000Y-6193000D02*
X-234000Y-6193000D01*
X-234000Y-6253000D02*
G75*
G03*
X-234000Y-6193000I0J30000D01*
G01*
X-274000Y-6193000D02*
G75*
G03*
X-274000Y-6253000I0J-30000D01*
G01*
D14*
X-254000Y-8088000D02*
X-254000Y-8168000D01*
X-294000Y-8128000D02*
X-214000Y-8128000D01*
D11*
X-274000Y-8158000D02*
X-234000Y-8158000D01*
X-274000Y-8098000D02*
X-234000Y-8098000D01*
X-234000Y-8158000D02*
G75*
G03*
X-234000Y-8098000I0J30000D01*
G01*
X-274000Y-8098000D02*
G75*
G03*
X-274000Y-8158000I0J-30000D01*
G01*
D14*
X381000Y-214000D02*
X381000Y-294000D01*
X341000Y-254000D02*
X421000Y-254000D01*
D11*
X361000Y-284000D02*
X401000Y-284000D01*
X361000Y-224000D02*
X401000Y-224000D01*
X401000Y-284000D02*
G75*
G03*
X401000Y-224000I0J30000D01*
G01*
X361000Y-224000D02*
G75*
G03*
X361000Y-284000I0J-30000D01*
G01*
D14*
X381000Y-2119000D02*
X381000Y-2199000D01*
X341000Y-2159000D02*
X421000Y-2159000D01*
D11*
X361000Y-2189000D02*
X401000Y-2189000D01*
X361000Y-2129000D02*
X401000Y-2129000D01*
X401000Y-2189000D02*
G75*
G03*
X401000Y-2129000I0J30000D01*
G01*
X361000Y-2129000D02*
G75*
G03*
X361000Y-2189000I0J-30000D01*
G01*
D14*
X381000Y-4024000D02*
X381000Y-4104000D01*
X341000Y-4064000D02*
X421000Y-4064000D01*
D11*
X361000Y-4094000D02*
X401000Y-4094000D01*
X361000Y-4034000D02*
X401000Y-4034000D01*
X401000Y-4094000D02*
G75*
G03*
X401000Y-4034000I0J30000D01*
G01*
X361000Y-4034000D02*
G75*
G03*
X361000Y-4094000I0J-30000D01*
G01*
D14*
X381000Y-5929000D02*
X381000Y-6009000D01*
X341000Y-5969000D02*
X421000Y-5969000D01*
D11*
X361000Y-5999000D02*
X401000Y-5999000D01*
X361000Y-5939000D02*
X401000Y-5939000D01*
X401000Y-5999000D02*
G75*
G03*
X401000Y-5939000I0J30000D01*
G01*
X361000Y-5939000D02*
G75*
G03*
X361000Y-5999000I0J-30000D01*
G01*
D14*
X381000Y-7834000D02*
X381000Y-7914000D01*
X341000Y-7874000D02*
X421000Y-7874000D01*
D11*
X361000Y-7904000D02*
X401000Y-7904000D01*
X361000Y-7844000D02*
X401000Y-7844000D01*
X401000Y-7904000D02*
G75*
G03*
X401000Y-7844000I0J30000D01*
G01*
X361000Y-7844000D02*
G75*
G03*
X361000Y-7904000I0J-30000D01*
G01*
D15*
X-5489144Y1806144D02*
X-5489144Y1876856D01*
X-5559856Y1876856D01*
X-5559856Y1806144D01*
X-5489144Y1806144D01*
X-5489144Y1552144D02*
X-5489144Y1622856D01*
X-5559856Y1622856D01*
X-5559856Y1552144D01*
X-5489144Y1552144D01*
X-5235144Y1806144D02*
X-5235144Y1876856D01*
X-5305856Y1876856D01*
X-5305856Y1806144D01*
X-5235144Y1806144D01*
X-5235144Y1552144D02*
X-5235144Y1622856D01*
X-5305856Y1622856D01*
X-5305856Y1552144D01*
X-5235144Y1552144D01*
X-4981144Y1806144D02*
X-4981144Y1876856D01*
X-5051856Y1876856D01*
X-5051856Y1806144D01*
X-4981144Y1806144D01*
X-4981144Y1552144D02*
X-4981144Y1622856D01*
X-5051856Y1622856D01*
X-5051856Y1552144D01*
X-4981144Y1552144D01*
X-4727144Y1806144D02*
X-4727144Y1876856D01*
X-4797856Y1876856D01*
X-4797856Y1806144D01*
X-4727144Y1806144D01*
X-4727144Y1552144D02*
X-4727144Y1622856D01*
X-4797856Y1622856D01*
X-4797856Y1552144D01*
X-4727144Y1552144D01*
X-4473144Y1806144D02*
X-4473144Y1876856D01*
X-4543856Y1876856D01*
X-4543856Y1806144D01*
X-4473144Y1806144D01*
X-4473144Y1552144D02*
X-4473144Y1622856D01*
X-4543856Y1622856D01*
X-4543856Y1552144D01*
X-4473144Y1552144D01*
X-4219144Y1806144D02*
X-4219144Y1876856D01*
X-4289856Y1876856D01*
X-4289856Y1806144D01*
X-4219144Y1806144D01*
X-4219144Y1552144D02*
X-4219144Y1622856D01*
X-4289856Y1622856D01*
X-4289856Y1552144D01*
X-4219144Y1552144D01*
X-3965144Y1806144D02*
X-3965144Y1876856D01*
X-4035856Y1876856D01*
X-4035856Y1806144D01*
X-3965144Y1806144D01*
X-3965144Y1552144D02*
X-3965144Y1622856D01*
X-4035856Y1622856D01*
X-4035856Y1552144D01*
X-3965144Y1552144D01*
D11*
X-10479881Y-9142976D02*
X-10479881Y-8942976D01*
X-10432262Y-8942976D01*
X-10403691Y-8952500D01*
X-10384643Y-8971548D01*
X-10375119Y-8990595D01*
X-10365595Y-9028690D01*
X-10365595Y-9057262D01*
X-10375119Y-9095357D01*
X-10384643Y-9114405D01*
X-10403691Y-9133452D01*
X-10432262Y-9142976D01*
X-10479881Y-9142976D01*
X-10279881Y-9142976D02*
X-10279881Y-9009643D01*
X-10279881Y-9047738D02*
X-10270357Y-9028690D01*
X-10260833Y-9019167D01*
X-10241786Y-9009643D01*
X-10222738Y-9009643D01*
X-10156072Y-9142976D02*
X-10156072Y-9009643D01*
X-10156072Y-8942976D02*
X-10165595Y-8952500D01*
X-10156072Y-8962024D01*
X-10146548Y-8952500D01*
X-10156072Y-8942976D01*
X-10156072Y-8962024D01*
X-10032262Y-9142976D02*
X-10051310Y-9133452D01*
X-10060833Y-9114405D01*
X-10060833Y-8942976D01*
X-9927500Y-9142976D02*
X-9946548Y-9133452D01*
X-9956072Y-9114405D01*
X-9956072Y-8942976D01*
X-9698929Y-9142976D02*
X-9698929Y-8942976D01*
X-9632262Y-9085833D01*
X-9565595Y-8942976D01*
X-9565595Y-9142976D01*
X-9384643Y-9142976D02*
X-9384643Y-9038214D01*
X-9394167Y-9019167D01*
X-9413214Y-9009643D01*
X-9451310Y-9009643D01*
X-9470357Y-9019167D01*
X-9384643Y-9133452D02*
X-9403691Y-9142976D01*
X-9451310Y-9142976D01*
X-9470357Y-9133452D01*
X-9479881Y-9114405D01*
X-9479881Y-9095357D01*
X-9470357Y-9076310D01*
X-9451310Y-9066786D01*
X-9403691Y-9066786D01*
X-9384643Y-9057262D01*
X-9289405Y-9009643D02*
X-9289405Y-9209643D01*
X-9289405Y-9019167D02*
X-9270357Y-9009643D01*
X-9232262Y-9009643D01*
X-9213214Y-9019167D01*
X-9203691Y-9028690D01*
X-9194167Y-9047738D01*
X-9194167Y-9104881D01*
X-9203691Y-9123929D01*
X-9213214Y-9133452D01*
X-9232262Y-9142976D01*
X-9270357Y-9142976D01*
X-9289405Y-9133452D01*
X-9108452Y-9123929D02*
X-9098929Y-9133452D01*
X-9108452Y-9142976D01*
X-9117976Y-9133452D01*
X-9108452Y-9123929D01*
X-9108452Y-9142976D01*
X-9108452Y-9019167D02*
X-9098929Y-9028690D01*
X-9108452Y-9038214D01*
X-9117976Y-9028690D01*
X-9108452Y-9019167D01*
X-9108452Y-9038214D01*
D12*
X-10777500Y-9452500D02*
X-10737500Y-9492500D01*
X-10737500Y-9452500D02*
X-10777500Y-9492500D01*
D11*
X-10441786Y-9362976D02*
X-10422738Y-9362976D01*
X-10403691Y-9372500D01*
X-10394167Y-9382024D01*
X-10384643Y-9401071D01*
X-10375119Y-9439167D01*
X-10375119Y-9486786D01*
X-10384643Y-9524881D01*
X-10394167Y-9543929D01*
X-10403691Y-9553452D01*
X-10422738Y-9562976D01*
X-10441786Y-9562976D01*
X-10460833Y-9553452D01*
X-10470357Y-9543929D01*
X-10479881Y-9524881D01*
X-10489405Y-9486786D01*
X-10489405Y-9439167D01*
X-10479881Y-9401071D01*
X-10470357Y-9382024D01*
X-10460833Y-9372500D01*
X-10441786Y-9362976D01*
X-10289405Y-9543929D02*
X-10279881Y-9553452D01*
X-10289405Y-9562976D01*
X-10298929Y-9553452D01*
X-10289405Y-9543929D01*
X-10289405Y-9562976D01*
X-10108452Y-9429643D02*
X-10108452Y-9562976D01*
X-10156072Y-9353452D02*
X-10203691Y-9496310D01*
X-10079881Y-9496310D01*
X-9965595Y-9362976D02*
X-9946548Y-9362976D01*
X-9927500Y-9372500D01*
X-9917976Y-9382024D01*
X-9908452Y-9401071D01*
X-9898929Y-9439167D01*
X-9898929Y-9486786D01*
X-9908452Y-9524881D01*
X-9917976Y-9543929D01*
X-9927500Y-9553452D01*
X-9946548Y-9562976D01*
X-9965595Y-9562976D01*
X-9984643Y-9553452D01*
X-9994167Y-9543929D01*
X-10003691Y-9524881D01*
X-10013214Y-9486786D01*
X-10013214Y-9439167D01*
X-10003691Y-9401071D01*
X-9994167Y-9382024D01*
X-9984643Y-9372500D01*
X-9965595Y-9362976D01*
X-9775119Y-9362976D02*
X-9756072Y-9362976D01*
X-9737024Y-9372500D01*
X-9727500Y-9382024D01*
X-9717976Y-9401071D01*
X-9708452Y-9439167D01*
X-9708452Y-9486786D01*
X-9717976Y-9524881D01*
X-9727500Y-9543929D01*
X-9737024Y-9553452D01*
X-9756072Y-9562976D01*
X-9775119Y-9562976D01*
X-9794167Y-9553452D01*
X-9803691Y-9543929D01*
X-9813214Y-9524881D01*
X-9822738Y-9486786D01*
X-9822738Y-9439167D01*
X-9813214Y-9401071D01*
X-9803691Y-9382024D01*
X-9794167Y-9372500D01*
X-9775119Y-9362976D01*
X-9622738Y-9562976D02*
X-9622738Y-9429643D01*
X-9622738Y-9448690D02*
X-9613214Y-9439167D01*
X-9594167Y-9429643D01*
X-9565595Y-9429643D01*
X-9546548Y-9439167D01*
X-9537024Y-9458214D01*
X-9537024Y-9562976D01*
X-9537024Y-9458214D02*
X-9527500Y-9439167D01*
X-9508452Y-9429643D01*
X-9479881Y-9429643D01*
X-9460833Y-9439167D01*
X-9451310Y-9458214D01*
X-9451310Y-9562976D01*
X-9356072Y-9562976D02*
X-9356072Y-9429643D01*
X-9356072Y-9448690D02*
X-9346548Y-9439167D01*
X-9327500Y-9429643D01*
X-9298929Y-9429643D01*
X-9279881Y-9439167D01*
X-9270357Y-9458214D01*
X-9270357Y-9562976D01*
X-9270357Y-9458214D02*
X-9260833Y-9439167D01*
X-9241786Y-9429643D01*
X-9213214Y-9429643D01*
X-9194167Y-9439167D01*
X-9184643Y-9458214D01*
X-9184643Y-9562976D01*
X-8794167Y-9353452D02*
X-8965595Y-9610595D01*
X-8537024Y-9362976D02*
X-8517976Y-9362976D01*
X-8498929Y-9372500D01*
X-8489405Y-9382024D01*
X-8479881Y-9401071D01*
X-8470357Y-9439167D01*
X-8470357Y-9486786D01*
X-8479881Y-9524881D01*
X-8489405Y-9543929D01*
X-8498929Y-9553452D01*
X-8517976Y-9562976D01*
X-8537024Y-9562976D01*
X-8556072Y-9553452D01*
X-8565595Y-9543929D01*
X-8575119Y-9524881D01*
X-8584643Y-9486786D01*
X-8584643Y-9439167D01*
X-8575119Y-9401071D01*
X-8565595Y-9382024D01*
X-8556072Y-9372500D01*
X-8537024Y-9362976D01*
X-8384643Y-9543929D02*
X-8375119Y-9553452D01*
X-8384643Y-9562976D01*
X-8394167Y-9553452D01*
X-8384643Y-9543929D01*
X-8384643Y-9562976D01*
X-8251310Y-9362976D02*
X-8232262Y-9362976D01*
X-8213214Y-9372500D01*
X-8203690Y-9382024D01*
X-8194167Y-9401071D01*
X-8184643Y-9439167D01*
X-8184643Y-9486786D01*
X-8194167Y-9524881D01*
X-8203690Y-9543929D01*
X-8213214Y-9553452D01*
X-8232262Y-9562976D01*
X-8251310Y-9562976D01*
X-8270357Y-9553452D01*
X-8279881Y-9543929D01*
X-8289405Y-9524881D01*
X-8298929Y-9486786D01*
X-8298929Y-9439167D01*
X-8289405Y-9401071D01*
X-8279881Y-9382024D01*
X-8270357Y-9372500D01*
X-8251310Y-9362976D01*
X-7994167Y-9562976D02*
X-8108452Y-9562976D01*
X-8051310Y-9562976D02*
X-8051310Y-9362976D01*
X-8070357Y-9391548D01*
X-8089405Y-9410595D01*
X-8108452Y-9420119D01*
X-7813214Y-9362976D02*
X-7908452Y-9362976D01*
X-7917976Y-9458214D01*
X-7908452Y-9448690D01*
X-7889405Y-9439167D01*
X-7841786Y-9439167D01*
X-7822738Y-9448690D01*
X-7813214Y-9458214D01*
X-7803690Y-9477262D01*
X-7803690Y-9524881D01*
X-7813214Y-9543929D01*
X-7822738Y-9553452D01*
X-7841786Y-9562976D01*
X-7889405Y-9562976D01*
X-7908452Y-9553452D01*
X-7917976Y-9543929D01*
X-7737024Y-9362976D02*
X-7603690Y-9362976D01*
X-7689405Y-9562976D01*
X-7537024Y-9362976D02*
X-7537024Y-9401071D01*
X-7460833Y-9362976D02*
X-7460833Y-9401071D01*
X-7165595Y-9639167D02*
X-7175119Y-9629643D01*
X-7194167Y-9601071D01*
X-7203690Y-9582024D01*
X-7213214Y-9553452D01*
X-7222738Y-9505833D01*
X-7222738Y-9467738D01*
X-7213214Y-9420119D01*
X-7203690Y-9391548D01*
X-7194167Y-9372500D01*
X-7175119Y-9343929D01*
X-7165595Y-9334405D01*
X-7108452Y-9362976D02*
X-6984643Y-9362976D01*
X-7051310Y-9439167D01*
X-7022738Y-9439167D01*
X-7003690Y-9448690D01*
X-6994167Y-9458214D01*
X-6984643Y-9477262D01*
X-6984643Y-9524881D01*
X-6994167Y-9543929D01*
X-7003690Y-9553452D01*
X-7022738Y-9562976D01*
X-7079881Y-9562976D01*
X-7098929Y-9553452D01*
X-7108452Y-9543929D01*
X-6803690Y-9362976D02*
X-6898929Y-9362976D01*
X-6908452Y-9458214D01*
X-6898929Y-9448690D01*
X-6879881Y-9439167D01*
X-6832262Y-9439167D01*
X-6813214Y-9448690D01*
X-6803690Y-9458214D01*
X-6794167Y-9477262D01*
X-6794167Y-9524881D01*
X-6803690Y-9543929D01*
X-6813214Y-9553452D01*
X-6832262Y-9562976D01*
X-6879881Y-9562976D01*
X-6898929Y-9553452D01*
X-6908452Y-9543929D01*
X-6556071Y-9562976D02*
X-6556071Y-9362976D01*
X-6470357Y-9562976D02*
X-6470357Y-9458214D01*
X-6479881Y-9439167D01*
X-6498929Y-9429643D01*
X-6527500Y-9429643D01*
X-6546548Y-9439167D01*
X-6556071Y-9448690D01*
X-6346548Y-9562976D02*
X-6365595Y-9553452D01*
X-6375119Y-9543929D01*
X-6384643Y-9524881D01*
X-6384643Y-9467738D01*
X-6375119Y-9448690D01*
X-6365595Y-9439167D01*
X-6346548Y-9429643D01*
X-6317976Y-9429643D01*
X-6298929Y-9439167D01*
X-6289405Y-9448690D01*
X-6279881Y-9467738D01*
X-6279881Y-9524881D01*
X-6289405Y-9543929D01*
X-6298929Y-9553452D01*
X-6317976Y-9562976D01*
X-6346548Y-9562976D01*
X-6165595Y-9562976D02*
X-6184643Y-9553452D01*
X-6194167Y-9534405D01*
X-6194167Y-9362976D01*
X-6013214Y-9553452D02*
X-6032262Y-9562976D01*
X-6070357Y-9562976D01*
X-6089405Y-9553452D01*
X-6098929Y-9534405D01*
X-6098929Y-9458214D01*
X-6089405Y-9439167D01*
X-6070357Y-9429643D01*
X-6032262Y-9429643D01*
X-6013214Y-9439167D01*
X-6003690Y-9458214D01*
X-6003690Y-9477262D01*
X-6098929Y-9496310D01*
X-5927500Y-9553452D02*
X-5908452Y-9562976D01*
X-5870357Y-9562976D01*
X-5851310Y-9553452D01*
X-5841786Y-9534405D01*
X-5841786Y-9524881D01*
X-5851310Y-9505833D01*
X-5870357Y-9496310D01*
X-5898929Y-9496310D01*
X-5917976Y-9486786D01*
X-5927500Y-9467738D01*
X-5927500Y-9458214D01*
X-5917976Y-9439167D01*
X-5898929Y-9429643D01*
X-5870357Y-9429643D01*
X-5851310Y-9439167D01*
X-5775119Y-9639167D02*
X-5765595Y-9629643D01*
X-5746548Y-9601071D01*
X-5737024Y-9582024D01*
X-5727500Y-9553452D01*
X-5717976Y-9505833D01*
X-5717976Y-9467738D01*
X-5727500Y-9420119D01*
X-5737024Y-9391548D01*
X-5746548Y-9372500D01*
X-5765595Y-9343929D01*
X-5775119Y-9334405D01*
D13*
X-10737500Y-9736500D02*
G75*
G03*
X-10737500Y-9736500I-25000J0D01*
G01*
D11*
X-10441786Y-9626976D02*
X-10422738Y-9626976D01*
X-10403691Y-9636500D01*
X-10394167Y-9646024D01*
X-10384643Y-9665071D01*
X-10375119Y-9703167D01*
X-10375119Y-9750786D01*
X-10384643Y-9788881D01*
X-10394167Y-9807929D01*
X-10403691Y-9817452D01*
X-10422738Y-9826976D01*
X-10441786Y-9826976D01*
X-10460833Y-9817452D01*
X-10470357Y-9807929D01*
X-10479881Y-9788881D01*
X-10489405Y-9750786D01*
X-10489405Y-9703167D01*
X-10479881Y-9665071D01*
X-10470357Y-9646024D01*
X-10460833Y-9636500D01*
X-10441786Y-9626976D01*
X-10289405Y-9807929D02*
X-10279881Y-9817452D01*
X-10289405Y-9826976D01*
X-10298929Y-9817452D01*
X-10289405Y-9807929D01*
X-10289405Y-9826976D01*
X-10098929Y-9626976D02*
X-10194167Y-9626976D01*
X-10203691Y-9722214D01*
X-10194167Y-9712690D01*
X-10175119Y-9703167D01*
X-10127500Y-9703167D01*
X-10108452Y-9712690D01*
X-10098929Y-9722214D01*
X-10089405Y-9741262D01*
X-10089405Y-9788881D01*
X-10098929Y-9807929D01*
X-10108452Y-9817452D01*
X-10127500Y-9826976D01*
X-10175119Y-9826976D01*
X-10194167Y-9817452D01*
X-10203691Y-9807929D01*
X-9965595Y-9626976D02*
X-9946548Y-9626976D01*
X-9927500Y-9636500D01*
X-9917976Y-9646024D01*
X-9908452Y-9665071D01*
X-9898929Y-9703167D01*
X-9898929Y-9750786D01*
X-9908452Y-9788881D01*
X-9917976Y-9807929D01*
X-9927500Y-9817452D01*
X-9946548Y-9826976D01*
X-9965595Y-9826976D01*
X-9984643Y-9817452D01*
X-9994167Y-9807929D01*
X-10003691Y-9788881D01*
X-10013214Y-9750786D01*
X-10013214Y-9703167D01*
X-10003691Y-9665071D01*
X-9994167Y-9646024D01*
X-9984643Y-9636500D01*
X-9965595Y-9626976D01*
X-9775119Y-9626976D02*
X-9756072Y-9626976D01*
X-9737024Y-9636500D01*
X-9727500Y-9646024D01*
X-9717976Y-9665071D01*
X-9708452Y-9703167D01*
X-9708452Y-9750786D01*
X-9717976Y-9788881D01*
X-9727500Y-9807929D01*
X-9737024Y-9817452D01*
X-9756072Y-9826976D01*
X-9775119Y-9826976D01*
X-9794167Y-9817452D01*
X-9803691Y-9807929D01*
X-9813214Y-9788881D01*
X-9822738Y-9750786D01*
X-9822738Y-9703167D01*
X-9813214Y-9665071D01*
X-9803691Y-9646024D01*
X-9794167Y-9636500D01*
X-9775119Y-9626976D01*
X-9622738Y-9826976D02*
X-9622738Y-9693643D01*
X-9622738Y-9712690D02*
X-9613214Y-9703167D01*
X-9594167Y-9693643D01*
X-9565595Y-9693643D01*
X-9546548Y-9703167D01*
X-9537024Y-9722214D01*
X-9537024Y-9826976D01*
X-9537024Y-9722214D02*
X-9527500Y-9703167D01*
X-9508452Y-9693643D01*
X-9479881Y-9693643D01*
X-9460833Y-9703167D01*
X-9451310Y-9722214D01*
X-9451310Y-9826976D01*
X-9356072Y-9826976D02*
X-9356072Y-9693643D01*
X-9356072Y-9712690D02*
X-9346548Y-9703167D01*
X-9327500Y-9693643D01*
X-9298929Y-9693643D01*
X-9279881Y-9703167D01*
X-9270357Y-9722214D01*
X-9270357Y-9826976D01*
X-9270357Y-9722214D02*
X-9260833Y-9703167D01*
X-9241786Y-9693643D01*
X-9213214Y-9693643D01*
X-9194167Y-9703167D01*
X-9184643Y-9722214D01*
X-9184643Y-9826976D01*
X-8794167Y-9617452D02*
X-8965595Y-9874595D01*
X-8537024Y-9626976D02*
X-8517976Y-9626976D01*
X-8498929Y-9636500D01*
X-8489405Y-9646024D01*
X-8479881Y-9665071D01*
X-8470357Y-9703167D01*
X-8470357Y-9750786D01*
X-8479881Y-9788881D01*
X-8489405Y-9807929D01*
X-8498929Y-9817452D01*
X-8517976Y-9826976D01*
X-8537024Y-9826976D01*
X-8556072Y-9817452D01*
X-8565595Y-9807929D01*
X-8575119Y-9788881D01*
X-8584643Y-9750786D01*
X-8584643Y-9703167D01*
X-8575119Y-9665071D01*
X-8565595Y-9646024D01*
X-8556072Y-9636500D01*
X-8537024Y-9626976D01*
X-8384643Y-9807929D02*
X-8375119Y-9817452D01*
X-8384643Y-9826976D01*
X-8394167Y-9817452D01*
X-8384643Y-9807929D01*
X-8384643Y-9826976D01*
X-8251310Y-9626976D02*
X-8232262Y-9626976D01*
X-8213214Y-9636500D01*
X-8203690Y-9646024D01*
X-8194167Y-9665071D01*
X-8184643Y-9703167D01*
X-8184643Y-9750786D01*
X-8194167Y-9788881D01*
X-8203690Y-9807929D01*
X-8213214Y-9817452D01*
X-8232262Y-9826976D01*
X-8251310Y-9826976D01*
X-8270357Y-9817452D01*
X-8279881Y-9807929D01*
X-8289405Y-9788881D01*
X-8298929Y-9750786D01*
X-8298929Y-9703167D01*
X-8289405Y-9665071D01*
X-8279881Y-9646024D01*
X-8270357Y-9636500D01*
X-8251310Y-9626976D01*
X-7994167Y-9826976D02*
X-8108452Y-9826976D01*
X-8051310Y-9826976D02*
X-8051310Y-9626976D01*
X-8070357Y-9655548D01*
X-8089405Y-9674595D01*
X-8108452Y-9684119D01*
X-7898929Y-9826976D02*
X-7860833Y-9826976D01*
X-7841786Y-9817452D01*
X-7832262Y-9807929D01*
X-7813214Y-9779357D01*
X-7803690Y-9741262D01*
X-7803690Y-9665071D01*
X-7813214Y-9646024D01*
X-7822738Y-9636500D01*
X-7841786Y-9626976D01*
X-7879881Y-9626976D01*
X-7898929Y-9636500D01*
X-7908452Y-9646024D01*
X-7917976Y-9665071D01*
X-7917976Y-9712690D01*
X-7908452Y-9731738D01*
X-7898929Y-9741262D01*
X-7879881Y-9750786D01*
X-7841786Y-9750786D01*
X-7822738Y-9741262D01*
X-7813214Y-9731738D01*
X-7803690Y-9712690D01*
X-7737024Y-9626976D02*
X-7603690Y-9626976D01*
X-7689405Y-9826976D01*
X-7537024Y-9626976D02*
X-7537024Y-9665071D01*
X-7460833Y-9626976D02*
X-7460833Y-9665071D01*
X-7165595Y-9903167D02*
X-7175119Y-9893643D01*
X-7194167Y-9865071D01*
X-7203690Y-9846024D01*
X-7213214Y-9817452D01*
X-7222738Y-9769833D01*
X-7222738Y-9731738D01*
X-7213214Y-9684119D01*
X-7203690Y-9655548D01*
X-7194167Y-9636500D01*
X-7175119Y-9607929D01*
X-7165595Y-9598405D01*
X-7051310Y-9626976D02*
X-7032262Y-9626976D01*
X-7013214Y-9636500D01*
X-7003690Y-9646024D01*
X-6994167Y-9665071D01*
X-6984643Y-9703167D01*
X-6984643Y-9750786D01*
X-6994167Y-9788881D01*
X-7003690Y-9807929D01*
X-7013214Y-9817452D01*
X-7032262Y-9826976D01*
X-7051310Y-9826976D01*
X-7070357Y-9817452D01*
X-7079881Y-9807929D01*
X-7089405Y-9788881D01*
X-7098929Y-9750786D01*
X-7098929Y-9703167D01*
X-7089405Y-9665071D01*
X-7079881Y-9646024D01*
X-7070357Y-9636500D01*
X-7051310Y-9626976D01*
X-6746548Y-9826976D02*
X-6746548Y-9626976D01*
X-6660833Y-9826976D02*
X-6660833Y-9722214D01*
X-6670357Y-9703167D01*
X-6689405Y-9693643D01*
X-6717976Y-9693643D01*
X-6737024Y-9703167D01*
X-6746548Y-9712690D01*
X-6537024Y-9826976D02*
X-6556071Y-9817452D01*
X-6565595Y-9807929D01*
X-6575119Y-9788881D01*
X-6575119Y-9731738D01*
X-6565595Y-9712690D01*
X-6556071Y-9703167D01*
X-6537024Y-9693643D01*
X-6508452Y-9693643D01*
X-6489405Y-9703167D01*
X-6479881Y-9712690D01*
X-6470357Y-9731738D01*
X-6470357Y-9788881D01*
X-6479881Y-9807929D01*
X-6489405Y-9817452D01*
X-6508452Y-9826976D01*
X-6537024Y-9826976D01*
X-6356071Y-9826976D02*
X-6375119Y-9817452D01*
X-6384643Y-9798405D01*
X-6384643Y-9626976D01*
X-6203690Y-9817452D02*
X-6222738Y-9826976D01*
X-6260833Y-9826976D01*
X-6279881Y-9817452D01*
X-6289405Y-9798405D01*
X-6289405Y-9722214D01*
X-6279881Y-9703167D01*
X-6260833Y-9693643D01*
X-6222738Y-9693643D01*
X-6203690Y-9703167D01*
X-6194167Y-9722214D01*
X-6194167Y-9741262D01*
X-6289405Y-9760310D01*
X-6117976Y-9817452D02*
X-6098929Y-9826976D01*
X-6060833Y-9826976D01*
X-6041786Y-9817452D01*
X-6032262Y-9798405D01*
X-6032262Y-9788881D01*
X-6041786Y-9769833D01*
X-6060833Y-9760310D01*
X-6089405Y-9760310D01*
X-6108452Y-9750786D01*
X-6117976Y-9731738D01*
X-6117976Y-9722214D01*
X-6108452Y-9703167D01*
X-6089405Y-9693643D01*
X-6060833Y-9693643D01*
X-6041786Y-9703167D01*
X-5794167Y-9750786D02*
X-5641786Y-9750786D01*
X-5717976Y-9826976D02*
X-5717976Y-9674595D01*
X-5308452Y-9626976D02*
X-5346548Y-9626976D01*
X-5365595Y-9636500D01*
X-5375119Y-9646024D01*
X-5394167Y-9674595D01*
X-5403691Y-9712690D01*
X-5403691Y-9788881D01*
X-5394167Y-9807929D01*
X-5384643Y-9817452D01*
X-5365595Y-9826976D01*
X-5327500Y-9826976D01*
X-5308452Y-9817452D01*
X-5298929Y-9807929D01*
X-5289405Y-9788881D01*
X-5289405Y-9741262D01*
X-5298929Y-9722214D01*
X-5308452Y-9712690D01*
X-5327500Y-9703167D01*
X-5365595Y-9703167D01*
X-5384643Y-9712690D01*
X-5394167Y-9722214D01*
X-5403691Y-9741262D01*
X-5165595Y-9626976D02*
X-5146548Y-9626976D01*
X-5127500Y-9636500D01*
X-5117976Y-9646024D01*
X-5108452Y-9665071D01*
X-5098929Y-9703167D01*
X-5098929Y-9750786D01*
X-5108452Y-9788881D01*
X-5117976Y-9807929D01*
X-5127500Y-9817452D01*
X-5146548Y-9826976D01*
X-5165595Y-9826976D01*
X-5184643Y-9817452D01*
X-5194167Y-9807929D01*
X-5203691Y-9788881D01*
X-5213214Y-9750786D01*
X-5213214Y-9703167D01*
X-5203691Y-9665071D01*
X-5194167Y-9646024D01*
X-5184643Y-9636500D01*
X-5165595Y-9626976D01*
X-4870357Y-9817452D02*
X-4851310Y-9826976D01*
X-4813214Y-9826976D01*
X-4794167Y-9817452D01*
X-4784643Y-9798405D01*
X-4784643Y-9788881D01*
X-4794167Y-9769833D01*
X-4813214Y-9760310D01*
X-4841786Y-9760310D01*
X-4860833Y-9750786D01*
X-4870357Y-9731738D01*
X-4870357Y-9722214D01*
X-4860833Y-9703167D01*
X-4841786Y-9693643D01*
X-4813214Y-9693643D01*
X-4794167Y-9703167D01*
X-4670357Y-9826976D02*
X-4689405Y-9817452D01*
X-4698929Y-9798405D01*
X-4698929Y-9626976D01*
X-4565595Y-9826976D02*
X-4584643Y-9817452D01*
X-4594167Y-9807929D01*
X-4603691Y-9788881D01*
X-4603691Y-9731738D01*
X-4594167Y-9712690D01*
X-4584643Y-9703167D01*
X-4565595Y-9693643D01*
X-4537024Y-9693643D01*
X-4517976Y-9703167D01*
X-4508452Y-9712690D01*
X-4498929Y-9731738D01*
X-4498929Y-9788881D01*
X-4508452Y-9807929D01*
X-4517976Y-9817452D01*
X-4537024Y-9826976D01*
X-4565595Y-9826976D01*
X-4441786Y-9693643D02*
X-4365595Y-9693643D01*
X-4413214Y-9626976D02*
X-4413214Y-9798405D01*
X-4403691Y-9817452D01*
X-4384643Y-9826976D01*
X-4365595Y-9826976D01*
X-4308452Y-9817452D02*
X-4289405Y-9826976D01*
X-4251310Y-9826976D01*
X-4232262Y-9817452D01*
X-4222738Y-9798405D01*
X-4222738Y-9788881D01*
X-4232262Y-9769833D01*
X-4251310Y-9760310D01*
X-4279881Y-9760310D01*
X-4298929Y-9750786D01*
X-4308452Y-9731738D01*
X-4308452Y-9722214D01*
X-4298929Y-9703167D01*
X-4279881Y-9693643D01*
X-4251310Y-9693643D01*
X-4232262Y-9703167D01*
X-4156071Y-9903167D02*
X-4146548Y-9893643D01*
X-4127500Y-9865071D01*
X-4117976Y-9846024D01*
X-4108452Y-9817452D01*
X-4098929Y-9769833D01*
X-4098929Y-9731738D01*
X-4108452Y-9684119D01*
X-4117976Y-9655548D01*
X-4127500Y-9636500D01*
X-4146548Y-9607929D01*
X-4156071Y-9598405D01*
D14*
X-10777500Y-9960500D02*
X-10777500Y-10040500D01*
X-10817500Y-10000500D02*
X-10737500Y-10000500D01*
D11*
X-10441786Y-9890976D02*
X-10422738Y-9890976D01*
X-10403691Y-9900500D01*
X-10394167Y-9910024D01*
X-10384643Y-9929071D01*
X-10375119Y-9967167D01*
X-10375119Y-10014786D01*
X-10384643Y-10052881D01*
X-10394167Y-10071929D01*
X-10403691Y-10081452D01*
X-10422738Y-10090976D01*
X-10441786Y-10090976D01*
X-10460833Y-10081452D01*
X-10470357Y-10071929D01*
X-10479881Y-10052881D01*
X-10489405Y-10014786D01*
X-10489405Y-9967167D01*
X-10479881Y-9929071D01*
X-10470357Y-9910024D01*
X-10460833Y-9900500D01*
X-10441786Y-9890976D01*
X-10289405Y-10071929D02*
X-10279881Y-10081452D01*
X-10289405Y-10090976D01*
X-10298929Y-10081452D01*
X-10289405Y-10071929D01*
X-10289405Y-10090976D01*
X-10165595Y-9976690D02*
X-10184643Y-9967167D01*
X-10194167Y-9957643D01*
X-10203691Y-9938595D01*
X-10203691Y-9929071D01*
X-10194167Y-9910024D01*
X-10184643Y-9900500D01*
X-10165595Y-9890976D01*
X-10127500Y-9890976D01*
X-10108452Y-9900500D01*
X-10098929Y-9910024D01*
X-10089405Y-9929071D01*
X-10089405Y-9938595D01*
X-10098929Y-9957643D01*
X-10108452Y-9967167D01*
X-10127500Y-9976690D01*
X-10165595Y-9976690D01*
X-10184643Y-9986214D01*
X-10194167Y-9995738D01*
X-10203691Y-10014786D01*
X-10203691Y-10052881D01*
X-10194167Y-10071929D01*
X-10184643Y-10081452D01*
X-10165595Y-10090976D01*
X-10127500Y-10090976D01*
X-10108452Y-10081452D01*
X-10098929Y-10071929D01*
X-10089405Y-10052881D01*
X-10089405Y-10014786D01*
X-10098929Y-9995738D01*
X-10108452Y-9986214D01*
X-10127500Y-9976690D01*
X-9965595Y-9890976D02*
X-9946548Y-9890976D01*
X-9927500Y-9900500D01*
X-9917976Y-9910024D01*
X-9908452Y-9929071D01*
X-9898929Y-9967167D01*
X-9898929Y-10014786D01*
X-9908452Y-10052881D01*
X-9917976Y-10071929D01*
X-9927500Y-10081452D01*
X-9946548Y-10090976D01*
X-9965595Y-10090976D01*
X-9984643Y-10081452D01*
X-9994167Y-10071929D01*
X-10003691Y-10052881D01*
X-10013214Y-10014786D01*
X-10013214Y-9967167D01*
X-10003691Y-9929071D01*
X-9994167Y-9910024D01*
X-9984643Y-9900500D01*
X-9965595Y-9890976D01*
X-9775119Y-9890976D02*
X-9756072Y-9890976D01*
X-9737024Y-9900500D01*
X-9727500Y-9910024D01*
X-9717976Y-9929071D01*
X-9708452Y-9967167D01*
X-9708452Y-10014786D01*
X-9717976Y-10052881D01*
X-9727500Y-10071929D01*
X-9737024Y-10081452D01*
X-9756072Y-10090976D01*
X-9775119Y-10090976D01*
X-9794167Y-10081452D01*
X-9803691Y-10071929D01*
X-9813214Y-10052881D01*
X-9822738Y-10014786D01*
X-9822738Y-9967167D01*
X-9813214Y-9929071D01*
X-9803691Y-9910024D01*
X-9794167Y-9900500D01*
X-9775119Y-9890976D01*
X-9622738Y-10090976D02*
X-9622738Y-9957643D01*
X-9622738Y-9976690D02*
X-9613214Y-9967167D01*
X-9594167Y-9957643D01*
X-9565595Y-9957643D01*
X-9546548Y-9967167D01*
X-9537024Y-9986214D01*
X-9537024Y-10090976D01*
X-9537024Y-9986214D02*
X-9527500Y-9967167D01*
X-9508452Y-9957643D01*
X-9479881Y-9957643D01*
X-9460833Y-9967167D01*
X-9451310Y-9986214D01*
X-9451310Y-10090976D01*
X-9356072Y-10090976D02*
X-9356072Y-9957643D01*
X-9356072Y-9976690D02*
X-9346548Y-9967167D01*
X-9327500Y-9957643D01*
X-9298929Y-9957643D01*
X-9279881Y-9967167D01*
X-9270357Y-9986214D01*
X-9270357Y-10090976D01*
X-9270357Y-9986214D02*
X-9260833Y-9967167D01*
X-9241786Y-9957643D01*
X-9213214Y-9957643D01*
X-9194167Y-9967167D01*
X-9184643Y-9986214D01*
X-9184643Y-10090976D01*
X-8794167Y-9881452D02*
X-8965595Y-10138595D01*
X-8537024Y-9890976D02*
X-8517976Y-9890976D01*
X-8498929Y-9900500D01*
X-8489405Y-9910024D01*
X-8479881Y-9929071D01*
X-8470357Y-9967167D01*
X-8470357Y-10014786D01*
X-8479881Y-10052881D01*
X-8489405Y-10071929D01*
X-8498929Y-10081452D01*
X-8517976Y-10090976D01*
X-8537024Y-10090976D01*
X-8556072Y-10081452D01*
X-8565595Y-10071929D01*
X-8575119Y-10052881D01*
X-8584643Y-10014786D01*
X-8584643Y-9967167D01*
X-8575119Y-9929071D01*
X-8565595Y-9910024D01*
X-8556072Y-9900500D01*
X-8537024Y-9890976D01*
X-8384643Y-10071929D02*
X-8375119Y-10081452D01*
X-8384643Y-10090976D01*
X-8394167Y-10081452D01*
X-8384643Y-10071929D01*
X-8384643Y-10090976D01*
X-8251310Y-9890976D02*
X-8232262Y-9890976D01*
X-8213214Y-9900500D01*
X-8203690Y-9910024D01*
X-8194167Y-9929071D01*
X-8184643Y-9967167D01*
X-8184643Y-10014786D01*
X-8194167Y-10052881D01*
X-8203690Y-10071929D01*
X-8213214Y-10081452D01*
X-8232262Y-10090976D01*
X-8251310Y-10090976D01*
X-8270357Y-10081452D01*
X-8279881Y-10071929D01*
X-8289405Y-10052881D01*
X-8298929Y-10014786D01*
X-8298929Y-9967167D01*
X-8289405Y-9929071D01*
X-8279881Y-9910024D01*
X-8270357Y-9900500D01*
X-8251310Y-9890976D01*
X-8117976Y-9890976D02*
X-7994167Y-9890976D01*
X-8060833Y-9967167D01*
X-8032262Y-9967167D01*
X-8013214Y-9976690D01*
X-8003690Y-9986214D01*
X-7994167Y-10005262D01*
X-7994167Y-10052881D01*
X-8003690Y-10071929D01*
X-8013214Y-10081452D01*
X-8032262Y-10090976D01*
X-8089405Y-10090976D01*
X-8108452Y-10081452D01*
X-8117976Y-10071929D01*
X-7803690Y-10090976D02*
X-7917976Y-10090976D01*
X-7860833Y-10090976D02*
X-7860833Y-9890976D01*
X-7879881Y-9919548D01*
X-7898929Y-9938595D01*
X-7917976Y-9948119D01*
X-7622738Y-9890976D02*
X-7717976Y-9890976D01*
X-7727500Y-9986214D01*
X-7717976Y-9976690D01*
X-7698929Y-9967167D01*
X-7651310Y-9967167D01*
X-7632262Y-9976690D01*
X-7622738Y-9986214D01*
X-7613214Y-10005262D01*
X-7613214Y-10052881D01*
X-7622738Y-10071929D01*
X-7632262Y-10081452D01*
X-7651310Y-10090976D01*
X-7698929Y-10090976D01*
X-7717976Y-10081452D01*
X-7727500Y-10071929D01*
X-7537024Y-9890976D02*
X-7537024Y-9929071D01*
X-7460833Y-9890976D02*
X-7460833Y-9929071D01*
X-7165595Y-10167167D02*
X-7175119Y-10157643D01*
X-7194167Y-10129071D01*
X-7203690Y-10110024D01*
X-7213214Y-10081452D01*
X-7222738Y-10033833D01*
X-7222738Y-9995738D01*
X-7213214Y-9948119D01*
X-7203690Y-9919548D01*
X-7194167Y-9900500D01*
X-7175119Y-9871929D01*
X-7165595Y-9862405D01*
X-7051310Y-9890976D02*
X-7032262Y-9890976D01*
X-7013214Y-9900500D01*
X-7003690Y-9910024D01*
X-6994167Y-9929071D01*
X-6984643Y-9967167D01*
X-6984643Y-10014786D01*
X-6994167Y-10052881D01*
X-7003690Y-10071929D01*
X-7013214Y-10081452D01*
X-7032262Y-10090976D01*
X-7051310Y-10090976D01*
X-7070357Y-10081452D01*
X-7079881Y-10071929D01*
X-7089405Y-10052881D01*
X-7098929Y-10014786D01*
X-7098929Y-9967167D01*
X-7089405Y-9929071D01*
X-7079881Y-9910024D01*
X-7070357Y-9900500D01*
X-7051310Y-9890976D01*
X-6746548Y-10090976D02*
X-6746548Y-9890976D01*
X-6660833Y-10090976D02*
X-6660833Y-9986214D01*
X-6670357Y-9967167D01*
X-6689405Y-9957643D01*
X-6717976Y-9957643D01*
X-6737024Y-9967167D01*
X-6746548Y-9976690D01*
X-6537024Y-10090976D02*
X-6556071Y-10081452D01*
X-6565595Y-10071929D01*
X-6575119Y-10052881D01*
X-6575119Y-9995738D01*
X-6565595Y-9976690D01*
X-6556071Y-9967167D01*
X-6537024Y-9957643D01*
X-6508452Y-9957643D01*
X-6489405Y-9967167D01*
X-6479881Y-9976690D01*
X-6470357Y-9995738D01*
X-6470357Y-10052881D01*
X-6479881Y-10071929D01*
X-6489405Y-10081452D01*
X-6508452Y-10090976D01*
X-6537024Y-10090976D01*
X-6356071Y-10090976D02*
X-6375119Y-10081452D01*
X-6384643Y-10062405D01*
X-6384643Y-9890976D01*
X-6203690Y-10081452D02*
X-6222738Y-10090976D01*
X-6260833Y-10090976D01*
X-6279881Y-10081452D01*
X-6289405Y-10062405D01*
X-6289405Y-9986214D01*
X-6279881Y-9967167D01*
X-6260833Y-9957643D01*
X-6222738Y-9957643D01*
X-6203690Y-9967167D01*
X-6194167Y-9986214D01*
X-6194167Y-10005262D01*
X-6289405Y-10024310D01*
X-6117976Y-10081452D02*
X-6098929Y-10090976D01*
X-6060833Y-10090976D01*
X-6041786Y-10081452D01*
X-6032262Y-10062405D01*
X-6032262Y-10052881D01*
X-6041786Y-10033833D01*
X-6060833Y-10024310D01*
X-6089405Y-10024310D01*
X-6108452Y-10014786D01*
X-6117976Y-9995738D01*
X-6117976Y-9986214D01*
X-6108452Y-9967167D01*
X-6089405Y-9957643D01*
X-6060833Y-9957643D01*
X-6041786Y-9967167D01*
X-5794167Y-10014786D02*
X-5641786Y-10014786D01*
X-5717976Y-10090976D02*
X-5717976Y-9938595D01*
X-5308452Y-9890976D02*
X-5346548Y-9890976D01*
X-5365595Y-9900500D01*
X-5375119Y-9910024D01*
X-5394167Y-9938595D01*
X-5403691Y-9976690D01*
X-5403691Y-10052881D01*
X-5394167Y-10071929D01*
X-5384643Y-10081452D01*
X-5365595Y-10090976D01*
X-5327500Y-10090976D01*
X-5308452Y-10081452D01*
X-5298929Y-10071929D01*
X-5289405Y-10052881D01*
X-5289405Y-10005262D01*
X-5298929Y-9986214D01*
X-5308452Y-9976690D01*
X-5327500Y-9967167D01*
X-5365595Y-9967167D01*
X-5384643Y-9976690D01*
X-5394167Y-9986214D01*
X-5403691Y-10005262D01*
X-5165595Y-9890976D02*
X-5146548Y-9890976D01*
X-5127500Y-9900500D01*
X-5117976Y-9910024D01*
X-5108452Y-9929071D01*
X-5098929Y-9967167D01*
X-5098929Y-10014786D01*
X-5108452Y-10052881D01*
X-5117976Y-10071929D01*
X-5127500Y-10081452D01*
X-5146548Y-10090976D01*
X-5165595Y-10090976D01*
X-5184643Y-10081452D01*
X-5194167Y-10071929D01*
X-5203691Y-10052881D01*
X-5213214Y-10014786D01*
X-5213214Y-9967167D01*
X-5203691Y-9929071D01*
X-5194167Y-9910024D01*
X-5184643Y-9900500D01*
X-5165595Y-9890976D01*
X-4870357Y-10081452D02*
X-4851310Y-10090976D01*
X-4813214Y-10090976D01*
X-4794167Y-10081452D01*
X-4784643Y-10062405D01*
X-4784643Y-10052881D01*
X-4794167Y-10033833D01*
X-4813214Y-10024310D01*
X-4841786Y-10024310D01*
X-4860833Y-10014786D01*
X-4870357Y-9995738D01*
X-4870357Y-9986214D01*
X-4860833Y-9967167D01*
X-4841786Y-9957643D01*
X-4813214Y-9957643D01*
X-4794167Y-9967167D01*
X-4670357Y-10090976D02*
X-4689405Y-10081452D01*
X-4698929Y-10062405D01*
X-4698929Y-9890976D01*
X-4565595Y-10090976D02*
X-4584643Y-10081452D01*
X-4594167Y-10071929D01*
X-4603691Y-10052881D01*
X-4603691Y-9995738D01*
X-4594167Y-9976690D01*
X-4584643Y-9967167D01*
X-4565595Y-9957643D01*
X-4537024Y-9957643D01*
X-4517976Y-9967167D01*
X-4508452Y-9976690D01*
X-4498929Y-9995738D01*
X-4498929Y-10052881D01*
X-4508452Y-10071929D01*
X-4517976Y-10081452D01*
X-4537024Y-10090976D01*
X-4565595Y-10090976D01*
X-4441786Y-9957643D02*
X-4365595Y-9957643D01*
X-4413214Y-9890976D02*
X-4413214Y-10062405D01*
X-4403691Y-10081452D01*
X-4384643Y-10090976D01*
X-4365595Y-10090976D01*
X-4308452Y-10081452D02*
X-4289405Y-10090976D01*
X-4251310Y-10090976D01*
X-4232262Y-10081452D01*
X-4222738Y-10062405D01*
X-4222738Y-10052881D01*
X-4232262Y-10033833D01*
X-4251310Y-10024310D01*
X-4279881Y-10024310D01*
X-4298929Y-10014786D01*
X-4308452Y-9995738D01*
X-4308452Y-9986214D01*
X-4298929Y-9967167D01*
X-4279881Y-9957643D01*
X-4251310Y-9957643D01*
X-4232262Y-9967167D01*
X-4156071Y-10167167D02*
X-4146548Y-10157643D01*
X-4127500Y-10129071D01*
X-4117976Y-10110024D01*
X-4108452Y-10081452D01*
X-4098929Y-10033833D01*
X-4098929Y-9995738D01*
X-4108452Y-9948119D01*
X-4117976Y-9919548D01*
X-4127500Y-9900500D01*
X-4146548Y-9871929D01*
X-4156071Y-9862405D01*
D15*
X-10752144Y-10299856D02*
X-10752144Y-10229144D01*
X-10822856Y-10229144D01*
X-10822856Y-10299856D01*
X-10752144Y-10299856D01*
D11*
X-10375119Y-10354976D02*
X-10489405Y-10354976D01*
X-10432262Y-10354976D02*
X-10432262Y-10154976D01*
X-10451310Y-10183548D01*
X-10470357Y-10202595D01*
X-10489405Y-10212119D01*
X-10289405Y-10335929D02*
X-10279881Y-10345452D01*
X-10289405Y-10354976D01*
X-10298929Y-10345452D01*
X-10289405Y-10335929D01*
X-10289405Y-10354976D01*
X-10156072Y-10154976D02*
X-10137024Y-10154976D01*
X-10117976Y-10164500D01*
X-10108452Y-10174024D01*
X-10098929Y-10193071D01*
X-10089405Y-10231167D01*
X-10089405Y-10278786D01*
X-10098929Y-10316881D01*
X-10108452Y-10335929D01*
X-10117976Y-10345452D01*
X-10137024Y-10354976D01*
X-10156072Y-10354976D01*
X-10175119Y-10345452D01*
X-10184643Y-10335929D01*
X-10194167Y-10316881D01*
X-10203691Y-10278786D01*
X-10203691Y-10231167D01*
X-10194167Y-10193071D01*
X-10184643Y-10174024D01*
X-10175119Y-10164500D01*
X-10156072Y-10154976D01*
X-9965595Y-10154976D02*
X-9946548Y-10154976D01*
X-9927500Y-10164500D01*
X-9917976Y-10174024D01*
X-9908452Y-10193071D01*
X-9898929Y-10231167D01*
X-9898929Y-10278786D01*
X-9908452Y-10316881D01*
X-9917976Y-10335929D01*
X-9927500Y-10345452D01*
X-9946548Y-10354976D01*
X-9965595Y-10354976D01*
X-9984643Y-10345452D01*
X-9994167Y-10335929D01*
X-10003691Y-10316881D01*
X-10013214Y-10278786D01*
X-10013214Y-10231167D01*
X-10003691Y-10193071D01*
X-9994167Y-10174024D01*
X-9984643Y-10164500D01*
X-9965595Y-10154976D01*
X-9775119Y-10154976D02*
X-9756072Y-10154976D01*
X-9737024Y-10164500D01*
X-9727500Y-10174024D01*
X-9717976Y-10193071D01*
X-9708452Y-10231167D01*
X-9708452Y-10278786D01*
X-9717976Y-10316881D01*
X-9727500Y-10335929D01*
X-9737024Y-10345452D01*
X-9756072Y-10354976D01*
X-9775119Y-10354976D01*
X-9794167Y-10345452D01*
X-9803691Y-10335929D01*
X-9813214Y-10316881D01*
X-9822738Y-10278786D01*
X-9822738Y-10231167D01*
X-9813214Y-10193071D01*
X-9803691Y-10174024D01*
X-9794167Y-10164500D01*
X-9775119Y-10154976D01*
X-9622738Y-10354976D02*
X-9622738Y-10221643D01*
X-9622738Y-10240690D02*
X-9613214Y-10231167D01*
X-9594167Y-10221643D01*
X-9565595Y-10221643D01*
X-9546548Y-10231167D01*
X-9537024Y-10250214D01*
X-9537024Y-10354976D01*
X-9537024Y-10250214D02*
X-9527500Y-10231167D01*
X-9508452Y-10221643D01*
X-9479881Y-10221643D01*
X-9460833Y-10231167D01*
X-9451310Y-10250214D01*
X-9451310Y-10354976D01*
X-9356072Y-10354976D02*
X-9356072Y-10221643D01*
X-9356072Y-10240690D02*
X-9346548Y-10231167D01*
X-9327500Y-10221643D01*
X-9298929Y-10221643D01*
X-9279881Y-10231167D01*
X-9270357Y-10250214D01*
X-9270357Y-10354976D01*
X-9270357Y-10250214D02*
X-9260833Y-10231167D01*
X-9241786Y-10221643D01*
X-9213214Y-10221643D01*
X-9194167Y-10231167D01*
X-9184643Y-10250214D01*
X-9184643Y-10354976D01*
X-8794167Y-10145452D02*
X-8965595Y-10402595D01*
X-8537024Y-10154976D02*
X-8517976Y-10154976D01*
X-8498929Y-10164500D01*
X-8489405Y-10174024D01*
X-8479881Y-10193071D01*
X-8470357Y-10231167D01*
X-8470357Y-10278786D01*
X-8479881Y-10316881D01*
X-8489405Y-10335929D01*
X-8498929Y-10345452D01*
X-8517976Y-10354976D01*
X-8537024Y-10354976D01*
X-8556072Y-10345452D01*
X-8565595Y-10335929D01*
X-8575119Y-10316881D01*
X-8584643Y-10278786D01*
X-8584643Y-10231167D01*
X-8575119Y-10193071D01*
X-8565595Y-10174024D01*
X-8556072Y-10164500D01*
X-8537024Y-10154976D01*
X-8384643Y-10335929D02*
X-8375119Y-10345452D01*
X-8384643Y-10354976D01*
X-8394167Y-10345452D01*
X-8384643Y-10335929D01*
X-8384643Y-10354976D01*
X-8251310Y-10154976D02*
X-8232262Y-10154976D01*
X-8213214Y-10164500D01*
X-8203690Y-10174024D01*
X-8194167Y-10193071D01*
X-8184643Y-10231167D01*
X-8184643Y-10278786D01*
X-8194167Y-10316881D01*
X-8203690Y-10335929D01*
X-8213214Y-10345452D01*
X-8232262Y-10354976D01*
X-8251310Y-10354976D01*
X-8270357Y-10345452D01*
X-8279881Y-10335929D01*
X-8289405Y-10316881D01*
X-8298929Y-10278786D01*
X-8298929Y-10231167D01*
X-8289405Y-10193071D01*
X-8279881Y-10174024D01*
X-8270357Y-10164500D01*
X-8251310Y-10154976D01*
X-8117976Y-10154976D02*
X-7994167Y-10154976D01*
X-8060833Y-10231167D01*
X-8032262Y-10231167D01*
X-8013214Y-10240690D01*
X-8003690Y-10250214D01*
X-7994167Y-10269262D01*
X-7994167Y-10316881D01*
X-8003690Y-10335929D01*
X-8013214Y-10345452D01*
X-8032262Y-10354976D01*
X-8089405Y-10354976D01*
X-8108452Y-10345452D01*
X-8117976Y-10335929D01*
X-7898929Y-10354976D02*
X-7860833Y-10354976D01*
X-7841786Y-10345452D01*
X-7832262Y-10335929D01*
X-7813214Y-10307357D01*
X-7803690Y-10269262D01*
X-7803690Y-10193071D01*
X-7813214Y-10174024D01*
X-7822738Y-10164500D01*
X-7841786Y-10154976D01*
X-7879881Y-10154976D01*
X-7898929Y-10164500D01*
X-7908452Y-10174024D01*
X-7917976Y-10193071D01*
X-7917976Y-10240690D01*
X-7908452Y-10259738D01*
X-7898929Y-10269262D01*
X-7879881Y-10278786D01*
X-7841786Y-10278786D01*
X-7822738Y-10269262D01*
X-7813214Y-10259738D01*
X-7803690Y-10240690D01*
X-7632262Y-10221643D02*
X-7632262Y-10354976D01*
X-7679881Y-10145452D02*
X-7727500Y-10288310D01*
X-7603690Y-10288310D01*
X-7537024Y-10154976D02*
X-7537024Y-10193071D01*
X-7460833Y-10154976D02*
X-7460833Y-10193071D01*
X-7165595Y-10431167D02*
X-7175119Y-10421643D01*
X-7194167Y-10393071D01*
X-7203690Y-10374024D01*
X-7213214Y-10345452D01*
X-7222738Y-10297833D01*
X-7222738Y-10259738D01*
X-7213214Y-10212119D01*
X-7203690Y-10183548D01*
X-7194167Y-10164500D01*
X-7175119Y-10135929D01*
X-7165595Y-10126405D01*
X-6984643Y-10354976D02*
X-7098929Y-10354976D01*
X-7041786Y-10354976D02*
X-7041786Y-10154976D01*
X-7060833Y-10183548D01*
X-7079881Y-10202595D01*
X-7098929Y-10212119D01*
X-6813214Y-10221643D02*
X-6813214Y-10354976D01*
X-6860833Y-10145452D02*
X-6908452Y-10288310D01*
X-6784643Y-10288310D01*
X-6556071Y-10354976D02*
X-6556071Y-10154976D01*
X-6470357Y-10354976D02*
X-6470357Y-10250214D01*
X-6479881Y-10231167D01*
X-6498929Y-10221643D01*
X-6527500Y-10221643D01*
X-6546548Y-10231167D01*
X-6556071Y-10240690D01*
X-6346548Y-10354976D02*
X-6365595Y-10345452D01*
X-6375119Y-10335929D01*
X-6384643Y-10316881D01*
X-6384643Y-10259738D01*
X-6375119Y-10240690D01*
X-6365595Y-10231167D01*
X-6346548Y-10221643D01*
X-6317976Y-10221643D01*
X-6298929Y-10231167D01*
X-6289405Y-10240690D01*
X-6279881Y-10259738D01*
X-6279881Y-10316881D01*
X-6289405Y-10335929D01*
X-6298929Y-10345452D01*
X-6317976Y-10354976D01*
X-6346548Y-10354976D01*
X-6165595Y-10354976D02*
X-6184643Y-10345452D01*
X-6194167Y-10326405D01*
X-6194167Y-10154976D01*
X-6013214Y-10345452D02*
X-6032262Y-10354976D01*
X-6070357Y-10354976D01*
X-6089405Y-10345452D01*
X-6098929Y-10326405D01*
X-6098929Y-10250214D01*
X-6089405Y-10231167D01*
X-6070357Y-10221643D01*
X-6032262Y-10221643D01*
X-6013214Y-10231167D01*
X-6003690Y-10250214D01*
X-6003690Y-10269262D01*
X-6098929Y-10288310D01*
X-5927500Y-10345452D02*
X-5908452Y-10354976D01*
X-5870357Y-10354976D01*
X-5851310Y-10345452D01*
X-5841786Y-10326405D01*
X-5841786Y-10316881D01*
X-5851310Y-10297833D01*
X-5870357Y-10288310D01*
X-5898929Y-10288310D01*
X-5917976Y-10278786D01*
X-5927500Y-10259738D01*
X-5927500Y-10250214D01*
X-5917976Y-10231167D01*
X-5898929Y-10221643D01*
X-5870357Y-10221643D01*
X-5851310Y-10231167D01*
X-5775119Y-10431167D02*
X-5765595Y-10421643D01*
X-5746548Y-10393071D01*
X-5737024Y-10374024D01*
X-5727500Y-10345452D01*
X-5717976Y-10297833D01*
X-5717976Y-10259738D01*
X-5727500Y-10212119D01*
X-5737024Y-10183548D01*
X-5746548Y-10164500D01*
X-5765595Y-10135929D01*
X-5775119Y-10126405D01*
M02*
