%FSLAX45Y45*%
G04 Gerber Fmt 4.5, Leading zero omitted, Abs format (unit mm)*
G04 Created by KiCad (PCBNEW (6.0.4-0)) date 2022-03-28 13:42:37*
%MOMM*%
%LPD*%
G01*
G04 APERTURE LIST*
%TA.AperFunction,Profile*%
%ADD10C,0.120000*%
%TD*%
%ADD11C,0.200000*%
G04 APERTURE END LIST*
D10*
X15938500Y-8636000D02*
X12001500Y-8636000D01*
X11874500Y-8509000D02*
X11874500Y-4572000D01*
X16065500Y-4572000D02*
G75*
G03*
X15938500Y-4445000I-127000J0D01*
G01*
X11874500Y-8509000D02*
G75*
G03*
X12001500Y-8636000I127000J0D01*
G01*
X15938500Y-8636000D02*
G75*
G03*
X16065500Y-8509000I0J127000D01*
G01*
X12001500Y-4445000D02*
G75*
G03*
X11874500Y-4572000I0J-127000D01*
G01*
X12001500Y-4445000D02*
X15938500Y-4445000D01*
X16065500Y-4572000D02*
X16065500Y-8509000D01*
D11*
X12126119Y-8952476D02*
X12126119Y-8752476D01*
X12173738Y-8752476D01*
X12202309Y-8762000D01*
X12221357Y-8781048D01*
X12230881Y-8800095D01*
X12240405Y-8838190D01*
X12240405Y-8866762D01*
X12230881Y-8904857D01*
X12221357Y-8923905D01*
X12202309Y-8942952D01*
X12173738Y-8952476D01*
X12126119Y-8952476D01*
X12326119Y-8952476D02*
X12326119Y-8819143D01*
X12326119Y-8857238D02*
X12335643Y-8838190D01*
X12345167Y-8828667D01*
X12364214Y-8819143D01*
X12383262Y-8819143D01*
X12449928Y-8952476D02*
X12449928Y-8819143D01*
X12449928Y-8752476D02*
X12440405Y-8762000D01*
X12449928Y-8771524D01*
X12459452Y-8762000D01*
X12449928Y-8752476D01*
X12449928Y-8771524D01*
X12573738Y-8952476D02*
X12554690Y-8942952D01*
X12545167Y-8923905D01*
X12545167Y-8752476D01*
X12678500Y-8952476D02*
X12659452Y-8942952D01*
X12649928Y-8923905D01*
X12649928Y-8752476D01*
X12907071Y-8952476D02*
X12907071Y-8752476D01*
X12973738Y-8895333D01*
X13040405Y-8752476D01*
X13040405Y-8952476D01*
X13221357Y-8952476D02*
X13221357Y-8847714D01*
X13211833Y-8828667D01*
X13192786Y-8819143D01*
X13154690Y-8819143D01*
X13135643Y-8828667D01*
X13221357Y-8942952D02*
X13202309Y-8952476D01*
X13154690Y-8952476D01*
X13135643Y-8942952D01*
X13126119Y-8923905D01*
X13126119Y-8904857D01*
X13135643Y-8885810D01*
X13154690Y-8876286D01*
X13202309Y-8876286D01*
X13221357Y-8866762D01*
X13316595Y-8819143D02*
X13316595Y-9019143D01*
X13316595Y-8828667D02*
X13335643Y-8819143D01*
X13373738Y-8819143D01*
X13392786Y-8828667D01*
X13402309Y-8838190D01*
X13411833Y-8857238D01*
X13411833Y-8914381D01*
X13402309Y-8933429D01*
X13392786Y-8942952D01*
X13373738Y-8952476D01*
X13335643Y-8952476D01*
X13316595Y-8942952D01*
X13497548Y-8933429D02*
X13507071Y-8942952D01*
X13497548Y-8952476D01*
X13488024Y-8942952D01*
X13497548Y-8933429D01*
X13497548Y-8952476D01*
X13497548Y-8828667D02*
X13507071Y-8838190D01*
X13497548Y-8847714D01*
X13488024Y-8838190D01*
X13497548Y-8828667D01*
X13497548Y-8847714D01*
M02*
