%TF.GenerationSoftware,KiCad,Pcbnew,(6.0.4-0)*%
%TF.CreationDate,2022-03-28T13:42:25+08:00*%
%TF.ProjectId,Pragmatic,50726167-6d61-4746-9963-2e6b69636164,V3*%
%TF.SameCoordinates,Original*%
%TF.FileFunction,Soldermask,Top*%
%TF.FilePolarity,Negative*%
%FSLAX46Y46*%
G04 Gerber Fmt 4.6, Leading zero omitted, Abs format (unit mm)*
G04 Created by KiCad (PCBNEW (6.0.4-0)) date 2022-03-28 13:42:25*
%MOMM*%
%LPD*%
G01*
G04 APERTURE LIST*
G04 Aperture macros list*
%AMRoundRect*
0 Rectangle with rounded corners*
0 $1 Rounding radius*
0 $2 $3 $4 $5 $6 $7 $8 $9 X,Y pos of 4 corners*
0 Add a 4 corners polygon primitive as box body*
4,1,4,$2,$3,$4,$5,$6,$7,$8,$9,$2,$3,0*
0 Add four circle primitives for the rounded corners*
1,1,$1+$1,$2,$3*
1,1,$1+$1,$4,$5*
1,1,$1+$1,$6,$7*
1,1,$1+$1,$8,$9*
0 Add four rect primitives between the rounded corners*
20,1,$1+$1,$2,$3,$4,$5,0*
20,1,$1+$1,$4,$5,$6,$7,0*
20,1,$1+$1,$6,$7,$8,$9,0*
20,1,$1+$1,$8,$9,$2,$3,0*%
G04 Aperture macros list end*
%ADD10C,0.200000*%
%ADD11C,0.010000*%
%ADD12RoundRect,0.250000X-0.600000X-0.600000X0.600000X-0.600000X0.600000X0.600000X-0.600000X0.600000X0*%
%ADD13C,1.700000*%
%ADD14RoundRect,0.250000X0.600000X0.600000X-0.600000X0.600000X-0.600000X-0.600000X0.600000X-0.600000X0*%
%ADD15C,2.000000*%
%ADD16R,1.752600X1.752600*%
%ADD17C,1.752600*%
%ADD18C,6.400000*%
G04 APERTURE END LIST*
D10*
X134236562Y-85133571D02*
X134424062Y-83633571D01*
X134995491Y-83633571D01*
X135129419Y-83705000D01*
X135191919Y-83776428D01*
X135245491Y-83919285D01*
X135218705Y-84133571D01*
X135129419Y-84276428D01*
X135049062Y-84347857D01*
X134897276Y-84419285D01*
X134325848Y-84419285D01*
X135736562Y-85133571D02*
X135861562Y-84133571D01*
X135825848Y-84419285D02*
X135915133Y-84276428D01*
X135995491Y-84205000D01*
X136147276Y-84133571D01*
X136290133Y-84133571D01*
X137307991Y-85133571D02*
X137406205Y-84347857D01*
X137352633Y-84205000D01*
X137218705Y-84133571D01*
X136932991Y-84133571D01*
X136781205Y-84205000D01*
X137316919Y-85062142D02*
X137165133Y-85133571D01*
X136807991Y-85133571D01*
X136674062Y-85062142D01*
X136620491Y-84919285D01*
X136638348Y-84776428D01*
X136727633Y-84633571D01*
X136879419Y-84562142D01*
X137236562Y-84562142D01*
X137388348Y-84490714D01*
X138790133Y-84133571D02*
X138638348Y-85347857D01*
X138549062Y-85490714D01*
X138468705Y-85562142D01*
X138316919Y-85633571D01*
X138102633Y-85633571D01*
X137968705Y-85562142D01*
X138674062Y-85062142D02*
X138522276Y-85133571D01*
X138236562Y-85133571D01*
X138102633Y-85062142D01*
X138040133Y-84990714D01*
X137986562Y-84847857D01*
X138040133Y-84419285D01*
X138129419Y-84276428D01*
X138209776Y-84205000D01*
X138361562Y-84133571D01*
X138647276Y-84133571D01*
X138781205Y-84205000D01*
X139379419Y-85133571D02*
X139504419Y-84133571D01*
X139486562Y-84276428D02*
X139566919Y-84205000D01*
X139718705Y-84133571D01*
X139932991Y-84133571D01*
X140066919Y-84205000D01*
X140120491Y-84347857D01*
X140022276Y-85133571D01*
X140120491Y-84347857D02*
X140209776Y-84205000D01*
X140361562Y-84133571D01*
X140575848Y-84133571D01*
X140709776Y-84205000D01*
X140763348Y-84347857D01*
X140665133Y-85133571D01*
X142022276Y-85133571D02*
X142120491Y-84347857D01*
X142066919Y-84205000D01*
X141932991Y-84133571D01*
X141647276Y-84133571D01*
X141495491Y-84205000D01*
X142031205Y-85062142D02*
X141879419Y-85133571D01*
X141522276Y-85133571D01*
X141388348Y-85062142D01*
X141334776Y-84919285D01*
X141352633Y-84776428D01*
X141441919Y-84633571D01*
X141593705Y-84562142D01*
X141950848Y-84562142D01*
X142102633Y-84490714D01*
X142647276Y-84133571D02*
X143218705Y-84133571D01*
X142924062Y-83633571D02*
X142763348Y-84919285D01*
X142816919Y-85062142D01*
X142950848Y-85133571D01*
X143093705Y-85133571D01*
X143593705Y-85133571D02*
X143718705Y-84133571D01*
X143781205Y-83633571D02*
X143700848Y-83705000D01*
X143763348Y-83776428D01*
X143843705Y-83705000D01*
X143781205Y-83633571D01*
X143763348Y-83776428D01*
X144959776Y-85062142D02*
X144807991Y-85133571D01*
X144522276Y-85133571D01*
X144388348Y-85062142D01*
X144325848Y-84990714D01*
X144272276Y-84847857D01*
X144325848Y-84419285D01*
X144415133Y-84276428D01*
X144495491Y-84205000D01*
X144647276Y-84133571D01*
X144932991Y-84133571D01*
X145066919Y-84205000D01*
%TO.C,Logo1*%
G36*
X124969833Y-51488663D02*
G01*
X124972048Y-51526850D01*
X124973784Y-51584886D01*
X124974899Y-51658180D01*
X124975257Y-51735055D01*
X124975257Y-51995196D01*
X124929326Y-52041127D01*
X124897675Y-52069429D01*
X124869890Y-52080893D01*
X124831915Y-52080168D01*
X124816840Y-52078321D01*
X124769726Y-52072948D01*
X124730756Y-52069869D01*
X124721257Y-52069585D01*
X124689233Y-52071445D01*
X124643432Y-52076114D01*
X124625674Y-52078321D01*
X124582057Y-52081735D01*
X124552745Y-52074320D01*
X124523680Y-52051427D01*
X124513188Y-52041127D01*
X124467257Y-51995196D01*
X124467257Y-51508602D01*
X124504226Y-51491758D01*
X124536059Y-51479282D01*
X124554683Y-51474914D01*
X124559458Y-51488718D01*
X124563921Y-51527286D01*
X124567775Y-51586356D01*
X124570722Y-51661663D01*
X124572143Y-51725286D01*
X124576114Y-51975657D01*
X124610759Y-51980556D01*
X124642268Y-51977131D01*
X124657708Y-51966041D01*
X124662023Y-51945308D01*
X124665708Y-51901145D01*
X124668469Y-51839146D01*
X124670012Y-51764909D01*
X124670235Y-51726706D01*
X124670457Y-51506783D01*
X124716166Y-51490849D01*
X124748518Y-51480015D01*
X124766115Y-51474962D01*
X124766623Y-51474914D01*
X124768388Y-51488648D01*
X124770329Y-51526730D01*
X124772282Y-51584482D01*
X124774084Y-51657227D01*
X124775343Y-51725286D01*
X124779314Y-51975657D01*
X124866400Y-51975657D01*
X124870396Y-51747240D01*
X124874392Y-51518822D01*
X124916847Y-51496868D01*
X124948192Y-51481793D01*
X124966744Y-51474951D01*
X124967279Y-51474914D01*
X124969833Y-51488663D01*
G37*
D11*
X124969833Y-51488663D02*
X124972048Y-51526850D01*
X124973784Y-51584886D01*
X124974899Y-51658180D01*
X124975257Y-51735055D01*
X124975257Y-51995196D01*
X124929326Y-52041127D01*
X124897675Y-52069429D01*
X124869890Y-52080893D01*
X124831915Y-52080168D01*
X124816840Y-52078321D01*
X124769726Y-52072948D01*
X124730756Y-52069869D01*
X124721257Y-52069585D01*
X124689233Y-52071445D01*
X124643432Y-52076114D01*
X124625674Y-52078321D01*
X124582057Y-52081735D01*
X124552745Y-52074320D01*
X124523680Y-52051427D01*
X124513188Y-52041127D01*
X124467257Y-51995196D01*
X124467257Y-51508602D01*
X124504226Y-51491758D01*
X124536059Y-51479282D01*
X124554683Y-51474914D01*
X124559458Y-51488718D01*
X124563921Y-51527286D01*
X124567775Y-51586356D01*
X124570722Y-51661663D01*
X124572143Y-51725286D01*
X124576114Y-51975657D01*
X124610759Y-51980556D01*
X124642268Y-51977131D01*
X124657708Y-51966041D01*
X124662023Y-51945308D01*
X124665708Y-51901145D01*
X124668469Y-51839146D01*
X124670012Y-51764909D01*
X124670235Y-51726706D01*
X124670457Y-51506783D01*
X124716166Y-51490849D01*
X124748518Y-51480015D01*
X124766115Y-51474962D01*
X124766623Y-51474914D01*
X124768388Y-51488648D01*
X124770329Y-51526730D01*
X124772282Y-51584482D01*
X124774084Y-51657227D01*
X124775343Y-51725286D01*
X124779314Y-51975657D01*
X124866400Y-51975657D01*
X124870396Y-51747240D01*
X124874392Y-51518822D01*
X124916847Y-51496868D01*
X124948192Y-51481793D01*
X124966744Y-51474951D01*
X124967279Y-51474914D01*
X124969833Y-51488663D01*
G36*
X123293910Y-46772348D02*
G01*
X123372454Y-46772778D01*
X123429298Y-46773942D01*
X123468105Y-46776207D01*
X123492538Y-46779940D01*
X123506262Y-46785506D01*
X123512940Y-46793273D01*
X123516236Y-46803605D01*
X123516556Y-46804943D01*
X123521562Y-46829079D01*
X123530829Y-46876701D01*
X123543392Y-46942741D01*
X123558287Y-47022128D01*
X123574551Y-47109796D01*
X123575119Y-47112875D01*
X123591410Y-47198789D01*
X123606652Y-47274696D01*
X123619861Y-47336045D01*
X123630054Y-47378282D01*
X123636248Y-47396855D01*
X123636543Y-47397184D01*
X123654788Y-47406253D01*
X123692405Y-47421367D01*
X123741271Y-47439262D01*
X123741543Y-47439358D01*
X123803093Y-47462493D01*
X123875657Y-47491965D01*
X123944057Y-47521597D01*
X123947294Y-47523062D01*
X124058702Y-47573626D01*
X124305399Y-47405160D01*
X124381077Y-47353803D01*
X124449631Y-47307889D01*
X124507088Y-47270030D01*
X124549476Y-47242837D01*
X124572825Y-47228921D01*
X124575042Y-47227889D01*
X124592010Y-47232484D01*
X124623701Y-47254655D01*
X124671352Y-47295447D01*
X124736198Y-47355905D01*
X124802397Y-47420227D01*
X124866214Y-47483612D01*
X124923329Y-47541451D01*
X124970305Y-47590175D01*
X125003703Y-47626210D01*
X125020085Y-47645984D01*
X125020694Y-47647002D01*
X125022505Y-47660572D01*
X125015683Y-47682733D01*
X124998540Y-47716478D01*
X124969393Y-47764800D01*
X124926555Y-47830692D01*
X124869448Y-47915517D01*
X124818766Y-47990177D01*
X124773461Y-48057140D01*
X124736150Y-48112516D01*
X124709452Y-48152420D01*
X124695985Y-48172962D01*
X124695137Y-48174356D01*
X124696781Y-48194038D01*
X124709245Y-48232293D01*
X124730048Y-48281889D01*
X124737462Y-48297728D01*
X124769814Y-48368290D01*
X124804328Y-48448353D01*
X124832365Y-48517629D01*
X124852568Y-48569045D01*
X124868615Y-48608119D01*
X124877888Y-48628541D01*
X124879041Y-48630114D01*
X124896096Y-48632721D01*
X124936298Y-48639863D01*
X124994302Y-48650523D01*
X125064763Y-48663685D01*
X125142335Y-48678333D01*
X125221672Y-48693449D01*
X125297431Y-48708018D01*
X125364264Y-48721022D01*
X125416828Y-48731445D01*
X125449776Y-48738270D01*
X125457857Y-48740199D01*
X125466205Y-48744962D01*
X125472506Y-48755718D01*
X125477045Y-48776098D01*
X125480104Y-48809734D01*
X125481967Y-48860255D01*
X125482918Y-48931292D01*
X125483240Y-49026476D01*
X125483257Y-49065492D01*
X125483257Y-49382799D01*
X125407057Y-49397839D01*
X125364663Y-49405995D01*
X125301400Y-49417899D01*
X125224962Y-49432116D01*
X125143043Y-49447210D01*
X125120400Y-49451355D01*
X125044806Y-49466053D01*
X124978953Y-49480505D01*
X124928366Y-49493375D01*
X124898574Y-49503322D01*
X124893612Y-49506287D01*
X124881426Y-49527283D01*
X124863953Y-49567967D01*
X124844577Y-49620322D01*
X124840734Y-49631600D01*
X124815339Y-49701523D01*
X124783817Y-49780418D01*
X124752969Y-49851266D01*
X124752817Y-49851595D01*
X124701447Y-49962733D01*
X124870399Y-50211253D01*
X125039352Y-50459772D01*
X124822429Y-50677058D01*
X124756819Y-50741726D01*
X124696979Y-50798733D01*
X124646267Y-50845033D01*
X124608046Y-50877584D01*
X124585675Y-50893343D01*
X124582466Y-50894343D01*
X124563626Y-50886469D01*
X124525180Y-50864578D01*
X124471330Y-50831267D01*
X124406276Y-50789131D01*
X124335940Y-50741943D01*
X124264555Y-50693810D01*
X124200908Y-50651928D01*
X124149041Y-50618871D01*
X124112995Y-50597218D01*
X124096867Y-50589543D01*
X124077189Y-50596037D01*
X124039875Y-50613150D01*
X123992621Y-50637326D01*
X123987612Y-50640013D01*
X123923977Y-50671927D01*
X123880341Y-50687579D01*
X123853202Y-50687745D01*
X123839057Y-50673204D01*
X123838975Y-50673000D01*
X123831905Y-50655779D01*
X123815042Y-50614899D01*
X123789695Y-50553525D01*
X123757171Y-50474819D01*
X123718778Y-50381947D01*
X123675822Y-50278072D01*
X123634222Y-50177502D01*
X123588504Y-50066516D01*
X123546526Y-49963703D01*
X123509548Y-49872215D01*
X123478827Y-49795201D01*
X123455622Y-49735815D01*
X123441190Y-49697209D01*
X123436743Y-49682800D01*
X123447896Y-49666272D01*
X123477069Y-49639930D01*
X123515971Y-49610887D01*
X123626757Y-49519039D01*
X123713351Y-49413759D01*
X123774716Y-49297266D01*
X123809815Y-49171776D01*
X123817608Y-49039507D01*
X123811943Y-48978457D01*
X123781078Y-48851795D01*
X123727920Y-48739941D01*
X123655767Y-48644001D01*
X123567917Y-48565076D01*
X123467665Y-48504270D01*
X123358310Y-48462687D01*
X123243147Y-48441428D01*
X123125475Y-48441599D01*
X123008590Y-48464301D01*
X122895789Y-48510638D01*
X122790369Y-48581713D01*
X122746368Y-48621911D01*
X122661979Y-48725129D01*
X122603222Y-48837925D01*
X122569704Y-48957010D01*
X122561035Y-49079095D01*
X122576823Y-49200893D01*
X122616678Y-49319116D01*
X122680207Y-49430475D01*
X122767021Y-49531684D01*
X122864029Y-49610887D01*
X122904437Y-49641162D01*
X122932982Y-49667219D01*
X122943257Y-49682825D01*
X122937877Y-49699843D01*
X122922575Y-49740500D01*
X122898612Y-49801642D01*
X122867244Y-49880119D01*
X122829732Y-49972780D01*
X122787333Y-50076472D01*
X122745663Y-50177526D01*
X122699690Y-50288607D01*
X122657107Y-50391541D01*
X122619221Y-50483165D01*
X122587340Y-50560316D01*
X122562771Y-50619831D01*
X122546820Y-50658544D01*
X122540910Y-50673000D01*
X122526948Y-50687685D01*
X122499940Y-50687642D01*
X122456413Y-50672099D01*
X122392890Y-50640284D01*
X122392388Y-50640013D01*
X122344560Y-50615323D01*
X122305897Y-50597338D01*
X122284095Y-50589614D01*
X122283133Y-50589543D01*
X122266721Y-50597378D01*
X122230487Y-50619165D01*
X122178474Y-50652328D01*
X122114725Y-50694291D01*
X122044060Y-50741943D01*
X121972116Y-50790191D01*
X121907274Y-50832151D01*
X121853735Y-50865227D01*
X121815697Y-50886821D01*
X121797533Y-50894343D01*
X121780808Y-50884457D01*
X121747180Y-50856826D01*
X121700010Y-50814495D01*
X121642658Y-50760505D01*
X121578484Y-50697899D01*
X121557497Y-50676983D01*
X121340499Y-50459623D01*
X121505668Y-50217220D01*
X121555864Y-50142781D01*
X121599919Y-50075972D01*
X121635362Y-50020665D01*
X121659719Y-49980729D01*
X121670522Y-49960036D01*
X121670838Y-49958563D01*
X121665143Y-49939058D01*
X121649826Y-49899822D01*
X121627537Y-49847430D01*
X121611893Y-49812355D01*
X121582641Y-49745201D01*
X121555094Y-49677358D01*
X121533737Y-49620034D01*
X121527935Y-49602572D01*
X121511452Y-49555938D01*
X121495340Y-49519905D01*
X121486490Y-49506287D01*
X121466960Y-49497952D01*
X121424334Y-49486137D01*
X121364145Y-49472181D01*
X121291922Y-49457422D01*
X121259600Y-49451355D01*
X121177522Y-49436273D01*
X121098795Y-49421669D01*
X121031109Y-49408980D01*
X120982160Y-49399642D01*
X120972943Y-49397839D01*
X120896743Y-49382799D01*
X120896743Y-49065492D01*
X120896914Y-48961154D01*
X120897616Y-48882213D01*
X120899134Y-48825038D01*
X120901749Y-48785999D01*
X120905746Y-48761465D01*
X120911409Y-48747805D01*
X120919020Y-48741389D01*
X120922143Y-48740199D01*
X120940978Y-48735980D01*
X120982588Y-48727562D01*
X121041630Y-48715961D01*
X121112757Y-48702195D01*
X121190625Y-48687280D01*
X121269887Y-48672232D01*
X121345198Y-48658069D01*
X121411213Y-48645806D01*
X121462587Y-48636461D01*
X121493975Y-48631050D01*
X121500959Y-48630114D01*
X121507285Y-48617596D01*
X121521290Y-48584246D01*
X121540355Y-48536377D01*
X121547634Y-48517629D01*
X121576996Y-48445195D01*
X121611571Y-48365170D01*
X121642537Y-48297728D01*
X121665323Y-48246159D01*
X121680482Y-48203785D01*
X121685542Y-48177834D01*
X121684736Y-48174356D01*
X121674041Y-48157936D01*
X121649620Y-48121417D01*
X121614095Y-48068687D01*
X121570087Y-48003635D01*
X121520217Y-47930151D01*
X121510356Y-47915645D01*
X121452492Y-47829704D01*
X121409956Y-47764261D01*
X121381054Y-47716304D01*
X121364090Y-47682820D01*
X121357367Y-47660795D01*
X121359190Y-47647217D01*
X121359236Y-47647131D01*
X121373586Y-47629297D01*
X121405323Y-47594817D01*
X121451010Y-47547268D01*
X121507204Y-47490222D01*
X121570468Y-47427255D01*
X121577602Y-47420227D01*
X121657330Y-47343020D01*
X121718857Y-47286330D01*
X121763421Y-47249110D01*
X121792257Y-47230315D01*
X121804958Y-47227889D01*
X121823494Y-47238471D01*
X121861961Y-47262916D01*
X121916386Y-47298612D01*
X121982798Y-47342947D01*
X122057225Y-47393311D01*
X122074601Y-47405160D01*
X122321297Y-47573626D01*
X122432706Y-47523062D01*
X122500457Y-47493595D01*
X122573183Y-47463959D01*
X122635703Y-47440330D01*
X122638457Y-47439358D01*
X122687360Y-47421457D01*
X122725057Y-47406320D01*
X122743425Y-47397210D01*
X122743456Y-47397184D01*
X122749285Y-47380717D01*
X122759192Y-47340219D01*
X122772195Y-47280242D01*
X122787309Y-47205340D01*
X122803552Y-47120064D01*
X122804881Y-47112875D01*
X122821175Y-47025014D01*
X122836133Y-46945260D01*
X122848791Y-46878681D01*
X122858186Y-46830347D01*
X122863354Y-46805325D01*
X122863444Y-46804943D01*
X122866589Y-46794299D01*
X122872704Y-46786262D01*
X122885453Y-46780467D01*
X122908500Y-46776547D01*
X122945509Y-46774135D01*
X123000144Y-46772865D01*
X123076067Y-46772371D01*
X123176944Y-46772286D01*
X123190000Y-46772286D01*
X123293910Y-46772348D01*
G37*
X123293910Y-46772348D02*
X123372454Y-46772778D01*
X123429298Y-46773942D01*
X123468105Y-46776207D01*
X123492538Y-46779940D01*
X123506262Y-46785506D01*
X123512940Y-46793273D01*
X123516236Y-46803605D01*
X123516556Y-46804943D01*
X123521562Y-46829079D01*
X123530829Y-46876701D01*
X123543392Y-46942741D01*
X123558287Y-47022128D01*
X123574551Y-47109796D01*
X123575119Y-47112875D01*
X123591410Y-47198789D01*
X123606652Y-47274696D01*
X123619861Y-47336045D01*
X123630054Y-47378282D01*
X123636248Y-47396855D01*
X123636543Y-47397184D01*
X123654788Y-47406253D01*
X123692405Y-47421367D01*
X123741271Y-47439262D01*
X123741543Y-47439358D01*
X123803093Y-47462493D01*
X123875657Y-47491965D01*
X123944057Y-47521597D01*
X123947294Y-47523062D01*
X124058702Y-47573626D01*
X124305399Y-47405160D01*
X124381077Y-47353803D01*
X124449631Y-47307889D01*
X124507088Y-47270030D01*
X124549476Y-47242837D01*
X124572825Y-47228921D01*
X124575042Y-47227889D01*
X124592010Y-47232484D01*
X124623701Y-47254655D01*
X124671352Y-47295447D01*
X124736198Y-47355905D01*
X124802397Y-47420227D01*
X124866214Y-47483612D01*
X124923329Y-47541451D01*
X124970305Y-47590175D01*
X125003703Y-47626210D01*
X125020085Y-47645984D01*
X125020694Y-47647002D01*
X125022505Y-47660572D01*
X125015683Y-47682733D01*
X124998540Y-47716478D01*
X124969393Y-47764800D01*
X124926555Y-47830692D01*
X124869448Y-47915517D01*
X124818766Y-47990177D01*
X124773461Y-48057140D01*
X124736150Y-48112516D01*
X124709452Y-48152420D01*
X124695985Y-48172962D01*
X124695137Y-48174356D01*
X124696781Y-48194038D01*
X124709245Y-48232293D01*
X124730048Y-48281889D01*
X124737462Y-48297728D01*
X124769814Y-48368290D01*
X124804328Y-48448353D01*
X124832365Y-48517629D01*
X124852568Y-48569045D01*
X124868615Y-48608119D01*
X124877888Y-48628541D01*
X124879041Y-48630114D01*
X124896096Y-48632721D01*
X124936298Y-48639863D01*
X124994302Y-48650523D01*
X125064763Y-48663685D01*
X125142335Y-48678333D01*
X125221672Y-48693449D01*
X125297431Y-48708018D01*
X125364264Y-48721022D01*
X125416828Y-48731445D01*
X125449776Y-48738270D01*
X125457857Y-48740199D01*
X125466205Y-48744962D01*
X125472506Y-48755718D01*
X125477045Y-48776098D01*
X125480104Y-48809734D01*
X125481967Y-48860255D01*
X125482918Y-48931292D01*
X125483240Y-49026476D01*
X125483257Y-49065492D01*
X125483257Y-49382799D01*
X125407057Y-49397839D01*
X125364663Y-49405995D01*
X125301400Y-49417899D01*
X125224962Y-49432116D01*
X125143043Y-49447210D01*
X125120400Y-49451355D01*
X125044806Y-49466053D01*
X124978953Y-49480505D01*
X124928366Y-49493375D01*
X124898574Y-49503322D01*
X124893612Y-49506287D01*
X124881426Y-49527283D01*
X124863953Y-49567967D01*
X124844577Y-49620322D01*
X124840734Y-49631600D01*
X124815339Y-49701523D01*
X124783817Y-49780418D01*
X124752969Y-49851266D01*
X124752817Y-49851595D01*
X124701447Y-49962733D01*
X124870399Y-50211253D01*
X125039352Y-50459772D01*
X124822429Y-50677058D01*
X124756819Y-50741726D01*
X124696979Y-50798733D01*
X124646267Y-50845033D01*
X124608046Y-50877584D01*
X124585675Y-50893343D01*
X124582466Y-50894343D01*
X124563626Y-50886469D01*
X124525180Y-50864578D01*
X124471330Y-50831267D01*
X124406276Y-50789131D01*
X124335940Y-50741943D01*
X124264555Y-50693810D01*
X124200908Y-50651928D01*
X124149041Y-50618871D01*
X124112995Y-50597218D01*
X124096867Y-50589543D01*
X124077189Y-50596037D01*
X124039875Y-50613150D01*
X123992621Y-50637326D01*
X123987612Y-50640013D01*
X123923977Y-50671927D01*
X123880341Y-50687579D01*
X123853202Y-50687745D01*
X123839057Y-50673204D01*
X123838975Y-50673000D01*
X123831905Y-50655779D01*
X123815042Y-50614899D01*
X123789695Y-50553525D01*
X123757171Y-50474819D01*
X123718778Y-50381947D01*
X123675822Y-50278072D01*
X123634222Y-50177502D01*
X123588504Y-50066516D01*
X123546526Y-49963703D01*
X123509548Y-49872215D01*
X123478827Y-49795201D01*
X123455622Y-49735815D01*
X123441190Y-49697209D01*
X123436743Y-49682800D01*
X123447896Y-49666272D01*
X123477069Y-49639930D01*
X123515971Y-49610887D01*
X123626757Y-49519039D01*
X123713351Y-49413759D01*
X123774716Y-49297266D01*
X123809815Y-49171776D01*
X123817608Y-49039507D01*
X123811943Y-48978457D01*
X123781078Y-48851795D01*
X123727920Y-48739941D01*
X123655767Y-48644001D01*
X123567917Y-48565076D01*
X123467665Y-48504270D01*
X123358310Y-48462687D01*
X123243147Y-48441428D01*
X123125475Y-48441599D01*
X123008590Y-48464301D01*
X122895789Y-48510638D01*
X122790369Y-48581713D01*
X122746368Y-48621911D01*
X122661979Y-48725129D01*
X122603222Y-48837925D01*
X122569704Y-48957010D01*
X122561035Y-49079095D01*
X122576823Y-49200893D01*
X122616678Y-49319116D01*
X122680207Y-49430475D01*
X122767021Y-49531684D01*
X122864029Y-49610887D01*
X122904437Y-49641162D01*
X122932982Y-49667219D01*
X122943257Y-49682825D01*
X122937877Y-49699843D01*
X122922575Y-49740500D01*
X122898612Y-49801642D01*
X122867244Y-49880119D01*
X122829732Y-49972780D01*
X122787333Y-50076472D01*
X122745663Y-50177526D01*
X122699690Y-50288607D01*
X122657107Y-50391541D01*
X122619221Y-50483165D01*
X122587340Y-50560316D01*
X122562771Y-50619831D01*
X122546820Y-50658544D01*
X122540910Y-50673000D01*
X122526948Y-50687685D01*
X122499940Y-50687642D01*
X122456413Y-50672099D01*
X122392890Y-50640284D01*
X122392388Y-50640013D01*
X122344560Y-50615323D01*
X122305897Y-50597338D01*
X122284095Y-50589614D01*
X122283133Y-50589543D01*
X122266721Y-50597378D01*
X122230487Y-50619165D01*
X122178474Y-50652328D01*
X122114725Y-50694291D01*
X122044060Y-50741943D01*
X121972116Y-50790191D01*
X121907274Y-50832151D01*
X121853735Y-50865227D01*
X121815697Y-50886821D01*
X121797533Y-50894343D01*
X121780808Y-50884457D01*
X121747180Y-50856826D01*
X121700010Y-50814495D01*
X121642658Y-50760505D01*
X121578484Y-50697899D01*
X121557497Y-50676983D01*
X121340499Y-50459623D01*
X121505668Y-50217220D01*
X121555864Y-50142781D01*
X121599919Y-50075972D01*
X121635362Y-50020665D01*
X121659719Y-49980729D01*
X121670522Y-49960036D01*
X121670838Y-49958563D01*
X121665143Y-49939058D01*
X121649826Y-49899822D01*
X121627537Y-49847430D01*
X121611893Y-49812355D01*
X121582641Y-49745201D01*
X121555094Y-49677358D01*
X121533737Y-49620034D01*
X121527935Y-49602572D01*
X121511452Y-49555938D01*
X121495340Y-49519905D01*
X121486490Y-49506287D01*
X121466960Y-49497952D01*
X121424334Y-49486137D01*
X121364145Y-49472181D01*
X121291922Y-49457422D01*
X121259600Y-49451355D01*
X121177522Y-49436273D01*
X121098795Y-49421669D01*
X121031109Y-49408980D01*
X120982160Y-49399642D01*
X120972943Y-49397839D01*
X120896743Y-49382799D01*
X120896743Y-49065492D01*
X120896914Y-48961154D01*
X120897616Y-48882213D01*
X120899134Y-48825038D01*
X120901749Y-48785999D01*
X120905746Y-48761465D01*
X120911409Y-48747805D01*
X120919020Y-48741389D01*
X120922143Y-48740199D01*
X120940978Y-48735980D01*
X120982588Y-48727562D01*
X121041630Y-48715961D01*
X121112757Y-48702195D01*
X121190625Y-48687280D01*
X121269887Y-48672232D01*
X121345198Y-48658069D01*
X121411213Y-48645806D01*
X121462587Y-48636461D01*
X121493975Y-48631050D01*
X121500959Y-48630114D01*
X121507285Y-48617596D01*
X121521290Y-48584246D01*
X121540355Y-48536377D01*
X121547634Y-48517629D01*
X121576996Y-48445195D01*
X121611571Y-48365170D01*
X121642537Y-48297728D01*
X121665323Y-48246159D01*
X121680482Y-48203785D01*
X121685542Y-48177834D01*
X121684736Y-48174356D01*
X121674041Y-48157936D01*
X121649620Y-48121417D01*
X121614095Y-48068687D01*
X121570087Y-48003635D01*
X121520217Y-47930151D01*
X121510356Y-47915645D01*
X121452492Y-47829704D01*
X121409956Y-47764261D01*
X121381054Y-47716304D01*
X121364090Y-47682820D01*
X121357367Y-47660795D01*
X121359190Y-47647217D01*
X121359236Y-47647131D01*
X121373586Y-47629297D01*
X121405323Y-47594817D01*
X121451010Y-47547268D01*
X121507204Y-47490222D01*
X121570468Y-47427255D01*
X121577602Y-47420227D01*
X121657330Y-47343020D01*
X121718857Y-47286330D01*
X121763421Y-47249110D01*
X121792257Y-47230315D01*
X121804958Y-47227889D01*
X121823494Y-47238471D01*
X121861961Y-47262916D01*
X121916386Y-47298612D01*
X121982798Y-47342947D01*
X122057225Y-47393311D01*
X122074601Y-47405160D01*
X122321297Y-47573626D01*
X122432706Y-47523062D01*
X122500457Y-47493595D01*
X122573183Y-47463959D01*
X122635703Y-47440330D01*
X122638457Y-47439358D01*
X122687360Y-47421457D01*
X122725057Y-47406320D01*
X122743425Y-47397210D01*
X122743456Y-47397184D01*
X122749285Y-47380717D01*
X122759192Y-47340219D01*
X122772195Y-47280242D01*
X122787309Y-47205340D01*
X122803552Y-47120064D01*
X122804881Y-47112875D01*
X122821175Y-47025014D01*
X122836133Y-46945260D01*
X122848791Y-46878681D01*
X122858186Y-46830347D01*
X122863354Y-46805325D01*
X122863444Y-46804943D01*
X122866589Y-46794299D01*
X122872704Y-46786262D01*
X122885453Y-46780467D01*
X122908500Y-46776547D01*
X122945509Y-46774135D01*
X123000144Y-46772865D01*
X123076067Y-46772371D01*
X123176944Y-46772286D01*
X123190000Y-46772286D01*
X123293910Y-46772348D01*
G36*
X126058196Y-51625384D02*
G01*
X126071884Y-51576695D01*
X126094096Y-51540849D01*
X126126574Y-51512513D01*
X126140733Y-51503355D01*
X126205053Y-51479507D01*
X126275473Y-51478006D01*
X126343595Y-51496966D01*
X126401021Y-51534497D01*
X126428719Y-51568096D01*
X126450662Y-51629064D01*
X126452405Y-51677308D01*
X126448457Y-51741816D01*
X126299686Y-51806934D01*
X126227349Y-51840202D01*
X126180084Y-51866964D01*
X126155507Y-51890144D01*
X126151237Y-51912667D01*
X126164889Y-51937455D01*
X126179943Y-51953886D01*
X126223746Y-51980235D01*
X126271389Y-51982081D01*
X126315145Y-51961546D01*
X126347289Y-51920752D01*
X126353038Y-51906347D01*
X126380576Y-51861356D01*
X126412258Y-51842182D01*
X126455714Y-51825779D01*
X126455714Y-51887966D01*
X126451872Y-51930283D01*
X126436823Y-51965969D01*
X126405280Y-52006943D01*
X126400592Y-52012267D01*
X126365506Y-52048720D01*
X126335347Y-52068283D01*
X126297615Y-52077283D01*
X126266335Y-52080230D01*
X126210385Y-52080965D01*
X126170555Y-52071660D01*
X126145708Y-52057846D01*
X126106656Y-52027467D01*
X126079625Y-51994613D01*
X126062517Y-51953294D01*
X126053238Y-51897521D01*
X126049693Y-51821305D01*
X126049410Y-51782622D01*
X126050372Y-51736247D01*
X126138007Y-51736247D01*
X126139023Y-51761126D01*
X126141556Y-51765200D01*
X126158274Y-51759665D01*
X126194249Y-51745017D01*
X126242331Y-51724190D01*
X126252386Y-51719714D01*
X126313152Y-51688814D01*
X126346632Y-51661657D01*
X126353990Y-51636220D01*
X126336391Y-51610481D01*
X126321856Y-51599109D01*
X126269410Y-51576364D01*
X126220322Y-51580122D01*
X126179227Y-51607884D01*
X126150758Y-51657152D01*
X126141631Y-51696257D01*
X126138007Y-51736247D01*
X126050372Y-51736247D01*
X126051285Y-51692249D01*
X126058196Y-51625384D01*
G37*
X126058196Y-51625384D02*
X126071884Y-51576695D01*
X126094096Y-51540849D01*
X126126574Y-51512513D01*
X126140733Y-51503355D01*
X126205053Y-51479507D01*
X126275473Y-51478006D01*
X126343595Y-51496966D01*
X126401021Y-51534497D01*
X126428719Y-51568096D01*
X126450662Y-51629064D01*
X126452405Y-51677308D01*
X126448457Y-51741816D01*
X126299686Y-51806934D01*
X126227349Y-51840202D01*
X126180084Y-51866964D01*
X126155507Y-51890144D01*
X126151237Y-51912667D01*
X126164889Y-51937455D01*
X126179943Y-51953886D01*
X126223746Y-51980235D01*
X126271389Y-51982081D01*
X126315145Y-51961546D01*
X126347289Y-51920752D01*
X126353038Y-51906347D01*
X126380576Y-51861356D01*
X126412258Y-51842182D01*
X126455714Y-51825779D01*
X126455714Y-51887966D01*
X126451872Y-51930283D01*
X126436823Y-51965969D01*
X126405280Y-52006943D01*
X126400592Y-52012267D01*
X126365506Y-52048720D01*
X126335347Y-52068283D01*
X126297615Y-52077283D01*
X126266335Y-52080230D01*
X126210385Y-52080965D01*
X126170555Y-52071660D01*
X126145708Y-52057846D01*
X126106656Y-52027467D01*
X126079625Y-51994613D01*
X126062517Y-51953294D01*
X126053238Y-51897521D01*
X126049693Y-51821305D01*
X126049410Y-51782622D01*
X126050372Y-51736247D01*
X126138007Y-51736247D01*
X126139023Y-51761126D01*
X126141556Y-51765200D01*
X126158274Y-51759665D01*
X126194249Y-51745017D01*
X126242331Y-51724190D01*
X126252386Y-51719714D01*
X126313152Y-51688814D01*
X126346632Y-51661657D01*
X126353990Y-51636220D01*
X126336391Y-51610481D01*
X126321856Y-51599109D01*
X126269410Y-51576364D01*
X126220322Y-51580122D01*
X126179227Y-51607884D01*
X126150758Y-51657152D01*
X126141631Y-51696257D01*
X126138007Y-51736247D01*
X126050372Y-51736247D01*
X126051285Y-51692249D01*
X126058196Y-51625384D01*
G36*
X125334876Y-51486335D02*
G01*
X125376667Y-51505344D01*
X125409469Y-51528378D01*
X125433503Y-51554133D01*
X125450097Y-51587358D01*
X125460577Y-51632800D01*
X125466271Y-51695207D01*
X125468507Y-51779327D01*
X125468743Y-51834721D01*
X125468743Y-52050826D01*
X125431774Y-52067670D01*
X125402656Y-52079981D01*
X125388231Y-52084514D01*
X125385472Y-52071025D01*
X125383282Y-52034653D01*
X125381942Y-51981542D01*
X125381657Y-51939372D01*
X125380434Y-51878447D01*
X125377136Y-51830115D01*
X125372321Y-51800518D01*
X125368496Y-51794229D01*
X125342783Y-51800652D01*
X125302418Y-51817125D01*
X125255679Y-51839458D01*
X125210845Y-51863457D01*
X125176193Y-51884930D01*
X125160002Y-51899685D01*
X125159938Y-51899845D01*
X125161330Y-51927152D01*
X125173818Y-51953219D01*
X125195743Y-51974392D01*
X125227743Y-51981474D01*
X125255092Y-51980649D01*
X125293826Y-51980042D01*
X125314158Y-51989116D01*
X125326369Y-52013092D01*
X125327909Y-52017613D01*
X125333203Y-52051806D01*
X125319047Y-52072568D01*
X125282148Y-52082462D01*
X125242289Y-52084292D01*
X125170562Y-52070727D01*
X125133432Y-52051355D01*
X125087576Y-52005845D01*
X125063256Y-51949983D01*
X125061073Y-51890957D01*
X125081629Y-51835953D01*
X125112549Y-51801486D01*
X125143420Y-51782189D01*
X125191942Y-51757759D01*
X125248485Y-51732985D01*
X125257910Y-51729199D01*
X125320019Y-51701791D01*
X125355822Y-51677634D01*
X125367337Y-51653619D01*
X125356580Y-51626635D01*
X125338114Y-51605543D01*
X125294469Y-51579572D01*
X125246446Y-51577624D01*
X125202406Y-51597637D01*
X125170709Y-51637551D01*
X125166549Y-51647848D01*
X125142327Y-51685724D01*
X125106965Y-51713842D01*
X125062343Y-51736917D01*
X125062343Y-51671485D01*
X125064969Y-51631506D01*
X125076230Y-51599997D01*
X125101199Y-51566378D01*
X125125169Y-51540484D01*
X125162441Y-51503817D01*
X125191401Y-51484121D01*
X125222505Y-51476220D01*
X125257713Y-51474914D01*
X125334876Y-51486335D01*
G37*
X125334876Y-51486335D02*
X125376667Y-51505344D01*
X125409469Y-51528378D01*
X125433503Y-51554133D01*
X125450097Y-51587358D01*
X125460577Y-51632800D01*
X125466271Y-51695207D01*
X125468507Y-51779327D01*
X125468743Y-51834721D01*
X125468743Y-52050826D01*
X125431774Y-52067670D01*
X125402656Y-52079981D01*
X125388231Y-52084514D01*
X125385472Y-52071025D01*
X125383282Y-52034653D01*
X125381942Y-51981542D01*
X125381657Y-51939372D01*
X125380434Y-51878447D01*
X125377136Y-51830115D01*
X125372321Y-51800518D01*
X125368496Y-51794229D01*
X125342783Y-51800652D01*
X125302418Y-51817125D01*
X125255679Y-51839458D01*
X125210845Y-51863457D01*
X125176193Y-51884930D01*
X125160002Y-51899685D01*
X125159938Y-51899845D01*
X125161330Y-51927152D01*
X125173818Y-51953219D01*
X125195743Y-51974392D01*
X125227743Y-51981474D01*
X125255092Y-51980649D01*
X125293826Y-51980042D01*
X125314158Y-51989116D01*
X125326369Y-52013092D01*
X125327909Y-52017613D01*
X125333203Y-52051806D01*
X125319047Y-52072568D01*
X125282148Y-52082462D01*
X125242289Y-52084292D01*
X125170562Y-52070727D01*
X125133432Y-52051355D01*
X125087576Y-52005845D01*
X125063256Y-51949983D01*
X125061073Y-51890957D01*
X125081629Y-51835953D01*
X125112549Y-51801486D01*
X125143420Y-51782189D01*
X125191942Y-51757759D01*
X125248485Y-51732985D01*
X125257910Y-51729199D01*
X125320019Y-51701791D01*
X125355822Y-51677634D01*
X125367337Y-51653619D01*
X125356580Y-51626635D01*
X125338114Y-51605543D01*
X125294469Y-51579572D01*
X125246446Y-51577624D01*
X125202406Y-51597637D01*
X125170709Y-51637551D01*
X125166549Y-51647848D01*
X125142327Y-51685724D01*
X125106965Y-51713842D01*
X125062343Y-51736917D01*
X125062343Y-51671485D01*
X125064969Y-51631506D01*
X125076230Y-51599997D01*
X125101199Y-51566378D01*
X125125169Y-51540484D01*
X125162441Y-51503817D01*
X125191401Y-51484121D01*
X125222505Y-51476220D01*
X125257713Y-51474914D01*
X125334876Y-51486335D01*
G36*
X125842600Y-51488752D02*
G01*
X125859948Y-51496334D01*
X125901356Y-51529128D01*
X125936765Y-51576547D01*
X125958664Y-51627151D01*
X125962229Y-51652098D01*
X125950279Y-51686927D01*
X125924067Y-51705357D01*
X125895964Y-51716516D01*
X125883095Y-51718572D01*
X125876829Y-51703649D01*
X125864456Y-51671175D01*
X125859028Y-51656502D01*
X125828590Y-51605744D01*
X125784520Y-51580427D01*
X125728010Y-51581206D01*
X125723825Y-51582203D01*
X125693655Y-51596507D01*
X125671476Y-51624393D01*
X125656327Y-51669287D01*
X125647250Y-51734615D01*
X125643286Y-51823804D01*
X125642914Y-51871261D01*
X125642730Y-51946071D01*
X125641522Y-51997069D01*
X125638309Y-52029471D01*
X125632109Y-52048495D01*
X125621940Y-52059356D01*
X125606819Y-52067272D01*
X125605946Y-52067670D01*
X125576828Y-52079981D01*
X125562403Y-52084514D01*
X125560186Y-52070809D01*
X125558289Y-52032925D01*
X125556847Y-51975715D01*
X125555998Y-51904027D01*
X125555829Y-51851565D01*
X125556692Y-51750047D01*
X125560070Y-51673032D01*
X125567142Y-51616023D01*
X125579088Y-51574526D01*
X125597090Y-51544043D01*
X125622327Y-51520080D01*
X125647247Y-51503355D01*
X125707171Y-51481097D01*
X125776911Y-51476076D01*
X125842600Y-51488752D01*
G37*
X125842600Y-51488752D02*
X125859948Y-51496334D01*
X125901356Y-51529128D01*
X125936765Y-51576547D01*
X125958664Y-51627151D01*
X125962229Y-51652098D01*
X125950279Y-51686927D01*
X125924067Y-51705357D01*
X125895964Y-51716516D01*
X125883095Y-51718572D01*
X125876829Y-51703649D01*
X125864456Y-51671175D01*
X125859028Y-51656502D01*
X125828590Y-51605744D01*
X125784520Y-51580427D01*
X125728010Y-51581206D01*
X125723825Y-51582203D01*
X125693655Y-51596507D01*
X125671476Y-51624393D01*
X125656327Y-51669287D01*
X125647250Y-51734615D01*
X125643286Y-51823804D01*
X125642914Y-51871261D01*
X125642730Y-51946071D01*
X125641522Y-51997069D01*
X125638309Y-52029471D01*
X125632109Y-52048495D01*
X125621940Y-52059356D01*
X125606819Y-52067272D01*
X125605946Y-52067670D01*
X125576828Y-52079981D01*
X125562403Y-52084514D01*
X125560186Y-52070809D01*
X125558289Y-52032925D01*
X125556847Y-51975715D01*
X125555998Y-51904027D01*
X125555829Y-51851565D01*
X125556692Y-51750047D01*
X125560070Y-51673032D01*
X125567142Y-51616023D01*
X125579088Y-51574526D01*
X125597090Y-51544043D01*
X125622327Y-51520080D01*
X125647247Y-51503355D01*
X125707171Y-51481097D01*
X125776911Y-51476076D01*
X125842600Y-51488752D01*
G36*
X123974726Y-51620086D02*
G01*
X123997135Y-51568600D01*
X124032124Y-51528443D01*
X124059375Y-51507861D01*
X124108907Y-51485625D01*
X124166316Y-51475304D01*
X124219682Y-51478067D01*
X124249543Y-51489212D01*
X124261261Y-51492383D01*
X124269037Y-51480557D01*
X124274465Y-51448866D01*
X124278571Y-51400593D01*
X124283067Y-51346829D01*
X124289313Y-51314482D01*
X124300676Y-51295985D01*
X124320528Y-51283770D01*
X124333000Y-51278362D01*
X124380171Y-51258601D01*
X124380117Y-51595358D01*
X124379933Y-51703837D01*
X124379219Y-51787287D01*
X124377675Y-51849704D01*
X124375001Y-51895085D01*
X124370894Y-51927429D01*
X124365055Y-51950733D01*
X124357182Y-51968995D01*
X124351221Y-51979418D01*
X124301855Y-52035945D01*
X124239264Y-52071377D01*
X124170013Y-52084090D01*
X124100668Y-52072463D01*
X124059375Y-52051568D01*
X124016025Y-52015422D01*
X123986481Y-51971276D01*
X123968655Y-51913462D01*
X123960463Y-51836313D01*
X123959302Y-51779714D01*
X123959458Y-51775647D01*
X124060857Y-51775647D01*
X124061476Y-51840550D01*
X124064314Y-51883514D01*
X124070840Y-51911622D01*
X124082523Y-51931953D01*
X124096483Y-51947288D01*
X124143365Y-51976890D01*
X124193701Y-51979419D01*
X124241276Y-51954705D01*
X124244979Y-51951356D01*
X124260783Y-51933935D01*
X124270693Y-51913209D01*
X124276058Y-51882362D01*
X124278228Y-51834577D01*
X124278571Y-51781748D01*
X124277827Y-51715381D01*
X124274748Y-51671106D01*
X124268061Y-51642009D01*
X124256496Y-51621173D01*
X124247013Y-51610107D01*
X124202960Y-51582198D01*
X124152224Y-51578843D01*
X124103796Y-51600159D01*
X124094450Y-51608073D01*
X124078540Y-51625647D01*
X124068610Y-51646587D01*
X124063278Y-51677782D01*
X124061163Y-51726122D01*
X124060857Y-51775647D01*
X123959458Y-51775647D01*
X123962810Y-51688568D01*
X123974726Y-51620086D01*
G37*
X123974726Y-51620086D02*
X123997135Y-51568600D01*
X124032124Y-51528443D01*
X124059375Y-51507861D01*
X124108907Y-51485625D01*
X124166316Y-51475304D01*
X124219682Y-51478067D01*
X124249543Y-51489212D01*
X124261261Y-51492383D01*
X124269037Y-51480557D01*
X124274465Y-51448866D01*
X124278571Y-51400593D01*
X124283067Y-51346829D01*
X124289313Y-51314482D01*
X124300676Y-51295985D01*
X124320528Y-51283770D01*
X124333000Y-51278362D01*
X124380171Y-51258601D01*
X124380117Y-51595358D01*
X124379933Y-51703837D01*
X124379219Y-51787287D01*
X124377675Y-51849704D01*
X124375001Y-51895085D01*
X124370894Y-51927429D01*
X124365055Y-51950733D01*
X124357182Y-51968995D01*
X124351221Y-51979418D01*
X124301855Y-52035945D01*
X124239264Y-52071377D01*
X124170013Y-52084090D01*
X124100668Y-52072463D01*
X124059375Y-52051568D01*
X124016025Y-52015422D01*
X123986481Y-51971276D01*
X123968655Y-51913462D01*
X123960463Y-51836313D01*
X123959302Y-51779714D01*
X123959458Y-51775647D01*
X124060857Y-51775647D01*
X124061476Y-51840550D01*
X124064314Y-51883514D01*
X124070840Y-51911622D01*
X124082523Y-51931953D01*
X124096483Y-51947288D01*
X124143365Y-51976890D01*
X124193701Y-51979419D01*
X124241276Y-51954705D01*
X124244979Y-51951356D01*
X124260783Y-51933935D01*
X124270693Y-51913209D01*
X124276058Y-51882362D01*
X124278228Y-51834577D01*
X124278571Y-51781748D01*
X124277827Y-51715381D01*
X124274748Y-51671106D01*
X124268061Y-51642009D01*
X124256496Y-51621173D01*
X124247013Y-51610107D01*
X124202960Y-51582198D01*
X124152224Y-51578843D01*
X124103796Y-51600159D01*
X124094450Y-51608073D01*
X124078540Y-51625647D01*
X124068610Y-51646587D01*
X124063278Y-51677782D01*
X124061163Y-51726122D01*
X124060857Y-51775647D01*
X123959458Y-51775647D01*
X123962810Y-51688568D01*
X123974726Y-51620086D01*
G36*
X123719926Y-51479755D02*
G01*
X123785858Y-51504084D01*
X123839273Y-51547117D01*
X123860164Y-51577409D01*
X123882939Y-51632994D01*
X123882466Y-51673186D01*
X123858562Y-51700217D01*
X123849717Y-51704813D01*
X123811530Y-51719144D01*
X123792028Y-51715472D01*
X123785422Y-51691407D01*
X123785086Y-51678114D01*
X123772992Y-51629210D01*
X123741471Y-51594999D01*
X123697659Y-51578476D01*
X123648695Y-51582634D01*
X123608894Y-51604227D01*
X123595450Y-51616544D01*
X123585921Y-51631487D01*
X123579485Y-51654075D01*
X123575317Y-51689328D01*
X123572597Y-51742266D01*
X123570502Y-51817907D01*
X123569960Y-51841857D01*
X123567981Y-51923790D01*
X123565731Y-51981455D01*
X123562357Y-52019608D01*
X123557006Y-52043004D01*
X123548824Y-52056398D01*
X123536959Y-52064545D01*
X123529362Y-52068144D01*
X123497102Y-52080452D01*
X123478111Y-52084514D01*
X123471836Y-52070948D01*
X123468006Y-52029934D01*
X123466600Y-51960999D01*
X123467598Y-51863669D01*
X123467908Y-51848657D01*
X123470101Y-51759859D01*
X123472693Y-51695019D01*
X123476382Y-51649067D01*
X123481864Y-51616935D01*
X123489835Y-51593553D01*
X123500993Y-51573852D01*
X123506830Y-51565410D01*
X123540296Y-51528057D01*
X123577727Y-51499003D01*
X123582309Y-51496467D01*
X123649426Y-51476443D01*
X123719926Y-51479755D01*
G37*
X123719926Y-51479755D02*
X123785858Y-51504084D01*
X123839273Y-51547117D01*
X123860164Y-51577409D01*
X123882939Y-51632994D01*
X123882466Y-51673186D01*
X123858562Y-51700217D01*
X123849717Y-51704813D01*
X123811530Y-51719144D01*
X123792028Y-51715472D01*
X123785422Y-51691407D01*
X123785086Y-51678114D01*
X123772992Y-51629210D01*
X123741471Y-51594999D01*
X123697659Y-51578476D01*
X123648695Y-51582634D01*
X123608894Y-51604227D01*
X123595450Y-51616544D01*
X123585921Y-51631487D01*
X123579485Y-51654075D01*
X123575317Y-51689328D01*
X123572597Y-51742266D01*
X123570502Y-51817907D01*
X123569960Y-51841857D01*
X123567981Y-51923790D01*
X123565731Y-51981455D01*
X123562357Y-52019608D01*
X123557006Y-52043004D01*
X123548824Y-52056398D01*
X123536959Y-52064545D01*
X123529362Y-52068144D01*
X123497102Y-52080452D01*
X123478111Y-52084514D01*
X123471836Y-52070948D01*
X123468006Y-52029934D01*
X123466600Y-51960999D01*
X123467598Y-51863669D01*
X123467908Y-51848657D01*
X123470101Y-51759859D01*
X123472693Y-51695019D01*
X123476382Y-51649067D01*
X123481864Y-51616935D01*
X123489835Y-51593553D01*
X123500993Y-51573852D01*
X123506830Y-51565410D01*
X123540296Y-51528057D01*
X123577727Y-51499003D01*
X123582309Y-51496467D01*
X123649426Y-51476443D01*
X123719926Y-51479755D01*
G36*
X123229744Y-51480968D02*
G01*
X123286616Y-51502087D01*
X123287267Y-51502493D01*
X123322440Y-51528380D01*
X123348407Y-51558633D01*
X123366670Y-51598058D01*
X123378732Y-51651462D01*
X123386096Y-51723651D01*
X123390264Y-51819432D01*
X123390629Y-51833078D01*
X123395876Y-52038842D01*
X123351716Y-52061678D01*
X123319763Y-52077110D01*
X123300470Y-52084423D01*
X123299578Y-52084514D01*
X123296239Y-52071022D01*
X123293587Y-52034626D01*
X123291956Y-51981452D01*
X123291600Y-51938393D01*
X123291592Y-51868641D01*
X123288403Y-51824837D01*
X123277288Y-51803944D01*
X123253501Y-51802925D01*
X123212296Y-51818741D01*
X123150086Y-51847815D01*
X123104341Y-51871963D01*
X123080813Y-51892913D01*
X123073896Y-51915747D01*
X123073886Y-51916877D01*
X123085299Y-51956212D01*
X123119092Y-51977462D01*
X123170809Y-51980539D01*
X123208061Y-51980006D01*
X123227703Y-51990735D01*
X123239952Y-52016505D01*
X123247002Y-52049337D01*
X123236842Y-52067966D01*
X123233017Y-52070632D01*
X123197001Y-52081340D01*
X123146566Y-52082856D01*
X123094626Y-52075759D01*
X123057822Y-52062788D01*
X123006938Y-52019585D01*
X122978014Y-51959446D01*
X122972286Y-51912462D01*
X122976657Y-51870082D01*
X122992475Y-51835488D01*
X123023797Y-51804763D01*
X123074678Y-51773990D01*
X123149176Y-51739252D01*
X123153714Y-51737288D01*
X123220821Y-51706287D01*
X123262232Y-51680862D01*
X123279981Y-51658014D01*
X123276107Y-51634745D01*
X123252643Y-51608056D01*
X123245627Y-51601914D01*
X123198630Y-51578100D01*
X123149933Y-51579103D01*
X123107522Y-51602451D01*
X123079384Y-51645675D01*
X123076769Y-51654160D01*
X123051308Y-51695308D01*
X123019001Y-51715128D01*
X122972286Y-51734770D01*
X122972286Y-51683950D01*
X122986496Y-51610082D01*
X123028675Y-51542327D01*
X123050624Y-51519661D01*
X123100517Y-51490569D01*
X123163967Y-51477400D01*
X123229744Y-51480968D01*
G37*
X123229744Y-51480968D02*
X123286616Y-51502087D01*
X123287267Y-51502493D01*
X123322440Y-51528380D01*
X123348407Y-51558633D01*
X123366670Y-51598058D01*
X123378732Y-51651462D01*
X123386096Y-51723651D01*
X123390264Y-51819432D01*
X123390629Y-51833078D01*
X123395876Y-52038842D01*
X123351716Y-52061678D01*
X123319763Y-52077110D01*
X123300470Y-52084423D01*
X123299578Y-52084514D01*
X123296239Y-52071022D01*
X123293587Y-52034626D01*
X123291956Y-51981452D01*
X123291600Y-51938393D01*
X123291592Y-51868641D01*
X123288403Y-51824837D01*
X123277288Y-51803944D01*
X123253501Y-51802925D01*
X123212296Y-51818741D01*
X123150086Y-51847815D01*
X123104341Y-51871963D01*
X123080813Y-51892913D01*
X123073896Y-51915747D01*
X123073886Y-51916877D01*
X123085299Y-51956212D01*
X123119092Y-51977462D01*
X123170809Y-51980539D01*
X123208061Y-51980006D01*
X123227703Y-51990735D01*
X123239952Y-52016505D01*
X123247002Y-52049337D01*
X123236842Y-52067966D01*
X123233017Y-52070632D01*
X123197001Y-52081340D01*
X123146566Y-52082856D01*
X123094626Y-52075759D01*
X123057822Y-52062788D01*
X123006938Y-52019585D01*
X122978014Y-51959446D01*
X122972286Y-51912462D01*
X122976657Y-51870082D01*
X122992475Y-51835488D01*
X123023797Y-51804763D01*
X123074678Y-51773990D01*
X123149176Y-51739252D01*
X123153714Y-51737288D01*
X123220821Y-51706287D01*
X123262232Y-51680862D01*
X123279981Y-51658014D01*
X123276107Y-51634745D01*
X123252643Y-51608056D01*
X123245627Y-51601914D01*
X123198630Y-51578100D01*
X123149933Y-51579103D01*
X123107522Y-51602451D01*
X123079384Y-51645675D01*
X123076769Y-51654160D01*
X123051308Y-51695308D01*
X123019001Y-51715128D01*
X122972286Y-51734770D01*
X122972286Y-51683950D01*
X122986496Y-51610082D01*
X123028675Y-51542327D01*
X123050624Y-51519661D01*
X123100517Y-51490569D01*
X123163967Y-51477400D01*
X123229744Y-51480968D01*
G36*
X119927096Y-51638159D02*
G01*
X119932068Y-51601949D01*
X119940713Y-51575299D01*
X119954005Y-51551722D01*
X119956943Y-51547338D01*
X120006313Y-51488249D01*
X120060109Y-51453947D01*
X120125602Y-51440331D01*
X120147842Y-51439665D01*
X120231115Y-51451962D01*
X120299145Y-51487733D01*
X120349351Y-51545301D01*
X120367185Y-51582312D01*
X120381063Y-51637882D01*
X120388167Y-51708096D01*
X120388840Y-51784727D01*
X120383427Y-51859552D01*
X120372270Y-51924342D01*
X120355714Y-51970873D01*
X120350626Y-51978887D01*
X120290355Y-52038707D01*
X120218769Y-52074535D01*
X120141092Y-52085020D01*
X120062548Y-52068810D01*
X120040689Y-52059092D01*
X119998122Y-52029143D01*
X119960763Y-51989433D01*
X119957232Y-51984397D01*
X119942881Y-51960124D01*
X119933394Y-51934178D01*
X119927790Y-51900022D01*
X119925086Y-51851119D01*
X119924299Y-51780935D01*
X119924286Y-51765200D01*
X119924322Y-51760192D01*
X120069429Y-51760192D01*
X120070273Y-51826430D01*
X120073596Y-51870386D01*
X120080583Y-51898779D01*
X120092416Y-51918325D01*
X120098457Y-51924857D01*
X120133186Y-51949680D01*
X120166903Y-51948548D01*
X120200995Y-51927016D01*
X120221329Y-51904029D01*
X120233371Y-51870478D01*
X120240134Y-51817569D01*
X120240598Y-51811399D01*
X120241752Y-51715513D01*
X120229688Y-51644299D01*
X120204570Y-51598194D01*
X120166560Y-51577635D01*
X120152992Y-51576514D01*
X120117364Y-51582152D01*
X120092994Y-51601686D01*
X120078093Y-51639042D01*
X120070875Y-51698150D01*
X120069429Y-51760192D01*
X119924322Y-51760192D01*
X119924826Y-51690413D01*
X119927096Y-51638159D01*
G37*
X119927096Y-51638159D02*
X119932068Y-51601949D01*
X119940713Y-51575299D01*
X119954005Y-51551722D01*
X119956943Y-51547338D01*
X120006313Y-51488249D01*
X120060109Y-51453947D01*
X120125602Y-51440331D01*
X120147842Y-51439665D01*
X120231115Y-51451962D01*
X120299145Y-51487733D01*
X120349351Y-51545301D01*
X120367185Y-51582312D01*
X120381063Y-51637882D01*
X120388167Y-51708096D01*
X120388840Y-51784727D01*
X120383427Y-51859552D01*
X120372270Y-51924342D01*
X120355714Y-51970873D01*
X120350626Y-51978887D01*
X120290355Y-52038707D01*
X120218769Y-52074535D01*
X120141092Y-52085020D01*
X120062548Y-52068810D01*
X120040689Y-52059092D01*
X119998122Y-52029143D01*
X119960763Y-51989433D01*
X119957232Y-51984397D01*
X119942881Y-51960124D01*
X119933394Y-51934178D01*
X119927790Y-51900022D01*
X119925086Y-51851119D01*
X119924299Y-51780935D01*
X119924286Y-51765200D01*
X119924322Y-51760192D01*
X120069429Y-51760192D01*
X120070273Y-51826430D01*
X120073596Y-51870386D01*
X120080583Y-51898779D01*
X120092416Y-51918325D01*
X120098457Y-51924857D01*
X120133186Y-51949680D01*
X120166903Y-51948548D01*
X120200995Y-51927016D01*
X120221329Y-51904029D01*
X120233371Y-51870478D01*
X120240134Y-51817569D01*
X120240598Y-51811399D01*
X120241752Y-51715513D01*
X120229688Y-51644299D01*
X120204570Y-51598194D01*
X120166560Y-51577635D01*
X120152992Y-51576514D01*
X120117364Y-51582152D01*
X120092994Y-51601686D01*
X120078093Y-51639042D01*
X120070875Y-51698150D01*
X120069429Y-51760192D01*
X119924322Y-51760192D01*
X119924826Y-51690413D01*
X119927096Y-51638159D01*
G36*
X122565886Y-51381289D02*
G01*
X122570139Y-51440613D01*
X122575025Y-51475572D01*
X122581795Y-51490820D01*
X122591702Y-51491015D01*
X122594914Y-51489195D01*
X122637644Y-51476015D01*
X122693227Y-51476785D01*
X122749737Y-51490333D01*
X122785082Y-51507861D01*
X122821321Y-51535861D01*
X122847813Y-51567549D01*
X122865999Y-51607813D01*
X122877322Y-51661543D01*
X122883222Y-51733626D01*
X122885143Y-51828951D01*
X122885177Y-51847237D01*
X122885200Y-52052646D01*
X122839491Y-52068580D01*
X122807027Y-52079420D01*
X122789215Y-52084468D01*
X122788691Y-52084514D01*
X122786937Y-52070828D01*
X122785444Y-52033076D01*
X122784326Y-51976224D01*
X122783697Y-51905234D01*
X122783600Y-51862073D01*
X122783398Y-51776973D01*
X122782358Y-51715981D01*
X122779831Y-51674177D01*
X122775164Y-51646642D01*
X122767707Y-51628456D01*
X122756811Y-51614698D01*
X122750007Y-51608073D01*
X122703272Y-51581375D01*
X122652272Y-51579375D01*
X122606001Y-51601955D01*
X122597444Y-51610107D01*
X122584893Y-51625436D01*
X122576188Y-51643618D01*
X122570631Y-51669909D01*
X122567526Y-51709562D01*
X122566176Y-51767832D01*
X122565886Y-51848173D01*
X122565886Y-52052646D01*
X122520177Y-52068580D01*
X122487713Y-52079420D01*
X122469901Y-52084468D01*
X122469377Y-52084514D01*
X122468037Y-52070623D01*
X122466828Y-52031439D01*
X122465801Y-51970700D01*
X122465002Y-51892141D01*
X122464481Y-51799498D01*
X122464286Y-51696509D01*
X122464286Y-51299342D01*
X122511457Y-51279444D01*
X122558629Y-51259547D01*
X122565886Y-51381289D01*
G37*
X122565886Y-51381289D02*
X122570139Y-51440613D01*
X122575025Y-51475572D01*
X122581795Y-51490820D01*
X122591702Y-51491015D01*
X122594914Y-51489195D01*
X122637644Y-51476015D01*
X122693227Y-51476785D01*
X122749737Y-51490333D01*
X122785082Y-51507861D01*
X122821321Y-51535861D01*
X122847813Y-51567549D01*
X122865999Y-51607813D01*
X122877322Y-51661543D01*
X122883222Y-51733626D01*
X122885143Y-51828951D01*
X122885177Y-51847237D01*
X122885200Y-52052646D01*
X122839491Y-52068580D01*
X122807027Y-52079420D01*
X122789215Y-52084468D01*
X122788691Y-52084514D01*
X122786937Y-52070828D01*
X122785444Y-52033076D01*
X122784326Y-51976224D01*
X122783697Y-51905234D01*
X122783600Y-51862073D01*
X122783398Y-51776973D01*
X122782358Y-51715981D01*
X122779831Y-51674177D01*
X122775164Y-51646642D01*
X122767707Y-51628456D01*
X122756811Y-51614698D01*
X122750007Y-51608073D01*
X122703272Y-51581375D01*
X122652272Y-51579375D01*
X122606001Y-51601955D01*
X122597444Y-51610107D01*
X122584893Y-51625436D01*
X122576188Y-51643618D01*
X122570631Y-51669909D01*
X122567526Y-51709562D01*
X122566176Y-51767832D01*
X122565886Y-51848173D01*
X122565886Y-52052646D01*
X122520177Y-52068580D01*
X122487713Y-52079420D01*
X122469901Y-52084468D01*
X122469377Y-52084514D01*
X122468037Y-52070623D01*
X122466828Y-52031439D01*
X122465801Y-51970700D01*
X122465002Y-51892141D01*
X122464481Y-51799498D01*
X122464286Y-51696509D01*
X122464286Y-51299342D01*
X122511457Y-51279444D01*
X122558629Y-51259547D01*
X122565886Y-51381289D01*
G36*
X121061550Y-51566212D02*
G01*
X121095456Y-51517302D01*
X121156653Y-51467878D01*
X121224063Y-51443359D01*
X121292880Y-51441797D01*
X121358303Y-51461239D01*
X121415527Y-51499735D01*
X121459749Y-51555335D01*
X121486167Y-51626086D01*
X121491510Y-51678162D01*
X121490903Y-51699893D01*
X121485822Y-51716531D01*
X121471855Y-51731437D01*
X121444589Y-51747973D01*
X121399612Y-51769498D01*
X121332511Y-51799374D01*
X121332171Y-51799524D01*
X121270407Y-51827813D01*
X121219759Y-51852933D01*
X121185404Y-51872179D01*
X121172518Y-51882848D01*
X121172514Y-51882934D01*
X121183872Y-51906166D01*
X121210431Y-51931774D01*
X121240923Y-51950221D01*
X121256370Y-51953886D01*
X121298515Y-51941212D01*
X121334808Y-51909471D01*
X121352517Y-51874572D01*
X121369552Y-51848845D01*
X121402922Y-51819546D01*
X121442149Y-51794235D01*
X121476756Y-51780471D01*
X121483993Y-51779714D01*
X121492139Y-51792160D01*
X121492630Y-51823972D01*
X121486643Y-51866866D01*
X121475357Y-51912558D01*
X121459950Y-51952761D01*
X121459171Y-51954322D01*
X121412804Y-52019062D01*
X121352711Y-52063097D01*
X121284465Y-52084711D01*
X121213638Y-52082185D01*
X121145804Y-52053804D01*
X121142788Y-52051808D01*
X121089427Y-52003448D01*
X121054340Y-51940352D01*
X121034922Y-51857387D01*
X121032316Y-51834078D01*
X121027701Y-51724055D01*
X121033233Y-51672748D01*
X121172514Y-51672748D01*
X121174324Y-51704753D01*
X121184222Y-51714093D01*
X121208898Y-51707105D01*
X121247795Y-51690587D01*
X121291275Y-51669881D01*
X121292356Y-51669333D01*
X121329209Y-51649949D01*
X121344000Y-51637013D01*
X121340353Y-51623451D01*
X121324995Y-51605632D01*
X121285923Y-51579845D01*
X121243846Y-51577950D01*
X121206103Y-51596717D01*
X121180034Y-51632915D01*
X121172514Y-51672748D01*
X121033233Y-51672748D01*
X121037194Y-51636027D01*
X121061550Y-51566212D01*
G37*
X121061550Y-51566212D02*
X121095456Y-51517302D01*
X121156653Y-51467878D01*
X121224063Y-51443359D01*
X121292880Y-51441797D01*
X121358303Y-51461239D01*
X121415527Y-51499735D01*
X121459749Y-51555335D01*
X121486167Y-51626086D01*
X121491510Y-51678162D01*
X121490903Y-51699893D01*
X121485822Y-51716531D01*
X121471855Y-51731437D01*
X121444589Y-51747973D01*
X121399612Y-51769498D01*
X121332511Y-51799374D01*
X121332171Y-51799524D01*
X121270407Y-51827813D01*
X121219759Y-51852933D01*
X121185404Y-51872179D01*
X121172518Y-51882848D01*
X121172514Y-51882934D01*
X121183872Y-51906166D01*
X121210431Y-51931774D01*
X121240923Y-51950221D01*
X121256370Y-51953886D01*
X121298515Y-51941212D01*
X121334808Y-51909471D01*
X121352517Y-51874572D01*
X121369552Y-51848845D01*
X121402922Y-51819546D01*
X121442149Y-51794235D01*
X121476756Y-51780471D01*
X121483993Y-51779714D01*
X121492139Y-51792160D01*
X121492630Y-51823972D01*
X121486643Y-51866866D01*
X121475357Y-51912558D01*
X121459950Y-51952761D01*
X121459171Y-51954322D01*
X121412804Y-52019062D01*
X121352711Y-52063097D01*
X121284465Y-52084711D01*
X121213638Y-52082185D01*
X121145804Y-52053804D01*
X121142788Y-52051808D01*
X121089427Y-52003448D01*
X121054340Y-51940352D01*
X121034922Y-51857387D01*
X121032316Y-51834078D01*
X121027701Y-51724055D01*
X121033233Y-51672748D01*
X121172514Y-51672748D01*
X121174324Y-51704753D01*
X121184222Y-51714093D01*
X121208898Y-51707105D01*
X121247795Y-51690587D01*
X121291275Y-51669881D01*
X121292356Y-51669333D01*
X121329209Y-51649949D01*
X121344000Y-51637013D01*
X121340353Y-51623451D01*
X121324995Y-51605632D01*
X121285923Y-51579845D01*
X121243846Y-51577950D01*
X121206103Y-51596717D01*
X121180034Y-51632915D01*
X121172514Y-51672748D01*
X121033233Y-51672748D01*
X121037194Y-51636027D01*
X121061550Y-51566212D01*
G36*
X121906093Y-51457780D02*
G01*
X121952672Y-51484723D01*
X121985057Y-51511466D01*
X122008742Y-51539484D01*
X122025059Y-51573748D01*
X122035339Y-51619227D01*
X122040914Y-51680892D01*
X122043116Y-51763711D01*
X122043371Y-51823246D01*
X122043371Y-52042391D01*
X121981686Y-52070044D01*
X121920000Y-52097697D01*
X121912743Y-51857670D01*
X121909744Y-51768028D01*
X121906598Y-51702962D01*
X121902701Y-51658026D01*
X121897447Y-51628770D01*
X121890231Y-51610748D01*
X121880450Y-51599511D01*
X121877312Y-51597079D01*
X121829761Y-51578083D01*
X121781697Y-51585600D01*
X121753086Y-51605543D01*
X121741447Y-51619675D01*
X121733391Y-51638220D01*
X121728271Y-51666334D01*
X121725441Y-51709173D01*
X121724256Y-51771895D01*
X121724057Y-51837261D01*
X121724018Y-51919268D01*
X121722614Y-51977316D01*
X121717914Y-52016465D01*
X121707987Y-52041780D01*
X121690903Y-52058323D01*
X121664732Y-52071156D01*
X121629775Y-52084491D01*
X121591596Y-52099007D01*
X121596141Y-51841389D01*
X121597971Y-51748519D01*
X121600112Y-51679889D01*
X121603181Y-51630711D01*
X121607794Y-51596198D01*
X121614568Y-51571562D01*
X121624119Y-51552016D01*
X121635634Y-51534770D01*
X121691190Y-51479680D01*
X121758980Y-51447822D01*
X121832713Y-51440191D01*
X121906093Y-51457780D01*
G37*
X121906093Y-51457780D02*
X121952672Y-51484723D01*
X121985057Y-51511466D01*
X122008742Y-51539484D01*
X122025059Y-51573748D01*
X122035339Y-51619227D01*
X122040914Y-51680892D01*
X122043116Y-51763711D01*
X122043371Y-51823246D01*
X122043371Y-52042391D01*
X121981686Y-52070044D01*
X121920000Y-52097697D01*
X121912743Y-51857670D01*
X121909744Y-51768028D01*
X121906598Y-51702962D01*
X121902701Y-51658026D01*
X121897447Y-51628770D01*
X121890231Y-51610748D01*
X121880450Y-51599511D01*
X121877312Y-51597079D01*
X121829761Y-51578083D01*
X121781697Y-51585600D01*
X121753086Y-51605543D01*
X121741447Y-51619675D01*
X121733391Y-51638220D01*
X121728271Y-51666334D01*
X121725441Y-51709173D01*
X121724256Y-51771895D01*
X121724057Y-51837261D01*
X121724018Y-51919268D01*
X121722614Y-51977316D01*
X121717914Y-52016465D01*
X121707987Y-52041780D01*
X121690903Y-52058323D01*
X121664732Y-52071156D01*
X121629775Y-52084491D01*
X121591596Y-52099007D01*
X121596141Y-51841389D01*
X121597971Y-51748519D01*
X121600112Y-51679889D01*
X121603181Y-51630711D01*
X121607794Y-51596198D01*
X121614568Y-51571562D01*
X121624119Y-51552016D01*
X121635634Y-51534770D01*
X121691190Y-51479680D01*
X121758980Y-51447822D01*
X121832713Y-51440191D01*
X121906093Y-51457780D01*
G36*
X120483677Y-51680333D02*
G01*
X120486450Y-51632958D01*
X120490388Y-51599290D01*
X120495849Y-51575498D01*
X120503192Y-51557753D01*
X120512777Y-51542224D01*
X120516887Y-51536381D01*
X120571405Y-51481185D01*
X120640336Y-51449890D01*
X120720072Y-51441165D01*
X120789744Y-51449918D01*
X120845201Y-51477568D01*
X120894148Y-51528480D01*
X120907629Y-51547338D01*
X120922314Y-51572015D01*
X120931842Y-51598816D01*
X120937293Y-51634587D01*
X120939747Y-51686169D01*
X120940286Y-51754267D01*
X120937852Y-51847588D01*
X120929394Y-51917657D01*
X120913174Y-51969931D01*
X120887454Y-52009869D01*
X120850497Y-52042929D01*
X120847782Y-52044886D01*
X120811360Y-52064908D01*
X120767502Y-52074815D01*
X120711724Y-52077257D01*
X120621048Y-52077257D01*
X120621010Y-52165283D01*
X120620166Y-52214308D01*
X120615024Y-52243065D01*
X120601587Y-52260311D01*
X120575858Y-52274808D01*
X120569679Y-52277769D01*
X120540764Y-52291648D01*
X120518376Y-52300414D01*
X120501729Y-52301171D01*
X120490036Y-52291023D01*
X120482510Y-52267073D01*
X120478366Y-52226426D01*
X120476815Y-52166186D01*
X120477071Y-52083455D01*
X120478349Y-51975339D01*
X120478748Y-51943000D01*
X120480185Y-51831524D01*
X120481472Y-51758603D01*
X120620971Y-51758603D01*
X120621755Y-51820499D01*
X120625240Y-51860997D01*
X120633124Y-51887708D01*
X120647105Y-51908244D01*
X120656597Y-51918260D01*
X120695404Y-51947567D01*
X120729763Y-51949952D01*
X120765216Y-51925750D01*
X120766114Y-51924857D01*
X120780539Y-51906153D01*
X120789313Y-51880732D01*
X120793739Y-51841584D01*
X120795118Y-51781697D01*
X120795143Y-51768430D01*
X120791812Y-51685901D01*
X120780969Y-51628691D01*
X120761340Y-51593766D01*
X120731650Y-51578094D01*
X120714491Y-51576514D01*
X120673766Y-51583926D01*
X120645832Y-51608330D01*
X120629017Y-51652980D01*
X120621650Y-51721130D01*
X120620971Y-51758603D01*
X120481472Y-51758603D01*
X120481708Y-51745245D01*
X120483677Y-51680333D01*
G37*
X120483677Y-51680333D02*
X120486450Y-51632958D01*
X120490388Y-51599290D01*
X120495849Y-51575498D01*
X120503192Y-51557753D01*
X120512777Y-51542224D01*
X120516887Y-51536381D01*
X120571405Y-51481185D01*
X120640336Y-51449890D01*
X120720072Y-51441165D01*
X120789744Y-51449918D01*
X120845201Y-51477568D01*
X120894148Y-51528480D01*
X120907629Y-51547338D01*
X120922314Y-51572015D01*
X120931842Y-51598816D01*
X120937293Y-51634587D01*
X120939747Y-51686169D01*
X120940286Y-51754267D01*
X120937852Y-51847588D01*
X120929394Y-51917657D01*
X120913174Y-51969931D01*
X120887454Y-52009869D01*
X120850497Y-52042929D01*
X120847782Y-52044886D01*
X120811360Y-52064908D01*
X120767502Y-52074815D01*
X120711724Y-52077257D01*
X120621048Y-52077257D01*
X120621010Y-52165283D01*
X120620166Y-52214308D01*
X120615024Y-52243065D01*
X120601587Y-52260311D01*
X120575858Y-52274808D01*
X120569679Y-52277769D01*
X120540764Y-52291648D01*
X120518376Y-52300414D01*
X120501729Y-52301171D01*
X120490036Y-52291023D01*
X120482510Y-52267073D01*
X120478366Y-52226426D01*
X120476815Y-52166186D01*
X120477071Y-52083455D01*
X120478349Y-51975339D01*
X120478748Y-51943000D01*
X120480185Y-51831524D01*
X120481472Y-51758603D01*
X120620971Y-51758603D01*
X120621755Y-51820499D01*
X120625240Y-51860997D01*
X120633124Y-51887708D01*
X120647105Y-51908244D01*
X120656597Y-51918260D01*
X120695404Y-51947567D01*
X120729763Y-51949952D01*
X120765216Y-51925750D01*
X120766114Y-51924857D01*
X120780539Y-51906153D01*
X120789313Y-51880732D01*
X120793739Y-51841584D01*
X120795118Y-51781697D01*
X120795143Y-51768430D01*
X120791812Y-51685901D01*
X120780969Y-51628691D01*
X120761340Y-51593766D01*
X120731650Y-51578094D01*
X120714491Y-51576514D01*
X120673766Y-51583926D01*
X120645832Y-51608330D01*
X120629017Y-51652980D01*
X120621650Y-51721130D01*
X120620971Y-51758603D01*
X120481472Y-51758603D01*
X120481708Y-51745245D01*
X120483677Y-51680333D01*
%TD*%
D12*
%TO.C,J1*%
X121920000Y-58420000D03*
D13*
X124460000Y-58420000D03*
X121920000Y-60960000D03*
X124460000Y-60960000D03*
X121920000Y-63500000D03*
X124460000Y-63500000D03*
X121920000Y-66040000D03*
X124460000Y-66040000D03*
X121920000Y-68580000D03*
X124460000Y-68580000D03*
X121920000Y-71120000D03*
X124460000Y-71120000D03*
X121920000Y-73660000D03*
X124460000Y-73660000D03*
%TD*%
D14*
%TO.C,J2*%
X157480000Y-73660000D03*
D13*
X154940000Y-73660000D03*
X157480000Y-71120000D03*
X154940000Y-71120000D03*
X157480000Y-68580000D03*
X154940000Y-68580000D03*
X157480000Y-66040000D03*
X154940000Y-66040000D03*
X157480000Y-63500000D03*
X154940000Y-63500000D03*
X157480000Y-60960000D03*
X154940000Y-60960000D03*
X157480000Y-58420000D03*
X154940000Y-58420000D03*
%TD*%
D15*
%TO.C,SW1*%
X158190000Y-51780000D03*
X158190000Y-47280000D03*
X151690000Y-51780000D03*
X151690000Y-47280000D03*
%TD*%
D16*
%TO.C,U1*%
X132080000Y-53340000D03*
D17*
X132080000Y-55880000D03*
X132080000Y-58420000D03*
X132080000Y-60960000D03*
X132080000Y-63500000D03*
X132080000Y-66040000D03*
X132080000Y-68580000D03*
X132080000Y-71120000D03*
X132080000Y-73660000D03*
X132080000Y-76200000D03*
X132080000Y-78740000D03*
X132080000Y-81280000D03*
X147320000Y-81280000D03*
X147320000Y-78740000D03*
X147320000Y-76200000D03*
X147320000Y-73660000D03*
X147320000Y-71120000D03*
X147320000Y-68580000D03*
X147320000Y-66040000D03*
X147320000Y-63500000D03*
X147320000Y-60960000D03*
X147320000Y-58420000D03*
X147320000Y-55880000D03*
X147320000Y-53340000D03*
%TD*%
D18*
%TO.C,M2*%
X156210000Y-82550000D03*
%TD*%
%TO.C,M1*%
X123190000Y-82550000D03*
%TD*%
M02*
