M48
; DRILL file {KiCad (6.0.5-0)} date 2022 June 17, Friday 10:00:40
; FORMAT={-:-/ absolute / metric / decimal}
; #@! TF.CreationDate,2022-06-17T10:00:40+08:00
; #@! TF.GenerationSoftware,Kicad,Pcbnew,(6.0.5-0)
; #@! TF.FileFunction,Plated,1,2,PTH
FMAT,2
METRIC
; #@! TA.AperFunction,Plated,PTH,ViaDrill
T1C0.400
; #@! TA.AperFunction,Plated,PTH,ComponentDrill
T2C1.000
%
G90
G05
T1
X-67.31Y-8.89
X-47.625Y-27.94
X-45.085Y-45.085
X-29.845Y-66.04
X-28.575Y-85.09
T2
X-100.25Y-3.8
X-100.25Y-22.85
X-100.25Y-41.9
X-100.25Y-60.95
X-100.25Y-80.0
X-100.25Y-99.05
X-97.79Y-5.08
X-97.79Y-24.13
X-97.79Y-43.18
X-97.79Y-62.23
X-97.79Y-81.28
X-97.79Y-100.33
X-95.25Y-5.9
X-95.25Y-24.95
X-95.25Y-44.0
X-95.25Y-63.05
X-95.25Y-82.1
X-95.25Y-101.15
X-91.44Y-2.54
X-91.44Y-21.59
X-91.44Y-40.64
X-91.44Y-59.69
X-91.44Y-78.74
X-91.44Y-97.79
X-81.2Y-3.8
X-81.2Y-22.85
X-81.2Y-41.9
X-81.2Y-60.95
X-81.2Y-80.0
X-81.2Y-99.05
X-78.74Y-5.08
X-78.74Y-24.13
X-78.74Y-43.18
X-78.74Y-62.23
X-78.74Y-81.28
X-78.74Y-100.33
X-76.2Y-5.9
X-76.2Y-24.95
X-76.2Y-44.0
X-76.2Y-63.05
X-76.2Y-82.1
X-76.2Y-101.15
X-72.39Y-2.54
X-72.39Y-21.59
X-72.39Y-40.64
X-72.39Y-59.69
X-72.39Y-78.74
X-72.39Y-97.79
X-62.15Y-3.8
X-62.15Y-22.85
X-62.15Y-41.9
X-62.15Y-60.95
X-62.15Y-80.0
X-62.15Y-99.05
X-59.69Y-5.08
X-59.69Y-24.13
X-59.69Y-43.18
X-59.69Y-62.23
X-59.69Y-81.28
X-59.69Y-100.33
X-57.15Y-5.9
X-57.15Y-24.95
X-57.15Y-44.0
X-57.15Y-63.05
X-57.15Y-82.1
X-57.15Y-101.15
X-55.245Y18.415
X-55.245Y15.875
X-53.34Y-2.54
X-53.34Y-21.59
X-53.34Y-40.64
X-53.34Y-59.69
X-53.34Y-78.74
X-53.34Y-97.79
X-52.705Y18.415
X-52.705Y15.875
X-50.165Y18.415
X-50.165Y15.875
X-47.625Y18.415
X-47.625Y15.875
X-45.085Y18.415
X-45.085Y15.875
X-43.1Y-3.8
X-43.1Y-22.85
X-43.1Y-41.9
X-43.1Y-60.95
X-43.1Y-80.0
X-43.1Y-99.05
X-42.545Y18.415
X-42.545Y15.875
X-40.64Y-5.08
X-40.64Y-24.13
X-40.64Y-43.18
X-40.64Y-62.23
X-40.64Y-81.28
X-40.64Y-100.33
X-40.005Y18.415
X-40.005Y15.875
X-38.1Y-5.9
X-38.1Y-24.95
X-38.1Y-44.0
X-38.1Y-63.05
X-38.1Y-82.1
X-38.1Y-101.15
X-34.29Y-2.54
X-34.29Y-21.59
X-34.29Y-40.64
X-34.29Y-59.69
X-34.29Y-78.74
X-34.29Y-97.79
X-24.05Y-3.8
X-24.05Y-22.85
X-24.05Y-41.9
X-24.05Y-60.95
X-24.05Y-80.0
X-24.05Y-99.05
X-21.59Y-5.08
X-21.59Y-24.13
X-21.59Y-43.18
X-21.59Y-62.23
X-21.59Y-81.28
X-21.59Y-100.33
X-19.05Y-5.9
X-19.05Y-24.95
X-19.05Y-44.0
X-19.05Y-63.05
X-19.05Y-82.1
X-19.05Y-101.15
X-15.24Y-2.54
X-15.24Y-21.59
X-15.24Y-40.64
X-15.24Y-59.69
X-15.24Y-78.74
X-15.24Y-97.79
X-5.0Y-3.8
X-5.0Y-22.85
X-5.0Y-41.9
X-5.0Y-60.95
X-5.0Y-80.0
X-5.0Y-99.05
X-2.54Y-5.08
X-2.54Y-24.13
X-2.54Y-43.18
X-2.54Y-62.23
X-2.54Y-81.28
X-2.54Y-100.33
X0.0Y-5.9
X0.0Y-24.95
X0.0Y-44.0
X0.0Y-63.05
X0.0Y-82.1
X0.0Y-101.15
X3.81Y-2.54
X3.81Y-21.59
X3.81Y-40.64
X3.81Y-59.69
X3.81Y-78.74
X3.81Y-97.79
T0
M30
