M48
; DRILL file {KiCad (6.0.1-0)} date 2022 February 06, Sunday 15:04:10
; FORMAT={-:-/ absolute / metric / decimal}
; #@! TF.CreationDate,2022-02-06T15:04:10+08:00
; #@! TF.GenerationSoftware,Kicad,Pcbnew,(6.0.1-0)
; #@! TF.FileFunction,NonPlated,1,2,NPTH
FMAT,2
METRIC
; #@! TA.AperFunction,NonPlated,NPTH,ComponentDrill
T1C1.700
; #@! TA.AperFunction,NonPlated,NPTH,ComponentDrill
T2C1.900
; #@! TA.AperFunction,NonPlated,NPTH,ComponentDrill
T3C2.500
; #@! TA.AperFunction,NonPlated,NPTH,ComponentDrill
T4C3.000
; #@! TA.AperFunction,NonPlated,NPTH,ComponentDrill
T5C4.000
%
G90
G05
T1
X52.07Y-57.15
X52.07Y-76.2
X52.07Y-95.25
X52.07Y-114.3
X52.07Y-133.35
X52.07Y-152.4
X62.23Y-57.15
X62.23Y-76.2
X62.23Y-95.25
X62.23Y-114.3
X62.23Y-133.35
X62.23Y-152.4
X71.12Y-57.15
X71.12Y-76.2
X71.12Y-95.25
X71.12Y-114.3
X71.12Y-133.35
X71.12Y-152.4
X81.28Y-57.15
X81.28Y-76.2
X81.28Y-95.25
X81.28Y-114.3
X81.28Y-133.35
X81.28Y-152.4
X90.17Y-57.15
X90.17Y-76.2
X90.17Y-95.25
X90.17Y-114.3
X90.17Y-133.35
X90.17Y-152.4
X100.33Y-57.15
X100.33Y-76.2
X100.33Y-95.25
X100.33Y-114.3
X100.33Y-133.35
X100.33Y-152.4
X109.22Y-57.15
X109.22Y-76.2
X109.22Y-95.25
X109.22Y-114.3
X109.22Y-133.35
X109.22Y-152.4
X119.38Y-57.15
X119.38Y-76.2
X119.38Y-95.25
X119.38Y-114.3
X119.38Y-133.35
X119.38Y-152.4
X128.27Y-57.15
X128.27Y-76.2
X128.27Y-95.25
X128.27Y-114.3
X128.27Y-133.35
X128.27Y-152.4
X138.43Y-57.15
X138.43Y-76.2
X138.43Y-95.25
X138.43Y-114.3
X138.43Y-133.35
X138.43Y-152.4
X147.32Y-57.15
X147.32Y-76.2
X147.32Y-95.25
X147.32Y-114.3
X147.32Y-133.35
X147.32Y-152.4
X157.48Y-57.15
X157.48Y-76.2
X157.48Y-95.25
X157.48Y-114.3
X157.48Y-133.35
X157.48Y-152.4
T2
X51.65Y-57.15
X51.65Y-76.2
X51.65Y-95.25
X51.65Y-114.3
X51.65Y-133.35
X51.65Y-152.4
X62.65Y-57.15
X62.65Y-76.2
X62.65Y-95.25
X62.65Y-114.3
X62.65Y-133.35
X62.65Y-152.4
X70.7Y-57.15
X70.7Y-76.2
X70.7Y-95.25
X70.7Y-114.3
X70.7Y-133.35
X70.7Y-152.4
X81.7Y-57.15
X81.7Y-76.2
X81.7Y-95.25
X81.7Y-114.3
X81.7Y-133.35
X81.7Y-152.4
X89.75Y-57.15
X89.75Y-76.2
X89.75Y-95.25
X89.75Y-114.3
X89.75Y-133.35
X89.75Y-152.4
X100.75Y-57.15
X100.75Y-76.2
X100.75Y-95.25
X100.75Y-114.3
X100.75Y-133.35
X100.75Y-152.4
X108.8Y-57.15
X108.8Y-76.2
X108.8Y-95.25
X108.8Y-114.3
X108.8Y-133.35
X108.8Y-152.4
X119.8Y-57.15
X119.8Y-76.2
X119.8Y-95.25
X119.8Y-114.3
X119.8Y-133.35
X119.8Y-152.4
X127.85Y-57.15
X127.85Y-76.2
X127.85Y-95.25
X127.85Y-114.3
X127.85Y-133.35
X127.85Y-152.4
X138.85Y-57.15
X138.85Y-76.2
X138.85Y-95.25
X138.85Y-114.3
X138.85Y-133.35
X138.85Y-152.4
X146.9Y-57.15
X146.9Y-76.2
X146.9Y-95.25
X146.9Y-114.3
X146.9Y-133.35
X146.9Y-152.4
X157.9Y-57.15
X157.9Y-76.2
X157.9Y-95.25
X157.9Y-114.3
X157.9Y-133.35
X157.9Y-152.4
T3
X66.04Y-142.24
X66.675Y-66.675
X104.775Y-104.775
X142.875Y-66.675
X142.875Y-142.875
T4
X52.15Y-60.85
X52.15Y-79.9
X52.15Y-98.95
X52.15Y-118.0
X52.15Y-137.05
X52.15Y-156.1
X53.34Y-54.61
X53.34Y-73.66
X53.34Y-92.71
X53.34Y-111.76
X53.34Y-130.81
X53.34Y-149.86
X57.15Y-63.05
X57.15Y-82.1
X57.15Y-101.15
X57.15Y-120.2
X57.15Y-139.25
X57.15Y-158.3
X59.69Y-52.07
X59.69Y-71.12
X59.69Y-90.17
X59.69Y-109.22
X59.69Y-128.27
X59.69Y-147.32
X71.2Y-60.85
X71.2Y-79.9
X71.2Y-98.95
X71.2Y-118.0
X71.2Y-137.05
X71.2Y-156.1
X72.39Y-54.61
X72.39Y-73.66
X72.39Y-92.71
X72.39Y-111.76
X72.39Y-130.81
X72.39Y-149.86
X76.2Y-63.05
X76.2Y-82.1
X76.2Y-101.15
X76.2Y-120.2
X76.2Y-139.25
X76.2Y-158.3
X78.74Y-52.07
X78.74Y-71.12
X78.74Y-90.17
X78.74Y-109.22
X78.74Y-128.27
X78.74Y-147.32
X90.25Y-60.85
X90.25Y-79.9
X90.25Y-98.95
X90.25Y-118.0
X90.25Y-137.05
X90.25Y-156.1
X91.44Y-54.61
X91.44Y-73.66
X91.44Y-92.71
X91.44Y-111.76
X91.44Y-130.81
X91.44Y-149.86
X95.25Y-63.05
X95.25Y-82.1
X95.25Y-101.15
X95.25Y-120.2
X95.25Y-139.25
X95.25Y-158.3
X97.79Y-52.07
X97.79Y-71.12
X97.79Y-90.17
X97.79Y-109.22
X97.79Y-128.27
X97.79Y-147.32
X109.3Y-60.85
X109.3Y-79.9
X109.3Y-98.95
X109.3Y-118.0
X109.3Y-137.05
X109.3Y-156.1
X110.49Y-54.61
X110.49Y-73.66
X110.49Y-92.71
X110.49Y-111.76
X110.49Y-130.81
X110.49Y-149.86
X114.3Y-63.05
X114.3Y-82.1
X114.3Y-101.15
X114.3Y-120.2
X114.3Y-139.25
X114.3Y-158.3
X116.84Y-52.07
X116.84Y-71.12
X116.84Y-90.17
X116.84Y-109.22
X116.84Y-128.27
X116.84Y-147.32
X128.35Y-60.85
X128.35Y-79.9
X128.35Y-98.95
X128.35Y-118.0
X128.35Y-137.05
X128.35Y-156.1
X129.54Y-54.61
X129.54Y-73.66
X129.54Y-92.71
X129.54Y-111.76
X129.54Y-130.81
X129.54Y-149.86
X133.35Y-63.05
X133.35Y-82.1
X133.35Y-101.15
X133.35Y-120.2
X133.35Y-139.25
X133.35Y-158.3
X135.89Y-52.07
X135.89Y-71.12
X135.89Y-90.17
X135.89Y-109.22
X135.89Y-128.27
X135.89Y-147.32
X147.4Y-60.85
X147.4Y-79.9
X147.4Y-98.95
X147.4Y-118.0
X147.4Y-137.05
X147.4Y-156.1
X148.59Y-54.61
X148.59Y-73.66
X148.59Y-92.71
X148.59Y-111.76
X148.59Y-130.81
X148.59Y-149.86
X152.4Y-63.05
X152.4Y-82.1
X152.4Y-101.15
X152.4Y-120.2
X152.4Y-139.25
X152.4Y-158.3
X154.94Y-52.07
X154.94Y-71.12
X154.94Y-90.17
X154.94Y-109.22
X154.94Y-128.27
X154.94Y-147.32
T5
X57.15Y-57.15
X57.15Y-76.2
X57.15Y-95.25
X57.15Y-114.3
X57.15Y-133.35
X57.15Y-152.4
X76.2Y-57.15
X76.2Y-76.2
X76.2Y-95.25
X76.2Y-114.3
X76.2Y-133.35
X76.2Y-152.4
X95.25Y-57.15
X95.25Y-76.2
X95.25Y-95.25
X95.25Y-114.3
X95.25Y-133.35
X95.25Y-152.4
X114.3Y-57.15
X114.3Y-76.2
X114.3Y-95.25
X114.3Y-114.3
X114.3Y-133.35
X114.3Y-152.4
X133.35Y-57.15
X133.35Y-76.2
X133.35Y-95.25
X133.35Y-114.3
X133.35Y-133.35
X133.35Y-152.4
X152.4Y-57.15
X152.4Y-76.2
X152.4Y-95.25
X152.4Y-114.3
X152.4Y-133.35
X152.4Y-152.4
T0
M30
