%TF.GenerationSoftware,KiCad,Pcbnew,(6.0.2-0)*%
%TF.CreationDate,2022-03-02T14:26:00+08:00*%
%TF.ProjectId,Pragmatic,50726167-6d61-4746-9963-2e6b69636164,2.1*%
%TF.SameCoordinates,PX9157080PY3680a30*%
%TF.FileFunction,Legend,Bot*%
%TF.FilePolarity,Positive*%
%FSLAX46Y46*%
G04 Gerber Fmt 4.6, Leading zero omitted, Abs format (unit mm)*
G04 Created by KiCad (PCBNEW (6.0.2-0)) date 2022-03-02 14:26:00*
%MOMM*%
%LPD*%
G01*
G04 APERTURE LIST*
G04 Aperture macros list*
%AMRoundRect*
0 Rectangle with rounded corners*
0 $1 Rounding radius*
0 $2 $3 $4 $5 $6 $7 $8 $9 X,Y pos of 4 corners*
0 Add a 4 corners polygon primitive as box body*
4,1,4,$2,$3,$4,$5,$6,$7,$8,$9,$2,$3,0*
0 Add four circle primitives for the rounded corners*
1,1,$1+$1,$2,$3*
1,1,$1+$1,$4,$5*
1,1,$1+$1,$6,$7*
1,1,$1+$1,$8,$9*
0 Add four rect primitives between the rounded corners*
20,1,$1+$1,$2,$3,$4,$5,0*
20,1,$1+$1,$4,$5,$6,$7,0*
20,1,$1+$1,$6,$7,$8,$9,0*
20,1,$1+$1,$8,$9,$2,$3,0*%
G04 Aperture macros list end*
%ADD10C,0.150000*%
%ADD11C,0.120000*%
%ADD12C,1.700000*%
%ADD13C,4.000000*%
%ADD14C,1.900000*%
%ADD15C,3.000000*%
%ADD16R,2.500000X2.500000*%
%ADD17R,2.000000X2.600000*%
%ADD18C,2.500000*%
%ADD19RoundRect,0.250000X0.600000X-0.600000X0.600000X0.600000X-0.600000X0.600000X-0.600000X-0.600000X0*%
%ADD20R,1.400000X1.000000*%
%ADD21RoundRect,0.250000X0.325000X0.450000X-0.325000X0.450000X-0.325000X-0.450000X0.325000X-0.450000X0*%
%ADD22RoundRect,0.250000X0.350000X0.450000X-0.350000X0.450000X-0.350000X-0.450000X0.350000X-0.450000X0*%
G04 APERTURE END LIST*
D10*
X-1399167Y17227620D02*
X-1208691Y17227620D01*
X-1113453Y17180000D01*
X-1065834Y17132381D01*
X-970596Y16989524D01*
X-922977Y16799048D01*
X-922977Y16418096D01*
X-970596Y16322858D01*
X-1018215Y16275239D01*
X-1113453Y16227620D01*
X-1303929Y16227620D01*
X-1399167Y16275239D01*
X-1446786Y16322858D01*
X-1494405Y16418096D01*
X-1494405Y16656191D01*
X-1446786Y16751429D01*
X-1399167Y16799048D01*
X-1303929Y16846667D01*
X-1113453Y16846667D01*
X-1018215Y16799048D01*
X-970596Y16751429D01*
X-922977Y16656191D01*
X-1827739Y17227620D02*
X-2494405Y16227620D01*
X-2494405Y17227620D02*
X-1827739Y16227620D01*
X-3303929Y17227620D02*
X-3113453Y17227620D01*
X-3018215Y17180000D01*
X-2970596Y17132381D01*
X-2875358Y16989524D01*
X-2827739Y16799048D01*
X-2827739Y16418096D01*
X-2875358Y16322858D01*
X-2922977Y16275239D01*
X-3018215Y16227620D01*
X-3208691Y16227620D01*
X-3303929Y16275239D01*
X-3351548Y16322858D01*
X-3399167Y16418096D01*
X-3399167Y16656191D01*
X-3351548Y16751429D01*
X-3303929Y16799048D01*
X-3208691Y16846667D01*
X-3018215Y16846667D01*
X-2922977Y16799048D01*
X-2875358Y16751429D01*
X-2827739Y16656191D01*
X-4589643Y16227620D02*
X-4589643Y16894286D01*
X-4589643Y17227620D02*
X-4542024Y17180000D01*
X-4589643Y17132381D01*
X-4637262Y17180000D01*
X-4589643Y17227620D01*
X-4589643Y17132381D01*
X-5065834Y16894286D02*
X-5065834Y16227620D01*
X-5065834Y16799048D02*
X-5113453Y16846667D01*
X-5208691Y16894286D01*
X-5351548Y16894286D01*
X-5446786Y16846667D01*
X-5494405Y16751429D01*
X-5494405Y16227620D01*
X-5970596Y16894286D02*
X-5970596Y15894286D01*
X-5970596Y16846667D02*
X-6065834Y16894286D01*
X-6256310Y16894286D01*
X-6351548Y16846667D01*
X-6399167Y16799048D01*
X-6446786Y16703810D01*
X-6446786Y16418096D01*
X-6399167Y16322858D01*
X-6351548Y16275239D01*
X-6256310Y16227620D01*
X-6065834Y16227620D01*
X-5970596Y16275239D01*
X-7303929Y16894286D02*
X-7303929Y16227620D01*
X-6875358Y16894286D02*
X-6875358Y16370477D01*
X-6922977Y16275239D01*
X-7018215Y16227620D01*
X-7161072Y16227620D01*
X-7256310Y16275239D01*
X-7303929Y16322858D01*
X-7637262Y16894286D02*
X-8018215Y16894286D01*
X-7780120Y17227620D02*
X-7780120Y16370477D01*
X-7827739Y16275239D01*
X-7922977Y16227620D01*
X-8018215Y16227620D01*
X-9113453Y16227620D02*
X-9113453Y16894286D01*
X-9113453Y16799048D02*
X-9161072Y16846667D01*
X-9256310Y16894286D01*
X-9399167Y16894286D01*
X-9494405Y16846667D01*
X-9542024Y16751429D01*
X-9542024Y16227620D01*
X-9542024Y16751429D02*
X-9589643Y16846667D01*
X-9684881Y16894286D01*
X-9827739Y16894286D01*
X-9922977Y16846667D01*
X-9970596Y16751429D01*
X-9970596Y16227620D01*
X-10589643Y16227620D02*
X-10494405Y16275239D01*
X-10446786Y16322858D01*
X-10399167Y16418096D01*
X-10399167Y16703810D01*
X-10446786Y16799048D01*
X-10494405Y16846667D01*
X-10589643Y16894286D01*
X-10732500Y16894286D01*
X-10827739Y16846667D01*
X-10875358Y16799048D01*
X-10922977Y16703810D01*
X-10922977Y16418096D01*
X-10875358Y16322858D01*
X-10827739Y16275239D01*
X-10732500Y16227620D01*
X-10589643Y16227620D01*
X-11780120Y16227620D02*
X-11780120Y17227620D01*
X-11780120Y16275239D02*
X-11684881Y16227620D01*
X-11494405Y16227620D01*
X-11399167Y16275239D01*
X-11351548Y16322858D01*
X-11303929Y16418096D01*
X-11303929Y16703810D01*
X-11351548Y16799048D01*
X-11399167Y16846667D01*
X-11494405Y16894286D01*
X-11684881Y16894286D01*
X-11780120Y16846667D01*
X-12684881Y16894286D02*
X-12684881Y16227620D01*
X-12256310Y16894286D02*
X-12256310Y16370477D01*
X-12303929Y16275239D01*
X-12399167Y16227620D01*
X-12542024Y16227620D01*
X-12637262Y16275239D01*
X-12684881Y16322858D01*
X-13303929Y16227620D02*
X-13208691Y16275239D01*
X-13161072Y16370477D01*
X-13161072Y17227620D01*
X-14065834Y16275239D02*
X-13970596Y16227620D01*
X-13780120Y16227620D01*
X-13684881Y16275239D01*
X-13637262Y16370477D01*
X-13637262Y16751429D01*
X-13684881Y16846667D01*
X-13780120Y16894286D01*
X-13970596Y16894286D01*
X-14065834Y16846667D01*
X-14113453Y16751429D01*
X-14113453Y16656191D01*
X-13637262Y16560953D01*
X-15732500Y16227620D02*
X-15732500Y17227620D01*
X-15732500Y16275239D02*
X-15637262Y16227620D01*
X-15446786Y16227620D01*
X-15351548Y16275239D01*
X-15303929Y16322858D01*
X-15256310Y16418096D01*
X-15256310Y16703810D01*
X-15303929Y16799048D01*
X-15351548Y16846667D01*
X-15446786Y16894286D01*
X-15637262Y16894286D01*
X-15732500Y16846667D01*
X-16589643Y16275239D02*
X-16494405Y16227620D01*
X-16303929Y16227620D01*
X-16208691Y16275239D01*
X-16161072Y16370477D01*
X-16161072Y16751429D01*
X-16208691Y16846667D01*
X-16303929Y16894286D01*
X-16494405Y16894286D01*
X-16589643Y16846667D01*
X-16637262Y16751429D01*
X-16637262Y16656191D01*
X-16161072Y16560953D01*
X-17018215Y16275239D02*
X-17113453Y16227620D01*
X-17303929Y16227620D01*
X-17399167Y16275239D01*
X-17446786Y16370477D01*
X-17446786Y16418096D01*
X-17399167Y16513334D01*
X-17303929Y16560953D01*
X-17161072Y16560953D01*
X-17065834Y16608572D01*
X-17018215Y16703810D01*
X-17018215Y16751429D01*
X-17065834Y16846667D01*
X-17161072Y16894286D01*
X-17303929Y16894286D01*
X-17399167Y16846667D01*
X-17875358Y16227620D02*
X-17875358Y16894286D01*
X-17875358Y17227620D02*
X-17827739Y17180000D01*
X-17875358Y17132381D01*
X-17922977Y17180000D01*
X-17875358Y17227620D01*
X-17875358Y17132381D01*
X-18780120Y16894286D02*
X-18780120Y16084762D01*
X-18732500Y15989524D01*
X-18684881Y15941905D01*
X-18589643Y15894286D01*
X-18446786Y15894286D01*
X-18351548Y15941905D01*
X-18780120Y16275239D02*
X-18684881Y16227620D01*
X-18494405Y16227620D01*
X-18399167Y16275239D01*
X-18351548Y16322858D01*
X-18303929Y16418096D01*
X-18303929Y16703810D01*
X-18351548Y16799048D01*
X-18399167Y16846667D01*
X-18494405Y16894286D01*
X-18684881Y16894286D01*
X-18780120Y16846667D01*
X-19256310Y16894286D02*
X-19256310Y16227620D01*
X-19256310Y16799048D02*
X-19303929Y16846667D01*
X-19399167Y16894286D01*
X-19542024Y16894286D01*
X-19637262Y16846667D01*
X-19684881Y16751429D01*
X-19684881Y16227620D01*
X-20542024Y16275239D02*
X-20446786Y16227620D01*
X-20256310Y16227620D01*
X-20161072Y16275239D01*
X-20113453Y16370477D01*
X-20113453Y16751429D01*
X-20161072Y16846667D01*
X-20256310Y16894286D01*
X-20446786Y16894286D01*
X-20542024Y16846667D01*
X-20589643Y16751429D01*
X-20589643Y16656191D01*
X-20113453Y16560953D01*
X-21446786Y16227620D02*
X-21446786Y17227620D01*
X-21446786Y16275239D02*
X-21351548Y16227620D01*
X-21161072Y16227620D01*
X-21065834Y16275239D01*
X-21018215Y16322858D01*
X-20970596Y16418096D01*
X-20970596Y16703810D01*
X-21018215Y16799048D01*
X-21065834Y16846667D01*
X-21161072Y16894286D01*
X-21351548Y16894286D01*
X-21446786Y16846667D01*
X-22684881Y16227620D02*
X-22684881Y17227620D01*
X-22684881Y16846667D02*
X-22780120Y16894286D01*
X-22970596Y16894286D01*
X-23065834Y16846667D01*
X-23113453Y16799048D01*
X-23161072Y16703810D01*
X-23161072Y16418096D01*
X-23113453Y16322858D01*
X-23065834Y16275239D01*
X-22970596Y16227620D01*
X-22780120Y16227620D01*
X-22684881Y16275239D01*
X-23494405Y16894286D02*
X-23732500Y16227620D01*
X-23970596Y16894286D02*
X-23732500Y16227620D01*
X-23637262Y15989524D01*
X-23589643Y15941905D01*
X-23494405Y15894286D01*
X-25399167Y17227620D02*
X-25399167Y16513334D01*
X-25351548Y16370477D01*
X-25256310Y16275239D01*
X-25113453Y16227620D01*
X-25018215Y16227620D01*
X-26303929Y16227620D02*
X-26303929Y16751429D01*
X-26256310Y16846667D01*
X-26161072Y16894286D01*
X-25970596Y16894286D01*
X-25875358Y16846667D01*
X-26303929Y16275239D02*
X-26208691Y16227620D01*
X-25970596Y16227620D01*
X-25875358Y16275239D01*
X-25827739Y16370477D01*
X-25827739Y16465715D01*
X-25875358Y16560953D01*
X-25970596Y16608572D01*
X-26208691Y16608572D01*
X-26303929Y16656191D01*
X-26780120Y16227620D02*
X-26780120Y16894286D01*
X-26780120Y16799048D02*
X-26827739Y16846667D01*
X-26922977Y16894286D01*
X-27065834Y16894286D01*
X-27161072Y16846667D01*
X-27208691Y16751429D01*
X-27208691Y16227620D01*
X-27208691Y16751429D02*
X-27256310Y16846667D01*
X-27351548Y16894286D01*
X-27494405Y16894286D01*
X-27589643Y16846667D01*
X-27637262Y16751429D01*
X-27637262Y16227620D01*
X-28494405Y16275239D02*
X-28399167Y16227620D01*
X-28208691Y16227620D01*
X-28113453Y16275239D01*
X-28065834Y16370477D01*
X-28065834Y16751429D01*
X-28113453Y16846667D01*
X-28208691Y16894286D01*
X-28399167Y16894286D01*
X-28494405Y16846667D01*
X-28542024Y16751429D01*
X-28542024Y16656191D01*
X-28065834Y16560953D01*
X-28922977Y16275239D02*
X-29018215Y16227620D01*
X-29208691Y16227620D01*
X-29303929Y16275239D01*
X-29351548Y16370477D01*
X-29351548Y16418096D01*
X-29303929Y16513334D01*
X-29208691Y16560953D01*
X-29065834Y16560953D01*
X-28970596Y16608572D01*
X-28922977Y16703810D01*
X-28922977Y16751429D01*
X-28970596Y16846667D01*
X-29065834Y16894286D01*
X-29208691Y16894286D01*
X-29303929Y16846667D01*
X-30494405Y16275239D02*
X-30637262Y16227620D01*
X-30875358Y16227620D01*
X-30970596Y16275239D01*
X-31018215Y16322858D01*
X-31065834Y16418096D01*
X-31065834Y16513334D01*
X-31018215Y16608572D01*
X-30970596Y16656191D01*
X-30875358Y16703810D01*
X-30684881Y16751429D01*
X-30589643Y16799048D01*
X-30542024Y16846667D01*
X-30494405Y16941905D01*
X-30494405Y17037143D01*
X-30542024Y17132381D01*
X-30589643Y17180000D01*
X-30684881Y17227620D01*
X-30922977Y17227620D01*
X-31065834Y17180000D01*
X-31922977Y16227620D02*
X-31922977Y16751429D01*
X-31875358Y16846667D01*
X-31780120Y16894286D01*
X-31589643Y16894286D01*
X-31494405Y16846667D01*
X-31922977Y16275239D02*
X-31827739Y16227620D01*
X-31589643Y16227620D01*
X-31494405Y16275239D01*
X-31446786Y16370477D01*
X-31446786Y16465715D01*
X-31494405Y16560953D01*
X-31589643Y16608572D01*
X-31827739Y16608572D01*
X-31922977Y16656191D01*
X-970596Y14617620D02*
X-970596Y15617620D01*
X-1399167Y14617620D02*
X-1399167Y15141429D01*
X-1351548Y15236667D01*
X-1256310Y15284286D01*
X-1113453Y15284286D01*
X-1018215Y15236667D01*
X-970596Y15189048D01*
X-1732500Y15284286D02*
X-2113453Y15284286D01*
X-1875358Y15617620D02*
X-1875358Y14760477D01*
X-1922977Y14665239D01*
X-2018215Y14617620D01*
X-2113453Y14617620D01*
X-2303929Y15284286D02*
X-2684881Y15284286D01*
X-2446786Y15617620D02*
X-2446786Y14760477D01*
X-2494405Y14665239D01*
X-2589643Y14617620D01*
X-2684881Y14617620D01*
X-3018215Y15284286D02*
X-3018215Y14284286D01*
X-3018215Y15236667D02*
X-3113453Y15284286D01*
X-3303929Y15284286D01*
X-3399167Y15236667D01*
X-3446786Y15189048D01*
X-3494405Y15093810D01*
X-3494405Y14808096D01*
X-3446786Y14712858D01*
X-3399167Y14665239D01*
X-3303929Y14617620D01*
X-3113453Y14617620D01*
X-3018215Y14665239D01*
X-3875358Y14665239D02*
X-3970596Y14617620D01*
X-4161072Y14617620D01*
X-4256310Y14665239D01*
X-4303929Y14760477D01*
X-4303929Y14808096D01*
X-4256310Y14903334D01*
X-4161072Y14950953D01*
X-4018215Y14950953D01*
X-3922977Y14998572D01*
X-3875358Y15093810D01*
X-3875358Y15141429D01*
X-3922977Y15236667D01*
X-4018215Y15284286D01*
X-4161072Y15284286D01*
X-4256310Y15236667D01*
X-4732500Y14712858D02*
X-4780120Y14665239D01*
X-4732500Y14617620D01*
X-4684881Y14665239D01*
X-4732500Y14712858D01*
X-4732500Y14617620D01*
X-4732500Y15236667D02*
X-4780120Y15189048D01*
X-4732500Y15141429D01*
X-4684881Y15189048D01*
X-4732500Y15236667D01*
X-4732500Y15141429D01*
X-5922977Y15665239D02*
X-5065834Y14379524D01*
X-6970596Y15665239D02*
X-6113453Y14379524D01*
X-7732500Y15284286D02*
X-7732500Y14474762D01*
X-7684881Y14379524D01*
X-7637262Y14331905D01*
X-7542024Y14284286D01*
X-7399167Y14284286D01*
X-7303929Y14331905D01*
X-7732500Y14665239D02*
X-7637262Y14617620D01*
X-7446786Y14617620D01*
X-7351548Y14665239D01*
X-7303929Y14712858D01*
X-7256310Y14808096D01*
X-7256310Y15093810D01*
X-7303929Y15189048D01*
X-7351548Y15236667D01*
X-7446786Y15284286D01*
X-7637262Y15284286D01*
X-7732500Y15236667D01*
X-8208691Y14617620D02*
X-8208691Y15284286D01*
X-8208691Y15617620D02*
X-8161072Y15570000D01*
X-8208691Y15522381D01*
X-8256310Y15570000D01*
X-8208691Y15617620D01*
X-8208691Y15522381D01*
X-8542024Y15284286D02*
X-8922977Y15284286D01*
X-8684881Y15617620D02*
X-8684881Y14760477D01*
X-8732500Y14665239D01*
X-8827739Y14617620D01*
X-8922977Y14617620D01*
X-9256310Y14617620D02*
X-9256310Y15617620D01*
X-9684881Y14617620D02*
X-9684881Y15141429D01*
X-9637262Y15236667D01*
X-9542024Y15284286D01*
X-9399167Y15284286D01*
X-9303929Y15236667D01*
X-9256310Y15189048D01*
X-10589643Y15284286D02*
X-10589643Y14617620D01*
X-10161072Y15284286D02*
X-10161072Y14760477D01*
X-10208691Y14665239D01*
X-10303929Y14617620D01*
X-10446786Y14617620D01*
X-10542024Y14665239D01*
X-10589643Y14712858D01*
X-11065834Y14617620D02*
X-11065834Y15617620D01*
X-11065834Y15236667D02*
X-11161072Y15284286D01*
X-11351548Y15284286D01*
X-11446786Y15236667D01*
X-11494405Y15189048D01*
X-11542024Y15093810D01*
X-11542024Y14808096D01*
X-11494405Y14712858D01*
X-11446786Y14665239D01*
X-11351548Y14617620D01*
X-11161072Y14617620D01*
X-11065834Y14665239D01*
X-11970596Y14712858D02*
X-12018215Y14665239D01*
X-11970596Y14617620D01*
X-11922977Y14665239D01*
X-11970596Y14712858D01*
X-11970596Y14617620D01*
X-12875358Y14665239D02*
X-12780120Y14617620D01*
X-12589643Y14617620D01*
X-12494405Y14665239D01*
X-12446786Y14712858D01*
X-12399167Y14808096D01*
X-12399167Y15093810D01*
X-12446786Y15189048D01*
X-12494405Y15236667D01*
X-12589643Y15284286D01*
X-12780120Y15284286D01*
X-12875358Y15236667D01*
X-13446786Y14617620D02*
X-13351548Y14665239D01*
X-13303929Y14712858D01*
X-13256310Y14808096D01*
X-13256310Y15093810D01*
X-13303929Y15189048D01*
X-13351548Y15236667D01*
X-13446786Y15284286D01*
X-13589643Y15284286D01*
X-13684881Y15236667D01*
X-13732500Y15189048D01*
X-13780120Y15093810D01*
X-13780120Y14808096D01*
X-13732500Y14712858D01*
X-13684881Y14665239D01*
X-13589643Y14617620D01*
X-13446786Y14617620D01*
X-14208691Y14617620D02*
X-14208691Y15284286D01*
X-14208691Y15189048D02*
X-14256310Y15236667D01*
X-14351548Y15284286D01*
X-14494405Y15284286D01*
X-14589643Y15236667D01*
X-14637262Y15141429D01*
X-14637262Y14617620D01*
X-14637262Y15141429D02*
X-14684881Y15236667D01*
X-14780120Y15284286D01*
X-14922977Y15284286D01*
X-15018215Y15236667D01*
X-15065834Y15141429D01*
X-15065834Y14617620D01*
X-16256310Y15665239D02*
X-15399167Y14379524D01*
X-16589643Y15284286D02*
X-16589643Y14427143D01*
X-16542024Y14331905D01*
X-16446786Y14284286D01*
X-16399167Y14284286D01*
X-16589643Y15617620D02*
X-16542024Y15570000D01*
X-16589643Y15522381D01*
X-16637262Y15570000D01*
X-16589643Y15617620D01*
X-16589643Y15522381D01*
X-17494405Y14617620D02*
X-17494405Y15141429D01*
X-17446786Y15236667D01*
X-17351548Y15284286D01*
X-17161072Y15284286D01*
X-17065834Y15236667D01*
X-17494405Y14665239D02*
X-17399167Y14617620D01*
X-17161072Y14617620D01*
X-17065834Y14665239D01*
X-17018215Y14760477D01*
X-17018215Y14855715D01*
X-17065834Y14950953D01*
X-17161072Y14998572D01*
X-17399167Y14998572D01*
X-17494405Y15046191D01*
X-17970596Y14617620D02*
X-17970596Y15284286D01*
X-17970596Y15189048D02*
X-18018215Y15236667D01*
X-18113453Y15284286D01*
X-18256310Y15284286D01*
X-18351548Y15236667D01*
X-18399167Y15141429D01*
X-18399167Y14617620D01*
X-18399167Y15141429D02*
X-18446786Y15236667D01*
X-18542024Y15284286D01*
X-18684881Y15284286D01*
X-18780120Y15236667D01*
X-18827739Y15141429D01*
X-18827739Y14617620D01*
X-19684881Y14665239D02*
X-19589643Y14617620D01*
X-19399167Y14617620D01*
X-19303929Y14665239D01*
X-19256310Y14760477D01*
X-19256310Y15141429D01*
X-19303929Y15236667D01*
X-19399167Y15284286D01*
X-19589643Y15284286D01*
X-19684881Y15236667D01*
X-19732500Y15141429D01*
X-19732500Y15046191D01*
X-19256310Y14950953D01*
X-20113453Y14665239D02*
X-20208691Y14617620D01*
X-20399167Y14617620D01*
X-20494405Y14665239D01*
X-20542024Y14760477D01*
X-20542024Y14808096D01*
X-20494405Y14903334D01*
X-20399167Y14950953D01*
X-20256310Y14950953D01*
X-20161072Y14998572D01*
X-20113453Y15093810D01*
X-20113453Y15141429D01*
X-20161072Y15236667D01*
X-20256310Y15284286D01*
X-20399167Y15284286D01*
X-20494405Y15236667D01*
X-20922977Y14665239D02*
X-21018215Y14617620D01*
X-21208691Y14617620D01*
X-21303929Y14665239D01*
X-21351548Y14760477D01*
X-21351548Y14808096D01*
X-21303929Y14903334D01*
X-21208691Y14950953D01*
X-21065834Y14950953D01*
X-20970596Y14998572D01*
X-20922977Y15093810D01*
X-20922977Y15141429D01*
X-20970596Y15236667D01*
X-21065834Y15284286D01*
X-21208691Y15284286D01*
X-21303929Y15236667D01*
X-22208691Y14617620D02*
X-22208691Y15141429D01*
X-22161072Y15236667D01*
X-22065834Y15284286D01*
X-21875358Y15284286D01*
X-21780120Y15236667D01*
X-22208691Y14665239D02*
X-22113453Y14617620D01*
X-21875358Y14617620D01*
X-21780120Y14665239D01*
X-21732500Y14760477D01*
X-21732500Y14855715D01*
X-21780120Y14950953D01*
X-21875358Y14998572D01*
X-22113453Y14998572D01*
X-22208691Y15046191D01*
X-23399167Y15665239D02*
X-22542024Y14379524D01*
X-23732500Y14617620D02*
X-23732500Y15617620D01*
X-24113453Y15617620D01*
X-24208691Y15570000D01*
X-24256310Y15522381D01*
X-24303929Y15427143D01*
X-24303929Y15284286D01*
X-24256310Y15189048D01*
X-24208691Y15141429D01*
X-24113453Y15093810D01*
X-23732500Y15093810D01*
X-24732500Y14617620D02*
X-24732500Y15284286D01*
X-24732500Y15093810D02*
X-24780120Y15189048D01*
X-24827739Y15236667D01*
X-24922977Y15284286D01*
X-25018215Y15284286D01*
X-25780120Y14617620D02*
X-25780120Y15141429D01*
X-25732500Y15236667D01*
X-25637262Y15284286D01*
X-25446786Y15284286D01*
X-25351548Y15236667D01*
X-25780120Y14665239D02*
X-25684881Y14617620D01*
X-25446786Y14617620D01*
X-25351548Y14665239D01*
X-25303929Y14760477D01*
X-25303929Y14855715D01*
X-25351548Y14950953D01*
X-25446786Y14998572D01*
X-25684881Y14998572D01*
X-25780120Y15046191D01*
X-26684881Y15284286D02*
X-26684881Y14474762D01*
X-26637262Y14379524D01*
X-26589643Y14331905D01*
X-26494405Y14284286D01*
X-26351548Y14284286D01*
X-26256310Y14331905D01*
X-26684881Y14665239D02*
X-26589643Y14617620D01*
X-26399167Y14617620D01*
X-26303929Y14665239D01*
X-26256310Y14712858D01*
X-26208691Y14808096D01*
X-26208691Y15093810D01*
X-26256310Y15189048D01*
X-26303929Y15236667D01*
X-26399167Y15284286D01*
X-26589643Y15284286D01*
X-26684881Y15236667D01*
X-27161072Y14617620D02*
X-27161072Y15284286D01*
X-27161072Y15189048D02*
X-27208691Y15236667D01*
X-27303929Y15284286D01*
X-27446786Y15284286D01*
X-27542024Y15236667D01*
X-27589643Y15141429D01*
X-27589643Y14617620D01*
X-27589643Y15141429D02*
X-27637262Y15236667D01*
X-27732500Y15284286D01*
X-27875358Y15284286D01*
X-27970596Y15236667D01*
X-28018215Y15141429D01*
X-28018215Y14617620D01*
X-28922977Y14617620D02*
X-28922977Y15141429D01*
X-28875358Y15236667D01*
X-28780120Y15284286D01*
X-28589643Y15284286D01*
X-28494405Y15236667D01*
X-28922977Y14665239D02*
X-28827739Y14617620D01*
X-28589643Y14617620D01*
X-28494405Y14665239D01*
X-28446786Y14760477D01*
X-28446786Y14855715D01*
X-28494405Y14950953D01*
X-28589643Y14998572D01*
X-28827739Y14998572D01*
X-28922977Y15046191D01*
X-29256310Y15284286D02*
X-29637262Y15284286D01*
X-29399167Y15617620D02*
X-29399167Y14760477D01*
X-29446786Y14665239D01*
X-29542024Y14617620D01*
X-29637262Y14617620D01*
X-29970596Y14617620D02*
X-29970596Y15284286D01*
X-29970596Y15617620D02*
X-29922977Y15570000D01*
X-29970596Y15522381D01*
X-30018215Y15570000D01*
X-29970596Y15617620D01*
X-29970596Y15522381D01*
X-30875358Y14665239D02*
X-30780120Y14617620D01*
X-30589643Y14617620D01*
X-30494405Y14665239D01*
X-30446786Y14712858D01*
X-30399167Y14808096D01*
X-30399167Y15093810D01*
X-30446786Y15189048D01*
X-30494405Y15236667D01*
X-30589643Y15284286D01*
X-30780120Y15284286D01*
X-30875358Y15236667D01*
X-80978953Y15034381D02*
X-80978953Y14308667D01*
X-80931334Y14163524D01*
X-80836096Y14066762D01*
X-80693239Y14018381D01*
X-80598000Y14018381D01*
X-81931334Y14018381D02*
X-81455143Y14018381D01*
X-81455143Y15034381D01*
X-82836096Y14115143D02*
X-82788477Y14066762D01*
X-82645620Y14018381D01*
X-82550381Y14018381D01*
X-82407524Y14066762D01*
X-82312286Y14163524D01*
X-82264667Y14260286D01*
X-82217048Y14453810D01*
X-82217048Y14598953D01*
X-82264667Y14792477D01*
X-82312286Y14889239D01*
X-82407524Y14986000D01*
X-82550381Y15034381D01*
X-82645620Y15034381D01*
X-82788477Y14986000D01*
X-82836096Y14937620D01*
X-83550381Y15034381D02*
X-83550381Y14308667D01*
X-83502762Y14163524D01*
X-83407524Y14066762D01*
X-83264667Y14018381D01*
X-83169429Y14018381D01*
X-84502762Y14018381D02*
X-84026572Y14018381D01*
X-84026572Y15034381D01*
X-85407524Y14115143D02*
X-85359905Y14066762D01*
X-85217048Y14018381D01*
X-85121810Y14018381D01*
X-84978953Y14066762D01*
X-84883715Y14163524D01*
X-84836096Y14260286D01*
X-84788477Y14453810D01*
X-84788477Y14598953D01*
X-84836096Y14792477D01*
X-84883715Y14889239D01*
X-84978953Y14986000D01*
X-85121810Y15034381D01*
X-85217048Y15034381D01*
X-85359905Y14986000D01*
X-85407524Y14937620D01*
X-86121810Y15034381D02*
X-86121810Y14308667D01*
X-86074191Y14163524D01*
X-85978953Y14066762D01*
X-85836096Y14018381D01*
X-85740858Y14018381D01*
X-87074191Y14018381D02*
X-86598000Y14018381D01*
X-86598000Y15034381D01*
X-87978953Y14115143D02*
X-87931334Y14066762D01*
X-87788477Y14018381D01*
X-87693239Y14018381D01*
X-87550381Y14066762D01*
X-87455143Y14163524D01*
X-87407524Y14260286D01*
X-87359905Y14453810D01*
X-87359905Y14598953D01*
X-87407524Y14792477D01*
X-87455143Y14889239D01*
X-87550381Y14986000D01*
X-87693239Y15034381D01*
X-87788477Y15034381D01*
X-87931334Y14986000D01*
X-87978953Y14937620D01*
X-88693239Y15034381D02*
X-88693239Y14308667D01*
X-88645620Y14163524D01*
X-88550381Y14066762D01*
X-88407524Y14018381D01*
X-88312286Y14018381D01*
X-89645620Y14018381D02*
X-89169429Y14018381D01*
X-89169429Y15034381D01*
X-90550381Y14115143D02*
X-90502762Y14066762D01*
X-90359905Y14018381D01*
X-90264667Y14018381D01*
X-90121810Y14066762D01*
X-90026572Y14163524D01*
X-89978953Y14260286D01*
X-89931334Y14453810D01*
X-89931334Y14598953D01*
X-89978953Y14792477D01*
X-90026572Y14889239D01*
X-90121810Y14986000D01*
X-90264667Y15034381D01*
X-90359905Y15034381D01*
X-90502762Y14986000D01*
X-90550381Y14937620D01*
X-80598000Y17565620D02*
X-80931334Y16565620D01*
X-81264667Y17565620D01*
X-81550381Y17470381D02*
X-81598000Y17518000D01*
X-81693239Y17565620D01*
X-81931334Y17565620D01*
X-82026572Y17518000D01*
X-82074191Y17470381D01*
X-82121810Y17375143D01*
X-82121810Y17279905D01*
X-82074191Y17137048D01*
X-81502762Y16565620D01*
X-82121810Y16565620D01*
X-82550381Y16660858D02*
X-82598000Y16613239D01*
X-82550381Y16565620D01*
X-82502762Y16613239D01*
X-82550381Y16660858D01*
X-82550381Y16565620D01*
X-83550381Y16565620D02*
X-82978953Y16565620D01*
X-83264667Y16565620D02*
X-83264667Y17565620D01*
X-83169429Y17422762D01*
X-83074191Y17327524D01*
X-82978953Y17279905D01*
X-84740858Y16565620D02*
X-84740858Y17565620D01*
X-84740858Y17089429D02*
X-85312286Y17089429D01*
X-85312286Y16565620D02*
X-85312286Y17565620D01*
X-85931334Y16565620D02*
X-85836096Y16613239D01*
X-85788477Y16660858D01*
X-85740858Y16756096D01*
X-85740858Y17041810D01*
X-85788477Y17137048D01*
X-85836096Y17184667D01*
X-85931334Y17232286D01*
X-86074191Y17232286D01*
X-86169429Y17184667D01*
X-86217048Y17137048D01*
X-86264667Y17041810D01*
X-86264667Y16756096D01*
X-86217048Y16660858D01*
X-86169429Y16613239D01*
X-86074191Y16565620D01*
X-85931334Y16565620D01*
X-86550381Y17232286D02*
X-86931334Y17232286D01*
X-86693239Y17565620D02*
X-86693239Y16708477D01*
X-86740858Y16613239D01*
X-86836096Y16565620D01*
X-86931334Y16565620D01*
X-87217048Y16613239D02*
X-87312286Y16565620D01*
X-87502762Y16565620D01*
X-87598000Y16613239D01*
X-87645620Y16708477D01*
X-87645620Y16756096D01*
X-87598000Y16851334D01*
X-87502762Y16898953D01*
X-87359905Y16898953D01*
X-87264667Y16946572D01*
X-87217048Y17041810D01*
X-87217048Y17089429D01*
X-87264667Y17184667D01*
X-87359905Y17232286D01*
X-87502762Y17232286D01*
X-87598000Y17184667D01*
X-87978953Y17232286D02*
X-88169429Y16565620D01*
X-88359905Y17041810D01*
X-88550381Y16565620D01*
X-88740858Y17232286D01*
X-89550381Y16565620D02*
X-89550381Y17089429D01*
X-89502762Y17184667D01*
X-89407524Y17232286D01*
X-89217048Y17232286D01*
X-89121810Y17184667D01*
X-89550381Y16613239D02*
X-89455143Y16565620D01*
X-89217048Y16565620D01*
X-89121810Y16613239D01*
X-89074191Y16708477D01*
X-89074191Y16803715D01*
X-89121810Y16898953D01*
X-89217048Y16946572D01*
X-89455143Y16946572D01*
X-89550381Y16994191D01*
X-90026572Y17232286D02*
X-90026572Y16232286D01*
X-90026572Y17184667D02*
X-90121810Y17232286D01*
X-90312286Y17232286D01*
X-90407524Y17184667D01*
X-90455143Y17137048D01*
X-90502762Y17041810D01*
X-90502762Y16756096D01*
X-90455143Y16660858D01*
X-90407524Y16613239D01*
X-90312286Y16565620D01*
X-90121810Y16565620D01*
X-90026572Y16613239D01*
X-101350000Y4850000D02*
X-101350000Y3937000D01*
X-90450000Y6804000D02*
X-99075000Y6804000D01*
X-97530000Y-7500000D02*
X-97530000Y-8200000D01*
X-102525000Y-5334000D02*
X-102525000Y-6025000D01*
X-92975000Y-8225000D02*
X-97525000Y-8225000D01*
X-90450000Y6477000D02*
X-90450000Y6804000D01*
X-99949000Y896000D02*
X-97740000Y896000D01*
X-90450000Y2896000D02*
X-90450000Y3683000D01*
X-90450000Y2850000D02*
X-95500000Y2804000D01*
X-92950000Y-4318000D02*
X-92950000Y-4318000D01*
X-101350000Y1143000D02*
X-101350000Y905000D01*
X-102525000Y-1375000D02*
X-102525000Y-2032000D01*
X-98750000Y-6025000D02*
X-102525000Y-6025000D01*
X-92950000Y-3600000D02*
X-92950000Y-4318000D01*
X-92950000Y-7620000D02*
X-92950000Y-8200000D01*
X-97825000Y-1375000D02*
X-102525000Y-1375000D01*
X-92975000Y-3575000D02*
X-95525000Y-3575000D01*
X-99075000Y6804000D02*
G75*
G03*
X-101339000Y4920000I-190000J-2074000D01*
G01*
X-95475000Y2800000D02*
G75*
G03*
X-97735000Y920000I-190000J-2070000D01*
G01*
X-97820000Y-1400000D02*
G75*
G03*
X-95450000Y-3570000I2270000J100000D01*
G01*
X-97530000Y-7450000D02*
G75*
G03*
X-98750000Y-6030000I-1320000J100000D01*
G01*
X-90450000Y-12246000D02*
X-99075000Y-12246000D01*
X-102525000Y-20425000D02*
X-102525000Y-21082000D01*
X-97825000Y-20425000D02*
X-102525000Y-20425000D01*
X-101350000Y-17907000D02*
X-101350000Y-18145000D01*
X-90450000Y-16200000D02*
X-95500000Y-16246000D01*
X-102525000Y-24384000D02*
X-102525000Y-25075000D01*
X-92975000Y-27275000D02*
X-97525000Y-27275000D01*
X-101350000Y-14200000D02*
X-101350000Y-15113000D01*
X-92950000Y-22650000D02*
X-92950000Y-23368000D01*
X-99949000Y-18154000D02*
X-97740000Y-18154000D01*
X-92950000Y-26670000D02*
X-92950000Y-27250000D01*
X-90450000Y-12573000D02*
X-90450000Y-12246000D01*
X-90450000Y-16154000D02*
X-90450000Y-15367000D01*
X-97530000Y-26550000D02*
X-97530000Y-27250000D01*
X-98750000Y-25075000D02*
X-102525000Y-25075000D01*
X-92950000Y-23368000D02*
X-92950000Y-23368000D01*
X-92975000Y-22625000D02*
X-95525000Y-22625000D01*
X-97530000Y-26500000D02*
G75*
G03*
X-98750000Y-25080000I-1320000J100000D01*
G01*
X-99075000Y-12246000D02*
G75*
G03*
X-101339000Y-14130000I-190000J-2074000D01*
G01*
X-97820000Y-20450000D02*
G75*
G03*
X-95450000Y-22620000I2270000J100000D01*
G01*
X-95475000Y-16250000D02*
G75*
G03*
X-97735000Y-18130000I-190000J-2070000D01*
G01*
X-73900000Y-22650000D02*
X-73900000Y-23368000D01*
X-71400000Y-16154000D02*
X-71400000Y-15367000D01*
X-78480000Y-26550000D02*
X-78480000Y-27250000D01*
X-79700000Y-25075000D02*
X-83475000Y-25075000D01*
X-71400000Y-12573000D02*
X-71400000Y-12246000D01*
X-71400000Y-16200000D02*
X-76450000Y-16246000D01*
X-73925000Y-22625000D02*
X-76475000Y-22625000D01*
X-73900000Y-23368000D02*
X-73900000Y-23368000D01*
X-82300000Y-14200000D02*
X-82300000Y-15113000D01*
X-71400000Y-12246000D02*
X-80025000Y-12246000D01*
X-83475000Y-20425000D02*
X-83475000Y-21082000D01*
X-73900000Y-26670000D02*
X-73900000Y-27250000D01*
X-83475000Y-24384000D02*
X-83475000Y-25075000D01*
X-80899000Y-18154000D02*
X-78690000Y-18154000D01*
X-78775000Y-20425000D02*
X-83475000Y-20425000D01*
X-82300000Y-17907000D02*
X-82300000Y-18145000D01*
X-73925000Y-27275000D02*
X-78475000Y-27275000D01*
X-76425000Y-16250000D02*
G75*
G03*
X-78685000Y-18130000I-190000J-2070000D01*
G01*
X-78770000Y-20450000D02*
G75*
G03*
X-76400000Y-22620000I2270000J100000D01*
G01*
X-78480000Y-26500000D02*
G75*
G03*
X-79700000Y-25080000I-1320000J100000D01*
G01*
X-80025000Y-12246000D02*
G75*
G03*
X-82289000Y-14130000I-190000J-2074000D01*
G01*
X-71400000Y2850000D02*
X-76450000Y2804000D01*
X-83475000Y-5334000D02*
X-83475000Y-6025000D01*
X-82300000Y4850000D02*
X-82300000Y3937000D01*
X-83475000Y-1375000D02*
X-83475000Y-2032000D01*
X-73925000Y-3575000D02*
X-76475000Y-3575000D01*
X-71400000Y6804000D02*
X-80025000Y6804000D01*
X-73900000Y-7620000D02*
X-73900000Y-8200000D01*
X-71400000Y6477000D02*
X-71400000Y6804000D01*
X-71400000Y2896000D02*
X-71400000Y3683000D01*
X-79700000Y-6025000D02*
X-83475000Y-6025000D01*
X-80899000Y896000D02*
X-78690000Y896000D01*
X-73900000Y-4318000D02*
X-73900000Y-4318000D01*
X-73900000Y-3600000D02*
X-73900000Y-4318000D01*
X-78775000Y-1375000D02*
X-83475000Y-1375000D01*
X-73925000Y-8225000D02*
X-78475000Y-8225000D01*
X-82300000Y1143000D02*
X-82300000Y905000D01*
X-78480000Y-7500000D02*
X-78480000Y-8200000D01*
X-76425000Y2800000D02*
G75*
G03*
X-78685000Y920000I-190000J-2070000D01*
G01*
X-78480000Y-7450000D02*
G75*
G03*
X-79700000Y-6030000I-1320000J100000D01*
G01*
X-78770000Y-1400000D02*
G75*
G03*
X-76400000Y-3570000I2270000J100000D01*
G01*
X-80025000Y6804000D02*
G75*
G03*
X-82289000Y4920000I-190000J-2074000D01*
G01*
X-61849000Y896000D02*
X-59640000Y896000D01*
X-54850000Y-7620000D02*
X-54850000Y-8200000D01*
X-64425000Y-1375000D02*
X-64425000Y-2032000D01*
X-52350000Y2896000D02*
X-52350000Y3683000D01*
X-54875000Y-3575000D02*
X-57425000Y-3575000D01*
X-59430000Y-7500000D02*
X-59430000Y-8200000D01*
X-52350000Y2850000D02*
X-57400000Y2804000D01*
X-52350000Y6804000D02*
X-60975000Y6804000D01*
X-63250000Y1143000D02*
X-63250000Y905000D01*
X-59725000Y-1375000D02*
X-64425000Y-1375000D01*
X-54850000Y-4318000D02*
X-54850000Y-4318000D01*
X-60650000Y-6025000D02*
X-64425000Y-6025000D01*
X-52350000Y6477000D02*
X-52350000Y6804000D01*
X-54875000Y-8225000D02*
X-59425000Y-8225000D01*
X-54850000Y-3600000D02*
X-54850000Y-4318000D01*
X-63250000Y4850000D02*
X-63250000Y3937000D01*
X-64425000Y-5334000D02*
X-64425000Y-6025000D01*
X-57375000Y2800000D02*
G75*
G03*
X-59635000Y920000I-190000J-2070000D01*
G01*
X-60975000Y6804000D02*
G75*
G03*
X-63239000Y4920000I-190000J-2074000D01*
G01*
X-59720000Y-1400000D02*
G75*
G03*
X-57350000Y-3570000I2270000J100000D01*
G01*
X-59430000Y-7450000D02*
G75*
G03*
X-60650000Y-6030000I-1320000J100000D01*
G01*
X-41600000Y-6025000D02*
X-45375000Y-6025000D01*
X-35800000Y-4318000D02*
X-35800000Y-4318000D01*
X-33300000Y2896000D02*
X-33300000Y3683000D01*
X-35800000Y-3600000D02*
X-35800000Y-4318000D01*
X-44200000Y4850000D02*
X-44200000Y3937000D01*
X-33300000Y6804000D02*
X-41925000Y6804000D01*
X-33300000Y6477000D02*
X-33300000Y6804000D01*
X-45375000Y-5334000D02*
X-45375000Y-6025000D01*
X-35825000Y-3575000D02*
X-38375000Y-3575000D01*
X-40380000Y-7500000D02*
X-40380000Y-8200000D01*
X-44200000Y1143000D02*
X-44200000Y905000D01*
X-42799000Y896000D02*
X-40590000Y896000D01*
X-45375000Y-1375000D02*
X-45375000Y-2032000D01*
X-35825000Y-8225000D02*
X-40375000Y-8225000D01*
X-40675000Y-1375000D02*
X-45375000Y-1375000D01*
X-35800000Y-7620000D02*
X-35800000Y-8200000D01*
X-33300000Y2850000D02*
X-38350000Y2804000D01*
X-41925000Y6804000D02*
G75*
G03*
X-44189000Y4920000I-190000J-2074000D01*
G01*
X-38325000Y2800000D02*
G75*
G03*
X-40585000Y920000I-190000J-2070000D01*
G01*
X-40670000Y-1400000D02*
G75*
G03*
X-38300000Y-3570000I2270000J100000D01*
G01*
X-40380000Y-7450000D02*
G75*
G03*
X-41600000Y-6030000I-1320000J100000D01*
G01*
X-23749000Y896000D02*
X-21540000Y896000D01*
X-16750000Y-3600000D02*
X-16750000Y-4318000D01*
X-14250000Y2850000D02*
X-19300000Y2804000D01*
X-16750000Y-7620000D02*
X-16750000Y-8200000D01*
X-22550000Y-6025000D02*
X-26325000Y-6025000D01*
X-25150000Y1143000D02*
X-25150000Y905000D01*
X-16750000Y-4318000D02*
X-16750000Y-4318000D01*
X-26325000Y-5334000D02*
X-26325000Y-6025000D01*
X-14250000Y6804000D02*
X-22875000Y6804000D01*
X-14250000Y6477000D02*
X-14250000Y6804000D01*
X-21625000Y-1375000D02*
X-26325000Y-1375000D01*
X-25150000Y4850000D02*
X-25150000Y3937000D01*
X-14250000Y2896000D02*
X-14250000Y3683000D01*
X-16775000Y-3575000D02*
X-19325000Y-3575000D01*
X-21330000Y-7500000D02*
X-21330000Y-8200000D01*
X-16775000Y-8225000D02*
X-21325000Y-8225000D01*
X-26325000Y-1375000D02*
X-26325000Y-2032000D01*
X-21620000Y-1400000D02*
G75*
G03*
X-19250000Y-3570000I2270000J100000D01*
G01*
X-19275000Y2800000D02*
G75*
G03*
X-21535000Y920000I-190000J-2070000D01*
G01*
X-21330000Y-7450000D02*
G75*
G03*
X-22550000Y-6030000I-1320000J100000D01*
G01*
X-22875000Y6804000D02*
G75*
G03*
X-25139000Y4920000I-190000J-2074000D01*
G01*
X-3500000Y-6025000D02*
X-7275000Y-6025000D01*
X2300000Y-4318000D02*
X2300000Y-4318000D01*
X-6100000Y4850000D02*
X-6100000Y3937000D01*
X4800000Y2896000D02*
X4800000Y3683000D01*
X2275000Y-8225000D02*
X-2275000Y-8225000D01*
X-4699000Y896000D02*
X-2490000Y896000D01*
X4800000Y2850000D02*
X-250000Y2804000D01*
X2275000Y-3575000D02*
X-275000Y-3575000D01*
X-6100000Y1143000D02*
X-6100000Y905000D01*
X-7275000Y-5334000D02*
X-7275000Y-6025000D01*
X2300000Y-3600000D02*
X2300000Y-4318000D01*
X-2280000Y-7500000D02*
X-2280000Y-8200000D01*
X-7275000Y-1375000D02*
X-7275000Y-2032000D01*
X4800000Y6804000D02*
X-3825000Y6804000D01*
X4800000Y6477000D02*
X4800000Y6804000D01*
X2300000Y-7620000D02*
X2300000Y-8200000D01*
X-2575000Y-1375000D02*
X-7275000Y-1375000D01*
X-2570000Y-1400000D02*
G75*
G03*
X-200000Y-3570000I2270000J100000D01*
G01*
X-2280000Y-7450000D02*
G75*
G03*
X-3500000Y-6030000I-1320000J100000D01*
G01*
X-225000Y2800000D02*
G75*
G03*
X-2485000Y920000I-190000J-2070000D01*
G01*
X-3825000Y6804000D02*
G75*
G03*
X-6089000Y4920000I-190000J-2074000D01*
G01*
X-61849000Y-18154000D02*
X-59640000Y-18154000D01*
X-54850000Y-22650000D02*
X-54850000Y-23368000D01*
X-64425000Y-24384000D02*
X-64425000Y-25075000D01*
X-54850000Y-26670000D02*
X-54850000Y-27250000D01*
X-54875000Y-27275000D02*
X-59425000Y-27275000D01*
X-63250000Y-17907000D02*
X-63250000Y-18145000D01*
X-52350000Y-16154000D02*
X-52350000Y-15367000D01*
X-59725000Y-20425000D02*
X-64425000Y-20425000D01*
X-60650000Y-25075000D02*
X-64425000Y-25075000D01*
X-54850000Y-23368000D02*
X-54850000Y-23368000D01*
X-54875000Y-22625000D02*
X-57425000Y-22625000D01*
X-52350000Y-16200000D02*
X-57400000Y-16246000D01*
X-59430000Y-26550000D02*
X-59430000Y-27250000D01*
X-52350000Y-12246000D02*
X-60975000Y-12246000D01*
X-52350000Y-12573000D02*
X-52350000Y-12246000D01*
X-63250000Y-14200000D02*
X-63250000Y-15113000D01*
X-64425000Y-20425000D02*
X-64425000Y-21082000D01*
X-59430000Y-26500000D02*
G75*
G03*
X-60650000Y-25080000I-1320000J100000D01*
G01*
X-59720000Y-20450000D02*
G75*
G03*
X-57350000Y-22620000I2270000J100000D01*
G01*
X-57375000Y-16250000D02*
G75*
G03*
X-59635000Y-18130000I-190000J-2070000D01*
G01*
X-60975000Y-12246000D02*
G75*
G03*
X-63239000Y-14130000I-190000J-2074000D01*
G01*
X-35800000Y-26670000D02*
X-35800000Y-27250000D01*
X-40380000Y-26550000D02*
X-40380000Y-27250000D01*
X-40675000Y-20425000D02*
X-45375000Y-20425000D01*
X-45375000Y-20425000D02*
X-45375000Y-21082000D01*
X-33300000Y-12246000D02*
X-41925000Y-12246000D01*
X-35800000Y-22650000D02*
X-35800000Y-23368000D01*
X-35800000Y-23368000D02*
X-35800000Y-23368000D01*
X-33300000Y-12573000D02*
X-33300000Y-12246000D01*
X-44200000Y-14200000D02*
X-44200000Y-15113000D01*
X-45375000Y-24384000D02*
X-45375000Y-25075000D01*
X-35825000Y-27275000D02*
X-40375000Y-27275000D01*
X-33300000Y-16200000D02*
X-38350000Y-16246000D01*
X-33300000Y-16154000D02*
X-33300000Y-15367000D01*
X-44200000Y-17907000D02*
X-44200000Y-18145000D01*
X-42799000Y-18154000D02*
X-40590000Y-18154000D01*
X-35825000Y-22625000D02*
X-38375000Y-22625000D01*
X-41600000Y-25075000D02*
X-45375000Y-25075000D01*
X-40670000Y-20450000D02*
G75*
G03*
X-38300000Y-22620000I2270000J100000D01*
G01*
X-41925000Y-12246000D02*
G75*
G03*
X-44189000Y-14130000I-190000J-2074000D01*
G01*
X-40380000Y-26500000D02*
G75*
G03*
X-41600000Y-25080000I-1320000J100000D01*
G01*
X-38325000Y-16250000D02*
G75*
G03*
X-40585000Y-18130000I-190000J-2070000D01*
G01*
X-16750000Y-22650000D02*
X-16750000Y-23368000D01*
X-25150000Y-17907000D02*
X-25150000Y-18145000D01*
X-14250000Y-16200000D02*
X-19300000Y-16246000D01*
X-16775000Y-27275000D02*
X-21325000Y-27275000D01*
X-22550000Y-25075000D02*
X-26325000Y-25075000D01*
X-16775000Y-22625000D02*
X-19325000Y-22625000D01*
X-14250000Y-12573000D02*
X-14250000Y-12246000D01*
X-21330000Y-26550000D02*
X-21330000Y-27250000D01*
X-16750000Y-26670000D02*
X-16750000Y-27250000D01*
X-23749000Y-18154000D02*
X-21540000Y-18154000D01*
X-21625000Y-20425000D02*
X-26325000Y-20425000D01*
X-25150000Y-14200000D02*
X-25150000Y-15113000D01*
X-14250000Y-16154000D02*
X-14250000Y-15367000D01*
X-16750000Y-23368000D02*
X-16750000Y-23368000D01*
X-26325000Y-20425000D02*
X-26325000Y-21082000D01*
X-14250000Y-12246000D02*
X-22875000Y-12246000D01*
X-26325000Y-24384000D02*
X-26325000Y-25075000D01*
X-19275000Y-16250000D02*
G75*
G03*
X-21535000Y-18130000I-190000J-2070000D01*
G01*
X-22875000Y-12246000D02*
G75*
G03*
X-25139000Y-14130000I-190000J-2074000D01*
G01*
X-21620000Y-20450000D02*
G75*
G03*
X-19250000Y-22620000I2270000J100000D01*
G01*
X-21330000Y-26500000D02*
G75*
G03*
X-22550000Y-25080000I-1320000J100000D01*
G01*
X4800000Y-12246000D02*
X-3825000Y-12246000D01*
X-7275000Y-24384000D02*
X-7275000Y-25075000D01*
X2300000Y-22650000D02*
X2300000Y-23368000D01*
X2275000Y-22625000D02*
X-275000Y-22625000D01*
X-4699000Y-18154000D02*
X-2490000Y-18154000D01*
X2300000Y-26670000D02*
X2300000Y-27250000D01*
X4800000Y-16200000D02*
X-250000Y-16246000D01*
X4800000Y-16154000D02*
X4800000Y-15367000D01*
X-6100000Y-17907000D02*
X-6100000Y-18145000D01*
X-3500000Y-25075000D02*
X-7275000Y-25075000D01*
X-2280000Y-26550000D02*
X-2280000Y-27250000D01*
X4800000Y-12573000D02*
X4800000Y-12246000D01*
X2275000Y-27275000D02*
X-2275000Y-27275000D01*
X-2575000Y-20425000D02*
X-7275000Y-20425000D01*
X2300000Y-23368000D02*
X2300000Y-23368000D01*
X-7275000Y-20425000D02*
X-7275000Y-21082000D01*
X-6100000Y-14200000D02*
X-6100000Y-15113000D01*
X-3825000Y-12246000D02*
G75*
G03*
X-6089000Y-14130000I-190000J-2074000D01*
G01*
X-225000Y-16250000D02*
G75*
G03*
X-2485000Y-18130000I-190000J-2070000D01*
G01*
X-2570000Y-20450000D02*
G75*
G03*
X-200000Y-22620000I2270000J100000D01*
G01*
X-2280000Y-26500000D02*
G75*
G03*
X-3500000Y-25080000I-1320000J100000D01*
G01*
X-98750000Y-44125000D02*
X-102525000Y-44125000D01*
X-102525000Y-39475000D02*
X-102525000Y-40132000D01*
X-102525000Y-43434000D02*
X-102525000Y-44125000D01*
X-101350000Y-36957000D02*
X-101350000Y-37195000D01*
X-99949000Y-37204000D02*
X-97740000Y-37204000D01*
X-90450000Y-31296000D02*
X-99075000Y-31296000D01*
X-90450000Y-35250000D02*
X-95500000Y-35296000D01*
X-92975000Y-46325000D02*
X-97525000Y-46325000D01*
X-92975000Y-41675000D02*
X-95525000Y-41675000D01*
X-97530000Y-45600000D02*
X-97530000Y-46300000D01*
X-90450000Y-35204000D02*
X-90450000Y-34417000D01*
X-92950000Y-41700000D02*
X-92950000Y-42418000D01*
X-92950000Y-45720000D02*
X-92950000Y-46300000D01*
X-101350000Y-33250000D02*
X-101350000Y-34163000D01*
X-90450000Y-31623000D02*
X-90450000Y-31296000D01*
X-92950000Y-42418000D02*
X-92950000Y-42418000D01*
X-97825000Y-39475000D02*
X-102525000Y-39475000D01*
X-95475000Y-35300000D02*
G75*
G03*
X-97735000Y-37180000I-190000J-2070000D01*
G01*
X-97530000Y-45550000D02*
G75*
G03*
X-98750000Y-44130000I-1320000J100000D01*
G01*
X-97820000Y-39500000D02*
G75*
G03*
X-95450000Y-41670000I2270000J100000D01*
G01*
X-99075000Y-31296000D02*
G75*
G03*
X-101339000Y-33180000I-190000J-2074000D01*
G01*
X-73900000Y-42418000D02*
X-73900000Y-42418000D01*
X-82300000Y-33250000D02*
X-82300000Y-34163000D01*
X-71400000Y-35204000D02*
X-71400000Y-34417000D01*
X-83475000Y-43434000D02*
X-83475000Y-44125000D01*
X-83475000Y-39475000D02*
X-83475000Y-40132000D01*
X-78775000Y-39475000D02*
X-83475000Y-39475000D01*
X-80899000Y-37204000D02*
X-78690000Y-37204000D01*
X-71400000Y-31296000D02*
X-80025000Y-31296000D01*
X-71400000Y-31623000D02*
X-71400000Y-31296000D01*
X-78480000Y-45600000D02*
X-78480000Y-46300000D01*
X-73925000Y-46325000D02*
X-78475000Y-46325000D01*
X-71400000Y-35250000D02*
X-76450000Y-35296000D01*
X-73900000Y-45720000D02*
X-73900000Y-46300000D01*
X-79700000Y-44125000D02*
X-83475000Y-44125000D01*
X-73925000Y-41675000D02*
X-76475000Y-41675000D01*
X-73900000Y-41700000D02*
X-73900000Y-42418000D01*
X-82300000Y-36957000D02*
X-82300000Y-37195000D01*
X-80025000Y-31296000D02*
G75*
G03*
X-82289000Y-33180000I-190000J-2074000D01*
G01*
X-78770000Y-39500000D02*
G75*
G03*
X-76400000Y-41670000I2270000J100000D01*
G01*
X-78480000Y-45550000D02*
G75*
G03*
X-79700000Y-44130000I-1320000J100000D01*
G01*
X-76425000Y-35300000D02*
G75*
G03*
X-78685000Y-37180000I-190000J-2070000D01*
G01*
X-54850000Y-45720000D02*
X-54850000Y-46300000D01*
X-59430000Y-45600000D02*
X-59430000Y-46300000D01*
X-52350000Y-35250000D02*
X-57400000Y-35296000D01*
X-54875000Y-46325000D02*
X-59425000Y-46325000D01*
X-54875000Y-41675000D02*
X-57425000Y-41675000D01*
X-54850000Y-42418000D02*
X-54850000Y-42418000D01*
X-59725000Y-39475000D02*
X-64425000Y-39475000D01*
X-64425000Y-39475000D02*
X-64425000Y-40132000D01*
X-52350000Y-35204000D02*
X-52350000Y-34417000D01*
X-61849000Y-37204000D02*
X-59640000Y-37204000D01*
X-64425000Y-43434000D02*
X-64425000Y-44125000D01*
X-54850000Y-41700000D02*
X-54850000Y-42418000D01*
X-52350000Y-31623000D02*
X-52350000Y-31296000D01*
X-52350000Y-31296000D02*
X-60975000Y-31296000D01*
X-63250000Y-33250000D02*
X-63250000Y-34163000D01*
X-63250000Y-36957000D02*
X-63250000Y-37195000D01*
X-60650000Y-44125000D02*
X-64425000Y-44125000D01*
X-60975000Y-31296000D02*
G75*
G03*
X-63239000Y-33180000I-190000J-2074000D01*
G01*
X-59720000Y-39500000D02*
G75*
G03*
X-57350000Y-41670000I2270000J100000D01*
G01*
X-59430000Y-45550000D02*
G75*
G03*
X-60650000Y-44130000I-1320000J100000D01*
G01*
X-57375000Y-35300000D02*
G75*
G03*
X-59635000Y-37180000I-190000J-2070000D01*
G01*
X-33300000Y-35250000D02*
X-38350000Y-35296000D01*
X-44200000Y-36957000D02*
X-44200000Y-37195000D01*
X-33300000Y-35204000D02*
X-33300000Y-34417000D01*
X-42799000Y-37204000D02*
X-40590000Y-37204000D01*
X-35825000Y-41675000D02*
X-38375000Y-41675000D01*
X-33300000Y-31623000D02*
X-33300000Y-31296000D01*
X-33300000Y-31296000D02*
X-41925000Y-31296000D01*
X-40380000Y-45600000D02*
X-40380000Y-46300000D01*
X-45375000Y-43434000D02*
X-45375000Y-44125000D01*
X-41600000Y-44125000D02*
X-45375000Y-44125000D01*
X-35800000Y-41700000D02*
X-35800000Y-42418000D01*
X-35825000Y-46325000D02*
X-40375000Y-46325000D01*
X-40675000Y-39475000D02*
X-45375000Y-39475000D01*
X-44200000Y-33250000D02*
X-44200000Y-34163000D01*
X-45375000Y-39475000D02*
X-45375000Y-40132000D01*
X-35800000Y-42418000D02*
X-35800000Y-42418000D01*
X-35800000Y-45720000D02*
X-35800000Y-46300000D01*
X-41925000Y-31296000D02*
G75*
G03*
X-44189000Y-33180000I-190000J-2074000D01*
G01*
X-38325000Y-35300000D02*
G75*
G03*
X-40585000Y-37180000I-190000J-2070000D01*
G01*
X-40670000Y-39500000D02*
G75*
G03*
X-38300000Y-41670000I2270000J100000D01*
G01*
X-40380000Y-45550000D02*
G75*
G03*
X-41600000Y-44130000I-1320000J100000D01*
G01*
X-16750000Y-41700000D02*
X-16750000Y-42418000D01*
X-26325000Y-43434000D02*
X-26325000Y-44125000D01*
X-16750000Y-45720000D02*
X-16750000Y-46300000D01*
X-23749000Y-37204000D02*
X-21540000Y-37204000D01*
X-16775000Y-41675000D02*
X-19325000Y-41675000D01*
X-26325000Y-39475000D02*
X-26325000Y-40132000D01*
X-16750000Y-42418000D02*
X-16750000Y-42418000D01*
X-25150000Y-33250000D02*
X-25150000Y-34163000D01*
X-21625000Y-39475000D02*
X-26325000Y-39475000D01*
X-21330000Y-45600000D02*
X-21330000Y-46300000D01*
X-14250000Y-31296000D02*
X-22875000Y-31296000D01*
X-16775000Y-46325000D02*
X-21325000Y-46325000D01*
X-14250000Y-35204000D02*
X-14250000Y-34417000D01*
X-22550000Y-44125000D02*
X-26325000Y-44125000D01*
X-14250000Y-35250000D02*
X-19300000Y-35296000D01*
X-25150000Y-36957000D02*
X-25150000Y-37195000D01*
X-14250000Y-31623000D02*
X-14250000Y-31296000D01*
X-22875000Y-31296000D02*
G75*
G03*
X-25139000Y-33180000I-190000J-2074000D01*
G01*
X-21330000Y-45550000D02*
G75*
G03*
X-22550000Y-44130000I-1320000J100000D01*
G01*
X-19275000Y-35300000D02*
G75*
G03*
X-21535000Y-37180000I-190000J-2070000D01*
G01*
X-21620000Y-39500000D02*
G75*
G03*
X-19250000Y-41670000I2270000J100000D01*
G01*
X4800000Y-31623000D02*
X4800000Y-31296000D01*
X2300000Y-45720000D02*
X2300000Y-46300000D01*
X2275000Y-41675000D02*
X-275000Y-41675000D01*
X-6100000Y-36957000D02*
X-6100000Y-37195000D01*
X4800000Y-35250000D02*
X-250000Y-35296000D01*
X4800000Y-35204000D02*
X4800000Y-34417000D01*
X-6100000Y-33250000D02*
X-6100000Y-34163000D01*
X-3500000Y-44125000D02*
X-7275000Y-44125000D01*
X-7275000Y-39475000D02*
X-7275000Y-40132000D01*
X2300000Y-41700000D02*
X2300000Y-42418000D01*
X-7275000Y-43434000D02*
X-7275000Y-44125000D01*
X4800000Y-31296000D02*
X-3825000Y-31296000D01*
X-4699000Y-37204000D02*
X-2490000Y-37204000D01*
X-2280000Y-45600000D02*
X-2280000Y-46300000D01*
X2275000Y-46325000D02*
X-2275000Y-46325000D01*
X-2575000Y-39475000D02*
X-7275000Y-39475000D01*
X2300000Y-42418000D02*
X2300000Y-42418000D01*
X-2280000Y-45550000D02*
G75*
G03*
X-3500000Y-44130000I-1320000J100000D01*
G01*
X-225000Y-35300000D02*
G75*
G03*
X-2485000Y-37180000I-190000J-2070000D01*
G01*
X-2570000Y-39500000D02*
G75*
G03*
X-200000Y-41670000I2270000J100000D01*
G01*
X-3825000Y-31296000D02*
G75*
G03*
X-6089000Y-33180000I-190000J-2074000D01*
G01*
X-97530000Y-64650000D02*
X-97530000Y-65350000D01*
X-102525000Y-62484000D02*
X-102525000Y-63175000D01*
X-98750000Y-63175000D02*
X-102525000Y-63175000D01*
X-92950000Y-64770000D02*
X-92950000Y-65350000D01*
X-102525000Y-58525000D02*
X-102525000Y-59182000D01*
X-92975000Y-60725000D02*
X-95525000Y-60725000D01*
X-92950000Y-60750000D02*
X-92950000Y-61468000D01*
X-97825000Y-58525000D02*
X-102525000Y-58525000D01*
X-90450000Y-54254000D02*
X-90450000Y-53467000D01*
X-101350000Y-56007000D02*
X-101350000Y-56245000D01*
X-101350000Y-52300000D02*
X-101350000Y-53213000D01*
X-92950000Y-61468000D02*
X-92950000Y-61468000D01*
X-90450000Y-50673000D02*
X-90450000Y-50346000D01*
X-99949000Y-56254000D02*
X-97740000Y-56254000D01*
X-92975000Y-65375000D02*
X-97525000Y-65375000D01*
X-90450000Y-50346000D02*
X-99075000Y-50346000D01*
X-90450000Y-54300000D02*
X-95500000Y-54346000D01*
X-95475000Y-54350000D02*
G75*
G03*
X-97735000Y-56230000I-190000J-2070000D01*
G01*
X-99075000Y-50346000D02*
G75*
G03*
X-101339000Y-52230000I-190000J-2074000D01*
G01*
X-97820000Y-58550000D02*
G75*
G03*
X-95450000Y-60720000I2270000J100000D01*
G01*
X-97530000Y-64600000D02*
G75*
G03*
X-98750000Y-63180000I-1320000J100000D01*
G01*
X-80899000Y-56254000D02*
X-78690000Y-56254000D01*
X-71400000Y-54300000D02*
X-76450000Y-54346000D01*
X-82300000Y-52300000D02*
X-82300000Y-53213000D01*
X-83475000Y-62484000D02*
X-83475000Y-63175000D01*
X-78480000Y-64650000D02*
X-78480000Y-65350000D01*
X-73900000Y-61468000D02*
X-73900000Y-61468000D01*
X-71400000Y-54254000D02*
X-71400000Y-53467000D01*
X-71400000Y-50346000D02*
X-80025000Y-50346000D01*
X-82300000Y-56007000D02*
X-82300000Y-56245000D01*
X-73900000Y-60750000D02*
X-73900000Y-61468000D01*
X-73925000Y-65375000D02*
X-78475000Y-65375000D01*
X-71400000Y-50673000D02*
X-71400000Y-50346000D01*
X-83475000Y-58525000D02*
X-83475000Y-59182000D01*
X-79700000Y-63175000D02*
X-83475000Y-63175000D01*
X-78775000Y-58525000D02*
X-83475000Y-58525000D01*
X-73925000Y-60725000D02*
X-76475000Y-60725000D01*
X-73900000Y-64770000D02*
X-73900000Y-65350000D01*
X-76425000Y-54350000D02*
G75*
G03*
X-78685000Y-56230000I-190000J-2070000D01*
G01*
X-78480000Y-64600000D02*
G75*
G03*
X-79700000Y-63180000I-1320000J100000D01*
G01*
X-78770000Y-58550000D02*
G75*
G03*
X-76400000Y-60720000I2270000J100000D01*
G01*
X-80025000Y-50346000D02*
G75*
G03*
X-82289000Y-52230000I-190000J-2074000D01*
G01*
X-54850000Y-60750000D02*
X-54850000Y-61468000D01*
X-54850000Y-64770000D02*
X-54850000Y-65350000D01*
X-59430000Y-64650000D02*
X-59430000Y-65350000D01*
X-52350000Y-50673000D02*
X-52350000Y-50346000D01*
X-54875000Y-60725000D02*
X-57425000Y-60725000D01*
X-52350000Y-54300000D02*
X-57400000Y-54346000D01*
X-54875000Y-65375000D02*
X-59425000Y-65375000D01*
X-54850000Y-61468000D02*
X-54850000Y-61468000D01*
X-60650000Y-63175000D02*
X-64425000Y-63175000D01*
X-52350000Y-50346000D02*
X-60975000Y-50346000D01*
X-64425000Y-62484000D02*
X-64425000Y-63175000D01*
X-64425000Y-58525000D02*
X-64425000Y-59182000D01*
X-63250000Y-52300000D02*
X-63250000Y-53213000D01*
X-63250000Y-56007000D02*
X-63250000Y-56245000D01*
X-61849000Y-56254000D02*
X-59640000Y-56254000D01*
X-59725000Y-58525000D02*
X-64425000Y-58525000D01*
X-52350000Y-54254000D02*
X-52350000Y-53467000D01*
X-60975000Y-50346000D02*
G75*
G03*
X-63239000Y-52230000I-190000J-2074000D01*
G01*
X-59720000Y-58550000D02*
G75*
G03*
X-57350000Y-60720000I2270000J100000D01*
G01*
X-57375000Y-54350000D02*
G75*
G03*
X-59635000Y-56230000I-190000J-2070000D01*
G01*
X-59430000Y-64600000D02*
G75*
G03*
X-60650000Y-63180000I-1320000J100000D01*
G01*
X-44200000Y-56007000D02*
X-44200000Y-56245000D01*
X-42799000Y-56254000D02*
X-40590000Y-56254000D01*
X-35825000Y-60725000D02*
X-38375000Y-60725000D01*
X-35825000Y-65375000D02*
X-40375000Y-65375000D01*
X-33300000Y-50673000D02*
X-33300000Y-50346000D01*
X-41600000Y-63175000D02*
X-45375000Y-63175000D01*
X-44200000Y-52300000D02*
X-44200000Y-53213000D01*
X-33300000Y-54300000D02*
X-38350000Y-54346000D01*
X-35800000Y-64770000D02*
X-35800000Y-65350000D01*
X-35800000Y-61468000D02*
X-35800000Y-61468000D01*
X-40675000Y-58525000D02*
X-45375000Y-58525000D01*
X-45375000Y-62484000D02*
X-45375000Y-63175000D01*
X-45375000Y-58525000D02*
X-45375000Y-59182000D01*
X-33300000Y-50346000D02*
X-41925000Y-50346000D01*
X-35800000Y-60750000D02*
X-35800000Y-61468000D01*
X-40380000Y-64650000D02*
X-40380000Y-65350000D01*
X-33300000Y-54254000D02*
X-33300000Y-53467000D01*
X-41925000Y-50346000D02*
G75*
G03*
X-44189000Y-52230000I-190000J-2074000D01*
G01*
X-40670000Y-58550000D02*
G75*
G03*
X-38300000Y-60720000I2270000J100000D01*
G01*
X-40380000Y-64600000D02*
G75*
G03*
X-41600000Y-63180000I-1320000J100000D01*
G01*
X-38325000Y-54350000D02*
G75*
G03*
X-40585000Y-56230000I-190000J-2070000D01*
G01*
X-16750000Y-64770000D02*
X-16750000Y-65350000D01*
X-21330000Y-64650000D02*
X-21330000Y-65350000D01*
X-16750000Y-61468000D02*
X-16750000Y-61468000D01*
X-23749000Y-56254000D02*
X-21540000Y-56254000D01*
X-26325000Y-58525000D02*
X-26325000Y-59182000D01*
X-14250000Y-50346000D02*
X-22875000Y-50346000D01*
X-14250000Y-50673000D02*
X-14250000Y-50346000D01*
X-21625000Y-58525000D02*
X-26325000Y-58525000D01*
X-16750000Y-60750000D02*
X-16750000Y-61468000D01*
X-14250000Y-54300000D02*
X-19300000Y-54346000D01*
X-25150000Y-56007000D02*
X-25150000Y-56245000D01*
X-25150000Y-52300000D02*
X-25150000Y-53213000D01*
X-26325000Y-62484000D02*
X-26325000Y-63175000D01*
X-16775000Y-60725000D02*
X-19325000Y-60725000D01*
X-16775000Y-65375000D02*
X-21325000Y-65375000D01*
X-14250000Y-54254000D02*
X-14250000Y-53467000D01*
X-22550000Y-63175000D02*
X-26325000Y-63175000D01*
X-22875000Y-50346000D02*
G75*
G03*
X-25139000Y-52230000I-190000J-2074000D01*
G01*
X-21620000Y-58550000D02*
G75*
G03*
X-19250000Y-60720000I2270000J100000D01*
G01*
X-19275000Y-54350000D02*
G75*
G03*
X-21535000Y-56230000I-190000J-2070000D01*
G01*
X-21330000Y-64600000D02*
G75*
G03*
X-22550000Y-63180000I-1320000J100000D01*
G01*
X-6100000Y-56007000D02*
X-6100000Y-56245000D01*
X2275000Y-65375000D02*
X-2275000Y-65375000D01*
X-7275000Y-58525000D02*
X-7275000Y-59182000D01*
X2300000Y-60750000D02*
X2300000Y-61468000D01*
X4800000Y-54254000D02*
X4800000Y-53467000D01*
X-4699000Y-56254000D02*
X-2490000Y-56254000D01*
X-3500000Y-63175000D02*
X-7275000Y-63175000D01*
X2275000Y-60725000D02*
X-275000Y-60725000D01*
X4800000Y-54300000D02*
X-250000Y-54346000D01*
X-2575000Y-58525000D02*
X-7275000Y-58525000D01*
X4800000Y-50346000D02*
X-3825000Y-50346000D01*
X-2280000Y-64650000D02*
X-2280000Y-65350000D01*
X2300000Y-64770000D02*
X2300000Y-65350000D01*
X-6100000Y-52300000D02*
X-6100000Y-53213000D01*
X-7275000Y-62484000D02*
X-7275000Y-63175000D01*
X4800000Y-50673000D02*
X4800000Y-50346000D01*
X2300000Y-61468000D02*
X2300000Y-61468000D01*
X-3825000Y-50346000D02*
G75*
G03*
X-6089000Y-52230000I-190000J-2074000D01*
G01*
X-225000Y-54350000D02*
G75*
G03*
X-2485000Y-56230000I-190000J-2070000D01*
G01*
X-2280000Y-64600000D02*
G75*
G03*
X-3500000Y-63180000I-1320000J100000D01*
G01*
X-2570000Y-58550000D02*
G75*
G03*
X-200000Y-60720000I2270000J100000D01*
G01*
X-92975000Y-84425000D02*
X-97525000Y-84425000D01*
X-101350000Y-71350000D02*
X-101350000Y-72263000D01*
X-90450000Y-69723000D02*
X-90450000Y-69396000D01*
X-101350000Y-75057000D02*
X-101350000Y-75295000D01*
X-97825000Y-77575000D02*
X-102525000Y-77575000D01*
X-97530000Y-83700000D02*
X-97530000Y-84400000D01*
X-99949000Y-75304000D02*
X-97740000Y-75304000D01*
X-92950000Y-79800000D02*
X-92950000Y-80518000D01*
X-92950000Y-83820000D02*
X-92950000Y-84400000D01*
X-90450000Y-69396000D02*
X-99075000Y-69396000D01*
X-98750000Y-82225000D02*
X-102525000Y-82225000D01*
X-92975000Y-79775000D02*
X-95525000Y-79775000D01*
X-90450000Y-73350000D02*
X-95500000Y-73396000D01*
X-102525000Y-81534000D02*
X-102525000Y-82225000D01*
X-102525000Y-77575000D02*
X-102525000Y-78232000D01*
X-92950000Y-80518000D02*
X-92950000Y-80518000D01*
X-90450000Y-73304000D02*
X-90450000Y-72517000D01*
X-99075000Y-69396000D02*
G75*
G03*
X-101339000Y-71280000I-190000J-2074000D01*
G01*
X-97530000Y-83650000D02*
G75*
G03*
X-98750000Y-82230000I-1320000J100000D01*
G01*
X-97820000Y-77600000D02*
G75*
G03*
X-95450000Y-79770000I2270000J100000D01*
G01*
X-95475000Y-73400000D02*
G75*
G03*
X-97735000Y-75280000I-190000J-2070000D01*
G01*
X-79700000Y-82225000D02*
X-83475000Y-82225000D01*
X-71400000Y-73350000D02*
X-76450000Y-73396000D01*
X-83475000Y-81534000D02*
X-83475000Y-82225000D01*
X-82300000Y-71350000D02*
X-82300000Y-72263000D01*
X-71400000Y-69723000D02*
X-71400000Y-69396000D01*
X-78775000Y-77575000D02*
X-83475000Y-77575000D01*
X-71400000Y-69396000D02*
X-80025000Y-69396000D01*
X-73900000Y-79800000D02*
X-73900000Y-80518000D01*
X-78480000Y-83700000D02*
X-78480000Y-84400000D01*
X-82300000Y-75057000D02*
X-82300000Y-75295000D01*
X-80899000Y-75304000D02*
X-78690000Y-75304000D01*
X-71400000Y-73304000D02*
X-71400000Y-72517000D01*
X-73900000Y-83820000D02*
X-73900000Y-84400000D01*
X-73900000Y-80518000D02*
X-73900000Y-80518000D01*
X-73925000Y-84425000D02*
X-78475000Y-84425000D01*
X-73925000Y-79775000D02*
X-76475000Y-79775000D01*
X-83475000Y-77575000D02*
X-83475000Y-78232000D01*
X-80025000Y-69396000D02*
G75*
G03*
X-82289000Y-71280000I-190000J-2074000D01*
G01*
X-78770000Y-77600000D02*
G75*
G03*
X-76400000Y-79770000I2270000J100000D01*
G01*
X-76425000Y-73400000D02*
G75*
G03*
X-78685000Y-75280000I-190000J-2070000D01*
G01*
X-78480000Y-83650000D02*
G75*
G03*
X-79700000Y-82230000I-1320000J100000D01*
G01*
X-54875000Y-84425000D02*
X-59425000Y-84425000D01*
X-59430000Y-83700000D02*
X-59430000Y-84400000D01*
X-54850000Y-79800000D02*
X-54850000Y-80518000D01*
X-54850000Y-83820000D02*
X-54850000Y-84400000D01*
X-54875000Y-79775000D02*
X-57425000Y-79775000D01*
X-54850000Y-80518000D02*
X-54850000Y-80518000D01*
X-52350000Y-73304000D02*
X-52350000Y-72517000D01*
X-52350000Y-73350000D02*
X-57400000Y-73396000D01*
X-52350000Y-69723000D02*
X-52350000Y-69396000D01*
X-64425000Y-77575000D02*
X-64425000Y-78232000D01*
X-59725000Y-77575000D02*
X-64425000Y-77575000D01*
X-60650000Y-82225000D02*
X-64425000Y-82225000D01*
X-61849000Y-75304000D02*
X-59640000Y-75304000D01*
X-63250000Y-75057000D02*
X-63250000Y-75295000D01*
X-64425000Y-81534000D02*
X-64425000Y-82225000D01*
X-52350000Y-69396000D02*
X-60975000Y-69396000D01*
X-63250000Y-71350000D02*
X-63250000Y-72263000D01*
X-60975000Y-69396000D02*
G75*
G03*
X-63239000Y-71280000I-190000J-2074000D01*
G01*
X-59720000Y-77600000D02*
G75*
G03*
X-57350000Y-79770000I2270000J100000D01*
G01*
X-57375000Y-73400000D02*
G75*
G03*
X-59635000Y-75280000I-190000J-2070000D01*
G01*
X-59430000Y-83650000D02*
G75*
G03*
X-60650000Y-82230000I-1320000J100000D01*
G01*
X-44200000Y-71350000D02*
X-44200000Y-72263000D01*
X-42799000Y-75304000D02*
X-40590000Y-75304000D01*
X-33300000Y-69723000D02*
X-33300000Y-69396000D01*
X-40675000Y-77575000D02*
X-45375000Y-77575000D01*
X-33300000Y-69396000D02*
X-41925000Y-69396000D01*
X-45375000Y-81534000D02*
X-45375000Y-82225000D01*
X-44200000Y-75057000D02*
X-44200000Y-75295000D01*
X-35800000Y-80518000D02*
X-35800000Y-80518000D01*
X-35825000Y-84425000D02*
X-40375000Y-84425000D01*
X-33300000Y-73350000D02*
X-38350000Y-73396000D01*
X-35825000Y-79775000D02*
X-38375000Y-79775000D01*
X-33300000Y-73304000D02*
X-33300000Y-72517000D01*
X-45375000Y-77575000D02*
X-45375000Y-78232000D01*
X-35800000Y-79800000D02*
X-35800000Y-80518000D01*
X-35800000Y-83820000D02*
X-35800000Y-84400000D01*
X-40380000Y-83700000D02*
X-40380000Y-84400000D01*
X-41600000Y-82225000D02*
X-45375000Y-82225000D01*
X-38325000Y-73400000D02*
G75*
G03*
X-40585000Y-75280000I-190000J-2070000D01*
G01*
X-40380000Y-83650000D02*
G75*
G03*
X-41600000Y-82230000I-1320000J100000D01*
G01*
X-41925000Y-69396000D02*
G75*
G03*
X-44189000Y-71280000I-190000J-2074000D01*
G01*
X-40670000Y-77600000D02*
G75*
G03*
X-38300000Y-79770000I2270000J100000D01*
G01*
X-21625000Y-77575000D02*
X-26325000Y-77575000D01*
X-25150000Y-71350000D02*
X-25150000Y-72263000D01*
X-14250000Y-69396000D02*
X-22875000Y-69396000D01*
X-16775000Y-79775000D02*
X-19325000Y-79775000D01*
X-16775000Y-84425000D02*
X-21325000Y-84425000D01*
X-14250000Y-73350000D02*
X-19300000Y-73396000D01*
X-14250000Y-73304000D02*
X-14250000Y-72517000D01*
X-22550000Y-82225000D02*
X-26325000Y-82225000D01*
X-16750000Y-83820000D02*
X-16750000Y-84400000D01*
X-16750000Y-80518000D02*
X-16750000Y-80518000D01*
X-21330000Y-83700000D02*
X-21330000Y-84400000D01*
X-14250000Y-69723000D02*
X-14250000Y-69396000D01*
X-26325000Y-77575000D02*
X-26325000Y-78232000D01*
X-16750000Y-79800000D02*
X-16750000Y-80518000D01*
X-25150000Y-75057000D02*
X-25150000Y-75295000D01*
X-26325000Y-81534000D02*
X-26325000Y-82225000D01*
X-23749000Y-75304000D02*
X-21540000Y-75304000D01*
X-21620000Y-77600000D02*
G75*
G03*
X-19250000Y-79770000I2270000J100000D01*
G01*
X-21330000Y-83650000D02*
G75*
G03*
X-22550000Y-82230000I-1320000J100000D01*
G01*
X-22875000Y-69396000D02*
G75*
G03*
X-25139000Y-71280000I-190000J-2074000D01*
G01*
X-19275000Y-73400000D02*
G75*
G03*
X-21535000Y-75280000I-190000J-2070000D01*
G01*
X-7275000Y-77575000D02*
X-7275000Y-78232000D01*
X-6100000Y-75057000D02*
X-6100000Y-75295000D01*
X-2575000Y-77575000D02*
X-7275000Y-77575000D01*
X4800000Y-69723000D02*
X4800000Y-69396000D01*
X-6100000Y-71350000D02*
X-6100000Y-72263000D01*
X2300000Y-83820000D02*
X2300000Y-84400000D01*
X2275000Y-79775000D02*
X-275000Y-79775000D01*
X-2280000Y-83700000D02*
X-2280000Y-84400000D01*
X-4699000Y-75304000D02*
X-2490000Y-75304000D01*
X4800000Y-69396000D02*
X-3825000Y-69396000D01*
X2275000Y-84425000D02*
X-2275000Y-84425000D01*
X4800000Y-73350000D02*
X-250000Y-73396000D01*
X-7275000Y-81534000D02*
X-7275000Y-82225000D01*
X2300000Y-80518000D02*
X2300000Y-80518000D01*
X2300000Y-79800000D02*
X2300000Y-80518000D01*
X-3500000Y-82225000D02*
X-7275000Y-82225000D01*
X4800000Y-73304000D02*
X4800000Y-72517000D01*
X-225000Y-73400000D02*
G75*
G03*
X-2485000Y-75280000I-190000J-2070000D01*
G01*
X-3825000Y-69396000D02*
G75*
G03*
X-6089000Y-71280000I-190000J-2074000D01*
G01*
X-2280000Y-83650000D02*
G75*
G03*
X-3500000Y-82230000I-1320000J100000D01*
G01*
X-2570000Y-77600000D02*
G75*
G03*
X-200000Y-79770000I2270000J100000D01*
G01*
X-90450000Y-92400000D02*
X-95500000Y-92446000D01*
X-97825000Y-96625000D02*
X-102525000Y-96625000D01*
X-102525000Y-100584000D02*
X-102525000Y-101275000D01*
X-90450000Y-88773000D02*
X-90450000Y-88446000D01*
X-92950000Y-99568000D02*
X-92950000Y-99568000D01*
X-101350000Y-90400000D02*
X-101350000Y-91313000D01*
X-92975000Y-103475000D02*
X-97525000Y-103475000D01*
X-97530000Y-102750000D02*
X-97530000Y-103450000D01*
X-101350000Y-94107000D02*
X-101350000Y-94345000D01*
X-92950000Y-98850000D02*
X-92950000Y-99568000D01*
X-90450000Y-88446000D02*
X-99075000Y-88446000D01*
X-92975000Y-98825000D02*
X-95525000Y-98825000D01*
X-99949000Y-94354000D02*
X-97740000Y-94354000D01*
X-98750000Y-101275000D02*
X-102525000Y-101275000D01*
X-90450000Y-92354000D02*
X-90450000Y-91567000D01*
X-92950000Y-102870000D02*
X-92950000Y-103450000D01*
X-102525000Y-96625000D02*
X-102525000Y-97282000D01*
X-99075000Y-88446000D02*
G75*
G03*
X-101339000Y-90330000I-190000J-2074000D01*
G01*
X-97530000Y-102700000D02*
G75*
G03*
X-98750000Y-101280000I-1320000J100000D01*
G01*
X-97820000Y-96650000D02*
G75*
G03*
X-95450000Y-98820000I2270000J100000D01*
G01*
X-95475000Y-92450000D02*
G75*
G03*
X-97735000Y-94330000I-190000J-2070000D01*
G01*
X-73900000Y-99568000D02*
X-73900000Y-99568000D01*
X-79700000Y-101275000D02*
X-83475000Y-101275000D01*
X-73900000Y-102870000D02*
X-73900000Y-103450000D01*
X-73925000Y-98825000D02*
X-76475000Y-98825000D01*
X-71400000Y-88446000D02*
X-80025000Y-88446000D01*
X-71400000Y-92400000D02*
X-76450000Y-92446000D01*
X-83475000Y-100584000D02*
X-83475000Y-101275000D01*
X-73900000Y-98850000D02*
X-73900000Y-99568000D01*
X-80899000Y-94354000D02*
X-78690000Y-94354000D01*
X-78480000Y-102750000D02*
X-78480000Y-103450000D01*
X-82300000Y-90400000D02*
X-82300000Y-91313000D01*
X-83475000Y-96625000D02*
X-83475000Y-97282000D01*
X-82300000Y-94107000D02*
X-82300000Y-94345000D01*
X-71400000Y-88773000D02*
X-71400000Y-88446000D01*
X-71400000Y-92354000D02*
X-71400000Y-91567000D01*
X-73925000Y-103475000D02*
X-78475000Y-103475000D01*
X-78775000Y-96625000D02*
X-83475000Y-96625000D01*
X-78480000Y-102700000D02*
G75*
G03*
X-79700000Y-101280000I-1320000J100000D01*
G01*
X-80025000Y-88446000D02*
G75*
G03*
X-82289000Y-90330000I-190000J-2074000D01*
G01*
X-76425000Y-92450000D02*
G75*
G03*
X-78685000Y-94330000I-190000J-2070000D01*
G01*
X-78770000Y-96650000D02*
G75*
G03*
X-76400000Y-98820000I2270000J100000D01*
G01*
X-52350000Y-88773000D02*
X-52350000Y-88446000D01*
X-64425000Y-100584000D02*
X-64425000Y-101275000D01*
X-59430000Y-102750000D02*
X-59430000Y-103450000D01*
X-63250000Y-94107000D02*
X-63250000Y-94345000D01*
X-54850000Y-99568000D02*
X-54850000Y-99568000D01*
X-64425000Y-96625000D02*
X-64425000Y-97282000D01*
X-54850000Y-98850000D02*
X-54850000Y-99568000D01*
X-60650000Y-101275000D02*
X-64425000Y-101275000D01*
X-63250000Y-90400000D02*
X-63250000Y-91313000D01*
X-52350000Y-88446000D02*
X-60975000Y-88446000D01*
X-54875000Y-103475000D02*
X-59425000Y-103475000D01*
X-61849000Y-94354000D02*
X-59640000Y-94354000D01*
X-54875000Y-98825000D02*
X-57425000Y-98825000D01*
X-59725000Y-96625000D02*
X-64425000Y-96625000D01*
X-52350000Y-92354000D02*
X-52350000Y-91567000D01*
X-52350000Y-92400000D02*
X-57400000Y-92446000D01*
X-54850000Y-102870000D02*
X-54850000Y-103450000D01*
X-60975000Y-88446000D02*
G75*
G03*
X-63239000Y-90330000I-190000J-2074000D01*
G01*
X-57375000Y-92450000D02*
G75*
G03*
X-59635000Y-94330000I-190000J-2070000D01*
G01*
X-59430000Y-102700000D02*
G75*
G03*
X-60650000Y-101280000I-1320000J100000D01*
G01*
X-59720000Y-96650000D02*
G75*
G03*
X-57350000Y-98820000I2270000J100000D01*
G01*
X-33300000Y-88773000D02*
X-33300000Y-88446000D01*
X-42799000Y-94354000D02*
X-40590000Y-94354000D01*
X-45375000Y-100584000D02*
X-45375000Y-101275000D01*
X-44200000Y-94107000D02*
X-44200000Y-94345000D01*
X-44200000Y-90400000D02*
X-44200000Y-91313000D01*
X-35800000Y-98850000D02*
X-35800000Y-99568000D01*
X-45375000Y-96625000D02*
X-45375000Y-97282000D01*
X-33300000Y-92354000D02*
X-33300000Y-91567000D01*
X-40380000Y-102750000D02*
X-40380000Y-103450000D01*
X-35800000Y-99568000D02*
X-35800000Y-99568000D01*
X-33300000Y-92400000D02*
X-38350000Y-92446000D01*
X-35825000Y-98825000D02*
X-38375000Y-98825000D01*
X-35800000Y-102870000D02*
X-35800000Y-103450000D01*
X-40675000Y-96625000D02*
X-45375000Y-96625000D01*
X-33300000Y-88446000D02*
X-41925000Y-88446000D01*
X-35825000Y-103475000D02*
X-40375000Y-103475000D01*
X-41600000Y-101275000D02*
X-45375000Y-101275000D01*
X-41925000Y-88446000D02*
G75*
G03*
X-44189000Y-90330000I-190000J-2074000D01*
G01*
X-38325000Y-92450000D02*
G75*
G03*
X-40585000Y-94330000I-190000J-2070000D01*
G01*
X-40670000Y-96650000D02*
G75*
G03*
X-38300000Y-98820000I2270000J100000D01*
G01*
X-40380000Y-102700000D02*
G75*
G03*
X-41600000Y-101280000I-1320000J100000D01*
G01*
X-26325000Y-96625000D02*
X-26325000Y-97282000D01*
X-16750000Y-99568000D02*
X-16750000Y-99568000D01*
X-21330000Y-102750000D02*
X-21330000Y-103450000D01*
X-22550000Y-101275000D02*
X-26325000Y-101275000D01*
X-16775000Y-98825000D02*
X-19325000Y-98825000D01*
X-23749000Y-94354000D02*
X-21540000Y-94354000D01*
X-16750000Y-102870000D02*
X-16750000Y-103450000D01*
X-21625000Y-96625000D02*
X-26325000Y-96625000D01*
X-14250000Y-88773000D02*
X-14250000Y-88446000D01*
X-25150000Y-90400000D02*
X-25150000Y-91313000D01*
X-14250000Y-88446000D02*
X-22875000Y-88446000D01*
X-14250000Y-92354000D02*
X-14250000Y-91567000D01*
X-25150000Y-94107000D02*
X-25150000Y-94345000D01*
X-16775000Y-103475000D02*
X-21325000Y-103475000D01*
X-16750000Y-98850000D02*
X-16750000Y-99568000D01*
X-14250000Y-92400000D02*
X-19300000Y-92446000D01*
X-26325000Y-100584000D02*
X-26325000Y-101275000D01*
X-21620000Y-96650000D02*
G75*
G03*
X-19250000Y-98820000I2270000J100000D01*
G01*
X-22875000Y-88446000D02*
G75*
G03*
X-25139000Y-90330000I-190000J-2074000D01*
G01*
X-19275000Y-92450000D02*
G75*
G03*
X-21535000Y-94330000I-190000J-2070000D01*
G01*
X-21330000Y-102700000D02*
G75*
G03*
X-22550000Y-101280000I-1320000J100000D01*
G01*
X-7275000Y-100584000D02*
X-7275000Y-101275000D01*
X4800000Y-92400000D02*
X-250000Y-92446000D01*
X-7275000Y-96625000D02*
X-7275000Y-97282000D01*
X-4699000Y-94354000D02*
X-2490000Y-94354000D01*
X2275000Y-98825000D02*
X-275000Y-98825000D01*
X2300000Y-102870000D02*
X2300000Y-103450000D01*
X-6100000Y-90400000D02*
X-6100000Y-91313000D01*
X-2575000Y-96625000D02*
X-7275000Y-96625000D01*
X2275000Y-103475000D02*
X-2275000Y-103475000D01*
X-2280000Y-102750000D02*
X-2280000Y-103450000D01*
X4800000Y-92354000D02*
X4800000Y-91567000D01*
X4800000Y-88773000D02*
X4800000Y-88446000D01*
X2300000Y-99568000D02*
X2300000Y-99568000D01*
X2300000Y-98850000D02*
X2300000Y-99568000D01*
X-3500000Y-101275000D02*
X-7275000Y-101275000D01*
X4800000Y-88446000D02*
X-3825000Y-88446000D01*
X-6100000Y-94107000D02*
X-6100000Y-94345000D01*
X-2280000Y-102700000D02*
G75*
G03*
X-3500000Y-101280000I-1320000J100000D01*
G01*
X-225000Y-92450000D02*
G75*
G03*
X-2485000Y-94330000I-190000J-2070000D01*
G01*
X-2570000Y-96650000D02*
G75*
G03*
X-200000Y-98820000I2270000J100000D01*
G01*
X-3825000Y-88446000D02*
G75*
G03*
X-6089000Y-90330000I-190000J-2074000D01*
G01*
X-95750000Y9390000D02*
X-95750000Y8390000D01*
X-97950000Y9640000D02*
X-97950000Y8140000D01*
X-94750000Y9390000D02*
X-94750000Y8390000D01*
X-95750000Y8390000D02*
X-94850000Y8890000D01*
X-92550000Y9640000D02*
X-92550000Y8140000D01*
X-94850000Y8890000D02*
X-95750000Y9390000D01*
X-92550000Y8140000D02*
X-97950000Y8140000D01*
X-97950000Y9640000D02*
X-92550000Y9640000D01*
X-92550000Y-10910000D02*
X-97950000Y-10910000D01*
X-95750000Y-9660000D02*
X-95750000Y-10660000D01*
X-94750000Y-9660000D02*
X-94750000Y-10660000D01*
X-95750000Y-10660000D02*
X-94850000Y-10160000D01*
X-97950000Y-9410000D02*
X-97950000Y-10910000D01*
X-97950000Y-9410000D02*
X-92550000Y-9410000D01*
X-92550000Y-9410000D02*
X-92550000Y-10910000D01*
X-94850000Y-10160000D02*
X-95750000Y-9660000D01*
X-78900000Y-9410000D02*
X-78900000Y-10910000D01*
X-76700000Y-10660000D02*
X-75800000Y-10160000D01*
X-76700000Y-9660000D02*
X-76700000Y-10660000D01*
X-73500000Y-9410000D02*
X-73500000Y-10910000D01*
X-75700000Y-9660000D02*
X-75700000Y-10660000D01*
X-75800000Y-10160000D02*
X-76700000Y-9660000D01*
X-78900000Y-9410000D02*
X-73500000Y-9410000D01*
X-73500000Y-10910000D02*
X-78900000Y-10910000D01*
X-78900000Y9640000D02*
X-73500000Y9640000D01*
X-76700000Y8390000D02*
X-75800000Y8890000D01*
X-75700000Y9390000D02*
X-75700000Y8390000D01*
X-78900000Y9640000D02*
X-78900000Y8140000D01*
X-75800000Y8890000D02*
X-76700000Y9390000D01*
X-76700000Y9390000D02*
X-76700000Y8390000D01*
X-73500000Y8140000D02*
X-78900000Y8140000D01*
X-73500000Y9640000D02*
X-73500000Y8140000D01*
X-59850000Y9640000D02*
X-54450000Y9640000D01*
X-54450000Y9640000D02*
X-54450000Y8140000D01*
X-57650000Y9390000D02*
X-57650000Y8390000D01*
X-59850000Y9640000D02*
X-59850000Y8140000D01*
X-54450000Y8140000D02*
X-59850000Y8140000D01*
X-56750000Y8890000D02*
X-57650000Y9390000D01*
X-56650000Y9390000D02*
X-56650000Y8390000D01*
X-57650000Y8390000D02*
X-56750000Y8890000D01*
X-35400000Y8140000D02*
X-40800000Y8140000D01*
X-37700000Y8890000D02*
X-38600000Y9390000D01*
X-35400000Y9640000D02*
X-35400000Y8140000D01*
X-40800000Y9640000D02*
X-40800000Y8140000D01*
X-37600000Y9390000D02*
X-37600000Y8390000D01*
X-38600000Y8390000D02*
X-37700000Y8890000D01*
X-38600000Y9390000D02*
X-38600000Y8390000D01*
X-40800000Y9640000D02*
X-35400000Y9640000D01*
X-21750000Y9640000D02*
X-16350000Y9640000D01*
X-19550000Y8390000D02*
X-18650000Y8890000D01*
X-16350000Y8140000D02*
X-21750000Y8140000D01*
X-18550000Y9390000D02*
X-18550000Y8390000D01*
X-21750000Y9640000D02*
X-21750000Y8140000D01*
X-16350000Y9640000D02*
X-16350000Y8140000D01*
X-18650000Y8890000D02*
X-19550000Y9390000D01*
X-19550000Y9390000D02*
X-19550000Y8390000D01*
X-2700000Y9640000D02*
X2700000Y9640000D01*
X400000Y8890000D02*
X-500000Y9390000D01*
X-500000Y8390000D02*
X400000Y8890000D01*
X2700000Y9640000D02*
X2700000Y8140000D01*
X500000Y9390000D02*
X500000Y8390000D01*
X2700000Y8140000D02*
X-2700000Y8140000D01*
X-2700000Y9640000D02*
X-2700000Y8140000D01*
X-500000Y9390000D02*
X-500000Y8390000D01*
X-54450000Y-9410000D02*
X-54450000Y-10910000D01*
X-56750000Y-10160000D02*
X-57650000Y-9660000D01*
X-54450000Y-10910000D02*
X-59850000Y-10910000D01*
X-59850000Y-9410000D02*
X-54450000Y-9410000D01*
X-56650000Y-9660000D02*
X-56650000Y-10660000D01*
X-57650000Y-9660000D02*
X-57650000Y-10660000D01*
X-59850000Y-9410000D02*
X-59850000Y-10910000D01*
X-57650000Y-10660000D02*
X-56750000Y-10160000D01*
X-35400000Y-10910000D02*
X-40800000Y-10910000D01*
X-35400000Y-9410000D02*
X-35400000Y-10910000D01*
X-37600000Y-9660000D02*
X-37600000Y-10660000D01*
X-40800000Y-9410000D02*
X-40800000Y-10910000D01*
X-38600000Y-9660000D02*
X-38600000Y-10660000D01*
X-40800000Y-9410000D02*
X-35400000Y-9410000D01*
X-38600000Y-10660000D02*
X-37700000Y-10160000D01*
X-37700000Y-10160000D02*
X-38600000Y-9660000D01*
X-19550000Y-10660000D02*
X-18650000Y-10160000D01*
X-21750000Y-9410000D02*
X-21750000Y-10910000D01*
X-19550000Y-9660000D02*
X-19550000Y-10660000D01*
X-16350000Y-9410000D02*
X-16350000Y-10910000D01*
X-16350000Y-10910000D02*
X-21750000Y-10910000D01*
X-18650000Y-10160000D02*
X-19550000Y-9660000D01*
X-18550000Y-9660000D02*
X-18550000Y-10660000D01*
X-21750000Y-9410000D02*
X-16350000Y-9410000D01*
X-2700000Y-9410000D02*
X2700000Y-9410000D01*
X2700000Y-10910000D02*
X-2700000Y-10910000D01*
X500000Y-9660000D02*
X500000Y-10660000D01*
X-500000Y-10660000D02*
X400000Y-10160000D01*
X400000Y-10160000D02*
X-500000Y-9660000D01*
X-500000Y-9660000D02*
X-500000Y-10660000D01*
X-2700000Y-9410000D02*
X-2700000Y-10910000D01*
X2700000Y-9410000D02*
X2700000Y-10910000D01*
X-92550000Y-29960000D02*
X-97950000Y-29960000D01*
X-95750000Y-28710000D02*
X-95750000Y-29710000D01*
X-94750000Y-28710000D02*
X-94750000Y-29710000D01*
X-97950000Y-28460000D02*
X-92550000Y-28460000D01*
X-95750000Y-29710000D02*
X-94850000Y-29210000D01*
X-94850000Y-29210000D02*
X-95750000Y-28710000D01*
X-97950000Y-28460000D02*
X-97950000Y-29960000D01*
X-92550000Y-28460000D02*
X-92550000Y-29960000D01*
X-76700000Y-29710000D02*
X-75800000Y-29210000D01*
X-75800000Y-29210000D02*
X-76700000Y-28710000D01*
X-76700000Y-28710000D02*
X-76700000Y-29710000D01*
X-73500000Y-29960000D02*
X-78900000Y-29960000D01*
X-78900000Y-28460000D02*
X-73500000Y-28460000D01*
X-75700000Y-28710000D02*
X-75700000Y-29710000D01*
X-73500000Y-28460000D02*
X-73500000Y-29960000D01*
X-78900000Y-28460000D02*
X-78900000Y-29960000D01*
X-56750000Y-29210000D02*
X-57650000Y-28710000D01*
X-57650000Y-29710000D02*
X-56750000Y-29210000D01*
X-57650000Y-28710000D02*
X-57650000Y-29710000D01*
X-54450000Y-28460000D02*
X-54450000Y-29960000D01*
X-59850000Y-28460000D02*
X-59850000Y-29960000D01*
X-54450000Y-29960000D02*
X-59850000Y-29960000D01*
X-59850000Y-28460000D02*
X-54450000Y-28460000D01*
X-56650000Y-28710000D02*
X-56650000Y-29710000D01*
X-35400000Y-28460000D02*
X-35400000Y-29960000D01*
X-40800000Y-28460000D02*
X-35400000Y-28460000D01*
X-38600000Y-28710000D02*
X-38600000Y-29710000D01*
X-35400000Y-29960000D02*
X-40800000Y-29960000D01*
X-40800000Y-28460000D02*
X-40800000Y-29960000D01*
X-37600000Y-28710000D02*
X-37600000Y-29710000D01*
X-37700000Y-29210000D02*
X-38600000Y-28710000D01*
X-38600000Y-29710000D02*
X-37700000Y-29210000D01*
X-19420000Y-29710000D02*
X-18520000Y-29210000D01*
X-16220000Y-28460000D02*
X-16220000Y-29960000D01*
X-18420000Y-28710000D02*
X-18420000Y-29710000D01*
X-21620000Y-28460000D02*
X-16220000Y-28460000D01*
X-16220000Y-29960000D02*
X-21620000Y-29960000D01*
X-21620000Y-28460000D02*
X-21620000Y-29960000D01*
X-19420000Y-28710000D02*
X-19420000Y-29710000D01*
X-18520000Y-29210000D02*
X-19420000Y-28710000D01*
X-2700000Y-28460000D02*
X-2700000Y-29960000D01*
X2700000Y-29960000D02*
X-2700000Y-29960000D01*
X-2700000Y-28460000D02*
X2700000Y-28460000D01*
X500000Y-28710000D02*
X500000Y-29710000D01*
X2700000Y-28460000D02*
X2700000Y-29960000D01*
X-500000Y-28710000D02*
X-500000Y-29710000D01*
X-500000Y-29710000D02*
X400000Y-29210000D01*
X400000Y-29210000D02*
X-500000Y-28710000D01*
X-94750000Y-47760000D02*
X-94750000Y-48760000D01*
X-95750000Y-48760000D02*
X-94850000Y-48260000D01*
X-97950000Y-47510000D02*
X-97950000Y-49010000D01*
X-92550000Y-49010000D02*
X-97950000Y-49010000D01*
X-94850000Y-48260000D02*
X-95750000Y-47760000D01*
X-95750000Y-47760000D02*
X-95750000Y-48760000D01*
X-92550000Y-47510000D02*
X-92550000Y-49010000D01*
X-97950000Y-47510000D02*
X-92550000Y-47510000D01*
X-78900000Y-47510000D02*
X-73500000Y-47510000D01*
X-75800000Y-48260000D02*
X-76700000Y-47760000D01*
X-73500000Y-49010000D02*
X-78900000Y-49010000D01*
X-75700000Y-47760000D02*
X-75700000Y-48760000D01*
X-73500000Y-47510000D02*
X-73500000Y-49010000D01*
X-76700000Y-47760000D02*
X-76700000Y-48760000D01*
X-78900000Y-47510000D02*
X-78900000Y-49010000D01*
X-76700000Y-48760000D02*
X-75800000Y-48260000D01*
X-54450000Y-47510000D02*
X-54450000Y-49010000D01*
X-56750000Y-48260000D02*
X-57650000Y-47760000D01*
X-57650000Y-48760000D02*
X-56750000Y-48260000D01*
X-56650000Y-47760000D02*
X-56650000Y-48760000D01*
X-57650000Y-47760000D02*
X-57650000Y-48760000D01*
X-54450000Y-49010000D02*
X-59850000Y-49010000D01*
X-59850000Y-47510000D02*
X-54450000Y-47510000D01*
X-59850000Y-47510000D02*
X-59850000Y-49010000D01*
X-37700000Y-48260000D02*
X-38600000Y-47760000D01*
X-40800000Y-47510000D02*
X-35400000Y-47510000D01*
X-35400000Y-47510000D02*
X-35400000Y-49010000D01*
X-38600000Y-48760000D02*
X-37700000Y-48260000D01*
X-40800000Y-47510000D02*
X-40800000Y-49010000D01*
X-38600000Y-47760000D02*
X-38600000Y-48760000D01*
X-37600000Y-47760000D02*
X-37600000Y-48760000D01*
X-35400000Y-49010000D02*
X-40800000Y-49010000D01*
X-18550000Y-47760000D02*
X-18550000Y-48760000D01*
X-19550000Y-48760000D02*
X-18650000Y-48260000D01*
X-16350000Y-47510000D02*
X-16350000Y-49010000D01*
X-21750000Y-47510000D02*
X-16350000Y-47510000D01*
X-16350000Y-49010000D02*
X-21750000Y-49010000D01*
X-19550000Y-47760000D02*
X-19550000Y-48760000D01*
X-21750000Y-47510000D02*
X-21750000Y-49010000D01*
X-18650000Y-48260000D02*
X-19550000Y-47760000D01*
X2700000Y-47510000D02*
X2700000Y-49010000D01*
X2700000Y-49010000D02*
X-2700000Y-49010000D01*
X400000Y-48260000D02*
X-500000Y-47760000D01*
X-500000Y-48760000D02*
X400000Y-48260000D01*
X-2700000Y-47510000D02*
X-2700000Y-49010000D01*
X-2700000Y-47510000D02*
X2700000Y-47510000D01*
X-500000Y-47760000D02*
X-500000Y-48760000D01*
X500000Y-47760000D02*
X500000Y-48760000D01*
X-94750000Y-66810000D02*
X-94750000Y-67810000D01*
X-97950000Y-66560000D02*
X-97950000Y-68060000D01*
X-95750000Y-67810000D02*
X-94850000Y-67310000D01*
X-92550000Y-66560000D02*
X-92550000Y-68060000D01*
X-92550000Y-68060000D02*
X-97950000Y-68060000D01*
X-95750000Y-66810000D02*
X-95750000Y-67810000D01*
X-97950000Y-66560000D02*
X-92550000Y-66560000D01*
X-94850000Y-67310000D02*
X-95750000Y-66810000D01*
X-76700000Y-66810000D02*
X-76700000Y-67810000D01*
X-75700000Y-66810000D02*
X-75700000Y-67810000D01*
X-73500000Y-66560000D02*
X-73500000Y-68060000D01*
X-78900000Y-66560000D02*
X-73500000Y-66560000D01*
X-78900000Y-66560000D02*
X-78900000Y-68060000D01*
X-76700000Y-67810000D02*
X-75800000Y-67310000D01*
X-73500000Y-68060000D02*
X-78900000Y-68060000D01*
X-75800000Y-67310000D02*
X-76700000Y-66810000D01*
X-54450000Y-68060000D02*
X-59850000Y-68060000D01*
X-59850000Y-66560000D02*
X-59850000Y-68060000D01*
X-56650000Y-66810000D02*
X-56650000Y-67810000D01*
X-56750000Y-67310000D02*
X-57650000Y-66810000D01*
X-54450000Y-66560000D02*
X-54450000Y-68060000D01*
X-59850000Y-66560000D02*
X-54450000Y-66560000D01*
X-57650000Y-66810000D02*
X-57650000Y-67810000D01*
X-57650000Y-67810000D02*
X-56750000Y-67310000D01*
X-38600000Y-67810000D02*
X-37700000Y-67310000D01*
X-40800000Y-66560000D02*
X-40800000Y-68060000D01*
X-38600000Y-66810000D02*
X-38600000Y-67810000D01*
X-37600000Y-66810000D02*
X-37600000Y-67810000D01*
X-40800000Y-66560000D02*
X-35400000Y-66560000D01*
X-35400000Y-68060000D02*
X-40800000Y-68060000D01*
X-35400000Y-66560000D02*
X-35400000Y-68060000D01*
X-37700000Y-67310000D02*
X-38600000Y-66810000D01*
X-21750000Y-66560000D02*
X-16350000Y-66560000D01*
X-19550000Y-66810000D02*
X-19550000Y-67810000D01*
X-16350000Y-66560000D02*
X-16350000Y-68060000D01*
X-18550000Y-66810000D02*
X-18550000Y-67810000D01*
X-16350000Y-68060000D02*
X-21750000Y-68060000D01*
X-19550000Y-67810000D02*
X-18650000Y-67310000D01*
X-21750000Y-66560000D02*
X-21750000Y-68060000D01*
X-18650000Y-67310000D02*
X-19550000Y-66810000D01*
X2700000Y-66560000D02*
X2700000Y-68060000D01*
X-500000Y-66810000D02*
X-500000Y-67810000D01*
X2700000Y-68060000D02*
X-2700000Y-68060000D01*
X-2700000Y-66560000D02*
X2700000Y-66560000D01*
X400000Y-67310000D02*
X-500000Y-66810000D01*
X-2700000Y-66560000D02*
X-2700000Y-68060000D01*
X500000Y-66810000D02*
X500000Y-67810000D01*
X-500000Y-67810000D02*
X400000Y-67310000D01*
X-95750000Y-86860000D02*
X-94850000Y-86360000D01*
X-92550000Y-87110000D02*
X-97950000Y-87110000D01*
X-92550000Y-85610000D02*
X-92550000Y-87110000D01*
X-95750000Y-85860000D02*
X-95750000Y-86860000D01*
X-97950000Y-85610000D02*
X-97950000Y-87110000D01*
X-94850000Y-86360000D02*
X-95750000Y-85860000D01*
X-97950000Y-85610000D02*
X-92550000Y-85610000D01*
X-94750000Y-85860000D02*
X-94750000Y-86860000D01*
X-78900000Y-85610000D02*
X-73500000Y-85610000D01*
X-75800000Y-86360000D02*
X-76700000Y-85860000D01*
X-76700000Y-85860000D02*
X-76700000Y-86860000D01*
X-76700000Y-86860000D02*
X-75800000Y-86360000D01*
X-75700000Y-85860000D02*
X-75700000Y-86860000D01*
X-73500000Y-85610000D02*
X-73500000Y-87110000D01*
X-73500000Y-87110000D02*
X-78900000Y-87110000D01*
X-78900000Y-85610000D02*
X-78900000Y-87110000D01*
X-57650000Y-86860000D02*
X-56750000Y-86360000D01*
X-56750000Y-86360000D02*
X-57650000Y-85860000D01*
X-54450000Y-87110000D02*
X-59850000Y-87110000D01*
X-59850000Y-85610000D02*
X-54450000Y-85610000D01*
X-56650000Y-85860000D02*
X-56650000Y-86860000D01*
X-59850000Y-85610000D02*
X-59850000Y-87110000D01*
X-54450000Y-85610000D02*
X-54450000Y-87110000D01*
X-57650000Y-85860000D02*
X-57650000Y-86860000D01*
X-35400000Y-85610000D02*
X-35400000Y-87110000D01*
X-38600000Y-85860000D02*
X-38600000Y-86860000D01*
X-40800000Y-85610000D02*
X-40800000Y-87110000D01*
X-37700000Y-86360000D02*
X-38600000Y-85860000D01*
X-38600000Y-86860000D02*
X-37700000Y-86360000D01*
X-35400000Y-87110000D02*
X-40800000Y-87110000D01*
X-37600000Y-85860000D02*
X-37600000Y-86860000D01*
X-40800000Y-85610000D02*
X-35400000Y-85610000D01*
X-16350000Y-85610000D02*
X-16350000Y-87110000D01*
X-21750000Y-85610000D02*
X-21750000Y-87110000D01*
X-18550000Y-85860000D02*
X-18550000Y-86860000D01*
X-16350000Y-87110000D02*
X-21750000Y-87110000D01*
X-21750000Y-85610000D02*
X-16350000Y-85610000D01*
X-19550000Y-86860000D02*
X-18650000Y-86360000D01*
X-19550000Y-85860000D02*
X-19550000Y-86860000D01*
X-18650000Y-86360000D02*
X-19550000Y-85860000D01*
X-2700000Y-85610000D02*
X2700000Y-85610000D01*
X2700000Y-85610000D02*
X2700000Y-87110000D01*
X500000Y-85860000D02*
X500000Y-86860000D01*
X400000Y-86360000D02*
X-500000Y-85860000D01*
X2700000Y-87110000D02*
X-2700000Y-87110000D01*
X-500000Y-86860000D02*
X400000Y-86360000D01*
X-500000Y-85860000D02*
X-500000Y-86860000D01*
X-2700000Y-85610000D02*
X-2700000Y-87110000D01*
D11*
X-65840000Y16820000D02*
X-68700000Y16820000D01*
X-68700000Y18740000D02*
X-65840000Y18740000D01*
X-65840000Y18740000D02*
X-65840000Y16820000D01*
X-67447936Y14705000D02*
X-67902064Y14705000D01*
X-67447936Y13235000D02*
X-67902064Y13235000D01*
%LPC*%
D12*
X-100330000Y0D03*
D13*
X-95250000Y0D03*
D14*
X-100750000Y0D03*
D12*
X-90170000Y0D03*
D15*
X-92710000Y5080000D03*
D14*
X-89750000Y0D03*
D15*
X-95250000Y-5900000D03*
X-99060000Y2540000D03*
X-100250000Y-3700000D03*
D16*
X-102616000Y2540000D03*
D17*
X-103505000Y-3700000D03*
D16*
X-89154000Y5080000D03*
D17*
X-91948000Y-5900000D03*
D12*
X-100330000Y-19050000D03*
X-90170000Y-19050000D03*
D15*
X-95250000Y-24950000D03*
D14*
X-89750000Y-19050000D03*
D15*
X-100250000Y-22750000D03*
D14*
X-100750000Y-19050000D03*
D13*
X-95250000Y-19050000D03*
D15*
X-92710000Y-13970000D03*
X-99060000Y-16510000D03*
D17*
X-103505000Y-22750000D03*
D16*
X-102616000Y-16510000D03*
D17*
X-91948000Y-24950000D03*
D16*
X-89154000Y-13970000D03*
D12*
X-71120000Y-19050000D03*
D13*
X-76200000Y-19050000D03*
D15*
X-76200000Y-24950000D03*
D14*
X-70700000Y-19050000D03*
D12*
X-81280000Y-19050000D03*
D15*
X-73660000Y-13970000D03*
D14*
X-81700000Y-19050000D03*
D15*
X-80010000Y-16510000D03*
X-81200000Y-22750000D03*
D16*
X-83566000Y-16510000D03*
D17*
X-84455000Y-22750000D03*
D16*
X-70104000Y-13970000D03*
D17*
X-72898000Y-24950000D03*
D13*
X-76200000Y0D03*
D15*
X-81200000Y-3700000D03*
X-73660000Y5080000D03*
D14*
X-70700000Y0D03*
X-81700000Y0D03*
D15*
X-76200000Y-5900000D03*
D12*
X-71120000Y0D03*
X-81280000Y0D03*
D15*
X-80010000Y2540000D03*
D17*
X-84455000Y-3700000D03*
D16*
X-83566000Y2540000D03*
X-70104000Y5080000D03*
D17*
X-72898000Y-5900000D03*
D12*
X-52070000Y0D03*
D15*
X-62150000Y-3700000D03*
X-57150000Y-5900000D03*
D14*
X-62650000Y0D03*
D15*
X-60960000Y2540000D03*
X-54610000Y5080000D03*
D14*
X-51650000Y0D03*
D13*
X-57150000Y0D03*
D12*
X-62230000Y0D03*
D17*
X-65405000Y-3700000D03*
D16*
X-64516000Y2540000D03*
X-51054000Y5080000D03*
D17*
X-53848000Y-5900000D03*
D15*
X-41910000Y2540000D03*
D14*
X-32600000Y0D03*
D12*
X-33020000Y0D03*
D15*
X-35560000Y5080000D03*
D13*
X-38100000Y0D03*
D15*
X-43100000Y-3700000D03*
D14*
X-43600000Y0D03*
D15*
X-38100000Y-5900000D03*
D12*
X-43180000Y0D03*
D16*
X-45466000Y2540000D03*
D17*
X-46355000Y-3700000D03*
X-34798000Y-5900000D03*
D16*
X-32004000Y5080000D03*
D14*
X-13550000Y0D03*
X-24550000Y0D03*
D15*
X-16510000Y5080000D03*
D12*
X-24130000Y0D03*
D15*
X-22860000Y2540000D03*
X-24050000Y-3700000D03*
D12*
X-13970000Y0D03*
D15*
X-19050000Y-5900000D03*
D13*
X-19050000Y0D03*
D16*
X-26416000Y2540000D03*
D17*
X-27305000Y-3700000D03*
D16*
X-12954000Y5080000D03*
D17*
X-15748000Y-5900000D03*
D14*
X-5500000Y0D03*
D12*
X5080000Y0D03*
D15*
X2540000Y5080000D03*
X-3810000Y2540000D03*
D13*
X0Y0D03*
D15*
X0Y-5900000D03*
D14*
X5500000Y0D03*
D15*
X-5000000Y-3700000D03*
D12*
X-5080000Y0D03*
D16*
X-7366000Y2540000D03*
D17*
X-8255000Y-3700000D03*
X3302000Y-5900000D03*
D16*
X6096000Y5080000D03*
D14*
X-51650000Y-19050000D03*
D15*
X-60960000Y-16510000D03*
D12*
X-62230000Y-19050000D03*
D14*
X-62650000Y-19050000D03*
D15*
X-62150000Y-22750000D03*
D12*
X-52070000Y-19050000D03*
D15*
X-54610000Y-13970000D03*
D13*
X-57150000Y-19050000D03*
D15*
X-57150000Y-24950000D03*
D17*
X-65405000Y-22750000D03*
D16*
X-64516000Y-16510000D03*
X-51054000Y-13970000D03*
D17*
X-53848000Y-24950000D03*
D15*
X-38100000Y-24950000D03*
D12*
X-33020000Y-19050000D03*
D13*
X-38100000Y-19050000D03*
D15*
X-35560000Y-13970000D03*
D14*
X-43600000Y-19050000D03*
D15*
X-41910000Y-16510000D03*
D14*
X-32600000Y-19050000D03*
D15*
X-43100000Y-22750000D03*
D12*
X-43180000Y-19050000D03*
D16*
X-45466000Y-16510000D03*
D17*
X-46355000Y-22750000D03*
D16*
X-32004000Y-13970000D03*
D17*
X-34798000Y-24950000D03*
D12*
X-24130000Y-19050000D03*
D15*
X-22860000Y-16510000D03*
D14*
X-24550000Y-19050000D03*
D15*
X-19050000Y-24950000D03*
D12*
X-13970000Y-19050000D03*
D13*
X-19050000Y-19050000D03*
D15*
X-24050000Y-22750000D03*
D14*
X-13550000Y-19050000D03*
D15*
X-16510000Y-13970000D03*
D16*
X-26416000Y-16510000D03*
D17*
X-27305000Y-22750000D03*
X-15748000Y-24950000D03*
D16*
X-12954000Y-13970000D03*
D15*
X0Y-24950000D03*
D14*
X-5500000Y-19050000D03*
D15*
X2540000Y-13970000D03*
X-5000000Y-22750000D03*
X-3810000Y-16510000D03*
D12*
X-5080000Y-19050000D03*
D14*
X5500000Y-19050000D03*
D13*
X0Y-19050000D03*
D12*
X5080000Y-19050000D03*
D16*
X-7366000Y-16510000D03*
D17*
X-8255000Y-22750000D03*
X3302000Y-24950000D03*
D16*
X6096000Y-13970000D03*
D14*
X-100750000Y-38100000D03*
D12*
X-90170000Y-38100000D03*
D15*
X-95250000Y-44000000D03*
X-99060000Y-35560000D03*
D14*
X-89750000Y-38100000D03*
D12*
X-100330000Y-38100000D03*
D15*
X-92710000Y-33020000D03*
D13*
X-95250000Y-38100000D03*
D15*
X-100250000Y-41800000D03*
D16*
X-102616000Y-35560000D03*
D17*
X-103505000Y-41800000D03*
X-91948000Y-44000000D03*
D16*
X-89154000Y-33020000D03*
D15*
X-76200000Y-44000000D03*
D12*
X-81280000Y-38100000D03*
D15*
X-80010000Y-35560000D03*
D14*
X-81700000Y-38100000D03*
X-70700000Y-38100000D03*
D13*
X-76200000Y-38100000D03*
D15*
X-81200000Y-41800000D03*
X-73660000Y-33020000D03*
D12*
X-71120000Y-38100000D03*
D16*
X-83566000Y-35560000D03*
D17*
X-84455000Y-41800000D03*
D16*
X-70104000Y-33020000D03*
D17*
X-72898000Y-44000000D03*
D12*
X-62230000Y-38100000D03*
D15*
X-54610000Y-33020000D03*
X-60960000Y-35560000D03*
D13*
X-57150000Y-38100000D03*
D14*
X-51650000Y-38100000D03*
D12*
X-52070000Y-38100000D03*
D15*
X-57150000Y-44000000D03*
X-62150000Y-41800000D03*
D14*
X-62650000Y-38100000D03*
D17*
X-65405000Y-41800000D03*
D16*
X-64516000Y-35560000D03*
D17*
X-53848000Y-44000000D03*
D16*
X-51054000Y-33020000D03*
D15*
X-41910000Y-35560000D03*
X-43100000Y-41800000D03*
X-35560000Y-33020000D03*
D13*
X-38100000Y-38100000D03*
D12*
X-43180000Y-38100000D03*
D14*
X-32600000Y-38100000D03*
X-43600000Y-38100000D03*
D15*
X-38100000Y-44000000D03*
D12*
X-33020000Y-38100000D03*
D17*
X-46355000Y-41800000D03*
D16*
X-45466000Y-35560000D03*
X-32004000Y-33020000D03*
D17*
X-34798000Y-44000000D03*
D15*
X-22860000Y-35560000D03*
D14*
X-13550000Y-38100000D03*
X-24550000Y-38100000D03*
D12*
X-24130000Y-38100000D03*
D15*
X-16510000Y-33020000D03*
D13*
X-19050000Y-38100000D03*
D15*
X-19050000Y-44000000D03*
X-24050000Y-41800000D03*
D12*
X-13970000Y-38100000D03*
D16*
X-26416000Y-35560000D03*
D17*
X-27305000Y-41800000D03*
D16*
X-12954000Y-33020000D03*
D17*
X-15748000Y-44000000D03*
D15*
X-3810000Y-35560000D03*
D14*
X5500000Y-38100000D03*
X-5500000Y-38100000D03*
D15*
X0Y-44000000D03*
D12*
X5080000Y-38100000D03*
X-5080000Y-38100000D03*
D13*
X0Y-38100000D03*
D15*
X2540000Y-33020000D03*
X-5000000Y-41800000D03*
D17*
X-8255000Y-41800000D03*
D16*
X-7366000Y-35560000D03*
D17*
X3302000Y-44000000D03*
D16*
X6096000Y-33020000D03*
D12*
X-100330000Y-57150000D03*
X-90170000Y-57150000D03*
D15*
X-100250000Y-60850000D03*
X-95250000Y-63050000D03*
X-92710000Y-52070000D03*
D13*
X-95250000Y-57150000D03*
D15*
X-99060000Y-54610000D03*
D14*
X-89750000Y-57150000D03*
X-100750000Y-57150000D03*
D17*
X-103505000Y-60850000D03*
D16*
X-102616000Y-54610000D03*
X-89154000Y-52070000D03*
D17*
X-91948000Y-63050000D03*
D12*
X-81280000Y-57150000D03*
X-71120000Y-57150000D03*
D15*
X-73660000Y-52070000D03*
X-80010000Y-54610000D03*
D13*
X-76200000Y-57150000D03*
D15*
X-81200000Y-60850000D03*
X-76200000Y-63050000D03*
D14*
X-81700000Y-57150000D03*
X-70700000Y-57150000D03*
D17*
X-84455000Y-60850000D03*
D16*
X-83566000Y-54610000D03*
X-70104000Y-52070000D03*
D17*
X-72898000Y-63050000D03*
D15*
X-60960000Y-54610000D03*
D14*
X-51650000Y-57150000D03*
D13*
X-57150000Y-57150000D03*
D12*
X-52070000Y-57150000D03*
D15*
X-62150000Y-60850000D03*
X-54610000Y-52070000D03*
X-57150000Y-63050000D03*
D12*
X-62230000Y-57150000D03*
D14*
X-62650000Y-57150000D03*
D16*
X-64516000Y-54610000D03*
D17*
X-65405000Y-60850000D03*
X-53848000Y-63050000D03*
D16*
X-51054000Y-52070000D03*
D15*
X-35560000Y-52070000D03*
X-41910000Y-54610000D03*
D13*
X-38100000Y-57150000D03*
D14*
X-32600000Y-57150000D03*
D12*
X-43180000Y-57150000D03*
D14*
X-43600000Y-57150000D03*
D12*
X-33020000Y-57150000D03*
D15*
X-38100000Y-63050000D03*
X-43100000Y-60850000D03*
D17*
X-46355000Y-60850000D03*
D16*
X-45466000Y-54610000D03*
D17*
X-34798000Y-63050000D03*
D16*
X-32004000Y-52070000D03*
D15*
X-16510000Y-52070000D03*
D14*
X-24550000Y-57150000D03*
X-13550000Y-57150000D03*
D13*
X-19050000Y-57150000D03*
D12*
X-13970000Y-57150000D03*
D15*
X-19050000Y-63050000D03*
X-24050000Y-60850000D03*
X-22860000Y-54610000D03*
D12*
X-24130000Y-57150000D03*
D16*
X-26416000Y-54610000D03*
D17*
X-27305000Y-60850000D03*
X-15748000Y-63050000D03*
D16*
X-12954000Y-52070000D03*
D15*
X-5000000Y-60850000D03*
D14*
X5500000Y-57150000D03*
D15*
X2540000Y-52070000D03*
X-3810000Y-54610000D03*
X0Y-63050000D03*
D12*
X5080000Y-57150000D03*
X-5080000Y-57150000D03*
D14*
X-5500000Y-57150000D03*
D13*
X0Y-57150000D03*
D17*
X-8255000Y-60850000D03*
D16*
X-7366000Y-54610000D03*
X6096000Y-52070000D03*
D17*
X3302000Y-63050000D03*
D12*
X-90170000Y-76200000D03*
D13*
X-95250000Y-76200000D03*
D12*
X-100330000Y-76200000D03*
D14*
X-100750000Y-76200000D03*
D15*
X-100250000Y-79900000D03*
X-95250000Y-82100000D03*
X-99060000Y-73660000D03*
X-92710000Y-71120000D03*
D14*
X-89750000Y-76200000D03*
D16*
X-102616000Y-73660000D03*
D17*
X-103505000Y-79900000D03*
D16*
X-89154000Y-71120000D03*
D17*
X-91948000Y-82100000D03*
D15*
X-81200000Y-79900000D03*
D14*
X-70700000Y-76200000D03*
D15*
X-80010000Y-73660000D03*
X-76200000Y-82100000D03*
D12*
X-71120000Y-76200000D03*
D14*
X-81700000Y-76200000D03*
D13*
X-76200000Y-76200000D03*
D12*
X-81280000Y-76200000D03*
D15*
X-73660000Y-71120000D03*
D16*
X-83566000Y-73660000D03*
D17*
X-84455000Y-79900000D03*
D16*
X-70104000Y-71120000D03*
D17*
X-72898000Y-82100000D03*
D15*
X-62150000Y-79900000D03*
X-60960000Y-73660000D03*
D14*
X-62650000Y-76200000D03*
D15*
X-57150000Y-82100000D03*
D13*
X-57150000Y-76200000D03*
D12*
X-62230000Y-76200000D03*
D14*
X-51650000Y-76200000D03*
D12*
X-52070000Y-76200000D03*
D15*
X-54610000Y-71120000D03*
D17*
X-65405000Y-79900000D03*
D16*
X-64516000Y-73660000D03*
D17*
X-53848000Y-82100000D03*
D16*
X-51054000Y-71120000D03*
D13*
X-38100000Y-76200000D03*
D15*
X-41910000Y-73660000D03*
D12*
X-43180000Y-76200000D03*
X-33020000Y-76200000D03*
D15*
X-43100000Y-79900000D03*
X-35560000Y-71120000D03*
X-38100000Y-82100000D03*
D14*
X-32600000Y-76200000D03*
X-43600000Y-76200000D03*
D16*
X-45466000Y-73660000D03*
D17*
X-46355000Y-79900000D03*
D16*
X-32004000Y-71120000D03*
D17*
X-34798000Y-82100000D03*
D15*
X-19050000Y-82100000D03*
D12*
X-24130000Y-76200000D03*
D15*
X-24050000Y-79900000D03*
D12*
X-13970000Y-76200000D03*
D14*
X-24550000Y-76200000D03*
X-13550000Y-76200000D03*
D15*
X-16510000Y-71120000D03*
D13*
X-19050000Y-76200000D03*
D15*
X-22860000Y-73660000D03*
D16*
X-26416000Y-73660000D03*
D17*
X-27305000Y-79900000D03*
D16*
X-12954000Y-71120000D03*
D17*
X-15748000Y-82100000D03*
D12*
X5080000Y-76200000D03*
D15*
X-5000000Y-79900000D03*
D14*
X5500000Y-76200000D03*
X-5500000Y-76200000D03*
D15*
X2540000Y-71120000D03*
D13*
X0Y-76200000D03*
D15*
X-3810000Y-73660000D03*
X0Y-82100000D03*
D12*
X-5080000Y-76200000D03*
D17*
X-8255000Y-79900000D03*
D16*
X-7366000Y-73660000D03*
D17*
X3302000Y-82100000D03*
D16*
X6096000Y-71120000D03*
D15*
X-99060000Y-92710000D03*
X-95250000Y-101150000D03*
D12*
X-100330000Y-95250000D03*
D15*
X-92710000Y-90170000D03*
D14*
X-89750000Y-95250000D03*
D13*
X-95250000Y-95250000D03*
D12*
X-90170000Y-95250000D03*
D15*
X-100250000Y-98950000D03*
D14*
X-100750000Y-95250000D03*
D17*
X-103505000Y-98950000D03*
D16*
X-102616000Y-92710000D03*
D17*
X-91948000Y-101150000D03*
D16*
X-89154000Y-90170000D03*
D15*
X-76200000Y-101150000D03*
D13*
X-76200000Y-95250000D03*
D14*
X-81700000Y-95250000D03*
D15*
X-81200000Y-98950000D03*
D12*
X-81280000Y-95250000D03*
D15*
X-80010000Y-92710000D03*
D12*
X-71120000Y-95250000D03*
D15*
X-73660000Y-90170000D03*
D14*
X-70700000Y-95250000D03*
D17*
X-84455000Y-98950000D03*
D16*
X-83566000Y-92710000D03*
D17*
X-72898000Y-101150000D03*
D16*
X-70104000Y-90170000D03*
D15*
X-54610000Y-90170000D03*
X-60960000Y-92710000D03*
D12*
X-62230000Y-95250000D03*
D13*
X-57150000Y-95250000D03*
D14*
X-51650000Y-95250000D03*
D15*
X-62150000Y-98950000D03*
D14*
X-62650000Y-95250000D03*
D15*
X-57150000Y-101150000D03*
D12*
X-52070000Y-95250000D03*
D16*
X-64516000Y-92710000D03*
D17*
X-65405000Y-98950000D03*
D16*
X-51054000Y-90170000D03*
D17*
X-53848000Y-101150000D03*
D15*
X-35560000Y-90170000D03*
X-41910000Y-92710000D03*
D14*
X-32600000Y-95250000D03*
D13*
X-38100000Y-95250000D03*
D12*
X-33020000Y-95250000D03*
X-43180000Y-95250000D03*
D15*
X-38100000Y-101150000D03*
D14*
X-43600000Y-95250000D03*
D15*
X-43100000Y-98950000D03*
D16*
X-45466000Y-92710000D03*
D17*
X-46355000Y-98950000D03*
X-34798000Y-101150000D03*
D16*
X-32004000Y-90170000D03*
D15*
X-22860000Y-92710000D03*
D13*
X-19050000Y-95250000D03*
D15*
X-19050000Y-101150000D03*
D12*
X-13970000Y-95250000D03*
D15*
X-24050000Y-98950000D03*
X-16510000Y-90170000D03*
D14*
X-13550000Y-95250000D03*
D12*
X-24130000Y-95250000D03*
D14*
X-24550000Y-95250000D03*
D16*
X-26416000Y-92710000D03*
D17*
X-27305000Y-98950000D03*
X-15748000Y-101150000D03*
D16*
X-12954000Y-90170000D03*
D15*
X2540000Y-90170000D03*
D12*
X5080000Y-95250000D03*
X-5080000Y-95250000D03*
D15*
X-5000000Y-98950000D03*
X0Y-101150000D03*
D14*
X5500000Y-95250000D03*
D15*
X-3810000Y-92710000D03*
D14*
X-5500000Y-95250000D03*
D13*
X0Y-95250000D03*
D17*
X-8255000Y-98950000D03*
D16*
X-7366000Y-92710000D03*
D17*
X3302000Y-101150000D03*
D16*
X6096000Y-90170000D03*
D18*
X-47625000Y-47625000D03*
X-85725000Y-9525000D03*
X-86360000Y-85090000D03*
X-9525000Y-9525000D03*
X-9525000Y-85725000D03*
D19*
X-55245000Y14605000D03*
D12*
X-55245000Y17145000D03*
X-52705000Y14605000D03*
X-52705000Y17145000D03*
X-50165000Y14605000D03*
X-50165000Y17145000D03*
X-47625000Y14605000D03*
X-47625000Y17145000D03*
X-45085000Y14605000D03*
X-45085000Y17145000D03*
X-42545000Y14605000D03*
X-42545000Y17145000D03*
X-40005000Y14605000D03*
X-40005000Y17145000D03*
D20*
X-93475000Y8890000D03*
X-97025000Y8890000D03*
X-93475000Y-10160000D03*
X-97025000Y-10160000D03*
X-74425000Y-10160000D03*
X-77975000Y-10160000D03*
X-74425000Y8890000D03*
X-77975000Y8890000D03*
X-55375000Y8890000D03*
X-58925000Y8890000D03*
X-36325000Y8890000D03*
X-39875000Y8890000D03*
X-17275000Y8890000D03*
X-20825000Y8890000D03*
X1775000Y8890000D03*
X-1775000Y8890000D03*
X-55375000Y-10160000D03*
X-58925000Y-10160000D03*
X-36325000Y-10160000D03*
X-39875000Y-10160000D03*
X-17275000Y-10160000D03*
X-20825000Y-10160000D03*
X1775000Y-10160000D03*
X-1775000Y-10160000D03*
X-93475000Y-29210000D03*
X-97025000Y-29210000D03*
X-74425000Y-29210000D03*
X-77975000Y-29210000D03*
X-55375000Y-29210000D03*
X-58925000Y-29210000D03*
X-36325000Y-29210000D03*
X-39875000Y-29210000D03*
X-17145000Y-29210000D03*
X-20695000Y-29210000D03*
X1775000Y-29210000D03*
X-1775000Y-29210000D03*
X-93475000Y-48260000D03*
X-97025000Y-48260000D03*
X-74425000Y-48260000D03*
X-77975000Y-48260000D03*
X-55375000Y-48260000D03*
X-58925000Y-48260000D03*
X-36325000Y-48260000D03*
X-39875000Y-48260000D03*
X-17275000Y-48260000D03*
X-20825000Y-48260000D03*
X1775000Y-48260000D03*
X-1775000Y-48260000D03*
X-93475000Y-67310000D03*
X-97025000Y-67310000D03*
X-74425000Y-67310000D03*
X-77975000Y-67310000D03*
X-55375000Y-67310000D03*
X-58925000Y-67310000D03*
X-36325000Y-67310000D03*
X-39875000Y-67310000D03*
X-17275000Y-67310000D03*
X-20825000Y-67310000D03*
X1775000Y-67310000D03*
X-1775000Y-67310000D03*
X-93475000Y-86360000D03*
X-97025000Y-86360000D03*
X-74425000Y-86360000D03*
X-77975000Y-86360000D03*
X-55375000Y-86360000D03*
X-58925000Y-86360000D03*
X-36325000Y-86360000D03*
X-39875000Y-86360000D03*
X-17275000Y-86360000D03*
X-20825000Y-86360000D03*
X1775000Y-86360000D03*
X-1775000Y-86360000D03*
D21*
X-66675000Y17780000D03*
X-68725000Y17780000D03*
D22*
X-66675000Y13970000D03*
X-68675000Y13970000D03*
M02*
