%TF.GenerationSoftware,KiCad,Pcbnew,(6.0.11-0)*%
%TF.CreationDate,2023-02-15T20:24:27+08:00*%
%TF.ProjectId,Control,436f6e74-726f-46c2-9e6b-696361645f70,rev?*%
%TF.SameCoordinates,PX60e4b00PY5ad6650*%
%TF.FileFunction,Legend,Bot*%
%TF.FilePolarity,Positive*%
%FSLAX46Y46*%
G04 Gerber Fmt 4.6, Leading zero omitted, Abs format (unit mm)*
G04 Created by KiCad (PCBNEW (6.0.11-0)) date 2023-02-15 20:24:27*
%MOMM*%
%LPD*%
G01*
G04 APERTURE LIST*
G04 Aperture macros list*
%AMRoundRect*
0 Rectangle with rounded corners*
0 $1 Rounding radius*
0 $2 $3 $4 $5 $6 $7 $8 $9 X,Y pos of 4 corners*
0 Add a 4 corners polygon primitive as box body*
4,1,4,$2,$3,$4,$5,$6,$7,$8,$9,$2,$3,0*
0 Add four circle primitives for the rounded corners*
1,1,$1+$1,$2,$3*
1,1,$1+$1,$4,$5*
1,1,$1+$1,$6,$7*
1,1,$1+$1,$8,$9*
0 Add four rect primitives between the rounded corners*
20,1,$1+$1,$2,$3,$4,$5,0*
20,1,$1+$1,$4,$5,$6,$7,0*
20,1,$1+$1,$6,$7,$8,$9,0*
20,1,$1+$1,$8,$9,$2,$3,0*%
G04 Aperture macros list end*
%ADD10C,0.200000*%
%ADD11C,0.150000*%
%ADD12C,0.120000*%
%ADD13C,3.200000*%
%ADD14R,1.700000X1.700000*%
%ADD15C,1.700000*%
%ADD16R,3.429000X1.270000*%
%ADD17RoundRect,0.317500X1.397000X-0.317500X1.397000X0.317500X-1.397000X0.317500X-1.397000X-0.317500X0*%
%ADD18RoundRect,0.317500X-1.397000X0.317500X-1.397000X-0.317500X1.397000X-0.317500X1.397000X0.317500X0*%
G04 APERTURE END LIST*
D10*
X1904761Y6797858D02*
X1952380Y6750239D01*
X2095238Y6702620D01*
X2190476Y6702620D01*
X2333333Y6750239D01*
X2428571Y6845477D01*
X2476190Y6940715D01*
X2523809Y7131191D01*
X2523809Y7274048D01*
X2476190Y7464524D01*
X2428571Y7559762D01*
X2333333Y7655000D01*
X2190476Y7702620D01*
X2095238Y7702620D01*
X1952380Y7655000D01*
X1904761Y7607381D01*
X1333333Y6702620D02*
X1428571Y6750239D01*
X1476190Y6797858D01*
X1523809Y6893096D01*
X1523809Y7178810D01*
X1476190Y7274048D01*
X1428571Y7321667D01*
X1333333Y7369286D01*
X1190476Y7369286D01*
X1095238Y7321667D01*
X1047619Y7274048D01*
X1000000Y7178810D01*
X1000000Y6893096D01*
X1047619Y6797858D01*
X1095238Y6750239D01*
X1190476Y6702620D01*
X1333333Y6702620D01*
X571428Y7369286D02*
X571428Y6702620D01*
X571428Y7274048D02*
X523809Y7321667D01*
X428571Y7369286D01*
X285714Y7369286D01*
X190476Y7321667D01*
X142857Y7226429D01*
X142857Y6702620D01*
X-190477Y7369286D02*
X-571429Y7369286D01*
X-333334Y7702620D02*
X-333334Y6845477D01*
X-380953Y6750239D01*
X-476191Y6702620D01*
X-571429Y6702620D01*
X-904762Y6702620D02*
X-904762Y7369286D01*
X-904762Y7178810D02*
X-952381Y7274048D01*
X-1000000Y7321667D01*
X-1095239Y7369286D01*
X-1190477Y7369286D01*
X-1666667Y6702620D02*
X-1571429Y6750239D01*
X-1523810Y6797858D01*
X-1476191Y6893096D01*
X-1476191Y7178810D01*
X-1523810Y7274048D01*
X-1571429Y7321667D01*
X-1666667Y7369286D01*
X-1809524Y7369286D01*
X-1904762Y7321667D01*
X-1952381Y7274048D01*
X-2000000Y7178810D01*
X-2000000Y6893096D01*
X-1952381Y6797858D01*
X-1904762Y6750239D01*
X-1809524Y6702620D01*
X-1666667Y6702620D01*
X-2571429Y6702620D02*
X-2476191Y6750239D01*
X-2428572Y6845477D01*
X-2428572Y7702620D01*
X166666Y5092620D02*
X500000Y5568810D01*
X738095Y5092620D02*
X738095Y6092620D01*
X357142Y6092620D01*
X261904Y6045000D01*
X214285Y5997381D01*
X166666Y5902143D01*
X166666Y5759286D01*
X214285Y5664048D01*
X261904Y5616429D01*
X357142Y5568810D01*
X738095Y5568810D01*
X-214286Y5997381D02*
X-261905Y6045000D01*
X-357143Y6092620D01*
X-595239Y6092620D01*
X-690477Y6045000D01*
X-738096Y5997381D01*
X-785715Y5902143D01*
X-785715Y5806905D01*
X-738096Y5664048D01*
X-166667Y5092620D01*
X-785715Y5092620D01*
D11*
X10485476Y-6802380D02*
X10818809Y-6326190D01*
X11056904Y-6802380D02*
X11056904Y-5802380D01*
X10675952Y-5802380D01*
X10580714Y-5850000D01*
X10533095Y-5897619D01*
X10485476Y-5992857D01*
X10485476Y-6135714D01*
X10533095Y-6230952D01*
X10580714Y-6278571D01*
X10675952Y-6326190D01*
X11056904Y-6326190D01*
X-11104524Y5897620D02*
X-10628334Y5897620D01*
X-10628334Y6897620D01*
%TO.C,U1*%
X6051476Y-2901904D02*
X6051476Y-2101904D01*
X5861000Y-2101904D01*
X5746714Y-2140000D01*
X5670523Y-2216190D01*
X5632428Y-2292380D01*
X5594333Y-2444761D01*
X5594333Y-2559047D01*
X5632428Y-2711428D01*
X5670523Y-2787619D01*
X5746714Y-2863809D01*
X5861000Y-2901904D01*
X6051476Y-2901904D01*
X4908619Y-2368571D02*
X4908619Y-2901904D01*
X5099095Y-2063809D02*
X5289571Y-2635238D01*
X4794333Y-2635238D01*
X6051476Y-361904D02*
X6051476Y438096D01*
X5861000Y438096D01*
X5746714Y400000D01*
X5670523Y323810D01*
X5632428Y247620D01*
X5594333Y95239D01*
X5594333Y-19047D01*
X5632428Y-171428D01*
X5670523Y-247619D01*
X5746714Y-323809D01*
X5861000Y-361904D01*
X6051476Y-361904D01*
X5099095Y438096D02*
X5022904Y438096D01*
X4946714Y400000D01*
X4908619Y361905D01*
X4870523Y285715D01*
X4832428Y133334D01*
X4832428Y-57142D01*
X4870523Y-209523D01*
X4908619Y-285714D01*
X4946714Y-323809D01*
X5022904Y-361904D01*
X5099095Y-361904D01*
X5175285Y-323809D01*
X5213380Y-285714D01*
X5251476Y-209523D01*
X5289571Y-57142D01*
X5289571Y133334D01*
X5251476Y285715D01*
X5213380Y361905D01*
X5175285Y400000D01*
X5099095Y438096D01*
X-5194334Y2597143D02*
X-4927667Y2597143D01*
X-4927667Y2178096D02*
X-4927667Y2978096D01*
X-5308620Y2978096D01*
X-5956239Y2711429D02*
X-5956239Y2178096D01*
X-5765762Y3016191D02*
X-5575286Y2444762D01*
X-6070524Y2444762D01*
X6051476Y9798096D02*
X6051476Y10598096D01*
X5861000Y10598096D01*
X5746714Y10560000D01*
X5670523Y10483810D01*
X5632428Y10407620D01*
X5594333Y10255239D01*
X5594333Y10140953D01*
X5632428Y9988572D01*
X5670523Y9912381D01*
X5746714Y9836191D01*
X5861000Y9798096D01*
X6051476Y9798096D01*
X5289571Y10521905D02*
X5251476Y10560000D01*
X5175285Y10598096D01*
X4984809Y10598096D01*
X4908619Y10560000D01*
X4870523Y10521905D01*
X4832428Y10445715D01*
X4832428Y10369524D01*
X4870523Y10255239D01*
X5327666Y9798096D01*
X4832428Y9798096D01*
X-5137191Y-7562857D02*
X-5251477Y-7600952D01*
X-5289572Y-7639047D01*
X-5327667Y-7715238D01*
X-5327667Y-7829523D01*
X-5289572Y-7905714D01*
X-5251477Y-7943809D01*
X-5175286Y-7981904D01*
X-4870524Y-7981904D01*
X-4870524Y-7181904D01*
X-5137191Y-7181904D01*
X-5213381Y-7220000D01*
X-5251477Y-7258095D01*
X-5289572Y-7334285D01*
X-5289572Y-7410476D01*
X-5251477Y-7486666D01*
X-5213381Y-7524761D01*
X-5137191Y-7562857D01*
X-4870524Y-7562857D01*
X-6089572Y-7981904D02*
X-5632429Y-7981904D01*
X-5861000Y-7981904D02*
X-5861000Y-7181904D01*
X-5784810Y-7296190D01*
X-5708620Y-7372380D01*
X-5632429Y-7410476D01*
X5784809Y-15182857D02*
X5670523Y-15220952D01*
X5632428Y-15259047D01*
X5594333Y-15335238D01*
X5594333Y-15449523D01*
X5632428Y-15525714D01*
X5670523Y-15563809D01*
X5746714Y-15601904D01*
X6051476Y-15601904D01*
X6051476Y-14801904D01*
X5784809Y-14801904D01*
X5708619Y-14840000D01*
X5670523Y-14878095D01*
X5632428Y-14954285D01*
X5632428Y-15030476D01*
X5670523Y-15106666D01*
X5708619Y-15144761D01*
X5784809Y-15182857D01*
X6051476Y-15182857D01*
X4870523Y-14801904D02*
X5251476Y-14801904D01*
X5289571Y-15182857D01*
X5251476Y-15144761D01*
X5175285Y-15106666D01*
X4984809Y-15106666D01*
X4908619Y-15144761D01*
X4870523Y-15182857D01*
X4832428Y-15259047D01*
X4832428Y-15449523D01*
X4870523Y-15525714D01*
X4908619Y-15563809D01*
X4984809Y-15601904D01*
X5175285Y-15601904D01*
X5251476Y-15563809D01*
X5289571Y-15525714D01*
X-5137191Y-10102857D02*
X-5251477Y-10140952D01*
X-5289572Y-10179047D01*
X-5327667Y-10255238D01*
X-5327667Y-10369523D01*
X-5289572Y-10445714D01*
X-5251477Y-10483809D01*
X-5175286Y-10521904D01*
X-4870524Y-10521904D01*
X-4870524Y-9721904D01*
X-5137191Y-9721904D01*
X-5213381Y-9760000D01*
X-5251477Y-9798095D01*
X-5289572Y-9874285D01*
X-5289572Y-9950476D01*
X-5251477Y-10026666D01*
X-5213381Y-10064761D01*
X-5137191Y-10102857D01*
X-4870524Y-10102857D01*
X-5594334Y-9721904D02*
X-6089572Y-9721904D01*
X-5822905Y-10026666D01*
X-5937191Y-10026666D01*
X-6013381Y-10064761D01*
X-6051477Y-10102857D01*
X-6089572Y-10179047D01*
X-6089572Y-10369523D01*
X-6051477Y-10445714D01*
X-6013381Y-10483809D01*
X-5937191Y-10521904D01*
X-5708620Y-10521904D01*
X-5632429Y-10483809D01*
X-5594334Y-10445714D01*
X-4851477Y10560000D02*
X-4775286Y10598096D01*
X-4661000Y10598096D01*
X-4546715Y10560000D01*
X-4470524Y10483810D01*
X-4432429Y10407620D01*
X-4394334Y10255239D01*
X-4394334Y10140953D01*
X-4432429Y9988572D01*
X-4470524Y9912381D01*
X-4546715Y9836191D01*
X-4661000Y9798096D01*
X-4737191Y9798096D01*
X-4851477Y9836191D01*
X-4889572Y9874286D01*
X-4889572Y10140953D01*
X-4737191Y10140953D01*
X-5232429Y9798096D02*
X-5232429Y10598096D01*
X-5689572Y9798096D01*
X-5689572Y10598096D01*
X-6070524Y9798096D02*
X-6070524Y10598096D01*
X-6261000Y10598096D01*
X-6375286Y10560000D01*
X-6451477Y10483810D01*
X-6489572Y10407620D01*
X-6527667Y10255239D01*
X-6527667Y10140953D01*
X-6489572Y9988572D01*
X-6451477Y9912381D01*
X-6375286Y9836191D01*
X-6261000Y9798096D01*
X-6070524Y9798096D01*
X-4997505Y7258096D02*
X-4730839Y7639048D01*
X-4540362Y7258096D02*
X-4540362Y8058096D01*
X-4845124Y8058096D01*
X-4921315Y8020000D01*
X-4959410Y7981905D01*
X-4997505Y7905715D01*
X-4997505Y7791429D01*
X-4959410Y7715239D01*
X-4921315Y7677143D01*
X-4845124Y7639048D01*
X-4540362Y7639048D01*
X-5302267Y7296191D02*
X-5416553Y7258096D01*
X-5607029Y7258096D01*
X-5683220Y7296191D01*
X-5721315Y7334286D01*
X-5759410Y7410477D01*
X-5759410Y7486667D01*
X-5721315Y7562858D01*
X-5683220Y7600953D01*
X-5607029Y7639048D01*
X-5454648Y7677143D01*
X-5378458Y7715239D01*
X-5340362Y7753334D01*
X-5302267Y7829524D01*
X-5302267Y7905715D01*
X-5340362Y7981905D01*
X-5378458Y8020000D01*
X-5454648Y8058096D01*
X-5645124Y8058096D01*
X-5759410Y8020000D01*
X-5987981Y8058096D02*
X-6445124Y8058096D01*
X-6216553Y7258096D02*
X-6216553Y8058096D01*
X-5137191Y-15182857D02*
X-5251477Y-15220952D01*
X-5289572Y-15259047D01*
X-5327667Y-15335238D01*
X-5327667Y-15449523D01*
X-5289572Y-15525714D01*
X-5251477Y-15563809D01*
X-5175286Y-15601904D01*
X-4870524Y-15601904D01*
X-4870524Y-14801904D01*
X-5137191Y-14801904D01*
X-5213381Y-14840000D01*
X-5251477Y-14878095D01*
X-5289572Y-14954285D01*
X-5289572Y-15030476D01*
X-5251477Y-15106666D01*
X-5213381Y-15144761D01*
X-5137191Y-15182857D01*
X-4870524Y-15182857D01*
X-6013381Y-14801904D02*
X-5861000Y-14801904D01*
X-5784810Y-14840000D01*
X-5746715Y-14878095D01*
X-5670524Y-14992380D01*
X-5632429Y-15144761D01*
X-5632429Y-15449523D01*
X-5670524Y-15525714D01*
X-5708620Y-15563809D01*
X-5784810Y-15601904D01*
X-5937191Y-15601904D01*
X-6013381Y-15563809D01*
X-6051477Y-15525714D01*
X-6089572Y-15449523D01*
X-6089572Y-15259047D01*
X-6051477Y-15182857D01*
X-6013381Y-15144761D01*
X-5937191Y-15106666D01*
X-5784810Y-15106666D01*
X-5708620Y-15144761D01*
X-5670524Y-15182857D01*
X-5632429Y-15259047D01*
X5594333Y-5365714D02*
X5632428Y-5403809D01*
X5746714Y-5441904D01*
X5822904Y-5441904D01*
X5937190Y-5403809D01*
X6013380Y-5327619D01*
X6051476Y-5251428D01*
X6089571Y-5099047D01*
X6089571Y-4984761D01*
X6051476Y-4832380D01*
X6013380Y-4756190D01*
X5937190Y-4680000D01*
X5822904Y-4641904D01*
X5746714Y-4641904D01*
X5632428Y-4680000D01*
X5594333Y-4718095D01*
X4908619Y-4641904D02*
X5061000Y-4641904D01*
X5137190Y-4680000D01*
X5175285Y-4718095D01*
X5251476Y-4832380D01*
X5289571Y-4984761D01*
X5289571Y-5289523D01*
X5251476Y-5365714D01*
X5213380Y-5403809D01*
X5137190Y-5441904D01*
X4984809Y-5441904D01*
X4908619Y-5403809D01*
X4870523Y-5365714D01*
X4832428Y-5289523D01*
X4832428Y-5099047D01*
X4870523Y-5022857D01*
X4908619Y-4984761D01*
X4984809Y-4946666D01*
X5137190Y-4946666D01*
X5213380Y-4984761D01*
X5251476Y-5022857D01*
X5289571Y-5099047D01*
X-5194334Y-5022857D02*
X-4927667Y-5022857D01*
X-4927667Y-5441904D02*
X-4927667Y-4641904D01*
X-5308620Y-4641904D01*
X-5537191Y-4641904D02*
X-6070524Y-4641904D01*
X-5727667Y-5441904D01*
X-4394334Y5518096D02*
X-4661000Y4718096D01*
X-4927667Y5518096D01*
X-5651477Y4794286D02*
X-5613381Y4756191D01*
X-5499096Y4718096D01*
X-5422905Y4718096D01*
X-5308620Y4756191D01*
X-5232429Y4832381D01*
X-5194334Y4908572D01*
X-5156239Y5060953D01*
X-5156239Y5175239D01*
X-5194334Y5327620D01*
X-5232429Y5403810D01*
X-5308620Y5480000D01*
X-5422905Y5518096D01*
X-5499096Y5518096D01*
X-5613381Y5480000D01*
X-5651477Y5441905D01*
X-6451477Y4794286D02*
X-6413381Y4756191D01*
X-6299096Y4718096D01*
X-6222905Y4718096D01*
X-6108620Y4756191D01*
X-6032429Y4832381D01*
X-5994334Y4908572D01*
X-5956239Y5060953D01*
X-5956239Y5175239D01*
X-5994334Y5327620D01*
X-6032429Y5403810D01*
X-6108620Y5480000D01*
X-6222905Y5518096D01*
X-6299096Y5518096D01*
X-6413381Y5480000D01*
X-6451477Y5441905D01*
X6013380Y-10102857D02*
X5746714Y-10102857D01*
X5632428Y-10521904D02*
X6013380Y-10521904D01*
X6013380Y-9721904D01*
X5632428Y-9721904D01*
X4946714Y-9721904D02*
X5099095Y-9721904D01*
X5175285Y-9760000D01*
X5213380Y-9798095D01*
X5289571Y-9912380D01*
X5327666Y-10064761D01*
X5327666Y-10369523D01*
X5289571Y-10445714D01*
X5251476Y-10483809D01*
X5175285Y-10521904D01*
X5022904Y-10521904D01*
X4946714Y-10483809D01*
X4908619Y-10445714D01*
X4870523Y-10369523D01*
X4870523Y-10179047D01*
X4908619Y-10102857D01*
X4946714Y-10064761D01*
X5022904Y-10026666D01*
X5175285Y-10026666D01*
X5251476Y-10064761D01*
X5289571Y-10102857D01*
X5327666Y-10179047D01*
X6051476Y12338096D02*
X6051476Y13138096D01*
X5861000Y13138096D01*
X5746714Y13100000D01*
X5670523Y13023810D01*
X5632428Y12947620D01*
X5594333Y12795239D01*
X5594333Y12680953D01*
X5632428Y12528572D01*
X5670523Y12452381D01*
X5746714Y12376191D01*
X5861000Y12338096D01*
X6051476Y12338096D01*
X5327666Y13138096D02*
X4832428Y13138096D01*
X5099095Y12833334D01*
X4984809Y12833334D01*
X4908619Y12795239D01*
X4870523Y12757143D01*
X4832428Y12680953D01*
X4832428Y12490477D01*
X4870523Y12414286D01*
X4908619Y12376191D01*
X4984809Y12338096D01*
X5213380Y12338096D01*
X5289571Y12376191D01*
X5327666Y12414286D01*
X5784809Y-12642857D02*
X5670523Y-12680952D01*
X5632428Y-12719047D01*
X5594333Y-12795238D01*
X5594333Y-12909523D01*
X5632428Y-12985714D01*
X5670523Y-13023809D01*
X5746714Y-13061904D01*
X6051476Y-13061904D01*
X6051476Y-12261904D01*
X5784809Y-12261904D01*
X5708619Y-12300000D01*
X5670523Y-12338095D01*
X5632428Y-12414285D01*
X5632428Y-12490476D01*
X5670523Y-12566666D01*
X5708619Y-12604761D01*
X5784809Y-12642857D01*
X6051476Y-12642857D01*
X4908619Y-12528571D02*
X4908619Y-13061904D01*
X5099095Y-12223809D02*
X5289571Y-12795238D01*
X4794333Y-12795238D01*
X-5137191Y-12642857D02*
X-5251477Y-12680952D01*
X-5289572Y-12719047D01*
X-5327667Y-12795238D01*
X-5327667Y-12909523D01*
X-5289572Y-12985714D01*
X-5251477Y-13023809D01*
X-5175286Y-13061904D01*
X-4870524Y-13061904D01*
X-4870524Y-12261904D01*
X-5137191Y-12261904D01*
X-5213381Y-12300000D01*
X-5251477Y-12338095D01*
X-5289572Y-12414285D01*
X-5289572Y-12490476D01*
X-5251477Y-12566666D01*
X-5213381Y-12604761D01*
X-5137191Y-12642857D01*
X-4870524Y-12642857D01*
X-5632429Y-12338095D02*
X-5670524Y-12300000D01*
X-5746715Y-12261904D01*
X-5937191Y-12261904D01*
X-6013381Y-12300000D01*
X-6051477Y-12338095D01*
X-6089572Y-12414285D01*
X-6089572Y-12490476D01*
X-6051477Y-12604761D01*
X-5594334Y-13061904D01*
X-6089572Y-13061904D01*
X-5194334Y57143D02*
X-4927667Y57143D01*
X-4927667Y-361904D02*
X-4927667Y438096D01*
X-5308620Y438096D01*
X-5994334Y438096D02*
X-5613381Y438096D01*
X-5575286Y57143D01*
X-5613381Y95239D01*
X-5689572Y133334D01*
X-5880048Y133334D01*
X-5956239Y95239D01*
X-5994334Y57143D01*
X-6032429Y-19047D01*
X-6032429Y-209523D01*
X-5994334Y-285714D01*
X-5956239Y-323809D01*
X-5880048Y-361904D01*
X-5689572Y-361904D01*
X-5613381Y-323809D01*
X-5575286Y-285714D01*
X-4908620Y12338096D02*
X-4641953Y12719048D01*
X-4451477Y12338096D02*
X-4451477Y13138096D01*
X-4756239Y13138096D01*
X-4832429Y13100000D01*
X-4870524Y13061905D01*
X-4908620Y12985715D01*
X-4908620Y12871429D01*
X-4870524Y12795239D01*
X-4832429Y12757143D01*
X-4756239Y12719048D01*
X-4451477Y12719048D01*
X-5213381Y12566667D02*
X-5594334Y12566667D01*
X-5137191Y12338096D02*
X-5403858Y13138096D01*
X-5670524Y12338096D01*
X-5861000Y13138096D02*
X-6051477Y12338096D01*
X-6203858Y12909524D01*
X-6356239Y12338096D01*
X-6546715Y13138096D01*
X-5194334Y-2482857D02*
X-4927667Y-2482857D01*
X-4927667Y-2901904D02*
X-4927667Y-2101904D01*
X-5308620Y-2101904D01*
X-5956239Y-2101904D02*
X-5803858Y-2101904D01*
X-5727667Y-2140000D01*
X-5689572Y-2178095D01*
X-5613381Y-2292380D01*
X-5575286Y-2444761D01*
X-5575286Y-2749523D01*
X-5613381Y-2825714D01*
X-5651477Y-2863809D01*
X-5727667Y-2901904D01*
X-5880048Y-2901904D01*
X-5956239Y-2863809D01*
X-5994334Y-2825714D01*
X-6032429Y-2749523D01*
X-6032429Y-2559047D01*
X-5994334Y-2482857D01*
X-5956239Y-2444761D01*
X-5880048Y-2406666D01*
X-5727667Y-2406666D01*
X-5651477Y-2444761D01*
X-5613381Y-2482857D01*
X-5575286Y-2559047D01*
X5689523Y5480000D02*
X5765714Y5518096D01*
X5880000Y5518096D01*
X5994285Y5480000D01*
X6070476Y5403810D01*
X6108571Y5327620D01*
X6146666Y5175239D01*
X6146666Y5060953D01*
X6108571Y4908572D01*
X6070476Y4832381D01*
X5994285Y4756191D01*
X5880000Y4718096D01*
X5803809Y4718096D01*
X5689523Y4756191D01*
X5651428Y4794286D01*
X5651428Y5060953D01*
X5803809Y5060953D01*
X5308571Y4718096D02*
X5308571Y5518096D01*
X4851428Y4718096D01*
X4851428Y5518096D01*
X4470476Y4718096D02*
X4470476Y5518096D01*
X4280000Y5518096D01*
X4165714Y5480000D01*
X4089523Y5403810D01*
X4051428Y5327620D01*
X4013333Y5175239D01*
X4013333Y5060953D01*
X4051428Y4908572D01*
X4089523Y4832381D01*
X4165714Y4756191D01*
X4280000Y4718096D01*
X4470476Y4718096D01*
X6051476Y2178096D02*
X6051476Y2978096D01*
X5861000Y2978096D01*
X5746714Y2940000D01*
X5670523Y2863810D01*
X5632428Y2787620D01*
X5594333Y2635239D01*
X5594333Y2520953D01*
X5632428Y2368572D01*
X5670523Y2292381D01*
X5746714Y2216191D01*
X5861000Y2178096D01*
X6051476Y2178096D01*
X4832428Y2178096D02*
X5289571Y2178096D01*
X5061000Y2178096D02*
X5061000Y2978096D01*
X5137190Y2863810D01*
X5213380Y2787620D01*
X5289571Y2749524D01*
X6051476Y-7981904D02*
X6051476Y-7181904D01*
X5861000Y-7181904D01*
X5746714Y-7220000D01*
X5670523Y-7296190D01*
X5632428Y-7372380D01*
X5594333Y-7524761D01*
X5594333Y-7639047D01*
X5632428Y-7791428D01*
X5670523Y-7867619D01*
X5746714Y-7943809D01*
X5861000Y-7981904D01*
X6051476Y-7981904D01*
X5327666Y-7181904D02*
X4794333Y-7181904D01*
X5137190Y-7981904D01*
X5689523Y8020000D02*
X5765714Y8058096D01*
X5880000Y8058096D01*
X5994285Y8020000D01*
X6070476Y7943810D01*
X6108571Y7867620D01*
X6146666Y7715239D01*
X6146666Y7600953D01*
X6108571Y7448572D01*
X6070476Y7372381D01*
X5994285Y7296191D01*
X5880000Y7258096D01*
X5803809Y7258096D01*
X5689523Y7296191D01*
X5651428Y7334286D01*
X5651428Y7600953D01*
X5803809Y7600953D01*
X5308571Y7258096D02*
X5308571Y8058096D01*
X4851428Y7258096D01*
X4851428Y8058096D01*
X4470476Y7258096D02*
X4470476Y8058096D01*
X4280000Y8058096D01*
X4165714Y8020000D01*
X4089523Y7943810D01*
X4051428Y7867620D01*
X4013333Y7715239D01*
X4013333Y7600953D01*
X4051428Y7448572D01*
X4089523Y7372381D01*
X4165714Y7296191D01*
X4280000Y7258096D01*
X4470476Y7258096D01*
D12*
%TO.C,J2*%
X8700000Y-3810000D02*
X8700000Y-5080000D01*
X8700000Y-5080000D02*
X12700000Y-5080000D01*
X12065000Y5080000D02*
X12700000Y5080000D01*
%TO.C,J1*%
X-8700000Y3810000D02*
X-8700000Y5080000D01*
X-12065000Y-5080000D02*
X-12700000Y-5080000D01*
X-8700000Y5080000D02*
X-12700000Y5080000D01*
%TD*%
%LPC*%
D13*
%TO.C,REF\u002A\u002A*%
X-12700000Y-11370000D03*
%TD*%
%TO.C,REF\u002A\u002A*%
X12700000Y11370000D03*
%TD*%
%TO.C,REF\u002A\u002A*%
X12700000Y-11370000D03*
%TD*%
%TO.C,REF\u002A\u002A*%
X-12700000Y11370000D03*
%TD*%
%TO.C,REF\u002A\u002A*%
X0Y-11430000D03*
%TD*%
D14*
%TO.C,U1*%
X7620000Y12700000D03*
D15*
X7620000Y10160000D03*
X7620000Y7620000D03*
X7620000Y5080000D03*
X7620000Y2540000D03*
X7620000Y0D03*
X7620000Y-2540000D03*
X7620000Y-5080000D03*
X7620000Y-7620000D03*
X7620000Y-10160000D03*
X7620000Y-12700000D03*
X7620000Y-15240000D03*
X-7620000Y-15240000D03*
X-7620000Y-12700000D03*
X-7620000Y-10160000D03*
X-7620000Y-7620000D03*
X-7620000Y-5080000D03*
X-7620000Y-2540000D03*
X-7620000Y0D03*
X-7620000Y2540000D03*
X-7620000Y5080000D03*
X-7620000Y7620000D03*
X-7620000Y10160000D03*
X-7620000Y12700000D03*
%TD*%
D16*
%TO.C,J2*%
X10922000Y-3810000D03*
D17*
X11049000Y-1270000D03*
X11049000Y1270000D03*
X11049000Y3810000D03*
%TD*%
D16*
%TO.C,J1*%
X-10922000Y3810000D03*
D18*
X-11049000Y1270000D03*
X-11049000Y-1270000D03*
X-11049000Y-3810000D03*
%TD*%
M02*
