%TF.GenerationSoftware,KiCad,Pcbnew,(5.1.10-1-10_14)*%
%TF.CreationDate,2021-11-08T19:14:52+08:00*%
%TF.ProjectId,Pragmatic,50726167-6d61-4746-9963-2e6b69636164,rev?*%
%TF.SameCoordinates,Original*%
%TF.FileFunction,Legend,Bot*%
%TF.FilePolarity,Positive*%
%FSLAX46Y46*%
G04 Gerber Fmt 4.6, Leading zero omitted, Abs format (unit mm)*
G04 Created by KiCad (PCBNEW (5.1.10-1-10_14)) date 2021-11-08 19:14:52*
%MOMM*%
%LPD*%
G01*
G04 APERTURE LIST*
%ADD10C,0.300000*%
%ADD11C,0.150000*%
%ADD12C,2.400000*%
%ADD13O,2.200000X1.600000*%
%ADD14C,4.900000*%
%ADD15C,1.800000*%
%ADD16O,2.200000X1.500000*%
%ADD17C,1.700000*%
%ADD18R,1.400000X1.000000*%
%ADD19O,1.600000X1.600000*%
%ADD20C,1.600000*%
%ADD21R,1.800000X1.800000*%
G04 APERTURE END LIST*
D10*
X95408571Y-109263571D02*
X95408571Y-107763571D01*
X94551428Y-109263571D02*
X95194285Y-108406428D01*
X94551428Y-107763571D02*
X95408571Y-108620714D01*
X93265714Y-109263571D02*
X93265714Y-108477857D01*
X93337142Y-108335000D01*
X93480000Y-108263571D01*
X93765714Y-108263571D01*
X93908571Y-108335000D01*
X93265714Y-109192142D02*
X93408571Y-109263571D01*
X93765714Y-109263571D01*
X93908571Y-109192142D01*
X93980000Y-109049285D01*
X93980000Y-108906428D01*
X93908571Y-108763571D01*
X93765714Y-108692142D01*
X93408571Y-108692142D01*
X93265714Y-108620714D01*
X92551428Y-109263571D02*
X92551428Y-108263571D01*
X92551428Y-107763571D02*
X92622857Y-107835000D01*
X92551428Y-107906428D01*
X92480000Y-107835000D01*
X92551428Y-107763571D01*
X92551428Y-107906428D01*
X75739285Y-107763571D02*
X75739285Y-108835000D01*
X75810714Y-109049285D01*
X75953571Y-109192142D01*
X76167857Y-109263571D01*
X76310714Y-109263571D01*
X74382142Y-109263571D02*
X74382142Y-108477857D01*
X74453571Y-108335000D01*
X74596428Y-108263571D01*
X74882142Y-108263571D01*
X75025000Y-108335000D01*
X74382142Y-109192142D02*
X74525000Y-109263571D01*
X74882142Y-109263571D01*
X75025000Y-109192142D01*
X75096428Y-109049285D01*
X75096428Y-108906428D01*
X75025000Y-108763571D01*
X74882142Y-108692142D01*
X74525000Y-108692142D01*
X74382142Y-108620714D01*
X73667857Y-109263571D02*
X73667857Y-108263571D01*
X73667857Y-108406428D02*
X73596428Y-108335000D01*
X73453571Y-108263571D01*
X73239285Y-108263571D01*
X73096428Y-108335000D01*
X73025000Y-108477857D01*
X73025000Y-109263571D01*
X73025000Y-108477857D02*
X72953571Y-108335000D01*
X72810714Y-108263571D01*
X72596428Y-108263571D01*
X72453571Y-108335000D01*
X72382142Y-108477857D01*
X72382142Y-109263571D01*
X71096428Y-109192142D02*
X71239285Y-109263571D01*
X71525000Y-109263571D01*
X71667857Y-109192142D01*
X71739285Y-109049285D01*
X71739285Y-108477857D01*
X71667857Y-108335000D01*
X71525000Y-108263571D01*
X71239285Y-108263571D01*
X71096428Y-108335000D01*
X71025000Y-108477857D01*
X71025000Y-108620714D01*
X71739285Y-108763571D01*
X70453571Y-109192142D02*
X70310714Y-109263571D01*
X70025000Y-109263571D01*
X69882142Y-109192142D01*
X69810714Y-109049285D01*
X69810714Y-108977857D01*
X69882142Y-108835000D01*
X70025000Y-108763571D01*
X70239285Y-108763571D01*
X70382142Y-108692142D01*
X70453571Y-108549285D01*
X70453571Y-108477857D01*
X70382142Y-108335000D01*
X70239285Y-108263571D01*
X70025000Y-108263571D01*
X69882142Y-108335000D01*
X57232857Y-109263571D02*
X57232857Y-107763571D01*
X57232857Y-108477857D02*
X56375714Y-108477857D01*
X56375714Y-109263571D02*
X56375714Y-107763571D01*
X55018571Y-109263571D02*
X55018571Y-108477857D01*
X55090000Y-108335000D01*
X55232857Y-108263571D01*
X55518571Y-108263571D01*
X55661428Y-108335000D01*
X55018571Y-109192142D02*
X55161428Y-109263571D01*
X55518571Y-109263571D01*
X55661428Y-109192142D01*
X55732857Y-109049285D01*
X55732857Y-108906428D01*
X55661428Y-108763571D01*
X55518571Y-108692142D01*
X55161428Y-108692142D01*
X55018571Y-108620714D01*
X54447142Y-108263571D02*
X54161428Y-109263571D01*
X53875714Y-108549285D01*
X53590000Y-109263571D01*
X53304285Y-108263571D01*
X52090000Y-109263571D02*
X52090000Y-108477857D01*
X52161428Y-108335000D01*
X52304285Y-108263571D01*
X52590000Y-108263571D01*
X52732857Y-108335000D01*
X52090000Y-109192142D02*
X52232857Y-109263571D01*
X52590000Y-109263571D01*
X52732857Y-109192142D01*
X52804285Y-109049285D01*
X52804285Y-108906428D01*
X52732857Y-108763571D01*
X52590000Y-108692142D01*
X52232857Y-108692142D01*
X52090000Y-108620714D01*
X51518571Y-108263571D02*
X51161428Y-109263571D01*
X50804285Y-108263571D02*
X51161428Y-109263571D01*
X51304285Y-109620714D01*
X51375714Y-109692142D01*
X51518571Y-109763571D01*
X70960476Y-42179761D02*
X71627142Y-41227380D01*
X72103333Y-42179761D02*
X72103333Y-40179761D01*
X71341428Y-40179761D01*
X71150952Y-40275000D01*
X71055714Y-40370238D01*
X70960476Y-40560714D01*
X70960476Y-40846428D01*
X71055714Y-41036904D01*
X71150952Y-41132142D01*
X71341428Y-41227380D01*
X72103333Y-41227380D01*
X70103333Y-42179761D02*
X70103333Y-40846428D01*
X70103333Y-40179761D02*
X70198571Y-40275000D01*
X70103333Y-40370238D01*
X70008095Y-40275000D01*
X70103333Y-40179761D01*
X70103333Y-40370238D01*
X68293809Y-40846428D02*
X68293809Y-42465476D01*
X68389047Y-42655952D01*
X68484285Y-42751190D01*
X68674761Y-42846428D01*
X68960476Y-42846428D01*
X69150952Y-42751190D01*
X68293809Y-42084523D02*
X68484285Y-42179761D01*
X68865238Y-42179761D01*
X69055714Y-42084523D01*
X69150952Y-41989285D01*
X69246190Y-41798809D01*
X69246190Y-41227380D01*
X69150952Y-41036904D01*
X69055714Y-40941666D01*
X68865238Y-40846428D01*
X68484285Y-40846428D01*
X68293809Y-40941666D01*
X67341428Y-42179761D02*
X67341428Y-40179761D01*
X66484285Y-42179761D02*
X66484285Y-41132142D01*
X66579523Y-40941666D01*
X66770000Y-40846428D01*
X67055714Y-40846428D01*
X67246190Y-40941666D01*
X67341428Y-41036904D01*
X65817619Y-40846428D02*
X65055714Y-40846428D01*
X65531904Y-40179761D02*
X65531904Y-41894047D01*
X65436666Y-42084523D01*
X65246190Y-42179761D01*
X65055714Y-42179761D01*
X62960476Y-42084523D02*
X62674761Y-42179761D01*
X62198571Y-42179761D01*
X62008095Y-42084523D01*
X61912857Y-41989285D01*
X61817619Y-41798809D01*
X61817619Y-41608333D01*
X61912857Y-41417857D01*
X62008095Y-41322619D01*
X62198571Y-41227380D01*
X62579523Y-41132142D01*
X62770000Y-41036904D01*
X62865238Y-40941666D01*
X62960476Y-40751190D01*
X62960476Y-40560714D01*
X62865238Y-40370238D01*
X62770000Y-40275000D01*
X62579523Y-40179761D01*
X62103333Y-40179761D01*
X61817619Y-40275000D01*
X60960476Y-42179761D02*
X60960476Y-40846428D01*
X60960476Y-40179761D02*
X61055714Y-40275000D01*
X60960476Y-40370238D01*
X60865238Y-40275000D01*
X60960476Y-40179761D01*
X60960476Y-40370238D01*
X59150952Y-42179761D02*
X59150952Y-40179761D01*
X59150952Y-42084523D02*
X59341428Y-42179761D01*
X59722380Y-42179761D01*
X59912857Y-42084523D01*
X60008095Y-41989285D01*
X60103333Y-41798809D01*
X60103333Y-41227380D01*
X60008095Y-41036904D01*
X59912857Y-40941666D01*
X59722380Y-40846428D01*
X59341428Y-40846428D01*
X59150952Y-40941666D01*
X57436666Y-42084523D02*
X57627142Y-42179761D01*
X58008095Y-42179761D01*
X58198571Y-42084523D01*
X58293809Y-41894047D01*
X58293809Y-41132142D01*
X58198571Y-40941666D01*
X58008095Y-40846428D01*
X57627142Y-40846428D01*
X57436666Y-40941666D01*
X57341428Y-41132142D01*
X57341428Y-41322619D01*
X58293809Y-41513095D01*
D11*
X94914404Y-39252380D02*
X94914404Y-38252380D01*
X94533452Y-38252380D01*
X94438214Y-38300000D01*
X94390595Y-38347619D01*
X94342976Y-38442857D01*
X94342976Y-38585714D01*
X94390595Y-38680952D01*
X94438214Y-38728571D01*
X94533452Y-38776190D01*
X94914404Y-38776190D01*
X93914404Y-39252380D02*
X93914404Y-38585714D01*
X93914404Y-38776190D02*
X93866785Y-38680952D01*
X93819166Y-38633333D01*
X93723928Y-38585714D01*
X93628690Y-38585714D01*
X92866785Y-39252380D02*
X92866785Y-38728571D01*
X92914404Y-38633333D01*
X93009642Y-38585714D01*
X93200119Y-38585714D01*
X93295357Y-38633333D01*
X92866785Y-39204761D02*
X92962023Y-39252380D01*
X93200119Y-39252380D01*
X93295357Y-39204761D01*
X93342976Y-39109523D01*
X93342976Y-39014285D01*
X93295357Y-38919047D01*
X93200119Y-38871428D01*
X92962023Y-38871428D01*
X92866785Y-38823809D01*
X91962023Y-38585714D02*
X91962023Y-39395238D01*
X92009642Y-39490476D01*
X92057261Y-39538095D01*
X92152500Y-39585714D01*
X92295357Y-39585714D01*
X92390595Y-39538095D01*
X91962023Y-39204761D02*
X92057261Y-39252380D01*
X92247738Y-39252380D01*
X92342976Y-39204761D01*
X92390595Y-39157142D01*
X92438214Y-39061904D01*
X92438214Y-38776190D01*
X92390595Y-38680952D01*
X92342976Y-38633333D01*
X92247738Y-38585714D01*
X92057261Y-38585714D01*
X91962023Y-38633333D01*
X91485833Y-39252380D02*
X91485833Y-38585714D01*
X91485833Y-38680952D02*
X91438214Y-38633333D01*
X91342976Y-38585714D01*
X91200119Y-38585714D01*
X91104880Y-38633333D01*
X91057261Y-38728571D01*
X91057261Y-39252380D01*
X91057261Y-38728571D02*
X91009642Y-38633333D01*
X90914404Y-38585714D01*
X90771547Y-38585714D01*
X90676309Y-38633333D01*
X90628690Y-38728571D01*
X90628690Y-39252380D01*
X89723928Y-39252380D02*
X89723928Y-38728571D01*
X89771547Y-38633333D01*
X89866785Y-38585714D01*
X90057261Y-38585714D01*
X90152500Y-38633333D01*
X89723928Y-39204761D02*
X89819166Y-39252380D01*
X90057261Y-39252380D01*
X90152500Y-39204761D01*
X90200119Y-39109523D01*
X90200119Y-39014285D01*
X90152500Y-38919047D01*
X90057261Y-38871428D01*
X89819166Y-38871428D01*
X89723928Y-38823809D01*
X89390595Y-38585714D02*
X89009642Y-38585714D01*
X89247738Y-38252380D02*
X89247738Y-39109523D01*
X89200119Y-39204761D01*
X89104880Y-39252380D01*
X89009642Y-39252380D01*
X88676309Y-39252380D02*
X88676309Y-38585714D01*
X88676309Y-38252380D02*
X88723928Y-38300000D01*
X88676309Y-38347619D01*
X88628690Y-38300000D01*
X88676309Y-38252380D01*
X88676309Y-38347619D01*
X87771547Y-39204761D02*
X87866785Y-39252380D01*
X88057261Y-39252380D01*
X88152500Y-39204761D01*
X88200119Y-39157142D01*
X88247738Y-39061904D01*
X88247738Y-38776190D01*
X88200119Y-38680952D01*
X88152500Y-38633333D01*
X88057261Y-38585714D01*
X87866785Y-38585714D01*
X87771547Y-38633333D01*
X86581071Y-39252380D02*
X86581071Y-38252380D01*
X86009642Y-39252380D02*
X86438214Y-38680952D01*
X86009642Y-38252380D02*
X86581071Y-38823809D01*
X85581071Y-39252380D02*
X85581071Y-38585714D01*
X85581071Y-38252380D02*
X85628690Y-38300000D01*
X85581071Y-38347619D01*
X85533452Y-38300000D01*
X85581071Y-38252380D01*
X85581071Y-38347619D01*
X85247738Y-38585714D02*
X84866785Y-38585714D01*
X85104880Y-38252380D02*
X85104880Y-39109523D01*
X85057261Y-39204761D01*
X84962023Y-39252380D01*
X84866785Y-39252380D01*
X94342976Y-40902380D02*
X94676309Y-40426190D01*
X94914404Y-40902380D02*
X94914404Y-39902380D01*
X94533452Y-39902380D01*
X94438214Y-39950000D01*
X94390595Y-39997619D01*
X94342976Y-40092857D01*
X94342976Y-40235714D01*
X94390595Y-40330952D01*
X94438214Y-40378571D01*
X94533452Y-40426190D01*
X94914404Y-40426190D01*
X93914404Y-40902380D02*
X93914404Y-40235714D01*
X93914404Y-39902380D02*
X93962023Y-39950000D01*
X93914404Y-39997619D01*
X93866785Y-39950000D01*
X93914404Y-39902380D01*
X93914404Y-39997619D01*
X93009642Y-40235714D02*
X93009642Y-41045238D01*
X93057261Y-41140476D01*
X93104880Y-41188095D01*
X93200119Y-41235714D01*
X93342976Y-41235714D01*
X93438214Y-41188095D01*
X93009642Y-40854761D02*
X93104880Y-40902380D01*
X93295357Y-40902380D01*
X93390595Y-40854761D01*
X93438214Y-40807142D01*
X93485833Y-40711904D01*
X93485833Y-40426190D01*
X93438214Y-40330952D01*
X93390595Y-40283333D01*
X93295357Y-40235714D01*
X93104880Y-40235714D01*
X93009642Y-40283333D01*
X92533452Y-40902380D02*
X92533452Y-39902380D01*
X92104880Y-40902380D02*
X92104880Y-40378571D01*
X92152500Y-40283333D01*
X92247738Y-40235714D01*
X92390595Y-40235714D01*
X92485833Y-40283333D01*
X92533452Y-40330952D01*
X91771547Y-40235714D02*
X91390595Y-40235714D01*
X91628690Y-39902380D02*
X91628690Y-40759523D01*
X91581071Y-40854761D01*
X91485833Y-40902380D01*
X91390595Y-40902380D01*
X90295357Y-40902380D02*
X90295357Y-39902380D01*
X90295357Y-40378571D02*
X89723928Y-40378571D01*
X89723928Y-40902380D02*
X89723928Y-39902380D01*
X88819166Y-40902380D02*
X88819166Y-40378571D01*
X88866785Y-40283333D01*
X88962023Y-40235714D01*
X89152500Y-40235714D01*
X89247738Y-40283333D01*
X88819166Y-40854761D02*
X88914404Y-40902380D01*
X89152500Y-40902380D01*
X89247738Y-40854761D01*
X89295357Y-40759523D01*
X89295357Y-40664285D01*
X89247738Y-40569047D01*
X89152500Y-40521428D01*
X88914404Y-40521428D01*
X88819166Y-40473809D01*
X88342976Y-40235714D02*
X88342976Y-40902380D01*
X88342976Y-40330952D02*
X88295357Y-40283333D01*
X88200119Y-40235714D01*
X88057261Y-40235714D01*
X87962023Y-40283333D01*
X87914404Y-40378571D01*
X87914404Y-40902380D01*
X87009642Y-40902380D02*
X87009642Y-39902380D01*
X87009642Y-40854761D02*
X87104880Y-40902380D01*
X87295357Y-40902380D01*
X87390595Y-40854761D01*
X87438214Y-40807142D01*
X87485833Y-40711904D01*
X87485833Y-40426190D01*
X87438214Y-40330952D01*
X87390595Y-40283333D01*
X87295357Y-40235714D01*
X87104880Y-40235714D01*
X87009642Y-40283333D01*
X85771547Y-40902380D02*
X85771547Y-39902380D01*
X85438214Y-40616666D01*
X85104880Y-39902380D01*
X85104880Y-40902380D01*
X84485833Y-40902380D02*
X84581071Y-40854761D01*
X84628690Y-40807142D01*
X84676309Y-40711904D01*
X84676309Y-40426190D01*
X84628690Y-40330952D01*
X84581071Y-40283333D01*
X84485833Y-40235714D01*
X84342976Y-40235714D01*
X84247738Y-40283333D01*
X84200119Y-40330952D01*
X84152500Y-40426190D01*
X84152500Y-40711904D01*
X84200119Y-40807142D01*
X84247738Y-40854761D01*
X84342976Y-40902380D01*
X84485833Y-40902380D01*
X83295357Y-40902380D02*
X83295357Y-39902380D01*
X83295357Y-40854761D02*
X83390595Y-40902380D01*
X83581071Y-40902380D01*
X83676309Y-40854761D01*
X83723928Y-40807142D01*
X83771547Y-40711904D01*
X83771547Y-40426190D01*
X83723928Y-40330952D01*
X83676309Y-40283333D01*
X83581071Y-40235714D01*
X83390595Y-40235714D01*
X83295357Y-40283333D01*
X82390595Y-40235714D02*
X82390595Y-40902380D01*
X82819166Y-40235714D02*
X82819166Y-40759523D01*
X82771547Y-40854761D01*
X82676309Y-40902380D01*
X82533452Y-40902380D01*
X82438214Y-40854761D01*
X82390595Y-40807142D01*
X81771547Y-40902380D02*
X81866785Y-40854761D01*
X81914404Y-40759523D01*
X81914404Y-39902380D01*
X81009642Y-40854761D02*
X81104880Y-40902380D01*
X81295357Y-40902380D01*
X81390595Y-40854761D01*
X81438214Y-40759523D01*
X81438214Y-40378571D01*
X81390595Y-40283333D01*
X81295357Y-40235714D01*
X81104880Y-40235714D01*
X81009642Y-40283333D01*
X80962023Y-40378571D01*
X80962023Y-40473809D01*
X81438214Y-40569047D01*
X94914404Y-42552380D02*
X94914404Y-41552380D01*
X94676309Y-41552380D01*
X94533452Y-41600000D01*
X94438214Y-41695238D01*
X94390595Y-41790476D01*
X94342976Y-41980952D01*
X94342976Y-42123809D01*
X94390595Y-42314285D01*
X94438214Y-42409523D01*
X94533452Y-42504761D01*
X94676309Y-42552380D01*
X94914404Y-42552380D01*
X93533452Y-42504761D02*
X93628690Y-42552380D01*
X93819166Y-42552380D01*
X93914404Y-42504761D01*
X93962023Y-42409523D01*
X93962023Y-42028571D01*
X93914404Y-41933333D01*
X93819166Y-41885714D01*
X93628690Y-41885714D01*
X93533452Y-41933333D01*
X93485833Y-42028571D01*
X93485833Y-42123809D01*
X93962023Y-42219047D01*
X93104880Y-42504761D02*
X93009642Y-42552380D01*
X92819166Y-42552380D01*
X92723928Y-42504761D01*
X92676309Y-42409523D01*
X92676309Y-42361904D01*
X92723928Y-42266666D01*
X92819166Y-42219047D01*
X92962023Y-42219047D01*
X93057261Y-42171428D01*
X93104880Y-42076190D01*
X93104880Y-42028571D01*
X93057261Y-41933333D01*
X92962023Y-41885714D01*
X92819166Y-41885714D01*
X92723928Y-41933333D01*
X92247738Y-42552380D02*
X92247738Y-41885714D01*
X92247738Y-41552380D02*
X92295357Y-41600000D01*
X92247738Y-41647619D01*
X92200119Y-41600000D01*
X92247738Y-41552380D01*
X92247738Y-41647619D01*
X91342976Y-41885714D02*
X91342976Y-42695238D01*
X91390595Y-42790476D01*
X91438214Y-42838095D01*
X91533452Y-42885714D01*
X91676309Y-42885714D01*
X91771547Y-42838095D01*
X91342976Y-42504761D02*
X91438214Y-42552380D01*
X91628690Y-42552380D01*
X91723928Y-42504761D01*
X91771547Y-42457142D01*
X91819166Y-42361904D01*
X91819166Y-42076190D01*
X91771547Y-41980952D01*
X91723928Y-41933333D01*
X91628690Y-41885714D01*
X91438214Y-41885714D01*
X91342976Y-41933333D01*
X90866785Y-41885714D02*
X90866785Y-42552380D01*
X90866785Y-41980952D02*
X90819166Y-41933333D01*
X90723928Y-41885714D01*
X90581071Y-41885714D01*
X90485833Y-41933333D01*
X90438214Y-42028571D01*
X90438214Y-42552380D01*
X89200119Y-42552380D02*
X89200119Y-41552380D01*
X89200119Y-41933333D02*
X89104880Y-41885714D01*
X88914404Y-41885714D01*
X88819166Y-41933333D01*
X88771547Y-41980952D01*
X88723928Y-42076190D01*
X88723928Y-42361904D01*
X88771547Y-42457142D01*
X88819166Y-42504761D01*
X88914404Y-42552380D01*
X89104880Y-42552380D01*
X89200119Y-42504761D01*
X88390595Y-41885714D02*
X88152500Y-42552380D01*
X87914404Y-41885714D02*
X88152500Y-42552380D01*
X88247738Y-42790476D01*
X88295357Y-42838095D01*
X88390595Y-42885714D01*
X86485833Y-41552380D02*
X86485833Y-42266666D01*
X86533452Y-42409523D01*
X86628690Y-42504761D01*
X86771547Y-42552380D01*
X86866785Y-42552380D01*
X85581071Y-42552380D02*
X85581071Y-42028571D01*
X85628690Y-41933333D01*
X85723928Y-41885714D01*
X85914404Y-41885714D01*
X86009642Y-41933333D01*
X85581071Y-42504761D02*
X85676309Y-42552380D01*
X85914404Y-42552380D01*
X86009642Y-42504761D01*
X86057261Y-42409523D01*
X86057261Y-42314285D01*
X86009642Y-42219047D01*
X85914404Y-42171428D01*
X85676309Y-42171428D01*
X85581071Y-42123809D01*
X85104880Y-42552380D02*
X85104880Y-41885714D01*
X85104880Y-41980952D02*
X85057261Y-41933333D01*
X84962023Y-41885714D01*
X84819166Y-41885714D01*
X84723928Y-41933333D01*
X84676309Y-42028571D01*
X84676309Y-42552380D01*
X84676309Y-42028571D02*
X84628690Y-41933333D01*
X84533452Y-41885714D01*
X84390595Y-41885714D01*
X84295357Y-41933333D01*
X84247738Y-42028571D01*
X84247738Y-42552380D01*
X83390595Y-42504761D02*
X83485833Y-42552380D01*
X83676309Y-42552380D01*
X83771547Y-42504761D01*
X83819166Y-42409523D01*
X83819166Y-42028571D01*
X83771547Y-41933333D01*
X83676309Y-41885714D01*
X83485833Y-41885714D01*
X83390595Y-41933333D01*
X83342976Y-42028571D01*
X83342976Y-42123809D01*
X83819166Y-42219047D01*
X82962023Y-42504761D02*
X82866785Y-42552380D01*
X82676309Y-42552380D01*
X82581071Y-42504761D01*
X82533452Y-42409523D01*
X82533452Y-42361904D01*
X82581071Y-42266666D01*
X82676309Y-42219047D01*
X82819166Y-42219047D01*
X82914404Y-42171428D01*
X82962023Y-42076190D01*
X82962023Y-42028571D01*
X82914404Y-41933333D01*
X82819166Y-41885714D01*
X82676309Y-41885714D01*
X82581071Y-41933333D01*
X81390595Y-42504761D02*
X81247738Y-42552380D01*
X81009642Y-42552380D01*
X80914404Y-42504761D01*
X80866785Y-42457142D01*
X80819166Y-42361904D01*
X80819166Y-42266666D01*
X80866785Y-42171428D01*
X80914404Y-42123809D01*
X81009642Y-42076190D01*
X81200119Y-42028571D01*
X81295357Y-41980952D01*
X81342976Y-41933333D01*
X81390595Y-41838095D01*
X81390595Y-41742857D01*
X81342976Y-41647619D01*
X81295357Y-41600000D01*
X81200119Y-41552380D01*
X80962023Y-41552380D01*
X80819166Y-41600000D01*
X79962023Y-42552380D02*
X79962023Y-42028571D01*
X80009642Y-41933333D01*
X80104880Y-41885714D01*
X80295357Y-41885714D01*
X80390595Y-41933333D01*
X79962023Y-42504761D02*
X80057261Y-42552380D01*
X80295357Y-42552380D01*
X80390595Y-42504761D01*
X80438214Y-42409523D01*
X80438214Y-42314285D01*
X80390595Y-42219047D01*
X80295357Y-42171428D01*
X80057261Y-42171428D01*
X79962023Y-42123809D01*
X95057261Y-43202380D02*
X94723928Y-44202380D01*
X94390595Y-43202380D01*
X93866785Y-43202380D02*
X93771547Y-43202380D01*
X93676309Y-43250000D01*
X93628690Y-43297619D01*
X93581071Y-43392857D01*
X93533452Y-43583333D01*
X93533452Y-43821428D01*
X93581071Y-44011904D01*
X93628690Y-44107142D01*
X93676309Y-44154761D01*
X93771547Y-44202380D01*
X93866785Y-44202380D01*
X93962023Y-44154761D01*
X94009642Y-44107142D01*
X94057261Y-44011904D01*
X94104880Y-43821428D01*
X94104880Y-43583333D01*
X94057261Y-43392857D01*
X94009642Y-43297619D01*
X93962023Y-43250000D01*
X93866785Y-43202380D01*
X93104880Y-44107142D02*
X93057261Y-44154761D01*
X93104880Y-44202380D01*
X93152500Y-44154761D01*
X93104880Y-44107142D01*
X93104880Y-44202380D01*
X92104880Y-44202380D02*
X92676309Y-44202380D01*
X92390595Y-44202380D02*
X92390595Y-43202380D01*
X92485833Y-43345238D01*
X92581071Y-43440476D01*
X92676309Y-43488095D01*
X90962023Y-43297619D02*
X90914404Y-43250000D01*
X90819166Y-43202380D01*
X90581071Y-43202380D01*
X90485833Y-43250000D01*
X90438214Y-43297619D01*
X90390595Y-43392857D01*
X90390595Y-43488095D01*
X90438214Y-43630952D01*
X91009642Y-44202380D01*
X90390595Y-44202380D01*
X89771547Y-43202380D02*
X89676309Y-43202380D01*
X89581071Y-43250000D01*
X89533452Y-43297619D01*
X89485833Y-43392857D01*
X89438214Y-43583333D01*
X89438214Y-43821428D01*
X89485833Y-44011904D01*
X89533452Y-44107142D01*
X89581071Y-44154761D01*
X89676309Y-44202380D01*
X89771547Y-44202380D01*
X89866785Y-44154761D01*
X89914404Y-44107142D01*
X89962023Y-44011904D01*
X90009642Y-43821428D01*
X90009642Y-43583333D01*
X89962023Y-43392857D01*
X89914404Y-43297619D01*
X89866785Y-43250000D01*
X89771547Y-43202380D01*
X89057261Y-43297619D02*
X89009642Y-43250000D01*
X88914404Y-43202380D01*
X88676309Y-43202380D01*
X88581071Y-43250000D01*
X88533452Y-43297619D01*
X88485833Y-43392857D01*
X88485833Y-43488095D01*
X88533452Y-43630952D01*
X89104880Y-44202380D01*
X88485833Y-44202380D01*
X87533452Y-44202380D02*
X88104880Y-44202380D01*
X87819166Y-44202380D02*
X87819166Y-43202380D01*
X87914404Y-43345238D01*
X88009642Y-43440476D01*
X88104880Y-43488095D01*
X87104880Y-43821428D02*
X86342976Y-43821428D01*
X85342976Y-44202380D02*
X85914404Y-44202380D01*
X85628690Y-44202380D02*
X85628690Y-43202380D01*
X85723928Y-43345238D01*
X85819166Y-43440476D01*
X85914404Y-43488095D01*
X84390595Y-44202380D02*
X84962023Y-44202380D01*
X84676309Y-44202380D02*
X84676309Y-43202380D01*
X84771547Y-43345238D01*
X84866785Y-43440476D01*
X84962023Y-43488095D01*
X83962023Y-43821428D02*
X83200119Y-43821428D01*
X82581071Y-43630952D02*
X82676309Y-43583333D01*
X82723928Y-43535714D01*
X82771547Y-43440476D01*
X82771547Y-43392857D01*
X82723928Y-43297619D01*
X82676309Y-43250000D01*
X82581071Y-43202380D01*
X82390595Y-43202380D01*
X82295357Y-43250000D01*
X82247738Y-43297619D01*
X82200119Y-43392857D01*
X82200119Y-43440476D01*
X82247738Y-43535714D01*
X82295357Y-43583333D01*
X82390595Y-43630952D01*
X82581071Y-43630952D01*
X82676309Y-43678571D01*
X82723928Y-43726190D01*
X82771547Y-43821428D01*
X82771547Y-44011904D01*
X82723928Y-44107142D01*
X82676309Y-44154761D01*
X82581071Y-44202380D01*
X82390595Y-44202380D01*
X82295357Y-44154761D01*
X82247738Y-44107142D01*
X82200119Y-44011904D01*
X82200119Y-43821428D01*
X82247738Y-43726190D01*
X82295357Y-43678571D01*
X82390595Y-43630952D01*
X146820000Y-48760000D02*
X146820000Y-47760000D01*
X146920000Y-48260000D02*
X147820000Y-48760000D01*
X147820000Y-47760000D02*
X146920000Y-48260000D01*
X147820000Y-48760000D02*
X147820000Y-47760000D01*
X150020000Y-49010000D02*
X150020000Y-47510000D01*
X144620000Y-49010000D02*
X144620000Y-47510000D01*
X150020000Y-49010000D02*
X144620000Y-49010000D01*
X144620000Y-47510000D02*
X150020000Y-47510000D01*
X87470000Y-47510000D02*
X92870000Y-47510000D01*
X92870000Y-49010000D02*
X87470000Y-49010000D01*
X87470000Y-49010000D02*
X87470000Y-47510000D01*
X92870000Y-49010000D02*
X92870000Y-47510000D01*
X90670000Y-48760000D02*
X90670000Y-47760000D01*
X90670000Y-47760000D02*
X89770000Y-48260000D01*
X89770000Y-48260000D02*
X90670000Y-48760000D01*
X89670000Y-48760000D02*
X89670000Y-47760000D01*
X68420000Y-47510000D02*
X73820000Y-47510000D01*
X73820000Y-49010000D02*
X68420000Y-49010000D01*
X68420000Y-49010000D02*
X68420000Y-47510000D01*
X73820000Y-49010000D02*
X73820000Y-47510000D01*
X71620000Y-48760000D02*
X71620000Y-47760000D01*
X71620000Y-47760000D02*
X70720000Y-48260000D01*
X70720000Y-48260000D02*
X71620000Y-48760000D01*
X70620000Y-48760000D02*
X70620000Y-47760000D01*
X146820000Y-144010000D02*
X146820000Y-143010000D01*
X146920000Y-143510000D02*
X147820000Y-144010000D01*
X147820000Y-143010000D02*
X146920000Y-143510000D01*
X147820000Y-144010000D02*
X147820000Y-143010000D01*
X150020000Y-144260000D02*
X150020000Y-142760000D01*
X144620000Y-144260000D02*
X144620000Y-142760000D01*
X150020000Y-144260000D02*
X144620000Y-144260000D01*
X144620000Y-142760000D02*
X150020000Y-142760000D01*
X127770000Y-144010000D02*
X127770000Y-143010000D01*
X127870000Y-143510000D02*
X128770000Y-144010000D01*
X128770000Y-143010000D02*
X127870000Y-143510000D01*
X128770000Y-144010000D02*
X128770000Y-143010000D01*
X130970000Y-144260000D02*
X130970000Y-142760000D01*
X125570000Y-144260000D02*
X125570000Y-142760000D01*
X130970000Y-144260000D02*
X125570000Y-144260000D01*
X125570000Y-142760000D02*
X130970000Y-142760000D01*
X108720000Y-144010000D02*
X108720000Y-143010000D01*
X108820000Y-143510000D02*
X109720000Y-144010000D01*
X109720000Y-143010000D02*
X108820000Y-143510000D01*
X109720000Y-144010000D02*
X109720000Y-143010000D01*
X111920000Y-144260000D02*
X111920000Y-142760000D01*
X106520000Y-144260000D02*
X106520000Y-142760000D01*
X111920000Y-144260000D02*
X106520000Y-144260000D01*
X106520000Y-142760000D02*
X111920000Y-142760000D01*
X89670000Y-144010000D02*
X89670000Y-143010000D01*
X89770000Y-143510000D02*
X90670000Y-144010000D01*
X90670000Y-143010000D02*
X89770000Y-143510000D01*
X90670000Y-144010000D02*
X90670000Y-143010000D01*
X92870000Y-144260000D02*
X92870000Y-142760000D01*
X87470000Y-144260000D02*
X87470000Y-142760000D01*
X92870000Y-144260000D02*
X87470000Y-144260000D01*
X87470000Y-142760000D02*
X92870000Y-142760000D01*
X70620000Y-144010000D02*
X70620000Y-143010000D01*
X70720000Y-143510000D02*
X71620000Y-144010000D01*
X71620000Y-143010000D02*
X70720000Y-143510000D01*
X71620000Y-144010000D02*
X71620000Y-143010000D01*
X73820000Y-144260000D02*
X73820000Y-142760000D01*
X68420000Y-144260000D02*
X68420000Y-142760000D01*
X73820000Y-144260000D02*
X68420000Y-144260000D01*
X68420000Y-142760000D02*
X73820000Y-142760000D01*
X51570000Y-144010000D02*
X51570000Y-143010000D01*
X51670000Y-143510000D02*
X52570000Y-144010000D01*
X52570000Y-143010000D02*
X51670000Y-143510000D01*
X52570000Y-144010000D02*
X52570000Y-143010000D01*
X54770000Y-144260000D02*
X54770000Y-142760000D01*
X49370000Y-144260000D02*
X49370000Y-142760000D01*
X54770000Y-144260000D02*
X49370000Y-144260000D01*
X49370000Y-142760000D02*
X54770000Y-142760000D01*
X146820000Y-124960000D02*
X146820000Y-123960000D01*
X146920000Y-124460000D02*
X147820000Y-124960000D01*
X147820000Y-123960000D02*
X146920000Y-124460000D01*
X147820000Y-124960000D02*
X147820000Y-123960000D01*
X150020000Y-125210000D02*
X150020000Y-123710000D01*
X144620000Y-125210000D02*
X144620000Y-123710000D01*
X150020000Y-125210000D02*
X144620000Y-125210000D01*
X144620000Y-123710000D02*
X150020000Y-123710000D01*
X127770000Y-124960000D02*
X127770000Y-123960000D01*
X127870000Y-124460000D02*
X128770000Y-124960000D01*
X128770000Y-123960000D02*
X127870000Y-124460000D01*
X128770000Y-124960000D02*
X128770000Y-123960000D01*
X130970000Y-125210000D02*
X130970000Y-123710000D01*
X125570000Y-125210000D02*
X125570000Y-123710000D01*
X130970000Y-125210000D02*
X125570000Y-125210000D01*
X125570000Y-123710000D02*
X130970000Y-123710000D01*
X108720000Y-124960000D02*
X108720000Y-123960000D01*
X108820000Y-124460000D02*
X109720000Y-124960000D01*
X109720000Y-123960000D02*
X108820000Y-124460000D01*
X109720000Y-124960000D02*
X109720000Y-123960000D01*
X111920000Y-125210000D02*
X111920000Y-123710000D01*
X106520000Y-125210000D02*
X106520000Y-123710000D01*
X111920000Y-125210000D02*
X106520000Y-125210000D01*
X106520000Y-123710000D02*
X111920000Y-123710000D01*
X89670000Y-124960000D02*
X89670000Y-123960000D01*
X89770000Y-124460000D02*
X90670000Y-124960000D01*
X90670000Y-123960000D02*
X89770000Y-124460000D01*
X90670000Y-124960000D02*
X90670000Y-123960000D01*
X92870000Y-125210000D02*
X92870000Y-123710000D01*
X87470000Y-125210000D02*
X87470000Y-123710000D01*
X92870000Y-125210000D02*
X87470000Y-125210000D01*
X87470000Y-123710000D02*
X92870000Y-123710000D01*
X70620000Y-124960000D02*
X70620000Y-123960000D01*
X70720000Y-124460000D02*
X71620000Y-124960000D01*
X71620000Y-123960000D02*
X70720000Y-124460000D01*
X71620000Y-124960000D02*
X71620000Y-123960000D01*
X73820000Y-125210000D02*
X73820000Y-123710000D01*
X68420000Y-125210000D02*
X68420000Y-123710000D01*
X73820000Y-125210000D02*
X68420000Y-125210000D01*
X68420000Y-123710000D02*
X73820000Y-123710000D01*
X51570000Y-124960000D02*
X51570000Y-123960000D01*
X51670000Y-124460000D02*
X52570000Y-124960000D01*
X52570000Y-123960000D02*
X51670000Y-124460000D01*
X52570000Y-124960000D02*
X52570000Y-123960000D01*
X54770000Y-125210000D02*
X54770000Y-123710000D01*
X49370000Y-125210000D02*
X49370000Y-123710000D01*
X54770000Y-125210000D02*
X49370000Y-125210000D01*
X49370000Y-123710000D02*
X54770000Y-123710000D01*
X146820000Y-105910000D02*
X146820000Y-104910000D01*
X146920000Y-105410000D02*
X147820000Y-105910000D01*
X147820000Y-104910000D02*
X146920000Y-105410000D01*
X147820000Y-105910000D02*
X147820000Y-104910000D01*
X150020000Y-106160000D02*
X150020000Y-104660000D01*
X144620000Y-106160000D02*
X144620000Y-104660000D01*
X150020000Y-106160000D02*
X144620000Y-106160000D01*
X144620000Y-104660000D02*
X150020000Y-104660000D01*
X127770000Y-105910000D02*
X127770000Y-104910000D01*
X127870000Y-105410000D02*
X128770000Y-105910000D01*
X128770000Y-104910000D02*
X127870000Y-105410000D01*
X128770000Y-105910000D02*
X128770000Y-104910000D01*
X130970000Y-106160000D02*
X130970000Y-104660000D01*
X125570000Y-106160000D02*
X125570000Y-104660000D01*
X130970000Y-106160000D02*
X125570000Y-106160000D01*
X125570000Y-104660000D02*
X130970000Y-104660000D01*
X108720000Y-105910000D02*
X108720000Y-104910000D01*
X108820000Y-105410000D02*
X109720000Y-105910000D01*
X109720000Y-104910000D02*
X108820000Y-105410000D01*
X109720000Y-105910000D02*
X109720000Y-104910000D01*
X111920000Y-106160000D02*
X111920000Y-104660000D01*
X106520000Y-106160000D02*
X106520000Y-104660000D01*
X111920000Y-106160000D02*
X106520000Y-106160000D01*
X106520000Y-104660000D02*
X111920000Y-104660000D01*
X89670000Y-105910000D02*
X89670000Y-104910000D01*
X89770000Y-105410000D02*
X90670000Y-105910000D01*
X90670000Y-104910000D02*
X89770000Y-105410000D01*
X90670000Y-105910000D02*
X90670000Y-104910000D01*
X92870000Y-106160000D02*
X92870000Y-104660000D01*
X87470000Y-106160000D02*
X87470000Y-104660000D01*
X92870000Y-106160000D02*
X87470000Y-106160000D01*
X87470000Y-104660000D02*
X92870000Y-104660000D01*
X70620000Y-105910000D02*
X70620000Y-104910000D01*
X70720000Y-105410000D02*
X71620000Y-105910000D01*
X71620000Y-104910000D02*
X70720000Y-105410000D01*
X71620000Y-105910000D02*
X71620000Y-104910000D01*
X73820000Y-106160000D02*
X73820000Y-104660000D01*
X68420000Y-106160000D02*
X68420000Y-104660000D01*
X73820000Y-106160000D02*
X68420000Y-106160000D01*
X68420000Y-104660000D02*
X73820000Y-104660000D01*
X51570000Y-105910000D02*
X51570000Y-104910000D01*
X51670000Y-105410000D02*
X52570000Y-105910000D01*
X52570000Y-104910000D02*
X51670000Y-105410000D01*
X52570000Y-105910000D02*
X52570000Y-104910000D01*
X54770000Y-106160000D02*
X54770000Y-104660000D01*
X49370000Y-106160000D02*
X49370000Y-104660000D01*
X54770000Y-106160000D02*
X49370000Y-106160000D01*
X49370000Y-104660000D02*
X54770000Y-104660000D01*
X146820000Y-86860000D02*
X146820000Y-85860000D01*
X146920000Y-86360000D02*
X147820000Y-86860000D01*
X147820000Y-85860000D02*
X146920000Y-86360000D01*
X147820000Y-86860000D02*
X147820000Y-85860000D01*
X150020000Y-87110000D02*
X150020000Y-85610000D01*
X144620000Y-87110000D02*
X144620000Y-85610000D01*
X150020000Y-87110000D02*
X144620000Y-87110000D01*
X144620000Y-85610000D02*
X150020000Y-85610000D01*
X127770000Y-86860000D02*
X127770000Y-85860000D01*
X127870000Y-86360000D02*
X128770000Y-86860000D01*
X128770000Y-85860000D02*
X127870000Y-86360000D01*
X128770000Y-86860000D02*
X128770000Y-85860000D01*
X130970000Y-87110000D02*
X130970000Y-85610000D01*
X125570000Y-87110000D02*
X125570000Y-85610000D01*
X130970000Y-87110000D02*
X125570000Y-87110000D01*
X125570000Y-85610000D02*
X130970000Y-85610000D01*
X108720000Y-86860000D02*
X108720000Y-85860000D01*
X108820000Y-86360000D02*
X109720000Y-86860000D01*
X109720000Y-85860000D02*
X108820000Y-86360000D01*
X109720000Y-86860000D02*
X109720000Y-85860000D01*
X111920000Y-87110000D02*
X111920000Y-85610000D01*
X106520000Y-87110000D02*
X106520000Y-85610000D01*
X111920000Y-87110000D02*
X106520000Y-87110000D01*
X106520000Y-85610000D02*
X111920000Y-85610000D01*
X89670000Y-86860000D02*
X89670000Y-85860000D01*
X89770000Y-86360000D02*
X90670000Y-86860000D01*
X90670000Y-85860000D02*
X89770000Y-86360000D01*
X90670000Y-86860000D02*
X90670000Y-85860000D01*
X92870000Y-87110000D02*
X92870000Y-85610000D01*
X87470000Y-87110000D02*
X87470000Y-85610000D01*
X92870000Y-87110000D02*
X87470000Y-87110000D01*
X87470000Y-85610000D02*
X92870000Y-85610000D01*
X70620000Y-86860000D02*
X70620000Y-85860000D01*
X70720000Y-86360000D02*
X71620000Y-86860000D01*
X71620000Y-85860000D02*
X70720000Y-86360000D01*
X71620000Y-86860000D02*
X71620000Y-85860000D01*
X73820000Y-87110000D02*
X73820000Y-85610000D01*
X68420000Y-87110000D02*
X68420000Y-85610000D01*
X73820000Y-87110000D02*
X68420000Y-87110000D01*
X68420000Y-85610000D02*
X73820000Y-85610000D01*
X51570000Y-86860000D02*
X51570000Y-85860000D01*
X51670000Y-86360000D02*
X52570000Y-86860000D01*
X52570000Y-85860000D02*
X51670000Y-86360000D01*
X52570000Y-86860000D02*
X52570000Y-85860000D01*
X54770000Y-87110000D02*
X54770000Y-85610000D01*
X49370000Y-87110000D02*
X49370000Y-85610000D01*
X54770000Y-87110000D02*
X49370000Y-87110000D01*
X49370000Y-85610000D02*
X54770000Y-85610000D01*
X146820000Y-67810000D02*
X146820000Y-66810000D01*
X146920000Y-67310000D02*
X147820000Y-67810000D01*
X147820000Y-66810000D02*
X146920000Y-67310000D01*
X147820000Y-67810000D02*
X147820000Y-66810000D01*
X150020000Y-68060000D02*
X150020000Y-66560000D01*
X144620000Y-68060000D02*
X144620000Y-66560000D01*
X150020000Y-68060000D02*
X144620000Y-68060000D01*
X144620000Y-66560000D02*
X150020000Y-66560000D01*
X127770000Y-67810000D02*
X127770000Y-66810000D01*
X127870000Y-67310000D02*
X128770000Y-67810000D01*
X128770000Y-66810000D02*
X127870000Y-67310000D01*
X128770000Y-67810000D02*
X128770000Y-66810000D01*
X130970000Y-68060000D02*
X130970000Y-66560000D01*
X125570000Y-68060000D02*
X125570000Y-66560000D01*
X130970000Y-68060000D02*
X125570000Y-68060000D01*
X125570000Y-66560000D02*
X130970000Y-66560000D01*
X108720000Y-67810000D02*
X108720000Y-66810000D01*
X108820000Y-67310000D02*
X109720000Y-67810000D01*
X109720000Y-66810000D02*
X108820000Y-67310000D01*
X109720000Y-67810000D02*
X109720000Y-66810000D01*
X111920000Y-68060000D02*
X111920000Y-66560000D01*
X106520000Y-68060000D02*
X106520000Y-66560000D01*
X111920000Y-68060000D02*
X106520000Y-68060000D01*
X106520000Y-66560000D02*
X111920000Y-66560000D01*
X89670000Y-67810000D02*
X89670000Y-66810000D01*
X89770000Y-67310000D02*
X90670000Y-67810000D01*
X90670000Y-66810000D02*
X89770000Y-67310000D01*
X90670000Y-67810000D02*
X90670000Y-66810000D01*
X92870000Y-68060000D02*
X92870000Y-66560000D01*
X87470000Y-68060000D02*
X87470000Y-66560000D01*
X92870000Y-68060000D02*
X87470000Y-68060000D01*
X87470000Y-66560000D02*
X92870000Y-66560000D01*
X70620000Y-67810000D02*
X70620000Y-66810000D01*
X70720000Y-67310000D02*
X71620000Y-67810000D01*
X71620000Y-66810000D02*
X70720000Y-67310000D01*
X71620000Y-67810000D02*
X71620000Y-66810000D01*
X73820000Y-68060000D02*
X73820000Y-66560000D01*
X68420000Y-68060000D02*
X68420000Y-66560000D01*
X73820000Y-68060000D02*
X68420000Y-68060000D01*
X68420000Y-66560000D02*
X73820000Y-66560000D01*
X51570000Y-67810000D02*
X51570000Y-66810000D01*
X51670000Y-67310000D02*
X52570000Y-67810000D01*
X52570000Y-66810000D02*
X51670000Y-67310000D01*
X52570000Y-67810000D02*
X52570000Y-66810000D01*
X54770000Y-68060000D02*
X54770000Y-66560000D01*
X49370000Y-68060000D02*
X49370000Y-66560000D01*
X54770000Y-68060000D02*
X49370000Y-68060000D01*
X49370000Y-66560000D02*
X54770000Y-66560000D01*
X127770000Y-48760000D02*
X127770000Y-47760000D01*
X127870000Y-48260000D02*
X128770000Y-48760000D01*
X128770000Y-47760000D02*
X127870000Y-48260000D01*
X128770000Y-48760000D02*
X128770000Y-47760000D01*
X130970000Y-49010000D02*
X130970000Y-47510000D01*
X125570000Y-49010000D02*
X125570000Y-47510000D01*
X130970000Y-49010000D02*
X125570000Y-49010000D01*
X125570000Y-47510000D02*
X130970000Y-47510000D01*
X108720000Y-48760000D02*
X108720000Y-47760000D01*
X108820000Y-48260000D02*
X109720000Y-48760000D01*
X109720000Y-47760000D02*
X108820000Y-48260000D01*
X109720000Y-48760000D02*
X109720000Y-47760000D01*
X111920000Y-49010000D02*
X111920000Y-47510000D01*
X106520000Y-49010000D02*
X106520000Y-47510000D01*
X111920000Y-49010000D02*
X106520000Y-49010000D01*
X106520000Y-47510000D02*
X111920000Y-47510000D01*
X51570000Y-48760000D02*
X51570000Y-47760000D01*
X51670000Y-48260000D02*
X52570000Y-48760000D01*
X52570000Y-47760000D02*
X51670000Y-48260000D01*
X52570000Y-48760000D02*
X52570000Y-47760000D01*
X54770000Y-49010000D02*
X54770000Y-47510000D01*
X49370000Y-49010000D02*
X49370000Y-47510000D01*
X54770000Y-49010000D02*
X49370000Y-49010000D01*
X49370000Y-47510000D02*
X54770000Y-47510000D01*
%LPC*%
D12*
X116840000Y-71120000D03*
G36*
G01*
X116000126Y-70678797D02*
X116000126Y-70678797D01*
G75*
G02*
X116743552Y-69922281I749971J6545D01*
G01*
X119643442Y-69896975D01*
G75*
G02*
X120399958Y-70640401I6545J-749971D01*
G01*
X120399958Y-70640401D01*
G75*
G02*
X119656532Y-71396917I-749971J-6545D01*
G01*
X116756642Y-71422223D01*
G75*
G02*
X116000126Y-70678797I-6545J749971D01*
G01*
G37*
D13*
X109200000Y-80100000D03*
D14*
X114300000Y-76200000D03*
D15*
X108800000Y-76200000D03*
X119800000Y-76200000D03*
D16*
X114300000Y-82100000D03*
D12*
X110490000Y-73660000D03*
D17*
X119380000Y-76200000D03*
X109220000Y-76200000D03*
D12*
X154940000Y-147320000D03*
G36*
G01*
X154100126Y-146878797D02*
X154100126Y-146878797D01*
G75*
G02*
X154843552Y-146122281I749971J6545D01*
G01*
X157743442Y-146096975D01*
G75*
G02*
X158499958Y-146840401I6545J-749971D01*
G01*
X158499958Y-146840401D01*
G75*
G02*
X157756532Y-147596917I-749971J-6545D01*
G01*
X154856642Y-147622223D01*
G75*
G02*
X154100126Y-146878797I-6545J749971D01*
G01*
G37*
D13*
X147300000Y-156300000D03*
D14*
X152400000Y-152400000D03*
D15*
X146900000Y-152400000D03*
X157900000Y-152400000D03*
D16*
X152400000Y-158300000D03*
D12*
X148590000Y-149860000D03*
D17*
X157480000Y-152400000D03*
X147320000Y-152400000D03*
D12*
X97790000Y-52070000D03*
G36*
G01*
X96950126Y-51628797D02*
X96950126Y-51628797D01*
G75*
G02*
X97693552Y-50872281I749971J6545D01*
G01*
X100593442Y-50846975D01*
G75*
G02*
X101349958Y-51590401I6545J-749971D01*
G01*
X101349958Y-51590401D01*
G75*
G02*
X100606532Y-52346917I-749971J-6545D01*
G01*
X97706642Y-52372223D01*
G75*
G02*
X96950126Y-51628797I-6545J749971D01*
G01*
G37*
D13*
X90150000Y-61050000D03*
D14*
X95250000Y-57150000D03*
D15*
X89750000Y-57150000D03*
X100750000Y-57150000D03*
D16*
X95250000Y-63050000D03*
D12*
X91440000Y-54610000D03*
D17*
X100330000Y-57150000D03*
X90170000Y-57150000D03*
D18*
X149095000Y-48260000D03*
X145545000Y-48260000D03*
D12*
X78740000Y-52070000D03*
G36*
G01*
X77900126Y-51628797D02*
X77900126Y-51628797D01*
G75*
G02*
X78643552Y-50872281I749971J6545D01*
G01*
X81543442Y-50846975D01*
G75*
G02*
X82299958Y-51590401I6545J-749971D01*
G01*
X82299958Y-51590401D01*
G75*
G02*
X81556532Y-52346917I-749971J-6545D01*
G01*
X78656642Y-52372223D01*
G75*
G02*
X77900126Y-51628797I-6545J749971D01*
G01*
G37*
D13*
X71100000Y-61050000D03*
D14*
X76200000Y-57150000D03*
D15*
X70700000Y-57150000D03*
X81700000Y-57150000D03*
D16*
X76200000Y-63050000D03*
D12*
X72390000Y-54610000D03*
D17*
X81280000Y-57150000D03*
X71120000Y-57150000D03*
D12*
X135890000Y-128270000D03*
G36*
G01*
X135050126Y-127828797D02*
X135050126Y-127828797D01*
G75*
G02*
X135793552Y-127072281I749971J6545D01*
G01*
X138693442Y-127046975D01*
G75*
G02*
X139449958Y-127790401I6545J-749971D01*
G01*
X139449958Y-127790401D01*
G75*
G02*
X138706532Y-128546917I-749971J-6545D01*
G01*
X135806642Y-128572223D01*
G75*
G02*
X135050126Y-127828797I-6545J749971D01*
G01*
G37*
D13*
X128250000Y-137250000D03*
D14*
X133350000Y-133350000D03*
D15*
X127850000Y-133350000D03*
X138850000Y-133350000D03*
D16*
X133350000Y-139250000D03*
D12*
X129540000Y-130810000D03*
D17*
X138430000Y-133350000D03*
X128270000Y-133350000D03*
D12*
X116840000Y-128270000D03*
G36*
G01*
X116000126Y-127828797D02*
X116000126Y-127828797D01*
G75*
G02*
X116743552Y-127072281I749971J6545D01*
G01*
X119643442Y-127046975D01*
G75*
G02*
X120399958Y-127790401I6545J-749971D01*
G01*
X120399958Y-127790401D01*
G75*
G02*
X119656532Y-128546917I-749971J-6545D01*
G01*
X116756642Y-128572223D01*
G75*
G02*
X116000126Y-127828797I-6545J749971D01*
G01*
G37*
D13*
X109200000Y-137250000D03*
D14*
X114300000Y-133350000D03*
D15*
X108800000Y-133350000D03*
X119800000Y-133350000D03*
D16*
X114300000Y-139250000D03*
D12*
X110490000Y-130810000D03*
D17*
X119380000Y-133350000D03*
X109220000Y-133350000D03*
D12*
X154940000Y-109220000D03*
G36*
G01*
X154100126Y-108778797D02*
X154100126Y-108778797D01*
G75*
G02*
X154843552Y-108022281I749971J6545D01*
G01*
X157743442Y-107996975D01*
G75*
G02*
X158499958Y-108740401I6545J-749971D01*
G01*
X158499958Y-108740401D01*
G75*
G02*
X157756532Y-109496917I-749971J-6545D01*
G01*
X154856642Y-109522223D01*
G75*
G02*
X154100126Y-108778797I-6545J749971D01*
G01*
G37*
D13*
X147300000Y-118200000D03*
D14*
X152400000Y-114300000D03*
D15*
X146900000Y-114300000D03*
X157900000Y-114300000D03*
D16*
X152400000Y-120200000D03*
D12*
X148590000Y-111760000D03*
D17*
X157480000Y-114300000D03*
X147320000Y-114300000D03*
D18*
X91945000Y-48260000D03*
X88395000Y-48260000D03*
X72895000Y-48260000D03*
X69345000Y-48260000D03*
D12*
X135890000Y-147320000D03*
G36*
G01*
X135050126Y-146878797D02*
X135050126Y-146878797D01*
G75*
G02*
X135793552Y-146122281I749971J6545D01*
G01*
X138693442Y-146096975D01*
G75*
G02*
X139449958Y-146840401I6545J-749971D01*
G01*
X139449958Y-146840401D01*
G75*
G02*
X138706532Y-147596917I-749971J-6545D01*
G01*
X135806642Y-147622223D01*
G75*
G02*
X135050126Y-146878797I-6545J749971D01*
G01*
G37*
D13*
X128250000Y-156300000D03*
D14*
X133350000Y-152400000D03*
D15*
X127850000Y-152400000D03*
X138850000Y-152400000D03*
D16*
X133350000Y-158300000D03*
D12*
X129540000Y-149860000D03*
D17*
X138430000Y-152400000D03*
X128270000Y-152400000D03*
D12*
X116840000Y-147320000D03*
G36*
G01*
X116000126Y-146878797D02*
X116000126Y-146878797D01*
G75*
G02*
X116743552Y-146122281I749971J6545D01*
G01*
X119643442Y-146096975D01*
G75*
G02*
X120399958Y-146840401I6545J-749971D01*
G01*
X120399958Y-146840401D01*
G75*
G02*
X119656532Y-147596917I-749971J-6545D01*
G01*
X116756642Y-147622223D01*
G75*
G02*
X116000126Y-146878797I-6545J749971D01*
G01*
G37*
D13*
X109200000Y-156300000D03*
D14*
X114300000Y-152400000D03*
D15*
X108800000Y-152400000D03*
X119800000Y-152400000D03*
D16*
X114300000Y-158300000D03*
D12*
X110490000Y-149860000D03*
D17*
X119380000Y-152400000D03*
X109220000Y-152400000D03*
D12*
X97790000Y-147320000D03*
G36*
G01*
X96950126Y-146878797D02*
X96950126Y-146878797D01*
G75*
G02*
X97693552Y-146122281I749971J6545D01*
G01*
X100593442Y-146096975D01*
G75*
G02*
X101349958Y-146840401I6545J-749971D01*
G01*
X101349958Y-146840401D01*
G75*
G02*
X100606532Y-147596917I-749971J-6545D01*
G01*
X97706642Y-147622223D01*
G75*
G02*
X96950126Y-146878797I-6545J749971D01*
G01*
G37*
D13*
X90150000Y-156300000D03*
D14*
X95250000Y-152400000D03*
D15*
X89750000Y-152400000D03*
X100750000Y-152400000D03*
D16*
X95250000Y-158300000D03*
D12*
X91440000Y-149860000D03*
D17*
X100330000Y-152400000D03*
X90170000Y-152400000D03*
D12*
X78740000Y-147320000D03*
G36*
G01*
X77900126Y-146878797D02*
X77900126Y-146878797D01*
G75*
G02*
X78643552Y-146122281I749971J6545D01*
G01*
X81543442Y-146096975D01*
G75*
G02*
X82299958Y-146840401I6545J-749971D01*
G01*
X82299958Y-146840401D01*
G75*
G02*
X81556532Y-147596917I-749971J-6545D01*
G01*
X78656642Y-147622223D01*
G75*
G02*
X77900126Y-146878797I-6545J749971D01*
G01*
G37*
D13*
X71100000Y-156300000D03*
D14*
X76200000Y-152400000D03*
D15*
X70700000Y-152400000D03*
X81700000Y-152400000D03*
D16*
X76200000Y-158300000D03*
D12*
X72390000Y-149860000D03*
D17*
X81280000Y-152400000D03*
X71120000Y-152400000D03*
D12*
X59690000Y-147320000D03*
G36*
G01*
X58850126Y-146878797D02*
X58850126Y-146878797D01*
G75*
G02*
X59593552Y-146122281I749971J6545D01*
G01*
X62493442Y-146096975D01*
G75*
G02*
X63249958Y-146840401I6545J-749971D01*
G01*
X63249958Y-146840401D01*
G75*
G02*
X62506532Y-147596917I-749971J-6545D01*
G01*
X59606642Y-147622223D01*
G75*
G02*
X58850126Y-146878797I-6545J749971D01*
G01*
G37*
D13*
X52050000Y-156300000D03*
D14*
X57150000Y-152400000D03*
D15*
X51650000Y-152400000D03*
X62650000Y-152400000D03*
D16*
X57150000Y-158300000D03*
D12*
X53340000Y-149860000D03*
D17*
X62230000Y-152400000D03*
X52070000Y-152400000D03*
D12*
X154940000Y-128270000D03*
G36*
G01*
X154100126Y-127828797D02*
X154100126Y-127828797D01*
G75*
G02*
X154843552Y-127072281I749971J6545D01*
G01*
X157743442Y-127046975D01*
G75*
G02*
X158499958Y-127790401I6545J-749971D01*
G01*
X158499958Y-127790401D01*
G75*
G02*
X157756532Y-128546917I-749971J-6545D01*
G01*
X154856642Y-128572223D01*
G75*
G02*
X154100126Y-127828797I-6545J749971D01*
G01*
G37*
D13*
X147300000Y-137250000D03*
D14*
X152400000Y-133350000D03*
D15*
X146900000Y-133350000D03*
X157900000Y-133350000D03*
D16*
X152400000Y-139250000D03*
D12*
X148590000Y-130810000D03*
D17*
X157480000Y-133350000D03*
X147320000Y-133350000D03*
D12*
X97790000Y-128270000D03*
G36*
G01*
X96950126Y-127828797D02*
X96950126Y-127828797D01*
G75*
G02*
X97693552Y-127072281I749971J6545D01*
G01*
X100593442Y-127046975D01*
G75*
G02*
X101349958Y-127790401I6545J-749971D01*
G01*
X101349958Y-127790401D01*
G75*
G02*
X100606532Y-128546917I-749971J-6545D01*
G01*
X97706642Y-128572223D01*
G75*
G02*
X96950126Y-127828797I-6545J749971D01*
G01*
G37*
D13*
X90150000Y-137250000D03*
D14*
X95250000Y-133350000D03*
D15*
X89750000Y-133350000D03*
X100750000Y-133350000D03*
D16*
X95250000Y-139250000D03*
D12*
X91440000Y-130810000D03*
D17*
X100330000Y-133350000D03*
X90170000Y-133350000D03*
D12*
X78740000Y-128270000D03*
G36*
G01*
X77900126Y-127828797D02*
X77900126Y-127828797D01*
G75*
G02*
X78643552Y-127072281I749971J6545D01*
G01*
X81543442Y-127046975D01*
G75*
G02*
X82299958Y-127790401I6545J-749971D01*
G01*
X82299958Y-127790401D01*
G75*
G02*
X81556532Y-128546917I-749971J-6545D01*
G01*
X78656642Y-128572223D01*
G75*
G02*
X77900126Y-127828797I-6545J749971D01*
G01*
G37*
D13*
X71100000Y-137250000D03*
D14*
X76200000Y-133350000D03*
D15*
X70700000Y-133350000D03*
X81700000Y-133350000D03*
D16*
X76200000Y-139250000D03*
D12*
X72390000Y-130810000D03*
D17*
X81280000Y-133350000D03*
X71120000Y-133350000D03*
D12*
X59690000Y-128270000D03*
G36*
G01*
X58850126Y-127828797D02*
X58850126Y-127828797D01*
G75*
G02*
X59593552Y-127072281I749971J6545D01*
G01*
X62493442Y-127046975D01*
G75*
G02*
X63249958Y-127790401I6545J-749971D01*
G01*
X63249958Y-127790401D01*
G75*
G02*
X62506532Y-128546917I-749971J-6545D01*
G01*
X59606642Y-128572223D01*
G75*
G02*
X58850126Y-127828797I-6545J749971D01*
G01*
G37*
D13*
X52050000Y-137250000D03*
D14*
X57150000Y-133350000D03*
D15*
X51650000Y-133350000D03*
X62650000Y-133350000D03*
D16*
X57150000Y-139250000D03*
D12*
X53340000Y-130810000D03*
D17*
X62230000Y-133350000D03*
X52070000Y-133350000D03*
D12*
X135890000Y-109220000D03*
G36*
G01*
X135050126Y-108778797D02*
X135050126Y-108778797D01*
G75*
G02*
X135793552Y-108022281I749971J6545D01*
G01*
X138693442Y-107996975D01*
G75*
G02*
X139449958Y-108740401I6545J-749971D01*
G01*
X139449958Y-108740401D01*
G75*
G02*
X138706532Y-109496917I-749971J-6545D01*
G01*
X135806642Y-109522223D01*
G75*
G02*
X135050126Y-108778797I-6545J749971D01*
G01*
G37*
D13*
X128250000Y-118200000D03*
D14*
X133350000Y-114300000D03*
D15*
X127850000Y-114300000D03*
X138850000Y-114300000D03*
D16*
X133350000Y-120200000D03*
D12*
X129540000Y-111760000D03*
D17*
X138430000Y-114300000D03*
X128270000Y-114300000D03*
D12*
X116840000Y-109220000D03*
G36*
G01*
X116000126Y-108778797D02*
X116000126Y-108778797D01*
G75*
G02*
X116743552Y-108022281I749971J6545D01*
G01*
X119643442Y-107996975D01*
G75*
G02*
X120399958Y-108740401I6545J-749971D01*
G01*
X120399958Y-108740401D01*
G75*
G02*
X119656532Y-109496917I-749971J-6545D01*
G01*
X116756642Y-109522223D01*
G75*
G02*
X116000126Y-108778797I-6545J749971D01*
G01*
G37*
D13*
X109200000Y-118200000D03*
D14*
X114300000Y-114300000D03*
D15*
X108800000Y-114300000D03*
X119800000Y-114300000D03*
D16*
X114300000Y-120200000D03*
D12*
X110490000Y-111760000D03*
D17*
X119380000Y-114300000D03*
X109220000Y-114300000D03*
D12*
X97790000Y-109220000D03*
G36*
G01*
X96950126Y-108778797D02*
X96950126Y-108778797D01*
G75*
G02*
X97693552Y-108022281I749971J6545D01*
G01*
X100593442Y-107996975D01*
G75*
G02*
X101349958Y-108740401I6545J-749971D01*
G01*
X101349958Y-108740401D01*
G75*
G02*
X100606532Y-109496917I-749971J-6545D01*
G01*
X97706642Y-109522223D01*
G75*
G02*
X96950126Y-108778797I-6545J749971D01*
G01*
G37*
D13*
X90150000Y-118200000D03*
D14*
X95250000Y-114300000D03*
D15*
X89750000Y-114300000D03*
X100750000Y-114300000D03*
D16*
X95250000Y-120200000D03*
D12*
X91440000Y-111760000D03*
D17*
X100330000Y-114300000D03*
X90170000Y-114300000D03*
D12*
X78740000Y-109220000D03*
G36*
G01*
X77900126Y-108778797D02*
X77900126Y-108778797D01*
G75*
G02*
X78643552Y-108022281I749971J6545D01*
G01*
X81543442Y-107996975D01*
G75*
G02*
X82299958Y-108740401I6545J-749971D01*
G01*
X82299958Y-108740401D01*
G75*
G02*
X81556532Y-109496917I-749971J-6545D01*
G01*
X78656642Y-109522223D01*
G75*
G02*
X77900126Y-108778797I-6545J749971D01*
G01*
G37*
D13*
X71100000Y-118200000D03*
D14*
X76200000Y-114300000D03*
D15*
X70700000Y-114300000D03*
X81700000Y-114300000D03*
D16*
X76200000Y-120200000D03*
D12*
X72390000Y-111760000D03*
D17*
X81280000Y-114300000D03*
X71120000Y-114300000D03*
D12*
X59690000Y-109220000D03*
G36*
G01*
X58850126Y-108778797D02*
X58850126Y-108778797D01*
G75*
G02*
X59593552Y-108022281I749971J6545D01*
G01*
X62493442Y-107996975D01*
G75*
G02*
X63249958Y-108740401I6545J-749971D01*
G01*
X63249958Y-108740401D01*
G75*
G02*
X62506532Y-109496917I-749971J-6545D01*
G01*
X59606642Y-109522223D01*
G75*
G02*
X58850126Y-108778797I-6545J749971D01*
G01*
G37*
D13*
X52050000Y-118200000D03*
D14*
X57150000Y-114300000D03*
D15*
X51650000Y-114300000D03*
X62650000Y-114300000D03*
D16*
X57150000Y-120200000D03*
D12*
X53340000Y-111760000D03*
D17*
X62230000Y-114300000D03*
X52070000Y-114300000D03*
D12*
X154940000Y-90170000D03*
G36*
G01*
X154100126Y-89728797D02*
X154100126Y-89728797D01*
G75*
G02*
X154843552Y-88972281I749971J6545D01*
G01*
X157743442Y-88946975D01*
G75*
G02*
X158499958Y-89690401I6545J-749971D01*
G01*
X158499958Y-89690401D01*
G75*
G02*
X157756532Y-90446917I-749971J-6545D01*
G01*
X154856642Y-90472223D01*
G75*
G02*
X154100126Y-89728797I-6545J749971D01*
G01*
G37*
D13*
X147300000Y-99150000D03*
D14*
X152400000Y-95250000D03*
D15*
X146900000Y-95250000D03*
X157900000Y-95250000D03*
D16*
X152400000Y-101150000D03*
D12*
X148590000Y-92710000D03*
D17*
X157480000Y-95250000D03*
X147320000Y-95250000D03*
D12*
X135890000Y-90170000D03*
G36*
G01*
X135050126Y-89728797D02*
X135050126Y-89728797D01*
G75*
G02*
X135793552Y-88972281I749971J6545D01*
G01*
X138693442Y-88946975D01*
G75*
G02*
X139449958Y-89690401I6545J-749971D01*
G01*
X139449958Y-89690401D01*
G75*
G02*
X138706532Y-90446917I-749971J-6545D01*
G01*
X135806642Y-90472223D01*
G75*
G02*
X135050126Y-89728797I-6545J749971D01*
G01*
G37*
D13*
X128250000Y-99150000D03*
D14*
X133350000Y-95250000D03*
D15*
X127850000Y-95250000D03*
X138850000Y-95250000D03*
D16*
X133350000Y-101150000D03*
D12*
X129540000Y-92710000D03*
D17*
X138430000Y-95250000D03*
X128270000Y-95250000D03*
D12*
X116840000Y-90170000D03*
G36*
G01*
X116000126Y-89728797D02*
X116000126Y-89728797D01*
G75*
G02*
X116743552Y-88972281I749971J6545D01*
G01*
X119643442Y-88946975D01*
G75*
G02*
X120399958Y-89690401I6545J-749971D01*
G01*
X120399958Y-89690401D01*
G75*
G02*
X119656532Y-90446917I-749971J-6545D01*
G01*
X116756642Y-90472223D01*
G75*
G02*
X116000126Y-89728797I-6545J749971D01*
G01*
G37*
D13*
X109200000Y-99150000D03*
D14*
X114300000Y-95250000D03*
D15*
X108800000Y-95250000D03*
X119800000Y-95250000D03*
D16*
X114300000Y-101150000D03*
D12*
X110490000Y-92710000D03*
D17*
X119380000Y-95250000D03*
X109220000Y-95250000D03*
D12*
X97790000Y-90170000D03*
G36*
G01*
X96950126Y-89728797D02*
X96950126Y-89728797D01*
G75*
G02*
X97693552Y-88972281I749971J6545D01*
G01*
X100593442Y-88946975D01*
G75*
G02*
X101349958Y-89690401I6545J-749971D01*
G01*
X101349958Y-89690401D01*
G75*
G02*
X100606532Y-90446917I-749971J-6545D01*
G01*
X97706642Y-90472223D01*
G75*
G02*
X96950126Y-89728797I-6545J749971D01*
G01*
G37*
D13*
X90150000Y-99150000D03*
D14*
X95250000Y-95250000D03*
D15*
X89750000Y-95250000D03*
X100750000Y-95250000D03*
D16*
X95250000Y-101150000D03*
D12*
X91440000Y-92710000D03*
D17*
X100330000Y-95250000D03*
X90170000Y-95250000D03*
D12*
X78740000Y-90170000D03*
G36*
G01*
X77900126Y-89728797D02*
X77900126Y-89728797D01*
G75*
G02*
X78643552Y-88972281I749971J6545D01*
G01*
X81543442Y-88946975D01*
G75*
G02*
X82299958Y-89690401I6545J-749971D01*
G01*
X82299958Y-89690401D01*
G75*
G02*
X81556532Y-90446917I-749971J-6545D01*
G01*
X78656642Y-90472223D01*
G75*
G02*
X77900126Y-89728797I-6545J749971D01*
G01*
G37*
D13*
X71100000Y-99150000D03*
D14*
X76200000Y-95250000D03*
D15*
X70700000Y-95250000D03*
X81700000Y-95250000D03*
D16*
X76200000Y-101150000D03*
D12*
X72390000Y-92710000D03*
D17*
X81280000Y-95250000D03*
X71120000Y-95250000D03*
D12*
X59690000Y-90170000D03*
G36*
G01*
X58850126Y-89728797D02*
X58850126Y-89728797D01*
G75*
G02*
X59593552Y-88972281I749971J6545D01*
G01*
X62493442Y-88946975D01*
G75*
G02*
X63249958Y-89690401I6545J-749971D01*
G01*
X63249958Y-89690401D01*
G75*
G02*
X62506532Y-90446917I-749971J-6545D01*
G01*
X59606642Y-90472223D01*
G75*
G02*
X58850126Y-89728797I-6545J749971D01*
G01*
G37*
D13*
X52050000Y-99150000D03*
D14*
X57150000Y-95250000D03*
D15*
X51650000Y-95250000D03*
X62650000Y-95250000D03*
D16*
X57150000Y-101150000D03*
D12*
X53340000Y-92710000D03*
D17*
X62230000Y-95250000D03*
X52070000Y-95250000D03*
D12*
X154940000Y-71120000D03*
G36*
G01*
X154100126Y-70678797D02*
X154100126Y-70678797D01*
G75*
G02*
X154843552Y-69922281I749971J6545D01*
G01*
X157743442Y-69896975D01*
G75*
G02*
X158499958Y-70640401I6545J-749971D01*
G01*
X158499958Y-70640401D01*
G75*
G02*
X157756532Y-71396917I-749971J-6545D01*
G01*
X154856642Y-71422223D01*
G75*
G02*
X154100126Y-70678797I-6545J749971D01*
G01*
G37*
D13*
X147300000Y-80100000D03*
D14*
X152400000Y-76200000D03*
D15*
X146900000Y-76200000D03*
X157900000Y-76200000D03*
D16*
X152400000Y-82100000D03*
D12*
X148590000Y-73660000D03*
D17*
X157480000Y-76200000D03*
X147320000Y-76200000D03*
D12*
X135890000Y-71120000D03*
G36*
G01*
X135050126Y-70678797D02*
X135050126Y-70678797D01*
G75*
G02*
X135793552Y-69922281I749971J6545D01*
G01*
X138693442Y-69896975D01*
G75*
G02*
X139449958Y-70640401I6545J-749971D01*
G01*
X139449958Y-70640401D01*
G75*
G02*
X138706532Y-71396917I-749971J-6545D01*
G01*
X135806642Y-71422223D01*
G75*
G02*
X135050126Y-70678797I-6545J749971D01*
G01*
G37*
D13*
X128250000Y-80100000D03*
D14*
X133350000Y-76200000D03*
D15*
X127850000Y-76200000D03*
X138850000Y-76200000D03*
D16*
X133350000Y-82100000D03*
D12*
X129540000Y-73660000D03*
D17*
X138430000Y-76200000D03*
X128270000Y-76200000D03*
D12*
X97790000Y-71120000D03*
G36*
G01*
X96950126Y-70678797D02*
X96950126Y-70678797D01*
G75*
G02*
X97693552Y-69922281I749971J6545D01*
G01*
X100593442Y-69896975D01*
G75*
G02*
X101349958Y-70640401I6545J-749971D01*
G01*
X101349958Y-70640401D01*
G75*
G02*
X100606532Y-71396917I-749971J-6545D01*
G01*
X97706642Y-71422223D01*
G75*
G02*
X96950126Y-70678797I-6545J749971D01*
G01*
G37*
D13*
X90150000Y-80100000D03*
D14*
X95250000Y-76200000D03*
D15*
X89750000Y-76200000D03*
X100750000Y-76200000D03*
D16*
X95250000Y-82100000D03*
D12*
X91440000Y-73660000D03*
D17*
X100330000Y-76200000D03*
X90170000Y-76200000D03*
D12*
X78740000Y-71120000D03*
G36*
G01*
X77900126Y-70678797D02*
X77900126Y-70678797D01*
G75*
G02*
X78643552Y-69922281I749971J6545D01*
G01*
X81543442Y-69896975D01*
G75*
G02*
X82299958Y-70640401I6545J-749971D01*
G01*
X82299958Y-70640401D01*
G75*
G02*
X81556532Y-71396917I-749971J-6545D01*
G01*
X78656642Y-71422223D01*
G75*
G02*
X77900126Y-70678797I-6545J749971D01*
G01*
G37*
D13*
X71100000Y-80100000D03*
D14*
X76200000Y-76200000D03*
D15*
X70700000Y-76200000D03*
X81700000Y-76200000D03*
D16*
X76200000Y-82100000D03*
D12*
X72390000Y-73660000D03*
D17*
X81280000Y-76200000D03*
X71120000Y-76200000D03*
D12*
X59690000Y-71120000D03*
G36*
G01*
X58850126Y-70678797D02*
X58850126Y-70678797D01*
G75*
G02*
X59593552Y-69922281I749971J6545D01*
G01*
X62493442Y-69896975D01*
G75*
G02*
X63249958Y-70640401I6545J-749971D01*
G01*
X63249958Y-70640401D01*
G75*
G02*
X62506532Y-71396917I-749971J-6545D01*
G01*
X59606642Y-71422223D01*
G75*
G02*
X58850126Y-70678797I-6545J749971D01*
G01*
G37*
D13*
X52050000Y-80100000D03*
D14*
X57150000Y-76200000D03*
D15*
X51650000Y-76200000D03*
X62650000Y-76200000D03*
D16*
X57150000Y-82100000D03*
D12*
X53340000Y-73660000D03*
D17*
X62230000Y-76200000D03*
X52070000Y-76200000D03*
D12*
X154940000Y-52070000D03*
G36*
G01*
X154100126Y-51628797D02*
X154100126Y-51628797D01*
G75*
G02*
X154843552Y-50872281I749971J6545D01*
G01*
X157743442Y-50846975D01*
G75*
G02*
X158499958Y-51590401I6545J-749971D01*
G01*
X158499958Y-51590401D01*
G75*
G02*
X157756532Y-52346917I-749971J-6545D01*
G01*
X154856642Y-52372223D01*
G75*
G02*
X154100126Y-51628797I-6545J749971D01*
G01*
G37*
D13*
X147300000Y-61050000D03*
D14*
X152400000Y-57150000D03*
D15*
X146900000Y-57150000D03*
X157900000Y-57150000D03*
D16*
X152400000Y-63050000D03*
D12*
X148590000Y-54610000D03*
D17*
X157480000Y-57150000D03*
X147320000Y-57150000D03*
D12*
X135890000Y-52070000D03*
G36*
G01*
X135050126Y-51628797D02*
X135050126Y-51628797D01*
G75*
G02*
X135793552Y-50872281I749971J6545D01*
G01*
X138693442Y-50846975D01*
G75*
G02*
X139449958Y-51590401I6545J-749971D01*
G01*
X139449958Y-51590401D01*
G75*
G02*
X138706532Y-52346917I-749971J-6545D01*
G01*
X135806642Y-52372223D01*
G75*
G02*
X135050126Y-51628797I-6545J749971D01*
G01*
G37*
D13*
X128250000Y-61050000D03*
D14*
X133350000Y-57150000D03*
D15*
X127850000Y-57150000D03*
X138850000Y-57150000D03*
D16*
X133350000Y-63050000D03*
D12*
X129540000Y-54610000D03*
D17*
X138430000Y-57150000D03*
X128270000Y-57150000D03*
D12*
X116840000Y-52070000D03*
G36*
G01*
X116000126Y-51628797D02*
X116000126Y-51628797D01*
G75*
G02*
X116743552Y-50872281I749971J6545D01*
G01*
X119643442Y-50846975D01*
G75*
G02*
X120399958Y-51590401I6545J-749971D01*
G01*
X120399958Y-51590401D01*
G75*
G02*
X119656532Y-52346917I-749971J-6545D01*
G01*
X116756642Y-52372223D01*
G75*
G02*
X116000126Y-51628797I-6545J749971D01*
G01*
G37*
D13*
X109200000Y-61050000D03*
D14*
X114300000Y-57150000D03*
D15*
X108800000Y-57150000D03*
X119800000Y-57150000D03*
D16*
X114300000Y-63050000D03*
D12*
X110490000Y-54610000D03*
D17*
X119380000Y-57150000D03*
X109220000Y-57150000D03*
D12*
X59690000Y-52070000D03*
G36*
G01*
X58850126Y-51628797D02*
X58850126Y-51628797D01*
G75*
G02*
X59593552Y-50872281I749971J6545D01*
G01*
X62493442Y-50846975D01*
G75*
G02*
X63249958Y-51590401I6545J-749971D01*
G01*
X63249958Y-51590401D01*
G75*
G02*
X62506532Y-52346917I-749971J-6545D01*
G01*
X59606642Y-52372223D01*
G75*
G02*
X58850126Y-51628797I-6545J749971D01*
G01*
G37*
D13*
X52050000Y-61050000D03*
D14*
X57150000Y-57150000D03*
D15*
X51650000Y-57150000D03*
X62650000Y-57150000D03*
D16*
X57150000Y-63050000D03*
D12*
X53340000Y-54610000D03*
D17*
X62230000Y-57150000D03*
X52070000Y-57150000D03*
D19*
X109220000Y-41275000D03*
D20*
X119380000Y-41275000D03*
D17*
X135255000Y-42545000D03*
X137795000Y-42545000D03*
X140335000Y-42545000D03*
X142875000Y-42545000D03*
X145415000Y-42545000D03*
X147955000Y-42545000D03*
X150495000Y-42545000D03*
X135255000Y-40005000D03*
X137795000Y-40005000D03*
X140335000Y-40005000D03*
X142875000Y-40005000D03*
X145415000Y-40005000D03*
X147955000Y-40005000D03*
G36*
G01*
X149895000Y-39155000D02*
X151095000Y-39155000D01*
G75*
G02*
X151345000Y-39405000I0J-250000D01*
G01*
X151345000Y-40605000D01*
G75*
G02*
X151095000Y-40855000I-250000J0D01*
G01*
X149895000Y-40855000D01*
G75*
G02*
X149645000Y-40605000I0J250000D01*
G01*
X149645000Y-39405000D01*
G75*
G02*
X149895000Y-39155000I250000J0D01*
G01*
G37*
D15*
X123825000Y-41275000D03*
D21*
X126365000Y-41275000D03*
D18*
X149095000Y-143510000D03*
X145545000Y-143510000D03*
X130045000Y-143510000D03*
X126495000Y-143510000D03*
X110995000Y-143510000D03*
X107445000Y-143510000D03*
X91945000Y-143510000D03*
X88395000Y-143510000D03*
X72895000Y-143510000D03*
X69345000Y-143510000D03*
X53845000Y-143510000D03*
X50295000Y-143510000D03*
X149095000Y-124460000D03*
X145545000Y-124460000D03*
X130045000Y-124460000D03*
X126495000Y-124460000D03*
X110995000Y-124460000D03*
X107445000Y-124460000D03*
X91945000Y-124460000D03*
X88395000Y-124460000D03*
X72895000Y-124460000D03*
X69345000Y-124460000D03*
X53845000Y-124460000D03*
X50295000Y-124460000D03*
X149095000Y-105410000D03*
X145545000Y-105410000D03*
X130045000Y-105410000D03*
X126495000Y-105410000D03*
X110995000Y-105410000D03*
X107445000Y-105410000D03*
X91945000Y-105410000D03*
X88395000Y-105410000D03*
X72895000Y-105410000D03*
X69345000Y-105410000D03*
X53845000Y-105410000D03*
X50295000Y-105410000D03*
X149095000Y-86360000D03*
X145545000Y-86360000D03*
X130045000Y-86360000D03*
X126495000Y-86360000D03*
X110995000Y-86360000D03*
X107445000Y-86360000D03*
X91945000Y-86360000D03*
X88395000Y-86360000D03*
X72895000Y-86360000D03*
X69345000Y-86360000D03*
X53845000Y-86360000D03*
X50295000Y-86360000D03*
X149095000Y-67310000D03*
X145545000Y-67310000D03*
X130045000Y-67310000D03*
X126495000Y-67310000D03*
X110995000Y-67310000D03*
X107445000Y-67310000D03*
X91945000Y-67310000D03*
X88395000Y-67310000D03*
X72895000Y-67310000D03*
X69345000Y-67310000D03*
X53845000Y-67310000D03*
X50295000Y-67310000D03*
X130045000Y-48260000D03*
X126495000Y-48260000D03*
X110995000Y-48260000D03*
X107445000Y-48260000D03*
X53845000Y-48260000D03*
X50295000Y-48260000D03*
M02*
